<?xml version="1.0" encoding="UTF-8" standalone="no"?>
<?xml-stylesheet href="diagrams.css" type="text/css"?>
<!DOCTYPE svg PUBLIC "-//W3C//DTD SVG 1.1//EN"
 "http://www.w3.org/Graphics/SVG/1.1/DTD/svg11.dtd">
<!-- Generated by graphviz version 14.1.2 (20260124.0452)
 -->
<!-- Title: atomic_object Pages: 1 -->
<svg width="426pt" height="299pt"
 viewBox="72.00 72.00 354.00 227.00" xmlns="http://www.w3.org/2000/svg" xmlns:xlink="http://www.w3.org/1999/xlink">
<g id="graph0" class="graph" transform="scale(1 1) rotate(0) translate(76 223)">
<title>atomic_object</title>
<polygon fill="white" stroke="none" points="-4,4 -4,-151 278,-151 278,4 -4,4"/>
<text xml:space="preserve" text-anchor="start" x="8" y="-32.75" font-family="Monospace" font-size="10.00" fill="dimgray">Logtalk library</text>
<text xml:space="preserve" text-anchor="start" x="8" y="-20" font-family="Monospace" font-size="10.00" fill="dimgray">Cross&#45;referencing diagram for object atomic</text>
<text xml:space="preserve" text-anchor="start" x="8" y="-7.25" font-family="Monospace" font-size="10.00" fill="dimgray">Generated on 2026&#45;02&#45;18, 19:17</text>
<g id="clust1" class="cluster">
<title>cluster_atomic_object</title>
<g id="a_clust1"><a xlink:title="atomic">
<path fill="snow" stroke="dimgray" d="M56,-54.25C56,-54.25 218,-54.25 218,-54.25 224,-54.25 230,-60.25 230,-66.25 230,-66.25 230,-127 230,-127 230,-133 224,-139 218,-139 218,-139 56,-139 56,-139 50,-139 44,-133 44,-127 44,-127 44,-66.25 44,-66.25 44,-60.25 50,-54.25 56,-54.25"/>
<g id="a_clust1_0"><a xlink:href="https://github.com/LogtalkDotOrg/logtalk3/tree/0de2170da4d105dc473532864e29574314f63f6f/library/types/atomic.lgt#L22" xlink:title="https://github.com/LogtalkDotOrg/logtalk3/tree/0de2170da4d105dc473532864e29574314f63f6f/library/types/atomic.lgt#L22">
<text xml:space="preserve" text-anchor="start" x="56" y="-121.5" font-family="Monospace" font-size="10.00" fill="dimgray">atomic</text>
</a>
</g>
</a>
</g>
</g>
<!-- valid/1 -->
<g id="node1" class="node">
<title>valid/1</title>
<polygon fill="cornsilk" stroke="black" points="127.88,-100.25 54.12,-100.25 54.12,-64.25 127.88,-64.25 127.88,-100.25"/>
<text xml:space="preserve" text-anchor="start" x="62.12" y="-84.95" font-family="Monospace" font-size="9.00"> </text>
<g id="a_node1_1"><a xlink:href="https://github.com/LogtalkDotOrg/logtalk3/tree/0de2170da4d105dc473532864e29574314f63f6f/library/types/atomic.lgt#L32" xlink:title="https://github.com/LogtalkDotOrg/logtalk3/tree/0de2170da4d105dc473532864e29574314f63f6f/library/types/atomic.lgt#L32">
<text xml:space="preserve" text-anchor="start" x="67.38" y="-84.17" font-family="Monospace" font-size="11.00">valid/1</text>
</a>
</g>
<text xml:space="preserve" text-anchor="start" x="114.62" y="-84.95" font-family="Monospace" font-size="9.00"> </text>
<text xml:space="preserve" text-anchor="start" x="62.12" y="-72.58" font-family="Monospace" font-size="9.00"> </text>
<text xml:space="preserve" text-anchor="start" x="79.75" y="-73.35" font-family="Monospace" font-size="7.00">local</text>
<text xml:space="preserve" text-anchor="start" x="114.62" y="-72.58" font-family="Monospace" font-size="9.00"> </text>
</g>
<!-- check/1 -->
<g id="node2" class="node">
<title>check/1</title>
<polygon fill="cornsilk" stroke="black" points="219.88,-100.25 146.12,-100.25 146.12,-64.25 219.88,-64.25 219.88,-100.25"/>
<text xml:space="preserve" text-anchor="start" x="154.12" y="-84.95" font-family="Monospace" font-size="9.00"> </text>
<g id="a_node2_2"><a xlink:href="https://github.com/LogtalkDotOrg/logtalk3/tree/0de2170da4d105dc473532864e29574314f63f6f/library/types/atomic.lgt#L35" xlink:title="https://github.com/LogtalkDotOrg/logtalk3/tree/0de2170da4d105dc473532864e29574314f63f6f/library/types/atomic.lgt#L35">
<text xml:space="preserve" text-anchor="start" x="159.38" y="-84.17" font-family="Monospace" font-size="11.00">check/1</text>
</a>
</g>
<text xml:space="preserve" text-anchor="start" x="206.62" y="-84.95" font-family="Monospace" font-size="9.00"> </text>
<text xml:space="preserve" text-anchor="start" x="154.12" y="-72.58" font-family="Monospace" font-size="9.00"> </text>
<text xml:space="preserve" text-anchor="start" x="171.75" y="-73.35" font-family="Monospace" font-size="7.00">local</text>
<text xml:space="preserve" text-anchor="start" x="206.62" y="-72.58" font-family="Monospace" font-size="9.00"> </text>
</g>
</g>
</svg>
