<?xml version="1.0" encoding="UTF-8" standalone="no"?>
<?xml-stylesheet href="diagrams.css" type="text/css"?>
<!DOCTYPE svg PUBLIC "-//W3C//DTD SVG 1.1//EN"
 "http://www.w3.org/Graphics/SVG/1.1/DTD/svg11.dtd">
<!-- Generated by graphviz version 15.1.0 (20260618.0150)
 -->
<!-- Title: ccsds_time_codes_object Pages: 1 -->
<svg width="486pt" height="299pt"
 viewBox="72.00 72.00 414.00 227.00" xmlns="http://www.w3.org/2000/svg" xmlns:xlink="http://www.w3.org/1999/xlink">
<g id="graph0" class="graph" transform="scale(1 1) rotate(0) translate(76 223)">
<title>ccsds_time_codes_object</title>
<polygon fill="white" stroke="none" points="-4,4 -4,-151 338,-151 338,4 -4,4"/>
<text xml:space="preserve" text-anchor="start" x="8" y="-32.75" font-family="Monospace" font-size="10.00" fill="dimgray">Logtalk library</text>
<text xml:space="preserve" text-anchor="start" x="8" y="-20" font-family="Monospace" font-size="10.00" fill="dimgray">Cross&#45;referencing diagram for object ccsds_time_codes</text>
<text xml:space="preserve" text-anchor="start" x="8" y="-7.25" font-family="Monospace" font-size="10.00" fill="dimgray">Generated on 2026&#45;07&#45;13, 15:42</text>
<g id="clust1" class="cluster">
<title>cluster_ccsds_time_codes_object</title>
<g id="a_clust1"><a xlink:title="ccsds_time_codes">
<path fill="snow" stroke="dimgray" d="M83,-54.25C83,-54.25 251,-54.25 251,-54.25 257,-54.25 263,-60.25 263,-66.25 263,-66.25 263,-127 263,-127 263,-133 257,-139 251,-139 251,-139 83,-139 83,-139 77,-139 71,-133 71,-127 71,-127 71,-66.25 71,-66.25 71,-60.25 77,-54.25 83,-54.25"/>
<g id="a_clust1_0"><a xlink:href="https://github.com/LogtalkDotOrg/logtalk3/tree/7503b13da39f75d8d4b20e2f23321e1218706979/library/ccsds_time_codes/ccsds_time_codes.lgt#L22" xlink:title="https://github.com/LogtalkDotOrg/logtalk3/tree/7503b13da39f75d8d4b20e2f23321e1218706979/library/ccsds_time_codes/ccsds_time_codes.lgt#L22">
<text xml:space="preserve" text-anchor="start" x="83" y="-121.25" font-family="Monospace" font-size="10.00" fill="dimgray">ccsds_time_codes</text>
</a>
</g>
</a>
</g>
</g>
<!-- valid/1 -->
<g id="node1" class="node">
<title>valid/1</title>
<polygon fill="springgreen" stroke="black" points="154.88,-100.25 81.12,-100.25 81.12,-64.25 154.88,-64.25 154.88,-100.25"/>
<text xml:space="preserve" text-anchor="start" x="89.12" y="-84.5" font-family="Monospace" font-size="9.00"> </text>
<g id="a_node1_1"><a xlink:href="https://github.com/LogtalkDotOrg/logtalk3/tree/7503b13da39f75d8d4b20e2f23321e1218706979/library/ccsds_time_codes/ccsds_time_codes.lgt#L31" xlink:title="https://github.com/LogtalkDotOrg/logtalk3/tree/7503b13da39f75d8d4b20e2f23321e1218706979/library/ccsds_time_codes/ccsds_time_codes.lgt#L31">
<text xml:space="preserve" text-anchor="start" x="94.38" y="-84.12" font-family="Monospace" font-size="11.00">valid/1</text>
</a>
</g>
<text xml:space="preserve" text-anchor="start" x="141.62" y="-84.5" font-family="Monospace" font-size="9.00"> </text>
<text xml:space="preserve" text-anchor="start" x="89.12" y="-72.12" font-family="Monospace" font-size="9.00"> </text>
<text xml:space="preserve" text-anchor="start" x="104.5" y="-73.25" font-family="Monospace" font-size="7.00">public</text>
<text xml:space="preserve" text-anchor="start" x="141.62" y="-72.12" font-family="Monospace" font-size="9.00"> </text>
</g>
<!-- format/2 -->
<g id="node2" class="node">
<title>format/2</title>
<polygon fill="springgreen" stroke="black" points="253.25,-100.25 172.75,-100.25 172.75,-64.25 253.25,-64.25 253.25,-100.25"/>
<text xml:space="preserve" text-anchor="start" x="180.75" y="-84.5" font-family="Monospace" font-size="9.00"> </text>
<g id="a_node2_2"><a xlink:href="https://github.com/LogtalkDotOrg/logtalk3/tree/7503b13da39f75d8d4b20e2f23321e1218706979/library/ccsds_time_codes/ccsds_time_codes.lgt#L38" xlink:title="https://github.com/LogtalkDotOrg/logtalk3/tree/7503b13da39f75d8d4b20e2f23321e1218706979/library/ccsds_time_codes/ccsds_time_codes.lgt#L38">
<text xml:space="preserve" text-anchor="start" x="186" y="-84.12" font-family="Monospace" font-size="11.00">format/2</text>
</a>
</g>
<text xml:space="preserve" text-anchor="start" x="240" y="-84.5" font-family="Monospace" font-size="9.00"> </text>
<text xml:space="preserve" text-anchor="start" x="180.75" y="-72.12" font-family="Monospace" font-size="9.00"> </text>
<text xml:space="preserve" text-anchor="start" x="199.5" y="-73.25" font-family="Monospace" font-size="7.00">public</text>
<text xml:space="preserve" text-anchor="start" x="240" y="-72.12" font-family="Monospace" font-size="9.00"> </text>
</g>
</g>
</svg>
