<?xml version="1.0" encoding="UTF-8" standalone="no"?>
<?xml-stylesheet href="diagrams.css" type="text/css"?>
<!DOCTYPE svg PUBLIC "-//W3C//DTD SVG 1.1//EN"
 "http://www.w3.org/Graphics/SVG/1.1/DTD/svg11.dtd">
<!-- Generated by graphviz version 14.1.2 (20260124.0452)
 -->
<!-- Title: compound_object Pages: 1 -->
<svg width="438pt" height="299pt"
 viewBox="72.00 72.00 366.00 227.00" xmlns="http://www.w3.org/2000/svg" xmlns:xlink="http://www.w3.org/1999/xlink">
<g id="graph0" class="graph" transform="scale(1 1) rotate(0) translate(76 223)">
<title>compound_object</title>
<polygon fill="white" stroke="none" points="-4,4 -4,-151 290,-151 290,4 -4,4"/>
<text xml:space="preserve" text-anchor="start" x="8" y="-32.75" font-family="Monospace" font-size="10.00" fill="dimgray">Logtalk library</text>
<text xml:space="preserve" text-anchor="start" x="8" y="-20" font-family="Monospace" font-size="10.00" fill="dimgray">Cross&#45;referencing diagram for object compound</text>
<text xml:space="preserve" text-anchor="start" x="8" y="-7.25" font-family="Monospace" font-size="10.00" fill="dimgray">Generated on 2026&#45;02&#45;09, 17:13</text>
<g id="clust1" class="cluster">
<title>cluster_compound_object</title>
<g id="a_clust1"><a xlink:title="compound">
<path fill="snow" stroke="dimgray" d="M62,-54.25C62,-54.25 224,-54.25 224,-54.25 230,-54.25 236,-60.25 236,-66.25 236,-66.25 236,-127 236,-127 236,-133 230,-139 224,-139 224,-139 62,-139 62,-139 56,-139 50,-133 50,-127 50,-127 50,-66.25 50,-66.25 50,-60.25 56,-54.25 62,-54.25"/>
<g id="a_clust1_0"><a xlink:href="https://github.com/LogtalkDotOrg/logtalk3/tree/8e841b933aa0ca8bc5fdcf2e9d174b0190111d2b/library/types/compound.lgt#L22" xlink:title="https://github.com/LogtalkDotOrg/logtalk3/tree/8e841b933aa0ca8bc5fdcf2e9d174b0190111d2b/library/types/compound.lgt#L22">
<text xml:space="preserve" text-anchor="start" x="62" y="-121.5" font-family="Monospace" font-size="10.00" fill="dimgray">compound</text>
</a>
</g>
</a>
</g>
</g>
<!-- valid/1 -->
<g id="node1" class="node">
<title>valid/1</title>
<polygon fill="cornsilk" stroke="black" points="133.88,-100.25 60.12,-100.25 60.12,-64.25 133.88,-64.25 133.88,-100.25"/>
<text xml:space="preserve" text-anchor="start" x="68.12" y="-84.95" font-family="Monospace" font-size="9.00"> </text>
<g id="a_node1_1"><a xlink:href="https://github.com/LogtalkDotOrg/logtalk3/tree/8e841b933aa0ca8bc5fdcf2e9d174b0190111d2b/library/types/compound.lgt#L32" xlink:title="https://github.com/LogtalkDotOrg/logtalk3/tree/8e841b933aa0ca8bc5fdcf2e9d174b0190111d2b/library/types/compound.lgt#L32">
<text xml:space="preserve" text-anchor="start" x="73.38" y="-84.17" font-family="Monospace" font-size="11.00">valid/1</text>
</a>
</g>
<text xml:space="preserve" text-anchor="start" x="120.62" y="-84.95" font-family="Monospace" font-size="9.00"> </text>
<text xml:space="preserve" text-anchor="start" x="68.12" y="-72.58" font-family="Monospace" font-size="9.00"> </text>
<text xml:space="preserve" text-anchor="start" x="85.75" y="-73.35" font-family="Monospace" font-size="7.00">local</text>
<text xml:space="preserve" text-anchor="start" x="120.62" y="-72.58" font-family="Monospace" font-size="9.00"> </text>
</g>
<!-- check/1 -->
<g id="node2" class="node">
<title>check/1</title>
<polygon fill="cornsilk" stroke="black" points="225.88,-100.25 152.12,-100.25 152.12,-64.25 225.88,-64.25 225.88,-100.25"/>
<text xml:space="preserve" text-anchor="start" x="160.12" y="-84.95" font-family="Monospace" font-size="9.00"> </text>
<g id="a_node2_2"><a xlink:href="https://github.com/LogtalkDotOrg/logtalk3/tree/8e841b933aa0ca8bc5fdcf2e9d174b0190111d2b/library/types/compound.lgt#L35" xlink:title="https://github.com/LogtalkDotOrg/logtalk3/tree/8e841b933aa0ca8bc5fdcf2e9d174b0190111d2b/library/types/compound.lgt#L35">
<text xml:space="preserve" text-anchor="start" x="165.38" y="-84.17" font-family="Monospace" font-size="11.00">check/1</text>
</a>
</g>
<text xml:space="preserve" text-anchor="start" x="212.62" y="-84.95" font-family="Monospace" font-size="9.00"> </text>
<text xml:space="preserve" text-anchor="start" x="160.12" y="-72.58" font-family="Monospace" font-size="9.00"> </text>
<text xml:space="preserve" text-anchor="start" x="177.75" y="-73.35" font-family="Monospace" font-size="7.00">local</text>
<text xml:space="preserve" text-anchor="start" x="212.62" y="-72.58" font-family="Monospace" font-size="9.00"> </text>
</g>
</g>
</svg>
