<?xml version="1.0" encoding="UTF-8" standalone="no"?>
<?xml-stylesheet href="diagrams.css" type="text/css"?>
<!DOCTYPE svg PUBLIC "-//W3C//DTD SVG 1.1//EN"
 "http://www.w3.org/Graphics/SVG/1.1/DTD/svg11.dtd">
<!-- Generated by graphviz version 15.0.0 (20260523.1842)
 -->
<!-- Title: core Pages: 1 -->
<svg width="782pt" height="898pt"
 viewBox="72.00 72.00 710.00 826.00" xmlns="http://www.w3.org/2000/svg" xmlns:xlink="http://www.w3.org/1999/xlink">
<g id="graph0" class="graph" transform="scale(1 1) rotate(0) translate(76 822.25)">
<title>core</title>
<polygon fill="white" stroke="none" points="-4,4 -4,-750.25 634,-750.25 634,4 -4,4"/>
<text xml:space="preserve" text-anchor="start" x="8" y="-32.75" font-family="Monospace" font-size="10.00" fill="dimgray">Logtalk core entities</text>
<text xml:space="preserve" text-anchor="start" x="8" y="-20" font-family="Monospace" font-size="10.00" fill="dimgray">Inheritance diagram for library core</text>
<text xml:space="preserve" text-anchor="start" x="8" y="-7.25" font-family="Monospace" font-size="10.00" fill="dimgray">Generated on 2026&#45;06&#45;13, 18:26</text>
<g id="clust1" class="cluster">
<title>cluster_library_core</title>
<g id="a_clust1"><a xlink:title="core/">
<path fill="whitesmoke" stroke="dimgray" d="M20,-54.25C20,-54.25 610,-54.25 610,-54.25 616,-54.25 622,-60.25 622,-66.25 622,-66.25 622,-726.25 622,-726.25 622,-732.25 616,-738.25 610,-738.25 610,-738.25 20,-738.25 20,-738.25 14,-738.25 8,-732.25 8,-726.25 8,-726.25 8,-66.25 8,-66.25 8,-60.25 14,-54.25 20,-54.25"/>
<g id="a_clust1_0"><a xlink:href="https://github.com/LogtalkDotOrg/logtalk3/tree/af7a6ae1a3616b6936098ddc19bea99f129d7daa/core/" xlink:title="https://github.com/LogtalkDotOrg/logtalk3/tree/af7a6ae1a3616b6936098ddc19bea99f129d7daa/core/">
<text xml:space="preserve" text-anchor="start" x="20" y="-65.25" font-family="Monospace" font-size="10.00" fill="dimgray">core/</text>
</a>
</g>
</a>
</g>
</g>
<g id="clust2" class="cluster">
<title>cluster_file_/opt/local/share/logtalk/core/expanding.lgt</title>
<g id="a_clust2"><a xlink:title="expanding.lgt">
<path fill="snow" stroke="dimgray" d="M30,-602C30,-602 142,-602 142,-602 148,-602 154,-608 154,-614 154,-614 154,-716.25 154,-716.25 154,-722.25 148,-728.25 142,-728.25 142,-728.25 30,-728.25 30,-728.25 24,-728.25 18,-722.25 18,-716.25 18,-716.25 18,-614 18,-614 18,-608 24,-602 30,-602"/>
<g id="a_clust2_1"><a xlink:href="https://github.com/LogtalkDotOrg/logtalk3/tree/af7a6ae1a3616b6936098ddc19bea99f129d7daa/core/expanding.lgt" xlink:title="https://github.com/LogtalkDotOrg/logtalk3/tree/af7a6ae1a3616b6936098ddc19bea99f129d7daa/core/expanding.lgt">
<text xml:space="preserve" text-anchor="start" x="30" y="-613" font-family="Monospace" font-size="10.00" fill="dimgray">expanding.lgt</text>
</a>
</g>
</a>
</g>
</g>
<g id="clust3" class="cluster">
<title>cluster_file_/opt/local/share/logtalk/core/monitoring.lgt</title>
<g id="a_clust3"><a xlink:title="monitoring.lgt">
<path fill="snow" stroke="dimgray" d="M176,-602C176,-602 280,-602 280,-602 286,-602 292,-608 292,-614 292,-614 292,-716.25 292,-716.25 292,-722.25 286,-728.25 280,-728.25 280,-728.25 176,-728.25 176,-728.25 170,-728.25 164,-722.25 164,-716.25 164,-716.25 164,-614 164,-614 164,-608 170,-602 176,-602"/>
<g id="a_clust3_2"><a xlink:href="https://github.com/LogtalkDotOrg/logtalk3/tree/af7a6ae1a3616b6936098ddc19bea99f129d7daa/core/monitoring.lgt" xlink:title="https://github.com/LogtalkDotOrg/logtalk3/tree/af7a6ae1a3616b6936098ddc19bea99f129d7daa/core/monitoring.lgt">
<text xml:space="preserve" text-anchor="start" x="176" y="-613" font-family="Monospace" font-size="10.00" fill="dimgray">monitoring.lgt</text>
</a>
</g>
</a>
</g>
</g>
<g id="clust4" class="cluster">
<title>cluster_file_/opt/local/share/logtalk/core/forwarding.lgt</title>
<g id="a_clust4"><a xlink:title="forwarding.lgt">
<path fill="snow" stroke="dimgray" d="M314,-607.62C314,-607.62 418,-607.62 418,-607.62 424,-607.62 430,-613.62 430,-619.62 430,-619.62 430,-710.62 430,-710.62 430,-716.62 424,-722.62 418,-722.62 418,-722.62 314,-722.62 314,-722.62 308,-722.62 302,-716.62 302,-710.62 302,-710.62 302,-619.62 302,-619.62 302,-613.62 308,-607.62 314,-607.62"/>
<g id="a_clust4_3"><a xlink:href="https://github.com/LogtalkDotOrg/logtalk3/tree/af7a6ae1a3616b6936098ddc19bea99f129d7daa/core/forwarding.lgt" xlink:title="https://github.com/LogtalkDotOrg/logtalk3/tree/af7a6ae1a3616b6936098ddc19bea99f129d7daa/core/forwarding.lgt">
<text xml:space="preserve" text-anchor="start" x="314" y="-618.62" font-family="Monospace" font-size="10.00" fill="dimgray">forwarding.lgt</text>
</a>
</g>
</a>
</g>
</g>
<g id="clust5" class="cluster">
<title>cluster_file_/opt/local/share/logtalk/core/user.lgt</title>
<g id="a_clust5"><a xlink:title="user.lgt">
<path fill="snow" stroke="dimgray" d="M30,-278.62C30,-278.62 140,-278.62 140,-278.62 146,-278.62 152,-284.62 152,-290.62 152,-290.62 152,-359.12 152,-359.12 152,-365.12 146,-371.12 140,-371.12 140,-371.12 30,-371.12 30,-371.12 24,-371.12 18,-365.12 18,-359.12 18,-359.12 18,-290.62 18,-290.62 18,-284.62 24,-278.62 30,-278.62"/>
<g id="a_clust5_4"><a xlink:href="https://github.com/LogtalkDotOrg/logtalk3/tree/af7a6ae1a3616b6936098ddc19bea99f129d7daa/core/user.lgt" xlink:title="https://github.com/LogtalkDotOrg/logtalk3/tree/af7a6ae1a3616b6936098ddc19bea99f129d7daa/core/user.lgt">
<text xml:space="preserve" text-anchor="start" x="30" y="-289.62" font-family="Monospace" font-size="10.00" fill="dimgray">user.lgt</text>
</a>
</g>
</a>
</g>
</g>
<g id="clust6" class="cluster">
<title>cluster_file_/opt/local/share/logtalk/core/logtalk.lgt</title>
<g id="a_clust6"><a xlink:title="logtalk.lgt">
<path fill="snow" stroke="dimgray" d="M174,-93C174,-93 370,-93 370,-93 376,-93 382,-99 382,-105 382,-105 382,-544.75 382,-544.75 382,-550.75 376,-556.75 370,-556.75 370,-556.75 174,-556.75 174,-556.75 168,-556.75 162,-550.75 162,-544.75 162,-544.75 162,-105 162,-105 162,-99 168,-93 174,-93"/>
<g id="a_clust6_5"><a xlink:href="https://github.com/LogtalkDotOrg/logtalk3/tree/af7a6ae1a3616b6936098ddc19bea99f129d7daa/core/logtalk.lgt" xlink:title="https://github.com/LogtalkDotOrg/logtalk3/tree/af7a6ae1a3616b6936098ddc19bea99f129d7daa/core/logtalk.lgt">
<text xml:space="preserve" text-anchor="start" x="174" y="-104" font-family="Monospace" font-size="10.00" fill="dimgray">logtalk.lgt</text>
</a>
</g>
</a>
</g>
</g>
<g id="clust7" class="cluster">
<title>cluster_file_/opt/local/share/logtalk/core/core_messages.lgt</title>
<g id="a_clust7"><a xlink:title="core_messages.lgt">
<path fill="snow" stroke="dimgray" d="M404,-261.75C404,-261.75 600,-261.75 600,-261.75 606,-261.75 612,-267.75 612,-273.75 612,-273.75 612,-376 612,-376 612,-382 606,-388 600,-388 600,-388 404,-388 404,-388 398,-388 392,-382 392,-376 392,-376 392,-273.75 392,-273.75 392,-267.75 398,-261.75 404,-261.75"/>
<g id="a_clust7_6"><a xlink:href="https://github.com/LogtalkDotOrg/logtalk3/tree/af7a6ae1a3616b6936098ddc19bea99f129d7daa/core/core_messages.lgt" xlink:title="https://github.com/LogtalkDotOrg/logtalk3/tree/af7a6ae1a3616b6936098ddc19bea99f129d7daa/core/core_messages.lgt">
<text xml:space="preserve" text-anchor="start" x="404" y="-272.75" font-family="Monospace" font-size="10.00" fill="dimgray">core_messages.lgt</text>
</a>
</g>
</a>
</g>
</g>
<!-- expanding -->
<g id="node1" class="node">
<title>expanding</title>
<polygon fill="aquamarine" stroke="black" points="138.12,-718.25 27.88,-718.25 27.88,-640.75 144.12,-640.75 144.12,-712.25 138.12,-718.25"/>
<polyline fill="none" stroke="black" points="138.12,-718.25 138.12,-712.25"/>
<polyline fill="none" stroke="black" points="144.12,-712.25 138.12,-712.25"/>
<g id="a_node1_7"><a xlink:href="expanding_protocol_xref_diagram.svg" xlink:title="Zoom">
<text xml:space="preserve" text-anchor="start" x="35.88" y="-705.25" font-family="Monospace" font-size="9.00">🔍</text>
</a>
</g>
<text xml:space="preserve" text-anchor="start" x="38.75" y="-693.12" font-family="Monospace" font-size="9.00"> </text>
<g id="a_node1_8"><a xlink:href="https://logtalk.org/library/expanding_0.html" xlink:title="https://logtalk.org/library/expanding_0.html">
<text xml:space="preserve" text-anchor="start" x="58.5" y="-692.75" font-family="Monospace" font-size="11.00">expanding</text>
</a>
</g>
<text xml:space="preserve" text-anchor="start" x="130.88" y="-693.12" font-family="Monospace" font-size="9.00"> </text>
<text xml:space="preserve" text-anchor="start" x="38.75" y="-680.75" font-family="Monospace" font-size="9.00"> </text>
<text xml:space="preserve" text-anchor="start" x="50.62" y="-681.88" font-family="Monospace" font-size="7.00">built&#45;in protocol</text>
<text xml:space="preserve" text-anchor="start" x="130.88" y="-680.75" font-family="Monospace" font-size="9.00"> </text>
<text xml:space="preserve" text-anchor="start" x="38.75" y="-669.5" font-family="Monospace" font-size="9.00"> </text>
<text xml:space="preserve" text-anchor="start" x="38.75" y="-658.25" font-family="Monospace" font-size="9.00"> </text>
<text xml:space="preserve" text-anchor="start" x="46.88" y="-658.25" font-family="Monospace" font-size="9.00">goal_expansion/2</text>
<text xml:space="preserve" text-anchor="start" x="130.88" y="-658.25" font-family="Monospace" font-size="9.00"> </text>
<text xml:space="preserve" text-anchor="start" x="38.75" y="-647" font-family="Monospace" font-size="9.00"> </text>
<text xml:space="preserve" text-anchor="start" x="46.88" y="-647" font-family="Monospace" font-size="9.00">term_expansion/2</text>
<text xml:space="preserve" text-anchor="start" x="130.88" y="-647" font-family="Monospace" font-size="9.00"> </text>
</g>
<!-- monitoring -->
<g id="node2" class="node">
<title>monitoring</title>
<polygon fill="aquamarine" stroke="black" points="276.38,-718.25 173.62,-718.25 173.62,-640.75 282.38,-640.75 282.38,-712.25 276.38,-718.25"/>
<polyline fill="none" stroke="black" points="276.38,-718.25 276.38,-712.25"/>
<polyline fill="none" stroke="black" points="282.38,-712.25 276.38,-712.25"/>
<g id="a_node2_9"><a xlink:href="monitoring_protocol_xref_diagram.svg" xlink:title="Zoom">
<text xml:space="preserve" text-anchor="start" x="181.62" y="-705.25" font-family="Monospace" font-size="9.00">🔍</text>
</a>
</g>
<text xml:space="preserve" text-anchor="start" x="184.5" y="-693.12" font-family="Monospace" font-size="9.00"> </text>
<g id="a_node2_10"><a xlink:href="https://logtalk.org/library/monitoring_0.html" xlink:title="https://logtalk.org/library/monitoring_0.html">
<text xml:space="preserve" text-anchor="start" x="197.12" y="-692.75" font-family="Monospace" font-size="11.00">monitoring</text>
</a>
</g>
<text xml:space="preserve" text-anchor="start" x="269.12" y="-693.12" font-family="Monospace" font-size="9.00"> </text>
<text xml:space="preserve" text-anchor="start" x="184.5" y="-680.75" font-family="Monospace" font-size="9.00"> </text>
<text xml:space="preserve" text-anchor="start" x="192.62" y="-681.88" font-family="Monospace" font-size="7.00">built&#45;in protocol</text>
<text xml:space="preserve" text-anchor="start" x="269.12" y="-680.75" font-family="Monospace" font-size="9.00"> </text>
<text xml:space="preserve" text-anchor="start" x="184.5" y="-669.5" font-family="Monospace" font-size="9.00"> </text>
<text xml:space="preserve" text-anchor="start" x="184.5" y="-658.25" font-family="Monospace" font-size="9.00"> </text>
<text xml:space="preserve" text-anchor="start" x="209.88" y="-658.25" font-family="Monospace" font-size="9.00">before/3</text>
<text xml:space="preserve" text-anchor="start" x="269.12" y="-658.25" font-family="Monospace" font-size="9.00"> </text>
<text xml:space="preserve" text-anchor="start" x="184.5" y="-647" font-family="Monospace" font-size="9.00"> </text>
<text xml:space="preserve" text-anchor="start" x="212.5" y="-647" font-family="Monospace" font-size="9.00">after/3</text>
<text xml:space="preserve" text-anchor="start" x="269.12" y="-647" font-family="Monospace" font-size="9.00"> </text>
</g>
<!-- forwarding -->
<g id="node3" class="node">
<title>forwarding</title>
<polygon fill="aquamarine" stroke="black" points="414.38,-712.62 311.62,-712.62 311.62,-646.38 420.38,-646.38 420.38,-706.62 414.38,-712.62"/>
<polyline fill="none" stroke="black" points="414.38,-712.62 414.38,-706.62"/>
<polyline fill="none" stroke="black" points="420.38,-706.62 414.38,-706.62"/>
<g id="a_node3_11"><a xlink:href="forwarding_protocol_xref_diagram.svg" xlink:title="Zoom">
<text xml:space="preserve" text-anchor="start" x="319.62" y="-699.62" font-family="Monospace" font-size="9.00">🔍</text>
</a>
</g>
<text xml:space="preserve" text-anchor="start" x="322.5" y="-687.5" font-family="Monospace" font-size="9.00"> </text>
<g id="a_node3_12"><a xlink:href="https://logtalk.org/library/forwarding_0.html" xlink:title="https://logtalk.org/library/forwarding_0.html">
<text xml:space="preserve" text-anchor="start" x="335.12" y="-687.12" font-family="Monospace" font-size="11.00">forwarding</text>
</a>
</g>
<text xml:space="preserve" text-anchor="start" x="407.12" y="-687.5" font-family="Monospace" font-size="9.00"> </text>
<text xml:space="preserve" text-anchor="start" x="322.5" y="-675.12" font-family="Monospace" font-size="9.00"> </text>
<text xml:space="preserve" text-anchor="start" x="330.62" y="-676.25" font-family="Monospace" font-size="7.00">built&#45;in protocol</text>
<text xml:space="preserve" text-anchor="start" x="407.12" y="-675.12" font-family="Monospace" font-size="9.00"> </text>
<text xml:space="preserve" text-anchor="start" x="322.5" y="-663.88" font-family="Monospace" font-size="9.00"> </text>
<text xml:space="preserve" text-anchor="start" x="322.5" y="-652.62" font-family="Monospace" font-size="9.00"> </text>
<text xml:space="preserve" text-anchor="start" x="345.25" y="-652.62" font-family="Monospace" font-size="9.00">forward/1</text>
<text xml:space="preserve" text-anchor="start" x="407.12" y="-652.62" font-family="Monospace" font-size="9.00"> </text>
</g>
<!-- user -->
<g id="node4" class="node">
<title>user</title>
<polygon fill="cornsilk" stroke="black" points="141.62,-361.12 28.38,-361.12 28.38,-317.38 141.62,-317.38 141.62,-361.12"/>
<g id="a_node4_13"><a xlink:href="user_object_xref_diagram.svg" xlink:title="Zoom">
<text xml:space="preserve" text-anchor="start" x="36.38" y="-348.12" font-family="Monospace" font-size="9.00">🔍</text>
</a>
</g>
<text xml:space="preserve" text-anchor="start" x="39.25" y="-336" font-family="Monospace" font-size="9.00"> </text>
<g id="a_node4_14"><a xlink:href="https://logtalk.org/library/user_0.html" xlink:title="https://logtalk.org/library/user_0.html">
<text xml:space="preserve" text-anchor="start" x="74.38" y="-335.62" font-family="Monospace" font-size="11.00">user</text>
</a>
</g>
<text xml:space="preserve" text-anchor="start" x="128.38" y="-336" font-family="Monospace" font-size="9.00"> </text>
<text xml:space="preserve" text-anchor="start" x="39.25" y="-323.62" font-family="Monospace" font-size="9.00"> </text>
<text xml:space="preserve" text-anchor="start" x="47.38" y="-324.75" font-family="Monospace" font-size="7.00">built&#45;in prototype</text>
<text xml:space="preserve" text-anchor="start" x="128.38" y="-323.62" font-family="Monospace" font-size="9.00"> </text>
</g>
<!-- user&#45;&gt;expanding -->
<g id="edge1" class="edge">
<title>user&#45;&gt;expanding</title>
<g id="a_edge1"><a xlink:href="https://logtalk.org/library/user_0.html" xlink:title="implements">
<path fill="none" stroke="black" d="M85.06,-361.41C85.22,-415.06 85.64,-557.39 85.86,-631.76"/>
<ellipse fill="black" stroke="black" cx="85.87" cy="-635.98" rx="4" ry="4"/>
</a>
</g>
<g id="a_edge1&#45;label"><a xlink:href="https://logtalk.org/library/user_0.html" xlink:title="https://logtalk.org/library/user_0.html">
<text xml:space="preserve" text-anchor="start" x="85.73" y="-585" font-family="Monospace" font-size="9.00">implements</text>
</a>
</g>
</g>
<!-- user&#45;&gt;monitoring -->
<g id="edge3" class="edge">
<title>user&#45;&gt;monitoring</title>
<g id="a_edge3"><a xlink:href="https://logtalk.org/library/user_0.html" xlink:title="implements">
<path fill="none" stroke="black" d="M90.62,-361.37C101.42,-400.71 126.78,-487.5 158,-556.75 169.7,-582.7 185.28,-610.3 198.78,-632.65"/>
<ellipse fill="black" stroke="black" cx="201.11" cy="-636.48" rx="4" ry="4"/>
</a>
</g>
<g id="a_edge3&#45;label"><a xlink:href="https://logtalk.org/library/user_0.html" xlink:title="https://logtalk.org/library/user_0.html">
<text xml:space="preserve" text-anchor="start" x="175.13" y="-585" font-family="Monospace" font-size="9.00">implements</text>
</a>
</g>
</g>
<!-- user&#45;&gt;forwarding -->
<g id="edge2" class="edge">
<title>user&#45;&gt;forwarding</title>
<g id="a_edge2"><a xlink:href="https://logtalk.org/library/user_0.html" xlink:title="implements">
<path fill="none" stroke="black" d="M86.05,-361.33C89.33,-404.18 102.8,-502.01 158,-556.75 169.46,-568.11 282.44,-593.25 296,-602 311.33,-611.89 325.49,-625.94 337,-639.31"/>
<ellipse fill="black" stroke="black" cx="339.89" cy="-642.75" rx="4" ry="4"/>
</a>
</g>
<g id="a_edge2&#45;label"><a xlink:href="https://logtalk.org/library/user_0.html" xlink:title="https://logtalk.org/library/user_0.html">
<text xml:space="preserve" text-anchor="start" x="271.84" y="-585" font-family="Monospace" font-size="9.00">implements</text>
</a>
</g>
</g>
<!-- logtalk -->
<g id="node5" class="node">
<title>logtalk</title>
<polygon fill="cornsilk" stroke="black" points="372.12,-546.75 171.88,-546.75 171.88,-131.75 372.12,-131.75 372.12,-546.75"/>
<g id="a_node5_15"><a xlink:href="logtalk_object_xref_diagram.svg" xlink:title="Zoom">
<text xml:space="preserve" text-anchor="start" x="179.88" y="-533.75" font-family="Monospace" font-size="9.00">🔍</text>
</a>
</g>
<text xml:space="preserve" text-anchor="start" x="182.75" y="-521.62" font-family="Monospace" font-size="9.00"> </text>
<g id="a_node5_16"><a xlink:href="https://logtalk.org/library/logtalk_0.html" xlink:title="https://logtalk.org/library/logtalk_0.html">
<text xml:space="preserve" text-anchor="start" x="251.25" y="-521.25" font-family="Monospace" font-size="11.00">logtalk</text>
</a>
</g>
<text xml:space="preserve" text-anchor="start" x="358.88" y="-521.62" font-family="Monospace" font-size="9.00"> </text>
<text xml:space="preserve" text-anchor="start" x="182.75" y="-509.25" font-family="Monospace" font-size="9.00"> </text>
<text xml:space="preserve" text-anchor="start" x="234.38" y="-510.38" font-family="Monospace" font-size="7.00">built&#45;in prototype</text>
<text xml:space="preserve" text-anchor="start" x="358.88" y="-509.25" font-family="Monospace" font-size="9.00"> </text>
<text xml:space="preserve" text-anchor="start" x="182.75" y="-498" font-family="Monospace" font-size="9.00"> </text>
<text xml:space="preserve" text-anchor="start" x="182.75" y="-486.75" font-family="Monospace" font-size="9.00"> </text>
<text xml:space="preserve" text-anchor="start" x="235.5" y="-486.75" font-family="Monospace" font-size="9.00">print_message/3</text>
<text xml:space="preserve" text-anchor="start" x="358.88" y="-486.75" font-family="Monospace" font-size="9.00"> </text>
<text xml:space="preserve" text-anchor="start" x="182.75" y="-475.5" font-family="Monospace" font-size="9.00"> </text>
<text xml:space="preserve" text-anchor="start" x="217.12" y="-475.5" font-family="Monospace" font-size="9.00">print_message_tokens/3</text>
<text xml:space="preserve" text-anchor="start" x="358.88" y="-475.5" font-family="Monospace" font-size="9.00"> </text>
<text xml:space="preserve" text-anchor="start" x="182.75" y="-464.25" font-family="Monospace" font-size="9.00"> </text>
<text xml:space="preserve" text-anchor="start" x="219.75" y="-464.25" font-family="Monospace" font-size="9.00">print_message_token/4</text>
<text xml:space="preserve" text-anchor="start" x="358.88" y="-464.25" font-family="Monospace" font-size="9.00"> </text>
<text xml:space="preserve" text-anchor="start" x="182.75" y="-453" font-family="Monospace" font-size="9.00"> </text>
<text xml:space="preserve" text-anchor="start" x="230.25" y="-453" font-family="Monospace" font-size="9.00">message_tokens//2</text>
<text xml:space="preserve" text-anchor="start" x="358.88" y="-453" font-family="Monospace" font-size="9.00"> </text>
<text xml:space="preserve" text-anchor="start" x="182.75" y="-441.75" font-family="Monospace" font-size="9.00"> </text>
<text xml:space="preserve" text-anchor="start" x="214.5" y="-441.75" font-family="Monospace" font-size="9.00">message_prefix_stream/4</text>
<text xml:space="preserve" text-anchor="start" x="358.88" y="-441.75" font-family="Monospace" font-size="9.00"> </text>
<text xml:space="preserve" text-anchor="start" x="182.75" y="-430.5" font-family="Monospace" font-size="9.00"> </text>
<text xml:space="preserve" text-anchor="start" x="219.75" y="-430.5" font-family="Monospace" font-size="9.00">message_prefix_file/6</text>
<text xml:space="preserve" text-anchor="start" x="358.88" y="-430.5" font-family="Monospace" font-size="9.00"> </text>
<text xml:space="preserve" text-anchor="start" x="182.75" y="-419.25" font-family="Monospace" font-size="9.00"> </text>
<text xml:space="preserve" text-anchor="start" x="238.12" y="-419.25" font-family="Monospace" font-size="9.00">message_hook/4</text>
<text xml:space="preserve" text-anchor="start" x="358.88" y="-419.25" font-family="Monospace" font-size="9.00"> </text>
<text xml:space="preserve" text-anchor="start" x="182.75" y="-408" font-family="Monospace" font-size="9.00"> </text>
<text xml:space="preserve" text-anchor="start" x="238.12" y="-408" font-family="Monospace" font-size="9.00">ask_question/5</text>
<text xml:space="preserve" text-anchor="start" x="358.88" y="-408" font-family="Monospace" font-size="9.00"> </text>
<text xml:space="preserve" text-anchor="start" x="182.75" y="-396.75" font-family="Monospace" font-size="9.00"> </text>
<text xml:space="preserve" text-anchor="start" x="235.5" y="-396.75" font-family="Monospace" font-size="9.00">question_hook/6</text>
<text xml:space="preserve" text-anchor="start" x="358.88" y="-396.75" font-family="Monospace" font-size="9.00"> </text>
<text xml:space="preserve" text-anchor="start" x="182.75" y="-385.5" font-family="Monospace" font-size="9.00"> </text>
<text xml:space="preserve" text-anchor="start" x="211.88" y="-385.5" font-family="Monospace" font-size="9.00">question_prompt_stream/4</text>
<text xml:space="preserve" text-anchor="start" x="358.88" y="-385.5" font-family="Monospace" font-size="9.00"> </text>
<text xml:space="preserve" text-anchor="start" x="182.75" y="-374.25" font-family="Monospace" font-size="9.00"> </text>
<text xml:space="preserve" text-anchor="start" x="240.75" y="-374.25" font-family="Monospace" font-size="9.00">trace_event/2</text>
<text xml:space="preserve" text-anchor="start" x="358.88" y="-374.25" font-family="Monospace" font-size="9.00"> </text>
<text xml:space="preserve" text-anchor="start" x="182.75" y="-363" font-family="Monospace" font-size="9.00"> </text>
<text xml:space="preserve" text-anchor="start" x="235.5" y="-363" font-family="Monospace" font-size="9.00">debug_handler/1</text>
<text xml:space="preserve" text-anchor="start" x="358.88" y="-363" font-family="Monospace" font-size="9.00"> </text>
<text xml:space="preserve" text-anchor="start" x="182.75" y="-351.75" font-family="Monospace" font-size="9.00"> </text>
<text xml:space="preserve" text-anchor="start" x="217.12" y="-351.75" font-family="Monospace" font-size="9.00">active_debug_handler/1</text>
<text xml:space="preserve" text-anchor="start" x="358.88" y="-351.75" font-family="Monospace" font-size="9.00"> </text>
<text xml:space="preserve" text-anchor="start" x="182.75" y="-340.5" font-family="Monospace" font-size="9.00"> </text>
<text xml:space="preserve" text-anchor="start" x="211.88" y="-340.5" font-family="Monospace" font-size="9.00">activate_debug_handler/1</text>
<text xml:space="preserve" text-anchor="start" x="358.88" y="-340.5" font-family="Monospace" font-size="9.00"> </text>
<text xml:space="preserve" text-anchor="start" x="182.75" y="-329.25" font-family="Monospace" font-size="9.00"> </text>
<text xml:space="preserve" text-anchor="start" x="206.62" y="-329.25" font-family="Monospace" font-size="9.00">deactivate_debug_handler/0</text>
<text xml:space="preserve" text-anchor="start" x="358.88" y="-329.25" font-family="Monospace" font-size="9.00"> </text>
<text xml:space="preserve" text-anchor="start" x="182.75" y="-318" font-family="Monospace" font-size="9.00"> </text>
<text xml:space="preserve" text-anchor="start" x="235.5" y="-318" font-family="Monospace" font-size="9.00">debug_handler/3</text>
<text xml:space="preserve" text-anchor="start" x="358.88" y="-318" font-family="Monospace" font-size="9.00"> </text>
<text xml:space="preserve" text-anchor="start" x="182.75" y="-306.75" font-family="Monospace" font-size="9.00"> </text>
<text xml:space="preserve" text-anchor="start" x="219.75" y="-306.75" font-family="Monospace" font-size="9.00">expand_library_path/2</text>
<text xml:space="preserve" text-anchor="start" x="358.88" y="-306.75" font-family="Monospace" font-size="9.00"> </text>
<text xml:space="preserve" text-anchor="start" x="182.75" y="-295.5" font-family="Monospace" font-size="9.00"> </text>
<text xml:space="preserve" text-anchor="start" x="240.75" y="-295.5" font-family="Monospace" font-size="9.00">loaded_file/1</text>
<text xml:space="preserve" text-anchor="start" x="358.88" y="-295.5" font-family="Monospace" font-size="9.00"> </text>
<text xml:space="preserve" text-anchor="start" x="182.75" y="-284.25" font-family="Monospace" font-size="9.00"> </text>
<text xml:space="preserve" text-anchor="start" x="217.12" y="-284.25" font-family="Monospace" font-size="9.00">loaded_file_property/2</text>
<text xml:space="preserve" text-anchor="start" x="358.88" y="-284.25" font-family="Monospace" font-size="9.00"> </text>
<text xml:space="preserve" text-anchor="start" x="182.75" y="-273" font-family="Monospace" font-size="9.00"> </text>
<text xml:space="preserve" text-anchor="start" x="193.5" y="-273" font-family="Monospace" font-size="9.00">loaded_files_topological_sort/1</text>
<text xml:space="preserve" text-anchor="start" x="358.88" y="-273" font-family="Monospace" font-size="9.00"> </text>
<text xml:space="preserve" text-anchor="start" x="182.75" y="-261.75" font-family="Monospace" font-size="9.00"> </text>
<text xml:space="preserve" text-anchor="start" x="193.5" y="-261.75" font-family="Monospace" font-size="9.00">loaded_files_topological_sort/2</text>
<text xml:space="preserve" text-anchor="start" x="358.88" y="-261.75" font-family="Monospace" font-size="9.00"> </text>
<text xml:space="preserve" text-anchor="start" x="182.75" y="-250.5" font-family="Monospace" font-size="9.00"> </text>
<text xml:space="preserve" text-anchor="start" x="219.75" y="-250.5" font-family="Monospace" font-size="9.00">file_type_extension/2</text>
<text xml:space="preserve" text-anchor="start" x="358.88" y="-250.5" font-family="Monospace" font-size="9.00"> </text>
<text xml:space="preserve" text-anchor="start" x="182.75" y="-239.25" font-family="Monospace" font-size="9.00"> </text>
<text xml:space="preserve" text-anchor="start" x="259.12" y="-239.25" font-family="Monospace" font-size="9.00">halt/1</text>
<text xml:space="preserve" text-anchor="start" x="358.88" y="-239.25" font-family="Monospace" font-size="9.00"> </text>
<text xml:space="preserve" text-anchor="start" x="182.75" y="-228" font-family="Monospace" font-size="9.00"> </text>
<text xml:space="preserve" text-anchor="start" x="259.12" y="-228" font-family="Monospace" font-size="9.00">halt/0</text>
<text xml:space="preserve" text-anchor="start" x="358.88" y="-228" font-family="Monospace" font-size="9.00"> </text>
<text xml:space="preserve" text-anchor="start" x="182.75" y="-216.75" font-family="Monospace" font-size="9.00"> </text>
<text xml:space="preserve" text-anchor="start" x="246" y="-216.75" font-family="Monospace" font-size="9.00">halt_hook/2</text>
<text xml:space="preserve" text-anchor="start" x="358.88" y="-216.75" font-family="Monospace" font-size="9.00"> </text>
<text xml:space="preserve" text-anchor="start" x="182.75" y="-205.5" font-family="Monospace" font-size="9.00"> </text>
<text xml:space="preserve" text-anchor="start" x="219.75" y="-205.5" font-family="Monospace" font-size="9.00">compile_aux_clauses/1</text>
<text xml:space="preserve" text-anchor="start" x="358.88" y="-205.5" font-family="Monospace" font-size="9.00"> </text>
<text xml:space="preserve" text-anchor="start" x="182.75" y="-194.25" font-family="Monospace" font-size="9.00"> </text>
<text xml:space="preserve" text-anchor="start" x="235.5" y="-194.25" font-family="Monospace" font-size="9.00">entity_prefix/2</text>
<text xml:space="preserve" text-anchor="start" x="358.88" y="-194.25" font-family="Monospace" font-size="9.00"> </text>
<text xml:space="preserve" text-anchor="start" x="182.75" y="-183" font-family="Monospace" font-size="9.00"> </text>
<text xml:space="preserve" text-anchor="start" x="209.25" y="-183" font-family="Monospace" font-size="9.00">compile_predicate_heads/4</text>
<text xml:space="preserve" text-anchor="start" x="358.88" y="-183" font-family="Monospace" font-size="9.00"> </text>
<text xml:space="preserve" text-anchor="start" x="182.75" y="-171.75" font-family="Monospace" font-size="9.00"> </text>
<text xml:space="preserve" text-anchor="start" x="196.12" y="-171.75" font-family="Monospace" font-size="9.00">compile_predicate_indicators/3</text>
<text xml:space="preserve" text-anchor="start" x="358.88" y="-171.75" font-family="Monospace" font-size="9.00"> </text>
<text xml:space="preserve" text-anchor="start" x="182.75" y="-160.5" font-family="Monospace" font-size="9.00"> </text>
<text xml:space="preserve" text-anchor="start" x="204" y="-160.5" font-family="Monospace" font-size="9.00">decompile_predicate_heads/4</text>
<text xml:space="preserve" text-anchor="start" x="358.88" y="-160.5" font-family="Monospace" font-size="9.00"> </text>
<text xml:space="preserve" text-anchor="start" x="182.75" y="-149.25" font-family="Monospace" font-size="9.00"> </text>
<text xml:space="preserve" text-anchor="start" x="190.88" y="-149.25" font-family="Monospace" font-size="9.00">decompile_predicate_indicators/4</text>
<text xml:space="preserve" text-anchor="start" x="358.88" y="-149.25" font-family="Monospace" font-size="9.00"> </text>
<text xml:space="preserve" text-anchor="start" x="182.75" y="-138" font-family="Monospace" font-size="9.00"> </text>
<text xml:space="preserve" text-anchor="start" x="225" y="-138" font-family="Monospace" font-size="9.00">execution_context/7</text>
<text xml:space="preserve" text-anchor="start" x="358.88" y="-138" font-family="Monospace" font-size="9.00"> </text>
</g>
<!-- core_messages -->
<g id="node6" class="node">
<title>core_messages</title>
<polygon fill="lightcyan" stroke="black" points="602.12,-378 401.88,-378 401.88,-374 397.88,-374 397.88,-370 401.88,-370 401.88,-308.5 397.88,-308.5 397.88,-304.5 401.88,-304.5 401.88,-300.5 602.12,-300.5 602.12,-378"/>
<polyline fill="none" stroke="black" points="401.88,-374 405.88,-374 405.88,-370 401.88,-370"/>
<polyline fill="none" stroke="black" points="401.88,-308.5 405.88,-308.5 405.88,-304.5 401.88,-304.5"/>
<g id="a_node6_17"><a xlink:href="core_messages_category_xref_diagram.svg" xlink:title="Zoom">
<text xml:space="preserve" text-anchor="start" x="409.88" y="-365" font-family="Monospace" font-size="9.00">🔍</text>
</a>
</g>
<text xml:space="preserve" text-anchor="start" x="412.75" y="-352.88" font-family="Monospace" font-size="9.00"> </text>
<g id="a_node6_18"><a xlink:href="https://logtalk.org/library/core_messages_0.html" xlink:title="https://logtalk.org/library/core_messages_0.html">
<text xml:space="preserve" text-anchor="start" x="461" y="-352.5" font-family="Monospace" font-size="11.00">core_messages</text>
</a>
</g>
<text xml:space="preserve" text-anchor="start" x="588.88" y="-352.88" font-family="Monospace" font-size="9.00"> </text>
<text xml:space="preserve" text-anchor="start" x="412.75" y="-340.5" font-family="Monospace" font-size="9.00"> </text>
<text xml:space="preserve" text-anchor="start" x="466.62" y="-341.62" font-family="Monospace" font-size="7.00">built&#45;in category</text>
<text xml:space="preserve" text-anchor="start" x="588.88" y="-340.5" font-family="Monospace" font-size="9.00"> </text>
<text xml:space="preserve" text-anchor="start" x="412.75" y="-329.25" font-family="Monospace" font-size="9.00"> </text>
<text xml:space="preserve" text-anchor="start" x="412.75" y="-318" font-family="Monospace" font-size="9.00"> </text>
<text xml:space="preserve" text-anchor="start" x="420.88" y="-318" font-family="Monospace" font-size="9.00">logtalk::message_prefix_stream/4</text>
<text xml:space="preserve" text-anchor="start" x="588.88" y="-318" font-family="Monospace" font-size="9.00"> </text>
<text xml:space="preserve" text-anchor="start" x="412.75" y="-306.75" font-family="Monospace" font-size="9.00"> </text>
<text xml:space="preserve" text-anchor="start" x="436.62" y="-306.75" font-family="Monospace" font-size="9.00">logtalk::message_tokens//2</text>
<text xml:space="preserve" text-anchor="start" x="588.88" y="-306.75" font-family="Monospace" font-size="9.00"> </text>
</g>
</g>
</svg>
