<?xml version="1.0" encoding="UTF-8" standalone="no"?>
<?xml-stylesheet href="diagrams.css" type="text/css"?>
<!DOCTYPE svg PUBLIC "-//W3C//DTD SVG 1.1//EN"
 "http://www.w3.org/Graphics/SVG/1.1/DTD/svg11.dtd">
<!-- Generated by graphviz version 14.1.3 (20260303.0454)
 -->
<!-- Title: core Pages: 1 -->
<svg width="782pt" height="865pt"
 viewBox="72.00 72.00 710.00 793.00" xmlns="http://www.w3.org/2000/svg" xmlns:xlink="http://www.w3.org/1999/xlink">
<g id="graph0" class="graph" transform="scale(1 1) rotate(0) translate(76 788.5)">
<title>core</title>
<polygon fill="white" stroke="none" points="-4,4 -4,-716.5 634,-716.5 634,4 -4,4"/>
<text xml:space="preserve" text-anchor="start" x="8" y="-32.75" font-family="Monospace" font-size="10.00" fill="dimgray">Logtalk core entities</text>
<text xml:space="preserve" text-anchor="start" x="8" y="-20" font-family="Monospace" font-size="10.00" fill="dimgray">Inheritance diagram for library core</text>
<text xml:space="preserve" text-anchor="start" x="8" y="-7.25" font-family="Monospace" font-size="10.00" fill="dimgray">Generated on 2026&#45;03&#45;08, 23:47</text>
<g id="clust1" class="cluster">
<title>cluster_library_core</title>
<g id="a_clust1"><a xlink:title="core/">
<path fill="whitesmoke" stroke="dimgray" d="M20,-54.25C20,-54.25 610,-54.25 610,-54.25 616,-54.25 622,-60.25 622,-66.25 622,-66.25 622,-692.5 622,-692.5 622,-698.5 616,-704.5 610,-704.5 610,-704.5 20,-704.5 20,-704.5 14,-704.5 8,-698.5 8,-692.5 8,-692.5 8,-66.25 8,-66.25 8,-60.25 14,-54.25 20,-54.25"/>
<g id="a_clust1_0"><a xlink:href="https://github.com/LogtalkDotOrg/logtalk3/tree/8e30689a22791c69171b6b8e9ee85d128731fc54/core/" xlink:title="https://github.com/LogtalkDotOrg/logtalk3/tree/8e30689a22791c69171b6b8e9ee85d128731fc54/core/">
<text xml:space="preserve" text-anchor="start" x="20" y="-65.25" font-family="Monospace" font-size="10.00" fill="dimgray">core/</text>
</a>
</g>
</a>
</g>
</g>
<g id="clust2" class="cluster">
<title>cluster_file_/opt/local/share/logtalk/core/expanding.lgt</title>
<g id="a_clust2"><a xlink:title="expanding.lgt">
<path fill="snow" stroke="dimgray" d="M30,-568.25C30,-568.25 142,-568.25 142,-568.25 148,-568.25 154,-574.25 154,-580.25 154,-580.25 154,-682.5 154,-682.5 154,-688.5 148,-694.5 142,-694.5 142,-694.5 30,-694.5 30,-694.5 24,-694.5 18,-688.5 18,-682.5 18,-682.5 18,-580.25 18,-580.25 18,-574.25 24,-568.25 30,-568.25"/>
<g id="a_clust2_1"><a xlink:href="https://github.com/LogtalkDotOrg/logtalk3/tree/8e30689a22791c69171b6b8e9ee85d128731fc54/core/expanding.lgt" xlink:title="https://github.com/LogtalkDotOrg/logtalk3/tree/8e30689a22791c69171b6b8e9ee85d128731fc54/core/expanding.lgt">
<text xml:space="preserve" text-anchor="start" x="30" y="-579.25" font-family="Monospace" font-size="10.00" fill="dimgray">expanding.lgt</text>
</a>
</g>
</a>
</g>
</g>
<g id="clust3" class="cluster">
<title>cluster_file_/opt/local/share/logtalk/core/monitoring.lgt</title>
<g id="a_clust3"><a xlink:title="monitoring.lgt">
<path fill="snow" stroke="dimgray" d="M176,-568.25C176,-568.25 280,-568.25 280,-568.25 286,-568.25 292,-574.25 292,-580.25 292,-580.25 292,-682.5 292,-682.5 292,-688.5 286,-694.5 280,-694.5 280,-694.5 176,-694.5 176,-694.5 170,-694.5 164,-688.5 164,-682.5 164,-682.5 164,-580.25 164,-580.25 164,-574.25 170,-568.25 176,-568.25"/>
<g id="a_clust3_2"><a xlink:href="https://github.com/LogtalkDotOrg/logtalk3/tree/8e30689a22791c69171b6b8e9ee85d128731fc54/core/monitoring.lgt" xlink:title="https://github.com/LogtalkDotOrg/logtalk3/tree/8e30689a22791c69171b6b8e9ee85d128731fc54/core/monitoring.lgt">
<text xml:space="preserve" text-anchor="start" x="176" y="-579.25" font-family="Monospace" font-size="10.00" fill="dimgray">monitoring.lgt</text>
</a>
</g>
</a>
</g>
</g>
<g id="clust4" class="cluster">
<title>cluster_file_/opt/local/share/logtalk/core/forwarding.lgt</title>
<g id="a_clust4"><a xlink:title="forwarding.lgt">
<path fill="snow" stroke="dimgray" d="M314,-573.88C314,-573.88 418,-573.88 418,-573.88 424,-573.88 430,-579.88 430,-585.88 430,-585.88 430,-676.88 430,-676.88 430,-682.88 424,-688.88 418,-688.88 418,-688.88 314,-688.88 314,-688.88 308,-688.88 302,-682.88 302,-676.88 302,-676.88 302,-585.88 302,-585.88 302,-579.88 308,-573.88 314,-573.88"/>
<g id="a_clust4_3"><a xlink:href="https://github.com/LogtalkDotOrg/logtalk3/tree/8e30689a22791c69171b6b8e9ee85d128731fc54/core/forwarding.lgt" xlink:title="https://github.com/LogtalkDotOrg/logtalk3/tree/8e30689a22791c69171b6b8e9ee85d128731fc54/core/forwarding.lgt">
<text xml:space="preserve" text-anchor="start" x="314" y="-584.88" font-family="Monospace" font-size="10.00" fill="dimgray">forwarding.lgt</text>
</a>
</g>
</a>
</g>
</g>
<g id="clust5" class="cluster">
<title>cluster_file_/opt/local/share/logtalk/core/user.lgt</title>
<g id="a_clust5"><a xlink:title="user.lgt">
<path fill="snow" stroke="dimgray" d="M30,-261.75C30,-261.75 140,-261.75 140,-261.75 146,-261.75 152,-267.75 152,-273.75 152,-273.75 152,-342.25 152,-342.25 152,-348.25 146,-354.25 140,-354.25 140,-354.25 30,-354.25 30,-354.25 24,-354.25 18,-348.25 18,-342.25 18,-342.25 18,-273.75 18,-273.75 18,-267.75 24,-261.75 30,-261.75"/>
<g id="a_clust5_4"><a xlink:href="https://github.com/LogtalkDotOrg/logtalk3/tree/8e30689a22791c69171b6b8e9ee85d128731fc54/core/user.lgt" xlink:title="https://github.com/LogtalkDotOrg/logtalk3/tree/8e30689a22791c69171b6b8e9ee85d128731fc54/core/user.lgt">
<text xml:space="preserve" text-anchor="start" x="30" y="-272.75" font-family="Monospace" font-size="10.00" fill="dimgray">user.lgt</text>
</a>
</g>
</a>
</g>
</g>
<g id="clust6" class="cluster">
<title>cluster_file_/opt/local/share/logtalk/core/logtalk.lgt</title>
<g id="a_clust6"><a xlink:title="logtalk.lgt">
<path fill="snow" stroke="dimgray" d="M174,-93C174,-93 370,-93 370,-93 376,-93 382,-99 382,-105 382,-105 382,-511 382,-511 382,-517 376,-523 370,-523 370,-523 174,-523 174,-523 168,-523 162,-517 162,-511 162,-511 162,-105 162,-105 162,-99 168,-93 174,-93"/>
<g id="a_clust6_5"><a xlink:href="https://github.com/LogtalkDotOrg/logtalk3/tree/8e30689a22791c69171b6b8e9ee85d128731fc54/core/logtalk.lgt" xlink:title="https://github.com/LogtalkDotOrg/logtalk3/tree/8e30689a22791c69171b6b8e9ee85d128731fc54/core/logtalk.lgt">
<text xml:space="preserve" text-anchor="start" x="174" y="-104" font-family="Monospace" font-size="10.00" fill="dimgray">logtalk.lgt</text>
</a>
</g>
</a>
</g>
</g>
<g id="clust7" class="cluster">
<title>cluster_file_/opt/local/share/logtalk/core/core_messages.lgt</title>
<g id="a_clust7"><a xlink:title="core_messages.lgt">
<path fill="snow" stroke="dimgray" d="M404,-244.88C404,-244.88 600,-244.88 600,-244.88 606,-244.88 612,-250.88 612,-256.88 612,-256.88 612,-359.12 612,-359.12 612,-365.12 606,-371.12 600,-371.12 600,-371.12 404,-371.12 404,-371.12 398,-371.12 392,-365.12 392,-359.12 392,-359.12 392,-256.88 392,-256.88 392,-250.88 398,-244.88 404,-244.88"/>
<g id="a_clust7_6"><a xlink:href="https://github.com/LogtalkDotOrg/logtalk3/tree/8e30689a22791c69171b6b8e9ee85d128731fc54/core/core_messages.lgt" xlink:title="https://github.com/LogtalkDotOrg/logtalk3/tree/8e30689a22791c69171b6b8e9ee85d128731fc54/core/core_messages.lgt">
<text xml:space="preserve" text-anchor="start" x="404" y="-255.88" font-family="Monospace" font-size="10.00" fill="dimgray">core_messages.lgt</text>
</a>
</g>
</a>
</g>
</g>
<!-- expanding -->
<g id="node1" class="node">
<title>expanding</title>
<polygon fill="aquamarine" stroke="black" points="138.12,-684.5 27.88,-684.5 27.88,-607 144.12,-607 144.12,-678.5 138.12,-684.5"/>
<polyline fill="none" stroke="black" points="138.12,-684.5 138.12,-678.5"/>
<polyline fill="none" stroke="black" points="144.12,-678.5 138.12,-678.5"/>
<g id="a_node1_7"><a xlink:href="expanding_protocol_xref_diagram.svg" xlink:title="Zoom">
<text xml:space="preserve" text-anchor="start" x="35.88" y="-671.5" font-family="Monospace" font-size="9.00">🔍</text>
</a>
</g>
<text xml:space="preserve" text-anchor="start" x="38.75" y="-659.38" font-family="Monospace" font-size="9.00"> </text>
<g id="a_node1_8"><a xlink:href="https://logtalk.org/library/expanding_0.html" xlink:title="https://logtalk.org/library/expanding_0.html">
<text xml:space="preserve" text-anchor="start" x="58.5" y="-659" font-family="Monospace" font-size="11.00">expanding</text>
</a>
</g>
<text xml:space="preserve" text-anchor="start" x="130.88" y="-659.38" font-family="Monospace" font-size="9.00"> </text>
<text xml:space="preserve" text-anchor="start" x="38.75" y="-647" font-family="Monospace" font-size="9.00"> </text>
<text xml:space="preserve" text-anchor="start" x="50.62" y="-648.12" font-family="Monospace" font-size="7.00">built&#45;in protocol</text>
<text xml:space="preserve" text-anchor="start" x="130.88" y="-647" font-family="Monospace" font-size="9.00"> </text>
<text xml:space="preserve" text-anchor="start" x="38.75" y="-635.75" font-family="Monospace" font-size="9.00"> </text>
<text xml:space="preserve" text-anchor="start" x="38.75" y="-624.5" font-family="Monospace" font-size="9.00"> </text>
<text xml:space="preserve" text-anchor="start" x="46.88" y="-624.5" font-family="Monospace" font-size="9.00">goal_expansion/2</text>
<text xml:space="preserve" text-anchor="start" x="130.88" y="-624.5" font-family="Monospace" font-size="9.00"> </text>
<text xml:space="preserve" text-anchor="start" x="38.75" y="-613.25" font-family="Monospace" font-size="9.00"> </text>
<text xml:space="preserve" text-anchor="start" x="46.88" y="-613.25" font-family="Monospace" font-size="9.00">term_expansion/2</text>
<text xml:space="preserve" text-anchor="start" x="130.88" y="-613.25" font-family="Monospace" font-size="9.00"> </text>
</g>
<!-- monitoring -->
<g id="node2" class="node">
<title>monitoring</title>
<polygon fill="aquamarine" stroke="black" points="276.38,-684.5 173.62,-684.5 173.62,-607 282.38,-607 282.38,-678.5 276.38,-684.5"/>
<polyline fill="none" stroke="black" points="276.38,-684.5 276.38,-678.5"/>
<polyline fill="none" stroke="black" points="282.38,-678.5 276.38,-678.5"/>
<g id="a_node2_9"><a xlink:href="monitoring_protocol_xref_diagram.svg" xlink:title="Zoom">
<text xml:space="preserve" text-anchor="start" x="181.62" y="-671.5" font-family="Monospace" font-size="9.00">🔍</text>
</a>
</g>
<text xml:space="preserve" text-anchor="start" x="184.5" y="-659.38" font-family="Monospace" font-size="9.00"> </text>
<g id="a_node2_10"><a xlink:href="https://logtalk.org/library/monitoring_0.html" xlink:title="https://logtalk.org/library/monitoring_0.html">
<text xml:space="preserve" text-anchor="start" x="197.12" y="-659" font-family="Monospace" font-size="11.00">monitoring</text>
</a>
</g>
<text xml:space="preserve" text-anchor="start" x="269.12" y="-659.38" font-family="Monospace" font-size="9.00"> </text>
<text xml:space="preserve" text-anchor="start" x="184.5" y="-647" font-family="Monospace" font-size="9.00"> </text>
<text xml:space="preserve" text-anchor="start" x="192.62" y="-648.12" font-family="Monospace" font-size="7.00">built&#45;in protocol</text>
<text xml:space="preserve" text-anchor="start" x="269.12" y="-647" font-family="Monospace" font-size="9.00"> </text>
<text xml:space="preserve" text-anchor="start" x="184.5" y="-635.75" font-family="Monospace" font-size="9.00"> </text>
<text xml:space="preserve" text-anchor="start" x="184.5" y="-624.5" font-family="Monospace" font-size="9.00"> </text>
<text xml:space="preserve" text-anchor="start" x="209.88" y="-624.5" font-family="Monospace" font-size="9.00">before/3</text>
<text xml:space="preserve" text-anchor="start" x="269.12" y="-624.5" font-family="Monospace" font-size="9.00"> </text>
<text xml:space="preserve" text-anchor="start" x="184.5" y="-613.25" font-family="Monospace" font-size="9.00"> </text>
<text xml:space="preserve" text-anchor="start" x="212.5" y="-613.25" font-family="Monospace" font-size="9.00">after/3</text>
<text xml:space="preserve" text-anchor="start" x="269.12" y="-613.25" font-family="Monospace" font-size="9.00"> </text>
</g>
<!-- forwarding -->
<g id="node3" class="node">
<title>forwarding</title>
<polygon fill="aquamarine" stroke="black" points="414.38,-678.88 311.62,-678.88 311.62,-612.62 420.38,-612.62 420.38,-672.88 414.38,-678.88"/>
<polyline fill="none" stroke="black" points="414.38,-678.88 414.38,-672.88"/>
<polyline fill="none" stroke="black" points="420.38,-672.88 414.38,-672.88"/>
<g id="a_node3_11"><a xlink:href="forwarding_protocol_xref_diagram.svg" xlink:title="Zoom">
<text xml:space="preserve" text-anchor="start" x="319.62" y="-665.88" font-family="Monospace" font-size="9.00">🔍</text>
</a>
</g>
<text xml:space="preserve" text-anchor="start" x="322.5" y="-653.75" font-family="Monospace" font-size="9.00"> </text>
<g id="a_node3_12"><a xlink:href="https://logtalk.org/library/forwarding_0.html" xlink:title="https://logtalk.org/library/forwarding_0.html">
<text xml:space="preserve" text-anchor="start" x="335.12" y="-653.38" font-family="Monospace" font-size="11.00">forwarding</text>
</a>
</g>
<text xml:space="preserve" text-anchor="start" x="407.12" y="-653.75" font-family="Monospace" font-size="9.00"> </text>
<text xml:space="preserve" text-anchor="start" x="322.5" y="-641.38" font-family="Monospace" font-size="9.00"> </text>
<text xml:space="preserve" text-anchor="start" x="330.62" y="-642.5" font-family="Monospace" font-size="7.00">built&#45;in protocol</text>
<text xml:space="preserve" text-anchor="start" x="407.12" y="-641.38" font-family="Monospace" font-size="9.00"> </text>
<text xml:space="preserve" text-anchor="start" x="322.5" y="-630.12" font-family="Monospace" font-size="9.00"> </text>
<text xml:space="preserve" text-anchor="start" x="322.5" y="-618.88" font-family="Monospace" font-size="9.00"> </text>
<text xml:space="preserve" text-anchor="start" x="345.25" y="-618.88" font-family="Monospace" font-size="9.00">forward/1</text>
<text xml:space="preserve" text-anchor="start" x="407.12" y="-618.88" font-family="Monospace" font-size="9.00"> </text>
</g>
<!-- user -->
<g id="node4" class="node">
<title>user</title>
<polygon fill="cornsilk" stroke="black" points="141.62,-344.25 28.38,-344.25 28.38,-300.5 141.62,-300.5 141.62,-344.25"/>
<g id="a_node4_13"><a xlink:href="user_object_xref_diagram.svg" xlink:title="Zoom">
<text xml:space="preserve" text-anchor="start" x="36.38" y="-331.25" font-family="Monospace" font-size="9.00">🔍</text>
</a>
</g>
<text xml:space="preserve" text-anchor="start" x="39.25" y="-319.12" font-family="Monospace" font-size="9.00"> </text>
<g id="a_node4_14"><a xlink:href="https://logtalk.org/library/user_0.html" xlink:title="https://logtalk.org/library/user_0.html">
<text xml:space="preserve" text-anchor="start" x="74.38" y="-318.75" font-family="Monospace" font-size="11.00">user</text>
</a>
</g>
<text xml:space="preserve" text-anchor="start" x="128.38" y="-319.12" font-family="Monospace" font-size="9.00"> </text>
<text xml:space="preserve" text-anchor="start" x="39.25" y="-306.75" font-family="Monospace" font-size="9.00"> </text>
<text xml:space="preserve" text-anchor="start" x="47.38" y="-307.88" font-family="Monospace" font-size="7.00">built&#45;in prototype</text>
<text xml:space="preserve" text-anchor="start" x="128.38" y="-306.75" font-family="Monospace" font-size="9.00"> </text>
</g>
<!-- user&#45;&gt;expanding -->
<g id="edge1" class="edge">
<title>user&#45;&gt;expanding</title>
<g id="a_edge1"><a xlink:href="https://logtalk.org/library/user_0.html" xlink:title="implements">
<path fill="none" stroke="black" d="M85.07,-344.71C85.23,-396 85.63,-527.19 85.85,-597.9"/>
<ellipse fill="black" stroke="black" cx="85.87" cy="-602.13" rx="4" ry="4"/>
</a>
</g>
<g id="a_edge1&#45;label"><a xlink:href="https://logtalk.org/library/user_0.html" xlink:title="https://logtalk.org/library/user_0.html">
<text xml:space="preserve" text-anchor="start" x="85.73" y="-551.25" font-family="Monospace" font-size="9.00">implements</text>
</a>
</g>
</g>
<!-- user&#45;&gt;monitoring -->
<g id="edge3" class="edge">
<title>user&#45;&gt;monitoring</title>
<g id="a_edge3"><a xlink:href="https://logtalk.org/library/user_0.html" xlink:title="implements">
<path fill="none" stroke="black" d="M91.42,-344.54C102.92,-381.52 128.61,-459.95 158,-523 170.12,-549.01 185.9,-576.84 199.4,-599.31"/>
<ellipse fill="black" stroke="black" cx="201.55" cy="-602.87" rx="4" ry="4"/>
</a>
</g>
<g id="a_edge3&#45;label"><a xlink:href="https://logtalk.org/library/user_0.html" xlink:title="https://logtalk.org/library/user_0.html">
<text xml:space="preserve" text-anchor="start" x="175.41" y="-551.25" font-family="Monospace" font-size="9.00">implements</text>
</a>
</g>
</g>
<!-- user&#45;&gt;forwarding -->
<g id="edge2" class="edge">
<title>user&#45;&gt;forwarding</title>
<g id="a_edge2"><a xlink:href="https://logtalk.org/library/user_0.html" xlink:title="implements">
<path fill="none" stroke="black" d="M86.78,-344.7C91.31,-385.17 106.8,-473.5 158,-523 181.2,-545.43 268.89,-550.74 296,-568.25 311.33,-578.14 325.49,-592.19 337,-605.56"/>
<ellipse fill="black" stroke="black" cx="339.89" cy="-609" rx="4" ry="4"/>
</a>
</g>
<g id="a_edge2&#45;label"><a xlink:href="https://logtalk.org/library/user_0.html" xlink:title="https://logtalk.org/library/user_0.html">
<text xml:space="preserve" text-anchor="start" x="276.2" y="-551.25" font-family="Monospace" font-size="9.00">implements</text>
</a>
</g>
</g>
<!-- logtalk -->
<g id="node5" class="node">
<title>logtalk</title>
<polygon fill="cornsilk" stroke="black" points="372.12,-513 171.88,-513 171.88,-131.75 372.12,-131.75 372.12,-513"/>
<g id="a_node5_15"><a xlink:href="logtalk_object_xref_diagram.svg" xlink:title="Zoom">
<text xml:space="preserve" text-anchor="start" x="179.88" y="-500" font-family="Monospace" font-size="9.00">🔍</text>
</a>
</g>
<text xml:space="preserve" text-anchor="start" x="182.75" y="-487.88" font-family="Monospace" font-size="9.00"> </text>
<g id="a_node5_16"><a xlink:href="https://logtalk.org/library/logtalk_0.html" xlink:title="https://logtalk.org/library/logtalk_0.html">
<text xml:space="preserve" text-anchor="start" x="251.25" y="-487.5" font-family="Monospace" font-size="11.00">logtalk</text>
</a>
</g>
<text xml:space="preserve" text-anchor="start" x="358.88" y="-487.88" font-family="Monospace" font-size="9.00"> </text>
<text xml:space="preserve" text-anchor="start" x="182.75" y="-475.5" font-family="Monospace" font-size="9.00"> </text>
<text xml:space="preserve" text-anchor="start" x="234.38" y="-476.62" font-family="Monospace" font-size="7.00">built&#45;in prototype</text>
<text xml:space="preserve" text-anchor="start" x="358.88" y="-475.5" font-family="Monospace" font-size="9.00"> </text>
<text xml:space="preserve" text-anchor="start" x="182.75" y="-464.25" font-family="Monospace" font-size="9.00"> </text>
<text xml:space="preserve" text-anchor="start" x="182.75" y="-453" font-family="Monospace" font-size="9.00"> </text>
<text xml:space="preserve" text-anchor="start" x="235.5" y="-453" font-family="Monospace" font-size="9.00">print_message/3</text>
<text xml:space="preserve" text-anchor="start" x="358.88" y="-453" font-family="Monospace" font-size="9.00"> </text>
<text xml:space="preserve" text-anchor="start" x="182.75" y="-441.75" font-family="Monospace" font-size="9.00"> </text>
<text xml:space="preserve" text-anchor="start" x="217.12" y="-441.75" font-family="Monospace" font-size="9.00">print_message_tokens/3</text>
<text xml:space="preserve" text-anchor="start" x="358.88" y="-441.75" font-family="Monospace" font-size="9.00"> </text>
<text xml:space="preserve" text-anchor="start" x="182.75" y="-430.5" font-family="Monospace" font-size="9.00"> </text>
<text xml:space="preserve" text-anchor="start" x="219.75" y="-430.5" font-family="Monospace" font-size="9.00">print_message_token/4</text>
<text xml:space="preserve" text-anchor="start" x="358.88" y="-430.5" font-family="Monospace" font-size="9.00"> </text>
<text xml:space="preserve" text-anchor="start" x="182.75" y="-419.25" font-family="Monospace" font-size="9.00"> </text>
<text xml:space="preserve" text-anchor="start" x="230.25" y="-419.25" font-family="Monospace" font-size="9.00">message_tokens//2</text>
<text xml:space="preserve" text-anchor="start" x="358.88" y="-419.25" font-family="Monospace" font-size="9.00"> </text>
<text xml:space="preserve" text-anchor="start" x="182.75" y="-408" font-family="Monospace" font-size="9.00"> </text>
<text xml:space="preserve" text-anchor="start" x="214.5" y="-408" font-family="Monospace" font-size="9.00">message_prefix_stream/4</text>
<text xml:space="preserve" text-anchor="start" x="358.88" y="-408" font-family="Monospace" font-size="9.00"> </text>
<text xml:space="preserve" text-anchor="start" x="182.75" y="-396.75" font-family="Monospace" font-size="9.00"> </text>
<text xml:space="preserve" text-anchor="start" x="219.75" y="-396.75" font-family="Monospace" font-size="9.00">message_prefix_file/6</text>
<text xml:space="preserve" text-anchor="start" x="358.88" y="-396.75" font-family="Monospace" font-size="9.00"> </text>
<text xml:space="preserve" text-anchor="start" x="182.75" y="-385.5" font-family="Monospace" font-size="9.00"> </text>
<text xml:space="preserve" text-anchor="start" x="238.12" y="-385.5" font-family="Monospace" font-size="9.00">message_hook/4</text>
<text xml:space="preserve" text-anchor="start" x="358.88" y="-385.5" font-family="Monospace" font-size="9.00"> </text>
<text xml:space="preserve" text-anchor="start" x="182.75" y="-374.25" font-family="Monospace" font-size="9.00"> </text>
<text xml:space="preserve" text-anchor="start" x="238.12" y="-374.25" font-family="Monospace" font-size="9.00">ask_question/5</text>
<text xml:space="preserve" text-anchor="start" x="358.88" y="-374.25" font-family="Monospace" font-size="9.00"> </text>
<text xml:space="preserve" text-anchor="start" x="182.75" y="-363" font-family="Monospace" font-size="9.00"> </text>
<text xml:space="preserve" text-anchor="start" x="235.5" y="-363" font-family="Monospace" font-size="9.00">question_hook/6</text>
<text xml:space="preserve" text-anchor="start" x="358.88" y="-363" font-family="Monospace" font-size="9.00"> </text>
<text xml:space="preserve" text-anchor="start" x="182.75" y="-351.75" font-family="Monospace" font-size="9.00"> </text>
<text xml:space="preserve" text-anchor="start" x="211.88" y="-351.75" font-family="Monospace" font-size="9.00">question_prompt_stream/4</text>
<text xml:space="preserve" text-anchor="start" x="358.88" y="-351.75" font-family="Monospace" font-size="9.00"> </text>
<text xml:space="preserve" text-anchor="start" x="182.75" y="-340.5" font-family="Monospace" font-size="9.00"> </text>
<text xml:space="preserve" text-anchor="start" x="240.75" y="-340.5" font-family="Monospace" font-size="9.00">trace_event/2</text>
<text xml:space="preserve" text-anchor="start" x="358.88" y="-340.5" font-family="Monospace" font-size="9.00"> </text>
<text xml:space="preserve" text-anchor="start" x="182.75" y="-329.25" font-family="Monospace" font-size="9.00"> </text>
<text xml:space="preserve" text-anchor="start" x="235.5" y="-329.25" font-family="Monospace" font-size="9.00">debug_handler/1</text>
<text xml:space="preserve" text-anchor="start" x="358.88" y="-329.25" font-family="Monospace" font-size="9.00"> </text>
<text xml:space="preserve" text-anchor="start" x="182.75" y="-318" font-family="Monospace" font-size="9.00"> </text>
<text xml:space="preserve" text-anchor="start" x="217.12" y="-318" font-family="Monospace" font-size="9.00">active_debug_handler/1</text>
<text xml:space="preserve" text-anchor="start" x="358.88" y="-318" font-family="Monospace" font-size="9.00"> </text>
<text xml:space="preserve" text-anchor="start" x="182.75" y="-306.75" font-family="Monospace" font-size="9.00"> </text>
<text xml:space="preserve" text-anchor="start" x="211.88" y="-306.75" font-family="Monospace" font-size="9.00">activate_debug_handler/1</text>
<text xml:space="preserve" text-anchor="start" x="358.88" y="-306.75" font-family="Monospace" font-size="9.00"> </text>
<text xml:space="preserve" text-anchor="start" x="182.75" y="-295.5" font-family="Monospace" font-size="9.00"> </text>
<text xml:space="preserve" text-anchor="start" x="206.62" y="-295.5" font-family="Monospace" font-size="9.00">deactivate_debug_handler/0</text>
<text xml:space="preserve" text-anchor="start" x="358.88" y="-295.5" font-family="Monospace" font-size="9.00"> </text>
<text xml:space="preserve" text-anchor="start" x="182.75" y="-284.25" font-family="Monospace" font-size="9.00"> </text>
<text xml:space="preserve" text-anchor="start" x="235.5" y="-284.25" font-family="Monospace" font-size="9.00">debug_handler/3</text>
<text xml:space="preserve" text-anchor="start" x="358.88" y="-284.25" font-family="Monospace" font-size="9.00"> </text>
<text xml:space="preserve" text-anchor="start" x="182.75" y="-273" font-family="Monospace" font-size="9.00"> </text>
<text xml:space="preserve" text-anchor="start" x="219.75" y="-273" font-family="Monospace" font-size="9.00">expand_library_path/2</text>
<text xml:space="preserve" text-anchor="start" x="358.88" y="-273" font-family="Monospace" font-size="9.00"> </text>
<text xml:space="preserve" text-anchor="start" x="182.75" y="-261.75" font-family="Monospace" font-size="9.00"> </text>
<text xml:space="preserve" text-anchor="start" x="240.75" y="-261.75" font-family="Monospace" font-size="9.00">loaded_file/1</text>
<text xml:space="preserve" text-anchor="start" x="358.88" y="-261.75" font-family="Monospace" font-size="9.00"> </text>
<text xml:space="preserve" text-anchor="start" x="182.75" y="-250.5" font-family="Monospace" font-size="9.00"> </text>
<text xml:space="preserve" text-anchor="start" x="217.12" y="-250.5" font-family="Monospace" font-size="9.00">loaded_file_property/2</text>
<text xml:space="preserve" text-anchor="start" x="358.88" y="-250.5" font-family="Monospace" font-size="9.00"> </text>
<text xml:space="preserve" text-anchor="start" x="182.75" y="-239.25" font-family="Monospace" font-size="9.00"> </text>
<text xml:space="preserve" text-anchor="start" x="193.5" y="-239.25" font-family="Monospace" font-size="9.00">loaded_files_topological_sort/1</text>
<text xml:space="preserve" text-anchor="start" x="358.88" y="-239.25" font-family="Monospace" font-size="9.00"> </text>
<text xml:space="preserve" text-anchor="start" x="182.75" y="-228" font-family="Monospace" font-size="9.00"> </text>
<text xml:space="preserve" text-anchor="start" x="193.5" y="-228" font-family="Monospace" font-size="9.00">loaded_files_topological_sort/2</text>
<text xml:space="preserve" text-anchor="start" x="358.88" y="-228" font-family="Monospace" font-size="9.00"> </text>
<text xml:space="preserve" text-anchor="start" x="182.75" y="-216.75" font-family="Monospace" font-size="9.00"> </text>
<text xml:space="preserve" text-anchor="start" x="219.75" y="-216.75" font-family="Monospace" font-size="9.00">file_type_extension/2</text>
<text xml:space="preserve" text-anchor="start" x="358.88" y="-216.75" font-family="Monospace" font-size="9.00"> </text>
<text xml:space="preserve" text-anchor="start" x="182.75" y="-205.5" font-family="Monospace" font-size="9.00"> </text>
<text xml:space="preserve" text-anchor="start" x="219.75" y="-205.5" font-family="Monospace" font-size="9.00">compile_aux_clauses/1</text>
<text xml:space="preserve" text-anchor="start" x="358.88" y="-205.5" font-family="Monospace" font-size="9.00"> </text>
<text xml:space="preserve" text-anchor="start" x="182.75" y="-194.25" font-family="Monospace" font-size="9.00"> </text>
<text xml:space="preserve" text-anchor="start" x="235.5" y="-194.25" font-family="Monospace" font-size="9.00">entity_prefix/2</text>
<text xml:space="preserve" text-anchor="start" x="358.88" y="-194.25" font-family="Monospace" font-size="9.00"> </text>
<text xml:space="preserve" text-anchor="start" x="182.75" y="-183" font-family="Monospace" font-size="9.00"> </text>
<text xml:space="preserve" text-anchor="start" x="209.25" y="-183" font-family="Monospace" font-size="9.00">compile_predicate_heads/4</text>
<text xml:space="preserve" text-anchor="start" x="358.88" y="-183" font-family="Monospace" font-size="9.00"> </text>
<text xml:space="preserve" text-anchor="start" x="182.75" y="-171.75" font-family="Monospace" font-size="9.00"> </text>
<text xml:space="preserve" text-anchor="start" x="196.12" y="-171.75" font-family="Monospace" font-size="9.00">compile_predicate_indicators/3</text>
<text xml:space="preserve" text-anchor="start" x="358.88" y="-171.75" font-family="Monospace" font-size="9.00"> </text>
<text xml:space="preserve" text-anchor="start" x="182.75" y="-160.5" font-family="Monospace" font-size="9.00"> </text>
<text xml:space="preserve" text-anchor="start" x="204" y="-160.5" font-family="Monospace" font-size="9.00">decompile_predicate_heads/4</text>
<text xml:space="preserve" text-anchor="start" x="358.88" y="-160.5" font-family="Monospace" font-size="9.00"> </text>
<text xml:space="preserve" text-anchor="start" x="182.75" y="-149.25" font-family="Monospace" font-size="9.00"> </text>
<text xml:space="preserve" text-anchor="start" x="190.88" y="-149.25" font-family="Monospace" font-size="9.00">decompile_predicate_indicators/4</text>
<text xml:space="preserve" text-anchor="start" x="358.88" y="-149.25" font-family="Monospace" font-size="9.00"> </text>
<text xml:space="preserve" text-anchor="start" x="182.75" y="-138" font-family="Monospace" font-size="9.00"> </text>
<text xml:space="preserve" text-anchor="start" x="225" y="-138" font-family="Monospace" font-size="9.00">execution_context/7</text>
<text xml:space="preserve" text-anchor="start" x="358.88" y="-138" font-family="Monospace" font-size="9.00"> </text>
</g>
<!-- core_messages -->
<g id="node6" class="node">
<title>core_messages</title>
<polygon fill="lightcyan" stroke="black" points="602.12,-361.12 401.88,-361.12 401.88,-357.12 397.88,-357.12 397.88,-353.12 401.88,-353.12 401.88,-291.62 397.88,-291.62 397.88,-287.62 401.88,-287.62 401.88,-283.62 602.12,-283.62 602.12,-361.12"/>
<polyline fill="none" stroke="black" points="401.88,-357.12 405.88,-357.12 405.88,-353.12 401.88,-353.12"/>
<polyline fill="none" stroke="black" points="401.88,-291.62 405.88,-291.62 405.88,-287.62 401.88,-287.62"/>
<g id="a_node6_17"><a xlink:href="core_messages_category_xref_diagram.svg" xlink:title="Zoom">
<text xml:space="preserve" text-anchor="start" x="409.88" y="-348.12" font-family="Monospace" font-size="9.00">🔍</text>
</a>
</g>
<text xml:space="preserve" text-anchor="start" x="412.75" y="-336" font-family="Monospace" font-size="9.00"> </text>
<g id="a_node6_18"><a xlink:href="https://logtalk.org/library/core_messages_0.html" xlink:title="https://logtalk.org/library/core_messages_0.html">
<text xml:space="preserve" text-anchor="start" x="461" y="-335.62" font-family="Monospace" font-size="11.00">core_messages</text>
</a>
</g>
<text xml:space="preserve" text-anchor="start" x="588.88" y="-336" font-family="Monospace" font-size="9.00"> </text>
<text xml:space="preserve" text-anchor="start" x="412.75" y="-323.62" font-family="Monospace" font-size="9.00"> </text>
<text xml:space="preserve" text-anchor="start" x="466.62" y="-324.75" font-family="Monospace" font-size="7.00">built&#45;in category</text>
<text xml:space="preserve" text-anchor="start" x="588.88" y="-323.62" font-family="Monospace" font-size="9.00"> </text>
<text xml:space="preserve" text-anchor="start" x="412.75" y="-312.38" font-family="Monospace" font-size="9.00"> </text>
<text xml:space="preserve" text-anchor="start" x="412.75" y="-301.12" font-family="Monospace" font-size="9.00"> </text>
<text xml:space="preserve" text-anchor="start" x="420.88" y="-301.12" font-family="Monospace" font-size="9.00">logtalk::message_prefix_stream/4</text>
<text xml:space="preserve" text-anchor="start" x="588.88" y="-301.12" font-family="Monospace" font-size="9.00"> </text>
<text xml:space="preserve" text-anchor="start" x="412.75" y="-289.88" font-family="Monospace" font-size="9.00"> </text>
<text xml:space="preserve" text-anchor="start" x="436.62" y="-289.88" font-family="Monospace" font-size="9.00">logtalk::message_tokens//2</text>
<text xml:space="preserve" text-anchor="start" x="588.88" y="-289.88" font-family="Monospace" font-size="9.00"> </text>
</g>
</g>
</svg>
