<?xml version="1.0" encoding="UTF-8" standalone="no"?>
<?xml-stylesheet href="diagrams.css" type="text/css"?>
<!DOCTYPE svg PUBLIC "-//W3C//DTD SVG 1.1//EN"
 "http://www.w3.org/Graphics/SVG/1.1/DTD/svg11.dtd">
<!-- Generated by graphviz version 14.1.2 (20260124.0452)
 -->
<!-- Title: default_float_mutations_object Pages: 1 -->
<svg width="528pt" height="299pt"
 viewBox="72.00 72.00 456.00 227.00" xmlns="http://www.w3.org/2000/svg" xmlns:xlink="http://www.w3.org/1999/xlink">
<g id="graph0" class="graph" transform="scale(1 1) rotate(0) translate(76 223)">
<title>default_float_mutations_object</title>
<polygon fill="white" stroke="none" points="-4,4 -4,-151 380,-151 380,4 -4,4"/>
<text xml:space="preserve" text-anchor="start" x="8" y="-32.75" font-family="Monospace" font-size="10.00" fill="dimgray">Logtalk library</text>
<text xml:space="preserve" text-anchor="start" x="8" y="-20" font-family="Monospace" font-size="10.00" fill="dimgray">Cross&#45;referencing diagram for object default_float_mutations</text>
<text xml:space="preserve" text-anchor="start" x="8" y="-7.25" font-family="Monospace" font-size="10.00" fill="dimgray">Generated on 2026&#45;01&#45;30, 02:58</text>
<g id="clust1" class="cluster">
<title>cluster_default_float_mutations_object</title>
<g id="a_clust1"><a xlink:title="default_float_mutations">
<path fill="snow" stroke="dimgray" d="M86,-54.25C86,-54.25 290,-54.25 290,-54.25 296,-54.25 302,-60.25 302,-66.25 302,-66.25 302,-127 302,-127 302,-133 296,-139 290,-139 290,-139 86,-139 86,-139 80,-139 74,-133 74,-127 74,-127 74,-66.25 74,-66.25 74,-60.25 80,-54.25 86,-54.25"/>
<g id="a_clust1_0"><a xlink:href="https://github.com/LogtalkDotOrg/logtalk3/tree/aff49964206a96bb38e5807554ebd2c2a4d3efeb/library/mutations/default_float_mutations.lgt#L22" xlink:title="https://github.com/LogtalkDotOrg/logtalk3/tree/aff49964206a96bb38e5807554ebd2c2a4d3efeb/library/mutations/default_float_mutations.lgt#L22">
<text xml:space="preserve" text-anchor="start" x="86" y="-121.5" font-family="Monospace" font-size="10.00" fill="dimgray">default_float_mutations</text>
</a>
</g>
</a>
</g>
</g>
<!-- mutations_store::mutation/4 -->
<g id="node1" class="node">
<title>mutations_store::mutation/4</title>
<polygon fill="skyblue" stroke="black" points="292.38,-100.25 83.62,-100.25 83.62,-64.25 292.38,-64.25 292.38,-100.25"/>
<text xml:space="preserve" text-anchor="start" x="91.62" y="-84.95" font-family="Monospace" font-size="9.00"> </text>
<g id="a_node1_1"><a xlink:href="https://github.com/LogtalkDotOrg/logtalk3/tree/aff49964206a96bb38e5807554ebd2c2a4d3efeb/library/mutations/default_float_mutations.lgt#L33" xlink:title="https://github.com/LogtalkDotOrg/logtalk3/tree/aff49964206a96bb38e5807554ebd2c2a4d3efeb/library/mutations/default_float_mutations.lgt#L33">
<text xml:space="preserve" text-anchor="start" x="96.88" y="-84.17" font-family="Monospace" font-size="11.00">mutations_store::mutation/4</text>
</a>
</g>
<text xml:space="preserve" text-anchor="start" x="279.12" y="-84.95" font-family="Monospace" font-size="9.00"> </text>
<text xml:space="preserve" text-anchor="start" x="91.62" y="-72.58" font-family="Monospace" font-size="9.00"> </text>
<text xml:space="preserve" text-anchor="start" x="167.75" y="-73.35" font-family="Monospace" font-size="7.00">multifile</text>
<text xml:space="preserve" text-anchor="start" x="279.12" y="-72.58" font-family="Monospace" font-size="9.00"> </text>
</g>
</g>
</svg>
