<?xml version="1.0" encoding="UTF-8" standalone="no"?>
<?xml-stylesheet href="diagrams.css" type="text/css"?>
<!DOCTYPE svg PUBLIC "-//W3C//DTD SVG 1.1//EN"
 "http://www.w3.org/Graphics/SVG/1.1/DTD/svg11.dtd">
<!-- Generated by graphviz version 14.1.2 (20260124.0452)
 -->
<!-- Title: fast_random_object Pages: 1 -->
<svg width="456pt" height="418pt"
 viewBox="72.00 72.00 384.00 346.00" xmlns="http://www.w3.org/2000/svg" xmlns:xlink="http://www.w3.org/1999/xlink">
<g id="graph0" class="graph" transform="scale(1 1) rotate(0) translate(76 342.25)">
<title>fast_random_object</title>
<polygon fill="white" stroke="none" points="-4,4 -4,-270.25 308,-270.25 308,4 -4,4"/>
<text xml:space="preserve" text-anchor="start" x="8" y="-32.75" font-family="Monospace" font-size="10.00" fill="dimgray">Logtalk library</text>
<text xml:space="preserve" text-anchor="start" x="8" y="-20" font-family="Monospace" font-size="10.00" fill="dimgray">Cross&#45;referencing diagram for object fast_random</text>
<text xml:space="preserve" text-anchor="start" x="8" y="-7.25" font-family="Monospace" font-size="10.00" fill="dimgray">Generated on 2026&#45;02&#45;16, 23:50</text>
<g id="clust1" class="cluster">
<title>cluster_fast_random_object</title>
<g id="a_clust1"><a xlink:title="fast_random">
<path fill="snow" stroke="dimgray" d="M93,-54.25C93,-54.25 211,-54.25 211,-54.25 217,-54.25 223,-60.25 223,-66.25 223,-66.25 223,-246.25 223,-246.25 223,-252.25 217,-258.25 211,-258.25 211,-258.25 93,-258.25 93,-258.25 87,-258.25 81,-252.25 81,-246.25 81,-246.25 81,-66.25 81,-66.25 81,-60.25 87,-54.25 93,-54.25"/>
<g id="a_clust1_0"><a xlink:href="https://github.com/LogtalkDotOrg/logtalk3/tree/57c2386301168ad3308d30cdb8c36e55ed6f0708/library/random/fast_random.lgt#L376" xlink:title="https://github.com/LogtalkDotOrg/logtalk3/tree/57c2386301168ad3308d30cdb8c36e55ed6f0708/library/random/fast_random.lgt#L376">
<text xml:space="preserve" text-anchor="start" x="93" y="-240.75" font-family="Monospace" font-size="10.00" fill="dimgray">fast_random</text>
</a>
</g>
</a>
</g>
</g>
<!-- (:&#45;)/1 -->
<g id="node1" class="node">
<title>(:&#45;)/1</title>
<polygon fill="bisque" stroke="black" points="185.5,-219.5 118.5,-219.5 118.5,-183.5 185.5,-183.5 185.5,-219.5"/>
<text xml:space="preserve" text-anchor="start" x="126.5" y="-204.2" font-family="Monospace" font-size="9.00"> </text>
<g id="a_node1_1"><a xlink:href="https://github.com/LogtalkDotOrg/logtalk3/tree/57c2386301168ad3308d30cdb8c36e55ed6f0708/library/random/fast_random.lgt#L391" xlink:title="https://github.com/LogtalkDotOrg/logtalk3/tree/57c2386301168ad3308d30cdb8c36e55ed6f0708/library/random/fast_random.lgt#L391">
<text xml:space="preserve" text-anchor="start" x="131.75" y="-203.43" font-family="Monospace" font-size="11.00">(:&#45;)/1</text>
</a>
</g>
<text xml:space="preserve" text-anchor="start" x="172.25" y="-204.2" font-family="Monospace" font-size="9.00"> </text>
<text xml:space="preserve" text-anchor="start" x="126.5" y="-191.82" font-family="Monospace" font-size="9.00"> </text>
<text xml:space="preserve" text-anchor="start" x="131.75" y="-192.6" font-family="Monospace" font-size="7.00">directive</text>
<text xml:space="preserve" text-anchor="start" x="172.25" y="-191.82" font-family="Monospace" font-size="9.00"> </text>
</g>
<!-- ::reset_seed/0 -->
<g id="node2" class="node">
<title>::reset_seed/0</title>
<polygon fill="beige" stroke="black" stroke-dasharray="5,2" points="212.5,-100.25 91.5,-100.25 91.5,-64.25 212.5,-64.25 212.5,-100.25"/>
<text xml:space="preserve" text-anchor="start" x="99.5" y="-84.95" font-family="Monospace" font-size="9.00"> </text>
<text xml:space="preserve" text-anchor="start" x="104.75" y="-84.17" font-family="Monospace" font-size="11.00">::reset_seed/0</text>
<text xml:space="preserve" text-anchor="start" x="199.25" y="-84.95" font-family="Monospace" font-size="9.00"> </text>
<text xml:space="preserve" text-anchor="start" x="99.5" y="-72.58" font-family="Monospace" font-size="9.00"> </text>
<text xml:space="preserve" text-anchor="start" x="134" y="-73.35" font-family="Monospace" font-size="7.00">external</text>
<text xml:space="preserve" text-anchor="start" x="199.25" y="-72.58" font-family="Monospace" font-size="9.00"> </text>
</g>
<!-- (:&#45;)/1&#45;&gt;::reset_seed/0 -->
<g id="edge1" class="edge">
<title>(:&#45;)/1&#45;&gt;::reset_seed/0</title>
<g id="a_edge1"><a xlink:href="https://github.com/LogtalkDotOrg/logtalk3/tree/57c2386301168ad3308d30cdb8c36e55ed6f0708/library/random/fast_random.lgt#L391" xlink:title="calls">
<path fill="none" stroke="black" d="M152,-183.2C152,-164.5 152,-134.37 152,-112.08"/>
<polygon fill="black" stroke="black" points="155.5,-112.14 152,-102.14 148.5,-112.14 155.5,-112.14"/>
</a>
</g>
<g id="a_edge1&#45;label"><a xlink:href="https://github.com/LogtalkDotOrg/logtalk3/tree/57c2386301168ad3308d30cdb8c36e55ed6f0708/library/random/fast_random.lgt#L391" xlink:title="https://github.com/LogtalkDotOrg/logtalk3/tree/57c2386301168ad3308d30cdb8c36e55ed6f0708/library/random/fast_random.lgt#L391">
<text xml:space="preserve" text-anchor="start" x="152" y="-138.95" font-family="Monospace" font-size="9.00">calls</text>
</a>
</g>
</g>
</g>
</svg>
