<?xml version="1.0" encoding="UTF-8" standalone="no"?>
<?xml-stylesheet href="diagrams.css" type="text/css"?>
<!DOCTYPE svg PUBLIC "-//W3C//DTD SVG 1.1//EN"
 "http://www.w3.org/Graphics/SVG/1.1/DTD/svg11.dtd">
<!-- Generated by graphviz version 14.1.5 (20260411.2331)
 -->
<!-- Title: hash_protocol_protocol Pages: 1 -->
<svg width="480pt" height="299pt"
 viewBox="72.00 72.00 408.00 227.00" xmlns="http://www.w3.org/2000/svg" xmlns:xlink="http://www.w3.org/1999/xlink">
<g id="graph0" class="graph" transform="scale(1 1) rotate(0) translate(76 223)">
<title>hash_protocol_protocol</title>
<polygon fill="white" stroke="none" points="-4,4 -4,-151 332,-151 332,4 -4,4"/>
<text xml:space="preserve" text-anchor="start" x="8" y="-32.75" font-family="Monospace" font-size="10.00" fill="dimgray">Logtalk library</text>
<text xml:space="preserve" text-anchor="start" x="8" y="-20" font-family="Monospace" font-size="10.00" fill="dimgray">Cross&#45;referencing diagram for protocol hash_protocol</text>
<text xml:space="preserve" text-anchor="start" x="8" y="-7.25" font-family="Monospace" font-size="10.00" fill="dimgray">Generated on 2026&#45;05&#45;12, 16:23</text>
<g id="clust1" class="cluster">
<title>cluster_hash_protocol_protocol</title>
<g id="a_clust1"><a xlink:title="hash_protocol">
<path fill="snow" stroke="dimgray" d="M125,-54.25C125,-54.25 203,-54.25 203,-54.25 209,-54.25 215,-60.25 215,-66.25 215,-66.25 215,-127 215,-127 215,-133 209,-139 203,-139 203,-139 125,-139 125,-139 119,-139 113,-133 113,-127 113,-127 113,-66.25 113,-66.25 113,-60.25 119,-54.25 125,-54.25"/>
<g id="a_clust1_0"><a xlink:href="https://github.com/LogtalkDotOrg/logtalk3/tree/35bf07b9b6f8e0e4f9eb1c9de912330f5aedb17d/library/hashes/hash_protocol.lgt#L22" xlink:title="https://github.com/LogtalkDotOrg/logtalk3/tree/35bf07b9b6f8e0e4f9eb1c9de912330f5aedb17d/library/hashes/hash_protocol.lgt#L22">
<text xml:space="preserve" text-anchor="start" x="125" y="-121.25" font-family="Monospace" font-size="10.00" fill="dimgray">hash_protocol</text>
</a>
</g>
</a>
</g>
</g>
<!-- hash/2 -->
<g id="node1" class="node">
<title>hash/2</title>
<polygon fill="springgreen" stroke="black" points="197.5,-100.25 130.5,-100.25 130.5,-64.25 197.5,-64.25 197.5,-100.25"/>
<text xml:space="preserve" text-anchor="start" x="138.5" y="-84.5" font-family="Monospace" font-size="9.00"> </text>
<g id="a_node1_1"><a xlink:href="https://github.com/LogtalkDotOrg/logtalk3/tree/35bf07b9b6f8e0e4f9eb1c9de912330f5aedb17d/library/hashes/hash_protocol.lgt#L31" xlink:title="https://github.com/LogtalkDotOrg/logtalk3/tree/35bf07b9b6f8e0e4f9eb1c9de912330f5aedb17d/library/hashes/hash_protocol.lgt#L31">
<text xml:space="preserve" text-anchor="start" x="143.75" y="-84.12" font-family="Monospace" font-size="11.00">hash/2</text>
</a>
</g>
<text xml:space="preserve" text-anchor="start" x="184.25" y="-84.5" font-family="Monospace" font-size="9.00"> </text>
<text xml:space="preserve" text-anchor="start" x="138.5" y="-72.12" font-family="Monospace" font-size="9.00"> </text>
<text xml:space="preserve" text-anchor="start" x="150.5" y="-73.25" font-family="Monospace" font-size="7.00">public</text>
<text xml:space="preserve" text-anchor="start" x="184.25" y="-72.12" font-family="Monospace" font-size="9.00"> </text>
</g>
</g>
</svg>
