<?xml version="1.0" encoding="UTF-8" standalone="no"?>
<?xml-stylesheet href="diagrams.css" type="text/css"?>
<!DOCTYPE svg PUBLIC "-//W3C//DTD SVG 1.1//EN"
 "http://www.w3.org/Graphics/SVG/1.1/DTD/svg11.dtd">
<!-- Generated by graphviz version 14.1.2 (20260124.0452)
 -->
<!-- Title: html5_object Pages: 1 -->
<svg width="420pt" height="299pt"
 viewBox="72.00 72.00 348.00 227.00" xmlns="http://www.w3.org/2000/svg" xmlns:xlink="http://www.w3.org/1999/xlink">
<g id="graph0" class="graph" transform="scale(1 1) rotate(0) translate(76 223)">
<title>html5_object</title>
<polygon fill="white" stroke="none" points="-4,4 -4,-151 272,-151 272,4 -4,4"/>
<text xml:space="preserve" text-anchor="start" x="8" y="-32.75" font-family="Monospace" font-size="10.00" fill="dimgray">Logtalk library</text>
<text xml:space="preserve" text-anchor="start" x="8" y="-20" font-family="Monospace" font-size="10.00" fill="dimgray">Cross&#45;referencing diagram for object html5</text>
<text xml:space="preserve" text-anchor="start" x="8" y="-7.25" font-family="Monospace" font-size="10.00" fill="dimgray">Generated on 2026&#45;02&#45;05, 15:42</text>
<g id="clust1" class="cluster">
<title>cluster_html5_object</title>
<g id="a_clust1"><a xlink:title="html5">
<path fill="snow" stroke="dimgray" d="M92,-54.25C92,-54.25 176,-54.25 176,-54.25 182,-54.25 188,-60.25 188,-66.25 188,-66.25 188,-127 188,-127 188,-133 182,-139 176,-139 176,-139 92,-139 92,-139 86,-139 80,-133 80,-127 80,-127 80,-66.25 80,-66.25 80,-60.25 86,-54.25 92,-54.25"/>
<g id="a_clust1_0"><a xlink:href="https://github.com/LogtalkDotOrg/logtalk3/tree/e5f1711b1e9dcbc3bf3db9b7543dcadbc2497724/library/html/html.lgt#L336" xlink:title="https://github.com/LogtalkDotOrg/logtalk3/tree/e5f1711b1e9dcbc3bf3db9b7543dcadbc2497724/library/html/html.lgt#L336">
<text xml:space="preserve" text-anchor="start" x="92" y="-121.5" font-family="Monospace" font-size="10.00" fill="dimgray">html5</text>
</a>
</g>
</a>
</g>
</g>
<!-- doctype/1 -->
<g id="node1" class="node">
<title>doctype/1</title>
<polygon fill="cornsilk" stroke="black" points="177.62,-100.25 90.38,-100.25 90.38,-64.25 177.62,-64.25 177.62,-100.25"/>
<text xml:space="preserve" text-anchor="start" x="98.38" y="-84.95" font-family="Monospace" font-size="9.00"> </text>
<g id="a_node1_1"><a xlink:href="https://github.com/LogtalkDotOrg/logtalk3/tree/e5f1711b1e9dcbc3bf3db9b7543dcadbc2497724/library/html/html.lgt#L346" xlink:title="https://github.com/LogtalkDotOrg/logtalk3/tree/e5f1711b1e9dcbc3bf3db9b7543dcadbc2497724/library/html/html.lgt#L346">
<text xml:space="preserve" text-anchor="start" x="103.62" y="-84.17" font-family="Monospace" font-size="11.00">doctype/1</text>
</a>
</g>
<text xml:space="preserve" text-anchor="start" x="164.38" y="-84.95" font-family="Monospace" font-size="9.00"> </text>
<text xml:space="preserve" text-anchor="start" x="98.38" y="-72.58" font-family="Monospace" font-size="9.00"> </text>
<text xml:space="preserve" text-anchor="start" x="122.75" y="-73.35" font-family="Monospace" font-size="7.00">local</text>
<text xml:space="preserve" text-anchor="start" x="164.38" y="-72.58" font-family="Monospace" font-size="9.00"> </text>
</g>
</g>
</svg>
