<?xml version="1.0" encoding="UTF-8" standalone="no"?>
<?xml-stylesheet href="diagrams.css" type="text/css"?>
<!DOCTYPE svg PUBLIC "-//W3C//DTD SVG 1.1//EN"
 "http://www.w3.org/Graphics/SVG/1.1/DTD/svg11.dtd">
<!-- Generated by graphviz version 15.0.0 (20260523.1842)
 -->
<!-- Title: http_websocket_service_handler_protocol_protocol Pages: 1 -->
<svg width="636pt" height="299pt"
 viewBox="72.00 72.00 564.00 227.00" xmlns="http://www.w3.org/2000/svg" xmlns:xlink="http://www.w3.org/1999/xlink">
<g id="graph0" class="graph" transform="scale(1 1) rotate(0) translate(76 223)">
<title>http_websocket_service_handler_protocol_protocol</title>
<polygon fill="white" stroke="none" points="-4,4 -4,-151 488,-151 488,4 -4,4"/>
<text xml:space="preserve" text-anchor="start" x="8" y="-32.75" font-family="Monospace" font-size="10.00" fill="dimgray">Logtalk library</text>
<text xml:space="preserve" text-anchor="start" x="8" y="-20" font-family="Monospace" font-size="10.00" fill="dimgray">Cross&#45;referencing diagram for protocol http_websocket_service_handler_protocol</text>
<text xml:space="preserve" text-anchor="start" x="8" y="-7.25" font-family="Monospace" font-size="10.00" fill="dimgray">Generated on 2026&#45;06&#45;23, 23:48</text>
<g id="clust1" class="cluster">
<title>cluster_http_websocket_service_handler_protocol_protocol</title>
<g id="a_clust1"><a xlink:title="http_websocket_service_handler_protocol">
<path fill="snow" stroke="dimgray" d="M125,-54.25C125,-54.25 359,-54.25 359,-54.25 365,-54.25 371,-60.25 371,-66.25 371,-66.25 371,-127 371,-127 371,-133 365,-139 359,-139 359,-139 125,-139 125,-139 119,-139 113,-133 113,-127 113,-127 113,-66.25 113,-66.25 113,-60.25 119,-54.25 125,-54.25"/>
<g id="a_clust1_0"><a xlink:href="https://github.com/LogtalkDotOrg/logtalk3/tree/c82332ea0df1aabf753a83fe952ae6d39a82a1b4/library/http_websocket_service/http_websocket_service_handler_protocol.lgt#L22" xlink:title="https://github.com/LogtalkDotOrg/logtalk3/tree/c82332ea0df1aabf753a83fe952ae6d39a82a1b4/library/http_websocket_service/http_websocket_service_handler_protocol.lgt#L22">
<text xml:space="preserve" text-anchor="start" x="125" y="-121.25" font-family="Monospace" font-size="10.00" fill="dimgray">http_websocket_service_handler_protocol</text>
</a>
</g>
</a>
</g>
</g>
<!-- handle/2 -->
<g id="node1" class="node">
<title>handle/2</title>
<polygon fill="springgreen" stroke="black" points="282.25,-100.25 201.75,-100.25 201.75,-64.25 282.25,-64.25 282.25,-100.25"/>
<text xml:space="preserve" text-anchor="start" x="209.75" y="-84.5" font-family="Monospace" font-size="9.00"> </text>
<g id="a_node1_1"><a xlink:href="https://github.com/LogtalkDotOrg/logtalk3/tree/c82332ea0df1aabf753a83fe952ae6d39a82a1b4/library/http_websocket_service/http_websocket_service_handler_protocol.lgt#L31" xlink:title="https://github.com/LogtalkDotOrg/logtalk3/tree/c82332ea0df1aabf753a83fe952ae6d39a82a1b4/library/http_websocket_service/http_websocket_service_handler_protocol.lgt#L31">
<text xml:space="preserve" text-anchor="start" x="215" y="-84.12" font-family="Monospace" font-size="11.00">handle/2</text>
</a>
</g>
<text xml:space="preserve" text-anchor="start" x="269" y="-84.5" font-family="Monospace" font-size="9.00"> </text>
<text xml:space="preserve" text-anchor="start" x="209.75" y="-72.12" font-family="Monospace" font-size="9.00"> </text>
<text xml:space="preserve" text-anchor="start" x="228.5" y="-73.25" font-family="Monospace" font-size="7.00">public</text>
<text xml:space="preserve" text-anchor="start" x="269" y="-72.12" font-family="Monospace" font-size="9.00"> </text>
</g>
</g>
</svg>
