<?xml version="1.0" encoding="UTF-8" standalone="no"?>
<?xml-stylesheet href="diagrams.css" type="text/css"?>
<!DOCTYPE svg PUBLIC "-//W3C//DTD SVG 1.1//EN"
 "http://www.w3.org/Graphics/SVG/1.1/DTD/svg11.dtd">
<!-- Generated by graphviz version 15.0.0 (20260523.1842)
 -->
<!-- Title: http_digest_verifier_protocol_protocol Pages: 1 -->
<svg width="576pt" height="299pt"
 viewBox="72.00 72.00 504.00 227.00" xmlns="http://www.w3.org/2000/svg" xmlns:xlink="http://www.w3.org/1999/xlink">
<g id="graph0" class="graph" transform="scale(1 1) rotate(0) translate(76 223)">
<title>http_digest_verifier_protocol_protocol</title>
<polygon fill="white" stroke="none" points="-4,4 -4,-151 428,-151 428,4 -4,4"/>
<text xml:space="preserve" text-anchor="start" x="8" y="-32.75" font-family="Monospace" font-size="10.00" fill="dimgray">Logtalk library</text>
<text xml:space="preserve" text-anchor="start" x="8" y="-20" font-family="Monospace" font-size="10.00" fill="dimgray">Cross&#45;referencing diagram for protocol http_digest_verifier_protocol</text>
<text xml:space="preserve" text-anchor="start" x="8" y="-7.25" font-family="Monospace" font-size="10.00" fill="dimgray">Generated on 2026&#45;06&#45;12, 00:33</text>
<g id="clust1" class="cluster">
<title>cluster_http_digest_verifier_protocol_protocol</title>
<g id="a_clust1"><a xlink:title="http_digest_verifier_protocol">
<path fill="snow" stroke="dimgray" d="M125,-54.25C125,-54.25 299,-54.25 299,-54.25 305,-54.25 311,-60.25 311,-66.25 311,-66.25 311,-127 311,-127 311,-133 305,-139 299,-139 299,-139 125,-139 125,-139 119,-139 113,-133 113,-127 113,-127 113,-66.25 113,-66.25 113,-60.25 119,-54.25 125,-54.25"/>
<g id="a_clust1_0"><a xlink:href="https://github.com/LogtalkDotOrg/logtalk3/tree/c5204ea3dfe8a0d09ef055705a31bacab631a5c9/library/http_digest/http_digest_verifier_protocol.lgt#L22" xlink:title="https://github.com/LogtalkDotOrg/logtalk3/tree/c5204ea3dfe8a0d09ef055705a31bacab631a5c9/library/http_digest/http_digest_verifier_protocol.lgt#L22">
<text xml:space="preserve" text-anchor="start" x="125" y="-121.25" font-family="Monospace" font-size="10.00" fill="dimgray">http_digest_verifier_protocol</text>
</a>
</g>
</a>
</g>
</g>
<!-- ha1/4 -->
<g id="node1" class="node">
<title>ha1/4</title>
<polygon fill="springgreen" stroke="black" points="242.12,-100.25 181.88,-100.25 181.88,-64.25 242.12,-64.25 242.12,-100.25"/>
<text xml:space="preserve" text-anchor="start" x="189.88" y="-84.5" font-family="Monospace" font-size="9.00"> </text>
<g id="a_node1_1"><a xlink:href="https://github.com/LogtalkDotOrg/logtalk3/tree/c5204ea3dfe8a0d09ef055705a31bacab631a5c9/library/http_digest/http_digest_verifier_protocol.lgt#L31" xlink:title="https://github.com/LogtalkDotOrg/logtalk3/tree/c5204ea3dfe8a0d09ef055705a31bacab631a5c9/library/http_digest/http_digest_verifier_protocol.lgt#L31">
<text xml:space="preserve" text-anchor="start" x="195.12" y="-84.12" font-family="Monospace" font-size="11.00">ha1/4</text>
</a>
</g>
<text xml:space="preserve" text-anchor="start" x="228.88" y="-84.5" font-family="Monospace" font-size="9.00"> </text>
<text xml:space="preserve" text-anchor="start" x="189.88" y="-72.12" font-family="Monospace" font-size="9.00"> </text>
<text xml:space="preserve" text-anchor="start" x="198.5" y="-73.25" font-family="Monospace" font-size="7.00">public</text>
<text xml:space="preserve" text-anchor="start" x="228.88" y="-72.12" font-family="Monospace" font-size="9.00"> </text>
</g>
</g>
</svg>
