<?xml version="1.0" encoding="UTF-8" standalone="no"?>
<?xml-stylesheet href="diagrams.css" type="text/css"?>
<!DOCTYPE svg PUBLIC "-//W3C//DTD SVG 1.1//EN"
 "http://www.w3.org/Graphics/SVG/1.1/DTD/svg11.dtd">
<!-- Generated by graphviz version 14.0.5 (20251129.0259)
 -->
<!-- Title: identity_hook_object Pages: 1 -->
<svg width="475pt" height="299pt"
 viewBox="72.00 72.00 403.00 227.00" xmlns="http://www.w3.org/2000/svg" xmlns:xlink="http://www.w3.org/1999/xlink">
<g id="graph0" class="graph" transform="scale(1 1) rotate(0) translate(76 223)">
<title>identity_hook_object</title>
<polygon fill="white" stroke="none" points="-4,4 -4,-151 327,-151 327,4 -4,4"/>
<text xml:space="preserve" text-anchor="start" x="8" y="-32.75" font-family="Monospace" font-size="10.00" fill="dimgray">Logtalk library</text>
<text xml:space="preserve" text-anchor="start" x="8" y="-20" font-family="Monospace" font-size="10.00" fill="dimgray">Cross&#45;referencing diagram for object identity_hook</text>
<text xml:space="preserve" text-anchor="start" x="8" y="-7.25" font-family="Monospace" font-size="10.00" fill="dimgray">Generated on 2025&#45;12&#45;08, 00:13</text>
<g id="clust1" class="cluster">
<title>cluster_identity_hook_object</title>
<g id="a_clust1"><a xlink:title="identity_hook">
<path fill="snow" stroke="dimgray" d="M20,-54.25C20,-54.25 303,-54.25 303,-54.25 309,-54.25 315,-60.25 315,-66.25 315,-66.25 315,-127 315,-127 315,-133 309,-139 303,-139 303,-139 20,-139 20,-139 14,-139 8,-133 8,-127 8,-127 8,-66.25 8,-66.25 8,-60.25 14,-54.25 20,-54.25"/>
<g id="a_clust1_0"><a xlink:href="https://github.com/LogtalkDotOrg/logtalk3/tree/f0edbd73494c4dd0c3ca4c1d6435c8890616d5f2/library/hook_objects/identity_hook.lgt#L22" xlink:title="https://github.com/LogtalkDotOrg/logtalk3/tree/f0edbd73494c4dd0c3ca4c1d6435c8890616d5f2/library/hook_objects/identity_hook.lgt#L22">
<text xml:space="preserve" text-anchor="start" x="20" y="-121.5" font-family="Monospace" font-size="10.00" fill="dimgray">identity_hook</text>
</a>
</g>
</a>
</g>
</g>
<!-- term_expansion/2 -->
<g id="node1" class="node">
<title>term_expansion/2</title>
<polygon fill="cornsilk" stroke="black" points="152.25,-100.25 17.75,-100.25 17.75,-64.25 152.25,-64.25 152.25,-100.25"/>
<text xml:space="preserve" text-anchor="start" x="25.75" y="-84.95" font-family="Monospace" font-size="9.00"> </text>
<g id="a_node1_1"><a xlink:href="https://github.com/LogtalkDotOrg/logtalk3/tree/f0edbd73494c4dd0c3ca4c1d6435c8890616d5f2/library/hook_objects/identity_hook.lgt#L42" xlink:title="https://github.com/LogtalkDotOrg/logtalk3/tree/f0edbd73494c4dd0c3ca4c1d6435c8890616d5f2/library/hook_objects/identity_hook.lgt#L42">
<text xml:space="preserve" text-anchor="start" x="31" y="-84.17" font-family="Monospace" font-size="11.00">term_expansion/2</text>
</a>
</g>
<text xml:space="preserve" text-anchor="start" x="139" y="-84.95" font-family="Monospace" font-size="9.00"> </text>
<text xml:space="preserve" text-anchor="start" x="25.75" y="-72.58" font-family="Monospace" font-size="9.00"> </text>
<text xml:space="preserve" text-anchor="start" x="73.75" y="-73.35" font-family="Monospace" font-size="7.00">local</text>
<text xml:space="preserve" text-anchor="start" x="139" y="-72.58" font-family="Monospace" font-size="9.00"> </text>
</g>
<!-- goal_expansion/2 -->
<g id="node2" class="node">
<title>goal_expansion/2</title>
<polygon fill="cornsilk" stroke="black" points="305.25,-100.25 170.75,-100.25 170.75,-64.25 305.25,-64.25 305.25,-100.25"/>
<text xml:space="preserve" text-anchor="start" x="178.75" y="-84.95" font-family="Monospace" font-size="9.00"> </text>
<g id="a_node2_2"><a xlink:href="https://github.com/LogtalkDotOrg/logtalk3/tree/f0edbd73494c4dd0c3ca4c1d6435c8890616d5f2/library/hook_objects/identity_hook.lgt#L44" xlink:title="https://github.com/LogtalkDotOrg/logtalk3/tree/f0edbd73494c4dd0c3ca4c1d6435c8890616d5f2/library/hook_objects/identity_hook.lgt#L44">
<text xml:space="preserve" text-anchor="start" x="184" y="-84.17" font-family="Monospace" font-size="11.00">goal_expansion/2</text>
</a>
</g>
<text xml:space="preserve" text-anchor="start" x="292" y="-84.95" font-family="Monospace" font-size="9.00"> </text>
<text xml:space="preserve" text-anchor="start" x="178.75" y="-72.58" font-family="Monospace" font-size="9.00"> </text>
<text xml:space="preserve" text-anchor="start" x="226.75" y="-73.35" font-family="Monospace" font-size="7.00">local</text>
<text xml:space="preserve" text-anchor="start" x="292" y="-72.58" font-family="Monospace" font-size="9.00"> </text>
</g>
</g>
</svg>
