<?xml version="1.0" encoding="UTF-8" standalone="no"?>
<?xml-stylesheet href="diagrams.css" type="text/css"?>
<!DOCTYPE svg PUBLIC "-//W3C//DTD SVG 1.1//EN"
 "http://www.w3.org/Graphics/SVG/1.1/DTD/svg11.dtd">
<!-- Generated by graphviz version 15.0.0 (20260523.1842)
 -->
<!-- Title: iso_4217_protocol_protocol Pages: 1 -->
<svg width="504pt" height="299pt"
 viewBox="72.00 72.00 432.00 227.00" xmlns="http://www.w3.org/2000/svg" xmlns:xlink="http://www.w3.org/1999/xlink">
<g id="graph0" class="graph" transform="scale(1 1) rotate(0) translate(76 223)">
<title>iso_4217_protocol_protocol</title>
<polygon fill="white" stroke="none" points="-4,4 -4,-151 356,-151 356,4 -4,4"/>
<text xml:space="preserve" text-anchor="start" x="8" y="-32.75" font-family="Monospace" font-size="10.00" fill="dimgray">Logtalk library</text>
<text xml:space="preserve" text-anchor="start" x="8" y="-20" font-family="Monospace" font-size="10.00" fill="dimgray">Cross&#45;referencing diagram for protocol iso_4217_protocol</text>
<text xml:space="preserve" text-anchor="start" x="8" y="-7.25" font-family="Monospace" font-size="10.00" fill="dimgray">Generated on 2026&#45;06&#45;07, 21:38</text>
<g id="clust1" class="cluster">
<title>cluster_iso_4217_protocol_protocol</title>
<g id="a_clust1"><a xlink:title="iso_4217_protocol">
<path fill="snow" stroke="dimgray" d="M58,-54.25C58,-54.25 294,-54.25 294,-54.25 300,-54.25 306,-60.25 306,-66.25 306,-66.25 306,-127 306,-127 306,-133 300,-139 294,-139 294,-139 58,-139 58,-139 52,-139 46,-133 46,-127 46,-127 46,-66.25 46,-66.25 46,-60.25 52,-54.25 58,-54.25"/>
<g id="a_clust1_0"><a xlink:href="https://github.com/LogtalkDotOrg/logtalk3/tree/5067bd085ea29235c27703bd2d8a75a21cc236ba/library/iso_4217/iso_4217_protocol.lgt#L22" xlink:title="https://github.com/LogtalkDotOrg/logtalk3/tree/5067bd085ea29235c27703bd2d8a75a21cc236ba/library/iso_4217/iso_4217_protocol.lgt#L22">
<text xml:space="preserve" text-anchor="start" x="58" y="-121.25" font-family="Monospace" font-size="10.00" fill="dimgray">iso_4217_protocol</text>
</a>
</g>
</a>
</g>
</g>
<!-- currency/5 -->
<g id="node1" class="node">
<title>currency/5</title>
<polygon fill="springgreen" stroke="black" points="150,-100.25 56,-100.25 56,-64.25 150,-64.25 150,-100.25"/>
<text xml:space="preserve" text-anchor="start" x="64" y="-84.5" font-family="Monospace" font-size="9.00"> </text>
<g id="a_node1_1"><a xlink:href="https://github.com/LogtalkDotOrg/logtalk3/tree/5067bd085ea29235c27703bd2d8a75a21cc236ba/library/iso_4217/iso_4217_protocol.lgt#L31" xlink:title="https://github.com/LogtalkDotOrg/logtalk3/tree/5067bd085ea29235c27703bd2d8a75a21cc236ba/library/iso_4217/iso_4217_protocol.lgt#L31">
<text xml:space="preserve" text-anchor="start" x="69.25" y="-84.12" font-family="Monospace" font-size="11.00">currency/5</text>
</a>
</g>
<text xml:space="preserve" text-anchor="start" x="136.75" y="-84.5" font-family="Monospace" font-size="9.00"> </text>
<text xml:space="preserve" text-anchor="start" x="64" y="-72.12" font-family="Monospace" font-size="9.00"> </text>
<text xml:space="preserve" text-anchor="start" x="89.5" y="-73.25" font-family="Monospace" font-size="7.00">public</text>
<text xml:space="preserve" text-anchor="start" x="136.75" y="-72.12" font-family="Monospace" font-size="9.00"> </text>
</g>
<!-- fund_currency/5 -->
<g id="node2" class="node">
<title>fund_currency/5</title>
<polygon fill="springgreen" stroke="black" points="295.88,-100.25 168.12,-100.25 168.12,-64.25 295.88,-64.25 295.88,-100.25"/>
<text xml:space="preserve" text-anchor="start" x="176.12" y="-84.5" font-family="Monospace" font-size="9.00"> </text>
<g id="a_node2_2"><a xlink:href="https://github.com/LogtalkDotOrg/logtalk3/tree/5067bd085ea29235c27703bd2d8a75a21cc236ba/library/iso_4217/iso_4217_protocol.lgt#L38" xlink:title="https://github.com/LogtalkDotOrg/logtalk3/tree/5067bd085ea29235c27703bd2d8a75a21cc236ba/library/iso_4217/iso_4217_protocol.lgt#L38">
<text xml:space="preserve" text-anchor="start" x="181.38" y="-84.12" font-family="Monospace" font-size="11.00">fund_currency/5</text>
</a>
</g>
<text xml:space="preserve" text-anchor="start" x="282.62" y="-84.5" font-family="Monospace" font-size="9.00"> </text>
<text xml:space="preserve" text-anchor="start" x="176.12" y="-72.12" font-family="Monospace" font-size="9.00"> </text>
<text xml:space="preserve" text-anchor="start" x="218.5" y="-73.25" font-family="Monospace" font-size="7.00">public</text>
<text xml:space="preserve" text-anchor="start" x="282.62" y="-72.12" font-family="Monospace" font-size="9.00"> </text>
</g>
</g>
</svg>
