<?xml version="1.0" encoding="UTF-8" standalone="no"?>
<?xml-stylesheet href="diagrams.css" type="text/css"?>
<!DOCTYPE svg PUBLIC "-//W3C//DTD SVG 1.1//EN"
 "http://www.w3.org/Graphics/SVG/1.1/DTD/svg11.dtd">
<!-- Generated by graphviz version 15.1.0 (20260618.0150)
 -->
<!-- Title: iso_639_2_object Pages: 1 -->
<svg width="444pt" height="299pt"
 viewBox="72.00 72.00 372.00 227.00" xmlns="http://www.w3.org/2000/svg" xmlns:xlink="http://www.w3.org/1999/xlink">
<g id="graph0" class="graph" transform="scale(1 1) rotate(0) translate(76 223)">
<title>iso_639_2_object</title>
<polygon fill="white" stroke="none" points="-4,4 -4,-151 296,-151 296,4 -4,4"/>
<text xml:space="preserve" text-anchor="start" x="8" y="-32.75" font-family="Monospace" font-size="10.00" fill="dimgray">Logtalk library</text>
<text xml:space="preserve" text-anchor="start" x="8" y="-20" font-family="Monospace" font-size="10.00" fill="dimgray">Cross&#45;referencing diagram for object iso_639_2</text>
<text xml:space="preserve" text-anchor="start" x="8" y="-7.25" font-family="Monospace" font-size="10.00" fill="dimgray">Generated on 2026&#45;07&#45;09, 17:37</text>
<g id="clust1" class="cluster">
<title>cluster_iso_639_2_object</title>
<g id="a_clust1"><a xlink:title="iso_639_2">
<path fill="snow" stroke="dimgray" d="M84,-54.25C84,-54.25 208,-54.25 208,-54.25 214,-54.25 220,-60.25 220,-66.25 220,-66.25 220,-127 220,-127 220,-133 214,-139 208,-139 208,-139 84,-139 84,-139 78,-139 72,-133 72,-127 72,-127 72,-66.25 72,-66.25 72,-60.25 78,-54.25 84,-54.25"/>
<g id="a_clust1_0"><a xlink:href="https://github.com/LogtalkDotOrg/logtalk3/tree/5c2c50521b7a803ae5f43f6c1285deb8209c727f/library/iso_639/iso_639_2.lgt#L24" xlink:title="https://github.com/LogtalkDotOrg/logtalk3/tree/5c2c50521b7a803ae5f43f6c1285deb8209c727f/library/iso_639/iso_639_2.lgt#L24">
<text xml:space="preserve" text-anchor="start" x="84" y="-121.25" font-family="Monospace" font-size="10.00" fill="dimgray">iso_639_2</text>
</a>
</g>
</a>
</g>
</g>
<!-- language_code/5 -->
<g id="node1" class="node">
<title>language_code/5</title>
<polygon fill="springgreen" stroke="black" points="209.88,-100.25 82.12,-100.25 82.12,-64.25 209.88,-64.25 209.88,-100.25"/>
<text xml:space="preserve" text-anchor="start" x="90.12" y="-84.5" font-family="Monospace" font-size="9.00"> </text>
<g id="a_node1_1"><a xlink:href="https://github.com/LogtalkDotOrg/logtalk3/tree/5c2c50521b7a803ae5f43f6c1285deb8209c727f/library/iso_639/iso_639_2.lgt#L38" xlink:title="https://github.com/LogtalkDotOrg/logtalk3/tree/5c2c50521b7a803ae5f43f6c1285deb8209c727f/library/iso_639/iso_639_2.lgt#L38">
<text xml:space="preserve" text-anchor="start" x="95.38" y="-84.12" font-family="Monospace" font-size="11.00">language_code/5</text>
</a>
</g>
<text xml:space="preserve" text-anchor="start" x="196.62" y="-84.5" font-family="Monospace" font-size="9.00"> </text>
<text xml:space="preserve" text-anchor="start" x="90.12" y="-72.12" font-family="Monospace" font-size="9.00"> </text>
<text xml:space="preserve" text-anchor="start" x="132.5" y="-73.25" font-family="Monospace" font-size="7.00">public</text>
<text xml:space="preserve" text-anchor="start" x="196.62" y="-72.12" font-family="Monospace" font-size="9.00"> </text>
</g>
</g>
</svg>
