<?xml version="1.0" encoding="UTF-8" standalone="no"?>
<?xml-stylesheet href="diagrams.css" type="text/css"?>
<!DOCTYPE svg PUBLIC "-//W3C//DTD SVG 1.1//EN"
 "http://www.w3.org/Graphics/SVG/1.1/DTD/svg11.dtd">
<!-- Generated by graphviz version 15.1.0 (20260618.0150)
 -->
<!-- Title: iso_3166_2_object Pages: 1 -->
<svg width="450pt" height="299pt"
 viewBox="72.00 72.00 378.00 227.00" xmlns="http://www.w3.org/2000/svg" xmlns:xlink="http://www.w3.org/1999/xlink">
<g id="graph0" class="graph" transform="scale(1 1) rotate(0) translate(76 223)">
<title>iso_3166_2_object</title>
<polygon fill="white" stroke="none" points="-4,4 -4,-151 302,-151 302,4 -4,4"/>
<text xml:space="preserve" text-anchor="start" x="8" y="-32.75" font-family="Monospace" font-size="10.00" fill="dimgray">Logtalk library</text>
<text xml:space="preserve" text-anchor="start" x="8" y="-20" font-family="Monospace" font-size="10.00" fill="dimgray">Cross&#45;referencing diagram for object iso_3166_2</text>
<text xml:space="preserve" text-anchor="start" x="8" y="-7.25" font-family="Monospace" font-size="10.00" fill="dimgray">Generated on 2026&#45;07&#45;09, 17:37</text>
<g id="clust1" class="cluster">
<title>cluster_iso_3166_2_object</title>
<g id="a_clust1"><a xlink:title="iso_3166_2">
<path fill="snow" stroke="dimgray" d="M94,-54.25C94,-54.25 204,-54.25 204,-54.25 210,-54.25 216,-60.25 216,-66.25 216,-66.25 216,-127 216,-127 216,-133 210,-139 204,-139 204,-139 94,-139 94,-139 88,-139 82,-133 82,-127 82,-127 82,-66.25 82,-66.25 82,-60.25 88,-54.25 94,-54.25"/>
<g id="a_clust1_0"><a xlink:href="https://github.com/LogtalkDotOrg/logtalk3/tree/5c2c50521b7a803ae5f43f6c1285deb8209c727f/library/iso_3166/iso_3166_2.lgt#L24" xlink:title="https://github.com/LogtalkDotOrg/logtalk3/tree/5c2c50521b7a803ae5f43f6c1285deb8209c727f/library/iso_3166/iso_3166_2.lgt#L24">
<text xml:space="preserve" text-anchor="start" x="94" y="-121.25" font-family="Monospace" font-size="10.00" fill="dimgray">iso_3166_2</text>
</a>
</g>
</a>
</g>
</g>
<!-- subdivision/4 -->
<g id="node1" class="node">
<title>subdivision/4</title>
<polygon fill="springgreen" stroke="black" points="206.12,-100.25 91.88,-100.25 91.88,-64.25 206.12,-64.25 206.12,-100.25"/>
<text xml:space="preserve" text-anchor="start" x="99.88" y="-84.5" font-family="Monospace" font-size="9.00"> </text>
<g id="a_node1_1"><a xlink:href="https://github.com/LogtalkDotOrg/logtalk3/tree/5c2c50521b7a803ae5f43f6c1285deb8209c727f/library/iso_3166/iso_3166_2.lgt#L37" xlink:title="https://github.com/LogtalkDotOrg/logtalk3/tree/5c2c50521b7a803ae5f43f6c1285deb8209c727f/library/iso_3166/iso_3166_2.lgt#L37">
<text xml:space="preserve" text-anchor="start" x="105.12" y="-84.12" font-family="Monospace" font-size="11.00">subdivision/4</text>
</a>
</g>
<text xml:space="preserve" text-anchor="start" x="192.88" y="-84.5" font-family="Monospace" font-size="9.00"> </text>
<text xml:space="preserve" text-anchor="start" x="99.88" y="-72.12" font-family="Monospace" font-size="9.00"> </text>
<text xml:space="preserve" text-anchor="start" x="135.5" y="-73.25" font-family="Monospace" font-size="7.00">public</text>
<text xml:space="preserve" text-anchor="start" x="192.88" y="-72.12" font-family="Monospace" font-size="9.00"> </text>
</g>
</g>
</svg>
