<?xml version="1.0" encoding="UTF-8" standalone="no"?>
<?xml-stylesheet href="diagrams.css" type="text/css"?>
<!DOCTYPE svg PUBLIC "-//W3C//DTD SVG 1.1//EN"
 "http://www.w3.org/Graphics/SVG/1.1/DTD/svg11.dtd">
<!-- Generated by graphviz version 15.0.0 (20260523.1842)
 -->
<!-- Title: iso_639_3_object Pages: 1 -->
<svg width="444pt" height="299pt"
 viewBox="72.00 72.00 372.00 227.00" xmlns="http://www.w3.org/2000/svg" xmlns:xlink="http://www.w3.org/1999/xlink">
<g id="graph0" class="graph" transform="scale(1 1) rotate(0) translate(76 223)">
<title>iso_639_3_object</title>
<polygon fill="white" stroke="none" points="-4,4 -4,-151 296,-151 296,4 -4,4"/>
<text xml:space="preserve" text-anchor="start" x="8" y="-32.75" font-family="Monospace" font-size="10.00" fill="dimgray">Logtalk library</text>
<text xml:space="preserve" text-anchor="start" x="8" y="-20" font-family="Monospace" font-size="10.00" fill="dimgray">Cross&#45;referencing diagram for object iso_639_3</text>
<text xml:space="preserve" text-anchor="start" x="8" y="-7.25" font-family="Monospace" font-size="10.00" fill="dimgray">Generated on 2026&#45;06&#45;29, 17:22</text>
<g id="clust1" class="cluster">
<title>cluster_iso_639_3_object</title>
<g id="a_clust1"><a xlink:title="iso_639_3">
<path fill="snow" stroke="dimgray" d="M101,-54.25C101,-54.25 191,-54.25 191,-54.25 197,-54.25 203,-60.25 203,-66.25 203,-66.25 203,-127 203,-127 203,-133 197,-139 191,-139 191,-139 101,-139 101,-139 95,-139 89,-133 89,-127 89,-127 89,-66.25 89,-66.25 89,-60.25 95,-54.25 101,-54.25"/>
<g id="a_clust1_0"><a xlink:href="https://github.com/LogtalkDotOrg/logtalk3/tree/564576ba77885504a9b61c6d04debc486a7ffa66/library/iso_639/iso_639_3.lgt#L24" xlink:title="https://github.com/LogtalkDotOrg/logtalk3/tree/564576ba77885504a9b61c6d04debc486a7ffa66/library/iso_639/iso_639_3.lgt#L24">
<text xml:space="preserve" text-anchor="start" x="101" y="-121.25" font-family="Monospace" font-size="10.00" fill="dimgray">iso_639_3</text>
</a>
</g>
</a>
</g>
</g>
<!-- language/5 -->
<g id="node1" class="node">
<title>language/5</title>
<polygon fill="springgreen" stroke="black" points="193,-100.25 99,-100.25 99,-64.25 193,-64.25 193,-100.25"/>
<text xml:space="preserve" text-anchor="start" x="107" y="-84.5" font-family="Monospace" font-size="9.00"> </text>
<g id="a_node1_1"><a xlink:href="https://github.com/LogtalkDotOrg/logtalk3/tree/564576ba77885504a9b61c6d04debc486a7ffa66/library/iso_639/iso_639_3.lgt#L38" xlink:title="https://github.com/LogtalkDotOrg/logtalk3/tree/564576ba77885504a9b61c6d04debc486a7ffa66/library/iso_639/iso_639_3.lgt#L38">
<text xml:space="preserve" text-anchor="start" x="112.25" y="-84.12" font-family="Monospace" font-size="11.00">language/5</text>
</a>
</g>
<text xml:space="preserve" text-anchor="start" x="179.75" y="-84.5" font-family="Monospace" font-size="9.00"> </text>
<text xml:space="preserve" text-anchor="start" x="107" y="-72.12" font-family="Monospace" font-size="9.00"> </text>
<text xml:space="preserve" text-anchor="start" x="132.5" y="-73.25" font-family="Monospace" font-size="7.00">public</text>
<text xml:space="preserve" text-anchor="start" x="179.75" y="-72.12" font-family="Monospace" font-size="9.00"> </text>
</g>
</g>
</svg>
