<?xml version="1.0" encoding="UTF-8" standalone="no"?>
<?xml-stylesheet href="diagrams.css" type="text/css"?>
<!DOCTYPE svg PUBLIC "-//W3C//DTD SVG 1.1//EN"
 "http://www.w3.org/Graphics/SVG/1.1/DTD/svg11.dtd">
<!-- Generated by graphviz version 15.1.0 (20260618.0150)
 -->
<!-- Title: iso_3166_1_object Pages: 1 -->
<svg width="450pt" height="299pt"
 viewBox="72.00 72.00 378.00 227.00" xmlns="http://www.w3.org/2000/svg" xmlns:xlink="http://www.w3.org/1999/xlink">
<g id="graph0" class="graph" transform="scale(1 1) rotate(0) translate(76 223)">
<title>iso_3166_1_object</title>
<polygon fill="white" stroke="none" points="-4,4 -4,-151 302,-151 302,4 -4,4"/>
<text xml:space="preserve" text-anchor="start" x="8" y="-32.75" font-family="Monospace" font-size="10.00" fill="dimgray">Logtalk library</text>
<text xml:space="preserve" text-anchor="start" x="8" y="-20" font-family="Monospace" font-size="10.00" fill="dimgray">Cross&#45;referencing diagram for object iso_3166_1</text>
<text xml:space="preserve" text-anchor="start" x="8" y="-7.25" font-family="Monospace" font-size="10.00" fill="dimgray">Generated on 2026&#45;07&#45;07, 07:54</text>
<g id="clust1" class="cluster">
<title>cluster_iso_3166_1_object</title>
<g id="a_clust1"><a xlink:title="iso_3166_1">
<path fill="snow" stroke="dimgray" d="M107,-54.25C107,-54.25 191,-54.25 191,-54.25 197,-54.25 203,-60.25 203,-66.25 203,-66.25 203,-127 203,-127 203,-133 197,-139 191,-139 191,-139 107,-139 107,-139 101,-139 95,-133 95,-127 95,-127 95,-66.25 95,-66.25 95,-60.25 101,-54.25 107,-54.25"/>
<g id="a_clust1_0"><a xlink:href="https://github.com/LogtalkDotOrg/logtalk3/tree/5f4dfe9b2e5b1d90e1ae6a75fd94176465f239d6/library/iso_3166/iso_3166_1.lgt#L24" xlink:title="https://github.com/LogtalkDotOrg/logtalk3/tree/5f4dfe9b2e5b1d90e1ae6a75fd94176465f239d6/library/iso_3166/iso_3166_1.lgt#L24">
<text xml:space="preserve" text-anchor="start" x="107" y="-121.25" font-family="Monospace" font-size="10.00" fill="dimgray">iso_3166_1</text>
</a>
</g>
</a>
</g>
</g>
<!-- country/4 -->
<g id="node1" class="node">
<title>country/4</title>
<polygon fill="springgreen" stroke="black" points="192.62,-100.25 105.38,-100.25 105.38,-64.25 192.62,-64.25 192.62,-100.25"/>
<text xml:space="preserve" text-anchor="start" x="113.38" y="-84.5" font-family="Monospace" font-size="9.00"> </text>
<g id="a_node1_1"><a xlink:href="https://github.com/LogtalkDotOrg/logtalk3/tree/5f4dfe9b2e5b1d90e1ae6a75fd94176465f239d6/library/iso_3166/iso_3166_1.lgt#L37" xlink:title="https://github.com/LogtalkDotOrg/logtalk3/tree/5f4dfe9b2e5b1d90e1ae6a75fd94176465f239d6/library/iso_3166/iso_3166_1.lgt#L37">
<text xml:space="preserve" text-anchor="start" x="118.62" y="-84.12" font-family="Monospace" font-size="11.00">country/4</text>
</a>
</g>
<text xml:space="preserve" text-anchor="start" x="179.38" y="-84.5" font-family="Monospace" font-size="9.00"> </text>
<text xml:space="preserve" text-anchor="start" x="113.38" y="-72.12" font-family="Monospace" font-size="9.00"> </text>
<text xml:space="preserve" text-anchor="start" x="135.5" y="-73.25" font-family="Monospace" font-size="7.00">public</text>
<text xml:space="preserve" text-anchor="start" x="179.38" y="-72.12" font-family="Monospace" font-size="9.00"> </text>
</g>
</g>
</svg>
