<?xml version="1.0" encoding="UTF-8" standalone="no"?>
<?xml-stylesheet href="diagrams.css" type="text/css"?>
<!DOCTYPE svg PUBLIC "-//W3C//DTD SVG 1.1//EN"
 "http://www.w3.org/Graphics/SVG/1.1/DTD/svg11.dtd">
<!-- Generated by graphviz version 14.1.5 (20260411.2331)
 -->
<!-- Title: iso_3166_protocol_protocol Pages: 1 -->
<svg width="504pt" height="299pt"
 viewBox="72.00 72.00 432.00 227.00" xmlns="http://www.w3.org/2000/svg" xmlns:xlink="http://www.w3.org/1999/xlink">
<g id="graph0" class="graph" transform="scale(1 1) rotate(0) translate(76 223)">
<title>iso_3166_protocol_protocol</title>
<polygon fill="white" stroke="none" points="-4,4 -4,-151 356,-151 356,4 -4,4"/>
<text xml:space="preserve" text-anchor="start" x="8" y="-32.75" font-family="Monospace" font-size="10.00" fill="dimgray">Logtalk library</text>
<text xml:space="preserve" text-anchor="start" x="8" y="-20" font-family="Monospace" font-size="10.00" fill="dimgray">Cross&#45;referencing diagram for protocol iso_3166_protocol</text>
<text xml:space="preserve" text-anchor="start" x="8" y="-7.25" font-family="Monospace" font-size="10.00" fill="dimgray">Generated on 2026&#45;05&#45;08, 15:09</text>
<g id="clust1" class="cluster">
<title>cluster_iso_3166_protocol_protocol</title>
<g id="a_clust1"><a xlink:title="iso_3166_protocol">
<path fill="snow" stroke="dimgray" d="M68,-54.25C68,-54.25 284,-54.25 284,-54.25 290,-54.25 296,-60.25 296,-66.25 296,-66.25 296,-127 296,-127 296,-133 290,-139 284,-139 284,-139 68,-139 68,-139 62,-139 56,-133 56,-127 56,-127 56,-66.25 56,-66.25 56,-60.25 62,-54.25 68,-54.25"/>
<g id="a_clust1_0"><a xlink:href="https://github.com/LogtalkDotOrg/logtalk3/tree/3ce315a9fe4f2031a341d14bb488e8b805b8153b/library/iso_3166/iso_3166_protocol.lgt#L22" xlink:title="https://github.com/LogtalkDotOrg/logtalk3/tree/3ce315a9fe4f2031a341d14bb488e8b805b8153b/library/iso_3166/iso_3166_protocol.lgt#L22">
<text xml:space="preserve" text-anchor="start" x="68" y="-121.25" font-family="Monospace" font-size="10.00" fill="dimgray">iso_3166_protocol</text>
</a>
</g>
</a>
</g>
</g>
<!-- country/4 -->
<g id="node1" class="node">
<title>country/4</title>
<polygon fill="springgreen" stroke="black" points="153.62,-100.25 66.38,-100.25 66.38,-64.25 153.62,-64.25 153.62,-100.25"/>
<text xml:space="preserve" text-anchor="start" x="74.38" y="-84.5" font-family="Monospace" font-size="9.00"> </text>
<g id="a_node1_1"><a xlink:href="https://github.com/LogtalkDotOrg/logtalk3/tree/3ce315a9fe4f2031a341d14bb488e8b805b8153b/library/iso_3166/iso_3166_protocol.lgt#L31" xlink:title="https://github.com/LogtalkDotOrg/logtalk3/tree/3ce315a9fe4f2031a341d14bb488e8b805b8153b/library/iso_3166/iso_3166_protocol.lgt#L31">
<text xml:space="preserve" text-anchor="start" x="79.62" y="-84.12" font-family="Monospace" font-size="11.00">country/4</text>
</a>
</g>
<text xml:space="preserve" text-anchor="start" x="140.38" y="-84.5" font-family="Monospace" font-size="9.00"> </text>
<text xml:space="preserve" text-anchor="start" x="74.38" y="-72.12" font-family="Monospace" font-size="9.00"> </text>
<text xml:space="preserve" text-anchor="start" x="96.5" y="-73.25" font-family="Monospace" font-size="7.00">public</text>
<text xml:space="preserve" text-anchor="start" x="140.38" y="-72.12" font-family="Monospace" font-size="9.00"> </text>
</g>
<!-- subdivision/4 -->
<g id="node2" class="node">
<title>subdivision/4</title>
<polygon fill="springgreen" stroke="black" points="286.12,-100.25 171.88,-100.25 171.88,-64.25 286.12,-64.25 286.12,-100.25"/>
<text xml:space="preserve" text-anchor="start" x="179.88" y="-84.5" font-family="Monospace" font-size="9.00"> </text>
<g id="a_node2_2"><a xlink:href="https://github.com/LogtalkDotOrg/logtalk3/tree/3ce315a9fe4f2031a341d14bb488e8b805b8153b/library/iso_3166/iso_3166_protocol.lgt#L38" xlink:title="https://github.com/LogtalkDotOrg/logtalk3/tree/3ce315a9fe4f2031a341d14bb488e8b805b8153b/library/iso_3166/iso_3166_protocol.lgt#L38">
<text xml:space="preserve" text-anchor="start" x="185.12" y="-84.12" font-family="Monospace" font-size="11.00">subdivision/4</text>
</a>
</g>
<text xml:space="preserve" text-anchor="start" x="272.88" y="-84.5" font-family="Monospace" font-size="9.00"> </text>
<text xml:space="preserve" text-anchor="start" x="179.88" y="-72.12" font-family="Monospace" font-size="9.00"> </text>
<text xml:space="preserve" text-anchor="start" x="215.5" y="-73.25" font-family="Monospace" font-size="7.00">public</text>
<text xml:space="preserve" text-anchor="start" x="272.88" y="-72.12" font-family="Monospace" font-size="9.00"> </text>
</g>
</g>
</svg>
