<?xml version="1.0" encoding="UTF-8" standalone="no"?>
<?xml-stylesheet href="diagrams.css" type="text/css"?>
<!DOCTYPE svg PUBLIC "-//W3C//DTD SVG 1.1//EN"
 "http://www.w3.org/Graphics/SVG/1.1/DTD/svg11.dtd">
<!-- Generated by graphviz version 15.1.0 (20260618.0150)
 -->
<!-- Title: iso_13616_registry_object Pages: 1 -->
<svg width="498pt" height="299pt"
 viewBox="72.00 72.00 426.00 227.00" xmlns="http://www.w3.org/2000/svg" xmlns:xlink="http://www.w3.org/1999/xlink">
<g id="graph0" class="graph" transform="scale(1 1) rotate(0) translate(76 223)">
<title>iso_13616_registry_object</title>
<polygon fill="white" stroke="none" points="-4,4 -4,-151 350,-151 350,4 -4,4"/>
<text xml:space="preserve" text-anchor="start" x="8" y="-32.75" font-family="Monospace" font-size="10.00" fill="dimgray">Logtalk library</text>
<text xml:space="preserve" text-anchor="start" x="8" y="-20" font-family="Monospace" font-size="10.00" fill="dimgray">Cross&#45;referencing diagram for object iso_13616_registry</text>
<text xml:space="preserve" text-anchor="start" x="8" y="-7.25" font-family="Monospace" font-size="10.00" fill="dimgray">Generated on 2026&#45;07&#45;15, 00:11</text>
<g id="clust1" class="cluster">
<title>cluster_iso_13616_registry_object</title>
<g id="a_clust1"><a xlink:title="iso_13616_registry">
<path fill="snow" stroke="dimgray" d="M114,-54.25C114,-54.25 232,-54.25 232,-54.25 238,-54.25 244,-60.25 244,-66.25 244,-66.25 244,-127 244,-127 244,-133 238,-139 232,-139 232,-139 114,-139 114,-139 108,-139 102,-133 102,-127 102,-127 102,-66.25 102,-66.25 102,-60.25 108,-54.25 114,-54.25"/>
<g id="a_clust1_0"><a xlink:href="https://github.com/LogtalkDotOrg/logtalk3/tree/650a9aea75ada3e1f368aec62ddfff5fb2070388/library/iso_13616/iso_13616_registry.lgt#L22" xlink:title="https://github.com/LogtalkDotOrg/logtalk3/tree/650a9aea75ada3e1f368aec62ddfff5fb2070388/library/iso_13616/iso_13616_registry.lgt#L22">
<text xml:space="preserve" text-anchor="start" x="114" y="-121.25" font-family="Monospace" font-size="10.00" fill="dimgray">iso_13616_registry</text>
</a>
</g>
</a>
</g>
</g>
<!-- country_spec/3 -->
<g id="node1" class="node">
<title>country_spec/3</title>
<polygon fill="springgreen" stroke="black" points="233.5,-100.25 112.5,-100.25 112.5,-64.25 233.5,-64.25 233.5,-100.25"/>
<text xml:space="preserve" text-anchor="start" x="120.5" y="-84.5" font-family="Monospace" font-size="9.00"> </text>
<g id="a_node1_1"><a xlink:href="https://github.com/LogtalkDotOrg/logtalk3/tree/650a9aea75ada3e1f368aec62ddfff5fb2070388/library/iso_13616/iso_13616_registry.lgt#L31" xlink:title="https://github.com/LogtalkDotOrg/logtalk3/tree/650a9aea75ada3e1f368aec62ddfff5fb2070388/library/iso_13616/iso_13616_registry.lgt#L31">
<text xml:space="preserve" text-anchor="start" x="125.75" y="-84.12" font-family="Monospace" font-size="11.00">country_spec/3</text>
</a>
</g>
<text xml:space="preserve" text-anchor="start" x="220.25" y="-84.5" font-family="Monospace" font-size="9.00"> </text>
<text xml:space="preserve" text-anchor="start" x="120.5" y="-72.12" font-family="Monospace" font-size="9.00"> </text>
<text xml:space="preserve" text-anchor="start" x="159.5" y="-73.25" font-family="Monospace" font-size="7.00">public</text>
<text xml:space="preserve" text-anchor="start" x="220.25" y="-72.12" font-family="Monospace" font-size="9.00"> </text>
</g>
</g>
</svg>
