<?xml version="1.0" encoding="UTF-8" standalone="no"?>
<?xml-stylesheet href="diagrams.css" type="text/css"?>
<!DOCTYPE svg PUBLIC "-//W3C//DTD SVG 1.1//EN"
 "http://www.w3.org/Graphics/SVG/1.1/DTD/svg11.dtd">
<!-- Generated by graphviz version 15.1.0 (20260618.0150)
 -->
<!-- Title: iso_4217_object Pages: 1 -->
<svg width="438pt" height="299pt"
 viewBox="72.00 72.00 366.00 227.00" xmlns="http://www.w3.org/2000/svg" xmlns:xlink="http://www.w3.org/1999/xlink">
<g id="graph0" class="graph" transform="scale(1 1) rotate(0) translate(76 223)">
<title>iso_4217_object</title>
<polygon fill="white" stroke="none" points="-4,4 -4,-151 290,-151 290,4 -4,4"/>
<text xml:space="preserve" text-anchor="start" x="8" y="-32.75" font-family="Monospace" font-size="10.00" fill="dimgray">Logtalk library</text>
<text xml:space="preserve" text-anchor="start" x="8" y="-20" font-family="Monospace" font-size="10.00" fill="dimgray">Cross&#45;referencing diagram for object iso_4217</text>
<text xml:space="preserve" text-anchor="start" x="8" y="-7.25" font-family="Monospace" font-size="10.00" fill="dimgray">Generated on 2026&#45;07&#45;15, 08:52</text>
<g id="clust1" class="cluster">
<title>cluster_iso_4217_object</title>
<g id="a_clust1"><a xlink:title="iso_4217">
<path fill="snow" stroke="dimgray" d="M25,-54.25C25,-54.25 261,-54.25 261,-54.25 267,-54.25 273,-60.25 273,-66.25 273,-66.25 273,-127 273,-127 273,-133 267,-139 261,-139 261,-139 25,-139 25,-139 19,-139 13,-133 13,-127 13,-127 13,-66.25 13,-66.25 13,-60.25 19,-54.25 25,-54.25"/>
<g id="a_clust1_0"><a xlink:href="https://github.com/LogtalkDotOrg/logtalk3/tree/5fd2336ca8efd2f394070dd66136f6975649de8f/library/iso_4217/iso_4217.lgt#L24" xlink:title="https://github.com/LogtalkDotOrg/logtalk3/tree/5fd2336ca8efd2f394070dd66136f6975649de8f/library/iso_4217/iso_4217.lgt#L24">
<text xml:space="preserve" text-anchor="start" x="25" y="-121.25" font-family="Monospace" font-size="10.00" fill="dimgray">iso_4217</text>
</a>
</g>
</a>
</g>
</g>
<!-- currency/5 -->
<g id="node1" class="node">
<title>currency/5</title>
<polygon fill="springgreen" stroke="black" points="117,-100.25 23,-100.25 23,-64.25 117,-64.25 117,-100.25"/>
<text xml:space="preserve" text-anchor="start" x="31" y="-84.5" font-family="Monospace" font-size="9.00"> </text>
<g id="a_node1_1"><a xlink:href="https://github.com/LogtalkDotOrg/logtalk3/tree/5fd2336ca8efd2f394070dd66136f6975649de8f/library/iso_4217/iso_4217.lgt#L39" xlink:title="https://github.com/LogtalkDotOrg/logtalk3/tree/5fd2336ca8efd2f394070dd66136f6975649de8f/library/iso_4217/iso_4217.lgt#L39">
<text xml:space="preserve" text-anchor="start" x="36.25" y="-84.12" font-family="Monospace" font-size="11.00">currency/5</text>
</a>
</g>
<text xml:space="preserve" text-anchor="start" x="103.75" y="-84.5" font-family="Monospace" font-size="9.00"> </text>
<text xml:space="preserve" text-anchor="start" x="31" y="-72.12" font-family="Monospace" font-size="9.00"> </text>
<text xml:space="preserve" text-anchor="start" x="56.5" y="-73.25" font-family="Monospace" font-size="7.00">public</text>
<text xml:space="preserve" text-anchor="start" x="103.75" y="-72.12" font-family="Monospace" font-size="9.00"> </text>
</g>
<!-- fund_currency/5 -->
<g id="node2" class="node">
<title>fund_currency/5</title>
<polygon fill="springgreen" stroke="black" points="262.88,-100.25 135.12,-100.25 135.12,-64.25 262.88,-64.25 262.88,-100.25"/>
<text xml:space="preserve" text-anchor="start" x="143.12" y="-84.5" font-family="Monospace" font-size="9.00"> </text>
<g id="a_node2_2"><a xlink:href="https://github.com/LogtalkDotOrg/logtalk3/tree/5fd2336ca8efd2f394070dd66136f6975649de8f/library/iso_4217/iso_4217.lgt#L46" xlink:title="https://github.com/LogtalkDotOrg/logtalk3/tree/5fd2336ca8efd2f394070dd66136f6975649de8f/library/iso_4217/iso_4217.lgt#L46">
<text xml:space="preserve" text-anchor="start" x="148.38" y="-84.12" font-family="Monospace" font-size="11.00">fund_currency/5</text>
</a>
</g>
<text xml:space="preserve" text-anchor="start" x="249.62" y="-84.5" font-family="Monospace" font-size="9.00"> </text>
<text xml:space="preserve" text-anchor="start" x="143.12" y="-72.12" font-family="Monospace" font-size="9.00"> </text>
<text xml:space="preserve" text-anchor="start" x="185.5" y="-73.25" font-family="Monospace" font-size="7.00">public</text>
<text xml:space="preserve" text-anchor="start" x="249.62" y="-72.12" font-family="Monospace" font-size="9.00"> </text>
</g>
</g>
</svg>
