<?xml version="1.0" encoding="UTF-8" standalone="no"?>
<?xml-stylesheet href="diagrams.css" type="text/css"?>
<!DOCTYPE svg PUBLIC "-//W3C//DTD SVG 1.1//EN"
 "http://www.w3.org/Graphics/SVG/1.1/DTD/svg11.dtd">
<!-- Generated by graphviz version 14.1.2 (20260124.0452)
 -->
<!-- Title: java_hook_object Pages: 1 -->
<svg width="444pt" height="299pt"
 viewBox="72.00 72.00 372.00 227.00" xmlns="http://www.w3.org/2000/svg" xmlns:xlink="http://www.w3.org/1999/xlink">
<g id="graph0" class="graph" transform="scale(1 1) rotate(0) translate(76 223)">
<title>java_hook_object</title>
<polygon fill="white" stroke="none" points="-4,4 -4,-151 296,-151 296,4 -4,4"/>
<text xml:space="preserve" text-anchor="start" x="8" y="-32.75" font-family="Monospace" font-size="10.00" fill="dimgray">Logtalk library</text>
<text xml:space="preserve" text-anchor="start" x="8" y="-20" font-family="Monospace" font-size="10.00" fill="dimgray">Cross&#45;referencing diagram for object java_hook</text>
<text xml:space="preserve" text-anchor="start" x="8" y="-7.25" font-family="Monospace" font-size="10.00" fill="dimgray">Generated on 2026&#45;02&#45;20, 23:24</text>
<g id="clust1" class="cluster">
<title>cluster_java_hook_object</title>
<g id="a_clust1"><a xlink:title="java_hook">
<path fill="snow" stroke="dimgray" d="M81,-54.25C81,-54.25 211,-54.25 211,-54.25 217,-54.25 223,-60.25 223,-66.25 223,-66.25 223,-127 223,-127 223,-133 217,-139 211,-139 211,-139 81,-139 81,-139 75,-139 69,-133 69,-127 69,-127 69,-66.25 69,-66.25 69,-60.25 75,-54.25 81,-54.25"/>
<g id="a_clust1_0"><a xlink:href="https://github.com/LogtalkDotOrg/logtalk3/tree/acb9ccce236caaf34167b27fa9a01c02caec6ce5/library/java/java_jpl.lgt#L249" xlink:title="https://github.com/LogtalkDotOrg/logtalk3/tree/acb9ccce236caaf34167b27fa9a01c02caec6ce5/library/java/java_jpl.lgt#L249">
<text xml:space="preserve" text-anchor="start" x="81" y="-121.5" font-family="Monospace" font-size="10.00" fill="dimgray">java_hook</text>
</a>
</g>
</a>
</g>
</g>
<!-- goal_expansion/2 -->
<g id="node1" class="node">
<title>goal_expansion/2</title>
<polygon fill="cornsilk" stroke="black" points="213.25,-100.25 78.75,-100.25 78.75,-64.25 213.25,-64.25 213.25,-100.25"/>
<text xml:space="preserve" text-anchor="start" x="86.75" y="-84.95" font-family="Monospace" font-size="9.00"> </text>
<g id="a_node1_1"><a xlink:href="https://github.com/LogtalkDotOrg/logtalk3/tree/acb9ccce236caaf34167b27fa9a01c02caec6ce5/library/java/java_jpl.lgt#L265" xlink:title="https://github.com/LogtalkDotOrg/logtalk3/tree/acb9ccce236caaf34167b27fa9a01c02caec6ce5/library/java/java_jpl.lgt#L265">
<text xml:space="preserve" text-anchor="start" x="92" y="-84.17" font-family="Monospace" font-size="11.00">goal_expansion/2</text>
</a>
</g>
<text xml:space="preserve" text-anchor="start" x="200" y="-84.95" font-family="Monospace" font-size="9.00"> </text>
<text xml:space="preserve" text-anchor="start" x="86.75" y="-72.58" font-family="Monospace" font-size="9.00"> </text>
<text xml:space="preserve" text-anchor="start" x="134.75" y="-73.35" font-family="Monospace" font-size="7.00">local</text>
<text xml:space="preserve" text-anchor="start" x="200" y="-72.58" font-family="Monospace" font-size="9.00"> </text>
</g>
</g>
</svg>
