<?xml version="1.0" encoding="UTF-8" standalone="no"?>
<?xml-stylesheet href="diagrams.css" type="text/css"?>
<!DOCTYPE svg PUBLIC "-//W3C//DTD SVG 1.1//EN"
 "http://www.w3.org/Graphics/SVG/1.1/DTD/svg11.dtd">
<!-- Generated by graphviz version 14.1.1 (20251213.1925)
 -->
<!-- Title: list_1_object Pages: 1 -->
<svg width="426pt" height="418pt"
 viewBox="72.00 72.00 354.00 346.00" xmlns="http://www.w3.org/2000/svg" xmlns:xlink="http://www.w3.org/1999/xlink">
<g id="graph0" class="graph" transform="scale(1 1) rotate(0) translate(76 342.25)">
<title>list_1_object</title>
<polygon fill="white" stroke="none" points="-4,4 -4,-270.25 278,-270.25 278,4 -4,4"/>
<text xml:space="preserve" text-anchor="start" x="8" y="-32.75" font-family="Monospace" font-size="10.00" fill="dimgray">Logtalk library</text>
<text xml:space="preserve" text-anchor="start" x="8" y="-20" font-family="Monospace" font-size="10.00" fill="dimgray">Cross&#45;referencing diagram for object list/1</text>
<text xml:space="preserve" text-anchor="start" x="8" y="-7.25" font-family="Monospace" font-size="10.00" fill="dimgray">Generated on 2025&#45;12&#45;21, 11:18</text>
<g id="clust1" class="cluster">
<title>cluster_list_1_object</title>
<g id="a_clust1"><a xlink:title="list(Type)">
<path fill="snow" stroke="dimgray" d="M102,-54.25C102,-54.25 172,-54.25 172,-54.25 178,-54.25 184,-60.25 184,-66.25 184,-66.25 184,-246.25 184,-246.25 184,-252.25 178,-258.25 172,-258.25 172,-258.25 102,-258.25 102,-258.25 96,-258.25 90,-252.25 90,-246.25 90,-246.25 90,-66.25 90,-66.25 90,-60.25 96,-54.25 102,-54.25"/>
<g id="a_clust1_0"><a xlink:href="https://github.com/LogtalkDotOrg/logtalk3/tree/c5fdd3704f51947a646e2f98b2b878571072cf8f/library/types/list1.lgt#L22" xlink:title="https://github.com/LogtalkDotOrg/logtalk3/tree/c5fdd3704f51947a646e2f98b2b878571072cf8f/library/types/list1.lgt#L22">
<text xml:space="preserve" text-anchor="start" x="102" y="-240.75" font-family="Monospace" font-size="10.00" fill="dimgray">list(Type)</text>
</a>
</g>
</a>
</g>
</g>
<!-- valid/1 -->
<g id="node1" class="node">
<title>valid/1</title>
<polygon fill="cornsilk" stroke="black" points="173.88,-100.25 100.12,-100.25 100.12,-64.25 173.88,-64.25 173.88,-100.25"/>
<text xml:space="preserve" text-anchor="start" x="108.12" y="-84.95" font-family="Monospace" font-size="9.00"> </text>
<g id="a_node1_1"><a xlink:href="https://github.com/LogtalkDotOrg/logtalk3/tree/c5fdd3704f51947a646e2f98b2b878571072cf8f/library/types/list1.lgt#L34" xlink:title="https://github.com/LogtalkDotOrg/logtalk3/tree/c5fdd3704f51947a646e2f98b2b878571072cf8f/library/types/list1.lgt#L34">
<text xml:space="preserve" text-anchor="start" x="113.38" y="-84.17" font-family="Monospace" font-size="11.00">valid/1</text>
</a>
</g>
<text xml:space="preserve" text-anchor="start" x="160.62" y="-84.95" font-family="Monospace" font-size="9.00"> </text>
<text xml:space="preserve" text-anchor="start" x="108.12" y="-72.58" font-family="Monospace" font-size="9.00"> </text>
<text xml:space="preserve" text-anchor="start" x="125.75" y="-73.35" font-family="Monospace" font-size="7.00">local</text>
<text xml:space="preserve" text-anchor="start" x="160.62" y="-72.58" font-family="Monospace" font-size="9.00"> </text>
</g>
<!-- check/1 -->
<g id="node2" class="node">
<title>check/1</title>
<polygon fill="cornsilk" stroke="black" points="173.88,-219.5 100.12,-219.5 100.12,-183.5 173.88,-183.5 173.88,-219.5"/>
<text xml:space="preserve" text-anchor="start" x="108.12" y="-204.2" font-family="Monospace" font-size="9.00"> </text>
<g id="a_node2_2"><a xlink:href="https://github.com/LogtalkDotOrg/logtalk3/tree/c5fdd3704f51947a646e2f98b2b878571072cf8f/library/types/list1.lgt#L43" xlink:title="https://github.com/LogtalkDotOrg/logtalk3/tree/c5fdd3704f51947a646e2f98b2b878571072cf8f/library/types/list1.lgt#L43">
<text xml:space="preserve" text-anchor="start" x="113.38" y="-203.43" font-family="Monospace" font-size="11.00">check/1</text>
</a>
</g>
<text xml:space="preserve" text-anchor="start" x="160.62" y="-204.2" font-family="Monospace" font-size="9.00"> </text>
<text xml:space="preserve" text-anchor="start" x="108.12" y="-191.82" font-family="Monospace" font-size="9.00"> </text>
<text xml:space="preserve" text-anchor="start" x="125.75" y="-192.6" font-family="Monospace" font-size="7.00">local</text>
<text xml:space="preserve" text-anchor="start" x="160.62" y="-191.82" font-family="Monospace" font-size="9.00"> </text>
</g>
<!-- check/1&#45;&gt;valid/1 -->
<g id="edge1" class="edge">
<title>check/1&#45;&gt;valid/1</title>
<g id="a_edge1"><a xlink:href="https://github.com/LogtalkDotOrg/logtalk3/tree/c5fdd3704f51947a646e2f98b2b878571072cf8f/library/types/list1.lgt#L43" xlink:title="calls">
<path fill="none" stroke="black" d="M137,-183.2C137,-164.5 137,-134.37 137,-112.08"/>
<polygon fill="black" stroke="black" points="140.5,-112.14 137,-102.14 133.5,-112.14 140.5,-112.14"/>
</a>
</g>
<g id="a_edge1&#45;label"><a xlink:href="https://github.com/LogtalkDotOrg/logtalk3/tree/c5fdd3704f51947a646e2f98b2b878571072cf8f/library/types/list1.lgt#L43" xlink:title="https://github.com/LogtalkDotOrg/logtalk3/tree/c5fdd3704f51947a646e2f98b2b878571072cf8f/library/types/list1.lgt#L43">
<text xml:space="preserve" text-anchor="start" x="137" y="-138.95" font-family="Monospace" font-size="9.00">calls</text>
</a>
</g>
</g>
</g>
</svg>
