<?xml version="1.0" encoding="UTF-8" standalone="no"?>
<?xml-stylesheet href="diagrams.css" type="text/css"?>
<!DOCTYPE svg PUBLIC "-//W3C//DTD SVG 1.1//EN"
 "http://www.w3.org/Graphics/SVG/1.1/DTD/svg11.dtd">
<!-- Generated by graphviz version 14.1.2 (20260124.0452)
 -->
<!-- Title: mcp_prompt_protocol_protocol Pages: 1 -->
<svg width="516pt" height="299pt"
 viewBox="72.00 72.00 444.00 227.00" xmlns="http://www.w3.org/2000/svg" xmlns:xlink="http://www.w3.org/1999/xlink">
<g id="graph0" class="graph" transform="scale(1 1) rotate(0) translate(76 223)">
<title>mcp_prompt_protocol_protocol</title>
<polygon fill="white" stroke="none" points="-4,4 -4,-151 368,-151 368,4 -4,4"/>
<text xml:space="preserve" text-anchor="start" x="8" y="-32.75" font-family="Monospace" font-size="10.00" fill="dimgray">Logtalk library</text>
<text xml:space="preserve" text-anchor="start" x="8" y="-20" font-family="Monospace" font-size="10.00" fill="dimgray">Cross&#45;referencing diagram for protocol mcp_prompt_protocol</text>
<text xml:space="preserve" text-anchor="start" x="8" y="-7.25" font-family="Monospace" font-size="10.00" fill="dimgray">Generated on 2026&#45;02&#45;27, 22:36</text>
<g id="clust1" class="cluster">
<title>cluster_mcp_prompt_protocol_protocol</title>
<g id="a_clust1"><a xlink:title="mcp_prompt_protocol">
<path fill="snow" stroke="dimgray" d="M77.5,-54.25C77.5,-54.25 286.5,-54.25 286.5,-54.25 292.5,-54.25 298.5,-60.25 298.5,-66.25 298.5,-66.25 298.5,-127 298.5,-127 298.5,-133 292.5,-139 286.5,-139 286.5,-139 77.5,-139 77.5,-139 71.5,-139 65.5,-133 65.5,-127 65.5,-127 65.5,-66.25 65.5,-66.25 65.5,-60.25 71.5,-54.25 77.5,-54.25"/>
<g id="a_clust1_0"><a xlink:href="https://github.com/LogtalkDotOrg/logtalk3/tree/29ac9510a291fc7cccbc927a2d3b5b668568bf57/library/mcp_server/mcp_prompt_protocol.lgt#L22" xlink:title="https://github.com/LogtalkDotOrg/logtalk3/tree/29ac9510a291fc7cccbc927a2d3b5b668568bf57/library/mcp_server/mcp_prompt_protocol.lgt#L22">
<text xml:space="preserve" text-anchor="start" x="77.5" y="-121.5" font-family="Monospace" font-size="10.00" fill="dimgray">mcp_prompt_protocol</text>
</a>
</g>
</a>
</g>
</g>
<!-- prompts/1 -->
<g id="node1" class="node">
<title>prompts/1</title>
<polygon fill="springgreen" stroke="black" points="163.12,-100.25 75.88,-100.25 75.88,-64.25 163.12,-64.25 163.12,-100.25"/>
<text xml:space="preserve" text-anchor="start" x="83.88" y="-84.95" font-family="Monospace" font-size="9.00"> </text>
<g id="a_node1_1"><a xlink:href="https://github.com/LogtalkDotOrg/logtalk3/tree/29ac9510a291fc7cccbc927a2d3b5b668568bf57/library/mcp_server/mcp_prompt_protocol.lgt#L36" xlink:title="https://github.com/LogtalkDotOrg/logtalk3/tree/29ac9510a291fc7cccbc927a2d3b5b668568bf57/library/mcp_server/mcp_prompt_protocol.lgt#L36">
<text xml:space="preserve" text-anchor="start" x="89.12" y="-84.17" font-family="Monospace" font-size="11.00">prompts/1</text>
</a>
</g>
<text xml:space="preserve" text-anchor="start" x="149.88" y="-84.95" font-family="Monospace" font-size="9.00"> </text>
<text xml:space="preserve" text-anchor="start" x="83.88" y="-72.58" font-family="Monospace" font-size="9.00"> </text>
<text xml:space="preserve" text-anchor="start" x="106" y="-73.35" font-family="Monospace" font-size="7.00">public</text>
<text xml:space="preserve" text-anchor="start" x="149.88" y="-72.58" font-family="Monospace" font-size="9.00"> </text>
</g>
<!-- prompt_get/3 -->
<g id="node2" class="node">
<title>prompt_get/3</title>
<polygon fill="springgreen" stroke="black" points="288.25,-100.25 180.75,-100.25 180.75,-64.25 288.25,-64.25 288.25,-100.25"/>
<text xml:space="preserve" text-anchor="start" x="188.75" y="-84.95" font-family="Monospace" font-size="9.00"> </text>
<g id="a_node2_2"><a xlink:href="https://github.com/LogtalkDotOrg/logtalk3/tree/29ac9510a291fc7cccbc927a2d3b5b668568bf57/library/mcp_server/mcp_prompt_protocol.lgt#L43" xlink:title="https://github.com/LogtalkDotOrg/logtalk3/tree/29ac9510a291fc7cccbc927a2d3b5b668568bf57/library/mcp_server/mcp_prompt_protocol.lgt#L43">
<text xml:space="preserve" text-anchor="start" x="194" y="-84.17" font-family="Monospace" font-size="11.00">prompt_get/3</text>
</a>
</g>
<text xml:space="preserve" text-anchor="start" x="275" y="-84.95" font-family="Monospace" font-size="9.00"> </text>
<text xml:space="preserve" text-anchor="start" x="188.75" y="-72.58" font-family="Monospace" font-size="9.00"> </text>
<text xml:space="preserve" text-anchor="start" x="221" y="-73.35" font-family="Monospace" font-size="7.00">public</text>
<text xml:space="preserve" text-anchor="start" x="275" y="-72.58" font-family="Monospace" font-size="9.00"> </text>
</g>
</g>
</svg>
