<?xml version="1.0" encoding="UTF-8" standalone="no"?>
<?xml-stylesheet href="diagrams.css" type="text/css"?>
<!DOCTYPE svg PUBLIC "-//W3C//DTD SVG 1.1//EN"
 "http://www.w3.org/Graphics/SVG/1.1/DTD/svg11.dtd">
<!-- Generated by graphviz version 14.1.2 (20260124.0452)
 -->
<!-- Title: mcp_resource_protocol_protocol Pages: 1 -->
<svg width="528pt" height="299pt"
 viewBox="72.00 72.00 456.00 227.00" xmlns="http://www.w3.org/2000/svg" xmlns:xlink="http://www.w3.org/1999/xlink">
<g id="graph0" class="graph" transform="scale(1 1) rotate(0) translate(76 223)">
<title>mcp_resource_protocol_protocol</title>
<polygon fill="white" stroke="none" points="-4,4 -4,-151 380,-151 380,4 -4,4"/>
<text xml:space="preserve" text-anchor="start" x="8" y="-32.75" font-family="Monospace" font-size="10.00" fill="dimgray">Logtalk library</text>
<text xml:space="preserve" text-anchor="start" x="8" y="-20" font-family="Monospace" font-size="10.00" fill="dimgray">Cross&#45;referencing diagram for protocol mcp_resource_protocol</text>
<text xml:space="preserve" text-anchor="start" x="8" y="-7.25" font-family="Monospace" font-size="10.00" fill="dimgray">Generated on 2026&#45;02&#45;26, 12:44</text>
<g id="clust1" class="cluster">
<title>cluster_mcp_resource_protocol_protocol</title>
<g id="a_clust1"><a xlink:title="mcp_resource_protocol">
<path fill="snow" stroke="dimgray" d="M67,-54.25C67,-54.25 309,-54.25 309,-54.25 315,-54.25 321,-60.25 321,-66.25 321,-66.25 321,-127 321,-127 321,-133 315,-139 309,-139 309,-139 67,-139 67,-139 61,-139 55,-133 55,-127 55,-127 55,-66.25 55,-66.25 55,-60.25 61,-54.25 67,-54.25"/>
<g id="a_clust1_0"><a xlink:href="https://github.com/LogtalkDotOrg/logtalk3/tree/f94146ca70935280c6fdeb14a7266e3e03b4f66b/library/mcp_server/mcp_resource_protocol.lgt#L22" xlink:title="https://github.com/LogtalkDotOrg/logtalk3/tree/f94146ca70935280c6fdeb14a7266e3e03b4f66b/library/mcp_server/mcp_resource_protocol.lgt#L22">
<text xml:space="preserve" text-anchor="start" x="67" y="-121.5" font-family="Monospace" font-size="10.00" fill="dimgray">mcp_resource_protocol</text>
</a>
</g>
</a>
</g>
</g>
<!-- resources/1 -->
<g id="node1" class="node">
<title>resources/1</title>
<polygon fill="springgreen" stroke="black" points="165.38,-100.25 64.62,-100.25 64.62,-64.25 165.38,-64.25 165.38,-100.25"/>
<text xml:space="preserve" text-anchor="start" x="72.62" y="-84.95" font-family="Monospace" font-size="9.00"> </text>
<g id="a_node1_1"><a xlink:href="https://github.com/LogtalkDotOrg/logtalk3/tree/f94146ca70935280c6fdeb14a7266e3e03b4f66b/library/mcp_server/mcp_resource_protocol.lgt#L36" xlink:title="https://github.com/LogtalkDotOrg/logtalk3/tree/f94146ca70935280c6fdeb14a7266e3e03b4f66b/library/mcp_server/mcp_resource_protocol.lgt#L36">
<text xml:space="preserve" text-anchor="start" x="77.88" y="-84.17" font-family="Monospace" font-size="11.00">resources/1</text>
</a>
</g>
<text xml:space="preserve" text-anchor="start" x="152.12" y="-84.95" font-family="Monospace" font-size="9.00"> </text>
<text xml:space="preserve" text-anchor="start" x="72.62" y="-72.58" font-family="Monospace" font-size="9.00"> </text>
<text xml:space="preserve" text-anchor="start" x="101.5" y="-73.35" font-family="Monospace" font-size="7.00">public</text>
<text xml:space="preserve" text-anchor="start" x="152.12" y="-72.58" font-family="Monospace" font-size="9.00"> </text>
</g>
<!-- resource_read/3 -->
<g id="node2" class="node">
<title>resource_read/3</title>
<polygon fill="springgreen" stroke="black" points="310.88,-100.25 183.12,-100.25 183.12,-64.25 310.88,-64.25 310.88,-100.25"/>
<text xml:space="preserve" text-anchor="start" x="191.12" y="-84.95" font-family="Monospace" font-size="9.00"> </text>
<g id="a_node2_2"><a xlink:href="https://github.com/LogtalkDotOrg/logtalk3/tree/f94146ca70935280c6fdeb14a7266e3e03b4f66b/library/mcp_server/mcp_resource_protocol.lgt#L43" xlink:title="https://github.com/LogtalkDotOrg/logtalk3/tree/f94146ca70935280c6fdeb14a7266e3e03b4f66b/library/mcp_server/mcp_resource_protocol.lgt#L43">
<text xml:space="preserve" text-anchor="start" x="196.38" y="-84.17" font-family="Monospace" font-size="11.00">resource_read/3</text>
</a>
</g>
<text xml:space="preserve" text-anchor="start" x="297.62" y="-84.95" font-family="Monospace" font-size="9.00"> </text>
<text xml:space="preserve" text-anchor="start" x="191.12" y="-72.58" font-family="Monospace" font-size="9.00"> </text>
<text xml:space="preserve" text-anchor="start" x="233.5" y="-73.35" font-family="Monospace" font-size="7.00">public</text>
<text xml:space="preserve" text-anchor="start" x="297.62" y="-72.58" font-family="Monospace" font-size="9.00"> </text>
</g>
</g>
</svg>
