<?xml version="1.0" encoding="UTF-8" standalone="no"?>
<?xml-stylesheet href="diagrams.css" type="text/css"?>
<!DOCTYPE svg PUBLIC "-//W3C//DTD SVG 1.1//EN"
 "http://www.w3.org/Graphics/SVG/1.1/DTD/svg11.dtd">
<!-- Generated by graphviz version 14.1.2 (20260124.0452)
 -->
<!-- Title: metagol_example_protocol_protocol Pages: 1 -->
<svg width="546pt" height="299pt"
 viewBox="72.00 72.00 474.00 227.00" xmlns="http://www.w3.org/2000/svg" xmlns:xlink="http://www.w3.org/1999/xlink">
<g id="graph0" class="graph" transform="scale(1 1) rotate(0) translate(76 223)">
<title>metagol_example_protocol_protocol</title>
<polygon fill="white" stroke="none" points="-4,4 -4,-151 398,-151 398,4 -4,4"/>
<text xml:space="preserve" text-anchor="start" x="8" y="-32.75" font-family="Monospace" font-size="10.00" fill="dimgray">Logtalk ports of third&#45;party software</text>
<text xml:space="preserve" text-anchor="start" x="8" y="-20" font-family="Monospace" font-size="10.00" fill="dimgray">Cross&#45;referencing diagram for protocol metagol_example_protocol</text>
<text xml:space="preserve" text-anchor="start" x="8" y="-7.25" font-family="Monospace" font-size="10.00" fill="dimgray">Generated on 2026&#45;02&#45;24, 15:50</text>
<g id="clust1" class="cluster">
<title>cluster_metagol_example_protocol_protocol</title>
<g id="a_clust1"><a xlink:title="metagol_example_protocol">
<path fill="snow" stroke="dimgray" d="M116,-54.25C116,-54.25 278,-54.25 278,-54.25 284,-54.25 290,-60.25 290,-66.25 290,-66.25 290,-127 290,-127 290,-133 284,-139 278,-139 278,-139 116,-139 116,-139 110,-139 104,-133 104,-127 104,-127 104,-66.25 104,-66.25 104,-60.25 110,-54.25 116,-54.25"/>
<g id="a_clust1_0"><a xlink:href="https://github.com/LogtalkDotOrg/logtalk3/tree/b995ea413e580e259723378ab955c55487f79485/ports/metagol/metagol_example_protocol.lgt#L37" xlink:title="https://github.com/LogtalkDotOrg/logtalk3/tree/b995ea413e580e259723378ab955c55487f79485/ports/metagol/metagol_example_protocol.lgt#L37">
<text xml:space="preserve" text-anchor="start" x="116" y="-121.5" font-family="Monospace" font-size="10.00" fill="dimgray">metagol_example_protocol</text>
</a>
</g>
</a>
</g>
</g>
<!-- learn/1 -->
<g id="node1" class="node">
<title>learn/1</title>
<polygon fill="springgreen" stroke="black" points="187.88,-100.25 114.12,-100.25 114.12,-64.25 187.88,-64.25 187.88,-100.25"/>
<text xml:space="preserve" text-anchor="start" x="122.12" y="-84.95" font-family="Monospace" font-size="9.00"> </text>
<g id="a_node1_1"><a xlink:href="https://github.com/LogtalkDotOrg/logtalk3/tree/b995ea413e580e259723378ab955c55487f79485/ports/metagol/metagol_example_protocol.lgt#L47" xlink:title="https://github.com/LogtalkDotOrg/logtalk3/tree/b995ea413e580e259723378ab955c55487f79485/ports/metagol/metagol_example_protocol.lgt#L47">
<text xml:space="preserve" text-anchor="start" x="127.38" y="-84.17" font-family="Monospace" font-size="11.00">learn/1</text>
</a>
</g>
<text xml:space="preserve" text-anchor="start" x="174.62" y="-84.95" font-family="Monospace" font-size="9.00"> </text>
<text xml:space="preserve" text-anchor="start" x="122.12" y="-72.58" font-family="Monospace" font-size="9.00"> </text>
<text xml:space="preserve" text-anchor="start" x="137.5" y="-73.35" font-family="Monospace" font-size="7.00">public</text>
<text xml:space="preserve" text-anchor="start" x="174.62" y="-72.58" font-family="Monospace" font-size="9.00"> </text>
</g>
<!-- learn/0 -->
<g id="node2" class="node">
<title>learn/0</title>
<polygon fill="springgreen" stroke="black" points="279.88,-100.25 206.12,-100.25 206.12,-64.25 279.88,-64.25 279.88,-100.25"/>
<text xml:space="preserve" text-anchor="start" x="214.12" y="-84.95" font-family="Monospace" font-size="9.00"> </text>
<g id="a_node2_2"><a xlink:href="https://github.com/LogtalkDotOrg/logtalk3/tree/b995ea413e580e259723378ab955c55487f79485/ports/metagol/metagol_example_protocol.lgt#L54" xlink:title="https://github.com/LogtalkDotOrg/logtalk3/tree/b995ea413e580e259723378ab955c55487f79485/ports/metagol/metagol_example_protocol.lgt#L54">
<text xml:space="preserve" text-anchor="start" x="219.38" y="-84.17" font-family="Monospace" font-size="11.00">learn/0</text>
</a>
</g>
<text xml:space="preserve" text-anchor="start" x="266.62" y="-84.95" font-family="Monospace" font-size="9.00"> </text>
<text xml:space="preserve" text-anchor="start" x="214.12" y="-72.58" font-family="Monospace" font-size="9.00"> </text>
<text xml:space="preserve" text-anchor="start" x="229.5" y="-73.35" font-family="Monospace" font-size="7.00">public</text>
<text xml:space="preserve" text-anchor="start" x="266.62" y="-72.58" font-family="Monospace" font-size="9.00"> </text>
</g>
</g>
</svg>
