<?xml version="1.0" encoding="UTF-8" standalone="no"?>
<?xml-stylesheet href="diagrams.css" type="text/css"?>
<!DOCTYPE svg PUBLIC "-//W3C//DTD SVG 1.1//EN"
 "http://www.w3.org/Graphics/SVG/1.1/DTD/svg11.dtd">
<!-- Generated by graphviz version 14.1.3 (20260303.0454)
 -->
<!-- Title: mutator_protocol_protocol Pages: 1 -->
<svg width="498pt" height="299pt"
 viewBox="72.00 72.00 426.00 227.00" xmlns="http://www.w3.org/2000/svg" xmlns:xlink="http://www.w3.org/1999/xlink">
<g id="graph0" class="graph" transform="scale(1 1) rotate(0) translate(76 223)">
<title>mutator_protocol_protocol</title>
<polygon fill="white" stroke="none" points="-4,4 -4,-151 350,-151 350,4 -4,4"/>
<text xml:space="preserve" text-anchor="start" x="8" y="-32.75" font-family="Monospace" font-size="10.00" fill="dimgray">Logtalk development tools</text>
<text xml:space="preserve" text-anchor="start" x="8" y="-20" font-family="Monospace" font-size="10.00" fill="dimgray">Cross&#45;referencing diagram for protocol mutator_protocol</text>
<text xml:space="preserve" text-anchor="start" x="8" y="-7.25" font-family="Monospace" font-size="10.00" fill="dimgray">Generated on 2026&#45;03&#45;07, 00:35</text>
<g id="clust1" class="cluster">
<title>cluster_mutator_protocol_protocol</title>
<g id="a_clust1"><a xlink:title="mutator_protocol">
<path fill="snow" stroke="dimgray" d="M82,-54.25C82,-54.25 264,-54.25 264,-54.25 270,-54.25 276,-60.25 276,-66.25 276,-66.25 276,-127 276,-127 276,-133 270,-139 264,-139 264,-139 82,-139 82,-139 76,-139 70,-133 70,-127 70,-127 70,-66.25 70,-66.25 70,-60.25 76,-54.25 82,-54.25"/>
<g id="a_clust1_0"><a xlink:href="https://github.com/LogtalkDotOrg/logtalk3/tree/1695b4f1a19fb79010f5bb3201f5519a79f9d662/tools/mutation_testing/mutator_protocol.lgt#L10" xlink:title="https://github.com/LogtalkDotOrg/logtalk3/tree/1695b4f1a19fb79010f5bb3201f5519a79f9d662/tools/mutation_testing/mutator_protocol.lgt#L10">
<text xml:space="preserve" text-anchor="start" x="82" y="-121.25" font-family="Monospace" font-size="10.00" fill="dimgray">mutator_protocol</text>
</a>
</g>
</a>
</g>
</g>
<!-- reset/0 -->
<g id="node1" class="node">
<title>reset/0</title>
<polygon fill="springgreen" stroke="black" points="153.88,-100.25 80.12,-100.25 80.12,-64.25 153.88,-64.25 153.88,-100.25"/>
<text xml:space="preserve" text-anchor="start" x="88.12" y="-84.5" font-family="Monospace" font-size="9.00"> </text>
<g id="a_node1_1"><a xlink:href="https://github.com/LogtalkDotOrg/logtalk3/tree/1695b4f1a19fb79010f5bb3201f5519a79f9d662/tools/mutation_testing/mutator_protocol.lgt#L19" xlink:title="https://github.com/LogtalkDotOrg/logtalk3/tree/1695b4f1a19fb79010f5bb3201f5519a79f9d662/tools/mutation_testing/mutator_protocol.lgt#L19">
<text xml:space="preserve" text-anchor="start" x="93.38" y="-84.12" font-family="Monospace" font-size="11.00">reset/0</text>
</a>
</g>
<text xml:space="preserve" text-anchor="start" x="140.62" y="-84.5" font-family="Monospace" font-size="9.00"> </text>
<text xml:space="preserve" text-anchor="start" x="88.12" y="-72.12" font-family="Monospace" font-size="9.00"> </text>
<text xml:space="preserve" text-anchor="start" x="103.5" y="-73.25" font-family="Monospace" font-size="7.00">public</text>
<text xml:space="preserve" text-anchor="start" x="140.62" y="-72.12" font-family="Monospace" font-size="9.00"> </text>
</g>
<!-- mutation/2 -->
<g id="node2" class="node">
<title>mutation/2</title>
<polygon fill="springgreen" stroke="black" points="266,-100.25 172,-100.25 172,-64.25 266,-64.25 266,-100.25"/>
<text xml:space="preserve" text-anchor="start" x="180" y="-84.5" font-family="Monospace" font-size="9.00"> </text>
<g id="a_node2_2"><a xlink:href="https://github.com/LogtalkDotOrg/logtalk3/tree/1695b4f1a19fb79010f5bb3201f5519a79f9d662/tools/mutation_testing/mutator_protocol.lgt#L25" xlink:title="https://github.com/LogtalkDotOrg/logtalk3/tree/1695b4f1a19fb79010f5bb3201f5519a79f9d662/tools/mutation_testing/mutator_protocol.lgt#L25">
<text xml:space="preserve" text-anchor="start" x="185.25" y="-84.12" font-family="Monospace" font-size="11.00">mutation/2</text>
</a>
</g>
<text xml:space="preserve" text-anchor="start" x="252.75" y="-84.5" font-family="Monospace" font-size="9.00"> </text>
<text xml:space="preserve" text-anchor="start" x="180" y="-72.12" font-family="Monospace" font-size="9.00"> </text>
<text xml:space="preserve" text-anchor="start" x="205.5" y="-73.25" font-family="Monospace" font-size="7.00">public</text>
<text xml:space="preserve" text-anchor="start" x="252.75" y="-72.12" font-family="Monospace" font-size="9.00"> </text>
</g>
</g>
</svg>
