<?xml version="1.0" encoding="UTF-8" standalone="no"?>
<?xml-stylesheet href="diagrams.css" type="text/css"?>
<!DOCTYPE svg PUBLIC "-//W3C//DTD SVG 1.1//EN"
 "http://www.w3.org/Graphics/SVG/1.1/DTD/svg11.dtd">
<!-- Generated by graphviz version 14.1.2 (20260124.0452)
 -->
<!-- Title: observer_category Pages: 1 -->
<svg width="450pt" height="299pt"
 viewBox="72.00 72.00 378.00 227.00" xmlns="http://www.w3.org/2000/svg" xmlns:xlink="http://www.w3.org/1999/xlink">
<g id="graph0" class="graph" transform="scale(1 1) rotate(0) translate(76 223)">
<title>observer_category</title>
<polygon fill="white" stroke="none" points="-4,4 -4,-151 302,-151 302,4 -4,4"/>
<text xml:space="preserve" text-anchor="start" x="8" y="-32.75" font-family="Monospace" font-size="10.00" fill="dimgray">Logtalk library</text>
<text xml:space="preserve" text-anchor="start" x="8" y="-20" font-family="Monospace" font-size="10.00" fill="dimgray">Cross&#45;referencing diagram for category observer</text>
<text xml:space="preserve" text-anchor="start" x="8" y="-7.25" font-family="Monospace" font-size="10.00" fill="dimgray">Generated on 2026&#45;02&#45;19, 03:15</text>
<g id="clust1" class="cluster">
<title>cluster_observer_category</title>
<g id="a_clust1"><a xlink:title="observer">
<path fill="snow" stroke="dimgray" d="M111,-54.25C111,-54.25 187,-54.25 187,-54.25 193,-54.25 199,-60.25 199,-66.25 199,-66.25 199,-127 199,-127 199,-133 193,-139 187,-139 187,-139 111,-139 111,-139 105,-139 99,-133 99,-127 99,-127 99,-66.25 99,-66.25 99,-60.25 105,-54.25 111,-54.25"/>
<g id="a_clust1_0"><a xlink:href="https://github.com/LogtalkDotOrg/logtalk3/tree/6dc587eec58c3e4f072df88a3ff1a98358b69cfe/library/dependents/observer.lgt#L22" xlink:title="https://github.com/LogtalkDotOrg/logtalk3/tree/6dc587eec58c3e4f072df88a3ff1a98358b69cfe/library/dependents/observer.lgt#L22">
<text xml:space="preserve" text-anchor="start" x="111" y="-121.5" font-family="Monospace" font-size="10.00" fill="dimgray">observer</text>
</a>
</g>
</a>
</g>
</g>
<!-- update/1 -->
<g id="node1" class="node">
<title>update/1</title>
<polygon fill="springgreen" stroke="black" points="189.25,-100.25 108.75,-100.25 108.75,-64.25 189.25,-64.25 189.25,-100.25"/>
<text xml:space="preserve" text-anchor="start" x="116.75" y="-84.95" font-family="Monospace" font-size="9.00"> </text>
<g id="a_node1_1"><a xlink:href="https://github.com/LogtalkDotOrg/logtalk3/tree/6dc587eec58c3e4f072df88a3ff1a98358b69cfe/library/dependents/observer.lgt#L32" xlink:title="https://github.com/LogtalkDotOrg/logtalk3/tree/6dc587eec58c3e4f072df88a3ff1a98358b69cfe/library/dependents/observer.lgt#L32">
<text xml:space="preserve" text-anchor="start" x="122" y="-84.17" font-family="Monospace" font-size="11.00">update/1</text>
</a>
</g>
<text xml:space="preserve" text-anchor="start" x="176" y="-84.95" font-family="Monospace" font-size="9.00"> </text>
<text xml:space="preserve" text-anchor="start" x="116.75" y="-72.58" font-family="Monospace" font-size="9.00"> </text>
<text xml:space="preserve" text-anchor="start" x="135.5" y="-73.35" font-family="Monospace" font-size="7.00">public</text>
<text xml:space="preserve" text-anchor="start" x="176" y="-72.58" font-family="Monospace" font-size="9.00"> </text>
</g>
</g>
</svg>
