<?xml version="1.0" encoding="UTF-8" standalone="no"?>
<?xml-stylesheet href="diagrams.css" type="text/css"?>
<!DOCTYPE svg PUBLIC "-//W3C//DTD SVG 1.1//EN"
 "http://www.w3.org/Graphics/SVG/1.1/DTD/svg11.dtd">
<!-- Generated by graphviz version 15.1.0 (20260618.0150)
 -->
<!-- Title: open_ai_backend_protocol_protocol Pages: 1 -->
<svg width="546pt" height="299pt"
 viewBox="72.00 72.00 474.00 227.00" xmlns="http://www.w3.org/2000/svg" xmlns:xlink="http://www.w3.org/1999/xlink">
<g id="graph0" class="graph" transform="scale(1 1) rotate(0) translate(76 223)">
<title>open_ai_backend_protocol_protocol</title>
<polygon fill="white" stroke="none" points="-4,4 -4,-151 398,-151 398,4 -4,4"/>
<text xml:space="preserve" text-anchor="start" x="8" y="-32.75" font-family="Monospace" font-size="10.00" fill="dimgray">Logtalk library</text>
<text xml:space="preserve" text-anchor="start" x="8" y="-20" font-family="Monospace" font-size="10.00" fill="dimgray">Cross&#45;referencing diagram for protocol open_ai_backend_protocol</text>
<text xml:space="preserve" text-anchor="start" x="8" y="-7.25" font-family="Monospace" font-size="10.00" fill="dimgray">Generated on 2026&#45;07&#45;08, 22:29</text>
<g id="clust1" class="cluster">
<title>cluster_open_ai_backend_protocol_protocol</title>
<g id="a_clust1"><a xlink:title="open_ai_backend_protocol">
<path fill="snow" stroke="dimgray" d="M125,-54.25C125,-54.25 269,-54.25 269,-54.25 275,-54.25 281,-60.25 281,-66.25 281,-66.25 281,-127 281,-127 281,-133 275,-139 269,-139 269,-139 125,-139 125,-139 119,-139 113,-133 113,-127 113,-127 113,-66.25 113,-66.25 113,-60.25 119,-54.25 125,-54.25"/>
<g id="a_clust1_0"><a xlink:href="https://github.com/LogtalkDotOrg/logtalk3/tree/b49a68a64d69ad1c69b6434fea2d16a84e04144b/library/open_ai/open_ai_protocols.lgt#L22" xlink:title="https://github.com/LogtalkDotOrg/logtalk3/tree/b49a68a64d69ad1c69b6434fea2d16a84e04144b/library/open_ai/open_ai_protocols.lgt#L22">
<text xml:space="preserve" text-anchor="start" x="125" y="-121.25" font-family="Monospace" font-size="10.00" fill="dimgray">open_ai_backend_protocol</text>
</a>
</g>
</a>
</g>
</g>
<!-- handle_open_ai/3 -->
<g id="node1" class="node">
<title>handle_open_ai/3</title>
<polygon fill="springgreen" stroke="black" points="264.25,-100.25 129.75,-100.25 129.75,-64.25 264.25,-64.25 264.25,-100.25"/>
<text xml:space="preserve" text-anchor="start" x="137.75" y="-84.5" font-family="Monospace" font-size="9.00"> </text>
<g id="a_node1_1"><a xlink:href="https://github.com/LogtalkDotOrg/logtalk3/tree/b49a68a64d69ad1c69b6434fea2d16a84e04144b/library/open_ai/open_ai_protocols.lgt#L31" xlink:title="https://github.com/LogtalkDotOrg/logtalk3/tree/b49a68a64d69ad1c69b6434fea2d16a84e04144b/library/open_ai/open_ai_protocols.lgt#L31">
<text xml:space="preserve" text-anchor="start" x="143" y="-84.12" font-family="Monospace" font-size="11.00">handle_open_ai/3</text>
</a>
</g>
<text xml:space="preserve" text-anchor="start" x="251" y="-84.5" font-family="Monospace" font-size="9.00"> </text>
<text xml:space="preserve" text-anchor="start" x="137.75" y="-72.12" font-family="Monospace" font-size="9.00"> </text>
<text xml:space="preserve" text-anchor="start" x="183.5" y="-73.25" font-family="Monospace" font-size="7.00">public</text>
<text xml:space="preserve" text-anchor="start" x="251" y="-72.12" font-family="Monospace" font-size="9.00"> </text>
</g>
</g>
</svg>
