<?xml version="1.0" encoding="UTF-8" standalone="no"?>
<?xml-stylesheet href="diagrams.css" type="text/css"?>
<!DOCTYPE svg PUBLIC "-//W3C//DTD SVG 1.1//EN"
 "http://www.w3.org/Graphics/SVG/1.1/DTD/svg11.dtd">
<!-- Generated by graphviz version 14.1.2 (20260124.0452)
 -->
<!-- Title: print_goal_hook_object Pages: 1 -->
<svg width="480pt" height="299pt"
 viewBox="72.00 72.00 408.00 227.00" xmlns="http://www.w3.org/2000/svg" xmlns:xlink="http://www.w3.org/1999/xlink">
<g id="graph0" class="graph" transform="scale(1 1) rotate(0) translate(76 223)">
<title>print_goal_hook_object</title>
<polygon fill="white" stroke="none" points="-4,4 -4,-151 332,-151 332,4 -4,4"/>
<text xml:space="preserve" text-anchor="start" x="8" y="-32.75" font-family="Monospace" font-size="10.00" fill="dimgray">Logtalk library</text>
<text xml:space="preserve" text-anchor="start" x="8" y="-20" font-family="Monospace" font-size="10.00" fill="dimgray">Cross&#45;referencing diagram for object print_goal_hook</text>
<text xml:space="preserve" text-anchor="start" x="8" y="-7.25" font-family="Monospace" font-size="10.00" fill="dimgray">Generated on 2026&#45;02&#45;25, 02:26</text>
<g id="clust1" class="cluster">
<title>cluster_print_goal_hook_object</title>
<g id="a_clust1"><a xlink:title="print_goal_hook">
<path fill="snow" stroke="dimgray" d="M99,-54.25C99,-54.25 229,-54.25 229,-54.25 235,-54.25 241,-60.25 241,-66.25 241,-66.25 241,-127 241,-127 241,-133 235,-139 229,-139 229,-139 99,-139 99,-139 93,-139 87,-133 87,-127 87,-127 87,-66.25 87,-66.25 87,-60.25 93,-54.25 99,-54.25"/>
<g id="a_clust1_0"><a xlink:href="https://github.com/LogtalkDotOrg/logtalk3/tree/b6d43a605ded57007cc48f091672fb8168e1aba6/library/hook_objects/print_goal_hook.lgt#L25" xlink:title="https://github.com/LogtalkDotOrg/logtalk3/tree/b6d43a605ded57007cc48f091672fb8168e1aba6/library/hook_objects/print_goal_hook.lgt#L25">
<text xml:space="preserve" text-anchor="start" x="99" y="-121.5" font-family="Monospace" font-size="10.00" fill="dimgray">print_goal_hook</text>
</a>
</g>
</a>
</g>
</g>
<!-- goal_expansion/2 -->
<g id="node1" class="node">
<title>goal_expansion/2</title>
<polygon fill="cornsilk" stroke="black" points="231.25,-100.25 96.75,-100.25 96.75,-64.25 231.25,-64.25 231.25,-100.25"/>
<text xml:space="preserve" text-anchor="start" x="104.75" y="-84.95" font-family="Monospace" font-size="9.00"> </text>
<g id="a_node1_1"><a xlink:href="https://github.com/LogtalkDotOrg/logtalk3/tree/b6d43a605ded57007cc48f091672fb8168e1aba6/library/hook_objects/print_goal_hook.lgt#L49" xlink:title="https://github.com/LogtalkDotOrg/logtalk3/tree/b6d43a605ded57007cc48f091672fb8168e1aba6/library/hook_objects/print_goal_hook.lgt#L49">
<text xml:space="preserve" text-anchor="start" x="110" y="-84.17" font-family="Monospace" font-size="11.00">goal_expansion/2</text>
</a>
</g>
<text xml:space="preserve" text-anchor="start" x="218" y="-84.95" font-family="Monospace" font-size="9.00"> </text>
<text xml:space="preserve" text-anchor="start" x="104.75" y="-72.58" font-family="Monospace" font-size="9.00"> </text>
<text xml:space="preserve" text-anchor="start" x="152.75" y="-73.35" font-family="Monospace" font-size="7.00">local</text>
<text xml:space="preserve" text-anchor="start" x="218" y="-72.58" font-family="Monospace" font-size="9.00"> </text>
</g>
</g>
</svg>
