<?xml version="1.0" encoding="UTF-8" standalone="no"?>
<?xml-stylesheet href="diagrams.css" type="text/css"?>
<!DOCTYPE svg PUBLIC "-//W3C//DTD SVG 1.1//EN"
 "http://www.w3.org/Graphics/SVG/1.1/DTD/svg11.dtd">
<!-- Generated by graphviz version 14.1.5 (20260411.2331)
 -->
<!-- Title: probabilistic_classifier_protocol_protocol Pages: 1 -->
<svg width="600pt" height="299pt"
 viewBox="72.00 72.00 528.00 227.00" xmlns="http://www.w3.org/2000/svg" xmlns:xlink="http://www.w3.org/1999/xlink">
<g id="graph0" class="graph" transform="scale(1 1) rotate(0) translate(76 223)">
<title>probabilistic_classifier_protocol_protocol</title>
<polygon fill="white" stroke="none" points="-4,4 -4,-151 452,-151 452,4 -4,4"/>
<text xml:space="preserve" text-anchor="start" x="8" y="-32.75" font-family="Monospace" font-size="10.00" fill="dimgray">Logtalk library</text>
<text xml:space="preserve" text-anchor="start" x="8" y="-20" font-family="Monospace" font-size="10.00" fill="dimgray">Cross&#45;referencing diagram for protocol probabilistic_classifier_protocol</text>
<text xml:space="preserve" text-anchor="start" x="8" y="-7.25" font-family="Monospace" font-size="10.00" fill="dimgray">Generated on 2026&#45;05&#45;08, 15:09</text>
<g id="clust1" class="cluster">
<title>cluster_probabilistic_classifier_protocol_protocol</title>
<g id="a_clust1"><a xlink:title="probabilistic_classifier_protocol">
<path fill="snow" stroke="dimgray" d="M125,-54.25C125,-54.25 323,-54.25 323,-54.25 329,-54.25 335,-60.25 335,-66.25 335,-66.25 335,-127 335,-127 335,-133 329,-139 323,-139 323,-139 125,-139 125,-139 119,-139 113,-133 113,-127 113,-127 113,-66.25 113,-66.25 113,-60.25 119,-54.25 125,-54.25"/>
<g id="a_clust1_0"><a xlink:href="https://github.com/LogtalkDotOrg/logtalk3/tree/3ce315a9fe4f2031a341d14bb488e8b805b8153b/library/classification_protocols/probabilistic_classifier_protocol.lgt#L22" xlink:title="https://github.com/LogtalkDotOrg/logtalk3/tree/3ce315a9fe4f2031a341d14bb488e8b805b8153b/library/classification_protocols/probabilistic_classifier_protocol.lgt#L22">
<text xml:space="preserve" text-anchor="start" x="125" y="-121.25" font-family="Monospace" font-size="10.00" fill="dimgray">probabilistic_classifier_protocol</text>
</a>
</g>
</a>
</g>
</g>
<!-- predict_probabilities/3 -->
<g id="node1" class="node">
<title>predict_probabilities/3</title>
<polygon fill="springgreen" stroke="black" points="314.88,-100.25 133.12,-100.25 133.12,-64.25 314.88,-64.25 314.88,-100.25"/>
<text xml:space="preserve" text-anchor="start" x="141.12" y="-84.5" font-family="Monospace" font-size="9.00"> </text>
<g id="a_node1_1"><a xlink:href="https://github.com/LogtalkDotOrg/logtalk3/tree/3ce315a9fe4f2031a341d14bb488e8b805b8153b/library/classification_protocols/probabilistic_classifier_protocol.lgt#L33" xlink:title="https://github.com/LogtalkDotOrg/logtalk3/tree/3ce315a9fe4f2031a341d14bb488e8b805b8153b/library/classification_protocols/probabilistic_classifier_protocol.lgt#L33">
<text xml:space="preserve" text-anchor="start" x="146.38" y="-84.12" font-family="Monospace" font-size="11.00">predict_probabilities/3</text>
</a>
</g>
<text xml:space="preserve" text-anchor="start" x="301.62" y="-84.5" font-family="Monospace" font-size="9.00"> </text>
<text xml:space="preserve" text-anchor="start" x="141.12" y="-72.12" font-family="Monospace" font-size="9.00"> </text>
<text xml:space="preserve" text-anchor="start" x="210.5" y="-73.25" font-family="Monospace" font-size="7.00">public</text>
<text xml:space="preserve" text-anchor="start" x="301.62" y="-72.12" font-family="Monospace" font-size="9.00"> </text>
</g>
</g>
</svg>
