<?xml version="1.0" encoding="UTF-8" standalone="no"?>
<?xml-stylesheet href="diagrams.css" type="text/css"?>
<!DOCTYPE svg PUBLIC "-//W3C//DTD SVG 1.1//EN"
 "http://www.w3.org/Graphics/SVG/1.1/DTD/svg11.dtd">
<!-- Generated by graphviz version 14.1.2 (20260124.0452)
 -->
<!-- Title: prolog_module_hook_1_object Pages: 1 -->
<svg width="510pt" height="299pt"
 viewBox="72.00 72.00 438.00 227.00" xmlns="http://www.w3.org/2000/svg" xmlns:xlink="http://www.w3.org/1999/xlink">
<g id="graph0" class="graph" transform="scale(1 1) rotate(0) translate(76 223)">
<title>prolog_module_hook_1_object</title>
<polygon fill="white" stroke="none" points="-4,4 -4,-151 362,-151 362,4 -4,4"/>
<text xml:space="preserve" text-anchor="start" x="8" y="-32.75" font-family="Monospace" font-size="10.00" fill="dimgray">Logtalk library</text>
<text xml:space="preserve" text-anchor="start" x="8" y="-20" font-family="Monospace" font-size="10.00" fill="dimgray">Cross&#45;referencing diagram for object prolog_module_hook/1</text>
<text xml:space="preserve" text-anchor="start" x="8" y="-7.25" font-family="Monospace" font-size="10.00" fill="dimgray">Generated on 2026&#45;01&#45;28, 12:53</text>
<g id="clust1" class="cluster">
<title>cluster_prolog_module_hook_1_object</title>
<g id="a_clust1"><a xlink:title="prolog_module_hook(Module)">
<path fill="snow" stroke="dimgray" d="M37.5,-54.25C37.5,-54.25 320.5,-54.25 320.5,-54.25 326.5,-54.25 332.5,-60.25 332.5,-66.25 332.5,-66.25 332.5,-127 332.5,-127 332.5,-133 326.5,-139 320.5,-139 320.5,-139 37.5,-139 37.5,-139 31.5,-139 25.5,-133 25.5,-127 25.5,-127 25.5,-66.25 25.5,-66.25 25.5,-60.25 31.5,-54.25 37.5,-54.25"/>
<g id="a_clust1_0"><a xlink:href="https://github.com/LogtalkDotOrg/logtalk3/tree/94e9a0c0faeadee718960fdb57412a8d25ad9884/library/hook_objects/prolog_module_hook.lgt#L22" xlink:title="https://github.com/LogtalkDotOrg/logtalk3/tree/94e9a0c0faeadee718960fdb57412a8d25ad9884/library/hook_objects/prolog_module_hook.lgt#L22">
<text xml:space="preserve" text-anchor="start" x="37.5" y="-121.5" font-family="Monospace" font-size="10.00" fill="dimgray">prolog_module_hook(Module)</text>
</a>
</g>
</a>
</g>
</g>
<!-- term_expansion/2 -->
<g id="node1" class="node">
<title>term_expansion/2</title>
<polygon fill="cornsilk" stroke="black" points="169.75,-100.25 35.25,-100.25 35.25,-64.25 169.75,-64.25 169.75,-100.25"/>
<text xml:space="preserve" text-anchor="start" x="43.25" y="-84.95" font-family="Monospace" font-size="9.00"> </text>
<g id="a_node1_1"><a xlink:href="https://github.com/LogtalkDotOrg/logtalk3/tree/94e9a0c0faeadee718960fdb57412a8d25ad9884/library/hook_objects/prolog_module_hook.lgt#L39" xlink:title="https://github.com/LogtalkDotOrg/logtalk3/tree/94e9a0c0faeadee718960fdb57412a8d25ad9884/library/hook_objects/prolog_module_hook.lgt#L39">
<text xml:space="preserve" text-anchor="start" x="48.5" y="-84.17" font-family="Monospace" font-size="11.00">term_expansion/2</text>
</a>
</g>
<text xml:space="preserve" text-anchor="start" x="156.5" y="-84.95" font-family="Monospace" font-size="9.00"> </text>
<text xml:space="preserve" text-anchor="start" x="43.25" y="-72.58" font-family="Monospace" font-size="9.00"> </text>
<text xml:space="preserve" text-anchor="start" x="91.25" y="-73.35" font-family="Monospace" font-size="7.00">local</text>
<text xml:space="preserve" text-anchor="start" x="156.5" y="-72.58" font-family="Monospace" font-size="9.00"> </text>
</g>
<!-- goal_expansion/2 -->
<g id="node2" class="node">
<title>goal_expansion/2</title>
<polygon fill="cornsilk" stroke="black" points="322.75,-100.25 188.25,-100.25 188.25,-64.25 322.75,-64.25 322.75,-100.25"/>
<text xml:space="preserve" text-anchor="start" x="196.25" y="-84.95" font-family="Monospace" font-size="9.00"> </text>
<g id="a_node2_2"><a xlink:href="https://github.com/LogtalkDotOrg/logtalk3/tree/94e9a0c0faeadee718960fdb57412a8d25ad9884/library/hook_objects/prolog_module_hook.lgt#L45" xlink:title="https://github.com/LogtalkDotOrg/logtalk3/tree/94e9a0c0faeadee718960fdb57412a8d25ad9884/library/hook_objects/prolog_module_hook.lgt#L45">
<text xml:space="preserve" text-anchor="start" x="201.5" y="-84.17" font-family="Monospace" font-size="11.00">goal_expansion/2</text>
</a>
</g>
<text xml:space="preserve" text-anchor="start" x="309.5" y="-84.95" font-family="Monospace" font-size="9.00"> </text>
<text xml:space="preserve" text-anchor="start" x="196.25" y="-72.58" font-family="Monospace" font-size="9.00"> </text>
<text xml:space="preserve" text-anchor="start" x="244.25" y="-73.35" font-family="Monospace" font-size="7.00">local</text>
<text xml:space="preserve" text-anchor="start" x="309.5" y="-72.58" font-family="Monospace" font-size="9.00"> </text>
</g>
</g>
</svg>
