<?xml version="1.0" encoding="UTF-8" standalone="no"?>
<?xml-stylesheet href="diagrams.css" type="text/css"?>
<!DOCTYPE svg PUBLIC "-//W3C//DTD SVG 1.1//EN"
 "http://www.w3.org/Graphics/SVG/1.1/DTD/svg11.dtd">
<!-- Generated by graphviz version 14.1.2 (20260124.0452)
 -->
<!-- Title: pseudo_random_protocol_protocol Pages: 1 -->
<svg width="534pt" height="299pt"
 viewBox="72.00 72.00 462.00 227.00" xmlns="http://www.w3.org/2000/svg" xmlns:xlink="http://www.w3.org/1999/xlink">
<g id="graph0" class="graph" transform="scale(1 1) rotate(0) translate(76 223)">
<title>pseudo_random_protocol_protocol</title>
<polygon fill="white" stroke="none" points="-4,4 -4,-151 386,-151 386,4 -4,4"/>
<text xml:space="preserve" text-anchor="start" x="8" y="-32.75" font-family="Monospace" font-size="10.00" fill="dimgray">Logtalk library</text>
<text xml:space="preserve" text-anchor="start" x="8" y="-20" font-family="Monospace" font-size="10.00" fill="dimgray">Cross&#45;referencing diagram for protocol pseudo_random_protocol</text>
<text xml:space="preserve" text-anchor="start" x="8" y="-7.25" font-family="Monospace" font-size="10.00" fill="dimgray">Generated on 2026&#45;02&#45;26, 12:44</text>
<g id="clust1" class="cluster">
<title>cluster_pseudo_random_protocol_protocol</title>
<g id="a_clust1"><a xlink:title="pseudo_random_protocol">
<path fill="snow" stroke="dimgray" d="M67.5,-54.25C67.5,-54.25 314.5,-54.25 314.5,-54.25 320.5,-54.25 326.5,-60.25 326.5,-66.25 326.5,-66.25 326.5,-127 326.5,-127 326.5,-133 320.5,-139 314.5,-139 314.5,-139 67.5,-139 67.5,-139 61.5,-139 55.5,-133 55.5,-127 55.5,-127 55.5,-66.25 55.5,-66.25 55.5,-60.25 61.5,-54.25 67.5,-54.25"/>
<g id="a_clust1_0"><a xlink:href="https://github.com/LogtalkDotOrg/logtalk3/tree/f94146ca70935280c6fdeb14a7266e3e03b4f66b/library/random/pseudo_random_protocol.lgt#L22" xlink:title="https://github.com/LogtalkDotOrg/logtalk3/tree/f94146ca70935280c6fdeb14a7266e3e03b4f66b/library/random/pseudo_random_protocol.lgt#L22">
<text xml:space="preserve" text-anchor="start" x="67.5" y="-121.5" font-family="Monospace" font-size="10.00" fill="dimgray">pseudo_random_protocol</text>
</a>
</g>
</a>
</g>
</g>
<!-- get_seed/1 -->
<g id="node1" class="node">
<title>get_seed/1</title>
<polygon fill="springgreen" stroke="black" points="181.75,-100.25 65.25,-100.25 65.25,-64.25 181.75,-64.25 181.75,-100.25"/>
<text xml:space="preserve" text-anchor="start" x="73.25" y="-84.95" font-family="Monospace" font-size="9.00"> </text>
<g id="a_node1_1"><a xlink:href="https://github.com/LogtalkDotOrg/logtalk3/tree/f94146ca70935280c6fdeb14a7266e3e03b4f66b/library/random/pseudo_random_protocol.lgt#L33" xlink:title="https://github.com/LogtalkDotOrg/logtalk3/tree/f94146ca70935280c6fdeb14a7266e3e03b4f66b/library/random/pseudo_random_protocol.lgt#L33">
<text xml:space="preserve" text-anchor="start" x="89.75" y="-84.17" font-family="Monospace" font-size="11.00">get_seed/1</text>
</a>
</g>
<text xml:space="preserve" text-anchor="start" x="168.5" y="-84.95" font-family="Monospace" font-size="9.00"> </text>
<text xml:space="preserve" text-anchor="start" x="73.25" y="-72.58" font-family="Monospace" font-size="9.00"> </text>
<text xml:space="preserve" text-anchor="start" x="78.5" y="-73.35" font-family="Monospace" font-size="7.00">public, synchronized</text>
<text xml:space="preserve" text-anchor="start" x="168.5" y="-72.58" font-family="Monospace" font-size="9.00"> </text>
</g>
<!-- set_seed/1 -->
<g id="node2" class="node">
<title>set_seed/1</title>
<polygon fill="springgreen" stroke="black" points="316.75,-100.25 200.25,-100.25 200.25,-64.25 316.75,-64.25 316.75,-100.25"/>
<text xml:space="preserve" text-anchor="start" x="208.25" y="-84.95" font-family="Monospace" font-size="9.00"> </text>
<g id="a_node2_2"><a xlink:href="https://github.com/LogtalkDotOrg/logtalk3/tree/f94146ca70935280c6fdeb14a7266e3e03b4f66b/library/random/pseudo_random_protocol.lgt#L40" xlink:title="https://github.com/LogtalkDotOrg/logtalk3/tree/f94146ca70935280c6fdeb14a7266e3e03b4f66b/library/random/pseudo_random_protocol.lgt#L40">
<text xml:space="preserve" text-anchor="start" x="224.75" y="-84.17" font-family="Monospace" font-size="11.00">set_seed/1</text>
</a>
</g>
<text xml:space="preserve" text-anchor="start" x="303.5" y="-84.95" font-family="Monospace" font-size="9.00"> </text>
<text xml:space="preserve" text-anchor="start" x="208.25" y="-72.58" font-family="Monospace" font-size="9.00"> </text>
<text xml:space="preserve" text-anchor="start" x="213.5" y="-73.35" font-family="Monospace" font-size="7.00">public, synchronized</text>
<text xml:space="preserve" text-anchor="start" x="303.5" y="-72.58" font-family="Monospace" font-size="9.00"> </text>
</g>
</g>
</svg>
