<?xml version="1.0" encoding="UTF-8" standalone="no"?>
<?xml-stylesheet href="diagrams.css" type="text/css"?>
<!DOCTYPE svg PUBLIC "-//W3C//DTD SVG 1.1//EN"
 "http://www.w3.org/Graphics/SVG/1.1/DTD/svg11.dtd">
<!-- Generated by graphviz version 14.1.2 (20260124.0452)
 -->
<!-- Title: snowflakeid_protocol_protocol Pages: 1 -->
<svg width="522pt" height="299pt"
 viewBox="72.00 72.00 450.00 227.00" xmlns="http://www.w3.org/2000/svg" xmlns:xlink="http://www.w3.org/1999/xlink">
<g id="graph0" class="graph" transform="scale(1 1) rotate(0) translate(76 223)">
<title>snowflakeid_protocol_protocol</title>
<polygon fill="white" stroke="none" points="-4,4 -4,-151 374,-151 374,4 -4,4"/>
<text xml:space="preserve" text-anchor="start" x="8" y="-32.75" font-family="Monospace" font-size="10.00" fill="dimgray">Logtalk library</text>
<text xml:space="preserve" text-anchor="start" x="8" y="-20" font-family="Monospace" font-size="10.00" fill="dimgray">Cross&#45;referencing diagram for protocol snowflakeid_protocol</text>
<text xml:space="preserve" text-anchor="start" x="8" y="-7.25" font-family="Monospace" font-size="10.00" fill="dimgray">Generated on 2026&#45;02&#45;27, 19:43</text>
<g id="clust1" class="cluster">
<title>cluster_snowflakeid_protocol_protocol</title>
<g id="a_clust1"><a xlink:title="snowflakeid_protocol">
<path fill="snow" stroke="dimgray" d="M125,-54.25C125,-54.25 245,-54.25 245,-54.25 251,-54.25 257,-60.25 257,-66.25 257,-66.25 257,-127 257,-127 257,-133 251,-139 245,-139 245,-139 125,-139 125,-139 119,-139 113,-133 113,-127 113,-127 113,-66.25 113,-66.25 113,-60.25 119,-54.25 125,-54.25"/>
<g id="a_clust1_0"><a xlink:href="https://github.com/LogtalkDotOrg/logtalk3/tree/2e2fa6fa89605c6e592c720ec7b7d2021157c794/library/snowflakeid/snowflakeid_protocol.lgt#L22" xlink:title="https://github.com/LogtalkDotOrg/logtalk3/tree/2e2fa6fa89605c6e592c720ec7b7d2021157c794/library/snowflakeid/snowflakeid_protocol.lgt#L22">
<text xml:space="preserve" text-anchor="start" x="125" y="-121.5" font-family="Monospace" font-size="10.00" fill="dimgray">snowflakeid_protocol</text>
</a>
</g>
</a>
</g>
</g>
<!-- generate/1 -->
<g id="node1" class="node">
<title>generate/1</title>
<polygon fill="springgreen" stroke="black" points="232,-100.25 138,-100.25 138,-64.25 232,-64.25 232,-100.25"/>
<text xml:space="preserve" text-anchor="start" x="146" y="-84.95" font-family="Monospace" font-size="9.00"> </text>
<g id="a_node1_1"><a xlink:href="https://github.com/LogtalkDotOrg/logtalk3/tree/2e2fa6fa89605c6e592c720ec7b7d2021157c794/library/snowflakeid/snowflakeid_protocol.lgt#L31" xlink:title="https://github.com/LogtalkDotOrg/logtalk3/tree/2e2fa6fa89605c6e592c720ec7b7d2021157c794/library/snowflakeid/snowflakeid_protocol.lgt#L31">
<text xml:space="preserve" text-anchor="start" x="151.25" y="-84.17" font-family="Monospace" font-size="11.00">generate/1</text>
</a>
</g>
<text xml:space="preserve" text-anchor="start" x="218.75" y="-84.95" font-family="Monospace" font-size="9.00"> </text>
<text xml:space="preserve" text-anchor="start" x="146" y="-72.58" font-family="Monospace" font-size="9.00"> </text>
<text xml:space="preserve" text-anchor="start" x="171.5" y="-73.35" font-family="Monospace" font-size="7.00">public</text>
<text xml:space="preserve" text-anchor="start" x="218.75" y="-72.58" font-family="Monospace" font-size="9.00"> </text>
</g>
</g>
</svg>
