<?xml version="1.0" encoding="UTF-8" standalone="no"?>
<?xml-stylesheet href="diagrams.css" type="text/css"?>
<!DOCTYPE svg PUBLIC "-//W3C//DTD SVG 1.1//EN"
 "http://www.w3.org/Graphics/SVG/1.1/DTD/svg11.dtd">
<!-- Generated by graphviz version 14.1.2 (20260124.0452)
 -->
<!-- Title: stemmer_protocol_protocol Pages: 1 -->
<svg width="498pt" height="299pt"
 viewBox="72.00 72.00 426.00 227.00" xmlns="http://www.w3.org/2000/svg" xmlns:xlink="http://www.w3.org/1999/xlink">
<g id="graph0" class="graph" transform="scale(1 1) rotate(0) translate(76 223)">
<title>stemmer_protocol_protocol</title>
<polygon fill="white" stroke="none" points="-4,4 -4,-151 350,-151 350,4 -4,4"/>
<text xml:space="preserve" text-anchor="start" x="8" y="-32.75" font-family="Monospace" font-size="10.00" fill="dimgray">Logtalk library</text>
<text xml:space="preserve" text-anchor="start" x="8" y="-20" font-family="Monospace" font-size="10.00" fill="dimgray">Cross&#45;referencing diagram for protocol stemmer_protocol</text>
<text xml:space="preserve" text-anchor="start" x="8" y="-7.25" font-family="Monospace" font-size="10.00" fill="dimgray">Generated on 2026&#45;02&#45;16, 23:50</text>
<g id="clust1" class="cluster">
<title>cluster_stemmer_protocol_protocol</title>
<g id="a_clust1"><a xlink:title="stemmer_protocol">
<path fill="snow" stroke="dimgray" d="M95.5,-54.25C95.5,-54.25 250.5,-54.25 250.5,-54.25 256.5,-54.25 262.5,-60.25 262.5,-66.25 262.5,-66.25 262.5,-127 262.5,-127 262.5,-133 256.5,-139 250.5,-139 250.5,-139 95.5,-139 95.5,-139 89.5,-139 83.5,-133 83.5,-127 83.5,-127 83.5,-66.25 83.5,-66.25 83.5,-60.25 89.5,-54.25 95.5,-54.25"/>
<g id="a_clust1_0"><a xlink:href="https://github.com/LogtalkDotOrg/logtalk3/tree/57c2386301168ad3308d30cdb8c36e55ed6f0708/library/stemming/stemmer_protocol.lgt#L22" xlink:title="https://github.com/LogtalkDotOrg/logtalk3/tree/57c2386301168ad3308d30cdb8c36e55ed6f0708/library/stemming/stemmer_protocol.lgt#L22">
<text xml:space="preserve" text-anchor="start" x="95.5" y="-121.5" font-family="Monospace" font-size="10.00" fill="dimgray">stemmer_protocol</text>
</a>
</g>
</a>
</g>
</g>
<!-- stem/2 -->
<g id="node1" class="node">
<title>stem/2</title>
<polygon fill="springgreen" stroke="black" points="161,-100.25 94,-100.25 94,-64.25 161,-64.25 161,-100.25"/>
<text xml:space="preserve" text-anchor="start" x="102" y="-84.95" font-family="Monospace" font-size="9.00"> </text>
<g id="a_node1_1"><a xlink:href="https://github.com/LogtalkDotOrg/logtalk3/tree/57c2386301168ad3308d30cdb8c36e55ed6f0708/library/stemming/stemmer_protocol.lgt#L32" xlink:title="https://github.com/LogtalkDotOrg/logtalk3/tree/57c2386301168ad3308d30cdb8c36e55ed6f0708/library/stemming/stemmer_protocol.lgt#L32">
<text xml:space="preserve" text-anchor="start" x="107.25" y="-84.17" font-family="Monospace" font-size="11.00">stem/2</text>
</a>
</g>
<text xml:space="preserve" text-anchor="start" x="147.75" y="-84.95" font-family="Monospace" font-size="9.00"> </text>
<text xml:space="preserve" text-anchor="start" x="102" y="-72.58" font-family="Monospace" font-size="9.00"> </text>
<text xml:space="preserve" text-anchor="start" x="114" y="-73.35" font-family="Monospace" font-size="7.00">public</text>
<text xml:space="preserve" text-anchor="start" x="147.75" y="-72.58" font-family="Monospace" font-size="9.00"> </text>
</g>
<!-- stems/2 -->
<g id="node2" class="node">
<title>stems/2</title>
<polygon fill="springgreen" stroke="black" points="252.38,-100.25 178.62,-100.25 178.62,-64.25 252.38,-64.25 252.38,-100.25"/>
<text xml:space="preserve" text-anchor="start" x="186.62" y="-84.95" font-family="Monospace" font-size="9.00"> </text>
<g id="a_node2_2"><a xlink:href="https://github.com/LogtalkDotOrg/logtalk3/tree/57c2386301168ad3308d30cdb8c36e55ed6f0708/library/stemming/stemmer_protocol.lgt#L39" xlink:title="https://github.com/LogtalkDotOrg/logtalk3/tree/57c2386301168ad3308d30cdb8c36e55ed6f0708/library/stemming/stemmer_protocol.lgt#L39">
<text xml:space="preserve" text-anchor="start" x="191.88" y="-84.17" font-family="Monospace" font-size="11.00">stems/2</text>
</a>
</g>
<text xml:space="preserve" text-anchor="start" x="239.12" y="-84.95" font-family="Monospace" font-size="9.00"> </text>
<text xml:space="preserve" text-anchor="start" x="186.62" y="-72.58" font-family="Monospace" font-size="9.00"> </text>
<text xml:space="preserve" text-anchor="start" x="202" y="-73.35" font-family="Monospace" font-size="7.00">public</text>
<text xml:space="preserve" text-anchor="start" x="239.12" y="-72.58" font-family="Monospace" font-size="9.00"> </text>
</g>
</g>
</svg>
