<?xml version="1.0" encoding="UTF-8" standalone="no"?>
<?xml-stylesheet href="diagrams.css" type="text/css"?>
<!DOCTYPE svg PUBLIC "-//W3C//DTD SVG 1.1//EN"
 "http://www.w3.org/Graphics/SVG/1.1/DTD/svg11.dtd">
<!-- Generated by graphviz version 14.1.2 (20260124.0452)
 -->
<!-- Title: suppress_goal_hook_object Pages: 1 -->
<svg width="498pt" height="299pt"
 viewBox="72.00 72.00 426.00 227.00" xmlns="http://www.w3.org/2000/svg" xmlns:xlink="http://www.w3.org/1999/xlink">
<g id="graph0" class="graph" transform="scale(1 1) rotate(0) translate(76 223)">
<title>suppress_goal_hook_object</title>
<polygon fill="white" stroke="none" points="-4,4 -4,-151 350,-151 350,4 -4,4"/>
<text xml:space="preserve" text-anchor="start" x="8" y="-32.75" font-family="Monospace" font-size="10.00" fill="dimgray">Logtalk library</text>
<text xml:space="preserve" text-anchor="start" x="8" y="-20" font-family="Monospace" font-size="10.00" fill="dimgray">Cross&#45;referencing diagram for object suppress_goal_hook</text>
<text xml:space="preserve" text-anchor="start" x="8" y="-7.25" font-family="Monospace" font-size="10.00" fill="dimgray">Generated on 2026&#45;02&#45;09, 17:13</text>
<g id="clust1" class="cluster">
<title>cluster_suppress_goal_hook_object</title>
<g id="a_clust1"><a xlink:title="suppress_goal_hook">
<path fill="snow" stroke="dimgray" d="M108,-54.25C108,-54.25 238,-54.25 238,-54.25 244,-54.25 250,-60.25 250,-66.25 250,-66.25 250,-127 250,-127 250,-133 244,-139 238,-139 238,-139 108,-139 108,-139 102,-139 96,-133 96,-127 96,-127 96,-66.25 96,-66.25 96,-60.25 102,-54.25 108,-54.25"/>
<g id="a_clust1_0"><a xlink:href="https://github.com/LogtalkDotOrg/logtalk3/tree/8e841b933aa0ca8bc5fdcf2e9d174b0190111d2b/library/hook_objects/suppress_goal_hook.lgt#L22" xlink:title="https://github.com/LogtalkDotOrg/logtalk3/tree/8e841b933aa0ca8bc5fdcf2e9d174b0190111d2b/library/hook_objects/suppress_goal_hook.lgt#L22">
<text xml:space="preserve" text-anchor="start" x="108" y="-121.5" font-family="Monospace" font-size="10.00" fill="dimgray">suppress_goal_hook</text>
</a>
</g>
</a>
</g>
</g>
<!-- goal_expansion/2 -->
<g id="node1" class="node">
<title>goal_expansion/2</title>
<polygon fill="cornsilk" stroke="black" points="240.25,-100.25 105.75,-100.25 105.75,-64.25 240.25,-64.25 240.25,-100.25"/>
<text xml:space="preserve" text-anchor="start" x="113.75" y="-84.95" font-family="Monospace" font-size="9.00"> </text>
<g id="a_node1_1"><a xlink:href="https://github.com/LogtalkDotOrg/logtalk3/tree/8e841b933aa0ca8bc5fdcf2e9d174b0190111d2b/library/hook_objects/suppress_goal_hook.lgt#L43" xlink:title="https://github.com/LogtalkDotOrg/logtalk3/tree/8e841b933aa0ca8bc5fdcf2e9d174b0190111d2b/library/hook_objects/suppress_goal_hook.lgt#L43">
<text xml:space="preserve" text-anchor="start" x="119" y="-84.17" font-family="Monospace" font-size="11.00">goal_expansion/2</text>
</a>
</g>
<text xml:space="preserve" text-anchor="start" x="227" y="-84.95" font-family="Monospace" font-size="9.00"> </text>
<text xml:space="preserve" text-anchor="start" x="113.75" y="-72.58" font-family="Monospace" font-size="9.00"> </text>
<text xml:space="preserve" text-anchor="start" x="161.75" y="-73.35" font-family="Monospace" font-size="7.00">local</text>
<text xml:space="preserve" text-anchor="start" x="227" y="-72.58" font-family="Monospace" font-size="9.00"> </text>
</g>
</g>
</svg>
