<?xml version="1.0" encoding="UTF-8" standalone="no"?>
<?xml-stylesheet href="diagrams.css" type="text/css"?>
<!DOCTYPE svg PUBLIC "-//W3C//DTD SVG 1.1//EN"
 "http://www.w3.org/Graphics/SVG/1.1/DTD/svg11.dtd">
<!-- Generated by graphviz version 14.1.2 (20260124.0452)
 -->
<!-- Title: timep_protocol Pages: 1 -->
<svg width="452pt" height="299pt"
 viewBox="72.00 72.00 380.00 227.00" xmlns="http://www.w3.org/2000/svg" xmlns:xlink="http://www.w3.org/1999/xlink">
<g id="graph0" class="graph" transform="scale(1 1) rotate(0) translate(76 223)">
<title>timep_protocol</title>
<polygon fill="white" stroke="none" points="-4,4 -4,-151 304,-151 304,4 -4,4"/>
<text xml:space="preserve" text-anchor="start" x="8" y="-32.75" font-family="Monospace" font-size="10.00" fill="dimgray">Logtalk library</text>
<text xml:space="preserve" text-anchor="start" x="8" y="-20" font-family="Monospace" font-size="10.00" fill="dimgray">Cross&#45;referencing diagram for protocol timep</text>
<text xml:space="preserve" text-anchor="start" x="8" y="-7.25" font-family="Monospace" font-size="10.00" fill="dimgray">Generated on 2026&#45;02&#45;18, 21:46</text>
<g id="clust1" class="cluster">
<title>cluster_timep_protocol</title>
<g id="a_clust1"><a xlink:title="timep">
<path fill="snow" stroke="dimgray" d="M20,-54.25C20,-54.25 280,-54.25 280,-54.25 286,-54.25 292,-60.25 292,-66.25 292,-66.25 292,-127 292,-127 292,-133 286,-139 280,-139 280,-139 20,-139 20,-139 14,-139 8,-133 8,-127 8,-127 8,-66.25 8,-66.25 8,-60.25 14,-54.25 20,-54.25"/>
<g id="a_clust1_0"><a xlink:href="https://github.com/LogtalkDotOrg/logtalk3/tree/0082bca1e94c63f595b5f17dc783fbf3cc65948a/library/dates/timep.lgt#L22" xlink:title="https://github.com/LogtalkDotOrg/logtalk3/tree/0082bca1e94c63f595b5f17dc783fbf3cc65948a/library/dates/timep.lgt#L22">
<text xml:space="preserve" text-anchor="start" x="20" y="-121.5" font-family="Monospace" font-size="10.00" fill="dimgray">timep</text>
</a>
</g>
</a>
</g>
</g>
<!-- now/3 -->
<g id="node1" class="node">
<title>now/3</title>
<polygon fill="springgreen" stroke="black" points="78.12,-100.25 17.88,-100.25 17.88,-64.25 78.12,-64.25 78.12,-100.25"/>
<text xml:space="preserve" text-anchor="start" x="25.88" y="-84.95" font-family="Monospace" font-size="9.00"> </text>
<g id="a_node1_1"><a xlink:href="https://github.com/LogtalkDotOrg/logtalk3/tree/0082bca1e94c63f595b5f17dc783fbf3cc65948a/library/dates/timep.lgt#L32" xlink:title="https://github.com/LogtalkDotOrg/logtalk3/tree/0082bca1e94c63f595b5f17dc783fbf3cc65948a/library/dates/timep.lgt#L32">
<text xml:space="preserve" text-anchor="start" x="31.12" y="-84.17" font-family="Monospace" font-size="11.00">now/3</text>
</a>
</g>
<text xml:space="preserve" text-anchor="start" x="64.88" y="-84.95" font-family="Monospace" font-size="9.00"> </text>
<text xml:space="preserve" text-anchor="start" x="25.88" y="-72.58" font-family="Monospace" font-size="9.00"> </text>
<text xml:space="preserve" text-anchor="start" x="34.5" y="-73.35" font-family="Monospace" font-size="7.00">public</text>
<text xml:space="preserve" text-anchor="start" x="64.88" y="-72.58" font-family="Monospace" font-size="9.00"> </text>
</g>
<!-- cpu_time/1 -->
<g id="node2" class="node">
<title>cpu_time/1</title>
<polygon fill="springgreen" stroke="black" points="190,-100.25 96,-100.25 96,-64.25 190,-64.25 190,-100.25"/>
<text xml:space="preserve" text-anchor="start" x="104" y="-84.95" font-family="Monospace" font-size="9.00"> </text>
<g id="a_node2_2"><a xlink:href="https://github.com/LogtalkDotOrg/logtalk3/tree/0082bca1e94c63f595b5f17dc783fbf3cc65948a/library/dates/timep.lgt#L39" xlink:title="https://github.com/LogtalkDotOrg/logtalk3/tree/0082bca1e94c63f595b5f17dc783fbf3cc65948a/library/dates/timep.lgt#L39">
<text xml:space="preserve" text-anchor="start" x="109.25" y="-84.17" font-family="Monospace" font-size="11.00">cpu_time/1</text>
</a>
</g>
<text xml:space="preserve" text-anchor="start" x="176.75" y="-84.95" font-family="Monospace" font-size="9.00"> </text>
<text xml:space="preserve" text-anchor="start" x="104" y="-72.58" font-family="Monospace" font-size="9.00"> </text>
<text xml:space="preserve" text-anchor="start" x="129.5" y="-73.35" font-family="Monospace" font-size="7.00">public</text>
<text xml:space="preserve" text-anchor="start" x="176.75" y="-72.58" font-family="Monospace" font-size="9.00"> </text>
</g>
<!-- valid/3 -->
<g id="node3" class="node">
<title>valid/3</title>
<polygon fill="springgreen" stroke="black" points="281.88,-100.25 208.12,-100.25 208.12,-64.25 281.88,-64.25 281.88,-100.25"/>
<text xml:space="preserve" text-anchor="start" x="216.12" y="-84.95" font-family="Monospace" font-size="9.00"> </text>
<g id="a_node3_3"><a xlink:href="https://github.com/LogtalkDotOrg/logtalk3/tree/0082bca1e94c63f595b5f17dc783fbf3cc65948a/library/dates/timep.lgt#L46" xlink:title="https://github.com/LogtalkDotOrg/logtalk3/tree/0082bca1e94c63f595b5f17dc783fbf3cc65948a/library/dates/timep.lgt#L46">
<text xml:space="preserve" text-anchor="start" x="221.38" y="-84.17" font-family="Monospace" font-size="11.00">valid/3</text>
</a>
</g>
<text xml:space="preserve" text-anchor="start" x="268.62" y="-84.95" font-family="Monospace" font-size="9.00"> </text>
<text xml:space="preserve" text-anchor="start" x="216.12" y="-72.58" font-family="Monospace" font-size="9.00"> </text>
<text xml:space="preserve" text-anchor="start" x="231.5" y="-73.35" font-family="Monospace" font-size="7.00">public</text>
<text xml:space="preserve" text-anchor="start" x="268.62" y="-72.58" font-family="Monospace" font-size="9.00"> </text>
</g>
</g>
</svg>
