<?xml version="1.0" encoding="UTF-8" standalone="no"?>
<?xml-stylesheet href="diagrams.css" type="text/css"?>
<!DOCTYPE svg PUBLIC "-//W3C//DTD SVG 1.1//EN"
 "http://www.w3.org/Graphics/SVG/1.1/DTD/svg11.dtd">
<!-- Generated by graphviz version 14.1.1 (20251213.1925)
 -->
<!-- Title: toon_protocol_protocol Pages: 1 -->
<svg width="480pt" height="299pt"
 viewBox="72.00 72.00 408.00 227.00" xmlns="http://www.w3.org/2000/svg" xmlns:xlink="http://www.w3.org/1999/xlink">
<g id="graph0" class="graph" transform="scale(1 1) rotate(0) translate(76 223)">
<title>toon_protocol_protocol</title>
<polygon fill="white" stroke="none" points="-4,4 -4,-151 332,-151 332,4 -4,4"/>
<text xml:space="preserve" text-anchor="start" x="8" y="-32.75" font-family="Monospace" font-size="10.00" fill="dimgray">Logtalk library</text>
<text xml:space="preserve" text-anchor="start" x="8" y="-20" font-family="Monospace" font-size="10.00" fill="dimgray">Cross&#45;referencing diagram for protocol toon_protocol</text>
<text xml:space="preserve" text-anchor="start" x="8" y="-7.25" font-family="Monospace" font-size="10.00" fill="dimgray">Generated on 2026&#45;01&#45;16, 22:56</text>
<g id="clust1" class="cluster">
<title>cluster_toon_protocol_protocol</title>
<g id="a_clust1"><a xlink:title="toon_protocol">
<path fill="snow" stroke="dimgray" d="M73,-54.25C73,-54.25 255,-54.25 255,-54.25 261,-54.25 267,-60.25 267,-66.25 267,-66.25 267,-127 267,-127 267,-133 261,-139 255,-139 255,-139 73,-139 73,-139 67,-139 61,-133 61,-127 61,-127 61,-66.25 61,-66.25 61,-60.25 67,-54.25 73,-54.25"/>
<g id="a_clust1_0"><a xlink:href="https://github.com/LogtalkDotOrg/logtalk3/tree/caa4eb33ec831e019e77fb98934bbd8ffb07c06c/library/toon/toon_protocol.lgt#L22" xlink:title="https://github.com/LogtalkDotOrg/logtalk3/tree/caa4eb33ec831e019e77fb98934bbd8ffb07c06c/library/toon/toon_protocol.lgt#L22">
<text xml:space="preserve" text-anchor="start" x="73" y="-121.5" font-family="Monospace" font-size="10.00" fill="dimgray">toon_protocol</text>
</a>
</g>
</a>
</g>
</g>
<!-- parse/2 -->
<g id="node1" class="node">
<title>parse/2</title>
<polygon fill="springgreen" stroke="black" points="144.88,-100.25 71.12,-100.25 71.12,-64.25 144.88,-64.25 144.88,-100.25"/>
<text xml:space="preserve" text-anchor="start" x="79.12" y="-84.95" font-family="Monospace" font-size="9.00"> </text>
<g id="a_node1_1"><a xlink:href="https://github.com/LogtalkDotOrg/logtalk3/tree/caa4eb33ec831e019e77fb98934bbd8ffb07c06c/library/toon/toon_protocol.lgt#L31" xlink:title="https://github.com/LogtalkDotOrg/logtalk3/tree/caa4eb33ec831e019e77fb98934bbd8ffb07c06c/library/toon/toon_protocol.lgt#L31">
<text xml:space="preserve" text-anchor="start" x="84.38" y="-84.17" font-family="Monospace" font-size="11.00">parse/2</text>
</a>
</g>
<text xml:space="preserve" text-anchor="start" x="131.62" y="-84.95" font-family="Monospace" font-size="9.00"> </text>
<text xml:space="preserve" text-anchor="start" x="79.12" y="-72.58" font-family="Monospace" font-size="9.00"> </text>
<text xml:space="preserve" text-anchor="start" x="94.5" y="-73.35" font-family="Monospace" font-size="7.00">public</text>
<text xml:space="preserve" text-anchor="start" x="131.62" y="-72.58" font-family="Monospace" font-size="9.00"> </text>
</g>
<!-- generate/2 -->
<g id="node2" class="node">
<title>generate/2</title>
<polygon fill="springgreen" stroke="black" points="257,-100.25 163,-100.25 163,-64.25 257,-64.25 257,-100.25"/>
<text xml:space="preserve" text-anchor="start" x="171" y="-84.95" font-family="Monospace" font-size="9.00"> </text>
<g id="a_node2_2"><a xlink:href="https://github.com/LogtalkDotOrg/logtalk3/tree/caa4eb33ec831e019e77fb98934bbd8ffb07c06c/library/toon/toon_protocol.lgt#L42" xlink:title="https://github.com/LogtalkDotOrg/logtalk3/tree/caa4eb33ec831e019e77fb98934bbd8ffb07c06c/library/toon/toon_protocol.lgt#L42">
<text xml:space="preserve" text-anchor="start" x="176.25" y="-84.17" font-family="Monospace" font-size="11.00">generate/2</text>
</a>
</g>
<text xml:space="preserve" text-anchor="start" x="243.75" y="-84.95" font-family="Monospace" font-size="9.00"> </text>
<text xml:space="preserve" text-anchor="start" x="171" y="-72.58" font-family="Monospace" font-size="9.00"> </text>
<text xml:space="preserve" text-anchor="start" x="196.5" y="-73.35" font-family="Monospace" font-size="7.00">public</text>
<text xml:space="preserve" text-anchor="start" x="243.75" y="-72.58" font-family="Monospace" font-size="9.00"> </text>
</g>
</g>
</svg>
