<?xml version="1.0" encoding="UTF-8" standalone="no"?>
<?xml-stylesheet href="diagrams.css" type="text/css"?>
<!DOCTYPE svg PUBLIC "-//W3C//DTD SVG 1.1//EN"
 "http://www.w3.org/Graphics/SVG/1.1/DTD/svg11.dtd">
<!-- Generated by graphviz version 14.1.1 (20251213.1925)
 -->
<!-- Title: write_to_stream_hook_2_object Pages: 1 -->
<svg width="522pt" height="299pt"
 viewBox="72.00 72.00 450.00 227.00" xmlns="http://www.w3.org/2000/svg" xmlns:xlink="http://www.w3.org/1999/xlink">
<g id="graph0" class="graph" transform="scale(1 1) rotate(0) translate(76 223)">
<title>write_to_stream_hook_2_object</title>
<polygon fill="white" stroke="none" points="-4,4 -4,-151 374,-151 374,4 -4,4"/>
<text xml:space="preserve" text-anchor="start" x="8" y="-32.75" font-family="Monospace" font-size="10.00" fill="dimgray">Logtalk library</text>
<text xml:space="preserve" text-anchor="start" x="8" y="-20" font-family="Monospace" font-size="10.00" fill="dimgray">Cross&#45;referencing diagram for object write_to_stream_hook/2</text>
<text xml:space="preserve" text-anchor="start" x="8" y="-7.25" font-family="Monospace" font-size="10.00" fill="dimgray">Generated on 2026&#45;01&#45;25, 01:13</text>
<g id="clust1" class="cluster">
<title>cluster_write_to_stream_hook_2_object</title>
<g id="a_clust1"><a xlink:title="write_to_stream_hook(Stream,Options)">
<path fill="snow" stroke="dimgray" d="M77,-54.25C77,-54.25 293,-54.25 293,-54.25 299,-54.25 305,-60.25 305,-66.25 305,-66.25 305,-127 305,-127 305,-133 299,-139 293,-139 293,-139 77,-139 77,-139 71,-139 65,-133 65,-127 65,-127 65,-66.25 65,-66.25 65,-60.25 71,-54.25 77,-54.25"/>
<g id="a_clust1_0"><a xlink:href="https://github.com/LogtalkDotOrg/logtalk3/tree/e67ca1d8101a43514588e1e92f0b0601a885e641/library/hook_objects/write_to_stream_hook.lgt#L22" xlink:title="https://github.com/LogtalkDotOrg/logtalk3/tree/e67ca1d8101a43514588e1e92f0b0601a885e641/library/hook_objects/write_to_stream_hook.lgt#L22">
<text xml:space="preserve" text-anchor="start" x="77" y="-121.5" font-family="Monospace" font-size="10.00" fill="dimgray">write_to_stream_hook(Stream,Options)</text>
</a>
</g>
</a>
</g>
</g>
<!-- term_expansion/2 -->
<g id="node1" class="node">
<title>term_expansion/2</title>
<polygon fill="cornsilk" stroke="black" points="252.25,-100.25 117.75,-100.25 117.75,-64.25 252.25,-64.25 252.25,-100.25"/>
<text xml:space="preserve" text-anchor="start" x="125.75" y="-84.95" font-family="Monospace" font-size="9.00"> </text>
<g id="a_node1_1"><a xlink:href="https://github.com/LogtalkDotOrg/logtalk3/tree/e67ca1d8101a43514588e1e92f0b0601a885e641/library/hook_objects/write_to_stream_hook.lgt#L41" xlink:title="https://github.com/LogtalkDotOrg/logtalk3/tree/e67ca1d8101a43514588e1e92f0b0601a885e641/library/hook_objects/write_to_stream_hook.lgt#L41">
<text xml:space="preserve" text-anchor="start" x="131" y="-84.17" font-family="Monospace" font-size="11.00">term_expansion/2</text>
</a>
</g>
<text xml:space="preserve" text-anchor="start" x="239" y="-84.95" font-family="Monospace" font-size="9.00"> </text>
<text xml:space="preserve" text-anchor="start" x="125.75" y="-72.58" font-family="Monospace" font-size="9.00"> </text>
<text xml:space="preserve" text-anchor="start" x="173.75" y="-73.35" font-family="Monospace" font-size="7.00">local</text>
<text xml:space="preserve" text-anchor="start" x="239" y="-72.58" font-family="Monospace" font-size="9.00"> </text>
</g>
</g>
</svg>
