<?xml version="1.0" standalone="no"?>
<!DOCTYPE svg PUBLIC "-//W3C//DTD SVG 20010904//EN"
 "http://www.w3.org/TR/2001/REC-SVG-20010904/DTD/svg10.dtd">
<svg version="1.0" xmlns="http://www.w3.org/2000/svg"
 width="1024.000000pt" height="1024.000000pt" viewBox="0 0 1024.000000 1024.000000"
 preserveAspectRatio="xMidYMid meet">
<metadata>
Created by potrace 1.11, written by Peter Selinger 2001-2013
</metadata>
<g transform="translate(0.000000,1024.000000) scale(0.100000,-0.100000)"
fill="#000000" stroke="none">
<path d="M670 5150 l0 -2860 670 0 670 0 0 230 0 230 -375 0 -375 0 0 2400 0
2400 375 0 375 0 0 230 0 230 -670 0 -670 0 0 -2860z"/>
<path d="M8140 7780 l0 -230 375 0 375 0 0 -2400 0 -2400 -375 0 -375 0 0
-230 0 -230 670 0 670 0 0 2860 0 2860 -670 0 -670 0 0 -230z"/>
<path d="M3270 4955 l0 -1825 170 0 170 0 0 579 0 578 1628 7 c895 4 1628 9
1628 9 1 1 4 77 6 170 l4 167 -1633 0 -1633 0 0 298 0 299 248 6 c136 4 871 7
1635 7 l1387 0 0 170 0 170 -1635 0 -1635 0 0 595 0 595 -170 0 -170 0 0
-1825z"/>
</g>
</svg>
