<?xml version="1.0" ?><svg height="24px" version="1.1" viewBox="0 0 24 24" width="24px" xmlns="http://www.w3.org/2000/svg" xmlns:sketch="http://www.bohemiancoding.com/sketch/ns" xmlns:xlink="http://www.w3.org/1999/xlink"><title/><desc/><defs/><g fill="none" fill-rule="evenodd" id="miu" stroke="none" stroke-width="1"><g id="Artboard-1" transform="translate(-611.000000, -407.000000)"><g id="slice" transform="translate(215.000000, 119.000000)"/><path d="M620,416 L620,413 L621,413 L621,416 L624,416 L624,417 L621,417 L621,420 L620,420 L620,417 L617,417 L617,416 L620,416 Z M627.477276,421.355956 C628.43712,419.979383 629,418.305425 629,416.5 C629,411.805579 625.194421,408 620.5,408 C615.805579,408 612,411.805579 612,416.5 C612,421.194421 615.805579,425 620.5,425 C622.305148,425 623.978868,424.437293 625.355321,423.477719 L625.355892,423.477212 L631.659433,429.780753 C631.776309,429.897629 631.962206,429.901225 632.082211,429.78122 L633.78122,428.082211 C633.897838,427.965593 633.892417,427.771097 633.780753,427.659433 L627.477276,421.355956 L627.477276,421.355956 Z M620.5,423 C624.089851,423 627,420.089851 627,416.5 C627,412.910149 624.089851,410 620.5,410 C616.910149,410 614,412.910149 614,416.5 C614,420.089851 616.910149,423 620.5,423 Z" fill="#000000" id="editor-zoom-in-plus-add-glyph"/></g></g></svg>