<?xml version="1.0" encoding="UTF-8" standalone="no"?>
<!DOCTYPE svg PUBLIC "-//W3C//DTD SVG 1.1//EN"
 "http://www.w3.org/Graphics/SVG/1.1/DTD/svg11.dtd">
<!-- Generated by graphviz version 2.40.1 (20161225.0304)
 -->
<!-- Title: a_star_interpreter_1_object Pages: 1 -->
<svg width="511pt" height="298pt"
 viewBox="72.00 72.00 439.00 226.43" xmlns="http://www.w3.org/2000/svg" xmlns:xlink="http://www.w3.org/1999/xlink">
<g id="graph0" class="graph" transform="scale(1 1) rotate(0) translate(76 222.4264)">
<title>a_star_interpreter_1_object</title>
<polygon fill="#ffffff" stroke="transparent" points="-4,4 -4,-150.4264 363,-150.4264 363,4 -4,4"/>
<text text-anchor="start" x="8" y="-29" font-family="Courier,monospace" font-size="10.00" fill="#8b8989">Logtalk third&#45;party contributions</text>
<text text-anchor="start" x="8" y="-18" font-family="Courier,monospace" font-size="10.00" fill="#8b8989">Cross&#45;referencing diagram for object a_star_interpreter/1</text>
<text text-anchor="start" x="8" y="-7" font-family="Courier,monospace" font-size="10.00" fill="#8b8989">Generated on 2019/04/24, 19:03</text>
<g id="clust1" class="cluster">
<title>cluster_a_star_interpreter_1_object</title>
<g id="a_clust1"><a xlink:title="a_star_interpreter(W)">
<path fill="#fffafa" stroke="#8b8989" d="M116,-49C116,-49 243,-49 243,-49 249,-49 255,-55 255,-61 255,-61 255,-126.4264 255,-126.4264 255,-132.4264 249,-138.4264 243,-138.4264 243,-138.4264 116,-138.4264 116,-138.4264 110,-138.4264 104,-132.4264 104,-126.4264 104,-126.4264 104,-61 104,-61 104,-55 110,-49 116,-49"/>
<g id="a_clust1_0"><a xlink:href="https://github.com/LogtalkDotOrg/logtalk3/tree/master/contributions/verdi_neruda/a_star_interpreter.lgt" xlink:title="https://github.com/LogtalkDotOrg/logtalk3/tree/master/contributions/verdi_neruda/a_star_interpreter.lgt">
<text text-anchor="start" x="116.5" y="-121.9264" font-family="Courier,monospace" font-size="10.00" fill="#8b8989">a_star_interpreter(W)</text>
</a>
</g>
</a>
</g>
</g>
<!-- f/4 -->
<g id="node1" class="node">
<title>f/4</title>
<g id="a_node1"><a xlink:href="https://github.com/LogtalkDotOrg/logtalk3/tree/master/contributions/verdi_neruda/a_star_interpreter.lgt#L13" xlink:title="https://github.com/LogtalkDotOrg/logtalk3/tree/master/contributions/verdi_neruda/a_star_interpreter.lgt#L13">
<ellipse fill="#fff8dc" stroke="#000000" cx="179" cy="-80.2132" rx="35.2113" ry="21.4286"/>
<text text-anchor="start" x="162" y="-83.0132" font-family="Courier,monospace" font-size="9.00" fill="#000000"> </text>
<text text-anchor="start" x="169" y="-82.4132" font-family="Courier,monospace" font-size="11.00" fill="#000000">f/4</text>
<text text-anchor="start" x="190" y="-83.0132" font-family="Courier,monospace" font-size="9.00" fill="#000000"> </text>
<text text-anchor="start" x="162" y="-72.0132" font-family="Courier,monospace" font-size="9.00" fill="#000000"> </text>
<text text-anchor="start" x="168" y="-72.6132" font-family="Courier,monospace" font-size="7.00" fill="#000000">local</text>
<text text-anchor="start" x="190" y="-72.0132" font-family="Courier,monospace" font-size="9.00" fill="#000000"> </text>
</a>
</g>
</g>
</g>
</svg>
