<?xml version="1.0" encoding="UTF-8" standalone="no"?>
<?xml-stylesheet href="diagrams.css" type="text/css"?>
<!DOCTYPE svg PUBLIC "-//W3C//DTD SVG 1.1//EN"
 "http://www.w3.org/Graphics/SVG/1.1/DTD/svg11.dtd">
<!-- Generated by graphviz version 11.0.0 (20240428.1522)
 -->
<!-- Title: a_star_interpreter_1_object Pages: 1 -->
<svg width="510pt" height="299pt"
 viewBox="72.00 72.00 438.00 227.00" xmlns="http://www.w3.org/2000/svg" xmlns:xlink="http://www.w3.org/1999/xlink">
<g id="graph0" class="graph" transform="scale(1 1) rotate(0) translate(76 223)">
<title>a_star_interpreter_1_object</title>
<polygon fill="white" stroke="none" points="-4,4 -4,-151 362,-151 362,4 -4,4"/>
<text text-anchor="start" x="8" y="-32.75" font-family="Monospace" font-size="10.00" fill="dimgray">Logtalk third&#45;party contributions</text>
<text text-anchor="start" x="8" y="-20" font-family="Monospace" font-size="10.00" fill="dimgray">Cross&#45;referencing diagram for object a_star_interpreter/1</text>
<text text-anchor="start" x="8" y="-7.25" font-family="Monospace" font-size="10.00" fill="dimgray">Generated on 2024&#45;06&#45;26, 22:09</text>
<g id="clust1" class="cluster">
<title>cluster_a_star_interpreter_1_object</title>
<g id="a_clust1"><a xlink:title="a_star_interpreter(W)">
<path fill="snow" stroke="dimgray" d="M116,-54.25C116,-54.25 242,-54.25 242,-54.25 248,-54.25 254,-60.25 254,-66.25 254,-66.25 254,-127 254,-127 254,-133 248,-139 242,-139 242,-139 116,-139 116,-139 110,-139 104,-133 104,-127 104,-127 104,-66.25 104,-66.25 104,-60.25 110,-54.25 116,-54.25"/>
<g id="a_clust1_0"><a xlink:href="https://github.com/LogtalkDotOrg/logtalk3/tree/70f9ed0de180b59fc23f622259aa2220d538d852/contributions/verdi_neruda/a_star_interpreter.lgt" xlink:title="https://github.com/LogtalkDotOrg/logtalk3/tree/70f9ed0de180b59fc23f622259aa2220d538d852/contributions/verdi_neruda/a_star_interpreter.lgt">
<text text-anchor="start" x="116" y="-121.5" font-family="Monospace" font-size="10.00" fill="dimgray">a_star_interpreter(W)</text>
</a>
</g>
</a>
</g>
</g>
<!-- f/4 -->
<g id="node1" class="node">
<title>f/4</title>
<g id="a_node1"><a xlink:href="https://github.com/LogtalkDotOrg/logtalk3/tree/70f9ed0de180b59fc23f622259aa2220d538d852/contributions/verdi_neruda/a_star_interpreter.lgt#L46" xlink:title="https://github.com/LogtalkDotOrg/logtalk3/tree/70f9ed0de180b59fc23f622259aa2220d538d852/contributions/verdi_neruda/a_star_interpreter.lgt#L46">
<polygon fill="cornsilk" stroke="black" points="206,-100.25 152,-100.25 152,-64.25 206,-64.25 206,-100.25"/>
<text text-anchor="start" x="162.88" y="-84.83" font-family="Monospace" font-size="9.00"> </text>
<text text-anchor="start" x="168.88" y="-83.8" font-family="Monospace" font-size="11.00">f/4</text>
<text text-anchor="start" x="189.88" y="-84.83" font-family="Monospace" font-size="9.00"> </text>
<text text-anchor="start" x="162.88" y="-72.7" font-family="Monospace" font-size="9.00"> </text>
<text text-anchor="start" x="167.75" y="-73.6" font-family="Monospace" font-size="7.00">local</text>
<text text-anchor="start" x="189.88" y="-72.7" font-family="Monospace" font-size="9.00"> </text>
</a>
</g>
</g>
</g>
</svg>
