<?xml version="1.0" encoding="UTF-8" standalone="no"?>
<?xml-stylesheet href="diagrams.css" type="text/css"?>
<!DOCTYPE svg PUBLIC "-//W3C//DTD SVG 1.1//EN"
 "http://www.w3.org/Graphics/SVG/1.1/DTD/svg11.dtd">
<!-- Generated by graphviz version 2.43.20191029.1313 (20191029.1313)
 -->
<!-- Title: a_star_interpreter_1_object Pages: 1 -->
<svg width="510pt" height="288pt"
 viewBox="72.00 72.00 438.06 216.00" xmlns="http://www.w3.org/2000/svg" xmlns:xlink="http://www.w3.org/1999/xlink">
<g id="graph0" class="graph" transform="scale(1 1) rotate(0) translate(76 212)">
<title>a_star_interpreter_1_object</title>
<polygon fill="white" stroke="transparent" points="-4,4 -4,-140 362.06,-140 362.06,4 -4,4"/>
<text text-anchor="start" x="8" y="-26" font-family="Courier,monospace" font-size="10.00" fill="dimgray">Logtalk third&#45;party contributions</text>
<text text-anchor="start" x="8" y="-16" font-family="Courier,monospace" font-size="10.00" fill="dimgray">Cross&#45;referencing diagram for object a_star_interpreter/1</text>
<text text-anchor="start" x="8" y="-6" font-family="Courier,monospace" font-size="10.00" fill="dimgray">Generated on 2020&#45;05&#45;25, 21:55</text>
<g id="clust1" class="cluster">
<title>cluster_a_star_interpreter_1_object</title>
<g id="a_clust1"><a xlink:title="a_star_interpreter(W)">
<path fill="snow" stroke="dimgray" d="M116.03,-46C116.03,-46 242.03,-46 242.03,-46 248.03,-46 254.03,-52 254.03,-58 254.03,-58 254.03,-116 254.03,-116 254.03,-122 248.03,-128 242.03,-128 242.03,-128 116.03,-128 116.03,-128 110.03,-128 104.03,-122 104.03,-116 104.03,-116 104.03,-58 104.03,-58 104.03,-52 110.03,-46 116.03,-46"/>
<g id="a_clust1_0"><a xlink:href="https://github.com/LogtalkDotOrg/logtalk3/tree/ee3e469ba16664bcc8b3b120a4a0bb7672d96db2/contributions/verdi_neruda/a_star_interpreter.lgt" xlink:title="https://github.com/LogtalkDotOrg/logtalk3/tree/ee3e469ba16664bcc8b3b120a4a0bb7672d96db2/contributions/verdi_neruda/a_star_interpreter.lgt">
<text text-anchor="start" x="116.02" y="-112" font-family="Courier,monospace" font-size="10.00" fill="dimgray">a_star_interpreter(W)</text>
</a>
</g>
</a>
</g>
</g>
<!-- f/4 -->
<g id="node1" class="node">
<title>f/4</title>
<g id="a_node1"><a xlink:href="https://github.com/LogtalkDotOrg/logtalk3/tree/ee3e469ba16664bcc8b3b120a4a0bb7672d96db2/contributions/verdi_neruda/a_star_interpreter.lgt#L13" xlink:title="https://github.com/LogtalkDotOrg/logtalk3/tree/ee3e469ba16664bcc8b3b120a4a0bb7672d96db2/contributions/verdi_neruda/a_star_interpreter.lgt#L13">
<polygon fill="cornsilk" stroke="black" points="206.03,-92 152.03,-92 152.03,-56 206.03,-56 206.03,-92"/>
<text text-anchor="start" x="163.83" y="-75.8" font-family="Courier,monospace" font-size="9.00"> </text>
<text text-anchor="start" x="169.63" y="-75.2" font-family="Courier,monospace" font-size="11.00">f/4</text>
<text text-anchor="start" x="189.83" y="-75.8" font-family="Courier,monospace" font-size="9.00"> </text>
<text text-anchor="start" x="163.83" y="-65.8" font-family="Courier,monospace" font-size="9.00"> </text>
<text text-anchor="start" x="169.03" y="-66.4" font-family="Courier,monospace" font-size="7.00">local</text>
<text text-anchor="start" x="189.83" y="-65.8" font-family="Courier,monospace" font-size="9.00"> </text>
</a>
</g>
</g>
</g>
</svg>
