<?xml version="1.0" encoding="UTF-8" standalone="no"?>
<?xml-stylesheet href="diagrams.css" type="text/css"?>
<!DOCTYPE svg PUBLIC "-//W3C//DTD SVG 1.1//EN"
 "http://www.w3.org/Graphics/SVG/1.1/DTD/svg11.dtd">
<!-- Generated by graphviz version 2.50.0 (20211204.2007)
 -->
<!-- Title: a_star_interpreter_1_object Pages: 1 -->
<svg width="511pt" height="292pt"
 viewBox="72.00 72.00 439.00 220.00" xmlns="http://www.w3.org/2000/svg" xmlns:xlink="http://www.w3.org/1999/xlink">
<g id="graph0" class="graph" transform="scale(1 1) rotate(0) translate(76 216)">
<title>a_star_interpreter_1_object</title>
<polygon fill="white" stroke="transparent" points="-4,4 -4,-144 363,-144 363,4 -4,4"/>
<text text-anchor="start" x="8" y="-29" font-family="Monospace" font-size="10.00" fill="dimgray">Logtalk third&#45;party contributions</text>
<text text-anchor="start" x="8" y="-18" font-family="Monospace" font-size="10.00" fill="dimgray">Cross&#45;referencing diagram for object a_star_interpreter/1</text>
<text text-anchor="start" x="8" y="-7" font-family="Monospace" font-size="10.00" fill="dimgray">Generated on 2022&#45;06&#45;15, 20:26</text>
<g id="clust1" class="cluster">
<title>cluster_a_star_interpreter_1_object</title>
<g id="a_clust1"><a xlink:title="a_star_interpreter(W)">
<path fill="snow" stroke="dimgray" d="M116,-49C116,-49 243,-49 243,-49 249,-49 255,-55 255,-61 255,-61 255,-120 255,-120 255,-126 249,-132 243,-132 243,-132 116,-132 116,-132 110,-132 104,-126 104,-120 104,-120 104,-61 104,-61 104,-55 110,-49 116,-49"/>
<g id="a_clust1_0"><a xlink:href="https://github.com/LogtalkDotOrg/logtalk3/tree/97f68015cd02c25ab0cfccf279eecadc89630097/contributions/verdi_neruda/a_star_interpreter.lgt" xlink:title="https://github.com/LogtalkDotOrg/logtalk3/tree/97f68015cd02c25ab0cfccf279eecadc89630097/contributions/verdi_neruda/a_star_interpreter.lgt">
<text text-anchor="start" x="116.5" y="-115.5" font-family="Monospace" font-size="10.00" fill="dimgray">a_star_interpreter(W)</text>
</a>
</g>
</a>
</g>
</g>
<!-- f/4 -->
<g id="node1" class="node">
<title>f/4</title>
<g id="a_node1"><a xlink:href="https://github.com/LogtalkDotOrg/logtalk3/tree/97f68015cd02c25ab0cfccf279eecadc89630097/contributions/verdi_neruda/a_star_interpreter.lgt#L46" xlink:title="https://github.com/LogtalkDotOrg/logtalk3/tree/97f68015cd02c25ab0cfccf279eecadc89630097/contributions/verdi_neruda/a_star_interpreter.lgt#L46">
<polygon fill="cornsilk" stroke="black" points="206,-95 152,-95 152,-59 206,-59 206,-95"/>
<text text-anchor="start" x="162" y="-79.8" font-family="Monospace" font-size="9.00"> </text>
<text text-anchor="start" x="169" y="-79.2" font-family="Monospace" font-size="11.00">f/4</text>
<text text-anchor="start" x="191" y="-79.8" font-family="Monospace" font-size="9.00"> </text>
<text text-anchor="start" x="162" y="-68.8" font-family="Monospace" font-size="9.00"> </text>
<text text-anchor="start" x="168" y="-69.4" font-family="Monospace" font-size="7.00">local</text>
<text text-anchor="start" x="191" y="-68.8" font-family="Monospace" font-size="9.00"> </text>
</a>
</g>
</g>
</g>
</svg>
