<?xml version="1.0" encoding="UTF-8" standalone="no"?>
<!DOCTYPE svg PUBLIC "-//W3C//DTD SVG 1.1//EN"
 "http://www.w3.org/Graphics/SVG/1.1/DTD/svg11.dtd">
<!-- Generated by graphviz version 2.40.1 (20161225.0304)
 -->
<!-- Title: a_star_interpreter_1_object Pages: 1 -->
<svg width="367pt" height="279pt"
 viewBox="72.00 72.00 295.00 207.43" xmlns="http://www.w3.org/2000/svg" xmlns:xlink="http://www.w3.org/1999/xlink">
<g id="graph0" class="graph" transform="scale(1 1) rotate(0) translate(76 203.4264)">
<title>a_star_interpreter_1_object</title>
<polygon fill="#ffffff" stroke="transparent" points="-4,4 -4,-131.4264 219,-131.4264 219,4 -4,4"/>
<text text-anchor="start" x="8" y="-18" font-family="Courier,monospace" font-size="10.00" fill="#8b8989">Logtalk third&#45;party contributions</text>
<text text-anchor="start" x="8" y="-7" font-family="Courier,monospace" font-size="10.00" fill="#8b8989">Generated on 2019/04/14, 19:31</text>
<g id="clust1" class="cluster">
<title>cluster_a_star_interpreter_1_object</title>
<g id="a_clust1"><a xlink:href="https://github.com/LogtalkDotOrg/logtalk3/tree/master/contributions/verdi_neruda/a_star_interpreter.lgt" xlink:title="https://github.com/LogtalkDotOrg/logtalk3/tree/master/contributions/verdi_neruda/a_star_interpreter.lgt">
<path fill="#fffafa" stroke="#8b8989" d="M48,-38C48,-38 167,-38 167,-38 173,-38 179,-44 179,-50 179,-50 179,-107.4264 179,-107.4264 179,-113.4264 173,-119.4264 167,-119.4264 167,-119.4264 48,-119.4264 48,-119.4264 42,-119.4264 36,-113.4264 36,-107.4264 36,-107.4264 36,-50 36,-50 36,-44 42,-38 48,-38"/>
<text text-anchor="middle" x="107.5" y="-107.4264" font-family="Courier,monospace" font-size="10.00" fill="#8b8989">a_star_interpreter(W)</text>
</a>
</g>
</g>
<!-- f/4 -->
<g id="node1" class="node">
<title>f/4</title>
<g id="a_node1"><a xlink:href="https://github.com/LogtalkDotOrg/logtalk3/tree/master/contributions/verdi_neruda/a_star_interpreter.lgt#L13" xlink:title="https://github.com/LogtalkDotOrg/logtalk3/tree/master/contributions/verdi_neruda/a_star_interpreter.lgt#L13">
<ellipse fill="#f5f5dc" stroke="#000000" cx="107" cy="-69.2132" rx="35.2113" ry="21.4286"/>
<text text-anchor="start" x="90" y="-72.0132" font-family="Courier,monospace" font-size="9.00" fill="#000000"> </text>
<text text-anchor="start" x="97" y="-71.4132" font-family="Courier,monospace" font-size="11.00" fill="#000000">f/4</text>
<text text-anchor="start" x="118" y="-72.0132" font-family="Courier,monospace" font-size="9.00" fill="#000000"> </text>
<text text-anchor="start" x="90" y="-61.0132" font-family="Courier,monospace" font-size="9.00" fill="#000000"> </text>
<text text-anchor="start" x="96" y="-61.6132" font-family="Courier,monospace" font-size="7.00" fill="#000000">local</text>
<text text-anchor="start" x="118" y="-61.0132" font-family="Courier,monospace" font-size="9.00" fill="#000000"> </text>
</a>
</g>
</g>
</g>
</svg>
