<?xml version="1.0" encoding="UTF-8" standalone="no"?>
<?xml-stylesheet href="diagrams.css" type="text/css"?>
<!DOCTYPE svg PUBLIC "-//W3C//DTD SVG 1.1//EN"
 "http://www.w3.org/Graphics/SVG/1.1/DTD/svg11.dtd">
<!-- Generated by graphviz version 2.49.3 (20211023.0002)
 -->
<!-- Title: a_star_interpreter_1_object Pages: 1 -->
<svg width="453pt" height="292pt"
 viewBox="72.00 72.00 381.00 220.00" xmlns="http://www.w3.org/2000/svg" xmlns:xlink="http://www.w3.org/1999/xlink">
<g id="graph0" class="graph" transform="scale(1 1) rotate(0) translate(76 216)">
<title>a_star_interpreter_1_object</title>
<polygon fill="white" stroke="transparent" points="-4,4 -4,-144 305,-144 305,4 -4,4"/>
<text text-anchor="start" x="8" y="-29" font-family="Courier,monospace" font-size="10.00" fill="dimgray">Logtalk third&#45;party contributions</text>
<text text-anchor="start" x="8" y="-18" font-family="Courier,monospace" font-size="10.00" fill="dimgray">Cross&#45;referencing diagram for object a_star_interpreter/1</text>
<text text-anchor="start" x="8" y="-7" font-family="Courier,monospace" font-size="10.00" fill="dimgray">Generated on 2021&#45;11&#45;18, 19:47</text>
<g id="clust1" class="cluster">
<title>cluster_a_star_interpreter_1_object</title>
<g id="a_clust1"><a xlink:title="a_star_interpreter(W)">
<path fill="snow" stroke="dimgray" d="M98,-49C98,-49 203,-49 203,-49 209,-49 215,-55 215,-61 215,-61 215,-120 215,-120 215,-126 209,-132 203,-132 203,-132 98,-132 98,-132 92,-132 86,-126 86,-120 86,-120 86,-61 86,-61 86,-55 92,-49 98,-49"/>
<g id="a_clust1_0"><a xlink:href="https://github.com/LogtalkDotOrg/logtalk3/tree/00ea0ef7ab8123e2100dcb8b4438acc57114cd01/contributions/verdi_neruda/a_star_interpreter.lgt" xlink:title="https://github.com/LogtalkDotOrg/logtalk3/tree/00ea0ef7ab8123e2100dcb8b4438acc57114cd01/contributions/verdi_neruda/a_star_interpreter.lgt">
<text text-anchor="start" x="98.5" y="-115.5" font-family="Courier,monospace" font-size="10.00" fill="dimgray">a_star_interpreter(W)</text>
</a>
</g>
</a>
</g>
</g>
<!-- f/4 -->
<g id="node1" class="node">
<title>f/4</title>
<g id="a_node1"><a xlink:href="https://github.com/LogtalkDotOrg/logtalk3/tree/00ea0ef7ab8123e2100dcb8b4438acc57114cd01/contributions/verdi_neruda/a_star_interpreter.lgt#L46" xlink:title="https://github.com/LogtalkDotOrg/logtalk3/tree/00ea0ef7ab8123e2100dcb8b4438acc57114cd01/contributions/verdi_neruda/a_star_interpreter.lgt#L46">
<polygon fill="cornsilk" stroke="black" points="177,-95 123,-95 123,-59 177,-59 177,-95"/>
<text text-anchor="start" x="136" y="-79.8" font-family="Courier,monospace" font-size="9.00"> </text>
<text text-anchor="start" x="141.5" y="-79.2" font-family="Courier,monospace" font-size="11.00">f/4</text>
<text text-anchor="start" x="159" y="-79.8" font-family="Courier,monospace" font-size="9.00"> </text>
<text text-anchor="start" x="136" y="-68.8" font-family="Courier,monospace" font-size="9.00"> </text>
<text text-anchor="start" x="141" y="-69.4" font-family="Courier,monospace" font-size="7.00">local</text>
<text text-anchor="start" x="159" y="-68.8" font-family="Courier,monospace" font-size="9.00"> </text>
</a>
</g>
</g>
</g>
</svg>
