<?xml version="1.0" encoding="UTF-8" standalone="no"?>
<?xml-stylesheet href="diagrams.css" type="text/css"?>
<!DOCTYPE svg PUBLIC "-//W3C//DTD SVG 1.1//EN"
 "http://www.w3.org/Graphics/SVG/1.1/DTD/svg11.dtd">
<!-- Generated by graphviz version 10.0.1 (20240210.2158)
 -->
<!-- Title: a_star_interpreter_1_object Pages: 1 -->
<svg width="510pt" height="293pt"
 viewBox="72.00 72.00 438.00 221.00" xmlns="http://www.w3.org/2000/svg" xmlns:xlink="http://www.w3.org/1999/xlink">
<g id="graph0" class="graph" transform="scale(1 1) rotate(0) translate(76 217)">
<title>a_star_interpreter_1_object</title>
<polygon fill="white" stroke="none" points="-4,4 -4,-145 362,-145 362,4 -4,4"/>
<text text-anchor="start" x="8" y="-28.25" font-family="Monospace" font-size="10.00" fill="dimgray">Logtalk third&#45;party contributions</text>
<text text-anchor="start" x="8" y="-17" font-family="Monospace" font-size="10.00" fill="dimgray">Cross&#45;referencing diagram for object a_star_interpreter/1</text>
<text text-anchor="start" x="8" y="-5.75" font-family="Monospace" font-size="10.00" fill="dimgray">Generated on 2024&#45;03&#45;28, 19:49</text>
<g id="clust1" class="cluster">
<title>cluster_a_star_interpreter_1_object</title>
<g id="a_clust1"><a xlink:title="a_star_interpreter(W)">
<path fill="snow" stroke="dimgray" d="M116,-49.75C116,-49.75 242,-49.75 242,-49.75 248,-49.75 254,-55.75 254,-61.75 254,-61.75 254,-121 254,-121 254,-127 248,-133 242,-133 242,-133 116,-133 116,-133 110,-133 104,-127 104,-121 104,-121 104,-61.75 104,-61.75 104,-55.75 110,-49.75 116,-49.75"/>
<g id="a_clust1_0"><a xlink:href="https://github.com/LogtalkDotOrg/logtalk3/tree/871e8bdc13d4d515de2497731fb1720f6671a113/contributions/verdi_neruda/a_star_interpreter.lgt" xlink:title="https://github.com/LogtalkDotOrg/logtalk3/tree/871e8bdc13d4d515de2497731fb1720f6671a113/contributions/verdi_neruda/a_star_interpreter.lgt">
<text text-anchor="start" x="116" y="-115.5" font-family="Monospace" font-size="10.00" fill="dimgray">a_star_interpreter(W)</text>
</a>
</g>
</a>
</g>
</g>
<!-- f/4 -->
<g id="node1" class="node">
<title>f/4</title>
<g id="a_node1"><a xlink:href="https://github.com/LogtalkDotOrg/logtalk3/tree/871e8bdc13d4d515de2497731fb1720f6671a113/contributions/verdi_neruda/a_star_interpreter.lgt#L46" xlink:title="https://github.com/LogtalkDotOrg/logtalk3/tree/871e8bdc13d4d515de2497731fb1720f6671a113/contributions/verdi_neruda/a_star_interpreter.lgt#L46">
<polygon fill="cornsilk" stroke="black" points="206,-95.75 152,-95.75 152,-59.75 206,-59.75 206,-95.75"/>
<text text-anchor="start" x="162.88" y="-78.58" font-family="Monospace" font-size="9.00"> </text>
<text text-anchor="start" x="168.88" y="-77.8" font-family="Monospace" font-size="11.00">f/4</text>
<text text-anchor="start" x="189.88" y="-78.58" font-family="Monospace" font-size="9.00"> </text>
<text text-anchor="start" x="162.88" y="-67.7" font-family="Monospace" font-size="9.00"> </text>
<text text-anchor="start" x="167.75" y="-69.22" font-family="Monospace" font-size="7.00">local</text>
<text text-anchor="start" x="189.88" y="-67.7" font-family="Monospace" font-size="9.00"> </text>
</a>
</g>
</g>
</g>
</svg>
