<?xml version="1.0" encoding="UTF-8" standalone="no"?>
<!DOCTYPE svg PUBLIC "-//W3C//DTD SVG 1.1//EN"
 "http://www.w3.org/Graphics/SVG/1.1/DTD/svg11.dtd">
<!-- Generated by graphviz version 2.40.1 (20161225.0304)
 -->
<!-- Title: assertions_1_object Pages: 1 -->
<svg width="699pt" height="517pt"
 viewBox="72.00 72.00 627.00 445.43" xmlns="http://www.w3.org/2000/svg" xmlns:xlink="http://www.w3.org/1999/xlink">
<g id="graph0" class="graph" transform="scale(1 1) rotate(0) translate(76 441.4264)">
<title>assertions_1_object</title>
<polygon fill="#ffffff" stroke="transparent" points="-4,4 -4,-369.4264 551,-369.4264 551,4 -4,4"/>
<text text-anchor="start" x="8" y="-18" font-family="Courier,monospace" font-size="10.00" fill="#8b8989">Logtalk development tools</text>
<text text-anchor="start" x="8" y="-7" font-family="Courier,monospace" font-size="10.00" fill="#8b8989">Generated on 2019/04/12, 21:31</text>
<g id="clust1" class="cluster">
<title>cluster_assertions_1_object</title>
<g id="a_clust1"><a xlink:href="https://github.com/LogtalkDotOrg/logtalk3/tree/master/tools/assertions/assertions.lgt" xlink:title="https://github.com/LogtalkDotOrg/logtalk3/tree/master/tools/assertions/assertions.lgt">
<path fill="#fffafa" stroke="#8b8989" d="M20,-38C20,-38 527,-38 527,-38 533,-38 539,-44 539,-50 539,-50 539,-345.4264 539,-345.4264 539,-351.4264 533,-357.4264 527,-357.4264 527,-357.4264 20,-357.4264 20,-357.4264 14,-357.4264 8,-351.4264 8,-345.4264 8,-345.4264 8,-50 8,-50 8,-44 14,-38 20,-38"/>
<text text-anchor="middle" x="64.5" y="-345.4264" font-family="Courier,monospace" font-size="10.00" fill="#8b8989">assertions(Mode)</text>
</a>
</g>
</g>
<g id="clust2" class="cluster">
<title>cluster_other</title>
<g id="a_clust2"><a xlink:title="(external predicates)">
<path fill="#ffffff" stroke="#8b8989" d="M264,-48C264,-48 484,-48 484,-48 490,-48 496,-54 496,-60 496,-60 496,-111 496,-111 496,-117 490,-123 484,-123 484,-123 264,-123 264,-123 258,-123 252,-117 252,-111 252,-111 252,-60 252,-60 252,-54 258,-48 264,-48"/>
<text text-anchor="middle" x="323.5" y="-111" font-family="Courier,monospace" font-size="10.00" fill="#8b8989">(external predicates)</text>
</a>
</g>
</g>
<!-- assertion/1 -->
<g id="node1" class="node">
<title>assertion/1</title>
<g id="a_node1"><a xlink:href="https://github.com/LogtalkDotOrg/logtalk3/tree/master/tools/assertions/assertions.lgt#L32" xlink:title="https://github.com/LogtalkDotOrg/logtalk3/tree/master/tools/assertions/assertions.lgt#L32">
<ellipse fill="#00ff7f" stroke="#000000" cx="458" cy="-307.2132" rx="71.3357" ry="21.4286"/>
<text text-anchor="start" x="416" y="-310.0132" font-family="Courier,monospace" font-size="9.00" fill="#000000"> </text>
<text text-anchor="start" x="422" y="-309.4132" font-family="Courier,monospace" font-size="11.00" fill="#000000">assertion/1</text>
<text text-anchor="start" x="495" y="-310.0132" font-family="Courier,monospace" font-size="9.00" fill="#000000"> </text>
<text text-anchor="start" x="416" y="-299.0132" font-family="Courier,monospace" font-size="9.00" fill="#000000"> </text>
<text text-anchor="start" x="445.5" y="-299.6132" font-family="Courier,monospace" font-size="7.00" fill="#000000">public</text>
<text text-anchor="start" x="495" y="-299.0132" font-family="Courier,monospace" font-size="9.00" fill="#000000"> </text>
</a>
</g>
</g>
<!-- logtalk::print_message/3 -->
<g id="node4" class="node">
<title>logtalk::print_message/3</title>
<ellipse fill="#d3d3d3" stroke="#000000" stroke-dasharray="5,2" cx="374" cy="-76" rx="112.4004" ry="18"/>
<text text-anchor="start" x="289" y="-73.8" font-family="Courier,monospace" font-size="9.00" fill="#000000"> </text>
<text text-anchor="start" x="295" y="-73.2" font-family="Courier,monospace" font-size="11.00" fill="#000000">logtalk::print_message/3</text>
<text text-anchor="start" x="454" y="-73.8" font-family="Courier,monospace" font-size="9.00" fill="#000000"> </text>
</g>
<!-- assertion/1&#45;&gt;logtalk::print_message/3 -->
<g id="edge1" class="edge">
<title>assertion/1&#45;&gt;logtalk::print_message/3</title>
<g id="a_edge1"><a xlink:href="https://github.com/LogtalkDotOrg/logtalk3/tree/master/tools/assertions/assertions.lgt#L54" xlink:title="calls">
<path fill="none" stroke="#000000" d="M450.248,-285.8757C435.1856,-244.4156 401.9393,-152.9039 384.7542,-105.6014"/>
<polygon fill="#000000" stroke="#000000" points="384.654,-105.3253 378.8456,-101.0519 380.5564,-94.0466 384.654,-105.3253"/>
</a>
</g>
<g id="a_edge1&#45;label"><a xlink:href="https://github.com/LogtalkDotOrg/logtalk3/tree/master/tools/assertions/assertions.lgt#L54" xlink:title="https://github.com/LogtalkDotOrg/logtalk3/tree/master/tools/assertions/assertions.lgt#L54">
<text text-anchor="start" x="416" y="-187.8" font-family="Courier,monospace" font-size="9.00" fill="#000000">calls</text>
</a>
</g>
</g>
<!-- assertion/2 -->
<g id="node2" class="node">
<title>assertion/2</title>
<g id="a_node2"><a xlink:href="https://github.com/LogtalkDotOrg/logtalk3/tree/master/tools/assertions/assertions.lgt#L40" xlink:title="https://github.com/LogtalkDotOrg/logtalk3/tree/master/tools/assertions/assertions.lgt#L40">
<ellipse fill="#00ff7f" stroke="#000000" cx="297" cy="-307.2132" rx="71.3357" ry="21.4286"/>
<text text-anchor="start" x="255" y="-310.0132" font-family="Courier,monospace" font-size="9.00" fill="#000000"> </text>
<text text-anchor="start" x="261" y="-309.4132" font-family="Courier,monospace" font-size="11.00" fill="#000000">assertion/2</text>
<text text-anchor="start" x="334" y="-310.0132" font-family="Courier,monospace" font-size="9.00" fill="#000000"> </text>
<text text-anchor="start" x="255" y="-299.0132" font-family="Courier,monospace" font-size="9.00" fill="#000000"> </text>
<text text-anchor="start" x="284.5" y="-299.6132" font-family="Courier,monospace" font-size="7.00" fill="#000000">public</text>
<text text-anchor="start" x="334" y="-299.0132" font-family="Courier,monospace" font-size="9.00" fill="#000000"> </text>
</a>
</g>
</g>
<!-- assertion/2&#45;&gt;logtalk::print_message/3 -->
<g id="edge2" class="edge">
<title>assertion/2&#45;&gt;logtalk::print_message/3</title>
<g id="a_edge2"><a xlink:href="https://github.com/LogtalkDotOrg/logtalk3/tree/master/tools/assertions/assertions.lgt#L63" xlink:title="calls">
<path fill="none" stroke="#000000" d="M304.106,-285.8757C317.9132,-244.4156 348.389,-152.9039 364.142,-105.6014"/>
<polygon fill="#000000" stroke="#000000" points="364.1984,-105.4319 362.2991,-98.4753 367.99,-94.0466 364.1984,-105.4319"/>
</a>
</g>
<g id="a_edge2&#45;label"><a xlink:href="https://github.com/LogtalkDotOrg/logtalk3/tree/master/tools/assertions/assertions.lgt#L63" xlink:title="https://github.com/LogtalkDotOrg/logtalk3/tree/master/tools/assertions/assertions.lgt#L63">
<text text-anchor="start" x="336" y="-187.8" font-family="Courier,monospace" font-size="9.00" fill="#000000">calls</text>
</a>
</g>
</g>
<!-- goal_expansion/2 -->
<g id="node3" class="node">
<title>goal_expansion/2</title>
<g id="a_node3"><a xlink:href="https://github.com/LogtalkDotOrg/logtalk3/tree/master/tools/assertions/assertions.lgt#L74" xlink:title="https://github.com/LogtalkDotOrg/logtalk3/tree/master/tools/assertions/assertions.lgt#L74">
<ellipse fill="#f5f5dc" stroke="#000000" cx="113" cy="-307.2132" rx="94.5053" ry="21.4286"/>
<text text-anchor="start" x="54" y="-310.0132" font-family="Courier,monospace" font-size="9.00" fill="#000000"> </text>
<text text-anchor="start" x="60" y="-309.4132" font-family="Courier,monospace" font-size="11.00" fill="#000000">goal_expansion/2</text>
<text text-anchor="start" x="166" y="-310.0132" font-family="Courier,monospace" font-size="9.00" fill="#000000"> </text>
<text text-anchor="start" x="54" y="-299.0132" font-family="Courier,monospace" font-size="9.00" fill="#000000"> </text>
<text text-anchor="start" x="102" y="-299.6132" font-family="Courier,monospace" font-size="7.00" fill="#000000">local</text>
<text text-anchor="start" x="166" y="-299.0132" font-family="Courier,monospace" font-size="9.00" fill="#000000"> </text>
</a>
</g>
</g>
</g>
</svg>
