<?xml version="1.0" encoding="UTF-8" standalone="no"?>
<!DOCTYPE svg PUBLIC "-//W3C//DTD SVG 1.1//EN"
 "http://www.w3.org/Graphics/SVG/1.1/DTD/svg11.dtd">
<!-- Generated by graphviz version 2.40.1 (20161225.0304)
 -->
<!-- Title: assertions_1_object Pages: 1 -->
<svg width="699pt" height="535pt"
 viewBox="72.00 72.00 627.00 462.85" xmlns="http://www.w3.org/2000/svg" xmlns:xlink="http://www.w3.org/1999/xlink">
<g id="graph0" class="graph" transform="scale(1 1) rotate(0) translate(76 458.8528)">
<title>assertions_1_object</title>
<polygon fill="#ffffff" stroke="transparent" points="-4,4 -4,-386.8528 551,-386.8528 551,4 -4,4"/>
<text text-anchor="start" x="8" y="-29" font-family="Courier,monospace" font-size="10.00" fill="#8b8989">Logtalk development tools</text>
<text text-anchor="start" x="8" y="-18" font-family="Courier,monospace" font-size="10.00" fill="#8b8989">Cross&#45;referencing diagram</text>
<text text-anchor="start" x="8" y="-7" font-family="Courier,monospace" font-size="10.00" fill="#8b8989">Generated on 2019/04/17, 17:54</text>
<g id="clust1" class="cluster">
<title>cluster_assertions_1_object</title>
<g id="a_clust1"><a xlink:href="https://github.com/LogtalkDotOrg/logtalk3/tree/master/tools/assertions/assertions.lgt" xlink:title="https://github.com/LogtalkDotOrg/logtalk3/tree/master/tools/assertions/assertions.lgt">
<path fill="#fffafa" stroke="#8b8989" d="M20,-49C20,-49 527,-49 527,-49 533,-49 539,-55 539,-61 539,-61 539,-362.8528 539,-362.8528 539,-368.8528 533,-374.8528 527,-374.8528 527,-374.8528 20,-374.8528 20,-374.8528 14,-374.8528 8,-368.8528 8,-362.8528 8,-362.8528 8,-61 8,-61 8,-55 14,-49 20,-49"/>
<text text-anchor="middle" x="64.5" y="-362.8528" font-family="Courier,monospace" font-size="10.00" fill="#8b8989">assertions(Mode)</text>
</a>
</g>
</g>
<g id="clust2" class="cluster">
<title>cluster_other</title>
<g id="a_clust2"><a xlink:title="(external predicates)">
<path fill="#ffffff" stroke="#8b8989" d="M231,-59C231,-59 491,-59 491,-59 497,-59 503,-65 503,-71 503,-71 503,-128.4264 503,-128.4264 503,-134.4264 497,-140.4264 491,-140.4264 491,-140.4264 231,-140.4264 231,-140.4264 225,-140.4264 219,-134.4264 219,-128.4264 219,-128.4264 219,-71 219,-71 219,-65 225,-59 231,-59"/>
<text text-anchor="middle" x="290.5" y="-128.4264" font-family="Courier,monospace" font-size="10.00" fill="#8b8989">(external predicates)</text>
</a>
</g>
</g>
<!-- assertion/1 -->
<g id="node1" class="node">
<title>assertion/1</title>
<g id="a_node1"><a xlink:href="https://github.com/LogtalkDotOrg/logtalk3/tree/master/tools/assertions/assertions.lgt#L32" xlink:title="https://github.com/LogtalkDotOrg/logtalk3/tree/master/tools/assertions/assertions.lgt#L32">
<ellipse fill="#00ff7f" stroke="#000000" cx="458" cy="-324.6396" rx="71.3357" ry="21.4286"/>
<text text-anchor="start" x="416" y="-327.4396" font-family="Courier,monospace" font-size="9.00" fill="#000000"> </text>
<text text-anchor="start" x="422" y="-326.8396" font-family="Courier,monospace" font-size="11.00" fill="#000000">assertion/1</text>
<text text-anchor="start" x="495" y="-327.4396" font-family="Courier,monospace" font-size="9.00" fill="#000000"> </text>
<text text-anchor="start" x="416" y="-316.4396" font-family="Courier,monospace" font-size="9.00" fill="#000000"> </text>
<text text-anchor="start" x="445.5" y="-317.0396" font-family="Courier,monospace" font-size="7.00" fill="#000000">public</text>
<text text-anchor="start" x="495" y="-316.4396" font-family="Courier,monospace" font-size="9.00" fill="#000000"> </text>
</a>
</g>
</g>
<!-- logtalk::print_message/3 -->
<g id="node4" class="node">
<title>logtalk::print_message/3</title>
<g id="a_node4"><a xlink:href="https://logtalk.org/library/logtalk_0.html#print_message/3" xlink:title="https://logtalk.org/library/logtalk_0.html#print_message/3">
<ellipse fill="#d3d3d3" stroke="#000000" stroke-dasharray="5,2" cx="361" cy="-90.2132" rx="132.4583" ry="21.4286"/>
<text text-anchor="start" x="276" y="-93.0132" font-family="Courier,monospace" font-size="9.00" fill="#000000"> </text>
<text text-anchor="start" x="282" y="-92.4132" font-family="Courier,monospace" font-size="11.00" fill="#000000">logtalk::print_message/3</text>
<text text-anchor="start" x="441" y="-93.0132" font-family="Courier,monospace" font-size="9.00" fill="#000000"> </text>
<text text-anchor="start" x="276" y="-82.0132" font-family="Courier,monospace" font-size="9.00" fill="#000000"> </text>
<text text-anchor="start" x="344.5" y="-82.6132" font-family="Courier,monospace" font-size="7.00" fill="#000000">external</text>
<text text-anchor="start" x="441" y="-82.0132" font-family="Courier,monospace" font-size="9.00" fill="#000000"> </text>
</a>
</g>
</g>
<!-- assertion/1&#45;&gt;logtalk::print_message/3 -->
<g id="edge1" class="edge">
<title>assertion/1&#45;&gt;logtalk::print_message/3</title>
<g id="a_edge1"><a xlink:href="https://github.com/LogtalkDotOrg/logtalk3/tree/master/tools/assertions/assertions.lgt#L54" xlink:title="calls">
<path fill="none" stroke="#000000" d="M449.2208,-303.4224C432.2029,-262.2941 394.6296,-171.4881 374.4459,-122.7088"/>
<polygon fill="#000000" stroke="#000000" points="374.4174,-122.6397 368.4272,-118.6249 369.8292,-111.5514 374.4174,-122.6397"/>
</a>
</g>
<g id="a_edge1&#45;label"><a xlink:href="https://github.com/LogtalkDotOrg/logtalk3/tree/master/tools/assertions/assertions.lgt#L54" xlink:title="https://github.com/LogtalkDotOrg/logtalk3/tree/master/tools/assertions/assertions.lgt#L54">
<text text-anchor="start" x="411" y="-205.2264" font-family="Courier,monospace" font-size="9.00" fill="#000000">calls</text>
</a>
</g>
</g>
<!-- assertion/2 -->
<g id="node2" class="node">
<title>assertion/2</title>
<g id="a_node2"><a xlink:href="https://github.com/LogtalkDotOrg/logtalk3/tree/master/tools/assertions/assertions.lgt#L40" xlink:title="https://github.com/LogtalkDotOrg/logtalk3/tree/master/tools/assertions/assertions.lgt#L40">
<ellipse fill="#00ff7f" stroke="#000000" cx="297" cy="-324.6396" rx="71.3357" ry="21.4286"/>
<text text-anchor="start" x="255" y="-327.4396" font-family="Courier,monospace" font-size="9.00" fill="#000000"> </text>
<text text-anchor="start" x="261" y="-326.8396" font-family="Courier,monospace" font-size="11.00" fill="#000000">assertion/2</text>
<text text-anchor="start" x="334" y="-327.4396" font-family="Courier,monospace" font-size="9.00" fill="#000000"> </text>
<text text-anchor="start" x="255" y="-316.4396" font-family="Courier,monospace" font-size="9.00" fill="#000000"> </text>
<text text-anchor="start" x="284.5" y="-317.0396" font-family="Courier,monospace" font-size="7.00" fill="#000000">public</text>
<text text-anchor="start" x="334" y="-316.4396" font-family="Courier,monospace" font-size="9.00" fill="#000000"> </text>
</a>
</g>
</g>
<!-- assertion/2&#45;&gt;logtalk::print_message/3 -->
<g id="edge2" class="edge">
<title>assertion/2&#45;&gt;logtalk::print_message/3</title>
<g id="a_edge2"><a xlink:href="https://github.com/LogtalkDotOrg/logtalk3/tree/master/tools/assertions/assertions.lgt#L63" xlink:title="calls">
<path fill="none" stroke="#000000" d="M302.7925,-303.4224C313.9733,-262.468 338.602,-172.2551 351.9589,-123.3298"/>
<polygon fill="#000000" stroke="#000000" points="352.014,-123.1278 349.7355,-116.2861 355.1745,-111.5514 352.014,-123.1278"/>
</a>
</g>
<g id="a_edge2&#45;label"><a xlink:href="https://github.com/LogtalkDotOrg/logtalk3/tree/master/tools/assertions/assertions.lgt#L63" xlink:title="https://github.com/LogtalkDotOrg/logtalk3/tree/master/tools/assertions/assertions.lgt#L63">
<text text-anchor="start" x="330" y="-205.2264" font-family="Courier,monospace" font-size="9.00" fill="#000000">calls</text>
</a>
</g>
</g>
<!-- goal_expansion/2 -->
<g id="node3" class="node">
<title>goal_expansion/2</title>
<g id="a_node3"><a xlink:href="https://github.com/LogtalkDotOrg/logtalk3/tree/master/tools/assertions/assertions.lgt#L74" xlink:title="https://github.com/LogtalkDotOrg/logtalk3/tree/master/tools/assertions/assertions.lgt#L74">
<ellipse fill="#f5f5dc" stroke="#000000" cx="113" cy="-324.6396" rx="94.5053" ry="21.4286"/>
<text text-anchor="start" x="54" y="-327.4396" font-family="Courier,monospace" font-size="9.00" fill="#000000"> </text>
<text text-anchor="start" x="60" y="-326.8396" font-family="Courier,monospace" font-size="11.00" fill="#000000">goal_expansion/2</text>
<text text-anchor="start" x="166" y="-327.4396" font-family="Courier,monospace" font-size="9.00" fill="#000000"> </text>
<text text-anchor="start" x="54" y="-316.4396" font-family="Courier,monospace" font-size="9.00" fill="#000000"> </text>
<text text-anchor="start" x="102" y="-317.0396" font-family="Courier,monospace" font-size="7.00" fill="#000000">local</text>
<text text-anchor="start" x="166" y="-316.4396" font-family="Courier,monospace" font-size="9.00" fill="#000000"> </text>
</a>
</g>
</g>
</g>
</svg>
