<?xml version="1.0" encoding="UTF-8" standalone="no"?>
<?xml-stylesheet href="diagrams.css" type="text/css"?>
<!DOCTYPE svg PUBLIC "-//W3C//DTD SVG 1.1//EN"
 "http://www.w3.org/Graphics/SVG/1.1/DTD/svg11.dtd">
<!-- Generated by graphviz version 10.0.1 (20240210.2158)
 -->
<!-- Title: assignvarsp_protocol Pages: 1 -->
<svg width="589pt" height="293pt"
 viewBox="72.00 72.00 517.00 221.00" xmlns="http://www.w3.org/2000/svg" xmlns:xlink="http://www.w3.org/1999/xlink">
<g id="graph0" class="graph" transform="scale(1 1) rotate(0) translate(76 217)">
<title>assignvarsp_protocol</title>
<polygon fill="white" stroke="none" points="-4,4 -4,-145 441,-145 441,4 -4,4"/>
<text text-anchor="start" x="8" y="-28.25" font-family="Monospace" font-size="10.00" fill="dimgray">Logtalk library</text>
<text text-anchor="start" x="8" y="-17" font-family="Monospace" font-size="10.00" fill="dimgray">Cross&#45;referencing diagram for protocol assignvarsp</text>
<text text-anchor="start" x="8" y="-5.75" font-family="Monospace" font-size="10.00" fill="dimgray">Generated on 2024&#45;03&#45;05, 23:57</text>
<g id="clust1" class="cluster">
<title>cluster_assignvarsp_protocol</title>
<g id="a_clust1"><a xlink:title="assignvarsp">
<path fill="snow" stroke="dimgray" d="M20,-49.75C20,-49.75 417,-49.75 417,-49.75 423,-49.75 429,-55.75 429,-61.75 429,-61.75 429,-121 429,-121 429,-127 423,-133 417,-133 417,-133 20,-133 20,-133 14,-133 8,-127 8,-121 8,-121 8,-61.75 8,-61.75 8,-55.75 14,-49.75 20,-49.75"/>
<g id="a_clust1_0"><a xlink:href="https://github.com/LogtalkDotOrg/logtalk3/tree/02c915c757b7175af2372f6f3ca2fbe4872901c9/library/assignvars/assignvarsp.lgt" xlink:title="https://github.com/LogtalkDotOrg/logtalk3/tree/02c915c757b7175af2372f6f3ca2fbe4872901c9/library/assignvars/assignvarsp.lgt">
<text text-anchor="start" x="20" y="-115.5" font-family="Monospace" font-size="10.00" fill="dimgray">assignvarsp</text>
</a>
</g>
</a>
</g>
</g>
<!-- assignable/1 -->
<g id="node1" class="node">
<title>assignable/1</title>
<g id="a_node1"><a xlink:href="https://github.com/LogtalkDotOrg/logtalk3/tree/02c915c757b7175af2372f6f3ca2fbe4872901c9/library/assignvars/assignvarsp.lgt#L39" xlink:title="https://github.com/LogtalkDotOrg/logtalk3/tree/02c915c757b7175af2372f6f3ca2fbe4872901c9/library/assignvars/assignvarsp.lgt#L39">
<polygon fill="springgreen" stroke="black" points="125.5,-95.75 18.5,-95.75 18.5,-59.75 125.5,-59.75 125.5,-95.75"/>
<text text-anchor="start" x="26.38" y="-78.58" font-family="Monospace" font-size="9.00"> </text>
<text text-anchor="start" x="31.5" y="-77.8" font-family="Monospace" font-size="11.00">assignable/1</text>
<text text-anchor="start" x="112.38" y="-78.58" font-family="Monospace" font-size="9.00"> </text>
<text text-anchor="start" x="26.38" y="-67.7" font-family="Monospace" font-size="9.00"> </text>
<text text-anchor="start" x="58.5" y="-69.22" font-family="Monospace" font-size="7.00">public</text>
<text text-anchor="start" x="112.38" y="-67.7" font-family="Monospace" font-size="9.00"> </text>
</a>
</g>
</g>
<!-- assignable/2 -->
<g id="node2" class="node">
<title>assignable/2</title>
<g id="a_node2"><a xlink:href="https://github.com/LogtalkDotOrg/logtalk3/tree/02c915c757b7175af2372f6f3ca2fbe4872901c9/library/assignvars/assignvarsp.lgt#L49" xlink:title="https://github.com/LogtalkDotOrg/logtalk3/tree/02c915c757b7175af2372f6f3ca2fbe4872901c9/library/assignvars/assignvarsp.lgt#L49">
<polygon fill="springgreen" stroke="black" points="250.5,-95.75 143.5,-95.75 143.5,-59.75 250.5,-59.75 250.5,-95.75"/>
<text text-anchor="start" x="151.38" y="-78.58" font-family="Monospace" font-size="9.00"> </text>
<text text-anchor="start" x="156.5" y="-77.8" font-family="Monospace" font-size="11.00">assignable/2</text>
<text text-anchor="start" x="237.38" y="-78.58" font-family="Monospace" font-size="9.00"> </text>
<text text-anchor="start" x="151.38" y="-67.7" font-family="Monospace" font-size="9.00"> </text>
<text text-anchor="start" x="183.5" y="-69.22" font-family="Monospace" font-size="7.00">public</text>
<text text-anchor="start" x="237.38" y="-67.7" font-family="Monospace" font-size="9.00"> </text>
</a>
</g>
</g>
<!-- (&lt;=)/2 -->
<g id="node3" class="node">
<title>(&lt;=)/2</title>
<g id="a_node3"><a xlink:href="https://github.com/LogtalkDotOrg/logtalk3/tree/02c915c757b7175af2372f6f3ca2fbe4872901c9/library/assignvars/assignvarsp.lgt#L60" xlink:title="https://github.com/LogtalkDotOrg/logtalk3/tree/02c915c757b7175af2372f6f3ca2fbe4872901c9/library/assignvars/assignvarsp.lgt#L60">
<polygon fill="springgreen" stroke="black" points="335,-95.75 269,-95.75 269,-59.75 335,-59.75 335,-95.75"/>
<text text-anchor="start" x="276.88" y="-78.58" font-family="Monospace" font-size="9.00"> </text>
<text text-anchor="start" x="281.75" y="-77.8" font-family="Monospace" font-size="11.00">(&lt;=)/2</text>
<text text-anchor="start" x="321.88" y="-78.58" font-family="Monospace" font-size="9.00"> </text>
<text text-anchor="start" x="276.88" y="-67.7" font-family="Monospace" font-size="9.00"> </text>
<text text-anchor="start" x="288.5" y="-69.22" font-family="Monospace" font-size="7.00">public</text>
<text text-anchor="start" x="321.88" y="-67.7" font-family="Monospace" font-size="9.00"> </text>
</a>
</g>
</g>
<!-- (=&gt;)/2 -->
<g id="node4" class="node">
<title>(=&gt;)/2</title>
<g id="a_node4"><a xlink:href="https://github.com/LogtalkDotOrg/logtalk3/tree/02c915c757b7175af2372f6f3ca2fbe4872901c9/library/assignvars/assignvarsp.lgt#L71" xlink:title="https://github.com/LogtalkDotOrg/logtalk3/tree/02c915c757b7175af2372f6f3ca2fbe4872901c9/library/assignvars/assignvarsp.lgt#L71">
<polygon fill="springgreen" stroke="black" points="419,-95.75 353,-95.75 353,-59.75 419,-59.75 419,-95.75"/>
<text text-anchor="start" x="360.88" y="-78.58" font-family="Monospace" font-size="9.00"> </text>
<text text-anchor="start" x="365.75" y="-77.8" font-family="Monospace" font-size="11.00">(=&gt;)/2</text>
<text text-anchor="start" x="405.88" y="-78.58" font-family="Monospace" font-size="9.00"> </text>
<text text-anchor="start" x="360.88" y="-67.7" font-family="Monospace" font-size="9.00"> </text>
<text text-anchor="start" x="372.5" y="-69.22" font-family="Monospace" font-size="7.00">public</text>
<text text-anchor="start" x="405.88" y="-67.7" font-family="Monospace" font-size="9.00"> </text>
</a>
</g>
</g>
</g>
</svg>
