<?xml version="1.0" encoding="UTF-8" standalone="no"?>
<?xml-stylesheet href="diagrams.css" type="text/css"?>
<!DOCTYPE svg PUBLIC "-//W3C//DTD SVG 1.1//EN"
 "http://www.w3.org/Graphics/SVG/1.1/DTD/svg11.dtd">
<!-- Generated by graphviz version 12.1.1 (20240910.0053)
 -->
<!-- Title: assignvarsp_protocol Pages: 1 -->
<svg width="589pt" height="299pt"
 viewBox="72.00 72.00 517.00 227.00" xmlns="http://www.w3.org/2000/svg" xmlns:xlink="http://www.w3.org/1999/xlink">
<g id="graph0" class="graph" transform="scale(1 1) rotate(0) translate(76 223)">
<title>assignvarsp_protocol</title>
<polygon fill="white" stroke="none" points="-4,4 -4,-151 441,-151 441,4 -4,4"/>
<text text-anchor="start" x="8" y="-32.75" font-family="Monospace" font-size="10.00" fill="dimgray">Logtalk library</text>
<text text-anchor="start" x="8" y="-20" font-family="Monospace" font-size="10.00" fill="dimgray">Cross&#45;referencing diagram for protocol assignvarsp</text>
<text text-anchor="start" x="8" y="-7.25" font-family="Monospace" font-size="10.00" fill="dimgray">Generated on 2024&#45;09&#45;26, 15:32</text>
<g id="clust1" class="cluster">
<title>cluster_assignvarsp_protocol</title>
<g id="a_clust1"><a xlink:title="assignvarsp">
<path fill="snow" stroke="dimgray" d="M20,-54.25C20,-54.25 417,-54.25 417,-54.25 423,-54.25 429,-60.25 429,-66.25 429,-66.25 429,-127 429,-127 429,-133 423,-139 417,-139 417,-139 20,-139 20,-139 14,-139 8,-133 8,-127 8,-127 8,-66.25 8,-66.25 8,-60.25 14,-54.25 20,-54.25"/>
<g id="a_clust1_0"><a xlink:href="https://github.com/LogtalkDotOrg/logtalk3/tree/fd3279089d0ff477ce70e166f97d363897fefbf4/library/assignvars/assignvarsp.lgt" xlink:title="https://github.com/LogtalkDotOrg/logtalk3/tree/fd3279089d0ff477ce70e166f97d363897fefbf4/library/assignvars/assignvarsp.lgt">
<text text-anchor="start" x="20" y="-121.5" font-family="Monospace" font-size="10.00" fill="dimgray">assignvarsp</text>
</a>
</g>
</a>
</g>
</g>
<!-- assignable/1 -->
<g id="node1" class="node">
<title>assignable/1</title>
<g id="a_node1"><a xlink:href="https://github.com/LogtalkDotOrg/logtalk3/tree/fd3279089d0ff477ce70e166f97d363897fefbf4/library/assignvars/assignvarsp.lgt#L39" xlink:title="https://github.com/LogtalkDotOrg/logtalk3/tree/fd3279089d0ff477ce70e166f97d363897fefbf4/library/assignvars/assignvarsp.lgt#L39">
<polygon fill="springgreen" stroke="black" points="125.5,-100.25 18.5,-100.25 18.5,-64.25 125.5,-64.25 125.5,-100.25"/>
<text text-anchor="start" x="26.38" y="-84.83" font-family="Monospace" font-size="9.00"> </text>
<text text-anchor="start" x="31.5" y="-83.8" font-family="Monospace" font-size="11.00">assignable/1</text>
<text text-anchor="start" x="112.38" y="-84.83" font-family="Monospace" font-size="9.00"> </text>
<text text-anchor="start" x="26.38" y="-72.7" font-family="Monospace" font-size="9.00"> </text>
<text text-anchor="start" x="58.5" y="-73.6" font-family="Monospace" font-size="7.00">public</text>
<text text-anchor="start" x="112.38" y="-72.7" font-family="Monospace" font-size="9.00"> </text>
</a>
</g>
</g>
<!-- assignable/2 -->
<g id="node2" class="node">
<title>assignable/2</title>
<g id="a_node2"><a xlink:href="https://github.com/LogtalkDotOrg/logtalk3/tree/fd3279089d0ff477ce70e166f97d363897fefbf4/library/assignvars/assignvarsp.lgt#L49" xlink:title="https://github.com/LogtalkDotOrg/logtalk3/tree/fd3279089d0ff477ce70e166f97d363897fefbf4/library/assignvars/assignvarsp.lgt#L49">
<polygon fill="springgreen" stroke="black" points="250.5,-100.25 143.5,-100.25 143.5,-64.25 250.5,-64.25 250.5,-100.25"/>
<text text-anchor="start" x="151.38" y="-84.83" font-family="Monospace" font-size="9.00"> </text>
<text text-anchor="start" x="156.5" y="-83.8" font-family="Monospace" font-size="11.00">assignable/2</text>
<text text-anchor="start" x="237.38" y="-84.83" font-family="Monospace" font-size="9.00"> </text>
<text text-anchor="start" x="151.38" y="-72.7" font-family="Monospace" font-size="9.00"> </text>
<text text-anchor="start" x="183.5" y="-73.6" font-family="Monospace" font-size="7.00">public</text>
<text text-anchor="start" x="237.38" y="-72.7" font-family="Monospace" font-size="9.00"> </text>
</a>
</g>
</g>
<!-- (&lt;=)/2 -->
<g id="node3" class="node">
<title>(&lt;=)/2</title>
<g id="a_node3"><a xlink:href="https://github.com/LogtalkDotOrg/logtalk3/tree/fd3279089d0ff477ce70e166f97d363897fefbf4/library/assignvars/assignvarsp.lgt#L60" xlink:title="https://github.com/LogtalkDotOrg/logtalk3/tree/fd3279089d0ff477ce70e166f97d363897fefbf4/library/assignvars/assignvarsp.lgt#L60">
<polygon fill="springgreen" stroke="black" points="335,-100.25 269,-100.25 269,-64.25 335,-64.25 335,-100.25"/>
<text text-anchor="start" x="276.88" y="-84.83" font-family="Monospace" font-size="9.00"> </text>
<text text-anchor="start" x="281.75" y="-83.8" font-family="Monospace" font-size="11.00">(&lt;=)/2</text>
<text text-anchor="start" x="321.88" y="-84.83" font-family="Monospace" font-size="9.00"> </text>
<text text-anchor="start" x="276.88" y="-72.7" font-family="Monospace" font-size="9.00"> </text>
<text text-anchor="start" x="288.5" y="-73.6" font-family="Monospace" font-size="7.00">public</text>
<text text-anchor="start" x="321.88" y="-72.7" font-family="Monospace" font-size="9.00"> </text>
</a>
</g>
</g>
<!-- (=&gt;)/2 -->
<g id="node4" class="node">
<title>(=&gt;)/2</title>
<g id="a_node4"><a xlink:href="https://github.com/LogtalkDotOrg/logtalk3/tree/fd3279089d0ff477ce70e166f97d363897fefbf4/library/assignvars/assignvarsp.lgt#L71" xlink:title="https://github.com/LogtalkDotOrg/logtalk3/tree/fd3279089d0ff477ce70e166f97d363897fefbf4/library/assignvars/assignvarsp.lgt#L71">
<polygon fill="springgreen" stroke="black" points="419,-100.25 353,-100.25 353,-64.25 419,-64.25 419,-100.25"/>
<text text-anchor="start" x="360.88" y="-84.83" font-family="Monospace" font-size="9.00"> </text>
<text text-anchor="start" x="365.75" y="-83.8" font-family="Monospace" font-size="11.00">(=&gt;)/2</text>
<text text-anchor="start" x="405.88" y="-84.83" font-family="Monospace" font-size="9.00"> </text>
<text text-anchor="start" x="360.88" y="-72.7" font-family="Monospace" font-size="9.00"> </text>
<text text-anchor="start" x="372.5" y="-73.6" font-family="Monospace" font-size="7.00">public</text>
<text text-anchor="start" x="405.88" y="-72.7" font-family="Monospace" font-size="9.00"> </text>
</a>
</g>
</g>
</g>
</svg>
