<?xml version="1.0" encoding="UTF-8" standalone="no"?>
<!DOCTYPE svg PUBLIC "-//W3C//DTD SVG 1.1//EN"
 "http://www.w3.org/Graphics/SVG/1.1/DTD/svg11.dtd">
<!-- Generated by graphviz version 2.40.1 (20161225.0304)
 -->
<!-- Title: assignvars_object Pages: 1 -->
<svg width="739pt" height="279pt"
 viewBox="72.00 72.00 667.00 207.43" xmlns="http://www.w3.org/2000/svg" xmlns:xlink="http://www.w3.org/1999/xlink">
<g id="graph0" class="graph" transform="scale(1 1) rotate(0) translate(76 203.4264)">
<title>assignvars_object</title>
<polygon fill="#ffffff" stroke="transparent" points="-4,4 -4,-131.4264 591,-131.4264 591,4 -4,4"/>
<text text-anchor="start" x="8" y="-18" font-family="Courier,monospace" font-size="10.00" fill="#8b8989">Logtalk library</text>
<text text-anchor="start" x="8" y="-7" font-family="Courier,monospace" font-size="10.00" fill="#8b8989">Generated on 2019/04/08, 18:41</text>
<g id="clust1" class="cluster">
<title>cluster_assignvars_object</title>
<g id="a_clust1"><a xlink:href="https://github.com/LogtalkDotOrg/logtalk3/tree/master/library/nd_assignvars.lgt" xlink:title="https://github.com/LogtalkDotOrg/logtalk3/tree/master/library/nd_assignvars.lgt">
<path fill="#fffafa" stroke="#8b8989" d="M20,-38C20,-38 567,-38 567,-38 573,-38 579,-44 579,-50 579,-50 579,-107.4264 579,-107.4264 579,-113.4264 573,-119.4264 567,-119.4264 567,-119.4264 20,-119.4264 20,-119.4264 14,-119.4264 8,-113.4264 8,-107.4264 8,-107.4264 8,-50 8,-50 8,-44 14,-38 20,-38"/>
<text text-anchor="middle" x="46.5" y="-107.4264" font-family="Courier,monospace" font-size="10.00" fill="#8b8989">assignvars</text>
</a>
</g>
</g>
<!-- (=&gt;)/2 -->
<g id="node1" class="node">
<title>(=&gt;)/2</title>
<ellipse fill="#f5f5dc" stroke="#000000" cx="521" cy="-69.2132" rx="48.1667" ry="21.4286"/>
<text text-anchor="start" x="495" y="-72.0132" font-family="Courier,monospace" font-size="9.00" fill="#000000"> </text>
<text text-anchor="start" x="501" y="-71.4132" font-family="Courier,monospace" font-size="11.00" fill="#000000">(=&gt;)/2</text>
<text text-anchor="start" x="541" y="-72.0132" font-family="Courier,monospace" font-size="9.00" fill="#000000"> </text>
<text text-anchor="start" x="495" y="-61.0132" font-family="Courier,monospace" font-size="9.00" fill="#000000"> </text>
<text text-anchor="start" x="510" y="-61.6132" font-family="Courier,monospace" font-size="7.00" fill="#000000">local</text>
<text text-anchor="start" x="541" y="-61.0132" font-family="Courier,monospace" font-size="9.00" fill="#000000"> </text>
</g>
<!-- (&lt;=)/2 -->
<g id="node2" class="node">
<title>(&lt;=)/2</title>
<ellipse fill="#f5f5dc" stroke="#000000" cx="407" cy="-69.2132" rx="48.1667" ry="21.4286"/>
<text text-anchor="start" x="381" y="-72.0132" font-family="Courier,monospace" font-size="9.00" fill="#000000"> </text>
<text text-anchor="start" x="387" y="-71.4132" font-family="Courier,monospace" font-size="11.00" fill="#000000">(&lt;=)/2</text>
<text text-anchor="start" x="427" y="-72.0132" font-family="Courier,monospace" font-size="9.00" fill="#000000"> </text>
<text text-anchor="start" x="381" y="-61.0132" font-family="Courier,monospace" font-size="9.00" fill="#000000"> </text>
<text text-anchor="start" x="396" y="-61.6132" font-family="Courier,monospace" font-size="7.00" fill="#000000">local</text>
<text text-anchor="start" x="427" y="-61.0132" font-family="Courier,monospace" font-size="9.00" fill="#000000"> </text>
</g>
<!-- assignable/1 -->
<g id="node3" class="node">
<title>assignable/1</title>
<ellipse fill="#f5f5dc" stroke="#000000" cx="265" cy="-69.2132" rx="76.2353" ry="21.4286"/>
<text text-anchor="start" x="219" y="-72.0132" font-family="Courier,monospace" font-size="9.00" fill="#000000"> </text>
<text text-anchor="start" x="225" y="-71.4132" font-family="Courier,monospace" font-size="11.00" fill="#000000">assignable/1</text>
<text text-anchor="start" x="305" y="-72.0132" font-family="Courier,monospace" font-size="9.00" fill="#000000"> </text>
<text text-anchor="start" x="219" y="-61.0132" font-family="Courier,monospace" font-size="9.00" fill="#000000"> </text>
<text text-anchor="start" x="254" y="-61.6132" font-family="Courier,monospace" font-size="7.00" fill="#000000">local</text>
<text text-anchor="start" x="305" y="-61.0132" font-family="Courier,monospace" font-size="9.00" fill="#000000"> </text>
</g>
<!-- assignable/2 -->
<g id="node4" class="node">
<title>assignable/2</title>
<ellipse fill="#f5f5dc" stroke="#000000" cx="94" cy="-69.2132" rx="76.2353" ry="21.4286"/>
<text text-anchor="start" x="48" y="-72.0132" font-family="Courier,monospace" font-size="9.00" fill="#000000"> </text>
<text text-anchor="start" x="54" y="-71.4132" font-family="Courier,monospace" font-size="11.00" fill="#000000">assignable/2</text>
<text text-anchor="start" x="134" y="-72.0132" font-family="Courier,monospace" font-size="9.00" fill="#000000"> </text>
<text text-anchor="start" x="48" y="-61.0132" font-family="Courier,monospace" font-size="9.00" fill="#000000"> </text>
<text text-anchor="start" x="83" y="-61.6132" font-family="Courier,monospace" font-size="7.00" fill="#000000">local</text>
<text text-anchor="start" x="134" y="-61.0132" font-family="Courier,monospace" font-size="9.00" fill="#000000"> </text>
</g>
</g>
</svg>
