<?xml version="1.0" encoding="UTF-8" standalone="no"?>
<?xml-stylesheet href="diagrams.css" type="text/css"?>
<!DOCTYPE svg PUBLIC "-//W3C//DTD SVG 1.1//EN"
 "http://www.w3.org/Graphics/SVG/1.1/DTD/svg11.dtd">
<!-- Generated by graphviz version 12.2.1 (20241206.2353)
 -->
<!-- Title: assignvars_object Pages: 1 -->
<svg width="592pt" height="299pt"
 viewBox="72.00 72.00 520.00 227.00" xmlns="http://www.w3.org/2000/svg" xmlns:xlink="http://www.w3.org/1999/xlink">
<g id="graph0" class="graph" transform="scale(1 1) rotate(0) translate(76 223)">
<title>assignvars_object</title>
<polygon fill="white" stroke="none" points="-4,4 -4,-151 444,-151 444,4 -4,4"/>
<text text-anchor="start" x="8" y="-32.75" font-family="Monospace" font-size="10.00" fill="dimgray">Logtalk library</text>
<text text-anchor="start" x="8" y="-20" font-family="Monospace" font-size="10.00" fill="dimgray">Cross&#45;referencing diagram for object assignvars</text>
<text text-anchor="start" x="8" y="-7.25" font-family="Monospace" font-size="10.00" fill="dimgray">Generated on 2025&#45;02&#45;20, 21:26</text>
<g id="clust1" class="cluster">
<title>cluster_assignvars_object</title>
<g id="a_clust1"><a xlink:title="assignvars">
<path fill="snow" stroke="dimgray" d="M20,-54.25C20,-54.25 420,-54.25 420,-54.25 426,-54.25 432,-60.25 432,-66.25 432,-66.25 432,-127 432,-127 432,-133 426,-139 420,-139 420,-139 20,-139 20,-139 14,-139 8,-133 8,-127 8,-127 8,-66.25 8,-66.25 8,-60.25 14,-54.25 20,-54.25"/>
<g id="a_clust1_0"><a xlink:href="https://github.com/LogtalkDotOrg/logtalk3/tree/5467ec1db4ff8eca8396fe409350e8fef8b231fc/library/assignvars/nd_assignvars.lgt" xlink:title="https://github.com/LogtalkDotOrg/logtalk3/tree/5467ec1db4ff8eca8396fe409350e8fef8b231fc/library/assignvars/nd_assignvars.lgt">
<text text-anchor="start" x="20" y="-121.5" font-family="Monospace" font-size="10.00" fill="dimgray">assignvars</text>
</a>
</g>
</a>
</g>
</g>
<!-- (&lt;=)/2 -->
<g id="node1" class="node">
<title>(&lt;=)/2</title>
<g id="a_node1"><a xlink:href="https://github.com/LogtalkDotOrg/logtalk3/tree/5467ec1db4ff8eca8396fe409350e8fef8b231fc/library/assignvars/nd_assignvars.lgt#L111" xlink:title="https://github.com/LogtalkDotOrg/logtalk3/tree/5467ec1db4ff8eca8396fe409350e8fef8b231fc/library/assignvars/nd_assignvars.lgt#L111">
<polygon fill="cornsilk" stroke="black" points="85.5,-100.25 18.5,-100.25 18.5,-64.25 85.5,-64.25 85.5,-100.25"/>
<text text-anchor="start" x="26.5" y="-84.95" font-family="Monospace" font-size="9.00"> </text>
<text text-anchor="start" x="31.75" y="-84.17" font-family="Monospace" font-size="11.00">(&lt;=)/2</text>
<text text-anchor="start" x="72.25" y="-84.95" font-family="Monospace" font-size="9.00"> </text>
<text text-anchor="start" x="26.5" y="-72.58" font-family="Monospace" font-size="9.00"> </text>
<text text-anchor="start" x="40.75" y="-73.35" font-family="Monospace" font-size="7.00">local</text>
<text text-anchor="start" x="72.25" y="-72.58" font-family="Monospace" font-size="9.00"> </text>
</a>
</g>
</g>
<!-- assignable/1 -->
<g id="node2" class="node">
<title>assignable/1</title>
<g id="a_node2"><a xlink:href="https://github.com/LogtalkDotOrg/logtalk3/tree/5467ec1db4ff8eca8396fe409350e8fef8b231fc/library/assignvars/nd_assignvars.lgt#L98" xlink:title="https://github.com/LogtalkDotOrg/logtalk3/tree/5467ec1db4ff8eca8396fe409350e8fef8b231fc/library/assignvars/nd_assignvars.lgt#L98">
<polygon fill="cornsilk" stroke="black" points="210.75,-100.25 103.25,-100.25 103.25,-64.25 210.75,-64.25 210.75,-100.25"/>
<text text-anchor="start" x="111.25" y="-84.95" font-family="Monospace" font-size="9.00"> </text>
<text text-anchor="start" x="116.5" y="-84.17" font-family="Monospace" font-size="11.00">assignable/1</text>
<text text-anchor="start" x="197.5" y="-84.95" font-family="Monospace" font-size="9.00"> </text>
<text text-anchor="start" x="111.25" y="-72.58" font-family="Monospace" font-size="9.00"> </text>
<text text-anchor="start" x="145.75" y="-73.35" font-family="Monospace" font-size="7.00">local</text>
<text text-anchor="start" x="197.5" y="-72.58" font-family="Monospace" font-size="9.00"> </text>
</a>
</g>
</g>
<!-- assignable/2 -->
<g id="node3" class="node">
<title>assignable/2</title>
<g id="a_node3"><a xlink:href="https://github.com/LogtalkDotOrg/logtalk3/tree/5467ec1db4ff8eca8396fe409350e8fef8b231fc/library/assignvars/nd_assignvars.lgt#L103" xlink:title="https://github.com/LogtalkDotOrg/logtalk3/tree/5467ec1db4ff8eca8396fe409350e8fef8b231fc/library/assignvars/nd_assignvars.lgt#L103">
<polygon fill="cornsilk" stroke="black" points="336.75,-100.25 229.25,-100.25 229.25,-64.25 336.75,-64.25 336.75,-100.25"/>
<text text-anchor="start" x="237.25" y="-84.95" font-family="Monospace" font-size="9.00"> </text>
<text text-anchor="start" x="242.5" y="-84.17" font-family="Monospace" font-size="11.00">assignable/2</text>
<text text-anchor="start" x="323.5" y="-84.95" font-family="Monospace" font-size="9.00"> </text>
<text text-anchor="start" x="237.25" y="-72.58" font-family="Monospace" font-size="9.00"> </text>
<text text-anchor="start" x="271.75" y="-73.35" font-family="Monospace" font-size="7.00">local</text>
<text text-anchor="start" x="323.5" y="-72.58" font-family="Monospace" font-size="9.00"> </text>
</a>
</g>
</g>
<!-- (=&gt;)/2 -->
<g id="node4" class="node">
<title>(=&gt;)/2</title>
<g id="a_node4"><a xlink:href="https://github.com/LogtalkDotOrg/logtalk3/tree/5467ec1db4ff8eca8396fe409350e8fef8b231fc/library/assignvars/nd_assignvars.lgt#L114" xlink:title="https://github.com/LogtalkDotOrg/logtalk3/tree/5467ec1db4ff8eca8396fe409350e8fef8b231fc/library/assignvars/nd_assignvars.lgt#L114">
<polygon fill="cornsilk" stroke="black" points="421.5,-100.25 354.5,-100.25 354.5,-64.25 421.5,-64.25 421.5,-100.25"/>
<text text-anchor="start" x="362.5" y="-84.95" font-family="Monospace" font-size="9.00"> </text>
<text text-anchor="start" x="367.75" y="-84.17" font-family="Monospace" font-size="11.00">(=&gt;)/2</text>
<text text-anchor="start" x="408.25" y="-84.95" font-family="Monospace" font-size="9.00"> </text>
<text text-anchor="start" x="362.5" y="-72.58" font-family="Monospace" font-size="9.00"> </text>
<text text-anchor="start" x="376.75" y="-73.35" font-family="Monospace" font-size="7.00">local</text>
<text text-anchor="start" x="408.25" y="-72.58" font-family="Monospace" font-size="9.00"> </text>
</a>
</g>
</g>
</g>
</svg>
