<?xml version="1.0" encoding="UTF-8" standalone="no"?>
<?xml-stylesheet href="diagrams.css" type="text/css"?>
<!DOCTYPE svg PUBLIC "-//W3C//DTD SVG 1.1//EN"
 "http://www.w3.org/Graphics/SVG/1.1/DTD/svg11.dtd">
<!-- Generated by graphviz version 2.50.0 (20211204.2007)
 -->
<!-- Title: assignvarsp_protocol Pages: 1 -->
<svg width="601pt" height="292pt"
 viewBox="72.00 72.00 529.00 220.00" xmlns="http://www.w3.org/2000/svg" xmlns:xlink="http://www.w3.org/1999/xlink">
<g id="graph0" class="graph" transform="scale(1 1) rotate(0) translate(76 216)">
<title>assignvarsp_protocol</title>
<polygon fill="white" stroke="transparent" points="-4,4 -4,-144 453,-144 453,4 -4,4"/>
<text text-anchor="start" x="8" y="-29" font-family="Monospace" font-size="10.00" fill="dimgray">Logtalk library</text>
<text text-anchor="start" x="8" y="-18" font-family="Monospace" font-size="10.00" fill="dimgray">Cross&#45;referencing diagram for protocol assignvarsp</text>
<text text-anchor="start" x="8" y="-7" font-family="Monospace" font-size="10.00" fill="dimgray">Generated on 2022&#45;03&#45;22, 16:59</text>
<g id="clust1" class="cluster">
<title>cluster_assignvarsp_protocol</title>
<g id="a_clust1"><a xlink:title="assignvarsp">
<path fill="snow" stroke="dimgray" d="M20,-49C20,-49 429,-49 429,-49 435,-49 441,-55 441,-61 441,-61 441,-120 441,-120 441,-126 435,-132 429,-132 429,-132 20,-132 20,-132 14,-132 8,-126 8,-120 8,-120 8,-61 8,-61 8,-55 14,-49 20,-49"/>
<g id="a_clust1_0"><a xlink:href="https://github.com/LogtalkDotOrg/logtalk3/tree/59fd45893050dabc324fcb76280b87172f83d938/library/assignvars/assignvarsp.lgt" xlink:title="https://github.com/LogtalkDotOrg/logtalk3/tree/59fd45893050dabc324fcb76280b87172f83d938/library/assignvars/assignvarsp.lgt">
<text text-anchor="start" x="20.5" y="-115.5" font-family="Monospace" font-size="10.00" fill="dimgray">assignvarsp</text>
</a>
</g>
</a>
</g>
</g>
<!-- assignable/1 -->
<g id="node1" class="node">
<title>assignable/1</title>
<g id="a_node1"><a xlink:href="https://github.com/LogtalkDotOrg/logtalk3/tree/59fd45893050dabc324fcb76280b87172f83d938/library/assignvars/assignvarsp.lgt#L39" xlink:title="https://github.com/LogtalkDotOrg/logtalk3/tree/59fd45893050dabc324fcb76280b87172f83d938/library/assignvars/assignvarsp.lgt#L39">
<polygon fill="springgreen" stroke="black" points="431,-95 321,-95 321,-59 431,-59 431,-95"/>
<text text-anchor="start" x="329" y="-79.8" font-family="Monospace" font-size="9.00"> </text>
<text text-anchor="start" x="335" y="-79.2" font-family="Monospace" font-size="11.00">assignable/1</text>
<text text-anchor="start" x="417" y="-79.8" font-family="Monospace" font-size="9.00"> </text>
<text text-anchor="start" x="329" y="-68.8" font-family="Monospace" font-size="9.00"> </text>
<text text-anchor="start" x="362" y="-69.4" font-family="Monospace" font-size="7.00">public</text>
<text text-anchor="start" x="417" y="-68.8" font-family="Monospace" font-size="9.00"> </text>
</a>
</g>
</g>
<!-- assignable/2 -->
<g id="node2" class="node">
<title>assignable/2</title>
<g id="a_node2"><a xlink:href="https://github.com/LogtalkDotOrg/logtalk3/tree/59fd45893050dabc324fcb76280b87172f83d938/library/assignvars/assignvarsp.lgt#L49" xlink:title="https://github.com/LogtalkDotOrg/logtalk3/tree/59fd45893050dabc324fcb76280b87172f83d938/library/assignvars/assignvarsp.lgt#L49">
<polygon fill="springgreen" stroke="black" points="303,-95 193,-95 193,-59 303,-59 303,-95"/>
<text text-anchor="start" x="201" y="-79.8" font-family="Monospace" font-size="9.00"> </text>
<text text-anchor="start" x="207" y="-79.2" font-family="Monospace" font-size="11.00">assignable/2</text>
<text text-anchor="start" x="289" y="-79.8" font-family="Monospace" font-size="9.00"> </text>
<text text-anchor="start" x="201" y="-68.8" font-family="Monospace" font-size="9.00"> </text>
<text text-anchor="start" x="234" y="-69.4" font-family="Monospace" font-size="7.00">public</text>
<text text-anchor="start" x="289" y="-68.8" font-family="Monospace" font-size="9.00"> </text>
</a>
</g>
</g>
<!-- (&lt;=)/2 -->
<g id="node3" class="node">
<title>(&lt;=)/2</title>
<g id="a_node3"><a xlink:href="https://github.com/LogtalkDotOrg/logtalk3/tree/59fd45893050dabc324fcb76280b87172f83d938/library/assignvars/assignvarsp.lgt#L60" xlink:title="https://github.com/LogtalkDotOrg/logtalk3/tree/59fd45893050dabc324fcb76280b87172f83d938/library/assignvars/assignvarsp.lgt#L60">
<polygon fill="springgreen" stroke="black" points="174.5,-95 105.5,-95 105.5,-59 174.5,-59 174.5,-95"/>
<text text-anchor="start" x="114" y="-79.8" font-family="Monospace" font-size="9.00"> </text>
<text text-anchor="start" x="120" y="-79.2" font-family="Monospace" font-size="11.00">(&lt;=)/2</text>
<text text-anchor="start" x="161" y="-79.8" font-family="Monospace" font-size="9.00"> </text>
<text text-anchor="start" x="114" y="-68.8" font-family="Monospace" font-size="9.00"> </text>
<text text-anchor="start" x="126.5" y="-69.4" font-family="Monospace" font-size="7.00">public</text>
<text text-anchor="start" x="161" y="-68.8" font-family="Monospace" font-size="9.00"> </text>
</a>
</g>
</g>
<!-- (=&gt;)/2 -->
<g id="node4" class="node">
<title>(=&gt;)/2</title>
<g id="a_node4"><a xlink:href="https://github.com/LogtalkDotOrg/logtalk3/tree/59fd45893050dabc324fcb76280b87172f83d938/library/assignvars/assignvarsp.lgt#L71" xlink:title="https://github.com/LogtalkDotOrg/logtalk3/tree/59fd45893050dabc324fcb76280b87172f83d938/library/assignvars/assignvarsp.lgt#L71">
<polygon fill="springgreen" stroke="black" points="87.5,-95 18.5,-95 18.5,-59 87.5,-59 87.5,-95"/>
<text text-anchor="start" x="27" y="-79.8" font-family="Monospace" font-size="9.00"> </text>
<text text-anchor="start" x="33" y="-79.2" font-family="Monospace" font-size="11.00">(=&gt;)/2</text>
<text text-anchor="start" x="74" y="-79.8" font-family="Monospace" font-size="9.00"> </text>
<text text-anchor="start" x="27" y="-68.8" font-family="Monospace" font-size="9.00"> </text>
<text text-anchor="start" x="39.5" y="-69.4" font-family="Monospace" font-size="7.00">public</text>
<text text-anchor="start" x="74" y="-68.8" font-family="Monospace" font-size="9.00"> </text>
</a>
</g>
</g>
</g>
</svg>
