<?xml version="1.0" encoding="UTF-8" standalone="no"?>
<?xml-stylesheet href="diagrams.css" type="text/css"?>
<!DOCTYPE svg PUBLIC "-//W3C//DTD SVG 1.1//EN"
 "http://www.w3.org/Graphics/SVG/1.1/DTD/svg11.dtd">
<!-- Generated by graphviz version 12.2.0 (20241103.1931)
 -->
<!-- Title: assignvarsp_protocol Pages: 1 -->
<svg width="592pt" height="299pt"
 viewBox="72.00 72.00 520.00 227.00" xmlns="http://www.w3.org/2000/svg" xmlns:xlink="http://www.w3.org/1999/xlink">
<g id="graph0" class="graph" transform="scale(1 1) rotate(0) translate(76 223)">
<title>assignvarsp_protocol</title>
<polygon fill="white" stroke="none" points="-4,4 -4,-151 444,-151 444,4 -4,4"/>
<text text-anchor="start" x="8" y="-32.75" font-family="Monospace" font-size="10.00" fill="dimgray">Logtalk library</text>
<text text-anchor="start" x="8" y="-20" font-family="Monospace" font-size="10.00" fill="dimgray">Cross&#45;referencing diagram for protocol assignvarsp</text>
<text text-anchor="start" x="8" y="-7.25" font-family="Monospace" font-size="10.00" fill="dimgray">Generated on 2024&#45;11&#45;25, 18:24</text>
<g id="clust1" class="cluster">
<title>cluster_assignvarsp_protocol</title>
<g id="a_clust1"><a xlink:title="assignvarsp">
<path fill="snow" stroke="dimgray" d="M20,-54.25C20,-54.25 420,-54.25 420,-54.25 426,-54.25 432,-60.25 432,-66.25 432,-66.25 432,-127 432,-127 432,-133 426,-139 420,-139 420,-139 20,-139 20,-139 14,-139 8,-133 8,-127 8,-127 8,-66.25 8,-66.25 8,-60.25 14,-54.25 20,-54.25"/>
<g id="a_clust1_0"><a xlink:href="https://github.com/LogtalkDotOrg/logtalk3/tree/f7ef5b5d8a0c41584269c7360eab798b55a8e699/library/assignvars/assignvarsp.lgt" xlink:title="https://github.com/LogtalkDotOrg/logtalk3/tree/f7ef5b5d8a0c41584269c7360eab798b55a8e699/library/assignvars/assignvarsp.lgt">
<text text-anchor="start" x="20" y="-121.5" font-family="Monospace" font-size="10.00" fill="dimgray">assignvarsp</text>
</a>
</g>
</a>
</g>
</g>
<!-- assignable/1 -->
<g id="node1" class="node">
<title>assignable/1</title>
<g id="a_node1"><a xlink:href="https://github.com/LogtalkDotOrg/logtalk3/tree/f7ef5b5d8a0c41584269c7360eab798b55a8e699/library/assignvars/assignvarsp.lgt#L39" xlink:title="https://github.com/LogtalkDotOrg/logtalk3/tree/f7ef5b5d8a0c41584269c7360eab798b55a8e699/library/assignvars/assignvarsp.lgt#L39">
<polygon fill="springgreen" stroke="black" points="125.75,-100.25 18.25,-100.25 18.25,-64.25 125.75,-64.25 125.75,-100.25"/>
<text text-anchor="start" x="26.25" y="-84.95" font-family="Monospace" font-size="9.00"> </text>
<text text-anchor="start" x="31.5" y="-84.17" font-family="Monospace" font-size="11.00">assignable/1</text>
<text text-anchor="start" x="112.5" y="-84.95" font-family="Monospace" font-size="9.00"> </text>
<text text-anchor="start" x="26.25" y="-72.58" font-family="Monospace" font-size="9.00"> </text>
<text text-anchor="start" x="58.5" y="-73.35" font-family="Monospace" font-size="7.00">public</text>
<text text-anchor="start" x="112.5" y="-72.58" font-family="Monospace" font-size="9.00"> </text>
</a>
</g>
</g>
<!-- assignable/2 -->
<g id="node2" class="node">
<title>assignable/2</title>
<g id="a_node2"><a xlink:href="https://github.com/LogtalkDotOrg/logtalk3/tree/f7ef5b5d8a0c41584269c7360eab798b55a8e699/library/assignvars/assignvarsp.lgt#L49" xlink:title="https://github.com/LogtalkDotOrg/logtalk3/tree/f7ef5b5d8a0c41584269c7360eab798b55a8e699/library/assignvars/assignvarsp.lgt#L49">
<polygon fill="springgreen" stroke="black" points="251.75,-100.25 144.25,-100.25 144.25,-64.25 251.75,-64.25 251.75,-100.25"/>
<text text-anchor="start" x="152.25" y="-84.95" font-family="Monospace" font-size="9.00"> </text>
<text text-anchor="start" x="157.5" y="-84.17" font-family="Monospace" font-size="11.00">assignable/2</text>
<text text-anchor="start" x="238.5" y="-84.95" font-family="Monospace" font-size="9.00"> </text>
<text text-anchor="start" x="152.25" y="-72.58" font-family="Monospace" font-size="9.00"> </text>
<text text-anchor="start" x="184.5" y="-73.35" font-family="Monospace" font-size="7.00">public</text>
<text text-anchor="start" x="238.5" y="-72.58" font-family="Monospace" font-size="9.00"> </text>
</a>
</g>
</g>
<!-- (&lt;=)/2 -->
<g id="node3" class="node">
<title>(&lt;=)/2</title>
<g id="a_node3"><a xlink:href="https://github.com/LogtalkDotOrg/logtalk3/tree/f7ef5b5d8a0c41584269c7360eab798b55a8e699/library/assignvars/assignvarsp.lgt#L60" xlink:title="https://github.com/LogtalkDotOrg/logtalk3/tree/f7ef5b5d8a0c41584269c7360eab798b55a8e699/library/assignvars/assignvarsp.lgt#L60">
<polygon fill="springgreen" stroke="black" points="336.5,-100.25 269.5,-100.25 269.5,-64.25 336.5,-64.25 336.5,-100.25"/>
<text text-anchor="start" x="277.5" y="-84.95" font-family="Monospace" font-size="9.00"> </text>
<text text-anchor="start" x="282.75" y="-84.17" font-family="Monospace" font-size="11.00">(&lt;=)/2</text>
<text text-anchor="start" x="323.25" y="-84.95" font-family="Monospace" font-size="9.00"> </text>
<text text-anchor="start" x="277.5" y="-72.58" font-family="Monospace" font-size="9.00"> </text>
<text text-anchor="start" x="289.5" y="-73.35" font-family="Monospace" font-size="7.00">public</text>
<text text-anchor="start" x="323.25" y="-72.58" font-family="Monospace" font-size="9.00"> </text>
</a>
</g>
</g>
<!-- (=&gt;)/2 -->
<g id="node4" class="node">
<title>(=&gt;)/2</title>
<g id="a_node4"><a xlink:href="https://github.com/LogtalkDotOrg/logtalk3/tree/f7ef5b5d8a0c41584269c7360eab798b55a8e699/library/assignvars/assignvarsp.lgt#L71" xlink:title="https://github.com/LogtalkDotOrg/logtalk3/tree/f7ef5b5d8a0c41584269c7360eab798b55a8e699/library/assignvars/assignvarsp.lgt#L71">
<polygon fill="springgreen" stroke="black" points="421.5,-100.25 354.5,-100.25 354.5,-64.25 421.5,-64.25 421.5,-100.25"/>
<text text-anchor="start" x="362.5" y="-84.95" font-family="Monospace" font-size="9.00"> </text>
<text text-anchor="start" x="367.75" y="-84.17" font-family="Monospace" font-size="11.00">(=&gt;)/2</text>
<text text-anchor="start" x="408.25" y="-84.95" font-family="Monospace" font-size="9.00"> </text>
<text text-anchor="start" x="362.5" y="-72.58" font-family="Monospace" font-size="9.00"> </text>
<text text-anchor="start" x="374.5" y="-73.35" font-family="Monospace" font-size="7.00">public</text>
<text text-anchor="start" x="408.25" y="-72.58" font-family="Monospace" font-size="9.00"> </text>
</a>
</g>
</g>
</g>
</svg>
