<?xml version="1.0" encoding="UTF-8" standalone="no"?>
<?xml-stylesheet href="diagrams.css" type="text/css"?>
<!DOCTYPE svg PUBLIC "-//W3C//DTD SVG 1.1//EN"
 "http://www.w3.org/Graphics/SVG/1.1/DTD/svg11.dtd">
<!-- Generated by graphviz version 2.43.20191029.1313 (20191029.1313)
 -->
<!-- Title: assignvars_object Pages: 1 -->
<svg width="583pt" height="288pt"
 viewBox="72.00 72.00 511.00 216.00" xmlns="http://www.w3.org/2000/svg" xmlns:xlink="http://www.w3.org/1999/xlink">
<g id="graph0" class="graph" transform="scale(1 1) rotate(0) translate(76 212)">
<title>assignvars_object</title>
<polygon fill="white" stroke="transparent" points="-4,4 -4,-140 435,-140 435,4 -4,4"/>
<text text-anchor="start" x="8" y="-26" font-family="Courier,monospace" font-size="10.00" fill="dimgray">Logtalk library</text>
<text text-anchor="start" x="8" y="-16" font-family="Courier,monospace" font-size="10.00" fill="dimgray">Cross&#45;referencing diagram for object assignvars</text>
<text text-anchor="start" x="8" y="-6" font-family="Courier,monospace" font-size="10.00" fill="dimgray">Generated on 2020&#45;05&#45;25, 21:55</text>
<g id="clust1" class="cluster">
<title>cluster_assignvars_object</title>
<g id="a_clust1"><a xlink:title="assignvars">
<path fill="snow" stroke="dimgray" d="M20,-46C20,-46 411,-46 411,-46 417,-46 423,-52 423,-58 423,-58 423,-116 423,-116 423,-122 417,-128 411,-128 411,-128 20,-128 20,-128 14,-128 8,-122 8,-116 8,-116 8,-58 8,-58 8,-52 14,-46 20,-46"/>
<g id="a_clust1_0"><a xlink:href="https://github.com/LogtalkDotOrg/logtalk3/tree/ee3e469ba16664bcc8b3b120a4a0bb7672d96db2/library/assignvars/nd_assignvars.lgt" xlink:title="https://github.com/LogtalkDotOrg/logtalk3/tree/ee3e469ba16664bcc8b3b120a4a0bb7672d96db2/library/assignvars/nd_assignvars.lgt">
<text text-anchor="start" x="20" y="-112" font-family="Courier,monospace" font-size="10.00" fill="dimgray">assignvars</text>
</a>
</g>
</a>
</g>
</g>
<!-- (&lt;=)/2 -->
<g id="node1" class="node">
<title>(&lt;=)/2</title>
<g id="a_node1"><a xlink:href="https://github.com/LogtalkDotOrg/logtalk3/tree/ee3e469ba16664bcc8b3b120a4a0bb7672d96db2/library/assignvars/nd_assignvars.lgt#L110" xlink:title="https://github.com/LogtalkDotOrg/logtalk3/tree/ee3e469ba16664bcc8b3b120a4a0bb7672d96db2/library/assignvars/nd_assignvars.lgt#L110">
<polygon fill="cornsilk" stroke="black" points="412.5,-92 347.5,-92 347.5,-56 412.5,-56 412.5,-92"/>
<text text-anchor="start" x="355.8" y="-75.8" font-family="Courier,monospace" font-size="9.00"> </text>
<text text-anchor="start" x="360.7" y="-75.2" font-family="Courier,monospace" font-size="11.00">(&lt;=)/2</text>
<text text-anchor="start" x="399.8" y="-75.8" font-family="Courier,monospace" font-size="9.00"> </text>
<text text-anchor="start" x="355.8" y="-65.8" font-family="Courier,monospace" font-size="9.00"> </text>
<text text-anchor="start" x="370" y="-66.4" font-family="Courier,monospace" font-size="7.00">local</text>
<text text-anchor="start" x="399.8" y="-65.8" font-family="Courier,monospace" font-size="9.00"> </text>
</a>
</g>
</g>
<!-- assignable/1 -->
<g id="node2" class="node">
<title>assignable/1</title>
<g id="a_node2"><a xlink:href="https://github.com/LogtalkDotOrg/logtalk3/tree/ee3e469ba16664bcc8b3b120a4a0bb7672d96db2/library/assignvars/nd_assignvars.lgt#L97" xlink:title="https://github.com/LogtalkDotOrg/logtalk3/tree/ee3e469ba16664bcc8b3b120a4a0bb7672d96db2/library/assignvars/nd_assignvars.lgt#L97">
<polygon fill="cornsilk" stroke="black" points="329.5,-92 224.5,-92 224.5,-56 329.5,-56 329.5,-92"/>
<text text-anchor="start" x="232.8" y="-75.8" font-family="Courier,monospace" font-size="9.00"> </text>
<text text-anchor="start" x="237.89" y="-75.2" font-family="Courier,monospace" font-size="11.00">assignable/1</text>
<text text-anchor="start" x="316.8" y="-75.8" font-family="Courier,monospace" font-size="9.00"> </text>
<text text-anchor="start" x="232.8" y="-65.8" font-family="Courier,monospace" font-size="9.00"> </text>
<text text-anchor="start" x="267" y="-66.4" font-family="Courier,monospace" font-size="7.00">local</text>
<text text-anchor="start" x="316.8" y="-65.8" font-family="Courier,monospace" font-size="9.00"> </text>
</a>
</g>
</g>
<!-- assignable/2 -->
<g id="node3" class="node">
<title>assignable/2</title>
<g id="a_node3"><a xlink:href="https://github.com/LogtalkDotOrg/logtalk3/tree/ee3e469ba16664bcc8b3b120a4a0bb7672d96db2/library/assignvars/nd_assignvars.lgt#L102" xlink:title="https://github.com/LogtalkDotOrg/logtalk3/tree/ee3e469ba16664bcc8b3b120a4a0bb7672d96db2/library/assignvars/nd_assignvars.lgt#L102">
<polygon fill="cornsilk" stroke="black" points="206.5,-92 101.5,-92 101.5,-56 206.5,-56 206.5,-92"/>
<text text-anchor="start" x="109.8" y="-75.8" font-family="Courier,monospace" font-size="9.00"> </text>
<text text-anchor="start" x="114.89" y="-75.2" font-family="Courier,monospace" font-size="11.00">assignable/2</text>
<text text-anchor="start" x="193.8" y="-75.8" font-family="Courier,monospace" font-size="9.00"> </text>
<text text-anchor="start" x="109.8" y="-65.8" font-family="Courier,monospace" font-size="9.00"> </text>
<text text-anchor="start" x="144" y="-66.4" font-family="Courier,monospace" font-size="7.00">local</text>
<text text-anchor="start" x="193.8" y="-65.8" font-family="Courier,monospace" font-size="9.00"> </text>
</a>
</g>
</g>
<!-- (=&gt;)/2 -->
<g id="node4" class="node">
<title>(=&gt;)/2</title>
<g id="a_node4"><a xlink:href="https://github.com/LogtalkDotOrg/logtalk3/tree/ee3e469ba16664bcc8b3b120a4a0bb7672d96db2/library/assignvars/nd_assignvars.lgt#L113" xlink:title="https://github.com/LogtalkDotOrg/logtalk3/tree/ee3e469ba16664bcc8b3b120a4a0bb7672d96db2/library/assignvars/nd_assignvars.lgt#L113">
<polygon fill="cornsilk" stroke="black" points="83.5,-92 18.5,-92 18.5,-56 83.5,-56 83.5,-92"/>
<text text-anchor="start" x="26.8" y="-75.8" font-family="Courier,monospace" font-size="9.00"> </text>
<text text-anchor="start" x="31.7" y="-75.2" font-family="Courier,monospace" font-size="11.00">(=&gt;)/2</text>
<text text-anchor="start" x="70.8" y="-75.8" font-family="Courier,monospace" font-size="9.00"> </text>
<text text-anchor="start" x="26.8" y="-65.8" font-family="Courier,monospace" font-size="9.00"> </text>
<text text-anchor="start" x="41" y="-66.4" font-family="Courier,monospace" font-size="7.00">local</text>
<text text-anchor="start" x="70.8" y="-65.8" font-family="Courier,monospace" font-size="9.00"> </text>
</a>
</g>
</g>
</g>
</svg>
