<?xml version="1.0" encoding="UTF-8" standalone="no"?>
<?xml-stylesheet href="diagrams.css" type="text/css"?>
<!DOCTYPE svg PUBLIC "-//W3C//DTD SVG 1.1//EN"
 "http://www.w3.org/Graphics/SVG/1.1/DTD/svg11.dtd">
<!-- Generated by graphviz version 2.43.20191029.1313 (20191029.1313)
 -->
<!-- Title: assignvarsp_protocol Pages: 1 -->
<svg width="583pt" height="288pt"
 viewBox="72.00 72.00 511.00 216.00" xmlns="http://www.w3.org/2000/svg" xmlns:xlink="http://www.w3.org/1999/xlink">
<g id="graph0" class="graph" transform="scale(1 1) rotate(0) translate(76 212)">
<title>assignvarsp_protocol</title>
<polygon fill="white" stroke="transparent" points="-4,4 -4,-140 435,-140 435,4 -4,4"/>
<text text-anchor="start" x="8" y="-26" font-family="Courier,monospace" font-size="10.00" fill="dimgray">Logtalk library</text>
<text text-anchor="start" x="8" y="-16" font-family="Courier,monospace" font-size="10.00" fill="dimgray">Cross&#45;referencing diagram for protocol assignvarsp</text>
<text text-anchor="start" x="8" y="-6" font-family="Courier,monospace" font-size="10.00" fill="dimgray">Generated on 2020&#45;05&#45;25, 21:55</text>
<g id="clust1" class="cluster">
<title>cluster_assignvarsp_protocol</title>
<g id="a_clust1"><a xlink:title="assignvarsp">
<path fill="snow" stroke="dimgray" d="M20,-46C20,-46 411,-46 411,-46 417,-46 423,-52 423,-58 423,-58 423,-116 423,-116 423,-122 417,-128 411,-128 411,-128 20,-128 20,-128 14,-128 8,-122 8,-116 8,-116 8,-58 8,-58 8,-52 14,-46 20,-46"/>
<g id="a_clust1_0"><a xlink:href="https://github.com/LogtalkDotOrg/logtalk3/tree/ee3e469ba16664bcc8b3b120a4a0bb7672d96db2/library/assignvars/assignvarsp.lgt" xlink:title="https://github.com/LogtalkDotOrg/logtalk3/tree/ee3e469ba16664bcc8b3b120a4a0bb7672d96db2/library/assignvars/assignvarsp.lgt">
<text text-anchor="start" x="19.99" y="-112" font-family="Courier,monospace" font-size="10.00" fill="dimgray">assignvarsp</text>
</a>
</g>
</a>
</g>
</g>
<!-- assignable/1 -->
<g id="node1" class="node">
<title>assignable/1</title>
<g id="a_node1"><a xlink:href="https://github.com/LogtalkDotOrg/logtalk3/tree/ee3e469ba16664bcc8b3b120a4a0bb7672d96db2/library/assignvars/assignvarsp.lgt#L38" xlink:title="https://github.com/LogtalkDotOrg/logtalk3/tree/ee3e469ba16664bcc8b3b120a4a0bb7672d96db2/library/assignvars/assignvarsp.lgt#L38">
<polygon fill="springgreen" stroke="black" points="412.5,-92 307.5,-92 307.5,-56 412.5,-56 412.5,-92"/>
<text text-anchor="start" x="315.8" y="-75.8" font-family="Courier,monospace" font-size="9.00"> </text>
<text text-anchor="start" x="320.89" y="-75.2" font-family="Courier,monospace" font-size="11.00">assignable/1</text>
<text text-anchor="start" x="399.8" y="-75.8" font-family="Courier,monospace" font-size="9.00"> </text>
<text text-anchor="start" x="315.8" y="-65.8" font-family="Courier,monospace" font-size="9.00"> </text>
<text text-anchor="start" x="347.9" y="-66.4" font-family="Courier,monospace" font-size="7.00">public</text>
<text text-anchor="start" x="399.8" y="-65.8" font-family="Courier,monospace" font-size="9.00"> </text>
</a>
</g>
</g>
<!-- assignable/2 -->
<g id="node2" class="node">
<title>assignable/2</title>
<g id="a_node2"><a xlink:href="https://github.com/LogtalkDotOrg/logtalk3/tree/ee3e469ba16664bcc8b3b120a4a0bb7672d96db2/library/assignvars/assignvarsp.lgt#L48" xlink:title="https://github.com/LogtalkDotOrg/logtalk3/tree/ee3e469ba16664bcc8b3b120a4a0bb7672d96db2/library/assignvars/assignvarsp.lgt#L48">
<polygon fill="springgreen" stroke="black" points="289.5,-92 184.5,-92 184.5,-56 289.5,-56 289.5,-92"/>
<text text-anchor="start" x="192.8" y="-75.8" font-family="Courier,monospace" font-size="9.00"> </text>
<text text-anchor="start" x="197.89" y="-75.2" font-family="Courier,monospace" font-size="11.00">assignable/2</text>
<text text-anchor="start" x="276.8" y="-75.8" font-family="Courier,monospace" font-size="9.00"> </text>
<text text-anchor="start" x="192.8" y="-65.8" font-family="Courier,monospace" font-size="9.00"> </text>
<text text-anchor="start" x="224.9" y="-66.4" font-family="Courier,monospace" font-size="7.00">public</text>
<text text-anchor="start" x="276.8" y="-65.8" font-family="Courier,monospace" font-size="9.00"> </text>
</a>
</g>
</g>
<!-- (&lt;=)/2 -->
<g id="node3" class="node">
<title>(&lt;=)/2</title>
<g id="a_node3"><a xlink:href="https://github.com/LogtalkDotOrg/logtalk3/tree/ee3e469ba16664bcc8b3b120a4a0bb7672d96db2/library/assignvars/assignvarsp.lgt#L59" xlink:title="https://github.com/LogtalkDotOrg/logtalk3/tree/ee3e469ba16664bcc8b3b120a4a0bb7672d96db2/library/assignvars/assignvarsp.lgt#L59">
<polygon fill="springgreen" stroke="black" points="166.5,-92 101.5,-92 101.5,-56 166.5,-56 166.5,-92"/>
<text text-anchor="start" x="109.8" y="-75.8" font-family="Courier,monospace" font-size="9.00"> </text>
<text text-anchor="start" x="114.7" y="-75.2" font-family="Courier,monospace" font-size="11.00">(&lt;=)/2</text>
<text text-anchor="start" x="153.8" y="-75.8" font-family="Courier,monospace" font-size="9.00"> </text>
<text text-anchor="start" x="109.8" y="-65.8" font-family="Courier,monospace" font-size="9.00"> </text>
<text text-anchor="start" x="121.9" y="-66.4" font-family="Courier,monospace" font-size="7.00">public</text>
<text text-anchor="start" x="153.8" y="-65.8" font-family="Courier,monospace" font-size="9.00"> </text>
</a>
</g>
</g>
<!-- (=&gt;)/2 -->
<g id="node4" class="node">
<title>(=&gt;)/2</title>
<g id="a_node4"><a xlink:href="https://github.com/LogtalkDotOrg/logtalk3/tree/ee3e469ba16664bcc8b3b120a4a0bb7672d96db2/library/assignvars/assignvarsp.lgt#L70" xlink:title="https://github.com/LogtalkDotOrg/logtalk3/tree/ee3e469ba16664bcc8b3b120a4a0bb7672d96db2/library/assignvars/assignvarsp.lgt#L70">
<polygon fill="springgreen" stroke="black" points="83.5,-92 18.5,-92 18.5,-56 83.5,-56 83.5,-92"/>
<text text-anchor="start" x="26.8" y="-75.8" font-family="Courier,monospace" font-size="9.00"> </text>
<text text-anchor="start" x="31.7" y="-75.2" font-family="Courier,monospace" font-size="11.00">(=&gt;)/2</text>
<text text-anchor="start" x="70.8" y="-75.8" font-family="Courier,monospace" font-size="9.00"> </text>
<text text-anchor="start" x="26.8" y="-65.8" font-family="Courier,monospace" font-size="9.00"> </text>
<text text-anchor="start" x="38.9" y="-66.4" font-family="Courier,monospace" font-size="7.00">public</text>
<text text-anchor="start" x="70.8" y="-65.8" font-family="Courier,monospace" font-size="9.00"> </text>
</a>
</g>
</g>
</g>
</svg>
