<?xml version="1.0" encoding="UTF-8" standalone="no"?>
<?xml-stylesheet href="diagrams.css" type="text/css"?>
<!DOCTYPE svg PUBLIC "-//W3C//DTD SVG 1.1//EN"
 "http://www.w3.org/Graphics/SVG/1.1/DTD/svg11.dtd">
<!-- Generated by graphviz version 2.49.3 (20211023.0002)
 -->
<!-- Title: assignvarsp_protocol Pages: 1 -->
<svg width="594pt" height="292pt"
 viewBox="72.00 72.00 522.00 220.00" xmlns="http://www.w3.org/2000/svg" xmlns:xlink="http://www.w3.org/1999/xlink">
<g id="graph0" class="graph" transform="scale(1 1) rotate(0) translate(76 216)">
<title>assignvarsp_protocol</title>
<polygon fill="white" stroke="transparent" points="-4,4 -4,-144 446,-144 446,4 -4,4"/>
<text text-anchor="start" x="8" y="-29" font-family="Monospace" font-size="10.00" fill="dimgray">Logtalk library</text>
<text text-anchor="start" x="8" y="-18" font-family="Monospace" font-size="10.00" fill="dimgray">Cross&#45;referencing diagram for protocol assignvarsp</text>
<text text-anchor="start" x="8" y="-7" font-family="Monospace" font-size="10.00" fill="dimgray">Generated on 2021&#45;12&#45;24, 14:47</text>
<g id="clust1" class="cluster">
<title>cluster_assignvarsp_protocol</title>
<g id="a_clust1"><a xlink:title="assignvarsp">
<path fill="snow" stroke="dimgray" d="M20,-49C20,-49 422,-49 422,-49 428,-49 434,-55 434,-61 434,-61 434,-120 434,-120 434,-126 428,-132 422,-132 422,-132 20,-132 20,-132 14,-132 8,-126 8,-120 8,-120 8,-61 8,-61 8,-55 14,-49 20,-49"/>
<g id="a_clust1_0"><a xlink:href="https://github.com/LogtalkDotOrg/logtalk3/tree/c017d0066c17c9fd68388dafe935f5fdc81cb730/library/assignvars/assignvarsp.lgt" xlink:title="https://github.com/LogtalkDotOrg/logtalk3/tree/c017d0066c17c9fd68388dafe935f5fdc81cb730/library/assignvars/assignvarsp.lgt">
<text text-anchor="start" x="20.5" y="-115.5" font-family="Monospace" font-size="10.00" fill="dimgray">assignvarsp</text>
</a>
</g>
</a>
</g>
</g>
<!-- assignable/1 -->
<g id="node1" class="node">
<title>assignable/1</title>
<g id="a_node1"><a xlink:href="https://github.com/LogtalkDotOrg/logtalk3/tree/c017d0066c17c9fd68388dafe935f5fdc81cb730/library/assignvars/assignvarsp.lgt#L39" xlink:title="https://github.com/LogtalkDotOrg/logtalk3/tree/c017d0066c17c9fd68388dafe935f5fdc81cb730/library/assignvars/assignvarsp.lgt#L39">
<polygon fill="springgreen" stroke="black" points="424,-95 316,-95 316,-59 424,-59 424,-95"/>
<text text-anchor="start" x="324" y="-79.8" font-family="Monospace" font-size="9.00"> </text>
<text text-anchor="start" x="330" y="-79.2" font-family="Monospace" font-size="11.00">assignable/1</text>
<text text-anchor="start" x="410" y="-79.8" font-family="Monospace" font-size="9.00"> </text>
<text text-anchor="start" x="324" y="-68.8" font-family="Monospace" font-size="9.00"> </text>
<text text-anchor="start" x="357" y="-69.4" font-family="Monospace" font-size="7.00">public</text>
<text text-anchor="start" x="410" y="-68.8" font-family="Monospace" font-size="9.00"> </text>
</a>
</g>
</g>
<!-- assignable/2 -->
<g id="node2" class="node">
<title>assignable/2</title>
<g id="a_node2"><a xlink:href="https://github.com/LogtalkDotOrg/logtalk3/tree/c017d0066c17c9fd68388dafe935f5fdc81cb730/library/assignvars/assignvarsp.lgt#L49" xlink:title="https://github.com/LogtalkDotOrg/logtalk3/tree/c017d0066c17c9fd68388dafe935f5fdc81cb730/library/assignvars/assignvarsp.lgt#L49">
<polygon fill="springgreen" stroke="black" points="298,-95 190,-95 190,-59 298,-59 298,-95"/>
<text text-anchor="start" x="198" y="-79.8" font-family="Monospace" font-size="9.00"> </text>
<text text-anchor="start" x="204" y="-79.2" font-family="Monospace" font-size="11.00">assignable/2</text>
<text text-anchor="start" x="284" y="-79.8" font-family="Monospace" font-size="9.00"> </text>
<text text-anchor="start" x="198" y="-68.8" font-family="Monospace" font-size="9.00"> </text>
<text text-anchor="start" x="231" y="-69.4" font-family="Monospace" font-size="7.00">public</text>
<text text-anchor="start" x="284" y="-68.8" font-family="Monospace" font-size="9.00"> </text>
</a>
</g>
</g>
<!-- (&lt;=)/2 -->
<g id="node3" class="node">
<title>(&lt;=)/2</title>
<g id="a_node3"><a xlink:href="https://github.com/LogtalkDotOrg/logtalk3/tree/c017d0066c17c9fd68388dafe935f5fdc81cb730/library/assignvars/assignvarsp.lgt#L60" xlink:title="https://github.com/LogtalkDotOrg/logtalk3/tree/c017d0066c17c9fd68388dafe935f5fdc81cb730/library/assignvars/assignvarsp.lgt#L60">
<polygon fill="springgreen" stroke="black" points="172,-95 104,-95 104,-59 172,-59 172,-95"/>
<text text-anchor="start" x="112" y="-79.8" font-family="Monospace" font-size="9.00"> </text>
<text text-anchor="start" x="118" y="-79.2" font-family="Monospace" font-size="11.00">(&lt;=)/2</text>
<text text-anchor="start" x="158" y="-79.8" font-family="Monospace" font-size="9.00"> </text>
<text text-anchor="start" x="112" y="-68.8" font-family="Monospace" font-size="9.00"> </text>
<text text-anchor="start" x="125" y="-69.4" font-family="Monospace" font-size="7.00">public</text>
<text text-anchor="start" x="158" y="-68.8" font-family="Monospace" font-size="9.00"> </text>
</a>
</g>
</g>
<!-- (=&gt;)/2 -->
<g id="node4" class="node">
<title>(=&gt;)/2</title>
<g id="a_node4"><a xlink:href="https://github.com/LogtalkDotOrg/logtalk3/tree/c017d0066c17c9fd68388dafe935f5fdc81cb730/library/assignvars/assignvarsp.lgt#L71" xlink:title="https://github.com/LogtalkDotOrg/logtalk3/tree/c017d0066c17c9fd68388dafe935f5fdc81cb730/library/assignvars/assignvarsp.lgt#L71">
<polygon fill="springgreen" stroke="black" points="86,-95 18,-95 18,-59 86,-59 86,-95"/>
<text text-anchor="start" x="26" y="-79.8" font-family="Monospace" font-size="9.00"> </text>
<text text-anchor="start" x="32" y="-79.2" font-family="Monospace" font-size="11.00">(=&gt;)/2</text>
<text text-anchor="start" x="72" y="-79.8" font-family="Monospace" font-size="9.00"> </text>
<text text-anchor="start" x="26" y="-68.8" font-family="Monospace" font-size="9.00"> </text>
<text text-anchor="start" x="39" y="-69.4" font-family="Monospace" font-size="7.00">public</text>
<text text-anchor="start" x="72" y="-68.8" font-family="Monospace" font-size="9.00"> </text>
</a>
</g>
</g>
</g>
</svg>
