<?xml version="1.0" encoding="UTF-8" standalone="no"?>
<?xml-stylesheet href="diagrams.css" type="text/css"?>
<!DOCTYPE svg PUBLIC "-//W3C//DTD SVG 1.1//EN"
 "http://www.w3.org/Graphics/SVG/1.1/DTD/svg11.dtd">
<!-- Generated by graphviz version 2.50.0 (20211204.2007)
 -->
<!-- Title: assignvars_object Pages: 1 -->
<svg width="602pt" height="292pt"
 viewBox="72.00 72.00 530.00 220.00" xmlns="http://www.w3.org/2000/svg" xmlns:xlink="http://www.w3.org/1999/xlink">
<g id="graph0" class="graph" transform="scale(1 1) rotate(0) translate(76 216)">
<title>assignvars_object</title>
<polygon fill="white" stroke="transparent" points="-4,4 -4,-144 454,-144 454,4 -4,4"/>
<text text-anchor="start" x="8" y="-29" font-family="Monospace" font-size="10.00" fill="dimgray">Logtalk library</text>
<text text-anchor="start" x="8" y="-18" font-family="Monospace" font-size="10.00" fill="dimgray">Cross&#45;referencing diagram for object assignvars</text>
<text text-anchor="start" x="8" y="-7" font-family="Monospace" font-size="10.00" fill="dimgray">Generated on 2022&#45;07&#45;07, 15:05</text>
<g id="clust1" class="cluster">
<title>cluster_assignvars_object</title>
<g id="a_clust1"><a xlink:title="assignvars">
<path fill="snow" stroke="dimgray" d="M20,-49C20,-49 430,-49 430,-49 436,-49 442,-55 442,-61 442,-61 442,-120 442,-120 442,-126 436,-132 430,-132 430,-132 20,-132 20,-132 14,-132 8,-126 8,-120 8,-120 8,-61 8,-61 8,-55 14,-49 20,-49"/>
<g id="a_clust1_0"><a xlink:href="https://github.com/LogtalkDotOrg/logtalk3/tree/ad35122225ba248b15a1126590c4ac535d677326/library/assignvars/nd_assignvars.lgt" xlink:title="https://github.com/LogtalkDotOrg/logtalk3/tree/ad35122225ba248b15a1126590c4ac535d677326/library/assignvars/nd_assignvars.lgt">
<text text-anchor="start" x="20.5" y="-115.5" font-family="Monospace" font-size="10.00" fill="dimgray">assignvars</text>
</a>
</g>
</a>
</g>
</g>
<!-- (&lt;=)/2 -->
<g id="node1" class="node">
<title>(&lt;=)/2</title>
<g id="a_node1"><a xlink:href="https://github.com/LogtalkDotOrg/logtalk3/tree/ad35122225ba248b15a1126590c4ac535d677326/library/assignvars/nd_assignvars.lgt#L111" xlink:title="https://github.com/LogtalkDotOrg/logtalk3/tree/ad35122225ba248b15a1126590c4ac535d677326/library/assignvars/nd_assignvars.lgt#L111">
<polygon fill="cornsilk" stroke="black" points="431.5,-95 362.5,-95 362.5,-59 431.5,-59 431.5,-95"/>
<text text-anchor="start" x="371" y="-79.8" font-family="Monospace" font-size="9.00"> </text>
<text text-anchor="start" x="377" y="-79.2" font-family="Monospace" font-size="11.00">(&lt;=)/2</text>
<text text-anchor="start" x="418" y="-79.8" font-family="Monospace" font-size="9.00"> </text>
<text text-anchor="start" x="371" y="-68.8" font-family="Monospace" font-size="9.00"> </text>
<text text-anchor="start" x="386" y="-69.4" font-family="Monospace" font-size="7.00">local</text>
<text text-anchor="start" x="418" y="-68.8" font-family="Monospace" font-size="9.00"> </text>
</a>
</g>
</g>
<!-- assignable/1 -->
<g id="node2" class="node">
<title>assignable/1</title>
<g id="a_node2"><a xlink:href="https://github.com/LogtalkDotOrg/logtalk3/tree/ad35122225ba248b15a1126590c4ac535d677326/library/assignvars/nd_assignvars.lgt#L98" xlink:title="https://github.com/LogtalkDotOrg/logtalk3/tree/ad35122225ba248b15a1126590c4ac535d677326/library/assignvars/nd_assignvars.lgt#L98">
<polygon fill="cornsilk" stroke="black" points="344,-95 234,-95 234,-59 344,-59 344,-95"/>
<text text-anchor="start" x="242" y="-79.8" font-family="Monospace" font-size="9.00"> </text>
<text text-anchor="start" x="248" y="-79.2" font-family="Monospace" font-size="11.00">assignable/1</text>
<text text-anchor="start" x="330" y="-79.8" font-family="Monospace" font-size="9.00"> </text>
<text text-anchor="start" x="242" y="-68.8" font-family="Monospace" font-size="9.00"> </text>
<text text-anchor="start" x="277.5" y="-69.4" font-family="Monospace" font-size="7.00">local</text>
<text text-anchor="start" x="330" y="-68.8" font-family="Monospace" font-size="9.00"> </text>
</a>
</g>
</g>
<!-- assignable/2 -->
<g id="node3" class="node">
<title>assignable/2</title>
<g id="a_node3"><a xlink:href="https://github.com/LogtalkDotOrg/logtalk3/tree/ad35122225ba248b15a1126590c4ac535d677326/library/assignvars/nd_assignvars.lgt#L103" xlink:title="https://github.com/LogtalkDotOrg/logtalk3/tree/ad35122225ba248b15a1126590c4ac535d677326/library/assignvars/nd_assignvars.lgt#L103">
<polygon fill="cornsilk" stroke="black" points="216,-95 106,-95 106,-59 216,-59 216,-95"/>
<text text-anchor="start" x="114" y="-79.8" font-family="Monospace" font-size="9.00"> </text>
<text text-anchor="start" x="120" y="-79.2" font-family="Monospace" font-size="11.00">assignable/2</text>
<text text-anchor="start" x="202" y="-79.8" font-family="Monospace" font-size="9.00"> </text>
<text text-anchor="start" x="114" y="-68.8" font-family="Monospace" font-size="9.00"> </text>
<text text-anchor="start" x="149.5" y="-69.4" font-family="Monospace" font-size="7.00">local</text>
<text text-anchor="start" x="202" y="-68.8" font-family="Monospace" font-size="9.00"> </text>
</a>
</g>
</g>
<!-- (=&gt;)/2 -->
<g id="node4" class="node">
<title>(=&gt;)/2</title>
<g id="a_node4"><a xlink:href="https://github.com/LogtalkDotOrg/logtalk3/tree/ad35122225ba248b15a1126590c4ac535d677326/library/assignvars/nd_assignvars.lgt#L114" xlink:title="https://github.com/LogtalkDotOrg/logtalk3/tree/ad35122225ba248b15a1126590c4ac535d677326/library/assignvars/nd_assignvars.lgt#L114">
<polygon fill="cornsilk" stroke="black" points="87.5,-95 18.5,-95 18.5,-59 87.5,-59 87.5,-95"/>
<text text-anchor="start" x="27" y="-79.8" font-family="Monospace" font-size="9.00"> </text>
<text text-anchor="start" x="33" y="-79.2" font-family="Monospace" font-size="11.00">(=&gt;)/2</text>
<text text-anchor="start" x="74" y="-79.8" font-family="Monospace" font-size="9.00"> </text>
<text text-anchor="start" x="27" y="-68.8" font-family="Monospace" font-size="9.00"> </text>
<text text-anchor="start" x="42" y="-69.4" font-family="Monospace" font-size="7.00">local</text>
<text text-anchor="start" x="74" y="-68.8" font-family="Monospace" font-size="9.00"> </text>
</a>
</g>
</g>
</g>
</svg>
