<?xml version="1.0" encoding="UTF-8" standalone="no"?>
<!DOCTYPE svg PUBLIC "-//W3C//DTD SVG 1.1//EN"
 "http://www.w3.org/Graphics/SVG/1.1/DTD/svg11.dtd">
<!-- Generated by graphviz version 2.40.1 (20161225.0304)
 -->
<!-- Title: atomic_object Pages: 1 -->
<svg width="418pt" height="279pt"
 viewBox="72.00 72.00 346.00 207.43" xmlns="http://www.w3.org/2000/svg" xmlns:xlink="http://www.w3.org/1999/xlink">
<g id="graph0" class="graph" transform="scale(1 1) rotate(0) translate(76 203.4264)">
<title>atomic_object</title>
<polygon fill="#ffffff" stroke="transparent" points="-4,4 -4,-131.4264 270,-131.4264 270,4 -4,4"/>
<text text-anchor="start" x="8" y="-18" font-family="Courier,monospace" font-size="10.00" fill="#8b8989">Logtalk library</text>
<text text-anchor="start" x="8" y="-7" font-family="Courier,monospace" font-size="10.00" fill="#8b8989">Generated on 2019/04/08, 18:41</text>
<g id="clust1" class="cluster">
<title>cluster_atomic_object</title>
<g id="a_clust1"><a xlink:href="https://github.com/LogtalkDotOrg/logtalk3/tree/master/library/atomic.lgt" xlink:title="https://github.com/LogtalkDotOrg/logtalk3/tree/master/library/atomic.lgt">
<path fill="#fffafa" stroke="#8b8989" d="M20,-38C20,-38 246,-38 246,-38 252,-38 258,-44 258,-50 258,-50 258,-107.4264 258,-107.4264 258,-113.4264 252,-119.4264 246,-119.4264 246,-119.4264 20,-119.4264 20,-119.4264 14,-119.4264 8,-113.4264 8,-107.4264 8,-107.4264 8,-50 8,-50 8,-44 14,-38 20,-38"/>
<text text-anchor="middle" x="34.5" y="-107.4264" font-family="Courier,monospace" font-size="10.00" fill="#8b8989">atomic</text>
</a>
</g>
</g>
<!-- valid/1 -->
<g id="node1" class="node">
<title>valid/1</title>
<ellipse fill="#f5f5dc" stroke="#000000" cx="195" cy="-69.2132" rx="53.066" ry="21.4286"/>
<text text-anchor="start" x="166" y="-72.0132" font-family="Courier,monospace" font-size="9.00" fill="#000000"> </text>
<text text-anchor="start" x="172" y="-71.4132" font-family="Courier,monospace" font-size="11.00" fill="#000000">valid/1</text>
<text text-anchor="start" x="219" y="-72.0132" font-family="Courier,monospace" font-size="9.00" fill="#000000"> </text>
<text text-anchor="start" x="166" y="-61.0132" font-family="Courier,monospace" font-size="9.00" fill="#000000"> </text>
<text text-anchor="start" x="184.5" y="-61.6132" font-family="Courier,monospace" font-size="7.00" fill="#000000">local</text>
<text text-anchor="start" x="219" y="-61.0132" font-family="Courier,monospace" font-size="9.00" fill="#000000"> </text>
</g>
<!-- check/1 -->
<g id="node2" class="node">
<title>check/1</title>
<ellipse fill="#f5f5dc" stroke="#000000" cx="71" cy="-69.2132" rx="53.066" ry="21.4286"/>
<text text-anchor="start" x="42" y="-72.0132" font-family="Courier,monospace" font-size="9.00" fill="#000000"> </text>
<text text-anchor="start" x="48" y="-71.4132" font-family="Courier,monospace" font-size="11.00" fill="#000000">check/1</text>
<text text-anchor="start" x="95" y="-72.0132" font-family="Courier,monospace" font-size="9.00" fill="#000000"> </text>
<text text-anchor="start" x="42" y="-61.0132" font-family="Courier,monospace" font-size="9.00" fill="#000000"> </text>
<text text-anchor="start" x="60.5" y="-61.6132" font-family="Courier,monospace" font-size="7.00" fill="#000000">local</text>
<text text-anchor="start" x="95" y="-61.0132" font-family="Courier,monospace" font-size="9.00" fill="#000000"> </text>
</g>
</g>
</svg>
