<?xml version="1.0" encoding="UTF-8" standalone="no"?>
<?xml-stylesheet href="diagrams.css" type="text/css"?>
<!DOCTYPE svg PUBLIC "-//W3C//DTD SVG 1.1//EN"
 "http://www.w3.org/Graphics/SVG/1.1/DTD/svg11.dtd">
<!-- Generated by graphviz version 12.1.2 (20240928.0832)
 -->
<!-- Title: atomic_object Pages: 1 -->
<svg width="426pt" height="299pt"
 viewBox="72.00 72.00 354.00 227.00" xmlns="http://www.w3.org/2000/svg" xmlns:xlink="http://www.w3.org/1999/xlink">
<g id="graph0" class="graph" transform="scale(1 1) rotate(0) translate(76 223)">
<title>atomic_object</title>
<polygon fill="white" stroke="none" points="-4,4 -4,-151 278,-151 278,4 -4,4"/>
<text text-anchor="start" x="8" y="-32.75" font-family="Monospace" font-size="10.00" fill="dimgray">Logtalk library</text>
<text text-anchor="start" x="8" y="-20" font-family="Monospace" font-size="10.00" fill="dimgray">Cross&#45;referencing diagram for object atomic</text>
<text text-anchor="start" x="8" y="-7.25" font-family="Monospace" font-size="10.00" fill="dimgray">Generated on 2024&#45;10&#45;30, 19:55</text>
<g id="clust1" class="cluster">
<title>cluster_atomic_object</title>
<g id="a_clust1"><a xlink:title="atomic">
<path fill="snow" stroke="dimgray" d="M56.5,-54.25C56.5,-54.25 217.5,-54.25 217.5,-54.25 223.5,-54.25 229.5,-60.25 229.5,-66.25 229.5,-66.25 229.5,-127 229.5,-127 229.5,-133 223.5,-139 217.5,-139 217.5,-139 56.5,-139 56.5,-139 50.5,-139 44.5,-133 44.5,-127 44.5,-127 44.5,-66.25 44.5,-66.25 44.5,-60.25 50.5,-54.25 56.5,-54.25"/>
<g id="a_clust1_0"><a xlink:href="https://github.com/LogtalkDotOrg/logtalk3/tree/1895664a03314d1380a0d474b6ef3c76bf72f867/library/types/atomic.lgt" xlink:title="https://github.com/LogtalkDotOrg/logtalk3/tree/1895664a03314d1380a0d474b6ef3c76bf72f867/library/types/atomic.lgt">
<text text-anchor="start" x="56.5" y="-121.5" font-family="Monospace" font-size="10.00" fill="dimgray">atomic</text>
</a>
</g>
</a>
</g>
</g>
<!-- valid/1 -->
<g id="node1" class="node">
<title>valid/1</title>
<g id="a_node1"><a xlink:href="https://github.com/LogtalkDotOrg/logtalk3/tree/1895664a03314d1380a0d474b6ef3c76bf72f867/library/types/atomic.lgt#L32" xlink:title="https://github.com/LogtalkDotOrg/logtalk3/tree/1895664a03314d1380a0d474b6ef3c76bf72f867/library/types/atomic.lgt#L32">
<polygon fill="cornsilk" stroke="black" points="128,-100.25 55,-100.25 55,-64.25 128,-64.25 128,-100.25"/>
<text text-anchor="start" x="62.88" y="-84.83" font-family="Monospace" font-size="9.00"> </text>
<text text-anchor="start" x="67.88" y="-83.8" font-family="Monospace" font-size="11.00">valid/1</text>
<text text-anchor="start" x="114.88" y="-84.83" font-family="Monospace" font-size="9.00"> </text>
<text text-anchor="start" x="62.88" y="-72.7" font-family="Monospace" font-size="9.00"> </text>
<text text-anchor="start" x="80.25" y="-73.6" font-family="Monospace" font-size="7.00">local</text>
<text text-anchor="start" x="114.88" y="-72.7" font-family="Monospace" font-size="9.00"> </text>
</a>
</g>
</g>
<!-- check/1 -->
<g id="node2" class="node">
<title>check/1</title>
<g id="a_node2"><a xlink:href="https://github.com/LogtalkDotOrg/logtalk3/tree/1895664a03314d1380a0d474b6ef3c76bf72f867/library/types/atomic.lgt#L35" xlink:title="https://github.com/LogtalkDotOrg/logtalk3/tree/1895664a03314d1380a0d474b6ef3c76bf72f867/library/types/atomic.lgt#L35">
<polygon fill="cornsilk" stroke="black" points="219,-100.25 146,-100.25 146,-64.25 219,-64.25 219,-100.25"/>
<text text-anchor="start" x="153.88" y="-84.83" font-family="Monospace" font-size="9.00"> </text>
<text text-anchor="start" x="158.88" y="-83.8" font-family="Monospace" font-size="11.00">check/1</text>
<text text-anchor="start" x="205.88" y="-84.83" font-family="Monospace" font-size="9.00"> </text>
<text text-anchor="start" x="153.88" y="-72.7" font-family="Monospace" font-size="9.00"> </text>
<text text-anchor="start" x="171.25" y="-73.6" font-family="Monospace" font-size="7.00">local</text>
<text text-anchor="start" x="205.88" y="-72.7" font-family="Monospace" font-size="9.00"> </text>
</a>
</g>
</g>
</g>
</svg>
