<?xml version="1.0" encoding="UTF-8" standalone="no"?>
<?xml-stylesheet href="diagrams.css" type="text/css"?>
<!DOCTYPE svg PUBLIC "-//W3C//DTD SVG 1.1//EN"
 "http://www.w3.org/Graphics/SVG/1.1/DTD/svg11.dtd">
<!-- Generated by graphviz version 2.49.3 (20211023.0002)
 -->
<!-- Title: atomic_object Pages: 1 -->
<svg width="427pt" height="292pt"
 viewBox="72.00 72.00 355.00 220.00" xmlns="http://www.w3.org/2000/svg" xmlns:xlink="http://www.w3.org/1999/xlink">
<g id="graph0" class="graph" transform="scale(1 1) rotate(0) translate(76 216)">
<title>atomic_object</title>
<polygon fill="white" stroke="transparent" points="-4,4 -4,-144 279,-144 279,4 -4,4"/>
<text text-anchor="start" x="8" y="-29" font-family="Monospace" font-size="10.00" fill="dimgray">Logtalk library</text>
<text text-anchor="start" x="8" y="-18" font-family="Monospace" font-size="10.00" fill="dimgray">Cross&#45;referencing diagram for object atomic</text>
<text text-anchor="start" x="8" y="-7" font-family="Monospace" font-size="10.00" fill="dimgray">Generated on 2021&#45;12&#45;02, 08:17</text>
<g id="clust1" class="cluster">
<title>cluster_atomic_object</title>
<g id="a_clust1"><a xlink:title="atomic">
<path fill="snow" stroke="dimgray" d="M55,-49C55,-49 220,-49 220,-49 226,-49 232,-55 232,-61 232,-61 232,-120 232,-120 232,-126 226,-132 220,-132 220,-132 55,-132 55,-132 49,-132 43,-126 43,-120 43,-120 43,-61 43,-61 43,-55 49,-49 55,-49"/>
<g id="a_clust1_0"><a xlink:href="https://github.com/LogtalkDotOrg/logtalk3/tree/8f74caa8b343527af192c30fc01e18d864e14e52/library/types/atomic.lgt" xlink:title="https://github.com/LogtalkDotOrg/logtalk3/tree/8f74caa8b343527af192c30fc01e18d864e14e52/library/types/atomic.lgt">
<text text-anchor="start" x="55.5" y="-115.5" font-family="Monospace" font-size="10.00" fill="dimgray">atomic</text>
</a>
</g>
</a>
</g>
</g>
<!-- valid/1 -->
<g id="node1" class="node">
<title>valid/1</title>
<g id="a_node1"><a xlink:href="https://github.com/LogtalkDotOrg/logtalk3/tree/8f74caa8b343527af192c30fc01e18d864e14e52/library/types/atomic.lgt#L32" xlink:title="https://github.com/LogtalkDotOrg/logtalk3/tree/8f74caa8b343527af192c30fc01e18d864e14e52/library/types/atomic.lgt#L32">
<polygon fill="cornsilk" stroke="black" points="221.5,-95 146.5,-95 146.5,-59 221.5,-59 221.5,-95"/>
<text text-anchor="start" x="155" y="-79.8" font-family="Monospace" font-size="9.00"> </text>
<text text-anchor="start" x="161" y="-79.2" font-family="Monospace" font-size="11.00">valid/1</text>
<text text-anchor="start" x="208" y="-79.8" font-family="Monospace" font-size="9.00"> </text>
<text text-anchor="start" x="155" y="-68.8" font-family="Monospace" font-size="9.00"> </text>
<text text-anchor="start" x="173.5" y="-69.4" font-family="Monospace" font-size="7.00">local</text>
<text text-anchor="start" x="208" y="-68.8" font-family="Monospace" font-size="9.00"> </text>
</a>
</g>
</g>
<!-- check/1 -->
<g id="node2" class="node">
<title>check/1</title>
<g id="a_node2"><a xlink:href="https://github.com/LogtalkDotOrg/logtalk3/tree/8f74caa8b343527af192c30fc01e18d864e14e52/library/types/atomic.lgt#L35" xlink:title="https://github.com/LogtalkDotOrg/logtalk3/tree/8f74caa8b343527af192c30fc01e18d864e14e52/library/types/atomic.lgt#L35">
<polygon fill="cornsilk" stroke="black" points="128.5,-95 53.5,-95 53.5,-59 128.5,-59 128.5,-95"/>
<text text-anchor="start" x="62" y="-79.8" font-family="Monospace" font-size="9.00"> </text>
<text text-anchor="start" x="68" y="-79.2" font-family="Monospace" font-size="11.00">check/1</text>
<text text-anchor="start" x="115" y="-79.8" font-family="Monospace" font-size="9.00"> </text>
<text text-anchor="start" x="62" y="-68.8" font-family="Monospace" font-size="9.00"> </text>
<text text-anchor="start" x="80.5" y="-69.4" font-family="Monospace" font-size="7.00">local</text>
<text text-anchor="start" x="115" y="-68.8" font-family="Monospace" font-size="9.00"> </text>
</a>
</g>
</g>
</g>
</svg>
