<?xml version="1.0" encoding="UTF-8" standalone="no"?>
<?xml-stylesheet href="diagrams.css" type="text/css"?>
<!DOCTYPE svg PUBLIC "-//W3C//DTD SVG 1.1//EN"
 "http://www.w3.org/Graphics/SVG/1.1/DTD/svg11.dtd">
<!-- Generated by graphviz version 2.49.3 (20211023.0002)
 -->
<!-- Title: atomic_object Pages: 1 -->
<svg width="383pt" height="292pt"
 viewBox="72.00 72.00 311.00 220.00" xmlns="http://www.w3.org/2000/svg" xmlns:xlink="http://www.w3.org/1999/xlink">
<g id="graph0" class="graph" transform="scale(1 1) rotate(0) translate(76 216)">
<title>atomic_object</title>
<polygon fill="white" stroke="transparent" points="-4,4 -4,-144 235,-144 235,4 -4,4"/>
<text text-anchor="start" x="8" y="-29" font-family="Courier,monospace" font-size="10.00" fill="dimgray">Logtalk library</text>
<text text-anchor="start" x="8" y="-18" font-family="Courier,monospace" font-size="10.00" fill="dimgray">Cross&#45;referencing diagram for object atomic</text>
<text text-anchor="start" x="8" y="-7" font-family="Courier,monospace" font-size="10.00" fill="dimgray">Generated on 2021&#45;11&#45;13, 18:29</text>
<g id="clust1" class="cluster">
<title>cluster_atomic_object</title>
<g id="a_clust1"><a xlink:title="atomic">
<path fill="snow" stroke="dimgray" d="M43,-49C43,-49 188,-49 188,-49 194,-49 200,-55 200,-61 200,-61 200,-120 200,-120 200,-126 194,-132 188,-132 188,-132 43,-132 43,-132 37,-132 31,-126 31,-120 31,-120 31,-61 31,-61 31,-55 37,-49 43,-49"/>
<g id="a_clust1_0"><a xlink:href="https://github.com/LogtalkDotOrg/logtalk3/tree/9faf5dbd41dcda13eefe9bff6f1dfa22e6d84b6c/library/types/atomic.lgt" xlink:title="https://github.com/LogtalkDotOrg/logtalk3/tree/9faf5dbd41dcda13eefe9bff6f1dfa22e6d84b6c/library/types/atomic.lgt">
<text text-anchor="start" x="43" y="-115.5" font-family="Courier,monospace" font-size="10.00" fill="dimgray">atomic</text>
</a>
</g>
</a>
</g>
</g>
<!-- valid/1 -->
<g id="node1" class="node">
<title>valid/1</title>
<g id="a_node1"><a xlink:href="https://github.com/LogtalkDotOrg/logtalk3/tree/9faf5dbd41dcda13eefe9bff6f1dfa22e6d84b6c/library/types/atomic.lgt#L32" xlink:title="https://github.com/LogtalkDotOrg/logtalk3/tree/9faf5dbd41dcda13eefe9bff6f1dfa22e6d84b6c/library/types/atomic.lgt#L32">
<polygon fill="cornsilk" stroke="black" points="189.5,-95 124.5,-95 124.5,-59 189.5,-59 189.5,-95"/>
<text text-anchor="start" x="133" y="-79.8" font-family="Courier,monospace" font-size="9.00"> </text>
<text text-anchor="start" x="138" y="-79.2" font-family="Courier,monospace" font-size="11.00">valid/1</text>
<text text-anchor="start" x="177" y="-79.8" font-family="Courier,monospace" font-size="9.00"> </text>
<text text-anchor="start" x="133" y="-68.8" font-family="Courier,monospace" font-size="9.00"> </text>
<text text-anchor="start" x="148.5" y="-69.4" font-family="Courier,monospace" font-size="7.00">local</text>
<text text-anchor="start" x="177" y="-68.8" font-family="Courier,monospace" font-size="9.00"> </text>
</a>
</g>
</g>
<!-- check/1 -->
<g id="node2" class="node">
<title>check/1</title>
<g id="a_node2"><a xlink:href="https://github.com/LogtalkDotOrg/logtalk3/tree/9faf5dbd41dcda13eefe9bff6f1dfa22e6d84b6c/library/types/atomic.lgt#L35" xlink:title="https://github.com/LogtalkDotOrg/logtalk3/tree/9faf5dbd41dcda13eefe9bff6f1dfa22e6d84b6c/library/types/atomic.lgt#L35">
<polygon fill="cornsilk" stroke="black" points="106.5,-95 41.5,-95 41.5,-59 106.5,-59 106.5,-95"/>
<text text-anchor="start" x="50" y="-79.8" font-family="Courier,monospace" font-size="9.00"> </text>
<text text-anchor="start" x="55" y="-79.2" font-family="Courier,monospace" font-size="11.00">check/1</text>
<text text-anchor="start" x="94" y="-79.8" font-family="Courier,monospace" font-size="9.00"> </text>
<text text-anchor="start" x="50" y="-68.8" font-family="Courier,monospace" font-size="9.00"> </text>
<text text-anchor="start" x="65.5" y="-69.4" font-family="Courier,monospace" font-size="7.00">local</text>
<text text-anchor="start" x="94" y="-68.8" font-family="Courier,monospace" font-size="9.00"> </text>
</a>
</g>
</g>
</g>
</svg>
