<?xml version="1.0" encoding="UTF-8" standalone="no"?>
<?xml-stylesheet href="diagrams.css" type="text/css"?>
<!DOCTYPE svg PUBLIC "-//W3C//DTD SVG 1.1//EN"
 "http://www.w3.org/Graphics/SVG/1.1/DTD/svg11.dtd">
<!-- Generated by graphviz version 9.0.0 (20230911.1827)
 -->
<!-- Title: atomic_object Pages: 1 -->
<svg width="426pt" height="293pt"
 viewBox="72.00 72.00 354.00 221.00" xmlns="http://www.w3.org/2000/svg" xmlns:xlink="http://www.w3.org/1999/xlink">
<g id="graph0" class="graph" transform="scale(1 1) rotate(0) translate(76 217)">
<title>atomic_object</title>
<polygon fill="white" stroke="none" points="-4,4 -4,-145 278,-145 278,4 -4,4"/>
<text text-anchor="start" x="8" y="-28.25" font-family="Monospace" font-size="10.00" fill="dimgray">Logtalk library</text>
<text text-anchor="start" x="8" y="-17" font-family="Monospace" font-size="10.00" fill="dimgray">Cross&#45;referencing diagram for object atomic</text>
<text text-anchor="start" x="8" y="-5.75" font-family="Monospace" font-size="10.00" fill="dimgray">Generated on 2023&#45;11&#45;08, 15:02</text>
<g id="clust1" class="cluster">
<title>cluster_atomic_object</title>
<g id="a_clust1"><a xlink:title="atomic">
<path fill="snow" stroke="dimgray" d="M56.5,-49.75C56.5,-49.75 217.5,-49.75 217.5,-49.75 223.5,-49.75 229.5,-55.75 229.5,-61.75 229.5,-61.75 229.5,-121 229.5,-121 229.5,-127 223.5,-133 217.5,-133 217.5,-133 56.5,-133 56.5,-133 50.5,-133 44.5,-127 44.5,-121 44.5,-121 44.5,-61.75 44.5,-61.75 44.5,-55.75 50.5,-49.75 56.5,-49.75"/>
<g id="a_clust1_0"><a xlink:href="https://github.com/LogtalkDotOrg/logtalk3/tree/301e5bea27046e10992dbb7d74be70f4a026dcf5/library/types/atomic.lgt" xlink:title="https://github.com/LogtalkDotOrg/logtalk3/tree/301e5bea27046e10992dbb7d74be70f4a026dcf5/library/types/atomic.lgt">
<text text-anchor="start" x="56.5" y="-115.5" font-family="Monospace" font-size="10.00" fill="dimgray">atomic</text>
</a>
</g>
</a>
</g>
</g>
<!-- valid/1 -->
<g id="node1" class="node">
<title>valid/1</title>
<g id="a_node1"><a xlink:href="https://github.com/LogtalkDotOrg/logtalk3/tree/301e5bea27046e10992dbb7d74be70f4a026dcf5/library/types/atomic.lgt#L32" xlink:title="https://github.com/LogtalkDotOrg/logtalk3/tree/301e5bea27046e10992dbb7d74be70f4a026dcf5/library/types/atomic.lgt#L32">
<polygon fill="cornsilk" stroke="black" points="219,-95.75 146,-95.75 146,-59.75 219,-59.75 219,-95.75"/>
<text text-anchor="start" x="153.88" y="-78.58" font-family="Monospace" font-size="9.00"> </text>
<text text-anchor="start" x="158.88" y="-77.8" font-family="Monospace" font-size="11.00">valid/1</text>
<text text-anchor="start" x="205.88" y="-78.58" font-family="Monospace" font-size="9.00"> </text>
<text text-anchor="start" x="153.88" y="-67.7" font-family="Monospace" font-size="9.00"> </text>
<text text-anchor="start" x="171.25" y="-69.22" font-family="Monospace" font-size="7.00">local</text>
<text text-anchor="start" x="205.88" y="-67.7" font-family="Monospace" font-size="9.00"> </text>
</a>
</g>
</g>
<!-- check/1 -->
<g id="node2" class="node">
<title>check/1</title>
<g id="a_node2"><a xlink:href="https://github.com/LogtalkDotOrg/logtalk3/tree/301e5bea27046e10992dbb7d74be70f4a026dcf5/library/types/atomic.lgt#L35" xlink:title="https://github.com/LogtalkDotOrg/logtalk3/tree/301e5bea27046e10992dbb7d74be70f4a026dcf5/library/types/atomic.lgt#L35">
<polygon fill="cornsilk" stroke="black" points="128,-95.75 55,-95.75 55,-59.75 128,-59.75 128,-95.75"/>
<text text-anchor="start" x="62.88" y="-78.58" font-family="Monospace" font-size="9.00"> </text>
<text text-anchor="start" x="67.88" y="-77.8" font-family="Monospace" font-size="11.00">check/1</text>
<text text-anchor="start" x="114.88" y="-78.58" font-family="Monospace" font-size="9.00"> </text>
<text text-anchor="start" x="62.88" y="-67.7" font-family="Monospace" font-size="9.00"> </text>
<text text-anchor="start" x="80.25" y="-69.22" font-family="Monospace" font-size="7.00">local</text>
<text text-anchor="start" x="114.88" y="-67.7" font-family="Monospace" font-size="9.00"> </text>
</a>
</g>
</g>
</g>
</svg>
