<?xml version="1.0" encoding="UTF-8" standalone="no"?>
<?xml-stylesheet href="diagrams.css" type="text/css"?>
<!DOCTYPE svg PUBLIC "-//W3C//DTD SVG 1.1//EN"
 "http://www.w3.org/Graphics/SVG/1.1/DTD/svg11.dtd">
<!-- Generated by graphviz version 2.50.0 (20211204.2007)
 -->
<!-- Title: atomic_object Pages: 1 -->
<svg width="427pt" height="292pt"
 viewBox="72.00 72.00 355.00 220.00" xmlns="http://www.w3.org/2000/svg" xmlns:xlink="http://www.w3.org/1999/xlink">
<g id="graph0" class="graph" transform="scale(1 1) rotate(0) translate(76 216)">
<title>atomic_object</title>
<polygon fill="white" stroke="transparent" points="-4,4 -4,-144 279,-144 279,4 -4,4"/>
<text text-anchor="start" x="8" y="-29" font-family="Monospace" font-size="10.00" fill="dimgray">Logtalk library</text>
<text text-anchor="start" x="8" y="-18" font-family="Monospace" font-size="10.00" fill="dimgray">Cross&#45;referencing diagram for object atomic</text>
<text text-anchor="start" x="8" y="-7" font-family="Monospace" font-size="10.00" fill="dimgray">Generated on 2022&#45;07&#45;21, 09:36</text>
<g id="clust1" class="cluster">
<title>cluster_atomic_object</title>
<g id="a_clust1"><a xlink:title="atomic">
<path fill="snow" stroke="dimgray" d="M54.5,-49C54.5,-49 220.5,-49 220.5,-49 226.5,-49 232.5,-55 232.5,-61 232.5,-61 232.5,-120 232.5,-120 232.5,-126 226.5,-132 220.5,-132 220.5,-132 54.5,-132 54.5,-132 48.5,-132 42.5,-126 42.5,-120 42.5,-120 42.5,-61 42.5,-61 42.5,-55 48.5,-49 54.5,-49"/>
<g id="a_clust1_0"><a xlink:href="https://github.com/LogtalkDotOrg/logtalk3/tree/acae17950103741ba31215fb9b3bf4f94029ff6a/library/types/atomic.lgt" xlink:title="https://github.com/LogtalkDotOrg/logtalk3/tree/acae17950103741ba31215fb9b3bf4f94029ff6a/library/types/atomic.lgt">
<text text-anchor="start" x="55" y="-115.5" font-family="Monospace" font-size="10.00" fill="dimgray">atomic</text>
</a>
</g>
</a>
</g>
</g>
<!-- valid/1 -->
<g id="node1" class="node">
<title>valid/1</title>
<g id="a_node1"><a xlink:href="https://github.com/LogtalkDotOrg/logtalk3/tree/acae17950103741ba31215fb9b3bf4f94029ff6a/library/types/atomic.lgt#L32" xlink:title="https://github.com/LogtalkDotOrg/logtalk3/tree/acae17950103741ba31215fb9b3bf4f94029ff6a/library/types/atomic.lgt#L32">
<polygon fill="cornsilk" stroke="black" points="222.5,-95 146.5,-95 146.5,-59 222.5,-59 222.5,-95"/>
<text text-anchor="start" x="154.5" y="-79.8" font-family="Monospace" font-size="9.00"> </text>
<text text-anchor="start" x="160.5" y="-79.2" font-family="Monospace" font-size="11.00">valid/1</text>
<text text-anchor="start" x="208.5" y="-79.8" font-family="Monospace" font-size="9.00"> </text>
<text text-anchor="start" x="154.5" y="-68.8" font-family="Monospace" font-size="9.00"> </text>
<text text-anchor="start" x="173" y="-69.4" font-family="Monospace" font-size="7.00">local</text>
<text text-anchor="start" x="208.5" y="-68.8" font-family="Monospace" font-size="9.00"> </text>
</a>
</g>
</g>
<!-- check/1 -->
<g id="node2" class="node">
<title>check/1</title>
<g id="a_node2"><a xlink:href="https://github.com/LogtalkDotOrg/logtalk3/tree/acae17950103741ba31215fb9b3bf4f94029ff6a/library/types/atomic.lgt#L35" xlink:title="https://github.com/LogtalkDotOrg/logtalk3/tree/acae17950103741ba31215fb9b3bf4f94029ff6a/library/types/atomic.lgt#L35">
<polygon fill="cornsilk" stroke="black" points="128.5,-95 52.5,-95 52.5,-59 128.5,-59 128.5,-95"/>
<text text-anchor="start" x="60.5" y="-79.8" font-family="Monospace" font-size="9.00"> </text>
<text text-anchor="start" x="66.5" y="-79.2" font-family="Monospace" font-size="11.00">check/1</text>
<text text-anchor="start" x="114.5" y="-79.8" font-family="Monospace" font-size="9.00"> </text>
<text text-anchor="start" x="60.5" y="-68.8" font-family="Monospace" font-size="9.00"> </text>
<text text-anchor="start" x="79" y="-69.4" font-family="Monospace" font-size="7.00">local</text>
<text text-anchor="start" x="114.5" y="-68.8" font-family="Monospace" font-size="9.00"> </text>
</a>
</g>
</g>
</g>
</svg>
