<?xml version="1.0" encoding="UTF-8" standalone="no"?>
<?xml-stylesheet href="diagrams.css" type="text/css"?>
<!DOCTYPE svg PUBLIC "-//W3C//DTD SVG 1.1//EN"
 "http://www.w3.org/Graphics/SVG/1.1/DTD/svg11.dtd">
<!-- Generated by graphviz version 2.43.20191029.1313 (20191029.1313)
 -->
<!-- Title: atomic_object Pages: 1 -->
<svg width="426pt" height="288pt"
 viewBox="72.00 72.00 354.04 216.00" xmlns="http://www.w3.org/2000/svg" xmlns:xlink="http://www.w3.org/1999/xlink">
<g id="graph0" class="graph" transform="scale(1 1) rotate(0) translate(76 212)">
<title>atomic_object</title>
<polygon fill="white" stroke="transparent" points="-4,4 -4,-140 278.04,-140 278.04,4 -4,4"/>
<text text-anchor="start" x="8" y="-26" font-family="Courier,monospace" font-size="10.00" fill="dimgray">Logtalk library</text>
<text text-anchor="start" x="8" y="-16" font-family="Courier,monospace" font-size="10.00" fill="dimgray">Cross&#45;referencing diagram for object atomic</text>
<text text-anchor="start" x="8" y="-6" font-family="Courier,monospace" font-size="10.00" fill="dimgray">Generated on 2020&#45;05&#45;25, 21:55</text>
<g id="clust1" class="cluster">
<title>cluster_atomic_object</title>
<g id="a_clust1"><a xlink:title="atomic">
<path fill="snow" stroke="dimgray" d="M58.02,-46C58.02,-46 216.02,-46 216.02,-46 222.02,-46 228.02,-52 228.02,-58 228.02,-58 228.02,-116 228.02,-116 228.02,-122 222.02,-128 216.02,-128 216.02,-128 58.02,-128 58.02,-128 52.02,-128 46.02,-122 46.02,-116 46.02,-116 46.02,-58 46.02,-58 46.02,-52 52.02,-46 58.02,-46"/>
<g id="a_clust1_0"><a xlink:href="https://github.com/LogtalkDotOrg/logtalk3/tree/ee3e469ba16664bcc8b3b120a4a0bb7672d96db2/library/types/atomic.lgt" xlink:title="https://github.com/LogtalkDotOrg/logtalk3/tree/ee3e469ba16664bcc8b3b120a4a0bb7672d96db2/library/types/atomic.lgt">
<text text-anchor="start" x="58.02" y="-112" font-family="Courier,monospace" font-size="10.00" fill="dimgray">atomic</text>
</a>
</g>
</a>
</g>
</g>
<!-- valid/1 -->
<g id="node1" class="node">
<title>valid/1</title>
<g id="a_node1"><a xlink:href="https://github.com/LogtalkDotOrg/logtalk3/tree/ee3e469ba16664bcc8b3b120a4a0bb7672d96db2/library/types/atomic.lgt#L31" xlink:title="https://github.com/LogtalkDotOrg/logtalk3/tree/ee3e469ba16664bcc8b3b120a4a0bb7672d96db2/library/types/atomic.lgt#L31">
<polygon fill="cornsilk" stroke="black" points="218.02,-92 146.02,-92 146.02,-56 218.02,-56 218.02,-92"/>
<text text-anchor="start" x="153.82" y="-75.8" font-family="Courier,monospace" font-size="9.00"> </text>
<text text-anchor="start" x="158.92" y="-75.2" font-family="Courier,monospace" font-size="11.00">valid/1</text>
<text text-anchor="start" x="204.82" y="-75.8" font-family="Courier,monospace" font-size="9.00"> </text>
<text text-anchor="start" x="153.82" y="-65.8" font-family="Courier,monospace" font-size="9.00"> </text>
<text text-anchor="start" x="171.52" y="-66.4" font-family="Courier,monospace" font-size="7.00">local</text>
<text text-anchor="start" x="204.82" y="-65.8" font-family="Courier,monospace" font-size="9.00"> </text>
</a>
</g>
</g>
<!-- check/1 -->
<g id="node2" class="node">
<title>check/1</title>
<g id="a_node2"><a xlink:href="https://github.com/LogtalkDotOrg/logtalk3/tree/ee3e469ba16664bcc8b3b120a4a0bb7672d96db2/library/types/atomic.lgt#L34" xlink:title="https://github.com/LogtalkDotOrg/logtalk3/tree/ee3e469ba16664bcc8b3b120a4a0bb7672d96db2/library/types/atomic.lgt#L34">
<polygon fill="cornsilk" stroke="black" points="128.02,-92 56.02,-92 56.02,-56 128.02,-56 128.02,-92"/>
<text text-anchor="start" x="63.82" y="-75.8" font-family="Courier,monospace" font-size="9.00"> </text>
<text text-anchor="start" x="68.92" y="-75.2" font-family="Courier,monospace" font-size="11.00">check/1</text>
<text text-anchor="start" x="114.82" y="-75.8" font-family="Courier,monospace" font-size="9.00"> </text>
<text text-anchor="start" x="63.82" y="-65.8" font-family="Courier,monospace" font-size="9.00"> </text>
<text text-anchor="start" x="81.52" y="-66.4" font-family="Courier,monospace" font-size="7.00">local</text>
<text text-anchor="start" x="114.82" y="-65.8" font-family="Courier,monospace" font-size="9.00"> </text>
</a>
</g>
</g>
</g>
</svg>
