<?xml version="1.0" encoding="UTF-8" standalone="no"?>
<!DOCTYPE svg PUBLIC "-//W3C//DTD SVG 1.1//EN"
 "http://www.w3.org/Graphics/SVG/1.1/DTD/svg11.dtd">
<!-- Generated by graphviz version 2.40.1 (20161225.0304)
 -->
<!-- Title: atomic_object Pages: 1 -->
<svg width="427pt" height="290pt"
 viewBox="72.00 72.00 355.00 218.43" xmlns="http://www.w3.org/2000/svg" xmlns:xlink="http://www.w3.org/1999/xlink">
<g id="graph0" class="graph" transform="scale(1 1) rotate(0) translate(76 214.4264)">
<title>atomic_object</title>
<polygon fill="#ffffff" stroke="transparent" points="-4,4 -4,-142.4264 279,-142.4264 279,4 -4,4"/>
<text text-anchor="start" x="8" y="-29" font-family="Courier,monospace" font-size="10.00" fill="#8b8989">Logtalk library</text>
<text text-anchor="start" x="8" y="-18" font-family="Courier,monospace" font-size="10.00" fill="#8b8989">Cross&#45;referencing diagram for object atomic</text>
<text text-anchor="start" x="8" y="-7" font-family="Courier,monospace" font-size="10.00" fill="#8b8989">Generated on 2019/04/24, 15:27</text>
<g id="clust1" class="cluster">
<title>cluster_atomic_object</title>
<g id="a_clust1"><a xlink:href="https://github.com/LogtalkDotOrg/logtalk3/tree/master/library/atomic.lgt" xlink:title="https://github.com/LogtalkDotOrg/logtalk3/tree/master/library/atomic.lgt">
<path fill="#fffafa" stroke="#8b8989" d="M24.5,-49C24.5,-49 250.5,-49 250.5,-49 256.5,-49 262.5,-55 262.5,-61 262.5,-61 262.5,-118.4264 262.5,-118.4264 262.5,-124.4264 256.5,-130.4264 250.5,-130.4264 250.5,-130.4264 24.5,-130.4264 24.5,-130.4264 18.5,-130.4264 12.5,-124.4264 12.5,-118.4264 12.5,-118.4264 12.5,-61 12.5,-61 12.5,-55 18.5,-49 24.5,-49"/>
<text text-anchor="middle" x="39" y="-118.4264" font-family="Courier,monospace" font-size="10.00" fill="#8b8989">atomic</text>
</a>
</g>
</g>
<!-- valid/1 -->
<g id="node1" class="node">
<title>valid/1</title>
<g id="a_node1"><a xlink:href="https://github.com/LogtalkDotOrg/logtalk3/tree/master/library/atomic.lgt#L31" xlink:title="https://github.com/LogtalkDotOrg/logtalk3/tree/master/library/atomic.lgt#L31">
<ellipse fill="#fff8dc" stroke="#000000" cx="199.5" cy="-80.2132" rx="53.066" ry="21.4286"/>
<text text-anchor="start" x="170.5" y="-83.0132" font-family="Courier,monospace" font-size="9.00" fill="#000000"> </text>
<text text-anchor="start" x="176.5" y="-82.4132" font-family="Courier,monospace" font-size="11.00" fill="#000000">valid/1</text>
<text text-anchor="start" x="223.5" y="-83.0132" font-family="Courier,monospace" font-size="9.00" fill="#000000"> </text>
<text text-anchor="start" x="170.5" y="-72.0132" font-family="Courier,monospace" font-size="9.00" fill="#000000"> </text>
<text text-anchor="start" x="189" y="-72.6132" font-family="Courier,monospace" font-size="7.00" fill="#000000">local</text>
<text text-anchor="start" x="223.5" y="-72.0132" font-family="Courier,monospace" font-size="9.00" fill="#000000"> </text>
</a>
</g>
</g>
<!-- check/1 -->
<g id="node2" class="node">
<title>check/1</title>
<g id="a_node2"><a xlink:href="https://github.com/LogtalkDotOrg/logtalk3/tree/master/library/atomic.lgt#L34" xlink:title="https://github.com/LogtalkDotOrg/logtalk3/tree/master/library/atomic.lgt#L34">
<ellipse fill="#fff8dc" stroke="#000000" cx="75.5" cy="-80.2132" rx="53.066" ry="21.4286"/>
<text text-anchor="start" x="46.5" y="-83.0132" font-family="Courier,monospace" font-size="9.00" fill="#000000"> </text>
<text text-anchor="start" x="52.5" y="-82.4132" font-family="Courier,monospace" font-size="11.00" fill="#000000">check/1</text>
<text text-anchor="start" x="99.5" y="-83.0132" font-family="Courier,monospace" font-size="9.00" fill="#000000"> </text>
<text text-anchor="start" x="46.5" y="-72.0132" font-family="Courier,monospace" font-size="9.00" fill="#000000"> </text>
<text text-anchor="start" x="65" y="-72.6132" font-family="Courier,monospace" font-size="7.00" fill="#000000">local</text>
<text text-anchor="start" x="99.5" y="-72.0132" font-family="Courier,monospace" font-size="9.00" fill="#000000"> </text>
</a>
</g>
</g>
</g>
</svg>
