<?xml version="1.0" encoding="UTF-8" standalone="no"?>
<?xml-stylesheet href="diagrams.css" type="text/css"?>
<!DOCTYPE svg PUBLIC "-//W3C//DTD SVG 1.1//EN"
 "http://www.w3.org/Graphics/SVG/1.1/DTD/svg11.dtd">
<!-- Generated by graphviz version 7.0.1 (20221109.1506)
 -->
<!-- Title: automation_report_object Pages: 1 -->
<svg width="493pt" height="528pt"
 viewBox="72.00 72.00 421.00 456.00" xmlns="http://www.w3.org/2000/svg" xmlns:xlink="http://www.w3.org/1999/xlink">
<g id="graph0" class="graph" transform="scale(1 1) rotate(0) translate(76 452)">
<title>automation_report_object</title>
<polygon fill="white" stroke="none" points="-4,4 -4,-380 345,-380 345,4 -4,4"/>
<text text-anchor="start" x="8" y="-29" font-family="Monospace" font-size="10.00" fill="dimgray">Logtalk development tools</text>
<text text-anchor="start" x="8" y="-18" font-family="Monospace" font-size="10.00" fill="dimgray">Cross&#45;referencing diagram for object automation_report</text>
<text text-anchor="start" x="8" y="-7" font-family="Monospace" font-size="10.00" fill="dimgray">Generated on 2023&#45;04&#45;27, 11:42</text>
<g id="clust1" class="cluster">
<title>cluster_automation_report_object</title>
<g id="a_clust1"><a xlink:title="automation_report">
<path fill="snow" stroke="dimgray" d="M70.5,-49C70.5,-49 270.5,-49 270.5,-49 276.5,-49 282.5,-55 282.5,-61 282.5,-61 282.5,-356 282.5,-356 282.5,-362 276.5,-368 270.5,-368 270.5,-368 70.5,-368 70.5,-368 64.5,-368 58.5,-362 58.5,-356 58.5,-356 58.5,-61 58.5,-61 58.5,-55 64.5,-49 70.5,-49"/>
<g id="a_clust1_0"><a xlink:href="https://github.com/LogtalkDotOrg/logtalk3/tree/b1299cdfc65fb1a04f7bb16766aede7dcb84983c/tools/lgtunit/automation_report.lgt" xlink:title="https://github.com/LogtalkDotOrg/logtalk3/tree/b1299cdfc65fb1a04f7bb16766aede7dcb84983c/tools/lgtunit/automation_report.lgt">
<text text-anchor="start" x="71" y="-351.5" font-family="Monospace" font-size="10.00" fill="dimgray">automation_report</text>
</a>
</g>
</a>
</g>
</g>
<!-- message_hook/1 -->
<g id="node1" class="node">
<title>message_hook/1</title>
<g id="a_node1"><a xlink:href="https://github.com/LogtalkDotOrg/logtalk3/tree/b1299cdfc65fb1a04f7bb16766aede7dcb84983c/tools/lgtunit/automation_report.lgt#L61" xlink:title="https://github.com/LogtalkDotOrg/logtalk3/tree/b1299cdfc65fb1a04f7bb16766aede7dcb84983c/tools/lgtunit/automation_report.lgt#L61">
<polygon fill="cornsilk" stroke="black" points="232,-213 109,-213 109,-177 232,-177 232,-213"/>
<text text-anchor="start" x="117.5" y="-197.8" font-family="Monospace" font-size="9.00"> </text>
<text text-anchor="start" x="123.5" y="-197.2" font-family="Monospace" font-size="11.00">message_hook/1</text>
<text text-anchor="start" x="218.5" y="-197.8" font-family="Monospace" font-size="9.00"> </text>
<text text-anchor="start" x="117.5" y="-186.8" font-family="Monospace" font-size="9.00"> </text>
<text text-anchor="start" x="159.5" y="-187.4" font-family="Monospace" font-size="7.00">local</text>
<text text-anchor="start" x="218.5" y="-186.8" font-family="Monospace" font-size="9.00"> </text>
</a>
</g>
</g>
<!-- user::atomic_list_concat/2 -->
<g id="node3" class="node">
<title>user::atomic_list_concat/2</title>
<polygon fill="beige" stroke="black" stroke-dasharray="5,2" points="272.5,-95 68.5,-95 68.5,-59 272.5,-59 272.5,-95"/>
<text text-anchor="start" x="76.5" y="-79.8" font-family="Monospace" font-size="9.00"> </text>
<text text-anchor="start" x="82.5" y="-79.2" font-family="Monospace" font-size="11.00">user::atomic_list_concat/2</text>
<text text-anchor="start" x="258.5" y="-79.8" font-family="Monospace" font-size="9.00"> </text>
<text text-anchor="start" x="76.5" y="-68.8" font-family="Monospace" font-size="9.00"> </text>
<text text-anchor="start" x="152" y="-69.4" font-family="Monospace" font-size="7.00">external</text>
<text text-anchor="start" x="258.5" y="-68.8" font-family="Monospace" font-size="9.00"> </text>
</g>
<!-- message_hook/1&#45;&gt;user::atomic_list_concat/2 -->
<g id="edge2" class="edge">
<title>message_hook/1&#45;&gt;user::atomic_list_concat/2</title>
<g id="a_edge2"><a xlink:href="https://github.com/LogtalkDotOrg/logtalk3/tree/b1299cdfc65fb1a04f7bb16766aede7dcb84983c/tools/lgtunit/automation_report.lgt#L61" xlink:title="calls">
<path fill="none" stroke="black" d="M170.5,-176.63C170.5,-158.18 170.5,-128.7 170.5,-106.77"/>
<polygon fill="black" stroke="black" points="174,-107 170.5,-97 167,-107 174,-107"/>
</a>
</g>
<g id="a_edge2&#45;label"><a xlink:href="https://github.com/LogtalkDotOrg/logtalk3/tree/b1299cdfc65fb1a04f7bb16766aede7dcb84983c/tools/lgtunit/automation_report.lgt#L61" xlink:title="https://github.com/LogtalkDotOrg/logtalk3/tree/b1299cdfc65fb1a04f7bb16766aede7dcb84983c/tools/lgtunit/automation_report.lgt#L61">
<text text-anchor="start" x="170.5" y="-133.8" font-family="Monospace" font-size="9.00">calls</text>
</a>
</g>
</g>
<!-- logtalk::message_hook/4 -->
<g id="node2" class="node">
<title>logtalk::message_hook/4</title>
<g id="a_node2"><a xlink:href="https://github.com/LogtalkDotOrg/logtalk3/tree/b1299cdfc65fb1a04f7bb16766aede7dcb84983c/tools/lgtunit/automation_report.lgt#L55" xlink:title="https://github.com/LogtalkDotOrg/logtalk3/tree/b1299cdfc65fb1a04f7bb16766aede7dcb84983c/tools/lgtunit/automation_report.lgt#L55">
<polygon fill="skyblue" stroke="black" points="262.5,-331 78.5,-331 78.5,-295 262.5,-295 262.5,-331"/>
<text text-anchor="start" x="86.5" y="-315.8" font-family="Monospace" font-size="9.00"> </text>
<text text-anchor="start" x="92.5" y="-315.2" font-family="Monospace" font-size="11.00">logtalk::message_hook/4</text>
<text text-anchor="start" x="248.5" y="-315.8" font-family="Monospace" font-size="9.00"> </text>
<text text-anchor="start" x="86.5" y="-304.8" font-family="Monospace" font-size="9.00"> </text>
<text text-anchor="start" x="150" y="-305.4" font-family="Monospace" font-size="7.00">multifile</text>
<text text-anchor="start" x="248.5" y="-304.8" font-family="Monospace" font-size="9.00"> </text>
</a>
</g>
</g>
<!-- logtalk::message_hook/4&#45;&gt;message_hook/1 -->
<g id="edge1" class="edge">
<title>logtalk::message_hook/4&#45;&gt;message_hook/1</title>
<g id="a_edge1"><a xlink:href="https://github.com/LogtalkDotOrg/logtalk3/tree/b1299cdfc65fb1a04f7bb16766aede7dcb84983c/tools/lgtunit/automation_report.lgt#L55" xlink:title="calls">
<path fill="none" stroke="black" d="M170.5,-294.63C170.5,-276.18 170.5,-246.7 170.5,-224.77"/>
<polygon fill="black" stroke="black" points="174,-225 170.5,-215 167,-225 174,-225"/>
</a>
</g>
<g id="a_edge1&#45;label"><a xlink:href="https://github.com/LogtalkDotOrg/logtalk3/tree/b1299cdfc65fb1a04f7bb16766aede7dcb84983c/tools/lgtunit/automation_report.lgt#L55" xlink:title="https://github.com/LogtalkDotOrg/logtalk3/tree/b1299cdfc65fb1a04f7bb16766aede7dcb84983c/tools/lgtunit/automation_report.lgt#L55">
<text text-anchor="start" x="170.5" y="-251.8" font-family="Monospace" font-size="9.00">calls</text>
</a>
</g>
</g>
</g>
</svg>
