<?xml version="1.0" encoding="UTF-8" standalone="no"?>
<?xml-stylesheet href="diagrams.css" type="text/css"?>
<!DOCTYPE svg PUBLIC "-//W3C//DTD SVG 1.1//EN"
 "http://www.w3.org/Graphics/SVG/1.1/DTD/svg11.dtd">
<!-- Generated by graphviz version 2.49.3 (20211023.0002)
 -->
<!-- Title: automation_report_object Pages: 1 -->
<svg width="493pt" height="410pt"
 viewBox="72.00 72.00 421.00 338.00" xmlns="http://www.w3.org/2000/svg" xmlns:xlink="http://www.w3.org/1999/xlink">
<g id="graph0" class="graph" transform="scale(1 1) rotate(0) translate(76 334)">
<title>automation_report_object</title>
<polygon fill="white" stroke="transparent" points="-4,4 -4,-262 345,-262 345,4 -4,4"/>
<text text-anchor="start" x="8" y="-29" font-family="Monospace" font-size="10.00" fill="dimgray">Logtalk development tools</text>
<text text-anchor="start" x="8" y="-18" font-family="Monospace" font-size="10.00" fill="dimgray">Cross&#45;referencing diagram for object automation_report</text>
<text text-anchor="start" x="8" y="-7" font-family="Monospace" font-size="10.00" fill="dimgray">Generated on 2021&#45;12&#45;06, 21:33</text>
<g id="clust1" class="cluster">
<title>cluster_automation_report_object</title>
<g id="a_clust1"><a xlink:title="automation_report">
<path fill="snow" stroke="dimgray" d="M82.5,-49C82.5,-49 258.5,-49 258.5,-49 264.5,-49 270.5,-55 270.5,-61 270.5,-61 270.5,-238 270.5,-238 270.5,-244 264.5,-250 258.5,-250 258.5,-250 82.5,-250 82.5,-250 76.5,-250 70.5,-244 70.5,-238 70.5,-238 70.5,-61 70.5,-61 70.5,-55 76.5,-49 82.5,-49"/>
<g id="a_clust1_0"><a xlink:href="https://github.com/LogtalkDotOrg/logtalk3/tree/2c56d8b8e9e4c04d7bc36a65ad8ab8a633c0e2ac/tools/lgtunit/automation_report.lgt" xlink:title="https://github.com/LogtalkDotOrg/logtalk3/tree/2c56d8b8e9e4c04d7bc36a65ad8ab8a633c0e2ac/tools/lgtunit/automation_report.lgt">
<text text-anchor="start" x="83" y="-233.5" font-family="Monospace" font-size="10.00" fill="dimgray">automation_report</text>
</a>
</g>
</a>
</g>
</g>
<!-- message_hook/1 -->
<g id="node1" class="node">
<title>message_hook/1</title>
<g id="a_node1"><a xlink:href="https://github.com/LogtalkDotOrg/logtalk3/tree/2c56d8b8e9e4c04d7bc36a65ad8ab8a633c0e2ac/tools/lgtunit/automation_report.lgt#L54" xlink:title="https://github.com/LogtalkDotOrg/logtalk3/tree/2c56d8b8e9e4c04d7bc36a65ad8ab8a633c0e2ac/tools/lgtunit/automation_report.lgt#L54">
<polygon fill="cornsilk" stroke="black" points="231,-95 110,-95 110,-59 231,-59 231,-95"/>
<text text-anchor="start" x="118.5" y="-79.8" font-family="Monospace" font-size="9.00"> </text>
<text text-anchor="start" x="124.5" y="-79.2" font-family="Monospace" font-size="11.00">message_hook/1</text>
<text text-anchor="start" x="217.5" y="-79.8" font-family="Monospace" font-size="9.00"> </text>
<text text-anchor="start" x="118.5" y="-68.8" font-family="Monospace" font-size="9.00"> </text>
<text text-anchor="start" x="160" y="-69.4" font-family="Monospace" font-size="7.00">local</text>
<text text-anchor="start" x="217.5" y="-68.8" font-family="Monospace" font-size="9.00"> </text>
</a>
</g>
</g>
<!-- logtalk::message_hook/4 -->
<g id="node2" class="node">
<title>logtalk::message_hook/4</title>
<g id="a_node2"><a xlink:href="https://github.com/LogtalkDotOrg/logtalk3/tree/2c56d8b8e9e4c04d7bc36a65ad8ab8a633c0e2ac/tools/lgtunit/automation_report.lgt#L48" xlink:title="https://github.com/LogtalkDotOrg/logtalk3/tree/2c56d8b8e9e4c04d7bc36a65ad8ab8a633c0e2ac/tools/lgtunit/automation_report.lgt#L48">
<polygon fill="skyblue" stroke="black" points="260.5,-213 80.5,-213 80.5,-177 260.5,-177 260.5,-213"/>
<text text-anchor="start" x="88.5" y="-197.8" font-family="Monospace" font-size="9.00"> </text>
<text text-anchor="start" x="94.5" y="-197.2" font-family="Monospace" font-size="11.00">logtalk::message_hook/4</text>
<text text-anchor="start" x="246.5" y="-197.8" font-family="Monospace" font-size="9.00"> </text>
<text text-anchor="start" x="88.5" y="-186.8" font-family="Monospace" font-size="9.00"> </text>
<text text-anchor="start" x="151.5" y="-187.4" font-family="Monospace" font-size="7.00">multifile</text>
<text text-anchor="start" x="246.5" y="-186.8" font-family="Monospace" font-size="9.00"> </text>
</a>
</g>
</g>
<!-- logtalk::message_hook/4&#45;&gt;message_hook/1 -->
<g id="edge1" class="edge">
<title>logtalk::message_hook/4&#45;&gt;message_hook/1</title>
<g id="a_edge1"><a xlink:href="https://github.com/LogtalkDotOrg/logtalk3/tree/2c56d8b8e9e4c04d7bc36a65ad8ab8a633c0e2ac/tools/lgtunit/automation_report.lgt#L48" xlink:title="calls">
<path fill="none" stroke="black" d="M170.5,-176.88C170.5,-158.04 170.5,-127.47 170.5,-105.3"/>
<polygon fill="black" stroke="black" points="174,-105.19 170.5,-95.19 167,-105.19 174,-105.19"/>
</a>
</g>
<g id="a_edge1&#45;label"><a xlink:href="https://github.com/LogtalkDotOrg/logtalk3/tree/2c56d8b8e9e4c04d7bc36a65ad8ab8a633c0e2ac/tools/lgtunit/automation_report.lgt#L48" xlink:title="https://github.com/LogtalkDotOrg/logtalk3/tree/2c56d8b8e9e4c04d7bc36a65ad8ab8a633c0e2ac/tools/lgtunit/automation_report.lgt#L48">
<text text-anchor="start" x="170.5" y="-133.8" font-family="Monospace" font-size="9.00">calls</text>
</a>
</g>
</g>
</g>
</svg>
