<?xml version="1.0" encoding="UTF-8" standalone="no"?>
<?xml-stylesheet href="diagrams.css" type="text/css"?>
<!DOCTYPE svg PUBLIC "-//W3C//DTD SVG 1.1//EN"
 "http://www.w3.org/Graphics/SVG/1.1/DTD/svg11.dtd">
<!-- Generated by graphviz version 2.49.4~dev.20211124.1647 (20211124.1647)
 -->
<!-- Title: automation_report_object Pages: 1 -->
<svg width="438pt" height="410pt"
 viewBox="72.00 72.00 366.00 338.00" xmlns="http://www.w3.org/2000/svg" xmlns:xlink="http://www.w3.org/1999/xlink">
<g id="graph0" class="graph" transform="scale(1 1) rotate(0) translate(76 334)">
<title>automation_report_object</title>
<polygon fill="white" stroke="transparent" points="-4,4 -4,-262 290,-262 290,4 -4,4"/>
<text text-anchor="start" x="8" y="-29" font-family="Courier,monospace" font-size="10.00" fill="dimgray">Logtalk development tools</text>
<text text-anchor="start" x="8" y="-18" font-family="Courier,monospace" font-size="10.00" fill="dimgray">Cross&#45;referencing diagram for object automation_report</text>
<text text-anchor="start" x="8" y="-7" font-family="Courier,monospace" font-size="10.00" fill="dimgray">Generated on 2021&#45;11&#45;24, 21:25</text>
<g id="clust1" class="cluster">
<title>cluster_automation_report_object</title>
<g id="a_clust1"><a xlink:title="automation_report">
<path fill="snow" stroke="dimgray" d="M68,-49C68,-49 218,-49 218,-49 224,-49 230,-55 230,-61 230,-61 230,-238 230,-238 230,-244 224,-250 218,-250 218,-250 68,-250 68,-250 62,-250 56,-244 56,-238 56,-238 56,-61 56,-61 56,-55 62,-49 68,-49"/>
<g id="a_clust1_0"><a xlink:href="https://github.com/LogtalkDotOrg/logtalk3/tree/1450dd2e30cbc83199a0162ba485cb2893d77c37/tools/lgtunit/automation_report.lgt" xlink:title="https://github.com/LogtalkDotOrg/logtalk3/tree/1450dd2e30cbc83199a0162ba485cb2893d77c37/tools/lgtunit/automation_report.lgt">
<text text-anchor="start" x="68.5" y="-233.5" font-family="Courier,monospace" font-size="10.00" fill="dimgray">automation_report</text>
</a>
</g>
</a>
</g>
</g>
<!-- message_hook/1 -->
<g id="node1" class="node">
<title>message_hook/1</title>
<g id="a_node1"><a xlink:href="https://github.com/LogtalkDotOrg/logtalk3/tree/1450dd2e30cbc83199a0162ba485cb2893d77c37/tools/lgtunit/automation_report.lgt#L54" xlink:title="https://github.com/LogtalkDotOrg/logtalk3/tree/1450dd2e30cbc83199a0162ba485cb2893d77c37/tools/lgtunit/automation_report.lgt#L54">
<polygon fill="cornsilk" stroke="black" points="194.5,-95 91.5,-95 91.5,-59 194.5,-59 194.5,-95"/>
<text text-anchor="start" x="100" y="-79.8" font-family="Courier,monospace" font-size="9.00"> </text>
<text text-anchor="start" x="105" y="-79.2" font-family="Courier,monospace" font-size="11.00">message_hook/1</text>
<text text-anchor="start" x="182" y="-79.8" font-family="Courier,monospace" font-size="9.00"> </text>
<text text-anchor="start" x="100" y="-68.8" font-family="Courier,monospace" font-size="9.00"> </text>
<text text-anchor="start" x="134.5" y="-69.4" font-family="Courier,monospace" font-size="7.00">local</text>
<text text-anchor="start" x="182" y="-68.8" font-family="Courier,monospace" font-size="9.00"> </text>
</a>
</g>
</g>
<!-- logtalk::message_hook/4 -->
<g id="node2" class="node">
<title>logtalk::message_hook/4</title>
<g id="a_node2"><a xlink:href="https://github.com/LogtalkDotOrg/logtalk3/tree/1450dd2e30cbc83199a0162ba485cb2893d77c37/tools/lgtunit/automation_report.lgt#L48" xlink:title="https://github.com/LogtalkDotOrg/logtalk3/tree/1450dd2e30cbc83199a0162ba485cb2893d77c37/tools/lgtunit/automation_report.lgt#L48">
<polygon fill="skyblue" stroke="black" points="219.5,-213 66.5,-213 66.5,-177 219.5,-177 219.5,-213"/>
<text text-anchor="start" x="75" y="-197.8" font-family="Courier,monospace" font-size="9.00"> </text>
<text text-anchor="start" x="80" y="-197.2" font-family="Courier,monospace" font-size="11.00">logtalk::message_hook/4</text>
<text text-anchor="start" x="207" y="-197.8" font-family="Courier,monospace" font-size="9.00"> </text>
<text text-anchor="start" x="75" y="-186.8" font-family="Courier,monospace" font-size="9.00"> </text>
<text text-anchor="start" x="127.5" y="-187.4" font-family="Courier,monospace" font-size="7.00">multifile</text>
<text text-anchor="start" x="207" y="-186.8" font-family="Courier,monospace" font-size="9.00"> </text>
</a>
</g>
</g>
<!-- logtalk::message_hook/4&#45;&gt;message_hook/1 -->
<g id="edge1" class="edge">
<title>logtalk::message_hook/4&#45;&gt;message_hook/1</title>
<g id="a_edge1"><a xlink:href="https://github.com/LogtalkDotOrg/logtalk3/tree/1450dd2e30cbc83199a0162ba485cb2893d77c37/tools/lgtunit/automation_report.lgt#L48" xlink:title="calls">
<path fill="none" stroke="black" d="M143,-176.88C143,-158.04 143,-127.47 143,-105.3"/>
<polygon fill="black" stroke="black" points="146.5,-105.19 143,-95.19 139.5,-105.19 146.5,-105.19"/>
</a>
</g>
<g id="a_edge1&#45;label"><a xlink:href="https://github.com/LogtalkDotOrg/logtalk3/tree/1450dd2e30cbc83199a0162ba485cb2893d77c37/tools/lgtunit/automation_report.lgt#L48" xlink:title="https://github.com/LogtalkDotOrg/logtalk3/tree/1450dd2e30cbc83199a0162ba485cb2893d77c37/tools/lgtunit/automation_report.lgt#L48">
<text text-anchor="start" x="143" y="-133.8" font-family="Courier,monospace" font-size="9.00">calls</text>
</a>
</g>
</g>
</g>
</svg>
