<?xml version="1.0" encoding="UTF-8" standalone="no"?>
<?xml-stylesheet href="diagrams.css" type="text/css"?>
<!DOCTYPE svg PUBLIC "-//W3C//DTD SVG 1.1//EN"
 "http://www.w3.org/Graphics/SVG/1.1/DTD/svg11.dtd">
<!-- Generated by graphviz version 9.0.0 (20230911.1827)
 -->
<!-- Title: automation_report_object Pages: 1 -->
<svg width="492pt" height="529pt"
 viewBox="72.00 72.00 420.00 456.50" xmlns="http://www.w3.org/2000/svg" xmlns:xlink="http://www.w3.org/1999/xlink">
<g id="graph0" class="graph" transform="scale(1 1) rotate(0) translate(76 452.5)">
<title>automation_report_object</title>
<polygon fill="white" stroke="none" points="-4,4 -4,-380.5 344,-380.5 344,4 -4,4"/>
<text text-anchor="start" x="8" y="-28.25" font-family="Monospace" font-size="10.00" fill="dimgray">Logtalk development tools</text>
<text text-anchor="start" x="8" y="-17" font-family="Monospace" font-size="10.00" fill="dimgray">Cross&#45;referencing diagram for object automation_report</text>
<text text-anchor="start" x="8" y="-5.75" font-family="Monospace" font-size="10.00" fill="dimgray">Generated on 2024&#45;01&#45;08, 21:47</text>
<g id="clust1" class="cluster">
<title>cluster_automation_report_object</title>
<g id="a_clust1"><a xlink:title="automation_report">
<path fill="snow" stroke="dimgray" d="M71,-49.75C71,-49.75 269,-49.75 269,-49.75 275,-49.75 281,-55.75 281,-61.75 281,-61.75 281,-356.5 281,-356.5 281,-362.5 275,-368.5 269,-368.5 269,-368.5 71,-368.5 71,-368.5 65,-368.5 59,-362.5 59,-356.5 59,-356.5 59,-61.75 59,-61.75 59,-55.75 65,-49.75 71,-49.75"/>
<g id="a_clust1_0"><a xlink:href="https://github.com/LogtalkDotOrg/logtalk3/tree/80d4127e9beae2f408b6813a9d163658e68b27ba/tools/lgtunit/automation_report.lgt" xlink:title="https://github.com/LogtalkDotOrg/logtalk3/tree/80d4127e9beae2f408b6813a9d163658e68b27ba/tools/lgtunit/automation_report.lgt">
<text text-anchor="start" x="71" y="-351" font-family="Monospace" font-size="10.00" fill="dimgray">automation_report</text>
</a>
</g>
</a>
</g>
</g>
<!-- message_hook/1 -->
<g id="node1" class="node">
<title>message_hook/1</title>
<g id="a_node1"><a xlink:href="https://github.com/LogtalkDotOrg/logtalk3/tree/80d4127e9beae2f408b6813a9d163658e68b27ba/tools/lgtunit/automation_report.lgt#L61" xlink:title="https://github.com/LogtalkDotOrg/logtalk3/tree/80d4127e9beae2f408b6813a9d163658e68b27ba/tools/lgtunit/automation_report.lgt#L61">
<polygon fill="cornsilk" stroke="black" points="230,-213.5 110,-213.5 110,-177.5 230,-177.5 230,-213.5"/>
<text text-anchor="start" x="117.88" y="-196.32" font-family="Monospace" font-size="9.00"> </text>
<text text-anchor="start" x="122.75" y="-195.55" font-family="Monospace" font-size="11.00">message_hook/1</text>
<text text-anchor="start" x="216.88" y="-196.32" font-family="Monospace" font-size="9.00"> </text>
<text text-anchor="start" x="117.88" y="-185.45" font-family="Monospace" font-size="9.00"> </text>
<text text-anchor="start" x="158.75" y="-186.97" font-family="Monospace" font-size="7.00">local</text>
<text text-anchor="start" x="216.88" y="-185.45" font-family="Monospace" font-size="9.00"> </text>
</a>
</g>
</g>
<!-- user::atomic_list_concat/2 -->
<g id="node3" class="node">
<title>user::atomic_list_concat/2</title>
<polygon fill="beige" stroke="black" stroke-dasharray="5,2" points="270.5,-95.75 69.5,-95.75 69.5,-59.75 270.5,-59.75 270.5,-95.75"/>
<text text-anchor="start" x="77.38" y="-78.58" font-family="Monospace" font-size="9.00"> </text>
<text text-anchor="start" x="82.25" y="-77.8" font-family="Monospace" font-size="11.00">user::atomic_list_concat/2</text>
<text text-anchor="start" x="257.38" y="-78.58" font-family="Monospace" font-size="9.00"> </text>
<text text-anchor="start" x="77.38" y="-67.7" font-family="Monospace" font-size="9.00"> </text>
<text text-anchor="start" x="152" y="-69.22" font-family="Monospace" font-size="7.00">external</text>
<text text-anchor="start" x="257.38" y="-67.7" font-family="Monospace" font-size="9.00"> </text>
</g>
<!-- message_hook/1&#45;&gt;user::atomic_list_concat/2 -->
<g id="edge2" class="edge">
<title>message_hook/1&#45;&gt;user::atomic_list_concat/2</title>
<g id="a_edge2"><a xlink:href="https://github.com/LogtalkDotOrg/logtalk3/tree/80d4127e9beae2f408b6813a9d163658e68b27ba/tools/lgtunit/automation_report.lgt#L61" xlink:title="calls">
<path fill="none" stroke="black" d="M170,-177.17C170,-158.76 170,-129.35 170,-107.46"/>
<polygon fill="black" stroke="black" points="173.5,-107.71 170,-97.71 166.5,-107.71 173.5,-107.71"/>
</a>
</g>
<g id="a_edge2&#45;label"><a xlink:href="https://github.com/LogtalkDotOrg/logtalk3/tree/80d4127e9beae2f408b6813a9d163658e68b27ba/tools/lgtunit/automation_report.lgt#L61" xlink:title="https://github.com/LogtalkDotOrg/logtalk3/tree/80d4127e9beae2f408b6813a9d163658e68b27ba/tools/lgtunit/automation_report.lgt#L61">
<text text-anchor="start" x="170" y="-132.95" font-family="Monospace" font-size="9.00">calls</text>
</a>
</g>
</g>
<!-- logtalk::message_hook/4 -->
<g id="node2" class="node">
<title>logtalk::message_hook/4</title>
<g id="a_node2"><a xlink:href="https://github.com/LogtalkDotOrg/logtalk3/tree/80d4127e9beae2f408b6813a9d163658e68b27ba/tools/lgtunit/automation_report.lgt#L55" xlink:title="https://github.com/LogtalkDotOrg/logtalk3/tree/80d4127e9beae2f408b6813a9d163658e68b27ba/tools/lgtunit/automation_report.lgt#L55">
<polygon fill="skyblue" stroke="black" points="260.5,-331.25 79.5,-331.25 79.5,-295.25 260.5,-295.25 260.5,-331.25"/>
<text text-anchor="start" x="87.38" y="-314.07" font-family="Monospace" font-size="9.00"> </text>
<text text-anchor="start" x="92.38" y="-313.3" font-family="Monospace" font-size="11.00">logtalk::message_hook/4</text>
<text text-anchor="start" x="247.38" y="-314.07" font-family="Monospace" font-size="9.00"> </text>
<text text-anchor="start" x="87.38" y="-303.2" font-family="Monospace" font-size="9.00"> </text>
<text text-anchor="start" x="149.75" y="-304.73" font-family="Monospace" font-size="7.00">multifile</text>
<text text-anchor="start" x="247.38" y="-303.2" font-family="Monospace" font-size="9.00"> </text>
</a>
</g>
</g>
<!-- logtalk::message_hook/4&#45;&gt;message_hook/1 -->
<g id="edge1" class="edge">
<title>logtalk::message_hook/4&#45;&gt;message_hook/1</title>
<g id="a_edge1"><a xlink:href="https://github.com/LogtalkDotOrg/logtalk3/tree/80d4127e9beae2f408b6813a9d163658e68b27ba/tools/lgtunit/automation_report.lgt#L55" xlink:title="calls">
<path fill="none" stroke="black" d="M170,-294.92C170,-276.51 170,-247.1 170,-225.21"/>
<polygon fill="black" stroke="black" points="173.5,-225.46 170,-215.46 166.5,-225.46 173.5,-225.46"/>
</a>
</g>
<g id="a_edge1&#45;label"><a xlink:href="https://github.com/LogtalkDotOrg/logtalk3/tree/80d4127e9beae2f408b6813a9d163658e68b27ba/tools/lgtunit/automation_report.lgt#L55" xlink:title="https://github.com/LogtalkDotOrg/logtalk3/tree/80d4127e9beae2f408b6813a9d163658e68b27ba/tools/lgtunit/automation_report.lgt#L55">
<text text-anchor="start" x="170" y="-250.7" font-family="Monospace" font-size="9.00">calls</text>
</a>
</g>
</g>
</g>
</svg>
