<?xml version="1.0" encoding="UTF-8" standalone="no"?>
<?xml-stylesheet href="diagrams.css" type="text/css"?>
<!DOCTYPE svg PUBLIC "-//W3C//DTD SVG 1.1//EN"
 "http://www.w3.org/Graphics/SVG/1.1/DTD/svg11.dtd">
<!-- Generated by graphviz version 12.1.2 (20240928.0832)
 -->
<!-- Title: automation_report_object Pages: 1 -->
<svg width="492pt" height="538pt"
 viewBox="72.00 72.00 420.00 465.50" xmlns="http://www.w3.org/2000/svg" xmlns:xlink="http://www.w3.org/1999/xlink">
<g id="graph0" class="graph" transform="scale(1 1) rotate(0) translate(76 461.5)">
<title>automation_report_object</title>
<polygon fill="white" stroke="none" points="-4,4 -4,-389.5 344,-389.5 344,4 -4,4"/>
<text text-anchor="start" x="8" y="-32.75" font-family="Monospace" font-size="10.00" fill="dimgray">Logtalk development tools</text>
<text text-anchor="start" x="8" y="-20" font-family="Monospace" font-size="10.00" fill="dimgray">Cross&#45;referencing diagram for object automation_report</text>
<text text-anchor="start" x="8" y="-7.25" font-family="Monospace" font-size="10.00" fill="dimgray">Generated on 2024&#45;10&#45;13, 19:45</text>
<g id="clust1" class="cluster">
<title>cluster_automation_report_object</title>
<g id="a_clust1"><a xlink:title="automation_report">
<path fill="snow" stroke="dimgray" d="M71,-54.25C71,-54.25 269,-54.25 269,-54.25 275,-54.25 281,-60.25 281,-66.25 281,-66.25 281,-365.5 281,-365.5 281,-371.5 275,-377.5 269,-377.5 269,-377.5 71,-377.5 71,-377.5 65,-377.5 59,-371.5 59,-365.5 59,-365.5 59,-66.25 59,-66.25 59,-60.25 65,-54.25 71,-54.25"/>
<g id="a_clust1_0"><a xlink:href="https://github.com/LogtalkDotOrg/logtalk3/tree/45804e49239203cecbbd006e3d1e6d8ec64295b2/tools/lgtunit/automation_report.lgt" xlink:title="https://github.com/LogtalkDotOrg/logtalk3/tree/45804e49239203cecbbd006e3d1e6d8ec64295b2/tools/lgtunit/automation_report.lgt">
<text text-anchor="start" x="71" y="-360" font-family="Monospace" font-size="10.00" fill="dimgray">automation_report</text>
</a>
</g>
</a>
</g>
</g>
<!-- message_hook/1 -->
<g id="node1" class="node">
<title>message_hook/1</title>
<g id="a_node1"><a xlink:href="https://github.com/LogtalkDotOrg/logtalk3/tree/45804e49239203cecbbd006e3d1e6d8ec64295b2/tools/lgtunit/automation_report.lgt#L61" xlink:title="https://github.com/LogtalkDotOrg/logtalk3/tree/45804e49239203cecbbd006e3d1e6d8ec64295b2/tools/lgtunit/automation_report.lgt#L61">
<polygon fill="cornsilk" stroke="black" points="230,-219.5 110,-219.5 110,-183.5 230,-183.5 230,-219.5"/>
<text text-anchor="start" x="117.88" y="-204.07" font-family="Monospace" font-size="9.00"> </text>
<text text-anchor="start" x="122.75" y="-203.05" font-family="Monospace" font-size="11.00">message_hook/1</text>
<text text-anchor="start" x="216.88" y="-204.07" font-family="Monospace" font-size="9.00"> </text>
<text text-anchor="start" x="117.88" y="-191.95" font-family="Monospace" font-size="9.00"> </text>
<text text-anchor="start" x="158.75" y="-192.85" font-family="Monospace" font-size="7.00">local</text>
<text text-anchor="start" x="216.88" y="-191.95" font-family="Monospace" font-size="9.00"> </text>
</a>
</g>
</g>
<!-- user::atomic_list_concat/2 -->
<g id="node3" class="node">
<title>user::atomic_list_concat/2</title>
<polygon fill="beige" stroke="black" stroke-dasharray="5,2" points="270.5,-100.25 69.5,-100.25 69.5,-64.25 270.5,-64.25 270.5,-100.25"/>
<text text-anchor="start" x="77.38" y="-84.83" font-family="Monospace" font-size="9.00"> </text>
<text text-anchor="start" x="82.25" y="-83.8" font-family="Monospace" font-size="11.00">user::atomic_list_concat/2</text>
<text text-anchor="start" x="257.38" y="-84.83" font-family="Monospace" font-size="9.00"> </text>
<text text-anchor="start" x="77.38" y="-72.7" font-family="Monospace" font-size="9.00"> </text>
<text text-anchor="start" x="152" y="-73.6" font-family="Monospace" font-size="7.00">external</text>
<text text-anchor="start" x="257.38" y="-72.7" font-family="Monospace" font-size="9.00"> </text>
</g>
<!-- message_hook/1&#45;&gt;user::atomic_list_concat/2 -->
<g id="edge2" class="edge">
<title>message_hook/1&#45;&gt;user::atomic_list_concat/2</title>
<g id="a_edge2"><a xlink:href="https://github.com/LogtalkDotOrg/logtalk3/tree/45804e49239203cecbbd006e3d1e6d8ec64295b2/tools/lgtunit/automation_report.lgt#L61" xlink:title="calls">
<path fill="none" stroke="black" d="M170,-183.2C170,-164.5 170,-134.37 170,-112.08"/>
<polygon fill="black" stroke="black" points="173.5,-112.14 170,-102.14 166.5,-112.14 173.5,-112.14"/>
</a>
</g>
<g id="a_edge2&#45;label"><a xlink:href="https://github.com/LogtalkDotOrg/logtalk3/tree/45804e49239203cecbbd006e3d1e6d8ec64295b2/tools/lgtunit/automation_report.lgt#L61" xlink:title="https://github.com/LogtalkDotOrg/logtalk3/tree/45804e49239203cecbbd006e3d1e6d8ec64295b2/tools/lgtunit/automation_report.lgt#L61">
<text text-anchor="start" x="170" y="-138.95" font-family="Monospace" font-size="9.00">calls</text>
</a>
</g>
</g>
<!-- logtalk::message_hook/4 -->
<g id="node2" class="node">
<title>logtalk::message_hook/4</title>
<g id="a_node2"><a xlink:href="https://github.com/LogtalkDotOrg/logtalk3/tree/45804e49239203cecbbd006e3d1e6d8ec64295b2/tools/lgtunit/automation_report.lgt#L55" xlink:title="https://github.com/LogtalkDotOrg/logtalk3/tree/45804e49239203cecbbd006e3d1e6d8ec64295b2/tools/lgtunit/automation_report.lgt#L55">
<polygon fill="skyblue" stroke="black" points="260.5,-338.75 79.5,-338.75 79.5,-302.75 260.5,-302.75 260.5,-338.75"/>
<text text-anchor="start" x="87.38" y="-323.32" font-family="Monospace" font-size="9.00"> </text>
<text text-anchor="start" x="92.38" y="-322.3" font-family="Monospace" font-size="11.00">logtalk::message_hook/4</text>
<text text-anchor="start" x="247.38" y="-323.32" font-family="Monospace" font-size="9.00"> </text>
<text text-anchor="start" x="87.38" y="-311.2" font-family="Monospace" font-size="9.00"> </text>
<text text-anchor="start" x="149.75" y="-312.1" font-family="Monospace" font-size="7.00">multifile</text>
<text text-anchor="start" x="247.38" y="-311.2" font-family="Monospace" font-size="9.00"> </text>
</a>
</g>
</g>
<!-- logtalk::message_hook/4&#45;&gt;message_hook/1 -->
<g id="edge1" class="edge">
<title>logtalk::message_hook/4&#45;&gt;message_hook/1</title>
<g id="a_edge1"><a xlink:href="https://github.com/LogtalkDotOrg/logtalk3/tree/45804e49239203cecbbd006e3d1e6d8ec64295b2/tools/lgtunit/automation_report.lgt#L55" xlink:title="calls">
<path fill="none" stroke="black" d="M170,-302.45C170,-283.75 170,-253.62 170,-231.33"/>
<polygon fill="black" stroke="black" points="173.5,-231.39 170,-221.39 166.5,-231.39 173.5,-231.39"/>
</a>
</g>
<g id="a_edge1&#45;label"><a xlink:href="https://github.com/LogtalkDotOrg/logtalk3/tree/45804e49239203cecbbd006e3d1e6d8ec64295b2/tools/lgtunit/automation_report.lgt#L55" xlink:title="https://github.com/LogtalkDotOrg/logtalk3/tree/45804e49239203cecbbd006e3d1e6d8ec64295b2/tools/lgtunit/automation_report.lgt#L55">
<text text-anchor="start" x="170" y="-258.2" font-family="Monospace" font-size="9.00">calls</text>
</a>
</g>
</g>
</g>
</svg>
