<?xml version="1.0" encoding="UTF-8" standalone="no"?>
<?xml-stylesheet href="diagrams.css" type="text/css"?>
<!DOCTYPE svg PUBLIC "-//W3C//DTD SVG 1.1//EN"
 "http://www.w3.org/Graphics/SVG/1.1/DTD/svg11.dtd">
<!-- Generated by graphviz version 2.40.1 (20161225.0304)
 -->
<!-- Title: automation_report_object Pages: 1 -->
<svg width="493pt" height="484pt"
 viewBox="72.00 72.00 421.00 412.00" xmlns="http://www.w3.org/2000/svg" xmlns:xlink="http://www.w3.org/1999/xlink">
<g id="graph0" class="graph" transform="scale(1 1) rotate(0) translate(76 408)">
<title>automation_report_object</title>
<polygon fill="#ffffff" stroke="transparent" points="-4,4 -4,-336 345,-336 345,4 -4,4"/>
<text text-anchor="start" x="8" y="-29" font-family="Monospace" font-size="10.00" fill="#696969">Logtalk development tools</text>
<text text-anchor="start" x="8" y="-18" font-family="Monospace" font-size="10.00" fill="#696969">Cross&#45;referencing diagram for object automation_report</text>
<text text-anchor="start" x="8" y="-7" font-family="Monospace" font-size="10.00" fill="#696969">Generated on 2023&#45;01&#45;01, 23:40</text>
<g id="clust1" class="cluster">
<title>cluster_automation_report_object</title>
<g id="a_clust1"><a xlink:title="automation_report">
<path fill="#fffafa" stroke="#696969" d="M80.5,-49C80.5,-49 260.5,-49 260.5,-49 266.5,-49 272.5,-55 272.5,-61 272.5,-61 272.5,-312 272.5,-312 272.5,-318 266.5,-324 260.5,-324 260.5,-324 80.5,-324 80.5,-324 74.5,-324 68.5,-318 68.5,-312 68.5,-312 68.5,-61 68.5,-61 68.5,-55 74.5,-49 80.5,-49"/>
<g id="a_clust1_0"><a xlink:href="https://github.com/LogtalkDotOrg/logtalk3/tree/934aee98ed3bc6654f203177f74af1b33a85d94c/tools/lgtunit/automation_report.lgt" xlink:title="https://github.com/LogtalkDotOrg/logtalk3/tree/934aee98ed3bc6654f203177f74af1b33a85d94c/tools/lgtunit/automation_report.lgt">
<text text-anchor="start" x="81" y="-307.5" font-family="Monospace" font-size="10.00" fill="#696969">automation_report</text>
</a>
</g>
</a>
</g>
</g>
<!-- message_hook/1 -->
<g id="node1" class="node">
<title>message_hook/1</title>
<g id="a_node1"><a xlink:href="https://github.com/LogtalkDotOrg/logtalk3/tree/934aee98ed3bc6654f203177f74af1b33a85d94c/tools/lgtunit/automation_report.lgt#L57" xlink:title="https://github.com/LogtalkDotOrg/logtalk3/tree/934aee98ed3bc6654f203177f74af1b33a85d94c/tools/lgtunit/automation_report.lgt#L57">
<polygon fill="#fff8dc" stroke="#000000" points="232,-95 109,-95 109,-59 232,-59 232,-95"/>
<text text-anchor="start" x="117.5" y="-79.8" font-family="Monospace" font-size="9.00" fill="#000000"> </text>
<text text-anchor="start" x="123.5" y="-79.2" font-family="Monospace" font-size="11.00" fill="#000000">message_hook/1</text>
<text text-anchor="start" x="218.5" y="-79.8" font-family="Monospace" font-size="9.00" fill="#000000"> </text>
<text text-anchor="start" x="117.5" y="-68.8" font-family="Monospace" font-size="9.00" fill="#000000"> </text>
<text text-anchor="start" x="159.5" y="-69.4" font-family="Monospace" font-size="7.00" fill="#000000">local</text>
<text text-anchor="start" x="218.5" y="-68.8" font-family="Monospace" font-size="9.00" fill="#000000"> </text>
</a>
</g>
</g>
<!-- logtalk::message_hook/4 -->
<g id="node2" class="node">
<title>logtalk::message_hook/4</title>
<g id="a_node2"><a xlink:href="https://github.com/LogtalkDotOrg/logtalk3/tree/934aee98ed3bc6654f203177f74af1b33a85d94c/tools/lgtunit/automation_report.lgt#L51" xlink:title="https://github.com/LogtalkDotOrg/logtalk3/tree/934aee98ed3bc6654f203177f74af1b33a85d94c/tools/lgtunit/automation_report.lgt#L51">
<polygon fill="#87ceeb" stroke="#000000" points="262.5,-287 78.5,-287 78.5,-251 262.5,-251 262.5,-287"/>
<text text-anchor="start" x="86.5" y="-271.8" font-family="Monospace" font-size="9.00" fill="#000000"> </text>
<text text-anchor="start" x="92.5" y="-271.2" font-family="Monospace" font-size="11.00" fill="#000000">logtalk::message_hook/4</text>
<text text-anchor="start" x="248.5" y="-271.8" font-family="Monospace" font-size="9.00" fill="#000000"> </text>
<text text-anchor="start" x="86.5" y="-260.8" font-family="Monospace" font-size="9.00" fill="#000000"> </text>
<text text-anchor="start" x="150" y="-261.4" font-family="Monospace" font-size="7.00" fill="#000000">multifile</text>
<text text-anchor="start" x="248.5" y="-260.8" font-family="Monospace" font-size="9.00" fill="#000000"> </text>
</a>
</g>
</g>
<!-- logtalk::message_hook/4&#45;&gt;message_hook/1 -->
<g id="edge1" class="edge">
<title>logtalk::message_hook/4&#45;&gt;message_hook/1</title>
<g id="a_edge1"><a xlink:href="https://github.com/LogtalkDotOrg/logtalk3/tree/934aee98ed3bc6654f203177f74af1b33a85d94c/tools/lgtunit/automation_report.lgt#L51" xlink:title="calls">
<path fill="none" stroke="#000000" d="M170.5,-250.9371C170.5,-217.4168 170.5,-145.3617 170.5,-105.3098"/>
<polygon fill="#000000" stroke="#000000" points="174.0001,-105.1547 170.5,-95.1548 167.0001,-105.1548 174.0001,-105.1547"/>
</a>
</g>
<g id="a_edge1&#45;label"><a xlink:href="https://github.com/LogtalkDotOrg/logtalk3/tree/934aee98ed3bc6654f203177f74af1b33a85d94c/tools/lgtunit/automation_report.lgt#L51" xlink:title="https://github.com/LogtalkDotOrg/logtalk3/tree/934aee98ed3bc6654f203177f74af1b33a85d94c/tools/lgtunit/automation_report.lgt#L51">
<text text-anchor="start" x="170.5" y="-170.8" font-family="Monospace" font-size="9.00" fill="#000000">calls</text>
</a>
</g>
</g>
</g>
</svg>
