<?xml version="1.0" encoding="UTF-8" standalone="no"?>
<?xml-stylesheet href="diagrams.css" type="text/css"?>
<!DOCTYPE svg PUBLIC "-//W3C//DTD SVG 1.1//EN"
 "http://www.w3.org/Graphics/SVG/1.1/DTD/svg11.dtd">
<!-- Generated by graphviz version 2.50.0 (20211204.2007)
 -->
<!-- Title: backend_adapter_hook_object Pages: 1 -->
<svg width="511pt" height="292pt"
 viewBox="72.00 72.00 439.00 220.00" xmlns="http://www.w3.org/2000/svg" xmlns:xlink="http://www.w3.org/1999/xlink">
<g id="graph0" class="graph" transform="scale(1 1) rotate(0) translate(76 216)">
<title>backend_adapter_hook_object</title>
<polygon fill="white" stroke="transparent" points="-4,4 -4,-144 363,-144 363,4 -4,4"/>
<text text-anchor="start" x="8" y="-29" font-family="Monospace" font-size="10.00" fill="dimgray">Logtalk library</text>
<text text-anchor="start" x="8" y="-18" font-family="Monospace" font-size="10.00" fill="dimgray">Cross&#45;referencing diagram for object backend_adapter_hook</text>
<text text-anchor="start" x="8" y="-7" font-family="Monospace" font-size="10.00" fill="dimgray">Generated on 2022&#45;06&#45;26, 18:09</text>
<g id="clust1" class="cluster">
<title>cluster_backend_adapter_hook_object</title>
<g id="a_clust1"><a xlink:title="backend_adapter_hook">
<path fill="snow" stroke="dimgray" d="M35,-49C35,-49 324,-49 324,-49 330,-49 336,-55 336,-61 336,-61 336,-120 336,-120 336,-126 330,-132 324,-132 324,-132 35,-132 35,-132 29,-132 23,-126 23,-120 23,-120 23,-61 23,-61 23,-55 29,-49 35,-49"/>
<g id="a_clust1_0"><a xlink:href="https://github.com/LogtalkDotOrg/logtalk3/tree/8db99c6d940b7b4f255c5f03ee4e2278d131c2fd/library/hook_objects/backend_adapter_hook.lgt" xlink:title="https://github.com/LogtalkDotOrg/logtalk3/tree/8db99c6d940b7b4f255c5f03ee4e2278d131c2fd/library/hook_objects/backend_adapter_hook.lgt">
<text text-anchor="start" x="35.5" y="-115.5" font-family="Monospace" font-size="10.00" fill="dimgray">backend_adapter_hook</text>
</a>
</g>
</a>
</g>
</g>
<!-- term_expansion/2 -->
<g id="node1" class="node">
<title>term_expansion/2</title>
<g id="a_node1"><a xlink:href="https://github.com/LogtalkDotOrg/logtalk3/tree/8db99c6d940b7b4f255c5f03ee4e2278d131c2fd/library/hook_objects/backend_adapter_hook.lgt#L38" xlink:title="https://github.com/LogtalkDotOrg/logtalk3/tree/8db99c6d940b7b4f255c5f03ee4e2278d131c2fd/library/hook_objects/backend_adapter_hook.lgt#L38">
<polygon fill="cornsilk" stroke="black" points="325.5,-95 188.5,-95 188.5,-59 325.5,-59 325.5,-95"/>
<text text-anchor="start" x="197" y="-79.8" font-family="Monospace" font-size="9.00"> </text>
<text text-anchor="start" x="203" y="-79.2" font-family="Monospace" font-size="11.00">term_expansion/2</text>
<text text-anchor="start" x="312" y="-79.8" font-family="Monospace" font-size="9.00"> </text>
<text text-anchor="start" x="197" y="-68.8" font-family="Monospace" font-size="9.00"> </text>
<text text-anchor="start" x="246" y="-69.4" font-family="Monospace" font-size="7.00">local</text>
<text text-anchor="start" x="312" y="-68.8" font-family="Monospace" font-size="9.00"> </text>
</a>
</g>
</g>
<!-- goal_expansion/2 -->
<g id="node2" class="node">
<title>goal_expansion/2</title>
<g id="a_node2"><a xlink:href="https://github.com/LogtalkDotOrg/logtalk3/tree/8db99c6d940b7b4f255c5f03ee4e2278d131c2fd/library/hook_objects/backend_adapter_hook.lgt#L41" xlink:title="https://github.com/LogtalkDotOrg/logtalk3/tree/8db99c6d940b7b4f255c5f03ee4e2278d131c2fd/library/hook_objects/backend_adapter_hook.lgt#L41">
<polygon fill="cornsilk" stroke="black" points="170.5,-95 33.5,-95 33.5,-59 170.5,-59 170.5,-95"/>
<text text-anchor="start" x="42" y="-79.8" font-family="Monospace" font-size="9.00"> </text>
<text text-anchor="start" x="48" y="-79.2" font-family="Monospace" font-size="11.00">goal_expansion/2</text>
<text text-anchor="start" x="157" y="-79.8" font-family="Monospace" font-size="9.00"> </text>
<text text-anchor="start" x="42" y="-68.8" font-family="Monospace" font-size="9.00"> </text>
<text text-anchor="start" x="91" y="-69.4" font-family="Monospace" font-size="7.00">local</text>
<text text-anchor="start" x="157" y="-68.8" font-family="Monospace" font-size="9.00"> </text>
</a>
</g>
</g>
</g>
</svg>
