<?xml version="1.0" encoding="UTF-8" standalone="no"?>
<?xml-stylesheet href="diagrams.css" type="text/css"?>
<!DOCTYPE svg PUBLIC "-//W3C//DTD SVG 1.1//EN"
 "http://www.w3.org/Graphics/SVG/1.1/DTD/svg11.dtd">
<!-- Generated by graphviz version 2.49.3 (20211023.0002)
 -->
<!-- Title: backend_adapter_hook_object Pages: 1 -->
<svg width="453pt" height="292pt"
 viewBox="72.00 72.00 381.00 220.00" xmlns="http://www.w3.org/2000/svg" xmlns:xlink="http://www.w3.org/1999/xlink">
<g id="graph0" class="graph" transform="scale(1 1) rotate(0) translate(76 216)">
<title>backend_adapter_hook_object</title>
<polygon fill="white" stroke="transparent" points="-4,4 -4,-144 305,-144 305,4 -4,4"/>
<text text-anchor="start" x="8" y="-29" font-family="Courier,monospace" font-size="10.00" fill="dimgray">Logtalk library</text>
<text text-anchor="start" x="8" y="-18" font-family="Courier,monospace" font-size="10.00" fill="dimgray">Cross&#45;referencing diagram for object backend_adapter_hook</text>
<text text-anchor="start" x="8" y="-7" font-family="Courier,monospace" font-size="10.00" fill="dimgray">Generated on 2021&#45;11&#45;02, 10:35</text>
<g id="clust1" class="cluster">
<title>cluster_backend_adapter_hook_object</title>
<g id="a_clust1"><a xlink:title="backend_adapter_hook">
<path fill="snow" stroke="dimgray" d="M29.5,-49C29.5,-49 271.5,-49 271.5,-49 277.5,-49 283.5,-55 283.5,-61 283.5,-61 283.5,-120 283.5,-120 283.5,-126 277.5,-132 271.5,-132 271.5,-132 29.5,-132 29.5,-132 23.5,-132 17.5,-126 17.5,-120 17.5,-120 17.5,-61 17.5,-61 17.5,-55 23.5,-49 29.5,-49"/>
<g id="a_clust1_0"><a xlink:href="https://github.com/LogtalkDotOrg/logtalk3/tree/cbba6d9f7efe0ecef480b6200bf5d3edd28fc400/library/hook_objects/backend_adapter_hook.lgt" xlink:title="https://github.com/LogtalkDotOrg/logtalk3/tree/cbba6d9f7efe0ecef480b6200bf5d3edd28fc400/library/hook_objects/backend_adapter_hook.lgt">
<text text-anchor="start" x="29.5" y="-115.5" font-family="Courier,monospace" font-size="10.00" fill="dimgray">backend_adapter_hook</text>
</a>
</g>
</a>
</g>
</g>
<!-- term_expansion/2 -->
<g id="node1" class="node">
<title>term_expansion/2</title>
<g id="a_node1"><a xlink:href="https://github.com/LogtalkDotOrg/logtalk3/tree/cbba6d9f7efe0ecef480b6200bf5d3edd28fc400/library/hook_objects/backend_adapter_hook.lgt#L38" xlink:title="https://github.com/LogtalkDotOrg/logtalk3/tree/cbba6d9f7efe0ecef480b6200bf5d3edd28fc400/library/hook_objects/backend_adapter_hook.lgt#L38">
<polygon fill="cornsilk" stroke="black" points="273.5,-95 159.5,-95 159.5,-59 273.5,-59 273.5,-95"/>
<text text-anchor="start" x="167.5" y="-79.8" font-family="Courier,monospace" font-size="9.00"> </text>
<text text-anchor="start" x="172.5" y="-79.2" font-family="Courier,monospace" font-size="11.00">term_expansion/2</text>
<text text-anchor="start" x="260.5" y="-79.8" font-family="Courier,monospace" font-size="9.00"> </text>
<text text-anchor="start" x="167.5" y="-68.8" font-family="Courier,monospace" font-size="9.00"> </text>
<text text-anchor="start" x="207.5" y="-69.4" font-family="Courier,monospace" font-size="7.00">local</text>
<text text-anchor="start" x="260.5" y="-68.8" font-family="Courier,monospace" font-size="9.00"> </text>
</a>
</g>
</g>
<!-- goal_expansion/2 -->
<g id="node2" class="node">
<title>goal_expansion/2</title>
<g id="a_node2"><a xlink:href="https://github.com/LogtalkDotOrg/logtalk3/tree/cbba6d9f7efe0ecef480b6200bf5d3edd28fc400/library/hook_objects/backend_adapter_hook.lgt#L41" xlink:title="https://github.com/LogtalkDotOrg/logtalk3/tree/cbba6d9f7efe0ecef480b6200bf5d3edd28fc400/library/hook_objects/backend_adapter_hook.lgt#L41">
<polygon fill="cornsilk" stroke="black" points="141.5,-95 27.5,-95 27.5,-59 141.5,-59 141.5,-95"/>
<text text-anchor="start" x="35.5" y="-79.8" font-family="Courier,monospace" font-size="9.00"> </text>
<text text-anchor="start" x="40.5" y="-79.2" font-family="Courier,monospace" font-size="11.00">goal_expansion/2</text>
<text text-anchor="start" x="128.5" y="-79.8" font-family="Courier,monospace" font-size="9.00"> </text>
<text text-anchor="start" x="35.5" y="-68.8" font-family="Courier,monospace" font-size="9.00"> </text>
<text text-anchor="start" x="75.5" y="-69.4" font-family="Courier,monospace" font-size="7.00">local</text>
<text text-anchor="start" x="128.5" y="-68.8" font-family="Courier,monospace" font-size="9.00"> </text>
</a>
</g>
</g>
</g>
</svg>
