<?xml version="1.0" encoding="UTF-8" standalone="no"?>
<?xml-stylesheet href="diagrams.css" type="text/css"?>
<!DOCTYPE svg PUBLIC "-//W3C//DTD SVG 1.1//EN"
 "http://www.w3.org/Graphics/SVG/1.1/DTD/svg11.dtd">
<!-- Generated by graphviz version 12.0.0 (20240704.0754)
 -->
<!-- Title: backend_adapter_hook_object Pages: 1 -->
<svg width="510pt" height="299pt"
 viewBox="72.00 72.00 438.00 227.00" xmlns="http://www.w3.org/2000/svg" xmlns:xlink="http://www.w3.org/1999/xlink">
<g id="graph0" class="graph" transform="scale(1 1) rotate(0) translate(76 223)">
<title>backend_adapter_hook_object</title>
<polygon fill="white" stroke="none" points="-4,4 -4,-151 362,-151 362,4 -4,4"/>
<text text-anchor="start" x="8" y="-32.75" font-family="Monospace" font-size="10.00" fill="dimgray">Logtalk library</text>
<text text-anchor="start" x="8" y="-20" font-family="Monospace" font-size="10.00" fill="dimgray">Cross&#45;referencing diagram for object backend_adapter_hook</text>
<text text-anchor="start" x="8" y="-7.25" font-family="Monospace" font-size="10.00" fill="dimgray">Generated on 2024&#45;07&#45;16, 10:01</text>
<g id="clust1" class="cluster">
<title>cluster_backend_adapter_hook_object</title>
<g id="a_clust1"><a xlink:title="backend_adapter_hook">
<path fill="snow" stroke="dimgray" d="M38,-54.25C38,-54.25 320,-54.25 320,-54.25 326,-54.25 332,-60.25 332,-66.25 332,-66.25 332,-127 332,-127 332,-133 326,-139 320,-139 320,-139 38,-139 38,-139 32,-139 26,-133 26,-127 26,-127 26,-66.25 26,-66.25 26,-60.25 32,-54.25 38,-54.25"/>
<g id="a_clust1_0"><a xlink:href="https://github.com/LogtalkDotOrg/logtalk3/tree/f40b9c80e11b436880c5a0acaedcf2b20a8ed83c/library/hook_objects/backend_adapter_hook.lgt" xlink:title="https://github.com/LogtalkDotOrg/logtalk3/tree/f40b9c80e11b436880c5a0acaedcf2b20a8ed83c/library/hook_objects/backend_adapter_hook.lgt">
<text text-anchor="start" x="38" y="-121.5" font-family="Monospace" font-size="10.00" fill="dimgray">backend_adapter_hook</text>
</a>
</g>
</a>
</g>
</g>
<!-- term_expansion/2 -->
<g id="node1" class="node">
<title>term_expansion/2</title>
<g id="a_node1"><a xlink:href="https://github.com/LogtalkDotOrg/logtalk3/tree/f40b9c80e11b436880c5a0acaedcf2b20a8ed83c/library/hook_objects/backend_adapter_hook.lgt#L38" xlink:title="https://github.com/LogtalkDotOrg/logtalk3/tree/f40b9c80e11b436880c5a0acaedcf2b20a8ed83c/library/hook_objects/backend_adapter_hook.lgt#L38">
<polygon fill="cornsilk" stroke="black" points="170,-100.25 36,-100.25 36,-64.25 170,-64.25 170,-100.25"/>
<text text-anchor="start" x="43.88" y="-84.83" font-family="Monospace" font-size="9.00"> </text>
<text text-anchor="start" x="49" y="-83.8" font-family="Monospace" font-size="11.00">term_expansion/2</text>
<text text-anchor="start" x="156.88" y="-84.83" font-family="Monospace" font-size="9.00"> </text>
<text text-anchor="start" x="43.88" y="-72.7" font-family="Monospace" font-size="9.00"> </text>
<text text-anchor="start" x="91.75" y="-73.6" font-family="Monospace" font-size="7.00">local</text>
<text text-anchor="start" x="156.88" y="-72.7" font-family="Monospace" font-size="9.00"> </text>
</a>
</g>
</g>
<!-- goal_expansion/2 -->
<g id="node2" class="node">
<title>goal_expansion/2</title>
<g id="a_node2"><a xlink:href="https://github.com/LogtalkDotOrg/logtalk3/tree/f40b9c80e11b436880c5a0acaedcf2b20a8ed83c/library/hook_objects/backend_adapter_hook.lgt#L41" xlink:title="https://github.com/LogtalkDotOrg/logtalk3/tree/f40b9c80e11b436880c5a0acaedcf2b20a8ed83c/library/hook_objects/backend_adapter_hook.lgt#L41">
<polygon fill="cornsilk" stroke="black" points="322,-100.25 188,-100.25 188,-64.25 322,-64.25 322,-100.25"/>
<text text-anchor="start" x="195.88" y="-84.83" font-family="Monospace" font-size="9.00"> </text>
<text text-anchor="start" x="201" y="-83.8" font-family="Monospace" font-size="11.00">goal_expansion/2</text>
<text text-anchor="start" x="308.88" y="-84.83" font-family="Monospace" font-size="9.00"> </text>
<text text-anchor="start" x="195.88" y="-72.7" font-family="Monospace" font-size="9.00"> </text>
<text text-anchor="start" x="243.75" y="-73.6" font-family="Monospace" font-size="7.00">local</text>
<text text-anchor="start" x="308.88" y="-72.7" font-family="Monospace" font-size="9.00"> </text>
</a>
</g>
</g>
</g>
</svg>
