<?xml version="1.0" encoding="UTF-8" standalone="no"?>
<?xml-stylesheet href="diagrams.css" type="text/css"?>
<!DOCTYPE svg PUBLIC "-//W3C//DTD SVG 1.1//EN"
 "http://www.w3.org/Graphics/SVG/1.1/DTD/svg11.dtd">
<!-- Generated by graphviz version 2.49.3 (20211023.0002)
 -->
<!-- Title: callable_object Pages: 1 -->
<svg width="439pt" height="292pt"
 viewBox="72.00 72.00 367.00 220.00" xmlns="http://www.w3.org/2000/svg" xmlns:xlink="http://www.w3.org/1999/xlink">
<g id="graph0" class="graph" transform="scale(1 1) rotate(0) translate(76 216)">
<title>callable_object</title>
<polygon fill="white" stroke="transparent" points="-4,4 -4,-144 291,-144 291,4 -4,4"/>
<text text-anchor="start" x="8" y="-29" font-family="Monospace" font-size="10.00" fill="dimgray">Logtalk library</text>
<text text-anchor="start" x="8" y="-18" font-family="Monospace" font-size="10.00" fill="dimgray">Cross&#45;referencing diagram for object callable</text>
<text text-anchor="start" x="8" y="-7" font-family="Monospace" font-size="10.00" fill="dimgray">Generated on 2021&#45;12&#45;03, 10:33</text>
<g id="clust1" class="cluster">
<title>cluster_callable_object</title>
<g id="a_clust1"><a xlink:title="callable">
<path fill="snow" stroke="dimgray" d="M61,-49C61,-49 226,-49 226,-49 232,-49 238,-55 238,-61 238,-61 238,-120 238,-120 238,-126 232,-132 226,-132 226,-132 61,-132 61,-132 55,-132 49,-126 49,-120 49,-120 49,-61 49,-61 49,-55 55,-49 61,-49"/>
<g id="a_clust1_0"><a xlink:href="https://github.com/LogtalkDotOrg/logtalk3/tree/04418aac0d7bdf1bb77867df42d0a4269d26f53f/library/types/callable.lgt" xlink:title="https://github.com/LogtalkDotOrg/logtalk3/tree/04418aac0d7bdf1bb77867df42d0a4269d26f53f/library/types/callable.lgt">
<text text-anchor="start" x="61.5" y="-115.5" font-family="Monospace" font-size="10.00" fill="dimgray">callable</text>
</a>
</g>
</a>
</g>
</g>
<!-- valid/1 -->
<g id="node1" class="node">
<title>valid/1</title>
<g id="a_node1"><a xlink:href="https://github.com/LogtalkDotOrg/logtalk3/tree/04418aac0d7bdf1bb77867df42d0a4269d26f53f/library/types/callable.lgt#L32" xlink:title="https://github.com/LogtalkDotOrg/logtalk3/tree/04418aac0d7bdf1bb77867df42d0a4269d26f53f/library/types/callable.lgt#L32">
<polygon fill="cornsilk" stroke="black" points="227.5,-95 152.5,-95 152.5,-59 227.5,-59 227.5,-95"/>
<text text-anchor="start" x="161" y="-79.8" font-family="Monospace" font-size="9.00"> </text>
<text text-anchor="start" x="167" y="-79.2" font-family="Monospace" font-size="11.00">valid/1</text>
<text text-anchor="start" x="214" y="-79.8" font-family="Monospace" font-size="9.00"> </text>
<text text-anchor="start" x="161" y="-68.8" font-family="Monospace" font-size="9.00"> </text>
<text text-anchor="start" x="179.5" y="-69.4" font-family="Monospace" font-size="7.00">local</text>
<text text-anchor="start" x="214" y="-68.8" font-family="Monospace" font-size="9.00"> </text>
</a>
</g>
</g>
<!-- check/1 -->
<g id="node2" class="node">
<title>check/1</title>
<g id="a_node2"><a xlink:href="https://github.com/LogtalkDotOrg/logtalk3/tree/04418aac0d7bdf1bb77867df42d0a4269d26f53f/library/types/callable.lgt#L38" xlink:title="https://github.com/LogtalkDotOrg/logtalk3/tree/04418aac0d7bdf1bb77867df42d0a4269d26f53f/library/types/callable.lgt#L38">
<polygon fill="cornsilk" stroke="black" points="134.5,-95 59.5,-95 59.5,-59 134.5,-59 134.5,-95"/>
<text text-anchor="start" x="68" y="-79.8" font-family="Monospace" font-size="9.00"> </text>
<text text-anchor="start" x="74" y="-79.2" font-family="Monospace" font-size="11.00">check/1</text>
<text text-anchor="start" x="121" y="-79.8" font-family="Monospace" font-size="9.00"> </text>
<text text-anchor="start" x="68" y="-68.8" font-family="Monospace" font-size="9.00"> </text>
<text text-anchor="start" x="86.5" y="-69.4" font-family="Monospace" font-size="7.00">local</text>
<text text-anchor="start" x="121" y="-68.8" font-family="Monospace" font-size="9.00"> </text>
</a>
</g>
</g>
</g>
</svg>
