<?xml version="1.0" encoding="UTF-8" standalone="no"?>
<!DOCTYPE svg PUBLIC "-//W3C//DTD SVG 1.1//EN"
 "http://www.w3.org/Graphics/SVG/1.1/DTD/svg11.dtd">
<!-- Generated by graphviz version 2.40.1 (20161225.0304)
 -->
<!-- Title: callable_object Pages: 1 -->
<svg width="439pt" height="290pt"
 viewBox="72.00 72.00 367.00 218.43" xmlns="http://www.w3.org/2000/svg" xmlns:xlink="http://www.w3.org/1999/xlink">
<g id="graph0" class="graph" transform="scale(1 1) rotate(0) translate(76 214.4264)">
<title>callable_object</title>
<polygon fill="#ffffff" stroke="transparent" points="-4,4 -4,-142.4264 291,-142.4264 291,4 -4,4"/>
<text text-anchor="start" x="8" y="-29" font-family="Courier,monospace" font-size="10.00" fill="#8b8989">Logtalk library</text>
<text text-anchor="start" x="8" y="-18" font-family="Courier,monospace" font-size="10.00" fill="#8b8989">Cross&#45;referencing diagram for object callable</text>
<text text-anchor="start" x="8" y="-7" font-family="Courier,monospace" font-size="10.00" fill="#8b8989">Generated on 2019/04/24, 14:50</text>
<g id="clust1" class="cluster">
<title>cluster_callable_object</title>
<g id="a_clust1"><a xlink:href="https://github.com/LogtalkDotOrg/logtalk3/tree/master/library/callable.lgt" xlink:title="https://github.com/LogtalkDotOrg/logtalk3/tree/master/library/callable.lgt">
<path fill="#fffafa" stroke="#8b8989" d="M30.5,-49C30.5,-49 256.5,-49 256.5,-49 262.5,-49 268.5,-55 268.5,-61 268.5,-61 268.5,-118.4264 268.5,-118.4264 268.5,-124.4264 262.5,-130.4264 256.5,-130.4264 256.5,-130.4264 30.5,-130.4264 30.5,-130.4264 24.5,-130.4264 18.5,-124.4264 18.5,-118.4264 18.5,-118.4264 18.5,-61 18.5,-61 18.5,-55 24.5,-49 30.5,-49"/>
<text text-anchor="middle" x="51" y="-118.4264" font-family="Courier,monospace" font-size="10.00" fill="#8b8989">callable</text>
</a>
</g>
</g>
<!-- valid/1 -->
<g id="node1" class="node">
<title>valid/1</title>
<g id="a_node1"><a xlink:href="https://github.com/LogtalkDotOrg/logtalk3/tree/master/library/callable.lgt#L31" xlink:title="https://github.com/LogtalkDotOrg/logtalk3/tree/master/library/callable.lgt#L31">
<ellipse fill="#fff8dc" stroke="#000000" cx="205.5" cy="-80.2132" rx="53.066" ry="21.4286"/>
<text text-anchor="start" x="176.5" y="-83.0132" font-family="Courier,monospace" font-size="9.00" fill="#000000"> </text>
<text text-anchor="start" x="182.5" y="-82.4132" font-family="Courier,monospace" font-size="11.00" fill="#000000">valid/1</text>
<text text-anchor="start" x="229.5" y="-83.0132" font-family="Courier,monospace" font-size="9.00" fill="#000000"> </text>
<text text-anchor="start" x="176.5" y="-72.0132" font-family="Courier,monospace" font-size="9.00" fill="#000000"> </text>
<text text-anchor="start" x="195" y="-72.6132" font-family="Courier,monospace" font-size="7.00" fill="#000000">local</text>
<text text-anchor="start" x="229.5" y="-72.0132" font-family="Courier,monospace" font-size="9.00" fill="#000000"> </text>
</a>
</g>
</g>
<!-- check/1 -->
<g id="node2" class="node">
<title>check/1</title>
<g id="a_node2"><a xlink:href="https://github.com/LogtalkDotOrg/logtalk3/tree/master/library/callable.lgt#L37" xlink:title="https://github.com/LogtalkDotOrg/logtalk3/tree/master/library/callable.lgt#L37">
<ellipse fill="#fff8dc" stroke="#000000" cx="81.5" cy="-80.2132" rx="53.066" ry="21.4286"/>
<text text-anchor="start" x="52.5" y="-83.0132" font-family="Courier,monospace" font-size="9.00" fill="#000000"> </text>
<text text-anchor="start" x="58.5" y="-82.4132" font-family="Courier,monospace" font-size="11.00" fill="#000000">check/1</text>
<text text-anchor="start" x="105.5" y="-83.0132" font-family="Courier,monospace" font-size="9.00" fill="#000000"> </text>
<text text-anchor="start" x="52.5" y="-72.0132" font-family="Courier,monospace" font-size="9.00" fill="#000000"> </text>
<text text-anchor="start" x="71" y="-72.6132" font-family="Courier,monospace" font-size="7.00" fill="#000000">local</text>
<text text-anchor="start" x="105.5" y="-72.0132" font-family="Courier,monospace" font-size="9.00" fill="#000000"> </text>
</a>
</g>
</g>
</g>
</svg>
