<?xml version="1.0" encoding="UTF-8" standalone="no"?>
<?xml-stylesheet href="diagrams.css" type="text/css"?>
<!DOCTYPE svg PUBLIC "-//W3C//DTD SVG 1.1//EN"
 "http://www.w3.org/Graphics/SVG/1.1/DTD/svg11.dtd">
<!-- Generated by graphviz version 2.43.20191029.1313 (20191029.1313)
 -->
<!-- Title: cloning_protocol Pages: 1 -->
<svg width="444pt" height="288pt"
 viewBox="72.00 72.00 372.04 216.00" xmlns="http://www.w3.org/2000/svg" xmlns:xlink="http://www.w3.org/1999/xlink">
<g id="graph0" class="graph" transform="scale(1 1) rotate(0) translate(76 212)">
<title>cloning_protocol</title>
<polygon fill="white" stroke="transparent" points="-4,4 -4,-140 296.04,-140 296.04,4 -4,4"/>
<text text-anchor="start" x="8" y="-26" font-family="Courier,monospace" font-size="10.00" fill="dimgray">Logtalk library</text>
<text text-anchor="start" x="8" y="-16" font-family="Courier,monospace" font-size="10.00" fill="dimgray">Cross&#45;referencing diagram for protocol cloning</text>
<text text-anchor="start" x="8" y="-6" font-family="Courier,monospace" font-size="10.00" fill="dimgray">Generated on 2020&#45;05&#45;25, 21:55</text>
<g id="clust1" class="cluster">
<title>cluster_cloning_protocol</title>
<g id="a_clust1"><a xlink:title="cloning">
<path fill="snow" stroke="dimgray" d="M112.02,-46C112.02,-46 180.02,-46 180.02,-46 186.02,-46 192.02,-52 192.02,-58 192.02,-58 192.02,-116 192.02,-116 192.02,-122 186.02,-128 180.02,-128 180.02,-128 112.02,-128 112.02,-128 106.02,-128 100.02,-122 100.02,-116 100.02,-116 100.02,-58 100.02,-58 100.02,-52 106.02,-46 112.02,-46"/>
<g id="a_clust1_0"><a xlink:href="https://github.com/LogtalkDotOrg/logtalk3/tree/ee3e469ba16664bcc8b3b120a4a0bb7672d96db2/library/cloning.lgt" xlink:title="https://github.com/LogtalkDotOrg/logtalk3/tree/ee3e469ba16664bcc8b3b120a4a0bb7672d96db2/library/cloning.lgt">
<text text-anchor="start" x="112.02" y="-112" font-family="Courier,monospace" font-size="10.00" fill="dimgray">cloning</text>
</a>
</g>
</a>
</g>
</g>
<!-- clone/1 -->
<g id="node1" class="node">
<title>clone/1</title>
<g id="a_node1"><a xlink:href="https://github.com/LogtalkDotOrg/logtalk3/tree/ee3e469ba16664bcc8b3b120a4a0bb7672d96db2/library/cloning.lgt#L30" xlink:title="https://github.com/LogtalkDotOrg/logtalk3/tree/ee3e469ba16664bcc8b3b120a4a0bb7672d96db2/library/cloning.lgt#L30">
<polygon fill="springgreen" stroke="black" points="182.02,-92 110.02,-92 110.02,-56 182.02,-56 182.02,-92"/>
<text text-anchor="start" x="117.82" y="-75.8" font-family="Courier,monospace" font-size="9.00"> </text>
<text text-anchor="start" x="122.92" y="-75.2" font-family="Courier,monospace" font-size="11.00">clone/1</text>
<text text-anchor="start" x="168.82" y="-75.8" font-family="Courier,monospace" font-size="9.00"> </text>
<text text-anchor="start" x="117.82" y="-65.8" font-family="Courier,monospace" font-size="9.00"> </text>
<text text-anchor="start" x="133.42" y="-66.4" font-family="Courier,monospace" font-size="7.00">public</text>
<text text-anchor="start" x="168.82" y="-65.8" font-family="Courier,monospace" font-size="9.00"> </text>
</a>
</g>
</g>
</g>
</svg>
