<?xml version="1.0" encoding="UTF-8" standalone="no"?>
<?xml-stylesheet href="diagrams.css" type="text/css"?>
<!DOCTYPE svg PUBLIC "-//W3C//DTD SVG 1.1//EN"
 "http://www.w3.org/Graphics/SVG/1.1/DTD/svg11.dtd">
<!-- Generated by graphviz version 9.0.0 (20230911.1827)
 -->
<!-- Title: cloning_protocol Pages: 1 -->
<svg width="444pt" height="293pt"
 viewBox="72.00 72.00 372.00 221.00" xmlns="http://www.w3.org/2000/svg" xmlns:xlink="http://www.w3.org/1999/xlink">
<g id="graph0" class="graph" transform="scale(1 1) rotate(0) translate(76 217)">
<title>cloning_protocol</title>
<polygon fill="white" stroke="none" points="-4,4 -4,-145 296,-145 296,4 -4,4"/>
<text text-anchor="start" x="8" y="-28.25" font-family="Monospace" font-size="10.00" fill="dimgray">Logtalk library</text>
<text text-anchor="start" x="8" y="-17" font-family="Monospace" font-size="10.00" fill="dimgray">Cross&#45;referencing diagram for protocol cloning</text>
<text text-anchor="start" x="8" y="-5.75" font-family="Monospace" font-size="10.00" fill="dimgray">Generated on 2023&#45;12&#45;09, 10:51</text>
<g id="clust1" class="cluster">
<title>cluster_cloning_protocol</title>
<g id="a_clust1"><a xlink:title="cloning">
<path fill="snow" stroke="dimgray" d="M111,-49.75C111,-49.75 181,-49.75 181,-49.75 187,-49.75 193,-55.75 193,-61.75 193,-61.75 193,-121 193,-121 193,-127 187,-133 181,-133 181,-133 111,-133 111,-133 105,-133 99,-127 99,-121 99,-121 99,-61.75 99,-61.75 99,-55.75 105,-49.75 111,-49.75"/>
<g id="a_clust1_0"><a xlink:href="https://github.com/LogtalkDotOrg/logtalk3/tree/9cbb5930878e702633c8e4f862a2abef79807d04/library/cloning.lgt" xlink:title="https://github.com/LogtalkDotOrg/logtalk3/tree/9cbb5930878e702633c8e4f862a2abef79807d04/library/cloning.lgt">
<text text-anchor="start" x="111" y="-115.5" font-family="Monospace" font-size="10.00" fill="dimgray">cloning</text>
</a>
</g>
</a>
</g>
</g>
<!-- clone/1 -->
<g id="node1" class="node">
<title>clone/1</title>
<g id="a_node1"><a xlink:href="https://github.com/LogtalkDotOrg/logtalk3/tree/9cbb5930878e702633c8e4f862a2abef79807d04/library/cloning.lgt#L31" xlink:title="https://github.com/LogtalkDotOrg/logtalk3/tree/9cbb5930878e702633c8e4f862a2abef79807d04/library/cloning.lgt#L31">
<polygon fill="springgreen" stroke="black" points="182.5,-95.75 109.5,-95.75 109.5,-59.75 182.5,-59.75 182.5,-95.75"/>
<text text-anchor="start" x="117.38" y="-78.58" font-family="Monospace" font-size="9.00"> </text>
<text text-anchor="start" x="122.38" y="-77.8" font-family="Monospace" font-size="11.00">clone/1</text>
<text text-anchor="start" x="169.38" y="-78.58" font-family="Monospace" font-size="9.00"> </text>
<text text-anchor="start" x="117.38" y="-67.7" font-family="Monospace" font-size="9.00"> </text>
<text text-anchor="start" x="132.5" y="-69.22" font-family="Monospace" font-size="7.00">public</text>
<text text-anchor="start" x="169.38" y="-67.7" font-family="Monospace" font-size="9.00"> </text>
</a>
</g>
</g>
</g>
</svg>
