<?xml version="1.0" encoding="UTF-8" standalone="no"?>
<?xml-stylesheet href="diagrams.css" type="text/css"?>
<!DOCTYPE svg PUBLIC "-//W3C//DTD SVG 1.1//EN"
 "http://www.w3.org/Graphics/SVG/1.1/DTD/svg11.dtd">
<!-- Generated by graphviz version 2.49.4~dev.20211124.1647 (20211124.1647)
 -->
<!-- Title: cloning_protocol Pages: 1 -->
<svg width="398pt" height="292pt"
 viewBox="72.00 72.00 326.00 220.00" xmlns="http://www.w3.org/2000/svg" xmlns:xlink="http://www.w3.org/1999/xlink">
<g id="graph0" class="graph" transform="scale(1 1) rotate(0) translate(76 216)">
<title>cloning_protocol</title>
<polygon fill="white" stroke="transparent" points="-4,4 -4,-144 250,-144 250,4 -4,4"/>
<text text-anchor="start" x="8" y="-29" font-family="Courier,monospace" font-size="10.00" fill="dimgray">Logtalk library</text>
<text text-anchor="start" x="8" y="-18" font-family="Courier,monospace" font-size="10.00" fill="dimgray">Cross&#45;referencing diagram for protocol cloning</text>
<text text-anchor="start" x="8" y="-7" font-family="Courier,monospace" font-size="10.00" fill="dimgray">Generated on 2021&#45;11&#45;24, 21:25</text>
<g id="clust1" class="cluster">
<title>cluster_cloning_protocol</title>
<g id="a_clust1"><a xlink:title="cloning">
<path fill="snow" stroke="dimgray" d="M92,-49C92,-49 154,-49 154,-49 160,-49 166,-55 166,-61 166,-61 166,-120 166,-120 166,-126 160,-132 154,-132 154,-132 92,-132 92,-132 86,-132 80,-126 80,-120 80,-120 80,-61 80,-61 80,-55 86,-49 92,-49"/>
<g id="a_clust1_0"><a xlink:href="https://github.com/LogtalkDotOrg/logtalk3/tree/1450dd2e30cbc83199a0162ba485cb2893d77c37/library/cloning.lgt" xlink:title="https://github.com/LogtalkDotOrg/logtalk3/tree/1450dd2e30cbc83199a0162ba485cb2893d77c37/library/cloning.lgt">
<text text-anchor="start" x="92.5" y="-115.5" font-family="Courier,monospace" font-size="10.00" fill="dimgray">cloning</text>
</a>
</g>
</a>
</g>
</g>
<!-- clone/1 -->
<g id="node1" class="node">
<title>clone/1</title>
<g id="a_node1"><a xlink:href="https://github.com/LogtalkDotOrg/logtalk3/tree/1450dd2e30cbc83199a0162ba485cb2893d77c37/library/cloning.lgt#L31" xlink:title="https://github.com/LogtalkDotOrg/logtalk3/tree/1450dd2e30cbc83199a0162ba485cb2893d77c37/library/cloning.lgt#L31">
<polygon fill="springgreen" stroke="black" points="155.5,-95 90.5,-95 90.5,-59 155.5,-59 155.5,-95"/>
<text text-anchor="start" x="99" y="-79.8" font-family="Courier,monospace" font-size="9.00"> </text>
<text text-anchor="start" x="104" y="-79.2" font-family="Courier,monospace" font-size="11.00">clone/1</text>
<text text-anchor="start" x="143" y="-79.8" font-family="Courier,monospace" font-size="9.00"> </text>
<text text-anchor="start" x="99" y="-68.8" font-family="Courier,monospace" font-size="9.00"> </text>
<text text-anchor="start" x="113" y="-69.4" font-family="Courier,monospace" font-size="7.00">public</text>
<text text-anchor="start" x="143" y="-68.8" font-family="Courier,monospace" font-size="9.00"> </text>
</a>
</g>
</g>
</g>
</svg>
