<?xml version="1.0" encoding="UTF-8" standalone="no"?>
<?xml-stylesheet href="diagrams.css" type="text/css"?>
<!DOCTYPE svg PUBLIC "-//W3C//DTD SVG 1.1//EN"
 "http://www.w3.org/Graphics/SVG/1.1/DTD/svg11.dtd">
<!-- Generated by graphviz version 11.0.0 (20240428.1522)
 -->
<!-- Title: cloning_protocol Pages: 1 -->
<svg width="444pt" height="299pt"
 viewBox="72.00 72.00 372.00 227.00" xmlns="http://www.w3.org/2000/svg" xmlns:xlink="http://www.w3.org/1999/xlink">
<g id="graph0" class="graph" transform="scale(1 1) rotate(0) translate(76 223)">
<title>cloning_protocol</title>
<polygon fill="white" stroke="none" points="-4,4 -4,-151 296,-151 296,4 -4,4"/>
<text text-anchor="start" x="8" y="-32.75" font-family="Monospace" font-size="10.00" fill="dimgray">Logtalk library</text>
<text text-anchor="start" x="8" y="-20" font-family="Monospace" font-size="10.00" fill="dimgray">Cross&#45;referencing diagram for protocol cloning</text>
<text text-anchor="start" x="8" y="-7.25" font-family="Monospace" font-size="10.00" fill="dimgray">Generated on 2024&#45;06&#45;12, 11:27</text>
<g id="clust1" class="cluster">
<title>cluster_cloning_protocol</title>
<g id="a_clust1"><a xlink:title="cloning">
<path fill="snow" stroke="dimgray" d="M111,-54.25C111,-54.25 181,-54.25 181,-54.25 187,-54.25 193,-60.25 193,-66.25 193,-66.25 193,-127 193,-127 193,-133 187,-139 181,-139 181,-139 111,-139 111,-139 105,-139 99,-133 99,-127 99,-127 99,-66.25 99,-66.25 99,-60.25 105,-54.25 111,-54.25"/>
<g id="a_clust1_0"><a xlink:href="https://github.com/LogtalkDotOrg/logtalk3/tree/122e8e3e5a1e05887e089cbdcc86b2e713625e65/library/cloning.lgt" xlink:title="https://github.com/LogtalkDotOrg/logtalk3/tree/122e8e3e5a1e05887e089cbdcc86b2e713625e65/library/cloning.lgt">
<text text-anchor="start" x="111" y="-121.5" font-family="Monospace" font-size="10.00" fill="dimgray">cloning</text>
</a>
</g>
</a>
</g>
</g>
<!-- clone/1 -->
<g id="node1" class="node">
<title>clone/1</title>
<g id="a_node1"><a xlink:href="https://github.com/LogtalkDotOrg/logtalk3/tree/122e8e3e5a1e05887e089cbdcc86b2e713625e65/library/cloning.lgt#L31" xlink:title="https://github.com/LogtalkDotOrg/logtalk3/tree/122e8e3e5a1e05887e089cbdcc86b2e713625e65/library/cloning.lgt#L31">
<polygon fill="springgreen" stroke="black" points="182.5,-100.25 109.5,-100.25 109.5,-64.25 182.5,-64.25 182.5,-100.25"/>
<text text-anchor="start" x="117.38" y="-84.83" font-family="Monospace" font-size="9.00"> </text>
<text text-anchor="start" x="122.38" y="-83.8" font-family="Monospace" font-size="11.00">clone/1</text>
<text text-anchor="start" x="169.38" y="-84.83" font-family="Monospace" font-size="9.00"> </text>
<text text-anchor="start" x="117.38" y="-72.7" font-family="Monospace" font-size="9.00"> </text>
<text text-anchor="start" x="132.5" y="-73.6" font-family="Monospace" font-size="7.00">public</text>
<text text-anchor="start" x="169.38" y="-72.7" font-family="Monospace" font-size="9.00"> </text>
</a>
</g>
</g>
</g>
</svg>
