<?xml version="1.0" encoding="UTF-8" standalone="no"?>
<?xml-stylesheet href="diagrams.css" type="text/css"?>
<!DOCTYPE svg PUBLIC "-//W3C//DTD SVG 1.1//EN"
 "http://www.w3.org/Graphics/SVG/1.1/DTD/svg11.dtd">
<!-- Generated by graphviz version 2.49.3 (20211023.0002)
 -->
<!-- Title: cloning_protocol Pages: 1 -->
<svg width="445pt" height="292pt"
 viewBox="72.00 72.00 373.00 220.00" xmlns="http://www.w3.org/2000/svg" xmlns:xlink="http://www.w3.org/1999/xlink">
<g id="graph0" class="graph" transform="scale(1 1) rotate(0) translate(76 216)">
<title>cloning_protocol</title>
<polygon fill="white" stroke="transparent" points="-4,4 -4,-144 297,-144 297,4 -4,4"/>
<text text-anchor="start" x="8" y="-29" font-family="Monospace" font-size="10.00" fill="dimgray">Logtalk library</text>
<text text-anchor="start" x="8" y="-18" font-family="Monospace" font-size="10.00" fill="dimgray">Cross&#45;referencing diagram for protocol cloning</text>
<text text-anchor="start" x="8" y="-7" font-family="Monospace" font-size="10.00" fill="dimgray">Generated on 2021&#45;12&#45;01, 17:07</text>
<g id="clust1" class="cluster">
<title>cluster_cloning_protocol</title>
<g id="a_clust1"><a xlink:title="cloning">
<path fill="snow" stroke="dimgray" d="M110.5,-49C110.5,-49 182.5,-49 182.5,-49 188.5,-49 194.5,-55 194.5,-61 194.5,-61 194.5,-120 194.5,-120 194.5,-126 188.5,-132 182.5,-132 182.5,-132 110.5,-132 110.5,-132 104.5,-132 98.5,-126 98.5,-120 98.5,-120 98.5,-61 98.5,-61 98.5,-55 104.5,-49 110.5,-49"/>
<g id="a_clust1_0"><a xlink:href="https://github.com/LogtalkDotOrg/logtalk3/tree/80bca11e23513ba9dee0b90ea6273fe532329b3a/library/cloning.lgt" xlink:title="https://github.com/LogtalkDotOrg/logtalk3/tree/80bca11e23513ba9dee0b90ea6273fe532329b3a/library/cloning.lgt">
<text text-anchor="start" x="111" y="-115.5" font-family="Monospace" font-size="10.00" fill="dimgray">cloning</text>
</a>
</g>
</a>
</g>
</g>
<!-- clone/1 -->
<g id="node1" class="node">
<title>clone/1</title>
<g id="a_node1"><a xlink:href="https://github.com/LogtalkDotOrg/logtalk3/tree/80bca11e23513ba9dee0b90ea6273fe532329b3a/library/cloning.lgt#L31" xlink:title="https://github.com/LogtalkDotOrg/logtalk3/tree/80bca11e23513ba9dee0b90ea6273fe532329b3a/library/cloning.lgt#L31">
<polygon fill="springgreen" stroke="black" points="184,-95 109,-95 109,-59 184,-59 184,-95"/>
<text text-anchor="start" x="117.5" y="-79.8" font-family="Monospace" font-size="9.00"> </text>
<text text-anchor="start" x="123.5" y="-79.2" font-family="Monospace" font-size="11.00">clone/1</text>
<text text-anchor="start" x="170.5" y="-79.8" font-family="Monospace" font-size="9.00"> </text>
<text text-anchor="start" x="117.5" y="-68.8" font-family="Monospace" font-size="9.00"> </text>
<text text-anchor="start" x="134" y="-69.4" font-family="Monospace" font-size="7.00">public</text>
<text text-anchor="start" x="170.5" y="-68.8" font-family="Monospace" font-size="9.00"> </text>
</a>
</g>
</g>
</g>
</svg>
