<?xml version="1.0" encoding="UTF-8" standalone="no"?>
<!DOCTYPE svg PUBLIC "-//W3C//DTD SVG 1.1//EN"
 "http://www.w3.org/Graphics/SVG/1.1/DTD/svg11.dtd">
<!-- Generated by graphviz version 2.40.1 (20161225.0304)
 -->
<!-- Title: code_metrics_object Pages: 1 -->
<svg width="682pt" height="535pt"
 viewBox="72.00 72.00 610.00 462.85" xmlns="http://www.w3.org/2000/svg" xmlns:xlink="http://www.w3.org/1999/xlink">
<g id="graph0" class="graph" transform="scale(1 1) rotate(0) translate(76 458.8528)">
<title>code_metrics_object</title>
<polygon fill="#ffffff" stroke="transparent" points="-4,4 -4,-386.8528 534,-386.8528 534,4 -4,4"/>
<text text-anchor="start" x="8" y="-29" font-family="Courier,monospace" font-size="10.00" fill="#8b8989">Logtalk development tools</text>
<text text-anchor="start" x="8" y="-18" font-family="Courier,monospace" font-size="10.00" fill="#8b8989">Cross&#45;referencing diagram</text>
<text text-anchor="start" x="8" y="-7" font-family="Courier,monospace" font-size="10.00" fill="#8b8989">Generated on 2019/04/17, 17:54</text>
<g id="clust1" class="cluster">
<title>cluster_code_metrics_object</title>
<g id="a_clust1"><a xlink:href="https://github.com/LogtalkDotOrg/logtalk3/tree/master/tools/code_metrics/code_metrics.lgt" xlink:title="https://github.com/LogtalkDotOrg/logtalk3/tree/master/tools/code_metrics/code_metrics.lgt">
<path fill="#fffafa" stroke="#8b8989" d="M20,-49C20,-49 510,-49 510,-49 516,-49 522,-55 522,-61 522,-61 522,-362.8528 522,-362.8528 522,-368.8528 516,-374.8528 510,-374.8528 510,-374.8528 20,-374.8528 20,-374.8528 14,-374.8528 8,-368.8528 8,-362.8528 8,-362.8528 8,-61 8,-61 8,-55 14,-49 20,-49"/>
<text text-anchor="middle" x="52.5" y="-362.8528" font-family="Courier,monospace" font-size="10.00" fill="#8b8989">code_metrics</text>
</a>
</g>
</g>
<g id="clust2" class="cluster">
<title>cluster_other</title>
<g id="a_clust2"><a xlink:title="(external predicates)">
<path fill="#ffffff" stroke="#8b8989" d="M240,-59C240,-59 500,-59 500,-59 506,-59 512,-65 512,-71 512,-71 512,-128.4264 512,-128.4264 512,-134.4264 506,-140.4264 500,-140.4264 500,-140.4264 240,-140.4264 240,-140.4264 234,-140.4264 228,-134.4264 228,-128.4264 228,-128.4264 228,-71 228,-71 228,-65 234,-59 240,-59"/>
<text text-anchor="middle" x="299.5" y="-128.4264" font-family="Courier,monospace" font-size="10.00" fill="#8b8989">(external predicates)</text>
</a>
</g>
</g>
<!-- process_entity/2 -->
<g id="node1" class="node">
<title>process_entity/2</title>
<g id="a_node1"><a xlink:href="https://github.com/LogtalkDotOrg/logtalk3/tree/master/tools/code_metrics/code_metrics.lgt#L32" xlink:title="https://github.com/LogtalkDotOrg/logtalk3/tree/master/tools/code_metrics/code_metrics.lgt#L32">
<ellipse fill="#f5f5dc" stroke="#000000" cx="244" cy="-324.6396" rx="94.5053" ry="21.4286"/>
<text text-anchor="start" x="185" y="-327.4396" font-family="Courier,monospace" font-size="9.00" fill="#000000"> </text>
<text text-anchor="start" x="191" y="-326.8396" font-family="Courier,monospace" font-size="11.00" fill="#000000">process_entity/2</text>
<text text-anchor="start" x="297" y="-327.4396" font-family="Courier,monospace" font-size="9.00" fill="#000000"> </text>
<text text-anchor="start" x="185" y="-316.4396" font-family="Courier,monospace" font-size="9.00" fill="#000000"> </text>
<text text-anchor="start" x="233" y="-317.0396" font-family="Courier,monospace" font-size="7.00" fill="#000000">local</text>
<text text-anchor="start" x="297" y="-316.4396" font-family="Courier,monospace" font-size="9.00" fill="#000000"> </text>
</a>
</g>
</g>
<!-- process_entity_/3 -->
<g id="node2" class="node">
<title>process_entity_/3</title>
<g id="a_node2"><a xlink:href="https://github.com/LogtalkDotOrg/logtalk3/tree/master/tools/code_metrics/code_metrics.lgt#L39" xlink:title="https://github.com/LogtalkDotOrg/logtalk3/tree/master/tools/code_metrics/code_metrics.lgt#L39">
<ellipse fill="#f5f5dc" stroke="#000000" cx="118" cy="-90.2132" rx="99.9045" ry="21.4286"/>
<text text-anchor="start" x="56" y="-93.0132" font-family="Courier,monospace" font-size="9.00" fill="#000000"> </text>
<text text-anchor="start" x="62" y="-92.4132" font-family="Courier,monospace" font-size="11.00" fill="#000000">process_entity_/3</text>
<text text-anchor="start" x="175" y="-93.0132" font-family="Courier,monospace" font-size="9.00" fill="#000000"> </text>
<text text-anchor="start" x="56" y="-82.0132" font-family="Courier,monospace" font-size="9.00" fill="#000000"> </text>
<text text-anchor="start" x="107.5" y="-82.6132" font-family="Courier,monospace" font-size="7.00" fill="#000000">local</text>
<text text-anchor="start" x="175" y="-82.0132" font-family="Courier,monospace" font-size="9.00" fill="#000000"> </text>
</a>
</g>
</g>
<!-- process_entity/2&#45;&gt;process_entity_/3 -->
<g id="edge1" class="edge">
<title>process_entity/2&#45;&gt;process_entity_/3</title>
<g id="a_edge1"><a xlink:href="https://github.com/LogtalkDotOrg/logtalk3/tree/master/tools/code_metrics/code_metrics.lgt#L32" xlink:title="calls">
<path fill="none" stroke="#000000" d="M232.5961,-303.4224C210.4437,-262.2071 161.4773,-171.1039 135.2998,-122.4"/>
<polygon fill="#000000" stroke="#000000" points="135.1501,-122.1214 128.7862,-118.7301 129.4689,-111.5514 135.1501,-122.1214"/>
</a>
</g>
<g id="a_edge1&#45;label"><a xlink:href="https://github.com/LogtalkDotOrg/logtalk3/tree/master/tools/code_metrics/code_metrics.lgt#L32" xlink:title="https://github.com/LogtalkDotOrg/logtalk3/tree/master/tools/code_metrics/code_metrics.lgt#L32">
<text text-anchor="start" x="183" y="-205.2264" font-family="Courier,monospace" font-size="9.00" fill="#000000">calls</text>
</a>
</g>
</g>
<!-- logtalk::print_message/3 -->
<g id="node3" class="node">
<title>logtalk::print_message/3</title>
<g id="a_node3"><a xlink:href="https://logtalk.org/library/logtalk_0.html#print_message/3" xlink:title="https://logtalk.org/library/logtalk_0.html#print_message/3">
<ellipse fill="#d3d3d3" stroke="#000000" stroke-dasharray="5,2" cx="370" cy="-90.2132" rx="132.4583" ry="21.4286"/>
<text text-anchor="start" x="285" y="-93.0132" font-family="Courier,monospace" font-size="9.00" fill="#000000"> </text>
<text text-anchor="start" x="291" y="-92.4132" font-family="Courier,monospace" font-size="11.00" fill="#000000">logtalk::print_message/3</text>
<text text-anchor="start" x="450" y="-93.0132" font-family="Courier,monospace" font-size="9.00" fill="#000000"> </text>
<text text-anchor="start" x="285" y="-82.0132" font-family="Courier,monospace" font-size="9.00" fill="#000000"> </text>
<text text-anchor="start" x="353.5" y="-82.6132" font-family="Courier,monospace" font-size="7.00" fill="#000000">external</text>
<text text-anchor="start" x="450" y="-82.0132" font-family="Courier,monospace" font-size="9.00" fill="#000000"> </text>
</a>
</g>
</g>
<!-- process_entity/2&#45;&gt;logtalk::print_message/3 -->
<g id="edge2" class="edge">
<title>process_entity/2&#45;&gt;logtalk::print_message/3</title>
<g id="a_edge2"><a xlink:href="https://github.com/LogtalkDotOrg/logtalk3/tree/master/tools/code_metrics/code_metrics.lgt#L32" xlink:title="calls">
<path fill="none" stroke="#000000" d="M255.4039,-303.4224C277.5563,-262.2071 326.5227,-171.1039 352.7002,-122.4"/>
<polygon fill="#000000" stroke="#000000" points="352.8499,-122.1214 352.1672,-114.9427 358.5311,-111.5514 352.8499,-122.1214"/>
</a>
</g>
<g id="a_edge2&#45;label"><a xlink:href="https://github.com/LogtalkDotOrg/logtalk3/tree/master/tools/code_metrics/code_metrics.lgt#L32" xlink:title="https://github.com/LogtalkDotOrg/logtalk3/tree/master/tools/code_metrics/code_metrics.lgt#L32">
<text text-anchor="start" x="309" y="-205.2264" font-family="Courier,monospace" font-size="9.00" fill="#000000">calls</text>
</a>
</g>
</g>
</g>
</svg>
