<?xml version="1.0" encoding="UTF-8" standalone="no"?>
<?xml-stylesheet href="diagrams.css" type="text/css"?>
<!DOCTYPE svg PUBLIC "-//W3C//DTD SVG 1.1//EN"
 "http://www.w3.org/Graphics/SVG/1.1/DTD/svg11.dtd">
<!-- Generated by graphviz version 2.49.3 (20211023.0002)
 -->
<!-- Title: code_metrics_object Pages: 1 -->
<svg width="535pt" height="410pt"
 viewBox="72.00 72.00 463.00 338.00" xmlns="http://www.w3.org/2000/svg" xmlns:xlink="http://www.w3.org/1999/xlink">
<g id="graph0" class="graph" transform="scale(1 1) rotate(0) translate(76 334)">
<title>code_metrics_object</title>
<polygon fill="white" stroke="transparent" points="-4,4 -4,-262 387,-262 387,4 -4,4"/>
<text text-anchor="start" x="8" y="-29" font-family="Monospace" font-size="10.00" fill="dimgray">Logtalk development tools</text>
<text text-anchor="start" x="8" y="-18" font-family="Monospace" font-size="10.00" fill="dimgray">Cross&#45;referencing diagram for object code_metrics</text>
<text text-anchor="start" x="8" y="-7" font-family="Monospace" font-size="10.00" fill="dimgray">Generated on 2021&#45;12&#45;21, 14:59</text>
<g id="clust1" class="cluster">
<title>cluster_code_metrics_object</title>
<g id="a_clust1"><a xlink:title="code_metrics">
<path fill="snow" stroke="dimgray" d="M20,-49C20,-49 363,-49 363,-49 369,-49 375,-55 375,-61 375,-61 375,-238 375,-238 375,-244 369,-250 363,-250 363,-250 20,-250 20,-250 14,-250 8,-244 8,-238 8,-238 8,-61 8,-61 8,-55 14,-49 20,-49"/>
<g id="a_clust1_0"><a xlink:href="https://github.com/LogtalkDotOrg/logtalk3/tree/9d07e3d575390d1530dd3f91fe06a9d7b16728c5/tools/code_metrics/code_metrics.lgt" xlink:title="https://github.com/LogtalkDotOrg/logtalk3/tree/9d07e3d575390d1530dd3f91fe06a9d7b16728c5/tools/code_metrics/code_metrics.lgt">
<text text-anchor="start" x="20.5" y="-233.5" font-family="Monospace" font-size="10.00" fill="dimgray">code_metrics</text>
</a>
</g>
</a>
</g>
</g>
<!-- process_entity/2 -->
<g id="node1" class="node">
<title>process_entity/2</title>
<g id="a_node1"><a xlink:href="https://github.com/LogtalkDotOrg/logtalk3/tree/9d07e3d575390d1530dd3f91fe06a9d7b16728c5/tools/code_metrics/code_metrics.lgt#L33" xlink:title="https://github.com/LogtalkDotOrg/logtalk3/tree/9d07e3d575390d1530dd3f91fe06a9d7b16728c5/tools/code_metrics/code_metrics.lgt#L33">
<polygon fill="cornsilk" stroke="black" points="214,-213 80,-213 80,-177 214,-177 214,-213"/>
<text text-anchor="start" x="88" y="-197.8" font-family="Monospace" font-size="9.00"> </text>
<text text-anchor="start" x="94" y="-197.2" font-family="Monospace" font-size="11.00">process_entity/2</text>
<text text-anchor="start" x="200" y="-197.8" font-family="Monospace" font-size="9.00"> </text>
<text text-anchor="start" x="88" y="-186.8" font-family="Monospace" font-size="9.00"> </text>
<text text-anchor="start" x="136" y="-187.4" font-family="Monospace" font-size="7.00">local</text>
<text text-anchor="start" x="200" y="-186.8" font-family="Monospace" font-size="9.00"> </text>
</a>
</g>
</g>
<!-- process_entity_/3 -->
<g id="node2" class="node">
<title>process_entity_/3</title>
<g id="a_node2"><a xlink:href="https://github.com/LogtalkDotOrg/logtalk3/tree/9d07e3d575390d1530dd3f91fe06a9d7b16728c5/tools/code_metrics/code_metrics.lgt#L40" xlink:title="https://github.com/LogtalkDotOrg/logtalk3/tree/9d07e3d575390d1530dd3f91fe06a9d7b16728c5/tools/code_metrics/code_metrics.lgt#L40">
<polygon fill="cornsilk" stroke="black" points="159.5,-95 18.5,-95 18.5,-59 159.5,-59 159.5,-95"/>
<text text-anchor="start" x="27" y="-79.8" font-family="Monospace" font-size="9.00"> </text>
<text text-anchor="start" x="33" y="-79.2" font-family="Monospace" font-size="11.00">process_entity_/3</text>
<text text-anchor="start" x="146" y="-79.8" font-family="Monospace" font-size="9.00"> </text>
<text text-anchor="start" x="27" y="-68.8" font-family="Monospace" font-size="9.00"> </text>
<text text-anchor="start" x="78.5" y="-69.4" font-family="Monospace" font-size="7.00">local</text>
<text text-anchor="start" x="146" y="-68.8" font-family="Monospace" font-size="9.00"> </text>
</a>
</g>
</g>
<!-- process_entity/2&#45;&gt;process_entity_/3 -->
<g id="edge1" class="edge">
<title>process_entity/2&#45;&gt;process_entity_/3</title>
<g id="a_edge1"><a xlink:href="https://github.com/LogtalkDotOrg/logtalk3/tree/9d07e3d575390d1530dd3f91fe06a9d7b16728c5/tools/code_metrics/code_metrics.lgt#L33" xlink:title="calls">
<path fill="none" stroke="black" d="M138.44,-176.88C128.89,-157.78 113.32,-126.63 102.2,-104.4"/>
<polygon fill="black" stroke="black" points="105.2,-102.57 97.59,-95.19 98.93,-105.7 105.2,-102.57"/>
</a>
</g>
<g id="a_edge1&#45;label"><a xlink:href="https://github.com/LogtalkDotOrg/logtalk3/tree/9d07e3d575390d1530dd3f91fe06a9d7b16728c5/tools/code_metrics/code_metrics.lgt#L33" xlink:title="https://github.com/LogtalkDotOrg/logtalk3/tree/9d07e3d575390d1530dd3f91fe06a9d7b16728c5/tools/code_metrics/code_metrics.lgt#L33">
<text text-anchor="start" x="119" y="-133.8" font-family="Monospace" font-size="9.00">calls</text>
</a>
</g>
</g>
<!-- logtalk::print_message/3 -->
<g id="node3" class="node">
<title>logtalk::print_message/3</title>
<g id="a_node3"><a xlink:href="https://logtalk.org/library/logtalk_0.html#print_message/3" xlink:title="https://logtalk.org/library/logtalk_0.html#print_message/3">
<polygon fill="beige" stroke="black" stroke-dasharray="5,2" points="364.5,-95 177.5,-95 177.5,-59 364.5,-59 364.5,-95"/>
<text text-anchor="start" x="186" y="-79.8" font-family="Monospace" font-size="9.00"> </text>
<text text-anchor="start" x="192" y="-79.2" font-family="Monospace" font-size="11.00">logtalk::print_message/3</text>
<text text-anchor="start" x="351" y="-79.8" font-family="Monospace" font-size="9.00"> </text>
<text text-anchor="start" x="186" y="-68.8" font-family="Monospace" font-size="9.00"> </text>
<text text-anchor="start" x="254.5" y="-69.4" font-family="Monospace" font-size="7.00">external</text>
<text text-anchor="start" x="351" y="-68.8" font-family="Monospace" font-size="9.00"> </text>
</a>
</g>
</g>
<!-- process_entity/2&#45;&gt;logtalk::print_message/3 -->
<g id="edge2" class="edge">
<title>process_entity/2&#45;&gt;logtalk::print_message/3</title>
<g id="a_edge2"><a xlink:href="https://github.com/LogtalkDotOrg/logtalk3/tree/9d07e3d575390d1530dd3f91fe06a9d7b16728c5/tools/code_metrics/code_metrics.lgt#L33" xlink:title="calls">
<path fill="none" stroke="black" d="M165.3,-176.88C186.45,-157.09 221.42,-124.38 245.3,-102.05"/>
<polygon fill="black" stroke="black" points="247.72,-104.57 252.63,-95.19 242.93,-99.46 247.72,-104.57"/>
</a>
</g>
<g id="a_edge2&#45;label"><a xlink:href="https://github.com/LogtalkDotOrg/logtalk3/tree/9d07e3d575390d1530dd3f91fe06a9d7b16728c5/tools/code_metrics/code_metrics.lgt#L33" xlink:title="https://github.com/LogtalkDotOrg/logtalk3/tree/9d07e3d575390d1530dd3f91fe06a9d7b16728c5/tools/code_metrics/code_metrics.lgt#L33">
<text text-anchor="start" x="212" y="-133.8" font-family="Monospace" font-size="9.00">calls</text>
</a>
</g>
</g>
</g>
</svg>
