<?xml version="1.0" encoding="UTF-8" standalone="no"?>
<!DOCTYPE svg PUBLIC "-//W3C//DTD SVG 1.1//EN"
 "http://www.w3.org/Graphics/SVG/1.1/DTD/svg11.dtd">
<!-- Generated by graphviz version 2.40.1 (20161225.0304)
 -->
<!-- Title: code_metrics_object Pages: 1 -->
<svg width="642pt" height="521pt"
 viewBox="72.00 72.00 570.00 448.64" xmlns="http://www.w3.org/2000/svg" xmlns:xlink="http://www.w3.org/1999/xlink">
<g id="graph0" class="graph" transform="scale(1 1) rotate(0) translate(76 444.6396)">
<title>code_metrics_object</title>
<polygon fill="#ffffff" stroke="transparent" points="-4,4 -4,-372.6396 494,-372.6396 494,4 -4,4"/>
<text text-anchor="start" x="8" y="-18" font-family="Courier,monospace" font-size="10.00" fill="#8b8989">Logtalk development tools</text>
<text text-anchor="start" x="8" y="-7" font-family="Courier,monospace" font-size="10.00" fill="#8b8989">Generated on 2019/04/12, 21:31</text>
<g id="clust1" class="cluster">
<title>cluster_code_metrics_object</title>
<g id="a_clust1"><a xlink:href="https://github.com/LogtalkDotOrg/logtalk3/tree/master/tools/code_metrics/code_metrics.lgt" xlink:title="https://github.com/LogtalkDotOrg/logtalk3/tree/master/tools/code_metrics/code_metrics.lgt">
<path fill="#fffafa" stroke="#8b8989" d="M20,-38C20,-38 470,-38 470,-38 476,-38 482,-44 482,-50 482,-50 482,-348.6396 482,-348.6396 482,-354.6396 476,-360.6396 470,-360.6396 470,-360.6396 20,-360.6396 20,-360.6396 14,-360.6396 8,-354.6396 8,-348.6396 8,-348.6396 8,-50 8,-50 8,-44 14,-38 20,-38"/>
<text text-anchor="middle" x="52.5" y="-348.6396" font-family="Courier,monospace" font-size="10.00" fill="#8b8989">code_metrics</text>
</a>
</g>
</g>
<g id="clust2" class="cluster">
<title>cluster_other</title>
<g id="a_clust2"><a xlink:title="(external predicates)">
<path fill="#ffffff" stroke="#8b8989" d="M240,-48C240,-48 460,-48 460,-48 466,-48 472,-54 472,-60 472,-60 472,-111 472,-111 472,-117 466,-123 460,-123 460,-123 240,-123 240,-123 234,-123 228,-117 228,-111 228,-111 228,-60 228,-60 228,-54 234,-48 240,-48"/>
<text text-anchor="middle" x="299.5" y="-111" font-family="Courier,monospace" font-size="10.00" fill="#8b8989">(external predicates)</text>
</a>
</g>
</g>
<!-- process_entity/2 -->
<g id="node1" class="node">
<title>process_entity/2</title>
<g id="a_node1"><a xlink:href="https://github.com/LogtalkDotOrg/logtalk3/tree/master/tools/code_metrics/code_metrics.lgt#L32" xlink:title="https://github.com/LogtalkDotOrg/logtalk3/tree/master/tools/code_metrics/code_metrics.lgt#L32">
<ellipse fill="#f5f5dc" stroke="#000000" cx="234" cy="-310.4264" rx="94.5053" ry="21.4286"/>
<text text-anchor="start" x="175" y="-313.2264" font-family="Courier,monospace" font-size="9.00" fill="#000000"> </text>
<text text-anchor="start" x="181" y="-312.6264" font-family="Courier,monospace" font-size="11.00" fill="#000000">process_entity/2</text>
<text text-anchor="start" x="287" y="-313.2264" font-family="Courier,monospace" font-size="9.00" fill="#000000"> </text>
<text text-anchor="start" x="175" y="-302.2264" font-family="Courier,monospace" font-size="9.00" fill="#000000"> </text>
<text text-anchor="start" x="223" y="-302.8264" font-family="Courier,monospace" font-size="7.00" fill="#000000">local</text>
<text text-anchor="start" x="287" y="-302.2264" font-family="Courier,monospace" font-size="9.00" fill="#000000"> </text>
</a>
</g>
</g>
<!-- process_entity_/3 -->
<g id="node2" class="node">
<title>process_entity_/3</title>
<g id="a_node2"><a xlink:href="https://github.com/LogtalkDotOrg/logtalk3/tree/master/tools/code_metrics/code_metrics.lgt#L39" xlink:title="https://github.com/LogtalkDotOrg/logtalk3/tree/master/tools/code_metrics/code_metrics.lgt#L39">
<ellipse fill="#f5f5dc" stroke="#000000" cx="118" cy="-76" rx="99.9045" ry="21.4286"/>
<text text-anchor="start" x="56" y="-78.8" font-family="Courier,monospace" font-size="9.00" fill="#000000"> </text>
<text text-anchor="start" x="62" y="-78.2" font-family="Courier,monospace" font-size="11.00" fill="#000000">process_entity_/3</text>
<text text-anchor="start" x="175" y="-78.8" font-family="Courier,monospace" font-size="9.00" fill="#000000"> </text>
<text text-anchor="start" x="56" y="-67.8" font-family="Courier,monospace" font-size="9.00" fill="#000000"> </text>
<text text-anchor="start" x="107.5" y="-68.4" font-family="Courier,monospace" font-size="7.00" fill="#000000">local</text>
<text text-anchor="start" x="175" y="-67.8" font-family="Courier,monospace" font-size="9.00" fill="#000000"> </text>
</a>
</g>
</g>
<!-- process_entity/2&#45;&gt;process_entity_/3 -->
<g id="edge1" class="edge">
<title>process_entity/2&#45;&gt;process_entity_/3</title>
<g id="a_edge1"><a xlink:href="https://github.com/LogtalkDotOrg/logtalk3/tree/master/tools/code_metrics/code_metrics.lgt#L32" xlink:title="calls">
<path fill="none" stroke="#000000" d="M223.5012,-289.2092C203.1069,-247.9939 158.0267,-156.8907 133.9268,-108.1868"/>
<polygon fill="#000000" stroke="#000000" points="133.8807,-108.0935 127.6346,-104.4899 128.5587,-97.3382 133.8807,-108.0935"/>
</a>
</g>
<g id="a_edge1&#45;label"><a xlink:href="https://github.com/LogtalkDotOrg/logtalk3/tree/master/tools/code_metrics/code_metrics.lgt#L32" xlink:title="https://github.com/LogtalkDotOrg/logtalk3/tree/master/tools/code_metrics/code_metrics.lgt#L32">
<text text-anchor="start" x="178" y="-191.0132" font-family="Courier,monospace" font-size="9.00" fill="#000000">calls</text>
</a>
</g>
</g>
<!-- logtalk::print_message/3 -->
<g id="node3" class="node">
<title>logtalk::print_message/3</title>
<ellipse fill="#d3d3d3" stroke="#000000" stroke-dasharray="5,2" cx="350" cy="-76" rx="112.4004" ry="18"/>
<text text-anchor="start" x="265" y="-73.8" font-family="Courier,monospace" font-size="9.00" fill="#000000"> </text>
<text text-anchor="start" x="271" y="-73.2" font-family="Courier,monospace" font-size="11.00" fill="#000000">logtalk::print_message/3</text>
<text text-anchor="start" x="430" y="-73.8" font-family="Courier,monospace" font-size="9.00" fill="#000000"> </text>
</g>
<!-- process_entity/2&#45;&gt;logtalk::print_message/3 -->
<g id="edge2" class="edge">
<title>process_entity/2&#45;&gt;logtalk::print_message/3</title>
<g id="a_edge2"><a xlink:href="https://github.com/LogtalkDotOrg/logtalk3/tree/master/tools/code_metrics/code_metrics.lgt#L32" xlink:title="calls">
<path fill="none" stroke="#000000" d="M244.4988,-289.2092C265.3653,-247.0397 312.074,-152.6453 335.7129,-104.8731"/>
<polygon fill="#000000" stroke="#000000" points="335.7401,-104.8179 334.8161,-97.6662 341.0622,-94.0626 335.7401,-104.8179"/>
</a>
</g>
<g id="a_edge2&#45;label"><a xlink:href="https://github.com/LogtalkDotOrg/logtalk3/tree/master/tools/code_metrics/code_metrics.lgt#L32" xlink:title="https://github.com/LogtalkDotOrg/logtalk3/tree/master/tools/code_metrics/code_metrics.lgt#L32">
<text text-anchor="start" x="294" y="-191.0132" font-family="Courier,monospace" font-size="9.00" fill="#000000">calls</text>
</a>
</g>
</g>
</g>
</svg>
