<?xml version="1.0" encoding="UTF-8" standalone="no"?>
<!DOCTYPE svg PUBLIC "-//W3C//DTD SVG 1.1//EN"
 "http://www.w3.org/Graphics/SVG/1.1/DTD/svg11.dtd">
<!-- Generated by graphviz version 2.40.1 (20161225.0304)
 -->
<!-- Title: code_metrics_object Pages: 1 -->
<svg width="682pt" height="524pt"
 viewBox="72.00 72.00 610.00 451.85" xmlns="http://www.w3.org/2000/svg" xmlns:xlink="http://www.w3.org/1999/xlink">
<g id="graph0" class="graph" transform="scale(1 1) rotate(0) translate(76 447.8528)">
<title>code_metrics_object</title>
<polygon fill="#ffffff" stroke="transparent" points="-4,4 -4,-375.8528 534,-375.8528 534,4 -4,4"/>
<text text-anchor="start" x="8" y="-18" font-family="Courier,monospace" font-size="10.00" fill="#8b8989">Logtalk development tools</text>
<text text-anchor="start" x="8" y="-7" font-family="Courier,monospace" font-size="10.00" fill="#8b8989">Generated on 2019/04/08, 18:41</text>
<g id="clust1" class="cluster">
<title>cluster_code_metrics_object</title>
<g id="a_clust1"><a xlink:href="https://github.com/LogtalkDotOrg/logtalk3/tree/master/tools/code_metrics/code_metrics.lgt" xlink:title="https://github.com/LogtalkDotOrg/logtalk3/tree/master/tools/code_metrics/code_metrics.lgt">
<path fill="#fffafa" stroke="#8b8989" d="M20,-38C20,-38 510,-38 510,-38 516,-38 522,-44 522,-50 522,-50 522,-351.8528 522,-351.8528 522,-357.8528 516,-363.8528 510,-363.8528 510,-363.8528 20,-363.8528 20,-363.8528 14,-363.8528 8,-357.8528 8,-351.8528 8,-351.8528 8,-50 8,-50 8,-44 14,-38 20,-38"/>
<text text-anchor="middle" x="52.5" y="-351.8528" font-family="Courier,monospace" font-size="10.00" fill="#8b8989">code_metrics</text>
</a>
</g>
</g>
<g id="clust2" class="cluster">
<title>cluster_other</title>
<g id="a_clust2"><a xlink:title="(external predicates)">
<path fill="#ffffff" stroke="#8b8989" d="M240,-48C240,-48 500,-48 500,-48 506,-48 512,-54 512,-60 512,-60 512,-117.4264 512,-117.4264 512,-123.4264 506,-129.4264 500,-129.4264 500,-129.4264 240,-129.4264 240,-129.4264 234,-129.4264 228,-123.4264 228,-117.4264 228,-117.4264 228,-60 228,-60 228,-54 234,-48 240,-48"/>
<text text-anchor="middle" x="299.5" y="-117.4264" font-family="Courier,monospace" font-size="10.00" fill="#8b8989">(external predicates)</text>
</a>
</g>
</g>
<!-- process_entity/2 -->
<g id="node1" class="node">
<title>process_entity/2</title>
<ellipse fill="#f5f5dc" stroke="#000000" cx="244" cy="-313.6396" rx="94.5053" ry="21.4286"/>
<text text-anchor="start" x="185" y="-316.4396" font-family="Courier,monospace" font-size="9.00" fill="#000000"> </text>
<text text-anchor="start" x="191" y="-315.8396" font-family="Courier,monospace" font-size="11.00" fill="#000000">process_entity/2</text>
<text text-anchor="start" x="297" y="-316.4396" font-family="Courier,monospace" font-size="9.00" fill="#000000"> </text>
<text text-anchor="start" x="185" y="-305.4396" font-family="Courier,monospace" font-size="9.00" fill="#000000"> </text>
<text text-anchor="start" x="233" y="-306.0396" font-family="Courier,monospace" font-size="7.00" fill="#000000">local</text>
<text text-anchor="start" x="297" y="-305.4396" font-family="Courier,monospace" font-size="9.00" fill="#000000"> </text>
</g>
<!-- process_entity_/3 -->
<g id="node2" class="node">
<title>process_entity_/3</title>
<ellipse fill="#f5f5dc" stroke="#000000" cx="118" cy="-79.2132" rx="99.9045" ry="21.4286"/>
<text text-anchor="start" x="56" y="-82.0132" font-family="Courier,monospace" font-size="9.00" fill="#000000"> </text>
<text text-anchor="start" x="62" y="-81.4132" font-family="Courier,monospace" font-size="11.00" fill="#000000">process_entity_/3</text>
<text text-anchor="start" x="175" y="-82.0132" font-family="Courier,monospace" font-size="9.00" fill="#000000"> </text>
<text text-anchor="start" x="56" y="-71.0132" font-family="Courier,monospace" font-size="9.00" fill="#000000"> </text>
<text text-anchor="start" x="107.5" y="-71.6132" font-family="Courier,monospace" font-size="7.00" fill="#000000">local</text>
<text text-anchor="start" x="175" y="-71.0132" font-family="Courier,monospace" font-size="9.00" fill="#000000"> </text>
</g>
<!-- process_entity/2&#45;&gt;process_entity_/3 -->
<g id="edge1" class="edge">
<title>process_entity/2&#45;&gt;process_entity_/3</title>
<g id="a_edge1"><a xlink:href="https://github.com/LogtalkDotOrg/logtalk3/tree/master/tools/code_metrics/code_metrics.lgt#L32" xlink:title="calls">
<path fill="none" stroke="#000000" d="M232.5961,-292.4224C210.4437,-251.2071 161.4773,-160.1039 135.2998,-111.4"/>
<polygon fill="#000000" stroke="#000000" points="135.1501,-111.1214 128.7862,-107.7301 129.4689,-100.5514 135.1501,-111.1214"/>
</a>
</g>
<g id="a_edge1&#45;label"><a xlink:href="https://github.com/LogtalkDotOrg/logtalk3/tree/master/tools/code_metrics/code_metrics.lgt#L32" xlink:title="https://github.com/LogtalkDotOrg/logtalk3/tree/master/tools/code_metrics/code_metrics.lgt#L32">
<text text-anchor="start" x="183" y="-194.2264" font-family="Courier,monospace" font-size="9.00" fill="#000000">calls</text>
</a>
</g>
</g>
<!-- logtalk::print_message/3 -->
<g id="node3" class="node">
<title>logtalk::print_message/3</title>
<g id="a_node3"><a xlink:href="https://logtalk.org/library/logtalk_0.html#print_message/3" xlink:title="https://logtalk.org/library/logtalk_0.html#print_message/3">
<ellipse fill="#d3d3d3" stroke="#000000" stroke-dasharray="5,2" cx="370" cy="-79.2132" rx="132.4583" ry="21.4286"/>
<text text-anchor="start" x="285" y="-82.0132" font-family="Courier,monospace" font-size="9.00" fill="#000000"> </text>
<text text-anchor="start" x="291" y="-81.4132" font-family="Courier,monospace" font-size="11.00" fill="#000000">logtalk::print_message/3</text>
<text text-anchor="start" x="450" y="-82.0132" font-family="Courier,monospace" font-size="9.00" fill="#000000"> </text>
<text text-anchor="start" x="285" y="-71.0132" font-family="Courier,monospace" font-size="9.00" fill="#000000"> </text>
<text text-anchor="start" x="353.5" y="-71.6132" font-family="Courier,monospace" font-size="7.00" fill="#000000">external</text>
<text text-anchor="start" x="450" y="-71.0132" font-family="Courier,monospace" font-size="9.00" fill="#000000"> </text>
</a>
</g>
</g>
<!-- process_entity/2&#45;&gt;logtalk::print_message/3 -->
<g id="edge2" class="edge">
<title>process_entity/2&#45;&gt;logtalk::print_message/3</title>
<g id="a_edge2"><a xlink:href="https://github.com/LogtalkDotOrg/logtalk3/tree/master/tools/code_metrics/code_metrics.lgt#L32" xlink:title="calls">
<path fill="none" stroke="#000000" d="M255.4039,-292.4224C277.5563,-251.2071 326.5227,-160.1039 352.7002,-111.4"/>
<polygon fill="#000000" stroke="#000000" points="352.8499,-111.1214 352.1672,-103.9427 358.5311,-100.5514 352.8499,-111.1214"/>
</a>
</g>
<g id="a_edge2&#45;label"><a xlink:href="https://github.com/LogtalkDotOrg/logtalk3/tree/master/tools/code_metrics/code_metrics.lgt#L32" xlink:title="https://github.com/LogtalkDotOrg/logtalk3/tree/master/tools/code_metrics/code_metrics.lgt#L32">
<text text-anchor="start" x="309" y="-194.2264" font-family="Courier,monospace" font-size="9.00" fill="#000000">calls</text>
</a>
</g>
</g>
</g>
</svg>
