<?xml version="1.0" encoding="UTF-8" standalone="no"?>
<?xml-stylesheet href="diagrams.css" type="text/css"?>
<!DOCTYPE svg PUBLIC "-//W3C//DTD SVG 1.1//EN"
 "http://www.w3.org/Graphics/SVG/1.1/DTD/svg11.dtd">
<!-- Generated by graphviz version 2.50.0 (20211204.2007)
 -->
<!-- Title: code_metrics_object Pages: 1 -->
<svg width="541pt" height="410pt"
 viewBox="72.00 72.00 469.00 338.00" xmlns="http://www.w3.org/2000/svg" xmlns:xlink="http://www.w3.org/1999/xlink">
<g id="graph0" class="graph" transform="scale(1 1) rotate(0) translate(76 334)">
<title>code_metrics_object</title>
<polygon fill="white" stroke="transparent" points="-4,4 -4,-262 393,-262 393,4 -4,4"/>
<text text-anchor="start" x="8" y="-29" font-family="Monospace" font-size="10.00" fill="dimgray">Logtalk development tools</text>
<text text-anchor="start" x="8" y="-18" font-family="Monospace" font-size="10.00" fill="dimgray">Cross&#45;referencing diagram for object code_metrics</text>
<text text-anchor="start" x="8" y="-7" font-family="Monospace" font-size="10.00" fill="dimgray">Generated on 2022&#45;02&#45;12, 11:15</text>
<g id="clust1" class="cluster">
<title>cluster_code_metrics_object</title>
<g id="a_clust1"><a xlink:title="code_metrics">
<path fill="snow" stroke="dimgray" d="M20,-49C20,-49 369,-49 369,-49 375,-49 381,-55 381,-61 381,-61 381,-238 381,-238 381,-244 375,-250 369,-250 369,-250 20,-250 20,-250 14,-250 8,-244 8,-238 8,-238 8,-61 8,-61 8,-55 14,-49 20,-49"/>
<g id="a_clust1_0"><a xlink:href="https://github.com/LogtalkDotOrg/logtalk3/tree/4ccf43fa97fa539f3363edf2928bc3acbc8804fa/tools/code_metrics/code_metrics.lgt" xlink:title="https://github.com/LogtalkDotOrg/logtalk3/tree/4ccf43fa97fa539f3363edf2928bc3acbc8804fa/tools/code_metrics/code_metrics.lgt">
<text text-anchor="start" x="20.5" y="-233.5" font-family="Monospace" font-size="10.00" fill="dimgray">code_metrics</text>
</a>
</g>
</a>
</g>
</g>
<!-- process_entity/2 -->
<g id="node1" class="node">
<title>process_entity/2</title>
<g id="a_node1"><a xlink:href="https://github.com/LogtalkDotOrg/logtalk3/tree/4ccf43fa97fa539f3363edf2928bc3acbc8804fa/tools/code_metrics/code_metrics.lgt#L33" xlink:title="https://github.com/LogtalkDotOrg/logtalk3/tree/4ccf43fa97fa539f3363edf2928bc3acbc8804fa/tools/code_metrics/code_metrics.lgt#L33">
<polygon fill="cornsilk" stroke="black" points="251.5,-213 114.5,-213 114.5,-177 251.5,-177 251.5,-213"/>
<text text-anchor="start" x="123" y="-197.8" font-family="Monospace" font-size="9.00"> </text>
<text text-anchor="start" x="129" y="-197.2" font-family="Monospace" font-size="11.00">process_entity/2</text>
<text text-anchor="start" x="238" y="-197.8" font-family="Monospace" font-size="9.00"> </text>
<text text-anchor="start" x="123" y="-186.8" font-family="Monospace" font-size="9.00"> </text>
<text text-anchor="start" x="172" y="-187.4" font-family="Monospace" font-size="7.00">local</text>
<text text-anchor="start" x="238" y="-186.8" font-family="Monospace" font-size="9.00"> </text>
</a>
</g>
</g>
<!-- process_entity_/3 -->
<g id="node2" class="node">
<title>process_entity_/3</title>
<g id="a_node2"><a xlink:href="https://github.com/LogtalkDotOrg/logtalk3/tree/4ccf43fa97fa539f3363edf2928bc3acbc8804fa/tools/code_metrics/code_metrics.lgt#L40" xlink:title="https://github.com/LogtalkDotOrg/logtalk3/tree/4ccf43fa97fa539f3363edf2928bc3acbc8804fa/tools/code_metrics/code_metrics.lgt#L40">
<polygon fill="cornsilk" stroke="black" points="161.5,-95 18.5,-95 18.5,-59 161.5,-59 161.5,-95"/>
<text text-anchor="start" x="27" y="-79.8" font-family="Monospace" font-size="9.00"> </text>
<text text-anchor="start" x="33" y="-79.2" font-family="Monospace" font-size="11.00">process_entity_/3</text>
<text text-anchor="start" x="148" y="-79.8" font-family="Monospace" font-size="9.00"> </text>
<text text-anchor="start" x="27" y="-68.8" font-family="Monospace" font-size="9.00"> </text>
<text text-anchor="start" x="79" y="-69.4" font-family="Monospace" font-size="7.00">local</text>
<text text-anchor="start" x="148" y="-68.8" font-family="Monospace" font-size="9.00"> </text>
</a>
</g>
</g>
<!-- process_entity/2&#45;&gt;process_entity_/3 -->
<g id="edge1" class="edge">
<title>process_entity/2&#45;&gt;process_entity_/3</title>
<g id="a_edge1"><a xlink:href="https://github.com/LogtalkDotOrg/logtalk3/tree/4ccf43fa97fa539f3363edf2928bc3acbc8804fa/tools/code_metrics/code_metrics.lgt#L33" xlink:title="calls">
<path fill="none" stroke="black" d="M169.28,-176.88C153.69,-157.44 128.09,-125.51 110.22,-103.21"/>
<polygon fill="black" stroke="black" points="112.76,-100.8 103.78,-95.19 107.3,-105.18 112.76,-100.8"/>
</a>
</g>
<g id="a_edge1&#45;label"><a xlink:href="https://github.com/LogtalkDotOrg/logtalk3/tree/4ccf43fa97fa539f3363edf2928bc3acbc8804fa/tools/code_metrics/code_metrics.lgt#L33" xlink:title="https://github.com/LogtalkDotOrg/logtalk3/tree/4ccf43fa97fa539f3363edf2928bc3acbc8804fa/tools/code_metrics/code_metrics.lgt#L33">
<text text-anchor="start" x="139" y="-133.8" font-family="Monospace" font-size="9.00">calls</text>
</a>
</g>
</g>
<!-- logtalk::print_message/3 -->
<g id="node3" class="node">
<title>logtalk::print_message/3</title>
<g id="a_node3"><a xlink:href="https://logtalk.org/library/logtalk_0.html#print_message/3" xlink:title="https://logtalk.org/library/logtalk_0.html#print_message/3">
<polygon fill="beige" stroke="black" stroke-dasharray="5,2" points="370.5,-95 179.5,-95 179.5,-59 370.5,-59 370.5,-95"/>
<text text-anchor="start" x="188" y="-79.8" font-family="Monospace" font-size="9.00"> </text>
<text text-anchor="start" x="194" y="-79.2" font-family="Monospace" font-size="11.00">logtalk::print_message/3</text>
<text text-anchor="start" x="357" y="-79.8" font-family="Monospace" font-size="9.00"> </text>
<text text-anchor="start" x="188" y="-68.8" font-family="Monospace" font-size="9.00"> </text>
<text text-anchor="start" x="257" y="-69.4" font-family="Monospace" font-size="7.00">external</text>
<text text-anchor="start" x="357" y="-68.8" font-family="Monospace" font-size="9.00"> </text>
</a>
</g>
</g>
<!-- process_entity/2&#45;&gt;logtalk::print_message/3 -->
<g id="edge2" class="edge">
<title>process_entity/2&#45;&gt;logtalk::print_message/3</title>
<g id="a_edge2"><a xlink:href="https://github.com/LogtalkDotOrg/logtalk3/tree/4ccf43fa97fa539f3363edf2928bc3acbc8804fa/tools/code_metrics/code_metrics.lgt#L33" xlink:title="calls">
<path fill="none" stroke="black" d="M196.57,-176.88C212,-157.44 237.32,-125.51 255,-103.21"/>
<polygon fill="black" stroke="black" points="257.9,-105.2 261.37,-95.19 252.41,-100.85 257.9,-105.2"/>
</a>
</g>
<g id="a_edge2&#45;label"><a xlink:href="https://github.com/LogtalkDotOrg/logtalk3/tree/4ccf43fa97fa539f3363edf2928bc3acbc8804fa/tools/code_metrics/code_metrics.lgt#L33" xlink:title="https://github.com/LogtalkDotOrg/logtalk3/tree/4ccf43fa97fa539f3363edf2928bc3acbc8804fa/tools/code_metrics/code_metrics.lgt#L33">
<text text-anchor="start" x="231" y="-133.8" font-family="Monospace" font-size="9.00">calls</text>
</a>
</g>
</g>
</g>
</svg>
