<?xml version="1.0" encoding="UTF-8" standalone="no"?>
<?xml-stylesheet href="diagrams.css" type="text/css"?>
<!DOCTYPE svg PUBLIC "-//W3C//DTD SVG 1.1//EN"
 "http://www.w3.org/Graphics/SVG/1.1/DTD/svg11.dtd">
<!-- Generated by graphviz version 12.1.2 (20240928.0832)
 -->
<!-- Title: compound_object Pages: 1 -->
<svg width="438pt" height="299pt"
 viewBox="72.00 72.00 366.00 227.00" xmlns="http://www.w3.org/2000/svg" xmlns:xlink="http://www.w3.org/1999/xlink">
<g id="graph0" class="graph" transform="scale(1 1) rotate(0) translate(76 223)">
<title>compound_object</title>
<polygon fill="white" stroke="none" points="-4,4 -4,-151 290,-151 290,4 -4,4"/>
<text text-anchor="start" x="8" y="-32.75" font-family="Monospace" font-size="10.00" fill="dimgray">Logtalk library</text>
<text text-anchor="start" x="8" y="-20" font-family="Monospace" font-size="10.00" fill="dimgray">Cross&#45;referencing diagram for object compound</text>
<text text-anchor="start" x="8" y="-7.25" font-family="Monospace" font-size="10.00" fill="dimgray">Generated on 2024&#45;10&#45;06, 15:54</text>
<g id="clust1" class="cluster">
<title>cluster_compound_object</title>
<g id="a_clust1"><a xlink:title="compound">
<path fill="snow" stroke="dimgray" d="M62.5,-54.25C62.5,-54.25 223.5,-54.25 223.5,-54.25 229.5,-54.25 235.5,-60.25 235.5,-66.25 235.5,-66.25 235.5,-127 235.5,-127 235.5,-133 229.5,-139 223.5,-139 223.5,-139 62.5,-139 62.5,-139 56.5,-139 50.5,-133 50.5,-127 50.5,-127 50.5,-66.25 50.5,-66.25 50.5,-60.25 56.5,-54.25 62.5,-54.25"/>
<g id="a_clust1_0"><a xlink:href="https://github.com/LogtalkDotOrg/logtalk3/tree/88284176e92bf749d5b58201fdc1696818d0f217/library/types/compound.lgt" xlink:title="https://github.com/LogtalkDotOrg/logtalk3/tree/88284176e92bf749d5b58201fdc1696818d0f217/library/types/compound.lgt">
<text text-anchor="start" x="62.5" y="-121.5" font-family="Monospace" font-size="10.00" fill="dimgray">compound</text>
</a>
</g>
</a>
</g>
</g>
<!-- valid/1 -->
<g id="node1" class="node">
<title>valid/1</title>
<g id="a_node1"><a xlink:href="https://github.com/LogtalkDotOrg/logtalk3/tree/88284176e92bf749d5b58201fdc1696818d0f217/library/types/compound.lgt#L32" xlink:title="https://github.com/LogtalkDotOrg/logtalk3/tree/88284176e92bf749d5b58201fdc1696818d0f217/library/types/compound.lgt#L32">
<polygon fill="cornsilk" stroke="black" points="134,-100.25 61,-100.25 61,-64.25 134,-64.25 134,-100.25"/>
<text text-anchor="start" x="68.88" y="-84.83" font-family="Monospace" font-size="9.00"> </text>
<text text-anchor="start" x="73.88" y="-83.8" font-family="Monospace" font-size="11.00">valid/1</text>
<text text-anchor="start" x="120.88" y="-84.83" font-family="Monospace" font-size="9.00"> </text>
<text text-anchor="start" x="68.88" y="-72.7" font-family="Monospace" font-size="9.00"> </text>
<text text-anchor="start" x="86.25" y="-73.6" font-family="Monospace" font-size="7.00">local</text>
<text text-anchor="start" x="120.88" y="-72.7" font-family="Monospace" font-size="9.00"> </text>
</a>
</g>
</g>
<!-- check/1 -->
<g id="node2" class="node">
<title>check/1</title>
<g id="a_node2"><a xlink:href="https://github.com/LogtalkDotOrg/logtalk3/tree/88284176e92bf749d5b58201fdc1696818d0f217/library/types/compound.lgt#L35" xlink:title="https://github.com/LogtalkDotOrg/logtalk3/tree/88284176e92bf749d5b58201fdc1696818d0f217/library/types/compound.lgt#L35">
<polygon fill="cornsilk" stroke="black" points="225,-100.25 152,-100.25 152,-64.25 225,-64.25 225,-100.25"/>
<text text-anchor="start" x="159.88" y="-84.83" font-family="Monospace" font-size="9.00"> </text>
<text text-anchor="start" x="164.88" y="-83.8" font-family="Monospace" font-size="11.00">check/1</text>
<text text-anchor="start" x="211.88" y="-84.83" font-family="Monospace" font-size="9.00"> </text>
<text text-anchor="start" x="159.88" y="-72.7" font-family="Monospace" font-size="9.00"> </text>
<text text-anchor="start" x="177.25" y="-73.6" font-family="Monospace" font-size="7.00">local</text>
<text text-anchor="start" x="211.88" y="-72.7" font-family="Monospace" font-size="9.00"> </text>
</a>
</g>
</g>
</g>
</svg>
