<?xml version="1.0" encoding="UTF-8" standalone="no"?>
<?xml-stylesheet href="diagrams.css" type="text/css"?>
<!DOCTYPE svg PUBLIC "-//W3C//DTD SVG 1.1//EN"
 "http://www.w3.org/Graphics/SVG/1.1/DTD/svg11.dtd">
<!-- Generated by graphviz version 2.43.20191029.1313 (20191029.1313)
 -->
<!-- Title: compound_object Pages: 1 -->
<svg width="438pt" height="288pt"
 viewBox="72.00 72.00 366.04 216.00" xmlns="http://www.w3.org/2000/svg" xmlns:xlink="http://www.w3.org/1999/xlink">
<g id="graph0" class="graph" transform="scale(1 1) rotate(0) translate(76 212)">
<title>compound_object</title>
<polygon fill="white" stroke="transparent" points="-4,4 -4,-140 290.04,-140 290.04,4 -4,4"/>
<text text-anchor="start" x="8" y="-26" font-family="Courier,monospace" font-size="10.00" fill="dimgray">Logtalk library</text>
<text text-anchor="start" x="8" y="-16" font-family="Courier,monospace" font-size="10.00" fill="dimgray">Cross&#45;referencing diagram for object compound</text>
<text text-anchor="start" x="8" y="-6" font-family="Courier,monospace" font-size="10.00" fill="dimgray">Generated on 2020&#45;05&#45;25, 21:55</text>
<g id="clust1" class="cluster">
<title>cluster_compound_object</title>
<g id="a_clust1"><a xlink:title="compound">
<path fill="snow" stroke="dimgray" d="M64.02,-46C64.02,-46 222.02,-46 222.02,-46 228.02,-46 234.02,-52 234.02,-58 234.02,-58 234.02,-116 234.02,-116 234.02,-122 228.02,-128 222.02,-128 222.02,-128 64.02,-128 64.02,-128 58.02,-128 52.02,-122 52.02,-116 52.02,-116 52.02,-58 52.02,-58 52.02,-52 58.02,-46 64.02,-46"/>
<g id="a_clust1_0"><a xlink:href="https://github.com/LogtalkDotOrg/logtalk3/tree/ee3e469ba16664bcc8b3b120a4a0bb7672d96db2/library/types/compound.lgt" xlink:title="https://github.com/LogtalkDotOrg/logtalk3/tree/ee3e469ba16664bcc8b3b120a4a0bb7672d96db2/library/types/compound.lgt">
<text text-anchor="start" x="64.02" y="-112" font-family="Courier,monospace" font-size="10.00" fill="dimgray">compound</text>
</a>
</g>
</a>
</g>
</g>
<!-- valid/1 -->
<g id="node1" class="node">
<title>valid/1</title>
<g id="a_node1"><a xlink:href="https://github.com/LogtalkDotOrg/logtalk3/tree/ee3e469ba16664bcc8b3b120a4a0bb7672d96db2/library/types/compound.lgt#L31" xlink:title="https://github.com/LogtalkDotOrg/logtalk3/tree/ee3e469ba16664bcc8b3b120a4a0bb7672d96db2/library/types/compound.lgt#L31">
<polygon fill="cornsilk" stroke="black" points="224.02,-92 152.02,-92 152.02,-56 224.02,-56 224.02,-92"/>
<text text-anchor="start" x="159.82" y="-75.8" font-family="Courier,monospace" font-size="9.00"> </text>
<text text-anchor="start" x="164.92" y="-75.2" font-family="Courier,monospace" font-size="11.00">valid/1</text>
<text text-anchor="start" x="210.82" y="-75.8" font-family="Courier,monospace" font-size="9.00"> </text>
<text text-anchor="start" x="159.82" y="-65.8" font-family="Courier,monospace" font-size="9.00"> </text>
<text text-anchor="start" x="177.52" y="-66.4" font-family="Courier,monospace" font-size="7.00">local</text>
<text text-anchor="start" x="210.82" y="-65.8" font-family="Courier,monospace" font-size="9.00"> </text>
</a>
</g>
</g>
<!-- check/1 -->
<g id="node2" class="node">
<title>check/1</title>
<g id="a_node2"><a xlink:href="https://github.com/LogtalkDotOrg/logtalk3/tree/ee3e469ba16664bcc8b3b120a4a0bb7672d96db2/library/types/compound.lgt#L34" xlink:title="https://github.com/LogtalkDotOrg/logtalk3/tree/ee3e469ba16664bcc8b3b120a4a0bb7672d96db2/library/types/compound.lgt#L34">
<polygon fill="cornsilk" stroke="black" points="134.02,-92 62.02,-92 62.02,-56 134.02,-56 134.02,-92"/>
<text text-anchor="start" x="69.82" y="-75.8" font-family="Courier,monospace" font-size="9.00"> </text>
<text text-anchor="start" x="74.92" y="-75.2" font-family="Courier,monospace" font-size="11.00">check/1</text>
<text text-anchor="start" x="120.82" y="-75.8" font-family="Courier,monospace" font-size="9.00"> </text>
<text text-anchor="start" x="69.82" y="-65.8" font-family="Courier,monospace" font-size="9.00"> </text>
<text text-anchor="start" x="87.52" y="-66.4" font-family="Courier,monospace" font-size="7.00">local</text>
<text text-anchor="start" x="120.82" y="-65.8" font-family="Courier,monospace" font-size="9.00"> </text>
</a>
</g>
</g>
</g>
</svg>
