<?xml version="1.0" encoding="UTF-8" standalone="no"?>
<?xml-stylesheet href="diagrams.css" type="text/css"?>
<!DOCTYPE svg PUBLIC "-//W3C//DTD SVG 1.1//EN"
 "http://www.w3.org/Graphics/SVG/1.1/DTD/svg11.dtd">
<!-- Generated by graphviz version 2.49.3 (20211023.0002)
 -->
<!-- Title: compound_object Pages: 1 -->
<svg width="393pt" height="292pt"
 viewBox="72.00 72.00 321.00 220.00" xmlns="http://www.w3.org/2000/svg" xmlns:xlink="http://www.w3.org/1999/xlink">
<g id="graph0" class="graph" transform="scale(1 1) rotate(0) translate(76 216)">
<title>compound_object</title>
<polygon fill="white" stroke="transparent" points="-4,4 -4,-144 245,-144 245,4 -4,4"/>
<text text-anchor="start" x="8" y="-29" font-family="Courier,monospace" font-size="10.00" fill="dimgray">Logtalk library</text>
<text text-anchor="start" x="8" y="-18" font-family="Courier,monospace" font-size="10.00" fill="dimgray">Cross&#45;referencing diagram for object compound</text>
<text text-anchor="start" x="8" y="-7" font-family="Courier,monospace" font-size="10.00" fill="dimgray">Generated on 2021&#45;11&#45;02, 10:35</text>
<g id="clust1" class="cluster">
<title>cluster_compound_object</title>
<g id="a_clust1"><a xlink:title="compound">
<path fill="snow" stroke="dimgray" d="M48,-49C48,-49 193,-49 193,-49 199,-49 205,-55 205,-61 205,-61 205,-120 205,-120 205,-126 199,-132 193,-132 193,-132 48,-132 48,-132 42,-132 36,-126 36,-120 36,-120 36,-61 36,-61 36,-55 42,-49 48,-49"/>
<g id="a_clust1_0"><a xlink:href="https://github.com/LogtalkDotOrg/logtalk3/tree/cbba6d9f7efe0ecef480b6200bf5d3edd28fc400/library/types/compound.lgt" xlink:title="https://github.com/LogtalkDotOrg/logtalk3/tree/cbba6d9f7efe0ecef480b6200bf5d3edd28fc400/library/types/compound.lgt">
<text text-anchor="start" x="48" y="-115.5" font-family="Courier,monospace" font-size="10.00" fill="dimgray">compound</text>
</a>
</g>
</a>
</g>
</g>
<!-- valid/1 -->
<g id="node1" class="node">
<title>valid/1</title>
<g id="a_node1"><a xlink:href="https://github.com/LogtalkDotOrg/logtalk3/tree/cbba6d9f7efe0ecef480b6200bf5d3edd28fc400/library/types/compound.lgt#L32" xlink:title="https://github.com/LogtalkDotOrg/logtalk3/tree/cbba6d9f7efe0ecef480b6200bf5d3edd28fc400/library/types/compound.lgt#L32">
<polygon fill="cornsilk" stroke="black" points="194.5,-95 129.5,-95 129.5,-59 194.5,-59 194.5,-95"/>
<text text-anchor="start" x="138" y="-79.8" font-family="Courier,monospace" font-size="9.00"> </text>
<text text-anchor="start" x="143" y="-79.2" font-family="Courier,monospace" font-size="11.00">valid/1</text>
<text text-anchor="start" x="182" y="-79.8" font-family="Courier,monospace" font-size="9.00"> </text>
<text text-anchor="start" x="138" y="-68.8" font-family="Courier,monospace" font-size="9.00"> </text>
<text text-anchor="start" x="153.5" y="-69.4" font-family="Courier,monospace" font-size="7.00">local</text>
<text text-anchor="start" x="182" y="-68.8" font-family="Courier,monospace" font-size="9.00"> </text>
</a>
</g>
</g>
<!-- check/1 -->
<g id="node2" class="node">
<title>check/1</title>
<g id="a_node2"><a xlink:href="https://github.com/LogtalkDotOrg/logtalk3/tree/cbba6d9f7efe0ecef480b6200bf5d3edd28fc400/library/types/compound.lgt#L35" xlink:title="https://github.com/LogtalkDotOrg/logtalk3/tree/cbba6d9f7efe0ecef480b6200bf5d3edd28fc400/library/types/compound.lgt#L35">
<polygon fill="cornsilk" stroke="black" points="111.5,-95 46.5,-95 46.5,-59 111.5,-59 111.5,-95"/>
<text text-anchor="start" x="55" y="-79.8" font-family="Courier,monospace" font-size="9.00"> </text>
<text text-anchor="start" x="60" y="-79.2" font-family="Courier,monospace" font-size="11.00">check/1</text>
<text text-anchor="start" x="99" y="-79.8" font-family="Courier,monospace" font-size="9.00"> </text>
<text text-anchor="start" x="55" y="-68.8" font-family="Courier,monospace" font-size="9.00"> </text>
<text text-anchor="start" x="70.5" y="-69.4" font-family="Courier,monospace" font-size="7.00">local</text>
<text text-anchor="start" x="99" y="-68.8" font-family="Courier,monospace" font-size="9.00"> </text>
</a>
</g>
</g>
</g>
</svg>
