<?xml version="1.0" encoding="UTF-8" standalone="no"?>
<?xml-stylesheet href="diagrams.css" type="text/css"?>
<!DOCTYPE svg PUBLIC "-//W3C//DTD SVG 1.1//EN"
 "http://www.w3.org/Graphics/SVG/1.1/DTD/svg11.dtd">
<!-- Generated by graphviz version 2.49.3 (20211023.0002)
 -->
<!-- Title: comparingp_protocol Pages: 1 -->
<svg width="689pt" height="292pt"
 viewBox="72.00 72.00 617.00 220.00" xmlns="http://www.w3.org/2000/svg" xmlns:xlink="http://www.w3.org/1999/xlink">
<g id="graph0" class="graph" transform="scale(1 1) rotate(0) translate(76 216)">
<title>comparingp_protocol</title>
<polygon fill="white" stroke="transparent" points="-4,4 -4,-144 541,-144 541,4 -4,4"/>
<text text-anchor="start" x="8" y="-29" font-family="Monospace" font-size="10.00" fill="dimgray">Logtalk library</text>
<text text-anchor="start" x="8" y="-18" font-family="Monospace" font-size="10.00" fill="dimgray">Cross&#45;referencing diagram for protocol comparingp</text>
<text text-anchor="start" x="8" y="-7" font-family="Monospace" font-size="10.00" fill="dimgray">Generated on 2021&#45;12&#45;24, 12:03</text>
<g id="clust1" class="cluster">
<title>cluster_comparingp_protocol</title>
<g id="a_clust1"><a xlink:title="comparingp">
<path fill="snow" stroke="dimgray" d="M20,-49C20,-49 517,-49 517,-49 523,-49 529,-55 529,-61 529,-61 529,-120 529,-120 529,-126 523,-132 517,-132 517,-132 20,-132 20,-132 14,-132 8,-126 8,-120 8,-120 8,-61 8,-61 8,-55 14,-49 20,-49"/>
<g id="a_clust1_0"><a xlink:href="https://github.com/LogtalkDotOrg/logtalk3/tree/261dba8e72dd07f5fb5891a52d53f8dbac37f16a/library/types/comparingp.lgt" xlink:title="https://github.com/LogtalkDotOrg/logtalk3/tree/261dba8e72dd07f5fb5891a52d53f8dbac37f16a/library/types/comparingp.lgt">
<text text-anchor="start" x="20.5" y="-115.5" font-family="Monospace" font-size="10.00" fill="dimgray">comparingp</text>
</a>
</g>
</a>
</g>
</g>
<!-- (&lt;)/2 -->
<g id="node1" class="node">
<title>(&lt;)/2</title>
<g id="a_node1"><a xlink:href="https://github.com/LogtalkDotOrg/logtalk3/tree/261dba8e72dd07f5fb5891a52d53f8dbac37f16a/library/types/comparingp.lgt#L31" xlink:title="https://github.com/LogtalkDotOrg/logtalk3/tree/261dba8e72dd07f5fb5891a52d53f8dbac37f16a/library/types/comparingp.lgt#L31">
<polygon fill="springgreen" stroke="black" points="519,-95 457,-95 457,-59 519,-59 519,-95"/>
<text text-anchor="start" x="465" y="-79.8" font-family="Monospace" font-size="9.00"> </text>
<text text-anchor="start" x="471" y="-79.2" font-family="Monospace" font-size="11.00">(&lt;)/2</text>
<text text-anchor="start" x="505" y="-79.8" font-family="Monospace" font-size="9.00"> </text>
<text text-anchor="start" x="465" y="-68.8" font-family="Monospace" font-size="9.00"> </text>
<text text-anchor="start" x="475" y="-69.4" font-family="Monospace" font-size="7.00">public</text>
<text text-anchor="start" x="505" y="-68.8" font-family="Monospace" font-size="9.00"> </text>
</a>
</g>
</g>
<!-- (=&lt;)/2 -->
<g id="node2" class="node">
<title>(=&lt;)/2</title>
<g id="a_node2"><a xlink:href="https://github.com/LogtalkDotOrg/logtalk3/tree/261dba8e72dd07f5fb5891a52d53f8dbac37f16a/library/types/comparingp.lgt#L38" xlink:title="https://github.com/LogtalkDotOrg/logtalk3/tree/261dba8e72dd07f5fb5891a52d53f8dbac37f16a/library/types/comparingp.lgt#L38">
<polygon fill="springgreen" stroke="black" points="439,-95 371,-95 371,-59 439,-59 439,-95"/>
<text text-anchor="start" x="379" y="-79.8" font-family="Monospace" font-size="9.00"> </text>
<text text-anchor="start" x="385" y="-79.2" font-family="Monospace" font-size="11.00">(=&lt;)/2</text>
<text text-anchor="start" x="425" y="-79.8" font-family="Monospace" font-size="9.00"> </text>
<text text-anchor="start" x="379" y="-68.8" font-family="Monospace" font-size="9.00"> </text>
<text text-anchor="start" x="392" y="-69.4" font-family="Monospace" font-size="7.00">public</text>
<text text-anchor="start" x="425" y="-68.8" font-family="Monospace" font-size="9.00"> </text>
</a>
</g>
</g>
<!-- (&gt;)/2 -->
<g id="node3" class="node">
<title>(&gt;)/2</title>
<g id="a_node3"><a xlink:href="https://github.com/LogtalkDotOrg/logtalk3/tree/261dba8e72dd07f5fb5891a52d53f8dbac37f16a/library/types/comparingp.lgt#L45" xlink:title="https://github.com/LogtalkDotOrg/logtalk3/tree/261dba8e72dd07f5fb5891a52d53f8dbac37f16a/library/types/comparingp.lgt#L45">
<polygon fill="springgreen" stroke="black" points="353,-95 291,-95 291,-59 353,-59 353,-95"/>
<text text-anchor="start" x="299" y="-79.8" font-family="Monospace" font-size="9.00"> </text>
<text text-anchor="start" x="305" y="-79.2" font-family="Monospace" font-size="11.00">(&gt;)/2</text>
<text text-anchor="start" x="339" y="-79.8" font-family="Monospace" font-size="9.00"> </text>
<text text-anchor="start" x="299" y="-68.8" font-family="Monospace" font-size="9.00"> </text>
<text text-anchor="start" x="309" y="-69.4" font-family="Monospace" font-size="7.00">public</text>
<text text-anchor="start" x="339" y="-68.8" font-family="Monospace" font-size="9.00"> </text>
</a>
</g>
</g>
<!-- (&gt;=)/2 -->
<g id="node4" class="node">
<title>(&gt;=)/2</title>
<g id="a_node4"><a xlink:href="https://github.com/LogtalkDotOrg/logtalk3/tree/261dba8e72dd07f5fb5891a52d53f8dbac37f16a/library/types/comparingp.lgt#L52" xlink:title="https://github.com/LogtalkDotOrg/logtalk3/tree/261dba8e72dd07f5fb5891a52d53f8dbac37f16a/library/types/comparingp.lgt#L52">
<polygon fill="springgreen" stroke="black" points="273,-95 205,-95 205,-59 273,-59 273,-95"/>
<text text-anchor="start" x="213" y="-79.8" font-family="Monospace" font-size="9.00"> </text>
<text text-anchor="start" x="219" y="-79.2" font-family="Monospace" font-size="11.00">(&gt;=)/2</text>
<text text-anchor="start" x="259" y="-79.8" font-family="Monospace" font-size="9.00"> </text>
<text text-anchor="start" x="213" y="-68.8" font-family="Monospace" font-size="9.00"> </text>
<text text-anchor="start" x="226" y="-69.4" font-family="Monospace" font-size="7.00">public</text>
<text text-anchor="start" x="259" y="-68.8" font-family="Monospace" font-size="9.00"> </text>
</a>
</g>
</g>
<!-- (=:=)/2 -->
<g id="node5" class="node">
<title>(=:=)/2</title>
<g id="a_node5"><a xlink:href="https://github.com/LogtalkDotOrg/logtalk3/tree/261dba8e72dd07f5fb5891a52d53f8dbac37f16a/library/types/comparingp.lgt#L59" xlink:title="https://github.com/LogtalkDotOrg/logtalk3/tree/261dba8e72dd07f5fb5891a52d53f8dbac37f16a/library/types/comparingp.lgt#L59">
<polygon fill="springgreen" stroke="black" points="186.5,-95 111.5,-95 111.5,-59 186.5,-59 186.5,-95"/>
<text text-anchor="start" x="120" y="-79.8" font-family="Monospace" font-size="9.00"> </text>
<text text-anchor="start" x="126" y="-79.2" font-family="Monospace" font-size="11.00">(=:=)/2</text>
<text text-anchor="start" x="173" y="-79.8" font-family="Monospace" font-size="9.00"> </text>
<text text-anchor="start" x="120" y="-68.8" font-family="Monospace" font-size="9.00"> </text>
<text text-anchor="start" x="136.5" y="-69.4" font-family="Monospace" font-size="7.00">public</text>
<text text-anchor="start" x="173" y="-68.8" font-family="Monospace" font-size="9.00"> </text>
</a>
</g>
</g>
<!-- (=\=)/2 -->
<g id="node6" class="node">
<title>(=\=)/2</title>
<g id="a_node6"><a xlink:href="https://github.com/LogtalkDotOrg/logtalk3/tree/261dba8e72dd07f5fb5891a52d53f8dbac37f16a/library/types/comparingp.lgt#L66" xlink:title="https://github.com/LogtalkDotOrg/logtalk3/tree/261dba8e72dd07f5fb5891a52d53f8dbac37f16a/library/types/comparingp.lgt#L66">
<polygon fill="springgreen" stroke="black" points="93.5,-95 18.5,-95 18.5,-59 93.5,-59 93.5,-95"/>
<text text-anchor="start" x="27" y="-79.8" font-family="Monospace" font-size="9.00"> </text>
<text text-anchor="start" x="33" y="-79.2" font-family="Monospace" font-size="11.00">(=\=)/2</text>
<text text-anchor="start" x="80" y="-79.8" font-family="Monospace" font-size="9.00"> </text>
<text text-anchor="start" x="27" y="-68.8" font-family="Monospace" font-size="9.00"> </text>
<text text-anchor="start" x="43.5" y="-69.4" font-family="Monospace" font-size="7.00">public</text>
<text text-anchor="start" x="80" y="-68.8" font-family="Monospace" font-size="9.00"> </text>
</a>
</g>
</g>
</g>
</svg>
