<?xml version="1.0" encoding="UTF-8" standalone="no"?>
<?xml-stylesheet href="diagrams.css" type="text/css"?>
<!DOCTYPE svg PUBLIC "-//W3C//DTD SVG 1.1//EN"
 "http://www.w3.org/Graphics/SVG/1.1/DTD/svg11.dtd">
<!-- Generated by graphviz version 10.0.1 (20240210.2158)
 -->
<!-- Title: compound_object Pages: 1 -->
<svg width="438pt" height="293pt"
 viewBox="72.00 72.00 366.00 221.00" xmlns="http://www.w3.org/2000/svg" xmlns:xlink="http://www.w3.org/1999/xlink">
<g id="graph0" class="graph" transform="scale(1 1) rotate(0) translate(76 217)">
<title>compound_object</title>
<polygon fill="white" stroke="none" points="-4,4 -4,-145 290,-145 290,4 -4,4"/>
<text text-anchor="start" x="8" y="-28.25" font-family="Monospace" font-size="10.00" fill="dimgray">Logtalk library</text>
<text text-anchor="start" x="8" y="-17" font-family="Monospace" font-size="10.00" fill="dimgray">Cross&#45;referencing diagram for object compound</text>
<text text-anchor="start" x="8" y="-5.75" font-family="Monospace" font-size="10.00" fill="dimgray">Generated on 2024&#45;02&#45;23, 15:46</text>
<g id="clust1" class="cluster">
<title>cluster_compound_object</title>
<g id="a_clust1"><a xlink:title="compound">
<path fill="snow" stroke="dimgray" d="M62.5,-49.75C62.5,-49.75 223.5,-49.75 223.5,-49.75 229.5,-49.75 235.5,-55.75 235.5,-61.75 235.5,-61.75 235.5,-121 235.5,-121 235.5,-127 229.5,-133 223.5,-133 223.5,-133 62.5,-133 62.5,-133 56.5,-133 50.5,-127 50.5,-121 50.5,-121 50.5,-61.75 50.5,-61.75 50.5,-55.75 56.5,-49.75 62.5,-49.75"/>
<g id="a_clust1_0"><a xlink:href="https://github.com/LogtalkDotOrg/logtalk3/tree/cef71da3d748b228dbb6378a36b6141099f12a7f/library/types/compound.lgt" xlink:title="https://github.com/LogtalkDotOrg/logtalk3/tree/cef71da3d748b228dbb6378a36b6141099f12a7f/library/types/compound.lgt">
<text text-anchor="start" x="62.5" y="-115.5" font-family="Monospace" font-size="10.00" fill="dimgray">compound</text>
</a>
</g>
</a>
</g>
</g>
<!-- valid/1 -->
<g id="node1" class="node">
<title>valid/1</title>
<g id="a_node1"><a xlink:href="https://github.com/LogtalkDotOrg/logtalk3/tree/cef71da3d748b228dbb6378a36b6141099f12a7f/library/types/compound.lgt#L32" xlink:title="https://github.com/LogtalkDotOrg/logtalk3/tree/cef71da3d748b228dbb6378a36b6141099f12a7f/library/types/compound.lgt#L32">
<polygon fill="cornsilk" stroke="black" points="134,-95.75 61,-95.75 61,-59.75 134,-59.75 134,-95.75"/>
<text text-anchor="start" x="68.88" y="-78.58" font-family="Monospace" font-size="9.00"> </text>
<text text-anchor="start" x="73.88" y="-77.8" font-family="Monospace" font-size="11.00">valid/1</text>
<text text-anchor="start" x="120.88" y="-78.58" font-family="Monospace" font-size="9.00"> </text>
<text text-anchor="start" x="68.88" y="-67.7" font-family="Monospace" font-size="9.00"> </text>
<text text-anchor="start" x="86.25" y="-69.22" font-family="Monospace" font-size="7.00">local</text>
<text text-anchor="start" x="120.88" y="-67.7" font-family="Monospace" font-size="9.00"> </text>
</a>
</g>
</g>
<!-- check/1 -->
<g id="node2" class="node">
<title>check/1</title>
<g id="a_node2"><a xlink:href="https://github.com/LogtalkDotOrg/logtalk3/tree/cef71da3d748b228dbb6378a36b6141099f12a7f/library/types/compound.lgt#L35" xlink:title="https://github.com/LogtalkDotOrg/logtalk3/tree/cef71da3d748b228dbb6378a36b6141099f12a7f/library/types/compound.lgt#L35">
<polygon fill="cornsilk" stroke="black" points="225,-95.75 152,-95.75 152,-59.75 225,-59.75 225,-95.75"/>
<text text-anchor="start" x="159.88" y="-78.58" font-family="Monospace" font-size="9.00"> </text>
<text text-anchor="start" x="164.88" y="-77.8" font-family="Monospace" font-size="11.00">check/1</text>
<text text-anchor="start" x="211.88" y="-78.58" font-family="Monospace" font-size="9.00"> </text>
<text text-anchor="start" x="159.88" y="-67.7" font-family="Monospace" font-size="9.00"> </text>
<text text-anchor="start" x="177.25" y="-69.22" font-family="Monospace" font-size="7.00">local</text>
<text text-anchor="start" x="211.88" y="-67.7" font-family="Monospace" font-size="9.00"> </text>
</a>
</g>
</g>
</g>
</svg>
