<?xml version="1.0" encoding="UTF-8" standalone="no"?>
<?xml-stylesheet href="diagrams.css" type="text/css"?>
<!DOCTYPE svg PUBLIC "-//W3C//DTD SVG 1.1//EN"
 "http://www.w3.org/Graphics/SVG/1.1/DTD/svg11.dtd">
<!-- Generated by graphviz version 2.50.0 (20211204.2007)
 -->
<!-- Title: comparingp_protocol Pages: 1 -->
<svg width="694pt" height="292pt"
 viewBox="72.00 72.00 622.00 220.00" xmlns="http://www.w3.org/2000/svg" xmlns:xlink="http://www.w3.org/1999/xlink">
<g id="graph0" class="graph" transform="scale(1 1) rotate(0) translate(76 216)">
<title>comparingp_protocol</title>
<polygon fill="white" stroke="transparent" points="-4,4 -4,-144 546,-144 546,4 -4,4"/>
<text text-anchor="start" x="8" y="-29" font-family="Monospace" font-size="10.00" fill="dimgray">Logtalk library</text>
<text text-anchor="start" x="8" y="-18" font-family="Monospace" font-size="10.00" fill="dimgray">Cross&#45;referencing diagram for protocol comparingp</text>
<text text-anchor="start" x="8" y="-7" font-family="Monospace" font-size="10.00" fill="dimgray">Generated on 2022&#45;07&#45;21, 10:22</text>
<g id="clust1" class="cluster">
<title>cluster_comparingp_protocol</title>
<g id="a_clust1"><a xlink:title="comparingp">
<path fill="snow" stroke="dimgray" d="M20,-49C20,-49 522,-49 522,-49 528,-49 534,-55 534,-61 534,-61 534,-120 534,-120 534,-126 528,-132 522,-132 522,-132 20,-132 20,-132 14,-132 8,-126 8,-120 8,-120 8,-61 8,-61 8,-55 14,-49 20,-49"/>
<g id="a_clust1_0"><a xlink:href="https://github.com/LogtalkDotOrg/logtalk3/tree/7b4705134f8fbb2e14738c1e6aca25703ea601a7/library/types/comparingp.lgt" xlink:title="https://github.com/LogtalkDotOrg/logtalk3/tree/7b4705134f8fbb2e14738c1e6aca25703ea601a7/library/types/comparingp.lgt">
<text text-anchor="start" x="20.5" y="-115.5" font-family="Monospace" font-size="10.00" fill="dimgray">comparingp</text>
</a>
</g>
</a>
</g>
</g>
<!-- (&lt;)/2 -->
<g id="node1" class="node">
<title>(&lt;)/2</title>
<g id="a_node1"><a xlink:href="https://github.com/LogtalkDotOrg/logtalk3/tree/7b4705134f8fbb2e14738c1e6aca25703ea601a7/library/types/comparingp.lgt#L31" xlink:title="https://github.com/LogtalkDotOrg/logtalk3/tree/7b4705134f8fbb2e14738c1e6aca25703ea601a7/library/types/comparingp.lgt#L31">
<polygon fill="springgreen" stroke="black" points="524,-95 462,-95 462,-59 524,-59 524,-95"/>
<text text-anchor="start" x="470" y="-79.8" font-family="Monospace" font-size="9.00"> </text>
<text text-anchor="start" x="476" y="-79.2" font-family="Monospace" font-size="11.00">(&lt;)/2</text>
<text text-anchor="start" x="510" y="-79.8" font-family="Monospace" font-size="9.00"> </text>
<text text-anchor="start" x="470" y="-68.8" font-family="Monospace" font-size="9.00"> </text>
<text text-anchor="start" x="479" y="-69.4" font-family="Monospace" font-size="7.00">public</text>
<text text-anchor="start" x="510" y="-68.8" font-family="Monospace" font-size="9.00"> </text>
</a>
</g>
</g>
<!-- (=&lt;)/2 -->
<g id="node2" class="node">
<title>(=&lt;)/2</title>
<g id="a_node2"><a xlink:href="https://github.com/LogtalkDotOrg/logtalk3/tree/7b4705134f8fbb2e14738c1e6aca25703ea601a7/library/types/comparingp.lgt#L38" xlink:title="https://github.com/LogtalkDotOrg/logtalk3/tree/7b4705134f8fbb2e14738c1e6aca25703ea601a7/library/types/comparingp.lgt#L38">
<polygon fill="springgreen" stroke="black" points="443.5,-95 374.5,-95 374.5,-59 443.5,-59 443.5,-95"/>
<text text-anchor="start" x="383" y="-79.8" font-family="Monospace" font-size="9.00"> </text>
<text text-anchor="start" x="389" y="-79.2" font-family="Monospace" font-size="11.00">(=&lt;)/2</text>
<text text-anchor="start" x="430" y="-79.8" font-family="Monospace" font-size="9.00"> </text>
<text text-anchor="start" x="383" y="-68.8" font-family="Monospace" font-size="9.00"> </text>
<text text-anchor="start" x="395.5" y="-69.4" font-family="Monospace" font-size="7.00">public</text>
<text text-anchor="start" x="430" y="-68.8" font-family="Monospace" font-size="9.00"> </text>
</a>
</g>
</g>
<!-- (&gt;)/2 -->
<g id="node3" class="node">
<title>(&gt;)/2</title>
<g id="a_node3"><a xlink:href="https://github.com/LogtalkDotOrg/logtalk3/tree/7b4705134f8fbb2e14738c1e6aca25703ea601a7/library/types/comparingp.lgt#L45" xlink:title="https://github.com/LogtalkDotOrg/logtalk3/tree/7b4705134f8fbb2e14738c1e6aca25703ea601a7/library/types/comparingp.lgt#L45">
<polygon fill="springgreen" stroke="black" points="356,-95 294,-95 294,-59 356,-59 356,-95"/>
<text text-anchor="start" x="302" y="-79.8" font-family="Monospace" font-size="9.00"> </text>
<text text-anchor="start" x="308" y="-79.2" font-family="Monospace" font-size="11.00">(&gt;)/2</text>
<text text-anchor="start" x="342" y="-79.8" font-family="Monospace" font-size="9.00"> </text>
<text text-anchor="start" x="302" y="-68.8" font-family="Monospace" font-size="9.00"> </text>
<text text-anchor="start" x="311" y="-69.4" font-family="Monospace" font-size="7.00">public</text>
<text text-anchor="start" x="342" y="-68.8" font-family="Monospace" font-size="9.00"> </text>
</a>
</g>
</g>
<!-- (&gt;=)/2 -->
<g id="node4" class="node">
<title>(&gt;=)/2</title>
<g id="a_node4"><a xlink:href="https://github.com/LogtalkDotOrg/logtalk3/tree/7b4705134f8fbb2e14738c1e6aca25703ea601a7/library/types/comparingp.lgt#L52" xlink:title="https://github.com/LogtalkDotOrg/logtalk3/tree/7b4705134f8fbb2e14738c1e6aca25703ea601a7/library/types/comparingp.lgt#L52">
<polygon fill="springgreen" stroke="black" points="275.5,-95 206.5,-95 206.5,-59 275.5,-59 275.5,-95"/>
<text text-anchor="start" x="215" y="-79.8" font-family="Monospace" font-size="9.00"> </text>
<text text-anchor="start" x="221" y="-79.2" font-family="Monospace" font-size="11.00">(&gt;=)/2</text>
<text text-anchor="start" x="262" y="-79.8" font-family="Monospace" font-size="9.00"> </text>
<text text-anchor="start" x="215" y="-68.8" font-family="Monospace" font-size="9.00"> </text>
<text text-anchor="start" x="227.5" y="-69.4" font-family="Monospace" font-size="7.00">public</text>
<text text-anchor="start" x="262" y="-68.8" font-family="Monospace" font-size="9.00"> </text>
</a>
</g>
</g>
<!-- (=:=)/2 -->
<g id="node5" class="node">
<title>(=:=)/2</title>
<g id="a_node5"><a xlink:href="https://github.com/LogtalkDotOrg/logtalk3/tree/7b4705134f8fbb2e14738c1e6aca25703ea601a7/library/types/comparingp.lgt#L59" xlink:title="https://github.com/LogtalkDotOrg/logtalk3/tree/7b4705134f8fbb2e14738c1e6aca25703ea601a7/library/types/comparingp.lgt#L59">
<polygon fill="springgreen" stroke="black" points="188,-95 112,-95 112,-59 188,-59 188,-95"/>
<text text-anchor="start" x="120" y="-79.8" font-family="Monospace" font-size="9.00"> </text>
<text text-anchor="start" x="126" y="-79.2" font-family="Monospace" font-size="11.00">(=:=)/2</text>
<text text-anchor="start" x="174" y="-79.8" font-family="Monospace" font-size="9.00"> </text>
<text text-anchor="start" x="120" y="-68.8" font-family="Monospace" font-size="9.00"> </text>
<text text-anchor="start" x="136" y="-69.4" font-family="Monospace" font-size="7.00">public</text>
<text text-anchor="start" x="174" y="-68.8" font-family="Monospace" font-size="9.00"> </text>
</a>
</g>
</g>
<!-- (=\=)/2 -->
<g id="node6" class="node">
<title>(=\=)/2</title>
<g id="a_node6"><a xlink:href="https://github.com/LogtalkDotOrg/logtalk3/tree/7b4705134f8fbb2e14738c1e6aca25703ea601a7/library/types/comparingp.lgt#L66" xlink:title="https://github.com/LogtalkDotOrg/logtalk3/tree/7b4705134f8fbb2e14738c1e6aca25703ea601a7/library/types/comparingp.lgt#L66">
<polygon fill="springgreen" stroke="black" points="94,-95 18,-95 18,-59 94,-59 94,-95"/>
<text text-anchor="start" x="26" y="-79.8" font-family="Monospace" font-size="9.00"> </text>
<text text-anchor="start" x="32" y="-79.2" font-family="Monospace" font-size="11.00">(=\=)/2</text>
<text text-anchor="start" x="80" y="-79.8" font-family="Monospace" font-size="9.00"> </text>
<text text-anchor="start" x="26" y="-68.8" font-family="Monospace" font-size="9.00"> </text>
<text text-anchor="start" x="42" y="-69.4" font-family="Monospace" font-size="7.00">public</text>
<text text-anchor="start" x="80" y="-68.8" font-family="Monospace" font-size="9.00"> </text>
</a>
</g>
</g>
</g>
</svg>
