<?xml version="1.0" encoding="UTF-8" standalone="no"?>
<!DOCTYPE svg PUBLIC "-//W3C//DTD SVG 1.1//EN"
 "http://www.w3.org/Graphics/SVG/1.1/DTD/svg11.dtd">
<!-- Generated by graphviz version 2.40.1 (20161225.0304)
 -->
<!-- Title: compound_object Pages: 1 -->
<svg width="418pt" height="290pt"
 viewBox="72.00 72.00 346.00 218.43" xmlns="http://www.w3.org/2000/svg" xmlns:xlink="http://www.w3.org/1999/xlink">
<g id="graph0" class="graph" transform="scale(1 1) rotate(0) translate(76 214.4264)">
<title>compound_object</title>
<polygon fill="#ffffff" stroke="transparent" points="-4,4 -4,-142.4264 270,-142.4264 270,4 -4,4"/>
<text text-anchor="start" x="8" y="-29" font-family="Courier,monospace" font-size="10.00" fill="#8b8989">Logtalk library</text>
<text text-anchor="start" x="8" y="-18" font-family="Courier,monospace" font-size="10.00" fill="#8b8989">Cross&#45;referencing diagram</text>
<text text-anchor="start" x="8" y="-7" font-family="Courier,monospace" font-size="10.00" fill="#8b8989">Generated on 2019/04/20, 23:40</text>
<g id="clust1" class="cluster">
<title>cluster_compound_object</title>
<g id="a_clust1"><a xlink:href="https://github.com/LogtalkDotOrg/logtalk3/tree/master/library/compound.lgt" xlink:title="https://github.com/LogtalkDotOrg/logtalk3/tree/master/library/compound.lgt">
<path fill="#fffafa" stroke="#8b8989" d="M20,-49C20,-49 246,-49 246,-49 252,-49 258,-55 258,-61 258,-61 258,-118.4264 258,-118.4264 258,-124.4264 252,-130.4264 246,-130.4264 246,-130.4264 20,-130.4264 20,-130.4264 14,-130.4264 8,-124.4264 8,-118.4264 8,-118.4264 8,-61 8,-61 8,-55 14,-49 20,-49"/>
<text text-anchor="middle" x="40.5" y="-118.4264" font-family="Courier,monospace" font-size="10.00" fill="#8b8989">compound</text>
</a>
</g>
</g>
<!-- valid/1 -->
<g id="node1" class="node">
<title>valid/1</title>
<g id="a_node1"><a xlink:href="https://github.com/LogtalkDotOrg/logtalk3/tree/master/library/compound.lgt#L31" xlink:title="https://github.com/LogtalkDotOrg/logtalk3/tree/master/library/compound.lgt#L31">
<ellipse fill="#f5f5dc" stroke="#000000" cx="195" cy="-80.2132" rx="53.066" ry="21.4286"/>
<text text-anchor="start" x="166" y="-83.0132" font-family="Courier,monospace" font-size="9.00" fill="#000000"> </text>
<text text-anchor="start" x="172" y="-82.4132" font-family="Courier,monospace" font-size="11.00" fill="#000000">valid/1</text>
<text text-anchor="start" x="219" y="-83.0132" font-family="Courier,monospace" font-size="9.00" fill="#000000"> </text>
<text text-anchor="start" x="166" y="-72.0132" font-family="Courier,monospace" font-size="9.00" fill="#000000"> </text>
<text text-anchor="start" x="184.5" y="-72.6132" font-family="Courier,monospace" font-size="7.00" fill="#000000">local</text>
<text text-anchor="start" x="219" y="-72.0132" font-family="Courier,monospace" font-size="9.00" fill="#000000"> </text>
</a>
</g>
</g>
<!-- check/1 -->
<g id="node2" class="node">
<title>check/1</title>
<g id="a_node2"><a xlink:href="https://github.com/LogtalkDotOrg/logtalk3/tree/master/library/compound.lgt#L34" xlink:title="https://github.com/LogtalkDotOrg/logtalk3/tree/master/library/compound.lgt#L34">
<ellipse fill="#f5f5dc" stroke="#000000" cx="71" cy="-80.2132" rx="53.066" ry="21.4286"/>
<text text-anchor="start" x="42" y="-83.0132" font-family="Courier,monospace" font-size="9.00" fill="#000000"> </text>
<text text-anchor="start" x="48" y="-82.4132" font-family="Courier,monospace" font-size="11.00" fill="#000000">check/1</text>
<text text-anchor="start" x="95" y="-83.0132" font-family="Courier,monospace" font-size="9.00" fill="#000000"> </text>
<text text-anchor="start" x="42" y="-72.0132" font-family="Courier,monospace" font-size="9.00" fill="#000000"> </text>
<text text-anchor="start" x="60.5" y="-72.6132" font-family="Courier,monospace" font-size="7.00" fill="#000000">local</text>
<text text-anchor="start" x="95" y="-72.0132" font-family="Courier,monospace" font-size="9.00" fill="#000000"> </text>
</a>
</g>
</g>
</g>
</svg>
