<?xml version="1.0" encoding="UTF-8" standalone="no"?>
<?xml-stylesheet href="diagrams.css" type="text/css"?>
<!DOCTYPE svg PUBLIC "-//W3C//DTD SVG 1.1//EN"
 "http://www.w3.org/Graphics/SVG/1.1/DTD/svg11.dtd">
<!-- Generated by graphviz version 12.2.0 (20241103.1931)
 -->
<!-- Title: core Pages: 1 -->
<svg width="782pt" height="831pt"
 viewBox="72.00 72.00 710.00 758.75" xmlns="http://www.w3.org/2000/svg" xmlns:xlink="http://www.w3.org/1999/xlink">
<g id="graph0" class="graph" transform="scale(1 1) rotate(0) translate(76 754.75)">
<title>core</title>
<polygon fill="white" stroke="none" points="-4,4 -4,-682.75 634,-682.75 634,4 -4,4"/>
<text text-anchor="start" x="8" y="-32.75" font-family="Monospace" font-size="10.00" fill="dimgray">Logtalk core entities</text>
<text text-anchor="start" x="8" y="-20" font-family="Monospace" font-size="10.00" fill="dimgray">Inheritance diagram for library core</text>
<text text-anchor="start" x="8" y="-7.25" font-family="Monospace" font-size="10.00" fill="dimgray">Generated on 2024&#45;11&#45;11, 15:15</text>
<g id="clust1" class="cluster">
<title>cluster_library_core</title>
<g id="a_clust1"><a xlink:title="core/">
<path fill="whitesmoke" stroke="dimgray" d="M20,-54.25C20,-54.25 610,-54.25 610,-54.25 616,-54.25 622,-60.25 622,-66.25 622,-66.25 622,-658.75 622,-658.75 622,-664.75 616,-670.75 610,-670.75 610,-670.75 20,-670.75 20,-670.75 14,-670.75 8,-664.75 8,-658.75 8,-658.75 8,-66.25 8,-66.25 8,-60.25 14,-54.25 20,-54.25"/>
<g id="a_clust1_0"><a xlink:href="https://github.com/LogtalkDotOrg/logtalk3/tree/39086e612cfdf324ebf506adda1d05c12698cfcf/core/" xlink:title="https://github.com/LogtalkDotOrg/logtalk3/tree/39086e612cfdf324ebf506adda1d05c12698cfcf/core/">
<text text-anchor="start" x="20" y="-65.5" font-family="Monospace" font-size="10.00" fill="dimgray">core/</text>
</a>
</g>
</a>
</g>
</g>
<g id="clust2" class="cluster">
<title>cluster_file_/opt/local/share/logtalk/core/expanding.lgt</title>
<g id="a_clust2"><a xlink:title="expanding.lgt">
<path fill="snow" stroke="dimgray" d="M30,-534.5C30,-534.5 142,-534.5 142,-534.5 148,-534.5 154,-540.5 154,-546.5 154,-546.5 154,-648.75 154,-648.75 154,-654.75 148,-660.75 142,-660.75 142,-660.75 30,-660.75 30,-660.75 24,-660.75 18,-654.75 18,-648.75 18,-648.75 18,-546.5 18,-546.5 18,-540.5 24,-534.5 30,-534.5"/>
<g id="a_clust2_1"><a xlink:href="https://github.com/LogtalkDotOrg/logtalk3/tree/39086e612cfdf324ebf506adda1d05c12698cfcf/core/expanding.lgt" xlink:title="https://github.com/LogtalkDotOrg/logtalk3/tree/39086e612cfdf324ebf506adda1d05c12698cfcf/core/expanding.lgt">
<text text-anchor="start" x="30" y="-545.75" font-family="Monospace" font-size="10.00" fill="dimgray">expanding.lgt</text>
</a>
</g>
</a>
</g>
</g>
<g id="clust3" class="cluster">
<title>cluster_file_/opt/local/share/logtalk/core/monitoring.lgt</title>
<g id="a_clust3"><a xlink:title="monitoring.lgt">
<path fill="snow" stroke="dimgray" d="M176,-534.5C176,-534.5 280,-534.5 280,-534.5 286,-534.5 292,-540.5 292,-546.5 292,-546.5 292,-648.75 292,-648.75 292,-654.75 286,-660.75 280,-660.75 280,-660.75 176,-660.75 176,-660.75 170,-660.75 164,-654.75 164,-648.75 164,-648.75 164,-546.5 164,-546.5 164,-540.5 170,-534.5 176,-534.5"/>
<g id="a_clust3_2"><a xlink:href="https://github.com/LogtalkDotOrg/logtalk3/tree/39086e612cfdf324ebf506adda1d05c12698cfcf/core/monitoring.lgt" xlink:title="https://github.com/LogtalkDotOrg/logtalk3/tree/39086e612cfdf324ebf506adda1d05c12698cfcf/core/monitoring.lgt">
<text text-anchor="start" x="176" y="-545.75" font-family="Monospace" font-size="10.00" fill="dimgray">monitoring.lgt</text>
</a>
</g>
</a>
</g>
</g>
<g id="clust4" class="cluster">
<title>cluster_file_/opt/local/share/logtalk/core/forwarding.lgt</title>
<g id="a_clust4"><a xlink:title="forwarding.lgt">
<path fill="snow" stroke="dimgray" d="M314,-540.12C314,-540.12 418,-540.12 418,-540.12 424,-540.12 430,-546.12 430,-552.12 430,-552.12 430,-643.12 430,-643.12 430,-649.12 424,-655.12 418,-655.12 418,-655.12 314,-655.12 314,-655.12 308,-655.12 302,-649.12 302,-643.12 302,-643.12 302,-552.12 302,-552.12 302,-546.12 308,-540.12 314,-540.12"/>
<g id="a_clust4_3"><a xlink:href="https://github.com/LogtalkDotOrg/logtalk3/tree/39086e612cfdf324ebf506adda1d05c12698cfcf/core/forwarding.lgt" xlink:title="https://github.com/LogtalkDotOrg/logtalk3/tree/39086e612cfdf324ebf506adda1d05c12698cfcf/core/forwarding.lgt">
<text text-anchor="start" x="314" y="-551.38" font-family="Monospace" font-size="10.00" fill="dimgray">forwarding.lgt</text>
</a>
</g>
</a>
</g>
</g>
<g id="clust5" class="cluster">
<title>cluster_file_/opt/local/share/logtalk/core/user.lgt</title>
<g id="a_clust5"><a xlink:title="user.lgt">
<path fill="snow" stroke="dimgray" d="M30,-244.88C30,-244.88 140,-244.88 140,-244.88 146,-244.88 152,-250.88 152,-256.88 152,-256.88 152,-325.38 152,-325.38 152,-331.38 146,-337.38 140,-337.38 140,-337.38 30,-337.38 30,-337.38 24,-337.38 18,-331.38 18,-325.38 18,-325.38 18,-256.88 18,-256.88 18,-250.88 24,-244.88 30,-244.88"/>
<g id="a_clust5_4"><a xlink:href="https://github.com/LogtalkDotOrg/logtalk3/tree/39086e612cfdf324ebf506adda1d05c12698cfcf/core/user.lgt" xlink:title="https://github.com/LogtalkDotOrg/logtalk3/tree/39086e612cfdf324ebf506adda1d05c12698cfcf/core/user.lgt">
<text text-anchor="start" x="30" y="-256.12" font-family="Monospace" font-size="10.00" fill="dimgray">user.lgt</text>
</a>
</g>
</a>
</g>
</g>
<g id="clust6" class="cluster">
<title>cluster_file_/opt/local/share/logtalk/core/logtalk.lgt</title>
<g id="a_clust6"><a xlink:title="logtalk.lgt">
<path fill="snow" stroke="dimgray" d="M174,-93C174,-93 370,-93 370,-93 376,-93 382,-99 382,-105 382,-105 382,-477.25 382,-477.25 382,-483.25 376,-489.25 370,-489.25 370,-489.25 174,-489.25 174,-489.25 168,-489.25 162,-483.25 162,-477.25 162,-477.25 162,-105 162,-105 162,-99 168,-93 174,-93"/>
<g id="a_clust6_5"><a xlink:href="https://github.com/LogtalkDotOrg/logtalk3/tree/39086e612cfdf324ebf506adda1d05c12698cfcf/core/logtalk.lgt" xlink:title="https://github.com/LogtalkDotOrg/logtalk3/tree/39086e612cfdf324ebf506adda1d05c12698cfcf/core/logtalk.lgt">
<text text-anchor="start" x="174" y="-104.25" font-family="Monospace" font-size="10.00" fill="dimgray">logtalk.lgt</text>
</a>
</g>
</a>
</g>
</g>
<g id="clust7" class="cluster">
<title>cluster_file_/opt/local/share/logtalk/core/core_messages.lgt</title>
<g id="a_clust7"><a xlink:title="core_messages.lgt">
<path fill="snow" stroke="dimgray" d="M404,-228C404,-228 600,-228 600,-228 606,-228 612,-234 612,-240 612,-240 612,-342.25 612,-342.25 612,-348.25 606,-354.25 600,-354.25 600,-354.25 404,-354.25 404,-354.25 398,-354.25 392,-348.25 392,-342.25 392,-342.25 392,-240 392,-240 392,-234 398,-228 404,-228"/>
<g id="a_clust7_6"><a xlink:href="https://github.com/LogtalkDotOrg/logtalk3/tree/39086e612cfdf324ebf506adda1d05c12698cfcf/core/core_messages.lgt" xlink:title="https://github.com/LogtalkDotOrg/logtalk3/tree/39086e612cfdf324ebf506adda1d05c12698cfcf/core/core_messages.lgt">
<text text-anchor="start" x="404" y="-239.25" font-family="Monospace" font-size="10.00" fill="dimgray">core_messages.lgt</text>
</a>
</g>
</a>
</g>
</g>
<!-- expanding -->
<g id="node1" class="node">
<title>expanding</title>
<g id="a_node1"><a xlink:href="https://logtalk.org/library/expanding_0.html" xlink:title="https://logtalk.org/library/expanding_0.html">
<polygon fill="aquamarine" stroke="black" points="138.12,-650.75 27.88,-650.75 27.88,-573.25 144.12,-573.25 144.12,-644.75 138.12,-650.75"/>
<polyline fill="none" stroke="black" points="138.12,-650.75 138.12,-644.75"/>
<polyline fill="none" stroke="black" points="144.12,-644.75 138.12,-644.75"/>
<g id="a_node1_7"><a xlink:href="expanding_protocol_xref_diagram.svg" xlink:title="Zoom">
<image xlink:href="zoom.png" width="11px" height="11px" preserveAspectRatio="xMinYMin meet" x="35.875" y="-646.75"/>
</a>
</g>
<text text-anchor="start" x="38.75" y="-626.08" font-family="Monospace" font-size="9.00"> </text>
<text text-anchor="start" x="58.5" y="-625.3" font-family="Monospace" font-size="11.00">expanding</text>
<text text-anchor="start" x="130.88" y="-626.08" font-family="Monospace" font-size="9.00"> </text>
<text text-anchor="start" x="38.75" y="-613.7" font-family="Monospace" font-size="9.00"> </text>
<text text-anchor="start" x="50.62" y="-614.48" font-family="Monospace" font-size="7.00">built&#45;in protocol</text>
<text text-anchor="start" x="130.88" y="-613.7" font-family="Monospace" font-size="9.00"> </text>
<text text-anchor="start" x="38.75" y="-602.45" font-family="Monospace" font-size="9.00"> </text>
<text text-anchor="start" x="38.75" y="-591.2" font-family="Monospace" font-size="9.00"> </text>
<text text-anchor="start" x="46.88" y="-591.2" font-family="Monospace" font-size="9.00">goal_expansion/2</text>
<text text-anchor="start" x="130.88" y="-591.2" font-family="Monospace" font-size="9.00"> </text>
<text text-anchor="start" x="38.75" y="-579.95" font-family="Monospace" font-size="9.00"> </text>
<text text-anchor="start" x="46.88" y="-579.95" font-family="Monospace" font-size="9.00">term_expansion/2</text>
<text text-anchor="start" x="130.88" y="-579.95" font-family="Monospace" font-size="9.00"> </text>
</a>
</g>
</g>
<!-- monitoring -->
<g id="node2" class="node">
<title>monitoring</title>
<g id="a_node2"><a xlink:href="https://logtalk.org/library/monitoring_0.html" xlink:title="https://logtalk.org/library/monitoring_0.html">
<polygon fill="aquamarine" stroke="black" points="276.38,-650.75 173.62,-650.75 173.62,-573.25 282.38,-573.25 282.38,-644.75 276.38,-650.75"/>
<polyline fill="none" stroke="black" points="276.38,-650.75 276.38,-644.75"/>
<polyline fill="none" stroke="black" points="282.38,-644.75 276.38,-644.75"/>
<g id="a_node2_8"><a xlink:href="monitoring_protocol_xref_diagram.svg" xlink:title="Zoom">
<image xlink:href="zoom.png" width="11px" height="11px" preserveAspectRatio="xMinYMin meet" x="181.625" y="-646.75"/>
</a>
</g>
<text text-anchor="start" x="184.5" y="-626.08" font-family="Monospace" font-size="9.00"> </text>
<text text-anchor="start" x="197.12" y="-625.3" font-family="Monospace" font-size="11.00">monitoring</text>
<text text-anchor="start" x="269.12" y="-626.08" font-family="Monospace" font-size="9.00"> </text>
<text text-anchor="start" x="184.5" y="-613.7" font-family="Monospace" font-size="9.00"> </text>
<text text-anchor="start" x="192.62" y="-614.48" font-family="Monospace" font-size="7.00">built&#45;in protocol</text>
<text text-anchor="start" x="269.12" y="-613.7" font-family="Monospace" font-size="9.00"> </text>
<text text-anchor="start" x="184.5" y="-602.45" font-family="Monospace" font-size="9.00"> </text>
<text text-anchor="start" x="184.5" y="-591.2" font-family="Monospace" font-size="9.00"> </text>
<text text-anchor="start" x="209.88" y="-591.2" font-family="Monospace" font-size="9.00">before/3</text>
<text text-anchor="start" x="269.12" y="-591.2" font-family="Monospace" font-size="9.00"> </text>
<text text-anchor="start" x="184.5" y="-579.95" font-family="Monospace" font-size="9.00"> </text>
<text text-anchor="start" x="212.5" y="-579.95" font-family="Monospace" font-size="9.00">after/3</text>
<text text-anchor="start" x="269.12" y="-579.95" font-family="Monospace" font-size="9.00"> </text>
</a>
</g>
</g>
<!-- forwarding -->
<g id="node3" class="node">
<title>forwarding</title>
<g id="a_node3"><a xlink:href="https://logtalk.org/library/forwarding_0.html" xlink:title="https://logtalk.org/library/forwarding_0.html">
<polygon fill="aquamarine" stroke="black" points="414.38,-645.12 311.62,-645.12 311.62,-578.88 420.38,-578.88 420.38,-639.12 414.38,-645.12"/>
<polyline fill="none" stroke="black" points="414.38,-645.12 414.38,-639.12"/>
<polyline fill="none" stroke="black" points="420.38,-639.12 414.38,-639.12"/>
<g id="a_node3_9"><a xlink:href="forwarding_protocol_xref_diagram.svg" xlink:title="Zoom">
<image xlink:href="zoom.png" width="11px" height="11px" preserveAspectRatio="xMinYMin meet" x="319.625" y="-641.125"/>
</a>
</g>
<text text-anchor="start" x="322.5" y="-620.45" font-family="Monospace" font-size="9.00"> </text>
<text text-anchor="start" x="335.12" y="-619.67" font-family="Monospace" font-size="11.00">forwarding</text>
<text text-anchor="start" x="407.12" y="-620.45" font-family="Monospace" font-size="9.00"> </text>
<text text-anchor="start" x="322.5" y="-608.08" font-family="Monospace" font-size="9.00"> </text>
<text text-anchor="start" x="330.62" y="-608.85" font-family="Monospace" font-size="7.00">built&#45;in protocol</text>
<text text-anchor="start" x="407.12" y="-608.08" font-family="Monospace" font-size="9.00"> </text>
<text text-anchor="start" x="322.5" y="-596.83" font-family="Monospace" font-size="9.00"> </text>
<text text-anchor="start" x="322.5" y="-585.58" font-family="Monospace" font-size="9.00"> </text>
<text text-anchor="start" x="345.25" y="-585.58" font-family="Monospace" font-size="9.00">forward/1</text>
<text text-anchor="start" x="407.12" y="-585.58" font-family="Monospace" font-size="9.00"> </text>
</a>
</g>
</g>
<!-- user -->
<g id="node4" class="node">
<title>user</title>
<g id="a_node4"><a xlink:href="https://logtalk.org/library/user_0.html" xlink:title="https://logtalk.org/library/user_0.html">
<polygon fill="cornsilk" stroke="black" points="141.62,-327.38 28.38,-327.38 28.38,-283.62 141.62,-283.62 141.62,-327.38"/>
<g id="a_node4_10"><a xlink:href="user_object_xref_diagram.svg" xlink:title="Zoom">
<image xlink:href="zoom.png" width="11px" height="11px" preserveAspectRatio="xMinYMin meet" x="36.375" y="-323.375"/>
</a>
</g>
<text text-anchor="start" x="39.25" y="-302.7" font-family="Monospace" font-size="9.00"> </text>
<text text-anchor="start" x="74.38" y="-301.93" font-family="Monospace" font-size="11.00">user</text>
<text text-anchor="start" x="128.38" y="-302.7" font-family="Monospace" font-size="9.00"> </text>
<text text-anchor="start" x="39.25" y="-290.32" font-family="Monospace" font-size="9.00"> </text>
<text text-anchor="start" x="47.38" y="-291.1" font-family="Monospace" font-size="7.00">built&#45;in prototype</text>
<text text-anchor="start" x="128.38" y="-290.32" font-family="Monospace" font-size="9.00"> </text>
</a>
</g>
</g>
<!-- user&#45;&gt;expanding -->
<g id="edge1" class="edge">
<title>user&#45;&gt;expanding</title>
<g id="a_edge1"><a xlink:href="https://logtalk.org/library/user_0.html" xlink:title="implements">
<path fill="none" stroke="black" d="M85.07,-327.43C85.23,-375.91 85.63,-496.88 85.85,-564.1"/>
<ellipse fill="black" stroke="black" cx="85.86" cy="-568.32" rx="4" ry="4"/>
</a>
</g>
<g id="a_edge1&#45;label"><a xlink:href="https://logtalk.org/library/user_0.html" xlink:title="https://logtalk.org/library/user_0.html">
<text text-anchor="start" x="85.7" y="-517.95" font-family="Monospace" font-size="9.00">implements</text>
</a>
</g>
</g>
<!-- user&#45;&gt;monitoring -->
<g id="edge3" class="edge">
<title>user&#45;&gt;monitoring</title>
<g id="a_edge3"><a xlink:href="https://logtalk.org/library/user_0.html" xlink:title="implements">
<path fill="none" stroke="black" d="M92.37,-327.75C104.6,-362.26 130.46,-432.36 158,-489.25 170.45,-514.97 186.17,-542.65 199.56,-565.11"/>
<ellipse fill="black" stroke="black" cx="201.87" cy="-568.97" rx="4" ry="4"/>
</a>
</g>
<g id="a_edge3&#45;label"><a xlink:href="https://logtalk.org/library/user_0.html" xlink:title="https://logtalk.org/library/user_0.html">
<text text-anchor="start" x="175.73" y="-517.95" font-family="Monospace" font-size="9.00">implements</text>
</a>
</g>
</g>
<!-- user&#45;&gt;forwarding -->
<g id="edge2" class="edge">
<title>user&#45;&gt;forwarding</title>
<g id="a_edge2"><a xlink:href="https://logtalk.org/library/user_0.html" xlink:title="implements">
<path fill="none" stroke="black" d="M87.62,-327.82C93.39,-365.68 110.67,-444.82 158,-489.25 181.53,-511.34 268.89,-516.99 296,-534.5 311.33,-544.39 325.49,-558.44 337,-571.81"/>
<ellipse fill="black" stroke="black" cx="339.89" cy="-575.25" rx="4" ry="4"/>
</a>
</g>
<g id="a_edge2&#45;label"><a xlink:href="https://logtalk.org/library/user_0.html" xlink:title="https://logtalk.org/library/user_0.html">
<text text-anchor="start" x="276.23" y="-517.95" font-family="Monospace" font-size="9.00">implements</text>
</a>
</g>
</g>
<!-- logtalk -->
<g id="node5" class="node">
<title>logtalk</title>
<g id="a_node5"><a xlink:href="https://logtalk.org/library/logtalk_0.html" xlink:title="https://logtalk.org/library/logtalk_0.html">
<polygon fill="cornsilk" stroke="black" points="372.12,-479.25 171.88,-479.25 171.88,-131.75 372.12,-131.75 372.12,-479.25"/>
<g id="a_node5_11"><a xlink:href="logtalk_object_xref_diagram.svg" xlink:title="Zoom">
<image xlink:href="zoom.png" width="11px" height="11px" preserveAspectRatio="xMinYMin meet" x="179.875" y="-475.25"/>
</a>
</g>
<text text-anchor="start" x="182.75" y="-454.57" font-family="Monospace" font-size="9.00"> </text>
<text text-anchor="start" x="251.25" y="-453.8" font-family="Monospace" font-size="11.00">logtalk</text>
<text text-anchor="start" x="358.88" y="-454.57" font-family="Monospace" font-size="9.00"> </text>
<text text-anchor="start" x="182.75" y="-442.2" font-family="Monospace" font-size="9.00"> </text>
<text text-anchor="start" x="234.38" y="-442.98" font-family="Monospace" font-size="7.00">built&#45;in prototype</text>
<text text-anchor="start" x="358.88" y="-442.2" font-family="Monospace" font-size="9.00"> </text>
<text text-anchor="start" x="182.75" y="-430.95" font-family="Monospace" font-size="9.00"> </text>
<text text-anchor="start" x="182.75" y="-419.7" font-family="Monospace" font-size="9.00"> </text>
<text text-anchor="start" x="235.5" y="-419.7" font-family="Monospace" font-size="9.00">print_message/3</text>
<text text-anchor="start" x="358.88" y="-419.7" font-family="Monospace" font-size="9.00"> </text>
<text text-anchor="start" x="182.75" y="-408.45" font-family="Monospace" font-size="9.00"> </text>
<text text-anchor="start" x="217.12" y="-408.45" font-family="Monospace" font-size="9.00">print_message_tokens/3</text>
<text text-anchor="start" x="358.88" y="-408.45" font-family="Monospace" font-size="9.00"> </text>
<text text-anchor="start" x="182.75" y="-397.2" font-family="Monospace" font-size="9.00"> </text>
<text text-anchor="start" x="219.75" y="-397.2" font-family="Monospace" font-size="9.00">print_message_token/4</text>
<text text-anchor="start" x="358.88" y="-397.2" font-family="Monospace" font-size="9.00"> </text>
<text text-anchor="start" x="182.75" y="-385.95" font-family="Monospace" font-size="9.00"> </text>
<text text-anchor="start" x="230.25" y="-385.95" font-family="Monospace" font-size="9.00">message_tokens//2</text>
<text text-anchor="start" x="358.88" y="-385.95" font-family="Monospace" font-size="9.00"> </text>
<text text-anchor="start" x="182.75" y="-374.7" font-family="Monospace" font-size="9.00"> </text>
<text text-anchor="start" x="214.5" y="-374.7" font-family="Monospace" font-size="9.00">message_prefix_stream/4</text>
<text text-anchor="start" x="358.88" y="-374.7" font-family="Monospace" font-size="9.00"> </text>
<text text-anchor="start" x="182.75" y="-363.45" font-family="Monospace" font-size="9.00"> </text>
<text text-anchor="start" x="238.12" y="-363.45" font-family="Monospace" font-size="9.00">message_hook/4</text>
<text text-anchor="start" x="358.88" y="-363.45" font-family="Monospace" font-size="9.00"> </text>
<text text-anchor="start" x="182.75" y="-352.2" font-family="Monospace" font-size="9.00"> </text>
<text text-anchor="start" x="238.12" y="-352.2" font-family="Monospace" font-size="9.00">ask_question/5</text>
<text text-anchor="start" x="358.88" y="-352.2" font-family="Monospace" font-size="9.00"> </text>
<text text-anchor="start" x="182.75" y="-340.95" font-family="Monospace" font-size="9.00"> </text>
<text text-anchor="start" x="235.5" y="-340.95" font-family="Monospace" font-size="9.00">question_hook/6</text>
<text text-anchor="start" x="358.88" y="-340.95" font-family="Monospace" font-size="9.00"> </text>
<text text-anchor="start" x="182.75" y="-329.7" font-family="Monospace" font-size="9.00"> </text>
<text text-anchor="start" x="211.88" y="-329.7" font-family="Monospace" font-size="9.00">question_prompt_stream/4</text>
<text text-anchor="start" x="358.88" y="-329.7" font-family="Monospace" font-size="9.00"> </text>
<text text-anchor="start" x="182.75" y="-318.45" font-family="Monospace" font-size="9.00"> </text>
<text text-anchor="start" x="240.75" y="-318.45" font-family="Monospace" font-size="9.00">trace_event/2</text>
<text text-anchor="start" x="358.88" y="-318.45" font-family="Monospace" font-size="9.00"> </text>
<text text-anchor="start" x="182.75" y="-307.2" font-family="Monospace" font-size="9.00"> </text>
<text text-anchor="start" x="235.5" y="-307.2" font-family="Monospace" font-size="9.00">debug_handler/1</text>
<text text-anchor="start" x="358.88" y="-307.2" font-family="Monospace" font-size="9.00"> </text>
<text text-anchor="start" x="182.75" y="-295.95" font-family="Monospace" font-size="9.00"> </text>
<text text-anchor="start" x="217.12" y="-295.95" font-family="Monospace" font-size="9.00">active_debug_handler/1</text>
<text text-anchor="start" x="358.88" y="-295.95" font-family="Monospace" font-size="9.00"> </text>
<text text-anchor="start" x="182.75" y="-284.7" font-family="Monospace" font-size="9.00"> </text>
<text text-anchor="start" x="211.88" y="-284.7" font-family="Monospace" font-size="9.00">activate_debug_handler/1</text>
<text text-anchor="start" x="358.88" y="-284.7" font-family="Monospace" font-size="9.00"> </text>
<text text-anchor="start" x="182.75" y="-273.45" font-family="Monospace" font-size="9.00"> </text>
<text text-anchor="start" x="206.62" y="-273.45" font-family="Monospace" font-size="9.00">deactivate_debug_handler/0</text>
<text text-anchor="start" x="358.88" y="-273.45" font-family="Monospace" font-size="9.00"> </text>
<text text-anchor="start" x="182.75" y="-262.2" font-family="Monospace" font-size="9.00"> </text>
<text text-anchor="start" x="235.5" y="-262.2" font-family="Monospace" font-size="9.00">debug_handler/3</text>
<text text-anchor="start" x="358.88" y="-262.2" font-family="Monospace" font-size="9.00"> </text>
<text text-anchor="start" x="182.75" y="-250.95" font-family="Monospace" font-size="9.00"> </text>
<text text-anchor="start" x="219.75" y="-250.95" font-family="Monospace" font-size="9.00">expand_library_path/2</text>
<text text-anchor="start" x="358.88" y="-250.95" font-family="Monospace" font-size="9.00"> </text>
<text text-anchor="start" x="182.75" y="-239.7" font-family="Monospace" font-size="9.00"> </text>
<text text-anchor="start" x="240.75" y="-239.7" font-family="Monospace" font-size="9.00">loaded_file/1</text>
<text text-anchor="start" x="358.88" y="-239.7" font-family="Monospace" font-size="9.00"> </text>
<text text-anchor="start" x="182.75" y="-228.45" font-family="Monospace" font-size="9.00"> </text>
<text text-anchor="start" x="217.12" y="-228.45" font-family="Monospace" font-size="9.00">loaded_file_property/2</text>
<text text-anchor="start" x="358.88" y="-228.45" font-family="Monospace" font-size="9.00"> </text>
<text text-anchor="start" x="182.75" y="-217.2" font-family="Monospace" font-size="9.00"> </text>
<text text-anchor="start" x="219.75" y="-217.2" font-family="Monospace" font-size="9.00">file_type_extension/2</text>
<text text-anchor="start" x="358.88" y="-217.2" font-family="Monospace" font-size="9.00"> </text>
<text text-anchor="start" x="182.75" y="-205.95" font-family="Monospace" font-size="9.00"> </text>
<text text-anchor="start" x="219.75" y="-205.95" font-family="Monospace" font-size="9.00">compile_aux_clauses/1</text>
<text text-anchor="start" x="358.88" y="-205.95" font-family="Monospace" font-size="9.00"> </text>
<text text-anchor="start" x="182.75" y="-194.7" font-family="Monospace" font-size="9.00"> </text>
<text text-anchor="start" x="235.5" y="-194.7" font-family="Monospace" font-size="9.00">entity_prefix/2</text>
<text text-anchor="start" x="358.88" y="-194.7" font-family="Monospace" font-size="9.00"> </text>
<text text-anchor="start" x="182.75" y="-183.45" font-family="Monospace" font-size="9.00"> </text>
<text text-anchor="start" x="209.25" y="-183.45" font-family="Monospace" font-size="9.00">compile_predicate_heads/4</text>
<text text-anchor="start" x="358.88" y="-183.45" font-family="Monospace" font-size="9.00"> </text>
<text text-anchor="start" x="182.75" y="-172.2" font-family="Monospace" font-size="9.00"> </text>
<text text-anchor="start" x="196.12" y="-172.2" font-family="Monospace" font-size="9.00">compile_predicate_indicators/3</text>
<text text-anchor="start" x="358.88" y="-172.2" font-family="Monospace" font-size="9.00"> </text>
<text text-anchor="start" x="182.75" y="-160.95" font-family="Monospace" font-size="9.00"> </text>
<text text-anchor="start" x="204" y="-160.95" font-family="Monospace" font-size="9.00">decompile_predicate_heads/4</text>
<text text-anchor="start" x="358.88" y="-160.95" font-family="Monospace" font-size="9.00"> </text>
<text text-anchor="start" x="182.75" y="-149.7" font-family="Monospace" font-size="9.00"> </text>
<text text-anchor="start" x="190.88" y="-149.7" font-family="Monospace" font-size="9.00">decompile_predicate_indicators/4</text>
<text text-anchor="start" x="358.88" y="-149.7" font-family="Monospace" font-size="9.00"> </text>
<text text-anchor="start" x="182.75" y="-138.45" font-family="Monospace" font-size="9.00"> </text>
<text text-anchor="start" x="225" y="-138.45" font-family="Monospace" font-size="9.00">execution_context/7</text>
<text text-anchor="start" x="358.88" y="-138.45" font-family="Monospace" font-size="9.00"> </text>
</a>
</g>
</g>
<!-- core_messages -->
<g id="node6" class="node">
<title>core_messages</title>
<g id="a_node6"><a xlink:href="https://logtalk.org/library/core_messages_0.html" xlink:title="https://logtalk.org/library/core_messages_0.html">
<polygon fill="lightcyan" stroke="black" points="602.12,-344.25 401.88,-344.25 401.88,-340.25 397.88,-340.25 397.88,-336.25 401.88,-336.25 401.88,-274.75 397.88,-274.75 397.88,-270.75 401.88,-270.75 401.88,-266.75 602.12,-266.75 602.12,-344.25"/>
<polyline fill="none" stroke="black" points="401.88,-340.25 405.88,-340.25 405.88,-336.25 401.88,-336.25"/>
<polyline fill="none" stroke="black" points="401.88,-274.75 405.88,-274.75 405.88,-270.75 401.88,-270.75"/>
<g id="a_node6_12"><a xlink:href="core_messages_category_xref_diagram.svg" xlink:title="Zoom">
<image xlink:href="zoom.png" width="11px" height="11px" preserveAspectRatio="xMinYMin meet" x="409.875" y="-340.25"/>
</a>
</g>
<text text-anchor="start" x="412.75" y="-319.57" font-family="Monospace" font-size="9.00"> </text>
<text text-anchor="start" x="461" y="-318.8" font-family="Monospace" font-size="11.00">core_messages</text>
<text text-anchor="start" x="588.88" y="-319.57" font-family="Monospace" font-size="9.00"> </text>
<text text-anchor="start" x="412.75" y="-307.2" font-family="Monospace" font-size="9.00"> </text>
<text text-anchor="start" x="466.62" y="-307.98" font-family="Monospace" font-size="7.00">built&#45;in category</text>
<text text-anchor="start" x="588.88" y="-307.2" font-family="Monospace" font-size="9.00"> </text>
<text text-anchor="start" x="412.75" y="-295.95" font-family="Monospace" font-size="9.00"> </text>
<text text-anchor="start" x="412.75" y="-284.7" font-family="Monospace" font-size="9.00"> </text>
<text text-anchor="start" x="420.88" y="-284.7" font-family="Monospace" font-size="9.00">logtalk::message_prefix_stream/4</text>
<text text-anchor="start" x="588.88" y="-284.7" font-family="Monospace" font-size="9.00"> </text>
<text text-anchor="start" x="412.75" y="-273.45" font-family="Monospace" font-size="9.00"> </text>
<text text-anchor="start" x="436.62" y="-273.45" font-family="Monospace" font-size="9.00">logtalk::message_tokens//2</text>
<text text-anchor="start" x="588.88" y="-273.45" font-family="Monospace" font-size="9.00"> </text>
</a>
</g>
</g>
</g>
</svg>
