<?xml version="1.0" encoding="UTF-8" standalone="no"?>
<!DOCTYPE svg PUBLIC "-//W3C//DTD SVG 1.1//EN"
 "http://www.w3.org/Graphics/SVG/1.1/DTD/svg11.dtd">
<!-- Generated by graphviz version 2.40.1 (20161225.0304)
 -->
<!-- Title: core Pages: 1 -->
<svg width="920pt" height="809pt"
 viewBox="72.00 72.00 848.00 737.00" xmlns="http://www.w3.org/2000/svg" xmlns:xlink="http://www.w3.org/1999/xlink">
<g id="graph0" class="graph" transform="scale(1 1) rotate(0) translate(76 733)">
<title>core</title>
<polygon fill="#ffffff" stroke="transparent" points="-4,4 -4,-661 772,-661 772,4 -4,4"/>
<text text-anchor="start" x="8" y="-18" font-family="Courier,monospace" font-size="10.00" fill="#8b8989">Logtalk core entities</text>
<text text-anchor="start" x="8" y="-7" font-family="Courier,monospace" font-size="10.00" fill="#8b8989">Generated on 2019/04/17, 15:28</text>
<g id="clust1" class="cluster">
<title>cluster_library_core</title>
<g id="a_clust1"><a xlink:href="https://github.com/LogtalkDotOrg/logtalk3/tree/master/core/" xlink:title="https://github.com/LogtalkDotOrg/logtalk3/tree/master/core/">
<path fill="#eee9e9" stroke="#8b8989" d="M20,-38C20,-38 748,-38 748,-38 754,-38 760,-44 760,-50 760,-50 760,-637 760,-637 760,-643 754,-649 748,-649 748,-649 20,-649 20,-649 14,-649 8,-643 8,-637 8,-637 8,-50 8,-50 8,-44 14,-38 20,-38"/>
<text text-anchor="middle" x="31.5" y="-45" font-family="Courier,monospace" font-size="10.00" fill="#8b8989">core/</text>
</a>
</g>
</g>
<g id="clust2" class="cluster">
<title>cluster_file_/opt/local/share/logtalk/core/expanding.lgt</title>
<g id="a_clust2"><a xlink:href="https://github.com/LogtalkDotOrg/logtalk3/tree/master/core/expanding.lgt" xlink:title="https://github.com/LogtalkDotOrg/logtalk3/tree/master/core/expanding.lgt">
<path fill="#fffafa" stroke="#8b8989" d="M440,-540C440,-540 552,-540 552,-540 558,-540 564,-546 564,-552 564,-552 564,-627 564,-627 564,-633 558,-639 552,-639 552,-639 440,-639 440,-639 434,-639 428,-633 428,-627 428,-627 428,-552 428,-552 428,-546 434,-540 440,-540"/>
<text text-anchor="middle" x="475.5" y="-547" font-family="Courier,monospace" font-size="10.00" fill="#8b8989">expanding.lgt</text>
</a>
</g>
</g>
<g id="clust3" class="cluster">
<title>cluster_file_/opt/local/share/logtalk/core/monitoring.lgt</title>
<g id="a_clust3"><a xlink:href="https://github.com/LogtalkDotOrg/logtalk3/tree/master/core/monitoring.lgt" xlink:title="https://github.com/LogtalkDotOrg/logtalk3/tree/master/core/monitoring.lgt">
<path fill="#fffafa" stroke="#8b8989" d="M642,-177.5C642,-177.5 738,-177.5 738,-177.5 744,-177.5 750,-183.5 750,-189.5 750,-189.5 750,-264.5 750,-264.5 750,-270.5 744,-276.5 738,-276.5 738,-276.5 642,-276.5 642,-276.5 636,-276.5 630,-270.5 630,-264.5 630,-264.5 630,-189.5 630,-189.5 630,-183.5 636,-177.5 642,-177.5"/>
<text text-anchor="middle" x="680.5" y="-184.5" font-family="Courier,monospace" font-size="10.00" fill="#8b8989">monitoring.lgt</text>
</a>
</g>
</g>
<g id="clust4" class="cluster">
<title>cluster_file_/opt/local/share/logtalk/core/forwarding.lgt</title>
<g id="a_clust4"><a xlink:href="https://github.com/LogtalkDotOrg/logtalk3/tree/master/core/forwarding.lgt" xlink:title="https://github.com/LogtalkDotOrg/logtalk3/tree/master/core/forwarding.lgt">
<path fill="#fffafa" stroke="#8b8989" d="M586,-545C586,-545 682,-545 682,-545 688,-545 694,-551 694,-557 694,-557 694,-622 694,-622 694,-628 688,-634 682,-634 682,-634 586,-634 586,-634 580,-634 574,-628 574,-622 574,-622 574,-557 574,-557 574,-551 580,-545 586,-545"/>
<text text-anchor="middle" x="624.5" y="-552" font-family="Courier,monospace" font-size="10.00" fill="#8b8989">forwarding.lgt</text>
</a>
</g>
</g>
<g id="clust5" class="cluster">
<title>cluster_file_/opt/local/share/logtalk/core/user.lgt</title>
<g id="a_clust5"><a xlink:href="https://github.com/LogtalkDotOrg/logtalk3/tree/master/core/user.lgt" xlink:title="https://github.com/LogtalkDotOrg/logtalk3/tree/master/core/user.lgt">
<path fill="#fffafa" stroke="#8b8989" d="M502,-187C502,-187 608,-187 608,-187 614,-187 620,-193 620,-199 620,-199 620,-255 620,-255 620,-261 614,-267 608,-267 608,-267 502,-267 502,-267 496,-267 490,-261 490,-255 490,-255 490,-199 490,-199 490,-193 496,-187 502,-187"/>
<text text-anchor="middle" x="522.5" y="-194" font-family="Courier,monospace" font-size="10.00" fill="#8b8989">user.lgt</text>
</a>
</g>
</g>
<g id="clust6" class="cluster">
<title>cluster_file_/opt/local/share/logtalk/core/logtalk.lgt</title>
<g id="a_clust6"><a xlink:href="https://github.com/LogtalkDotOrg/logtalk3/tree/master/core/logtalk.lgt" xlink:title="https://github.com/LogtalkDotOrg/logtalk3/tree/master/core/logtalk.lgt">
<path fill="#fffafa" stroke="#8b8989" d="M266,-67C266,-67 468,-67 468,-67 474,-67 480,-73 480,-79 480,-79 480,-375 480,-375 480,-381 474,-387 468,-387 468,-387 266,-387 266,-387 260,-387 254,-381 254,-375 254,-375 254,-79 254,-79 254,-73 260,-67 266,-67"/>
<text text-anchor="middle" x="295.5" y="-74" font-family="Courier,monospace" font-size="10.00" fill="#8b8989">logtalk.lgt</text>
</a>
</g>
</g>
<g id="clust7" class="cluster">
<title>cluster_file_/opt/local/share/logtalk/core/core_messages.lgt</title>
<g id="a_clust7"><a xlink:href="https://github.com/LogtalkDotOrg/logtalk3/tree/master/core/core_messages.lgt" xlink:title="https://github.com/LogtalkDotOrg/logtalk3/tree/master/core/core_messages.lgt">
<path fill="#fffafa" stroke="#8b8989" d="M30,-172C30,-172 232,-172 232,-172 238,-172 244,-178 244,-184 244,-184 244,-270 244,-270 244,-276 238,-282 232,-282 232,-282 30,-282 30,-282 24,-282 18,-276 18,-270 18,-270 18,-184 18,-184 18,-178 24,-172 30,-172"/>
<text text-anchor="middle" x="77.5" y="-179" font-family="Courier,monospace" font-size="10.00" fill="#8b8989">core_messages.lgt</text>
</a>
</g>
</g>
<!-- expanding -->
<g id="node1" class="node">
<title>expanding</title>
<g id="a_node1"><a xlink:href="https://logtalk.org/library/expanding_0.html" xlink:title="https://logtalk.org/library/expanding_0.html">
<polygon fill="#7fffd4" stroke="#000000" points="547.5,-629 438.5,-629 438.5,-569 553.5,-569 553.5,-623 547.5,-629"/>
<polyline fill="none" stroke="#000000" points="547.5,-629 547.5,-623 "/>
<polyline fill="none" stroke="#000000" points="553.5,-623 547.5,-623 "/>
<text text-anchor="start" x="447" y="-616.8" font-family="Courier,monospace" font-size="9.00" fill="#000000"> </text>
<text text-anchor="start" x="466.5" y="-616.2" font-family="Courier,monospace" font-size="11.00" fill="#000000">expanding</text>
<text text-anchor="start" x="540" y="-616.8" font-family="Courier,monospace" font-size="9.00" fill="#000000"> </text>
<text text-anchor="start" x="447" y="-605.8" font-family="Courier,monospace" font-size="9.00" fill="#000000"> </text>
<text text-anchor="start" x="460.5" y="-606.4" font-family="Courier,monospace" font-size="7.00" fill="#000000">built&#45;in protocol</text>
<text text-anchor="start" x="540" y="-605.8" font-family="Courier,monospace" font-size="9.00" fill="#000000"> </text>
<text text-anchor="start" x="447" y="-595.8" font-family="Courier,monospace" font-size="9.00" fill="#000000"> </text>
<text text-anchor="start" x="447" y="-585.8" font-family="Courier,monospace" font-size="9.00" fill="#000000"> </text>
<text text-anchor="start" x="453" y="-585.8" font-family="Courier,monospace" font-size="9.00" fill="#000000">goal_expansion/2</text>
<text text-anchor="start" x="540" y="-585.8" font-family="Courier,monospace" font-size="9.00" fill="#000000"> </text>
<text text-anchor="start" x="447" y="-575.8" font-family="Courier,monospace" font-size="9.00" fill="#000000"> </text>
<text text-anchor="start" x="453" y="-575.8" font-family="Courier,monospace" font-size="9.00" fill="#000000">term_expansion/2</text>
<text text-anchor="start" x="540" y="-575.8" font-family="Courier,monospace" font-size="9.00" fill="#000000"> </text>
</a>
</g>
</g>
<!-- monitoring -->
<g id="node2" class="node">
<title>monitoring</title>
<g id="a_node2"><a xlink:href="https://logtalk.org/library/monitoring_0.html" xlink:title="https://logtalk.org/library/monitoring_0.html">
<polygon fill="#7fffd4" stroke="#000000" points="734,-266.5 640,-266.5 640,-206.5 740,-206.5 740,-260.5 734,-266.5"/>
<polyline fill="none" stroke="#000000" points="734,-266.5 734,-260.5 "/>
<polyline fill="none" stroke="#000000" points="740,-260.5 734,-260.5 "/>
<text text-anchor="start" x="648" y="-254.3" font-family="Courier,monospace" font-size="9.00" fill="#000000"> </text>
<text text-anchor="start" x="656.5" y="-253.7" font-family="Courier,monospace" font-size="11.00" fill="#000000">monitoring</text>
<text text-anchor="start" x="726" y="-254.3" font-family="Courier,monospace" font-size="9.00" fill="#000000"> </text>
<text text-anchor="start" x="648" y="-243.3" font-family="Courier,monospace" font-size="9.00" fill="#000000"> </text>
<text text-anchor="start" x="654" y="-243.9" font-family="Courier,monospace" font-size="7.00" fill="#000000">built&#45;in protocol</text>
<text text-anchor="start" x="726" y="-243.3" font-family="Courier,monospace" font-size="9.00" fill="#000000"> </text>
<text text-anchor="start" x="648" y="-233.3" font-family="Courier,monospace" font-size="9.00" fill="#000000"> </text>
<text text-anchor="start" x="648" y="-223.3" font-family="Courier,monospace" font-size="9.00" fill="#000000"> </text>
<text text-anchor="start" x="668" y="-223.3" font-family="Courier,monospace" font-size="9.00" fill="#000000">before/3</text>
<text text-anchor="start" x="726" y="-223.3" font-family="Courier,monospace" font-size="9.00" fill="#000000"> </text>
<text text-anchor="start" x="648" y="-213.3" font-family="Courier,monospace" font-size="9.00" fill="#000000"> </text>
<text text-anchor="start" x="671" y="-213.3" font-family="Courier,monospace" font-size="9.00" fill="#000000">after/3</text>
<text text-anchor="start" x="726" y="-213.3" font-family="Courier,monospace" font-size="9.00" fill="#000000"> </text>
</a>
</g>
</g>
<!-- forwarding -->
<g id="node3" class="node">
<title>forwarding</title>
<g id="a_node3"><a xlink:href="https://logtalk.org/library/forwarding_0.html" xlink:title="https://logtalk.org/library/forwarding_0.html">
<polygon fill="#7fffd4" stroke="#000000" points="678,-624 584,-624 584,-574 684,-574 684,-618 678,-624"/>
<polyline fill="none" stroke="#000000" points="678,-624 678,-618 "/>
<polyline fill="none" stroke="#000000" points="684,-618 678,-618 "/>
<text text-anchor="start" x="592" y="-611.8" font-family="Courier,monospace" font-size="9.00" fill="#000000"> </text>
<text text-anchor="start" x="600.5" y="-611.2" font-family="Courier,monospace" font-size="11.00" fill="#000000">forwarding</text>
<text text-anchor="start" x="670" y="-611.8" font-family="Courier,monospace" font-size="9.00" fill="#000000"> </text>
<text text-anchor="start" x="592" y="-600.8" font-family="Courier,monospace" font-size="9.00" fill="#000000"> </text>
<text text-anchor="start" x="598" y="-601.4" font-family="Courier,monospace" font-size="7.00" fill="#000000">built&#45;in protocol</text>
<text text-anchor="start" x="670" y="-600.8" font-family="Courier,monospace" font-size="9.00" fill="#000000"> </text>
<text text-anchor="start" x="592" y="-590.8" font-family="Courier,monospace" font-size="9.00" fill="#000000"> </text>
<text text-anchor="start" x="592" y="-580.8" font-family="Courier,monospace" font-size="9.00" fill="#000000"> </text>
<text text-anchor="start" x="609.5" y="-580.8" font-family="Courier,monospace" font-size="9.00" fill="#000000">forward/1</text>
<text text-anchor="start" x="670" y="-580.8" font-family="Courier,monospace" font-size="9.00" fill="#000000"> </text>
</a>
</g>
</g>
<!-- user -->
<g id="node4" class="node">
<title>user</title>
<g id="a_node4"><a xlink:href="https://logtalk.org/library/user_0.html" xlink:title="https://logtalk.org/library/user_0.html">
<polygon fill="#f5f5dc" stroke="#000000" points="609.5,-257 500.5,-257 500.5,-216 609.5,-216 609.5,-257"/>
<g id="a_node4_0"><a xlink:href="user_object_xref_diagram.svg" xlink:title="Zoom">
<image xlink:href="zoom.png" width="11px" height="11px" preserveAspectRatio="xMinYMin meet" x="509" y="-252.5"/>
</a>
</g>
<text text-anchor="start" x="511.5" y="-233.3" font-family="Courier,monospace" font-size="9.00" fill="#000000"> </text>
<text text-anchor="start" x="544.5" y="-232.7" font-family="Courier,monospace" font-size="11.00" fill="#000000">user</text>
<text text-anchor="start" x="596" y="-233.3" font-family="Courier,monospace" font-size="9.00" fill="#000000"> </text>
<text text-anchor="start" x="511.5" y="-222.3" font-family="Courier,monospace" font-size="9.00" fill="#000000"> </text>
<text text-anchor="start" x="520" y="-222.9" font-family="Courier,monospace" font-size="7.00" fill="#000000">built&#45;in prototype</text>
<text text-anchor="start" x="596" y="-222.3" font-family="Courier,monospace" font-size="9.00" fill="#000000"> </text>
</a>
</g>
</g>
<!-- user&#45;&gt;expanding -->
<g id="edge1" class="edge">
<title>user&#45;&gt;expanding</title>
<g id="a_edge1"><a xlink:href="https://logtalk.org/library/user_0.html" xlink:title="implements">
<path fill="none" stroke="#000000" d="M551.6589,-257.0282C542.1097,-315.6989 514.5918,-484.7708 502.1903,-560.9662"/>
<ellipse fill="#000000" stroke="#000000" cx="501.5391" cy="-564.9675" rx="4" ry="4"/>
</a>
</g>
<g id="a_edge1&#45;label"><a xlink:href="https://logtalk.org/library/user_0.html" xlink:title="https://logtalk.org/library/user_0.html">
<text text-anchor="start" x="517" y="-470.8" font-family="Courier,monospace" font-size="9.00" fill="#000000">implements</text>
</a>
</g>
</g>
<!-- user&#45;&gt;forwarding -->
<g id="edge2" class="edge">
<title>user&#45;&gt;forwarding</title>
<g id="a_edge2"><a xlink:href="https://logtalk.org/library/user_0.html" xlink:title="implements">
<path fill="none" stroke="#000000" d="M559.4737,-257.0282C572.5169,-316.8781 610.5967,-491.6115 626.6876,-565.4462"/>
<ellipse fill="#000000" stroke="#000000" cx="627.5956" cy="-569.6127" rx="4" ry="4"/>
</a>
</g>
<g id="a_edge2&#45;label"><a xlink:href="https://logtalk.org/library/user_0.html" xlink:title="https://logtalk.org/library/user_0.html">
<text text-anchor="start" x="607" y="-470.8" font-family="Courier,monospace" font-size="9.00" fill="#000000">implements</text>
</a>
</g>
</g>
<!-- logtalk -->
<g id="node5" class="node">
<title>logtalk</title>
<g id="a_node5"><a xlink:href="https://logtalk.org/library/logtalk_0.html" xlink:title="https://logtalk.org/library/logtalk_0.html">
<polygon fill="#f5f5dc" stroke="#000000" points="470,-377 264,-377 264,-96 470,-96 470,-377"/>
<g id="a_node5_1"><a xlink:href="logtalk_object_xref_diagram.svg" xlink:title="Zoom">
<image xlink:href="zoom.png" width="11px" height="11px" preserveAspectRatio="xMinYMin meet" x="272" y="-372.5"/>
</a>
</g>
<text text-anchor="start" x="274.5" y="-353.3" font-family="Courier,monospace" font-size="9.00" fill="#000000"> </text>
<text text-anchor="start" x="346" y="-352.7" font-family="Courier,monospace" font-size="11.00" fill="#000000">logtalk</text>
<text text-anchor="start" x="456" y="-353.3" font-family="Courier,monospace" font-size="9.00" fill="#000000"> </text>
<text text-anchor="start" x="274.5" y="-342.3" font-family="Courier,monospace" font-size="9.00" fill="#000000"> </text>
<text text-anchor="start" x="331.5" y="-342.9" font-family="Courier,monospace" font-size="7.00" fill="#000000">built&#45;in prototype</text>
<text text-anchor="start" x="456" y="-342.3" font-family="Courier,monospace" font-size="9.00" fill="#000000"> </text>
<text text-anchor="start" x="274.5" y="-332.3" font-family="Courier,monospace" font-size="9.00" fill="#000000"> </text>
<text text-anchor="start" x="274.5" y="-322.3" font-family="Courier,monospace" font-size="9.00" fill="#000000"> </text>
<text text-anchor="start" x="328.5" y="-322.3" font-family="Courier,monospace" font-size="9.00" fill="#000000">print_message/3</text>
<text text-anchor="start" x="456" y="-322.3" font-family="Courier,monospace" font-size="9.00" fill="#000000"> </text>
<text text-anchor="start" x="274.5" y="-312.3" font-family="Courier,monospace" font-size="9.00" fill="#000000"> </text>
<text text-anchor="start" x="310" y="-312.3" font-family="Courier,monospace" font-size="9.00" fill="#000000">print_message_tokens/3</text>
<text text-anchor="start" x="456" y="-312.3" font-family="Courier,monospace" font-size="9.00" fill="#000000"> </text>
<text text-anchor="start" x="274.5" y="-302.3" font-family="Courier,monospace" font-size="9.00" fill="#000000"> </text>
<text text-anchor="start" x="312.5" y="-302.3" font-family="Courier,monospace" font-size="9.00" fill="#000000">print_message_token/4</text>
<text text-anchor="start" x="456" y="-302.3" font-family="Courier,monospace" font-size="9.00" fill="#000000"> </text>
<text text-anchor="start" x="274.5" y="-292.3" font-family="Courier,monospace" font-size="9.00" fill="#000000"> </text>
<text text-anchor="start" x="323.5" y="-292.3" font-family="Courier,monospace" font-size="9.00" fill="#000000">message_tokens//2</text>
<text text-anchor="start" x="456" y="-292.3" font-family="Courier,monospace" font-size="9.00" fill="#000000"> </text>
<text text-anchor="start" x="274.5" y="-282.3" font-family="Courier,monospace" font-size="9.00" fill="#000000"> </text>
<text text-anchor="start" x="307" y="-282.3" font-family="Courier,monospace" font-size="9.00" fill="#000000">message_prefix_stream/4</text>
<text text-anchor="start" x="456" y="-282.3" font-family="Courier,monospace" font-size="9.00" fill="#000000"> </text>
<text text-anchor="start" x="274.5" y="-272.3" font-family="Courier,monospace" font-size="9.00" fill="#000000"> </text>
<text text-anchor="start" x="331.5" y="-272.3" font-family="Courier,monospace" font-size="9.00" fill="#000000">message_hook/4</text>
<text text-anchor="start" x="456" y="-272.3" font-family="Courier,monospace" font-size="9.00" fill="#000000"> </text>
<text text-anchor="start" x="274.5" y="-262.3" font-family="Courier,monospace" font-size="9.00" fill="#000000"> </text>
<text text-anchor="start" x="331.5" y="-262.3" font-family="Courier,monospace" font-size="9.00" fill="#000000">ask_question/5</text>
<text text-anchor="start" x="456" y="-262.3" font-family="Courier,monospace" font-size="9.00" fill="#000000"> </text>
<text text-anchor="start" x="274.5" y="-252.3" font-family="Courier,monospace" font-size="9.00" fill="#000000"> </text>
<text text-anchor="start" x="328.5" y="-252.3" font-family="Courier,monospace" font-size="9.00" fill="#000000">question_hook/6</text>
<text text-anchor="start" x="456" y="-252.3" font-family="Courier,monospace" font-size="9.00" fill="#000000"> </text>
<text text-anchor="start" x="274.5" y="-242.3" font-family="Courier,monospace" font-size="9.00" fill="#000000"> </text>
<text text-anchor="start" x="304.5" y="-242.3" font-family="Courier,monospace" font-size="9.00" fill="#000000">question_prompt_stream/4</text>
<text text-anchor="start" x="456" y="-242.3" font-family="Courier,monospace" font-size="9.00" fill="#000000"> </text>
<text text-anchor="start" x="274.5" y="-232.3" font-family="Courier,monospace" font-size="9.00" fill="#000000"> </text>
<text text-anchor="start" x="334" y="-232.3" font-family="Courier,monospace" font-size="9.00" fill="#000000">trace_event/2</text>
<text text-anchor="start" x="456" y="-232.3" font-family="Courier,monospace" font-size="9.00" fill="#000000"> </text>
<text text-anchor="start" x="274.5" y="-222.3" font-family="Courier,monospace" font-size="9.00" fill="#000000"> </text>
<text text-anchor="start" x="304.5" y="-222.3" font-family="Courier,monospace" font-size="9.00" fill="#000000">debug_handler_provider/1</text>
<text text-anchor="start" x="456" y="-222.3" font-family="Courier,monospace" font-size="9.00" fill="#000000"> </text>
<text text-anchor="start" x="274.5" y="-212.3" font-family="Courier,monospace" font-size="9.00" fill="#000000"> </text>
<text text-anchor="start" x="328.5" y="-212.3" font-family="Courier,monospace" font-size="9.00" fill="#000000">debug_handler/2</text>
<text text-anchor="start" x="456" y="-212.3" font-family="Courier,monospace" font-size="9.00" fill="#000000"> </text>
<text text-anchor="start" x="274.5" y="-202.3" font-family="Courier,monospace" font-size="9.00" fill="#000000"> </text>
<text text-anchor="start" x="312.5" y="-202.3" font-family="Courier,monospace" font-size="9.00" fill="#000000">expand_library_path/2</text>
<text text-anchor="start" x="456" y="-202.3" font-family="Courier,monospace" font-size="9.00" fill="#000000"> </text>
<text text-anchor="start" x="274.5" y="-192.3" font-family="Courier,monospace" font-size="9.00" fill="#000000"> </text>
<text text-anchor="start" x="334" y="-192.3" font-family="Courier,monospace" font-size="9.00" fill="#000000">loaded_file/1</text>
<text text-anchor="start" x="456" y="-192.3" font-family="Courier,monospace" font-size="9.00" fill="#000000"> </text>
<text text-anchor="start" x="274.5" y="-182.3" font-family="Courier,monospace" font-size="9.00" fill="#000000"> </text>
<text text-anchor="start" x="310" y="-182.3" font-family="Courier,monospace" font-size="9.00" fill="#000000">loaded_file_property/2</text>
<text text-anchor="start" x="456" y="-182.3" font-family="Courier,monospace" font-size="9.00" fill="#000000"> </text>
<text text-anchor="start" x="274.5" y="-172.3" font-family="Courier,monospace" font-size="9.00" fill="#000000"> </text>
<text text-anchor="start" x="312.5" y="-172.3" font-family="Courier,monospace" font-size="9.00" fill="#000000">file_type_extension/2</text>
<text text-anchor="start" x="456" y="-172.3" font-family="Courier,monospace" font-size="9.00" fill="#000000"> </text>
<text text-anchor="start" x="274.5" y="-162.3" font-family="Courier,monospace" font-size="9.00" fill="#000000"> </text>
<text text-anchor="start" x="312.5" y="-162.3" font-family="Courier,monospace" font-size="9.00" fill="#000000">compile_aux_clauses/1</text>
<text text-anchor="start" x="456" y="-162.3" font-family="Courier,monospace" font-size="9.00" fill="#000000"> </text>
<text text-anchor="start" x="274.5" y="-152.3" font-family="Courier,monospace" font-size="9.00" fill="#000000"> </text>
<text text-anchor="start" x="328.5" y="-152.3" font-family="Courier,monospace" font-size="9.00" fill="#000000">entity_prefix/2</text>
<text text-anchor="start" x="456" y="-152.3" font-family="Courier,monospace" font-size="9.00" fill="#000000"> </text>
<text text-anchor="start" x="274.5" y="-142.3" font-family="Courier,monospace" font-size="9.00" fill="#000000"> </text>
<text text-anchor="start" x="301.5" y="-142.3" font-family="Courier,monospace" font-size="9.00" fill="#000000">compile_predicate_heads/4</text>
<text text-anchor="start" x="456" y="-142.3" font-family="Courier,monospace" font-size="9.00" fill="#000000"> </text>
<text text-anchor="start" x="274.5" y="-132.3" font-family="Courier,monospace" font-size="9.00" fill="#000000"> </text>
<text text-anchor="start" x="288" y="-132.3" font-family="Courier,monospace" font-size="9.00" fill="#000000">compile_predicate_indicators/3</text>
<text text-anchor="start" x="456" y="-132.3" font-family="Courier,monospace" font-size="9.00" fill="#000000"> </text>
<text text-anchor="start" x="274.5" y="-122.3" font-family="Courier,monospace" font-size="9.00" fill="#000000"> </text>
<text text-anchor="start" x="296.5" y="-122.3" font-family="Courier,monospace" font-size="9.00" fill="#000000">decompile_predicate_heads/4</text>
<text text-anchor="start" x="456" y="-122.3" font-family="Courier,monospace" font-size="9.00" fill="#000000"> </text>
<text text-anchor="start" x="274.5" y="-112.3" font-family="Courier,monospace" font-size="9.00" fill="#000000"> </text>
<text text-anchor="start" x="283" y="-112.3" font-family="Courier,monospace" font-size="9.00" fill="#000000">decompile_predicate_indicators/4</text>
<text text-anchor="start" x="456" y="-112.3" font-family="Courier,monospace" font-size="9.00" fill="#000000"> </text>
<text text-anchor="start" x="274.5" y="-102.3" font-family="Courier,monospace" font-size="9.00" fill="#000000"> </text>
<text text-anchor="start" x="318" y="-102.3" font-family="Courier,monospace" font-size="9.00" fill="#000000">execution_context/7</text>
<text text-anchor="start" x="456" y="-102.3" font-family="Courier,monospace" font-size="9.00" fill="#000000"> </text>
</a>
</g>
</g>
<!-- core_messages -->
<g id="node6" class="node">
<title>core_messages</title>
<g id="a_node6"><a xlink:href="https://logtalk.org/library/core_messages_0.html" xlink:title="https://logtalk.org/library/core_messages_0.html">
<polygon fill="#e0ffff" stroke="#000000" points="234,-272 28,-272 28,-268 24,-268 24,-264 28,-264 28,-209 24,-209 24,-205 28,-205 28,-201 234,-201 234,-272"/>
<polyline fill="none" stroke="#000000" points="28,-268 32,-268 32,-264 28,-264 "/>
<polyline fill="none" stroke="#000000" points="28,-209 32,-209 32,-205 28,-205 "/>
<g id="a_node6_2"><a xlink:href="core_messages_category_xref_diagram.svg" xlink:title="Zoom">
<image xlink:href="zoom.png" width="11px" height="11px" preserveAspectRatio="xMinYMin meet" x="36" y="-267.5"/>
</a>
</g>
<text text-anchor="start" x="38.5" y="-248.3" font-family="Courier,monospace" font-size="9.00" fill="#000000"> </text>
<text text-anchor="start" x="90.5" y="-247.7" font-family="Courier,monospace" font-size="11.00" fill="#000000">core_messages</text>
<text text-anchor="start" x="220" y="-248.3" font-family="Courier,monospace" font-size="9.00" fill="#000000"> </text>
<text text-anchor="start" x="38.5" y="-237.3" font-family="Courier,monospace" font-size="9.00" fill="#000000"> </text>
<text text-anchor="start" x="97.5" y="-237.9" font-family="Courier,monospace" font-size="7.00" fill="#000000">built&#45;in category</text>
<text text-anchor="start" x="220" y="-237.3" font-family="Courier,monospace" font-size="9.00" fill="#000000"> </text>
<text text-anchor="start" x="38.5" y="-227.3" font-family="Courier,monospace" font-size="9.00" fill="#000000"> </text>
<text text-anchor="start" x="38.5" y="-217.3" font-family="Courier,monospace" font-size="9.00" fill="#000000"> </text>
<text text-anchor="start" x="47" y="-217.3" font-family="Courier,monospace" font-size="9.00" fill="#000000">logtalk::message_prefix_stream/4</text>
<text text-anchor="start" x="220" y="-217.3" font-family="Courier,monospace" font-size="9.00" fill="#000000"> </text>
<text text-anchor="start" x="38.5" y="-207.3" font-family="Courier,monospace" font-size="9.00" fill="#000000"> </text>
<text text-anchor="start" x="63" y="-207.3" font-family="Courier,monospace" font-size="9.00" fill="#000000">logtalk::message_tokens//2</text>
<text text-anchor="start" x="220" y="-207.3" font-family="Courier,monospace" font-size="9.00" fill="#000000"> </text>
</a>
</g>
</g>
</g>
</svg>
