<?xml version="1.0" encoding="UTF-8" standalone="no"?>
<?xml-stylesheet href="diagrams.css" type="text/css"?>
<!DOCTYPE svg PUBLIC "-//W3C//DTD SVG 1.1//EN"
 "http://www.w3.org/Graphics/SVG/1.1/DTD/svg11.dtd">
<!-- Generated by graphviz version 9.0.0 (20230911.1827)
 -->
<!-- Title: core Pages: 1 -->
<svg width="782pt" height="718pt"
 viewBox="72.00 72.00 710.00 646.25" xmlns="http://www.w3.org/2000/svg" xmlns:xlink="http://www.w3.org/1999/xlink">
<g id="graph0" class="graph" transform="scale(1 1) rotate(0) translate(76 642.25)">
<title>core</title>
<polygon fill="white" stroke="none" points="-4,4 -4,-570.25 634,-570.25 634,4 -4,4"/>
<text text-anchor="start" x="8" y="-28.25" font-family="Monospace" font-size="10.00" fill="dimgray">Logtalk core entities</text>
<text text-anchor="start" x="8" y="-17" font-family="Monospace" font-size="10.00" fill="dimgray">Inheritance diagram for library core</text>
<text text-anchor="start" x="8" y="-5.75" font-family="Monospace" font-size="10.00" fill="dimgray">Generated on 2023&#45;12&#45;17, 01:42</text>
<g id="clust1" class="cluster">
<title>cluster_library_core</title>
<g id="a_clust1"><a xlink:title="core/">
<path fill="whitesmoke" stroke="dimgray" d="M20,-49.75C20,-49.75 610,-49.75 610,-49.75 616,-49.75 622,-55.75 622,-61.75 622,-61.75 622,-546.25 622,-546.25 622,-552.25 616,-558.25 610,-558.25 610,-558.25 20,-558.25 20,-558.25 14,-558.25 8,-552.25 8,-546.25 8,-546.25 8,-61.75 8,-61.75 8,-55.75 14,-49.75 20,-49.75"/>
<g id="a_clust1_0"><a xlink:href="https://github.com/LogtalkDotOrg/logtalk3/tree/67d528664c76dde29eb28671ad32076559fadc44/core/" xlink:title="https://github.com/LogtalkDotOrg/logtalk3/tree/67d528664c76dde29eb28671ad32076559fadc44/core/">
<text text-anchor="start" x="20" y="-59.5" font-family="Monospace" font-size="10.00" fill="dimgray">core/</text>
</a>
</g>
</a>
</g>
</g>
<g id="clust3" class="cluster">
<title>cluster_file_/opt/local/share/logtalk/core/monitoring.lgt</title>
<g id="a_clust3"><a xlink:title="monitoring.lgt">
<path fill="snow" stroke="dimgray" d="M263,-434C263,-434 367,-434 367,-434 373,-434 379,-440 379,-446 379,-446 379,-536.25 379,-536.25 379,-542.25 373,-548.25 367,-548.25 367,-548.25 263,-548.25 263,-548.25 257,-548.25 251,-542.25 251,-536.25 251,-536.25 251,-446 251,-446 251,-440 257,-434 263,-434"/>
<g id="a_clust3_1"><a xlink:href="https://github.com/LogtalkDotOrg/logtalk3/tree/67d528664c76dde29eb28671ad32076559fadc44/core/monitoring.lgt" xlink:title="https://github.com/LogtalkDotOrg/logtalk3/tree/67d528664c76dde29eb28671ad32076559fadc44/core/monitoring.lgt">
<text text-anchor="start" x="263" y="-443.75" font-family="Monospace" font-size="10.00" fill="dimgray">monitoring.lgt</text>
</a>
</g>
</a>
</g>
</g>
<g id="clust4" class="cluster">
<title>cluster_file_/opt/local/share/logtalk/core/forwarding.lgt</title>
<g id="a_clust4"><a xlink:title="forwarding.lgt">
<path fill="snow" stroke="dimgray" d="M401,-438.5C401,-438.5 505,-438.5 505,-438.5 511,-438.5 517,-444.5 517,-450.5 517,-450.5 517,-531.75 517,-531.75 517,-537.75 511,-543.75 505,-543.75 505,-543.75 401,-543.75 401,-543.75 395,-543.75 389,-537.75 389,-531.75 389,-531.75 389,-450.5 389,-450.5 389,-444.5 395,-438.5 401,-438.5"/>
<g id="a_clust4_2"><a xlink:href="https://github.com/LogtalkDotOrg/logtalk3/tree/67d528664c76dde29eb28671ad32076559fadc44/core/forwarding.lgt" xlink:title="https://github.com/LogtalkDotOrg/logtalk3/tree/67d528664c76dde29eb28671ad32076559fadc44/core/forwarding.lgt">
<text text-anchor="start" x="401" y="-448.25" font-family="Monospace" font-size="10.00" fill="dimgray">forwarding.lgt</text>
</a>
</g>
</a>
</g>
</g>
<g id="clust7" class="cluster">
<title>cluster_file_/opt/local/share/logtalk/core/core_messages.lgt</title>
<g id="a_clust7"><a xlink:title="core_messages.lgt">
<path fill="snow" stroke="dimgray" d="M404,-181.5C404,-181.5 600,-181.5 600,-181.5 606,-181.5 612,-187.5 612,-193.5 612,-193.5 612,-283.75 612,-283.75 612,-289.75 606,-295.75 600,-295.75 600,-295.75 404,-295.75 404,-295.75 398,-295.75 392,-289.75 392,-283.75 392,-283.75 392,-193.5 392,-193.5 392,-187.5 398,-181.5 404,-181.5"/>
<g id="a_clust7_3"><a xlink:href="https://github.com/LogtalkDotOrg/logtalk3/tree/67d528664c76dde29eb28671ad32076559fadc44/core/core_messages.lgt" xlink:title="https://github.com/LogtalkDotOrg/logtalk3/tree/67d528664c76dde29eb28671ad32076559fadc44/core/core_messages.lgt">
<text text-anchor="start" x="404" y="-191.25" font-family="Monospace" font-size="10.00" fill="dimgray">core_messages.lgt</text>
</a>
</g>
</a>
</g>
</g>
<g id="clust2" class="cluster">
<title>cluster_file_/opt/local/share/logtalk/core/expanding.lgt</title>
<g id="a_clust2"><a xlink:title="expanding.lgt">
<path fill="snow" stroke="dimgray" d="M117,-434C117,-434 229,-434 229,-434 235,-434 241,-440 241,-446 241,-446 241,-536.25 241,-536.25 241,-542.25 235,-548.25 229,-548.25 229,-548.25 117,-548.25 117,-548.25 111,-548.25 105,-542.25 105,-536.25 105,-536.25 105,-446 105,-446 105,-440 111,-434 117,-434"/>
<g id="a_clust2_4"><a xlink:href="https://github.com/LogtalkDotOrg/logtalk3/tree/67d528664c76dde29eb28671ad32076559fadc44/core/expanding.lgt" xlink:title="https://github.com/LogtalkDotOrg/logtalk3/tree/67d528664c76dde29eb28671ad32076559fadc44/core/expanding.lgt">
<text text-anchor="start" x="117" y="-443.75" font-family="Monospace" font-size="10.00" fill="dimgray">expanding.lgt</text>
</a>
</g>
</a>
</g>
</g>
<g id="clust5" class="cluster">
<title>cluster_file_/opt/local/share/logtalk/core/user.lgt</title>
<g id="a_clust5"><a xlink:title="user.lgt">
<path fill="snow" stroke="dimgray" d="M260,-195C260,-195 370,-195 370,-195 376,-195 382,-201 382,-207 382,-207 382,-270.25 382,-270.25 382,-276.25 376,-282.25 370,-282.25 370,-282.25 260,-282.25 260,-282.25 254,-282.25 248,-276.25 248,-270.25 248,-270.25 248,-207 248,-207 248,-201 254,-195 260,-195"/>
<g id="a_clust5_5"><a xlink:href="https://github.com/LogtalkDotOrg/logtalk3/tree/67d528664c76dde29eb28671ad32076559fadc44/core/user.lgt" xlink:title="https://github.com/LogtalkDotOrg/logtalk3/tree/67d528664c76dde29eb28671ad32076559fadc44/core/user.lgt">
<text text-anchor="start" x="260" y="-204.75" font-family="Monospace" font-size="10.00" fill="dimgray">user.lgt</text>
</a>
</g>
</a>
</g>
</g>
<g id="clust6" class="cluster">
<title>cluster_file_/opt/local/share/logtalk/core/logtalk.lgt</title>
<g id="a_clust6"><a xlink:title="logtalk.lgt">
<path fill="snow" stroke="dimgray" d="M30,-87C30,-87 226,-87 226,-87 232,-87 238,-93 238,-99 238,-99 238,-378.25 238,-378.25 238,-384.25 232,-390.25 226,-390.25 226,-390.25 30,-390.25 30,-390.25 24,-390.25 18,-384.25 18,-378.25 18,-378.25 18,-99 18,-99 18,-93 24,-87 30,-87"/>
<g id="a_clust6_6"><a xlink:href="https://github.com/LogtalkDotOrg/logtalk3/tree/67d528664c76dde29eb28671ad32076559fadc44/core/logtalk.lgt" xlink:title="https://github.com/LogtalkDotOrg/logtalk3/tree/67d528664c76dde29eb28671ad32076559fadc44/core/logtalk.lgt">
<text text-anchor="start" x="30" y="-96.75" font-family="Monospace" font-size="10.00" fill="dimgray">logtalk.lgt</text>
</a>
</g>
</a>
</g>
</g>
<!-- expanding -->
<g id="node1" class="node">
<title>expanding</title>
<g id="a_node1"><a xlink:href="https://logtalk.org/library/expanding_0.html" xlink:title="https://logtalk.org/library/expanding_0.html">
<polygon fill="aquamarine" stroke="black" points="225,-538.25 115,-538.25 115,-471.25 231,-471.25 231,-532.25 225,-538.25"/>
<polyline fill="none" stroke="black" points="225,-538.25 225,-532.25"/>
<polyline fill="none" stroke="black" points="231,-532.25 225,-532.25"/>
<g id="a_node1_7"><a xlink:href="expanding_protocol_xref_diagram.svg" xlink:title="Zoom">
<image xlink:href="zoom.png" width="11px" height="11px" preserveAspectRatio="xMinYMin meet" x="123" y="-534.25"/>
</a>
</g>
<text text-anchor="start" x="125.88" y="-513.58" font-family="Monospace" font-size="9.00"> </text>
<text text-anchor="start" x="145.62" y="-512.8" font-family="Monospace" font-size="11.00">expanding</text>
<text text-anchor="start" x="217.88" y="-513.58" font-family="Monospace" font-size="9.00"> </text>
<text text-anchor="start" x="125.88" y="-502.7" font-family="Monospace" font-size="9.00"> </text>
<text text-anchor="start" x="137.75" y="-504.23" font-family="Monospace" font-size="7.00">built&#45;in protocol</text>
<text text-anchor="start" x="217.88" y="-502.7" font-family="Monospace" font-size="9.00"> </text>
<text text-anchor="start" x="125.88" y="-493.7" font-family="Monospace" font-size="9.00"> </text>
<text text-anchor="start" x="125.88" y="-484.7" font-family="Monospace" font-size="9.00"> </text>
<text text-anchor="start" x="134" y="-484.7" font-family="Monospace" font-size="9.00">goal_expansion/2</text>
<text text-anchor="start" x="217.88" y="-484.7" font-family="Monospace" font-size="9.00"> </text>
<text text-anchor="start" x="125.88" y="-475.7" font-family="Monospace" font-size="9.00"> </text>
<text text-anchor="start" x="134" y="-475.7" font-family="Monospace" font-size="9.00">term_expansion/2</text>
<text text-anchor="start" x="217.88" y="-475.7" font-family="Monospace" font-size="9.00"> </text>
</a>
</g>
</g>
<!-- monitoring -->
<g id="node2" class="node">
<title>monitoring</title>
<g id="a_node2"><a xlink:href="https://logtalk.org/library/monitoring_0.html" xlink:title="https://logtalk.org/library/monitoring_0.html">
<polygon fill="aquamarine" stroke="black" points="363,-538.25 261,-538.25 261,-471.25 369,-471.25 369,-532.25 363,-538.25"/>
<polyline fill="none" stroke="black" points="363,-538.25 363,-532.25"/>
<polyline fill="none" stroke="black" points="369,-532.25 363,-532.25"/>
<g id="a_node2_8"><a xlink:href="monitoring_protocol_xref_diagram.svg" xlink:title="Zoom">
<image xlink:href="zoom.png" width="11px" height="11px" preserveAspectRatio="xMinYMin meet" x="269" y="-534.25"/>
</a>
</g>
<text text-anchor="start" x="271.88" y="-513.58" font-family="Monospace" font-size="9.00"> </text>
<text text-anchor="start" x="284.25" y="-512.8" font-family="Monospace" font-size="11.00">monitoring</text>
<text text-anchor="start" x="355.88" y="-513.58" font-family="Monospace" font-size="9.00"> </text>
<text text-anchor="start" x="271.88" y="-502.7" font-family="Monospace" font-size="9.00"> </text>
<text text-anchor="start" x="279.75" y="-504.23" font-family="Monospace" font-size="7.00">built&#45;in protocol</text>
<text text-anchor="start" x="355.88" y="-502.7" font-family="Monospace" font-size="9.00"> </text>
<text text-anchor="start" x="271.88" y="-493.7" font-family="Monospace" font-size="9.00"> </text>
<text text-anchor="start" x="271.88" y="-484.7" font-family="Monospace" font-size="9.00"> </text>
<text text-anchor="start" x="297" y="-484.7" font-family="Monospace" font-size="9.00">before/3</text>
<text text-anchor="start" x="355.88" y="-484.7" font-family="Monospace" font-size="9.00"> </text>
<text text-anchor="start" x="271.88" y="-475.7" font-family="Monospace" font-size="9.00"> </text>
<text text-anchor="start" x="299.62" y="-475.7" font-family="Monospace" font-size="9.00">after/3</text>
<text text-anchor="start" x="355.88" y="-475.7" font-family="Monospace" font-size="9.00"> </text>
</a>
</g>
</g>
<!-- forwarding -->
<g id="node3" class="node">
<title>forwarding</title>
<g id="a_node3"><a xlink:href="https://logtalk.org/library/forwarding_0.html" xlink:title="https://logtalk.org/library/forwarding_0.html">
<polygon fill="aquamarine" stroke="black" points="501,-533.75 399,-533.75 399,-475.75 507,-475.75 507,-527.75 501,-533.75"/>
<polyline fill="none" stroke="black" points="501,-533.75 501,-527.75"/>
<polyline fill="none" stroke="black" points="507,-527.75 501,-527.75"/>
<g id="a_node3_9"><a xlink:href="forwarding_protocol_xref_diagram.svg" xlink:title="Zoom">
<image xlink:href="zoom.png" width="11px" height="11px" preserveAspectRatio="xMinYMin meet" x="407" y="-529.75"/>
</a>
</g>
<text text-anchor="start" x="409.88" y="-509.07" font-family="Monospace" font-size="9.00"> </text>
<text text-anchor="start" x="422.25" y="-508.3" font-family="Monospace" font-size="11.00">forwarding</text>
<text text-anchor="start" x="493.88" y="-509.07" font-family="Monospace" font-size="9.00"> </text>
<text text-anchor="start" x="409.88" y="-498.2" font-family="Monospace" font-size="9.00"> </text>
<text text-anchor="start" x="417.75" y="-499.73" font-family="Monospace" font-size="7.00">built&#45;in protocol</text>
<text text-anchor="start" x="493.88" y="-498.2" font-family="Monospace" font-size="9.00"> </text>
<text text-anchor="start" x="409.88" y="-489.2" font-family="Monospace" font-size="9.00"> </text>
<text text-anchor="start" x="409.88" y="-480.2" font-family="Monospace" font-size="9.00"> </text>
<text text-anchor="start" x="432.38" y="-480.2" font-family="Monospace" font-size="9.00">forward/1</text>
<text text-anchor="start" x="493.88" y="-480.2" font-family="Monospace" font-size="9.00"> </text>
</a>
</g>
</g>
<!-- user -->
<g id="node4" class="node">
<title>user</title>
<g id="a_node4"><a xlink:href="https://logtalk.org/library/user_0.html" xlink:title="https://logtalk.org/library/user_0.html">
<polygon fill="cornsilk" stroke="black" points="371.5,-272.25 258.5,-272.25 258.5,-232.25 371.5,-232.25 371.5,-272.25"/>
<g id="a_node4_10"><a xlink:href="user_object_xref_diagram.svg" xlink:title="Zoom">
<image xlink:href="zoom.png" width="11px" height="11px" preserveAspectRatio="xMinYMin meet" x="266.5" y="-268.25"/>
</a>
</g>
<text text-anchor="start" x="269.38" y="-247.57" font-family="Monospace" font-size="9.00"> </text>
<text text-anchor="start" x="304.5" y="-246.8" font-family="Monospace" font-size="11.00">user</text>
<text text-anchor="start" x="358.38" y="-247.57" font-family="Monospace" font-size="9.00"> </text>
<text text-anchor="start" x="269.38" y="-236.7" font-family="Monospace" font-size="9.00"> </text>
<text text-anchor="start" x="277.5" y="-238.22" font-family="Monospace" font-size="7.00">built&#45;in prototype</text>
<text text-anchor="start" x="358.38" y="-236.7" font-family="Monospace" font-size="9.00"> </text>
</a>
</g>
</g>
<!-- user&#45;&gt;expanding -->
<g id="edge1" class="edge">
<title>user&#45;&gt;expanding</title>
<g id="a_edge1"><a xlink:href="https://logtalk.org/library/user_0.html" xlink:title="implements">
<path fill="none" stroke="black" d="M305.18,-272.5C291.47,-299.18 265.62,-348.8 242,-390.25 228.01,-414.8 211.6,-441.86 198.3,-463.4"/>
<ellipse fill="black" stroke="black" cx="196.1" cy="-466.94" rx="4" ry="4"/>
</a>
</g>
<g id="a_edge1&#45;label"><a xlink:href="https://logtalk.org/library/user_0.html" xlink:title="https://logtalk.org/library/user_0.html">
<text text-anchor="start" x="225" y="-417.45" font-family="Monospace" font-size="9.00">implements</text>
</a>
</g>
</g>
<!-- user&#45;&gt;monitoring -->
<g id="edge3" class="edge">
<title>user&#45;&gt;monitoring</title>
<g id="a_edge3"><a xlink:href="https://logtalk.org/library/user_0.html" xlink:title="implements">
<path fill="none" stroke="black" d="M315,-272.49C315,-312.86 315,-407.21 315,-462.11"/>
<ellipse fill="black" stroke="black" cx="315" cy="-466.39" rx="4" ry="4"/>
</a>
</g>
<g id="a_edge3&#45;label"><a xlink:href="https://logtalk.org/library/user_0.html" xlink:title="https://logtalk.org/library/user_0.html">
<text text-anchor="start" x="315" y="-417.45" font-family="Monospace" font-size="9.00">implements</text>
</a>
</g>
</g>
<!-- user&#45;&gt;forwarding -->
<g id="edge2" class="edge">
<title>user&#45;&gt;forwarding</title>
<g id="a_edge2"><a xlink:href="https://logtalk.org/library/user_0.html" xlink:title="implements">
<path fill="none" stroke="black" d="M324.97,-272.41C338.86,-298.99 364.93,-348.5 388,-390.25 402.44,-416.38 419.2,-445.62 432.08,-467.87"/>
<ellipse fill="black" stroke="black" cx="434.21" cy="-471.54" rx="4" ry="4"/>
</a>
</g>
<g id="a_edge2&#45;label"><a xlink:href="https://logtalk.org/library/user_0.html" xlink:title="https://logtalk.org/library/user_0.html">
<text text-anchor="start" x="407" y="-417.45" font-family="Monospace" font-size="9.00">implements</text>
</a>
</g>
</g>
<!-- logtalk -->
<g id="node5" class="node">
<title>logtalk</title>
<g id="a_node5"><a xlink:href="https://logtalk.org/library/logtalk_0.html" xlink:title="https://logtalk.org/library/logtalk_0.html">
<polygon fill="cornsilk" stroke="black" points="228,-380.25 28,-380.25 28,-124.25 228,-124.25 228,-380.25"/>
<g id="a_node5_11"><a xlink:href="logtalk_object_xref_diagram.svg" xlink:title="Zoom">
<image xlink:href="zoom.png" width="11px" height="11px" preserveAspectRatio="xMinYMin meet" x="36" y="-376.25"/>
</a>
</g>
<text text-anchor="start" x="38.88" y="-355.57" font-family="Monospace" font-size="9.00"> </text>
<text text-anchor="start" x="107.38" y="-354.8" font-family="Monospace" font-size="11.00">logtalk</text>
<text text-anchor="start" x="214.88" y="-355.57" font-family="Monospace" font-size="9.00"> </text>
<text text-anchor="start" x="38.88" y="-344.7" font-family="Monospace" font-size="9.00"> </text>
<text text-anchor="start" x="90.5" y="-346.23" font-family="Monospace" font-size="7.00">built&#45;in prototype</text>
<text text-anchor="start" x="214.88" y="-344.7" font-family="Monospace" font-size="9.00"> </text>
<text text-anchor="start" x="38.88" y="-335.7" font-family="Monospace" font-size="9.00"> </text>
<text text-anchor="start" x="38.88" y="-326.7" font-family="Monospace" font-size="9.00"> </text>
<text text-anchor="start" x="91.62" y="-326.7" font-family="Monospace" font-size="9.00">print_message/3</text>
<text text-anchor="start" x="214.88" y="-326.7" font-family="Monospace" font-size="9.00"> </text>
<text text-anchor="start" x="38.88" y="-317.7" font-family="Monospace" font-size="9.00"> </text>
<text text-anchor="start" x="73.25" y="-317.7" font-family="Monospace" font-size="9.00">print_message_tokens/3</text>
<text text-anchor="start" x="214.88" y="-317.7" font-family="Monospace" font-size="9.00"> </text>
<text text-anchor="start" x="38.88" y="-308.7" font-family="Monospace" font-size="9.00"> </text>
<text text-anchor="start" x="75.88" y="-308.7" font-family="Monospace" font-size="9.00">print_message_token/4</text>
<text text-anchor="start" x="214.88" y="-308.7" font-family="Monospace" font-size="9.00"> </text>
<text text-anchor="start" x="38.88" y="-299.7" font-family="Monospace" font-size="9.00"> </text>
<text text-anchor="start" x="86.38" y="-299.7" font-family="Monospace" font-size="9.00">message_tokens//2</text>
<text text-anchor="start" x="214.88" y="-299.7" font-family="Monospace" font-size="9.00"> </text>
<text text-anchor="start" x="38.88" y="-290.7" font-family="Monospace" font-size="9.00"> </text>
<text text-anchor="start" x="70.62" y="-290.7" font-family="Monospace" font-size="9.00">message_prefix_stream/4</text>
<text text-anchor="start" x="214.88" y="-290.7" font-family="Monospace" font-size="9.00"> </text>
<text text-anchor="start" x="38.88" y="-281.7" font-family="Monospace" font-size="9.00"> </text>
<text text-anchor="start" x="94.25" y="-281.7" font-family="Monospace" font-size="9.00">message_hook/4</text>
<text text-anchor="start" x="214.88" y="-281.7" font-family="Monospace" font-size="9.00"> </text>
<text text-anchor="start" x="38.88" y="-272.7" font-family="Monospace" font-size="9.00"> </text>
<text text-anchor="start" x="94.25" y="-272.7" font-family="Monospace" font-size="9.00">ask_question/5</text>
<text text-anchor="start" x="214.88" y="-272.7" font-family="Monospace" font-size="9.00"> </text>
<text text-anchor="start" x="38.88" y="-263.7" font-family="Monospace" font-size="9.00"> </text>
<text text-anchor="start" x="91.62" y="-263.7" font-family="Monospace" font-size="9.00">question_hook/6</text>
<text text-anchor="start" x="214.88" y="-263.7" font-family="Monospace" font-size="9.00"> </text>
<text text-anchor="start" x="38.88" y="-254.7" font-family="Monospace" font-size="9.00"> </text>
<text text-anchor="start" x="68" y="-254.7" font-family="Monospace" font-size="9.00">question_prompt_stream/4</text>
<text text-anchor="start" x="214.88" y="-254.7" font-family="Monospace" font-size="9.00"> </text>
<text text-anchor="start" x="38.88" y="-245.7" font-family="Monospace" font-size="9.00"> </text>
<text text-anchor="start" x="96.88" y="-245.7" font-family="Monospace" font-size="9.00">trace_event/2</text>
<text text-anchor="start" x="214.88" y="-245.7" font-family="Monospace" font-size="9.00"> </text>
<text text-anchor="start" x="38.88" y="-236.7" font-family="Monospace" font-size="9.00"> </text>
<text text-anchor="start" x="68" y="-236.7" font-family="Monospace" font-size="9.00">debug_handler_provider/1</text>
<text text-anchor="start" x="214.88" y="-236.7" font-family="Monospace" font-size="9.00"> </text>
<text text-anchor="start" x="38.88" y="-227.7" font-family="Monospace" font-size="9.00"> </text>
<text text-anchor="start" x="91.62" y="-227.7" font-family="Monospace" font-size="9.00">debug_handler/2</text>
<text text-anchor="start" x="214.88" y="-227.7" font-family="Monospace" font-size="9.00"> </text>
<text text-anchor="start" x="38.88" y="-218.7" font-family="Monospace" font-size="9.00"> </text>
<text text-anchor="start" x="75.88" y="-218.7" font-family="Monospace" font-size="9.00">expand_library_path/2</text>
<text text-anchor="start" x="214.88" y="-218.7" font-family="Monospace" font-size="9.00"> </text>
<text text-anchor="start" x="38.88" y="-209.7" font-family="Monospace" font-size="9.00"> </text>
<text text-anchor="start" x="96.88" y="-209.7" font-family="Monospace" font-size="9.00">loaded_file/1</text>
<text text-anchor="start" x="214.88" y="-209.7" font-family="Monospace" font-size="9.00"> </text>
<text text-anchor="start" x="38.88" y="-200.7" font-family="Monospace" font-size="9.00"> </text>
<text text-anchor="start" x="73.25" y="-200.7" font-family="Monospace" font-size="9.00">loaded_file_property/2</text>
<text text-anchor="start" x="214.88" y="-200.7" font-family="Monospace" font-size="9.00"> </text>
<text text-anchor="start" x="38.88" y="-191.7" font-family="Monospace" font-size="9.00"> </text>
<text text-anchor="start" x="75.88" y="-191.7" font-family="Monospace" font-size="9.00">file_type_extension/2</text>
<text text-anchor="start" x="214.88" y="-191.7" font-family="Monospace" font-size="9.00"> </text>
<text text-anchor="start" x="38.88" y="-182.7" font-family="Monospace" font-size="9.00"> </text>
<text text-anchor="start" x="75.88" y="-182.7" font-family="Monospace" font-size="9.00">compile_aux_clauses/1</text>
<text text-anchor="start" x="214.88" y="-182.7" font-family="Monospace" font-size="9.00"> </text>
<text text-anchor="start" x="38.88" y="-173.7" font-family="Monospace" font-size="9.00"> </text>
<text text-anchor="start" x="91.62" y="-173.7" font-family="Monospace" font-size="9.00">entity_prefix/2</text>
<text text-anchor="start" x="214.88" y="-173.7" font-family="Monospace" font-size="9.00"> </text>
<text text-anchor="start" x="38.88" y="-164.7" font-family="Monospace" font-size="9.00"> </text>
<text text-anchor="start" x="65.38" y="-164.7" font-family="Monospace" font-size="9.00">compile_predicate_heads/4</text>
<text text-anchor="start" x="214.88" y="-164.7" font-family="Monospace" font-size="9.00"> </text>
<text text-anchor="start" x="38.88" y="-155.7" font-family="Monospace" font-size="9.00"> </text>
<text text-anchor="start" x="52.25" y="-155.7" font-family="Monospace" font-size="9.00">compile_predicate_indicators/3</text>
<text text-anchor="start" x="214.88" y="-155.7" font-family="Monospace" font-size="9.00"> </text>
<text text-anchor="start" x="38.88" y="-146.7" font-family="Monospace" font-size="9.00"> </text>
<text text-anchor="start" x="60.12" y="-146.7" font-family="Monospace" font-size="9.00">decompile_predicate_heads/4</text>
<text text-anchor="start" x="214.88" y="-146.7" font-family="Monospace" font-size="9.00"> </text>
<text text-anchor="start" x="38.88" y="-137.7" font-family="Monospace" font-size="9.00"> </text>
<text text-anchor="start" x="47" y="-137.7" font-family="Monospace" font-size="9.00">decompile_predicate_indicators/4</text>
<text text-anchor="start" x="214.88" y="-137.7" font-family="Monospace" font-size="9.00"> </text>
<text text-anchor="start" x="38.88" y="-128.7" font-family="Monospace" font-size="9.00"> </text>
<text text-anchor="start" x="81.12" y="-128.7" font-family="Monospace" font-size="9.00">execution_context/7</text>
<text text-anchor="start" x="214.88" y="-128.7" font-family="Monospace" font-size="9.00"> </text>
</a>
</g>
</g>
<!-- core_messages -->
<g id="node6" class="node">
<title>core_messages</title>
<g id="a_node6"><a xlink:href="https://logtalk.org/library/core_messages_0.html" xlink:title="https://logtalk.org/library/core_messages_0.html">
<polygon fill="lightcyan" stroke="black" points="602,-285.75 402,-285.75 402,-281.75 398,-281.75 398,-277.75 402,-277.75 402,-226.75 398,-226.75 398,-222.75 402,-222.75 402,-218.75 602,-218.75 602,-285.75"/>
<polyline fill="none" stroke="black" points="402,-281.75 406,-281.75 406,-277.75 402,-277.75"/>
<polyline fill="none" stroke="black" points="402,-226.75 406,-226.75 406,-222.75 402,-222.75"/>
<g id="a_node6_12"><a xlink:href="core_messages_category_xref_diagram.svg" xlink:title="Zoom">
<image xlink:href="zoom.png" width="11px" height="11px" preserveAspectRatio="xMinYMin meet" x="410" y="-281.75"/>
</a>
</g>
<text text-anchor="start" x="412.88" y="-261.07" font-family="Monospace" font-size="9.00"> </text>
<text text-anchor="start" x="461.12" y="-260.3" font-family="Monospace" font-size="11.00">core_messages</text>
<text text-anchor="start" x="588.88" y="-261.07" font-family="Monospace" font-size="9.00"> </text>
<text text-anchor="start" x="412.88" y="-250.2" font-family="Monospace" font-size="9.00"> </text>
<text text-anchor="start" x="466.75" y="-251.72" font-family="Monospace" font-size="7.00">built&#45;in category</text>
<text text-anchor="start" x="588.88" y="-250.2" font-family="Monospace" font-size="9.00"> </text>
<text text-anchor="start" x="412.88" y="-241.2" font-family="Monospace" font-size="9.00"> </text>
<text text-anchor="start" x="412.88" y="-232.2" font-family="Monospace" font-size="9.00"> </text>
<text text-anchor="start" x="421" y="-232.2" font-family="Monospace" font-size="9.00">logtalk::message_prefix_stream/4</text>
<text text-anchor="start" x="588.88" y="-232.2" font-family="Monospace" font-size="9.00"> </text>
<text text-anchor="start" x="412.88" y="-223.2" font-family="Monospace" font-size="9.00"> </text>
<text text-anchor="start" x="436.75" y="-223.2" font-family="Monospace" font-size="9.00">logtalk::message_tokens//2</text>
<text text-anchor="start" x="588.88" y="-223.2" font-family="Monospace" font-size="9.00"> </text>
</a>
</g>
</g>
</g>
</svg>
