<?xml version="1.0" encoding="UTF-8" standalone="no"?>
<?xml-stylesheet href="diagrams.css" type="text/css"?>
<!DOCTYPE svg PUBLIC "-//W3C//DTD SVG 1.1//EN"
 "http://www.w3.org/Graphics/SVG/1.1/DTD/svg11.dtd">
<!-- Generated by graphviz version 2.49.4~dev.20211124.1647 (20211124.1647)
 -->
<!-- Title: core Pages: 1 -->
<svg width="720pt" height="746pt"
 viewBox="72.00 72.00 648.00 674.00" xmlns="http://www.w3.org/2000/svg" xmlns:xlink="http://www.w3.org/1999/xlink">
<g id="graph0" class="graph" transform="scale(1 1) rotate(0) translate(76 670)">
<title>core</title>
<polygon fill="white" stroke="transparent" points="-4,4 -4,-598 572,-598 572,4 -4,4"/>
<text text-anchor="start" x="8" y="-29" font-family="Courier,monospace" font-size="10.00" fill="dimgray">Logtalk core entities</text>
<text text-anchor="start" x="8" y="-18" font-family="Courier,monospace" font-size="10.00" fill="dimgray">Inheritance diagram for library core</text>
<text text-anchor="start" x="8" y="-7" font-family="Courier,monospace" font-size="10.00" fill="dimgray">Generated on 2021&#45;11&#45;24, 21:24</text>
<g id="clust1" class="cluster">
<title>cluster_library_core</title>
<g id="a_clust1"><a xlink:title="core/">
<path fill="whitesmoke" stroke="dimgray" d="M20,-49C20,-49 548,-49 548,-49 554,-49 560,-55 560,-61 560,-61 560,-574 560,-574 560,-580 554,-586 548,-586 548,-586 20,-586 20,-586 14,-586 8,-580 8,-574 8,-574 8,-61 8,-61 8,-55 14,-49 20,-49"/>
<g id="a_clust1_0"><a xlink:href="https://github.com/LogtalkDotOrg/logtalk3/tree/1450dd2e30cbc83199a0162ba485cb2893d77c37/core/" xlink:title="https://github.com/LogtalkDotOrg/logtalk3/tree/1450dd2e30cbc83199a0162ba485cb2893d77c37/core/">
<text text-anchor="start" x="20.5" y="-59.5" font-family="Courier,monospace" font-size="10.00" fill="dimgray">core/</text>
</a>
</g>
</a>
</g>
</g>
<g id="clust3" class="cluster">
<title>cluster_file_/opt/local/share/logtalk/core/monitoring.lgt</title>
<g id="a_clust3"><a xlink:title="monitoring.lgt">
<path fill="snow" stroke="dimgray" d="M240,-458C240,-458 328,-458 328,-458 334,-458 340,-464 340,-470 340,-470 340,-564 340,-564 340,-570 334,-576 328,-576 328,-576 240,-576 240,-576 234,-576 228,-570 228,-564 228,-564 228,-470 228,-470 228,-464 234,-458 240,-458"/>
<g id="a_clust3_1"><a xlink:href="https://github.com/LogtalkDotOrg/logtalk3/tree/1450dd2e30cbc83199a0162ba485cb2893d77c37/core/monitoring.lgt" xlink:title="https://github.com/LogtalkDotOrg/logtalk3/tree/1450dd2e30cbc83199a0162ba485cb2893d77c37/core/monitoring.lgt">
<text text-anchor="start" x="240" y="-468.5" font-family="Courier,monospace" font-size="10.00" fill="dimgray">monitoring.lgt</text>
</a>
</g>
</a>
</g>
</g>
<g id="clust4" class="cluster">
<title>cluster_file_/opt/local/share/logtalk/core/forwarding.lgt</title>
<g id="a_clust4"><a xlink:title="forwarding.lgt">
<path fill="snow" stroke="dimgray" d="M362,-463C362,-463 450,-463 450,-463 456,-463 462,-469 462,-475 462,-475 462,-559 462,-559 462,-565 456,-571 450,-571 450,-571 362,-571 362,-571 356,-571 350,-565 350,-559 350,-559 350,-475 350,-475 350,-469 356,-463 362,-463"/>
<g id="a_clust4_2"><a xlink:href="https://github.com/LogtalkDotOrg/logtalk3/tree/1450dd2e30cbc83199a0162ba485cb2893d77c37/core/forwarding.lgt" xlink:title="https://github.com/LogtalkDotOrg/logtalk3/tree/1450dd2e30cbc83199a0162ba485cb2893d77c37/core/forwarding.lgt">
<text text-anchor="start" x="362" y="-473.5" font-family="Courier,monospace" font-size="10.00" fill="dimgray">forwarding.lgt</text>
</a>
</g>
</a>
</g>
</g>
<g id="clust7" class="cluster">
<title>cluster_file_/opt/local/share/logtalk/core/core_messages.lgt</title>
<g id="a_clust7"><a xlink:title="core_messages.lgt">
<path fill="snow" stroke="dimgray" d="M364,-191C364,-191 538,-191 538,-191 544,-191 550,-197 550,-203 550,-203 550,-297 550,-297 550,-303 544,-309 538,-309 538,-309 364,-309 364,-309 358,-309 352,-303 352,-297 352,-297 352,-203 352,-203 352,-197 358,-191 364,-191"/>
<g id="a_clust7_3"><a xlink:href="https://github.com/LogtalkDotOrg/logtalk3/tree/1450dd2e30cbc83199a0162ba485cb2893d77c37/core/core_messages.lgt" xlink:title="https://github.com/LogtalkDotOrg/logtalk3/tree/1450dd2e30cbc83199a0162ba485cb2893d77c37/core/core_messages.lgt">
<text text-anchor="start" x="364.5" y="-201.5" font-family="Courier,monospace" font-size="10.00" fill="dimgray">core_messages.lgt</text>
</a>
</g>
</a>
</g>
</g>
<g id="clust2" class="cluster">
<title>cluster_file_/opt/local/share/logtalk/core/expanding.lgt</title>
<g id="a_clust2"><a xlink:title="expanding.lgt">
<path fill="snow" stroke="dimgray" d="M104,-458C104,-458 206,-458 206,-458 212,-458 218,-464 218,-470 218,-470 218,-564 218,-564 218,-570 212,-576 206,-576 206,-576 104,-576 104,-576 98,-576 92,-570 92,-564 92,-564 92,-470 92,-470 92,-464 98,-458 104,-458"/>
<g id="a_clust2_4"><a xlink:href="https://github.com/LogtalkDotOrg/logtalk3/tree/1450dd2e30cbc83199a0162ba485cb2893d77c37/core/expanding.lgt" xlink:title="https://github.com/LogtalkDotOrg/logtalk3/tree/1450dd2e30cbc83199a0162ba485cb2893d77c37/core/expanding.lgt">
<text text-anchor="start" x="104.5" y="-468.5" font-family="Courier,monospace" font-size="10.00" fill="dimgray">expanding.lgt</text>
</a>
</g>
</a>
</g>
</g>
<g id="clust5" class="cluster">
<title>cluster_file_/opt/local/share/logtalk/core/user.lgt</title>
<g id="a_clust5"><a xlink:title="user.lgt">
<path fill="snow" stroke="dimgray" d="M238,-206C238,-206 330,-206 330,-206 336,-206 342,-212 342,-218 342,-218 342,-282 342,-282 342,-288 336,-294 330,-294 330,-294 238,-294 238,-294 232,-294 226,-288 226,-282 226,-282 226,-218 226,-218 226,-212 232,-206 238,-206"/>
<g id="a_clust5_5"><a xlink:href="https://github.com/LogtalkDotOrg/logtalk3/tree/1450dd2e30cbc83199a0162ba485cb2893d77c37/core/user.lgt" xlink:title="https://github.com/LogtalkDotOrg/logtalk3/tree/1450dd2e30cbc83199a0162ba485cb2893d77c37/core/user.lgt">
<text text-anchor="start" x="238" y="-216.5" font-family="Courier,monospace" font-size="10.00" fill="dimgray">user.lgt</text>
</a>
</g>
</a>
</g>
</g>
<g id="clust6" class="cluster">
<title>cluster_file_/opt/local/share/logtalk/core/logtalk.lgt</title>
<g id="a_clust6"><a xlink:title="logtalk.lgt">
<path fill="snow" stroke="dimgray" d="M30,-86C30,-86 204,-86 204,-86 210,-86 216,-92 216,-98 216,-98 216,-402 216,-402 216,-408 210,-414 204,-414 204,-414 30,-414 30,-414 24,-414 18,-408 18,-402 18,-402 18,-98 18,-98 18,-92 24,-86 30,-86"/>
<g id="a_clust6_6"><a xlink:href="https://github.com/LogtalkDotOrg/logtalk3/tree/1450dd2e30cbc83199a0162ba485cb2893d77c37/core/logtalk.lgt" xlink:title="https://github.com/LogtalkDotOrg/logtalk3/tree/1450dd2e30cbc83199a0162ba485cb2893d77c37/core/logtalk.lgt">
<text text-anchor="start" x="30.5" y="-96.5" font-family="Courier,monospace" font-size="10.00" fill="dimgray">logtalk.lgt</text>
</a>
</g>
</a>
</g>
</g>
<!-- expanding -->
<g id="node1" class="node">
<title>expanding</title>
<g id="a_node1"><a xlink:href="https://logtalk.org/library/expanding_0.html" xlink:title="https://logtalk.org/library/expanding_0.html">
<polygon fill="aquamarine" stroke="black" points="201.5,-566 102.5,-566 102.5,-495 207.5,-495 207.5,-560 201.5,-566"/>
<polyline fill="none" stroke="black" points="201.5,-566 201.5,-560 "/>
<polyline fill="none" stroke="black" points="207.5,-560 201.5,-560 "/>
<g id="a_node1_7"><a xlink:href="expanding_protocol_xref_diagram.svg" xlink:title="Zoom">
<image xlink:href="zoom.png" width="11px" height="11px" preserveAspectRatio="xMinYMin meet" x="111" y="-561.5"/>
</a>
</g>
<text text-anchor="start" x="114" y="-542.3" font-family="Courier,monospace" font-size="9.00"> </text>
<text text-anchor="start" x="133.5" y="-541.7" font-family="Courier,monospace" font-size="11.00">expanding</text>
<text text-anchor="start" x="195" y="-542.3" font-family="Courier,monospace" font-size="9.00"> </text>
<text text-anchor="start" x="114" y="-531.3" font-family="Courier,monospace" font-size="9.00"> </text>
<text text-anchor="start" x="128.5" y="-531.9" font-family="Courier,monospace" font-size="7.00">built&#45;in protocol</text>
<text text-anchor="start" x="195" y="-531.3" font-family="Courier,monospace" font-size="9.00"> </text>
<text text-anchor="start" x="114" y="-521.3" font-family="Courier,monospace" font-size="9.00"> </text>
<text text-anchor="start" x="114" y="-511.3" font-family="Courier,monospace" font-size="9.00"> </text>
<text text-anchor="start" x="122" y="-511.3" font-family="Courier,monospace" font-size="9.00">goal_expansion/2</text>
<text text-anchor="start" x="195" y="-511.3" font-family="Courier,monospace" font-size="9.00"> </text>
<text text-anchor="start" x="114" y="-501.3" font-family="Courier,monospace" font-size="9.00"> </text>
<text text-anchor="start" x="122" y="-501.3" font-family="Courier,monospace" font-size="9.00">term_expansion/2</text>
<text text-anchor="start" x="195" y="-501.3" font-family="Courier,monospace" font-size="9.00"> </text>
</a>
</g>
</g>
<!-- monitoring -->
<g id="node2" class="node">
<title>monitoring</title>
<g id="a_node2"><a xlink:href="https://logtalk.org/library/monitoring_0.html" xlink:title="https://logtalk.org/library/monitoring_0.html">
<polygon fill="aquamarine" stroke="black" points="324,-566 238,-566 238,-495 330,-495 330,-560 324,-566"/>
<polyline fill="none" stroke="black" points="324,-566 324,-560 "/>
<polyline fill="none" stroke="black" points="330,-560 324,-560 "/>
<g id="a_node2_8"><a xlink:href="monitoring_protocol_xref_diagram.svg" xlink:title="Zoom">
<image xlink:href="zoom.png" width="11px" height="11px" preserveAspectRatio="xMinYMin meet" x="246" y="-561.5"/>
</a>
</g>
<text text-anchor="start" x="249" y="-542.3" font-family="Courier,monospace" font-size="9.00"> </text>
<text text-anchor="start" x="259.5" y="-541.7" font-family="Courier,monospace" font-size="11.00">monitoring</text>
<text text-anchor="start" x="317" y="-542.3" font-family="Courier,monospace" font-size="9.00"> </text>
<text text-anchor="start" x="249" y="-531.3" font-family="Courier,monospace" font-size="9.00"> </text>
<text text-anchor="start" x="257" y="-531.9" font-family="Courier,monospace" font-size="7.00">built&#45;in protocol</text>
<text text-anchor="start" x="317" y="-531.3" font-family="Courier,monospace" font-size="9.00"> </text>
<text text-anchor="start" x="249" y="-521.3" font-family="Courier,monospace" font-size="9.00"> </text>
<text text-anchor="start" x="249" y="-511.3" font-family="Courier,monospace" font-size="9.00"> </text>
<text text-anchor="start" x="268.5" y="-511.3" font-family="Courier,monospace" font-size="9.00">before/3</text>
<text text-anchor="start" x="317" y="-511.3" font-family="Courier,monospace" font-size="9.00"> </text>
<text text-anchor="start" x="249" y="-501.3" font-family="Courier,monospace" font-size="9.00"> </text>
<text text-anchor="start" x="271" y="-501.3" font-family="Courier,monospace" font-size="9.00">after/3</text>
<text text-anchor="start" x="317" y="-501.3" font-family="Courier,monospace" font-size="9.00"> </text>
</a>
</g>
</g>
<!-- forwarding -->
<g id="node3" class="node">
<title>forwarding</title>
<g id="a_node3"><a xlink:href="https://logtalk.org/library/forwarding_0.html" xlink:title="https://logtalk.org/library/forwarding_0.html">
<polygon fill="aquamarine" stroke="black" points="446,-561 360,-561 360,-500 452,-500 452,-555 446,-561"/>
<polyline fill="none" stroke="black" points="446,-561 446,-555 "/>
<polyline fill="none" stroke="black" points="452,-555 446,-555 "/>
<g id="a_node3_9"><a xlink:href="forwarding_protocol_xref_diagram.svg" xlink:title="Zoom">
<image xlink:href="zoom.png" width="11px" height="11px" preserveAspectRatio="xMinYMin meet" x="368" y="-556.5"/>
</a>
</g>
<text text-anchor="start" x="371" y="-537.3" font-family="Courier,monospace" font-size="9.00"> </text>
<text text-anchor="start" x="381.5" y="-536.7" font-family="Courier,monospace" font-size="11.00">forwarding</text>
<text text-anchor="start" x="439" y="-537.3" font-family="Courier,monospace" font-size="9.00"> </text>
<text text-anchor="start" x="371" y="-526.3" font-family="Courier,monospace" font-size="9.00"> </text>
<text text-anchor="start" x="379" y="-526.9" font-family="Courier,monospace" font-size="7.00">built&#45;in protocol</text>
<text text-anchor="start" x="439" y="-526.3" font-family="Courier,monospace" font-size="9.00"> </text>
<text text-anchor="start" x="371" y="-516.3" font-family="Courier,monospace" font-size="9.00"> </text>
<text text-anchor="start" x="371" y="-506.3" font-family="Courier,monospace" font-size="9.00"> </text>
<text text-anchor="start" x="388.5" y="-506.3" font-family="Courier,monospace" font-size="9.00">forward/1</text>
<text text-anchor="start" x="439" y="-506.3" font-family="Courier,monospace" font-size="9.00"> </text>
</a>
</g>
</g>
<!-- user -->
<g id="node4" class="node">
<title>user</title>
<g id="a_node4"><a xlink:href="https://logtalk.org/library/user_0.html" xlink:title="https://logtalk.org/library/user_0.html">
<polygon fill="cornsilk" stroke="black" points="331.5,-284 236.5,-284 236.5,-243 331.5,-243 331.5,-284"/>
<g id="a_node4_10"><a xlink:href="user_object_xref_diagram.svg" xlink:title="Zoom">
<image xlink:href="zoom.png" width="11px" height="11px" preserveAspectRatio="xMinYMin meet" x="245" y="-279.5"/>
</a>
</g>
<text text-anchor="start" x="248" y="-260.3" font-family="Courier,monospace" font-size="9.00"> </text>
<text text-anchor="start" x="276.5" y="-259.7" font-family="Courier,monospace" font-size="11.00">user</text>
<text text-anchor="start" x="319" y="-260.3" font-family="Courier,monospace" font-size="9.00"> </text>
<text text-anchor="start" x="248" y="-249.3" font-family="Courier,monospace" font-size="9.00"> </text>
<text text-anchor="start" x="256" y="-249.9" font-family="Courier,monospace" font-size="7.00">built&#45;in prototype</text>
<text text-anchor="start" x="319" y="-249.3" font-family="Courier,monospace" font-size="9.00"> </text>
</a>
</g>
</g>
<!-- user&#45;&gt;expanding -->
<g id="edge1" class="edge">
<title>user&#45;&gt;expanding</title>
<g id="a_edge1"><a xlink:href="https://logtalk.org/library/user_0.html" xlink:title="implements">
<path fill="none" stroke="black" d="M276.37,-284.16C265,-313.03 242.49,-368.43 220,-414 207.69,-438.93 192.52,-466.06 179.93,-487.76"/>
<ellipse fill="black" stroke="black" cx="177.78" cy="-491.44" rx="4" ry="4"/>
</a>
</g>
<g id="a_edge1&#45;label"><a xlink:href="https://logtalk.org/library/user_0.html" xlink:title="https://logtalk.org/library/user_0.html">
<text text-anchor="start" x="204" y="-442.8" font-family="Courier,monospace" font-size="9.00">implements</text>
</a>
</g>
</g>
<!-- user&#45;&gt;monitoring -->
<g id="edge3" class="edge">
<title>user&#45;&gt;monitoring</title>
<g id="a_edge3"><a xlink:href="https://logtalk.org/library/user_0.html" xlink:title="implements">
<path fill="none" stroke="black" d="M284,-284.42C284,-327.1 284,-428.2 284,-486.34"/>
<ellipse fill="black" stroke="black" cx="284" cy="-490.59" rx="4" ry="4"/>
</a>
</g>
<g id="a_edge3&#45;label"><a xlink:href="https://logtalk.org/library/user_0.html" xlink:title="https://logtalk.org/library/user_0.html">
<text text-anchor="start" x="284" y="-442.8" font-family="Courier,monospace" font-size="9.00">implements</text>
</a>
</g>
</g>
<!-- user&#45;&gt;forwarding -->
<g id="edge2" class="edge">
<title>user&#45;&gt;forwarding</title>
<g id="a_edge2"><a xlink:href="https://logtalk.org/library/user_0.html" xlink:title="implements">
<path fill="none" stroke="black" d="M291.91,-284.02C303.65,-312.72 326.59,-367.91 348,-414 360.32,-440.51 375.12,-469.95 386.68,-492.47"/>
<ellipse fill="black" stroke="black" cx="388.64" cy="-496.27" rx="4" ry="4"/>
</a>
</g>
<g id="a_edge2&#45;label"><a xlink:href="https://logtalk.org/library/user_0.html" xlink:title="https://logtalk.org/library/user_0.html">
<text text-anchor="start" x="364" y="-442.8" font-family="Courier,monospace" font-size="9.00">implements</text>
</a>
</g>
</g>
<!-- logtalk -->
<g id="node5" class="node">
<title>logtalk</title>
<g id="a_node5"><a xlink:href="https://logtalk.org/library/logtalk_0.html" xlink:title="https://logtalk.org/library/logtalk_0.html">
<polygon fill="cornsilk" stroke="black" points="205.5,-404 28.5,-404 28.5,-123 205.5,-123 205.5,-404"/>
<g id="a_node5_11"><a xlink:href="logtalk_object_xref_diagram.svg" xlink:title="Zoom">
<image xlink:href="zoom.png" width="11px" height="11px" preserveAspectRatio="xMinYMin meet" x="37" y="-399.5"/>
</a>
</g>
<text text-anchor="start" x="40" y="-380.3" font-family="Courier,monospace" font-size="9.00"> </text>
<text text-anchor="start" x="101" y="-379.7" font-family="Courier,monospace" font-size="11.00">logtalk</text>
<text text-anchor="start" x="193" y="-380.3" font-family="Courier,monospace" font-size="9.00"> </text>
<text text-anchor="start" x="40" y="-369.3" font-family="Courier,monospace" font-size="9.00"> </text>
<text text-anchor="start" x="89" y="-369.9" font-family="Courier,monospace" font-size="7.00">built&#45;in prototype</text>
<text text-anchor="start" x="193" y="-369.3" font-family="Courier,monospace" font-size="9.00"> </text>
<text text-anchor="start" x="40" y="-359.3" font-family="Courier,monospace" font-size="9.00"> </text>
<text text-anchor="start" x="40" y="-349.3" font-family="Courier,monospace" font-size="9.00"> </text>
<text text-anchor="start" x="86.5" y="-349.3" font-family="Courier,monospace" font-size="9.00">print_message/3</text>
<text text-anchor="start" x="193" y="-349.3" font-family="Courier,monospace" font-size="9.00"> </text>
<text text-anchor="start" x="40" y="-339.3" font-family="Courier,monospace" font-size="9.00"> </text>
<text text-anchor="start" x="70.5" y="-339.3" font-family="Courier,monospace" font-size="9.00">print_message_tokens/3</text>
<text text-anchor="start" x="193" y="-339.3" font-family="Courier,monospace" font-size="9.00"> </text>
<text text-anchor="start" x="40" y="-329.3" font-family="Courier,monospace" font-size="9.00"> </text>
<text text-anchor="start" x="73" y="-329.3" font-family="Courier,monospace" font-size="9.00">print_message_token/4</text>
<text text-anchor="start" x="193" y="-329.3" font-family="Courier,monospace" font-size="9.00"> </text>
<text text-anchor="start" x="40" y="-319.3" font-family="Courier,monospace" font-size="9.00"> </text>
<text text-anchor="start" x="82" y="-319.3" font-family="Courier,monospace" font-size="9.00">message_tokens//2</text>
<text text-anchor="start" x="193" y="-319.3" font-family="Courier,monospace" font-size="9.00"> </text>
<text text-anchor="start" x="40" y="-309.3" font-family="Courier,monospace" font-size="9.00"> </text>
<text text-anchor="start" x="68.5" y="-309.3" font-family="Courier,monospace" font-size="9.00">message_prefix_stream/4</text>
<text text-anchor="start" x="193" y="-309.3" font-family="Courier,monospace" font-size="9.00"> </text>
<text text-anchor="start" x="40" y="-299.3" font-family="Courier,monospace" font-size="9.00"> </text>
<text text-anchor="start" x="88.5" y="-299.3" font-family="Courier,monospace" font-size="9.00">message_hook/4</text>
<text text-anchor="start" x="193" y="-299.3" font-family="Courier,monospace" font-size="9.00"> </text>
<text text-anchor="start" x="40" y="-289.3" font-family="Courier,monospace" font-size="9.00"> </text>
<text text-anchor="start" x="88.5" y="-289.3" font-family="Courier,monospace" font-size="9.00">ask_question/5</text>
<text text-anchor="start" x="193" y="-289.3" font-family="Courier,monospace" font-size="9.00"> </text>
<text text-anchor="start" x="40" y="-279.3" font-family="Courier,monospace" font-size="9.00"> </text>
<text text-anchor="start" x="86.5" y="-279.3" font-family="Courier,monospace" font-size="9.00">question_hook/6</text>
<text text-anchor="start" x="193" y="-279.3" font-family="Courier,monospace" font-size="9.00"> </text>
<text text-anchor="start" x="40" y="-269.3" font-family="Courier,monospace" font-size="9.00"> </text>
<text text-anchor="start" x="66" y="-269.3" font-family="Courier,monospace" font-size="9.00">question_prompt_stream/4</text>
<text text-anchor="start" x="193" y="-269.3" font-family="Courier,monospace" font-size="9.00"> </text>
<text text-anchor="start" x="40" y="-259.3" font-family="Courier,monospace" font-size="9.00"> </text>
<text text-anchor="start" x="91" y="-259.3" font-family="Courier,monospace" font-size="9.00">trace_event/2</text>
<text text-anchor="start" x="193" y="-259.3" font-family="Courier,monospace" font-size="9.00"> </text>
<text text-anchor="start" x="40" y="-249.3" font-family="Courier,monospace" font-size="9.00"> </text>
<text text-anchor="start" x="66" y="-249.3" font-family="Courier,monospace" font-size="9.00">debug_handler_provider/1</text>
<text text-anchor="start" x="193" y="-249.3" font-family="Courier,monospace" font-size="9.00"> </text>
<text text-anchor="start" x="40" y="-239.3" font-family="Courier,monospace" font-size="9.00"> </text>
<text text-anchor="start" x="86.5" y="-239.3" font-family="Courier,monospace" font-size="9.00">debug_handler/2</text>
<text text-anchor="start" x="193" y="-239.3" font-family="Courier,monospace" font-size="9.00"> </text>
<text text-anchor="start" x="40" y="-229.3" font-family="Courier,monospace" font-size="9.00"> </text>
<text text-anchor="start" x="73" y="-229.3" font-family="Courier,monospace" font-size="9.00">expand_library_path/2</text>
<text text-anchor="start" x="193" y="-229.3" font-family="Courier,monospace" font-size="9.00"> </text>
<text text-anchor="start" x="40" y="-219.3" font-family="Courier,monospace" font-size="9.00"> </text>
<text text-anchor="start" x="91" y="-219.3" font-family="Courier,monospace" font-size="9.00">loaded_file/1</text>
<text text-anchor="start" x="193" y="-219.3" font-family="Courier,monospace" font-size="9.00"> </text>
<text text-anchor="start" x="40" y="-209.3" font-family="Courier,monospace" font-size="9.00"> </text>
<text text-anchor="start" x="70.5" y="-209.3" font-family="Courier,monospace" font-size="9.00">loaded_file_property/2</text>
<text text-anchor="start" x="193" y="-209.3" font-family="Courier,monospace" font-size="9.00"> </text>
<text text-anchor="start" x="40" y="-199.3" font-family="Courier,monospace" font-size="9.00"> </text>
<text text-anchor="start" x="73" y="-199.3" font-family="Courier,monospace" font-size="9.00">file_type_extension/2</text>
<text text-anchor="start" x="193" y="-199.3" font-family="Courier,monospace" font-size="9.00"> </text>
<text text-anchor="start" x="40" y="-189.3" font-family="Courier,monospace" font-size="9.00"> </text>
<text text-anchor="start" x="73" y="-189.3" font-family="Courier,monospace" font-size="9.00">compile_aux_clauses/1</text>
<text text-anchor="start" x="193" y="-189.3" font-family="Courier,monospace" font-size="9.00"> </text>
<text text-anchor="start" x="40" y="-179.3" font-family="Courier,monospace" font-size="9.00"> </text>
<text text-anchor="start" x="86.5" y="-179.3" font-family="Courier,monospace" font-size="9.00">entity_prefix/2</text>
<text text-anchor="start" x="193" y="-179.3" font-family="Courier,monospace" font-size="9.00"> </text>
<text text-anchor="start" x="40" y="-169.3" font-family="Courier,monospace" font-size="9.00"> </text>
<text text-anchor="start" x="64" y="-169.3" font-family="Courier,monospace" font-size="9.00">compile_predicate_heads/4</text>
<text text-anchor="start" x="193" y="-169.3" font-family="Courier,monospace" font-size="9.00"> </text>
<text text-anchor="start" x="40" y="-159.3" font-family="Courier,monospace" font-size="9.00"> </text>
<text text-anchor="start" x="52.5" y="-159.3" font-family="Courier,monospace" font-size="9.00">compile_predicate_indicators/3</text>
<text text-anchor="start" x="193" y="-159.3" font-family="Courier,monospace" font-size="9.00"> </text>
<text text-anchor="start" x="40" y="-149.3" font-family="Courier,monospace" font-size="9.00"> </text>
<text text-anchor="start" x="59.5" y="-149.3" font-family="Courier,monospace" font-size="9.00">decompile_predicate_heads/4</text>
<text text-anchor="start" x="193" y="-149.3" font-family="Courier,monospace" font-size="9.00"> </text>
<text text-anchor="start" x="40" y="-139.3" font-family="Courier,monospace" font-size="9.00"> </text>
<text text-anchor="start" x="48" y="-139.3" font-family="Courier,monospace" font-size="9.00">decompile_predicate_indicators/4</text>
<text text-anchor="start" x="193" y="-139.3" font-family="Courier,monospace" font-size="9.00"> </text>
<text text-anchor="start" x="40" y="-129.3" font-family="Courier,monospace" font-size="9.00"> </text>
<text text-anchor="start" x="77.5" y="-129.3" font-family="Courier,monospace" font-size="9.00">execution_context/7</text>
<text text-anchor="start" x="193" y="-129.3" font-family="Courier,monospace" font-size="9.00"> </text>
</a>
</g>
</g>
<!-- core_messages -->
<g id="node6" class="node">
<title>core_messages</title>
<g id="a_node6"><a xlink:href="https://logtalk.org/library/core_messages_0.html" xlink:title="https://logtalk.org/library/core_messages_0.html">
<polygon fill="lightcyan" stroke="black" points="539.5,-299 362.5,-299 362.5,-295 358.5,-295 358.5,-291 362.5,-291 362.5,-236 358.5,-236 358.5,-232 362.5,-232 362.5,-228 539.5,-228 539.5,-299"/>
<polyline fill="none" stroke="black" points="362.5,-295 366.5,-295 366.5,-291 362.5,-291 "/>
<polyline fill="none" stroke="black" points="362.5,-236 366.5,-236 366.5,-232 362.5,-232 "/>
<g id="a_node6_12"><a xlink:href="core_messages_category_xref_diagram.svg" xlink:title="Zoom">
<image xlink:href="zoom.png" width="11px" height="11px" preserveAspectRatio="xMinYMin meet" x="371" y="-294.5"/>
</a>
</g>
<text text-anchor="start" x="374" y="-275.3" font-family="Courier,monospace" font-size="9.00"> </text>
<text text-anchor="start" x="418.5" y="-274.7" font-family="Courier,monospace" font-size="11.00">core_messages</text>
<text text-anchor="start" x="527" y="-275.3" font-family="Courier,monospace" font-size="9.00"> </text>
<text text-anchor="start" x="374" y="-264.3" font-family="Courier,monospace" font-size="9.00"> </text>
<text text-anchor="start" x="424.5" y="-264.9" font-family="Courier,monospace" font-size="7.00">built&#45;in category</text>
<text text-anchor="start" x="527" y="-264.3" font-family="Courier,monospace" font-size="9.00"> </text>
<text text-anchor="start" x="374" y="-254.3" font-family="Courier,monospace" font-size="9.00"> </text>
<text text-anchor="start" x="374" y="-244.3" font-family="Courier,monospace" font-size="9.00"> </text>
<text text-anchor="start" x="382" y="-244.3" font-family="Courier,monospace" font-size="9.00">logtalk::message_prefix_stream/4</text>
<text text-anchor="start" x="527" y="-244.3" font-family="Courier,monospace" font-size="9.00"> </text>
<text text-anchor="start" x="374" y="-234.3" font-family="Courier,monospace" font-size="9.00"> </text>
<text text-anchor="start" x="395.5" y="-234.3" font-family="Courier,monospace" font-size="9.00">logtalk::message_tokens//2</text>
<text text-anchor="start" x="527" y="-234.3" font-family="Courier,monospace" font-size="9.00"> </text>
</a>
</g>
</g>
</g>
</svg>
