<?xml version="1.0" encoding="UTF-8" standalone="no"?>
<!DOCTYPE svg PUBLIC "-//W3C//DTD SVG 1.1//EN"
 "http://www.w3.org/Graphics/SVG/1.1/DTD/svg11.dtd">
<!-- Generated by graphviz version 2.41.20170818.2128 (20170818.2128)
 -->
<!-- Title: core Pages: 1 -->
<svg width="896pt" height="788pt"
 viewBox="72.00 72.00 824.00 716.00" xmlns="http://www.w3.org/2000/svg" xmlns:xlink="http://www.w3.org/1999/xlink">
<g id="graph0" class="graph" transform="scale(1 1) rotate(0) translate(76 712)">
<title>core</title>
<polygon fill="white" stroke="transparent" points="-4,4 -4,-640 748,-640 748,4 -4,4"/>
<text text-anchor="start" x="8" y="-18" font-family="Courier,monospace" font-size="10.00" fill="#8b8989">Logtalk core entities</text>
<text text-anchor="start" x="8" y="-7" font-family="Courier,monospace" font-size="10.00" fill="#8b8989">Generated on 2017/08/25, 10:15</text>
<g id="clust1" class="cluster">
<title>cluster_library_core</title>
<g id="a_clust1"><a xlink:href="https://github.com/LogtalkDotOrg/logtalk3/tree/master/core/" xlink:title="https://github.com/LogtalkDotOrg/logtalk3/tree/master/core/">
<path fill="#eee9e9" stroke="#8b8989" d="M20,-38C20,-38 724,-38 724,-38 730,-38 736,-44 736,-50 736,-50 736,-616 736,-616 736,-622 730,-628 724,-628 724,-628 20,-628 20,-628 14,-628 8,-622 8,-616 8,-616 8,-50 8,-50 8,-44 14,-38 20,-38"/>
<text text-anchor="middle" x="25.5" y="-45" font-family="Courier,monospace" font-size="10.00" fill="#8b8989">core</text>
</a>
</g>
</g>
<g id="clust2" class="cluster">
<title>cluster_file_/opt/local/share/logtalk/core/expanding.lgt</title>
<g id="a_clust2"><a xlink:href="https://github.com/LogtalkDotOrg/logtalk3/tree/master/core/expanding.lgt" xlink:title="https://github.com/LogtalkDotOrg/logtalk3/tree/master/core/expanding.lgt">
<path fill="snow" stroke="#8b8989" d="M626,-172C626,-172 714,-172 714,-172 720,-172 726,-178 726,-184 726,-184 726,-259 726,-259 726,-265 720,-271 714,-271 714,-271 626,-271 626,-271 620,-271 614,-265 614,-259 614,-259 614,-184 614,-184 614,-178 620,-172 626,-172"/>
<text text-anchor="middle" x="651.5" y="-179" font-family="Courier,monospace" font-size="10.00" fill="#8b8989">expanding.lgt</text>
</a>
</g>
</g>
<g id="clust3" class="cluster">
<title>cluster_file_/opt/local/share/logtalk/core/monitoring.lgt</title>
<g id="a_clust3"><a xlink:href="https://github.com/LogtalkDotOrg/logtalk3/tree/master/core/monitoring.lgt" xlink:title="https://github.com/LogtalkDotOrg/logtalk3/tree/master/core/monitoring.lgt">
<path fill="snow" stroke="#8b8989" d="M516,-172C516,-172 592,-172 592,-172 598,-172 604,-178 604,-184 604,-184 604,-259 604,-259 604,-265 598,-271 592,-271 592,-271 516,-271 516,-271 510,-271 504,-265 504,-259 504,-259 504,-184 504,-184 504,-178 510,-172 516,-172"/>
<text text-anchor="middle" x="544" y="-179" font-family="Courier,monospace" font-size="10.00" fill="#8b8989">monitoring.lgt</text>
</a>
</g>
</g>
<g id="clust4" class="cluster">
<title>cluster_file_/opt/local/share/logtalk/core/forwarding.lgt</title>
<g id="a_clust4"><a xlink:href="https://github.com/LogtalkDotOrg/logtalk3/tree/master/core/forwarding.lgt" xlink:title="https://github.com/LogtalkDotOrg/logtalk3/tree/master/core/forwarding.lgt">
<path fill="snow" stroke="#8b8989" d="M404,-529C404,-529 480,-529 480,-529 486,-529 492,-535 492,-541 492,-541 492,-606 492,-606 492,-612 486,-618 480,-618 480,-618 404,-618 404,-618 398,-618 392,-612 392,-606 392,-606 392,-541 392,-541 392,-535 398,-529 404,-529"/>
<text text-anchor="middle" x="432" y="-536" font-family="Courier,monospace" font-size="10.00" fill="#8b8989">forwarding.lgt</text>
</a>
</g>
</g>
<g id="clust5" class="cluster">
<title>cluster_file_/opt/local/share/logtalk/core/user.lgt</title>
<g id="a_clust5"><a xlink:href="https://github.com/LogtalkDotOrg/logtalk3/tree/master/core/user.lgt" xlink:title="https://github.com/LogtalkDotOrg/logtalk3/tree/master/core/user.lgt">
<path fill="snow" stroke="#8b8989" d="M402,-184C402,-184 482,-184 482,-184 488,-184 494,-190 494,-196 494,-196 494,-247 494,-247 494,-253 488,-259 482,-259 482,-259 402,-259 402,-259 396,-259 390,-253 390,-247 390,-247 390,-196 390,-196 390,-190 396,-184 402,-184"/>
<text text-anchor="middle" x="416.5" y="-191" font-family="Courier,monospace" font-size="10.00" fill="#8b8989">user.lgt</text>
</a>
</g>
</g>
<g id="clust6" class="cluster">
<title>cluster_file_/opt/local/share/logtalk/core/logtalk.lgt</title>
<g id="a_clust6"><a xlink:href="https://github.com/LogtalkDotOrg/logtalk3/tree/master/core/logtalk.lgt" xlink:title="https://github.com/LogtalkDotOrg/logtalk3/tree/master/core/logtalk.lgt">
<path fill="snow" stroke="#8b8989" d="M216,-67C216,-67 368,-67 368,-67 374,-67 380,-73 380,-79 380,-79 380,-364 380,-364 380,-370 374,-376 368,-376 368,-376 216,-376 216,-376 210,-376 204,-370 204,-364 204,-364 204,-79 204,-79 204,-73 210,-67 216,-67"/>
<text text-anchor="middle" x="237" y="-74" font-family="Courier,monospace" font-size="10.00" fill="#8b8989">logtalk.lgt</text>
</a>
</g>
</g>
<g id="clust7" class="cluster">
<title>cluster_file_/opt/local/share/logtalk/core/core_messages.lgt</title>
<g id="a_clust7"><a xlink:href="https://github.com/LogtalkDotOrg/logtalk3/tree/master/core/core_messages.lgt" xlink:title="https://github.com/LogtalkDotOrg/logtalk3/tree/master/core/core_messages.lgt">
<path fill="snow" stroke="#8b8989" d="M30,-172C30,-172 182,-172 182,-172 188,-172 194,-178 194,-184 194,-184 194,-259 194,-259 194,-265 188,-271 182,-271 182,-271 30,-271 30,-271 24,-271 18,-265 18,-259 18,-259 18,-184 18,-184 18,-178 24,-172 30,-172"/>
<text text-anchor="middle" x="64.5" y="-179" font-family="Courier,monospace" font-size="10.00" fill="#8b8989">core_messages.lgt</text>
</a>
</g>
</g>
<!-- expanding -->
<g id="node1" class="node">
<title>expanding</title>
<g id="a_node1"><a xlink:href="http://logtalk.org/library/expanding_0.html" xlink:title="http://logtalk.org/library/expanding_0.html">
<polygon fill="aquamarine" stroke="black" points="709.5,-261 624.5,-261 624.5,-201 715.5,-201 715.5,-255 709.5,-261"/>
<polyline fill="none" stroke="black" points="709.5,-261 709.5,-255 "/>
<polyline fill="none" stroke="black" points="715.5,-255 709.5,-255 "/>
<text text-anchor="start" x="633" y="-248.8" font-family="Courier,monospace" font-size="9.00"> </text>
<text text-anchor="start" x="648" y="-248.2" font-family="Courier,monospace" font-size="11.00">expanding</text>
<text text-anchor="start" x="703" y="-248.8" font-family="Courier,monospace" font-size="9.00"> </text>
<text text-anchor="start" x="633" y="-237.8" font-family="Courier,monospace" font-size="9.00"> </text>
<text text-anchor="start" x="643.5" y="-238.4" font-family="Courier,monospace" font-size="7.00">built&#45;in protocol</text>
<text text-anchor="start" x="703" y="-237.8" font-family="Courier,monospace" font-size="9.00"> </text>
<text text-anchor="start" x="633" y="-227.8" font-family="Courier,monospace" font-size="9.00"> </text>
<text text-anchor="start" x="633" y="-217.8" font-family="Courier,monospace" font-size="9.00"> </text>
<text text-anchor="start" x="638" y="-217.8" font-family="Courier,monospace" font-size="9.00">goal_expansion/2</text>
<text text-anchor="start" x="703" y="-217.8" font-family="Courier,monospace" font-size="9.00"> </text>
<text text-anchor="start" x="633" y="-207.8" font-family="Courier,monospace" font-size="9.00"> </text>
<text text-anchor="start" x="638" y="-207.8" font-family="Courier,monospace" font-size="9.00">term_expansion/2</text>
<text text-anchor="start" x="703" y="-207.8" font-family="Courier,monospace" font-size="9.00"> </text>
</a>
</g>
</g>
<!-- monitoring -->
<g id="node2" class="node">
<title>monitoring</title>
<g id="a_node2"><a xlink:href="http://logtalk.org/library/monitoring_0.html" xlink:title="http://logtalk.org/library/monitoring_0.html">
<polygon fill="aquamarine" stroke="black" points="588,-261 514,-261 514,-201 594,-201 594,-255 588,-261"/>
<polyline fill="none" stroke="black" points="588,-261 588,-255 "/>
<polyline fill="none" stroke="black" points="594,-255 588,-255 "/>
<text text-anchor="start" x="522" y="-248.8" font-family="Courier,monospace" font-size="9.00"> </text>
<text text-anchor="start" x="529" y="-248.2" font-family="Courier,monospace" font-size="11.00">monitoring</text>
<text text-anchor="start" x="581" y="-248.8" font-family="Courier,monospace" font-size="9.00"> </text>
<text text-anchor="start" x="522" y="-237.8" font-family="Courier,monospace" font-size="9.00"> </text>
<text text-anchor="start" x="527" y="-238.4" font-family="Courier,monospace" font-size="7.00">built&#45;in protocol</text>
<text text-anchor="start" x="581" y="-237.8" font-family="Courier,monospace" font-size="9.00"> </text>
<text text-anchor="start" x="522" y="-227.8" font-family="Courier,monospace" font-size="9.00"> </text>
<text text-anchor="start" x="522" y="-217.8" font-family="Courier,monospace" font-size="9.00"> </text>
<text text-anchor="start" x="537.5" y="-217.8" font-family="Courier,monospace" font-size="9.00">before/3</text>
<text text-anchor="start" x="581" y="-217.8" font-family="Courier,monospace" font-size="9.00"> </text>
<text text-anchor="start" x="522" y="-207.8" font-family="Courier,monospace" font-size="9.00"> </text>
<text text-anchor="start" x="539.5" y="-207.8" font-family="Courier,monospace" font-size="9.00">after/3</text>
<text text-anchor="start" x="581" y="-207.8" font-family="Courier,monospace" font-size="9.00"> </text>
</a>
</g>
</g>
<!-- forwarding -->
<g id="node3" class="node">
<title>forwarding</title>
<g id="a_node3"><a xlink:href="http://logtalk.org/library/forwarding_0.html" xlink:title="http://logtalk.org/library/forwarding_0.html">
<polygon fill="aquamarine" stroke="black" points="476,-608 402,-608 402,-558 482,-558 482,-602 476,-608"/>
<polyline fill="none" stroke="black" points="476,-608 476,-602 "/>
<polyline fill="none" stroke="black" points="482,-602 476,-602 "/>
<text text-anchor="start" x="410" y="-595.8" font-family="Courier,monospace" font-size="9.00"> </text>
<text text-anchor="start" x="417" y="-595.2" font-family="Courier,monospace" font-size="11.00">forwarding</text>
<text text-anchor="start" x="469" y="-595.8" font-family="Courier,monospace" font-size="9.00"> </text>
<text text-anchor="start" x="410" y="-584.8" font-family="Courier,monospace" font-size="9.00"> </text>
<text text-anchor="start" x="415" y="-585.4" font-family="Courier,monospace" font-size="7.00">built&#45;in protocol</text>
<text text-anchor="start" x="469" y="-584.8" font-family="Courier,monospace" font-size="9.00"> </text>
<text text-anchor="start" x="410" y="-574.8" font-family="Courier,monospace" font-size="9.00"> </text>
<text text-anchor="start" x="410" y="-564.8" font-family="Courier,monospace" font-size="9.00"> </text>
<text text-anchor="start" x="423.5" y="-564.8" font-family="Courier,monospace" font-size="9.00">forward/1</text>
<text text-anchor="start" x="469" y="-564.8" font-family="Courier,monospace" font-size="9.00"> </text>
</a>
</g>
</g>
<!-- user -->
<g id="node4" class="node">
<title>user</title>
<g id="a_node4"><a xlink:href="http://logtalk.org/library/user_0.html" xlink:title="http://logtalk.org/library/user_0.html">
<polygon fill="beige" stroke="black" points="483.5,-249 400.5,-249 400.5,-213 483.5,-213 483.5,-249"/>
<text text-anchor="start" x="409" y="-233.8" font-family="Courier,monospace" font-size="9.00"> </text>
<text text-anchor="start" x="432.5" y="-233.2" font-family="Courier,monospace" font-size="11.00">user</text>
<text text-anchor="start" x="471" y="-233.8" font-family="Courier,monospace" font-size="9.00"> </text>
<text text-anchor="start" x="409" y="-222.8" font-family="Courier,monospace" font-size="9.00"> </text>
<text text-anchor="start" x="414" y="-223.4" font-family="Courier,monospace" font-size="7.00">built&#45;in prototype</text>
<text text-anchor="start" x="471" y="-222.8" font-family="Courier,monospace" font-size="9.00"> </text>
</a>
</g>
</g>
<!-- user&#45;&gt;forwarding -->
<g id="edge1" class="edge">
<title>user&#45;&gt;forwarding</title>
<g id="a_edge1"><a xlink:title="implements">
<path fill="none" stroke="black" d="M442,-249.36C442,-304.63 442,-477.14 442,-549.52"/>
<ellipse fill="black" stroke="black" cx="442" cy="-553.83" rx="4" ry="4"/>
</a>
</g>
<text text-anchor="start" x="442" y="-459.8" font-family="Courier,monospace" font-size="9.00">implements</text>
</g>
<!-- logtalk -->
<g id="node5" class="node">
<title>logtalk</title>
<g id="a_node5"><a xlink:href="http://logtalk.org/library/logtalk_0.html" xlink:title="http://logtalk.org/library/logtalk_0.html">
<polygon fill="beige" stroke="black" points="370,-366 214,-366 214,-96 370,-96 370,-366"/>
<text text-anchor="start" x="222" y="-353.8" font-family="Courier,monospace" font-size="9.00"> </text>
<text text-anchor="start" x="274.5" y="-353.2" font-family="Courier,monospace" font-size="11.00">logtalk</text>
<text text-anchor="start" x="357" y="-353.8" font-family="Courier,monospace" font-size="9.00"> </text>
<text text-anchor="start" x="222" y="-342.8" font-family="Courier,monospace" font-size="9.00"> </text>
<text text-anchor="start" x="263.5" y="-343.4" font-family="Courier,monospace" font-size="7.00">built&#45;in prototype</text>
<text text-anchor="start" x="357" y="-342.8" font-family="Courier,monospace" font-size="9.00"> </text>
<text text-anchor="start" x="222" y="-332.8" font-family="Courier,monospace" font-size="9.00"> </text>
<text text-anchor="start" x="222" y="-322.8" font-family="Courier,monospace" font-size="9.00"> </text>
<text text-anchor="start" x="261.5" y="-322.8" font-family="Courier,monospace" font-size="9.00">print_message/3</text>
<text text-anchor="start" x="357" y="-322.8" font-family="Courier,monospace" font-size="9.00"> </text>
<text text-anchor="start" x="222" y="-312.8" font-family="Courier,monospace" font-size="9.00"> </text>
<text text-anchor="start" x="247" y="-312.8" font-family="Courier,monospace" font-size="9.00">print_message_tokens/3</text>
<text text-anchor="start" x="357" y="-312.8" font-family="Courier,monospace" font-size="9.00"> </text>
<text text-anchor="start" x="222" y="-302.8" font-family="Courier,monospace" font-size="9.00"> </text>
<text text-anchor="start" x="249" y="-302.8" font-family="Courier,monospace" font-size="9.00">print_message_token/4</text>
<text text-anchor="start" x="357" y="-302.8" font-family="Courier,monospace" font-size="9.00"> </text>
<text text-anchor="start" x="222" y="-292.8" font-family="Courier,monospace" font-size="9.00"> </text>
<text text-anchor="start" x="257.5" y="-292.8" font-family="Courier,monospace" font-size="9.00">message_tokens//2</text>
<text text-anchor="start" x="357" y="-292.8" font-family="Courier,monospace" font-size="9.00"> </text>
<text text-anchor="start" x="222" y="-282.8" font-family="Courier,monospace" font-size="9.00"> </text>
<text text-anchor="start" x="245" y="-282.8" font-family="Courier,monospace" font-size="9.00">message_prefix_stream/4</text>
<text text-anchor="start" x="357" y="-282.8" font-family="Courier,monospace" font-size="9.00"> </text>
<text text-anchor="start" x="222" y="-272.8" font-family="Courier,monospace" font-size="9.00"> </text>
<text text-anchor="start" x="263.5" y="-272.8" font-family="Courier,monospace" font-size="9.00">message_hook/4</text>
<text text-anchor="start" x="357" y="-272.8" font-family="Courier,monospace" font-size="9.00"> </text>
<text text-anchor="start" x="222" y="-262.8" font-family="Courier,monospace" font-size="9.00"> </text>
<text text-anchor="start" x="263.5" y="-262.8" font-family="Courier,monospace" font-size="9.00">ask_question/5</text>
<text text-anchor="start" x="357" y="-262.8" font-family="Courier,monospace" font-size="9.00"> </text>
<text text-anchor="start" x="222" y="-252.8" font-family="Courier,monospace" font-size="9.00"> </text>
<text text-anchor="start" x="261.5" y="-252.8" font-family="Courier,monospace" font-size="9.00">question_hook/6</text>
<text text-anchor="start" x="357" y="-252.8" font-family="Courier,monospace" font-size="9.00"> </text>
<text text-anchor="start" x="222" y="-242.8" font-family="Courier,monospace" font-size="9.00"> </text>
<text text-anchor="start" x="243" y="-242.8" font-family="Courier,monospace" font-size="9.00">question_prompt_stream/4</text>
<text text-anchor="start" x="357" y="-242.8" font-family="Courier,monospace" font-size="9.00"> </text>
<text text-anchor="start" x="222" y="-232.8" font-family="Courier,monospace" font-size="9.00"> </text>
<text text-anchor="start" x="265.5" y="-232.8" font-family="Courier,monospace" font-size="9.00">trace_event/2</text>
<text text-anchor="start" x="357" y="-232.8" font-family="Courier,monospace" font-size="9.00"> </text>
<text text-anchor="start" x="222" y="-222.8" font-family="Courier,monospace" font-size="9.00"> </text>
<text text-anchor="start" x="243" y="-222.8" font-family="Courier,monospace" font-size="9.00">debug_handler_provider/1</text>
<text text-anchor="start" x="357" y="-222.8" font-family="Courier,monospace" font-size="9.00"> </text>
<text text-anchor="start" x="222" y="-212.8" font-family="Courier,monospace" font-size="9.00"> </text>
<text text-anchor="start" x="261.5" y="-212.8" font-family="Courier,monospace" font-size="9.00">debug_handler/2</text>
<text text-anchor="start" x="357" y="-212.8" font-family="Courier,monospace" font-size="9.00"> </text>
<text text-anchor="start" x="222" y="-202.8" font-family="Courier,monospace" font-size="9.00"> </text>
<text text-anchor="start" x="249" y="-202.8" font-family="Courier,monospace" font-size="9.00">expand_library_path/2</text>
<text text-anchor="start" x="357" y="-202.8" font-family="Courier,monospace" font-size="9.00"> </text>
<text text-anchor="start" x="222" y="-192.8" font-family="Courier,monospace" font-size="9.00"> </text>
<text text-anchor="start" x="265.5" y="-192.8" font-family="Courier,monospace" font-size="9.00">loaded_file/1</text>
<text text-anchor="start" x="357" y="-192.8" font-family="Courier,monospace" font-size="9.00"> </text>
<text text-anchor="start" x="222" y="-182.8" font-family="Courier,monospace" font-size="9.00"> </text>
<text text-anchor="start" x="247" y="-182.8" font-family="Courier,monospace" font-size="9.00">loaded_file_property/2</text>
<text text-anchor="start" x="357" y="-182.8" font-family="Courier,monospace" font-size="9.00"> </text>
<text text-anchor="start" x="222" y="-172.8" font-family="Courier,monospace" font-size="9.00"> </text>
<text text-anchor="start" x="249" y="-172.8" font-family="Courier,monospace" font-size="9.00">file_type_extension/2</text>
<text text-anchor="start" x="357" y="-172.8" font-family="Courier,monospace" font-size="9.00"> </text>
<text text-anchor="start" x="222" y="-162.8" font-family="Courier,monospace" font-size="9.00"> </text>
<text text-anchor="start" x="249" y="-162.8" font-family="Courier,monospace" font-size="9.00">compile_aux_clauses/1</text>
<text text-anchor="start" x="357" y="-162.8" font-family="Courier,monospace" font-size="9.00"> </text>
<text text-anchor="start" x="222" y="-152.8" font-family="Courier,monospace" font-size="9.00"> </text>
<text text-anchor="start" x="261.5" y="-152.8" font-family="Courier,monospace" font-size="9.00">entity_prefix/2</text>
<text text-anchor="start" x="357" y="-152.8" font-family="Courier,monospace" font-size="9.00"> </text>
<text text-anchor="start" x="222" y="-142.8" font-family="Courier,monospace" font-size="9.00"> </text>
<text text-anchor="start" x="241" y="-142.8" font-family="Courier,monospace" font-size="9.00">compile_predicate_heads/4</text>
<text text-anchor="start" x="357" y="-142.8" font-family="Courier,monospace" font-size="9.00"> </text>
<text text-anchor="start" x="222" y="-132.8" font-family="Courier,monospace" font-size="9.00"> </text>
<text text-anchor="start" x="231" y="-132.8" font-family="Courier,monospace" font-size="9.00">compile_predicate_indicators/3</text>
<text text-anchor="start" x="357" y="-132.8" font-family="Courier,monospace" font-size="9.00"> </text>
<text text-anchor="start" x="222" y="-122.8" font-family="Courier,monospace" font-size="9.00"> </text>
<text text-anchor="start" x="237" y="-122.8" font-family="Courier,monospace" font-size="9.00">decompile_predicate_heads/4</text>
<text text-anchor="start" x="357" y="-122.8" font-family="Courier,monospace" font-size="9.00"> </text>
<text text-anchor="start" x="222" y="-112.8" font-family="Courier,monospace" font-size="9.00"> </text>
<text text-anchor="start" x="227" y="-112.8" font-family="Courier,monospace" font-size="9.00">decompile_predicate_indicators/4</text>
<text text-anchor="start" x="357" y="-112.8" font-family="Courier,monospace" font-size="9.00"> </text>
<text text-anchor="start" x="222" y="-102.8" font-family="Courier,monospace" font-size="9.00"> </text>
<text text-anchor="start" x="253.5" y="-102.8" font-family="Courier,monospace" font-size="9.00">execution_context/7</text>
<text text-anchor="start" x="357" y="-102.8" font-family="Courier,monospace" font-size="9.00"> </text>
</a>
</g>
</g>
<!-- core_messages -->
<g id="node6" class="node">
<title>core_messages</title>
<g id="a_node6"><a xlink:href="http://logtalk.org/library/core_messages_0.html" xlink:title="http://logtalk.org/library/core_messages_0.html">
<polygon fill="lightcyan" stroke="black" points="184,-261 28,-261 28,-257 24,-257 24,-253 28,-253 28,-209 24,-209 24,-205 28,-205 28,-201 184,-201 184,-261"/>
<polyline fill="none" stroke="black" points="28,-257 32,-257 32,-253 28,-253 "/>
<polyline fill="none" stroke="black" points="28,-209 32,-209 32,-205 28,-205 "/>
<text text-anchor="start" x="36" y="-248.8" font-family="Courier,monospace" font-size="9.00"> </text>
<text text-anchor="start" x="73.5" y="-248.2" font-family="Courier,monospace" font-size="11.00">core_messages</text>
<text text-anchor="start" x="171" y="-248.8" font-family="Courier,monospace" font-size="9.00"> </text>
<text text-anchor="start" x="36" y="-237.8" font-family="Courier,monospace" font-size="9.00"> </text>
<text text-anchor="start" x="79" y="-238.4" font-family="Courier,monospace" font-size="7.00">built&#45;in category</text>
<text text-anchor="start" x="171" y="-237.8" font-family="Courier,monospace" font-size="9.00"> </text>
<text text-anchor="start" x="36" y="-227.8" font-family="Courier,monospace" font-size="9.00"> </text>
<text text-anchor="start" x="36" y="-217.8" font-family="Courier,monospace" font-size="9.00"> </text>
<text text-anchor="start" x="41" y="-217.8" font-family="Courier,monospace" font-size="9.00">logtalk::message_prefix_stream/4</text>
<text text-anchor="start" x="171" y="-217.8" font-family="Courier,monospace" font-size="9.00"> </text>
<text text-anchor="start" x="36" y="-207.8" font-family="Courier,monospace" font-size="9.00"> </text>
<text text-anchor="start" x="53" y="-207.8" font-family="Courier,monospace" font-size="9.00">logtalk::message_tokens//2</text>
<text text-anchor="start" x="171" y="-207.8" font-family="Courier,monospace" font-size="9.00"> </text>
</a>
</g>
</g>
</g>
</svg>
