<?xml version="1.0" encoding="UTF-8" standalone="no"?>
<?xml-stylesheet href="diagrams.css" type="text/css"?>
<!DOCTYPE svg PUBLIC "-//W3C//DTD SVG 1.1//EN"
 "http://www.w3.org/Graphics/SVG/1.1/DTD/svg11.dtd">
<!-- Generated by graphviz version 9.0.0 (20230911.1827)
 -->
<!-- Title: core Pages: 1 -->
<svg width="782pt" height="718pt"
 viewBox="72.00 72.00 710.00 646.25" xmlns="http://www.w3.org/2000/svg" xmlns:xlink="http://www.w3.org/1999/xlink">
<g id="graph0" class="graph" transform="scale(1 1) rotate(0) translate(76 642.25)">
<title>core</title>
<polygon fill="white" stroke="none" points="-4,4 -4,-570.25 634,-570.25 634,4 -4,4"/>
<text text-anchor="start" x="8" y="-28.25" font-family="Monospace" font-size="10.00" fill="dimgray">Logtalk core entities</text>
<text text-anchor="start" x="8" y="-17" font-family="Monospace" font-size="10.00" fill="dimgray">Inheritance diagram for library core</text>
<text text-anchor="start" x="8" y="-5.75" font-family="Monospace" font-size="10.00" fill="dimgray">Generated on 2023&#45;11&#45;24, 11:52</text>
<g id="clust1" class="cluster">
<title>cluster_library_core</title>
<g id="a_clust1"><a xlink:title="core/">
<path fill="whitesmoke" stroke="dimgray" d="M20,-49.75C20,-49.75 610,-49.75 610,-49.75 616,-49.75 622,-55.75 622,-61.75 622,-61.75 622,-546.25 622,-546.25 622,-552.25 616,-558.25 610,-558.25 610,-558.25 20,-558.25 20,-558.25 14,-558.25 8,-552.25 8,-546.25 8,-546.25 8,-61.75 8,-61.75 8,-55.75 14,-49.75 20,-49.75"/>
<g id="a_clust1_0"><a xlink:href="https://github.com/LogtalkDotOrg/logtalk3/tree/8e4c96b2618b9e23fe04635a7c8fea9be6031c33/core/" xlink:title="https://github.com/LogtalkDotOrg/logtalk3/tree/8e4c96b2618b9e23fe04635a7c8fea9be6031c33/core/">
<text text-anchor="start" x="20" y="-59.5" font-family="Monospace" font-size="10.00" fill="dimgray">core/</text>
</a>
</g>
</a>
</g>
</g>
<g id="clust2" class="cluster">
<title>cluster_file_/opt/local/share/logtalk/core/expanding.lgt</title>
<g id="a_clust2"><a xlink:title="expanding.lgt">
<path fill="snow" stroke="dimgray" d="M212,-434C212,-434 324,-434 324,-434 330,-434 336,-440 336,-446 336,-446 336,-536.25 336,-536.25 336,-542.25 330,-548.25 324,-548.25 324,-548.25 212,-548.25 212,-548.25 206,-548.25 200,-542.25 200,-536.25 200,-536.25 200,-446 200,-446 200,-440 206,-434 212,-434"/>
<g id="a_clust2_1"><a xlink:href="https://github.com/LogtalkDotOrg/logtalk3/tree/8e4c96b2618b9e23fe04635a7c8fea9be6031c33/core/expanding.lgt" xlink:title="https://github.com/LogtalkDotOrg/logtalk3/tree/8e4c96b2618b9e23fe04635a7c8fea9be6031c33/core/expanding.lgt">
<text text-anchor="start" x="212" y="-443.75" font-family="Monospace" font-size="10.00" fill="dimgray">expanding.lgt</text>
</a>
</g>
</a>
</g>
</g>
<g id="clust5" class="cluster">
<title>cluster_file_/opt/local/share/logtalk/core/user.lgt</title>
<g id="a_clust5"><a xlink:title="user.lgt">
<path fill="snow" stroke="dimgray" d="M490,-195C490,-195 600,-195 600,-195 606,-195 612,-201 612,-207 612,-207 612,-270.25 612,-270.25 612,-276.25 606,-282.25 600,-282.25 600,-282.25 490,-282.25 490,-282.25 484,-282.25 478,-276.25 478,-270.25 478,-270.25 478,-207 478,-207 478,-201 484,-195 490,-195"/>
<g id="a_clust5_2"><a xlink:href="https://github.com/LogtalkDotOrg/logtalk3/tree/8e4c96b2618b9e23fe04635a7c8fea9be6031c33/core/user.lgt" xlink:title="https://github.com/LogtalkDotOrg/logtalk3/tree/8e4c96b2618b9e23fe04635a7c8fea9be6031c33/core/user.lgt">
<text text-anchor="start" x="490" y="-204.75" font-family="Monospace" font-size="10.00" fill="dimgray">user.lgt</text>
</a>
</g>
</a>
</g>
</g>
<g id="clust6" class="cluster">
<title>cluster_file_/opt/local/share/logtalk/core/logtalk.lgt</title>
<g id="a_clust6"><a xlink:title="logtalk.lgt">
<path fill="snow" stroke="dimgray" d="M260,-87C260,-87 456,-87 456,-87 462,-87 468,-93 468,-99 468,-99 468,-378.25 468,-378.25 468,-384.25 462,-390.25 456,-390.25 456,-390.25 260,-390.25 260,-390.25 254,-390.25 248,-384.25 248,-378.25 248,-378.25 248,-99 248,-99 248,-93 254,-87 260,-87"/>
<g id="a_clust6_3"><a xlink:href="https://github.com/LogtalkDotOrg/logtalk3/tree/8e4c96b2618b9e23fe04635a7c8fea9be6031c33/core/logtalk.lgt" xlink:title="https://github.com/LogtalkDotOrg/logtalk3/tree/8e4c96b2618b9e23fe04635a7c8fea9be6031c33/core/logtalk.lgt">
<text text-anchor="start" x="260" y="-96.75" font-family="Monospace" font-size="10.00" fill="dimgray">logtalk.lgt</text>
</a>
</g>
</a>
</g>
</g>
<g id="clust3" class="cluster">
<title>cluster_file_/opt/local/share/logtalk/core/monitoring.lgt</title>
<g id="a_clust3"><a xlink:title="monitoring.lgt">
<path fill="snow" stroke="dimgray" d="M358,-434C358,-434 462,-434 462,-434 468,-434 474,-440 474,-446 474,-446 474,-536.25 474,-536.25 474,-542.25 468,-548.25 462,-548.25 462,-548.25 358,-548.25 358,-548.25 352,-548.25 346,-542.25 346,-536.25 346,-536.25 346,-446 346,-446 346,-440 352,-434 358,-434"/>
<g id="a_clust3_4"><a xlink:href="https://github.com/LogtalkDotOrg/logtalk3/tree/8e4c96b2618b9e23fe04635a7c8fea9be6031c33/core/monitoring.lgt" xlink:title="https://github.com/LogtalkDotOrg/logtalk3/tree/8e4c96b2618b9e23fe04635a7c8fea9be6031c33/core/monitoring.lgt">
<text text-anchor="start" x="358" y="-443.75" font-family="Monospace" font-size="10.00" fill="dimgray">monitoring.lgt</text>
</a>
</g>
</a>
</g>
</g>
<g id="clust4" class="cluster">
<title>cluster_file_/opt/local/share/logtalk/core/forwarding.lgt</title>
<g id="a_clust4"><a xlink:title="forwarding.lgt">
<path fill="snow" stroke="dimgray" d="M496,-438.5C496,-438.5 600,-438.5 600,-438.5 606,-438.5 612,-444.5 612,-450.5 612,-450.5 612,-531.75 612,-531.75 612,-537.75 606,-543.75 600,-543.75 600,-543.75 496,-543.75 496,-543.75 490,-543.75 484,-537.75 484,-531.75 484,-531.75 484,-450.5 484,-450.5 484,-444.5 490,-438.5 496,-438.5"/>
<g id="a_clust4_5"><a xlink:href="https://github.com/LogtalkDotOrg/logtalk3/tree/8e4c96b2618b9e23fe04635a7c8fea9be6031c33/core/forwarding.lgt" xlink:title="https://github.com/LogtalkDotOrg/logtalk3/tree/8e4c96b2618b9e23fe04635a7c8fea9be6031c33/core/forwarding.lgt">
<text text-anchor="start" x="496" y="-448.25" font-family="Monospace" font-size="10.00" fill="dimgray">forwarding.lgt</text>
</a>
</g>
</a>
</g>
</g>
<g id="clust7" class="cluster">
<title>cluster_file_/opt/local/share/logtalk/core/core_messages.lgt</title>
<g id="a_clust7"><a xlink:title="core_messages.lgt">
<path fill="snow" stroke="dimgray" d="M30,-181.5C30,-181.5 226,-181.5 226,-181.5 232,-181.5 238,-187.5 238,-193.5 238,-193.5 238,-283.75 238,-283.75 238,-289.75 232,-295.75 226,-295.75 226,-295.75 30,-295.75 30,-295.75 24,-295.75 18,-289.75 18,-283.75 18,-283.75 18,-193.5 18,-193.5 18,-187.5 24,-181.5 30,-181.5"/>
<g id="a_clust7_6"><a xlink:href="https://github.com/LogtalkDotOrg/logtalk3/tree/8e4c96b2618b9e23fe04635a7c8fea9be6031c33/core/core_messages.lgt" xlink:title="https://github.com/LogtalkDotOrg/logtalk3/tree/8e4c96b2618b9e23fe04635a7c8fea9be6031c33/core/core_messages.lgt">
<text text-anchor="start" x="30" y="-191.25" font-family="Monospace" font-size="10.00" fill="dimgray">core_messages.lgt</text>
</a>
</g>
</a>
</g>
</g>
<!-- expanding -->
<g id="node1" class="node">
<title>expanding</title>
<g id="a_node1"><a xlink:href="https://logtalk.org/library/expanding_0.html" xlink:title="https://logtalk.org/library/expanding_0.html">
<polygon fill="aquamarine" stroke="black" points="320,-538.25 210,-538.25 210,-471.25 326,-471.25 326,-532.25 320,-538.25"/>
<polyline fill="none" stroke="black" points="320,-538.25 320,-532.25"/>
<polyline fill="none" stroke="black" points="326,-532.25 320,-532.25"/>
<g id="a_node1_7"><a xlink:href="expanding_protocol_xref_diagram.svg" xlink:title="Zoom">
<image xlink:href="zoom.png" width="11px" height="11px" preserveAspectRatio="xMinYMin meet" x="218" y="-534.25"/>
</a>
</g>
<text text-anchor="start" x="220.88" y="-513.58" font-family="Monospace" font-size="9.00"> </text>
<text text-anchor="start" x="240.62" y="-512.8" font-family="Monospace" font-size="11.00">expanding</text>
<text text-anchor="start" x="312.88" y="-513.58" font-family="Monospace" font-size="9.00"> </text>
<text text-anchor="start" x="220.88" y="-502.7" font-family="Monospace" font-size="9.00"> </text>
<text text-anchor="start" x="232.75" y="-504.23" font-family="Monospace" font-size="7.00">built&#45;in protocol</text>
<text text-anchor="start" x="312.88" y="-502.7" font-family="Monospace" font-size="9.00"> </text>
<text text-anchor="start" x="220.88" y="-493.7" font-family="Monospace" font-size="9.00"> </text>
<text text-anchor="start" x="220.88" y="-484.7" font-family="Monospace" font-size="9.00"> </text>
<text text-anchor="start" x="229" y="-484.7" font-family="Monospace" font-size="9.00">goal_expansion/2</text>
<text text-anchor="start" x="312.88" y="-484.7" font-family="Monospace" font-size="9.00"> </text>
<text text-anchor="start" x="220.88" y="-475.7" font-family="Monospace" font-size="9.00"> </text>
<text text-anchor="start" x="229" y="-475.7" font-family="Monospace" font-size="9.00">term_expansion/2</text>
<text text-anchor="start" x="312.88" y="-475.7" font-family="Monospace" font-size="9.00"> </text>
</a>
</g>
</g>
<!-- monitoring -->
<g id="node2" class="node">
<title>monitoring</title>
<g id="a_node2"><a xlink:href="https://logtalk.org/library/monitoring_0.html" xlink:title="https://logtalk.org/library/monitoring_0.html">
<polygon fill="aquamarine" stroke="black" points="458,-538.25 356,-538.25 356,-471.25 464,-471.25 464,-532.25 458,-538.25"/>
<polyline fill="none" stroke="black" points="458,-538.25 458,-532.25"/>
<polyline fill="none" stroke="black" points="464,-532.25 458,-532.25"/>
<g id="a_node2_8"><a xlink:href="monitoring_protocol_xref_diagram.svg" xlink:title="Zoom">
<image xlink:href="zoom.png" width="11px" height="11px" preserveAspectRatio="xMinYMin meet" x="364" y="-534.25"/>
</a>
</g>
<text text-anchor="start" x="366.88" y="-513.58" font-family="Monospace" font-size="9.00"> </text>
<text text-anchor="start" x="379.25" y="-512.8" font-family="Monospace" font-size="11.00">monitoring</text>
<text text-anchor="start" x="450.88" y="-513.58" font-family="Monospace" font-size="9.00"> </text>
<text text-anchor="start" x="366.88" y="-502.7" font-family="Monospace" font-size="9.00"> </text>
<text text-anchor="start" x="374.75" y="-504.23" font-family="Monospace" font-size="7.00">built&#45;in protocol</text>
<text text-anchor="start" x="450.88" y="-502.7" font-family="Monospace" font-size="9.00"> </text>
<text text-anchor="start" x="366.88" y="-493.7" font-family="Monospace" font-size="9.00"> </text>
<text text-anchor="start" x="366.88" y="-484.7" font-family="Monospace" font-size="9.00"> </text>
<text text-anchor="start" x="392" y="-484.7" font-family="Monospace" font-size="9.00">before/3</text>
<text text-anchor="start" x="450.88" y="-484.7" font-family="Monospace" font-size="9.00"> </text>
<text text-anchor="start" x="366.88" y="-475.7" font-family="Monospace" font-size="9.00"> </text>
<text text-anchor="start" x="394.62" y="-475.7" font-family="Monospace" font-size="9.00">after/3</text>
<text text-anchor="start" x="450.88" y="-475.7" font-family="Monospace" font-size="9.00"> </text>
</a>
</g>
</g>
<!-- forwarding -->
<g id="node3" class="node">
<title>forwarding</title>
<g id="a_node3"><a xlink:href="https://logtalk.org/library/forwarding_0.html" xlink:title="https://logtalk.org/library/forwarding_0.html">
<polygon fill="aquamarine" stroke="black" points="596,-533.75 494,-533.75 494,-475.75 602,-475.75 602,-527.75 596,-533.75"/>
<polyline fill="none" stroke="black" points="596,-533.75 596,-527.75"/>
<polyline fill="none" stroke="black" points="602,-527.75 596,-527.75"/>
<g id="a_node3_9"><a xlink:href="forwarding_protocol_xref_diagram.svg" xlink:title="Zoom">
<image xlink:href="zoom.png" width="11px" height="11px" preserveAspectRatio="xMinYMin meet" x="502" y="-529.75"/>
</a>
</g>
<text text-anchor="start" x="504.88" y="-509.07" font-family="Monospace" font-size="9.00"> </text>
<text text-anchor="start" x="517.25" y="-508.3" font-family="Monospace" font-size="11.00">forwarding</text>
<text text-anchor="start" x="588.88" y="-509.07" font-family="Monospace" font-size="9.00"> </text>
<text text-anchor="start" x="504.88" y="-498.2" font-family="Monospace" font-size="9.00"> </text>
<text text-anchor="start" x="512.75" y="-499.73" font-family="Monospace" font-size="7.00">built&#45;in protocol</text>
<text text-anchor="start" x="588.88" y="-498.2" font-family="Monospace" font-size="9.00"> </text>
<text text-anchor="start" x="504.88" y="-489.2" font-family="Monospace" font-size="9.00"> </text>
<text text-anchor="start" x="504.88" y="-480.2" font-family="Monospace" font-size="9.00"> </text>
<text text-anchor="start" x="527.38" y="-480.2" font-family="Monospace" font-size="9.00">forward/1</text>
<text text-anchor="start" x="588.88" y="-480.2" font-family="Monospace" font-size="9.00"> </text>
</a>
</g>
</g>
<!-- user -->
<g id="node4" class="node">
<title>user</title>
<g id="a_node4"><a xlink:href="https://logtalk.org/library/user_0.html" xlink:title="https://logtalk.org/library/user_0.html">
<polygon fill="cornsilk" stroke="black" points="601.5,-272.25 488.5,-272.25 488.5,-232.25 601.5,-232.25 601.5,-272.25"/>
<g id="a_node4_10"><a xlink:href="user_object_xref_diagram.svg" xlink:title="Zoom">
<image xlink:href="zoom.png" width="11px" height="11px" preserveAspectRatio="xMinYMin meet" x="496.5" y="-268.25"/>
</a>
</g>
<text text-anchor="start" x="499.38" y="-247.57" font-family="Monospace" font-size="9.00"> </text>
<text text-anchor="start" x="534.5" y="-246.8" font-family="Monospace" font-size="11.00">user</text>
<text text-anchor="start" x="588.38" y="-247.57" font-family="Monospace" font-size="9.00"> </text>
<text text-anchor="start" x="499.38" y="-236.7" font-family="Monospace" font-size="9.00"> </text>
<text text-anchor="start" x="507.5" y="-238.22" font-family="Monospace" font-size="7.00">built&#45;in prototype</text>
<text text-anchor="start" x="588.38" y="-236.7" font-family="Monospace" font-size="9.00"> </text>
</a>
</g>
</g>
<!-- user&#45;&gt;expanding -->
<g id="edge1" class="edge">
<title>user&#45;&gt;expanding</title>
<g id="a_edge1"><a xlink:href="https://logtalk.org/library/user_0.html" xlink:title="implements">
<path fill="none" stroke="black" d="M539.76,-272.54C530.76,-302.06 509.63,-358.37 472,-390.25 460.37,-400.1 355.07,-426.16 342,-434 328.08,-442.35 314.61,-453.7 303.06,-464.82"/>
<ellipse fill="black" stroke="black" cx="300.05" cy="-467.79" rx="4" ry="4"/>
</a>
</g>
<g id="a_edge1&#45;label"><a xlink:href="https://logtalk.org/library/user_0.html" xlink:title="https://logtalk.org/library/user_0.html">
<text text-anchor="start" x="393" y="-417.45" font-family="Monospace" font-size="9.00">implements</text>
</a>
</g>
</g>
<!-- user&#45;&gt;monitoring -->
<g id="edge3" class="edge">
<title>user&#45;&gt;monitoring</title>
<g id="a_edge3"><a xlink:href="https://logtalk.org/library/user_0.html" xlink:title="implements">
<path fill="none" stroke="black" d="M534.91,-272.34C520.88,-298.85 494.65,-348.27 472,-390.25 458.9,-414.54 444.08,-441.66 432.22,-463.31"/>
<ellipse fill="black" stroke="black" cx="430.16" cy="-467.07" rx="4" ry="4"/>
</a>
</g>
<g id="a_edge3&#45;label"><a xlink:href="https://logtalk.org/library/user_0.html" xlink:title="https://logtalk.org/library/user_0.html">
<text text-anchor="start" x="456" y="-417.45" font-family="Monospace" font-size="9.00">implements</text>
</a>
</g>
</g>
<!-- user&#45;&gt;forwarding -->
<g id="edge2" class="edge">
<title>user&#45;&gt;forwarding</title>
<g id="a_edge2"><a xlink:href="https://logtalk.org/library/user_0.html" xlink:title="implements">
<path fill="none" stroke="black" d="M545.23,-272.49C545.73,-313.97 546.91,-412.43 547.55,-466.54"/>
<ellipse fill="black" stroke="black" cx="547.61" cy="-470.96" rx="4" ry="4"/>
</a>
</g>
<g id="a_edge2&#45;label"><a xlink:href="https://logtalk.org/library/user_0.html" xlink:title="https://logtalk.org/library/user_0.html">
<text text-anchor="start" x="547" y="-417.45" font-family="Monospace" font-size="9.00">implements</text>
</a>
</g>
</g>
<!-- logtalk -->
<g id="node5" class="node">
<title>logtalk</title>
<g id="a_node5"><a xlink:href="https://logtalk.org/library/logtalk_0.html" xlink:title="https://logtalk.org/library/logtalk_0.html">
<polygon fill="cornsilk" stroke="black" points="458,-380.25 258,-380.25 258,-124.25 458,-124.25 458,-380.25"/>
<g id="a_node5_11"><a xlink:href="logtalk_object_xref_diagram.svg" xlink:title="Zoom">
<image xlink:href="zoom.png" width="11px" height="11px" preserveAspectRatio="xMinYMin meet" x="266" y="-376.25"/>
</a>
</g>
<text text-anchor="start" x="268.88" y="-355.57" font-family="Monospace" font-size="9.00"> </text>
<text text-anchor="start" x="337.38" y="-354.8" font-family="Monospace" font-size="11.00">logtalk</text>
<text text-anchor="start" x="444.88" y="-355.57" font-family="Monospace" font-size="9.00"> </text>
<text text-anchor="start" x="268.88" y="-344.7" font-family="Monospace" font-size="9.00"> </text>
<text text-anchor="start" x="320.5" y="-346.23" font-family="Monospace" font-size="7.00">built&#45;in prototype</text>
<text text-anchor="start" x="444.88" y="-344.7" font-family="Monospace" font-size="9.00"> </text>
<text text-anchor="start" x="268.88" y="-335.7" font-family="Monospace" font-size="9.00"> </text>
<text text-anchor="start" x="268.88" y="-326.7" font-family="Monospace" font-size="9.00"> </text>
<text text-anchor="start" x="321.62" y="-326.7" font-family="Monospace" font-size="9.00">print_message/3</text>
<text text-anchor="start" x="444.88" y="-326.7" font-family="Monospace" font-size="9.00"> </text>
<text text-anchor="start" x="268.88" y="-317.7" font-family="Monospace" font-size="9.00"> </text>
<text text-anchor="start" x="303.25" y="-317.7" font-family="Monospace" font-size="9.00">print_message_tokens/3</text>
<text text-anchor="start" x="444.88" y="-317.7" font-family="Monospace" font-size="9.00"> </text>
<text text-anchor="start" x="268.88" y="-308.7" font-family="Monospace" font-size="9.00"> </text>
<text text-anchor="start" x="305.88" y="-308.7" font-family="Monospace" font-size="9.00">print_message_token/4</text>
<text text-anchor="start" x="444.88" y="-308.7" font-family="Monospace" font-size="9.00"> </text>
<text text-anchor="start" x="268.88" y="-299.7" font-family="Monospace" font-size="9.00"> </text>
<text text-anchor="start" x="316.38" y="-299.7" font-family="Monospace" font-size="9.00">message_tokens//2</text>
<text text-anchor="start" x="444.88" y="-299.7" font-family="Monospace" font-size="9.00"> </text>
<text text-anchor="start" x="268.88" y="-290.7" font-family="Monospace" font-size="9.00"> </text>
<text text-anchor="start" x="300.62" y="-290.7" font-family="Monospace" font-size="9.00">message_prefix_stream/4</text>
<text text-anchor="start" x="444.88" y="-290.7" font-family="Monospace" font-size="9.00"> </text>
<text text-anchor="start" x="268.88" y="-281.7" font-family="Monospace" font-size="9.00"> </text>
<text text-anchor="start" x="324.25" y="-281.7" font-family="Monospace" font-size="9.00">message_hook/4</text>
<text text-anchor="start" x="444.88" y="-281.7" font-family="Monospace" font-size="9.00"> </text>
<text text-anchor="start" x="268.88" y="-272.7" font-family="Monospace" font-size="9.00"> </text>
<text text-anchor="start" x="324.25" y="-272.7" font-family="Monospace" font-size="9.00">ask_question/5</text>
<text text-anchor="start" x="444.88" y="-272.7" font-family="Monospace" font-size="9.00"> </text>
<text text-anchor="start" x="268.88" y="-263.7" font-family="Monospace" font-size="9.00"> </text>
<text text-anchor="start" x="321.62" y="-263.7" font-family="Monospace" font-size="9.00">question_hook/6</text>
<text text-anchor="start" x="444.88" y="-263.7" font-family="Monospace" font-size="9.00"> </text>
<text text-anchor="start" x="268.88" y="-254.7" font-family="Monospace" font-size="9.00"> </text>
<text text-anchor="start" x="298" y="-254.7" font-family="Monospace" font-size="9.00">question_prompt_stream/4</text>
<text text-anchor="start" x="444.88" y="-254.7" font-family="Monospace" font-size="9.00"> </text>
<text text-anchor="start" x="268.88" y="-245.7" font-family="Monospace" font-size="9.00"> </text>
<text text-anchor="start" x="326.88" y="-245.7" font-family="Monospace" font-size="9.00">trace_event/2</text>
<text text-anchor="start" x="444.88" y="-245.7" font-family="Monospace" font-size="9.00"> </text>
<text text-anchor="start" x="268.88" y="-236.7" font-family="Monospace" font-size="9.00"> </text>
<text text-anchor="start" x="298" y="-236.7" font-family="Monospace" font-size="9.00">debug_handler_provider/1</text>
<text text-anchor="start" x="444.88" y="-236.7" font-family="Monospace" font-size="9.00"> </text>
<text text-anchor="start" x="268.88" y="-227.7" font-family="Monospace" font-size="9.00"> </text>
<text text-anchor="start" x="321.62" y="-227.7" font-family="Monospace" font-size="9.00">debug_handler/2</text>
<text text-anchor="start" x="444.88" y="-227.7" font-family="Monospace" font-size="9.00"> </text>
<text text-anchor="start" x="268.88" y="-218.7" font-family="Monospace" font-size="9.00"> </text>
<text text-anchor="start" x="305.88" y="-218.7" font-family="Monospace" font-size="9.00">expand_library_path/2</text>
<text text-anchor="start" x="444.88" y="-218.7" font-family="Monospace" font-size="9.00"> </text>
<text text-anchor="start" x="268.88" y="-209.7" font-family="Monospace" font-size="9.00"> </text>
<text text-anchor="start" x="326.88" y="-209.7" font-family="Monospace" font-size="9.00">loaded_file/1</text>
<text text-anchor="start" x="444.88" y="-209.7" font-family="Monospace" font-size="9.00"> </text>
<text text-anchor="start" x="268.88" y="-200.7" font-family="Monospace" font-size="9.00"> </text>
<text text-anchor="start" x="303.25" y="-200.7" font-family="Monospace" font-size="9.00">loaded_file_property/2</text>
<text text-anchor="start" x="444.88" y="-200.7" font-family="Monospace" font-size="9.00"> </text>
<text text-anchor="start" x="268.88" y="-191.7" font-family="Monospace" font-size="9.00"> </text>
<text text-anchor="start" x="305.88" y="-191.7" font-family="Monospace" font-size="9.00">file_type_extension/2</text>
<text text-anchor="start" x="444.88" y="-191.7" font-family="Monospace" font-size="9.00"> </text>
<text text-anchor="start" x="268.88" y="-182.7" font-family="Monospace" font-size="9.00"> </text>
<text text-anchor="start" x="305.88" y="-182.7" font-family="Monospace" font-size="9.00">compile_aux_clauses/1</text>
<text text-anchor="start" x="444.88" y="-182.7" font-family="Monospace" font-size="9.00"> </text>
<text text-anchor="start" x="268.88" y="-173.7" font-family="Monospace" font-size="9.00"> </text>
<text text-anchor="start" x="321.62" y="-173.7" font-family="Monospace" font-size="9.00">entity_prefix/2</text>
<text text-anchor="start" x="444.88" y="-173.7" font-family="Monospace" font-size="9.00"> </text>
<text text-anchor="start" x="268.88" y="-164.7" font-family="Monospace" font-size="9.00"> </text>
<text text-anchor="start" x="295.38" y="-164.7" font-family="Monospace" font-size="9.00">compile_predicate_heads/4</text>
<text text-anchor="start" x="444.88" y="-164.7" font-family="Monospace" font-size="9.00"> </text>
<text text-anchor="start" x="268.88" y="-155.7" font-family="Monospace" font-size="9.00"> </text>
<text text-anchor="start" x="282.25" y="-155.7" font-family="Monospace" font-size="9.00">compile_predicate_indicators/3</text>
<text text-anchor="start" x="444.88" y="-155.7" font-family="Monospace" font-size="9.00"> </text>
<text text-anchor="start" x="268.88" y="-146.7" font-family="Monospace" font-size="9.00"> </text>
<text text-anchor="start" x="290.12" y="-146.7" font-family="Monospace" font-size="9.00">decompile_predicate_heads/4</text>
<text text-anchor="start" x="444.88" y="-146.7" font-family="Monospace" font-size="9.00"> </text>
<text text-anchor="start" x="268.88" y="-137.7" font-family="Monospace" font-size="9.00"> </text>
<text text-anchor="start" x="277" y="-137.7" font-family="Monospace" font-size="9.00">decompile_predicate_indicators/4</text>
<text text-anchor="start" x="444.88" y="-137.7" font-family="Monospace" font-size="9.00"> </text>
<text text-anchor="start" x="268.88" y="-128.7" font-family="Monospace" font-size="9.00"> </text>
<text text-anchor="start" x="311.12" y="-128.7" font-family="Monospace" font-size="9.00">execution_context/7</text>
<text text-anchor="start" x="444.88" y="-128.7" font-family="Monospace" font-size="9.00"> </text>
</a>
</g>
</g>
<!-- core_messages -->
<g id="node6" class="node">
<title>core_messages</title>
<g id="a_node6"><a xlink:href="https://logtalk.org/library/core_messages_0.html" xlink:title="https://logtalk.org/library/core_messages_0.html">
<polygon fill="lightcyan" stroke="black" points="228,-285.75 28,-285.75 28,-281.75 24,-281.75 24,-277.75 28,-277.75 28,-226.75 24,-226.75 24,-222.75 28,-222.75 28,-218.75 228,-218.75 228,-285.75"/>
<polyline fill="none" stroke="black" points="28,-281.75 32,-281.75 32,-277.75 28,-277.75"/>
<polyline fill="none" stroke="black" points="28,-226.75 32,-226.75 32,-222.75 28,-222.75"/>
<g id="a_node6_12"><a xlink:href="core_messages_category_xref_diagram.svg" xlink:title="Zoom">
<image xlink:href="zoom.png" width="11px" height="11px" preserveAspectRatio="xMinYMin meet" x="36" y="-281.75"/>
</a>
</g>
<text text-anchor="start" x="38.88" y="-261.07" font-family="Monospace" font-size="9.00"> </text>
<text text-anchor="start" x="87.12" y="-260.3" font-family="Monospace" font-size="11.00">core_messages</text>
<text text-anchor="start" x="214.88" y="-261.07" font-family="Monospace" font-size="9.00"> </text>
<text text-anchor="start" x="38.88" y="-250.2" font-family="Monospace" font-size="9.00"> </text>
<text text-anchor="start" x="92.75" y="-251.72" font-family="Monospace" font-size="7.00">built&#45;in category</text>
<text text-anchor="start" x="214.88" y="-250.2" font-family="Monospace" font-size="9.00"> </text>
<text text-anchor="start" x="38.88" y="-241.2" font-family="Monospace" font-size="9.00"> </text>
<text text-anchor="start" x="38.88" y="-232.2" font-family="Monospace" font-size="9.00"> </text>
<text text-anchor="start" x="47" y="-232.2" font-family="Monospace" font-size="9.00">logtalk::message_prefix_stream/4</text>
<text text-anchor="start" x="214.88" y="-232.2" font-family="Monospace" font-size="9.00"> </text>
<text text-anchor="start" x="38.88" y="-223.2" font-family="Monospace" font-size="9.00"> </text>
<text text-anchor="start" x="62.75" y="-223.2" font-family="Monospace" font-size="9.00">logtalk::message_tokens//2</text>
<text text-anchor="start" x="214.88" y="-223.2" font-family="Monospace" font-size="9.00"> </text>
</a>
</g>
</g>
</g>
</svg>
