<?xml version="1.0" encoding="UTF-8" standalone="no"?>
<!DOCTYPE svg PUBLIC "-//W3C//DTD SVG 1.1//EN"
 "http://www.w3.org/Graphics/SVG/1.1/DTD/svg11.dtd">
<!-- Generated by graphviz version 2.41.20170511.2139 (20170511.2139)
 -->
<!-- Title: core Pages: 1 -->
<svg width="1052pt" height="788pt"
 viewBox="72.00 72.00 980.00 716.00" xmlns="http://www.w3.org/2000/svg" xmlns:xlink="http://www.w3.org/1999/xlink">
<g id="graph0" class="graph" transform="scale(1 1) rotate(0) translate(76 712)">
<title>core</title>
<polygon fill="white" stroke="transparent" points="-4,4 -4,-640 904,-640 904,4 -4,4"/>
<text text-anchor="start" x="8" y="-18" font-family="Courier,monospace" font-size="10.00" fill="#8b8989">Logtalk core entities</text>
<text text-anchor="start" x="8" y="-7" font-family="Courier,monospace" font-size="10.00" fill="#8b8989">Generated on 2017/05/22, 14:13</text>
<g id="clust1" class="cluster">
<title>cluster_library_core</title>
<g id="a_clust1"><a xlink:href="https://github.com/LogtalkDotOrg/logtalk3/tree/master/core/" xlink:title="https://github.com/LogtalkDotOrg/logtalk3/tree/master/core/">
<path fill="#eee9e9" stroke="#8b8989" d="M20,-38C20,-38 880,-38 880,-38 886,-38 892,-44 892,-50 892,-50 892,-616 892,-616 892,-622 886,-628 880,-628 880,-628 20,-628 20,-628 14,-628 8,-622 8,-616 8,-616 8,-50 8,-50 8,-44 14,-38 20,-38"/>
<text text-anchor="middle" x="28.5" y="-45" font-family="Courier,monospace" font-size="10.00" fill="#8b8989">core</text>
</a>
</g>
</g>
<g id="clust5" class="cluster">
<title>cluster_file_/opt/local/share/logtalk/core/user.lgt</title>
<g id="a_clust5"><a xlink:href="https://github.com/LogtalkDotOrg/logtalk3/tree/master/core/user.lgt" xlink:title="https://github.com/LogtalkDotOrg/logtalk3/tree/master/core/user.lgt">
<path fill="snow" stroke="#8b8989" d="M770,-184C770,-184 870,-184 870,-184 876,-184 882,-190 882,-196 882,-196 882,-247 882,-247 882,-253 876,-259 870,-259 870,-259 770,-259 770,-259 764,-259 758,-253 758,-247 758,-247 758,-196 758,-196 758,-190 764,-184 770,-184"/>
<text text-anchor="middle" x="790.5" y="-191" font-family="Courier,monospace" font-size="10.00" fill="#8b8989">user.lgt</text>
</a>
</g>
</g>
<g id="clust6" class="cluster">
<title>cluster_file_/opt/local/share/logtalk/core/logtalk.lgt</title>
<g id="a_clust6"><a xlink:href="https://github.com/LogtalkDotOrg/logtalk3/tree/master/core/logtalk.lgt" xlink:title="https://github.com/LogtalkDotOrg/logtalk3/tree/master/core/logtalk.lgt">
<path fill="snow" stroke="#8b8989" d="M538,-67C538,-67 736,-67 736,-67 742,-67 748,-73 748,-79 748,-79 748,-364 748,-364 748,-370 742,-376 736,-376 736,-376 538,-376 538,-376 532,-376 526,-370 526,-364 526,-364 526,-79 526,-79 526,-73 532,-67 538,-67"/>
<text text-anchor="middle" x="567.5" y="-74" font-family="Courier,monospace" font-size="10.00" fill="#8b8989">logtalk.lgt</text>
</a>
</g>
</g>
<g id="clust7" class="cluster">
<title>cluster_file_/opt/local/share/logtalk/core/core_messages.lgt</title>
<g id="a_clust7"><a xlink:href="https://github.com/LogtalkDotOrg/logtalk3/tree/master/core/core_messages.lgt" xlink:title="https://github.com/LogtalkDotOrg/logtalk3/tree/master/core/core_messages.lgt">
<path fill="snow" stroke="#8b8989" d="M306,-172C306,-172 504,-172 504,-172 510,-172 516,-178 516,-184 516,-184 516,-259 516,-259 516,-265 510,-271 504,-271 504,-271 306,-271 306,-271 300,-271 294,-265 294,-259 294,-259 294,-184 294,-184 294,-178 300,-172 306,-172"/>
<text text-anchor="middle" x="353.5" y="-179" font-family="Courier,monospace" font-size="10.00" fill="#8b8989">core_messages.lgt</text>
</a>
</g>
</g>
<g id="clust2" class="cluster">
<title>cluster_file_/opt/local/share/logtalk/core/expanding.lgt</title>
<g id="a_clust2"><a xlink:href="https://github.com/LogtalkDotOrg/logtalk3/tree/master/core/expanding.lgt" xlink:title="https://github.com/LogtalkDotOrg/logtalk3/tree/master/core/expanding.lgt">
<path fill="snow" stroke="#8b8989" d="M160,-172C160,-172 272,-172 272,-172 278,-172 284,-178 284,-184 284,-184 284,-259 284,-259 284,-265 278,-271 272,-271 272,-271 160,-271 160,-271 154,-271 148,-265 148,-259 148,-259 148,-184 148,-184 148,-178 154,-172 160,-172"/>
<text text-anchor="middle" x="195.5" y="-179" font-family="Courier,monospace" font-size="10.00" fill="#8b8989">expanding.lgt</text>
</a>
</g>
</g>
<g id="clust3" class="cluster">
<title>cluster_file_/opt/local/share/logtalk/core/monitoring.lgt</title>
<g id="a_clust3"><a xlink:href="https://github.com/LogtalkDotOrg/logtalk3/tree/master/core/monitoring.lgt" xlink:title="https://github.com/LogtalkDotOrg/logtalk3/tree/master/core/monitoring.lgt">
<path fill="snow" stroke="#8b8989" d="M30,-172C30,-172 126,-172 126,-172 132,-172 138,-178 138,-184 138,-184 138,-259 138,-259 138,-265 132,-271 126,-271 126,-271 30,-271 30,-271 24,-271 18,-265 18,-259 18,-259 18,-184 18,-184 18,-178 24,-172 30,-172"/>
<text text-anchor="middle" x="68.5" y="-179" font-family="Courier,monospace" font-size="10.00" fill="#8b8989">monitoring.lgt</text>
</a>
</g>
</g>
<g id="clust4" class="cluster">
<title>cluster_file_/opt/local/share/logtalk/core/forwarding.lgt</title>
<g id="a_clust4"><a xlink:href="https://github.com/LogtalkDotOrg/logtalk3/tree/master/core/forwarding.lgt" xlink:title="https://github.com/LogtalkDotOrg/logtalk3/tree/master/core/forwarding.lgt">
<path fill="snow" stroke="#8b8989" d="M772,-529C772,-529 868,-529 868,-529 874,-529 880,-535 880,-541 880,-541 880,-606 880,-606 880,-612 874,-618 868,-618 868,-618 772,-618 772,-618 766,-618 760,-612 760,-606 760,-606 760,-541 760,-541 760,-535 766,-529 772,-529"/>
<text text-anchor="middle" x="810.5" y="-536" font-family="Courier,monospace" font-size="10.00" fill="#8b8989">forwarding.lgt</text>
</a>
</g>
</g>
<!-- expanding -->
<g id="node1" class="node">
<title>expanding</title>
<g id="a_node1"><a xlink:href="http://logtalk.org/library/expanding_0.html" xlink:title="http://logtalk.org/library/expanding_0.html">
<polygon fill="aquamarine" stroke="black" points="267.5,-261 158.5,-261 158.5,-201 273.5,-201 273.5,-255 267.5,-261"/>
<polyline fill="none" stroke="black" points="267.5,-261 267.5,-255 "/>
<polyline fill="none" stroke="black" points="273.5,-255 267.5,-255 "/>
<text text-anchor="start" x="167" y="-248.8" font-family="Courier,monospace" font-size="9.00"> </text>
<text text-anchor="start" x="186.5" y="-248.2" font-family="Courier,monospace" font-size="11.00">expanding</text>
<text text-anchor="start" x="260" y="-248.8" font-family="Courier,monospace" font-size="9.00"> </text>
<text text-anchor="start" x="167" y="-237.8" font-family="Courier,monospace" font-size="9.00"> </text>
<text text-anchor="start" x="180.5" y="-238.4" font-family="Courier,monospace" font-size="7.00">built&#45;in protocol</text>
<text text-anchor="start" x="260" y="-237.8" font-family="Courier,monospace" font-size="9.00"> </text>
<text text-anchor="start" x="167" y="-227.8" font-family="Courier,monospace" font-size="9.00"> </text>
<text text-anchor="start" x="167" y="-217.8" font-family="Courier,monospace" font-size="9.00"> </text>
<text text-anchor="start" x="173" y="-217.8" font-family="Courier,monospace" font-size="9.00">goal_expansion/2</text>
<text text-anchor="start" x="260" y="-217.8" font-family="Courier,monospace" font-size="9.00"> </text>
<text text-anchor="start" x="167" y="-207.8" font-family="Courier,monospace" font-size="9.00"> </text>
<text text-anchor="start" x="173" y="-207.8" font-family="Courier,monospace" font-size="9.00">term_expansion/2</text>
<text text-anchor="start" x="260" y="-207.8" font-family="Courier,monospace" font-size="9.00"> </text>
</a>
</g>
</g>
<!-- monitoring -->
<g id="node2" class="node">
<title>monitoring</title>
<g id="a_node2"><a xlink:href="http://logtalk.org/library/monitoring_0.html" xlink:title="http://logtalk.org/library/monitoring_0.html">
<polygon fill="aquamarine" stroke="black" points="122,-261 28,-261 28,-201 128,-201 128,-255 122,-261"/>
<polyline fill="none" stroke="black" points="122,-261 122,-255 "/>
<polyline fill="none" stroke="black" points="128,-255 122,-255 "/>
<text text-anchor="start" x="36" y="-248.8" font-family="Courier,monospace" font-size="9.00"> </text>
<text text-anchor="start" x="44.5" y="-248.2" font-family="Courier,monospace" font-size="11.00">monitoring</text>
<text text-anchor="start" x="114" y="-248.8" font-family="Courier,monospace" font-size="9.00"> </text>
<text text-anchor="start" x="36" y="-237.8" font-family="Courier,monospace" font-size="9.00"> </text>
<text text-anchor="start" x="42" y="-238.4" font-family="Courier,monospace" font-size="7.00">built&#45;in protocol</text>
<text text-anchor="start" x="114" y="-237.8" font-family="Courier,monospace" font-size="9.00"> </text>
<text text-anchor="start" x="36" y="-227.8" font-family="Courier,monospace" font-size="9.00"> </text>
<text text-anchor="start" x="36" y="-217.8" font-family="Courier,monospace" font-size="9.00"> </text>
<text text-anchor="start" x="56" y="-217.8" font-family="Courier,monospace" font-size="9.00">before/3</text>
<text text-anchor="start" x="114" y="-217.8" font-family="Courier,monospace" font-size="9.00"> </text>
<text text-anchor="start" x="36" y="-207.8" font-family="Courier,monospace" font-size="9.00"> </text>
<text text-anchor="start" x="59" y="-207.8" font-family="Courier,monospace" font-size="9.00">after/3</text>
<text text-anchor="start" x="114" y="-207.8" font-family="Courier,monospace" font-size="9.00"> </text>
</a>
</g>
</g>
<!-- forwarding -->
<g id="node3" class="node">
<title>forwarding</title>
<g id="a_node3"><a xlink:href="http://logtalk.org/library/forwarding_0.html" xlink:title="http://logtalk.org/library/forwarding_0.html">
<polygon fill="aquamarine" stroke="black" points="864,-608 770,-608 770,-558 870,-558 870,-602 864,-608"/>
<polyline fill="none" stroke="black" points="864,-608 864,-602 "/>
<polyline fill="none" stroke="black" points="870,-602 864,-602 "/>
<text text-anchor="start" x="778" y="-595.8" font-family="Courier,monospace" font-size="9.00"> </text>
<text text-anchor="start" x="786.5" y="-595.2" font-family="Courier,monospace" font-size="11.00">forwarding</text>
<text text-anchor="start" x="856" y="-595.8" font-family="Courier,monospace" font-size="9.00"> </text>
<text text-anchor="start" x="778" y="-584.8" font-family="Courier,monospace" font-size="9.00"> </text>
<text text-anchor="start" x="784" y="-585.4" font-family="Courier,monospace" font-size="7.00">built&#45;in protocol</text>
<text text-anchor="start" x="856" y="-584.8" font-family="Courier,monospace" font-size="9.00"> </text>
<text text-anchor="start" x="778" y="-574.8" font-family="Courier,monospace" font-size="9.00"> </text>
<text text-anchor="start" x="778" y="-564.8" font-family="Courier,monospace" font-size="9.00"> </text>
<text text-anchor="start" x="795.5" y="-564.8" font-family="Courier,monospace" font-size="9.00">forward/1</text>
<text text-anchor="start" x="856" y="-564.8" font-family="Courier,monospace" font-size="9.00"> </text>
</a>
</g>
</g>
<!-- user -->
<g id="node4" class="node">
<title>user</title>
<g id="a_node4"><a xlink:href="http://logtalk.org/library/user_0.html" xlink:title="http://logtalk.org/library/user_0.html">
<polygon fill="beige" stroke="black" points="872,-249 768,-249 768,-213 872,-213 872,-249"/>
<text text-anchor="start" x="776" y="-233.8" font-family="Courier,monospace" font-size="9.00"> </text>
<text text-anchor="start" x="806.5" y="-233.2" font-family="Courier,monospace" font-size="11.00">user</text>
<text text-anchor="start" x="858" y="-233.8" font-family="Courier,monospace" font-size="9.00"> </text>
<text text-anchor="start" x="776" y="-222.8" font-family="Courier,monospace" font-size="9.00"> </text>
<text text-anchor="start" x="782" y="-223.4" font-family="Courier,monospace" font-size="7.00">built&#45;in prototype</text>
<text text-anchor="start" x="858" y="-222.8" font-family="Courier,monospace" font-size="9.00"> </text>
</a>
</g>
</g>
<!-- user&#45;&gt;forwarding -->
<g id="edge1" class="edge">
<title>user&#45;&gt;forwarding</title>
<g id="a_edge1"><a xlink:title="implements">
<path fill="none" stroke="black" d="M820,-249.4294C820,-305.8415 820,-476.741 820,-549.5599"/>
<ellipse fill="black" stroke="black" cx="820" cy="-553.9397" rx="4" ry="4"/>
</a>
</g>
<text text-anchor="start" x="820" y="-459.8" font-family="Courier,monospace" font-size="9.00">implements</text>
</g>
<!-- logtalk -->
<g id="node5" class="node">
<title>logtalk</title>
<g id="a_node5"><a xlink:href="http://logtalk.org/library/logtalk_0.html" xlink:title="http://logtalk.org/library/logtalk_0.html">
<polygon fill="beige" stroke="black" points="737.5,-366 536.5,-366 536.5,-96 737.5,-96 737.5,-366"/>
<text text-anchor="start" x="545" y="-353.8" font-family="Courier,monospace" font-size="9.00"> </text>
<text text-anchor="start" x="614" y="-353.2" font-family="Courier,monospace" font-size="11.00">logtalk</text>
<text text-anchor="start" x="724" y="-353.8" font-family="Courier,monospace" font-size="9.00"> </text>
<text text-anchor="start" x="545" y="-342.8" font-family="Courier,monospace" font-size="9.00"> </text>
<text text-anchor="start" x="599.5" y="-343.4" font-family="Courier,monospace" font-size="7.00">built&#45;in prototype</text>
<text text-anchor="start" x="724" y="-342.8" font-family="Courier,monospace" font-size="9.00"> </text>
<text text-anchor="start" x="545" y="-332.8" font-family="Courier,monospace" font-size="9.00"> </text>
<text text-anchor="start" x="545" y="-322.8" font-family="Courier,monospace" font-size="9.00"> </text>
<text text-anchor="start" x="596.5" y="-322.8" font-family="Courier,monospace" font-size="9.00">print_message/3</text>
<text text-anchor="start" x="724" y="-322.8" font-family="Courier,monospace" font-size="9.00"> </text>
<text text-anchor="start" x="545" y="-312.8" font-family="Courier,monospace" font-size="9.00"> </text>
<text text-anchor="start" x="578" y="-312.8" font-family="Courier,monospace" font-size="9.00">print_message_tokens/3</text>
<text text-anchor="start" x="724" y="-312.8" font-family="Courier,monospace" font-size="9.00"> </text>
<text text-anchor="start" x="545" y="-302.8" font-family="Courier,monospace" font-size="9.00"> </text>
<text text-anchor="start" x="580.5" y="-302.8" font-family="Courier,monospace" font-size="9.00">print_message_token/4</text>
<text text-anchor="start" x="724" y="-302.8" font-family="Courier,monospace" font-size="9.00"> </text>
<text text-anchor="start" x="545" y="-292.8" font-family="Courier,monospace" font-size="9.00"> </text>
<text text-anchor="start" x="591.5" y="-292.8" font-family="Courier,monospace" font-size="9.00">message_tokens//2</text>
<text text-anchor="start" x="724" y="-292.8" font-family="Courier,monospace" font-size="9.00"> </text>
<text text-anchor="start" x="545" y="-282.8" font-family="Courier,monospace" font-size="9.00"> </text>
<text text-anchor="start" x="575" y="-282.8" font-family="Courier,monospace" font-size="9.00">message_prefix_stream/4</text>
<text text-anchor="start" x="724" y="-282.8" font-family="Courier,monospace" font-size="9.00"> </text>
<text text-anchor="start" x="545" y="-272.8" font-family="Courier,monospace" font-size="9.00"> </text>
<text text-anchor="start" x="599.5" y="-272.8" font-family="Courier,monospace" font-size="9.00">message_hook/4</text>
<text text-anchor="start" x="724" y="-272.8" font-family="Courier,monospace" font-size="9.00"> </text>
<text text-anchor="start" x="545" y="-262.8" font-family="Courier,monospace" font-size="9.00"> </text>
<text text-anchor="start" x="599.5" y="-262.8" font-family="Courier,monospace" font-size="9.00">ask_question/5</text>
<text text-anchor="start" x="724" y="-262.8" font-family="Courier,monospace" font-size="9.00"> </text>
<text text-anchor="start" x="545" y="-252.8" font-family="Courier,monospace" font-size="9.00"> </text>
<text text-anchor="start" x="596.5" y="-252.8" font-family="Courier,monospace" font-size="9.00">question_hook/6</text>
<text text-anchor="start" x="724" y="-252.8" font-family="Courier,monospace" font-size="9.00"> </text>
<text text-anchor="start" x="545" y="-242.8" font-family="Courier,monospace" font-size="9.00"> </text>
<text text-anchor="start" x="572.5" y="-242.8" font-family="Courier,monospace" font-size="9.00">question_prompt_stream/4</text>
<text text-anchor="start" x="724" y="-242.8" font-family="Courier,monospace" font-size="9.00"> </text>
<text text-anchor="start" x="545" y="-232.8" font-family="Courier,monospace" font-size="9.00"> </text>
<text text-anchor="start" x="602" y="-232.8" font-family="Courier,monospace" font-size="9.00">trace_event/2</text>
<text text-anchor="start" x="724" y="-232.8" font-family="Courier,monospace" font-size="9.00"> </text>
<text text-anchor="start" x="545" y="-222.8" font-family="Courier,monospace" font-size="9.00"> </text>
<text text-anchor="start" x="572.5" y="-222.8" font-family="Courier,monospace" font-size="9.00">debug_handler_provider/1</text>
<text text-anchor="start" x="724" y="-222.8" font-family="Courier,monospace" font-size="9.00"> </text>
<text text-anchor="start" x="545" y="-212.8" font-family="Courier,monospace" font-size="9.00"> </text>
<text text-anchor="start" x="596.5" y="-212.8" font-family="Courier,monospace" font-size="9.00">debug_handler/2</text>
<text text-anchor="start" x="724" y="-212.8" font-family="Courier,monospace" font-size="9.00"> </text>
<text text-anchor="start" x="545" y="-202.8" font-family="Courier,monospace" font-size="9.00"> </text>
<text text-anchor="start" x="580.5" y="-202.8" font-family="Courier,monospace" font-size="9.00">expand_library_path/2</text>
<text text-anchor="start" x="724" y="-202.8" font-family="Courier,monospace" font-size="9.00"> </text>
<text text-anchor="start" x="545" y="-192.8" font-family="Courier,monospace" font-size="9.00"> </text>
<text text-anchor="start" x="602" y="-192.8" font-family="Courier,monospace" font-size="9.00">loaded_file/1</text>
<text text-anchor="start" x="724" y="-192.8" font-family="Courier,monospace" font-size="9.00"> </text>
<text text-anchor="start" x="545" y="-182.8" font-family="Courier,monospace" font-size="9.00"> </text>
<text text-anchor="start" x="578" y="-182.8" font-family="Courier,monospace" font-size="9.00">loaded_file_property/2</text>
<text text-anchor="start" x="724" y="-182.8" font-family="Courier,monospace" font-size="9.00"> </text>
<text text-anchor="start" x="545" y="-172.8" font-family="Courier,monospace" font-size="9.00"> </text>
<text text-anchor="start" x="580.5" y="-172.8" font-family="Courier,monospace" font-size="9.00">file_type_extension/2</text>
<text text-anchor="start" x="724" y="-172.8" font-family="Courier,monospace" font-size="9.00"> </text>
<text text-anchor="start" x="545" y="-162.8" font-family="Courier,monospace" font-size="9.00"> </text>
<text text-anchor="start" x="580.5" y="-162.8" font-family="Courier,monospace" font-size="9.00">compile_aux_clauses/1</text>
<text text-anchor="start" x="724" y="-162.8" font-family="Courier,monospace" font-size="9.00"> </text>
<text text-anchor="start" x="545" y="-152.8" font-family="Courier,monospace" font-size="9.00"> </text>
<text text-anchor="start" x="596.5" y="-152.8" font-family="Courier,monospace" font-size="9.00">entity_prefix/2</text>
<text text-anchor="start" x="724" y="-152.8" font-family="Courier,monospace" font-size="9.00"> </text>
<text text-anchor="start" x="545" y="-142.8" font-family="Courier,monospace" font-size="9.00"> </text>
<text text-anchor="start" x="569.5" y="-142.8" font-family="Courier,monospace" font-size="9.00">compile_predicate_heads/4</text>
<text text-anchor="start" x="724" y="-142.8" font-family="Courier,monospace" font-size="9.00"> </text>
<text text-anchor="start" x="545" y="-132.8" font-family="Courier,monospace" font-size="9.00"> </text>
<text text-anchor="start" x="556" y="-132.8" font-family="Courier,monospace" font-size="9.00">compile_predicate_indicators/3</text>
<text text-anchor="start" x="724" y="-132.8" font-family="Courier,monospace" font-size="9.00"> </text>
<text text-anchor="start" x="545" y="-122.8" font-family="Courier,monospace" font-size="9.00"> </text>
<text text-anchor="start" x="564.5" y="-122.8" font-family="Courier,monospace" font-size="9.00">decompile_predicate_heads/4</text>
<text text-anchor="start" x="724" y="-122.8" font-family="Courier,monospace" font-size="9.00"> </text>
<text text-anchor="start" x="545" y="-112.8" font-family="Courier,monospace" font-size="9.00"> </text>
<text text-anchor="start" x="551" y="-112.8" font-family="Courier,monospace" font-size="9.00">decompile_predicate_indicators/4</text>
<text text-anchor="start" x="724" y="-112.8" font-family="Courier,monospace" font-size="9.00"> </text>
<text text-anchor="start" x="545" y="-102.8" font-family="Courier,monospace" font-size="9.00"> </text>
<text text-anchor="start" x="586" y="-102.8" font-family="Courier,monospace" font-size="9.00">execution_context/7</text>
<text text-anchor="start" x="724" y="-102.8" font-family="Courier,monospace" font-size="9.00"> </text>
</a>
</g>
</g>
<!-- core_messages -->
<g id="node6" class="node">
<title>core_messages</title>
<g id="a_node6"><a xlink:href="http://logtalk.org/library/core_messages_0.html" xlink:title="http://logtalk.org/library/core_messages_0.html">
<polygon fill="lightcyan" stroke="black" points="505.5,-261 304.5,-261 304.5,-257 300.5,-257 300.5,-253 304.5,-253 304.5,-209 300.5,-209 300.5,-205 304.5,-205 304.5,-201 505.5,-201 505.5,-261"/>
<polyline fill="none" stroke="black" points="304.5,-257 308.5,-257 308.5,-253 304.5,-253 "/>
<polyline fill="none" stroke="black" points="304.5,-209 308.5,-209 308.5,-205 304.5,-205 "/>
<text text-anchor="start" x="313" y="-248.8" font-family="Courier,monospace" font-size="9.00"> </text>
<text text-anchor="start" x="362.5" y="-248.2" font-family="Courier,monospace" font-size="11.00">core_messages</text>
<text text-anchor="start" x="492" y="-248.8" font-family="Courier,monospace" font-size="9.00"> </text>
<text text-anchor="start" x="313" y="-237.8" font-family="Courier,monospace" font-size="9.00"> </text>
<text text-anchor="start" x="369.5" y="-238.4" font-family="Courier,monospace" font-size="7.00">built&#45;in category</text>
<text text-anchor="start" x="492" y="-237.8" font-family="Courier,monospace" font-size="9.00"> </text>
<text text-anchor="start" x="313" y="-227.8" font-family="Courier,monospace" font-size="9.00"> </text>
<text text-anchor="start" x="313" y="-217.8" font-family="Courier,monospace" font-size="9.00"> </text>
<text text-anchor="start" x="319" y="-217.8" font-family="Courier,monospace" font-size="9.00">logtalk::message_prefix_stream/4</text>
<text text-anchor="start" x="492" y="-217.8" font-family="Courier,monospace" font-size="9.00"> </text>
<text text-anchor="start" x="313" y="-207.8" font-family="Courier,monospace" font-size="9.00"> </text>
<text text-anchor="start" x="335" y="-207.8" font-family="Courier,monospace" font-size="9.00">logtalk::message_tokens//2</text>
<text text-anchor="start" x="492" y="-207.8" font-family="Courier,monospace" font-size="9.00"> </text>
</a>
</g>
</g>
</g>
</svg>
