<?xml version="1.0" encoding="UTF-8" standalone="no"?>
<?xml-stylesheet href="diagrams.css" type="text/css"?>
<!DOCTYPE svg PUBLIC "-//W3C//DTD SVG 1.1//EN"
 "http://www.w3.org/Graphics/SVG/1.1/DTD/svg11.dtd">
<!-- Generated by graphviz version 2.49.3 (20211023.0002)
 -->
<!-- Title: core Pages: 1 -->
<svg width="790pt" height="746pt"
 viewBox="72.00 72.00 718.00 674.00" xmlns="http://www.w3.org/2000/svg" xmlns:xlink="http://www.w3.org/1999/xlink">
<g id="graph0" class="graph" transform="scale(1 1) rotate(0) translate(76 670)">
<title>core</title>
<polygon fill="white" stroke="transparent" points="-4,4 -4,-598 642,-598 642,4 -4,4"/>
<text text-anchor="start" x="8" y="-29" font-family="Monospace" font-size="10.00" fill="dimgray">Logtalk core entities</text>
<text text-anchor="start" x="8" y="-18" font-family="Monospace" font-size="10.00" fill="dimgray">Inheritance diagram for library core</text>
<text text-anchor="start" x="8" y="-7" font-family="Monospace" font-size="10.00" fill="dimgray">Generated on 2021&#45;12&#45;01, 17:06</text>
<g id="clust1" class="cluster">
<title>cluster_library_core</title>
<g id="a_clust1"><a xlink:title="core/">
<path fill="whitesmoke" stroke="dimgray" d="M20,-49C20,-49 618,-49 618,-49 624,-49 630,-55 630,-61 630,-61 630,-574 630,-574 630,-580 624,-586 618,-586 618,-586 20,-586 20,-586 14,-586 8,-580 8,-574 8,-574 8,-61 8,-61 8,-55 14,-49 20,-49"/>
<g id="a_clust1_0"><a xlink:href="https://github.com/LogtalkDotOrg/logtalk3/tree/80bca11e23513ba9dee0b90ea6273fe532329b3a/core/" xlink:title="https://github.com/LogtalkDotOrg/logtalk3/tree/80bca11e23513ba9dee0b90ea6273fe532329b3a/core/">
<text text-anchor="start" x="20.5" y="-59.5" font-family="Monospace" font-size="10.00" fill="dimgray">core/</text>
</a>
</g>
</a>
</g>
</g>
<g id="clust3" class="cluster">
<title>cluster_file_/opt/local/share/logtalk/core/monitoring.lgt</title>
<g id="a_clust3"><a xlink:title="monitoring.lgt">
<path fill="snow" stroke="dimgray" d="M268,-458C268,-458 370,-458 370,-458 376,-458 382,-464 382,-470 382,-470 382,-564 382,-564 382,-570 376,-576 370,-576 370,-576 268,-576 268,-576 262,-576 256,-570 256,-564 256,-564 256,-470 256,-470 256,-464 262,-458 268,-458"/>
<g id="a_clust3_1"><a xlink:href="https://github.com/LogtalkDotOrg/logtalk3/tree/80bca11e23513ba9dee0b90ea6273fe532329b3a/core/monitoring.lgt" xlink:title="https://github.com/LogtalkDotOrg/logtalk3/tree/80bca11e23513ba9dee0b90ea6273fe532329b3a/core/monitoring.lgt">
<text text-anchor="start" x="268.5" y="-468.5" font-family="Monospace" font-size="10.00" fill="dimgray">monitoring.lgt</text>
</a>
</g>
</a>
</g>
</g>
<g id="clust4" class="cluster">
<title>cluster_file_/opt/local/share/logtalk/core/forwarding.lgt</title>
<g id="a_clust4"><a xlink:title="forwarding.lgt">
<path fill="snow" stroke="dimgray" d="M404,-463C404,-463 506,-463 506,-463 512,-463 518,-469 518,-475 518,-475 518,-559 518,-559 518,-565 512,-571 506,-571 506,-571 404,-571 404,-571 398,-571 392,-565 392,-559 392,-559 392,-475 392,-475 392,-469 398,-463 404,-463"/>
<g id="a_clust4_2"><a xlink:href="https://github.com/LogtalkDotOrg/logtalk3/tree/80bca11e23513ba9dee0b90ea6273fe532329b3a/core/forwarding.lgt" xlink:title="https://github.com/LogtalkDotOrg/logtalk3/tree/80bca11e23513ba9dee0b90ea6273fe532329b3a/core/forwarding.lgt">
<text text-anchor="start" x="404.5" y="-473.5" font-family="Monospace" font-size="10.00" fill="dimgray">forwarding.lgt</text>
</a>
</g>
</a>
</g>
</g>
<g id="clust7" class="cluster">
<title>cluster_file_/opt/local/share/logtalk/core/core_messages.lgt</title>
<g id="a_clust7"><a xlink:title="core_messages.lgt">
<path fill="snow" stroke="dimgray" d="M406,-191C406,-191 608,-191 608,-191 614,-191 620,-197 620,-203 620,-203 620,-297 620,-297 620,-303 614,-309 608,-309 608,-309 406,-309 406,-309 400,-309 394,-303 394,-297 394,-297 394,-203 394,-203 394,-197 400,-191 406,-191"/>
<g id="a_clust7_3"><a xlink:href="https://github.com/LogtalkDotOrg/logtalk3/tree/80bca11e23513ba9dee0b90ea6273fe532329b3a/core/core_messages.lgt" xlink:title="https://github.com/LogtalkDotOrg/logtalk3/tree/80bca11e23513ba9dee0b90ea6273fe532329b3a/core/core_messages.lgt">
<text text-anchor="start" x="406.5" y="-201.5" font-family="Monospace" font-size="10.00" fill="dimgray">core_messages.lgt</text>
</a>
</g>
</a>
</g>
</g>
<g id="clust2" class="cluster">
<title>cluster_file_/opt/local/share/logtalk/core/expanding.lgt</title>
<g id="a_clust2"><a xlink:title="expanding.lgt">
<path fill="snow" stroke="dimgray" d="M118,-458C118,-458 234,-458 234,-458 240,-458 246,-464 246,-470 246,-470 246,-564 246,-564 246,-570 240,-576 234,-576 234,-576 118,-576 118,-576 112,-576 106,-570 106,-564 106,-564 106,-470 106,-470 106,-464 112,-458 118,-458"/>
<g id="a_clust2_4"><a xlink:href="https://github.com/LogtalkDotOrg/logtalk3/tree/80bca11e23513ba9dee0b90ea6273fe532329b3a/core/expanding.lgt" xlink:title="https://github.com/LogtalkDotOrg/logtalk3/tree/80bca11e23513ba9dee0b90ea6273fe532329b3a/core/expanding.lgt">
<text text-anchor="start" x="118.5" y="-468.5" font-family="Monospace" font-size="10.00" fill="dimgray">expanding.lgt</text>
</a>
</g>
</a>
</g>
</g>
<g id="clust5" class="cluster">
<title>cluster_file_/opt/local/share/logtalk/core/user.lgt</title>
<g id="a_clust5"><a xlink:title="user.lgt">
<path fill="snow" stroke="dimgray" d="M266,-206C266,-206 372,-206 372,-206 378,-206 384,-212 384,-218 384,-218 384,-282 384,-282 384,-288 378,-294 372,-294 372,-294 266,-294 266,-294 260,-294 254,-288 254,-282 254,-282 254,-218 254,-218 254,-212 260,-206 266,-206"/>
<g id="a_clust5_5"><a xlink:href="https://github.com/LogtalkDotOrg/logtalk3/tree/80bca11e23513ba9dee0b90ea6273fe532329b3a/core/user.lgt" xlink:title="https://github.com/LogtalkDotOrg/logtalk3/tree/80bca11e23513ba9dee0b90ea6273fe532329b3a/core/user.lgt">
<text text-anchor="start" x="266.5" y="-216.5" font-family="Monospace" font-size="10.00" fill="dimgray">user.lgt</text>
</a>
</g>
</a>
</g>
</g>
<g id="clust6" class="cluster">
<title>cluster_file_/opt/local/share/logtalk/core/logtalk.lgt</title>
<g id="a_clust6"><a xlink:title="logtalk.lgt">
<path fill="snow" stroke="dimgray" d="M30,-86C30,-86 232,-86 232,-86 238,-86 244,-92 244,-98 244,-98 244,-402 244,-402 244,-408 238,-414 232,-414 232,-414 30,-414 30,-414 24,-414 18,-408 18,-402 18,-402 18,-98 18,-98 18,-92 24,-86 30,-86"/>
<g id="a_clust6_6"><a xlink:href="https://github.com/LogtalkDotOrg/logtalk3/tree/80bca11e23513ba9dee0b90ea6273fe532329b3a/core/logtalk.lgt" xlink:title="https://github.com/LogtalkDotOrg/logtalk3/tree/80bca11e23513ba9dee0b90ea6273fe532329b3a/core/logtalk.lgt">
<text text-anchor="start" x="30.5" y="-96.5" font-family="Monospace" font-size="10.00" fill="dimgray">logtalk.lgt</text>
</a>
</g>
</a>
</g>
</g>
<!-- expanding -->
<g id="node1" class="node">
<title>expanding</title>
<g id="a_node1"><a xlink:href="https://logtalk.org/library/expanding_0.html" xlink:title="https://logtalk.org/library/expanding_0.html">
<polygon fill="aquamarine" stroke="black" points="230,-566 116,-566 116,-495 236,-495 236,-560 230,-566"/>
<polyline fill="none" stroke="black" points="230,-566 230,-560 "/>
<polyline fill="none" stroke="black" points="236,-560 230,-560 "/>
<g id="a_node1_7"><a xlink:href="expanding_protocol_xref_diagram.svg" xlink:title="Zoom">
<image xlink:href="zoom.png" width="11px" height="11px" preserveAspectRatio="xMinYMin meet" x="124" y="-561.5"/>
</a>
</g>
<text text-anchor="start" x="126.5" y="-542.3" font-family="Monospace" font-size="9.00"> </text>
<text text-anchor="start" x="148.5" y="-541.7" font-family="Monospace" font-size="11.00">expanding</text>
<text text-anchor="start" x="222" y="-542.3" font-family="Monospace" font-size="9.00"> </text>
<text text-anchor="start" x="126.5" y="-531.3" font-family="Monospace" font-size="9.00"> </text>
<text text-anchor="start" x="142.5" y="-531.9" font-family="Monospace" font-size="7.00">built&#45;in protocol</text>
<text text-anchor="start" x="222" y="-531.3" font-family="Monospace" font-size="9.00"> </text>
<text text-anchor="start" x="126.5" y="-521.3" font-family="Monospace" font-size="9.00"> </text>
<text text-anchor="start" x="126.5" y="-511.3" font-family="Monospace" font-size="9.00"> </text>
<text text-anchor="start" x="135" y="-511.3" font-family="Monospace" font-size="9.00">goal_expansion/2</text>
<text text-anchor="start" x="222" y="-511.3" font-family="Monospace" font-size="9.00"> </text>
<text text-anchor="start" x="126.5" y="-501.3" font-family="Monospace" font-size="9.00"> </text>
<text text-anchor="start" x="135" y="-501.3" font-family="Monospace" font-size="9.00">term_expansion/2</text>
<text text-anchor="start" x="222" y="-501.3" font-family="Monospace" font-size="9.00"> </text>
</a>
</g>
</g>
<!-- monitoring -->
<g id="node2" class="node">
<title>monitoring</title>
<g id="a_node2"><a xlink:href="https://logtalk.org/library/monitoring_0.html" xlink:title="https://logtalk.org/library/monitoring_0.html">
<polygon fill="aquamarine" stroke="black" points="365.5,-566 266.5,-566 266.5,-495 371.5,-495 371.5,-560 365.5,-566"/>
<polyline fill="none" stroke="black" points="365.5,-566 365.5,-560 "/>
<polyline fill="none" stroke="black" points="371.5,-560 365.5,-560 "/>
<g id="a_node2_8"><a xlink:href="monitoring_protocol_xref_diagram.svg" xlink:title="Zoom">
<image xlink:href="zoom.png" width="11px" height="11px" preserveAspectRatio="xMinYMin meet" x="275" y="-561.5"/>
</a>
</g>
<text text-anchor="start" x="277.5" y="-542.3" font-family="Monospace" font-size="9.00"> </text>
<text text-anchor="start" x="288.5" y="-541.7" font-family="Monospace" font-size="11.00">monitoring</text>
<text text-anchor="start" x="358" y="-542.3" font-family="Monospace" font-size="9.00"> </text>
<text text-anchor="start" x="277.5" y="-531.3" font-family="Monospace" font-size="9.00"> </text>
<text text-anchor="start" x="286" y="-531.9" font-family="Monospace" font-size="7.00">built&#45;in protocol</text>
<text text-anchor="start" x="358" y="-531.3" font-family="Monospace" font-size="9.00"> </text>
<text text-anchor="start" x="277.5" y="-521.3" font-family="Monospace" font-size="9.00"> </text>
<text text-anchor="start" x="277.5" y="-511.3" font-family="Monospace" font-size="9.00"> </text>
<text text-anchor="start" x="300" y="-511.3" font-family="Monospace" font-size="9.00">before/3</text>
<text text-anchor="start" x="358" y="-511.3" font-family="Monospace" font-size="9.00"> </text>
<text text-anchor="start" x="277.5" y="-501.3" font-family="Monospace" font-size="9.00"> </text>
<text text-anchor="start" x="303" y="-501.3" font-family="Monospace" font-size="9.00">after/3</text>
<text text-anchor="start" x="358" y="-501.3" font-family="Monospace" font-size="9.00"> </text>
</a>
</g>
</g>
<!-- forwarding -->
<g id="node3" class="node">
<title>forwarding</title>
<g id="a_node3"><a xlink:href="https://logtalk.org/library/forwarding_0.html" xlink:title="https://logtalk.org/library/forwarding_0.html">
<polygon fill="aquamarine" stroke="black" points="501.5,-561 402.5,-561 402.5,-500 507.5,-500 507.5,-555 501.5,-561"/>
<polyline fill="none" stroke="black" points="501.5,-561 501.5,-555 "/>
<polyline fill="none" stroke="black" points="507.5,-555 501.5,-555 "/>
<g id="a_node3_9"><a xlink:href="forwarding_protocol_xref_diagram.svg" xlink:title="Zoom">
<image xlink:href="zoom.png" width="11px" height="11px" preserveAspectRatio="xMinYMin meet" x="411" y="-556.5"/>
</a>
</g>
<text text-anchor="start" x="413.5" y="-537.3" font-family="Monospace" font-size="9.00"> </text>
<text text-anchor="start" x="424.5" y="-536.7" font-family="Monospace" font-size="11.00">forwarding</text>
<text text-anchor="start" x="494" y="-537.3" font-family="Monospace" font-size="9.00"> </text>
<text text-anchor="start" x="413.5" y="-526.3" font-family="Monospace" font-size="9.00"> </text>
<text text-anchor="start" x="422" y="-526.9" font-family="Monospace" font-size="7.00">built&#45;in protocol</text>
<text text-anchor="start" x="494" y="-526.3" font-family="Monospace" font-size="9.00"> </text>
<text text-anchor="start" x="413.5" y="-516.3" font-family="Monospace" font-size="9.00"> </text>
<text text-anchor="start" x="413.5" y="-506.3" font-family="Monospace" font-size="9.00"> </text>
<text text-anchor="start" x="433.5" y="-506.3" font-family="Monospace" font-size="9.00">forward/1</text>
<text text-anchor="start" x="494" y="-506.3" font-family="Monospace" font-size="9.00"> </text>
</a>
</g>
</g>
<!-- user -->
<g id="node4" class="node">
<title>user</title>
<g id="a_node4"><a xlink:href="https://logtalk.org/library/user_0.html" xlink:title="https://logtalk.org/library/user_0.html">
<polygon fill="cornsilk" stroke="black" points="373.5,-284 264.5,-284 264.5,-243 373.5,-243 373.5,-284"/>
<g id="a_node4_10"><a xlink:href="user_object_xref_diagram.svg" xlink:title="Zoom">
<image xlink:href="zoom.png" width="11px" height="11px" preserveAspectRatio="xMinYMin meet" x="273" y="-279.5"/>
</a>
</g>
<text text-anchor="start" x="275.5" y="-260.3" font-family="Monospace" font-size="9.00"> </text>
<text text-anchor="start" x="308.5" y="-259.7" font-family="Monospace" font-size="11.00">user</text>
<text text-anchor="start" x="360" y="-260.3" font-family="Monospace" font-size="9.00"> </text>
<text text-anchor="start" x="275.5" y="-249.3" font-family="Monospace" font-size="9.00"> </text>
<text text-anchor="start" x="284" y="-249.9" font-family="Monospace" font-size="7.00">built&#45;in prototype</text>
<text text-anchor="start" x="360" y="-249.3" font-family="Monospace" font-size="9.00"> </text>
</a>
</g>
</g>
<!-- user&#45;&gt;expanding -->
<g id="edge1" class="edge">
<title>user&#45;&gt;expanding</title>
<g id="a_edge1"><a xlink:href="https://logtalk.org/library/user_0.html" xlink:title="implements">
<path fill="none" stroke="black" d="M310.5,-284.21C297.83,-313.15 272.81,-368.62 248,-414 234.24,-439.16 217.35,-466.42 203.38,-488.14"/>
<ellipse fill="black" stroke="black" cx="201.13" cy="-491.63" rx="4" ry="4"/>
</a>
</g>
<g id="a_edge1&#45;label"><a xlink:href="https://logtalk.org/library/user_0.html" xlink:title="https://logtalk.org/library/user_0.html">
<text text-anchor="start" x="231" y="-442.8" font-family="Monospace" font-size="9.00">implements</text>
</a>
</g>
</g>
<!-- user&#45;&gt;monitoring -->
<g id="edge3" class="edge">
<title>user&#45;&gt;monitoring</title>
<g id="a_edge3"><a xlink:href="https://logtalk.org/library/user_0.html" xlink:title="implements">
<path fill="none" stroke="black" d="M319,-284.42C319,-327.1 319,-428.2 319,-486.34"/>
<ellipse fill="black" stroke="black" cx="319" cy="-490.59" rx="4" ry="4"/>
</a>
</g>
<g id="a_edge3&#45;label"><a xlink:href="https://logtalk.org/library/user_0.html" xlink:title="https://logtalk.org/library/user_0.html">
<text text-anchor="start" x="319" y="-442.8" font-family="Monospace" font-size="9.00">implements</text>
</a>
</g>
</g>
<!-- user&#45;&gt;forwarding -->
<g id="edge2" class="edge">
<title>user&#45;&gt;forwarding</title>
<g id="a_edge2"><a xlink:href="https://logtalk.org/library/user_0.html" xlink:title="implements">
<path fill="none" stroke="black" d="M327.77,-284.06C340.77,-312.82 366.21,-368.08 390,-414 403.85,-440.73 420.52,-470.31 433.51,-492.84"/>
<ellipse fill="black" stroke="black" cx="435.59" cy="-496.43" rx="4" ry="4"/>
</a>
</g>
<g id="a_edge2&#45;label"><a xlink:href="https://logtalk.org/library/user_0.html" xlink:title="https://logtalk.org/library/user_0.html">
<text text-anchor="start" x="408" y="-442.8" font-family="Monospace" font-size="9.00">implements</text>
</a>
</g>
</g>
<!-- logtalk -->
<g id="node5" class="node">
<title>logtalk</title>
<g id="a_node5"><a xlink:href="https://logtalk.org/library/logtalk_0.html" xlink:title="https://logtalk.org/library/logtalk_0.html">
<polygon fill="cornsilk" stroke="black" points="234,-404 28,-404 28,-123 234,-123 234,-404"/>
<g id="a_node5_11"><a xlink:href="logtalk_object_xref_diagram.svg" xlink:title="Zoom">
<image xlink:href="zoom.png" width="11px" height="11px" preserveAspectRatio="xMinYMin meet" x="36" y="-399.5"/>
</a>
</g>
<text text-anchor="start" x="38.5" y="-380.3" font-family="Monospace" font-size="9.00"> </text>
<text text-anchor="start" x="110" y="-379.7" font-family="Monospace" font-size="11.00">logtalk</text>
<text text-anchor="start" x="220" y="-380.3" font-family="Monospace" font-size="9.00"> </text>
<text text-anchor="start" x="38.5" y="-369.3" font-family="Monospace" font-size="9.00"> </text>
<text text-anchor="start" x="95.5" y="-369.9" font-family="Monospace" font-size="7.00">built&#45;in prototype</text>
<text text-anchor="start" x="220" y="-369.3" font-family="Monospace" font-size="9.00"> </text>
<text text-anchor="start" x="38.5" y="-359.3" font-family="Monospace" font-size="9.00"> </text>
<text text-anchor="start" x="38.5" y="-349.3" font-family="Monospace" font-size="9.00"> </text>
<text text-anchor="start" x="92.5" y="-349.3" font-family="Monospace" font-size="9.00">print_message/3</text>
<text text-anchor="start" x="220" y="-349.3" font-family="Monospace" font-size="9.00"> </text>
<text text-anchor="start" x="38.5" y="-339.3" font-family="Monospace" font-size="9.00"> </text>
<text text-anchor="start" x="74" y="-339.3" font-family="Monospace" font-size="9.00">print_message_tokens/3</text>
<text text-anchor="start" x="220" y="-339.3" font-family="Monospace" font-size="9.00"> </text>
<text text-anchor="start" x="38.5" y="-329.3" font-family="Monospace" font-size="9.00"> </text>
<text text-anchor="start" x="76.5" y="-329.3" font-family="Monospace" font-size="9.00">print_message_token/4</text>
<text text-anchor="start" x="220" y="-329.3" font-family="Monospace" font-size="9.00"> </text>
<text text-anchor="start" x="38.5" y="-319.3" font-family="Monospace" font-size="9.00"> </text>
<text text-anchor="start" x="87.5" y="-319.3" font-family="Monospace" font-size="9.00">message_tokens//2</text>
<text text-anchor="start" x="220" y="-319.3" font-family="Monospace" font-size="9.00"> </text>
<text text-anchor="start" x="38.5" y="-309.3" font-family="Monospace" font-size="9.00"> </text>
<text text-anchor="start" x="71" y="-309.3" font-family="Monospace" font-size="9.00">message_prefix_stream/4</text>
<text text-anchor="start" x="220" y="-309.3" font-family="Monospace" font-size="9.00"> </text>
<text text-anchor="start" x="38.5" y="-299.3" font-family="Monospace" font-size="9.00"> </text>
<text text-anchor="start" x="95.5" y="-299.3" font-family="Monospace" font-size="9.00">message_hook/4</text>
<text text-anchor="start" x="220" y="-299.3" font-family="Monospace" font-size="9.00"> </text>
<text text-anchor="start" x="38.5" y="-289.3" font-family="Monospace" font-size="9.00"> </text>
<text text-anchor="start" x="95.5" y="-289.3" font-family="Monospace" font-size="9.00">ask_question/5</text>
<text text-anchor="start" x="220" y="-289.3" font-family="Monospace" font-size="9.00"> </text>
<text text-anchor="start" x="38.5" y="-279.3" font-family="Monospace" font-size="9.00"> </text>
<text text-anchor="start" x="92.5" y="-279.3" font-family="Monospace" font-size="9.00">question_hook/6</text>
<text text-anchor="start" x="220" y="-279.3" font-family="Monospace" font-size="9.00"> </text>
<text text-anchor="start" x="38.5" y="-269.3" font-family="Monospace" font-size="9.00"> </text>
<text text-anchor="start" x="68.5" y="-269.3" font-family="Monospace" font-size="9.00">question_prompt_stream/4</text>
<text text-anchor="start" x="220" y="-269.3" font-family="Monospace" font-size="9.00"> </text>
<text text-anchor="start" x="38.5" y="-259.3" font-family="Monospace" font-size="9.00"> </text>
<text text-anchor="start" x="98" y="-259.3" font-family="Monospace" font-size="9.00">trace_event/2</text>
<text text-anchor="start" x="220" y="-259.3" font-family="Monospace" font-size="9.00"> </text>
<text text-anchor="start" x="38.5" y="-249.3" font-family="Monospace" font-size="9.00"> </text>
<text text-anchor="start" x="68.5" y="-249.3" font-family="Monospace" font-size="9.00">debug_handler_provider/1</text>
<text text-anchor="start" x="220" y="-249.3" font-family="Monospace" font-size="9.00"> </text>
<text text-anchor="start" x="38.5" y="-239.3" font-family="Monospace" font-size="9.00"> </text>
<text text-anchor="start" x="92.5" y="-239.3" font-family="Monospace" font-size="9.00">debug_handler/2</text>
<text text-anchor="start" x="220" y="-239.3" font-family="Monospace" font-size="9.00"> </text>
<text text-anchor="start" x="38.5" y="-229.3" font-family="Monospace" font-size="9.00"> </text>
<text text-anchor="start" x="76.5" y="-229.3" font-family="Monospace" font-size="9.00">expand_library_path/2</text>
<text text-anchor="start" x="220" y="-229.3" font-family="Monospace" font-size="9.00"> </text>
<text text-anchor="start" x="38.5" y="-219.3" font-family="Monospace" font-size="9.00"> </text>
<text text-anchor="start" x="98" y="-219.3" font-family="Monospace" font-size="9.00">loaded_file/1</text>
<text text-anchor="start" x="220" y="-219.3" font-family="Monospace" font-size="9.00"> </text>
<text text-anchor="start" x="38.5" y="-209.3" font-family="Monospace" font-size="9.00"> </text>
<text text-anchor="start" x="74" y="-209.3" font-family="Monospace" font-size="9.00">loaded_file_property/2</text>
<text text-anchor="start" x="220" y="-209.3" font-family="Monospace" font-size="9.00"> </text>
<text text-anchor="start" x="38.5" y="-199.3" font-family="Monospace" font-size="9.00"> </text>
<text text-anchor="start" x="76.5" y="-199.3" font-family="Monospace" font-size="9.00">file_type_extension/2</text>
<text text-anchor="start" x="220" y="-199.3" font-family="Monospace" font-size="9.00"> </text>
<text text-anchor="start" x="38.5" y="-189.3" font-family="Monospace" font-size="9.00"> </text>
<text text-anchor="start" x="76.5" y="-189.3" font-family="Monospace" font-size="9.00">compile_aux_clauses/1</text>
<text text-anchor="start" x="220" y="-189.3" font-family="Monospace" font-size="9.00"> </text>
<text text-anchor="start" x="38.5" y="-179.3" font-family="Monospace" font-size="9.00"> </text>
<text text-anchor="start" x="92.5" y="-179.3" font-family="Monospace" font-size="9.00">entity_prefix/2</text>
<text text-anchor="start" x="220" y="-179.3" font-family="Monospace" font-size="9.00"> </text>
<text text-anchor="start" x="38.5" y="-169.3" font-family="Monospace" font-size="9.00"> </text>
<text text-anchor="start" x="65.5" y="-169.3" font-family="Monospace" font-size="9.00">compile_predicate_heads/4</text>
<text text-anchor="start" x="220" y="-169.3" font-family="Monospace" font-size="9.00"> </text>
<text text-anchor="start" x="38.5" y="-159.3" font-family="Monospace" font-size="9.00"> </text>
<text text-anchor="start" x="52" y="-159.3" font-family="Monospace" font-size="9.00">compile_predicate_indicators/3</text>
<text text-anchor="start" x="220" y="-159.3" font-family="Monospace" font-size="9.00"> </text>
<text text-anchor="start" x="38.5" y="-149.3" font-family="Monospace" font-size="9.00"> </text>
<text text-anchor="start" x="60.5" y="-149.3" font-family="Monospace" font-size="9.00">decompile_predicate_heads/4</text>
<text text-anchor="start" x="220" y="-149.3" font-family="Monospace" font-size="9.00"> </text>
<text text-anchor="start" x="38.5" y="-139.3" font-family="Monospace" font-size="9.00"> </text>
<text text-anchor="start" x="47" y="-139.3" font-family="Monospace" font-size="9.00">decompile_predicate_indicators/4</text>
<text text-anchor="start" x="220" y="-139.3" font-family="Monospace" font-size="9.00"> </text>
<text text-anchor="start" x="38.5" y="-129.3" font-family="Monospace" font-size="9.00"> </text>
<text text-anchor="start" x="82" y="-129.3" font-family="Monospace" font-size="9.00">execution_context/7</text>
<text text-anchor="start" x="220" y="-129.3" font-family="Monospace" font-size="9.00"> </text>
</a>
</g>
</g>
<!-- core_messages -->
<g id="node6" class="node">
<title>core_messages</title>
<g id="a_node6"><a xlink:href="https://logtalk.org/library/core_messages_0.html" xlink:title="https://logtalk.org/library/core_messages_0.html">
<polygon fill="lightcyan" stroke="black" points="610,-299 404,-299 404,-295 400,-295 400,-291 404,-291 404,-236 400,-236 400,-232 404,-232 404,-228 610,-228 610,-299"/>
<polyline fill="none" stroke="black" points="404,-295 408,-295 408,-291 404,-291 "/>
<polyline fill="none" stroke="black" points="404,-236 408,-236 408,-232 404,-232 "/>
<g id="a_node6_12"><a xlink:href="core_messages_category_xref_diagram.svg" xlink:title="Zoom">
<image xlink:href="zoom.png" width="11px" height="11px" preserveAspectRatio="xMinYMin meet" x="412" y="-294.5"/>
</a>
</g>
<text text-anchor="start" x="414.5" y="-275.3" font-family="Monospace" font-size="9.00"> </text>
<text text-anchor="start" x="466.5" y="-274.7" font-family="Monospace" font-size="11.00">core_messages</text>
<text text-anchor="start" x="596" y="-275.3" font-family="Monospace" font-size="9.00"> </text>
<text text-anchor="start" x="414.5" y="-264.3" font-family="Monospace" font-size="9.00"> </text>
<text text-anchor="start" x="473.5" y="-264.9" font-family="Monospace" font-size="7.00">built&#45;in category</text>
<text text-anchor="start" x="596" y="-264.3" font-family="Monospace" font-size="9.00"> </text>
<text text-anchor="start" x="414.5" y="-254.3" font-family="Monospace" font-size="9.00"> </text>
<text text-anchor="start" x="414.5" y="-244.3" font-family="Monospace" font-size="9.00"> </text>
<text text-anchor="start" x="423" y="-244.3" font-family="Monospace" font-size="9.00">logtalk::message_prefix_stream/4</text>
<text text-anchor="start" x="596" y="-244.3" font-family="Monospace" font-size="9.00"> </text>
<text text-anchor="start" x="414.5" y="-234.3" font-family="Monospace" font-size="9.00"> </text>
<text text-anchor="start" x="439" y="-234.3" font-family="Monospace" font-size="9.00">logtalk::message_tokens//2</text>
<text text-anchor="start" x="596" y="-234.3" font-family="Monospace" font-size="9.00"> </text>
</a>
</g>
</g>
</g>
</svg>
