<?xml version="1.0" encoding="UTF-8" standalone="no"?>
<?xml-stylesheet href="diagrams.css" type="text/css"?>
<!DOCTYPE svg PUBLIC "-//W3C//DTD SVG 1.1//EN"
 "http://www.w3.org/Graphics/SVG/1.1/DTD/svg11.dtd">
<!-- Generated by graphviz version 2.50.0 (20211204.2007)
 -->
<!-- Title: core Pages: 1 -->
<svg width="788pt" height="746pt"
 viewBox="72.00 72.00 716.00 674.00" xmlns="http://www.w3.org/2000/svg" xmlns:xlink="http://www.w3.org/1999/xlink">
<g id="graph0" class="graph" transform="scale(1 1) rotate(0) translate(76 670)">
<title>core</title>
<polygon fill="white" stroke="transparent" points="-4,4 -4,-598 640,-598 640,4 -4,4"/>
<text text-anchor="start" x="8" y="-29" font-family="Monospace" font-size="10.00" fill="dimgray">Logtalk core entities</text>
<text text-anchor="start" x="8" y="-18" font-family="Monospace" font-size="10.00" fill="dimgray">Inheritance diagram for library core</text>
<text text-anchor="start" x="8" y="-7" font-family="Monospace" font-size="10.00" fill="dimgray">Generated on 2022&#45;05&#45;23, 09:08</text>
<g id="clust1" class="cluster">
<title>cluster_library_core</title>
<g id="a_clust1"><a xlink:title="core/">
<path fill="whitesmoke" stroke="dimgray" d="M20,-49C20,-49 616,-49 616,-49 622,-49 628,-55 628,-61 628,-61 628,-574 628,-574 628,-580 622,-586 616,-586 616,-586 20,-586 20,-586 14,-586 8,-580 8,-574 8,-574 8,-61 8,-61 8,-55 14,-49 20,-49"/>
<g id="a_clust1_0"><a xlink:href="https://github.com/LogtalkDotOrg/logtalk3/tree/a11149f60b718df8b103b54190ae80de3337be4b/core/" xlink:title="https://github.com/LogtalkDotOrg/logtalk3/tree/a11149f60b718df8b103b54190ae80de3337be4b/core/">
<text text-anchor="start" x="20.5" y="-59.5" font-family="Monospace" font-size="10.00" fill="dimgray">core/</text>
</a>
</g>
</a>
</g>
</g>
<g id="clust3" class="cluster">
<title>cluster_file_/opt/local/share/logtalk/core/monitoring.lgt</title>
<g id="a_clust3"><a xlink:title="monitoring.lgt">
<path fill="snow" stroke="dimgray" d="M265,-458C265,-458 371,-458 371,-458 377,-458 383,-464 383,-470 383,-470 383,-564 383,-564 383,-570 377,-576 371,-576 371,-576 265,-576 265,-576 259,-576 253,-570 253,-564 253,-564 253,-470 253,-470 253,-464 259,-458 265,-458"/>
<g id="a_clust3_1"><a xlink:href="https://github.com/LogtalkDotOrg/logtalk3/tree/a11149f60b718df8b103b54190ae80de3337be4b/core/monitoring.lgt" xlink:title="https://github.com/LogtalkDotOrg/logtalk3/tree/a11149f60b718df8b103b54190ae80de3337be4b/core/monitoring.lgt">
<text text-anchor="start" x="265.5" y="-468.5" font-family="Monospace" font-size="10.00" fill="dimgray">monitoring.lgt</text>
</a>
</g>
</a>
</g>
</g>
<g id="clust4" class="cluster">
<title>cluster_file_/opt/local/share/logtalk/core/forwarding.lgt</title>
<g id="a_clust4"><a xlink:title="forwarding.lgt">
<path fill="snow" stroke="dimgray" d="M405,-463C405,-463 511,-463 511,-463 517,-463 523,-469 523,-475 523,-475 523,-559 523,-559 523,-565 517,-571 511,-571 511,-571 405,-571 405,-571 399,-571 393,-565 393,-559 393,-559 393,-475 393,-475 393,-469 399,-463 405,-463"/>
<g id="a_clust4_2"><a xlink:href="https://github.com/LogtalkDotOrg/logtalk3/tree/a11149f60b718df8b103b54190ae80de3337be4b/core/forwarding.lgt" xlink:title="https://github.com/LogtalkDotOrg/logtalk3/tree/a11149f60b718df8b103b54190ae80de3337be4b/core/forwarding.lgt">
<text text-anchor="start" x="405.5" y="-473.5" font-family="Monospace" font-size="10.00" fill="dimgray">forwarding.lgt</text>
</a>
</g>
</a>
</g>
</g>
<g id="clust7" class="cluster">
<title>cluster_file_/opt/local/share/logtalk/core/core_messages.lgt</title>
<g id="a_clust7"><a xlink:title="core_messages.lgt">
<path fill="snow" stroke="dimgray" d="M408,-191C408,-191 606,-191 606,-191 612,-191 618,-197 618,-203 618,-203 618,-297 618,-297 618,-303 612,-309 606,-309 606,-309 408,-309 408,-309 402,-309 396,-303 396,-297 396,-297 396,-203 396,-203 396,-197 402,-191 408,-191"/>
<g id="a_clust7_3"><a xlink:href="https://github.com/LogtalkDotOrg/logtalk3/tree/a11149f60b718df8b103b54190ae80de3337be4b/core/core_messages.lgt" xlink:title="https://github.com/LogtalkDotOrg/logtalk3/tree/a11149f60b718df8b103b54190ae80de3337be4b/core/core_messages.lgt">
<text text-anchor="start" x="408.5" y="-201.5" font-family="Monospace" font-size="10.00" fill="dimgray">core_messages.lgt</text>
</a>
</g>
</a>
</g>
</g>
<g id="clust2" class="cluster">
<title>cluster_file_/opt/local/share/logtalk/core/expanding.lgt</title>
<g id="a_clust2"><a xlink:title="expanding.lgt">
<path fill="snow" stroke="dimgray" d="M117,-458C117,-458 231,-458 231,-458 237,-458 243,-464 243,-470 243,-470 243,-564 243,-564 243,-570 237,-576 231,-576 231,-576 117,-576 117,-576 111,-576 105,-570 105,-564 105,-564 105,-470 105,-470 105,-464 111,-458 117,-458"/>
<g id="a_clust2_4"><a xlink:href="https://github.com/LogtalkDotOrg/logtalk3/tree/a11149f60b718df8b103b54190ae80de3337be4b/core/expanding.lgt" xlink:title="https://github.com/LogtalkDotOrg/logtalk3/tree/a11149f60b718df8b103b54190ae80de3337be4b/core/expanding.lgt">
<text text-anchor="start" x="117.5" y="-468.5" font-family="Monospace" font-size="10.00" fill="dimgray">expanding.lgt</text>
</a>
</g>
</a>
</g>
</g>
<g id="clust5" class="cluster">
<title>cluster_file_/opt/local/share/logtalk/core/user.lgt</title>
<g id="a_clust5"><a xlink:title="user.lgt">
<path fill="snow" stroke="dimgray" d="M262,-206C262,-206 374,-206 374,-206 380,-206 386,-212 386,-218 386,-218 386,-282 386,-282 386,-288 380,-294 374,-294 374,-294 262,-294 262,-294 256,-294 250,-288 250,-282 250,-282 250,-218 250,-218 250,-212 256,-206 262,-206"/>
<g id="a_clust5_5"><a xlink:href="https://github.com/LogtalkDotOrg/logtalk3/tree/a11149f60b718df8b103b54190ae80de3337be4b/core/user.lgt" xlink:title="https://github.com/LogtalkDotOrg/logtalk3/tree/a11149f60b718df8b103b54190ae80de3337be4b/core/user.lgt">
<text text-anchor="start" x="262.5" y="-216.5" font-family="Monospace" font-size="10.00" fill="dimgray">user.lgt</text>
</a>
</g>
</a>
</g>
</g>
<g id="clust6" class="cluster">
<title>cluster_file_/opt/local/share/logtalk/core/logtalk.lgt</title>
<g id="a_clust6"><a xlink:title="logtalk.lgt">
<path fill="snow" stroke="dimgray" d="M30,-86C30,-86 228,-86 228,-86 234,-86 240,-92 240,-98 240,-98 240,-402 240,-402 240,-408 234,-414 228,-414 228,-414 30,-414 30,-414 24,-414 18,-408 18,-402 18,-402 18,-98 18,-98 18,-92 24,-86 30,-86"/>
<g id="a_clust6_6"><a xlink:href="https://github.com/LogtalkDotOrg/logtalk3/tree/a11149f60b718df8b103b54190ae80de3337be4b/core/logtalk.lgt" xlink:title="https://github.com/LogtalkDotOrg/logtalk3/tree/a11149f60b718df8b103b54190ae80de3337be4b/core/logtalk.lgt">
<text text-anchor="start" x="30.5" y="-96.5" font-family="Monospace" font-size="10.00" fill="dimgray">logtalk.lgt</text>
</a>
</g>
</a>
</g>
</g>
<!-- expanding -->
<g id="node1" class="node">
<title>expanding</title>
<g id="a_node1"><a xlink:href="https://logtalk.org/library/expanding_0.html" xlink:title="https://logtalk.org/library/expanding_0.html">
<polygon fill="aquamarine" stroke="black" points="227,-566 115,-566 115,-495 233,-495 233,-560 227,-566"/>
<polyline fill="none" stroke="black" points="227,-566 227,-560 "/>
<polyline fill="none" stroke="black" points="233,-560 227,-560 "/>
<g id="a_node1_7"><a xlink:href="expanding_protocol_xref_diagram.svg" xlink:title="Zoom">
<image xlink:href="zoom.png" width="11px" height="11px" preserveAspectRatio="xMinYMin meet" x="123" y="-561.5"/>
</a>
</g>
<text text-anchor="start" x="125.5" y="-542.3" font-family="Monospace" font-size="9.00"> </text>
<text text-anchor="start" x="146" y="-541.7" font-family="Monospace" font-size="11.00">expanding</text>
<text text-anchor="start" x="219" y="-542.3" font-family="Monospace" font-size="9.00"> </text>
<text text-anchor="start" x="125.5" y="-531.3" font-family="Monospace" font-size="9.00"> </text>
<text text-anchor="start" x="138" y="-531.9" font-family="Monospace" font-size="7.00">built&#45;in protocol</text>
<text text-anchor="start" x="219" y="-531.3" font-family="Monospace" font-size="9.00"> </text>
<text text-anchor="start" x="125.5" y="-521.3" font-family="Monospace" font-size="9.00"> </text>
<text text-anchor="start" x="125.5" y="-511.3" font-family="Monospace" font-size="9.00"> </text>
<text text-anchor="start" x="134" y="-511.3" font-family="Monospace" font-size="9.00">goal_expansion/2</text>
<text text-anchor="start" x="219" y="-511.3" font-family="Monospace" font-size="9.00"> </text>
<text text-anchor="start" x="125.5" y="-501.3" font-family="Monospace" font-size="9.00"> </text>
<text text-anchor="start" x="134" y="-501.3" font-family="Monospace" font-size="9.00">term_expansion/2</text>
<text text-anchor="start" x="219" y="-501.3" font-family="Monospace" font-size="9.00"> </text>
</a>
</g>
</g>
<!-- monitoring -->
<g id="node2" class="node">
<title>monitoring</title>
<g id="a_node2"><a xlink:href="https://logtalk.org/library/monitoring_0.html" xlink:title="https://logtalk.org/library/monitoring_0.html">
<polygon fill="aquamarine" stroke="black" points="367,-566 263,-566 263,-495 373,-495 373,-560 367,-566"/>
<polyline fill="none" stroke="black" points="367,-566 367,-560 "/>
<polyline fill="none" stroke="black" points="373,-560 367,-560 "/>
<g id="a_node2_8"><a xlink:href="monitoring_protocol_xref_diagram.svg" xlink:title="Zoom">
<image xlink:href="zoom.png" width="11px" height="11px" preserveAspectRatio="xMinYMin meet" x="271" y="-561.5"/>
</a>
</g>
<text text-anchor="start" x="273.5" y="-542.3" font-family="Monospace" font-size="9.00"> </text>
<text text-anchor="start" x="286.5" y="-541.7" font-family="Monospace" font-size="11.00">monitoring</text>
<text text-anchor="start" x="359" y="-542.3" font-family="Monospace" font-size="9.00"> </text>
<text text-anchor="start" x="273.5" y="-531.3" font-family="Monospace" font-size="9.00"> </text>
<text text-anchor="start" x="282" y="-531.9" font-family="Monospace" font-size="7.00">built&#45;in protocol</text>
<text text-anchor="start" x="359" y="-531.3" font-family="Monospace" font-size="9.00"> </text>
<text text-anchor="start" x="273.5" y="-521.3" font-family="Monospace" font-size="9.00"> </text>
<text text-anchor="start" x="273.5" y="-511.3" font-family="Monospace" font-size="9.00"> </text>
<text text-anchor="start" x="299" y="-511.3" font-family="Monospace" font-size="9.00">before/3</text>
<text text-anchor="start" x="359" y="-511.3" font-family="Monospace" font-size="9.00"> </text>
<text text-anchor="start" x="273.5" y="-501.3" font-family="Monospace" font-size="9.00"> </text>
<text text-anchor="start" x="302" y="-501.3" font-family="Monospace" font-size="9.00">after/3</text>
<text text-anchor="start" x="359" y="-501.3" font-family="Monospace" font-size="9.00"> </text>
</a>
</g>
</g>
<!-- forwarding -->
<g id="node3" class="node">
<title>forwarding</title>
<g id="a_node3"><a xlink:href="https://logtalk.org/library/forwarding_0.html" xlink:title="https://logtalk.org/library/forwarding_0.html">
<polygon fill="aquamarine" stroke="black" points="507,-561 403,-561 403,-500 513,-500 513,-555 507,-561"/>
<polyline fill="none" stroke="black" points="507,-561 507,-555 "/>
<polyline fill="none" stroke="black" points="513,-555 507,-555 "/>
<g id="a_node3_9"><a xlink:href="forwarding_protocol_xref_diagram.svg" xlink:title="Zoom">
<image xlink:href="zoom.png" width="11px" height="11px" preserveAspectRatio="xMinYMin meet" x="411" y="-556.5"/>
</a>
</g>
<text text-anchor="start" x="413.5" y="-537.3" font-family="Monospace" font-size="9.00"> </text>
<text text-anchor="start" x="426.5" y="-536.7" font-family="Monospace" font-size="11.00">forwarding</text>
<text text-anchor="start" x="499" y="-537.3" font-family="Monospace" font-size="9.00"> </text>
<text text-anchor="start" x="413.5" y="-526.3" font-family="Monospace" font-size="9.00"> </text>
<text text-anchor="start" x="422" y="-526.9" font-family="Monospace" font-size="7.00">built&#45;in protocol</text>
<text text-anchor="start" x="499" y="-526.3" font-family="Monospace" font-size="9.00"> </text>
<text text-anchor="start" x="413.5" y="-516.3" font-family="Monospace" font-size="9.00"> </text>
<text text-anchor="start" x="413.5" y="-506.3" font-family="Monospace" font-size="9.00"> </text>
<text text-anchor="start" x="436.5" y="-506.3" font-family="Monospace" font-size="9.00">forward/1</text>
<text text-anchor="start" x="499" y="-506.3" font-family="Monospace" font-size="9.00"> </text>
</a>
</g>
</g>
<!-- user -->
<g id="node4" class="node">
<title>user</title>
<g id="a_node4"><a xlink:href="https://logtalk.org/library/user_0.html" xlink:title="https://logtalk.org/library/user_0.html">
<polygon fill="cornsilk" stroke="black" points="375.5,-284 260.5,-284 260.5,-243 375.5,-243 375.5,-284"/>
<g id="a_node4_10"><a xlink:href="user_object_xref_diagram.svg" xlink:title="Zoom">
<image xlink:href="zoom.png" width="11px" height="11px" preserveAspectRatio="xMinYMin meet" x="269" y="-279.5"/>
</a>
</g>
<text text-anchor="start" x="271.5" y="-260.3" font-family="Monospace" font-size="9.00"> </text>
<text text-anchor="start" x="307" y="-259.7" font-family="Monospace" font-size="11.00">user</text>
<text text-anchor="start" x="362" y="-260.3" font-family="Monospace" font-size="9.00"> </text>
<text text-anchor="start" x="271.5" y="-249.3" font-family="Monospace" font-size="9.00"> </text>
<text text-anchor="start" x="280" y="-249.9" font-family="Monospace" font-size="7.00">built&#45;in prototype</text>
<text text-anchor="start" x="362" y="-249.3" font-family="Monospace" font-size="9.00"> </text>
</a>
</g>
</g>
<!-- user&#45;&gt;expanding -->
<g id="edge1" class="edge">
<title>user&#45;&gt;expanding</title>
<g id="a_edge1"><a xlink:href="https://logtalk.org/library/user_0.html" xlink:title="implements">
<path fill="none" stroke="black" d="M308.94,-284.12C295.48,-312.96 269.09,-368.31 244,-414 230.3,-438.94 213.86,-466.19 200.35,-487.96"/>
<ellipse fill="black" stroke="black" cx="198.19" cy="-491.43" rx="4" ry="4"/>
</a>
</g>
<g id="a_edge1&#45;label"><a xlink:href="https://logtalk.org/library/user_0.html" xlink:title="https://logtalk.org/library/user_0.html">
<text text-anchor="start" x="227" y="-442.8" font-family="Monospace" font-size="9.00">implements</text>
</a>
</g>
</g>
<!-- user&#45;&gt;monitoring -->
<g id="edge3" class="edge">
<title>user&#45;&gt;monitoring</title>
<g id="a_edge3"><a xlink:href="https://logtalk.org/library/user_0.html" xlink:title="implements">
<path fill="none" stroke="black" d="M318,-284.42C318,-327.1 318,-428.2 318,-486.34"/>
<ellipse fill="black" stroke="black" cx="318" cy="-490.59" rx="4" ry="4"/>
</a>
</g>
<g id="a_edge3&#45;label"><a xlink:href="https://logtalk.org/library/user_0.html" xlink:title="https://logtalk.org/library/user_0.html">
<text text-anchor="start" x="318" y="-442.8" font-family="Monospace" font-size="9.00">implements</text>
</a>
</g>
</g>
<!-- user&#45;&gt;forwarding -->
<g id="edge2" class="edge">
<title>user&#45;&gt;forwarding</title>
<g id="a_edge2"><a xlink:href="https://logtalk.org/library/user_0.html" xlink:title="implements">
<path fill="none" stroke="black" d="M327.21,-284.04C340.87,-312.77 367.5,-367.99 392,-414 406.2,-440.67 423.13,-470.25 436.28,-492.8"/>
<ellipse fill="black" stroke="black" cx="438.39" cy="-496.4" rx="4" ry="4"/>
</a>
</g>
<g id="a_edge2&#45;label"><a xlink:href="https://logtalk.org/library/user_0.html" xlink:title="https://logtalk.org/library/user_0.html">
<text text-anchor="start" x="411" y="-442.8" font-family="Monospace" font-size="9.00">implements</text>
</a>
</g>
</g>
<!-- logtalk -->
<g id="node5" class="node">
<title>logtalk</title>
<g id="a_node5"><a xlink:href="https://logtalk.org/library/logtalk_0.html" xlink:title="https://logtalk.org/library/logtalk_0.html">
<polygon fill="cornsilk" stroke="black" points="230,-404 28,-404 28,-123 230,-123 230,-404"/>
<g id="a_node5_11"><a xlink:href="logtalk_object_xref_diagram.svg" xlink:title="Zoom">
<image xlink:href="zoom.png" width="11px" height="11px" preserveAspectRatio="xMinYMin meet" x="36" y="-399.5"/>
</a>
</g>
<text text-anchor="start" x="38.5" y="-380.3" font-family="Monospace" font-size="9.00"> </text>
<text text-anchor="start" x="107.5" y="-379.7" font-family="Monospace" font-size="11.00">logtalk</text>
<text text-anchor="start" x="216" y="-380.3" font-family="Monospace" font-size="9.00"> </text>
<text text-anchor="start" x="38.5" y="-369.3" font-family="Monospace" font-size="9.00"> </text>
<text text-anchor="start" x="90.5" y="-369.9" font-family="Monospace" font-size="7.00">built&#45;in prototype</text>
<text text-anchor="start" x="216" y="-369.3" font-family="Monospace" font-size="9.00"> </text>
<text text-anchor="start" x="38.5" y="-359.3" font-family="Monospace" font-size="9.00"> </text>
<text text-anchor="start" x="38.5" y="-349.3" font-family="Monospace" font-size="9.00"> </text>
<text text-anchor="start" x="92" y="-349.3" font-family="Monospace" font-size="9.00">print_message/3</text>
<text text-anchor="start" x="216" y="-349.3" font-family="Monospace" font-size="9.00"> </text>
<text text-anchor="start" x="38.5" y="-339.3" font-family="Monospace" font-size="9.00"> </text>
<text text-anchor="start" x="73.5" y="-339.3" font-family="Monospace" font-size="9.00">print_message_tokens/3</text>
<text text-anchor="start" x="216" y="-339.3" font-family="Monospace" font-size="9.00"> </text>
<text text-anchor="start" x="38.5" y="-329.3" font-family="Monospace" font-size="9.00"> </text>
<text text-anchor="start" x="76" y="-329.3" font-family="Monospace" font-size="9.00">print_message_token/4</text>
<text text-anchor="start" x="216" y="-329.3" font-family="Monospace" font-size="9.00"> </text>
<text text-anchor="start" x="38.5" y="-319.3" font-family="Monospace" font-size="9.00"> </text>
<text text-anchor="start" x="86.5" y="-319.3" font-family="Monospace" font-size="9.00">message_tokens//2</text>
<text text-anchor="start" x="216" y="-319.3" font-family="Monospace" font-size="9.00"> </text>
<text text-anchor="start" x="38.5" y="-309.3" font-family="Monospace" font-size="9.00"> </text>
<text text-anchor="start" x="71" y="-309.3" font-family="Monospace" font-size="9.00">message_prefix_stream/4</text>
<text text-anchor="start" x="216" y="-309.3" font-family="Monospace" font-size="9.00"> </text>
<text text-anchor="start" x="38.5" y="-299.3" font-family="Monospace" font-size="9.00"> </text>
<text text-anchor="start" x="94.5" y="-299.3" font-family="Monospace" font-size="9.00">message_hook/4</text>
<text text-anchor="start" x="216" y="-299.3" font-family="Monospace" font-size="9.00"> </text>
<text text-anchor="start" x="38.5" y="-289.3" font-family="Monospace" font-size="9.00"> </text>
<text text-anchor="start" x="94.5" y="-289.3" font-family="Monospace" font-size="9.00">ask_question/5</text>
<text text-anchor="start" x="216" y="-289.3" font-family="Monospace" font-size="9.00"> </text>
<text text-anchor="start" x="38.5" y="-279.3" font-family="Monospace" font-size="9.00"> </text>
<text text-anchor="start" x="92" y="-279.3" font-family="Monospace" font-size="9.00">question_hook/6</text>
<text text-anchor="start" x="216" y="-279.3" font-family="Monospace" font-size="9.00"> </text>
<text text-anchor="start" x="38.5" y="-269.3" font-family="Monospace" font-size="9.00"> </text>
<text text-anchor="start" x="68" y="-269.3" font-family="Monospace" font-size="9.00">question_prompt_stream/4</text>
<text text-anchor="start" x="216" y="-269.3" font-family="Monospace" font-size="9.00"> </text>
<text text-anchor="start" x="38.5" y="-259.3" font-family="Monospace" font-size="9.00"> </text>
<text text-anchor="start" x="97" y="-259.3" font-family="Monospace" font-size="9.00">trace_event/2</text>
<text text-anchor="start" x="216" y="-259.3" font-family="Monospace" font-size="9.00"> </text>
<text text-anchor="start" x="38.5" y="-249.3" font-family="Monospace" font-size="9.00"> </text>
<text text-anchor="start" x="68" y="-249.3" font-family="Monospace" font-size="9.00">debug_handler_provider/1</text>
<text text-anchor="start" x="216" y="-249.3" font-family="Monospace" font-size="9.00"> </text>
<text text-anchor="start" x="38.5" y="-239.3" font-family="Monospace" font-size="9.00"> </text>
<text text-anchor="start" x="92" y="-239.3" font-family="Monospace" font-size="9.00">debug_handler/2</text>
<text text-anchor="start" x="216" y="-239.3" font-family="Monospace" font-size="9.00"> </text>
<text text-anchor="start" x="38.5" y="-229.3" font-family="Monospace" font-size="9.00"> </text>
<text text-anchor="start" x="76" y="-229.3" font-family="Monospace" font-size="9.00">expand_library_path/2</text>
<text text-anchor="start" x="216" y="-229.3" font-family="Monospace" font-size="9.00"> </text>
<text text-anchor="start" x="38.5" y="-219.3" font-family="Monospace" font-size="9.00"> </text>
<text text-anchor="start" x="97" y="-219.3" font-family="Monospace" font-size="9.00">loaded_file/1</text>
<text text-anchor="start" x="216" y="-219.3" font-family="Monospace" font-size="9.00"> </text>
<text text-anchor="start" x="38.5" y="-209.3" font-family="Monospace" font-size="9.00"> </text>
<text text-anchor="start" x="73.5" y="-209.3" font-family="Monospace" font-size="9.00">loaded_file_property/2</text>
<text text-anchor="start" x="216" y="-209.3" font-family="Monospace" font-size="9.00"> </text>
<text text-anchor="start" x="38.5" y="-199.3" font-family="Monospace" font-size="9.00"> </text>
<text text-anchor="start" x="76" y="-199.3" font-family="Monospace" font-size="9.00">file_type_extension/2</text>
<text text-anchor="start" x="216" y="-199.3" font-family="Monospace" font-size="9.00"> </text>
<text text-anchor="start" x="38.5" y="-189.3" font-family="Monospace" font-size="9.00"> </text>
<text text-anchor="start" x="76" y="-189.3" font-family="Monospace" font-size="9.00">compile_aux_clauses/1</text>
<text text-anchor="start" x="216" y="-189.3" font-family="Monospace" font-size="9.00"> </text>
<text text-anchor="start" x="38.5" y="-179.3" font-family="Monospace" font-size="9.00"> </text>
<text text-anchor="start" x="92" y="-179.3" font-family="Monospace" font-size="9.00">entity_prefix/2</text>
<text text-anchor="start" x="216" y="-179.3" font-family="Monospace" font-size="9.00"> </text>
<text text-anchor="start" x="38.5" y="-169.3" font-family="Monospace" font-size="9.00"> </text>
<text text-anchor="start" x="65.5" y="-169.3" font-family="Monospace" font-size="9.00">compile_predicate_heads/4</text>
<text text-anchor="start" x="216" y="-169.3" font-family="Monospace" font-size="9.00"> </text>
<text text-anchor="start" x="38.5" y="-159.3" font-family="Monospace" font-size="9.00"> </text>
<text text-anchor="start" x="52.5" y="-159.3" font-family="Monospace" font-size="9.00">compile_predicate_indicators/3</text>
<text text-anchor="start" x="216" y="-159.3" font-family="Monospace" font-size="9.00"> </text>
<text text-anchor="start" x="38.5" y="-149.3" font-family="Monospace" font-size="9.00"> </text>
<text text-anchor="start" x="60.5" y="-149.3" font-family="Monospace" font-size="9.00">decompile_predicate_heads/4</text>
<text text-anchor="start" x="216" y="-149.3" font-family="Monospace" font-size="9.00"> </text>
<text text-anchor="start" x="38.5" y="-139.3" font-family="Monospace" font-size="9.00"> </text>
<text text-anchor="start" x="47" y="-139.3" font-family="Monospace" font-size="9.00">decompile_predicate_indicators/4</text>
<text text-anchor="start" x="216" y="-139.3" font-family="Monospace" font-size="9.00"> </text>
<text text-anchor="start" x="38.5" y="-129.3" font-family="Monospace" font-size="9.00"> </text>
<text text-anchor="start" x="81.5" y="-129.3" font-family="Monospace" font-size="9.00">execution_context/7</text>
<text text-anchor="start" x="216" y="-129.3" font-family="Monospace" font-size="9.00"> </text>
</a>
</g>
</g>
<!-- core_messages -->
<g id="node6" class="node">
<title>core_messages</title>
<g id="a_node6"><a xlink:href="https://logtalk.org/library/core_messages_0.html" xlink:title="https://logtalk.org/library/core_messages_0.html">
<polygon fill="lightcyan" stroke="black" points="608,-299 406,-299 406,-295 402,-295 402,-291 406,-291 406,-236 402,-236 402,-232 406,-232 406,-228 608,-228 608,-299"/>
<polyline fill="none" stroke="black" points="406,-295 410,-295 410,-291 406,-291 "/>
<polyline fill="none" stroke="black" points="406,-236 410,-236 410,-232 406,-232 "/>
<g id="a_node6_12"><a xlink:href="core_messages_category_xref_diagram.svg" xlink:title="Zoom">
<image xlink:href="zoom.png" width="11px" height="11px" preserveAspectRatio="xMinYMin meet" x="414" y="-294.5"/>
</a>
</g>
<text text-anchor="start" x="416.5" y="-275.3" font-family="Monospace" font-size="9.00"> </text>
<text text-anchor="start" x="465.5" y="-274.7" font-family="Monospace" font-size="11.00">core_messages</text>
<text text-anchor="start" x="594" y="-275.3" font-family="Monospace" font-size="9.00"> </text>
<text text-anchor="start" x="416.5" y="-264.3" font-family="Monospace" font-size="9.00"> </text>
<text text-anchor="start" x="471" y="-264.9" font-family="Monospace" font-size="7.00">built&#45;in category</text>
<text text-anchor="start" x="594" y="-264.3" font-family="Monospace" font-size="9.00"> </text>
<text text-anchor="start" x="416.5" y="-254.3" font-family="Monospace" font-size="9.00"> </text>
<text text-anchor="start" x="416.5" y="-244.3" font-family="Monospace" font-size="9.00"> </text>
<text text-anchor="start" x="425" y="-244.3" font-family="Monospace" font-size="9.00">logtalk::message_prefix_stream/4</text>
<text text-anchor="start" x="594" y="-244.3" font-family="Monospace" font-size="9.00"> </text>
<text text-anchor="start" x="416.5" y="-234.3" font-family="Monospace" font-size="9.00"> </text>
<text text-anchor="start" x="441" y="-234.3" font-family="Monospace" font-size="9.00">logtalk::message_tokens//2</text>
<text text-anchor="start" x="594" y="-234.3" font-family="Monospace" font-size="9.00"> </text>
</a>
</g>
</g>
</g>
</svg>
