<?xml version="1.0" encoding="UTF-8" standalone="no"?>
<!DOCTYPE svg PUBLIC "-//W3C//DTD SVG 1.1//EN"
 "http://www.w3.org/Graphics/SVG/1.1/DTD/svg11.dtd">
<!-- Generated by graphviz version 2.41.20190410.0829 (20190410.0829)
 -->
<!-- Title: core Pages: 1 -->
<svg width="918pt" height="708pt"
 viewBox="72.00 72.00 846.00 636.00" xmlns="http://www.w3.org/2000/svg" xmlns:xlink="http://www.w3.org/1999/xlink">
<g id="graph0" class="graph" transform="scale(1 1) rotate(0) translate(76 632)">
<title>core</title>
<polygon fill="white" stroke="transparent" points="-4,4 -4,-560 770,-560 770,4 -4,4"/>
<text text-anchor="start" x="8" y="-26" font-family="Courier,monospace" font-size="10.00" fill="dimgray">Logtalk core entities</text>
<text text-anchor="start" x="8" y="-16" font-family="Courier,monospace" font-size="10.00" fill="dimgray">Inheritance diagram for library core</text>
<text text-anchor="start" x="8" y="-6" font-family="Courier,monospace" font-size="10.00" fill="dimgray">Generated on 2019/05/17, 11:42</text>
<g id="clust1" class="cluster">
<title>cluster_library_core</title>
<g id="a_clust1"><a xlink:title="core/">
<path fill="whitesmoke" stroke="dimgray" d="M20,-46C20,-46 746,-46 746,-46 752,-46 758,-52 758,-58 758,-58 758,-536 758,-536 758,-542 752,-548 746,-548 746,-548 20,-548 20,-548 14,-548 8,-542 8,-536 8,-536 8,-58 8,-58 8,-52 14,-46 20,-46"/>
<g id="a_clust1_0"><a xlink:href="https://github.com/LogtalkDotOrg/logtalk3/tree/ebb3a21db87b1d22176173dc1b160ab2797f4dc1/core/" xlink:title="https://github.com/LogtalkDotOrg/logtalk3/tree/ebb3a21db87b1d22176173dc1b160ab2797f4dc1/core/">
<text text-anchor="start" x="20" y="-56" font-family="Courier,monospace" font-size="10.00" fill="dimgray">core/</text>
</a>
</g>
</a>
</g>
</g>
<g id="clust5" class="cluster">
<title>cluster_file_/opt/local/share/logtalk/core/user.lgt</title>
<g id="a_clust5"><a xlink:title="user.lgt">
<path fill="snow" stroke="dimgray" d="M632,-190C632,-190 736,-190 736,-190 742,-190 748,-196 748,-202 748,-202 748,-263 748,-263 748,-269 742,-275 736,-275 736,-275 632,-275 632,-275 626,-275 620,-269 620,-263 620,-263 620,-202 620,-202 620,-196 626,-190 632,-190"/>
<g id="a_clust5_1"><a xlink:href="https://github.com/LogtalkDotOrg/logtalk3/tree/ebb3a21db87b1d22176173dc1b160ab2797f4dc1/core/user.lgt" xlink:title="https://github.com/LogtalkDotOrg/logtalk3/tree/ebb3a21db87b1d22176173dc1b160ab2797f4dc1/core/user.lgt">
<text text-anchor="start" x="632" y="-200" font-family="Courier,monospace" font-size="10.00" fill="dimgray">user.lgt</text>
</a>
</g>
</a>
</g>
</g>
<g id="clust6" class="cluster">
<title>cluster_file_/opt/local/share/logtalk/core/logtalk.lgt</title>
<g id="a_clust6"><a xlink:title="logtalk.lgt">
<path fill="snow" stroke="dimgray" d="M398,-82C398,-82 598,-82 598,-82 604,-82 610,-88 610,-94 610,-94 610,-371 610,-371 610,-377 604,-383 598,-383 598,-383 398,-383 398,-383 392,-383 386,-377 386,-371 386,-371 386,-94 386,-94 386,-88 392,-82 398,-82"/>
<g id="a_clust6_2"><a xlink:href="https://github.com/LogtalkDotOrg/logtalk3/tree/ebb3a21db87b1d22176173dc1b160ab2797f4dc1/core/logtalk.lgt" xlink:title="https://github.com/LogtalkDotOrg/logtalk3/tree/ebb3a21db87b1d22176173dc1b160ab2797f4dc1/core/logtalk.lgt">
<text text-anchor="start" x="397.99" y="-92" font-family="Courier,monospace" font-size="10.00" fill="dimgray">logtalk.lgt</text>
</a>
</g>
</a>
</g>
</g>
<g id="clust7" class="cluster">
<title>cluster_file_/opt/local/share/logtalk/core/core_messages.lgt</title>
<g id="a_clust7"><a xlink:title="core_messages.lgt">
<path fill="snow" stroke="dimgray" d="M164,-176.5C164,-176.5 364,-176.5 364,-176.5 370,-176.5 376,-182.5 376,-188.5 376,-188.5 376,-276.5 376,-276.5 376,-282.5 370,-288.5 364,-288.5 364,-288.5 164,-288.5 164,-288.5 158,-288.5 152,-282.5 152,-276.5 152,-276.5 152,-188.5 152,-188.5 152,-182.5 158,-176.5 164,-176.5"/>
<g id="a_clust7_3"><a xlink:href="https://github.com/LogtalkDotOrg/logtalk3/tree/ebb3a21db87b1d22176173dc1b160ab2797f4dc1/core/core_messages.lgt" xlink:title="https://github.com/LogtalkDotOrg/logtalk3/tree/ebb3a21db87b1d22176173dc1b160ab2797f4dc1/core/core_messages.lgt">
<text text-anchor="start" x="163.99" y="-186.5" font-family="Courier,monospace" font-size="10.00" fill="dimgray">core_messages.lgt</text>
</a>
</g>
</a>
</g>
</g>
<g id="clust2" class="cluster">
<title>cluster_file_/opt/local/share/logtalk/core/expanding.lgt</title>
<g id="a_clust2"><a xlink:title="expanding.lgt">
<path fill="snow" stroke="dimgray" d="M487,-426C487,-426 601,-426 601,-426 607,-426 613,-432 613,-438 613,-438 613,-526 613,-526 613,-532 607,-538 601,-538 601,-538 487,-538 487,-538 481,-538 475,-532 475,-526 475,-526 475,-438 475,-438 475,-432 481,-426 487,-426"/>
<g id="a_clust2_4"><a xlink:href="https://github.com/LogtalkDotOrg/logtalk3/tree/ebb3a21db87b1d22176173dc1b160ab2797f4dc1/core/expanding.lgt" xlink:title="https://github.com/LogtalkDotOrg/logtalk3/tree/ebb3a21db87b1d22176173dc1b160ab2797f4dc1/core/expanding.lgt">
<text text-anchor="start" x="486.99" y="-436" font-family="Courier,monospace" font-size="10.00" fill="dimgray">expanding.lgt</text>
</a>
</g>
</a>
</g>
</g>
<g id="clust3" class="cluster">
<title>cluster_file_/opt/local/share/logtalk/core/monitoring.lgt</title>
<g id="a_clust3"><a xlink:title="monitoring.lgt">
<path fill="snow" stroke="dimgray" d="M30,-176.5C30,-176.5 130,-176.5 130,-176.5 136,-176.5 142,-182.5 142,-188.5 142,-188.5 142,-276.5 142,-276.5 142,-282.5 136,-288.5 130,-288.5 130,-288.5 30,-288.5 30,-288.5 24,-288.5 18,-282.5 18,-276.5 18,-276.5 18,-188.5 18,-188.5 18,-182.5 24,-176.5 30,-176.5"/>
<g id="a_clust3_5"><a xlink:href="https://github.com/LogtalkDotOrg/logtalk3/tree/ebb3a21db87b1d22176173dc1b160ab2797f4dc1/core/monitoring.lgt" xlink:title="https://github.com/LogtalkDotOrg/logtalk3/tree/ebb3a21db87b1d22176173dc1b160ab2797f4dc1/core/monitoring.lgt">
<text text-anchor="start" x="29.99" y="-186.5" font-family="Courier,monospace" font-size="10.00" fill="dimgray">monitoring.lgt</text>
</a>
</g>
</a>
</g>
</g>
<g id="clust4" class="cluster">
<title>cluster_file_/opt/local/share/logtalk/core/forwarding.lgt</title>
<g id="a_clust4"><a xlink:title="forwarding.lgt">
<path fill="snow" stroke="dimgray" d="M635,-430.5C635,-430.5 735,-430.5 735,-430.5 741,-430.5 747,-436.5 747,-442.5 747,-442.5 747,-521.5 747,-521.5 747,-527.5 741,-533.5 735,-533.5 735,-533.5 635,-533.5 635,-533.5 629,-533.5 623,-527.5 623,-521.5 623,-521.5 623,-442.5 623,-442.5 623,-436.5 629,-430.5 635,-430.5"/>
<g id="a_clust4_6"><a xlink:href="https://github.com/LogtalkDotOrg/logtalk3/tree/ebb3a21db87b1d22176173dc1b160ab2797f4dc1/core/forwarding.lgt" xlink:title="https://github.com/LogtalkDotOrg/logtalk3/tree/ebb3a21db87b1d22176173dc1b160ab2797f4dc1/core/forwarding.lgt">
<text text-anchor="start" x="634.99" y="-440.5" font-family="Courier,monospace" font-size="10.00" fill="dimgray">forwarding.lgt</text>
</a>
</g>
</a>
</g>
</g>
<!-- expanding -->
<g id="node1" class="node">
<title>expanding</title>
<g id="a_node1"><a xlink:href="https://logtalk.org/library/expanding_0.html" xlink:title="https://logtalk.org/library/expanding_0.html">
<polygon fill="aquamarine" stroke="black" points="597,-528 485,-528 485,-462 603,-462 603,-522 597,-528"/>
<polyline fill="none" stroke="black" points="597,-528 597,-522 "/>
<polyline fill="none" stroke="black" points="603,-522 597,-522 "/>
<g id="a_node1_7"><a xlink:href="expanding_protocol_xref_diagram.svg" xlink:title="Zoom">
<image xlink:href="zoom.png" width="11px" height="11px" preserveAspectRatio="xMinYMin meet" x="493" y="-524"/>
</a>
</g>
<text text-anchor="start" x="495.8" y="-504.8" font-family="Courier,monospace" font-size="9.00"> </text>
<text text-anchor="start" x="517.3" y="-504.2" font-family="Courier,monospace" font-size="11.00">expanding</text>
<text text-anchor="start" x="589.8" y="-504.8" font-family="Courier,monospace" font-size="9.00"> </text>
<text text-anchor="start" x="495.8" y="-494.8" font-family="Courier,monospace" font-size="9.00"> </text>
<text text-anchor="start" x="511.29" y="-495.4" font-family="Courier,monospace" font-size="7.00">built&#45;in protocol</text>
<text text-anchor="start" x="589.8" y="-494.8" font-family="Courier,monospace" font-size="9.00"> </text>
<text text-anchor="start" x="495.8" y="-485.8" font-family="Courier,monospace" font-size="9.00"> </text>
<text text-anchor="start" x="495.8" y="-476.8" font-family="Courier,monospace" font-size="9.00"> </text>
<text text-anchor="start" x="503.79" y="-476.8" font-family="Courier,monospace" font-size="9.00">goal_expansion/2</text>
<text text-anchor="start" x="589.8" y="-476.8" font-family="Courier,monospace" font-size="9.00"> </text>
<text text-anchor="start" x="495.8" y="-467.8" font-family="Courier,monospace" font-size="9.00"> </text>
<text text-anchor="start" x="503.79" y="-467.8" font-family="Courier,monospace" font-size="9.00">term_expansion/2</text>
<text text-anchor="start" x="589.8" y="-467.8" font-family="Courier,monospace" font-size="9.00"> </text>
</a>
</g>
</g>
<!-- monitoring -->
<g id="node2" class="node">
<title>monitoring</title>
<g id="a_node2"><a xlink:href="https://logtalk.org/library/monitoring_0.html" xlink:title="https://logtalk.org/library/monitoring_0.html">
<polygon fill="aquamarine" stroke="black" points="125.5,-278.5 28.5,-278.5 28.5,-212.5 131.5,-212.5 131.5,-272.5 125.5,-278.5"/>
<polyline fill="none" stroke="black" points="125.5,-278.5 125.5,-272.5 "/>
<polyline fill="none" stroke="black" points="131.5,-272.5 125.5,-272.5 "/>
<g id="a_node2_8"><a xlink:href="monitoring_protocol_xref_diagram.svg" xlink:title="Zoom">
<image xlink:href="zoom.png" width="11px" height="11px" preserveAspectRatio="xMinYMin meet" x="37" y="-274.5"/>
</a>
</g>
<text text-anchor="start" x="39.8" y="-255.3" font-family="Courier,monospace" font-size="9.00"> </text>
<text text-anchor="start" x="50.49" y="-254.7" font-family="Courier,monospace" font-size="11.00">monitoring</text>
<text text-anchor="start" x="118.8" y="-255.3" font-family="Courier,monospace" font-size="9.00"> </text>
<text text-anchor="start" x="39.8" y="-245.3" font-family="Courier,monospace" font-size="9.00"> </text>
<text text-anchor="start" x="47.79" y="-245.9" font-family="Courier,monospace" font-size="7.00">built&#45;in protocol</text>
<text text-anchor="start" x="118.8" y="-245.3" font-family="Courier,monospace" font-size="9.00"> </text>
<text text-anchor="start" x="39.8" y="-236.3" font-family="Courier,monospace" font-size="9.00"> </text>
<text text-anchor="start" x="39.8" y="-227.3" font-family="Courier,monospace" font-size="9.00"> </text>
<text text-anchor="start" x="61.9" y="-227.3" font-family="Courier,monospace" font-size="9.00">before/3</text>
<text text-anchor="start" x="118.8" y="-227.3" font-family="Courier,monospace" font-size="9.00"> </text>
<text text-anchor="start" x="39.8" y="-218.3" font-family="Courier,monospace" font-size="9.00"> </text>
<text text-anchor="start" x="64.6" y="-218.3" font-family="Courier,monospace" font-size="9.00">after/3</text>
<text text-anchor="start" x="118.8" y="-218.3" font-family="Courier,monospace" font-size="9.00"> </text>
</a>
</g>
</g>
<!-- forwarding -->
<g id="node3" class="node">
<title>forwarding</title>
<g id="a_node3"><a xlink:href="https://logtalk.org/library/forwarding_0.html" xlink:title="https://logtalk.org/library/forwarding_0.html">
<polygon fill="aquamarine" stroke="black" points="730.5,-523.5 633.5,-523.5 633.5,-466.5 736.5,-466.5 736.5,-517.5 730.5,-523.5"/>
<polyline fill="none" stroke="black" points="730.5,-523.5 730.5,-517.5 "/>
<polyline fill="none" stroke="black" points="736.5,-517.5 730.5,-517.5 "/>
<g id="a_node3_9"><a xlink:href="forwarding_protocol_xref_diagram.svg" xlink:title="Zoom">
<image xlink:href="zoom.png" width="11px" height="11px" preserveAspectRatio="xMinYMin meet" x="642" y="-519"/>
</a>
</g>
<text text-anchor="start" x="644.8" y="-499.8" font-family="Courier,monospace" font-size="9.00"> </text>
<text text-anchor="start" x="655.49" y="-499.2" font-family="Courier,monospace" font-size="11.00">forwarding</text>
<text text-anchor="start" x="723.8" y="-499.8" font-family="Courier,monospace" font-size="9.00"> </text>
<text text-anchor="start" x="644.8" y="-489.8" font-family="Courier,monospace" font-size="9.00"> </text>
<text text-anchor="start" x="652.79" y="-490.4" font-family="Courier,monospace" font-size="7.00">built&#45;in protocol</text>
<text text-anchor="start" x="723.8" y="-489.8" font-family="Courier,monospace" font-size="9.00"> </text>
<text text-anchor="start" x="644.8" y="-480.8" font-family="Courier,monospace" font-size="9.00"> </text>
<text text-anchor="start" x="644.8" y="-471.8" font-family="Courier,monospace" font-size="9.00"> </text>
<text text-anchor="start" x="664.2" y="-471.8" font-family="Courier,monospace" font-size="9.00">forward/1</text>
<text text-anchor="start" x="723.8" y="-471.8" font-family="Courier,monospace" font-size="9.00"> </text>
</a>
</g>
</g>
<!-- user -->
<g id="node4" class="node">
<title>user</title>
<g id="a_node4"><a xlink:href="https://logtalk.org/library/user_0.html" xlink:title="https://logtalk.org/library/user_0.html">
<polygon fill="cornsilk" stroke="black" points="737.5,-265 630.5,-265 630.5,-226 737.5,-226 737.5,-265"/>
<g id="a_node4_10"><a xlink:href="user_object_xref_diagram.svg" xlink:title="Zoom">
<image xlink:href="zoom.png" width="11px" height="11px" preserveAspectRatio="xMinYMin meet" x="639" y="-260.5"/>
</a>
</g>
<text text-anchor="start" x="641.8" y="-241.3" font-family="Courier,monospace" font-size="9.00"> </text>
<text text-anchor="start" x="674.3" y="-240.7" font-family="Courier,monospace" font-size="11.00">user</text>
<text text-anchor="start" x="724.8" y="-241.3" font-family="Courier,monospace" font-size="9.00"> </text>
<text text-anchor="start" x="641.8" y="-231.3" font-family="Courier,monospace" font-size="9.00"> </text>
<text text-anchor="start" x="649.69" y="-231.9" font-family="Courier,monospace" font-size="7.00">built&#45;in prototype</text>
<text text-anchor="start" x="724.8" y="-231.3" font-family="Courier,monospace" font-size="9.00"> </text>
</a>
</g>
</g>
<!-- user&#45;&gt;expanding -->
<g id="edge1" class="edge">
<title>user&#45;&gt;expanding</title>
<g id="a_edge1"><a xlink:href="https://logtalk.org/library/user_0.html" xlink:title="implements">
<path fill="none" stroke="black" d="M675,-265.32C662.15,-291.91 637.48,-341.82 614,-383 600.11,-407.36 583.39,-433.96 569.78,-455.01"/>
<ellipse fill="black" stroke="black" cx="567.47" cy="-458.57" rx="4" ry="4"/>
</a>
</g>
<g id="a_edge1&#45;label"><a xlink:href="https://logtalk.org/library/user_0.html" xlink:title="https://logtalk.org/library/user_0.html">
<text text-anchor="start" x="597" y="-410.8" font-family="Courier,monospace" font-size="9.00">implements</text>
</a>
</g>
</g>
<!-- user&#45;&gt;forwarding -->
<g id="edge2" class="edge">
<title>user&#45;&gt;forwarding</title>
<g id="a_edge2"><a xlink:href="https://logtalk.org/library/user_0.html" xlink:title="implements">
<path fill="none" stroke="black" d="M684.08,-265.1C684.24,-306.08 684.64,-404.72 684.86,-458.16"/>
<ellipse fill="black" stroke="black" cx="684.87" cy="-462.33" rx="4" ry="4"/>
</a>
</g>
<g id="a_edge2&#45;label"><a xlink:href="https://logtalk.org/library/user_0.html" xlink:title="https://logtalk.org/library/user_0.html">
<text text-anchor="start" x="684" y="-410.8" font-family="Courier,monospace" font-size="9.00">implements</text>
</a>
</g>
</g>
<!-- logtalk -->
<g id="node5" class="node">
<title>logtalk</title>
<g id="a_node5"><a xlink:href="https://logtalk.org/library/logtalk_0.html" xlink:title="https://logtalk.org/library/logtalk_0.html">
<polygon fill="cornsilk" stroke="black" points="600,-373 396,-373 396,-118 600,-118 600,-373"/>
<g id="a_node5_11"><a xlink:href="logtalk_object_xref_diagram.svg" xlink:title="Zoom">
<image xlink:href="zoom.png" width="11px" height="11px" preserveAspectRatio="xMinYMin meet" x="404" y="-368.5"/>
</a>
</g>
<text text-anchor="start" x="406.8" y="-349.3" font-family="Courier,monospace" font-size="9.00"> </text>
<text text-anchor="start" x="477.9" y="-348.7" font-family="Courier,monospace" font-size="11.00">logtalk</text>
<text text-anchor="start" x="586.8" y="-349.3" font-family="Courier,monospace" font-size="9.00"> </text>
<text text-anchor="start" x="406.8" y="-339.3" font-family="Courier,monospace" font-size="9.00"> </text>
<text text-anchor="start" x="463.19" y="-339.9" font-family="Courier,monospace" font-size="7.00">built&#45;in prototype</text>
<text text-anchor="start" x="586.8" y="-339.3" font-family="Courier,monospace" font-size="9.00"> </text>
<text text-anchor="start" x="406.8" y="-330.3" font-family="Courier,monospace" font-size="9.00"> </text>
<text text-anchor="start" x="406.8" y="-321.3" font-family="Courier,monospace" font-size="9.00"> </text>
<text text-anchor="start" x="460.49" y="-321.3" font-family="Courier,monospace" font-size="9.00">print_message/3</text>
<text text-anchor="start" x="586.8" y="-321.3" font-family="Courier,monospace" font-size="9.00"> </text>
<text text-anchor="start" x="406.8" y="-312.3" font-family="Courier,monospace" font-size="9.00"> </text>
<text text-anchor="start" x="441.59" y="-312.3" font-family="Courier,monospace" font-size="9.00">print_message_tokens/3</text>
<text text-anchor="start" x="586.8" y="-312.3" font-family="Courier,monospace" font-size="9.00"> </text>
<text text-anchor="start" x="406.8" y="-303.3" font-family="Courier,monospace" font-size="9.00"> </text>
<text text-anchor="start" x="444.29" y="-303.3" font-family="Courier,monospace" font-size="9.00">print_message_token/4</text>
<text text-anchor="start" x="586.8" y="-303.3" font-family="Courier,monospace" font-size="9.00"> </text>
<text text-anchor="start" x="406.8" y="-294.3" font-family="Courier,monospace" font-size="9.00"> </text>
<text text-anchor="start" x="455.09" y="-294.3" font-family="Courier,monospace" font-size="9.00">message_tokens//2</text>
<text text-anchor="start" x="586.8" y="-294.3" font-family="Courier,monospace" font-size="9.00"> </text>
<text text-anchor="start" x="406.8" y="-285.3" font-family="Courier,monospace" font-size="9.00"> </text>
<text text-anchor="start" x="438.89" y="-285.3" font-family="Courier,monospace" font-size="9.00">message_prefix_stream/4</text>
<text text-anchor="start" x="586.8" y="-285.3" font-family="Courier,monospace" font-size="9.00"> </text>
<text text-anchor="start" x="406.8" y="-276.3" font-family="Courier,monospace" font-size="9.00"> </text>
<text text-anchor="start" x="463.19" y="-276.3" font-family="Courier,monospace" font-size="9.00">message_hook/4</text>
<text text-anchor="start" x="586.8" y="-276.3" font-family="Courier,monospace" font-size="9.00"> </text>
<text text-anchor="start" x="406.8" y="-267.3" font-family="Courier,monospace" font-size="9.00"> </text>
<text text-anchor="start" x="463.19" y="-267.3" font-family="Courier,monospace" font-size="9.00">ask_question/5</text>
<text text-anchor="start" x="586.8" y="-267.3" font-family="Courier,monospace" font-size="9.00"> </text>
<text text-anchor="start" x="406.8" y="-258.3" font-family="Courier,monospace" font-size="9.00"> </text>
<text text-anchor="start" x="460.49" y="-258.3" font-family="Courier,monospace" font-size="9.00">question_hook/6</text>
<text text-anchor="start" x="586.8" y="-258.3" font-family="Courier,monospace" font-size="9.00"> </text>
<text text-anchor="start" x="406.8" y="-249.3" font-family="Courier,monospace" font-size="9.00"> </text>
<text text-anchor="start" x="436.19" y="-249.3" font-family="Courier,monospace" font-size="9.00">question_prompt_stream/4</text>
<text text-anchor="start" x="586.8" y="-249.3" font-family="Courier,monospace" font-size="9.00"> </text>
<text text-anchor="start" x="406.8" y="-240.3" font-family="Courier,monospace" font-size="9.00"> </text>
<text text-anchor="start" x="465.89" y="-240.3" font-family="Courier,monospace" font-size="9.00">trace_event/2</text>
<text text-anchor="start" x="586.8" y="-240.3" font-family="Courier,monospace" font-size="9.00"> </text>
<text text-anchor="start" x="406.8" y="-231.3" font-family="Courier,monospace" font-size="9.00"> </text>
<text text-anchor="start" x="436.19" y="-231.3" font-family="Courier,monospace" font-size="9.00">debug_handler_provider/1</text>
<text text-anchor="start" x="586.8" y="-231.3" font-family="Courier,monospace" font-size="9.00"> </text>
<text text-anchor="start" x="406.8" y="-222.3" font-family="Courier,monospace" font-size="9.00"> </text>
<text text-anchor="start" x="460.49" y="-222.3" font-family="Courier,monospace" font-size="9.00">debug_handler/2</text>
<text text-anchor="start" x="586.8" y="-222.3" font-family="Courier,monospace" font-size="9.00"> </text>
<text text-anchor="start" x="406.8" y="-213.3" font-family="Courier,monospace" font-size="9.00"> </text>
<text text-anchor="start" x="444.29" y="-213.3" font-family="Courier,monospace" font-size="9.00">expand_library_path/2</text>
<text text-anchor="start" x="586.8" y="-213.3" font-family="Courier,monospace" font-size="9.00"> </text>
<text text-anchor="start" x="406.8" y="-204.3" font-family="Courier,monospace" font-size="9.00"> </text>
<text text-anchor="start" x="465.89" y="-204.3" font-family="Courier,monospace" font-size="9.00">loaded_file/1</text>
<text text-anchor="start" x="586.8" y="-204.3" font-family="Courier,monospace" font-size="9.00"> </text>
<text text-anchor="start" x="406.8" y="-195.3" font-family="Courier,monospace" font-size="9.00"> </text>
<text text-anchor="start" x="441.59" y="-195.3" font-family="Courier,monospace" font-size="9.00">loaded_file_property/2</text>
<text text-anchor="start" x="586.8" y="-195.3" font-family="Courier,monospace" font-size="9.00"> </text>
<text text-anchor="start" x="406.8" y="-186.3" font-family="Courier,monospace" font-size="9.00"> </text>
<text text-anchor="start" x="444.29" y="-186.3" font-family="Courier,monospace" font-size="9.00">file_type_extension/2</text>
<text text-anchor="start" x="586.8" y="-186.3" font-family="Courier,monospace" font-size="9.00"> </text>
<text text-anchor="start" x="406.8" y="-177.3" font-family="Courier,monospace" font-size="9.00"> </text>
<text text-anchor="start" x="444.29" y="-177.3" font-family="Courier,monospace" font-size="9.00">compile_aux_clauses/1</text>
<text text-anchor="start" x="586.8" y="-177.3" font-family="Courier,monospace" font-size="9.00"> </text>
<text text-anchor="start" x="406.8" y="-168.3" font-family="Courier,monospace" font-size="9.00"> </text>
<text text-anchor="start" x="460.49" y="-168.3" font-family="Courier,monospace" font-size="9.00">entity_prefix/2</text>
<text text-anchor="start" x="586.8" y="-168.3" font-family="Courier,monospace" font-size="9.00"> </text>
<text text-anchor="start" x="406.8" y="-159.3" font-family="Courier,monospace" font-size="9.00"> </text>
<text text-anchor="start" x="433.49" y="-159.3" font-family="Courier,monospace" font-size="9.00">compile_predicate_heads/4</text>
<text text-anchor="start" x="586.8" y="-159.3" font-family="Courier,monospace" font-size="9.00"> </text>
<text text-anchor="start" x="406.8" y="-150.3" font-family="Courier,monospace" font-size="9.00"> </text>
<text text-anchor="start" x="419.99" y="-150.3" font-family="Courier,monospace" font-size="9.00">compile_predicate_indicators/3</text>
<text text-anchor="start" x="586.8" y="-150.3" font-family="Courier,monospace" font-size="9.00"> </text>
<text text-anchor="start" x="406.8" y="-141.3" font-family="Courier,monospace" font-size="9.00"> </text>
<text text-anchor="start" x="428.09" y="-141.3" font-family="Courier,monospace" font-size="9.00">decompile_predicate_heads/4</text>
<text text-anchor="start" x="586.8" y="-141.3" font-family="Courier,monospace" font-size="9.00"> </text>
<text text-anchor="start" x="406.8" y="-132.3" font-family="Courier,monospace" font-size="9.00"> </text>
<text text-anchor="start" x="414.59" y="-132.3" font-family="Courier,monospace" font-size="9.00">decompile_predicate_indicators/4</text>
<text text-anchor="start" x="586.8" y="-132.3" font-family="Courier,monospace" font-size="9.00"> </text>
<text text-anchor="start" x="406.8" y="-123.3" font-family="Courier,monospace" font-size="9.00"> </text>
<text text-anchor="start" x="449.69" y="-123.3" font-family="Courier,monospace" font-size="9.00">execution_context/7</text>
<text text-anchor="start" x="586.8" y="-123.3" font-family="Courier,monospace" font-size="9.00"> </text>
</a>
</g>
</g>
<!-- core_messages -->
<g id="node6" class="node">
<title>core_messages</title>
<g id="a_node6"><a xlink:href="https://logtalk.org/library/core_messages_0.html" xlink:title="https://logtalk.org/library/core_messages_0.html">
<polygon fill="lightcyan" stroke="black" points="366,-278.5 162,-278.5 162,-274.5 158,-274.5 158,-270.5 162,-270.5 162,-220.5 158,-220.5 158,-216.5 162,-216.5 162,-212.5 366,-212.5 366,-278.5"/>
<polyline fill="none" stroke="black" points="162,-274.5 166,-274.5 166,-270.5 162,-270.5 "/>
<polyline fill="none" stroke="black" points="162,-220.5 166,-220.5 166,-216.5 162,-216.5 "/>
<g id="a_node6_12"><a xlink:href="core_messages_category_xref_diagram.svg" xlink:title="Zoom">
<image xlink:href="zoom.png" width="11px" height="11px" preserveAspectRatio="xMinYMin meet" x="170" y="-274.5"/>
</a>
</g>
<text text-anchor="start" x="172.8" y="-255.3" font-family="Courier,monospace" font-size="9.00"> </text>
<text text-anchor="start" x="224.09" y="-254.7" font-family="Courier,monospace" font-size="11.00">core_messages</text>
<text text-anchor="start" x="352.8" y="-255.3" font-family="Courier,monospace" font-size="9.00"> </text>
<text text-anchor="start" x="172.8" y="-245.3" font-family="Courier,monospace" font-size="9.00"> </text>
<text text-anchor="start" x="231.29" y="-245.9" font-family="Courier,monospace" font-size="7.00">built&#45;in category</text>
<text text-anchor="start" x="352.8" y="-245.3" font-family="Courier,monospace" font-size="9.00"> </text>
<text text-anchor="start" x="172.8" y="-236.3" font-family="Courier,monospace" font-size="9.00"> </text>
<text text-anchor="start" x="172.8" y="-227.3" font-family="Courier,monospace" font-size="9.00"> </text>
<text text-anchor="start" x="180.59" y="-227.3" font-family="Courier,monospace" font-size="9.00">logtalk::message_prefix_stream/4</text>
<text text-anchor="start" x="352.8" y="-227.3" font-family="Courier,monospace" font-size="9.00"> </text>
<text text-anchor="start" x="172.8" y="-218.3" font-family="Courier,monospace" font-size="9.00"> </text>
<text text-anchor="start" x="196.79" y="-218.3" font-family="Courier,monospace" font-size="9.00">logtalk::message_tokens//2</text>
<text text-anchor="start" x="352.8" y="-218.3" font-family="Courier,monospace" font-size="9.00"> </text>
</a>
</g>
</g>
</g>
</svg>
