<?xml version="1.0" encoding="UTF-8" standalone="no"?>
<?xml-stylesheet href="diagrams.css" type="text/css"?>
<!DOCTYPE svg PUBLIC "-//W3C//DTD SVG 1.1//EN"
 "http://www.w3.org/Graphics/SVG/1.1/DTD/svg11.dtd">
<!-- Generated by graphviz version 2.43.20191029.1313 (20191029.1313)
 -->
<!-- Title: core Pages: 1 -->
<svg width="784pt" height="708pt"
 viewBox="72.00 72.00 712.00 636.00" xmlns="http://www.w3.org/2000/svg" xmlns:xlink="http://www.w3.org/1999/xlink">
<g id="graph0" class="graph" transform="scale(1 1) rotate(0) translate(76 632)">
<title>core</title>
<polygon fill="white" stroke="transparent" points="-4,4 -4,-560 636,-560 636,4 -4,4"/>
<text text-anchor="start" x="8" y="-26" font-family="Courier,monospace" font-size="10.00" fill="dimgray">Logtalk core entities</text>
<text text-anchor="start" x="8" y="-16" font-family="Courier,monospace" font-size="10.00" fill="dimgray">Inheritance diagram for library core</text>
<text text-anchor="start" x="8" y="-6" font-family="Courier,monospace" font-size="10.00" fill="dimgray">Generated on 2020&#45;05&#45;25, 21:55</text>
<g id="clust1" class="cluster">
<title>cluster_library_core</title>
<g id="a_clust1"><a xlink:title="core/">
<path fill="whitesmoke" stroke="dimgray" d="M20,-46C20,-46 612,-46 612,-46 618,-46 624,-52 624,-58 624,-58 624,-536 624,-536 624,-542 618,-548 612,-548 612,-548 20,-548 20,-548 14,-548 8,-542 8,-536 8,-536 8,-58 8,-58 8,-52 14,-46 20,-46"/>
<g id="a_clust1_0"><a xlink:href="https://github.com/LogtalkDotOrg/logtalk3/tree/ee3e469ba16664bcc8b3b120a4a0bb7672d96db2/core/" xlink:title="https://github.com/LogtalkDotOrg/logtalk3/tree/ee3e469ba16664bcc8b3b120a4a0bb7672d96db2/core/">
<text text-anchor="start" x="20" y="-56" font-family="Courier,monospace" font-size="10.00" fill="dimgray">core/</text>
</a>
</g>
</a>
</g>
</g>
<g id="clust2" class="cluster">
<title>cluster_file_/opt/local/share/logtalk/core/expanding.lgt</title>
<g id="a_clust2"><a xlink:title="expanding.lgt">
<path fill="snow" stroke="dimgray" d="M220,-426C220,-426 334,-426 334,-426 340,-426 346,-432 346,-438 346,-438 346,-526 346,-526 346,-532 340,-538 334,-538 334,-538 220,-538 220,-538 214,-538 208,-532 208,-526 208,-526 208,-438 208,-438 208,-432 214,-426 220,-426"/>
<g id="a_clust2_1"><a xlink:href="https://github.com/LogtalkDotOrg/logtalk3/tree/ee3e469ba16664bcc8b3b120a4a0bb7672d96db2/core/expanding.lgt" xlink:title="https://github.com/LogtalkDotOrg/logtalk3/tree/ee3e469ba16664bcc8b3b120a4a0bb7672d96db2/core/expanding.lgt">
<text text-anchor="start" x="219.99" y="-436" font-family="Courier,monospace" font-size="10.00" fill="dimgray">expanding.lgt</text>
</a>
</g>
</a>
</g>
</g>
<g id="clust3" class="cluster">
<title>cluster_file_/opt/local/share/logtalk/core/monitoring.lgt</title>
<g id="a_clust3"><a xlink:title="monitoring.lgt">
<path fill="snow" stroke="dimgray" d="M368,-426C368,-426 468,-426 468,-426 474,-426 480,-432 480,-438 480,-438 480,-526 480,-526 480,-532 474,-538 468,-538 468,-538 368,-538 368,-538 362,-538 356,-532 356,-526 356,-526 356,-438 356,-438 356,-432 362,-426 368,-426"/>
<g id="a_clust3_2"><a xlink:href="https://github.com/LogtalkDotOrg/logtalk3/tree/ee3e469ba16664bcc8b3b120a4a0bb7672d96db2/core/monitoring.lgt" xlink:title="https://github.com/LogtalkDotOrg/logtalk3/tree/ee3e469ba16664bcc8b3b120a4a0bb7672d96db2/core/monitoring.lgt">
<text text-anchor="start" x="367.99" y="-436" font-family="Courier,monospace" font-size="10.00" fill="dimgray">monitoring.lgt</text>
</a>
</g>
</a>
</g>
</g>
<g id="clust4" class="cluster">
<title>cluster_file_/opt/local/share/logtalk/core/forwarding.lgt</title>
<g id="a_clust4"><a xlink:title="forwarding.lgt">
<path fill="snow" stroke="dimgray" d="M502,-430.5C502,-430.5 602,-430.5 602,-430.5 608,-430.5 614,-436.5 614,-442.5 614,-442.5 614,-521.5 614,-521.5 614,-527.5 608,-533.5 602,-533.5 602,-533.5 502,-533.5 502,-533.5 496,-533.5 490,-527.5 490,-521.5 490,-521.5 490,-442.5 490,-442.5 490,-436.5 496,-430.5 502,-430.5"/>
<g id="a_clust4_3"><a xlink:href="https://github.com/LogtalkDotOrg/logtalk3/tree/ee3e469ba16664bcc8b3b120a4a0bb7672d96db2/core/forwarding.lgt" xlink:title="https://github.com/LogtalkDotOrg/logtalk3/tree/ee3e469ba16664bcc8b3b120a4a0bb7672d96db2/core/forwarding.lgt">
<text text-anchor="start" x="501.99" y="-440.5" font-family="Courier,monospace" font-size="10.00" fill="dimgray">forwarding.lgt</text>
</a>
</g>
</a>
</g>
</g>
<g id="clust5" class="cluster">
<title>cluster_file_/opt/local/share/logtalk/core/user.lgt</title>
<g id="a_clust5"><a xlink:title="user.lgt">
<path fill="snow" stroke="dimgray" d="M498,-190C498,-190 602,-190 602,-190 608,-190 614,-196 614,-202 614,-202 614,-263 614,-263 614,-269 608,-275 602,-275 602,-275 498,-275 498,-275 492,-275 486,-269 486,-263 486,-263 486,-202 486,-202 486,-196 492,-190 498,-190"/>
<g id="a_clust5_4"><a xlink:href="https://github.com/LogtalkDotOrg/logtalk3/tree/ee3e469ba16664bcc8b3b120a4a0bb7672d96db2/core/user.lgt" xlink:title="https://github.com/LogtalkDotOrg/logtalk3/tree/ee3e469ba16664bcc8b3b120a4a0bb7672d96db2/core/user.lgt">
<text text-anchor="start" x="498" y="-200" font-family="Courier,monospace" font-size="10.00" fill="dimgray">user.lgt</text>
</a>
</g>
</a>
</g>
</g>
<g id="clust6" class="cluster">
<title>cluster_file_/opt/local/share/logtalk/core/logtalk.lgt</title>
<g id="a_clust6"><a xlink:title="logtalk.lgt">
<path fill="snow" stroke="dimgray" d="M264,-82C264,-82 464,-82 464,-82 470,-82 476,-88 476,-94 476,-94 476,-371 476,-371 476,-377 470,-383 464,-383 464,-383 264,-383 264,-383 258,-383 252,-377 252,-371 252,-371 252,-94 252,-94 252,-88 258,-82 264,-82"/>
<g id="a_clust6_5"><a xlink:href="https://github.com/LogtalkDotOrg/logtalk3/tree/ee3e469ba16664bcc8b3b120a4a0bb7672d96db2/core/logtalk.lgt" xlink:title="https://github.com/LogtalkDotOrg/logtalk3/tree/ee3e469ba16664bcc8b3b120a4a0bb7672d96db2/core/logtalk.lgt">
<text text-anchor="start" x="263.99" y="-92" font-family="Courier,monospace" font-size="10.00" fill="dimgray">logtalk.lgt</text>
</a>
</g>
</a>
</g>
</g>
<g id="clust7" class="cluster">
<title>cluster_file_/opt/local/share/logtalk/core/core_messages.lgt</title>
<g id="a_clust7"><a xlink:title="core_messages.lgt">
<path fill="snow" stroke="dimgray" d="M30,-176.5C30,-176.5 230,-176.5 230,-176.5 236,-176.5 242,-182.5 242,-188.5 242,-188.5 242,-276.5 242,-276.5 242,-282.5 236,-288.5 230,-288.5 230,-288.5 30,-288.5 30,-288.5 24,-288.5 18,-282.5 18,-276.5 18,-276.5 18,-188.5 18,-188.5 18,-182.5 24,-176.5 30,-176.5"/>
<g id="a_clust7_6"><a xlink:href="https://github.com/LogtalkDotOrg/logtalk3/tree/ee3e469ba16664bcc8b3b120a4a0bb7672d96db2/core/core_messages.lgt" xlink:title="https://github.com/LogtalkDotOrg/logtalk3/tree/ee3e469ba16664bcc8b3b120a4a0bb7672d96db2/core/core_messages.lgt">
<text text-anchor="start" x="29.99" y="-186.5" font-family="Courier,monospace" font-size="10.00" fill="dimgray">core_messages.lgt</text>
</a>
</g>
</a>
</g>
</g>
<!-- expanding -->
<g id="node1" class="node">
<title>expanding</title>
<g id="a_node1"><a xlink:href="https://logtalk.org/library/expanding_0.html" xlink:title="https://logtalk.org/library/expanding_0.html">
<polygon fill="aquamarine" stroke="black" points="330,-528 218,-528 218,-462 336,-462 336,-522 330,-528"/>
<polyline fill="none" stroke="black" points="330,-528 330,-522 "/>
<polyline fill="none" stroke="black" points="336,-522 330,-522 "/>
<g id="a_node1_7"><a xlink:href="expanding_protocol_xref_diagram.svg" xlink:title="Zoom">
<image xlink:href="zoom.png" width="11px" height="11px" preserveAspectRatio="xMinYMin meet" x="226" y="-524"/>
</a>
</g>
<text text-anchor="start" x="228.8" y="-504.8" font-family="Courier,monospace" font-size="9.00"> </text>
<text text-anchor="start" x="250.3" y="-504.2" font-family="Courier,monospace" font-size="11.00">expanding</text>
<text text-anchor="start" x="322.8" y="-504.8" font-family="Courier,monospace" font-size="9.00"> </text>
<text text-anchor="start" x="228.8" y="-494.8" font-family="Courier,monospace" font-size="9.00"> </text>
<text text-anchor="start" x="244.29" y="-495.4" font-family="Courier,monospace" font-size="7.00">built&#45;in protocol</text>
<text text-anchor="start" x="322.8" y="-494.8" font-family="Courier,monospace" font-size="9.00"> </text>
<text text-anchor="start" x="228.8" y="-485.8" font-family="Courier,monospace" font-size="9.00"> </text>
<text text-anchor="start" x="228.8" y="-476.8" font-family="Courier,monospace" font-size="9.00"> </text>
<text text-anchor="start" x="236.79" y="-476.8" font-family="Courier,monospace" font-size="9.00">goal_expansion/2</text>
<text text-anchor="start" x="322.8" y="-476.8" font-family="Courier,monospace" font-size="9.00"> </text>
<text text-anchor="start" x="228.8" y="-467.8" font-family="Courier,monospace" font-size="9.00"> </text>
<text text-anchor="start" x="236.79" y="-467.8" font-family="Courier,monospace" font-size="9.00">term_expansion/2</text>
<text text-anchor="start" x="322.8" y="-467.8" font-family="Courier,monospace" font-size="9.00"> </text>
</a>
</g>
</g>
<!-- monitoring -->
<g id="node2" class="node">
<title>monitoring</title>
<g id="a_node2"><a xlink:href="https://logtalk.org/library/monitoring_0.html" xlink:title="https://logtalk.org/library/monitoring_0.html">
<polygon fill="aquamarine" stroke="black" points="463.5,-528 366.5,-528 366.5,-462 469.5,-462 469.5,-522 463.5,-528"/>
<polyline fill="none" stroke="black" points="463.5,-528 463.5,-522 "/>
<polyline fill="none" stroke="black" points="469.5,-522 463.5,-522 "/>
<g id="a_node2_8"><a xlink:href="monitoring_protocol_xref_diagram.svg" xlink:title="Zoom">
<image xlink:href="zoom.png" width="11px" height="11px" preserveAspectRatio="xMinYMin meet" x="375" y="-524"/>
</a>
</g>
<text text-anchor="start" x="377.8" y="-504.8" font-family="Courier,monospace" font-size="9.00"> </text>
<text text-anchor="start" x="388.49" y="-504.2" font-family="Courier,monospace" font-size="11.00">monitoring</text>
<text text-anchor="start" x="456.8" y="-504.8" font-family="Courier,monospace" font-size="9.00"> </text>
<text text-anchor="start" x="377.8" y="-494.8" font-family="Courier,monospace" font-size="9.00"> </text>
<text text-anchor="start" x="385.79" y="-495.4" font-family="Courier,monospace" font-size="7.00">built&#45;in protocol</text>
<text text-anchor="start" x="456.8" y="-494.8" font-family="Courier,monospace" font-size="9.00"> </text>
<text text-anchor="start" x="377.8" y="-485.8" font-family="Courier,monospace" font-size="9.00"> </text>
<text text-anchor="start" x="377.8" y="-476.8" font-family="Courier,monospace" font-size="9.00"> </text>
<text text-anchor="start" x="399.9" y="-476.8" font-family="Courier,monospace" font-size="9.00">before/3</text>
<text text-anchor="start" x="456.8" y="-476.8" font-family="Courier,monospace" font-size="9.00"> </text>
<text text-anchor="start" x="377.8" y="-467.8" font-family="Courier,monospace" font-size="9.00"> </text>
<text text-anchor="start" x="402.6" y="-467.8" font-family="Courier,monospace" font-size="9.00">after/3</text>
<text text-anchor="start" x="456.8" y="-467.8" font-family="Courier,monospace" font-size="9.00"> </text>
</a>
</g>
</g>
<!-- forwarding -->
<g id="node3" class="node">
<title>forwarding</title>
<g id="a_node3"><a xlink:href="https://logtalk.org/library/forwarding_0.html" xlink:title="https://logtalk.org/library/forwarding_0.html">
<polygon fill="aquamarine" stroke="black" points="597.5,-523.5 500.5,-523.5 500.5,-466.5 603.5,-466.5 603.5,-517.5 597.5,-523.5"/>
<polyline fill="none" stroke="black" points="597.5,-523.5 597.5,-517.5 "/>
<polyline fill="none" stroke="black" points="603.5,-517.5 597.5,-517.5 "/>
<g id="a_node3_9"><a xlink:href="forwarding_protocol_xref_diagram.svg" xlink:title="Zoom">
<image xlink:href="zoom.png" width="11px" height="11px" preserveAspectRatio="xMinYMin meet" x="509" y="-519"/>
</a>
</g>
<text text-anchor="start" x="511.8" y="-499.8" font-family="Courier,monospace" font-size="9.00"> </text>
<text text-anchor="start" x="522.49" y="-499.2" font-family="Courier,monospace" font-size="11.00">forwarding</text>
<text text-anchor="start" x="590.8" y="-499.8" font-family="Courier,monospace" font-size="9.00"> </text>
<text text-anchor="start" x="511.8" y="-489.8" font-family="Courier,monospace" font-size="9.00"> </text>
<text text-anchor="start" x="519.79" y="-490.4" font-family="Courier,monospace" font-size="7.00">built&#45;in protocol</text>
<text text-anchor="start" x="590.8" y="-489.8" font-family="Courier,monospace" font-size="9.00"> </text>
<text text-anchor="start" x="511.8" y="-480.8" font-family="Courier,monospace" font-size="9.00"> </text>
<text text-anchor="start" x="511.8" y="-471.8" font-family="Courier,monospace" font-size="9.00"> </text>
<text text-anchor="start" x="531.2" y="-471.8" font-family="Courier,monospace" font-size="9.00">forward/1</text>
<text text-anchor="start" x="590.8" y="-471.8" font-family="Courier,monospace" font-size="9.00"> </text>
</a>
</g>
</g>
<!-- user -->
<g id="node4" class="node">
<title>user</title>
<g id="a_node4"><a xlink:href="https://logtalk.org/library/user_0.html" xlink:title="https://logtalk.org/library/user_0.html">
<polygon fill="cornsilk" stroke="black" points="603.5,-265 496.5,-265 496.5,-226 603.5,-226 603.5,-265"/>
<g id="a_node4_10"><a xlink:href="user_object_xref_diagram.svg" xlink:title="Zoom">
<image xlink:href="zoom.png" width="11px" height="11px" preserveAspectRatio="xMinYMin meet" x="505" y="-260.5"/>
</a>
</g>
<text text-anchor="start" x="507.8" y="-241.3" font-family="Courier,monospace" font-size="9.00"> </text>
<text text-anchor="start" x="540.3" y="-240.7" font-family="Courier,monospace" font-size="11.00">user</text>
<text text-anchor="start" x="590.8" y="-241.3" font-family="Courier,monospace" font-size="9.00"> </text>
<text text-anchor="start" x="507.8" y="-231.3" font-family="Courier,monospace" font-size="9.00"> </text>
<text text-anchor="start" x="515.69" y="-231.9" font-family="Courier,monospace" font-size="7.00">built&#45;in prototype</text>
<text text-anchor="start" x="590.8" y="-231.3" font-family="Courier,monospace" font-size="9.00"> </text>
</a>
</g>
</g>
<!-- user&#45;&gt;expanding -->
<g id="edge1" class="edge">
<title>user&#45;&gt;expanding</title>
<g id="a_edge1"><a xlink:href="https://logtalk.org/library/user_0.html" xlink:title="implements">
<path fill="none" stroke="black" d="M545.32,-265.23C537.06,-294.51 517.15,-351.04 480,-383 477.16,-385.45 355.24,-424.1 352,-426 338.06,-434.18 324.45,-445.25 312.74,-456.09"/>
<ellipse fill="black" stroke="black" cx="309.7" cy="-458.97" rx="4" ry="4"/>
</a>
</g>
<g id="a_edge1&#45;label"><a xlink:href="https://logtalk.org/library/user_0.html" xlink:title="https://logtalk.org/library/user_0.html">
<text text-anchor="start" x="401" y="-410.8" font-family="Courier,monospace" font-size="9.00">implements</text>
</a>
</g>
</g>
<!-- user&#45;&gt;monitoring -->
<g id="edge3" class="edge">
<title>user&#45;&gt;monitoring</title>
<g id="a_edge3"><a xlink:href="https://logtalk.org/library/user_0.html" xlink:title="implements">
<path fill="none" stroke="black" d="M540.7,-265.15C527.48,-291.54 502.38,-341.21 480,-383 467.23,-406.85 452.48,-433.3 440.57,-454.4"/>
<ellipse fill="black" stroke="black" cx="438.45" cy="-458.14" rx="4" ry="4"/>
</a>
</g>
<g id="a_edge3&#45;label"><a xlink:href="https://logtalk.org/library/user_0.html" xlink:title="https://logtalk.org/library/user_0.html">
<text text-anchor="start" x="465" y="-410.8" font-family="Courier,monospace" font-size="9.00">implements</text>
</a>
</g>
</g>
<!-- user&#45;&gt;forwarding -->
<g id="edge2" class="edge">
<title>user&#45;&gt;forwarding</title>
<g id="a_edge2"><a xlink:href="https://logtalk.org/library/user_0.html" xlink:title="implements">
<path fill="none" stroke="black" d="M550.15,-265.1C550.48,-306.08 551.28,-404.72 551.71,-458.16"/>
<ellipse fill="black" stroke="black" cx="551.74" cy="-462.33" rx="4" ry="4"/>
</a>
</g>
<g id="a_edge2&#45;label"><a xlink:href="https://logtalk.org/library/user_0.html" xlink:title="https://logtalk.org/library/user_0.html">
<text text-anchor="start" x="551" y="-410.8" font-family="Courier,monospace" font-size="9.00">implements</text>
</a>
</g>
</g>
<!-- logtalk -->
<g id="node5" class="node">
<title>logtalk</title>
<g id="a_node5"><a xlink:href="https://logtalk.org/library/logtalk_0.html" xlink:title="https://logtalk.org/library/logtalk_0.html">
<polygon fill="cornsilk" stroke="black" points="466,-373 262,-373 262,-118 466,-118 466,-373"/>
<g id="a_node5_11"><a xlink:href="logtalk_object_xref_diagram.svg" xlink:title="Zoom">
<image xlink:href="zoom.png" width="11px" height="11px" preserveAspectRatio="xMinYMin meet" x="270" y="-368.5"/>
</a>
</g>
<text text-anchor="start" x="272.8" y="-349.3" font-family="Courier,monospace" font-size="9.00"> </text>
<text text-anchor="start" x="343.9" y="-348.7" font-family="Courier,monospace" font-size="11.00">logtalk</text>
<text text-anchor="start" x="452.8" y="-349.3" font-family="Courier,monospace" font-size="9.00"> </text>
<text text-anchor="start" x="272.8" y="-339.3" font-family="Courier,monospace" font-size="9.00"> </text>
<text text-anchor="start" x="329.19" y="-339.9" font-family="Courier,monospace" font-size="7.00">built&#45;in prototype</text>
<text text-anchor="start" x="452.8" y="-339.3" font-family="Courier,monospace" font-size="9.00"> </text>
<text text-anchor="start" x="272.8" y="-330.3" font-family="Courier,monospace" font-size="9.00"> </text>
<text text-anchor="start" x="272.8" y="-321.3" font-family="Courier,monospace" font-size="9.00"> </text>
<text text-anchor="start" x="326.49" y="-321.3" font-family="Courier,monospace" font-size="9.00">print_message/3</text>
<text text-anchor="start" x="452.8" y="-321.3" font-family="Courier,monospace" font-size="9.00"> </text>
<text text-anchor="start" x="272.8" y="-312.3" font-family="Courier,monospace" font-size="9.00"> </text>
<text text-anchor="start" x="307.59" y="-312.3" font-family="Courier,monospace" font-size="9.00">print_message_tokens/3</text>
<text text-anchor="start" x="452.8" y="-312.3" font-family="Courier,monospace" font-size="9.00"> </text>
<text text-anchor="start" x="272.8" y="-303.3" font-family="Courier,monospace" font-size="9.00"> </text>
<text text-anchor="start" x="310.29" y="-303.3" font-family="Courier,monospace" font-size="9.00">print_message_token/4</text>
<text text-anchor="start" x="452.8" y="-303.3" font-family="Courier,monospace" font-size="9.00"> </text>
<text text-anchor="start" x="272.8" y="-294.3" font-family="Courier,monospace" font-size="9.00"> </text>
<text text-anchor="start" x="321.09" y="-294.3" font-family="Courier,monospace" font-size="9.00">message_tokens//2</text>
<text text-anchor="start" x="452.8" y="-294.3" font-family="Courier,monospace" font-size="9.00"> </text>
<text text-anchor="start" x="272.8" y="-285.3" font-family="Courier,monospace" font-size="9.00"> </text>
<text text-anchor="start" x="304.89" y="-285.3" font-family="Courier,monospace" font-size="9.00">message_prefix_stream/4</text>
<text text-anchor="start" x="452.8" y="-285.3" font-family="Courier,monospace" font-size="9.00"> </text>
<text text-anchor="start" x="272.8" y="-276.3" font-family="Courier,monospace" font-size="9.00"> </text>
<text text-anchor="start" x="329.19" y="-276.3" font-family="Courier,monospace" font-size="9.00">message_hook/4</text>
<text text-anchor="start" x="452.8" y="-276.3" font-family="Courier,monospace" font-size="9.00"> </text>
<text text-anchor="start" x="272.8" y="-267.3" font-family="Courier,monospace" font-size="9.00"> </text>
<text text-anchor="start" x="329.19" y="-267.3" font-family="Courier,monospace" font-size="9.00">ask_question/5</text>
<text text-anchor="start" x="452.8" y="-267.3" font-family="Courier,monospace" font-size="9.00"> </text>
<text text-anchor="start" x="272.8" y="-258.3" font-family="Courier,monospace" font-size="9.00"> </text>
<text text-anchor="start" x="326.49" y="-258.3" font-family="Courier,monospace" font-size="9.00">question_hook/6</text>
<text text-anchor="start" x="452.8" y="-258.3" font-family="Courier,monospace" font-size="9.00"> </text>
<text text-anchor="start" x="272.8" y="-249.3" font-family="Courier,monospace" font-size="9.00"> </text>
<text text-anchor="start" x="302.19" y="-249.3" font-family="Courier,monospace" font-size="9.00">question_prompt_stream/4</text>
<text text-anchor="start" x="452.8" y="-249.3" font-family="Courier,monospace" font-size="9.00"> </text>
<text text-anchor="start" x="272.8" y="-240.3" font-family="Courier,monospace" font-size="9.00"> </text>
<text text-anchor="start" x="331.89" y="-240.3" font-family="Courier,monospace" font-size="9.00">trace_event/2</text>
<text text-anchor="start" x="452.8" y="-240.3" font-family="Courier,monospace" font-size="9.00"> </text>
<text text-anchor="start" x="272.8" y="-231.3" font-family="Courier,monospace" font-size="9.00"> </text>
<text text-anchor="start" x="302.19" y="-231.3" font-family="Courier,monospace" font-size="9.00">debug_handler_provider/1</text>
<text text-anchor="start" x="452.8" y="-231.3" font-family="Courier,monospace" font-size="9.00"> </text>
<text text-anchor="start" x="272.8" y="-222.3" font-family="Courier,monospace" font-size="9.00"> </text>
<text text-anchor="start" x="326.49" y="-222.3" font-family="Courier,monospace" font-size="9.00">debug_handler/2</text>
<text text-anchor="start" x="452.8" y="-222.3" font-family="Courier,monospace" font-size="9.00"> </text>
<text text-anchor="start" x="272.8" y="-213.3" font-family="Courier,monospace" font-size="9.00"> </text>
<text text-anchor="start" x="310.29" y="-213.3" font-family="Courier,monospace" font-size="9.00">expand_library_path/2</text>
<text text-anchor="start" x="452.8" y="-213.3" font-family="Courier,monospace" font-size="9.00"> </text>
<text text-anchor="start" x="272.8" y="-204.3" font-family="Courier,monospace" font-size="9.00"> </text>
<text text-anchor="start" x="331.89" y="-204.3" font-family="Courier,monospace" font-size="9.00">loaded_file/1</text>
<text text-anchor="start" x="452.8" y="-204.3" font-family="Courier,monospace" font-size="9.00"> </text>
<text text-anchor="start" x="272.8" y="-195.3" font-family="Courier,monospace" font-size="9.00"> </text>
<text text-anchor="start" x="307.59" y="-195.3" font-family="Courier,monospace" font-size="9.00">loaded_file_property/2</text>
<text text-anchor="start" x="452.8" y="-195.3" font-family="Courier,monospace" font-size="9.00"> </text>
<text text-anchor="start" x="272.8" y="-186.3" font-family="Courier,monospace" font-size="9.00"> </text>
<text text-anchor="start" x="310.29" y="-186.3" font-family="Courier,monospace" font-size="9.00">file_type_extension/2</text>
<text text-anchor="start" x="452.8" y="-186.3" font-family="Courier,monospace" font-size="9.00"> </text>
<text text-anchor="start" x="272.8" y="-177.3" font-family="Courier,monospace" font-size="9.00"> </text>
<text text-anchor="start" x="310.29" y="-177.3" font-family="Courier,monospace" font-size="9.00">compile_aux_clauses/1</text>
<text text-anchor="start" x="452.8" y="-177.3" font-family="Courier,monospace" font-size="9.00"> </text>
<text text-anchor="start" x="272.8" y="-168.3" font-family="Courier,monospace" font-size="9.00"> </text>
<text text-anchor="start" x="326.49" y="-168.3" font-family="Courier,monospace" font-size="9.00">entity_prefix/2</text>
<text text-anchor="start" x="452.8" y="-168.3" font-family="Courier,monospace" font-size="9.00"> </text>
<text text-anchor="start" x="272.8" y="-159.3" font-family="Courier,monospace" font-size="9.00"> </text>
<text text-anchor="start" x="299.49" y="-159.3" font-family="Courier,monospace" font-size="9.00">compile_predicate_heads/4</text>
<text text-anchor="start" x="452.8" y="-159.3" font-family="Courier,monospace" font-size="9.00"> </text>
<text text-anchor="start" x="272.8" y="-150.3" font-family="Courier,monospace" font-size="9.00"> </text>
<text text-anchor="start" x="285.99" y="-150.3" font-family="Courier,monospace" font-size="9.00">compile_predicate_indicators/3</text>
<text text-anchor="start" x="452.8" y="-150.3" font-family="Courier,monospace" font-size="9.00"> </text>
<text text-anchor="start" x="272.8" y="-141.3" font-family="Courier,monospace" font-size="9.00"> </text>
<text text-anchor="start" x="294.09" y="-141.3" font-family="Courier,monospace" font-size="9.00">decompile_predicate_heads/4</text>
<text text-anchor="start" x="452.8" y="-141.3" font-family="Courier,monospace" font-size="9.00"> </text>
<text text-anchor="start" x="272.8" y="-132.3" font-family="Courier,monospace" font-size="9.00"> </text>
<text text-anchor="start" x="280.59" y="-132.3" font-family="Courier,monospace" font-size="9.00">decompile_predicate_indicators/4</text>
<text text-anchor="start" x="452.8" y="-132.3" font-family="Courier,monospace" font-size="9.00"> </text>
<text text-anchor="start" x="272.8" y="-123.3" font-family="Courier,monospace" font-size="9.00"> </text>
<text text-anchor="start" x="315.69" y="-123.3" font-family="Courier,monospace" font-size="9.00">execution_context/7</text>
<text text-anchor="start" x="452.8" y="-123.3" font-family="Courier,monospace" font-size="9.00"> </text>
</a>
</g>
</g>
<!-- core_messages -->
<g id="node6" class="node">
<title>core_messages</title>
<g id="a_node6"><a xlink:href="https://logtalk.org/library/core_messages_0.html" xlink:title="https://logtalk.org/library/core_messages_0.html">
<polygon fill="lightcyan" stroke="black" points="232,-278.5 28,-278.5 28,-274.5 24,-274.5 24,-270.5 28,-270.5 28,-220.5 24,-220.5 24,-216.5 28,-216.5 28,-212.5 232,-212.5 232,-278.5"/>
<polyline fill="none" stroke="black" points="28,-274.5 32,-274.5 32,-270.5 28,-270.5 "/>
<polyline fill="none" stroke="black" points="28,-220.5 32,-220.5 32,-216.5 28,-216.5 "/>
<g id="a_node6_12"><a xlink:href="core_messages_category_xref_diagram.svg" xlink:title="Zoom">
<image xlink:href="zoom.png" width="11px" height="11px" preserveAspectRatio="xMinYMin meet" x="36" y="-274.5"/>
</a>
</g>
<text text-anchor="start" x="38.8" y="-255.3" font-family="Courier,monospace" font-size="9.00"> </text>
<text text-anchor="start" x="90.09" y="-254.7" font-family="Courier,monospace" font-size="11.00">core_messages</text>
<text text-anchor="start" x="218.8" y="-255.3" font-family="Courier,monospace" font-size="9.00"> </text>
<text text-anchor="start" x="38.8" y="-245.3" font-family="Courier,monospace" font-size="9.00"> </text>
<text text-anchor="start" x="97.29" y="-245.9" font-family="Courier,monospace" font-size="7.00">built&#45;in category</text>
<text text-anchor="start" x="218.8" y="-245.3" font-family="Courier,monospace" font-size="9.00"> </text>
<text text-anchor="start" x="38.8" y="-236.3" font-family="Courier,monospace" font-size="9.00"> </text>
<text text-anchor="start" x="38.8" y="-227.3" font-family="Courier,monospace" font-size="9.00"> </text>
<text text-anchor="start" x="46.59" y="-227.3" font-family="Courier,monospace" font-size="9.00">logtalk::message_prefix_stream/4</text>
<text text-anchor="start" x="218.8" y="-227.3" font-family="Courier,monospace" font-size="9.00"> </text>
<text text-anchor="start" x="38.8" y="-218.3" font-family="Courier,monospace" font-size="9.00"> </text>
<text text-anchor="start" x="62.79" y="-218.3" font-family="Courier,monospace" font-size="9.00">logtalk::message_tokens//2</text>
<text text-anchor="start" x="218.8" y="-218.3" font-family="Courier,monospace" font-size="9.00"> </text>
</a>
</g>
</g>
</g>
</svg>
