<?xml version="1.0" encoding="UTF-8" standalone="no"?>
<!DOCTYPE svg PUBLIC "-//W3C//DTD SVG 1.1//EN"
 "http://www.w3.org/Graphics/SVG/1.1/DTD/svg11.dtd">
<!-- Generated by graphviz version 2.39.20160818.0036 (20160818.0036)
 -->
<!-- Title: core Pages: 1 -->
<svg width="992pt" height="745pt"
 viewBox="72.00 72.00 920.00 673.00" xmlns="http://www.w3.org/2000/svg" xmlns:xlink="http://www.w3.org/1999/xlink">
<g id="graph0" class="graph" transform="scale(1 1) rotate(0) translate(76 669)">
<title>core</title>
<polygon fill="white" stroke="transparent" points="-4,4 -4,-597 844,-597 844,4 -4,4"/>
<text text-anchor="start" x="8" y="-18" font-family="Courier,monospace" font-size="10.00" fill="#8b8989">Logtalk core entities</text>
<text text-anchor="start" x="8" y="-7" font-family="Courier,monospace" font-size="10.00" fill="#8b8989">Generated on 2016/08/22, 00:10</text>
<g id="clust1" class="cluster">
<title>cluster_library_core</title>
<g id="a_clust1"><a xlink:href="https://github.com/LogtalkDotOrg/logtalk3/tree/master/core/" xlink:title="https://github.com/LogtalkDotOrg/logtalk3/tree/master/core/">
<path fill="#eee9e9" stroke="#8b8989" d="M20,-38C20,-38 820,-38 820,-38 826,-38 832,-44 832,-50 832,-50 832,-573 832,-573 832,-579 826,-585 820,-585 820,-585 20,-585 20,-585 14,-585 8,-579 8,-573 8,-573 8,-50 8,-50 8,-44 14,-38 20,-38"/>
<text text-anchor="middle" x="28.5" y="-45" font-family="Courier,monospace" font-size="10.00" fill="#8b8989">core</text>
</a>
</g>
</g>
<g id="clust2" class="cluster">
<title>cluster_file_/opt/local/share/logtalk/core/expanding.lgt</title>
<g id="a_clust2"><a xlink:href="https://github.com/LogtalkDotOrg/logtalk3/tree/master/core/expanding.lgt" xlink:title="https://github.com/LogtalkDotOrg/logtalk3/tree/master/core/expanding.lgt">
<path fill="snow" stroke="#8b8989" d="M710,-157C710,-157 810,-157 810,-157 816,-157 822,-163 822,-169 822,-169 822,-237 822,-237 822,-243 816,-249 810,-249 810,-249 710,-249 710,-249 704,-249 698,-243 698,-237 698,-237 698,-169 698,-169 698,-163 704,-157 710,-157"/>
<text text-anchor="middle" x="745.5" y="-164" font-family="Courier,monospace" font-size="10.00" fill="#8b8989">expanding.lgt</text>
</a>
</g>
</g>
<g id="clust3" class="cluster">
<title>cluster_file_/opt/local/share/logtalk/core/monitoring.lgt</title>
<g id="a_clust3"><a xlink:href="https://github.com/LogtalkDotOrg/logtalk3/tree/master/core/monitoring.lgt" xlink:title="https://github.com/LogtalkDotOrg/logtalk3/tree/master/core/monitoring.lgt">
<path fill="snow" stroke="#8b8989" d="M592,-157C592,-157 676,-157 676,-157 682,-157 688,-163 688,-169 688,-169 688,-237 688,-237 688,-243 682,-249 676,-249 676,-249 592,-249 592,-249 586,-249 580,-243 580,-237 580,-237 580,-169 580,-169 580,-163 586,-157 592,-157"/>
<text text-anchor="middle" x="630.5" y="-164" font-family="Courier,monospace" font-size="10.00" fill="#8b8989">monitoring.lgt</text>
</a>
</g>
</g>
<g id="clust4" class="cluster">
<title>cluster_file_/opt/local/share/logtalk/core/forwarding.lgt</title>
<g id="a_clust4"><a xlink:href="https://github.com/LogtalkDotOrg/logtalk3/tree/master/core/forwarding.lgt" xlink:title="https://github.com/LogtalkDotOrg/logtalk3/tree/master/core/forwarding.lgt">
<path fill="snow" stroke="#8b8989" d="M472,-492C472,-492 556,-492 556,-492 562,-492 568,-498 568,-504 568,-504 568,-563 568,-563 568,-569 562,-575 556,-575 556,-575 472,-575 472,-575 466,-575 460,-569 460,-563 460,-563 460,-504 460,-504 460,-498 466,-492 472,-492"/>
<text text-anchor="middle" x="510.5" y="-499" font-family="Courier,monospace" font-size="10.00" fill="#8b8989">forwarding.lgt</text>
</a>
</g>
</g>
<g id="clust5" class="cluster">
<title>cluster_file_/opt/local/share/logtalk/core/user.lgt</title>
<g id="a_clust5"><a xlink:href="https://github.com/LogtalkDotOrg/logtalk3/tree/master/core/user.lgt" xlink:title="https://github.com/LogtalkDotOrg/logtalk3/tree/master/core/user.lgt">
<path fill="snow" stroke="#8b8989" d="M470,-165.5C470,-165.5 558,-165.5 558,-165.5 564,-165.5 570,-171.5 570,-177.5 570,-177.5 570,-228.5 570,-228.5 570,-234.5 564,-240.5 558,-240.5 558,-240.5 470,-240.5 470,-240.5 464,-240.5 458,-234.5 458,-228.5 458,-228.5 458,-177.5 458,-177.5 458,-171.5 464,-165.5 470,-165.5"/>
<text text-anchor="middle" x="490.5" y="-172.5" font-family="Courier,monospace" font-size="10.00" fill="#8b8989">user.lgt</text>
</a>
</g>
</g>
<g id="clust6" class="cluster">
<title>cluster_file_/opt/local/share/logtalk/core/logtalk.lgt</title>
<g id="a_clust6"><a xlink:href="https://github.com/LogtalkDotOrg/logtalk3/tree/master/core/logtalk.lgt" xlink:title="https://github.com/LogtalkDotOrg/logtalk3/tree/master/core/logtalk.lgt">
<path fill="snow" stroke="#8b8989" d="M250,-67C250,-67 436,-67 436,-67 442,-67 448,-73 448,-79 448,-79 448,-327 448,-327 448,-333 442,-339 436,-339 436,-339 250,-339 250,-339 244,-339 238,-333 238,-327 238,-327 238,-79 238,-79 238,-73 244,-67 250,-67"/>
<text text-anchor="middle" x="279.5" y="-74" font-family="Courier,monospace" font-size="10.00" fill="#8b8989">logtalk.lgt</text>
</a>
</g>
</g>
<g id="clust7" class="cluster">
<title>cluster_file_/opt/local/share/logtalk/core/core_messages.lgt</title>
<g id="a_clust7"><a xlink:href="https://github.com/LogtalkDotOrg/logtalk3/tree/master/core/core_messages.lgt" xlink:title="https://github.com/LogtalkDotOrg/logtalk3/tree/master/core/core_messages.lgt">
<path fill="snow" stroke="#8b8989" d="M30,-157C30,-157 216,-157 216,-157 222,-157 228,-163 228,-169 228,-169 228,-237 228,-237 228,-243 222,-249 216,-249 216,-249 30,-249 30,-249 24,-249 18,-243 18,-237 18,-237 18,-169 18,-169 18,-163 24,-157 30,-157"/>
<text text-anchor="middle" x="77.5" y="-164" font-family="Courier,monospace" font-size="10.00" fill="#8b8989">core_messages.lgt</text>
</a>
</g>
</g>
<!-- expanding -->
<g id="node1" class="node">
<title>expanding</title>
<g id="a_node1"><a xlink:href="http://logtalk.org/library/expanding_0.html" xlink:title="http://logtalk.org/library/expanding_0.html">
<polygon fill="aquamarine" stroke="black" points="805.5,-239 708.5,-239 708.5,-186 811.5,-186 811.5,-233 805.5,-239"/>
<polyline fill="none" stroke="black" points="805.5,-239 805.5,-233 "/>
<polyline fill="none" stroke="black" points="811.5,-233 805.5,-233 "/>
<text text-anchor="start" x="730" y="-227.2" font-family="Courier,monospace" font-size="11.00">expanding</text>
<text text-anchor="start" x="724" y="-219.4" font-family="Courier,monospace" font-size="7.00">built&#45;in protocol</text>
<text text-anchor="start" x="757" y="-210.8" font-family="Courier,monospace" font-size="9.00"> </text>
<text text-anchor="start" x="716.5" y="-201.8" font-family="Courier,monospace" font-size="9.00">goal_expansion/2</text>
<text text-anchor="start" x="716.5" y="-192.8" font-family="Courier,monospace" font-size="9.00">term_expansion/2</text>
</a>
</g>
</g>
<!-- monitoring -->
<g id="node2" class="node">
<title>monitoring</title>
<g id="a_node2"><a xlink:href="http://logtalk.org/library/monitoring_0.html" xlink:title="http://logtalk.org/library/monitoring_0.html">
<polygon fill="aquamarine" stroke="black" points="672,-239 590,-239 590,-186 678,-186 678,-233 672,-239"/>
<polyline fill="none" stroke="black" points="672,-239 672,-233 "/>
<polyline fill="none" stroke="black" points="678,-233 672,-233 "/>
<text text-anchor="start" x="600.5" y="-227.2" font-family="Courier,monospace" font-size="11.00">monitoring</text>
<text text-anchor="start" x="598" y="-219.4" font-family="Courier,monospace" font-size="7.00">built&#45;in protocol</text>
<text text-anchor="start" x="631" y="-210.8" font-family="Courier,monospace" font-size="9.00"> </text>
<text text-anchor="start" x="612" y="-201.8" font-family="Courier,monospace" font-size="9.00">before/3</text>
<text text-anchor="start" x="615" y="-192.8" font-family="Courier,monospace" font-size="9.00">after/3</text>
</a>
</g>
</g>
<!-- forwarding -->
<g id="node3" class="node">
<title>forwarding</title>
<g id="a_node3"><a xlink:href="http://logtalk.org/library/forwarding_0.html" xlink:title="http://logtalk.org/library/forwarding_0.html">
<polygon fill="aquamarine" stroke="black" points="552,-565 470,-565 470,-521 558,-521 558,-559 552,-565"/>
<polyline fill="none" stroke="black" points="552,-565 552,-559 "/>
<polyline fill="none" stroke="black" points="558,-559 552,-559 "/>
<text text-anchor="start" x="480.5" y="-553.2" font-family="Courier,monospace" font-size="11.00">forwarding</text>
<text text-anchor="start" x="478" y="-545.4" font-family="Courier,monospace" font-size="7.00">built&#45;in protocol</text>
<text text-anchor="start" x="511" y="-536.8" font-family="Courier,monospace" font-size="9.00"> </text>
<text text-anchor="start" x="489.5" y="-527.8" font-family="Courier,monospace" font-size="9.00">forward/1</text>
</a>
</g>
</g>
<!-- user -->
<g id="node4" class="node">
<title>user</title>
<g id="a_node4"><a xlink:href="http://logtalk.org/library/user_0.html" xlink:title="http://logtalk.org/library/user_0.html">
<polygon fill="beige" stroke="black" points="560,-230.5 468,-230.5 468,-194.5 560,-194.5 560,-230.5"/>
<text text-anchor="start" x="500.5" y="-213.7" font-family="Courier,monospace" font-size="11.00">user</text>
<text text-anchor="start" x="476" y="-205.9" font-family="Courier,monospace" font-size="7.00">built&#45;in prototype</text>
</a>
</g>
</g>
<!-- user&#45;&gt;forwarding -->
<g id="edge1" class="edge">
<title>user&#45;&gt;forwarding</title>
<g id="a_edge1"><a xlink:title="implements">
<path fill="none" stroke="black" d="M514,-230.74C514,-284.855 514,-444.927 514,-512.429"/>
<ellipse fill="black" stroke="black" cx="514" cy="-516.567" rx="4" ry="4"/>
</a>
</g>
<text text-anchor="start" x="514" y="-422.8" font-family="Courier,monospace" font-size="9.00">implements</text>
</g>
<!-- logtalk -->
<g id="node5" class="node">
<title>logtalk</title>
<g id="a_node5"><a xlink:href="http://logtalk.org/library/logtalk_0.html" xlink:title="http://logtalk.org/library/logtalk_0.html">
<polygon fill="beige" stroke="black" points="437.5,-329 248.5,-329 248.5,-96 437.5,-96 437.5,-329"/>
<text text-anchor="start" x="319.5" y="-317.2" font-family="Courier,monospace" font-size="11.00">logtalk</text>
<text text-anchor="start" x="305" y="-309.4" font-family="Courier,monospace" font-size="7.00">built&#45;in prototype</text>
<text text-anchor="start" x="340" y="-300.8" font-family="Courier,monospace" font-size="9.00"> </text>
<text text-anchor="start" x="302" y="-291.8" font-family="Courier,monospace" font-size="9.00">print_message/3</text>
<text text-anchor="start" x="283.5" y="-282.8" font-family="Courier,monospace" font-size="9.00">print_message_tokens/3</text>
<text text-anchor="start" x="286" y="-273.8" font-family="Courier,monospace" font-size="9.00">print_message_token/4</text>
<text text-anchor="start" x="297" y="-264.8" font-family="Courier,monospace" font-size="9.00">message_tokens//2</text>
<text text-anchor="start" x="280.5" y="-255.8" font-family="Courier,monospace" font-size="9.00">message_prefix_stream/4</text>
<text text-anchor="start" x="305" y="-246.8" font-family="Courier,monospace" font-size="9.00">message_hook/4</text>
<text text-anchor="start" x="305" y="-237.8" font-family="Courier,monospace" font-size="9.00">ask_question/5</text>
<text text-anchor="start" x="302" y="-228.8" font-family="Courier,monospace" font-size="9.00">question_hook/6</text>
<text text-anchor="start" x="278" y="-219.8" font-family="Courier,monospace" font-size="9.00">question_prompt_stream/4</text>
<text text-anchor="start" x="307.5" y="-210.8" font-family="Courier,monospace" font-size="9.00">trace_event/2</text>
<text text-anchor="start" x="278" y="-201.8" font-family="Courier,monospace" font-size="9.00">debug_handler_provider/1</text>
<text text-anchor="start" x="302" y="-192.8" font-family="Courier,monospace" font-size="9.00">debug_handler/2</text>
<text text-anchor="start" x="286" y="-183.8" font-family="Courier,monospace" font-size="9.00">expand_library_path/2</text>
<text text-anchor="start" x="307.5" y="-174.8" font-family="Courier,monospace" font-size="9.00">loaded_file/1</text>
<text text-anchor="start" x="283.5" y="-165.8" font-family="Courier,monospace" font-size="9.00">loaded_file_property/2</text>
<text text-anchor="start" x="286" y="-156.8" font-family="Courier,monospace" font-size="9.00">compile_aux_clauses/1</text>
<text text-anchor="start" x="302" y="-147.8" font-family="Courier,monospace" font-size="9.00">entity_prefix/2</text>
<text text-anchor="start" x="275" y="-138.8" font-family="Courier,monospace" font-size="9.00">compile_predicate_heads/4</text>
<text text-anchor="start" x="261.5" y="-129.8" font-family="Courier,monospace" font-size="9.00">compile_predicate_indicators/3</text>
<text text-anchor="start" x="270" y="-120.8" font-family="Courier,monospace" font-size="9.00">decompile_predicate_heads/4</text>
<text text-anchor="start" x="256.5" y="-111.8" font-family="Courier,monospace" font-size="9.00">decompile_predicate_indicators/4</text>
<text text-anchor="start" x="291.5" y="-102.8" font-family="Courier,monospace" font-size="9.00">execution_context/7</text>
</a>
</g>
</g>
<!-- core_messages -->
<g id="node6" class="node">
<title>core_messages</title>
<g id="a_node6"><a xlink:href="http://logtalk.org/library/core_messages_0.html" xlink:title="http://logtalk.org/library/core_messages_0.html">
<polygon fill="lightcyan" stroke="black" points="217.5,-239 28.5,-239 28.5,-235 24.5,-235 24.5,-231 28.5,-231 28.5,-194 24.5,-194 24.5,-190 28.5,-190 28.5,-186 217.5,-186 217.5,-239"/>
<polyline fill="none" stroke="black" points="28.5,-235 32.5,-235 32.5,-231 28.5,-231 "/>
<polyline fill="none" stroke="black" points="28.5,-194 32.5,-194 32.5,-190 28.5,-190 "/>
<text text-anchor="start" x="80" y="-227.2" font-family="Courier,monospace" font-size="11.00">core_messages</text>
<text text-anchor="start" x="87" y="-219.4" font-family="Courier,monospace" font-size="7.00">built&#45;in category</text>
<text text-anchor="start" x="120" y="-210.8" font-family="Courier,monospace" font-size="9.00"> </text>
<text text-anchor="start" x="36.5" y="-201.8" font-family="Courier,monospace" font-size="9.00">logtalk::message_prefix_stream/4</text>
<text text-anchor="start" x="52.5" y="-192.8" font-family="Courier,monospace" font-size="9.00">logtalk::message_tokens//2</text>
</a>
</g>
</g>
</g>
</svg>
