<?xml version="1.0" encoding="UTF-8" standalone="no"?>
<?xml-stylesheet href="diagrams.css" type="text/css"?>
<!DOCTYPE svg PUBLIC "-//W3C//DTD SVG 1.1//EN"
 "http://www.w3.org/Graphics/SVG/1.1/DTD/svg11.dtd">
<!-- Generated by graphviz version 2.40.1 (20161225.0304)
 -->
<!-- Title: core Pages: 1 -->
<svg width="788pt" height="820pt"
 viewBox="72.00 72.00 716.00 748.00" xmlns="http://www.w3.org/2000/svg" xmlns:xlink="http://www.w3.org/1999/xlink">
<g id="graph0" class="graph" transform="scale(1 1) rotate(0) translate(76 744)">
<title>core</title>
<polygon fill="#ffffff" stroke="transparent" points="-4,4 -4,-672 640,-672 640,4 -4,4"/>
<text text-anchor="start" x="8" y="-29" font-family="Monospace" font-size="10.00" fill="#696969">Logtalk core entities</text>
<text text-anchor="start" x="8" y="-18" font-family="Monospace" font-size="10.00" fill="#696969">Inheritance diagram for library core</text>
<text text-anchor="start" x="8" y="-7" font-family="Monospace" font-size="10.00" fill="#696969">Generated on 2023&#45;01&#45;01, 23:39</text>
<g id="clust1" class="cluster">
<title>cluster_library_core</title>
<g id="a_clust1"><a xlink:title="core/">
<path fill="#f5f5f5" stroke="#696969" d="M20,-49C20,-49 616,-49 616,-49 622,-49 628,-55 628,-61 628,-61 628,-648 628,-648 628,-654 622,-660 616,-660 616,-660 20,-660 20,-660 14,-660 8,-654 8,-648 8,-648 8,-61 8,-61 8,-55 14,-49 20,-49"/>
<g id="a_clust1_0"><a xlink:href="https://github.com/LogtalkDotOrg/logtalk3/tree/934aee98ed3bc6654f203177f74af1b33a85d94c/core/" xlink:title="https://github.com/LogtalkDotOrg/logtalk3/tree/934aee98ed3bc6654f203177f74af1b33a85d94c/core/">
<text text-anchor="start" x="20.5" y="-59.5" font-family="Monospace" font-size="10.00" fill="#696969">core/</text>
</a>
</g>
</a>
</g>
</g>
<g id="clust3" class="cluster">
<title>cluster_file_/opt/local/share/logtalk/core/monitoring.lgt</title>
<g id="a_clust3"><a xlink:title="monitoring.lgt">
<path fill="#fffafa" stroke="#696969" d="M265,-532C265,-532 371,-532 371,-532 377,-532 383,-538 383,-544 383,-544 383,-638 383,-638 383,-644 377,-650 371,-650 371,-650 265,-650 265,-650 259,-650 253,-644 253,-638 253,-638 253,-544 253,-544 253,-538 259,-532 265,-532"/>
<g id="a_clust3_1"><a xlink:href="https://github.com/LogtalkDotOrg/logtalk3/tree/934aee98ed3bc6654f203177f74af1b33a85d94c/core/monitoring.lgt" xlink:title="https://github.com/LogtalkDotOrg/logtalk3/tree/934aee98ed3bc6654f203177f74af1b33a85d94c/core/monitoring.lgt">
<text text-anchor="start" x="265.5" y="-542.5" font-family="Monospace" font-size="10.00" fill="#696969">monitoring.lgt</text>
</a>
</g>
</a>
</g>
</g>
<g id="clust4" class="cluster">
<title>cluster_file_/opt/local/share/logtalk/core/forwarding.lgt</title>
<g id="a_clust4"><a xlink:title="forwarding.lgt">
<path fill="#fffafa" stroke="#696969" d="M405,-537C405,-537 511,-537 511,-537 517,-537 523,-543 523,-549 523,-549 523,-633 523,-633 523,-639 517,-645 511,-645 511,-645 405,-645 405,-645 399,-645 393,-639 393,-633 393,-633 393,-549 393,-549 393,-543 399,-537 405,-537"/>
<g id="a_clust4_2"><a xlink:href="https://github.com/LogtalkDotOrg/logtalk3/tree/934aee98ed3bc6654f203177f74af1b33a85d94c/core/forwarding.lgt" xlink:title="https://github.com/LogtalkDotOrg/logtalk3/tree/934aee98ed3bc6654f203177f74af1b33a85d94c/core/forwarding.lgt">
<text text-anchor="start" x="405.5" y="-547.5" font-family="Monospace" font-size="10.00" fill="#696969">forwarding.lgt</text>
</a>
</g>
</a>
</g>
</g>
<g id="clust7" class="cluster">
<title>cluster_file_/opt/local/share/logtalk/core/core_messages.lgt</title>
<g id="a_clust7"><a xlink:title="core_messages.lgt">
<path fill="#fffafa" stroke="#696969" d="M408,-191C408,-191 606,-191 606,-191 612,-191 618,-197 618,-203 618,-203 618,-297 618,-297 618,-303 612,-309 606,-309 606,-309 408,-309 408,-309 402,-309 396,-303 396,-297 396,-297 396,-203 396,-203 396,-197 402,-191 408,-191"/>
<g id="a_clust7_3"><a xlink:href="https://github.com/LogtalkDotOrg/logtalk3/tree/934aee98ed3bc6654f203177f74af1b33a85d94c/core/core_messages.lgt" xlink:title="https://github.com/LogtalkDotOrg/logtalk3/tree/934aee98ed3bc6654f203177f74af1b33a85d94c/core/core_messages.lgt">
<text text-anchor="start" x="408.5" y="-201.5" font-family="Monospace" font-size="10.00" fill="#696969">core_messages.lgt</text>
</a>
</g>
</a>
</g>
</g>
<g id="clust2" class="cluster">
<title>cluster_file_/opt/local/share/logtalk/core/expanding.lgt</title>
<g id="a_clust2"><a xlink:title="expanding.lgt">
<path fill="#fffafa" stroke="#696969" d="M117,-532C117,-532 231,-532 231,-532 237,-532 243,-538 243,-544 243,-544 243,-638 243,-638 243,-644 237,-650 231,-650 231,-650 117,-650 117,-650 111,-650 105,-644 105,-638 105,-638 105,-544 105,-544 105,-538 111,-532 117,-532"/>
<g id="a_clust2_4"><a xlink:href="https://github.com/LogtalkDotOrg/logtalk3/tree/934aee98ed3bc6654f203177f74af1b33a85d94c/core/expanding.lgt" xlink:title="https://github.com/LogtalkDotOrg/logtalk3/tree/934aee98ed3bc6654f203177f74af1b33a85d94c/core/expanding.lgt">
<text text-anchor="start" x="117.5" y="-542.5" font-family="Monospace" font-size="10.00" fill="#696969">expanding.lgt</text>
</a>
</g>
</a>
</g>
</g>
<g id="clust5" class="cluster">
<title>cluster_file_/opt/local/share/logtalk/core/user.lgt</title>
<g id="a_clust5"><a xlink:title="user.lgt">
<path fill="#fffafa" stroke="#696969" d="M262,-206C262,-206 374,-206 374,-206 380,-206 386,-212 386,-218 386,-218 386,-282 386,-282 386,-288 380,-294 374,-294 374,-294 262,-294 262,-294 256,-294 250,-288 250,-282 250,-282 250,-218 250,-218 250,-212 256,-206 262,-206"/>
<g id="a_clust5_5"><a xlink:href="https://github.com/LogtalkDotOrg/logtalk3/tree/934aee98ed3bc6654f203177f74af1b33a85d94c/core/user.lgt" xlink:title="https://github.com/LogtalkDotOrg/logtalk3/tree/934aee98ed3bc6654f203177f74af1b33a85d94c/core/user.lgt">
<text text-anchor="start" x="262.5" y="-216.5" font-family="Monospace" font-size="10.00" fill="#696969">user.lgt</text>
</a>
</g>
</a>
</g>
</g>
<g id="clust6" class="cluster">
<title>cluster_file_/opt/local/share/logtalk/core/logtalk.lgt</title>
<g id="a_clust6"><a xlink:title="logtalk.lgt">
<path fill="#fffafa" stroke="#696969" d="M30,-86C30,-86 228,-86 228,-86 234,-86 240,-92 240,-98 240,-98 240,-402 240,-402 240,-408 234,-414 228,-414 228,-414 30,-414 30,-414 24,-414 18,-408 18,-402 18,-402 18,-98 18,-98 18,-92 24,-86 30,-86"/>
<g id="a_clust6_6"><a xlink:href="https://github.com/LogtalkDotOrg/logtalk3/tree/934aee98ed3bc6654f203177f74af1b33a85d94c/core/logtalk.lgt" xlink:title="https://github.com/LogtalkDotOrg/logtalk3/tree/934aee98ed3bc6654f203177f74af1b33a85d94c/core/logtalk.lgt">
<text text-anchor="start" x="30.5" y="-96.5" font-family="Monospace" font-size="10.00" fill="#696969">logtalk.lgt</text>
</a>
</g>
</a>
</g>
</g>
<!-- expanding -->
<g id="node1" class="node">
<title>expanding</title>
<g id="a_node1"><a xlink:href="https://logtalk.org/library/expanding_0.html" xlink:title="https://logtalk.org/library/expanding_0.html">
<polygon fill="#7fffd4" stroke="#000000" points="227,-640 115,-640 115,-569 233,-569 233,-634 227,-640"/>
<polyline fill="none" stroke="#000000" points="227,-640 227,-634 "/>
<polyline fill="none" stroke="#000000" points="233,-634 227,-634 "/>
<g id="a_node1_7"><a xlink:href="expanding_protocol_xref_diagram.svg" xlink:title="Zoom">
<image xlink:href="zoom.png" width="11px" height="11px" preserveAspectRatio="xMinYMin meet" x="123" y="-635.5"/>
</a>
</g>
<text text-anchor="start" x="125.5" y="-616.3" font-family="Monospace" font-size="9.00" fill="#000000"> </text>
<text text-anchor="start" x="146" y="-615.7" font-family="Monospace" font-size="11.00" fill="#000000">expanding</text>
<text text-anchor="start" x="219" y="-616.3" font-family="Monospace" font-size="9.00" fill="#000000"> </text>
<text text-anchor="start" x="125.5" y="-605.3" font-family="Monospace" font-size="9.00" fill="#000000"> </text>
<text text-anchor="start" x="138" y="-605.9" font-family="Monospace" font-size="7.00" fill="#000000">built&#45;in protocol</text>
<text text-anchor="start" x="219" y="-605.3" font-family="Monospace" font-size="9.00" fill="#000000"> </text>
<text text-anchor="start" x="125.5" y="-595.3" font-family="Monospace" font-size="9.00" fill="#000000"> </text>
<text text-anchor="start" x="125.5" y="-585.3" font-family="Monospace" font-size="9.00" fill="#000000"> </text>
<text text-anchor="start" x="134" y="-585.3" font-family="Monospace" font-size="9.00" fill="#000000">goal_expansion/2</text>
<text text-anchor="start" x="219" y="-585.3" font-family="Monospace" font-size="9.00" fill="#000000"> </text>
<text text-anchor="start" x="125.5" y="-575.3" font-family="Monospace" font-size="9.00" fill="#000000"> </text>
<text text-anchor="start" x="134" y="-575.3" font-family="Monospace" font-size="9.00" fill="#000000">term_expansion/2</text>
<text text-anchor="start" x="219" y="-575.3" font-family="Monospace" font-size="9.00" fill="#000000"> </text>
</a>
</g>
</g>
<!-- monitoring -->
<g id="node2" class="node">
<title>monitoring</title>
<g id="a_node2"><a xlink:href="https://logtalk.org/library/monitoring_0.html" xlink:title="https://logtalk.org/library/monitoring_0.html">
<polygon fill="#7fffd4" stroke="#000000" points="367,-640 263,-640 263,-569 373,-569 373,-634 367,-640"/>
<polyline fill="none" stroke="#000000" points="367,-640 367,-634 "/>
<polyline fill="none" stroke="#000000" points="373,-634 367,-634 "/>
<g id="a_node2_8"><a xlink:href="monitoring_protocol_xref_diagram.svg" xlink:title="Zoom">
<image xlink:href="zoom.png" width="11px" height="11px" preserveAspectRatio="xMinYMin meet" x="271" y="-635.5"/>
</a>
</g>
<text text-anchor="start" x="273.5" y="-616.3" font-family="Monospace" font-size="9.00" fill="#000000"> </text>
<text text-anchor="start" x="286.5" y="-615.7" font-family="Monospace" font-size="11.00" fill="#000000">monitoring</text>
<text text-anchor="start" x="359" y="-616.3" font-family="Monospace" font-size="9.00" fill="#000000"> </text>
<text text-anchor="start" x="273.5" y="-605.3" font-family="Monospace" font-size="9.00" fill="#000000"> </text>
<text text-anchor="start" x="282" y="-605.9" font-family="Monospace" font-size="7.00" fill="#000000">built&#45;in protocol</text>
<text text-anchor="start" x="359" y="-605.3" font-family="Monospace" font-size="9.00" fill="#000000"> </text>
<text text-anchor="start" x="273.5" y="-595.3" font-family="Monospace" font-size="9.00" fill="#000000"> </text>
<text text-anchor="start" x="273.5" y="-585.3" font-family="Monospace" font-size="9.00" fill="#000000"> </text>
<text text-anchor="start" x="299" y="-585.3" font-family="Monospace" font-size="9.00" fill="#000000">before/3</text>
<text text-anchor="start" x="359" y="-585.3" font-family="Monospace" font-size="9.00" fill="#000000"> </text>
<text text-anchor="start" x="273.5" y="-575.3" font-family="Monospace" font-size="9.00" fill="#000000"> </text>
<text text-anchor="start" x="302" y="-575.3" font-family="Monospace" font-size="9.00" fill="#000000">after/3</text>
<text text-anchor="start" x="359" y="-575.3" font-family="Monospace" font-size="9.00" fill="#000000"> </text>
</a>
</g>
</g>
<!-- forwarding -->
<g id="node3" class="node">
<title>forwarding</title>
<g id="a_node3"><a xlink:href="https://logtalk.org/library/forwarding_0.html" xlink:title="https://logtalk.org/library/forwarding_0.html">
<polygon fill="#7fffd4" stroke="#000000" points="507,-635 403,-635 403,-574 513,-574 513,-629 507,-635"/>
<polyline fill="none" stroke="#000000" points="507,-635 507,-629 "/>
<polyline fill="none" stroke="#000000" points="513,-629 507,-629 "/>
<g id="a_node3_9"><a xlink:href="forwarding_protocol_xref_diagram.svg" xlink:title="Zoom">
<image xlink:href="zoom.png" width="11px" height="11px" preserveAspectRatio="xMinYMin meet" x="411" y="-630.5"/>
</a>
</g>
<text text-anchor="start" x="413.5" y="-611.3" font-family="Monospace" font-size="9.00" fill="#000000"> </text>
<text text-anchor="start" x="426.5" y="-610.7" font-family="Monospace" font-size="11.00" fill="#000000">forwarding</text>
<text text-anchor="start" x="499" y="-611.3" font-family="Monospace" font-size="9.00" fill="#000000"> </text>
<text text-anchor="start" x="413.5" y="-600.3" font-family="Monospace" font-size="9.00" fill="#000000"> </text>
<text text-anchor="start" x="422" y="-600.9" font-family="Monospace" font-size="7.00" fill="#000000">built&#45;in protocol</text>
<text text-anchor="start" x="499" y="-600.3" font-family="Monospace" font-size="9.00" fill="#000000"> </text>
<text text-anchor="start" x="413.5" y="-590.3" font-family="Monospace" font-size="9.00" fill="#000000"> </text>
<text text-anchor="start" x="413.5" y="-580.3" font-family="Monospace" font-size="9.00" fill="#000000"> </text>
<text text-anchor="start" x="436.5" y="-580.3" font-family="Monospace" font-size="9.00" fill="#000000">forward/1</text>
<text text-anchor="start" x="499" y="-580.3" font-family="Monospace" font-size="9.00" fill="#000000"> </text>
</a>
</g>
</g>
<!-- user -->
<g id="node4" class="node">
<title>user</title>
<g id="a_node4"><a xlink:href="https://logtalk.org/library/user_0.html" xlink:title="https://logtalk.org/library/user_0.html">
<polygon fill="#fff8dc" stroke="#000000" points="375.5,-284 260.5,-284 260.5,-243 375.5,-243 375.5,-284"/>
<g id="a_node4_10"><a xlink:href="user_object_xref_diagram.svg" xlink:title="Zoom">
<image xlink:href="zoom.png" width="11px" height="11px" preserveAspectRatio="xMinYMin meet" x="269" y="-279.5"/>
</a>
</g>
<text text-anchor="start" x="271.5" y="-260.3" font-family="Monospace" font-size="9.00" fill="#000000"> </text>
<text text-anchor="start" x="307" y="-259.7" font-family="Monospace" font-size="11.00" fill="#000000">user</text>
<text text-anchor="start" x="362" y="-260.3" font-family="Monospace" font-size="9.00" fill="#000000"> </text>
<text text-anchor="start" x="271.5" y="-249.3" font-family="Monospace" font-size="9.00" fill="#000000"> </text>
<text text-anchor="start" x="280" y="-249.9" font-family="Monospace" font-size="7.00" fill="#000000">built&#45;in prototype</text>
<text text-anchor="start" x="362" y="-249.3" font-family="Monospace" font-size="9.00" fill="#000000"> </text>
</a>
</g>
</g>
<!-- user&#45;&gt;expanding -->
<g id="edge1" class="edge">
<title>user&#45;&gt;expanding</title>
<g id="a_edge1"><a xlink:href="https://logtalk.org/library/user_0.html" xlink:title="implements">
<path fill="none" stroke="#000000" d="M309.3164,-284.0631C286.3476,-338.4546 223.6174,-487.0032 192.297,-561.1718"/>
<ellipse fill="#000000" stroke="#000000" cx="190.5579" cy="-565.2899" rx="4" ry="4"/>
</a>
</g>
<g id="a_edge1&#45;label"><a xlink:href="https://logtalk.org/library/user_0.html" xlink:title="https://logtalk.org/library/user_0.html">
<text text-anchor="start" x="227" y="-479.8" font-family="Monospace" font-size="9.00" fill="#000000">implements</text>
</a>
</g>
</g>
<!-- user&#45;&gt;monitoring -->
<g id="edge3" class="edge">
<title>user&#45;&gt;monitoring</title>
<g id="a_edge3"><a xlink:href="https://logtalk.org/library/user_0.html" xlink:title="implements">
<path fill="none" stroke="#000000" d="M318,-284.0631C318,-338.3445 318,-486.4022 318,-560.7204"/>
<ellipse fill="#000000" stroke="#000000" cx="318" cy="-564.9749" rx="4" ry="4"/>
</a>
</g>
<g id="a_edge3&#45;label"><a xlink:href="https://logtalk.org/library/user_0.html" xlink:title="https://logtalk.org/library/user_0.html">
<text text-anchor="start" x="318" y="-479.8" font-family="Monospace" font-size="9.00" fill="#000000">implements</text>
</a>
</g>
</g>
<!-- user&#45;&gt;forwarding -->
<g id="edge2" class="edge">
<title>user&#45;&gt;forwarding</title>
<g id="a_edge2"><a xlink:href="https://logtalk.org/library/user_0.html" xlink:title="implements">
<path fill="none" stroke="#000000" d="M326.4423,-284.0631C349.315,-339.7745 412.7434,-494.2679 442.373,-566.4372"/>
<ellipse fill="#000000" stroke="#000000" cx="443.9545" cy="-570.2892" rx="4" ry="4"/>
</a>
</g>
<g id="a_edge2&#45;label"><a xlink:href="https://logtalk.org/library/user_0.html" xlink:title="https://logtalk.org/library/user_0.html">
<text text-anchor="start" x="409" y="-479.8" font-family="Monospace" font-size="9.00" fill="#000000">implements</text>
</a>
</g>
</g>
<!-- logtalk -->
<g id="node5" class="node">
<title>logtalk</title>
<g id="a_node5"><a xlink:href="https://logtalk.org/library/logtalk_0.html" xlink:title="https://logtalk.org/library/logtalk_0.html">
<polygon fill="#fff8dc" stroke="#000000" points="230,-404 28,-404 28,-123 230,-123 230,-404"/>
<g id="a_node5_11"><a xlink:href="logtalk_object_xref_diagram.svg" xlink:title="Zoom">
<image xlink:href="zoom.png" width="11px" height="11px" preserveAspectRatio="xMinYMin meet" x="36" y="-399.5"/>
</a>
</g>
<text text-anchor="start" x="38.5" y="-380.3" font-family="Monospace" font-size="9.00" fill="#000000"> </text>
<text text-anchor="start" x="107.5" y="-379.7" font-family="Monospace" font-size="11.00" fill="#000000">logtalk</text>
<text text-anchor="start" x="216" y="-380.3" font-family="Monospace" font-size="9.00" fill="#000000"> </text>
<text text-anchor="start" x="38.5" y="-369.3" font-family="Monospace" font-size="9.00" fill="#000000"> </text>
<text text-anchor="start" x="90.5" y="-369.9" font-family="Monospace" font-size="7.00" fill="#000000">built&#45;in prototype</text>
<text text-anchor="start" x="216" y="-369.3" font-family="Monospace" font-size="9.00" fill="#000000"> </text>
<text text-anchor="start" x="38.5" y="-359.3" font-family="Monospace" font-size="9.00" fill="#000000"> </text>
<text text-anchor="start" x="38.5" y="-349.3" font-family="Monospace" font-size="9.00" fill="#000000"> </text>
<text text-anchor="start" x="92" y="-349.3" font-family="Monospace" font-size="9.00" fill="#000000">print_message/3</text>
<text text-anchor="start" x="216" y="-349.3" font-family="Monospace" font-size="9.00" fill="#000000"> </text>
<text text-anchor="start" x="38.5" y="-339.3" font-family="Monospace" font-size="9.00" fill="#000000"> </text>
<text text-anchor="start" x="73.5" y="-339.3" font-family="Monospace" font-size="9.00" fill="#000000">print_message_tokens/3</text>
<text text-anchor="start" x="216" y="-339.3" font-family="Monospace" font-size="9.00" fill="#000000"> </text>
<text text-anchor="start" x="38.5" y="-329.3" font-family="Monospace" font-size="9.00" fill="#000000"> </text>
<text text-anchor="start" x="76" y="-329.3" font-family="Monospace" font-size="9.00" fill="#000000">print_message_token/4</text>
<text text-anchor="start" x="216" y="-329.3" font-family="Monospace" font-size="9.00" fill="#000000"> </text>
<text text-anchor="start" x="38.5" y="-319.3" font-family="Monospace" font-size="9.00" fill="#000000"> </text>
<text text-anchor="start" x="86.5" y="-319.3" font-family="Monospace" font-size="9.00" fill="#000000">message_tokens//2</text>
<text text-anchor="start" x="216" y="-319.3" font-family="Monospace" font-size="9.00" fill="#000000"> </text>
<text text-anchor="start" x="38.5" y="-309.3" font-family="Monospace" font-size="9.00" fill="#000000"> </text>
<text text-anchor="start" x="71" y="-309.3" font-family="Monospace" font-size="9.00" fill="#000000">message_prefix_stream/4</text>
<text text-anchor="start" x="216" y="-309.3" font-family="Monospace" font-size="9.00" fill="#000000"> </text>
<text text-anchor="start" x="38.5" y="-299.3" font-family="Monospace" font-size="9.00" fill="#000000"> </text>
<text text-anchor="start" x="94.5" y="-299.3" font-family="Monospace" font-size="9.00" fill="#000000">message_hook/4</text>
<text text-anchor="start" x="216" y="-299.3" font-family="Monospace" font-size="9.00" fill="#000000"> </text>
<text text-anchor="start" x="38.5" y="-289.3" font-family="Monospace" font-size="9.00" fill="#000000"> </text>
<text text-anchor="start" x="94.5" y="-289.3" font-family="Monospace" font-size="9.00" fill="#000000">ask_question/5</text>
<text text-anchor="start" x="216" y="-289.3" font-family="Monospace" font-size="9.00" fill="#000000"> </text>
<text text-anchor="start" x="38.5" y="-279.3" font-family="Monospace" font-size="9.00" fill="#000000"> </text>
<text text-anchor="start" x="92" y="-279.3" font-family="Monospace" font-size="9.00" fill="#000000">question_hook/6</text>
<text text-anchor="start" x="216" y="-279.3" font-family="Monospace" font-size="9.00" fill="#000000"> </text>
<text text-anchor="start" x="38.5" y="-269.3" font-family="Monospace" font-size="9.00" fill="#000000"> </text>
<text text-anchor="start" x="68" y="-269.3" font-family="Monospace" font-size="9.00" fill="#000000">question_prompt_stream/4</text>
<text text-anchor="start" x="216" y="-269.3" font-family="Monospace" font-size="9.00" fill="#000000"> </text>
<text text-anchor="start" x="38.5" y="-259.3" font-family="Monospace" font-size="9.00" fill="#000000"> </text>
<text text-anchor="start" x="97" y="-259.3" font-family="Monospace" font-size="9.00" fill="#000000">trace_event/2</text>
<text text-anchor="start" x="216" y="-259.3" font-family="Monospace" font-size="9.00" fill="#000000"> </text>
<text text-anchor="start" x="38.5" y="-249.3" font-family="Monospace" font-size="9.00" fill="#000000"> </text>
<text text-anchor="start" x="68" y="-249.3" font-family="Monospace" font-size="9.00" fill="#000000">debug_handler_provider/1</text>
<text text-anchor="start" x="216" y="-249.3" font-family="Monospace" font-size="9.00" fill="#000000"> </text>
<text text-anchor="start" x="38.5" y="-239.3" font-family="Monospace" font-size="9.00" fill="#000000"> </text>
<text text-anchor="start" x="92" y="-239.3" font-family="Monospace" font-size="9.00" fill="#000000">debug_handler/2</text>
<text text-anchor="start" x="216" y="-239.3" font-family="Monospace" font-size="9.00" fill="#000000"> </text>
<text text-anchor="start" x="38.5" y="-229.3" font-family="Monospace" font-size="9.00" fill="#000000"> </text>
<text text-anchor="start" x="76" y="-229.3" font-family="Monospace" font-size="9.00" fill="#000000">expand_library_path/2</text>
<text text-anchor="start" x="216" y="-229.3" font-family="Monospace" font-size="9.00" fill="#000000"> </text>
<text text-anchor="start" x="38.5" y="-219.3" font-family="Monospace" font-size="9.00" fill="#000000"> </text>
<text text-anchor="start" x="97" y="-219.3" font-family="Monospace" font-size="9.00" fill="#000000">loaded_file/1</text>
<text text-anchor="start" x="216" y="-219.3" font-family="Monospace" font-size="9.00" fill="#000000"> </text>
<text text-anchor="start" x="38.5" y="-209.3" font-family="Monospace" font-size="9.00" fill="#000000"> </text>
<text text-anchor="start" x="73.5" y="-209.3" font-family="Monospace" font-size="9.00" fill="#000000">loaded_file_property/2</text>
<text text-anchor="start" x="216" y="-209.3" font-family="Monospace" font-size="9.00" fill="#000000"> </text>
<text text-anchor="start" x="38.5" y="-199.3" font-family="Monospace" font-size="9.00" fill="#000000"> </text>
<text text-anchor="start" x="76" y="-199.3" font-family="Monospace" font-size="9.00" fill="#000000">file_type_extension/2</text>
<text text-anchor="start" x="216" y="-199.3" font-family="Monospace" font-size="9.00" fill="#000000"> </text>
<text text-anchor="start" x="38.5" y="-189.3" font-family="Monospace" font-size="9.00" fill="#000000"> </text>
<text text-anchor="start" x="76" y="-189.3" font-family="Monospace" font-size="9.00" fill="#000000">compile_aux_clauses/1</text>
<text text-anchor="start" x="216" y="-189.3" font-family="Monospace" font-size="9.00" fill="#000000"> </text>
<text text-anchor="start" x="38.5" y="-179.3" font-family="Monospace" font-size="9.00" fill="#000000"> </text>
<text text-anchor="start" x="92" y="-179.3" font-family="Monospace" font-size="9.00" fill="#000000">entity_prefix/2</text>
<text text-anchor="start" x="216" y="-179.3" font-family="Monospace" font-size="9.00" fill="#000000"> </text>
<text text-anchor="start" x="38.5" y="-169.3" font-family="Monospace" font-size="9.00" fill="#000000"> </text>
<text text-anchor="start" x="65.5" y="-169.3" font-family="Monospace" font-size="9.00" fill="#000000">compile_predicate_heads/4</text>
<text text-anchor="start" x="216" y="-169.3" font-family="Monospace" font-size="9.00" fill="#000000"> </text>
<text text-anchor="start" x="38.5" y="-159.3" font-family="Monospace" font-size="9.00" fill="#000000"> </text>
<text text-anchor="start" x="52.5" y="-159.3" font-family="Monospace" font-size="9.00" fill="#000000">compile_predicate_indicators/3</text>
<text text-anchor="start" x="216" y="-159.3" font-family="Monospace" font-size="9.00" fill="#000000"> </text>
<text text-anchor="start" x="38.5" y="-149.3" font-family="Monospace" font-size="9.00" fill="#000000"> </text>
<text text-anchor="start" x="60.5" y="-149.3" font-family="Monospace" font-size="9.00" fill="#000000">decompile_predicate_heads/4</text>
<text text-anchor="start" x="216" y="-149.3" font-family="Monospace" font-size="9.00" fill="#000000"> </text>
<text text-anchor="start" x="38.5" y="-139.3" font-family="Monospace" font-size="9.00" fill="#000000"> </text>
<text text-anchor="start" x="47" y="-139.3" font-family="Monospace" font-size="9.00" fill="#000000">decompile_predicate_indicators/4</text>
<text text-anchor="start" x="216" y="-139.3" font-family="Monospace" font-size="9.00" fill="#000000"> </text>
<text text-anchor="start" x="38.5" y="-129.3" font-family="Monospace" font-size="9.00" fill="#000000"> </text>
<text text-anchor="start" x="81.5" y="-129.3" font-family="Monospace" font-size="9.00" fill="#000000">execution_context/7</text>
<text text-anchor="start" x="216" y="-129.3" font-family="Monospace" font-size="9.00" fill="#000000"> </text>
</a>
</g>
</g>
<!-- core_messages -->
<g id="node6" class="node">
<title>core_messages</title>
<g id="a_node6"><a xlink:href="https://logtalk.org/library/core_messages_0.html" xlink:title="https://logtalk.org/library/core_messages_0.html">
<polygon fill="#e0ffff" stroke="#000000" points="608,-299 406,-299 406,-295 402,-295 402,-291 406,-291 406,-236 402,-236 402,-232 406,-232 406,-228 608,-228 608,-299"/>
<polyline fill="none" stroke="#000000" points="406,-295 410,-295 410,-291 406,-291 "/>
<polyline fill="none" stroke="#000000" points="406,-236 410,-236 410,-232 406,-232 "/>
<g id="a_node6_12"><a xlink:href="core_messages_category_xref_diagram.svg" xlink:title="Zoom">
<image xlink:href="zoom.png" width="11px" height="11px" preserveAspectRatio="xMinYMin meet" x="414" y="-294.5"/>
</a>
</g>
<text text-anchor="start" x="416.5" y="-275.3" font-family="Monospace" font-size="9.00" fill="#000000"> </text>
<text text-anchor="start" x="465.5" y="-274.7" font-family="Monospace" font-size="11.00" fill="#000000">core_messages</text>
<text text-anchor="start" x="594" y="-275.3" font-family="Monospace" font-size="9.00" fill="#000000"> </text>
<text text-anchor="start" x="416.5" y="-264.3" font-family="Monospace" font-size="9.00" fill="#000000"> </text>
<text text-anchor="start" x="471" y="-264.9" font-family="Monospace" font-size="7.00" fill="#000000">built&#45;in category</text>
<text text-anchor="start" x="594" y="-264.3" font-family="Monospace" font-size="9.00" fill="#000000"> </text>
<text text-anchor="start" x="416.5" y="-254.3" font-family="Monospace" font-size="9.00" fill="#000000"> </text>
<text text-anchor="start" x="416.5" y="-244.3" font-family="Monospace" font-size="9.00" fill="#000000"> </text>
<text text-anchor="start" x="425" y="-244.3" font-family="Monospace" font-size="9.00" fill="#000000">logtalk::message_prefix_stream/4</text>
<text text-anchor="start" x="594" y="-244.3" font-family="Monospace" font-size="9.00" fill="#000000"> </text>
<text text-anchor="start" x="416.5" y="-234.3" font-family="Monospace" font-size="9.00" fill="#000000"> </text>
<text text-anchor="start" x="441" y="-234.3" font-family="Monospace" font-size="9.00" fill="#000000">logtalk::message_tokens//2</text>
<text text-anchor="start" x="594" y="-234.3" font-family="Monospace" font-size="9.00" fill="#000000"> </text>
</a>
</g>
</g>
</g>
</svg>
