<?xml version="1.0" encoding="UTF-8" standalone="no"?>
<!DOCTYPE svg PUBLIC "-//W3C//DTD SVG 1.1//EN"
 "http://www.w3.org/Graphics/SVG/1.1/DTD/svg11.dtd">
<!-- Generated by graphviz version 2.40.1 (20161225.0304)
 -->
<!-- Title: core Pages: 1 -->
<svg width="906pt" height="798pt"
 viewBox="72.00 72.00 834.00 726.00" xmlns="http://www.w3.org/2000/svg" xmlns:xlink="http://www.w3.org/1999/xlink">
<g id="graph0" class="graph" transform="scale(1 1) rotate(0) translate(76 722)">
<title>core</title>
<polygon fill="#ffffff" stroke="transparent" points="-4,4 -4,-650 758,-650 758,4 -4,4"/>
<text text-anchor="start" x="8" y="-18" font-family="Courier,monospace" font-size="10.00" fill="#8b8989">Logtalk core entities</text>
<text text-anchor="start" x="8" y="-7" font-family="Courier,monospace" font-size="10.00" fill="#8b8989">Generated on 2019/04/08, 15:14</text>
<g id="clust1" class="cluster">
<title>cluster_library_core</title>
<g id="a_clust1"><a xlink:href="https://github.com/LogtalkDotOrg/logtalk3/tree/master/core/" xlink:title="https://github.com/LogtalkDotOrg/logtalk3/tree/master/core/">
<path fill="#eee9e9" stroke="#8b8989" d="M20,-38C20,-38 734,-38 734,-38 740,-38 746,-44 746,-50 746,-50 746,-626 746,-626 746,-632 740,-638 734,-638 734,-638 20,-638 20,-638 14,-638 8,-632 8,-626 8,-626 8,-50 8,-50 8,-44 14,-38 20,-38"/>
<text text-anchor="middle" x="28.5" y="-45" font-family="Courier,monospace" font-size="10.00" fill="#8b8989">core</text>
</a>
</g>
</g>
<g id="clust2" class="cluster">
<title>cluster_file_/opt/local/share/logtalk/core/expanding.lgt</title>
<g id="a_clust2"><a xlink:href="https://github.com/LogtalkDotOrg/logtalk3/tree/master/core/expanding.lgt" xlink:title="https://github.com/LogtalkDotOrg/logtalk3/tree/master/core/expanding.lgt">
<path fill="#fffafa" stroke="#8b8989" d="M427,-529C427,-529 539,-529 539,-529 545,-529 551,-535 551,-541 551,-541 551,-616 551,-616 551,-622 545,-628 539,-628 539,-628 427,-628 427,-628 421,-628 415,-622 415,-616 415,-616 415,-541 415,-541 415,-535 421,-529 427,-529"/>
<text text-anchor="middle" x="462.5" y="-536" font-family="Courier,monospace" font-size="10.00" fill="#8b8989">expanding.lgt</text>
</a>
</g>
</g>
<g id="clust3" class="cluster">
<title>cluster_file_/opt/local/share/logtalk/core/monitoring.lgt</title>
<g id="a_clust3"><a xlink:href="https://github.com/LogtalkDotOrg/logtalk3/tree/master/core/monitoring.lgt" xlink:title="https://github.com/LogtalkDotOrg/logtalk3/tree/master/core/monitoring.lgt">
<path fill="#fffafa" stroke="#8b8989" d="M628,-172C628,-172 724,-172 724,-172 730,-172 736,-178 736,-184 736,-184 736,-259 736,-259 736,-265 730,-271 724,-271 724,-271 628,-271 628,-271 622,-271 616,-265 616,-259 616,-259 616,-184 616,-184 616,-178 622,-172 628,-172"/>
<text text-anchor="middle" x="666.5" y="-179" font-family="Courier,monospace" font-size="10.00" fill="#8b8989">monitoring.lgt</text>
</a>
</g>
</g>
<g id="clust4" class="cluster">
<title>cluster_file_/opt/local/share/logtalk/core/forwarding.lgt</title>
<g id="a_clust4"><a xlink:href="https://github.com/LogtalkDotOrg/logtalk3/tree/master/core/forwarding.lgt" xlink:title="https://github.com/LogtalkDotOrg/logtalk3/tree/master/core/forwarding.lgt">
<path fill="#fffafa" stroke="#8b8989" d="M573,-534C573,-534 669,-534 669,-534 675,-534 681,-540 681,-546 681,-546 681,-611 681,-611 681,-617 675,-623 669,-623 669,-623 573,-623 573,-623 567,-623 561,-617 561,-611 561,-611 561,-546 561,-546 561,-540 567,-534 573,-534"/>
<text text-anchor="middle" x="611.5" y="-541" font-family="Courier,monospace" font-size="10.00" fill="#8b8989">forwarding.lgt</text>
</a>
</g>
</g>
<g id="clust5" class="cluster">
<title>cluster_file_/opt/local/share/logtalk/core/user.lgt</title>
<g id="a_clust5"><a xlink:href="https://github.com/LogtalkDotOrg/logtalk3/tree/master/core/user.lgt" xlink:title="https://github.com/LogtalkDotOrg/logtalk3/tree/master/core/user.lgt">
<path fill="#fffafa" stroke="#8b8989" d="M494,-184C494,-184 594,-184 594,-184 600,-184 606,-190 606,-196 606,-196 606,-247 606,-247 606,-253 600,-259 594,-259 594,-259 494,-259 494,-259 488,-259 482,-253 482,-247 482,-247 482,-196 482,-196 482,-190 488,-184 494,-184"/>
<text text-anchor="middle" x="514.5" y="-191" font-family="Courier,monospace" font-size="10.00" fill="#8b8989">user.lgt</text>
</a>
</g>
</g>
<g id="clust6" class="cluster">
<title>cluster_file_/opt/local/share/logtalk/core/logtalk.lgt</title>
<g id="a_clust6"><a xlink:href="https://github.com/LogtalkDotOrg/logtalk3/tree/master/core/logtalk.lgt" xlink:title="https://github.com/LogtalkDotOrg/logtalk3/tree/master/core/logtalk.lgt">
<path fill="#fffafa" stroke="#8b8989" d="M262,-67C262,-67 460,-67 460,-67 466,-67 472,-73 472,-79 472,-79 472,-364 472,-364 472,-370 466,-376 460,-376 460,-376 262,-376 262,-376 256,-376 250,-370 250,-364 250,-364 250,-79 250,-79 250,-73 256,-67 262,-67"/>
<text text-anchor="middle" x="291.5" y="-74" font-family="Courier,monospace" font-size="10.00" fill="#8b8989">logtalk.lgt</text>
</a>
</g>
</g>
<g id="clust7" class="cluster">
<title>cluster_file_/opt/local/share/logtalk/core/core_messages.lgt</title>
<g id="a_clust7"><a xlink:href="https://github.com/LogtalkDotOrg/logtalk3/tree/master/core/core_messages.lgt" xlink:title="https://github.com/LogtalkDotOrg/logtalk3/tree/master/core/core_messages.lgt">
<path fill="#fffafa" stroke="#8b8989" d="M30,-172C30,-172 228,-172 228,-172 234,-172 240,-178 240,-184 240,-184 240,-259 240,-259 240,-265 234,-271 228,-271 228,-271 30,-271 30,-271 24,-271 18,-265 18,-259 18,-259 18,-184 18,-184 18,-178 24,-172 30,-172"/>
<text text-anchor="middle" x="77.5" y="-179" font-family="Courier,monospace" font-size="10.00" fill="#8b8989">core_messages.lgt</text>
</a>
</g>
</g>
<!-- expanding -->
<g id="node1" class="node">
<title>expanding</title>
<g id="a_node1"><a xlink:href="https://logtalk.org/library/expanding_0.html" xlink:title="https://logtalk.org/library/expanding_0.html">
<polygon fill="#7fffd4" stroke="#000000" points="534.5,-618 425.5,-618 425.5,-558 540.5,-558 540.5,-612 534.5,-618"/>
<polyline fill="none" stroke="#000000" points="534.5,-618 534.5,-612 "/>
<polyline fill="none" stroke="#000000" points="540.5,-612 534.5,-612 "/>
<text text-anchor="start" x="434" y="-605.8" font-family="Courier,monospace" font-size="9.00" fill="#000000"> </text>
<text text-anchor="start" x="453.5" y="-605.2" font-family="Courier,monospace" font-size="11.00" fill="#000000">expanding</text>
<text text-anchor="start" x="527" y="-605.8" font-family="Courier,monospace" font-size="9.00" fill="#000000"> </text>
<text text-anchor="start" x="434" y="-594.8" font-family="Courier,monospace" font-size="9.00" fill="#000000"> </text>
<text text-anchor="start" x="447.5" y="-595.4" font-family="Courier,monospace" font-size="7.00" fill="#000000">built&#45;in protocol</text>
<text text-anchor="start" x="527" y="-594.8" font-family="Courier,monospace" font-size="9.00" fill="#000000"> </text>
<text text-anchor="start" x="434" y="-584.8" font-family="Courier,monospace" font-size="9.00" fill="#000000"> </text>
<text text-anchor="start" x="434" y="-574.8" font-family="Courier,monospace" font-size="9.00" fill="#000000"> </text>
<text text-anchor="start" x="440" y="-574.8" font-family="Courier,monospace" font-size="9.00" fill="#000000">goal_expansion/2</text>
<text text-anchor="start" x="527" y="-574.8" font-family="Courier,monospace" font-size="9.00" fill="#000000"> </text>
<text text-anchor="start" x="434" y="-564.8" font-family="Courier,monospace" font-size="9.00" fill="#000000"> </text>
<text text-anchor="start" x="440" y="-564.8" font-family="Courier,monospace" font-size="9.00" fill="#000000">term_expansion/2</text>
<text text-anchor="start" x="527" y="-564.8" font-family="Courier,monospace" font-size="9.00" fill="#000000"> </text>
</a>
</g>
</g>
<!-- monitoring -->
<g id="node2" class="node">
<title>monitoring</title>
<g id="a_node2"><a xlink:href="https://logtalk.org/library/monitoring_0.html" xlink:title="https://logtalk.org/library/monitoring_0.html">
<polygon fill="#7fffd4" stroke="#000000" points="720,-261 626,-261 626,-201 726,-201 726,-255 720,-261"/>
<polyline fill="none" stroke="#000000" points="720,-261 720,-255 "/>
<polyline fill="none" stroke="#000000" points="726,-255 720,-255 "/>
<text text-anchor="start" x="634" y="-248.8" font-family="Courier,monospace" font-size="9.00" fill="#000000"> </text>
<text text-anchor="start" x="642.5" y="-248.2" font-family="Courier,monospace" font-size="11.00" fill="#000000">monitoring</text>
<text text-anchor="start" x="712" y="-248.8" font-family="Courier,monospace" font-size="9.00" fill="#000000"> </text>
<text text-anchor="start" x="634" y="-237.8" font-family="Courier,monospace" font-size="9.00" fill="#000000"> </text>
<text text-anchor="start" x="640" y="-238.4" font-family="Courier,monospace" font-size="7.00" fill="#000000">built&#45;in protocol</text>
<text text-anchor="start" x="712" y="-237.8" font-family="Courier,monospace" font-size="9.00" fill="#000000"> </text>
<text text-anchor="start" x="634" y="-227.8" font-family="Courier,monospace" font-size="9.00" fill="#000000"> </text>
<text text-anchor="start" x="634" y="-217.8" font-family="Courier,monospace" font-size="9.00" fill="#000000"> </text>
<text text-anchor="start" x="654" y="-217.8" font-family="Courier,monospace" font-size="9.00" fill="#000000">before/3</text>
<text text-anchor="start" x="712" y="-217.8" font-family="Courier,monospace" font-size="9.00" fill="#000000"> </text>
<text text-anchor="start" x="634" y="-207.8" font-family="Courier,monospace" font-size="9.00" fill="#000000"> </text>
<text text-anchor="start" x="657" y="-207.8" font-family="Courier,monospace" font-size="9.00" fill="#000000">after/3</text>
<text text-anchor="start" x="712" y="-207.8" font-family="Courier,monospace" font-size="9.00" fill="#000000"> </text>
</a>
</g>
</g>
<!-- forwarding -->
<g id="node3" class="node">
<title>forwarding</title>
<g id="a_node3"><a xlink:href="https://logtalk.org/library/forwarding_0.html" xlink:title="https://logtalk.org/library/forwarding_0.html">
<polygon fill="#7fffd4" stroke="#000000" points="665,-613 571,-613 571,-563 671,-563 671,-607 665,-613"/>
<polyline fill="none" stroke="#000000" points="665,-613 665,-607 "/>
<polyline fill="none" stroke="#000000" points="671,-607 665,-607 "/>
<text text-anchor="start" x="579" y="-600.8" font-family="Courier,monospace" font-size="9.00" fill="#000000"> </text>
<text text-anchor="start" x="587.5" y="-600.2" font-family="Courier,monospace" font-size="11.00" fill="#000000">forwarding</text>
<text text-anchor="start" x="657" y="-600.8" font-family="Courier,monospace" font-size="9.00" fill="#000000"> </text>
<text text-anchor="start" x="579" y="-589.8" font-family="Courier,monospace" font-size="9.00" fill="#000000"> </text>
<text text-anchor="start" x="585" y="-590.4" font-family="Courier,monospace" font-size="7.00" fill="#000000">built&#45;in protocol</text>
<text text-anchor="start" x="657" y="-589.8" font-family="Courier,monospace" font-size="9.00" fill="#000000"> </text>
<text text-anchor="start" x="579" y="-579.8" font-family="Courier,monospace" font-size="9.00" fill="#000000"> </text>
<text text-anchor="start" x="579" y="-569.8" font-family="Courier,monospace" font-size="9.00" fill="#000000"> </text>
<text text-anchor="start" x="596.5" y="-569.8" font-family="Courier,monospace" font-size="9.00" fill="#000000">forward/1</text>
<text text-anchor="start" x="657" y="-569.8" font-family="Courier,monospace" font-size="9.00" fill="#000000"> </text>
</a>
</g>
</g>
<!-- user -->
<g id="node4" class="node">
<title>user</title>
<g id="a_node4"><a xlink:href="https://logtalk.org/library/user_0.html" xlink:title="https://logtalk.org/library/user_0.html">
<polygon fill="#f5f5dc" stroke="#000000" points="596,-249 492,-249 492,-213 596,-213 596,-249"/>
<text text-anchor="start" x="500" y="-233.8" font-family="Courier,monospace" font-size="9.00" fill="#000000"> </text>
<text text-anchor="start" x="530.5" y="-233.2" font-family="Courier,monospace" font-size="11.00" fill="#000000">user</text>
<text text-anchor="start" x="582" y="-233.8" font-family="Courier,monospace" font-size="9.00" fill="#000000"> </text>
<text text-anchor="start" x="500" y="-222.8" font-family="Courier,monospace" font-size="9.00" fill="#000000"> </text>
<text text-anchor="start" x="506" y="-223.4" font-family="Courier,monospace" font-size="7.00" fill="#000000">built&#45;in prototype</text>
<text text-anchor="start" x="582" y="-222.8" font-family="Courier,monospace" font-size="9.00" fill="#000000"> </text>
</a>
</g>
</g>
<!-- user&#45;&gt;expanding -->
<g id="edge1" class="edge">
<title>user&#45;&gt;expanding</title>
<g id="a_edge1"><a xlink:href="https://github.com/LogtalkDotOrg/logtalk3/tree/master/core/" xlink:title="implements">
<path fill="none" stroke="#000000" d="M540.8911,-249.1945C531.3806,-304.8546 502.5355,-473.6692 489.5084,-549.9099"/>
<ellipse fill="#000000" stroke="#000000" cx="488.8228" cy="-553.9224" rx="4" ry="4"/>
</a>
</g>
<g id="a_edge1&#45;label"><a xlink:href="https://github.com/LogtalkDotOrg/logtalk3/tree/master/core/" xlink:title="https://github.com/LogtalkDotOrg/logtalk3/tree/master/core/">
<text text-anchor="start" x="505" y="-459.8" font-family="Courier,monospace" font-size="9.00" fill="#000000">implements</text>
</a>
</g>
</g>
<!-- user&#45;&gt;forwarding -->
<g id="edge2" class="edge">
<title>user&#45;&gt;forwarding</title>
<g id="a_edge2"><a xlink:href="https://github.com/LogtalkDotOrg/logtalk3/tree/master/core/" xlink:title="implements">
<path fill="none" stroke="#000000" d="M547.9243,-249.1945C560.2002,-306.1101 597.9954,-481.3425 613.8663,-554.9254"/>
<ellipse fill="#000000" stroke="#000000" cx="614.7574" cy="-559.0574" rx="4" ry="4"/>
</a>
</g>
<g id="a_edge2&#45;label"><a xlink:href="https://github.com/LogtalkDotOrg/logtalk3/tree/master/core/" xlink:title="https://github.com/LogtalkDotOrg/logtalk3/tree/master/core/">
<text text-anchor="start" x="594" y="-459.8" font-family="Courier,monospace" font-size="9.00" fill="#000000">implements</text>
</a>
</g>
</g>
<!-- logtalk -->
<g id="node5" class="node">
<title>logtalk</title>
<g id="a_node5"><a xlink:href="https://logtalk.org/library/logtalk_0.html" xlink:title="https://logtalk.org/library/logtalk_0.html">
<polygon fill="#f5f5dc" stroke="#000000" points="461.5,-366 260.5,-366 260.5,-96 461.5,-96 461.5,-366"/>
<text text-anchor="start" x="269" y="-353.8" font-family="Courier,monospace" font-size="9.00" fill="#000000"> </text>
<text text-anchor="start" x="338" y="-353.2" font-family="Courier,monospace" font-size="11.00" fill="#000000">logtalk</text>
<text text-anchor="start" x="448" y="-353.8" font-family="Courier,monospace" font-size="9.00" fill="#000000"> </text>
<text text-anchor="start" x="269" y="-342.8" font-family="Courier,monospace" font-size="9.00" fill="#000000"> </text>
<text text-anchor="start" x="323.5" y="-343.4" font-family="Courier,monospace" font-size="7.00" fill="#000000">built&#45;in prototype</text>
<text text-anchor="start" x="448" y="-342.8" font-family="Courier,monospace" font-size="9.00" fill="#000000"> </text>
<text text-anchor="start" x="269" y="-332.8" font-family="Courier,monospace" font-size="9.00" fill="#000000"> </text>
<text text-anchor="start" x="269" y="-322.8" font-family="Courier,monospace" font-size="9.00" fill="#000000"> </text>
<text text-anchor="start" x="320.5" y="-322.8" font-family="Courier,monospace" font-size="9.00" fill="#000000">print_message/3</text>
<text text-anchor="start" x="448" y="-322.8" font-family="Courier,monospace" font-size="9.00" fill="#000000"> </text>
<text text-anchor="start" x="269" y="-312.8" font-family="Courier,monospace" font-size="9.00" fill="#000000"> </text>
<text text-anchor="start" x="302" y="-312.8" font-family="Courier,monospace" font-size="9.00" fill="#000000">print_message_tokens/3</text>
<text text-anchor="start" x="448" y="-312.8" font-family="Courier,monospace" font-size="9.00" fill="#000000"> </text>
<text text-anchor="start" x="269" y="-302.8" font-family="Courier,monospace" font-size="9.00" fill="#000000"> </text>
<text text-anchor="start" x="304.5" y="-302.8" font-family="Courier,monospace" font-size="9.00" fill="#000000">print_message_token/4</text>
<text text-anchor="start" x="448" y="-302.8" font-family="Courier,monospace" font-size="9.00" fill="#000000"> </text>
<text text-anchor="start" x="269" y="-292.8" font-family="Courier,monospace" font-size="9.00" fill="#000000"> </text>
<text text-anchor="start" x="315.5" y="-292.8" font-family="Courier,monospace" font-size="9.00" fill="#000000">message_tokens//2</text>
<text text-anchor="start" x="448" y="-292.8" font-family="Courier,monospace" font-size="9.00" fill="#000000"> </text>
<text text-anchor="start" x="269" y="-282.8" font-family="Courier,monospace" font-size="9.00" fill="#000000"> </text>
<text text-anchor="start" x="299" y="-282.8" font-family="Courier,monospace" font-size="9.00" fill="#000000">message_prefix_stream/4</text>
<text text-anchor="start" x="448" y="-282.8" font-family="Courier,monospace" font-size="9.00" fill="#000000"> </text>
<text text-anchor="start" x="269" y="-272.8" font-family="Courier,monospace" font-size="9.00" fill="#000000"> </text>
<text text-anchor="start" x="323.5" y="-272.8" font-family="Courier,monospace" font-size="9.00" fill="#000000">message_hook/4</text>
<text text-anchor="start" x="448" y="-272.8" font-family="Courier,monospace" font-size="9.00" fill="#000000"> </text>
<text text-anchor="start" x="269" y="-262.8" font-family="Courier,monospace" font-size="9.00" fill="#000000"> </text>
<text text-anchor="start" x="323.5" y="-262.8" font-family="Courier,monospace" font-size="9.00" fill="#000000">ask_question/5</text>
<text text-anchor="start" x="448" y="-262.8" font-family="Courier,monospace" font-size="9.00" fill="#000000"> </text>
<text text-anchor="start" x="269" y="-252.8" font-family="Courier,monospace" font-size="9.00" fill="#000000"> </text>
<text text-anchor="start" x="320.5" y="-252.8" font-family="Courier,monospace" font-size="9.00" fill="#000000">question_hook/6</text>
<text text-anchor="start" x="448" y="-252.8" font-family="Courier,monospace" font-size="9.00" fill="#000000"> </text>
<text text-anchor="start" x="269" y="-242.8" font-family="Courier,monospace" font-size="9.00" fill="#000000"> </text>
<text text-anchor="start" x="296.5" y="-242.8" font-family="Courier,monospace" font-size="9.00" fill="#000000">question_prompt_stream/4</text>
<text text-anchor="start" x="448" y="-242.8" font-family="Courier,monospace" font-size="9.00" fill="#000000"> </text>
<text text-anchor="start" x="269" y="-232.8" font-family="Courier,monospace" font-size="9.00" fill="#000000"> </text>
<text text-anchor="start" x="326" y="-232.8" font-family="Courier,monospace" font-size="9.00" fill="#000000">trace_event/2</text>
<text text-anchor="start" x="448" y="-232.8" font-family="Courier,monospace" font-size="9.00" fill="#000000"> </text>
<text text-anchor="start" x="269" y="-222.8" font-family="Courier,monospace" font-size="9.00" fill="#000000"> </text>
<text text-anchor="start" x="296.5" y="-222.8" font-family="Courier,monospace" font-size="9.00" fill="#000000">debug_handler_provider/1</text>
<text text-anchor="start" x="448" y="-222.8" font-family="Courier,monospace" font-size="9.00" fill="#000000"> </text>
<text text-anchor="start" x="269" y="-212.8" font-family="Courier,monospace" font-size="9.00" fill="#000000"> </text>
<text text-anchor="start" x="320.5" y="-212.8" font-family="Courier,monospace" font-size="9.00" fill="#000000">debug_handler/2</text>
<text text-anchor="start" x="448" y="-212.8" font-family="Courier,monospace" font-size="9.00" fill="#000000"> </text>
<text text-anchor="start" x="269" y="-202.8" font-family="Courier,monospace" font-size="9.00" fill="#000000"> </text>
<text text-anchor="start" x="304.5" y="-202.8" font-family="Courier,monospace" font-size="9.00" fill="#000000">expand_library_path/2</text>
<text text-anchor="start" x="448" y="-202.8" font-family="Courier,monospace" font-size="9.00" fill="#000000"> </text>
<text text-anchor="start" x="269" y="-192.8" font-family="Courier,monospace" font-size="9.00" fill="#000000"> </text>
<text text-anchor="start" x="326" y="-192.8" font-family="Courier,monospace" font-size="9.00" fill="#000000">loaded_file/1</text>
<text text-anchor="start" x="448" y="-192.8" font-family="Courier,monospace" font-size="9.00" fill="#000000"> </text>
<text text-anchor="start" x="269" y="-182.8" font-family="Courier,monospace" font-size="9.00" fill="#000000"> </text>
<text text-anchor="start" x="302" y="-182.8" font-family="Courier,monospace" font-size="9.00" fill="#000000">loaded_file_property/2</text>
<text text-anchor="start" x="448" y="-182.8" font-family="Courier,monospace" font-size="9.00" fill="#000000"> </text>
<text text-anchor="start" x="269" y="-172.8" font-family="Courier,monospace" font-size="9.00" fill="#000000"> </text>
<text text-anchor="start" x="304.5" y="-172.8" font-family="Courier,monospace" font-size="9.00" fill="#000000">file_type_extension/2</text>
<text text-anchor="start" x="448" y="-172.8" font-family="Courier,monospace" font-size="9.00" fill="#000000"> </text>
<text text-anchor="start" x="269" y="-162.8" font-family="Courier,monospace" font-size="9.00" fill="#000000"> </text>
<text text-anchor="start" x="304.5" y="-162.8" font-family="Courier,monospace" font-size="9.00" fill="#000000">compile_aux_clauses/1</text>
<text text-anchor="start" x="448" y="-162.8" font-family="Courier,monospace" font-size="9.00" fill="#000000"> </text>
<text text-anchor="start" x="269" y="-152.8" font-family="Courier,monospace" font-size="9.00" fill="#000000"> </text>
<text text-anchor="start" x="320.5" y="-152.8" font-family="Courier,monospace" font-size="9.00" fill="#000000">entity_prefix/2</text>
<text text-anchor="start" x="448" y="-152.8" font-family="Courier,monospace" font-size="9.00" fill="#000000"> </text>
<text text-anchor="start" x="269" y="-142.8" font-family="Courier,monospace" font-size="9.00" fill="#000000"> </text>
<text text-anchor="start" x="293.5" y="-142.8" font-family="Courier,monospace" font-size="9.00" fill="#000000">compile_predicate_heads/4</text>
<text text-anchor="start" x="448" y="-142.8" font-family="Courier,monospace" font-size="9.00" fill="#000000"> </text>
<text text-anchor="start" x="269" y="-132.8" font-family="Courier,monospace" font-size="9.00" fill="#000000"> </text>
<text text-anchor="start" x="280" y="-132.8" font-family="Courier,monospace" font-size="9.00" fill="#000000">compile_predicate_indicators/3</text>
<text text-anchor="start" x="448" y="-132.8" font-family="Courier,monospace" font-size="9.00" fill="#000000"> </text>
<text text-anchor="start" x="269" y="-122.8" font-family="Courier,monospace" font-size="9.00" fill="#000000"> </text>
<text text-anchor="start" x="288.5" y="-122.8" font-family="Courier,monospace" font-size="9.00" fill="#000000">decompile_predicate_heads/4</text>
<text text-anchor="start" x="448" y="-122.8" font-family="Courier,monospace" font-size="9.00" fill="#000000"> </text>
<text text-anchor="start" x="269" y="-112.8" font-family="Courier,monospace" font-size="9.00" fill="#000000"> </text>
<text text-anchor="start" x="275" y="-112.8" font-family="Courier,monospace" font-size="9.00" fill="#000000">decompile_predicate_indicators/4</text>
<text text-anchor="start" x="448" y="-112.8" font-family="Courier,monospace" font-size="9.00" fill="#000000"> </text>
<text text-anchor="start" x="269" y="-102.8" font-family="Courier,monospace" font-size="9.00" fill="#000000"> </text>
<text text-anchor="start" x="310" y="-102.8" font-family="Courier,monospace" font-size="9.00" fill="#000000">execution_context/7</text>
<text text-anchor="start" x="448" y="-102.8" font-family="Courier,monospace" font-size="9.00" fill="#000000"> </text>
</a>
</g>
</g>
<!-- core_messages -->
<g id="node6" class="node">
<title>core_messages</title>
<g id="a_node6"><a xlink:href="https://logtalk.org/library/core_messages_0.html" xlink:title="https://logtalk.org/library/core_messages_0.html">
<polygon fill="#e0ffff" stroke="#000000" points="229.5,-261 28.5,-261 28.5,-257 24.5,-257 24.5,-253 28.5,-253 28.5,-209 24.5,-209 24.5,-205 28.5,-205 28.5,-201 229.5,-201 229.5,-261"/>
<polyline fill="none" stroke="#000000" points="28.5,-257 32.5,-257 32.5,-253 28.5,-253 "/>
<polyline fill="none" stroke="#000000" points="28.5,-209 32.5,-209 32.5,-205 28.5,-205 "/>
<text text-anchor="start" x="37" y="-248.8" font-family="Courier,monospace" font-size="9.00" fill="#000000"> </text>
<text text-anchor="start" x="86.5" y="-248.2" font-family="Courier,monospace" font-size="11.00" fill="#000000">core_messages</text>
<text text-anchor="start" x="216" y="-248.8" font-family="Courier,monospace" font-size="9.00" fill="#000000"> </text>
<text text-anchor="start" x="37" y="-237.8" font-family="Courier,monospace" font-size="9.00" fill="#000000"> </text>
<text text-anchor="start" x="93.5" y="-238.4" font-family="Courier,monospace" font-size="7.00" fill="#000000">built&#45;in category</text>
<text text-anchor="start" x="216" y="-237.8" font-family="Courier,monospace" font-size="9.00" fill="#000000"> </text>
<text text-anchor="start" x="37" y="-227.8" font-family="Courier,monospace" font-size="9.00" fill="#000000"> </text>
<text text-anchor="start" x="37" y="-217.8" font-family="Courier,monospace" font-size="9.00" fill="#000000"> </text>
<text text-anchor="start" x="43" y="-217.8" font-family="Courier,monospace" font-size="9.00" fill="#000000">logtalk::message_prefix_stream/4</text>
<text text-anchor="start" x="216" y="-217.8" font-family="Courier,monospace" font-size="9.00" fill="#000000"> </text>
<text text-anchor="start" x="37" y="-207.8" font-family="Courier,monospace" font-size="9.00" fill="#000000"> </text>
<text text-anchor="start" x="59" y="-207.8" font-family="Courier,monospace" font-size="9.00" fill="#000000">logtalk::message_tokens//2</text>
<text text-anchor="start" x="216" y="-207.8" font-family="Courier,monospace" font-size="9.00" fill="#000000"> </text>
</a>
</g>
</g>
</g>
</svg>
