<?xml version="1.0" encoding="UTF-8" standalone="no"?>
<?xml-stylesheet href="diagrams.css" type="text/css"?>
<!DOCTYPE svg PUBLIC "-//W3C//DTD SVG 1.1//EN"
 "http://www.w3.org/Graphics/SVG/1.1/DTD/svg11.dtd">
<!-- Generated by graphviz version 2.50.0 (20211204.2007)
 -->
<!-- Title: core Pages: 1 -->
<svg width="788pt" height="746pt"
 viewBox="72.00 72.00 716.00 674.00" xmlns="http://www.w3.org/2000/svg" xmlns:xlink="http://www.w3.org/1999/xlink">
<g id="graph0" class="graph" transform="scale(1 1) rotate(0) translate(76 670)">
<title>core</title>
<polygon fill="white" stroke="transparent" points="-4,4 -4,-598 640,-598 640,4 -4,4"/>
<text text-anchor="start" x="8" y="-29" font-family="Monospace" font-size="10.00" fill="dimgray">Logtalk core entities</text>
<text text-anchor="start" x="8" y="-18" font-family="Monospace" font-size="10.00" fill="dimgray">Inheritance diagram for library core</text>
<text text-anchor="start" x="8" y="-7" font-family="Monospace" font-size="10.00" fill="dimgray">Generated on 2022&#45;02&#45;17, 18:40</text>
<g id="clust1" class="cluster">
<title>cluster_library_core</title>
<g id="a_clust1"><a xlink:title="core/">
<path fill="whitesmoke" stroke="dimgray" d="M20,-49C20,-49 616,-49 616,-49 622,-49 628,-55 628,-61 628,-61 628,-574 628,-574 628,-580 622,-586 616,-586 616,-586 20,-586 20,-586 14,-586 8,-580 8,-574 8,-574 8,-61 8,-61 8,-55 14,-49 20,-49"/>
<g id="a_clust1_0"><a xlink:href="https://github.com/LogtalkDotOrg/logtalk3/tree/ffa17e8d33484385bd243087b04d70ddea3fc40e/core/" xlink:title="https://github.com/LogtalkDotOrg/logtalk3/tree/ffa17e8d33484385bd243087b04d70ddea3fc40e/core/">
<text text-anchor="start" x="20.5" y="-59.5" font-family="Monospace" font-size="10.00" fill="dimgray">core/</text>
</a>
</g>
</a>
</g>
</g>
<g id="clust2" class="cluster">
<title>cluster_file_/opt/local/share/logtalk/core/expanding.lgt</title>
<g id="a_clust2"><a xlink:title="expanding.lgt">
<path fill="snow" stroke="dimgray" d="M212,-458C212,-458 326,-458 326,-458 332,-458 338,-464 338,-470 338,-470 338,-564 338,-564 338,-570 332,-576 326,-576 326,-576 212,-576 212,-576 206,-576 200,-570 200,-564 200,-564 200,-470 200,-470 200,-464 206,-458 212,-458"/>
<g id="a_clust2_1"><a xlink:href="https://github.com/LogtalkDotOrg/logtalk3/tree/ffa17e8d33484385bd243087b04d70ddea3fc40e/core/expanding.lgt" xlink:title="https://github.com/LogtalkDotOrg/logtalk3/tree/ffa17e8d33484385bd243087b04d70ddea3fc40e/core/expanding.lgt">
<text text-anchor="start" x="212.5" y="-468.5" font-family="Monospace" font-size="10.00" fill="dimgray">expanding.lgt</text>
</a>
</g>
</a>
</g>
</g>
<g id="clust5" class="cluster">
<title>cluster_file_/opt/local/share/logtalk/core/user.lgt</title>
<g id="a_clust5"><a xlink:title="user.lgt">
<path fill="snow" stroke="dimgray" d="M494,-206C494,-206 606,-206 606,-206 612,-206 618,-212 618,-218 618,-218 618,-282 618,-282 618,-288 612,-294 606,-294 606,-294 494,-294 494,-294 488,-294 482,-288 482,-282 482,-282 482,-218 482,-218 482,-212 488,-206 494,-206"/>
<g id="a_clust5_2"><a xlink:href="https://github.com/LogtalkDotOrg/logtalk3/tree/ffa17e8d33484385bd243087b04d70ddea3fc40e/core/user.lgt" xlink:title="https://github.com/LogtalkDotOrg/logtalk3/tree/ffa17e8d33484385bd243087b04d70ddea3fc40e/core/user.lgt">
<text text-anchor="start" x="494.5" y="-216.5" font-family="Monospace" font-size="10.00" fill="dimgray">user.lgt</text>
</a>
</g>
</a>
</g>
</g>
<g id="clust6" class="cluster">
<title>cluster_file_/opt/local/share/logtalk/core/logtalk.lgt</title>
<g id="a_clust6"><a xlink:title="logtalk.lgt">
<path fill="snow" stroke="dimgray" d="M262,-86C262,-86 460,-86 460,-86 466,-86 472,-92 472,-98 472,-98 472,-402 472,-402 472,-408 466,-414 460,-414 460,-414 262,-414 262,-414 256,-414 250,-408 250,-402 250,-402 250,-98 250,-98 250,-92 256,-86 262,-86"/>
<g id="a_clust6_3"><a xlink:href="https://github.com/LogtalkDotOrg/logtalk3/tree/ffa17e8d33484385bd243087b04d70ddea3fc40e/core/logtalk.lgt" xlink:title="https://github.com/LogtalkDotOrg/logtalk3/tree/ffa17e8d33484385bd243087b04d70ddea3fc40e/core/logtalk.lgt">
<text text-anchor="start" x="262.5" y="-96.5" font-family="Monospace" font-size="10.00" fill="dimgray">logtalk.lgt</text>
</a>
</g>
</a>
</g>
</g>
<g id="clust3" class="cluster">
<title>cluster_file_/opt/local/share/logtalk/core/monitoring.lgt</title>
<g id="a_clust3"><a xlink:title="monitoring.lgt">
<path fill="snow" stroke="dimgray" d="M360,-458C360,-458 466,-458 466,-458 472,-458 478,-464 478,-470 478,-470 478,-564 478,-564 478,-570 472,-576 466,-576 466,-576 360,-576 360,-576 354,-576 348,-570 348,-564 348,-564 348,-470 348,-470 348,-464 354,-458 360,-458"/>
<g id="a_clust3_4"><a xlink:href="https://github.com/LogtalkDotOrg/logtalk3/tree/ffa17e8d33484385bd243087b04d70ddea3fc40e/core/monitoring.lgt" xlink:title="https://github.com/LogtalkDotOrg/logtalk3/tree/ffa17e8d33484385bd243087b04d70ddea3fc40e/core/monitoring.lgt">
<text text-anchor="start" x="360.5" y="-468.5" font-family="Monospace" font-size="10.00" fill="dimgray">monitoring.lgt</text>
</a>
</g>
</a>
</g>
</g>
<g id="clust4" class="cluster">
<title>cluster_file_/opt/local/share/logtalk/core/forwarding.lgt</title>
<g id="a_clust4"><a xlink:title="forwarding.lgt">
<path fill="snow" stroke="dimgray" d="M500,-463C500,-463 606,-463 606,-463 612,-463 618,-469 618,-475 618,-475 618,-559 618,-559 618,-565 612,-571 606,-571 606,-571 500,-571 500,-571 494,-571 488,-565 488,-559 488,-559 488,-475 488,-475 488,-469 494,-463 500,-463"/>
<g id="a_clust4_5"><a xlink:href="https://github.com/LogtalkDotOrg/logtalk3/tree/ffa17e8d33484385bd243087b04d70ddea3fc40e/core/forwarding.lgt" xlink:title="https://github.com/LogtalkDotOrg/logtalk3/tree/ffa17e8d33484385bd243087b04d70ddea3fc40e/core/forwarding.lgt">
<text text-anchor="start" x="500.5" y="-473.5" font-family="Monospace" font-size="10.00" fill="dimgray">forwarding.lgt</text>
</a>
</g>
</a>
</g>
</g>
<g id="clust7" class="cluster">
<title>cluster_file_/opt/local/share/logtalk/core/core_messages.lgt</title>
<g id="a_clust7"><a xlink:title="core_messages.lgt">
<path fill="snow" stroke="dimgray" d="M30,-191C30,-191 228,-191 228,-191 234,-191 240,-197 240,-203 240,-203 240,-297 240,-297 240,-303 234,-309 228,-309 228,-309 30,-309 30,-309 24,-309 18,-303 18,-297 18,-297 18,-203 18,-203 18,-197 24,-191 30,-191"/>
<g id="a_clust7_6"><a xlink:href="https://github.com/LogtalkDotOrg/logtalk3/tree/ffa17e8d33484385bd243087b04d70ddea3fc40e/core/core_messages.lgt" xlink:title="https://github.com/LogtalkDotOrg/logtalk3/tree/ffa17e8d33484385bd243087b04d70ddea3fc40e/core/core_messages.lgt">
<text text-anchor="start" x="30.5" y="-201.5" font-family="Monospace" font-size="10.00" fill="dimgray">core_messages.lgt</text>
</a>
</g>
</a>
</g>
</g>
<!-- expanding -->
<g id="node1" class="node">
<title>expanding</title>
<g id="a_node1"><a xlink:href="https://logtalk.org/library/expanding_0.html" xlink:title="https://logtalk.org/library/expanding_0.html">
<polygon fill="aquamarine" stroke="black" points="322,-566 210,-566 210,-495 328,-495 328,-560 322,-566"/>
<polyline fill="none" stroke="black" points="322,-566 322,-560 "/>
<polyline fill="none" stroke="black" points="328,-560 322,-560 "/>
<g id="a_node1_7"><a xlink:href="expanding_protocol_xref_diagram.svg" xlink:title="Zoom">
<image xlink:href="zoom.png" width="11px" height="11px" preserveAspectRatio="xMinYMin meet" x="218" y="-561.5"/>
</a>
</g>
<text text-anchor="start" x="220.5" y="-542.3" font-family="Monospace" font-size="9.00"> </text>
<text text-anchor="start" x="241" y="-541.7" font-family="Monospace" font-size="11.00">expanding</text>
<text text-anchor="start" x="314" y="-542.3" font-family="Monospace" font-size="9.00"> </text>
<text text-anchor="start" x="220.5" y="-531.3" font-family="Monospace" font-size="9.00"> </text>
<text text-anchor="start" x="233" y="-531.9" font-family="Monospace" font-size="7.00">built&#45;in protocol</text>
<text text-anchor="start" x="314" y="-531.3" font-family="Monospace" font-size="9.00"> </text>
<text text-anchor="start" x="220.5" y="-521.3" font-family="Monospace" font-size="9.00"> </text>
<text text-anchor="start" x="220.5" y="-511.3" font-family="Monospace" font-size="9.00"> </text>
<text text-anchor="start" x="229" y="-511.3" font-family="Monospace" font-size="9.00">goal_expansion/2</text>
<text text-anchor="start" x="314" y="-511.3" font-family="Monospace" font-size="9.00"> </text>
<text text-anchor="start" x="220.5" y="-501.3" font-family="Monospace" font-size="9.00"> </text>
<text text-anchor="start" x="229" y="-501.3" font-family="Monospace" font-size="9.00">term_expansion/2</text>
<text text-anchor="start" x="314" y="-501.3" font-family="Monospace" font-size="9.00"> </text>
</a>
</g>
</g>
<!-- monitoring -->
<g id="node2" class="node">
<title>monitoring</title>
<g id="a_node2"><a xlink:href="https://logtalk.org/library/monitoring_0.html" xlink:title="https://logtalk.org/library/monitoring_0.html">
<polygon fill="aquamarine" stroke="black" points="462,-566 358,-566 358,-495 468,-495 468,-560 462,-566"/>
<polyline fill="none" stroke="black" points="462,-566 462,-560 "/>
<polyline fill="none" stroke="black" points="468,-560 462,-560 "/>
<g id="a_node2_8"><a xlink:href="monitoring_protocol_xref_diagram.svg" xlink:title="Zoom">
<image xlink:href="zoom.png" width="11px" height="11px" preserveAspectRatio="xMinYMin meet" x="366" y="-561.5"/>
</a>
</g>
<text text-anchor="start" x="368.5" y="-542.3" font-family="Monospace" font-size="9.00"> </text>
<text text-anchor="start" x="381.5" y="-541.7" font-family="Monospace" font-size="11.00">monitoring</text>
<text text-anchor="start" x="454" y="-542.3" font-family="Monospace" font-size="9.00"> </text>
<text text-anchor="start" x="368.5" y="-531.3" font-family="Monospace" font-size="9.00"> </text>
<text text-anchor="start" x="377" y="-531.9" font-family="Monospace" font-size="7.00">built&#45;in protocol</text>
<text text-anchor="start" x="454" y="-531.3" font-family="Monospace" font-size="9.00"> </text>
<text text-anchor="start" x="368.5" y="-521.3" font-family="Monospace" font-size="9.00"> </text>
<text text-anchor="start" x="368.5" y="-511.3" font-family="Monospace" font-size="9.00"> </text>
<text text-anchor="start" x="394" y="-511.3" font-family="Monospace" font-size="9.00">before/3</text>
<text text-anchor="start" x="454" y="-511.3" font-family="Monospace" font-size="9.00"> </text>
<text text-anchor="start" x="368.5" y="-501.3" font-family="Monospace" font-size="9.00"> </text>
<text text-anchor="start" x="397" y="-501.3" font-family="Monospace" font-size="9.00">after/3</text>
<text text-anchor="start" x="454" y="-501.3" font-family="Monospace" font-size="9.00"> </text>
</a>
</g>
</g>
<!-- forwarding -->
<g id="node3" class="node">
<title>forwarding</title>
<g id="a_node3"><a xlink:href="https://logtalk.org/library/forwarding_0.html" xlink:title="https://logtalk.org/library/forwarding_0.html">
<polygon fill="aquamarine" stroke="black" points="602,-561 498,-561 498,-500 608,-500 608,-555 602,-561"/>
<polyline fill="none" stroke="black" points="602,-561 602,-555 "/>
<polyline fill="none" stroke="black" points="608,-555 602,-555 "/>
<g id="a_node3_9"><a xlink:href="forwarding_protocol_xref_diagram.svg" xlink:title="Zoom">
<image xlink:href="zoom.png" width="11px" height="11px" preserveAspectRatio="xMinYMin meet" x="506" y="-556.5"/>
</a>
</g>
<text text-anchor="start" x="508.5" y="-537.3" font-family="Monospace" font-size="9.00"> </text>
<text text-anchor="start" x="521.5" y="-536.7" font-family="Monospace" font-size="11.00">forwarding</text>
<text text-anchor="start" x="594" y="-537.3" font-family="Monospace" font-size="9.00"> </text>
<text text-anchor="start" x="508.5" y="-526.3" font-family="Monospace" font-size="9.00"> </text>
<text text-anchor="start" x="517" y="-526.9" font-family="Monospace" font-size="7.00">built&#45;in protocol</text>
<text text-anchor="start" x="594" y="-526.3" font-family="Monospace" font-size="9.00"> </text>
<text text-anchor="start" x="508.5" y="-516.3" font-family="Monospace" font-size="9.00"> </text>
<text text-anchor="start" x="508.5" y="-506.3" font-family="Monospace" font-size="9.00"> </text>
<text text-anchor="start" x="531.5" y="-506.3" font-family="Monospace" font-size="9.00">forward/1</text>
<text text-anchor="start" x="594" y="-506.3" font-family="Monospace" font-size="9.00"> </text>
</a>
</g>
</g>
<!-- user -->
<g id="node4" class="node">
<title>user</title>
<g id="a_node4"><a xlink:href="https://logtalk.org/library/user_0.html" xlink:title="https://logtalk.org/library/user_0.html">
<polygon fill="cornsilk" stroke="black" points="607.5,-284 492.5,-284 492.5,-243 607.5,-243 607.5,-284"/>
<g id="a_node4_10"><a xlink:href="user_object_xref_diagram.svg" xlink:title="Zoom">
<image xlink:href="zoom.png" width="11px" height="11px" preserveAspectRatio="xMinYMin meet" x="501" y="-279.5"/>
</a>
</g>
<text text-anchor="start" x="503.5" y="-260.3" font-family="Monospace" font-size="9.00"> </text>
<text text-anchor="start" x="539" y="-259.7" font-family="Monospace" font-size="11.00">user</text>
<text text-anchor="start" x="594" y="-260.3" font-family="Monospace" font-size="9.00"> </text>
<text text-anchor="start" x="503.5" y="-249.3" font-family="Monospace" font-size="9.00"> </text>
<text text-anchor="start" x="512" y="-249.9" font-family="Monospace" font-size="7.00">built&#45;in prototype</text>
<text text-anchor="start" x="594" y="-249.3" font-family="Monospace" font-size="9.00"> </text>
</a>
</g>
</g>
<!-- user&#45;&gt;expanding -->
<g id="edge1" class="edge">
<title>user&#45;&gt;expanding</title>
<g id="a_edge1"><a xlink:href="https://logtalk.org/library/user_0.html" xlink:title="implements">
<path fill="none" stroke="black" d="M545.47,-284.24C537.17,-316.07 516.51,-378.72 476,-414 464.34,-424.15 357.25,-450.03 344,-458 330.09,-466.37 316.66,-477.73 305.11,-488.93"/>
<ellipse fill="black" stroke="black" cx="302.08" cy="-491.93" rx="4" ry="4"/>
</a>
</g>
<g id="a_edge1&#45;label"><a xlink:href="https://logtalk.org/library/user_0.html" xlink:title="https://logtalk.org/library/user_0.html">
<text text-anchor="start" x="396" y="-442.8" font-family="Monospace" font-size="9.00">implements</text>
</a>
</g>
</g>
<!-- user&#45;&gt;monitoring -->
<g id="edge3" class="edge">
<title>user&#45;&gt;monitoring</title>
<g id="a_edge3"><a xlink:href="https://logtalk.org/library/user_0.html" xlink:title="implements">
<path fill="none" stroke="black" d="M540.43,-284.46C526.57,-313.24 499.91,-368.01 476,-414 463.22,-438.58 448.41,-465.79 436.36,-487.63"/>
<ellipse fill="black" stroke="black" cx="434.32" cy="-491.32" rx="4" ry="4"/>
</a>
</g>
<g id="a_edge3&#45;label"><a xlink:href="https://logtalk.org/library/user_0.html" xlink:title="https://logtalk.org/library/user_0.html">
<text text-anchor="start" x="460" y="-442.8" font-family="Monospace" font-size="9.00">implements</text>
</a>
</g>
</g>
<!-- user&#45;&gt;forwarding -->
<g id="edge2" class="edge">
<title>user&#45;&gt;forwarding</title>
<g id="a_edge2"><a xlink:href="https://logtalk.org/library/user_0.html" xlink:title="implements">
<path fill="none" stroke="black" d="M550.23,-284.42C550.72,-328.47 551.93,-434.78 552.57,-491.83"/>
<ellipse fill="black" stroke="black" cx="552.62" cy="-495.87" rx="4" ry="4"/>
</a>
</g>
<g id="a_edge2&#45;label"><a xlink:href="https://logtalk.org/library/user_0.html" xlink:title="https://logtalk.org/library/user_0.html">
<text text-anchor="start" x="552" y="-442.8" font-family="Monospace" font-size="9.00">implements</text>
</a>
</g>
</g>
<!-- logtalk -->
<g id="node5" class="node">
<title>logtalk</title>
<g id="a_node5"><a xlink:href="https://logtalk.org/library/logtalk_0.html" xlink:title="https://logtalk.org/library/logtalk_0.html">
<polygon fill="cornsilk" stroke="black" points="462,-404 260,-404 260,-123 462,-123 462,-404"/>
<g id="a_node5_11"><a xlink:href="logtalk_object_xref_diagram.svg" xlink:title="Zoom">
<image xlink:href="zoom.png" width="11px" height="11px" preserveAspectRatio="xMinYMin meet" x="268" y="-399.5"/>
</a>
</g>
<text text-anchor="start" x="270.5" y="-380.3" font-family="Monospace" font-size="9.00"> </text>
<text text-anchor="start" x="339.5" y="-379.7" font-family="Monospace" font-size="11.00">logtalk</text>
<text text-anchor="start" x="448" y="-380.3" font-family="Monospace" font-size="9.00"> </text>
<text text-anchor="start" x="270.5" y="-369.3" font-family="Monospace" font-size="9.00"> </text>
<text text-anchor="start" x="322.5" y="-369.9" font-family="Monospace" font-size="7.00">built&#45;in prototype</text>
<text text-anchor="start" x="448" y="-369.3" font-family="Monospace" font-size="9.00"> </text>
<text text-anchor="start" x="270.5" y="-359.3" font-family="Monospace" font-size="9.00"> </text>
<text text-anchor="start" x="270.5" y="-349.3" font-family="Monospace" font-size="9.00"> </text>
<text text-anchor="start" x="324" y="-349.3" font-family="Monospace" font-size="9.00">print_message/3</text>
<text text-anchor="start" x="448" y="-349.3" font-family="Monospace" font-size="9.00"> </text>
<text text-anchor="start" x="270.5" y="-339.3" font-family="Monospace" font-size="9.00"> </text>
<text text-anchor="start" x="305.5" y="-339.3" font-family="Monospace" font-size="9.00">print_message_tokens/3</text>
<text text-anchor="start" x="448" y="-339.3" font-family="Monospace" font-size="9.00"> </text>
<text text-anchor="start" x="270.5" y="-329.3" font-family="Monospace" font-size="9.00"> </text>
<text text-anchor="start" x="308" y="-329.3" font-family="Monospace" font-size="9.00">print_message_token/4</text>
<text text-anchor="start" x="448" y="-329.3" font-family="Monospace" font-size="9.00"> </text>
<text text-anchor="start" x="270.5" y="-319.3" font-family="Monospace" font-size="9.00"> </text>
<text text-anchor="start" x="318.5" y="-319.3" font-family="Monospace" font-size="9.00">message_tokens//2</text>
<text text-anchor="start" x="448" y="-319.3" font-family="Monospace" font-size="9.00"> </text>
<text text-anchor="start" x="270.5" y="-309.3" font-family="Monospace" font-size="9.00"> </text>
<text text-anchor="start" x="303" y="-309.3" font-family="Monospace" font-size="9.00">message_prefix_stream/4</text>
<text text-anchor="start" x="448" y="-309.3" font-family="Monospace" font-size="9.00"> </text>
<text text-anchor="start" x="270.5" y="-299.3" font-family="Monospace" font-size="9.00"> </text>
<text text-anchor="start" x="326.5" y="-299.3" font-family="Monospace" font-size="9.00">message_hook/4</text>
<text text-anchor="start" x="448" y="-299.3" font-family="Monospace" font-size="9.00"> </text>
<text text-anchor="start" x="270.5" y="-289.3" font-family="Monospace" font-size="9.00"> </text>
<text text-anchor="start" x="326.5" y="-289.3" font-family="Monospace" font-size="9.00">ask_question/5</text>
<text text-anchor="start" x="448" y="-289.3" font-family="Monospace" font-size="9.00"> </text>
<text text-anchor="start" x="270.5" y="-279.3" font-family="Monospace" font-size="9.00"> </text>
<text text-anchor="start" x="324" y="-279.3" font-family="Monospace" font-size="9.00">question_hook/6</text>
<text text-anchor="start" x="448" y="-279.3" font-family="Monospace" font-size="9.00"> </text>
<text text-anchor="start" x="270.5" y="-269.3" font-family="Monospace" font-size="9.00"> </text>
<text text-anchor="start" x="300" y="-269.3" font-family="Monospace" font-size="9.00">question_prompt_stream/4</text>
<text text-anchor="start" x="448" y="-269.3" font-family="Monospace" font-size="9.00"> </text>
<text text-anchor="start" x="270.5" y="-259.3" font-family="Monospace" font-size="9.00"> </text>
<text text-anchor="start" x="329" y="-259.3" font-family="Monospace" font-size="9.00">trace_event/2</text>
<text text-anchor="start" x="448" y="-259.3" font-family="Monospace" font-size="9.00"> </text>
<text text-anchor="start" x="270.5" y="-249.3" font-family="Monospace" font-size="9.00"> </text>
<text text-anchor="start" x="300" y="-249.3" font-family="Monospace" font-size="9.00">debug_handler_provider/1</text>
<text text-anchor="start" x="448" y="-249.3" font-family="Monospace" font-size="9.00"> </text>
<text text-anchor="start" x="270.5" y="-239.3" font-family="Monospace" font-size="9.00"> </text>
<text text-anchor="start" x="324" y="-239.3" font-family="Monospace" font-size="9.00">debug_handler/2</text>
<text text-anchor="start" x="448" y="-239.3" font-family="Monospace" font-size="9.00"> </text>
<text text-anchor="start" x="270.5" y="-229.3" font-family="Monospace" font-size="9.00"> </text>
<text text-anchor="start" x="308" y="-229.3" font-family="Monospace" font-size="9.00">expand_library_path/2</text>
<text text-anchor="start" x="448" y="-229.3" font-family="Monospace" font-size="9.00"> </text>
<text text-anchor="start" x="270.5" y="-219.3" font-family="Monospace" font-size="9.00"> </text>
<text text-anchor="start" x="329" y="-219.3" font-family="Monospace" font-size="9.00">loaded_file/1</text>
<text text-anchor="start" x="448" y="-219.3" font-family="Monospace" font-size="9.00"> </text>
<text text-anchor="start" x="270.5" y="-209.3" font-family="Monospace" font-size="9.00"> </text>
<text text-anchor="start" x="305.5" y="-209.3" font-family="Monospace" font-size="9.00">loaded_file_property/2</text>
<text text-anchor="start" x="448" y="-209.3" font-family="Monospace" font-size="9.00"> </text>
<text text-anchor="start" x="270.5" y="-199.3" font-family="Monospace" font-size="9.00"> </text>
<text text-anchor="start" x="308" y="-199.3" font-family="Monospace" font-size="9.00">file_type_extension/2</text>
<text text-anchor="start" x="448" y="-199.3" font-family="Monospace" font-size="9.00"> </text>
<text text-anchor="start" x="270.5" y="-189.3" font-family="Monospace" font-size="9.00"> </text>
<text text-anchor="start" x="308" y="-189.3" font-family="Monospace" font-size="9.00">compile_aux_clauses/1</text>
<text text-anchor="start" x="448" y="-189.3" font-family="Monospace" font-size="9.00"> </text>
<text text-anchor="start" x="270.5" y="-179.3" font-family="Monospace" font-size="9.00"> </text>
<text text-anchor="start" x="324" y="-179.3" font-family="Monospace" font-size="9.00">entity_prefix/2</text>
<text text-anchor="start" x="448" y="-179.3" font-family="Monospace" font-size="9.00"> </text>
<text text-anchor="start" x="270.5" y="-169.3" font-family="Monospace" font-size="9.00"> </text>
<text text-anchor="start" x="297.5" y="-169.3" font-family="Monospace" font-size="9.00">compile_predicate_heads/4</text>
<text text-anchor="start" x="448" y="-169.3" font-family="Monospace" font-size="9.00"> </text>
<text text-anchor="start" x="270.5" y="-159.3" font-family="Monospace" font-size="9.00"> </text>
<text text-anchor="start" x="284.5" y="-159.3" font-family="Monospace" font-size="9.00">compile_predicate_indicators/3</text>
<text text-anchor="start" x="448" y="-159.3" font-family="Monospace" font-size="9.00"> </text>
<text text-anchor="start" x="270.5" y="-149.3" font-family="Monospace" font-size="9.00"> </text>
<text text-anchor="start" x="292.5" y="-149.3" font-family="Monospace" font-size="9.00">decompile_predicate_heads/4</text>
<text text-anchor="start" x="448" y="-149.3" font-family="Monospace" font-size="9.00"> </text>
<text text-anchor="start" x="270.5" y="-139.3" font-family="Monospace" font-size="9.00"> </text>
<text text-anchor="start" x="279" y="-139.3" font-family="Monospace" font-size="9.00">decompile_predicate_indicators/4</text>
<text text-anchor="start" x="448" y="-139.3" font-family="Monospace" font-size="9.00"> </text>
<text text-anchor="start" x="270.5" y="-129.3" font-family="Monospace" font-size="9.00"> </text>
<text text-anchor="start" x="313.5" y="-129.3" font-family="Monospace" font-size="9.00">execution_context/7</text>
<text text-anchor="start" x="448" y="-129.3" font-family="Monospace" font-size="9.00"> </text>
</a>
</g>
</g>
<!-- core_messages -->
<g id="node6" class="node">
<title>core_messages</title>
<g id="a_node6"><a xlink:href="https://logtalk.org/library/core_messages_0.html" xlink:title="https://logtalk.org/library/core_messages_0.html">
<polygon fill="lightcyan" stroke="black" points="230,-299 28,-299 28,-295 24,-295 24,-291 28,-291 28,-236 24,-236 24,-232 28,-232 28,-228 230,-228 230,-299"/>
<polyline fill="none" stroke="black" points="28,-295 32,-295 32,-291 28,-291 "/>
<polyline fill="none" stroke="black" points="28,-236 32,-236 32,-232 28,-232 "/>
<g id="a_node6_12"><a xlink:href="core_messages_category_xref_diagram.svg" xlink:title="Zoom">
<image xlink:href="zoom.png" width="11px" height="11px" preserveAspectRatio="xMinYMin meet" x="36" y="-294.5"/>
</a>
</g>
<text text-anchor="start" x="38.5" y="-275.3" font-family="Monospace" font-size="9.00"> </text>
<text text-anchor="start" x="87.5" y="-274.7" font-family="Monospace" font-size="11.00">core_messages</text>
<text text-anchor="start" x="216" y="-275.3" font-family="Monospace" font-size="9.00"> </text>
<text text-anchor="start" x="38.5" y="-264.3" font-family="Monospace" font-size="9.00"> </text>
<text text-anchor="start" x="93" y="-264.9" font-family="Monospace" font-size="7.00">built&#45;in category</text>
<text text-anchor="start" x="216" y="-264.3" font-family="Monospace" font-size="9.00"> </text>
<text text-anchor="start" x="38.5" y="-254.3" font-family="Monospace" font-size="9.00"> </text>
<text text-anchor="start" x="38.5" y="-244.3" font-family="Monospace" font-size="9.00"> </text>
<text text-anchor="start" x="47" y="-244.3" font-family="Monospace" font-size="9.00">logtalk::message_prefix_stream/4</text>
<text text-anchor="start" x="216" y="-244.3" font-family="Monospace" font-size="9.00"> </text>
<text text-anchor="start" x="38.5" y="-234.3" font-family="Monospace" font-size="9.00"> </text>
<text text-anchor="start" x="63" y="-234.3" font-family="Monospace" font-size="9.00">logtalk::message_tokens//2</text>
<text text-anchor="start" x="216" y="-234.3" font-family="Monospace" font-size="9.00"> </text>
</a>
</g>
</g>
</g>
</svg>
