<?xml version="1.0" encoding="UTF-8" standalone="no"?>
<?xml-stylesheet href="diagrams.css" type="text/css"?>
<!DOCTYPE svg PUBLIC "-//W3C//DTD SVG 1.1//EN"
 "http://www.w3.org/Graphics/SVG/1.1/DTD/svg11.dtd">
<!-- Generated by graphviz version 11.0.0 (20240428.1522)
 -->
<!-- Title: core Pages: 1 -->
<svg width="782pt" height="789pt"
 viewBox="72.00 72.00 710.00 716.75" xmlns="http://www.w3.org/2000/svg" xmlns:xlink="http://www.w3.org/1999/xlink">
<g id="graph0" class="graph" transform="scale(1 1) rotate(0) translate(76 712.75)">
<title>core</title>
<polygon fill="white" stroke="none" points="-4,4 -4,-640.75 634,-640.75 634,4 -4,4"/>
<text text-anchor="start" x="8" y="-32.75" font-family="Monospace" font-size="10.00" fill="dimgray">Logtalk core entities</text>
<text text-anchor="start" x="8" y="-20" font-family="Monospace" font-size="10.00" fill="dimgray">Inheritance diagram for library core</text>
<text text-anchor="start" x="8" y="-7.25" font-family="Monospace" font-size="10.00" fill="dimgray">Generated on 2024&#45;05&#45;06, 09:55</text>
<g id="clust1" class="cluster">
<title>cluster_library_core</title>
<g id="a_clust1"><a xlink:title="core/">
<path fill="whitesmoke" stroke="dimgray" d="M20,-54.25C20,-54.25 610,-54.25 610,-54.25 616,-54.25 622,-60.25 622,-66.25 622,-66.25 622,-616.75 622,-616.75 622,-622.75 616,-628.75 610,-628.75 610,-628.75 20,-628.75 20,-628.75 14,-628.75 8,-622.75 8,-616.75 8,-616.75 8,-66.25 8,-66.25 8,-60.25 14,-54.25 20,-54.25"/>
<g id="a_clust1_0"><a xlink:href="https://github.com/LogtalkDotOrg/logtalk3/tree/433953586476b77ec2e010e935e90dc85293a20a/core/" xlink:title="https://github.com/LogtalkDotOrg/logtalk3/tree/433953586476b77ec2e010e935e90dc85293a20a/core/">
<text text-anchor="start" x="20" y="-65.5" font-family="Monospace" font-size="10.00" fill="dimgray">core/</text>
</a>
</g>
</a>
</g>
</g>
<g id="clust2" class="cluster">
<title>cluster_file_/opt/local/share/logtalk/core/expanding.lgt</title>
<g id="a_clust2"><a xlink:title="expanding.lgt">
<path fill="snow" stroke="dimgray" d="M30,-494C30,-494 142,-494 142,-494 148,-494 154,-500 154,-506 154,-506 154,-606.75 154,-606.75 154,-612.75 148,-618.75 142,-618.75 142,-618.75 30,-618.75 30,-618.75 24,-618.75 18,-612.75 18,-606.75 18,-606.75 18,-506 18,-506 18,-500 24,-494 30,-494"/>
<g id="a_clust2_1"><a xlink:href="https://github.com/LogtalkDotOrg/logtalk3/tree/433953586476b77ec2e010e935e90dc85293a20a/core/expanding.lgt" xlink:title="https://github.com/LogtalkDotOrg/logtalk3/tree/433953586476b77ec2e010e935e90dc85293a20a/core/expanding.lgt">
<text text-anchor="start" x="30" y="-505.25" font-family="Monospace" font-size="10.00" fill="dimgray">expanding.lgt</text>
</a>
</g>
</a>
</g>
</g>
<g id="clust3" class="cluster">
<title>cluster_file_/opt/local/share/logtalk/core/monitoring.lgt</title>
<g id="a_clust3"><a xlink:title="monitoring.lgt">
<path fill="snow" stroke="dimgray" d="M176,-494C176,-494 280,-494 280,-494 286,-494 292,-500 292,-506 292,-506 292,-606.75 292,-606.75 292,-612.75 286,-618.75 280,-618.75 280,-618.75 176,-618.75 176,-618.75 170,-618.75 164,-612.75 164,-606.75 164,-606.75 164,-506 164,-506 164,-500 170,-494 176,-494"/>
<g id="a_clust3_2"><a xlink:href="https://github.com/LogtalkDotOrg/logtalk3/tree/433953586476b77ec2e010e935e90dc85293a20a/core/monitoring.lgt" xlink:title="https://github.com/LogtalkDotOrg/logtalk3/tree/433953586476b77ec2e010e935e90dc85293a20a/core/monitoring.lgt">
<text text-anchor="start" x="176" y="-505.25" font-family="Monospace" font-size="10.00" fill="dimgray">monitoring.lgt</text>
</a>
</g>
</a>
</g>
</g>
<g id="clust4" class="cluster">
<title>cluster_file_/opt/local/share/logtalk/core/forwarding.lgt</title>
<g id="a_clust4"><a xlink:title="forwarding.lgt">
<path fill="snow" stroke="dimgray" d="M314,-499.5C314,-499.5 418,-499.5 418,-499.5 424,-499.5 430,-505.5 430,-511.5 430,-511.5 430,-601.25 430,-601.25 430,-607.25 424,-613.25 418,-613.25 418,-613.25 314,-613.25 314,-613.25 308,-613.25 302,-607.25 302,-601.25 302,-601.25 302,-511.5 302,-511.5 302,-505.5 308,-499.5 314,-499.5"/>
<g id="a_clust4_3"><a xlink:href="https://github.com/LogtalkDotOrg/logtalk3/tree/433953586476b77ec2e010e935e90dc85293a20a/core/forwarding.lgt" xlink:title="https://github.com/LogtalkDotOrg/logtalk3/tree/433953586476b77ec2e010e935e90dc85293a20a/core/forwarding.lgt">
<text text-anchor="start" x="314" y="-510.75" font-family="Monospace" font-size="10.00" fill="dimgray">forwarding.lgt</text>
</a>
</g>
</a>
</g>
</g>
<g id="clust5" class="cluster">
<title>cluster_file_/opt/local/share/logtalk/core/user.lgt</title>
<g id="a_clust5"><a xlink:title="user.lgt">
<path fill="snow" stroke="dimgray" d="M30,-225C30,-225 140,-225 140,-225 146,-225 152,-231 152,-237 152,-237 152,-304.75 152,-304.75 152,-310.75 146,-316.75 140,-316.75 140,-316.75 30,-316.75 30,-316.75 24,-316.75 18,-310.75 18,-304.75 18,-304.75 18,-237 18,-237 18,-231 24,-225 30,-225"/>
<g id="a_clust5_4"><a xlink:href="https://github.com/LogtalkDotOrg/logtalk3/tree/433953586476b77ec2e010e935e90dc85293a20a/core/user.lgt" xlink:title="https://github.com/LogtalkDotOrg/logtalk3/tree/433953586476b77ec2e010e935e90dc85293a20a/core/user.lgt">
<text text-anchor="start" x="30" y="-236.25" font-family="Monospace" font-size="10.00" fill="dimgray">user.lgt</text>
</a>
</g>
</a>
</g>
</g>
<g id="clust6" class="cluster">
<title>cluster_file_/opt/local/share/logtalk/core/logtalk.lgt</title>
<g id="a_clust6"><a xlink:title="logtalk.lgt">
<path fill="snow" stroke="dimgray" d="M174,-93C174,-93 370,-93 370,-93 376,-93 382,-99 382,-105 382,-105 382,-436.75 382,-436.75 382,-442.75 376,-448.75 370,-448.75 370,-448.75 174,-448.75 174,-448.75 168,-448.75 162,-442.75 162,-436.75 162,-436.75 162,-105 162,-105 162,-99 168,-93 174,-93"/>
<g id="a_clust6_5"><a xlink:href="https://github.com/LogtalkDotOrg/logtalk3/tree/433953586476b77ec2e010e935e90dc85293a20a/core/logtalk.lgt" xlink:title="https://github.com/LogtalkDotOrg/logtalk3/tree/433953586476b77ec2e010e935e90dc85293a20a/core/logtalk.lgt">
<text text-anchor="start" x="174" y="-104.25" font-family="Monospace" font-size="10.00" fill="dimgray">logtalk.lgt</text>
</a>
</g>
</a>
</g>
</g>
<g id="clust7" class="cluster">
<title>cluster_file_/opt/local/share/logtalk/core/core_messages.lgt</title>
<g id="a_clust7"><a xlink:title="core_messages.lgt">
<path fill="snow" stroke="dimgray" d="M404,-208.5C404,-208.5 600,-208.5 600,-208.5 606,-208.5 612,-214.5 612,-220.5 612,-220.5 612,-321.25 612,-321.25 612,-327.25 606,-333.25 600,-333.25 600,-333.25 404,-333.25 404,-333.25 398,-333.25 392,-327.25 392,-321.25 392,-321.25 392,-220.5 392,-220.5 392,-214.5 398,-208.5 404,-208.5"/>
<g id="a_clust7_6"><a xlink:href="https://github.com/LogtalkDotOrg/logtalk3/tree/433953586476b77ec2e010e935e90dc85293a20a/core/core_messages.lgt" xlink:title="https://github.com/LogtalkDotOrg/logtalk3/tree/433953586476b77ec2e010e935e90dc85293a20a/core/core_messages.lgt">
<text text-anchor="start" x="404" y="-219.75" font-family="Monospace" font-size="10.00" fill="dimgray">core_messages.lgt</text>
</a>
</g>
</a>
</g>
</g>
<!-- expanding -->
<g id="node1" class="node">
<title>expanding</title>
<g id="a_node1"><a xlink:href="https://logtalk.org/library/expanding_0.html" xlink:title="https://logtalk.org/library/expanding_0.html">
<polygon fill="aquamarine" stroke="black" points="138,-608.75 28,-608.75 28,-532.75 144,-532.75 144,-602.75 138,-608.75"/>
<polyline fill="none" stroke="black" points="138,-608.75 138,-602.75"/>
<polyline fill="none" stroke="black" points="144,-602.75 138,-602.75"/>
<g id="a_node1_7"><a xlink:href="expanding_protocol_xref_diagram.svg" xlink:title="Zoom">
<image xlink:href="zoom.png" width="11px" height="11px" preserveAspectRatio="xMinYMin meet" x="36" y="-604.75"/>
</a>
</g>
<text text-anchor="start" x="38.88" y="-584.33" font-family="Monospace" font-size="9.00"> </text>
<text text-anchor="start" x="58.62" y="-583.3" font-family="Monospace" font-size="11.00">expanding</text>
<text text-anchor="start" x="130.88" y="-584.33" font-family="Monospace" font-size="9.00"> </text>
<text text-anchor="start" x="38.88" y="-572.2" font-family="Monospace" font-size="9.00"> </text>
<text text-anchor="start" x="50.75" y="-573.1" font-family="Monospace" font-size="7.00">built&#45;in protocol</text>
<text text-anchor="start" x="130.88" y="-572.2" font-family="Monospace" font-size="9.00"> </text>
<text text-anchor="start" x="38.88" y="-561.2" font-family="Monospace" font-size="9.00"> </text>
<text text-anchor="start" x="38.88" y="-550.2" font-family="Monospace" font-size="9.00"> </text>
<text text-anchor="start" x="47" y="-550.2" font-family="Monospace" font-size="9.00">goal_expansion/2</text>
<text text-anchor="start" x="130.88" y="-550.2" font-family="Monospace" font-size="9.00"> </text>
<text text-anchor="start" x="38.88" y="-539.2" font-family="Monospace" font-size="9.00"> </text>
<text text-anchor="start" x="47" y="-539.2" font-family="Monospace" font-size="9.00">term_expansion/2</text>
<text text-anchor="start" x="130.88" y="-539.2" font-family="Monospace" font-size="9.00"> </text>
</a>
</g>
</g>
<!-- monitoring -->
<g id="node2" class="node">
<title>monitoring</title>
<g id="a_node2"><a xlink:href="https://logtalk.org/library/monitoring_0.html" xlink:title="https://logtalk.org/library/monitoring_0.html">
<polygon fill="aquamarine" stroke="black" points="276,-608.75 174,-608.75 174,-532.75 282,-532.75 282,-602.75 276,-608.75"/>
<polyline fill="none" stroke="black" points="276,-608.75 276,-602.75"/>
<polyline fill="none" stroke="black" points="282,-602.75 276,-602.75"/>
<g id="a_node2_8"><a xlink:href="monitoring_protocol_xref_diagram.svg" xlink:title="Zoom">
<image xlink:href="zoom.png" width="11px" height="11px" preserveAspectRatio="xMinYMin meet" x="182" y="-604.75"/>
</a>
</g>
<text text-anchor="start" x="184.88" y="-584.33" font-family="Monospace" font-size="9.00"> </text>
<text text-anchor="start" x="197.25" y="-583.3" font-family="Monospace" font-size="11.00">monitoring</text>
<text text-anchor="start" x="268.88" y="-584.33" font-family="Monospace" font-size="9.00"> </text>
<text text-anchor="start" x="184.88" y="-572.2" font-family="Monospace" font-size="9.00"> </text>
<text text-anchor="start" x="192.75" y="-573.1" font-family="Monospace" font-size="7.00">built&#45;in protocol</text>
<text text-anchor="start" x="268.88" y="-572.2" font-family="Monospace" font-size="9.00"> </text>
<text text-anchor="start" x="184.88" y="-561.2" font-family="Monospace" font-size="9.00"> </text>
<text text-anchor="start" x="184.88" y="-550.2" font-family="Monospace" font-size="9.00"> </text>
<text text-anchor="start" x="210" y="-550.2" font-family="Monospace" font-size="9.00">before/3</text>
<text text-anchor="start" x="268.88" y="-550.2" font-family="Monospace" font-size="9.00"> </text>
<text text-anchor="start" x="184.88" y="-539.2" font-family="Monospace" font-size="9.00"> </text>
<text text-anchor="start" x="212.62" y="-539.2" font-family="Monospace" font-size="9.00">after/3</text>
<text text-anchor="start" x="268.88" y="-539.2" font-family="Monospace" font-size="9.00"> </text>
</a>
</g>
</g>
<!-- forwarding -->
<g id="node3" class="node">
<title>forwarding</title>
<g id="a_node3"><a xlink:href="https://logtalk.org/library/forwarding_0.html" xlink:title="https://logtalk.org/library/forwarding_0.html">
<polygon fill="aquamarine" stroke="black" points="414,-603.25 312,-603.25 312,-538.25 420,-538.25 420,-597.25 414,-603.25"/>
<polyline fill="none" stroke="black" points="414,-603.25 414,-597.25"/>
<polyline fill="none" stroke="black" points="420,-597.25 414,-597.25"/>
<g id="a_node3_9"><a xlink:href="forwarding_protocol_xref_diagram.svg" xlink:title="Zoom">
<image xlink:href="zoom.png" width="11px" height="11px" preserveAspectRatio="xMinYMin meet" x="320" y="-599.25"/>
</a>
</g>
<text text-anchor="start" x="322.88" y="-578.83" font-family="Monospace" font-size="9.00"> </text>
<text text-anchor="start" x="335.25" y="-577.8" font-family="Monospace" font-size="11.00">forwarding</text>
<text text-anchor="start" x="406.88" y="-578.83" font-family="Monospace" font-size="9.00"> </text>
<text text-anchor="start" x="322.88" y="-566.7" font-family="Monospace" font-size="9.00"> </text>
<text text-anchor="start" x="330.75" y="-567.6" font-family="Monospace" font-size="7.00">built&#45;in protocol</text>
<text text-anchor="start" x="406.88" y="-566.7" font-family="Monospace" font-size="9.00"> </text>
<text text-anchor="start" x="322.88" y="-555.7" font-family="Monospace" font-size="9.00"> </text>
<text text-anchor="start" x="322.88" y="-544.7" font-family="Monospace" font-size="9.00"> </text>
<text text-anchor="start" x="345.38" y="-544.7" font-family="Monospace" font-size="9.00">forward/1</text>
<text text-anchor="start" x="406.88" y="-544.7" font-family="Monospace" font-size="9.00"> </text>
</a>
</g>
</g>
<!-- user -->
<g id="node4" class="node">
<title>user</title>
<g id="a_node4"><a xlink:href="https://logtalk.org/library/user_0.html" xlink:title="https://logtalk.org/library/user_0.html">
<polygon fill="cornsilk" stroke="black" points="141.5,-306.75 28.5,-306.75 28.5,-263.75 141.5,-263.75 141.5,-306.75"/>
<g id="a_node4_10"><a xlink:href="user_object_xref_diagram.svg" xlink:title="Zoom">
<image xlink:href="zoom.png" width="11px" height="11px" preserveAspectRatio="xMinYMin meet" x="36.5" y="-302.75"/>
</a>
</g>
<text text-anchor="start" x="39.38" y="-282.32" font-family="Monospace" font-size="9.00"> </text>
<text text-anchor="start" x="74.5" y="-281.3" font-family="Monospace" font-size="11.00">user</text>
<text text-anchor="start" x="128.38" y="-282.32" font-family="Monospace" font-size="9.00"> </text>
<text text-anchor="start" x="39.38" y="-270.2" font-family="Monospace" font-size="9.00"> </text>
<text text-anchor="start" x="47.5" y="-271.1" font-family="Monospace" font-size="7.00">built&#45;in prototype</text>
<text text-anchor="start" x="128.38" y="-270.2" font-family="Monospace" font-size="9.00"> </text>
</a>
</g>
</g>
<!-- user&#45;&gt;expanding -->
<g id="edge1" class="edge">
<title>user&#45;&gt;expanding</title>
<g id="a_edge1"><a xlink:href="https://logtalk.org/library/user_0.html" xlink:title="implements">
<path fill="none" stroke="black" d="M85.07,-307.1C85.23,-352.56 85.62,-461.52 85.84,-523.88"/>
<ellipse fill="black" stroke="black" cx="85.85" cy="-528.23" rx="4" ry="4"/>
</a>
</g>
<g id="a_edge1&#45;label"><a xlink:href="https://logtalk.org/library/user_0.html" xlink:title="https://logtalk.org/library/user_0.html">
<text text-anchor="start" x="85" y="-477.45" font-family="Monospace" font-size="9.00">implements</text>
</a>
</g>
</g>
<!-- user&#45;&gt;monitoring -->
<g id="edge3" class="edge">
<title>user&#45;&gt;monitoring</title>
<g id="a_edge3"><a xlink:href="https://logtalk.org/library/user_0.html" xlink:title="implements">
<path fill="none" stroke="black" d="M93.55,-307.09C106.56,-338.32 132.48,-398.93 158,-448.75 171.17,-474.46 187.23,-502.43 200.64,-524.99"/>
<ellipse fill="black" stroke="black" cx="202.77" cy="-528.56" rx="4" ry="4"/>
</a>
</g>
<g id="a_edge3&#45;label"><a xlink:href="https://logtalk.org/library/user_0.html" xlink:title="https://logtalk.org/library/user_0.html">
<text text-anchor="start" x="178" y="-477.45" font-family="Monospace" font-size="9.00">implements</text>
</a>
</g>
</g>
<!-- user&#45;&gt;forwarding -->
<g id="edge2" class="edge">
<title>user&#45;&gt;forwarding</title>
<g id="a_edge2"><a xlink:href="https://logtalk.org/library/user_0.html" xlink:title="implements">
<path fill="none" stroke="black" d="M88.74,-307.15C95.98,-341.56 115.12,-410.17 158,-448.75 170,-459.54 282.42,-485.28 296,-494 311.27,-503.8 325.42,-517.72 336.94,-530.95"/>
<ellipse fill="black" stroke="black" cx="339.81" cy="-534.34" rx="4" ry="4"/>
</a>
</g>
<g id="a_edge2&#45;label"><a xlink:href="https://logtalk.org/library/user_0.html" xlink:title="https://logtalk.org/library/user_0.html">
<text text-anchor="start" x="271" y="-477.45" font-family="Monospace" font-size="9.00">implements</text>
</a>
</g>
</g>
<!-- logtalk -->
<g id="node5" class="node">
<title>logtalk</title>
<g id="a_node5"><a xlink:href="https://logtalk.org/library/logtalk_0.html" xlink:title="https://logtalk.org/library/logtalk_0.html">
<polygon fill="cornsilk" stroke="black" points="372,-438.75 172,-438.75 172,-131.75 372,-131.75 372,-438.75"/>
<g id="a_node5_11"><a xlink:href="logtalk_object_xref_diagram.svg" xlink:title="Zoom">
<image xlink:href="zoom.png" width="11px" height="11px" preserveAspectRatio="xMinYMin meet" x="180" y="-434.75"/>
</a>
</g>
<text text-anchor="start" x="182.88" y="-414.32" font-family="Monospace" font-size="9.00"> </text>
<text text-anchor="start" x="251.38" y="-413.3" font-family="Monospace" font-size="11.00">logtalk</text>
<text text-anchor="start" x="358.88" y="-414.32" font-family="Monospace" font-size="9.00"> </text>
<text text-anchor="start" x="182.88" y="-402.2" font-family="Monospace" font-size="9.00"> </text>
<text text-anchor="start" x="234.5" y="-403.1" font-family="Monospace" font-size="7.00">built&#45;in prototype</text>
<text text-anchor="start" x="358.88" y="-402.2" font-family="Monospace" font-size="9.00"> </text>
<text text-anchor="start" x="182.88" y="-391.2" font-family="Monospace" font-size="9.00"> </text>
<text text-anchor="start" x="182.88" y="-380.2" font-family="Monospace" font-size="9.00"> </text>
<text text-anchor="start" x="235.62" y="-380.2" font-family="Monospace" font-size="9.00">print_message/3</text>
<text text-anchor="start" x="358.88" y="-380.2" font-family="Monospace" font-size="9.00"> </text>
<text text-anchor="start" x="182.88" y="-369.2" font-family="Monospace" font-size="9.00"> </text>
<text text-anchor="start" x="217.25" y="-369.2" font-family="Monospace" font-size="9.00">print_message_tokens/3</text>
<text text-anchor="start" x="358.88" y="-369.2" font-family="Monospace" font-size="9.00"> </text>
<text text-anchor="start" x="182.88" y="-358.2" font-family="Monospace" font-size="9.00"> </text>
<text text-anchor="start" x="219.88" y="-358.2" font-family="Monospace" font-size="9.00">print_message_token/4</text>
<text text-anchor="start" x="358.88" y="-358.2" font-family="Monospace" font-size="9.00"> </text>
<text text-anchor="start" x="182.88" y="-347.2" font-family="Monospace" font-size="9.00"> </text>
<text text-anchor="start" x="230.38" y="-347.2" font-family="Monospace" font-size="9.00">message_tokens//2</text>
<text text-anchor="start" x="358.88" y="-347.2" font-family="Monospace" font-size="9.00"> </text>
<text text-anchor="start" x="182.88" y="-336.2" font-family="Monospace" font-size="9.00"> </text>
<text text-anchor="start" x="214.62" y="-336.2" font-family="Monospace" font-size="9.00">message_prefix_stream/4</text>
<text text-anchor="start" x="358.88" y="-336.2" font-family="Monospace" font-size="9.00"> </text>
<text text-anchor="start" x="182.88" y="-325.2" font-family="Monospace" font-size="9.00"> </text>
<text text-anchor="start" x="238.25" y="-325.2" font-family="Monospace" font-size="9.00">message_hook/4</text>
<text text-anchor="start" x="358.88" y="-325.2" font-family="Monospace" font-size="9.00"> </text>
<text text-anchor="start" x="182.88" y="-314.2" font-family="Monospace" font-size="9.00"> </text>
<text text-anchor="start" x="238.25" y="-314.2" font-family="Monospace" font-size="9.00">ask_question/5</text>
<text text-anchor="start" x="358.88" y="-314.2" font-family="Monospace" font-size="9.00"> </text>
<text text-anchor="start" x="182.88" y="-303.2" font-family="Monospace" font-size="9.00"> </text>
<text text-anchor="start" x="235.62" y="-303.2" font-family="Monospace" font-size="9.00">question_hook/6</text>
<text text-anchor="start" x="358.88" y="-303.2" font-family="Monospace" font-size="9.00"> </text>
<text text-anchor="start" x="182.88" y="-292.2" font-family="Monospace" font-size="9.00"> </text>
<text text-anchor="start" x="212" y="-292.2" font-family="Monospace" font-size="9.00">question_prompt_stream/4</text>
<text text-anchor="start" x="358.88" y="-292.2" font-family="Monospace" font-size="9.00"> </text>
<text text-anchor="start" x="182.88" y="-281.2" font-family="Monospace" font-size="9.00"> </text>
<text text-anchor="start" x="240.88" y="-281.2" font-family="Monospace" font-size="9.00">trace_event/2</text>
<text text-anchor="start" x="358.88" y="-281.2" font-family="Monospace" font-size="9.00"> </text>
<text text-anchor="start" x="182.88" y="-270.2" font-family="Monospace" font-size="9.00"> </text>
<text text-anchor="start" x="212" y="-270.2" font-family="Monospace" font-size="9.00">debug_handler_provider/1</text>
<text text-anchor="start" x="358.88" y="-270.2" font-family="Monospace" font-size="9.00"> </text>
<text text-anchor="start" x="182.88" y="-259.2" font-family="Monospace" font-size="9.00"> </text>
<text text-anchor="start" x="235.62" y="-259.2" font-family="Monospace" font-size="9.00">debug_handler/2</text>
<text text-anchor="start" x="358.88" y="-259.2" font-family="Monospace" font-size="9.00"> </text>
<text text-anchor="start" x="182.88" y="-248.2" font-family="Monospace" font-size="9.00"> </text>
<text text-anchor="start" x="219.88" y="-248.2" font-family="Monospace" font-size="9.00">expand_library_path/2</text>
<text text-anchor="start" x="358.88" y="-248.2" font-family="Monospace" font-size="9.00"> </text>
<text text-anchor="start" x="182.88" y="-237.2" font-family="Monospace" font-size="9.00"> </text>
<text text-anchor="start" x="240.88" y="-237.2" font-family="Monospace" font-size="9.00">loaded_file/1</text>
<text text-anchor="start" x="358.88" y="-237.2" font-family="Monospace" font-size="9.00"> </text>
<text text-anchor="start" x="182.88" y="-226.2" font-family="Monospace" font-size="9.00"> </text>
<text text-anchor="start" x="217.25" y="-226.2" font-family="Monospace" font-size="9.00">loaded_file_property/2</text>
<text text-anchor="start" x="358.88" y="-226.2" font-family="Monospace" font-size="9.00"> </text>
<text text-anchor="start" x="182.88" y="-215.2" font-family="Monospace" font-size="9.00"> </text>
<text text-anchor="start" x="219.88" y="-215.2" font-family="Monospace" font-size="9.00">file_type_extension/2</text>
<text text-anchor="start" x="358.88" y="-215.2" font-family="Monospace" font-size="9.00"> </text>
<text text-anchor="start" x="182.88" y="-204.2" font-family="Monospace" font-size="9.00"> </text>
<text text-anchor="start" x="219.88" y="-204.2" font-family="Monospace" font-size="9.00">compile_aux_clauses/1</text>
<text text-anchor="start" x="358.88" y="-204.2" font-family="Monospace" font-size="9.00"> </text>
<text text-anchor="start" x="182.88" y="-193.2" font-family="Monospace" font-size="9.00"> </text>
<text text-anchor="start" x="235.62" y="-193.2" font-family="Monospace" font-size="9.00">entity_prefix/2</text>
<text text-anchor="start" x="358.88" y="-193.2" font-family="Monospace" font-size="9.00"> </text>
<text text-anchor="start" x="182.88" y="-182.2" font-family="Monospace" font-size="9.00"> </text>
<text text-anchor="start" x="209.38" y="-182.2" font-family="Monospace" font-size="9.00">compile_predicate_heads/4</text>
<text text-anchor="start" x="358.88" y="-182.2" font-family="Monospace" font-size="9.00"> </text>
<text text-anchor="start" x="182.88" y="-171.2" font-family="Monospace" font-size="9.00"> </text>
<text text-anchor="start" x="196.25" y="-171.2" font-family="Monospace" font-size="9.00">compile_predicate_indicators/3</text>
<text text-anchor="start" x="358.88" y="-171.2" font-family="Monospace" font-size="9.00"> </text>
<text text-anchor="start" x="182.88" y="-160.2" font-family="Monospace" font-size="9.00"> </text>
<text text-anchor="start" x="204.12" y="-160.2" font-family="Monospace" font-size="9.00">decompile_predicate_heads/4</text>
<text text-anchor="start" x="358.88" y="-160.2" font-family="Monospace" font-size="9.00"> </text>
<text text-anchor="start" x="182.88" y="-149.2" font-family="Monospace" font-size="9.00"> </text>
<text text-anchor="start" x="191" y="-149.2" font-family="Monospace" font-size="9.00">decompile_predicate_indicators/4</text>
<text text-anchor="start" x="358.88" y="-149.2" font-family="Monospace" font-size="9.00"> </text>
<text text-anchor="start" x="182.88" y="-138.2" font-family="Monospace" font-size="9.00"> </text>
<text text-anchor="start" x="225.12" y="-138.2" font-family="Monospace" font-size="9.00">execution_context/7</text>
<text text-anchor="start" x="358.88" y="-138.2" font-family="Monospace" font-size="9.00"> </text>
</a>
</g>
</g>
<!-- core_messages -->
<g id="node6" class="node">
<title>core_messages</title>
<g id="a_node6"><a xlink:href="https://logtalk.org/library/core_messages_0.html" xlink:title="https://logtalk.org/library/core_messages_0.html">
<polygon fill="lightcyan" stroke="black" points="602,-323.25 402,-323.25 402,-319.25 398,-319.25 398,-315.25 402,-315.25 402,-255.25 398,-255.25 398,-251.25 402,-251.25 402,-247.25 602,-247.25 602,-323.25"/>
<polyline fill="none" stroke="black" points="402,-319.25 406,-319.25 406,-315.25 402,-315.25"/>
<polyline fill="none" stroke="black" points="402,-255.25 406,-255.25 406,-251.25 402,-251.25"/>
<g id="a_node6_12"><a xlink:href="core_messages_category_xref_diagram.svg" xlink:title="Zoom">
<image xlink:href="zoom.png" width="11px" height="11px" preserveAspectRatio="xMinYMin meet" x="410" y="-319.25"/>
</a>
</g>
<text text-anchor="start" x="412.88" y="-298.82" font-family="Monospace" font-size="9.00"> </text>
<text text-anchor="start" x="461.12" y="-297.8" font-family="Monospace" font-size="11.00">core_messages</text>
<text text-anchor="start" x="588.88" y="-298.82" font-family="Monospace" font-size="9.00"> </text>
<text text-anchor="start" x="412.88" y="-286.7" font-family="Monospace" font-size="9.00"> </text>
<text text-anchor="start" x="466.75" y="-287.6" font-family="Monospace" font-size="7.00">built&#45;in category</text>
<text text-anchor="start" x="588.88" y="-286.7" font-family="Monospace" font-size="9.00"> </text>
<text text-anchor="start" x="412.88" y="-275.7" font-family="Monospace" font-size="9.00"> </text>
<text text-anchor="start" x="412.88" y="-264.7" font-family="Monospace" font-size="9.00"> </text>
<text text-anchor="start" x="421" y="-264.7" font-family="Monospace" font-size="9.00">logtalk::message_prefix_stream/4</text>
<text text-anchor="start" x="588.88" y="-264.7" font-family="Monospace" font-size="9.00"> </text>
<text text-anchor="start" x="412.88" y="-253.7" font-family="Monospace" font-size="9.00"> </text>
<text text-anchor="start" x="436.75" y="-253.7" font-family="Monospace" font-size="9.00">logtalk::message_tokens//2</text>
<text text-anchor="start" x="588.88" y="-253.7" font-family="Monospace" font-size="9.00"> </text>
</a>
</g>
</g>
</g>
</svg>
