<?xml version="1.0" encoding="UTF-8" standalone="no"?>
<?xml-stylesheet href="diagrams.css" type="text/css"?>
<!DOCTYPE svg PUBLIC "-//W3C//DTD SVG 1.1//EN"
 "http://www.w3.org/Graphics/SVG/1.1/DTD/svg11.dtd">
<!-- Generated by graphviz version 11.0.0 (20240428.1522)
 -->
<!-- Title: core Pages: 1 -->
<svg width="782pt" height="822pt"
 viewBox="72.00 72.00 710.00 749.75" xmlns="http://www.w3.org/2000/svg" xmlns:xlink="http://www.w3.org/1999/xlink">
<g id="graph0" class="graph" transform="scale(1 1) rotate(0) translate(76 745.75)">
<title>core</title>
<polygon fill="white" stroke="none" points="-4,4 -4,-673.75 634,-673.75 634,4 -4,4"/>
<text text-anchor="start" x="8" y="-32.75" font-family="Monospace" font-size="10.00" fill="dimgray">Logtalk core entities</text>
<text text-anchor="start" x="8" y="-20" font-family="Monospace" font-size="10.00" fill="dimgray">Inheritance diagram for library core</text>
<text text-anchor="start" x="8" y="-7.25" font-family="Monospace" font-size="10.00" fill="dimgray">Generated on 2024&#45;05&#45;31, 12:00</text>
<g id="clust1" class="cluster">
<title>cluster_library_core</title>
<g id="a_clust1"><a xlink:title="core/">
<path fill="whitesmoke" stroke="dimgray" d="M20,-54.25C20,-54.25 610,-54.25 610,-54.25 616,-54.25 622,-60.25 622,-66.25 622,-66.25 622,-649.75 622,-649.75 622,-655.75 616,-661.75 610,-661.75 610,-661.75 20,-661.75 20,-661.75 14,-661.75 8,-655.75 8,-649.75 8,-649.75 8,-66.25 8,-66.25 8,-60.25 14,-54.25 20,-54.25"/>
<g id="a_clust1_0"><a xlink:href="https://github.com/LogtalkDotOrg/logtalk3/tree/faeaa016291c9ade2dce317498edff78d5735cc1/core/" xlink:title="https://github.com/LogtalkDotOrg/logtalk3/tree/faeaa016291c9ade2dce317498edff78d5735cc1/core/">
<text text-anchor="start" x="20" y="-65.5" font-family="Monospace" font-size="10.00" fill="dimgray">core/</text>
</a>
</g>
</a>
</g>
</g>
<g id="clust2" class="cluster">
<title>cluster_file_/opt/local/share/logtalk/core/expanding.lgt</title>
<g id="a_clust2"><a xlink:title="expanding.lgt">
<path fill="snow" stroke="dimgray" d="M30,-527C30,-527 142,-527 142,-527 148,-527 154,-533 154,-539 154,-539 154,-639.75 154,-639.75 154,-645.75 148,-651.75 142,-651.75 142,-651.75 30,-651.75 30,-651.75 24,-651.75 18,-645.75 18,-639.75 18,-639.75 18,-539 18,-539 18,-533 24,-527 30,-527"/>
<g id="a_clust2_1"><a xlink:href="https://github.com/LogtalkDotOrg/logtalk3/tree/faeaa016291c9ade2dce317498edff78d5735cc1/core/expanding.lgt" xlink:title="https://github.com/LogtalkDotOrg/logtalk3/tree/faeaa016291c9ade2dce317498edff78d5735cc1/core/expanding.lgt">
<text text-anchor="start" x="30" y="-538.25" font-family="Monospace" font-size="10.00" fill="dimgray">expanding.lgt</text>
</a>
</g>
</a>
</g>
</g>
<g id="clust3" class="cluster">
<title>cluster_file_/opt/local/share/logtalk/core/monitoring.lgt</title>
<g id="a_clust3"><a xlink:title="monitoring.lgt">
<path fill="snow" stroke="dimgray" d="M176,-527C176,-527 280,-527 280,-527 286,-527 292,-533 292,-539 292,-539 292,-639.75 292,-639.75 292,-645.75 286,-651.75 280,-651.75 280,-651.75 176,-651.75 176,-651.75 170,-651.75 164,-645.75 164,-639.75 164,-639.75 164,-539 164,-539 164,-533 170,-527 176,-527"/>
<g id="a_clust3_2"><a xlink:href="https://github.com/LogtalkDotOrg/logtalk3/tree/faeaa016291c9ade2dce317498edff78d5735cc1/core/monitoring.lgt" xlink:title="https://github.com/LogtalkDotOrg/logtalk3/tree/faeaa016291c9ade2dce317498edff78d5735cc1/core/monitoring.lgt">
<text text-anchor="start" x="176" y="-538.25" font-family="Monospace" font-size="10.00" fill="dimgray">monitoring.lgt</text>
</a>
</g>
</a>
</g>
</g>
<g id="clust4" class="cluster">
<title>cluster_file_/opt/local/share/logtalk/core/forwarding.lgt</title>
<g id="a_clust4"><a xlink:title="forwarding.lgt">
<path fill="snow" stroke="dimgray" d="M314,-532.5C314,-532.5 418,-532.5 418,-532.5 424,-532.5 430,-538.5 430,-544.5 430,-544.5 430,-634.25 430,-634.25 430,-640.25 424,-646.25 418,-646.25 418,-646.25 314,-646.25 314,-646.25 308,-646.25 302,-640.25 302,-634.25 302,-634.25 302,-544.5 302,-544.5 302,-538.5 308,-532.5 314,-532.5"/>
<g id="a_clust4_3"><a xlink:href="https://github.com/LogtalkDotOrg/logtalk3/tree/faeaa016291c9ade2dce317498edff78d5735cc1/core/forwarding.lgt" xlink:title="https://github.com/LogtalkDotOrg/logtalk3/tree/faeaa016291c9ade2dce317498edff78d5735cc1/core/forwarding.lgt">
<text text-anchor="start" x="314" y="-543.75" font-family="Monospace" font-size="10.00" fill="dimgray">forwarding.lgt</text>
</a>
</g>
</a>
</g>
</g>
<g id="clust5" class="cluster">
<title>cluster_file_/opt/local/share/logtalk/core/user.lgt</title>
<g id="a_clust5"><a xlink:title="user.lgt">
<path fill="snow" stroke="dimgray" d="M30,-241.5C30,-241.5 140,-241.5 140,-241.5 146,-241.5 152,-247.5 152,-253.5 152,-253.5 152,-321.25 152,-321.25 152,-327.25 146,-333.25 140,-333.25 140,-333.25 30,-333.25 30,-333.25 24,-333.25 18,-327.25 18,-321.25 18,-321.25 18,-253.5 18,-253.5 18,-247.5 24,-241.5 30,-241.5"/>
<g id="a_clust5_4"><a xlink:href="https://github.com/LogtalkDotOrg/logtalk3/tree/faeaa016291c9ade2dce317498edff78d5735cc1/core/user.lgt" xlink:title="https://github.com/LogtalkDotOrg/logtalk3/tree/faeaa016291c9ade2dce317498edff78d5735cc1/core/user.lgt">
<text text-anchor="start" x="30" y="-252.75" font-family="Monospace" font-size="10.00" fill="dimgray">user.lgt</text>
</a>
</g>
</a>
</g>
</g>
<g id="clust6" class="cluster">
<title>cluster_file_/opt/local/share/logtalk/core/logtalk.lgt</title>
<g id="a_clust6"><a xlink:title="logtalk.lgt">
<path fill="snow" stroke="dimgray" d="M174,-93C174,-93 370,-93 370,-93 376,-93 382,-99 382,-105 382,-105 382,-469.75 382,-469.75 382,-475.75 376,-481.75 370,-481.75 370,-481.75 174,-481.75 174,-481.75 168,-481.75 162,-475.75 162,-469.75 162,-469.75 162,-105 162,-105 162,-99 168,-93 174,-93"/>
<g id="a_clust6_5"><a xlink:href="https://github.com/LogtalkDotOrg/logtalk3/tree/faeaa016291c9ade2dce317498edff78d5735cc1/core/logtalk.lgt" xlink:title="https://github.com/LogtalkDotOrg/logtalk3/tree/faeaa016291c9ade2dce317498edff78d5735cc1/core/logtalk.lgt">
<text text-anchor="start" x="174" y="-104.25" font-family="Monospace" font-size="10.00" fill="dimgray">logtalk.lgt</text>
</a>
</g>
</a>
</g>
</g>
<g id="clust7" class="cluster">
<title>cluster_file_/opt/local/share/logtalk/core/core_messages.lgt</title>
<g id="a_clust7"><a xlink:title="core_messages.lgt">
<path fill="snow" stroke="dimgray" d="M404,-225C404,-225 600,-225 600,-225 606,-225 612,-231 612,-237 612,-237 612,-337.75 612,-337.75 612,-343.75 606,-349.75 600,-349.75 600,-349.75 404,-349.75 404,-349.75 398,-349.75 392,-343.75 392,-337.75 392,-337.75 392,-237 392,-237 392,-231 398,-225 404,-225"/>
<g id="a_clust7_6"><a xlink:href="https://github.com/LogtalkDotOrg/logtalk3/tree/faeaa016291c9ade2dce317498edff78d5735cc1/core/core_messages.lgt" xlink:title="https://github.com/LogtalkDotOrg/logtalk3/tree/faeaa016291c9ade2dce317498edff78d5735cc1/core/core_messages.lgt">
<text text-anchor="start" x="404" y="-236.25" font-family="Monospace" font-size="10.00" fill="dimgray">core_messages.lgt</text>
</a>
</g>
</a>
</g>
</g>
<!-- expanding -->
<g id="node1" class="node">
<title>expanding</title>
<g id="a_node1"><a xlink:href="https://logtalk.org/library/expanding_0.html" xlink:title="https://logtalk.org/library/expanding_0.html">
<polygon fill="aquamarine" stroke="black" points="138,-641.75 28,-641.75 28,-565.75 144,-565.75 144,-635.75 138,-641.75"/>
<polyline fill="none" stroke="black" points="138,-641.75 138,-635.75"/>
<polyline fill="none" stroke="black" points="144,-635.75 138,-635.75"/>
<g id="a_node1_7"><a xlink:href="expanding_protocol_xref_diagram.svg" xlink:title="Zoom">
<image xlink:href="zoom.png" width="11px" height="11px" preserveAspectRatio="xMinYMin meet" x="36" y="-637.75"/>
</a>
</g>
<text text-anchor="start" x="38.88" y="-617.33" font-family="Monospace" font-size="9.00"> </text>
<text text-anchor="start" x="58.62" y="-616.3" font-family="Monospace" font-size="11.00">expanding</text>
<text text-anchor="start" x="130.88" y="-617.33" font-family="Monospace" font-size="9.00"> </text>
<text text-anchor="start" x="38.88" y="-605.2" font-family="Monospace" font-size="9.00"> </text>
<text text-anchor="start" x="50.75" y="-606.1" font-family="Monospace" font-size="7.00">built&#45;in protocol</text>
<text text-anchor="start" x="130.88" y="-605.2" font-family="Monospace" font-size="9.00"> </text>
<text text-anchor="start" x="38.88" y="-594.2" font-family="Monospace" font-size="9.00"> </text>
<text text-anchor="start" x="38.88" y="-583.2" font-family="Monospace" font-size="9.00"> </text>
<text text-anchor="start" x="47" y="-583.2" font-family="Monospace" font-size="9.00">goal_expansion/2</text>
<text text-anchor="start" x="130.88" y="-583.2" font-family="Monospace" font-size="9.00"> </text>
<text text-anchor="start" x="38.88" y="-572.2" font-family="Monospace" font-size="9.00"> </text>
<text text-anchor="start" x="47" y="-572.2" font-family="Monospace" font-size="9.00">term_expansion/2</text>
<text text-anchor="start" x="130.88" y="-572.2" font-family="Monospace" font-size="9.00"> </text>
</a>
</g>
</g>
<!-- monitoring -->
<g id="node2" class="node">
<title>monitoring</title>
<g id="a_node2"><a xlink:href="https://logtalk.org/library/monitoring_0.html" xlink:title="https://logtalk.org/library/monitoring_0.html">
<polygon fill="aquamarine" stroke="black" points="276,-641.75 174,-641.75 174,-565.75 282,-565.75 282,-635.75 276,-641.75"/>
<polyline fill="none" stroke="black" points="276,-641.75 276,-635.75"/>
<polyline fill="none" stroke="black" points="282,-635.75 276,-635.75"/>
<g id="a_node2_8"><a xlink:href="monitoring_protocol_xref_diagram.svg" xlink:title="Zoom">
<image xlink:href="zoom.png" width="11px" height="11px" preserveAspectRatio="xMinYMin meet" x="182" y="-637.75"/>
</a>
</g>
<text text-anchor="start" x="184.88" y="-617.33" font-family="Monospace" font-size="9.00"> </text>
<text text-anchor="start" x="197.25" y="-616.3" font-family="Monospace" font-size="11.00">monitoring</text>
<text text-anchor="start" x="268.88" y="-617.33" font-family="Monospace" font-size="9.00"> </text>
<text text-anchor="start" x="184.88" y="-605.2" font-family="Monospace" font-size="9.00"> </text>
<text text-anchor="start" x="192.75" y="-606.1" font-family="Monospace" font-size="7.00">built&#45;in protocol</text>
<text text-anchor="start" x="268.88" y="-605.2" font-family="Monospace" font-size="9.00"> </text>
<text text-anchor="start" x="184.88" y="-594.2" font-family="Monospace" font-size="9.00"> </text>
<text text-anchor="start" x="184.88" y="-583.2" font-family="Monospace" font-size="9.00"> </text>
<text text-anchor="start" x="210" y="-583.2" font-family="Monospace" font-size="9.00">before/3</text>
<text text-anchor="start" x="268.88" y="-583.2" font-family="Monospace" font-size="9.00"> </text>
<text text-anchor="start" x="184.88" y="-572.2" font-family="Monospace" font-size="9.00"> </text>
<text text-anchor="start" x="212.62" y="-572.2" font-family="Monospace" font-size="9.00">after/3</text>
<text text-anchor="start" x="268.88" y="-572.2" font-family="Monospace" font-size="9.00"> </text>
</a>
</g>
</g>
<!-- forwarding -->
<g id="node3" class="node">
<title>forwarding</title>
<g id="a_node3"><a xlink:href="https://logtalk.org/library/forwarding_0.html" xlink:title="https://logtalk.org/library/forwarding_0.html">
<polygon fill="aquamarine" stroke="black" points="414,-636.25 312,-636.25 312,-571.25 420,-571.25 420,-630.25 414,-636.25"/>
<polyline fill="none" stroke="black" points="414,-636.25 414,-630.25"/>
<polyline fill="none" stroke="black" points="420,-630.25 414,-630.25"/>
<g id="a_node3_9"><a xlink:href="forwarding_protocol_xref_diagram.svg" xlink:title="Zoom">
<image xlink:href="zoom.png" width="11px" height="11px" preserveAspectRatio="xMinYMin meet" x="320" y="-632.25"/>
</a>
</g>
<text text-anchor="start" x="322.88" y="-611.83" font-family="Monospace" font-size="9.00"> </text>
<text text-anchor="start" x="335.25" y="-610.8" font-family="Monospace" font-size="11.00">forwarding</text>
<text text-anchor="start" x="406.88" y="-611.83" font-family="Monospace" font-size="9.00"> </text>
<text text-anchor="start" x="322.88" y="-599.7" font-family="Monospace" font-size="9.00"> </text>
<text text-anchor="start" x="330.75" y="-600.6" font-family="Monospace" font-size="7.00">built&#45;in protocol</text>
<text text-anchor="start" x="406.88" y="-599.7" font-family="Monospace" font-size="9.00"> </text>
<text text-anchor="start" x="322.88" y="-588.7" font-family="Monospace" font-size="9.00"> </text>
<text text-anchor="start" x="322.88" y="-577.7" font-family="Monospace" font-size="9.00"> </text>
<text text-anchor="start" x="345.38" y="-577.7" font-family="Monospace" font-size="9.00">forward/1</text>
<text text-anchor="start" x="406.88" y="-577.7" font-family="Monospace" font-size="9.00"> </text>
</a>
</g>
</g>
<!-- user -->
<g id="node4" class="node">
<title>user</title>
<g id="a_node4"><a xlink:href="https://logtalk.org/library/user_0.html" xlink:title="https://logtalk.org/library/user_0.html">
<polygon fill="cornsilk" stroke="black" points="141.5,-323.25 28.5,-323.25 28.5,-280.25 141.5,-280.25 141.5,-323.25"/>
<g id="a_node4_10"><a xlink:href="user_object_xref_diagram.svg" xlink:title="Zoom">
<image xlink:href="zoom.png" width="11px" height="11px" preserveAspectRatio="xMinYMin meet" x="36.5" y="-319.25"/>
</a>
</g>
<text text-anchor="start" x="39.38" y="-298.82" font-family="Monospace" font-size="9.00"> </text>
<text text-anchor="start" x="74.5" y="-297.8" font-family="Monospace" font-size="11.00">user</text>
<text text-anchor="start" x="128.38" y="-298.82" font-family="Monospace" font-size="9.00"> </text>
<text text-anchor="start" x="39.38" y="-286.7" font-family="Monospace" font-size="9.00"> </text>
<text text-anchor="start" x="47.5" y="-287.6" font-family="Monospace" font-size="7.00">built&#45;in prototype</text>
<text text-anchor="start" x="128.38" y="-286.7" font-family="Monospace" font-size="9.00"> </text>
</a>
</g>
</g>
<!-- user&#45;&gt;expanding -->
<g id="edge1" class="edge">
<title>user&#45;&gt;expanding</title>
<g id="a_edge1"><a xlink:href="https://logtalk.org/library/user_0.html" xlink:title="implements">
<path fill="none" stroke="black" d="M85.07,-323.37C85.23,-371.1 85.62,-490.15 85.85,-556.4"/>
<ellipse fill="black" stroke="black" cx="85.86" cy="-560.89" rx="4" ry="4"/>
</a>
</g>
<g id="a_edge1&#45;label"><a xlink:href="https://logtalk.org/library/user_0.html" xlink:title="https://logtalk.org/library/user_0.html">
<text text-anchor="start" x="85" y="-510.45" font-family="Monospace" font-size="9.00">implements</text>
</a>
</g>
</g>
<!-- user&#45;&gt;monitoring -->
<g id="edge3" class="edge">
<title>user&#45;&gt;monitoring</title>
<g id="a_edge3"><a xlink:href="https://logtalk.org/library/user_0.html" xlink:title="implements">
<path fill="none" stroke="black" d="M92.42,-323.55C104.72,-357.35 130.67,-426 158,-481.75 170.62,-507.48 186.49,-535.22 199.92,-557.63"/>
<ellipse fill="black" stroke="black" cx="202.24" cy="-561.48" rx="4" ry="4"/>
</a>
</g>
<g id="a_edge3&#45;label"><a xlink:href="https://logtalk.org/library/user_0.html" xlink:title="https://logtalk.org/library/user_0.html">
<text text-anchor="start" x="175" y="-510.45" font-family="Monospace" font-size="9.00">implements</text>
</a>
</g>
</g>
<!-- user&#45;&gt;forwarding -->
<g id="edge2" class="edge">
<title>user&#45;&gt;forwarding</title>
<g id="a_edge2"><a xlink:href="https://logtalk.org/library/user_0.html" xlink:title="implements">
<path fill="none" stroke="black" d="M87.75,-323.64C93.74,-360.73 111.35,-438.27 158,-481.75 181.61,-503.75 268.84,-509.56 296,-527 311.27,-536.8 325.42,-550.72 336.94,-563.95"/>
<ellipse fill="black" stroke="black" cx="339.81" cy="-567.34" rx="4" ry="4"/>
</a>
</g>
<g id="a_edge2&#45;label"><a xlink:href="https://logtalk.org/library/user_0.html" xlink:title="https://logtalk.org/library/user_0.html">
<text text-anchor="start" x="276" y="-510.45" font-family="Monospace" font-size="9.00">implements</text>
</a>
</g>
</g>
<!-- logtalk -->
<g id="node5" class="node">
<title>logtalk</title>
<g id="a_node5"><a xlink:href="https://logtalk.org/library/logtalk_0.html" xlink:title="https://logtalk.org/library/logtalk_0.html">
<polygon fill="cornsilk" stroke="black" points="372,-471.75 172,-471.75 172,-131.75 372,-131.75 372,-471.75"/>
<g id="a_node5_11"><a xlink:href="logtalk_object_xref_diagram.svg" xlink:title="Zoom">
<image xlink:href="zoom.png" width="11px" height="11px" preserveAspectRatio="xMinYMin meet" x="180" y="-467.75"/>
</a>
</g>
<text text-anchor="start" x="182.88" y="-447.32" font-family="Monospace" font-size="9.00"> </text>
<text text-anchor="start" x="251.38" y="-446.3" font-family="Monospace" font-size="11.00">logtalk</text>
<text text-anchor="start" x="358.88" y="-447.32" font-family="Monospace" font-size="9.00"> </text>
<text text-anchor="start" x="182.88" y="-435.2" font-family="Monospace" font-size="9.00"> </text>
<text text-anchor="start" x="234.5" y="-436.1" font-family="Monospace" font-size="7.00">built&#45;in prototype</text>
<text text-anchor="start" x="358.88" y="-435.2" font-family="Monospace" font-size="9.00"> </text>
<text text-anchor="start" x="182.88" y="-424.2" font-family="Monospace" font-size="9.00"> </text>
<text text-anchor="start" x="182.88" y="-413.2" font-family="Monospace" font-size="9.00"> </text>
<text text-anchor="start" x="235.62" y="-413.2" font-family="Monospace" font-size="9.00">print_message/3</text>
<text text-anchor="start" x="358.88" y="-413.2" font-family="Monospace" font-size="9.00"> </text>
<text text-anchor="start" x="182.88" y="-402.2" font-family="Monospace" font-size="9.00"> </text>
<text text-anchor="start" x="217.25" y="-402.2" font-family="Monospace" font-size="9.00">print_message_tokens/3</text>
<text text-anchor="start" x="358.88" y="-402.2" font-family="Monospace" font-size="9.00"> </text>
<text text-anchor="start" x="182.88" y="-391.2" font-family="Monospace" font-size="9.00"> </text>
<text text-anchor="start" x="219.88" y="-391.2" font-family="Monospace" font-size="9.00">print_message_token/4</text>
<text text-anchor="start" x="358.88" y="-391.2" font-family="Monospace" font-size="9.00"> </text>
<text text-anchor="start" x="182.88" y="-380.2" font-family="Monospace" font-size="9.00"> </text>
<text text-anchor="start" x="230.38" y="-380.2" font-family="Monospace" font-size="9.00">message_tokens//2</text>
<text text-anchor="start" x="358.88" y="-380.2" font-family="Monospace" font-size="9.00"> </text>
<text text-anchor="start" x="182.88" y="-369.2" font-family="Monospace" font-size="9.00"> </text>
<text text-anchor="start" x="214.62" y="-369.2" font-family="Monospace" font-size="9.00">message_prefix_stream/4</text>
<text text-anchor="start" x="358.88" y="-369.2" font-family="Monospace" font-size="9.00"> </text>
<text text-anchor="start" x="182.88" y="-358.2" font-family="Monospace" font-size="9.00"> </text>
<text text-anchor="start" x="238.25" y="-358.2" font-family="Monospace" font-size="9.00">message_hook/4</text>
<text text-anchor="start" x="358.88" y="-358.2" font-family="Monospace" font-size="9.00"> </text>
<text text-anchor="start" x="182.88" y="-347.2" font-family="Monospace" font-size="9.00"> </text>
<text text-anchor="start" x="238.25" y="-347.2" font-family="Monospace" font-size="9.00">ask_question/5</text>
<text text-anchor="start" x="358.88" y="-347.2" font-family="Monospace" font-size="9.00"> </text>
<text text-anchor="start" x="182.88" y="-336.2" font-family="Monospace" font-size="9.00"> </text>
<text text-anchor="start" x="235.62" y="-336.2" font-family="Monospace" font-size="9.00">question_hook/6</text>
<text text-anchor="start" x="358.88" y="-336.2" font-family="Monospace" font-size="9.00"> </text>
<text text-anchor="start" x="182.88" y="-325.2" font-family="Monospace" font-size="9.00"> </text>
<text text-anchor="start" x="212" y="-325.2" font-family="Monospace" font-size="9.00">question_prompt_stream/4</text>
<text text-anchor="start" x="358.88" y="-325.2" font-family="Monospace" font-size="9.00"> </text>
<text text-anchor="start" x="182.88" y="-314.2" font-family="Monospace" font-size="9.00"> </text>
<text text-anchor="start" x="240.88" y="-314.2" font-family="Monospace" font-size="9.00">trace_event/2</text>
<text text-anchor="start" x="358.88" y="-314.2" font-family="Monospace" font-size="9.00"> </text>
<text text-anchor="start" x="182.88" y="-303.2" font-family="Monospace" font-size="9.00"> </text>
<text text-anchor="start" x="235.62" y="-303.2" font-family="Monospace" font-size="9.00">debug_handler/1</text>
<text text-anchor="start" x="358.88" y="-303.2" font-family="Monospace" font-size="9.00"> </text>
<text text-anchor="start" x="182.88" y="-292.2" font-family="Monospace" font-size="9.00"> </text>
<text text-anchor="start" x="217.25" y="-292.2" font-family="Monospace" font-size="9.00">active_debug_handler/1</text>
<text text-anchor="start" x="358.88" y="-292.2" font-family="Monospace" font-size="9.00"> </text>
<text text-anchor="start" x="182.88" y="-281.2" font-family="Monospace" font-size="9.00"> </text>
<text text-anchor="start" x="212" y="-281.2" font-family="Monospace" font-size="9.00">activate_debug_handler/1</text>
<text text-anchor="start" x="358.88" y="-281.2" font-family="Monospace" font-size="9.00"> </text>
<text text-anchor="start" x="182.88" y="-270.2" font-family="Monospace" font-size="9.00"> </text>
<text text-anchor="start" x="206.75" y="-270.2" font-family="Monospace" font-size="9.00">deactivate_debug_handler/0</text>
<text text-anchor="start" x="358.88" y="-270.2" font-family="Monospace" font-size="9.00"> </text>
<text text-anchor="start" x="182.88" y="-259.2" font-family="Monospace" font-size="9.00"> </text>
<text text-anchor="start" x="235.62" y="-259.2" font-family="Monospace" font-size="9.00">debug_handler/3</text>
<text text-anchor="start" x="358.88" y="-259.2" font-family="Monospace" font-size="9.00"> </text>
<text text-anchor="start" x="182.88" y="-248.2" font-family="Monospace" font-size="9.00"> </text>
<text text-anchor="start" x="219.88" y="-248.2" font-family="Monospace" font-size="9.00">expand_library_path/2</text>
<text text-anchor="start" x="358.88" y="-248.2" font-family="Monospace" font-size="9.00"> </text>
<text text-anchor="start" x="182.88" y="-237.2" font-family="Monospace" font-size="9.00"> </text>
<text text-anchor="start" x="240.88" y="-237.2" font-family="Monospace" font-size="9.00">loaded_file/1</text>
<text text-anchor="start" x="358.88" y="-237.2" font-family="Monospace" font-size="9.00"> </text>
<text text-anchor="start" x="182.88" y="-226.2" font-family="Monospace" font-size="9.00"> </text>
<text text-anchor="start" x="217.25" y="-226.2" font-family="Monospace" font-size="9.00">loaded_file_property/2</text>
<text text-anchor="start" x="358.88" y="-226.2" font-family="Monospace" font-size="9.00"> </text>
<text text-anchor="start" x="182.88" y="-215.2" font-family="Monospace" font-size="9.00"> </text>
<text text-anchor="start" x="219.88" y="-215.2" font-family="Monospace" font-size="9.00">file_type_extension/2</text>
<text text-anchor="start" x="358.88" y="-215.2" font-family="Monospace" font-size="9.00"> </text>
<text text-anchor="start" x="182.88" y="-204.2" font-family="Monospace" font-size="9.00"> </text>
<text text-anchor="start" x="219.88" y="-204.2" font-family="Monospace" font-size="9.00">compile_aux_clauses/1</text>
<text text-anchor="start" x="358.88" y="-204.2" font-family="Monospace" font-size="9.00"> </text>
<text text-anchor="start" x="182.88" y="-193.2" font-family="Monospace" font-size="9.00"> </text>
<text text-anchor="start" x="235.62" y="-193.2" font-family="Monospace" font-size="9.00">entity_prefix/2</text>
<text text-anchor="start" x="358.88" y="-193.2" font-family="Monospace" font-size="9.00"> </text>
<text text-anchor="start" x="182.88" y="-182.2" font-family="Monospace" font-size="9.00"> </text>
<text text-anchor="start" x="209.38" y="-182.2" font-family="Monospace" font-size="9.00">compile_predicate_heads/4</text>
<text text-anchor="start" x="358.88" y="-182.2" font-family="Monospace" font-size="9.00"> </text>
<text text-anchor="start" x="182.88" y="-171.2" font-family="Monospace" font-size="9.00"> </text>
<text text-anchor="start" x="196.25" y="-171.2" font-family="Monospace" font-size="9.00">compile_predicate_indicators/3</text>
<text text-anchor="start" x="358.88" y="-171.2" font-family="Monospace" font-size="9.00"> </text>
<text text-anchor="start" x="182.88" y="-160.2" font-family="Monospace" font-size="9.00"> </text>
<text text-anchor="start" x="204.12" y="-160.2" font-family="Monospace" font-size="9.00">decompile_predicate_heads/4</text>
<text text-anchor="start" x="358.88" y="-160.2" font-family="Monospace" font-size="9.00"> </text>
<text text-anchor="start" x="182.88" y="-149.2" font-family="Monospace" font-size="9.00"> </text>
<text text-anchor="start" x="191" y="-149.2" font-family="Monospace" font-size="9.00">decompile_predicate_indicators/4</text>
<text text-anchor="start" x="358.88" y="-149.2" font-family="Monospace" font-size="9.00"> </text>
<text text-anchor="start" x="182.88" y="-138.2" font-family="Monospace" font-size="9.00"> </text>
<text text-anchor="start" x="225.12" y="-138.2" font-family="Monospace" font-size="9.00">execution_context/7</text>
<text text-anchor="start" x="358.88" y="-138.2" font-family="Monospace" font-size="9.00"> </text>
</a>
</g>
</g>
<!-- core_messages -->
<g id="node6" class="node">
<title>core_messages</title>
<g id="a_node6"><a xlink:href="https://logtalk.org/library/core_messages_0.html" xlink:title="https://logtalk.org/library/core_messages_0.html">
<polygon fill="lightcyan" stroke="black" points="602,-339.75 402,-339.75 402,-335.75 398,-335.75 398,-331.75 402,-331.75 402,-271.75 398,-271.75 398,-267.75 402,-267.75 402,-263.75 602,-263.75 602,-339.75"/>
<polyline fill="none" stroke="black" points="402,-335.75 406,-335.75 406,-331.75 402,-331.75"/>
<polyline fill="none" stroke="black" points="402,-271.75 406,-271.75 406,-267.75 402,-267.75"/>
<g id="a_node6_12"><a xlink:href="core_messages_category_xref_diagram.svg" xlink:title="Zoom">
<image xlink:href="zoom.png" width="11px" height="11px" preserveAspectRatio="xMinYMin meet" x="410" y="-335.75"/>
</a>
</g>
<text text-anchor="start" x="412.88" y="-315.32" font-family="Monospace" font-size="9.00"> </text>
<text text-anchor="start" x="461.12" y="-314.3" font-family="Monospace" font-size="11.00">core_messages</text>
<text text-anchor="start" x="588.88" y="-315.32" font-family="Monospace" font-size="9.00"> </text>
<text text-anchor="start" x="412.88" y="-303.2" font-family="Monospace" font-size="9.00"> </text>
<text text-anchor="start" x="466.75" y="-304.1" font-family="Monospace" font-size="7.00">built&#45;in category</text>
<text text-anchor="start" x="588.88" y="-303.2" font-family="Monospace" font-size="9.00"> </text>
<text text-anchor="start" x="412.88" y="-292.2" font-family="Monospace" font-size="9.00"> </text>
<text text-anchor="start" x="412.88" y="-281.2" font-family="Monospace" font-size="9.00"> </text>
<text text-anchor="start" x="421" y="-281.2" font-family="Monospace" font-size="9.00">logtalk::message_prefix_stream/4</text>
<text text-anchor="start" x="588.88" y="-281.2" font-family="Monospace" font-size="9.00"> </text>
<text text-anchor="start" x="412.88" y="-270.2" font-family="Monospace" font-size="9.00"> </text>
<text text-anchor="start" x="436.75" y="-270.2" font-family="Monospace" font-size="9.00">logtalk::message_tokens//2</text>
<text text-anchor="start" x="588.88" y="-270.2" font-family="Monospace" font-size="9.00"> </text>
</a>
</g>
</g>
</g>
</svg>
