<?xml version="1.0" encoding="UTF-8" standalone="no"?>
<!DOCTYPE svg PUBLIC "-//W3C//DTD SVG 1.1//EN"
 "http://www.w3.org/Graphics/SVG/1.1/DTD/svg11.dtd">
<!-- Generated by graphviz version 2.40.1 (20161225.0304)
 -->
<!-- Title: core Pages: 1 -->
<svg width="926pt" height="831pt"
 viewBox="72.00 72.00 854.00 759.00" xmlns="http://www.w3.org/2000/svg" xmlns:xlink="http://www.w3.org/1999/xlink">
<g id="graph0" class="graph" transform="scale(1 1) rotate(0) translate(76 755)">
<title>core</title>
<polygon fill="#ffffff" stroke="transparent" points="-4,4 -4,-683 778,-683 778,4 -4,4"/>
<text text-anchor="start" x="8" y="-29" font-family="Courier,monospace" font-size="10.00" fill="#8b8989">Logtalk core entities</text>
<text text-anchor="start" x="8" y="-18" font-family="Courier,monospace" font-size="10.00" fill="#8b8989">Inheritance diagram for library core</text>
<text text-anchor="start" x="8" y="-7" font-family="Courier,monospace" font-size="10.00" fill="#8b8989">Generated on 2019/04/23, 18:56</text>
<g id="clust1" class="cluster">
<title>cluster_library_core</title>
<g id="a_clust1"><a xlink:href="https://github.com/LogtalkDotOrg/logtalk3/tree/master/core/" xlink:title="https://github.com/LogtalkDotOrg/logtalk3/tree/master/core/">
<path fill="#f5f5f5" stroke="#8b8989" d="M20,-49C20,-49 754,-49 754,-49 760,-49 766,-55 766,-61 766,-61 766,-659 766,-659 766,-665 760,-671 754,-671 754,-671 20,-671 20,-671 14,-671 8,-665 8,-659 8,-659 8,-61 8,-61 8,-55 14,-49 20,-49"/>
<text text-anchor="middle" x="31.5" y="-56" font-family="Courier,monospace" font-size="10.00" fill="#8b8989">core/</text>
</a>
</g>
</g>
<g id="clust2" class="cluster">
<title>cluster_file_/opt/local/share/logtalk/core/expanding.lgt</title>
<g id="a_clust2"><a xlink:href="https://github.com/LogtalkDotOrg/logtalk3/tree/master/core/expanding.lgt" xlink:title="https://github.com/LogtalkDotOrg/logtalk3/tree/master/core/expanding.lgt">
<path fill="#fffafa" stroke="#8b8989" d="M436,-551C436,-551 552,-551 552,-551 558,-551 564,-557 564,-563 564,-563 564,-649 564,-649 564,-655 558,-661 552,-661 552,-661 436,-661 436,-661 430,-661 424,-655 424,-649 424,-649 424,-563 424,-563 424,-557 430,-551 436,-551"/>
<text text-anchor="middle" x="471.5" y="-558" font-family="Courier,monospace" font-size="10.00" fill="#8b8989">expanding.lgt</text>
</a>
</g>
</g>
<g id="clust3" class="cluster">
<title>cluster_file_/opt/local/share/logtalk/core/monitoring.lgt</title>
<g id="a_clust3"><a xlink:href="https://github.com/LogtalkDotOrg/logtalk3/tree/master/core/monitoring.lgt" xlink:title="https://github.com/LogtalkDotOrg/logtalk3/tree/master/core/monitoring.lgt">
<path fill="#fffafa" stroke="#8b8989" d="M642,-183C642,-183 744,-183 744,-183 750,-183 756,-189 756,-195 756,-195 756,-281 756,-281 756,-287 750,-293 744,-293 744,-293 642,-293 642,-293 636,-293 630,-287 630,-281 630,-281 630,-195 630,-195 630,-189 636,-183 642,-183"/>
<text text-anchor="middle" x="680.5" y="-190" font-family="Courier,monospace" font-size="10.00" fill="#8b8989">monitoring.lgt</text>
</a>
</g>
</g>
<g id="clust4" class="cluster">
<title>cluster_file_/opt/local/share/logtalk/core/forwarding.lgt</title>
<g id="a_clust4"><a xlink:href="https://github.com/LogtalkDotOrg/logtalk3/tree/master/core/forwarding.lgt" xlink:title="https://github.com/LogtalkDotOrg/logtalk3/tree/master/core/forwarding.lgt">
<path fill="#fffafa" stroke="#8b8989" d="M586,-556C586,-556 688,-556 688,-556 694,-556 700,-562 700,-568 700,-568 700,-644 700,-644 700,-650 694,-656 688,-656 688,-656 586,-656 586,-656 580,-656 574,-650 574,-644 574,-644 574,-568 574,-568 574,-562 580,-556 586,-556"/>
<text text-anchor="middle" x="624.5" y="-563" font-family="Courier,monospace" font-size="10.00" fill="#8b8989">forwarding.lgt</text>
</a>
</g>
</g>
<g id="clust5" class="cluster">
<title>cluster_file_/opt/local/share/logtalk/core/user.lgt</title>
<g id="a_clust5"><a xlink:href="https://github.com/LogtalkDotOrg/logtalk3/tree/master/core/user.lgt" xlink:title="https://github.com/LogtalkDotOrg/logtalk3/tree/master/core/user.lgt">
<path fill="#fffafa" stroke="#8b8989" d="M502,-198C502,-198 608,-198 608,-198 614,-198 620,-204 620,-210 620,-210 620,-266 620,-266 620,-272 614,-278 608,-278 608,-278 502,-278 502,-278 496,-278 490,-272 490,-266 490,-266 490,-210 490,-210 490,-204 496,-198 502,-198"/>
<text text-anchor="middle" x="522.5" y="-205" font-family="Courier,monospace" font-size="10.00" fill="#8b8989">user.lgt</text>
</a>
</g>
</g>
<g id="clust6" class="cluster">
<title>cluster_file_/opt/local/share/logtalk/core/logtalk.lgt</title>
<g id="a_clust6"><a xlink:href="https://github.com/LogtalkDotOrg/logtalk3/tree/master/core/logtalk.lgt" xlink:title="https://github.com/LogtalkDotOrg/logtalk3/tree/master/core/logtalk.lgt">
<path fill="#fffafa" stroke="#8b8989" d="M266,-78C266,-78 468,-78 468,-78 474,-78 480,-84 480,-90 480,-90 480,-386 480,-386 480,-392 474,-398 468,-398 468,-398 266,-398 266,-398 260,-398 254,-392 254,-386 254,-386 254,-90 254,-90 254,-84 260,-78 266,-78"/>
<text text-anchor="middle" x="295.5" y="-85" font-family="Courier,monospace" font-size="10.00" fill="#8b8989">logtalk.lgt</text>
</a>
</g>
</g>
<g id="clust7" class="cluster">
<title>cluster_file_/opt/local/share/logtalk/core/core_messages.lgt</title>
<g id="a_clust7"><a xlink:href="https://github.com/LogtalkDotOrg/logtalk3/tree/master/core/core_messages.lgt" xlink:title="https://github.com/LogtalkDotOrg/logtalk3/tree/master/core/core_messages.lgt">
<path fill="#fffafa" stroke="#8b8989" d="M30,-183C30,-183 232,-183 232,-183 238,-183 244,-189 244,-195 244,-195 244,-281 244,-281 244,-287 238,-293 232,-293 232,-293 30,-293 30,-293 24,-293 18,-287 18,-281 18,-281 18,-195 18,-195 18,-189 24,-183 30,-183"/>
<text text-anchor="middle" x="77.5" y="-190" font-family="Courier,monospace" font-size="10.00" fill="#8b8989">core_messages.lgt</text>
</a>
</g>
</g>
<!-- expanding -->
<g id="node1" class="node">
<title>expanding</title>
<g id="a_node1"><a xlink:href="https://logtalk.org/library/expanding_0.html" xlink:title="https://logtalk.org/library/expanding_0.html">
<polygon fill="#7fffd4" stroke="#000000" points="548,-651 434,-651 434,-580 554,-580 554,-645 548,-651"/>
<polyline fill="none" stroke="#000000" points="548,-651 548,-645 "/>
<polyline fill="none" stroke="#000000" points="554,-645 548,-645 "/>
<g id="a_node1_0"><a xlink:href="expanding_protocol_xref_diagram.svg" xlink:title="Zoom">
<image xlink:href="zoom.png" width="11px" height="11px" preserveAspectRatio="xMinYMin meet" x="442" y="-646.5"/>
</a>
</g>
<text text-anchor="start" x="444.5" y="-627.3" font-family="Courier,monospace" font-size="9.00" fill="#000000"> </text>
<text text-anchor="start" x="466.5" y="-626.7" font-family="Courier,monospace" font-size="11.00" fill="#000000">expanding</text>
<text text-anchor="start" x="540" y="-627.3" font-family="Courier,monospace" font-size="9.00" fill="#000000"> </text>
<text text-anchor="start" x="444.5" y="-616.3" font-family="Courier,monospace" font-size="9.00" fill="#000000"> </text>
<text text-anchor="start" x="460.5" y="-616.9" font-family="Courier,monospace" font-size="7.00" fill="#000000">built&#45;in protocol</text>
<text text-anchor="start" x="540" y="-616.3" font-family="Courier,monospace" font-size="9.00" fill="#000000"> </text>
<text text-anchor="start" x="444.5" y="-606.3" font-family="Courier,monospace" font-size="9.00" fill="#000000"> </text>
<text text-anchor="start" x="444.5" y="-596.3" font-family="Courier,monospace" font-size="9.00" fill="#000000"> </text>
<text text-anchor="start" x="453" y="-596.3" font-family="Courier,monospace" font-size="9.00" fill="#000000">goal_expansion/2</text>
<text text-anchor="start" x="540" y="-596.3" font-family="Courier,monospace" font-size="9.00" fill="#000000"> </text>
<text text-anchor="start" x="444.5" y="-586.3" font-family="Courier,monospace" font-size="9.00" fill="#000000"> </text>
<text text-anchor="start" x="453" y="-586.3" font-family="Courier,monospace" font-size="9.00" fill="#000000">term_expansion/2</text>
<text text-anchor="start" x="540" y="-586.3" font-family="Courier,monospace" font-size="9.00" fill="#000000"> </text>
</a>
</g>
</g>
<!-- monitoring -->
<g id="node2" class="node">
<title>monitoring</title>
<g id="a_node2"><a xlink:href="https://logtalk.org/library/monitoring_0.html" xlink:title="https://logtalk.org/library/monitoring_0.html">
<polygon fill="#7fffd4" stroke="#000000" points="739.5,-283 640.5,-283 640.5,-212 745.5,-212 745.5,-277 739.5,-283"/>
<polyline fill="none" stroke="#000000" points="739.5,-283 739.5,-277 "/>
<polyline fill="none" stroke="#000000" points="745.5,-277 739.5,-277 "/>
<g id="a_node2_1"><a xlink:href="monitoring_protocol_xref_diagram.svg" xlink:title="Zoom">
<image xlink:href="zoom.png" width="11px" height="11px" preserveAspectRatio="xMinYMin meet" x="649" y="-278.5"/>
</a>
</g>
<text text-anchor="start" x="651.5" y="-259.3" font-family="Courier,monospace" font-size="9.00" fill="#000000"> </text>
<text text-anchor="start" x="662.5" y="-258.7" font-family="Courier,monospace" font-size="11.00" fill="#000000">monitoring</text>
<text text-anchor="start" x="732" y="-259.3" font-family="Courier,monospace" font-size="9.00" fill="#000000"> </text>
<text text-anchor="start" x="651.5" y="-248.3" font-family="Courier,monospace" font-size="9.00" fill="#000000"> </text>
<text text-anchor="start" x="660" y="-248.9" font-family="Courier,monospace" font-size="7.00" fill="#000000">built&#45;in protocol</text>
<text text-anchor="start" x="732" y="-248.3" font-family="Courier,monospace" font-size="9.00" fill="#000000"> </text>
<text text-anchor="start" x="651.5" y="-238.3" font-family="Courier,monospace" font-size="9.00" fill="#000000"> </text>
<text text-anchor="start" x="651.5" y="-228.3" font-family="Courier,monospace" font-size="9.00" fill="#000000"> </text>
<text text-anchor="start" x="674" y="-228.3" font-family="Courier,monospace" font-size="9.00" fill="#000000">before/3</text>
<text text-anchor="start" x="732" y="-228.3" font-family="Courier,monospace" font-size="9.00" fill="#000000"> </text>
<text text-anchor="start" x="651.5" y="-218.3" font-family="Courier,monospace" font-size="9.00" fill="#000000"> </text>
<text text-anchor="start" x="677" y="-218.3" font-family="Courier,monospace" font-size="9.00" fill="#000000">after/3</text>
<text text-anchor="start" x="732" y="-218.3" font-family="Courier,monospace" font-size="9.00" fill="#000000"> </text>
</a>
</g>
</g>
<!-- forwarding -->
<g id="node3" class="node">
<title>forwarding</title>
<g id="a_node3"><a xlink:href="https://logtalk.org/library/forwarding_0.html" xlink:title="https://logtalk.org/library/forwarding_0.html">
<polygon fill="#7fffd4" stroke="#000000" points="683.5,-646 584.5,-646 584.5,-585 689.5,-585 689.5,-640 683.5,-646"/>
<polyline fill="none" stroke="#000000" points="683.5,-646 683.5,-640 "/>
<polyline fill="none" stroke="#000000" points="689.5,-640 683.5,-640 "/>
<g id="a_node3_2"><a xlink:href="forwarding_protocol_xref_diagram.svg" xlink:title="Zoom">
<image xlink:href="zoom.png" width="11px" height="11px" preserveAspectRatio="xMinYMin meet" x="593" y="-641.5"/>
</a>
</g>
<text text-anchor="start" x="595.5" y="-622.3" font-family="Courier,monospace" font-size="9.00" fill="#000000"> </text>
<text text-anchor="start" x="606.5" y="-621.7" font-family="Courier,monospace" font-size="11.00" fill="#000000">forwarding</text>
<text text-anchor="start" x="676" y="-622.3" font-family="Courier,monospace" font-size="9.00" fill="#000000"> </text>
<text text-anchor="start" x="595.5" y="-611.3" font-family="Courier,monospace" font-size="9.00" fill="#000000"> </text>
<text text-anchor="start" x="604" y="-611.9" font-family="Courier,monospace" font-size="7.00" fill="#000000">built&#45;in protocol</text>
<text text-anchor="start" x="676" y="-611.3" font-family="Courier,monospace" font-size="9.00" fill="#000000"> </text>
<text text-anchor="start" x="595.5" y="-601.3" font-family="Courier,monospace" font-size="9.00" fill="#000000"> </text>
<text text-anchor="start" x="595.5" y="-591.3" font-family="Courier,monospace" font-size="9.00" fill="#000000"> </text>
<text text-anchor="start" x="615.5" y="-591.3" font-family="Courier,monospace" font-size="9.00" fill="#000000">forward/1</text>
<text text-anchor="start" x="676" y="-591.3" font-family="Courier,monospace" font-size="9.00" fill="#000000"> </text>
</a>
</g>
</g>
<!-- user -->
<g id="node4" class="node">
<title>user</title>
<g id="a_node4"><a xlink:href="https://logtalk.org/library/user_0.html" xlink:title="https://logtalk.org/library/user_0.html">
<polygon fill="#fff8dc" stroke="#000000" points="609.5,-268 500.5,-268 500.5,-227 609.5,-227 609.5,-268"/>
<g id="a_node4_3"><a xlink:href="user_object_xref_diagram.svg" xlink:title="Zoom">
<image xlink:href="zoom.png" width="11px" height="11px" preserveAspectRatio="xMinYMin meet" x="509" y="-263.5"/>
</a>
</g>
<text text-anchor="start" x="511.5" y="-244.3" font-family="Courier,monospace" font-size="9.00" fill="#000000"> </text>
<text text-anchor="start" x="544.5" y="-243.7" font-family="Courier,monospace" font-size="11.00" fill="#000000">user</text>
<text text-anchor="start" x="596" y="-244.3" font-family="Courier,monospace" font-size="9.00" fill="#000000"> </text>
<text text-anchor="start" x="511.5" y="-233.3" font-family="Courier,monospace" font-size="9.00" fill="#000000"> </text>
<text text-anchor="start" x="520" y="-233.9" font-family="Courier,monospace" font-size="7.00" fill="#000000">built&#45;in prototype</text>
<text text-anchor="start" x="596" y="-233.3" font-family="Courier,monospace" font-size="9.00" fill="#000000"> </text>
</a>
</g>
</g>
<!-- user&#45;&gt;expanding -->
<g id="edge1" class="edge">
<title>user&#45;&gt;expanding</title>
<g id="a_edge1"><a xlink:href="https://logtalk.org/library/user_0.html" xlink:title="implements">
<path fill="none" stroke="#000000" d="M551.5897,-268.0738C541.979,-326.053 514.5155,-491.7345 501.2907,-571.5165"/>
<ellipse fill="#000000" stroke="#000000" cx="500.5575" cy="-575.94" rx="4" ry="4"/>
</a>
</g>
<g id="a_edge1&#45;label"><a xlink:href="https://logtalk.org/library/user_0.html" xlink:title="https://logtalk.org/library/user_0.html">
<text text-anchor="start" x="516" y="-481.8" font-family="Courier,monospace" font-size="9.00" fill="#000000">implements</text>
</a>
</g>
</g>
<!-- user&#45;&gt;forwarding -->
<g id="edge2" class="edge">
<title>user&#45;&gt;forwarding</title>
<g id="a_edge2"><a xlink:href="https://logtalk.org/library/user_0.html" xlink:title="implements">
<path fill="none" stroke="#000000" d="M559.5844,-268.0738C572.7965,-327.3674 611.108,-499.3018 628.3784,-576.8078"/>
<ellipse fill="#000000" stroke="#000000" cx="629.3102" cy="-580.9897" rx="4" ry="4"/>
</a>
</g>
<g id="a_edge2&#45;label"><a xlink:href="https://logtalk.org/library/user_0.html" xlink:title="https://logtalk.org/library/user_0.html">
<text text-anchor="start" x="608" y="-481.8" font-family="Courier,monospace" font-size="9.00" fill="#000000">implements</text>
</a>
</g>
</g>
<!-- logtalk -->
<g id="node5" class="node">
<title>logtalk</title>
<g id="a_node5"><a xlink:href="https://logtalk.org/library/logtalk_0.html" xlink:title="https://logtalk.org/library/logtalk_0.html">
<polygon fill="#fff8dc" stroke="#000000" points="470,-388 264,-388 264,-107 470,-107 470,-388"/>
<g id="a_node5_4"><a xlink:href="logtalk_object_xref_diagram.svg" xlink:title="Zoom">
<image xlink:href="zoom.png" width="11px" height="11px" preserveAspectRatio="xMinYMin meet" x="272" y="-383.5"/>
</a>
</g>
<text text-anchor="start" x="274.5" y="-364.3" font-family="Courier,monospace" font-size="9.00" fill="#000000"> </text>
<text text-anchor="start" x="346" y="-363.7" font-family="Courier,monospace" font-size="11.00" fill="#000000">logtalk</text>
<text text-anchor="start" x="456" y="-364.3" font-family="Courier,monospace" font-size="9.00" fill="#000000"> </text>
<text text-anchor="start" x="274.5" y="-353.3" font-family="Courier,monospace" font-size="9.00" fill="#000000"> </text>
<text text-anchor="start" x="331.5" y="-353.9" font-family="Courier,monospace" font-size="7.00" fill="#000000">built&#45;in prototype</text>
<text text-anchor="start" x="456" y="-353.3" font-family="Courier,monospace" font-size="9.00" fill="#000000"> </text>
<text text-anchor="start" x="274.5" y="-343.3" font-family="Courier,monospace" font-size="9.00" fill="#000000"> </text>
<text text-anchor="start" x="274.5" y="-333.3" font-family="Courier,monospace" font-size="9.00" fill="#000000"> </text>
<text text-anchor="start" x="328.5" y="-333.3" font-family="Courier,monospace" font-size="9.00" fill="#000000">print_message/3</text>
<text text-anchor="start" x="456" y="-333.3" font-family="Courier,monospace" font-size="9.00" fill="#000000"> </text>
<text text-anchor="start" x="274.5" y="-323.3" font-family="Courier,monospace" font-size="9.00" fill="#000000"> </text>
<text text-anchor="start" x="310" y="-323.3" font-family="Courier,monospace" font-size="9.00" fill="#000000">print_message_tokens/3</text>
<text text-anchor="start" x="456" y="-323.3" font-family="Courier,monospace" font-size="9.00" fill="#000000"> </text>
<text text-anchor="start" x="274.5" y="-313.3" font-family="Courier,monospace" font-size="9.00" fill="#000000"> </text>
<text text-anchor="start" x="312.5" y="-313.3" font-family="Courier,monospace" font-size="9.00" fill="#000000">print_message_token/4</text>
<text text-anchor="start" x="456" y="-313.3" font-family="Courier,monospace" font-size="9.00" fill="#000000"> </text>
<text text-anchor="start" x="274.5" y="-303.3" font-family="Courier,monospace" font-size="9.00" fill="#000000"> </text>
<text text-anchor="start" x="323.5" y="-303.3" font-family="Courier,monospace" font-size="9.00" fill="#000000">message_tokens//2</text>
<text text-anchor="start" x="456" y="-303.3" font-family="Courier,monospace" font-size="9.00" fill="#000000"> </text>
<text text-anchor="start" x="274.5" y="-293.3" font-family="Courier,monospace" font-size="9.00" fill="#000000"> </text>
<text text-anchor="start" x="307" y="-293.3" font-family="Courier,monospace" font-size="9.00" fill="#000000">message_prefix_stream/4</text>
<text text-anchor="start" x="456" y="-293.3" font-family="Courier,monospace" font-size="9.00" fill="#000000"> </text>
<text text-anchor="start" x="274.5" y="-283.3" font-family="Courier,monospace" font-size="9.00" fill="#000000"> </text>
<text text-anchor="start" x="331.5" y="-283.3" font-family="Courier,monospace" font-size="9.00" fill="#000000">message_hook/4</text>
<text text-anchor="start" x="456" y="-283.3" font-family="Courier,monospace" font-size="9.00" fill="#000000"> </text>
<text text-anchor="start" x="274.5" y="-273.3" font-family="Courier,monospace" font-size="9.00" fill="#000000"> </text>
<text text-anchor="start" x="331.5" y="-273.3" font-family="Courier,monospace" font-size="9.00" fill="#000000">ask_question/5</text>
<text text-anchor="start" x="456" y="-273.3" font-family="Courier,monospace" font-size="9.00" fill="#000000"> </text>
<text text-anchor="start" x="274.5" y="-263.3" font-family="Courier,monospace" font-size="9.00" fill="#000000"> </text>
<text text-anchor="start" x="328.5" y="-263.3" font-family="Courier,monospace" font-size="9.00" fill="#000000">question_hook/6</text>
<text text-anchor="start" x="456" y="-263.3" font-family="Courier,monospace" font-size="9.00" fill="#000000"> </text>
<text text-anchor="start" x="274.5" y="-253.3" font-family="Courier,monospace" font-size="9.00" fill="#000000"> </text>
<text text-anchor="start" x="304.5" y="-253.3" font-family="Courier,monospace" font-size="9.00" fill="#000000">question_prompt_stream/4</text>
<text text-anchor="start" x="456" y="-253.3" font-family="Courier,monospace" font-size="9.00" fill="#000000"> </text>
<text text-anchor="start" x="274.5" y="-243.3" font-family="Courier,monospace" font-size="9.00" fill="#000000"> </text>
<text text-anchor="start" x="334" y="-243.3" font-family="Courier,monospace" font-size="9.00" fill="#000000">trace_event/2</text>
<text text-anchor="start" x="456" y="-243.3" font-family="Courier,monospace" font-size="9.00" fill="#000000"> </text>
<text text-anchor="start" x="274.5" y="-233.3" font-family="Courier,monospace" font-size="9.00" fill="#000000"> </text>
<text text-anchor="start" x="304.5" y="-233.3" font-family="Courier,monospace" font-size="9.00" fill="#000000">debug_handler_provider/1</text>
<text text-anchor="start" x="456" y="-233.3" font-family="Courier,monospace" font-size="9.00" fill="#000000"> </text>
<text text-anchor="start" x="274.5" y="-223.3" font-family="Courier,monospace" font-size="9.00" fill="#000000"> </text>
<text text-anchor="start" x="328.5" y="-223.3" font-family="Courier,monospace" font-size="9.00" fill="#000000">debug_handler/2</text>
<text text-anchor="start" x="456" y="-223.3" font-family="Courier,monospace" font-size="9.00" fill="#000000"> </text>
<text text-anchor="start" x="274.5" y="-213.3" font-family="Courier,monospace" font-size="9.00" fill="#000000"> </text>
<text text-anchor="start" x="312.5" y="-213.3" font-family="Courier,monospace" font-size="9.00" fill="#000000">expand_library_path/2</text>
<text text-anchor="start" x="456" y="-213.3" font-family="Courier,monospace" font-size="9.00" fill="#000000"> </text>
<text text-anchor="start" x="274.5" y="-203.3" font-family="Courier,monospace" font-size="9.00" fill="#000000"> </text>
<text text-anchor="start" x="334" y="-203.3" font-family="Courier,monospace" font-size="9.00" fill="#000000">loaded_file/1</text>
<text text-anchor="start" x="456" y="-203.3" font-family="Courier,monospace" font-size="9.00" fill="#000000"> </text>
<text text-anchor="start" x="274.5" y="-193.3" font-family="Courier,monospace" font-size="9.00" fill="#000000"> </text>
<text text-anchor="start" x="310" y="-193.3" font-family="Courier,monospace" font-size="9.00" fill="#000000">loaded_file_property/2</text>
<text text-anchor="start" x="456" y="-193.3" font-family="Courier,monospace" font-size="9.00" fill="#000000"> </text>
<text text-anchor="start" x="274.5" y="-183.3" font-family="Courier,monospace" font-size="9.00" fill="#000000"> </text>
<text text-anchor="start" x="312.5" y="-183.3" font-family="Courier,monospace" font-size="9.00" fill="#000000">file_type_extension/2</text>
<text text-anchor="start" x="456" y="-183.3" font-family="Courier,monospace" font-size="9.00" fill="#000000"> </text>
<text text-anchor="start" x="274.5" y="-173.3" font-family="Courier,monospace" font-size="9.00" fill="#000000"> </text>
<text text-anchor="start" x="312.5" y="-173.3" font-family="Courier,monospace" font-size="9.00" fill="#000000">compile_aux_clauses/1</text>
<text text-anchor="start" x="456" y="-173.3" font-family="Courier,monospace" font-size="9.00" fill="#000000"> </text>
<text text-anchor="start" x="274.5" y="-163.3" font-family="Courier,monospace" font-size="9.00" fill="#000000"> </text>
<text text-anchor="start" x="328.5" y="-163.3" font-family="Courier,monospace" font-size="9.00" fill="#000000">entity_prefix/2</text>
<text text-anchor="start" x="456" y="-163.3" font-family="Courier,monospace" font-size="9.00" fill="#000000"> </text>
<text text-anchor="start" x="274.5" y="-153.3" font-family="Courier,monospace" font-size="9.00" fill="#000000"> </text>
<text text-anchor="start" x="301.5" y="-153.3" font-family="Courier,monospace" font-size="9.00" fill="#000000">compile_predicate_heads/4</text>
<text text-anchor="start" x="456" y="-153.3" font-family="Courier,monospace" font-size="9.00" fill="#000000"> </text>
<text text-anchor="start" x="274.5" y="-143.3" font-family="Courier,monospace" font-size="9.00" fill="#000000"> </text>
<text text-anchor="start" x="288" y="-143.3" font-family="Courier,monospace" font-size="9.00" fill="#000000">compile_predicate_indicators/3</text>
<text text-anchor="start" x="456" y="-143.3" font-family="Courier,monospace" font-size="9.00" fill="#000000"> </text>
<text text-anchor="start" x="274.5" y="-133.3" font-family="Courier,monospace" font-size="9.00" fill="#000000"> </text>
<text text-anchor="start" x="296.5" y="-133.3" font-family="Courier,monospace" font-size="9.00" fill="#000000">decompile_predicate_heads/4</text>
<text text-anchor="start" x="456" y="-133.3" font-family="Courier,monospace" font-size="9.00" fill="#000000"> </text>
<text text-anchor="start" x="274.5" y="-123.3" font-family="Courier,monospace" font-size="9.00" fill="#000000"> </text>
<text text-anchor="start" x="283" y="-123.3" font-family="Courier,monospace" font-size="9.00" fill="#000000">decompile_predicate_indicators/4</text>
<text text-anchor="start" x="456" y="-123.3" font-family="Courier,monospace" font-size="9.00" fill="#000000"> </text>
<text text-anchor="start" x="274.5" y="-113.3" font-family="Courier,monospace" font-size="9.00" fill="#000000"> </text>
<text text-anchor="start" x="318" y="-113.3" font-family="Courier,monospace" font-size="9.00" fill="#000000">execution_context/7</text>
<text text-anchor="start" x="456" y="-113.3" font-family="Courier,monospace" font-size="9.00" fill="#000000"> </text>
</a>
</g>
</g>
<!-- core_messages -->
<g id="node6" class="node">
<title>core_messages</title>
<g id="a_node6"><a xlink:href="https://logtalk.org/library/core_messages_0.html" xlink:title="https://logtalk.org/library/core_messages_0.html">
<polygon fill="#e0ffff" stroke="#000000" points="234,-283 28,-283 28,-279 24,-279 24,-275 28,-275 28,-220 24,-220 24,-216 28,-216 28,-212 234,-212 234,-283"/>
<polyline fill="none" stroke="#000000" points="28,-279 32,-279 32,-275 28,-275 "/>
<polyline fill="none" stroke="#000000" points="28,-220 32,-220 32,-216 28,-216 "/>
<g id="a_node6_5"><a xlink:href="core_messages_category_xref_diagram.svg" xlink:title="Zoom">
<image xlink:href="zoom.png" width="11px" height="11px" preserveAspectRatio="xMinYMin meet" x="36" y="-278.5"/>
</a>
</g>
<text text-anchor="start" x="38.5" y="-259.3" font-family="Courier,monospace" font-size="9.00" fill="#000000"> </text>
<text text-anchor="start" x="90.5" y="-258.7" font-family="Courier,monospace" font-size="11.00" fill="#000000">core_messages</text>
<text text-anchor="start" x="220" y="-259.3" font-family="Courier,monospace" font-size="9.00" fill="#000000"> </text>
<text text-anchor="start" x="38.5" y="-248.3" font-family="Courier,monospace" font-size="9.00" fill="#000000"> </text>
<text text-anchor="start" x="97.5" y="-248.9" font-family="Courier,monospace" font-size="7.00" fill="#000000">built&#45;in category</text>
<text text-anchor="start" x="220" y="-248.3" font-family="Courier,monospace" font-size="9.00" fill="#000000"> </text>
<text text-anchor="start" x="38.5" y="-238.3" font-family="Courier,monospace" font-size="9.00" fill="#000000"> </text>
<text text-anchor="start" x="38.5" y="-228.3" font-family="Courier,monospace" font-size="9.00" fill="#000000"> </text>
<text text-anchor="start" x="47" y="-228.3" font-family="Courier,monospace" font-size="9.00" fill="#000000">logtalk::message_prefix_stream/4</text>
<text text-anchor="start" x="220" y="-228.3" font-family="Courier,monospace" font-size="9.00" fill="#000000"> </text>
<text text-anchor="start" x="38.5" y="-218.3" font-family="Courier,monospace" font-size="9.00" fill="#000000"> </text>
<text text-anchor="start" x="63" y="-218.3" font-family="Courier,monospace" font-size="9.00" fill="#000000">logtalk::message_tokens//2</text>
<text text-anchor="start" x="220" y="-218.3" font-family="Courier,monospace" font-size="9.00" fill="#000000"> </text>
</a>
</g>
</g>
</g>
</svg>
