<?xml version="1.0" encoding="UTF-8" standalone="no"?>
<!DOCTYPE svg PUBLIC "-//W3C//DTD SVG 1.1//EN"
 "http://www.w3.org/Graphics/SVG/1.1/DTD/svg11.dtd">
<!-- Generated by graphviz version 2.40.1 (20161225.0304)
 -->
<!-- Title: core Pages: 1 -->
<svg width="920pt" height="820pt"
 viewBox="72.00 72.00 848.00 748.00" xmlns="http://www.w3.org/2000/svg" xmlns:xlink="http://www.w3.org/1999/xlink">
<g id="graph0" class="graph" transform="scale(1 1) rotate(0) translate(76 744)">
<title>core</title>
<polygon fill="#ffffff" stroke="transparent" points="-4,4 -4,-672 772,-672 772,4 -4,4"/>
<text text-anchor="start" x="8" y="-29" font-family="Courier,monospace" font-size="10.00" fill="#8b8989">Logtalk core entities</text>
<text text-anchor="start" x="8" y="-18" font-family="Courier,monospace" font-size="10.00" fill="#8b8989">Inheritance diagram</text>
<text text-anchor="start" x="8" y="-7" font-family="Courier,monospace" font-size="10.00" fill="#8b8989">Generated on 2019/04/21, 10:25</text>
<g id="clust1" class="cluster">
<title>cluster_library_core</title>
<g id="a_clust1"><a xlink:href="https://github.com/LogtalkDotOrg/logtalk3/tree/master/core/" xlink:title="https://github.com/LogtalkDotOrg/logtalk3/tree/master/core/">
<path fill="#fffafa" stroke="#8b8989" d="M20,-49C20,-49 748,-49 748,-49 754,-49 760,-55 760,-61 760,-61 760,-648 760,-648 760,-654 754,-660 748,-660 748,-660 20,-660 20,-660 14,-660 8,-654 8,-648 8,-648 8,-61 8,-61 8,-55 14,-49 20,-49"/>
<text text-anchor="middle" x="31.5" y="-56" font-family="Courier,monospace" font-size="10.00" fill="#8b8989">core/</text>
</a>
</g>
</g>
<g id="clust2" class="cluster">
<title>cluster_file_/opt/local/share/logtalk/core/expanding.lgt</title>
<g id="a_clust2"><a xlink:href="https://github.com/LogtalkDotOrg/logtalk3/tree/master/core/expanding.lgt" xlink:title="https://github.com/LogtalkDotOrg/logtalk3/tree/master/core/expanding.lgt">
<path fill="#fffafa" stroke="#8b8989" d="M440,-551C440,-551 552,-551 552,-551 558,-551 564,-557 564,-563 564,-563 564,-638 564,-638 564,-644 558,-650 552,-650 552,-650 440,-650 440,-650 434,-650 428,-644 428,-638 428,-638 428,-563 428,-563 428,-557 434,-551 440,-551"/>
<text text-anchor="middle" x="475.5" y="-558" font-family="Courier,monospace" font-size="10.00" fill="#8b8989">expanding.lgt</text>
</a>
</g>
</g>
<g id="clust3" class="cluster">
<title>cluster_file_/opt/local/share/logtalk/core/monitoring.lgt</title>
<g id="a_clust3"><a xlink:href="https://github.com/LogtalkDotOrg/logtalk3/tree/master/core/monitoring.lgt" xlink:title="https://github.com/LogtalkDotOrg/logtalk3/tree/master/core/monitoring.lgt">
<path fill="#fffafa" stroke="#8b8989" d="M642,-188.5C642,-188.5 738,-188.5 738,-188.5 744,-188.5 750,-194.5 750,-200.5 750,-200.5 750,-275.5 750,-275.5 750,-281.5 744,-287.5 738,-287.5 738,-287.5 642,-287.5 642,-287.5 636,-287.5 630,-281.5 630,-275.5 630,-275.5 630,-200.5 630,-200.5 630,-194.5 636,-188.5 642,-188.5"/>
<text text-anchor="middle" x="680.5" y="-195.5" font-family="Courier,monospace" font-size="10.00" fill="#8b8989">monitoring.lgt</text>
</a>
</g>
</g>
<g id="clust4" class="cluster">
<title>cluster_file_/opt/local/share/logtalk/core/forwarding.lgt</title>
<g id="a_clust4"><a xlink:href="https://github.com/LogtalkDotOrg/logtalk3/tree/master/core/forwarding.lgt" xlink:title="https://github.com/LogtalkDotOrg/logtalk3/tree/master/core/forwarding.lgt">
<path fill="#fffafa" stroke="#8b8989" d="M586,-556C586,-556 682,-556 682,-556 688,-556 694,-562 694,-568 694,-568 694,-633 694,-633 694,-639 688,-645 682,-645 682,-645 586,-645 586,-645 580,-645 574,-639 574,-633 574,-633 574,-568 574,-568 574,-562 580,-556 586,-556"/>
<text text-anchor="middle" x="624.5" y="-563" font-family="Courier,monospace" font-size="10.00" fill="#8b8989">forwarding.lgt</text>
</a>
</g>
</g>
<g id="clust5" class="cluster">
<title>cluster_file_/opt/local/share/logtalk/core/user.lgt</title>
<g id="a_clust5"><a xlink:href="https://github.com/LogtalkDotOrg/logtalk3/tree/master/core/user.lgt" xlink:title="https://github.com/LogtalkDotOrg/logtalk3/tree/master/core/user.lgt">
<path fill="#fffafa" stroke="#8b8989" d="M502,-198C502,-198 608,-198 608,-198 614,-198 620,-204 620,-210 620,-210 620,-266 620,-266 620,-272 614,-278 608,-278 608,-278 502,-278 502,-278 496,-278 490,-272 490,-266 490,-266 490,-210 490,-210 490,-204 496,-198 502,-198"/>
<text text-anchor="middle" x="522.5" y="-205" font-family="Courier,monospace" font-size="10.00" fill="#8b8989">user.lgt</text>
</a>
</g>
</g>
<g id="clust6" class="cluster">
<title>cluster_file_/opt/local/share/logtalk/core/logtalk.lgt</title>
<g id="a_clust6"><a xlink:href="https://github.com/LogtalkDotOrg/logtalk3/tree/master/core/logtalk.lgt" xlink:title="https://github.com/LogtalkDotOrg/logtalk3/tree/master/core/logtalk.lgt">
<path fill="#fffafa" stroke="#8b8989" d="M266,-78C266,-78 468,-78 468,-78 474,-78 480,-84 480,-90 480,-90 480,-386 480,-386 480,-392 474,-398 468,-398 468,-398 266,-398 266,-398 260,-398 254,-392 254,-386 254,-386 254,-90 254,-90 254,-84 260,-78 266,-78"/>
<text text-anchor="middle" x="295.5" y="-85" font-family="Courier,monospace" font-size="10.00" fill="#8b8989">logtalk.lgt</text>
</a>
</g>
</g>
<g id="clust7" class="cluster">
<title>cluster_file_/opt/local/share/logtalk/core/core_messages.lgt</title>
<g id="a_clust7"><a xlink:href="https://github.com/LogtalkDotOrg/logtalk3/tree/master/core/core_messages.lgt" xlink:title="https://github.com/LogtalkDotOrg/logtalk3/tree/master/core/core_messages.lgt">
<path fill="#fffafa" stroke="#8b8989" d="M30,-183C30,-183 232,-183 232,-183 238,-183 244,-189 244,-195 244,-195 244,-281 244,-281 244,-287 238,-293 232,-293 232,-293 30,-293 30,-293 24,-293 18,-287 18,-281 18,-281 18,-195 18,-195 18,-189 24,-183 30,-183"/>
<text text-anchor="middle" x="77.5" y="-190" font-family="Courier,monospace" font-size="10.00" fill="#8b8989">core_messages.lgt</text>
</a>
</g>
</g>
<!-- expanding -->
<g id="node1" class="node">
<title>expanding</title>
<g id="a_node1"><a xlink:href="https://logtalk.org/library/expanding_0.html" xlink:title="https://logtalk.org/library/expanding_0.html">
<polygon fill="#7fffd4" stroke="#000000" points="547.5,-640 438.5,-640 438.5,-580 553.5,-580 553.5,-634 547.5,-640"/>
<polyline fill="none" stroke="#000000" points="547.5,-640 547.5,-634 "/>
<polyline fill="none" stroke="#000000" points="553.5,-634 547.5,-634 "/>
<text text-anchor="start" x="447" y="-627.8" font-family="Courier,monospace" font-size="9.00" fill="#000000"> </text>
<text text-anchor="start" x="466.5" y="-627.2" font-family="Courier,monospace" font-size="11.00" fill="#000000">expanding</text>
<text text-anchor="start" x="540" y="-627.8" font-family="Courier,monospace" font-size="9.00" fill="#000000"> </text>
<text text-anchor="start" x="447" y="-616.8" font-family="Courier,monospace" font-size="9.00" fill="#000000"> </text>
<text text-anchor="start" x="460.5" y="-617.4" font-family="Courier,monospace" font-size="7.00" fill="#000000">built&#45;in protocol</text>
<text text-anchor="start" x="540" y="-616.8" font-family="Courier,monospace" font-size="9.00" fill="#000000"> </text>
<text text-anchor="start" x="447" y="-606.8" font-family="Courier,monospace" font-size="9.00" fill="#000000"> </text>
<text text-anchor="start" x="447" y="-596.8" font-family="Courier,monospace" font-size="9.00" fill="#000000"> </text>
<text text-anchor="start" x="453" y="-596.8" font-family="Courier,monospace" font-size="9.00" fill="#000000">goal_expansion/2</text>
<text text-anchor="start" x="540" y="-596.8" font-family="Courier,monospace" font-size="9.00" fill="#000000"> </text>
<text text-anchor="start" x="447" y="-586.8" font-family="Courier,monospace" font-size="9.00" fill="#000000"> </text>
<text text-anchor="start" x="453" y="-586.8" font-family="Courier,monospace" font-size="9.00" fill="#000000">term_expansion/2</text>
<text text-anchor="start" x="540" y="-586.8" font-family="Courier,monospace" font-size="9.00" fill="#000000"> </text>
</a>
</g>
</g>
<!-- monitoring -->
<g id="node2" class="node">
<title>monitoring</title>
<g id="a_node2"><a xlink:href="https://logtalk.org/library/monitoring_0.html" xlink:title="https://logtalk.org/library/monitoring_0.html">
<polygon fill="#7fffd4" stroke="#000000" points="734,-277.5 640,-277.5 640,-217.5 740,-217.5 740,-271.5 734,-277.5"/>
<polyline fill="none" stroke="#000000" points="734,-277.5 734,-271.5 "/>
<polyline fill="none" stroke="#000000" points="740,-271.5 734,-271.5 "/>
<text text-anchor="start" x="648" y="-265.3" font-family="Courier,monospace" font-size="9.00" fill="#000000"> </text>
<text text-anchor="start" x="656.5" y="-264.7" font-family="Courier,monospace" font-size="11.00" fill="#000000">monitoring</text>
<text text-anchor="start" x="726" y="-265.3" font-family="Courier,monospace" font-size="9.00" fill="#000000"> </text>
<text text-anchor="start" x="648" y="-254.3" font-family="Courier,monospace" font-size="9.00" fill="#000000"> </text>
<text text-anchor="start" x="654" y="-254.9" font-family="Courier,monospace" font-size="7.00" fill="#000000">built&#45;in protocol</text>
<text text-anchor="start" x="726" y="-254.3" font-family="Courier,monospace" font-size="9.00" fill="#000000"> </text>
<text text-anchor="start" x="648" y="-244.3" font-family="Courier,monospace" font-size="9.00" fill="#000000"> </text>
<text text-anchor="start" x="648" y="-234.3" font-family="Courier,monospace" font-size="9.00" fill="#000000"> </text>
<text text-anchor="start" x="668" y="-234.3" font-family="Courier,monospace" font-size="9.00" fill="#000000">before/3</text>
<text text-anchor="start" x="726" y="-234.3" font-family="Courier,monospace" font-size="9.00" fill="#000000"> </text>
<text text-anchor="start" x="648" y="-224.3" font-family="Courier,monospace" font-size="9.00" fill="#000000"> </text>
<text text-anchor="start" x="671" y="-224.3" font-family="Courier,monospace" font-size="9.00" fill="#000000">after/3</text>
<text text-anchor="start" x="726" y="-224.3" font-family="Courier,monospace" font-size="9.00" fill="#000000"> </text>
</a>
</g>
</g>
<!-- forwarding -->
<g id="node3" class="node">
<title>forwarding</title>
<g id="a_node3"><a xlink:href="https://logtalk.org/library/forwarding_0.html" xlink:title="https://logtalk.org/library/forwarding_0.html">
<polygon fill="#7fffd4" stroke="#000000" points="678,-635 584,-635 584,-585 684,-585 684,-629 678,-635"/>
<polyline fill="none" stroke="#000000" points="678,-635 678,-629 "/>
<polyline fill="none" stroke="#000000" points="684,-629 678,-629 "/>
<text text-anchor="start" x="592" y="-622.8" font-family="Courier,monospace" font-size="9.00" fill="#000000"> </text>
<text text-anchor="start" x="600.5" y="-622.2" font-family="Courier,monospace" font-size="11.00" fill="#000000">forwarding</text>
<text text-anchor="start" x="670" y="-622.8" font-family="Courier,monospace" font-size="9.00" fill="#000000"> </text>
<text text-anchor="start" x="592" y="-611.8" font-family="Courier,monospace" font-size="9.00" fill="#000000"> </text>
<text text-anchor="start" x="598" y="-612.4" font-family="Courier,monospace" font-size="7.00" fill="#000000">built&#45;in protocol</text>
<text text-anchor="start" x="670" y="-611.8" font-family="Courier,monospace" font-size="9.00" fill="#000000"> </text>
<text text-anchor="start" x="592" y="-601.8" font-family="Courier,monospace" font-size="9.00" fill="#000000"> </text>
<text text-anchor="start" x="592" y="-591.8" font-family="Courier,monospace" font-size="9.00" fill="#000000"> </text>
<text text-anchor="start" x="609.5" y="-591.8" font-family="Courier,monospace" font-size="9.00" fill="#000000">forward/1</text>
<text text-anchor="start" x="670" y="-591.8" font-family="Courier,monospace" font-size="9.00" fill="#000000"> </text>
</a>
</g>
</g>
<!-- user -->
<g id="node4" class="node">
<title>user</title>
<g id="a_node4"><a xlink:href="https://logtalk.org/library/user_0.html" xlink:title="https://logtalk.org/library/user_0.html">
<polygon fill="#f5f5dc" stroke="#000000" points="609.5,-268 500.5,-268 500.5,-227 609.5,-227 609.5,-268"/>
<g id="a_node4_0"><a xlink:href="user_object_xref_diagram.svg" xlink:title="Zoom">
<image xlink:href="zoom.png" width="11px" height="11px" preserveAspectRatio="xMinYMin meet" x="509" y="-263.5"/>
</a>
</g>
<text text-anchor="start" x="511.5" y="-244.3" font-family="Courier,monospace" font-size="9.00" fill="#000000"> </text>
<text text-anchor="start" x="544.5" y="-243.7" font-family="Courier,monospace" font-size="11.00" fill="#000000">user</text>
<text text-anchor="start" x="596" y="-244.3" font-family="Courier,monospace" font-size="9.00" fill="#000000"> </text>
<text text-anchor="start" x="511.5" y="-233.3" font-family="Courier,monospace" font-size="9.00" fill="#000000"> </text>
<text text-anchor="start" x="520" y="-233.9" font-family="Courier,monospace" font-size="7.00" fill="#000000">built&#45;in prototype</text>
<text text-anchor="start" x="596" y="-233.3" font-family="Courier,monospace" font-size="9.00" fill="#000000"> </text>
</a>
</g>
</g>
<!-- user&#45;&gt;expanding -->
<g id="edge1" class="edge">
<title>user&#45;&gt;expanding</title>
<g id="a_edge1"><a xlink:href="https://logtalk.org/library/user_0.html" xlink:title="implements">
<path fill="none" stroke="#000000" d="M551.6589,-268.0282C542.1097,-326.6989 514.5918,-495.7708 502.1903,-571.9662"/>
<ellipse fill="#000000" stroke="#000000" cx="501.5391" cy="-575.9675" rx="4" ry="4"/>
</a>
</g>
<g id="a_edge1&#45;label"><a xlink:href="https://logtalk.org/library/user_0.html" xlink:title="https://logtalk.org/library/user_0.html">
<text text-anchor="start" x="517" y="-481.8" font-family="Courier,monospace" font-size="9.00" fill="#000000">implements</text>
</a>
</g>
</g>
<!-- user&#45;&gt;forwarding -->
<g id="edge2" class="edge">
<title>user&#45;&gt;forwarding</title>
<g id="a_edge2"><a xlink:href="https://logtalk.org/library/user_0.html" xlink:title="implements">
<path fill="none" stroke="#000000" d="M559.4737,-268.0282C572.5169,-327.8781 610.5967,-502.6115 626.6876,-576.4462"/>
<ellipse fill="#000000" stroke="#000000" cx="627.5956" cy="-580.6127" rx="4" ry="4"/>
</a>
</g>
<g id="a_edge2&#45;label"><a xlink:href="https://logtalk.org/library/user_0.html" xlink:title="https://logtalk.org/library/user_0.html">
<text text-anchor="start" x="607" y="-481.8" font-family="Courier,monospace" font-size="9.00" fill="#000000">implements</text>
</a>
</g>
</g>
<!-- logtalk -->
<g id="node5" class="node">
<title>logtalk</title>
<g id="a_node5"><a xlink:href="https://logtalk.org/library/logtalk_0.html" xlink:title="https://logtalk.org/library/logtalk_0.html">
<polygon fill="#f5f5dc" stroke="#000000" points="470,-388 264,-388 264,-107 470,-107 470,-388"/>
<g id="a_node5_1"><a xlink:href="logtalk_object_xref_diagram.svg" xlink:title="Zoom">
<image xlink:href="zoom.png" width="11px" height="11px" preserveAspectRatio="xMinYMin meet" x="272" y="-383.5"/>
</a>
</g>
<text text-anchor="start" x="274.5" y="-364.3" font-family="Courier,monospace" font-size="9.00" fill="#000000"> </text>
<text text-anchor="start" x="346" y="-363.7" font-family="Courier,monospace" font-size="11.00" fill="#000000">logtalk</text>
<text text-anchor="start" x="456" y="-364.3" font-family="Courier,monospace" font-size="9.00" fill="#000000"> </text>
<text text-anchor="start" x="274.5" y="-353.3" font-family="Courier,monospace" font-size="9.00" fill="#000000"> </text>
<text text-anchor="start" x="331.5" y="-353.9" font-family="Courier,monospace" font-size="7.00" fill="#000000">built&#45;in prototype</text>
<text text-anchor="start" x="456" y="-353.3" font-family="Courier,monospace" font-size="9.00" fill="#000000"> </text>
<text text-anchor="start" x="274.5" y="-343.3" font-family="Courier,monospace" font-size="9.00" fill="#000000"> </text>
<text text-anchor="start" x="274.5" y="-333.3" font-family="Courier,monospace" font-size="9.00" fill="#000000"> </text>
<text text-anchor="start" x="328.5" y="-333.3" font-family="Courier,monospace" font-size="9.00" fill="#000000">print_message/3</text>
<text text-anchor="start" x="456" y="-333.3" font-family="Courier,monospace" font-size="9.00" fill="#000000"> </text>
<text text-anchor="start" x="274.5" y="-323.3" font-family="Courier,monospace" font-size="9.00" fill="#000000"> </text>
<text text-anchor="start" x="310" y="-323.3" font-family="Courier,monospace" font-size="9.00" fill="#000000">print_message_tokens/3</text>
<text text-anchor="start" x="456" y="-323.3" font-family="Courier,monospace" font-size="9.00" fill="#000000"> </text>
<text text-anchor="start" x="274.5" y="-313.3" font-family="Courier,monospace" font-size="9.00" fill="#000000"> </text>
<text text-anchor="start" x="312.5" y="-313.3" font-family="Courier,monospace" font-size="9.00" fill="#000000">print_message_token/4</text>
<text text-anchor="start" x="456" y="-313.3" font-family="Courier,monospace" font-size="9.00" fill="#000000"> </text>
<text text-anchor="start" x="274.5" y="-303.3" font-family="Courier,monospace" font-size="9.00" fill="#000000"> </text>
<text text-anchor="start" x="323.5" y="-303.3" font-family="Courier,monospace" font-size="9.00" fill="#000000">message_tokens//2</text>
<text text-anchor="start" x="456" y="-303.3" font-family="Courier,monospace" font-size="9.00" fill="#000000"> </text>
<text text-anchor="start" x="274.5" y="-293.3" font-family="Courier,monospace" font-size="9.00" fill="#000000"> </text>
<text text-anchor="start" x="307" y="-293.3" font-family="Courier,monospace" font-size="9.00" fill="#000000">message_prefix_stream/4</text>
<text text-anchor="start" x="456" y="-293.3" font-family="Courier,monospace" font-size="9.00" fill="#000000"> </text>
<text text-anchor="start" x="274.5" y="-283.3" font-family="Courier,monospace" font-size="9.00" fill="#000000"> </text>
<text text-anchor="start" x="331.5" y="-283.3" font-family="Courier,monospace" font-size="9.00" fill="#000000">message_hook/4</text>
<text text-anchor="start" x="456" y="-283.3" font-family="Courier,monospace" font-size="9.00" fill="#000000"> </text>
<text text-anchor="start" x="274.5" y="-273.3" font-family="Courier,monospace" font-size="9.00" fill="#000000"> </text>
<text text-anchor="start" x="331.5" y="-273.3" font-family="Courier,monospace" font-size="9.00" fill="#000000">ask_question/5</text>
<text text-anchor="start" x="456" y="-273.3" font-family="Courier,monospace" font-size="9.00" fill="#000000"> </text>
<text text-anchor="start" x="274.5" y="-263.3" font-family="Courier,monospace" font-size="9.00" fill="#000000"> </text>
<text text-anchor="start" x="328.5" y="-263.3" font-family="Courier,monospace" font-size="9.00" fill="#000000">question_hook/6</text>
<text text-anchor="start" x="456" y="-263.3" font-family="Courier,monospace" font-size="9.00" fill="#000000"> </text>
<text text-anchor="start" x="274.5" y="-253.3" font-family="Courier,monospace" font-size="9.00" fill="#000000"> </text>
<text text-anchor="start" x="304.5" y="-253.3" font-family="Courier,monospace" font-size="9.00" fill="#000000">question_prompt_stream/4</text>
<text text-anchor="start" x="456" y="-253.3" font-family="Courier,monospace" font-size="9.00" fill="#000000"> </text>
<text text-anchor="start" x="274.5" y="-243.3" font-family="Courier,monospace" font-size="9.00" fill="#000000"> </text>
<text text-anchor="start" x="334" y="-243.3" font-family="Courier,monospace" font-size="9.00" fill="#000000">trace_event/2</text>
<text text-anchor="start" x="456" y="-243.3" font-family="Courier,monospace" font-size="9.00" fill="#000000"> </text>
<text text-anchor="start" x="274.5" y="-233.3" font-family="Courier,monospace" font-size="9.00" fill="#000000"> </text>
<text text-anchor="start" x="304.5" y="-233.3" font-family="Courier,monospace" font-size="9.00" fill="#000000">debug_handler_provider/1</text>
<text text-anchor="start" x="456" y="-233.3" font-family="Courier,monospace" font-size="9.00" fill="#000000"> </text>
<text text-anchor="start" x="274.5" y="-223.3" font-family="Courier,monospace" font-size="9.00" fill="#000000"> </text>
<text text-anchor="start" x="328.5" y="-223.3" font-family="Courier,monospace" font-size="9.00" fill="#000000">debug_handler/2</text>
<text text-anchor="start" x="456" y="-223.3" font-family="Courier,monospace" font-size="9.00" fill="#000000"> </text>
<text text-anchor="start" x="274.5" y="-213.3" font-family="Courier,monospace" font-size="9.00" fill="#000000"> </text>
<text text-anchor="start" x="312.5" y="-213.3" font-family="Courier,monospace" font-size="9.00" fill="#000000">expand_library_path/2</text>
<text text-anchor="start" x="456" y="-213.3" font-family="Courier,monospace" font-size="9.00" fill="#000000"> </text>
<text text-anchor="start" x="274.5" y="-203.3" font-family="Courier,monospace" font-size="9.00" fill="#000000"> </text>
<text text-anchor="start" x="334" y="-203.3" font-family="Courier,monospace" font-size="9.00" fill="#000000">loaded_file/1</text>
<text text-anchor="start" x="456" y="-203.3" font-family="Courier,monospace" font-size="9.00" fill="#000000"> </text>
<text text-anchor="start" x="274.5" y="-193.3" font-family="Courier,monospace" font-size="9.00" fill="#000000"> </text>
<text text-anchor="start" x="310" y="-193.3" font-family="Courier,monospace" font-size="9.00" fill="#000000">loaded_file_property/2</text>
<text text-anchor="start" x="456" y="-193.3" font-family="Courier,monospace" font-size="9.00" fill="#000000"> </text>
<text text-anchor="start" x="274.5" y="-183.3" font-family="Courier,monospace" font-size="9.00" fill="#000000"> </text>
<text text-anchor="start" x="312.5" y="-183.3" font-family="Courier,monospace" font-size="9.00" fill="#000000">file_type_extension/2</text>
<text text-anchor="start" x="456" y="-183.3" font-family="Courier,monospace" font-size="9.00" fill="#000000"> </text>
<text text-anchor="start" x="274.5" y="-173.3" font-family="Courier,monospace" font-size="9.00" fill="#000000"> </text>
<text text-anchor="start" x="312.5" y="-173.3" font-family="Courier,monospace" font-size="9.00" fill="#000000">compile_aux_clauses/1</text>
<text text-anchor="start" x="456" y="-173.3" font-family="Courier,monospace" font-size="9.00" fill="#000000"> </text>
<text text-anchor="start" x="274.5" y="-163.3" font-family="Courier,monospace" font-size="9.00" fill="#000000"> </text>
<text text-anchor="start" x="328.5" y="-163.3" font-family="Courier,monospace" font-size="9.00" fill="#000000">entity_prefix/2</text>
<text text-anchor="start" x="456" y="-163.3" font-family="Courier,monospace" font-size="9.00" fill="#000000"> </text>
<text text-anchor="start" x="274.5" y="-153.3" font-family="Courier,monospace" font-size="9.00" fill="#000000"> </text>
<text text-anchor="start" x="301.5" y="-153.3" font-family="Courier,monospace" font-size="9.00" fill="#000000">compile_predicate_heads/4</text>
<text text-anchor="start" x="456" y="-153.3" font-family="Courier,monospace" font-size="9.00" fill="#000000"> </text>
<text text-anchor="start" x="274.5" y="-143.3" font-family="Courier,monospace" font-size="9.00" fill="#000000"> </text>
<text text-anchor="start" x="288" y="-143.3" font-family="Courier,monospace" font-size="9.00" fill="#000000">compile_predicate_indicators/3</text>
<text text-anchor="start" x="456" y="-143.3" font-family="Courier,monospace" font-size="9.00" fill="#000000"> </text>
<text text-anchor="start" x="274.5" y="-133.3" font-family="Courier,monospace" font-size="9.00" fill="#000000"> </text>
<text text-anchor="start" x="296.5" y="-133.3" font-family="Courier,monospace" font-size="9.00" fill="#000000">decompile_predicate_heads/4</text>
<text text-anchor="start" x="456" y="-133.3" font-family="Courier,monospace" font-size="9.00" fill="#000000"> </text>
<text text-anchor="start" x="274.5" y="-123.3" font-family="Courier,monospace" font-size="9.00" fill="#000000"> </text>
<text text-anchor="start" x="283" y="-123.3" font-family="Courier,monospace" font-size="9.00" fill="#000000">decompile_predicate_indicators/4</text>
<text text-anchor="start" x="456" y="-123.3" font-family="Courier,monospace" font-size="9.00" fill="#000000"> </text>
<text text-anchor="start" x="274.5" y="-113.3" font-family="Courier,monospace" font-size="9.00" fill="#000000"> </text>
<text text-anchor="start" x="318" y="-113.3" font-family="Courier,monospace" font-size="9.00" fill="#000000">execution_context/7</text>
<text text-anchor="start" x="456" y="-113.3" font-family="Courier,monospace" font-size="9.00" fill="#000000"> </text>
</a>
</g>
</g>
<!-- core_messages -->
<g id="node6" class="node">
<title>core_messages</title>
<g id="a_node6"><a xlink:href="https://logtalk.org/library/core_messages_0.html" xlink:title="https://logtalk.org/library/core_messages_0.html">
<polygon fill="#e0ffff" stroke="#000000" points="234,-283 28,-283 28,-279 24,-279 24,-275 28,-275 28,-220 24,-220 24,-216 28,-216 28,-212 234,-212 234,-283"/>
<polyline fill="none" stroke="#000000" points="28,-279 32,-279 32,-275 28,-275 "/>
<polyline fill="none" stroke="#000000" points="28,-220 32,-220 32,-216 28,-216 "/>
<g id="a_node6_2"><a xlink:href="core_messages_category_xref_diagram.svg" xlink:title="Zoom">
<image xlink:href="zoom.png" width="11px" height="11px" preserveAspectRatio="xMinYMin meet" x="36" y="-278.5"/>
</a>
</g>
<text text-anchor="start" x="38.5" y="-259.3" font-family="Courier,monospace" font-size="9.00" fill="#000000"> </text>
<text text-anchor="start" x="90.5" y="-258.7" font-family="Courier,monospace" font-size="11.00" fill="#000000">core_messages</text>
<text text-anchor="start" x="220" y="-259.3" font-family="Courier,monospace" font-size="9.00" fill="#000000"> </text>
<text text-anchor="start" x="38.5" y="-248.3" font-family="Courier,monospace" font-size="9.00" fill="#000000"> </text>
<text text-anchor="start" x="97.5" y="-248.9" font-family="Courier,monospace" font-size="7.00" fill="#000000">built&#45;in category</text>
<text text-anchor="start" x="220" y="-248.3" font-family="Courier,monospace" font-size="9.00" fill="#000000"> </text>
<text text-anchor="start" x="38.5" y="-238.3" font-family="Courier,monospace" font-size="9.00" fill="#000000"> </text>
<text text-anchor="start" x="38.5" y="-228.3" font-family="Courier,monospace" font-size="9.00" fill="#000000"> </text>
<text text-anchor="start" x="47" y="-228.3" font-family="Courier,monospace" font-size="9.00" fill="#000000">logtalk::message_prefix_stream/4</text>
<text text-anchor="start" x="220" y="-228.3" font-family="Courier,monospace" font-size="9.00" fill="#000000"> </text>
<text text-anchor="start" x="38.5" y="-218.3" font-family="Courier,monospace" font-size="9.00" fill="#000000"> </text>
<text text-anchor="start" x="63" y="-218.3" font-family="Courier,monospace" font-size="9.00" fill="#000000">logtalk::message_tokens//2</text>
<text text-anchor="start" x="220" y="-218.3" font-family="Courier,monospace" font-size="9.00" fill="#000000"> </text>
</a>
</g>
</g>
</g>
</svg>
