<?xml version="1.0" encoding="UTF-8" standalone="no"?>
<?xml-stylesheet href="diagrams.css" type="text/css"?>
<!DOCTYPE svg PUBLIC "-//W3C//DTD SVG 1.1//EN"
 "http://www.w3.org/Graphics/SVG/1.1/DTD/svg11.dtd">
<!-- Generated by graphviz version 10.0.1 (20240210.2158)
 -->
<!-- Title: core Pages: 1 -->
<svg width="782pt" height="718pt"
 viewBox="72.00 72.00 710.00 646.25" xmlns="http://www.w3.org/2000/svg" xmlns:xlink="http://www.w3.org/1999/xlink">
<g id="graph0" class="graph" transform="scale(1 1) rotate(0) translate(76 642.25)">
<title>core</title>
<polygon fill="white" stroke="none" points="-4,4 -4,-570.25 634,-570.25 634,4 -4,4"/>
<text text-anchor="start" x="8" y="-28.25" font-family="Monospace" font-size="10.00" fill="dimgray">Logtalk core entities</text>
<text text-anchor="start" x="8" y="-17" font-family="Monospace" font-size="10.00" fill="dimgray">Inheritance diagram for library core</text>
<text text-anchor="start" x="8" y="-5.75" font-family="Monospace" font-size="10.00" fill="dimgray">Generated on 2024&#45;02&#45;22, 21:23</text>
<g id="clust1" class="cluster">
<title>cluster_library_core</title>
<g id="a_clust1"><a xlink:title="core/">
<path fill="whitesmoke" stroke="dimgray" d="M20,-49.75C20,-49.75 610,-49.75 610,-49.75 616,-49.75 622,-55.75 622,-61.75 622,-61.75 622,-546.25 622,-546.25 622,-552.25 616,-558.25 610,-558.25 610,-558.25 20,-558.25 20,-558.25 14,-558.25 8,-552.25 8,-546.25 8,-546.25 8,-61.75 8,-61.75 8,-55.75 14,-49.75 20,-49.75"/>
<g id="a_clust1_0"><a xlink:href="https://github.com/LogtalkDotOrg/logtalk3/tree/6859f7c77d07d455b7b5608f789894febec0a673/core/" xlink:title="https://github.com/LogtalkDotOrg/logtalk3/tree/6859f7c77d07d455b7b5608f789894febec0a673/core/">
<text text-anchor="start" x="20" y="-59.5" font-family="Monospace" font-size="10.00" fill="dimgray">core/</text>
</a>
</g>
</a>
</g>
</g>
<g id="clust2" class="cluster">
<title>cluster_file_/opt/local/share/logtalk/core/expanding.lgt</title>
<g id="a_clust2"><a xlink:title="expanding.lgt">
<path fill="snow" stroke="dimgray" d="M30,-434C30,-434 142,-434 142,-434 148,-434 154,-440 154,-446 154,-446 154,-536.25 154,-536.25 154,-542.25 148,-548.25 142,-548.25 142,-548.25 30,-548.25 30,-548.25 24,-548.25 18,-542.25 18,-536.25 18,-536.25 18,-446 18,-446 18,-440 24,-434 30,-434"/>
<g id="a_clust2_1"><a xlink:href="https://github.com/LogtalkDotOrg/logtalk3/tree/6859f7c77d07d455b7b5608f789894febec0a673/core/expanding.lgt" xlink:title="https://github.com/LogtalkDotOrg/logtalk3/tree/6859f7c77d07d455b7b5608f789894febec0a673/core/expanding.lgt">
<text text-anchor="start" x="30" y="-443.75" font-family="Monospace" font-size="10.00" fill="dimgray">expanding.lgt</text>
</a>
</g>
</a>
</g>
</g>
<g id="clust3" class="cluster">
<title>cluster_file_/opt/local/share/logtalk/core/monitoring.lgt</title>
<g id="a_clust3"><a xlink:title="monitoring.lgt">
<path fill="snow" stroke="dimgray" d="M176,-434C176,-434 280,-434 280,-434 286,-434 292,-440 292,-446 292,-446 292,-536.25 292,-536.25 292,-542.25 286,-548.25 280,-548.25 280,-548.25 176,-548.25 176,-548.25 170,-548.25 164,-542.25 164,-536.25 164,-536.25 164,-446 164,-446 164,-440 170,-434 176,-434"/>
<g id="a_clust3_2"><a xlink:href="https://github.com/LogtalkDotOrg/logtalk3/tree/6859f7c77d07d455b7b5608f789894febec0a673/core/monitoring.lgt" xlink:title="https://github.com/LogtalkDotOrg/logtalk3/tree/6859f7c77d07d455b7b5608f789894febec0a673/core/monitoring.lgt">
<text text-anchor="start" x="176" y="-443.75" font-family="Monospace" font-size="10.00" fill="dimgray">monitoring.lgt</text>
</a>
</g>
</a>
</g>
</g>
<g id="clust4" class="cluster">
<title>cluster_file_/opt/local/share/logtalk/core/forwarding.lgt</title>
<g id="a_clust4"><a xlink:title="forwarding.lgt">
<path fill="snow" stroke="dimgray" d="M314,-438.5C314,-438.5 418,-438.5 418,-438.5 424,-438.5 430,-444.5 430,-450.5 430,-450.5 430,-531.75 430,-531.75 430,-537.75 424,-543.75 418,-543.75 418,-543.75 314,-543.75 314,-543.75 308,-543.75 302,-537.75 302,-531.75 302,-531.75 302,-450.5 302,-450.5 302,-444.5 308,-438.5 314,-438.5"/>
<g id="a_clust4_3"><a xlink:href="https://github.com/LogtalkDotOrg/logtalk3/tree/6859f7c77d07d455b7b5608f789894febec0a673/core/forwarding.lgt" xlink:title="https://github.com/LogtalkDotOrg/logtalk3/tree/6859f7c77d07d455b7b5608f789894febec0a673/core/forwarding.lgt">
<text text-anchor="start" x="314" y="-448.25" font-family="Monospace" font-size="10.00" fill="dimgray">forwarding.lgt</text>
</a>
</g>
</a>
</g>
</g>
<g id="clust5" class="cluster">
<title>cluster_file_/opt/local/share/logtalk/core/user.lgt</title>
<g id="a_clust5"><a xlink:title="user.lgt">
<path fill="snow" stroke="dimgray" d="M30,-195C30,-195 140,-195 140,-195 146,-195 152,-201 152,-207 152,-207 152,-270.25 152,-270.25 152,-276.25 146,-282.25 140,-282.25 140,-282.25 30,-282.25 30,-282.25 24,-282.25 18,-276.25 18,-270.25 18,-270.25 18,-207 18,-207 18,-201 24,-195 30,-195"/>
<g id="a_clust5_4"><a xlink:href="https://github.com/LogtalkDotOrg/logtalk3/tree/6859f7c77d07d455b7b5608f789894febec0a673/core/user.lgt" xlink:title="https://github.com/LogtalkDotOrg/logtalk3/tree/6859f7c77d07d455b7b5608f789894febec0a673/core/user.lgt">
<text text-anchor="start" x="30" y="-204.75" font-family="Monospace" font-size="10.00" fill="dimgray">user.lgt</text>
</a>
</g>
</a>
</g>
</g>
<g id="clust6" class="cluster">
<title>cluster_file_/opt/local/share/logtalk/core/logtalk.lgt</title>
<g id="a_clust6"><a xlink:title="logtalk.lgt">
<path fill="snow" stroke="dimgray" d="M174,-87C174,-87 370,-87 370,-87 376,-87 382,-93 382,-99 382,-99 382,-378.25 382,-378.25 382,-384.25 376,-390.25 370,-390.25 370,-390.25 174,-390.25 174,-390.25 168,-390.25 162,-384.25 162,-378.25 162,-378.25 162,-99 162,-99 162,-93 168,-87 174,-87"/>
<g id="a_clust6_5"><a xlink:href="https://github.com/LogtalkDotOrg/logtalk3/tree/6859f7c77d07d455b7b5608f789894febec0a673/core/logtalk.lgt" xlink:title="https://github.com/LogtalkDotOrg/logtalk3/tree/6859f7c77d07d455b7b5608f789894febec0a673/core/logtalk.lgt">
<text text-anchor="start" x="174" y="-96.75" font-family="Monospace" font-size="10.00" fill="dimgray">logtalk.lgt</text>
</a>
</g>
</a>
</g>
</g>
<g id="clust7" class="cluster">
<title>cluster_file_/opt/local/share/logtalk/core/core_messages.lgt</title>
<g id="a_clust7"><a xlink:title="core_messages.lgt">
<path fill="snow" stroke="dimgray" d="M404,-181.5C404,-181.5 600,-181.5 600,-181.5 606,-181.5 612,-187.5 612,-193.5 612,-193.5 612,-283.75 612,-283.75 612,-289.75 606,-295.75 600,-295.75 600,-295.75 404,-295.75 404,-295.75 398,-295.75 392,-289.75 392,-283.75 392,-283.75 392,-193.5 392,-193.5 392,-187.5 398,-181.5 404,-181.5"/>
<g id="a_clust7_6"><a xlink:href="https://github.com/LogtalkDotOrg/logtalk3/tree/6859f7c77d07d455b7b5608f789894febec0a673/core/core_messages.lgt" xlink:title="https://github.com/LogtalkDotOrg/logtalk3/tree/6859f7c77d07d455b7b5608f789894febec0a673/core/core_messages.lgt">
<text text-anchor="start" x="404" y="-191.25" font-family="Monospace" font-size="10.00" fill="dimgray">core_messages.lgt</text>
</a>
</g>
</a>
</g>
</g>
<!-- expanding -->
<g id="node1" class="node">
<title>expanding</title>
<g id="a_node1"><a xlink:href="https://logtalk.org/library/expanding_0.html" xlink:title="https://logtalk.org/library/expanding_0.html">
<polygon fill="aquamarine" stroke="black" points="138,-538.25 28,-538.25 28,-471.25 144,-471.25 144,-532.25 138,-538.25"/>
<polyline fill="none" stroke="black" points="138,-538.25 138,-532.25"/>
<polyline fill="none" stroke="black" points="144,-532.25 138,-532.25"/>
<g id="a_node1_7"><a xlink:href="expanding_protocol_xref_diagram.svg" xlink:title="Zoom">
<image xlink:href="zoom.png" width="11px" height="11px" preserveAspectRatio="xMinYMin meet" x="36" y="-534.25"/>
</a>
</g>
<text text-anchor="start" x="38.88" y="-513.58" font-family="Monospace" font-size="9.00"> </text>
<text text-anchor="start" x="58.62" y="-512.8" font-family="Monospace" font-size="11.00">expanding</text>
<text text-anchor="start" x="130.88" y="-513.58" font-family="Monospace" font-size="9.00"> </text>
<text text-anchor="start" x="38.88" y="-502.7" font-family="Monospace" font-size="9.00"> </text>
<text text-anchor="start" x="50.75" y="-504.23" font-family="Monospace" font-size="7.00">built&#45;in protocol</text>
<text text-anchor="start" x="130.88" y="-502.7" font-family="Monospace" font-size="9.00"> </text>
<text text-anchor="start" x="38.88" y="-493.7" font-family="Monospace" font-size="9.00"> </text>
<text text-anchor="start" x="38.88" y="-484.7" font-family="Monospace" font-size="9.00"> </text>
<text text-anchor="start" x="47" y="-484.7" font-family="Monospace" font-size="9.00">goal_expansion/2</text>
<text text-anchor="start" x="130.88" y="-484.7" font-family="Monospace" font-size="9.00"> </text>
<text text-anchor="start" x="38.88" y="-475.7" font-family="Monospace" font-size="9.00"> </text>
<text text-anchor="start" x="47" y="-475.7" font-family="Monospace" font-size="9.00">term_expansion/2</text>
<text text-anchor="start" x="130.88" y="-475.7" font-family="Monospace" font-size="9.00"> </text>
</a>
</g>
</g>
<!-- monitoring -->
<g id="node2" class="node">
<title>monitoring</title>
<g id="a_node2"><a xlink:href="https://logtalk.org/library/monitoring_0.html" xlink:title="https://logtalk.org/library/monitoring_0.html">
<polygon fill="aquamarine" stroke="black" points="276,-538.25 174,-538.25 174,-471.25 282,-471.25 282,-532.25 276,-538.25"/>
<polyline fill="none" stroke="black" points="276,-538.25 276,-532.25"/>
<polyline fill="none" stroke="black" points="282,-532.25 276,-532.25"/>
<g id="a_node2_8"><a xlink:href="monitoring_protocol_xref_diagram.svg" xlink:title="Zoom">
<image xlink:href="zoom.png" width="11px" height="11px" preserveAspectRatio="xMinYMin meet" x="182" y="-534.25"/>
</a>
</g>
<text text-anchor="start" x="184.88" y="-513.58" font-family="Monospace" font-size="9.00"> </text>
<text text-anchor="start" x="197.25" y="-512.8" font-family="Monospace" font-size="11.00">monitoring</text>
<text text-anchor="start" x="268.88" y="-513.58" font-family="Monospace" font-size="9.00"> </text>
<text text-anchor="start" x="184.88" y="-502.7" font-family="Monospace" font-size="9.00"> </text>
<text text-anchor="start" x="192.75" y="-504.23" font-family="Monospace" font-size="7.00">built&#45;in protocol</text>
<text text-anchor="start" x="268.88" y="-502.7" font-family="Monospace" font-size="9.00"> </text>
<text text-anchor="start" x="184.88" y="-493.7" font-family="Monospace" font-size="9.00"> </text>
<text text-anchor="start" x="184.88" y="-484.7" font-family="Monospace" font-size="9.00"> </text>
<text text-anchor="start" x="210" y="-484.7" font-family="Monospace" font-size="9.00">before/3</text>
<text text-anchor="start" x="268.88" y="-484.7" font-family="Monospace" font-size="9.00"> </text>
<text text-anchor="start" x="184.88" y="-475.7" font-family="Monospace" font-size="9.00"> </text>
<text text-anchor="start" x="212.62" y="-475.7" font-family="Monospace" font-size="9.00">after/3</text>
<text text-anchor="start" x="268.88" y="-475.7" font-family="Monospace" font-size="9.00"> </text>
</a>
</g>
</g>
<!-- forwarding -->
<g id="node3" class="node">
<title>forwarding</title>
<g id="a_node3"><a xlink:href="https://logtalk.org/library/forwarding_0.html" xlink:title="https://logtalk.org/library/forwarding_0.html">
<polygon fill="aquamarine" stroke="black" points="414,-533.75 312,-533.75 312,-475.75 420,-475.75 420,-527.75 414,-533.75"/>
<polyline fill="none" stroke="black" points="414,-533.75 414,-527.75"/>
<polyline fill="none" stroke="black" points="420,-527.75 414,-527.75"/>
<g id="a_node3_9"><a xlink:href="forwarding_protocol_xref_diagram.svg" xlink:title="Zoom">
<image xlink:href="zoom.png" width="11px" height="11px" preserveAspectRatio="xMinYMin meet" x="320" y="-529.75"/>
</a>
</g>
<text text-anchor="start" x="322.88" y="-509.07" font-family="Monospace" font-size="9.00"> </text>
<text text-anchor="start" x="335.25" y="-508.3" font-family="Monospace" font-size="11.00">forwarding</text>
<text text-anchor="start" x="406.88" y="-509.07" font-family="Monospace" font-size="9.00"> </text>
<text text-anchor="start" x="322.88" y="-498.2" font-family="Monospace" font-size="9.00"> </text>
<text text-anchor="start" x="330.75" y="-499.73" font-family="Monospace" font-size="7.00">built&#45;in protocol</text>
<text text-anchor="start" x="406.88" y="-498.2" font-family="Monospace" font-size="9.00"> </text>
<text text-anchor="start" x="322.88" y="-489.2" font-family="Monospace" font-size="9.00"> </text>
<text text-anchor="start" x="322.88" y="-480.2" font-family="Monospace" font-size="9.00"> </text>
<text text-anchor="start" x="345.38" y="-480.2" font-family="Monospace" font-size="9.00">forward/1</text>
<text text-anchor="start" x="406.88" y="-480.2" font-family="Monospace" font-size="9.00"> </text>
</a>
</g>
</g>
<!-- user -->
<g id="node4" class="node">
<title>user</title>
<g id="a_node4"><a xlink:href="https://logtalk.org/library/user_0.html" xlink:title="https://logtalk.org/library/user_0.html">
<polygon fill="cornsilk" stroke="black" points="141.5,-272.25 28.5,-272.25 28.5,-232.25 141.5,-232.25 141.5,-272.25"/>
<g id="a_node4_10"><a xlink:href="user_object_xref_diagram.svg" xlink:title="Zoom">
<image xlink:href="zoom.png" width="11px" height="11px" preserveAspectRatio="xMinYMin meet" x="36.5" y="-268.25"/>
</a>
</g>
<text text-anchor="start" x="39.38" y="-247.57" font-family="Monospace" font-size="9.00"> </text>
<text text-anchor="start" x="74.5" y="-246.8" font-family="Monospace" font-size="11.00">user</text>
<text text-anchor="start" x="128.38" y="-247.57" font-family="Monospace" font-size="9.00"> </text>
<text text-anchor="start" x="39.38" y="-236.7" font-family="Monospace" font-size="9.00"> </text>
<text text-anchor="start" x="47.5" y="-238.22" font-family="Monospace" font-size="7.00">built&#45;in prototype</text>
<text text-anchor="start" x="128.38" y="-236.7" font-family="Monospace" font-size="9.00"> </text>
</a>
</g>
</g>
<!-- user&#45;&gt;expanding -->
<g id="edge1" class="edge">
<title>user&#45;&gt;expanding</title>
<g id="a_edge1"><a xlink:href="https://logtalk.org/library/user_0.html" xlink:title="implements">
<path fill="none" stroke="black" d="M85.08,-272.49C85.24,-312.86 85.61,-407.21 85.83,-462.11"/>
<ellipse fill="black" stroke="black" cx="85.85" cy="-466.39" rx="4" ry="4"/>
</a>
</g>
<g id="a_edge1&#45;label"><a xlink:href="https://logtalk.org/library/user_0.html" xlink:title="https://logtalk.org/library/user_0.html">
<text text-anchor="start" x="85" y="-417.45" font-family="Monospace" font-size="9.00">implements</text>
</a>
</g>
</g>
<!-- user&#45;&gt;monitoring -->
<g id="edge3" class="edge">
<title>user&#45;&gt;monitoring</title>
<g id="a_edge3"><a xlink:href="https://logtalk.org/library/user_0.html" xlink:title="implements">
<path fill="none" stroke="black" d="M94.78,-272.52C108.45,-299.22 134.25,-348.88 158,-390.25 172.12,-414.86 188.77,-441.91 202.28,-463.44"/>
<ellipse fill="black" stroke="black" cx="204.52" cy="-467" rx="4" ry="4"/>
</a>
</g>
<g id="a_edge3&#45;label"><a xlink:href="https://logtalk.org/library/user_0.html" xlink:title="https://logtalk.org/library/user_0.html">
<text text-anchor="start" x="178" y="-417.45" font-family="Monospace" font-size="9.00">implements</text>
</a>
</g>
</g>
<!-- user&#45;&gt;forwarding -->
<g id="edge2" class="edge">
<title>user&#45;&gt;forwarding</title>
<g id="a_edge2"><a xlink:href="https://logtalk.org/library/user_0.html" xlink:title="implements">
<path fill="none" stroke="black" d="M90.18,-272.62C99.08,-302.25 120.09,-358.7 158,-390.25 207.45,-431.41 240.99,-400.63 296,-434 311.24,-443.24 325.64,-456.47 337.37,-468.93"/>
<ellipse fill="black" stroke="black" cx="340.21" cy="-472.03" rx="4" ry="4"/>
</a>
</g>
<g id="a_edge2&#45;label"><a xlink:href="https://logtalk.org/library/user_0.html" xlink:title="https://logtalk.org/library/user_0.html">
<text text-anchor="start" x="280" y="-417.45" font-family="Monospace" font-size="9.00">implements</text>
</a>
</g>
</g>
<!-- logtalk -->
<g id="node5" class="node">
<title>logtalk</title>
<g id="a_node5"><a xlink:href="https://logtalk.org/library/logtalk_0.html" xlink:title="https://logtalk.org/library/logtalk_0.html">
<polygon fill="cornsilk" stroke="black" points="372,-380.25 172,-380.25 172,-124.25 372,-124.25 372,-380.25"/>
<g id="a_node5_11"><a xlink:href="logtalk_object_xref_diagram.svg" xlink:title="Zoom">
<image xlink:href="zoom.png" width="11px" height="11px" preserveAspectRatio="xMinYMin meet" x="180" y="-376.25"/>
</a>
</g>
<text text-anchor="start" x="182.88" y="-355.57" font-family="Monospace" font-size="9.00"> </text>
<text text-anchor="start" x="251.38" y="-354.8" font-family="Monospace" font-size="11.00">logtalk</text>
<text text-anchor="start" x="358.88" y="-355.57" font-family="Monospace" font-size="9.00"> </text>
<text text-anchor="start" x="182.88" y="-344.7" font-family="Monospace" font-size="9.00"> </text>
<text text-anchor="start" x="234.5" y="-346.23" font-family="Monospace" font-size="7.00">built&#45;in prototype</text>
<text text-anchor="start" x="358.88" y="-344.7" font-family="Monospace" font-size="9.00"> </text>
<text text-anchor="start" x="182.88" y="-335.7" font-family="Monospace" font-size="9.00"> </text>
<text text-anchor="start" x="182.88" y="-326.7" font-family="Monospace" font-size="9.00"> </text>
<text text-anchor="start" x="235.62" y="-326.7" font-family="Monospace" font-size="9.00">print_message/3</text>
<text text-anchor="start" x="358.88" y="-326.7" font-family="Monospace" font-size="9.00"> </text>
<text text-anchor="start" x="182.88" y="-317.7" font-family="Monospace" font-size="9.00"> </text>
<text text-anchor="start" x="217.25" y="-317.7" font-family="Monospace" font-size="9.00">print_message_tokens/3</text>
<text text-anchor="start" x="358.88" y="-317.7" font-family="Monospace" font-size="9.00"> </text>
<text text-anchor="start" x="182.88" y="-308.7" font-family="Monospace" font-size="9.00"> </text>
<text text-anchor="start" x="219.88" y="-308.7" font-family="Monospace" font-size="9.00">print_message_token/4</text>
<text text-anchor="start" x="358.88" y="-308.7" font-family="Monospace" font-size="9.00"> </text>
<text text-anchor="start" x="182.88" y="-299.7" font-family="Monospace" font-size="9.00"> </text>
<text text-anchor="start" x="230.38" y="-299.7" font-family="Monospace" font-size="9.00">message_tokens//2</text>
<text text-anchor="start" x="358.88" y="-299.7" font-family="Monospace" font-size="9.00"> </text>
<text text-anchor="start" x="182.88" y="-290.7" font-family="Monospace" font-size="9.00"> </text>
<text text-anchor="start" x="214.62" y="-290.7" font-family="Monospace" font-size="9.00">message_prefix_stream/4</text>
<text text-anchor="start" x="358.88" y="-290.7" font-family="Monospace" font-size="9.00"> </text>
<text text-anchor="start" x="182.88" y="-281.7" font-family="Monospace" font-size="9.00"> </text>
<text text-anchor="start" x="238.25" y="-281.7" font-family="Monospace" font-size="9.00">message_hook/4</text>
<text text-anchor="start" x="358.88" y="-281.7" font-family="Monospace" font-size="9.00"> </text>
<text text-anchor="start" x="182.88" y="-272.7" font-family="Monospace" font-size="9.00"> </text>
<text text-anchor="start" x="238.25" y="-272.7" font-family="Monospace" font-size="9.00">ask_question/5</text>
<text text-anchor="start" x="358.88" y="-272.7" font-family="Monospace" font-size="9.00"> </text>
<text text-anchor="start" x="182.88" y="-263.7" font-family="Monospace" font-size="9.00"> </text>
<text text-anchor="start" x="235.62" y="-263.7" font-family="Monospace" font-size="9.00">question_hook/6</text>
<text text-anchor="start" x="358.88" y="-263.7" font-family="Monospace" font-size="9.00"> </text>
<text text-anchor="start" x="182.88" y="-254.7" font-family="Monospace" font-size="9.00"> </text>
<text text-anchor="start" x="212" y="-254.7" font-family="Monospace" font-size="9.00">question_prompt_stream/4</text>
<text text-anchor="start" x="358.88" y="-254.7" font-family="Monospace" font-size="9.00"> </text>
<text text-anchor="start" x="182.88" y="-245.7" font-family="Monospace" font-size="9.00"> </text>
<text text-anchor="start" x="240.88" y="-245.7" font-family="Monospace" font-size="9.00">trace_event/2</text>
<text text-anchor="start" x="358.88" y="-245.7" font-family="Monospace" font-size="9.00"> </text>
<text text-anchor="start" x="182.88" y="-236.7" font-family="Monospace" font-size="9.00"> </text>
<text text-anchor="start" x="212" y="-236.7" font-family="Monospace" font-size="9.00">debug_handler_provider/1</text>
<text text-anchor="start" x="358.88" y="-236.7" font-family="Monospace" font-size="9.00"> </text>
<text text-anchor="start" x="182.88" y="-227.7" font-family="Monospace" font-size="9.00"> </text>
<text text-anchor="start" x="235.62" y="-227.7" font-family="Monospace" font-size="9.00">debug_handler/2</text>
<text text-anchor="start" x="358.88" y="-227.7" font-family="Monospace" font-size="9.00"> </text>
<text text-anchor="start" x="182.88" y="-218.7" font-family="Monospace" font-size="9.00"> </text>
<text text-anchor="start" x="219.88" y="-218.7" font-family="Monospace" font-size="9.00">expand_library_path/2</text>
<text text-anchor="start" x="358.88" y="-218.7" font-family="Monospace" font-size="9.00"> </text>
<text text-anchor="start" x="182.88" y="-209.7" font-family="Monospace" font-size="9.00"> </text>
<text text-anchor="start" x="240.88" y="-209.7" font-family="Monospace" font-size="9.00">loaded_file/1</text>
<text text-anchor="start" x="358.88" y="-209.7" font-family="Monospace" font-size="9.00"> </text>
<text text-anchor="start" x="182.88" y="-200.7" font-family="Monospace" font-size="9.00"> </text>
<text text-anchor="start" x="217.25" y="-200.7" font-family="Monospace" font-size="9.00">loaded_file_property/2</text>
<text text-anchor="start" x="358.88" y="-200.7" font-family="Monospace" font-size="9.00"> </text>
<text text-anchor="start" x="182.88" y="-191.7" font-family="Monospace" font-size="9.00"> </text>
<text text-anchor="start" x="219.88" y="-191.7" font-family="Monospace" font-size="9.00">file_type_extension/2</text>
<text text-anchor="start" x="358.88" y="-191.7" font-family="Monospace" font-size="9.00"> </text>
<text text-anchor="start" x="182.88" y="-182.7" font-family="Monospace" font-size="9.00"> </text>
<text text-anchor="start" x="219.88" y="-182.7" font-family="Monospace" font-size="9.00">compile_aux_clauses/1</text>
<text text-anchor="start" x="358.88" y="-182.7" font-family="Monospace" font-size="9.00"> </text>
<text text-anchor="start" x="182.88" y="-173.7" font-family="Monospace" font-size="9.00"> </text>
<text text-anchor="start" x="235.62" y="-173.7" font-family="Monospace" font-size="9.00">entity_prefix/2</text>
<text text-anchor="start" x="358.88" y="-173.7" font-family="Monospace" font-size="9.00"> </text>
<text text-anchor="start" x="182.88" y="-164.7" font-family="Monospace" font-size="9.00"> </text>
<text text-anchor="start" x="209.38" y="-164.7" font-family="Monospace" font-size="9.00">compile_predicate_heads/4</text>
<text text-anchor="start" x="358.88" y="-164.7" font-family="Monospace" font-size="9.00"> </text>
<text text-anchor="start" x="182.88" y="-155.7" font-family="Monospace" font-size="9.00"> </text>
<text text-anchor="start" x="196.25" y="-155.7" font-family="Monospace" font-size="9.00">compile_predicate_indicators/3</text>
<text text-anchor="start" x="358.88" y="-155.7" font-family="Monospace" font-size="9.00"> </text>
<text text-anchor="start" x="182.88" y="-146.7" font-family="Monospace" font-size="9.00"> </text>
<text text-anchor="start" x="204.12" y="-146.7" font-family="Monospace" font-size="9.00">decompile_predicate_heads/4</text>
<text text-anchor="start" x="358.88" y="-146.7" font-family="Monospace" font-size="9.00"> </text>
<text text-anchor="start" x="182.88" y="-137.7" font-family="Monospace" font-size="9.00"> </text>
<text text-anchor="start" x="191" y="-137.7" font-family="Monospace" font-size="9.00">decompile_predicate_indicators/4</text>
<text text-anchor="start" x="358.88" y="-137.7" font-family="Monospace" font-size="9.00"> </text>
<text text-anchor="start" x="182.88" y="-128.7" font-family="Monospace" font-size="9.00"> </text>
<text text-anchor="start" x="225.12" y="-128.7" font-family="Monospace" font-size="9.00">execution_context/7</text>
<text text-anchor="start" x="358.88" y="-128.7" font-family="Monospace" font-size="9.00"> </text>
</a>
</g>
</g>
<!-- core_messages -->
<g id="node6" class="node">
<title>core_messages</title>
<g id="a_node6"><a xlink:href="https://logtalk.org/library/core_messages_0.html" xlink:title="https://logtalk.org/library/core_messages_0.html">
<polygon fill="lightcyan" stroke="black" points="602,-285.75 402,-285.75 402,-281.75 398,-281.75 398,-277.75 402,-277.75 402,-226.75 398,-226.75 398,-222.75 402,-222.75 402,-218.75 602,-218.75 602,-285.75"/>
<polyline fill="none" stroke="black" points="402,-281.75 406,-281.75 406,-277.75 402,-277.75"/>
<polyline fill="none" stroke="black" points="402,-226.75 406,-226.75 406,-222.75 402,-222.75"/>
<g id="a_node6_12"><a xlink:href="core_messages_category_xref_diagram.svg" xlink:title="Zoom">
<image xlink:href="zoom.png" width="11px" height="11px" preserveAspectRatio="xMinYMin meet" x="410" y="-281.75"/>
</a>
</g>
<text text-anchor="start" x="412.88" y="-261.07" font-family="Monospace" font-size="9.00"> </text>
<text text-anchor="start" x="461.12" y="-260.3" font-family="Monospace" font-size="11.00">core_messages</text>
<text text-anchor="start" x="588.88" y="-261.07" font-family="Monospace" font-size="9.00"> </text>
<text text-anchor="start" x="412.88" y="-250.2" font-family="Monospace" font-size="9.00"> </text>
<text text-anchor="start" x="466.75" y="-251.72" font-family="Monospace" font-size="7.00">built&#45;in category</text>
<text text-anchor="start" x="588.88" y="-250.2" font-family="Monospace" font-size="9.00"> </text>
<text text-anchor="start" x="412.88" y="-241.2" font-family="Monospace" font-size="9.00"> </text>
<text text-anchor="start" x="412.88" y="-232.2" font-family="Monospace" font-size="9.00"> </text>
<text text-anchor="start" x="421" y="-232.2" font-family="Monospace" font-size="9.00">logtalk::message_prefix_stream/4</text>
<text text-anchor="start" x="588.88" y="-232.2" font-family="Monospace" font-size="9.00"> </text>
<text text-anchor="start" x="412.88" y="-223.2" font-family="Monospace" font-size="9.00"> </text>
<text text-anchor="start" x="436.75" y="-223.2" font-family="Monospace" font-size="9.00">logtalk::message_tokens//2</text>
<text text-anchor="start" x="588.88" y="-223.2" font-family="Monospace" font-size="9.00"> </text>
</a>
</g>
</g>
</g>
</svg>
