<?xml version="1.0" encoding="UTF-8" standalone="no"?>
<?xml-stylesheet href="diagrams.css" type="text/css"?>
<!DOCTYPE svg PUBLIC "-//W3C//DTD SVG 1.1//EN"
 "http://www.w3.org/Graphics/SVG/1.1/DTD/svg11.dtd">
<!-- Generated by graphviz version 2.49.3 (20211023.0002)
 -->
<!-- Title: core Pages: 1 -->
<svg width="716pt" height="746pt"
 viewBox="72.00 72.00 644.00 674.00" xmlns="http://www.w3.org/2000/svg" xmlns:xlink="http://www.w3.org/1999/xlink">
<g id="graph0" class="graph" transform="scale(1 1) rotate(0) translate(76 670)">
<title>core</title>
<polygon fill="white" stroke="transparent" points="-4,4 -4,-598 568,-598 568,4 -4,4"/>
<text text-anchor="start" x="8" y="-29" font-family="Courier,monospace" font-size="10.00" fill="dimgray">Logtalk core entities</text>
<text text-anchor="start" x="8" y="-18" font-family="Courier,monospace" font-size="10.00" fill="dimgray">Inheritance diagram for library core</text>
<text text-anchor="start" x="8" y="-7" font-family="Courier,monospace" font-size="10.00" fill="dimgray">Generated on 2021&#45;11&#45;12, 21:32</text>
<g id="clust1" class="cluster">
<title>cluster_library_core</title>
<g id="a_clust1"><a xlink:title="core/">
<path fill="whitesmoke" stroke="dimgray" d="M20,-49C20,-49 544,-49 544,-49 550,-49 556,-55 556,-61 556,-61 556,-574 556,-574 556,-580 550,-586 544,-586 544,-586 20,-586 20,-586 14,-586 8,-580 8,-574 8,-574 8,-61 8,-61 8,-55 14,-49 20,-49"/>
<g id="a_clust1_0"><a xlink:href="https://github.com/LogtalkDotOrg/logtalk3/tree/da1b904fb338cb0213d64d8c5e20b502297dd0fd/core/" xlink:title="https://github.com/LogtalkDotOrg/logtalk3/tree/da1b904fb338cb0213d64d8c5e20b502297dd0fd/core/">
<text text-anchor="start" x="20.5" y="-59.5" font-family="Courier,monospace" font-size="10.00" fill="dimgray">core/</text>
</a>
</g>
</a>
</g>
</g>
<g id="clust2" class="cluster">
<title>cluster_file_/opt/local/share/logtalk/core/expanding.lgt</title>
<g id="a_clust2"><a xlink:title="expanding.lgt">
<path fill="snow" stroke="dimgray" d="M190,-458C190,-458 290,-458 290,-458 296,-458 302,-464 302,-470 302,-470 302,-564 302,-564 302,-570 296,-576 290,-576 290,-576 190,-576 190,-576 184,-576 178,-570 178,-564 178,-564 178,-470 178,-470 178,-464 184,-458 190,-458"/>
<g id="a_clust2_1"><a xlink:href="https://github.com/LogtalkDotOrg/logtalk3/tree/da1b904fb338cb0213d64d8c5e20b502297dd0fd/core/expanding.lgt" xlink:title="https://github.com/LogtalkDotOrg/logtalk3/tree/da1b904fb338cb0213d64d8c5e20b502297dd0fd/core/expanding.lgt">
<text text-anchor="start" x="190.5" y="-468.5" font-family="Courier,monospace" font-size="10.00" fill="dimgray">expanding.lgt</text>
</a>
</g>
</a>
</g>
</g>
<g id="clust5" class="cluster">
<title>cluster_file_/opt/local/share/logtalk/core/user.lgt</title>
<g id="a_clust5"><a xlink:title="user.lgt">
<path fill="snow" stroke="dimgray" d="M442,-206C442,-206 534,-206 534,-206 540,-206 546,-212 546,-218 546,-218 546,-282 546,-282 546,-288 540,-294 534,-294 534,-294 442,-294 442,-294 436,-294 430,-288 430,-282 430,-282 430,-218 430,-218 430,-212 436,-206 442,-206"/>
<g id="a_clust5_2"><a xlink:href="https://github.com/LogtalkDotOrg/logtalk3/tree/da1b904fb338cb0213d64d8c5e20b502297dd0fd/core/user.lgt" xlink:title="https://github.com/LogtalkDotOrg/logtalk3/tree/da1b904fb338cb0213d64d8c5e20b502297dd0fd/core/user.lgt">
<text text-anchor="start" x="442" y="-216.5" font-family="Courier,monospace" font-size="10.00" fill="dimgray">user.lgt</text>
</a>
</g>
</a>
</g>
</g>
<g id="clust6" class="cluster">
<title>cluster_file_/opt/local/share/logtalk/core/logtalk.lgt</title>
<g id="a_clust6"><a xlink:title="logtalk.lgt">
<path fill="snow" stroke="dimgray" d="M236,-86C236,-86 408,-86 408,-86 414,-86 420,-92 420,-98 420,-98 420,-402 420,-402 420,-408 414,-414 408,-414 408,-414 236,-414 236,-414 230,-414 224,-408 224,-402 224,-402 224,-98 224,-98 224,-92 230,-86 236,-86"/>
<g id="a_clust6_3"><a xlink:href="https://github.com/LogtalkDotOrg/logtalk3/tree/da1b904fb338cb0213d64d8c5e20b502297dd0fd/core/logtalk.lgt" xlink:title="https://github.com/LogtalkDotOrg/logtalk3/tree/da1b904fb338cb0213d64d8c5e20b502297dd0fd/core/logtalk.lgt">
<text text-anchor="start" x="236.5" y="-96.5" font-family="Courier,monospace" font-size="10.00" fill="dimgray">logtalk.lgt</text>
</a>
</g>
</a>
</g>
</g>
<g id="clust3" class="cluster">
<title>cluster_file_/opt/local/share/logtalk/core/monitoring.lgt</title>
<g id="a_clust3"><a xlink:title="monitoring.lgt">
<path fill="snow" stroke="dimgray" d="M324,-458C324,-458 412,-458 412,-458 418,-458 424,-464 424,-470 424,-470 424,-564 424,-564 424,-570 418,-576 412,-576 412,-576 324,-576 324,-576 318,-576 312,-570 312,-564 312,-564 312,-470 312,-470 312,-464 318,-458 324,-458"/>
<g id="a_clust3_4"><a xlink:href="https://github.com/LogtalkDotOrg/logtalk3/tree/da1b904fb338cb0213d64d8c5e20b502297dd0fd/core/monitoring.lgt" xlink:title="https://github.com/LogtalkDotOrg/logtalk3/tree/da1b904fb338cb0213d64d8c5e20b502297dd0fd/core/monitoring.lgt">
<text text-anchor="start" x="324" y="-468.5" font-family="Courier,monospace" font-size="10.00" fill="dimgray">monitoring.lgt</text>
</a>
</g>
</a>
</g>
</g>
<g id="clust4" class="cluster">
<title>cluster_file_/opt/local/share/logtalk/core/forwarding.lgt</title>
<g id="a_clust4"><a xlink:title="forwarding.lgt">
<path fill="snow" stroke="dimgray" d="M446,-463C446,-463 534,-463 534,-463 540,-463 546,-469 546,-475 546,-475 546,-559 546,-559 546,-565 540,-571 534,-571 534,-571 446,-571 446,-571 440,-571 434,-565 434,-559 434,-559 434,-475 434,-475 434,-469 440,-463 446,-463"/>
<g id="a_clust4_5"><a xlink:href="https://github.com/LogtalkDotOrg/logtalk3/tree/da1b904fb338cb0213d64d8c5e20b502297dd0fd/core/forwarding.lgt" xlink:title="https://github.com/LogtalkDotOrg/logtalk3/tree/da1b904fb338cb0213d64d8c5e20b502297dd0fd/core/forwarding.lgt">
<text text-anchor="start" x="446" y="-473.5" font-family="Courier,monospace" font-size="10.00" fill="dimgray">forwarding.lgt</text>
</a>
</g>
</a>
</g>
</g>
<g id="clust7" class="cluster">
<title>cluster_file_/opt/local/share/logtalk/core/core_messages.lgt</title>
<g id="a_clust7"><a xlink:title="core_messages.lgt">
<path fill="snow" stroke="dimgray" d="M30,-191C30,-191 202,-191 202,-191 208,-191 214,-197 214,-203 214,-203 214,-297 214,-297 214,-303 208,-309 202,-309 202,-309 30,-309 30,-309 24,-309 18,-303 18,-297 18,-297 18,-203 18,-203 18,-197 24,-191 30,-191"/>
<g id="a_clust7_6"><a xlink:href="https://github.com/LogtalkDotOrg/logtalk3/tree/da1b904fb338cb0213d64d8c5e20b502297dd0fd/core/core_messages.lgt" xlink:title="https://github.com/LogtalkDotOrg/logtalk3/tree/da1b904fb338cb0213d64d8c5e20b502297dd0fd/core/core_messages.lgt">
<text text-anchor="start" x="30.5" y="-201.5" font-family="Courier,monospace" font-size="10.00" fill="dimgray">core_messages.lgt</text>
</a>
</g>
</a>
</g>
</g>
<!-- expanding -->
<g id="node1" class="node">
<title>expanding</title>
<g id="a_node1"><a xlink:href="https://logtalk.org/library/expanding_0.html" xlink:title="https://logtalk.org/library/expanding_0.html">
<polygon fill="aquamarine" stroke="black" points="286,-566 188,-566 188,-495 292,-495 292,-560 286,-566"/>
<polyline fill="none" stroke="black" points="286,-566 286,-560 "/>
<polyline fill="none" stroke="black" points="292,-560 286,-560 "/>
<g id="a_node1_7"><a xlink:href="expanding_protocol_xref_diagram.svg" xlink:title="Zoom">
<image xlink:href="zoom.png" width="11px" height="11px" preserveAspectRatio="xMinYMin meet" x="196" y="-561.5"/>
</a>
</g>
<text text-anchor="start" x="199" y="-542.3" font-family="Courier,monospace" font-size="9.00"> </text>
<text text-anchor="start" x="218" y="-541.7" font-family="Courier,monospace" font-size="11.00">expanding</text>
<text text-anchor="start" x="279" y="-542.3" font-family="Courier,monospace" font-size="9.00"> </text>
<text text-anchor="start" x="199" y="-531.3" font-family="Courier,monospace" font-size="9.00"> </text>
<text text-anchor="start" x="213" y="-531.9" font-family="Courier,monospace" font-size="7.00">built&#45;in protocol</text>
<text text-anchor="start" x="279" y="-531.3" font-family="Courier,monospace" font-size="9.00"> </text>
<text text-anchor="start" x="199" y="-521.3" font-family="Courier,monospace" font-size="9.00"> </text>
<text text-anchor="start" x="199" y="-511.3" font-family="Courier,monospace" font-size="9.00"> </text>
<text text-anchor="start" x="207" y="-511.3" font-family="Courier,monospace" font-size="9.00">goal_expansion/2</text>
<text text-anchor="start" x="279" y="-511.3" font-family="Courier,monospace" font-size="9.00"> </text>
<text text-anchor="start" x="199" y="-501.3" font-family="Courier,monospace" font-size="9.00"> </text>
<text text-anchor="start" x="207" y="-501.3" font-family="Courier,monospace" font-size="9.00">term_expansion/2</text>
<text text-anchor="start" x="279" y="-501.3" font-family="Courier,monospace" font-size="9.00"> </text>
</a>
</g>
</g>
<!-- monitoring -->
<g id="node2" class="node">
<title>monitoring</title>
<g id="a_node2"><a xlink:href="https://logtalk.org/library/monitoring_0.html" xlink:title="https://logtalk.org/library/monitoring_0.html">
<polygon fill="aquamarine" stroke="black" points="408,-566 322,-566 322,-495 414,-495 414,-560 408,-566"/>
<polyline fill="none" stroke="black" points="408,-566 408,-560 "/>
<polyline fill="none" stroke="black" points="414,-560 408,-560 "/>
<g id="a_node2_8"><a xlink:href="monitoring_protocol_xref_diagram.svg" xlink:title="Zoom">
<image xlink:href="zoom.png" width="11px" height="11px" preserveAspectRatio="xMinYMin meet" x="330" y="-561.5"/>
</a>
</g>
<text text-anchor="start" x="333" y="-542.3" font-family="Courier,monospace" font-size="9.00"> </text>
<text text-anchor="start" x="343.5" y="-541.7" font-family="Courier,monospace" font-size="11.00">monitoring</text>
<text text-anchor="start" x="401" y="-542.3" font-family="Courier,monospace" font-size="9.00"> </text>
<text text-anchor="start" x="333" y="-531.3" font-family="Courier,monospace" font-size="9.00"> </text>
<text text-anchor="start" x="341" y="-531.9" font-family="Courier,monospace" font-size="7.00">built&#45;in protocol</text>
<text text-anchor="start" x="401" y="-531.3" font-family="Courier,monospace" font-size="9.00"> </text>
<text text-anchor="start" x="333" y="-521.3" font-family="Courier,monospace" font-size="9.00"> </text>
<text text-anchor="start" x="333" y="-511.3" font-family="Courier,monospace" font-size="9.00"> </text>
<text text-anchor="start" x="353" y="-511.3" font-family="Courier,monospace" font-size="9.00">before/3</text>
<text text-anchor="start" x="401" y="-511.3" font-family="Courier,monospace" font-size="9.00"> </text>
<text text-anchor="start" x="333" y="-501.3" font-family="Courier,monospace" font-size="9.00"> </text>
<text text-anchor="start" x="355" y="-501.3" font-family="Courier,monospace" font-size="9.00">after/3</text>
<text text-anchor="start" x="401" y="-501.3" font-family="Courier,monospace" font-size="9.00"> </text>
</a>
</g>
</g>
<!-- forwarding -->
<g id="node3" class="node">
<title>forwarding</title>
<g id="a_node3"><a xlink:href="https://logtalk.org/library/forwarding_0.html" xlink:title="https://logtalk.org/library/forwarding_0.html">
<polygon fill="aquamarine" stroke="black" points="530,-561 444,-561 444,-500 536,-500 536,-555 530,-561"/>
<polyline fill="none" stroke="black" points="530,-561 530,-555 "/>
<polyline fill="none" stroke="black" points="536,-555 530,-555 "/>
<g id="a_node3_9"><a xlink:href="forwarding_protocol_xref_diagram.svg" xlink:title="Zoom">
<image xlink:href="zoom.png" width="11px" height="11px" preserveAspectRatio="xMinYMin meet" x="452" y="-556.5"/>
</a>
</g>
<text text-anchor="start" x="455" y="-537.3" font-family="Courier,monospace" font-size="9.00"> </text>
<text text-anchor="start" x="465.5" y="-536.7" font-family="Courier,monospace" font-size="11.00">forwarding</text>
<text text-anchor="start" x="523" y="-537.3" font-family="Courier,monospace" font-size="9.00"> </text>
<text text-anchor="start" x="455" y="-526.3" font-family="Courier,monospace" font-size="9.00"> </text>
<text text-anchor="start" x="463" y="-526.9" font-family="Courier,monospace" font-size="7.00">built&#45;in protocol</text>
<text text-anchor="start" x="523" y="-526.3" font-family="Courier,monospace" font-size="9.00"> </text>
<text text-anchor="start" x="455" y="-516.3" font-family="Courier,monospace" font-size="9.00"> </text>
<text text-anchor="start" x="455" y="-506.3" font-family="Courier,monospace" font-size="9.00"> </text>
<text text-anchor="start" x="472.5" y="-506.3" font-family="Courier,monospace" font-size="9.00">forward/1</text>
<text text-anchor="start" x="523" y="-506.3" font-family="Courier,monospace" font-size="9.00"> </text>
</a>
</g>
</g>
<!-- user -->
<g id="node4" class="node">
<title>user</title>
<g id="a_node4"><a xlink:href="https://logtalk.org/library/user_0.html" xlink:title="https://logtalk.org/library/user_0.html">
<polygon fill="cornsilk" stroke="black" points="535.5,-284 440.5,-284 440.5,-243 535.5,-243 535.5,-284"/>
<g id="a_node4_10"><a xlink:href="user_object_xref_diagram.svg" xlink:title="Zoom">
<image xlink:href="zoom.png" width="11px" height="11px" preserveAspectRatio="xMinYMin meet" x="449" y="-279.5"/>
</a>
</g>
<text text-anchor="start" x="452" y="-260.3" font-family="Courier,monospace" font-size="9.00"> </text>
<text text-anchor="start" x="480.5" y="-259.7" font-family="Courier,monospace" font-size="11.00">user</text>
<text text-anchor="start" x="523" y="-260.3" font-family="Courier,monospace" font-size="9.00"> </text>
<text text-anchor="start" x="452" y="-249.3" font-family="Courier,monospace" font-size="9.00"> </text>
<text text-anchor="start" x="460" y="-249.9" font-family="Courier,monospace" font-size="7.00">built&#45;in prototype</text>
<text text-anchor="start" x="523" y="-249.3" font-family="Courier,monospace" font-size="9.00"> </text>
</a>
</g>
</g>
<!-- user&#45;&gt;expanding -->
<g id="edge1" class="edge">
<title>user&#45;&gt;expanding</title>
<g id="a_edge1"><a xlink:href="https://logtalk.org/library/user_0.html" xlink:title="implements">
<path fill="none" stroke="black" d="M484.71,-284.02C478.42,-315.54 461.8,-377.75 424,-414 414.05,-423.54 319.48,-450.37 308,-458 295.24,-466.48 283.1,-477.76 272.69,-488.85"/>
<ellipse fill="black" stroke="black" cx="269.8" cy="-492.02" rx="4" ry="4"/>
</a>
</g>
<g id="a_edge1&#45;label"><a xlink:href="https://logtalk.org/library/user_0.html" xlink:title="https://logtalk.org/library/user_0.html">
<text text-anchor="start" x="354" y="-442.8" font-family="Courier,monospace" font-size="9.00">implements</text>
</a>
</g>
</g>
<!-- user&#45;&gt;monitoring -->
<g id="edge3" class="edge">
<title>user&#45;&gt;monitoring</title>
<g id="a_edge3"><a xlink:href="https://logtalk.org/library/user_0.html" xlink:title="implements">
<path fill="none" stroke="black" d="M479.81,-284.46C467.91,-313.25 444.97,-368.02 424,-414 412.78,-438.59 399.62,-465.81 388.88,-487.64"/>
<ellipse fill="black" stroke="black" cx="387.11" cy="-491.24" rx="4" ry="4"/>
</a>
</g>
<g id="a_edge3&#45;label"><a xlink:href="https://logtalk.org/library/user_0.html" xlink:title="https://logtalk.org/library/user_0.html">
<text text-anchor="start" x="410" y="-442.8" font-family="Courier,monospace" font-size="9.00">implements</text>
</a>
</g>
</g>
<!-- user&#45;&gt;forwarding -->
<g id="edge2" class="edge">
<title>user&#45;&gt;forwarding</title>
<g id="a_edge2"><a xlink:href="https://logtalk.org/library/user_0.html" xlink:title="implements">
<path fill="none" stroke="black" d="M488.15,-284.42C488.48,-328.47 489.29,-434.78 489.72,-491.83"/>
<ellipse fill="black" stroke="black" cx="489.75" cy="-495.87" rx="4" ry="4"/>
</a>
</g>
<g id="a_edge2&#45;label"><a xlink:href="https://logtalk.org/library/user_0.html" xlink:title="https://logtalk.org/library/user_0.html">
<text text-anchor="start" x="489" y="-442.8" font-family="Courier,monospace" font-size="9.00">implements</text>
</a>
</g>
</g>
<!-- logtalk -->
<g id="node5" class="node">
<title>logtalk</title>
<g id="a_node5"><a xlink:href="https://logtalk.org/library/logtalk_0.html" xlink:title="https://logtalk.org/library/logtalk_0.html">
<polygon fill="cornsilk" stroke="black" points="410,-404 234,-404 234,-123 410,-123 410,-404"/>
<g id="a_node5_11"><a xlink:href="logtalk_object_xref_diagram.svg" xlink:title="Zoom">
<image xlink:href="zoom.png" width="11px" height="11px" preserveAspectRatio="xMinYMin meet" x="242" y="-399.5"/>
</a>
</g>
<text text-anchor="start" x="245" y="-380.3" font-family="Courier,monospace" font-size="9.00"> </text>
<text text-anchor="start" x="305.5" y="-379.7" font-family="Courier,monospace" font-size="11.00">logtalk</text>
<text text-anchor="start" x="397" y="-380.3" font-family="Courier,monospace" font-size="9.00"> </text>
<text text-anchor="start" x="245" y="-369.3" font-family="Courier,monospace" font-size="9.00"> </text>
<text text-anchor="start" x="293.5" y="-369.9" font-family="Courier,monospace" font-size="7.00">built&#45;in prototype</text>
<text text-anchor="start" x="397" y="-369.3" font-family="Courier,monospace" font-size="9.00"> </text>
<text text-anchor="start" x="245" y="-359.3" font-family="Courier,monospace" font-size="9.00"> </text>
<text text-anchor="start" x="245" y="-349.3" font-family="Courier,monospace" font-size="9.00"> </text>
<text text-anchor="start" x="291" y="-349.3" font-family="Courier,monospace" font-size="9.00">print_message/3</text>
<text text-anchor="start" x="397" y="-349.3" font-family="Courier,monospace" font-size="9.00"> </text>
<text text-anchor="start" x="245" y="-339.3" font-family="Courier,monospace" font-size="9.00"> </text>
<text text-anchor="start" x="275.5" y="-339.3" font-family="Courier,monospace" font-size="9.00">print_message_tokens/3</text>
<text text-anchor="start" x="397" y="-339.3" font-family="Courier,monospace" font-size="9.00"> </text>
<text text-anchor="start" x="245" y="-329.3" font-family="Courier,monospace" font-size="9.00"> </text>
<text text-anchor="start" x="277.5" y="-329.3" font-family="Courier,monospace" font-size="9.00">print_message_token/4</text>
<text text-anchor="start" x="397" y="-329.3" font-family="Courier,monospace" font-size="9.00"> </text>
<text text-anchor="start" x="245" y="-319.3" font-family="Courier,monospace" font-size="9.00"> </text>
<text text-anchor="start" x="286.5" y="-319.3" font-family="Courier,monospace" font-size="9.00">message_tokens//2</text>
<text text-anchor="start" x="397" y="-319.3" font-family="Courier,monospace" font-size="9.00"> </text>
<text text-anchor="start" x="245" y="-309.3" font-family="Courier,monospace" font-size="9.00"> </text>
<text text-anchor="start" x="273" y="-309.3" font-family="Courier,monospace" font-size="9.00">message_prefix_stream/4</text>
<text text-anchor="start" x="397" y="-309.3" font-family="Courier,monospace" font-size="9.00"> </text>
<text text-anchor="start" x="245" y="-299.3" font-family="Courier,monospace" font-size="9.00"> </text>
<text text-anchor="start" x="293.5" y="-299.3" font-family="Courier,monospace" font-size="9.00">message_hook/4</text>
<text text-anchor="start" x="397" y="-299.3" font-family="Courier,monospace" font-size="9.00"> </text>
<text text-anchor="start" x="245" y="-289.3" font-family="Courier,monospace" font-size="9.00"> </text>
<text text-anchor="start" x="293.5" y="-289.3" font-family="Courier,monospace" font-size="9.00">ask_question/5</text>
<text text-anchor="start" x="397" y="-289.3" font-family="Courier,monospace" font-size="9.00"> </text>
<text text-anchor="start" x="245" y="-279.3" font-family="Courier,monospace" font-size="9.00"> </text>
<text text-anchor="start" x="291" y="-279.3" font-family="Courier,monospace" font-size="9.00">question_hook/6</text>
<text text-anchor="start" x="397" y="-279.3" font-family="Courier,monospace" font-size="9.00"> </text>
<text text-anchor="start" x="245" y="-269.3" font-family="Courier,monospace" font-size="9.00"> </text>
<text text-anchor="start" x="271" y="-269.3" font-family="Courier,monospace" font-size="9.00">question_prompt_stream/4</text>
<text text-anchor="start" x="397" y="-269.3" font-family="Courier,monospace" font-size="9.00"> </text>
<text text-anchor="start" x="245" y="-259.3" font-family="Courier,monospace" font-size="9.00"> </text>
<text text-anchor="start" x="295.5" y="-259.3" font-family="Courier,monospace" font-size="9.00">trace_event/2</text>
<text text-anchor="start" x="397" y="-259.3" font-family="Courier,monospace" font-size="9.00"> </text>
<text text-anchor="start" x="245" y="-249.3" font-family="Courier,monospace" font-size="9.00"> </text>
<text text-anchor="start" x="271" y="-249.3" font-family="Courier,monospace" font-size="9.00">debug_handler_provider/1</text>
<text text-anchor="start" x="397" y="-249.3" font-family="Courier,monospace" font-size="9.00"> </text>
<text text-anchor="start" x="245" y="-239.3" font-family="Courier,monospace" font-size="9.00"> </text>
<text text-anchor="start" x="291" y="-239.3" font-family="Courier,monospace" font-size="9.00">debug_handler/2</text>
<text text-anchor="start" x="397" y="-239.3" font-family="Courier,monospace" font-size="9.00"> </text>
<text text-anchor="start" x="245" y="-229.3" font-family="Courier,monospace" font-size="9.00"> </text>
<text text-anchor="start" x="277.5" y="-229.3" font-family="Courier,monospace" font-size="9.00">expand_library_path/2</text>
<text text-anchor="start" x="397" y="-229.3" font-family="Courier,monospace" font-size="9.00"> </text>
<text text-anchor="start" x="245" y="-219.3" font-family="Courier,monospace" font-size="9.00"> </text>
<text text-anchor="start" x="295.5" y="-219.3" font-family="Courier,monospace" font-size="9.00">loaded_file/1</text>
<text text-anchor="start" x="397" y="-219.3" font-family="Courier,monospace" font-size="9.00"> </text>
<text text-anchor="start" x="245" y="-209.3" font-family="Courier,monospace" font-size="9.00"> </text>
<text text-anchor="start" x="275.5" y="-209.3" font-family="Courier,monospace" font-size="9.00">loaded_file_property/2</text>
<text text-anchor="start" x="397" y="-209.3" font-family="Courier,monospace" font-size="9.00"> </text>
<text text-anchor="start" x="245" y="-199.3" font-family="Courier,monospace" font-size="9.00"> </text>
<text text-anchor="start" x="277.5" y="-199.3" font-family="Courier,monospace" font-size="9.00">file_type_extension/2</text>
<text text-anchor="start" x="397" y="-199.3" font-family="Courier,monospace" font-size="9.00"> </text>
<text text-anchor="start" x="245" y="-189.3" font-family="Courier,monospace" font-size="9.00"> </text>
<text text-anchor="start" x="277.5" y="-189.3" font-family="Courier,monospace" font-size="9.00">compile_aux_clauses/1</text>
<text text-anchor="start" x="397" y="-189.3" font-family="Courier,monospace" font-size="9.00"> </text>
<text text-anchor="start" x="245" y="-179.3" font-family="Courier,monospace" font-size="9.00"> </text>
<text text-anchor="start" x="291" y="-179.3" font-family="Courier,monospace" font-size="9.00">entity_prefix/2</text>
<text text-anchor="start" x="397" y="-179.3" font-family="Courier,monospace" font-size="9.00"> </text>
<text text-anchor="start" x="245" y="-169.3" font-family="Courier,monospace" font-size="9.00"> </text>
<text text-anchor="start" x="268.5" y="-169.3" font-family="Courier,monospace" font-size="9.00">compile_predicate_heads/4</text>
<text text-anchor="start" x="397" y="-169.3" font-family="Courier,monospace" font-size="9.00"> </text>
<text text-anchor="start" x="245" y="-159.3" font-family="Courier,monospace" font-size="9.00"> </text>
<text text-anchor="start" x="257.5" y="-159.3" font-family="Courier,monospace" font-size="9.00">compile_predicate_indicators/3</text>
<text text-anchor="start" x="397" y="-159.3" font-family="Courier,monospace" font-size="9.00"> </text>
<text text-anchor="start" x="245" y="-149.3" font-family="Courier,monospace" font-size="9.00"> </text>
<text text-anchor="start" x="264" y="-149.3" font-family="Courier,monospace" font-size="9.00">decompile_predicate_heads/4</text>
<text text-anchor="start" x="397" y="-149.3" font-family="Courier,monospace" font-size="9.00"> </text>
<text text-anchor="start" x="245" y="-139.3" font-family="Courier,monospace" font-size="9.00"> </text>
<text text-anchor="start" x="253" y="-139.3" font-family="Courier,monospace" font-size="9.00">decompile_predicate_indicators/4</text>
<text text-anchor="start" x="397" y="-139.3" font-family="Courier,monospace" font-size="9.00"> </text>
<text text-anchor="start" x="245" y="-129.3" font-family="Courier,monospace" font-size="9.00"> </text>
<text text-anchor="start" x="282" y="-129.3" font-family="Courier,monospace" font-size="9.00">execution_context/7</text>
<text text-anchor="start" x="397" y="-129.3" font-family="Courier,monospace" font-size="9.00"> </text>
</a>
</g>
</g>
<!-- core_messages -->
<g id="node6" class="node">
<title>core_messages</title>
<g id="a_node6"><a xlink:href="https://logtalk.org/library/core_messages_0.html" xlink:title="https://logtalk.org/library/core_messages_0.html">
<polygon fill="lightcyan" stroke="black" points="204,-299 28,-299 28,-295 24,-295 24,-291 28,-291 28,-236 24,-236 24,-232 28,-232 28,-228 204,-228 204,-299"/>
<polyline fill="none" stroke="black" points="28,-295 32,-295 32,-291 28,-291 "/>
<polyline fill="none" stroke="black" points="28,-236 32,-236 32,-232 28,-232 "/>
<g id="a_node6_12"><a xlink:href="core_messages_category_xref_diagram.svg" xlink:title="Zoom">
<image xlink:href="zoom.png" width="11px" height="11px" preserveAspectRatio="xMinYMin meet" x="36" y="-294.5"/>
</a>
</g>
<text text-anchor="start" x="39" y="-275.3" font-family="Courier,monospace" font-size="9.00"> </text>
<text text-anchor="start" x="83" y="-274.7" font-family="Courier,monospace" font-size="11.00">core_messages</text>
<text text-anchor="start" x="191" y="-275.3" font-family="Courier,monospace" font-size="9.00"> </text>
<text text-anchor="start" x="39" y="-264.3" font-family="Courier,monospace" font-size="9.00"> </text>
<text text-anchor="start" x="89" y="-264.9" font-family="Courier,monospace" font-size="7.00">built&#45;in category</text>
<text text-anchor="start" x="191" y="-264.3" font-family="Courier,monospace" font-size="9.00"> </text>
<text text-anchor="start" x="39" y="-254.3" font-family="Courier,monospace" font-size="9.00"> </text>
<text text-anchor="start" x="39" y="-244.3" font-family="Courier,monospace" font-size="9.00"> </text>
<text text-anchor="start" x="47" y="-244.3" font-family="Courier,monospace" font-size="9.00">logtalk::message_prefix_stream/4</text>
<text text-anchor="start" x="191" y="-244.3" font-family="Courier,monospace" font-size="9.00"> </text>
<text text-anchor="start" x="39" y="-234.3" font-family="Courier,monospace" font-size="9.00"> </text>
<text text-anchor="start" x="60.5" y="-234.3" font-family="Courier,monospace" font-size="9.00">logtalk::message_tokens//2</text>
<text text-anchor="start" x="191" y="-234.3" font-family="Courier,monospace" font-size="9.00"> </text>
</a>
</g>
</g>
</g>
</svg>
