<?xml version="1.0" encoding="UTF-8" standalone="no"?>
<?xml-stylesheet href="diagrams.css" type="text/css"?>
<!DOCTYPE svg PUBLIC "-//W3C//DTD SVG 1.1//EN"
 "http://www.w3.org/Graphics/SVG/1.1/DTD/svg11.dtd">
<!-- Generated by graphviz version 2.49.3 (20211023.0002)
 -->
<!-- Title: core Pages: 1 -->
<svg width="716pt" height="746pt"
 viewBox="72.00 72.00 644.00 674.00" xmlns="http://www.w3.org/2000/svg" xmlns:xlink="http://www.w3.org/1999/xlink">
<g id="graph0" class="graph" transform="scale(1 1) rotate(0) translate(76 670)">
<title>core</title>
<polygon fill="white" stroke="transparent" points="-4,4 -4,-598 568,-598 568,4 -4,4"/>
<text text-anchor="start" x="8" y="-29" font-family="Courier,monospace" font-size="10.00" fill="dimgray">Logtalk core entities</text>
<text text-anchor="start" x="8" y="-18" font-family="Courier,monospace" font-size="10.00" fill="dimgray">Inheritance diagram for library core</text>
<text text-anchor="start" x="8" y="-7" font-family="Courier,monospace" font-size="10.00" fill="dimgray">Generated on 2021&#45;11&#45;13, 18:29</text>
<g id="clust1" class="cluster">
<title>cluster_library_core</title>
<g id="a_clust1"><a xlink:title="core/">
<path fill="whitesmoke" stroke="dimgray" d="M20,-49C20,-49 544,-49 544,-49 550,-49 556,-55 556,-61 556,-61 556,-574 556,-574 556,-580 550,-586 544,-586 544,-586 20,-586 20,-586 14,-586 8,-580 8,-574 8,-574 8,-61 8,-61 8,-55 14,-49 20,-49"/>
<g id="a_clust1_0"><a xlink:href="https://github.com/LogtalkDotOrg/logtalk3/tree/9faf5dbd41dcda13eefe9bff6f1dfa22e6d84b6c/core/" xlink:title="https://github.com/LogtalkDotOrg/logtalk3/tree/9faf5dbd41dcda13eefe9bff6f1dfa22e6d84b6c/core/">
<text text-anchor="start" x="20.5" y="-59.5" font-family="Courier,monospace" font-size="10.00" fill="dimgray">core/</text>
</a>
</g>
</a>
</g>
</g>
<g id="clust3" class="cluster">
<title>cluster_file_/opt/local/share/logtalk/core/monitoring.lgt</title>
<g id="a_clust3"><a xlink:title="monitoring.lgt">
<path fill="snow" stroke="dimgray" d="M238,-458C238,-458 326,-458 326,-458 332,-458 338,-464 338,-470 338,-470 338,-564 338,-564 338,-570 332,-576 326,-576 326,-576 238,-576 238,-576 232,-576 226,-570 226,-564 226,-564 226,-470 226,-470 226,-464 232,-458 238,-458"/>
<g id="a_clust3_1"><a xlink:href="https://github.com/LogtalkDotOrg/logtalk3/tree/9faf5dbd41dcda13eefe9bff6f1dfa22e6d84b6c/core/monitoring.lgt" xlink:title="https://github.com/LogtalkDotOrg/logtalk3/tree/9faf5dbd41dcda13eefe9bff6f1dfa22e6d84b6c/core/monitoring.lgt">
<text text-anchor="start" x="238" y="-468.5" font-family="Courier,monospace" font-size="10.00" fill="dimgray">monitoring.lgt</text>
</a>
</g>
</a>
</g>
</g>
<g id="clust4" class="cluster">
<title>cluster_file_/opt/local/share/logtalk/core/forwarding.lgt</title>
<g id="a_clust4"><a xlink:title="forwarding.lgt">
<path fill="snow" stroke="dimgray" d="M360,-463C360,-463 448,-463 448,-463 454,-463 460,-469 460,-475 460,-475 460,-559 460,-559 460,-565 454,-571 448,-571 448,-571 360,-571 360,-571 354,-571 348,-565 348,-559 348,-559 348,-475 348,-475 348,-469 354,-463 360,-463"/>
<g id="a_clust4_2"><a xlink:href="https://github.com/LogtalkDotOrg/logtalk3/tree/9faf5dbd41dcda13eefe9bff6f1dfa22e6d84b6c/core/forwarding.lgt" xlink:title="https://github.com/LogtalkDotOrg/logtalk3/tree/9faf5dbd41dcda13eefe9bff6f1dfa22e6d84b6c/core/forwarding.lgt">
<text text-anchor="start" x="360" y="-473.5" font-family="Courier,monospace" font-size="10.00" fill="dimgray">forwarding.lgt</text>
</a>
</g>
</a>
</g>
</g>
<g id="clust7" class="cluster">
<title>cluster_file_/opt/local/share/logtalk/core/core_messages.lgt</title>
<g id="a_clust7"><a xlink:title="core_messages.lgt">
<path fill="snow" stroke="dimgray" d="M362,-191C362,-191 534,-191 534,-191 540,-191 546,-197 546,-203 546,-203 546,-297 546,-297 546,-303 540,-309 534,-309 534,-309 362,-309 362,-309 356,-309 350,-303 350,-297 350,-297 350,-203 350,-203 350,-197 356,-191 362,-191"/>
<g id="a_clust7_3"><a xlink:href="https://github.com/LogtalkDotOrg/logtalk3/tree/9faf5dbd41dcda13eefe9bff6f1dfa22e6d84b6c/core/core_messages.lgt" xlink:title="https://github.com/LogtalkDotOrg/logtalk3/tree/9faf5dbd41dcda13eefe9bff6f1dfa22e6d84b6c/core/core_messages.lgt">
<text text-anchor="start" x="362.5" y="-201.5" font-family="Courier,monospace" font-size="10.00" fill="dimgray">core_messages.lgt</text>
</a>
</g>
</a>
</g>
</g>
<g id="clust2" class="cluster">
<title>cluster_file_/opt/local/share/logtalk/core/expanding.lgt</title>
<g id="a_clust2"><a xlink:title="expanding.lgt">
<path fill="snow" stroke="dimgray" d="M104,-458C104,-458 204,-458 204,-458 210,-458 216,-464 216,-470 216,-470 216,-564 216,-564 216,-570 210,-576 204,-576 204,-576 104,-576 104,-576 98,-576 92,-570 92,-564 92,-564 92,-470 92,-470 92,-464 98,-458 104,-458"/>
<g id="a_clust2_4"><a xlink:href="https://github.com/LogtalkDotOrg/logtalk3/tree/9faf5dbd41dcda13eefe9bff6f1dfa22e6d84b6c/core/expanding.lgt" xlink:title="https://github.com/LogtalkDotOrg/logtalk3/tree/9faf5dbd41dcda13eefe9bff6f1dfa22e6d84b6c/core/expanding.lgt">
<text text-anchor="start" x="104.5" y="-468.5" font-family="Courier,monospace" font-size="10.00" fill="dimgray">expanding.lgt</text>
</a>
</g>
</a>
</g>
</g>
<g id="clust5" class="cluster">
<title>cluster_file_/opt/local/share/logtalk/core/user.lgt</title>
<g id="a_clust5"><a xlink:title="user.lgt">
<path fill="snow" stroke="dimgray" d="M236,-206C236,-206 328,-206 328,-206 334,-206 340,-212 340,-218 340,-218 340,-282 340,-282 340,-288 334,-294 328,-294 328,-294 236,-294 236,-294 230,-294 224,-288 224,-282 224,-282 224,-218 224,-218 224,-212 230,-206 236,-206"/>
<g id="a_clust5_5"><a xlink:href="https://github.com/LogtalkDotOrg/logtalk3/tree/9faf5dbd41dcda13eefe9bff6f1dfa22e6d84b6c/core/user.lgt" xlink:title="https://github.com/LogtalkDotOrg/logtalk3/tree/9faf5dbd41dcda13eefe9bff6f1dfa22e6d84b6c/core/user.lgt">
<text text-anchor="start" x="236" y="-216.5" font-family="Courier,monospace" font-size="10.00" fill="dimgray">user.lgt</text>
</a>
</g>
</a>
</g>
</g>
<g id="clust6" class="cluster">
<title>cluster_file_/opt/local/share/logtalk/core/logtalk.lgt</title>
<g id="a_clust6"><a xlink:title="logtalk.lgt">
<path fill="snow" stroke="dimgray" d="M30,-86C30,-86 202,-86 202,-86 208,-86 214,-92 214,-98 214,-98 214,-402 214,-402 214,-408 208,-414 202,-414 202,-414 30,-414 30,-414 24,-414 18,-408 18,-402 18,-402 18,-98 18,-98 18,-92 24,-86 30,-86"/>
<g id="a_clust6_6"><a xlink:href="https://github.com/LogtalkDotOrg/logtalk3/tree/9faf5dbd41dcda13eefe9bff6f1dfa22e6d84b6c/core/logtalk.lgt" xlink:title="https://github.com/LogtalkDotOrg/logtalk3/tree/9faf5dbd41dcda13eefe9bff6f1dfa22e6d84b6c/core/logtalk.lgt">
<text text-anchor="start" x="30.5" y="-96.5" font-family="Courier,monospace" font-size="10.00" fill="dimgray">logtalk.lgt</text>
</a>
</g>
</a>
</g>
</g>
<!-- expanding -->
<g id="node1" class="node">
<title>expanding</title>
<g id="a_node1"><a xlink:href="https://logtalk.org/library/expanding_0.html" xlink:title="https://logtalk.org/library/expanding_0.html">
<polygon fill="aquamarine" stroke="black" points="200,-566 102,-566 102,-495 206,-495 206,-560 200,-566"/>
<polyline fill="none" stroke="black" points="200,-566 200,-560 "/>
<polyline fill="none" stroke="black" points="206,-560 200,-560 "/>
<g id="a_node1_7"><a xlink:href="expanding_protocol_xref_diagram.svg" xlink:title="Zoom">
<image xlink:href="zoom.png" width="11px" height="11px" preserveAspectRatio="xMinYMin meet" x="110" y="-561.5"/>
</a>
</g>
<text text-anchor="start" x="113" y="-542.3" font-family="Courier,monospace" font-size="9.00"> </text>
<text text-anchor="start" x="132" y="-541.7" font-family="Courier,monospace" font-size="11.00">expanding</text>
<text text-anchor="start" x="193" y="-542.3" font-family="Courier,monospace" font-size="9.00"> </text>
<text text-anchor="start" x="113" y="-531.3" font-family="Courier,monospace" font-size="9.00"> </text>
<text text-anchor="start" x="127" y="-531.9" font-family="Courier,monospace" font-size="7.00">built&#45;in protocol</text>
<text text-anchor="start" x="193" y="-531.3" font-family="Courier,monospace" font-size="9.00"> </text>
<text text-anchor="start" x="113" y="-521.3" font-family="Courier,monospace" font-size="9.00"> </text>
<text text-anchor="start" x="113" y="-511.3" font-family="Courier,monospace" font-size="9.00"> </text>
<text text-anchor="start" x="121" y="-511.3" font-family="Courier,monospace" font-size="9.00">goal_expansion/2</text>
<text text-anchor="start" x="193" y="-511.3" font-family="Courier,monospace" font-size="9.00"> </text>
<text text-anchor="start" x="113" y="-501.3" font-family="Courier,monospace" font-size="9.00"> </text>
<text text-anchor="start" x="121" y="-501.3" font-family="Courier,monospace" font-size="9.00">term_expansion/2</text>
<text text-anchor="start" x="193" y="-501.3" font-family="Courier,monospace" font-size="9.00"> </text>
</a>
</g>
</g>
<!-- monitoring -->
<g id="node2" class="node">
<title>monitoring</title>
<g id="a_node2"><a xlink:href="https://logtalk.org/library/monitoring_0.html" xlink:title="https://logtalk.org/library/monitoring_0.html">
<polygon fill="aquamarine" stroke="black" points="322,-566 236,-566 236,-495 328,-495 328,-560 322,-566"/>
<polyline fill="none" stroke="black" points="322,-566 322,-560 "/>
<polyline fill="none" stroke="black" points="328,-560 322,-560 "/>
<g id="a_node2_8"><a xlink:href="monitoring_protocol_xref_diagram.svg" xlink:title="Zoom">
<image xlink:href="zoom.png" width="11px" height="11px" preserveAspectRatio="xMinYMin meet" x="244" y="-561.5"/>
</a>
</g>
<text text-anchor="start" x="247" y="-542.3" font-family="Courier,monospace" font-size="9.00"> </text>
<text text-anchor="start" x="257.5" y="-541.7" font-family="Courier,monospace" font-size="11.00">monitoring</text>
<text text-anchor="start" x="315" y="-542.3" font-family="Courier,monospace" font-size="9.00"> </text>
<text text-anchor="start" x="247" y="-531.3" font-family="Courier,monospace" font-size="9.00"> </text>
<text text-anchor="start" x="255" y="-531.9" font-family="Courier,monospace" font-size="7.00">built&#45;in protocol</text>
<text text-anchor="start" x="315" y="-531.3" font-family="Courier,monospace" font-size="9.00"> </text>
<text text-anchor="start" x="247" y="-521.3" font-family="Courier,monospace" font-size="9.00"> </text>
<text text-anchor="start" x="247" y="-511.3" font-family="Courier,monospace" font-size="9.00"> </text>
<text text-anchor="start" x="267" y="-511.3" font-family="Courier,monospace" font-size="9.00">before/3</text>
<text text-anchor="start" x="315" y="-511.3" font-family="Courier,monospace" font-size="9.00"> </text>
<text text-anchor="start" x="247" y="-501.3" font-family="Courier,monospace" font-size="9.00"> </text>
<text text-anchor="start" x="269" y="-501.3" font-family="Courier,monospace" font-size="9.00">after/3</text>
<text text-anchor="start" x="315" y="-501.3" font-family="Courier,monospace" font-size="9.00"> </text>
</a>
</g>
</g>
<!-- forwarding -->
<g id="node3" class="node">
<title>forwarding</title>
<g id="a_node3"><a xlink:href="https://logtalk.org/library/forwarding_0.html" xlink:title="https://logtalk.org/library/forwarding_0.html">
<polygon fill="aquamarine" stroke="black" points="444,-561 358,-561 358,-500 450,-500 450,-555 444,-561"/>
<polyline fill="none" stroke="black" points="444,-561 444,-555 "/>
<polyline fill="none" stroke="black" points="450,-555 444,-555 "/>
<g id="a_node3_9"><a xlink:href="forwarding_protocol_xref_diagram.svg" xlink:title="Zoom">
<image xlink:href="zoom.png" width="11px" height="11px" preserveAspectRatio="xMinYMin meet" x="366" y="-556.5"/>
</a>
</g>
<text text-anchor="start" x="369" y="-537.3" font-family="Courier,monospace" font-size="9.00"> </text>
<text text-anchor="start" x="379.5" y="-536.7" font-family="Courier,monospace" font-size="11.00">forwarding</text>
<text text-anchor="start" x="437" y="-537.3" font-family="Courier,monospace" font-size="9.00"> </text>
<text text-anchor="start" x="369" y="-526.3" font-family="Courier,monospace" font-size="9.00"> </text>
<text text-anchor="start" x="377" y="-526.9" font-family="Courier,monospace" font-size="7.00">built&#45;in protocol</text>
<text text-anchor="start" x="437" y="-526.3" font-family="Courier,monospace" font-size="9.00"> </text>
<text text-anchor="start" x="369" y="-516.3" font-family="Courier,monospace" font-size="9.00"> </text>
<text text-anchor="start" x="369" y="-506.3" font-family="Courier,monospace" font-size="9.00"> </text>
<text text-anchor="start" x="386.5" y="-506.3" font-family="Courier,monospace" font-size="9.00">forward/1</text>
<text text-anchor="start" x="437" y="-506.3" font-family="Courier,monospace" font-size="9.00"> </text>
</a>
</g>
</g>
<!-- user -->
<g id="node4" class="node">
<title>user</title>
<g id="a_node4"><a xlink:href="https://logtalk.org/library/user_0.html" xlink:title="https://logtalk.org/library/user_0.html">
<polygon fill="cornsilk" stroke="black" points="329.5,-284 234.5,-284 234.5,-243 329.5,-243 329.5,-284"/>
<g id="a_node4_10"><a xlink:href="user_object_xref_diagram.svg" xlink:title="Zoom">
<image xlink:href="zoom.png" width="11px" height="11px" preserveAspectRatio="xMinYMin meet" x="243" y="-279.5"/>
</a>
</g>
<text text-anchor="start" x="246" y="-260.3" font-family="Courier,monospace" font-size="9.00"> </text>
<text text-anchor="start" x="274.5" y="-259.7" font-family="Courier,monospace" font-size="11.00">user</text>
<text text-anchor="start" x="317" y="-260.3" font-family="Courier,monospace" font-size="9.00"> </text>
<text text-anchor="start" x="246" y="-249.3" font-family="Courier,monospace" font-size="9.00"> </text>
<text text-anchor="start" x="254" y="-249.9" font-family="Courier,monospace" font-size="7.00">built&#45;in prototype</text>
<text text-anchor="start" x="317" y="-249.3" font-family="Courier,monospace" font-size="9.00"> </text>
</a>
</g>
</g>
<!-- user&#45;&gt;expanding -->
<g id="edge1" class="edge">
<title>user&#45;&gt;expanding</title>
<g id="a_edge1"><a xlink:href="https://logtalk.org/library/user_0.html" xlink:title="implements">
<path fill="none" stroke="black" d="M274.34,-284.14C262.91,-312.99 240.34,-368.36 218,-414 205.82,-438.88 190.88,-466.01 178.5,-487.72"/>
<ellipse fill="black" stroke="black" cx="176.39" cy="-491.39" rx="4" ry="4"/>
</a>
</g>
<g id="a_edge1&#45;label"><a xlink:href="https://logtalk.org/library/user_0.html" xlink:title="https://logtalk.org/library/user_0.html">
<text text-anchor="start" x="203" y="-442.8" font-family="Courier,monospace" font-size="9.00">implements</text>
</a>
</g>
</g>
<!-- user&#45;&gt;monitoring -->
<g id="edge3" class="edge">
<title>user&#45;&gt;monitoring</title>
<g id="a_edge3"><a xlink:href="https://logtalk.org/library/user_0.html" xlink:title="implements">
<path fill="none" stroke="black" d="M282,-284.42C282,-327.1 282,-428.2 282,-486.34"/>
<ellipse fill="black" stroke="black" cx="282" cy="-490.59" rx="4" ry="4"/>
</a>
</g>
<g id="a_edge3&#45;label"><a xlink:href="https://logtalk.org/library/user_0.html" xlink:title="https://logtalk.org/library/user_0.html">
<text text-anchor="start" x="282" y="-442.8" font-family="Courier,monospace" font-size="9.00">implements</text>
</a>
</g>
</g>
<!-- user&#45;&gt;forwarding -->
<g id="edge2" class="edge">
<title>user&#45;&gt;forwarding</title>
<g id="a_edge2"><a xlink:href="https://logtalk.org/library/user_0.html" xlink:title="implements">
<path fill="none" stroke="black" d="M289.91,-284.02C301.65,-312.72 324.59,-367.91 346,-414 358.32,-440.51 373.12,-469.95 384.68,-492.47"/>
<ellipse fill="black" stroke="black" cx="386.64" cy="-496.27" rx="4" ry="4"/>
</a>
</g>
<g id="a_edge2&#45;label"><a xlink:href="https://logtalk.org/library/user_0.html" xlink:title="https://logtalk.org/library/user_0.html">
<text text-anchor="start" x="362" y="-442.8" font-family="Courier,monospace" font-size="9.00">implements</text>
</a>
</g>
</g>
<!-- logtalk -->
<g id="node5" class="node">
<title>logtalk</title>
<g id="a_node5"><a xlink:href="https://logtalk.org/library/logtalk_0.html" xlink:title="https://logtalk.org/library/logtalk_0.html">
<polygon fill="cornsilk" stroke="black" points="204,-404 28,-404 28,-123 204,-123 204,-404"/>
<g id="a_node5_11"><a xlink:href="logtalk_object_xref_diagram.svg" xlink:title="Zoom">
<image xlink:href="zoom.png" width="11px" height="11px" preserveAspectRatio="xMinYMin meet" x="36" y="-399.5"/>
</a>
</g>
<text text-anchor="start" x="39" y="-380.3" font-family="Courier,monospace" font-size="9.00"> </text>
<text text-anchor="start" x="99.5" y="-379.7" font-family="Courier,monospace" font-size="11.00">logtalk</text>
<text text-anchor="start" x="191" y="-380.3" font-family="Courier,monospace" font-size="9.00"> </text>
<text text-anchor="start" x="39" y="-369.3" font-family="Courier,monospace" font-size="9.00"> </text>
<text text-anchor="start" x="87.5" y="-369.9" font-family="Courier,monospace" font-size="7.00">built&#45;in prototype</text>
<text text-anchor="start" x="191" y="-369.3" font-family="Courier,monospace" font-size="9.00"> </text>
<text text-anchor="start" x="39" y="-359.3" font-family="Courier,monospace" font-size="9.00"> </text>
<text text-anchor="start" x="39" y="-349.3" font-family="Courier,monospace" font-size="9.00"> </text>
<text text-anchor="start" x="85" y="-349.3" font-family="Courier,monospace" font-size="9.00">print_message/3</text>
<text text-anchor="start" x="191" y="-349.3" font-family="Courier,monospace" font-size="9.00"> </text>
<text text-anchor="start" x="39" y="-339.3" font-family="Courier,monospace" font-size="9.00"> </text>
<text text-anchor="start" x="69.5" y="-339.3" font-family="Courier,monospace" font-size="9.00">print_message_tokens/3</text>
<text text-anchor="start" x="191" y="-339.3" font-family="Courier,monospace" font-size="9.00"> </text>
<text text-anchor="start" x="39" y="-329.3" font-family="Courier,monospace" font-size="9.00"> </text>
<text text-anchor="start" x="71.5" y="-329.3" font-family="Courier,monospace" font-size="9.00">print_message_token/4</text>
<text text-anchor="start" x="191" y="-329.3" font-family="Courier,monospace" font-size="9.00"> </text>
<text text-anchor="start" x="39" y="-319.3" font-family="Courier,monospace" font-size="9.00"> </text>
<text text-anchor="start" x="80.5" y="-319.3" font-family="Courier,monospace" font-size="9.00">message_tokens//2</text>
<text text-anchor="start" x="191" y="-319.3" font-family="Courier,monospace" font-size="9.00"> </text>
<text text-anchor="start" x="39" y="-309.3" font-family="Courier,monospace" font-size="9.00"> </text>
<text text-anchor="start" x="67" y="-309.3" font-family="Courier,monospace" font-size="9.00">message_prefix_stream/4</text>
<text text-anchor="start" x="191" y="-309.3" font-family="Courier,monospace" font-size="9.00"> </text>
<text text-anchor="start" x="39" y="-299.3" font-family="Courier,monospace" font-size="9.00"> </text>
<text text-anchor="start" x="87.5" y="-299.3" font-family="Courier,monospace" font-size="9.00">message_hook/4</text>
<text text-anchor="start" x="191" y="-299.3" font-family="Courier,monospace" font-size="9.00"> </text>
<text text-anchor="start" x="39" y="-289.3" font-family="Courier,monospace" font-size="9.00"> </text>
<text text-anchor="start" x="87.5" y="-289.3" font-family="Courier,monospace" font-size="9.00">ask_question/5</text>
<text text-anchor="start" x="191" y="-289.3" font-family="Courier,monospace" font-size="9.00"> </text>
<text text-anchor="start" x="39" y="-279.3" font-family="Courier,monospace" font-size="9.00"> </text>
<text text-anchor="start" x="85" y="-279.3" font-family="Courier,monospace" font-size="9.00">question_hook/6</text>
<text text-anchor="start" x="191" y="-279.3" font-family="Courier,monospace" font-size="9.00"> </text>
<text text-anchor="start" x="39" y="-269.3" font-family="Courier,monospace" font-size="9.00"> </text>
<text text-anchor="start" x="65" y="-269.3" font-family="Courier,monospace" font-size="9.00">question_prompt_stream/4</text>
<text text-anchor="start" x="191" y="-269.3" font-family="Courier,monospace" font-size="9.00"> </text>
<text text-anchor="start" x="39" y="-259.3" font-family="Courier,monospace" font-size="9.00"> </text>
<text text-anchor="start" x="89.5" y="-259.3" font-family="Courier,monospace" font-size="9.00">trace_event/2</text>
<text text-anchor="start" x="191" y="-259.3" font-family="Courier,monospace" font-size="9.00"> </text>
<text text-anchor="start" x="39" y="-249.3" font-family="Courier,monospace" font-size="9.00"> </text>
<text text-anchor="start" x="65" y="-249.3" font-family="Courier,monospace" font-size="9.00">debug_handler_provider/1</text>
<text text-anchor="start" x="191" y="-249.3" font-family="Courier,monospace" font-size="9.00"> </text>
<text text-anchor="start" x="39" y="-239.3" font-family="Courier,monospace" font-size="9.00"> </text>
<text text-anchor="start" x="85" y="-239.3" font-family="Courier,monospace" font-size="9.00">debug_handler/2</text>
<text text-anchor="start" x="191" y="-239.3" font-family="Courier,monospace" font-size="9.00"> </text>
<text text-anchor="start" x="39" y="-229.3" font-family="Courier,monospace" font-size="9.00"> </text>
<text text-anchor="start" x="71.5" y="-229.3" font-family="Courier,monospace" font-size="9.00">expand_library_path/2</text>
<text text-anchor="start" x="191" y="-229.3" font-family="Courier,monospace" font-size="9.00"> </text>
<text text-anchor="start" x="39" y="-219.3" font-family="Courier,monospace" font-size="9.00"> </text>
<text text-anchor="start" x="89.5" y="-219.3" font-family="Courier,monospace" font-size="9.00">loaded_file/1</text>
<text text-anchor="start" x="191" y="-219.3" font-family="Courier,monospace" font-size="9.00"> </text>
<text text-anchor="start" x="39" y="-209.3" font-family="Courier,monospace" font-size="9.00"> </text>
<text text-anchor="start" x="69.5" y="-209.3" font-family="Courier,monospace" font-size="9.00">loaded_file_property/2</text>
<text text-anchor="start" x="191" y="-209.3" font-family="Courier,monospace" font-size="9.00"> </text>
<text text-anchor="start" x="39" y="-199.3" font-family="Courier,monospace" font-size="9.00"> </text>
<text text-anchor="start" x="71.5" y="-199.3" font-family="Courier,monospace" font-size="9.00">file_type_extension/2</text>
<text text-anchor="start" x="191" y="-199.3" font-family="Courier,monospace" font-size="9.00"> </text>
<text text-anchor="start" x="39" y="-189.3" font-family="Courier,monospace" font-size="9.00"> </text>
<text text-anchor="start" x="71.5" y="-189.3" font-family="Courier,monospace" font-size="9.00">compile_aux_clauses/1</text>
<text text-anchor="start" x="191" y="-189.3" font-family="Courier,monospace" font-size="9.00"> </text>
<text text-anchor="start" x="39" y="-179.3" font-family="Courier,monospace" font-size="9.00"> </text>
<text text-anchor="start" x="85" y="-179.3" font-family="Courier,monospace" font-size="9.00">entity_prefix/2</text>
<text text-anchor="start" x="191" y="-179.3" font-family="Courier,monospace" font-size="9.00"> </text>
<text text-anchor="start" x="39" y="-169.3" font-family="Courier,monospace" font-size="9.00"> </text>
<text text-anchor="start" x="62.5" y="-169.3" font-family="Courier,monospace" font-size="9.00">compile_predicate_heads/4</text>
<text text-anchor="start" x="191" y="-169.3" font-family="Courier,monospace" font-size="9.00"> </text>
<text text-anchor="start" x="39" y="-159.3" font-family="Courier,monospace" font-size="9.00"> </text>
<text text-anchor="start" x="51.5" y="-159.3" font-family="Courier,monospace" font-size="9.00">compile_predicate_indicators/3</text>
<text text-anchor="start" x="191" y="-159.3" font-family="Courier,monospace" font-size="9.00"> </text>
<text text-anchor="start" x="39" y="-149.3" font-family="Courier,monospace" font-size="9.00"> </text>
<text text-anchor="start" x="58" y="-149.3" font-family="Courier,monospace" font-size="9.00">decompile_predicate_heads/4</text>
<text text-anchor="start" x="191" y="-149.3" font-family="Courier,monospace" font-size="9.00"> </text>
<text text-anchor="start" x="39" y="-139.3" font-family="Courier,monospace" font-size="9.00"> </text>
<text text-anchor="start" x="47" y="-139.3" font-family="Courier,monospace" font-size="9.00">decompile_predicate_indicators/4</text>
<text text-anchor="start" x="191" y="-139.3" font-family="Courier,monospace" font-size="9.00"> </text>
<text text-anchor="start" x="39" y="-129.3" font-family="Courier,monospace" font-size="9.00"> </text>
<text text-anchor="start" x="76" y="-129.3" font-family="Courier,monospace" font-size="9.00">execution_context/7</text>
<text text-anchor="start" x="191" y="-129.3" font-family="Courier,monospace" font-size="9.00"> </text>
</a>
</g>
</g>
<!-- core_messages -->
<g id="node6" class="node">
<title>core_messages</title>
<g id="a_node6"><a xlink:href="https://logtalk.org/library/core_messages_0.html" xlink:title="https://logtalk.org/library/core_messages_0.html">
<polygon fill="lightcyan" stroke="black" points="536,-299 360,-299 360,-295 356,-295 356,-291 360,-291 360,-236 356,-236 356,-232 360,-232 360,-228 536,-228 536,-299"/>
<polyline fill="none" stroke="black" points="360,-295 364,-295 364,-291 360,-291 "/>
<polyline fill="none" stroke="black" points="360,-236 364,-236 364,-232 360,-232 "/>
<g id="a_node6_12"><a xlink:href="core_messages_category_xref_diagram.svg" xlink:title="Zoom">
<image xlink:href="zoom.png" width="11px" height="11px" preserveAspectRatio="xMinYMin meet" x="368" y="-294.5"/>
</a>
</g>
<text text-anchor="start" x="371" y="-275.3" font-family="Courier,monospace" font-size="9.00"> </text>
<text text-anchor="start" x="415" y="-274.7" font-family="Courier,monospace" font-size="11.00">core_messages</text>
<text text-anchor="start" x="523" y="-275.3" font-family="Courier,monospace" font-size="9.00"> </text>
<text text-anchor="start" x="371" y="-264.3" font-family="Courier,monospace" font-size="9.00"> </text>
<text text-anchor="start" x="421" y="-264.9" font-family="Courier,monospace" font-size="7.00">built&#45;in category</text>
<text text-anchor="start" x="523" y="-264.3" font-family="Courier,monospace" font-size="9.00"> </text>
<text text-anchor="start" x="371" y="-254.3" font-family="Courier,monospace" font-size="9.00"> </text>
<text text-anchor="start" x="371" y="-244.3" font-family="Courier,monospace" font-size="9.00"> </text>
<text text-anchor="start" x="379" y="-244.3" font-family="Courier,monospace" font-size="9.00">logtalk::message_prefix_stream/4</text>
<text text-anchor="start" x="523" y="-244.3" font-family="Courier,monospace" font-size="9.00"> </text>
<text text-anchor="start" x="371" y="-234.3" font-family="Courier,monospace" font-size="9.00"> </text>
<text text-anchor="start" x="392.5" y="-234.3" font-family="Courier,monospace" font-size="9.00">logtalk::message_tokens//2</text>
<text text-anchor="start" x="523" y="-234.3" font-family="Courier,monospace" font-size="9.00"> </text>
</a>
</g>
</g>
</g>
</svg>
