<?xml version="1.0" encoding="UTF-8" standalone="no"?>
<?xml-stylesheet href="diagrams.css" type="text/css"?>
<!DOCTYPE svg PUBLIC "-//W3C//DTD SVG 1.1//EN"
 "http://www.w3.org/Graphics/SVG/1.1/DTD/svg11.dtd">
<!-- Generated by graphviz version 12.2.1 (20241206.2353)
 -->
<!-- Title: core Pages: 1 -->
<svg width="782pt" height="842pt"
 viewBox="72.00 72.00 710.00 770.00" xmlns="http://www.w3.org/2000/svg" xmlns:xlink="http://www.w3.org/1999/xlink">
<g id="graph0" class="graph" transform="scale(1 1) rotate(0) translate(76 766)">
<title>core</title>
<polygon fill="white" stroke="none" points="-4,4 -4,-694 634,-694 634,4 -4,4"/>
<text text-anchor="start" x="8" y="-32.75" font-family="Monospace" font-size="10.00" fill="dimgray">Logtalk core entities</text>
<text text-anchor="start" x="8" y="-20" font-family="Monospace" font-size="10.00" fill="dimgray">Inheritance diagram for library core</text>
<text text-anchor="start" x="8" y="-7.25" font-family="Monospace" font-size="10.00" fill="dimgray">Generated on 2025&#45;03&#45;03, 10:00</text>
<g id="clust1" class="cluster">
<title>cluster_library_core</title>
<g id="a_clust1"><a xlink:title="core/">
<path fill="whitesmoke" stroke="dimgray" d="M20,-54.25C20,-54.25 610,-54.25 610,-54.25 616,-54.25 622,-60.25 622,-66.25 622,-66.25 622,-670 622,-670 622,-676 616,-682 610,-682 610,-682 20,-682 20,-682 14,-682 8,-676 8,-670 8,-670 8,-66.25 8,-66.25 8,-60.25 14,-54.25 20,-54.25"/>
<g id="a_clust1_0"><a xlink:href="https://github.com/LogtalkDotOrg/logtalk3/tree/07a7c940589332dacac150f59a0088791542fb46/core/" xlink:title="https://github.com/LogtalkDotOrg/logtalk3/tree/07a7c940589332dacac150f59a0088791542fb46/core/">
<text text-anchor="start" x="20" y="-65.5" font-family="Monospace" font-size="10.00" fill="dimgray">core/</text>
</a>
</g>
</a>
</g>
</g>
<g id="clust2" class="cluster">
<title>cluster_file_/opt/local/share/logtalk/core/expanding.lgt</title>
<g id="a_clust2"><a xlink:title="expanding.lgt">
<path fill="snow" stroke="dimgray" d="M30,-545.75C30,-545.75 142,-545.75 142,-545.75 148,-545.75 154,-551.75 154,-557.75 154,-557.75 154,-660 154,-660 154,-666 148,-672 142,-672 142,-672 30,-672 30,-672 24,-672 18,-666 18,-660 18,-660 18,-557.75 18,-557.75 18,-551.75 24,-545.75 30,-545.75"/>
<g id="a_clust2_1"><a xlink:href="https://github.com/LogtalkDotOrg/logtalk3/tree/07a7c940589332dacac150f59a0088791542fb46/core/expanding.lgt" xlink:title="https://github.com/LogtalkDotOrg/logtalk3/tree/07a7c940589332dacac150f59a0088791542fb46/core/expanding.lgt">
<text text-anchor="start" x="30" y="-557" font-family="Monospace" font-size="10.00" fill="dimgray">expanding.lgt</text>
</a>
</g>
</a>
</g>
</g>
<g id="clust3" class="cluster">
<title>cluster_file_/opt/local/share/logtalk/core/monitoring.lgt</title>
<g id="a_clust3"><a xlink:title="monitoring.lgt">
<path fill="snow" stroke="dimgray" d="M176,-545.75C176,-545.75 280,-545.75 280,-545.75 286,-545.75 292,-551.75 292,-557.75 292,-557.75 292,-660 292,-660 292,-666 286,-672 280,-672 280,-672 176,-672 176,-672 170,-672 164,-666 164,-660 164,-660 164,-557.75 164,-557.75 164,-551.75 170,-545.75 176,-545.75"/>
<g id="a_clust3_2"><a xlink:href="https://github.com/LogtalkDotOrg/logtalk3/tree/07a7c940589332dacac150f59a0088791542fb46/core/monitoring.lgt" xlink:title="https://github.com/LogtalkDotOrg/logtalk3/tree/07a7c940589332dacac150f59a0088791542fb46/core/monitoring.lgt">
<text text-anchor="start" x="176" y="-557" font-family="Monospace" font-size="10.00" fill="dimgray">monitoring.lgt</text>
</a>
</g>
</a>
</g>
</g>
<g id="clust4" class="cluster">
<title>cluster_file_/opt/local/share/logtalk/core/forwarding.lgt</title>
<g id="a_clust4"><a xlink:title="forwarding.lgt">
<path fill="snow" stroke="dimgray" d="M314,-551.38C314,-551.38 418,-551.38 418,-551.38 424,-551.38 430,-557.38 430,-563.38 430,-563.38 430,-654.38 430,-654.38 430,-660.38 424,-666.38 418,-666.38 418,-666.38 314,-666.38 314,-666.38 308,-666.38 302,-660.38 302,-654.38 302,-654.38 302,-563.38 302,-563.38 302,-557.38 308,-551.38 314,-551.38"/>
<g id="a_clust4_3"><a xlink:href="https://github.com/LogtalkDotOrg/logtalk3/tree/07a7c940589332dacac150f59a0088791542fb46/core/forwarding.lgt" xlink:title="https://github.com/LogtalkDotOrg/logtalk3/tree/07a7c940589332dacac150f59a0088791542fb46/core/forwarding.lgt">
<text text-anchor="start" x="314" y="-562.62" font-family="Monospace" font-size="10.00" fill="dimgray">forwarding.lgt</text>
</a>
</g>
</a>
</g>
</g>
<g id="clust5" class="cluster">
<title>cluster_file_/opt/local/share/logtalk/core/user.lgt</title>
<g id="a_clust5"><a xlink:title="user.lgt">
<path fill="snow" stroke="dimgray" d="M30,-250.5C30,-250.5 140,-250.5 140,-250.5 146,-250.5 152,-256.5 152,-262.5 152,-262.5 152,-331 152,-331 152,-337 146,-343 140,-343 140,-343 30,-343 30,-343 24,-343 18,-337 18,-331 18,-331 18,-262.5 18,-262.5 18,-256.5 24,-250.5 30,-250.5"/>
<g id="a_clust5_4"><a xlink:href="https://github.com/LogtalkDotOrg/logtalk3/tree/07a7c940589332dacac150f59a0088791542fb46/core/user.lgt" xlink:title="https://github.com/LogtalkDotOrg/logtalk3/tree/07a7c940589332dacac150f59a0088791542fb46/core/user.lgt">
<text text-anchor="start" x="30" y="-261.75" font-family="Monospace" font-size="10.00" fill="dimgray">user.lgt</text>
</a>
</g>
</a>
</g>
</g>
<g id="clust6" class="cluster">
<title>cluster_file_/opt/local/share/logtalk/core/logtalk.lgt</title>
<g id="a_clust6"><a xlink:title="logtalk.lgt">
<path fill="snow" stroke="dimgray" d="M174,-93C174,-93 370,-93 370,-93 376,-93 382,-99 382,-105 382,-105 382,-488.5 382,-488.5 382,-494.5 376,-500.5 370,-500.5 370,-500.5 174,-500.5 174,-500.5 168,-500.5 162,-494.5 162,-488.5 162,-488.5 162,-105 162,-105 162,-99 168,-93 174,-93"/>
<g id="a_clust6_5"><a xlink:href="https://github.com/LogtalkDotOrg/logtalk3/tree/07a7c940589332dacac150f59a0088791542fb46/core/logtalk.lgt" xlink:title="https://github.com/LogtalkDotOrg/logtalk3/tree/07a7c940589332dacac150f59a0088791542fb46/core/logtalk.lgt">
<text text-anchor="start" x="174" y="-104.25" font-family="Monospace" font-size="10.00" fill="dimgray">logtalk.lgt</text>
</a>
</g>
</a>
</g>
</g>
<g id="clust7" class="cluster">
<title>cluster_file_/opt/local/share/logtalk/core/core_messages.lgt</title>
<g id="a_clust7"><a xlink:title="core_messages.lgt">
<path fill="snow" stroke="dimgray" d="M404,-233.62C404,-233.62 600,-233.62 600,-233.62 606,-233.62 612,-239.62 612,-245.62 612,-245.62 612,-347.88 612,-347.88 612,-353.88 606,-359.88 600,-359.88 600,-359.88 404,-359.88 404,-359.88 398,-359.88 392,-353.88 392,-347.88 392,-347.88 392,-245.62 392,-245.62 392,-239.62 398,-233.62 404,-233.62"/>
<g id="a_clust7_6"><a xlink:href="https://github.com/LogtalkDotOrg/logtalk3/tree/07a7c940589332dacac150f59a0088791542fb46/core/core_messages.lgt" xlink:title="https://github.com/LogtalkDotOrg/logtalk3/tree/07a7c940589332dacac150f59a0088791542fb46/core/core_messages.lgt">
<text text-anchor="start" x="404" y="-244.88" font-family="Monospace" font-size="10.00" fill="dimgray">core_messages.lgt</text>
</a>
</g>
</a>
</g>
</g>
<!-- expanding -->
<g id="node1" class="node">
<title>expanding</title>
<g id="a_node1"><a xlink:href="https://logtalk.org/library/expanding_0.html" xlink:title="https://logtalk.org/library/expanding_0.html">
<polygon fill="aquamarine" stroke="black" points="138.12,-662 27.88,-662 27.88,-584.5 144.12,-584.5 144.12,-656 138.12,-662"/>
<polyline fill="none" stroke="black" points="138.12,-662 138.12,-656"/>
<polyline fill="none" stroke="black" points="144.12,-656 138.12,-656"/>
<g id="a_node1_7"><a xlink:href="expanding_protocol_xref_diagram.svg" xlink:title="Zoom">
<text text-anchor="start" x="35.88" y="-649.45" font-family="Monospace" font-size="9.00">🔍</text>
</a>
</g>
<text text-anchor="start" x="38.75" y="-637.33" font-family="Monospace" font-size="9.00"> </text>
<text text-anchor="start" x="58.5" y="-636.55" font-family="Monospace" font-size="11.00">expanding</text>
<text text-anchor="start" x="130.88" y="-637.33" font-family="Monospace" font-size="9.00"> </text>
<text text-anchor="start" x="38.75" y="-624.95" font-family="Monospace" font-size="9.00"> </text>
<text text-anchor="start" x="50.62" y="-625.73" font-family="Monospace" font-size="7.00">built&#45;in protocol</text>
<text text-anchor="start" x="130.88" y="-624.95" font-family="Monospace" font-size="9.00"> </text>
<text text-anchor="start" x="38.75" y="-613.7" font-family="Monospace" font-size="9.00"> </text>
<text text-anchor="start" x="38.75" y="-602.45" font-family="Monospace" font-size="9.00"> </text>
<text text-anchor="start" x="46.88" y="-602.45" font-family="Monospace" font-size="9.00">goal_expansion/2</text>
<text text-anchor="start" x="130.88" y="-602.45" font-family="Monospace" font-size="9.00"> </text>
<text text-anchor="start" x="38.75" y="-591.2" font-family="Monospace" font-size="9.00"> </text>
<text text-anchor="start" x="46.88" y="-591.2" font-family="Monospace" font-size="9.00">term_expansion/2</text>
<text text-anchor="start" x="130.88" y="-591.2" font-family="Monospace" font-size="9.00"> </text>
</a>
</g>
</g>
<!-- monitoring -->
<g id="node2" class="node">
<title>monitoring</title>
<g id="a_node2"><a xlink:href="https://logtalk.org/library/monitoring_0.html" xlink:title="https://logtalk.org/library/monitoring_0.html">
<polygon fill="aquamarine" stroke="black" points="276.38,-662 173.62,-662 173.62,-584.5 282.38,-584.5 282.38,-656 276.38,-662"/>
<polyline fill="none" stroke="black" points="276.38,-662 276.38,-656"/>
<polyline fill="none" stroke="black" points="282.38,-656 276.38,-656"/>
<g id="a_node2_8"><a xlink:href="monitoring_protocol_xref_diagram.svg" xlink:title="Zoom">
<text text-anchor="start" x="181.62" y="-649.45" font-family="Monospace" font-size="9.00">🔍</text>
</a>
</g>
<text text-anchor="start" x="184.5" y="-637.33" font-family="Monospace" font-size="9.00"> </text>
<text text-anchor="start" x="197.12" y="-636.55" font-family="Monospace" font-size="11.00">monitoring</text>
<text text-anchor="start" x="269.12" y="-637.33" font-family="Monospace" font-size="9.00"> </text>
<text text-anchor="start" x="184.5" y="-624.95" font-family="Monospace" font-size="9.00"> </text>
<text text-anchor="start" x="192.62" y="-625.73" font-family="Monospace" font-size="7.00">built&#45;in protocol</text>
<text text-anchor="start" x="269.12" y="-624.95" font-family="Monospace" font-size="9.00"> </text>
<text text-anchor="start" x="184.5" y="-613.7" font-family="Monospace" font-size="9.00"> </text>
<text text-anchor="start" x="184.5" y="-602.45" font-family="Monospace" font-size="9.00"> </text>
<text text-anchor="start" x="209.88" y="-602.45" font-family="Monospace" font-size="9.00">before/3</text>
<text text-anchor="start" x="269.12" y="-602.45" font-family="Monospace" font-size="9.00"> </text>
<text text-anchor="start" x="184.5" y="-591.2" font-family="Monospace" font-size="9.00"> </text>
<text text-anchor="start" x="212.5" y="-591.2" font-family="Monospace" font-size="9.00">after/3</text>
<text text-anchor="start" x="269.12" y="-591.2" font-family="Monospace" font-size="9.00"> </text>
</a>
</g>
</g>
<!-- forwarding -->
<g id="node3" class="node">
<title>forwarding</title>
<g id="a_node3"><a xlink:href="https://logtalk.org/library/forwarding_0.html" xlink:title="https://logtalk.org/library/forwarding_0.html">
<polygon fill="aquamarine" stroke="black" points="414.38,-656.38 311.62,-656.38 311.62,-590.12 420.38,-590.12 420.38,-650.38 414.38,-656.38"/>
<polyline fill="none" stroke="black" points="414.38,-656.38 414.38,-650.38"/>
<polyline fill="none" stroke="black" points="420.38,-650.38 414.38,-650.38"/>
<g id="a_node3_9"><a xlink:href="forwarding_protocol_xref_diagram.svg" xlink:title="Zoom">
<text text-anchor="start" x="319.62" y="-643.83" font-family="Monospace" font-size="9.00">🔍</text>
</a>
</g>
<text text-anchor="start" x="322.5" y="-631.7" font-family="Monospace" font-size="9.00"> </text>
<text text-anchor="start" x="335.12" y="-630.92" font-family="Monospace" font-size="11.00">forwarding</text>
<text text-anchor="start" x="407.12" y="-631.7" font-family="Monospace" font-size="9.00"> </text>
<text text-anchor="start" x="322.5" y="-619.33" font-family="Monospace" font-size="9.00"> </text>
<text text-anchor="start" x="330.62" y="-620.1" font-family="Monospace" font-size="7.00">built&#45;in protocol</text>
<text text-anchor="start" x="407.12" y="-619.33" font-family="Monospace" font-size="9.00"> </text>
<text text-anchor="start" x="322.5" y="-608.08" font-family="Monospace" font-size="9.00"> </text>
<text text-anchor="start" x="322.5" y="-596.83" font-family="Monospace" font-size="9.00"> </text>
<text text-anchor="start" x="345.25" y="-596.83" font-family="Monospace" font-size="9.00">forward/1</text>
<text text-anchor="start" x="407.12" y="-596.83" font-family="Monospace" font-size="9.00"> </text>
</a>
</g>
</g>
<!-- user -->
<g id="node4" class="node">
<title>user</title>
<g id="a_node4"><a xlink:href="https://logtalk.org/library/user_0.html" xlink:title="https://logtalk.org/library/user_0.html">
<polygon fill="cornsilk" stroke="black" points="141.62,-333 28.38,-333 28.38,-289.25 141.62,-289.25 141.62,-333"/>
<g id="a_node4_10"><a xlink:href="user_object_xref_diagram.svg" xlink:title="Zoom">
<text text-anchor="start" x="36.38" y="-320.45" font-family="Monospace" font-size="9.00">🔍</text>
</a>
</g>
<text text-anchor="start" x="39.25" y="-308.32" font-family="Monospace" font-size="9.00"> </text>
<text text-anchor="start" x="74.38" y="-307.55" font-family="Monospace" font-size="11.00">user</text>
<text text-anchor="start" x="128.38" y="-308.32" font-family="Monospace" font-size="9.00"> </text>
<text text-anchor="start" x="39.25" y="-295.95" font-family="Monospace" font-size="9.00"> </text>
<text text-anchor="start" x="47.38" y="-296.73" font-family="Monospace" font-size="7.00">built&#45;in prototype</text>
<text text-anchor="start" x="128.38" y="-295.95" font-family="Monospace" font-size="9.00"> </text>
</a>
</g>
</g>
<!-- user&#45;&gt;expanding -->
<g id="edge1" class="edge">
<title>user&#45;&gt;expanding</title>
<g id="a_edge1"><a xlink:href="https://logtalk.org/library/user_0.html" xlink:title="implements">
<path fill="none" stroke="black" d="M85.07,-333.44C85.23,-383.01 85.63,-507 85.85,-575.3"/>
<ellipse fill="black" stroke="black" cx="85.86" cy="-579.65" rx="4" ry="4"/>
</a>
</g>
<g id="a_edge1&#45;label"><a xlink:href="https://logtalk.org/library/user_0.html" xlink:title="https://logtalk.org/library/user_0.html">
<text text-anchor="start" x="85.7" y="-529.2" font-family="Monospace" font-size="9.00">implements</text>
</a>
</g>
</g>
<!-- user&#45;&gt;monitoring -->
<g id="edge3" class="edge">
<title>user&#45;&gt;monitoring</title>
<g id="a_edge3"><a xlink:href="https://logtalk.org/library/user_0.html" xlink:title="implements">
<path fill="none" stroke="black" d="M92.08,-333.47C104.08,-368.87 129.87,-441.64 158,-500.5 170.32,-526.28 186.03,-553.97 199.44,-576.42"/>
<ellipse fill="black" stroke="black" cx="201.76" cy="-580.27" rx="4" ry="4"/>
</a>
</g>
<g id="a_edge3&#45;label"><a xlink:href="https://logtalk.org/library/user_0.html" xlink:title="https://logtalk.org/library/user_0.html">
<text text-anchor="start" x="175.61" y="-529.2" font-family="Monospace" font-size="9.00">implements</text>
</a>
</g>
</g>
<!-- user&#45;&gt;forwarding -->
<g id="edge2" class="edge">
<title>user&#45;&gt;forwarding</title>
<g id="a_edge2"><a xlink:href="https://logtalk.org/library/user_0.html" xlink:title="implements">
<path fill="none" stroke="black" d="M87.33,-333.47C92.68,-372.23 109.4,-454.4 158,-500.5 181.42,-522.71 268.89,-528.24 296,-545.75 311.33,-555.64 325.49,-569.69 337,-583.06"/>
<ellipse fill="black" stroke="black" cx="339.89" cy="-586.5" rx="4" ry="4"/>
</a>
</g>
<g id="a_edge2&#45;label"><a xlink:href="https://logtalk.org/library/user_0.html" xlink:title="https://logtalk.org/library/user_0.html">
<text text-anchor="start" x="276.22" y="-529.2" font-family="Monospace" font-size="9.00">implements</text>
</a>
</g>
</g>
<!-- logtalk -->
<g id="node5" class="node">
<title>logtalk</title>
<g id="a_node5"><a xlink:href="https://logtalk.org/library/logtalk_0.html" xlink:title="https://logtalk.org/library/logtalk_0.html">
<polygon fill="cornsilk" stroke="black" points="372.12,-490.5 171.88,-490.5 171.88,-131.75 372.12,-131.75 372.12,-490.5"/>
<g id="a_node5_11"><a xlink:href="logtalk_object_xref_diagram.svg" xlink:title="Zoom">
<text text-anchor="start" x="179.88" y="-477.95" font-family="Monospace" font-size="9.00">🔍</text>
</a>
</g>
<text text-anchor="start" x="182.75" y="-465.82" font-family="Monospace" font-size="9.00"> </text>
<text text-anchor="start" x="251.25" y="-465.05" font-family="Monospace" font-size="11.00">logtalk</text>
<text text-anchor="start" x="358.88" y="-465.82" font-family="Monospace" font-size="9.00"> </text>
<text text-anchor="start" x="182.75" y="-453.45" font-family="Monospace" font-size="9.00"> </text>
<text text-anchor="start" x="234.38" y="-454.23" font-family="Monospace" font-size="7.00">built&#45;in prototype</text>
<text text-anchor="start" x="358.88" y="-453.45" font-family="Monospace" font-size="9.00"> </text>
<text text-anchor="start" x="182.75" y="-442.2" font-family="Monospace" font-size="9.00"> </text>
<text text-anchor="start" x="182.75" y="-430.95" font-family="Monospace" font-size="9.00"> </text>
<text text-anchor="start" x="235.5" y="-430.95" font-family="Monospace" font-size="9.00">print_message/3</text>
<text text-anchor="start" x="358.88" y="-430.95" font-family="Monospace" font-size="9.00"> </text>
<text text-anchor="start" x="182.75" y="-419.7" font-family="Monospace" font-size="9.00"> </text>
<text text-anchor="start" x="217.12" y="-419.7" font-family="Monospace" font-size="9.00">print_message_tokens/3</text>
<text text-anchor="start" x="358.88" y="-419.7" font-family="Monospace" font-size="9.00"> </text>
<text text-anchor="start" x="182.75" y="-408.45" font-family="Monospace" font-size="9.00"> </text>
<text text-anchor="start" x="219.75" y="-408.45" font-family="Monospace" font-size="9.00">print_message_token/4</text>
<text text-anchor="start" x="358.88" y="-408.45" font-family="Monospace" font-size="9.00"> </text>
<text text-anchor="start" x="182.75" y="-397.2" font-family="Monospace" font-size="9.00"> </text>
<text text-anchor="start" x="230.25" y="-397.2" font-family="Monospace" font-size="9.00">message_tokens//2</text>
<text text-anchor="start" x="358.88" y="-397.2" font-family="Monospace" font-size="9.00"> </text>
<text text-anchor="start" x="182.75" y="-385.95" font-family="Monospace" font-size="9.00"> </text>
<text text-anchor="start" x="214.5" y="-385.95" font-family="Monospace" font-size="9.00">message_prefix_stream/4</text>
<text text-anchor="start" x="358.88" y="-385.95" font-family="Monospace" font-size="9.00"> </text>
<text text-anchor="start" x="182.75" y="-374.7" font-family="Monospace" font-size="9.00"> </text>
<text text-anchor="start" x="219.75" y="-374.7" font-family="Monospace" font-size="9.00">message_prefix_file/6</text>
<text text-anchor="start" x="358.88" y="-374.7" font-family="Monospace" font-size="9.00"> </text>
<text text-anchor="start" x="182.75" y="-363.45" font-family="Monospace" font-size="9.00"> </text>
<text text-anchor="start" x="238.12" y="-363.45" font-family="Monospace" font-size="9.00">message_hook/4</text>
<text text-anchor="start" x="358.88" y="-363.45" font-family="Monospace" font-size="9.00"> </text>
<text text-anchor="start" x="182.75" y="-352.2" font-family="Monospace" font-size="9.00"> </text>
<text text-anchor="start" x="238.12" y="-352.2" font-family="Monospace" font-size="9.00">ask_question/5</text>
<text text-anchor="start" x="358.88" y="-352.2" font-family="Monospace" font-size="9.00"> </text>
<text text-anchor="start" x="182.75" y="-340.95" font-family="Monospace" font-size="9.00"> </text>
<text text-anchor="start" x="235.5" y="-340.95" font-family="Monospace" font-size="9.00">question_hook/6</text>
<text text-anchor="start" x="358.88" y="-340.95" font-family="Monospace" font-size="9.00"> </text>
<text text-anchor="start" x="182.75" y="-329.7" font-family="Monospace" font-size="9.00"> </text>
<text text-anchor="start" x="211.88" y="-329.7" font-family="Monospace" font-size="9.00">question_prompt_stream/4</text>
<text text-anchor="start" x="358.88" y="-329.7" font-family="Monospace" font-size="9.00"> </text>
<text text-anchor="start" x="182.75" y="-318.45" font-family="Monospace" font-size="9.00"> </text>
<text text-anchor="start" x="240.75" y="-318.45" font-family="Monospace" font-size="9.00">trace_event/2</text>
<text text-anchor="start" x="358.88" y="-318.45" font-family="Monospace" font-size="9.00"> </text>
<text text-anchor="start" x="182.75" y="-307.2" font-family="Monospace" font-size="9.00"> </text>
<text text-anchor="start" x="235.5" y="-307.2" font-family="Monospace" font-size="9.00">debug_handler/1</text>
<text text-anchor="start" x="358.88" y="-307.2" font-family="Monospace" font-size="9.00"> </text>
<text text-anchor="start" x="182.75" y="-295.95" font-family="Monospace" font-size="9.00"> </text>
<text text-anchor="start" x="217.12" y="-295.95" font-family="Monospace" font-size="9.00">active_debug_handler/1</text>
<text text-anchor="start" x="358.88" y="-295.95" font-family="Monospace" font-size="9.00"> </text>
<text text-anchor="start" x="182.75" y="-284.7" font-family="Monospace" font-size="9.00"> </text>
<text text-anchor="start" x="211.88" y="-284.7" font-family="Monospace" font-size="9.00">activate_debug_handler/1</text>
<text text-anchor="start" x="358.88" y="-284.7" font-family="Monospace" font-size="9.00"> </text>
<text text-anchor="start" x="182.75" y="-273.45" font-family="Monospace" font-size="9.00"> </text>
<text text-anchor="start" x="206.62" y="-273.45" font-family="Monospace" font-size="9.00">deactivate_debug_handler/0</text>
<text text-anchor="start" x="358.88" y="-273.45" font-family="Monospace" font-size="9.00"> </text>
<text text-anchor="start" x="182.75" y="-262.2" font-family="Monospace" font-size="9.00"> </text>
<text text-anchor="start" x="235.5" y="-262.2" font-family="Monospace" font-size="9.00">debug_handler/3</text>
<text text-anchor="start" x="358.88" y="-262.2" font-family="Monospace" font-size="9.00"> </text>
<text text-anchor="start" x="182.75" y="-250.95" font-family="Monospace" font-size="9.00"> </text>
<text text-anchor="start" x="219.75" y="-250.95" font-family="Monospace" font-size="9.00">expand_library_path/2</text>
<text text-anchor="start" x="358.88" y="-250.95" font-family="Monospace" font-size="9.00"> </text>
<text text-anchor="start" x="182.75" y="-239.7" font-family="Monospace" font-size="9.00"> </text>
<text text-anchor="start" x="240.75" y="-239.7" font-family="Monospace" font-size="9.00">loaded_file/1</text>
<text text-anchor="start" x="358.88" y="-239.7" font-family="Monospace" font-size="9.00"> </text>
<text text-anchor="start" x="182.75" y="-228.45" font-family="Monospace" font-size="9.00"> </text>
<text text-anchor="start" x="217.12" y="-228.45" font-family="Monospace" font-size="9.00">loaded_file_property/2</text>
<text text-anchor="start" x="358.88" y="-228.45" font-family="Monospace" font-size="9.00"> </text>
<text text-anchor="start" x="182.75" y="-217.2" font-family="Monospace" font-size="9.00"> </text>
<text text-anchor="start" x="219.75" y="-217.2" font-family="Monospace" font-size="9.00">file_type_extension/2</text>
<text text-anchor="start" x="358.88" y="-217.2" font-family="Monospace" font-size="9.00"> </text>
<text text-anchor="start" x="182.75" y="-205.95" font-family="Monospace" font-size="9.00"> </text>
<text text-anchor="start" x="219.75" y="-205.95" font-family="Monospace" font-size="9.00">compile_aux_clauses/1</text>
<text text-anchor="start" x="358.88" y="-205.95" font-family="Monospace" font-size="9.00"> </text>
<text text-anchor="start" x="182.75" y="-194.7" font-family="Monospace" font-size="9.00"> </text>
<text text-anchor="start" x="235.5" y="-194.7" font-family="Monospace" font-size="9.00">entity_prefix/2</text>
<text text-anchor="start" x="358.88" y="-194.7" font-family="Monospace" font-size="9.00"> </text>
<text text-anchor="start" x="182.75" y="-183.45" font-family="Monospace" font-size="9.00"> </text>
<text text-anchor="start" x="209.25" y="-183.45" font-family="Monospace" font-size="9.00">compile_predicate_heads/4</text>
<text text-anchor="start" x="358.88" y="-183.45" font-family="Monospace" font-size="9.00"> </text>
<text text-anchor="start" x="182.75" y="-172.2" font-family="Monospace" font-size="9.00"> </text>
<text text-anchor="start" x="196.12" y="-172.2" font-family="Monospace" font-size="9.00">compile_predicate_indicators/3</text>
<text text-anchor="start" x="358.88" y="-172.2" font-family="Monospace" font-size="9.00"> </text>
<text text-anchor="start" x="182.75" y="-160.95" font-family="Monospace" font-size="9.00"> </text>
<text text-anchor="start" x="204" y="-160.95" font-family="Monospace" font-size="9.00">decompile_predicate_heads/4</text>
<text text-anchor="start" x="358.88" y="-160.95" font-family="Monospace" font-size="9.00"> </text>
<text text-anchor="start" x="182.75" y="-149.7" font-family="Monospace" font-size="9.00"> </text>
<text text-anchor="start" x="190.88" y="-149.7" font-family="Monospace" font-size="9.00">decompile_predicate_indicators/4</text>
<text text-anchor="start" x="358.88" y="-149.7" font-family="Monospace" font-size="9.00"> </text>
<text text-anchor="start" x="182.75" y="-138.45" font-family="Monospace" font-size="9.00"> </text>
<text text-anchor="start" x="225" y="-138.45" font-family="Monospace" font-size="9.00">execution_context/7</text>
<text text-anchor="start" x="358.88" y="-138.45" font-family="Monospace" font-size="9.00"> </text>
</a>
</g>
</g>
<!-- core_messages -->
<g id="node6" class="node">
<title>core_messages</title>
<g id="a_node6"><a xlink:href="https://logtalk.org/library/core_messages_0.html" xlink:title="https://logtalk.org/library/core_messages_0.html">
<polygon fill="lightcyan" stroke="black" points="602.12,-349.88 401.88,-349.88 401.88,-345.88 397.88,-345.88 397.88,-341.88 401.88,-341.88 401.88,-280.38 397.88,-280.38 397.88,-276.38 401.88,-276.38 401.88,-272.38 602.12,-272.38 602.12,-349.88"/>
<polyline fill="none" stroke="black" points="401.88,-345.88 405.88,-345.88 405.88,-341.88 401.88,-341.88"/>
<polyline fill="none" stroke="black" points="401.88,-280.38 405.88,-280.38 405.88,-276.38 401.88,-276.38"/>
<g id="a_node6_12"><a xlink:href="core_messages_category_xref_diagram.svg" xlink:title="Zoom">
<text text-anchor="start" x="409.88" y="-337.32" font-family="Monospace" font-size="9.00">🔍</text>
</a>
</g>
<text text-anchor="start" x="412.75" y="-325.2" font-family="Monospace" font-size="9.00"> </text>
<text text-anchor="start" x="461" y="-324.43" font-family="Monospace" font-size="11.00">core_messages</text>
<text text-anchor="start" x="588.88" y="-325.2" font-family="Monospace" font-size="9.00"> </text>
<text text-anchor="start" x="412.75" y="-312.82" font-family="Monospace" font-size="9.00"> </text>
<text text-anchor="start" x="466.62" y="-313.6" font-family="Monospace" font-size="7.00">built&#45;in category</text>
<text text-anchor="start" x="588.88" y="-312.82" font-family="Monospace" font-size="9.00"> </text>
<text text-anchor="start" x="412.75" y="-301.57" font-family="Monospace" font-size="9.00"> </text>
<text text-anchor="start" x="412.75" y="-290.32" font-family="Monospace" font-size="9.00"> </text>
<text text-anchor="start" x="420.88" y="-290.32" font-family="Monospace" font-size="9.00">logtalk::message_prefix_stream/4</text>
<text text-anchor="start" x="588.88" y="-290.32" font-family="Monospace" font-size="9.00"> </text>
<text text-anchor="start" x="412.75" y="-279.07" font-family="Monospace" font-size="9.00"> </text>
<text text-anchor="start" x="436.62" y="-279.07" font-family="Monospace" font-size="9.00">logtalk::message_tokens//2</text>
<text text-anchor="start" x="588.88" y="-279.07" font-family="Monospace" font-size="9.00"> </text>
</a>
</g>
</g>
</g>
</svg>
