<?xml version="1.0" encoding="UTF-8" standalone="no"?>
<!DOCTYPE svg PUBLIC "-//W3C//DTD SVG 1.1//EN"
 "http://www.w3.org/Graphics/SVG/1.1/DTD/svg11.dtd">
<!-- Generated by graphviz version 2.39.20161014.1928 (20161014.1928)
 -->
<!-- Title: core Pages: 1 -->
<svg width="1012pt" height="890pt"
 viewBox="72.00 72.00 940.00 818.00" xmlns="http://www.w3.org/2000/svg" xmlns:xlink="http://www.w3.org/1999/xlink">
<g id="graph0" class="graph" transform="scale(1 1) rotate(0) translate(76 814)">
<title>core</title>
<polygon fill="#ffffff" stroke="transparent" points="-4,4 -4,-742 864,-742 864,4 -4,4"/>
<text text-anchor="start" x="8" y="-18" font-family="Courier,monospace" font-size="10.00" fill="#8b8989">Logtalk core entities</text>
<text text-anchor="start" x="8" y="-7" font-family="Courier,monospace" font-size="10.00" fill="#8b8989">Generated on 2016/10/29, 17:03</text>
<g id="clust1" class="cluster">
<title>cluster_library_core</title>
<g id="a_clust1"><a xlink:href="https://github.com/LogtalkDotOrg/logtalk3/tree/master/core/" xlink:title="https://github.com/LogtalkDotOrg/logtalk3/tree/master/core/">
<path fill="#eee9e9" stroke="#8b8989" d="M20,-38C20,-38 840,-38 840,-38 846,-38 852,-44 852,-50 852,-50 852,-718 852,-718 852,-724 846,-730 840,-730 840,-730 20,-730 20,-730 14,-730 8,-724 8,-718 8,-718 8,-50 8,-50 8,-44 14,-38 20,-38"/>
<text text-anchor="middle" x="28.5" y="-45" font-family="Courier,monospace" font-size="10.00" fill="#8b8989">core</text>
</a>
</g>
</g>
<g id="clust2" class="cluster">
<title>cluster_file_/opt/local/share/logtalk/core/expanding.lgt</title>
<g id="a_clust2"><a xlink:href="https://github.com/LogtalkDotOrg/logtalk3/tree/master/core/expanding.lgt" xlink:title="https://github.com/LogtalkDotOrg/logtalk3/tree/master/core/expanding.lgt">
<path fill="#fffafa" stroke="#8b8989" d="M726,-207C726,-207 830,-207 830,-207 836,-207 842,-213 842,-219 842,-219 842,-312 842,-312 842,-318 836,-324 830,-324 830,-324 726,-324 726,-324 720,-324 714,-318 714,-312 714,-312 714,-219 714,-219 714,-213 720,-207 726,-207"/>
<text text-anchor="middle" x="761.5" y="-214" font-family="Courier,monospace" font-size="10.00" fill="#8b8989">expanding.lgt</text>
</a>
</g>
</g>
<g id="clust3" class="cluster">
<title>cluster_file_/opt/local/share/logtalk/core/monitoring.lgt</title>
<g id="a_clust3"><a xlink:href="https://github.com/LogtalkDotOrg/logtalk3/tree/master/core/monitoring.lgt" xlink:title="https://github.com/LogtalkDotOrg/logtalk3/tree/master/core/monitoring.lgt">
<path fill="#fffafa" stroke="#8b8989" d="M604,-207C604,-207 692,-207 692,-207 698,-207 704,-213 704,-219 704,-219 704,-312 704,-312 704,-318 698,-324 692,-324 692,-324 604,-324 604,-324 598,-324 592,-318 592,-312 592,-312 592,-219 592,-219 592,-213 598,-207 604,-207"/>
<text text-anchor="middle" x="642.5" y="-214" font-family="Courier,monospace" font-size="10.00" fill="#8b8989">monitoring.lgt</text>
</a>
</g>
</g>
<g id="clust4" class="cluster">
<title>cluster_file_/opt/local/share/logtalk/core/forwarding.lgt</title>
<g id="a_clust4"><a xlink:href="https://github.com/LogtalkDotOrg/logtalk3/tree/master/core/forwarding.lgt" xlink:title="https://github.com/LogtalkDotOrg/logtalk3/tree/master/core/forwarding.lgt">
<path fill="#fffafa" stroke="#8b8989" d="M480,-617C480,-617 568,-617 568,-617 574,-617 580,-623 580,-629 580,-629 580,-708 580,-708 580,-714 574,-720 568,-720 568,-720 480,-720 480,-720 474,-720 468,-714 468,-708 468,-708 468,-629 468,-629 468,-623 474,-617 480,-617"/>
<text text-anchor="middle" x="518.5" y="-624" font-family="Courier,monospace" font-size="10.00" fill="#8b8989">forwarding.lgt</text>
</a>
</g>
</g>
<g id="clust5" class="cluster">
<title>cluster_file_/opt/local/share/logtalk/core/user.lgt</title>
<g id="a_clust5"><a xlink:href="https://github.com/LogtalkDotOrg/logtalk3/tree/master/core/user.lgt" xlink:title="https://github.com/LogtalkDotOrg/logtalk3/tree/master/core/user.lgt">
<path fill="#fffafa" stroke="#8b8989" d="M478,-228C478,-228 570,-228 570,-228 576,-228 582,-234 582,-240 582,-240 582,-291 582,-291 582,-297 576,-303 570,-303 570,-303 478,-303 478,-303 472,-303 466,-297 466,-291 466,-291 466,-240 466,-240 466,-234 472,-228 478,-228"/>
<text text-anchor="middle" x="498.5" y="-235" font-family="Courier,monospace" font-size="10.00" fill="#8b8989">user.lgt</text>
</a>
</g>
</g>
<g id="clust6" class="cluster">
<title>cluster_file_/opt/local/share/logtalk/core/logtalk.lgt</title>
<g id="a_clust6"><a xlink:href="https://github.com/LogtalkDotOrg/logtalk3/tree/master/core/logtalk.lgt" xlink:title="https://github.com/LogtalkDotOrg/logtalk3/tree/master/core/logtalk.lgt">
<path fill="#fffafa" stroke="#8b8989" d="M254,-67C254,-67 444,-67 444,-67 450,-67 456,-73 456,-79 456,-79 456,-452 456,-452 456,-458 450,-464 444,-464 444,-464 254,-464 254,-464 248,-464 242,-458 242,-452 242,-452 242,-79 242,-79 242,-73 248,-67 254,-67"/>
<text text-anchor="middle" x="283.5" y="-74" font-family="Courier,monospace" font-size="10.00" fill="#8b8989">logtalk.lgt</text>
</a>
</g>
</g>
<g id="clust7" class="cluster">
<title>cluster_file_/opt/local/share/logtalk/core/core_messages.lgt</title>
<g id="a_clust7"><a xlink:href="https://github.com/LogtalkDotOrg/logtalk3/tree/master/core/core_messages.lgt" xlink:title="https://github.com/LogtalkDotOrg/logtalk3/tree/master/core/core_messages.lgt">
<path fill="#fffafa" stroke="#8b8989" d="M30,-207C30,-207 220,-207 220,-207 226,-207 232,-213 232,-219 232,-219 232,-312 232,-312 232,-318 226,-324 220,-324 220,-324 30,-324 30,-324 24,-324 18,-318 18,-312 18,-312 18,-219 18,-219 18,-213 24,-207 30,-207"/>
<text text-anchor="middle" x="77.5" y="-214" font-family="Courier,monospace" font-size="10.00" fill="#8b8989">core_messages.lgt</text>
</a>
</g>
</g>
<!-- expanding -->
<g id="node1" class="node">
<title>expanding</title>
<g id="a_node1"><a xlink:href="http://logtalk.org/library/expanding_0.html" xlink:title="http://logtalk.org/library/expanding_0.html">
<polygon fill="#7fffd4" stroke="#000000" points="825.5,-314 724.5,-314 724.5,-236 831.5,-236 831.5,-308 825.5,-314"/>
<polyline fill="none" stroke="#000000" points="825.5,-314 825.5,-308 "/>
<polyline fill="none" stroke="#000000" points="831.5,-308 825.5,-308 "/>
<text text-anchor="start" x="748.5" y="-299.2" font-family="Courier,monospace" font-size="11.00" fill="#000000">expanding</text>
<text text-anchor="start" x="742.5" y="-286.4" font-family="Courier,monospace" font-size="7.00" fill="#000000">built&#45;in protocol</text>
<text text-anchor="start" x="775.5" y="-272.8" font-family="Courier,monospace" font-size="9.00" fill="#000000"> </text>
<text text-anchor="start" x="735" y="-258.8" font-family="Courier,monospace" font-size="9.00" fill="#000000">goal_expansion/2</text>
<text text-anchor="start" x="735" y="-244.8" font-family="Courier,monospace" font-size="9.00" fill="#000000">term_expansion/2</text>
</a>
</g>
</g>
<!-- monitoring -->
<g id="node2" class="node">
<title>monitoring</title>
<g id="a_node2"><a xlink:href="http://logtalk.org/library/monitoring_0.html" xlink:title="http://logtalk.org/library/monitoring_0.html">
<polygon fill="#7fffd4" stroke="#000000" points="688,-314 602,-314 602,-236 694,-236 694,-308 688,-314"/>
<polyline fill="none" stroke="#000000" points="688,-314 688,-308 "/>
<polyline fill="none" stroke="#000000" points="694,-308 688,-308 "/>
<text text-anchor="start" x="614.5" y="-299.2" font-family="Courier,monospace" font-size="11.00" fill="#000000">monitoring</text>
<text text-anchor="start" x="612" y="-286.4" font-family="Courier,monospace" font-size="7.00" fill="#000000">built&#45;in protocol</text>
<text text-anchor="start" x="645" y="-272.8" font-family="Courier,monospace" font-size="9.00" fill="#000000"> </text>
<text text-anchor="start" x="626" y="-258.8" font-family="Courier,monospace" font-size="9.00" fill="#000000">before/3</text>
<text text-anchor="start" x="629" y="-244.8" font-family="Courier,monospace" font-size="9.00" fill="#000000">after/3</text>
</a>
</g>
</g>
<!-- forwarding -->
<g id="node3" class="node">
<title>forwarding</title>
<g id="a_node3"><a xlink:href="http://logtalk.org/library/forwarding_0.html" xlink:title="http://logtalk.org/library/forwarding_0.html">
<polygon fill="#7fffd4" stroke="#000000" points="564,-710 478,-710 478,-646 570,-646 570,-704 564,-710"/>
<polyline fill="none" stroke="#000000" points="564,-710 564,-704 "/>
<polyline fill="none" stroke="#000000" points="570,-704 564,-704 "/>
<text text-anchor="start" x="490.5" y="-695.2" font-family="Courier,monospace" font-size="11.00" fill="#000000">forwarding</text>
<text text-anchor="start" x="488" y="-682.4" font-family="Courier,monospace" font-size="7.00" fill="#000000">built&#45;in protocol</text>
<text text-anchor="start" x="521" y="-668.8" font-family="Courier,monospace" font-size="9.00" fill="#000000"> </text>
<text text-anchor="start" x="499.5" y="-654.8" font-family="Courier,monospace" font-size="9.00" fill="#000000">forward/1</text>
</a>
</g>
</g>
<!-- user -->
<g id="node4" class="node">
<title>user</title>
<g id="a_node4"><a xlink:href="http://logtalk.org/library/user_0.html" xlink:title="http://logtalk.org/library/user_0.html">
<polygon fill="#f5f5dc" stroke="#000000" points="572,-293 476,-293 476,-257 572,-257 572,-293"/>
<text text-anchor="start" x="510.5" y="-278.2" font-family="Courier,monospace" font-size="11.00" fill="#000000">user</text>
<text text-anchor="start" x="486" y="-265.4" font-family="Courier,monospace" font-size="7.00" fill="#000000">built&#45;in prototype</text>
</a>
</g>
</g>
<!-- user&#45;&gt;forwarding -->
<g id="edge1" class="edge">
<title>user&#45;&gt;forwarding</title>
<g id="a_edge1"><a xlink:title="implements">
<path fill="none" stroke="#000000" d="M524,-293.099C524,-353.87 524,-551.615 524,-637.533"/>
<ellipse fill="#000000" stroke="#000000" cx="524" cy="-641.735" rx="4" ry="4"/>
</a>
</g>
<text text-anchor="start" x="524" y="-547.8" font-family="Courier,monospace" font-size="9.00" fill="#000000">implements</text>
</g>
<!-- logtalk -->
<g id="node5" class="node">
<title>logtalk</title>
<g id="a_node5"><a xlink:href="http://logtalk.org/library/logtalk_0.html" xlink:title="http://logtalk.org/library/logtalk_0.html">
<polygon fill="#f5f5dc" stroke="#000000" points="445.5,-454 252.5,-454 252.5,-96 445.5,-96 445.5,-454"/>
<text text-anchor="start" x="326" y="-439.2" font-family="Courier,monospace" font-size="11.00" fill="#000000">logtalk</text>
<text text-anchor="start" x="311.5" y="-426.4" font-family="Courier,monospace" font-size="7.00" fill="#000000">built&#45;in prototype</text>
<text text-anchor="start" x="346.5" y="-412.8" font-family="Courier,monospace" font-size="9.00" fill="#000000"> </text>
<text text-anchor="start" x="308.5" y="-398.8" font-family="Courier,monospace" font-size="9.00" fill="#000000">print_message/3</text>
<text text-anchor="start" x="290" y="-384.8" font-family="Courier,monospace" font-size="9.00" fill="#000000">print_message_tokens/3</text>
<text text-anchor="start" x="292.5" y="-370.8" font-family="Courier,monospace" font-size="9.00" fill="#000000">print_message_token/4</text>
<text text-anchor="start" x="303.5" y="-356.8" font-family="Courier,monospace" font-size="9.00" fill="#000000">message_tokens//2</text>
<text text-anchor="start" x="287" y="-342.8" font-family="Courier,monospace" font-size="9.00" fill="#000000">message_prefix_stream/4</text>
<text text-anchor="start" x="311.5" y="-328.8" font-family="Courier,monospace" font-size="9.00" fill="#000000">message_hook/4</text>
<text text-anchor="start" x="311.5" y="-314.8" font-family="Courier,monospace" font-size="9.00" fill="#000000">ask_question/5</text>
<text text-anchor="start" x="308.5" y="-300.8" font-family="Courier,monospace" font-size="9.00" fill="#000000">question_hook/6</text>
<text text-anchor="start" x="284.5" y="-286.8" font-family="Courier,monospace" font-size="9.00" fill="#000000">question_prompt_stream/4</text>
<text text-anchor="start" x="314" y="-272.8" font-family="Courier,monospace" font-size="9.00" fill="#000000">trace_event/2</text>
<text text-anchor="start" x="284.5" y="-258.8" font-family="Courier,monospace" font-size="9.00" fill="#000000">debug_handler_provider/1</text>
<text text-anchor="start" x="308.5" y="-244.8" font-family="Courier,monospace" font-size="9.00" fill="#000000">debug_handler/2</text>
<text text-anchor="start" x="292.5" y="-230.8" font-family="Courier,monospace" font-size="9.00" fill="#000000">expand_library_path/2</text>
<text text-anchor="start" x="314" y="-216.8" font-family="Courier,monospace" font-size="9.00" fill="#000000">loaded_file/1</text>
<text text-anchor="start" x="290" y="-202.8" font-family="Courier,monospace" font-size="9.00" fill="#000000">loaded_file_property/2</text>
<text text-anchor="start" x="292.5" y="-188.8" font-family="Courier,monospace" font-size="9.00" fill="#000000">compile_aux_clauses/1</text>
<text text-anchor="start" x="308.5" y="-174.8" font-family="Courier,monospace" font-size="9.00" fill="#000000">entity_prefix/2</text>
<text text-anchor="start" x="281.5" y="-160.8" font-family="Courier,monospace" font-size="9.00" fill="#000000">compile_predicate_heads/4</text>
<text text-anchor="start" x="268" y="-146.8" font-family="Courier,monospace" font-size="9.00" fill="#000000">compile_predicate_indicators/3</text>
<text text-anchor="start" x="276.5" y="-132.8" font-family="Courier,monospace" font-size="9.00" fill="#000000">decompile_predicate_heads/4</text>
<text text-anchor="start" x="263" y="-118.8" font-family="Courier,monospace" font-size="9.00" fill="#000000">decompile_predicate_indicators/4</text>
<text text-anchor="start" x="298" y="-104.8" font-family="Courier,monospace" font-size="9.00" fill="#000000">execution_context/7</text>
</a>
</g>
</g>
<!-- core_messages -->
<g id="node6" class="node">
<title>core_messages</title>
<g id="a_node6"><a xlink:href="http://logtalk.org/library/core_messages_0.html" xlink:title="http://logtalk.org/library/core_messages_0.html">
<polygon fill="#e0ffff" stroke="#000000" points="221.5,-314 28.5,-314 28.5,-310 24.5,-310 24.5,-306 28.5,-306 28.5,-244 24.5,-244 24.5,-240 28.5,-240 28.5,-236 221.5,-236 221.5,-314"/>
<polyline fill="none" stroke="#000000" points="28.5,-310 32.5,-310 32.5,-306 28.5,-306 "/>
<polyline fill="none" stroke="#000000" points="28.5,-244 32.5,-244 32.5,-240 28.5,-240 "/>
<text text-anchor="start" x="82.5" y="-299.2" font-family="Courier,monospace" font-size="11.00" fill="#000000">core_messages</text>
<text text-anchor="start" x="89.5" y="-286.4" font-family="Courier,monospace" font-size="7.00" fill="#000000">built&#45;in category</text>
<text text-anchor="start" x="122.5" y="-272.8" font-family="Courier,monospace" font-size="9.00" fill="#000000"> </text>
<text text-anchor="start" x="39" y="-258.8" font-family="Courier,monospace" font-size="9.00" fill="#000000">logtalk::message_prefix_stream/4</text>
<text text-anchor="start" x="55" y="-244.8" font-family="Courier,monospace" font-size="9.00" fill="#000000">logtalk::message_tokens//2</text>
</a>
</g>
</g>
</g>
</svg>
