<?xml version="1.0" encoding="UTF-8" standalone="no"?>
<!DOCTYPE svg PUBLIC "-//W3C//DTD SVG 1.1//EN"
 "http://www.w3.org/Graphics/SVG/1.1/DTD/svg11.dtd">
<!-- Generated by graphviz version 2.40.1 (20161225.0304)
 -->
<!-- Title: core Pages: 1 -->
<svg width="920pt" height="820pt"
 viewBox="72.00 72.00 848.00 748.00" xmlns="http://www.w3.org/2000/svg" xmlns:xlink="http://www.w3.org/1999/xlink">
<g id="graph0" class="graph" transform="scale(1 1) rotate(0) translate(76 744)">
<title>core</title>
<polygon fill="#ffffff" stroke="transparent" points="-4,4 -4,-672 772,-672 772,4 -4,4"/>
<text text-anchor="start" x="8" y="-29" font-family="Courier,monospace" font-size="10.00" fill="#8b8989">Logtalk core entities</text>
<text text-anchor="start" x="8" y="-18" font-family="Courier,monospace" font-size="10.00" fill="#8b8989">Inheritance diagram</text>
<text text-anchor="start" x="8" y="-7" font-family="Courier,monospace" font-size="10.00" fill="#8b8989">Generated on 2019/04/17, 17:54</text>
<g id="clust1" class="cluster">
<title>cluster_library_core</title>
<g id="a_clust1"><a xlink:href="https://github.com/LogtalkDotOrg/logtalk3/tree/master/core/" xlink:title="https://github.com/LogtalkDotOrg/logtalk3/tree/master/core/">
<path fill="#eee9e9" stroke="#8b8989" d="M20,-49C20,-49 748,-49 748,-49 754,-49 760,-55 760,-61 760,-61 760,-648 760,-648 760,-654 754,-660 748,-660 748,-660 20,-660 20,-660 14,-660 8,-654 8,-648 8,-648 8,-61 8,-61 8,-55 14,-49 20,-49"/>
<text text-anchor="middle" x="31.5" y="-56" font-family="Courier,monospace" font-size="10.00" fill="#8b8989">core/</text>
</a>
</g>
</g>
<g id="clust7" class="cluster">
<title>cluster_file_/opt/local/share/logtalk/core/core_messages.lgt</title>
<g id="a_clust7"><a xlink:href="https://github.com/LogtalkDotOrg/logtalk3/tree/master/core/core_messages.lgt" xlink:title="https://github.com/LogtalkDotOrg/logtalk3/tree/master/core/core_messages.lgt">
<path fill="#fffafa" stroke="#8b8989" d="M536,-183C536,-183 738,-183 738,-183 744,-183 750,-189 750,-195 750,-195 750,-281 750,-281 750,-287 744,-293 738,-293 738,-293 536,-293 536,-293 530,-293 524,-287 524,-281 524,-281 524,-195 524,-195 524,-189 530,-183 536,-183"/>
<text text-anchor="middle" x="583.5" y="-190" font-family="Courier,monospace" font-size="10.00" fill="#8b8989">core_messages.lgt</text>
</a>
</g>
</g>
<g id="clust2" class="cluster">
<title>cluster_file_/opt/local/share/logtalk/core/expanding.lgt</title>
<g id="a_clust2"><a xlink:href="https://github.com/LogtalkDotOrg/logtalk3/tree/master/core/expanding.lgt" xlink:title="https://github.com/LogtalkDotOrg/logtalk3/tree/master/core/expanding.lgt">
<path fill="#fffafa" stroke="#8b8989" d="M205,-551C205,-551 317,-551 317,-551 323,-551 329,-557 329,-563 329,-563 329,-638 329,-638 329,-644 323,-650 317,-650 317,-650 205,-650 205,-650 199,-650 193,-644 193,-638 193,-638 193,-563 193,-563 193,-557 199,-551 205,-551"/>
<text text-anchor="middle" x="240.5" y="-558" font-family="Courier,monospace" font-size="10.00" fill="#8b8989">expanding.lgt</text>
</a>
</g>
</g>
<g id="clust3" class="cluster">
<title>cluster_file_/opt/local/share/logtalk/core/monitoring.lgt</title>
<g id="a_clust3"><a xlink:href="https://github.com/LogtalkDotOrg/logtalk3/tree/master/core/monitoring.lgt" xlink:title="https://github.com/LogtalkDotOrg/logtalk3/tree/master/core/monitoring.lgt">
<path fill="#fffafa" stroke="#8b8989" d="M406,-188.5C406,-188.5 502,-188.5 502,-188.5 508,-188.5 514,-194.5 514,-200.5 514,-200.5 514,-275.5 514,-275.5 514,-281.5 508,-287.5 502,-287.5 502,-287.5 406,-287.5 406,-287.5 400,-287.5 394,-281.5 394,-275.5 394,-275.5 394,-200.5 394,-200.5 394,-194.5 400,-188.5 406,-188.5"/>
<text text-anchor="middle" x="444.5" y="-195.5" font-family="Courier,monospace" font-size="10.00" fill="#8b8989">monitoring.lgt</text>
</a>
</g>
</g>
<g id="clust4" class="cluster">
<title>cluster_file_/opt/local/share/logtalk/core/forwarding.lgt</title>
<g id="a_clust4"><a xlink:href="https://github.com/LogtalkDotOrg/logtalk3/tree/master/core/forwarding.lgt" xlink:title="https://github.com/LogtalkDotOrg/logtalk3/tree/master/core/forwarding.lgt">
<path fill="#fffafa" stroke="#8b8989" d="M351,-556C351,-556 447,-556 447,-556 453,-556 459,-562 459,-568 459,-568 459,-633 459,-633 459,-639 453,-645 447,-645 447,-645 351,-645 351,-645 345,-645 339,-639 339,-633 339,-633 339,-568 339,-568 339,-562 345,-556 351,-556"/>
<text text-anchor="middle" x="389.5" y="-563" font-family="Courier,monospace" font-size="10.00" fill="#8b8989">forwarding.lgt</text>
</a>
</g>
</g>
<g id="clust5" class="cluster">
<title>cluster_file_/opt/local/share/logtalk/core/user.lgt</title>
<g id="a_clust5"><a xlink:href="https://github.com/LogtalkDotOrg/logtalk3/tree/master/core/user.lgt" xlink:title="https://github.com/LogtalkDotOrg/logtalk3/tree/master/core/user.lgt">
<path fill="#fffafa" stroke="#8b8989" d="M266,-198C266,-198 372,-198 372,-198 378,-198 384,-204 384,-210 384,-210 384,-266 384,-266 384,-272 378,-278 372,-278 372,-278 266,-278 266,-278 260,-278 254,-272 254,-266 254,-266 254,-210 254,-210 254,-204 260,-198 266,-198"/>
<text text-anchor="middle" x="286.5" y="-205" font-family="Courier,monospace" font-size="10.00" fill="#8b8989">user.lgt</text>
</a>
</g>
</g>
<g id="clust6" class="cluster">
<title>cluster_file_/opt/local/share/logtalk/core/logtalk.lgt</title>
<g id="a_clust6"><a xlink:href="https://github.com/LogtalkDotOrg/logtalk3/tree/master/core/logtalk.lgt" xlink:title="https://github.com/LogtalkDotOrg/logtalk3/tree/master/core/logtalk.lgt">
<path fill="#fffafa" stroke="#8b8989" d="M30,-78C30,-78 232,-78 232,-78 238,-78 244,-84 244,-90 244,-90 244,-386 244,-386 244,-392 238,-398 232,-398 232,-398 30,-398 30,-398 24,-398 18,-392 18,-386 18,-386 18,-90 18,-90 18,-84 24,-78 30,-78"/>
<text text-anchor="middle" x="59.5" y="-85" font-family="Courier,monospace" font-size="10.00" fill="#8b8989">logtalk.lgt</text>
</a>
</g>
</g>
<!-- expanding -->
<g id="node1" class="node">
<title>expanding</title>
<g id="a_node1"><a xlink:href="https://logtalk.org/library/expanding_0.html" xlink:title="https://logtalk.org/library/expanding_0.html">
<polygon fill="#7fffd4" stroke="#000000" points="312.5,-640 203.5,-640 203.5,-580 318.5,-580 318.5,-634 312.5,-640"/>
<polyline fill="none" stroke="#000000" points="312.5,-640 312.5,-634 "/>
<polyline fill="none" stroke="#000000" points="318.5,-634 312.5,-634 "/>
<text text-anchor="start" x="212" y="-627.8" font-family="Courier,monospace" font-size="9.00" fill="#000000"> </text>
<text text-anchor="start" x="231.5" y="-627.2" font-family="Courier,monospace" font-size="11.00" fill="#000000">expanding</text>
<text text-anchor="start" x="305" y="-627.8" font-family="Courier,monospace" font-size="9.00" fill="#000000"> </text>
<text text-anchor="start" x="212" y="-616.8" font-family="Courier,monospace" font-size="9.00" fill="#000000"> </text>
<text text-anchor="start" x="225.5" y="-617.4" font-family="Courier,monospace" font-size="7.00" fill="#000000">built&#45;in protocol</text>
<text text-anchor="start" x="305" y="-616.8" font-family="Courier,monospace" font-size="9.00" fill="#000000"> </text>
<text text-anchor="start" x="212" y="-606.8" font-family="Courier,monospace" font-size="9.00" fill="#000000"> </text>
<text text-anchor="start" x="212" y="-596.8" font-family="Courier,monospace" font-size="9.00" fill="#000000"> </text>
<text text-anchor="start" x="218" y="-596.8" font-family="Courier,monospace" font-size="9.00" fill="#000000">goal_expansion/2</text>
<text text-anchor="start" x="305" y="-596.8" font-family="Courier,monospace" font-size="9.00" fill="#000000"> </text>
<text text-anchor="start" x="212" y="-586.8" font-family="Courier,monospace" font-size="9.00" fill="#000000"> </text>
<text text-anchor="start" x="218" y="-586.8" font-family="Courier,monospace" font-size="9.00" fill="#000000">term_expansion/2</text>
<text text-anchor="start" x="305" y="-586.8" font-family="Courier,monospace" font-size="9.00" fill="#000000"> </text>
</a>
</g>
</g>
<!-- monitoring -->
<g id="node2" class="node">
<title>monitoring</title>
<g id="a_node2"><a xlink:href="https://logtalk.org/library/monitoring_0.html" xlink:title="https://logtalk.org/library/monitoring_0.html">
<polygon fill="#7fffd4" stroke="#000000" points="498,-277.5 404,-277.5 404,-217.5 504,-217.5 504,-271.5 498,-277.5"/>
<polyline fill="none" stroke="#000000" points="498,-277.5 498,-271.5 "/>
<polyline fill="none" stroke="#000000" points="504,-271.5 498,-271.5 "/>
<text text-anchor="start" x="412" y="-265.3" font-family="Courier,monospace" font-size="9.00" fill="#000000"> </text>
<text text-anchor="start" x="420.5" y="-264.7" font-family="Courier,monospace" font-size="11.00" fill="#000000">monitoring</text>
<text text-anchor="start" x="490" y="-265.3" font-family="Courier,monospace" font-size="9.00" fill="#000000"> </text>
<text text-anchor="start" x="412" y="-254.3" font-family="Courier,monospace" font-size="9.00" fill="#000000"> </text>
<text text-anchor="start" x="418" y="-254.9" font-family="Courier,monospace" font-size="7.00" fill="#000000">built&#45;in protocol</text>
<text text-anchor="start" x="490" y="-254.3" font-family="Courier,monospace" font-size="9.00" fill="#000000"> </text>
<text text-anchor="start" x="412" y="-244.3" font-family="Courier,monospace" font-size="9.00" fill="#000000"> </text>
<text text-anchor="start" x="412" y="-234.3" font-family="Courier,monospace" font-size="9.00" fill="#000000"> </text>
<text text-anchor="start" x="432" y="-234.3" font-family="Courier,monospace" font-size="9.00" fill="#000000">before/3</text>
<text text-anchor="start" x="490" y="-234.3" font-family="Courier,monospace" font-size="9.00" fill="#000000"> </text>
<text text-anchor="start" x="412" y="-224.3" font-family="Courier,monospace" font-size="9.00" fill="#000000"> </text>
<text text-anchor="start" x="435" y="-224.3" font-family="Courier,monospace" font-size="9.00" fill="#000000">after/3</text>
<text text-anchor="start" x="490" y="-224.3" font-family="Courier,monospace" font-size="9.00" fill="#000000"> </text>
</a>
</g>
</g>
<!-- forwarding -->
<g id="node3" class="node">
<title>forwarding</title>
<g id="a_node3"><a xlink:href="https://logtalk.org/library/forwarding_0.html" xlink:title="https://logtalk.org/library/forwarding_0.html">
<polygon fill="#7fffd4" stroke="#000000" points="443,-635 349,-635 349,-585 449,-585 449,-629 443,-635"/>
<polyline fill="none" stroke="#000000" points="443,-635 443,-629 "/>
<polyline fill="none" stroke="#000000" points="449,-629 443,-629 "/>
<text text-anchor="start" x="357" y="-622.8" font-family="Courier,monospace" font-size="9.00" fill="#000000"> </text>
<text text-anchor="start" x="365.5" y="-622.2" font-family="Courier,monospace" font-size="11.00" fill="#000000">forwarding</text>
<text text-anchor="start" x="435" y="-622.8" font-family="Courier,monospace" font-size="9.00" fill="#000000"> </text>
<text text-anchor="start" x="357" y="-611.8" font-family="Courier,monospace" font-size="9.00" fill="#000000"> </text>
<text text-anchor="start" x="363" y="-612.4" font-family="Courier,monospace" font-size="7.00" fill="#000000">built&#45;in protocol</text>
<text text-anchor="start" x="435" y="-611.8" font-family="Courier,monospace" font-size="9.00" fill="#000000"> </text>
<text text-anchor="start" x="357" y="-601.8" font-family="Courier,monospace" font-size="9.00" fill="#000000"> </text>
<text text-anchor="start" x="357" y="-591.8" font-family="Courier,monospace" font-size="9.00" fill="#000000"> </text>
<text text-anchor="start" x="374.5" y="-591.8" font-family="Courier,monospace" font-size="9.00" fill="#000000">forward/1</text>
<text text-anchor="start" x="435" y="-591.8" font-family="Courier,monospace" font-size="9.00" fill="#000000"> </text>
</a>
</g>
</g>
<!-- user -->
<g id="node4" class="node">
<title>user</title>
<g id="a_node4"><a xlink:href="https://logtalk.org/library/user_0.html" xlink:title="https://logtalk.org/library/user_0.html">
<polygon fill="#f5f5dc" stroke="#000000" points="373.5,-268 264.5,-268 264.5,-227 373.5,-227 373.5,-268"/>
<g id="a_node4_0"><a xlink:href="user_object_xref_diagram.svg" xlink:title="Zoom">
<image xlink:href="zoom.png" width="11px" height="11px" preserveAspectRatio="xMinYMin meet" x="273" y="-263.5"/>
</a>
</g>
<text text-anchor="start" x="275.5" y="-244.3" font-family="Courier,monospace" font-size="9.00" fill="#000000"> </text>
<text text-anchor="start" x="308.5" y="-243.7" font-family="Courier,monospace" font-size="11.00" fill="#000000">user</text>
<text text-anchor="start" x="360" y="-244.3" font-family="Courier,monospace" font-size="9.00" fill="#000000"> </text>
<text text-anchor="start" x="275.5" y="-233.3" font-family="Courier,monospace" font-size="9.00" fill="#000000"> </text>
<text text-anchor="start" x="284" y="-233.9" font-family="Courier,monospace" font-size="7.00" fill="#000000">built&#45;in prototype</text>
<text text-anchor="start" x="360" y="-233.3" font-family="Courier,monospace" font-size="9.00" fill="#000000"> </text>
</a>
</g>
</g>
<!-- user&#45;&gt;expanding -->
<g id="edge1" class="edge">
<title>user&#45;&gt;expanding</title>
<g id="a_edge1"><a xlink:href="https://logtalk.org/library/user_0.html" xlink:title="implements">
<path fill="none" stroke="#000000" d="M315.7155,-268.0282C306.3282,-326.6989 279.2767,-495.7708 267.0854,-571.9662"/>
<ellipse fill="#000000" stroke="#000000" cx="266.4455" cy="-575.9658" rx="4" ry="4"/>
</a>
</g>
<g id="a_edge1&#45;label"><a xlink:href="https://logtalk.org/library/user_0.html" xlink:title="https://logtalk.org/library/user_0.html">
<text text-anchor="start" x="281" y="-481.8" font-family="Courier,monospace" font-size="9.00" fill="#000000">implements</text>
</a>
</g>
</g>
<!-- user&#45;&gt;forwarding -->
<g id="edge2" class="edge">
<title>user&#45;&gt;forwarding</title>
<g id="a_edge2"><a xlink:href="https://logtalk.org/library/user_0.html" xlink:title="implements">
<path fill="none" stroke="#000000" d="M323.5304,-268.0282C336.7386,-327.8781 375.3005,-502.6115 391.595,-576.4462"/>
<ellipse fill="#000000" stroke="#000000" cx="392.515" cy="-580.615" rx="4" ry="4"/>
</a>
</g>
<g id="a_edge2&#45;label"><a xlink:href="https://logtalk.org/library/user_0.html" xlink:title="https://logtalk.org/library/user_0.html">
<text text-anchor="start" x="372" y="-481.8" font-family="Courier,monospace" font-size="9.00" fill="#000000">implements</text>
</a>
</g>
</g>
<!-- logtalk -->
<g id="node5" class="node">
<title>logtalk</title>
<g id="a_node5"><a xlink:href="https://logtalk.org/library/logtalk_0.html" xlink:title="https://logtalk.org/library/logtalk_0.html">
<polygon fill="#f5f5dc" stroke="#000000" points="234,-388 28,-388 28,-107 234,-107 234,-388"/>
<g id="a_node5_1"><a xlink:href="logtalk_object_xref_diagram.svg" xlink:title="Zoom">
<image xlink:href="zoom.png" width="11px" height="11px" preserveAspectRatio="xMinYMin meet" x="36" y="-383.5"/>
</a>
</g>
<text text-anchor="start" x="38.5" y="-364.3" font-family="Courier,monospace" font-size="9.00" fill="#000000"> </text>
<text text-anchor="start" x="110" y="-363.7" font-family="Courier,monospace" font-size="11.00" fill="#000000">logtalk</text>
<text text-anchor="start" x="220" y="-364.3" font-family="Courier,monospace" font-size="9.00" fill="#000000"> </text>
<text text-anchor="start" x="38.5" y="-353.3" font-family="Courier,monospace" font-size="9.00" fill="#000000"> </text>
<text text-anchor="start" x="95.5" y="-353.9" font-family="Courier,monospace" font-size="7.00" fill="#000000">built&#45;in prototype</text>
<text text-anchor="start" x="220" y="-353.3" font-family="Courier,monospace" font-size="9.00" fill="#000000"> </text>
<text text-anchor="start" x="38.5" y="-343.3" font-family="Courier,monospace" font-size="9.00" fill="#000000"> </text>
<text text-anchor="start" x="38.5" y="-333.3" font-family="Courier,monospace" font-size="9.00" fill="#000000"> </text>
<text text-anchor="start" x="92.5" y="-333.3" font-family="Courier,monospace" font-size="9.00" fill="#000000">print_message/3</text>
<text text-anchor="start" x="220" y="-333.3" font-family="Courier,monospace" font-size="9.00" fill="#000000"> </text>
<text text-anchor="start" x="38.5" y="-323.3" font-family="Courier,monospace" font-size="9.00" fill="#000000"> </text>
<text text-anchor="start" x="74" y="-323.3" font-family="Courier,monospace" font-size="9.00" fill="#000000">print_message_tokens/3</text>
<text text-anchor="start" x="220" y="-323.3" font-family="Courier,monospace" font-size="9.00" fill="#000000"> </text>
<text text-anchor="start" x="38.5" y="-313.3" font-family="Courier,monospace" font-size="9.00" fill="#000000"> </text>
<text text-anchor="start" x="76.5" y="-313.3" font-family="Courier,monospace" font-size="9.00" fill="#000000">print_message_token/4</text>
<text text-anchor="start" x="220" y="-313.3" font-family="Courier,monospace" font-size="9.00" fill="#000000"> </text>
<text text-anchor="start" x="38.5" y="-303.3" font-family="Courier,monospace" font-size="9.00" fill="#000000"> </text>
<text text-anchor="start" x="87.5" y="-303.3" font-family="Courier,monospace" font-size="9.00" fill="#000000">message_tokens//2</text>
<text text-anchor="start" x="220" y="-303.3" font-family="Courier,monospace" font-size="9.00" fill="#000000"> </text>
<text text-anchor="start" x="38.5" y="-293.3" font-family="Courier,monospace" font-size="9.00" fill="#000000"> </text>
<text text-anchor="start" x="71" y="-293.3" font-family="Courier,monospace" font-size="9.00" fill="#000000">message_prefix_stream/4</text>
<text text-anchor="start" x="220" y="-293.3" font-family="Courier,monospace" font-size="9.00" fill="#000000"> </text>
<text text-anchor="start" x="38.5" y="-283.3" font-family="Courier,monospace" font-size="9.00" fill="#000000"> </text>
<text text-anchor="start" x="95.5" y="-283.3" font-family="Courier,monospace" font-size="9.00" fill="#000000">message_hook/4</text>
<text text-anchor="start" x="220" y="-283.3" font-family="Courier,monospace" font-size="9.00" fill="#000000"> </text>
<text text-anchor="start" x="38.5" y="-273.3" font-family="Courier,monospace" font-size="9.00" fill="#000000"> </text>
<text text-anchor="start" x="95.5" y="-273.3" font-family="Courier,monospace" font-size="9.00" fill="#000000">ask_question/5</text>
<text text-anchor="start" x="220" y="-273.3" font-family="Courier,monospace" font-size="9.00" fill="#000000"> </text>
<text text-anchor="start" x="38.5" y="-263.3" font-family="Courier,monospace" font-size="9.00" fill="#000000"> </text>
<text text-anchor="start" x="92.5" y="-263.3" font-family="Courier,monospace" font-size="9.00" fill="#000000">question_hook/6</text>
<text text-anchor="start" x="220" y="-263.3" font-family="Courier,monospace" font-size="9.00" fill="#000000"> </text>
<text text-anchor="start" x="38.5" y="-253.3" font-family="Courier,monospace" font-size="9.00" fill="#000000"> </text>
<text text-anchor="start" x="68.5" y="-253.3" font-family="Courier,monospace" font-size="9.00" fill="#000000">question_prompt_stream/4</text>
<text text-anchor="start" x="220" y="-253.3" font-family="Courier,monospace" font-size="9.00" fill="#000000"> </text>
<text text-anchor="start" x="38.5" y="-243.3" font-family="Courier,monospace" font-size="9.00" fill="#000000"> </text>
<text text-anchor="start" x="98" y="-243.3" font-family="Courier,monospace" font-size="9.00" fill="#000000">trace_event/2</text>
<text text-anchor="start" x="220" y="-243.3" font-family="Courier,monospace" font-size="9.00" fill="#000000"> </text>
<text text-anchor="start" x="38.5" y="-233.3" font-family="Courier,monospace" font-size="9.00" fill="#000000"> </text>
<text text-anchor="start" x="68.5" y="-233.3" font-family="Courier,monospace" font-size="9.00" fill="#000000">debug_handler_provider/1</text>
<text text-anchor="start" x="220" y="-233.3" font-family="Courier,monospace" font-size="9.00" fill="#000000"> </text>
<text text-anchor="start" x="38.5" y="-223.3" font-family="Courier,monospace" font-size="9.00" fill="#000000"> </text>
<text text-anchor="start" x="92.5" y="-223.3" font-family="Courier,monospace" font-size="9.00" fill="#000000">debug_handler/2</text>
<text text-anchor="start" x="220" y="-223.3" font-family="Courier,monospace" font-size="9.00" fill="#000000"> </text>
<text text-anchor="start" x="38.5" y="-213.3" font-family="Courier,monospace" font-size="9.00" fill="#000000"> </text>
<text text-anchor="start" x="76.5" y="-213.3" font-family="Courier,monospace" font-size="9.00" fill="#000000">expand_library_path/2</text>
<text text-anchor="start" x="220" y="-213.3" font-family="Courier,monospace" font-size="9.00" fill="#000000"> </text>
<text text-anchor="start" x="38.5" y="-203.3" font-family="Courier,monospace" font-size="9.00" fill="#000000"> </text>
<text text-anchor="start" x="98" y="-203.3" font-family="Courier,monospace" font-size="9.00" fill="#000000">loaded_file/1</text>
<text text-anchor="start" x="220" y="-203.3" font-family="Courier,monospace" font-size="9.00" fill="#000000"> </text>
<text text-anchor="start" x="38.5" y="-193.3" font-family="Courier,monospace" font-size="9.00" fill="#000000"> </text>
<text text-anchor="start" x="74" y="-193.3" font-family="Courier,monospace" font-size="9.00" fill="#000000">loaded_file_property/2</text>
<text text-anchor="start" x="220" y="-193.3" font-family="Courier,monospace" font-size="9.00" fill="#000000"> </text>
<text text-anchor="start" x="38.5" y="-183.3" font-family="Courier,monospace" font-size="9.00" fill="#000000"> </text>
<text text-anchor="start" x="76.5" y="-183.3" font-family="Courier,monospace" font-size="9.00" fill="#000000">file_type_extension/2</text>
<text text-anchor="start" x="220" y="-183.3" font-family="Courier,monospace" font-size="9.00" fill="#000000"> </text>
<text text-anchor="start" x="38.5" y="-173.3" font-family="Courier,monospace" font-size="9.00" fill="#000000"> </text>
<text text-anchor="start" x="76.5" y="-173.3" font-family="Courier,monospace" font-size="9.00" fill="#000000">compile_aux_clauses/1</text>
<text text-anchor="start" x="220" y="-173.3" font-family="Courier,monospace" font-size="9.00" fill="#000000"> </text>
<text text-anchor="start" x="38.5" y="-163.3" font-family="Courier,monospace" font-size="9.00" fill="#000000"> </text>
<text text-anchor="start" x="92.5" y="-163.3" font-family="Courier,monospace" font-size="9.00" fill="#000000">entity_prefix/2</text>
<text text-anchor="start" x="220" y="-163.3" font-family="Courier,monospace" font-size="9.00" fill="#000000"> </text>
<text text-anchor="start" x="38.5" y="-153.3" font-family="Courier,monospace" font-size="9.00" fill="#000000"> </text>
<text text-anchor="start" x="65.5" y="-153.3" font-family="Courier,monospace" font-size="9.00" fill="#000000">compile_predicate_heads/4</text>
<text text-anchor="start" x="220" y="-153.3" font-family="Courier,monospace" font-size="9.00" fill="#000000"> </text>
<text text-anchor="start" x="38.5" y="-143.3" font-family="Courier,monospace" font-size="9.00" fill="#000000"> </text>
<text text-anchor="start" x="52" y="-143.3" font-family="Courier,monospace" font-size="9.00" fill="#000000">compile_predicate_indicators/3</text>
<text text-anchor="start" x="220" y="-143.3" font-family="Courier,monospace" font-size="9.00" fill="#000000"> </text>
<text text-anchor="start" x="38.5" y="-133.3" font-family="Courier,monospace" font-size="9.00" fill="#000000"> </text>
<text text-anchor="start" x="60.5" y="-133.3" font-family="Courier,monospace" font-size="9.00" fill="#000000">decompile_predicate_heads/4</text>
<text text-anchor="start" x="220" y="-133.3" font-family="Courier,monospace" font-size="9.00" fill="#000000"> </text>
<text text-anchor="start" x="38.5" y="-123.3" font-family="Courier,monospace" font-size="9.00" fill="#000000"> </text>
<text text-anchor="start" x="47" y="-123.3" font-family="Courier,monospace" font-size="9.00" fill="#000000">decompile_predicate_indicators/4</text>
<text text-anchor="start" x="220" y="-123.3" font-family="Courier,monospace" font-size="9.00" fill="#000000"> </text>
<text text-anchor="start" x="38.5" y="-113.3" font-family="Courier,monospace" font-size="9.00" fill="#000000"> </text>
<text text-anchor="start" x="82" y="-113.3" font-family="Courier,monospace" font-size="9.00" fill="#000000">execution_context/7</text>
<text text-anchor="start" x="220" y="-113.3" font-family="Courier,monospace" font-size="9.00" fill="#000000"> </text>
</a>
</g>
</g>
<!-- core_messages -->
<g id="node6" class="node">
<title>core_messages</title>
<g id="a_node6"><a xlink:href="https://logtalk.org/library/core_messages_0.html" xlink:title="https://logtalk.org/library/core_messages_0.html">
<polygon fill="#e0ffff" stroke="#000000" points="740,-283 534,-283 534,-279 530,-279 530,-275 534,-275 534,-220 530,-220 530,-216 534,-216 534,-212 740,-212 740,-283"/>
<polyline fill="none" stroke="#000000" points="534,-279 538,-279 538,-275 534,-275 "/>
<polyline fill="none" stroke="#000000" points="534,-220 538,-220 538,-216 534,-216 "/>
<g id="a_node6_2"><a xlink:href="core_messages_category_xref_diagram.svg" xlink:title="Zoom">
<image xlink:href="zoom.png" width="11px" height="11px" preserveAspectRatio="xMinYMin meet" x="542" y="-278.5"/>
</a>
</g>
<text text-anchor="start" x="544.5" y="-259.3" font-family="Courier,monospace" font-size="9.00" fill="#000000"> </text>
<text text-anchor="start" x="596.5" y="-258.7" font-family="Courier,monospace" font-size="11.00" fill="#000000">core_messages</text>
<text text-anchor="start" x="726" y="-259.3" font-family="Courier,monospace" font-size="9.00" fill="#000000"> </text>
<text text-anchor="start" x="544.5" y="-248.3" font-family="Courier,monospace" font-size="9.00" fill="#000000"> </text>
<text text-anchor="start" x="603.5" y="-248.9" font-family="Courier,monospace" font-size="7.00" fill="#000000">built&#45;in category</text>
<text text-anchor="start" x="726" y="-248.3" font-family="Courier,monospace" font-size="9.00" fill="#000000"> </text>
<text text-anchor="start" x="544.5" y="-238.3" font-family="Courier,monospace" font-size="9.00" fill="#000000"> </text>
<text text-anchor="start" x="544.5" y="-228.3" font-family="Courier,monospace" font-size="9.00" fill="#000000"> </text>
<text text-anchor="start" x="553" y="-228.3" font-family="Courier,monospace" font-size="9.00" fill="#000000">logtalk::message_prefix_stream/4</text>
<text text-anchor="start" x="726" y="-228.3" font-family="Courier,monospace" font-size="9.00" fill="#000000"> </text>
<text text-anchor="start" x="544.5" y="-218.3" font-family="Courier,monospace" font-size="9.00" fill="#000000"> </text>
<text text-anchor="start" x="569" y="-218.3" font-family="Courier,monospace" font-size="9.00" fill="#000000">logtalk::message_tokens//2</text>
<text text-anchor="start" x="726" y="-218.3" font-family="Courier,monospace" font-size="9.00" fill="#000000"> </text>
</a>
</g>
</g>
</g>
</svg>
