<?xml version="1.0" encoding="UTF-8" standalone="no"?>
<!DOCTYPE svg PUBLIC "-//W3C//DTD SVG 1.1//EN"
 "http://www.w3.org/Graphics/SVG/1.1/DTD/svg11.dtd">
<!-- Generated by graphviz version 2.41.20190410.0829 (20190410.0829)
 -->
<!-- Title: core Pages: 1 -->
<svg width="918pt" height="708pt"
 viewBox="72.00 72.00 846.00 636.00" xmlns="http://www.w3.org/2000/svg" xmlns:xlink="http://www.w3.org/1999/xlink">
<g id="graph0" class="graph" transform="scale(1 1) rotate(0) translate(76 632)">
<title>core</title>
<polygon fill="white" stroke="transparent" points="-4,4 -4,-560 770,-560 770,4 -4,4"/>
<text text-anchor="start" x="8" y="-26" font-family="Courier,monospace" font-size="10.00" fill="dimgray">Logtalk core entities</text>
<text text-anchor="start" x="8" y="-16" font-family="Courier,monospace" font-size="10.00" fill="dimgray">Inheritance diagram for library core</text>
<text text-anchor="start" x="8" y="-6" font-family="Courier,monospace" font-size="10.00" fill="dimgray">Generated on 2019/05/23, 12:19</text>
<g id="clust1" class="cluster">
<title>cluster_library_core</title>
<g id="a_clust1"><a xlink:title="core/">
<path fill="whitesmoke" stroke="dimgray" d="M20,-46C20,-46 746,-46 746,-46 752,-46 758,-52 758,-58 758,-58 758,-536 758,-536 758,-542 752,-548 746,-548 746,-548 20,-548 20,-548 14,-548 8,-542 8,-536 8,-536 8,-58 8,-58 8,-52 14,-46 20,-46"/>
<g id="a_clust1_0"><a xlink:href="https://github.com/LogtalkDotOrg/logtalk3/tree/60d82a4d6d5a9e1ae9bb9ad5475c06d107d51ee7/core/" xlink:title="https://github.com/LogtalkDotOrg/logtalk3/tree/60d82a4d6d5a9e1ae9bb9ad5475c06d107d51ee7/core/">
<text text-anchor="start" x="20" y="-56" font-family="Courier,monospace" font-size="10.00" fill="dimgray">core/</text>
</a>
</g>
</a>
</g>
</g>
<g id="clust2" class="cluster">
<title>cluster_file_/opt/local/share/logtalk/core/expanding.lgt</title>
<g id="a_clust2"><a xlink:title="expanding.lgt">
<path fill="snow" stroke="dimgray" d="M430,-426C430,-426 544,-426 544,-426 550,-426 556,-432 556,-438 556,-438 556,-526 556,-526 556,-532 550,-538 544,-538 544,-538 430,-538 430,-538 424,-538 418,-532 418,-526 418,-526 418,-438 418,-438 418,-432 424,-426 430,-426"/>
<g id="a_clust2_1"><a xlink:href="https://github.com/LogtalkDotOrg/logtalk3/tree/60d82a4d6d5a9e1ae9bb9ad5475c06d107d51ee7/core/expanding.lgt" xlink:title="https://github.com/LogtalkDotOrg/logtalk3/tree/60d82a4d6d5a9e1ae9bb9ad5475c06d107d51ee7/core/expanding.lgt">
<text text-anchor="start" x="429.99" y="-436" font-family="Courier,monospace" font-size="10.00" fill="dimgray">expanding.lgt</text>
</a>
</g>
</a>
</g>
</g>
<g id="clust3" class="cluster">
<title>cluster_file_/opt/local/share/logtalk/core/monitoring.lgt</title>
<g id="a_clust3"><a xlink:title="monitoring.lgt">
<path fill="snow" stroke="dimgray" d="M636,-176.5C636,-176.5 736,-176.5 736,-176.5 742,-176.5 748,-182.5 748,-188.5 748,-188.5 748,-276.5 748,-276.5 748,-282.5 742,-288.5 736,-288.5 736,-288.5 636,-288.5 636,-288.5 630,-288.5 624,-282.5 624,-276.5 624,-276.5 624,-188.5 624,-188.5 624,-182.5 630,-176.5 636,-176.5"/>
<g id="a_clust3_2"><a xlink:href="https://github.com/LogtalkDotOrg/logtalk3/tree/60d82a4d6d5a9e1ae9bb9ad5475c06d107d51ee7/core/monitoring.lgt" xlink:title="https://github.com/LogtalkDotOrg/logtalk3/tree/60d82a4d6d5a9e1ae9bb9ad5475c06d107d51ee7/core/monitoring.lgt">
<text text-anchor="start" x="635.99" y="-186.5" font-family="Courier,monospace" font-size="10.00" fill="dimgray">monitoring.lgt</text>
</a>
</g>
</a>
</g>
</g>
<g id="clust4" class="cluster">
<title>cluster_file_/opt/local/share/logtalk/core/forwarding.lgt</title>
<g id="a_clust4"><a xlink:title="forwarding.lgt">
<path fill="snow" stroke="dimgray" d="M578,-430.5C578,-430.5 678,-430.5 678,-430.5 684,-430.5 690,-436.5 690,-442.5 690,-442.5 690,-521.5 690,-521.5 690,-527.5 684,-533.5 678,-533.5 678,-533.5 578,-533.5 578,-533.5 572,-533.5 566,-527.5 566,-521.5 566,-521.5 566,-442.5 566,-442.5 566,-436.5 572,-430.5 578,-430.5"/>
<g id="a_clust4_3"><a xlink:href="https://github.com/LogtalkDotOrg/logtalk3/tree/60d82a4d6d5a9e1ae9bb9ad5475c06d107d51ee7/core/forwarding.lgt" xlink:title="https://github.com/LogtalkDotOrg/logtalk3/tree/60d82a4d6d5a9e1ae9bb9ad5475c06d107d51ee7/core/forwarding.lgt">
<text text-anchor="start" x="577.99" y="-440.5" font-family="Courier,monospace" font-size="10.00" fill="dimgray">forwarding.lgt</text>
</a>
</g>
</a>
</g>
</g>
<g id="clust5" class="cluster">
<title>cluster_file_/opt/local/share/logtalk/core/user.lgt</title>
<g id="a_clust5"><a xlink:title="user.lgt">
<path fill="snow" stroke="dimgray" d="M498,-190C498,-190 602,-190 602,-190 608,-190 614,-196 614,-202 614,-202 614,-263 614,-263 614,-269 608,-275 602,-275 602,-275 498,-275 498,-275 492,-275 486,-269 486,-263 486,-263 486,-202 486,-202 486,-196 492,-190 498,-190"/>
<g id="a_clust5_4"><a xlink:href="https://github.com/LogtalkDotOrg/logtalk3/tree/60d82a4d6d5a9e1ae9bb9ad5475c06d107d51ee7/core/user.lgt" xlink:title="https://github.com/LogtalkDotOrg/logtalk3/tree/60d82a4d6d5a9e1ae9bb9ad5475c06d107d51ee7/core/user.lgt">
<text text-anchor="start" x="498" y="-200" font-family="Courier,monospace" font-size="10.00" fill="dimgray">user.lgt</text>
</a>
</g>
</a>
</g>
</g>
<g id="clust6" class="cluster">
<title>cluster_file_/opt/local/share/logtalk/core/logtalk.lgt</title>
<g id="a_clust6"><a xlink:title="logtalk.lgt">
<path fill="snow" stroke="dimgray" d="M264,-82C264,-82 464,-82 464,-82 470,-82 476,-88 476,-94 476,-94 476,-371 476,-371 476,-377 470,-383 464,-383 464,-383 264,-383 264,-383 258,-383 252,-377 252,-371 252,-371 252,-94 252,-94 252,-88 258,-82 264,-82"/>
<g id="a_clust6_5"><a xlink:href="https://github.com/LogtalkDotOrg/logtalk3/tree/60d82a4d6d5a9e1ae9bb9ad5475c06d107d51ee7/core/logtalk.lgt" xlink:title="https://github.com/LogtalkDotOrg/logtalk3/tree/60d82a4d6d5a9e1ae9bb9ad5475c06d107d51ee7/core/logtalk.lgt">
<text text-anchor="start" x="263.99" y="-92" font-family="Courier,monospace" font-size="10.00" fill="dimgray">logtalk.lgt</text>
</a>
</g>
</a>
</g>
</g>
<g id="clust7" class="cluster">
<title>cluster_file_/opt/local/share/logtalk/core/core_messages.lgt</title>
<g id="a_clust7"><a xlink:title="core_messages.lgt">
<path fill="snow" stroke="dimgray" d="M30,-176.5C30,-176.5 230,-176.5 230,-176.5 236,-176.5 242,-182.5 242,-188.5 242,-188.5 242,-276.5 242,-276.5 242,-282.5 236,-288.5 230,-288.5 230,-288.5 30,-288.5 30,-288.5 24,-288.5 18,-282.5 18,-276.5 18,-276.5 18,-188.5 18,-188.5 18,-182.5 24,-176.5 30,-176.5"/>
<g id="a_clust7_6"><a xlink:href="https://github.com/LogtalkDotOrg/logtalk3/tree/60d82a4d6d5a9e1ae9bb9ad5475c06d107d51ee7/core/core_messages.lgt" xlink:title="https://github.com/LogtalkDotOrg/logtalk3/tree/60d82a4d6d5a9e1ae9bb9ad5475c06d107d51ee7/core/core_messages.lgt">
<text text-anchor="start" x="29.99" y="-186.5" font-family="Courier,monospace" font-size="10.00" fill="dimgray">core_messages.lgt</text>
</a>
</g>
</a>
</g>
</g>
<!-- expanding -->
<g id="node1" class="node">
<title>expanding</title>
<g id="a_node1"><a xlink:href="https://logtalk.org/library/expanding_0.html" xlink:title="https://logtalk.org/library/expanding_0.html">
<polygon fill="aquamarine" stroke="black" points="540,-528 428,-528 428,-462 546,-462 546,-522 540,-528"/>
<polyline fill="none" stroke="black" points="540,-528 540,-522 "/>
<polyline fill="none" stroke="black" points="546,-522 540,-522 "/>
<g id="a_node1_7"><a xlink:href="expanding_protocol_xref_diagram.svg" xlink:title="Zoom">
<image xlink:href="zoom.png" width="11px" height="11px" preserveAspectRatio="xMinYMin meet" x="436" y="-524"/>
</a>
</g>
<text text-anchor="start" x="438.8" y="-504.8" font-family="Courier,monospace" font-size="9.00"> </text>
<text text-anchor="start" x="460.3" y="-504.2" font-family="Courier,monospace" font-size="11.00">expanding</text>
<text text-anchor="start" x="532.8" y="-504.8" font-family="Courier,monospace" font-size="9.00"> </text>
<text text-anchor="start" x="438.8" y="-494.8" font-family="Courier,monospace" font-size="9.00"> </text>
<text text-anchor="start" x="454.29" y="-495.4" font-family="Courier,monospace" font-size="7.00">built&#45;in protocol</text>
<text text-anchor="start" x="532.8" y="-494.8" font-family="Courier,monospace" font-size="9.00"> </text>
<text text-anchor="start" x="438.8" y="-485.8" font-family="Courier,monospace" font-size="9.00"> </text>
<text text-anchor="start" x="438.8" y="-476.8" font-family="Courier,monospace" font-size="9.00"> </text>
<text text-anchor="start" x="446.79" y="-476.8" font-family="Courier,monospace" font-size="9.00">goal_expansion/2</text>
<text text-anchor="start" x="532.8" y="-476.8" font-family="Courier,monospace" font-size="9.00"> </text>
<text text-anchor="start" x="438.8" y="-467.8" font-family="Courier,monospace" font-size="9.00"> </text>
<text text-anchor="start" x="446.79" y="-467.8" font-family="Courier,monospace" font-size="9.00">term_expansion/2</text>
<text text-anchor="start" x="532.8" y="-467.8" font-family="Courier,monospace" font-size="9.00"> </text>
</a>
</g>
</g>
<!-- monitoring -->
<g id="node2" class="node">
<title>monitoring</title>
<g id="a_node2"><a xlink:href="https://logtalk.org/library/monitoring_0.html" xlink:title="https://logtalk.org/library/monitoring_0.html">
<polygon fill="aquamarine" stroke="black" points="731.5,-278.5 634.5,-278.5 634.5,-212.5 737.5,-212.5 737.5,-272.5 731.5,-278.5"/>
<polyline fill="none" stroke="black" points="731.5,-278.5 731.5,-272.5 "/>
<polyline fill="none" stroke="black" points="737.5,-272.5 731.5,-272.5 "/>
<g id="a_node2_8"><a xlink:href="monitoring_protocol_xref_diagram.svg" xlink:title="Zoom">
<image xlink:href="zoom.png" width="11px" height="11px" preserveAspectRatio="xMinYMin meet" x="643" y="-274.5"/>
</a>
</g>
<text text-anchor="start" x="645.8" y="-255.3" font-family="Courier,monospace" font-size="9.00"> </text>
<text text-anchor="start" x="656.49" y="-254.7" font-family="Courier,monospace" font-size="11.00">monitoring</text>
<text text-anchor="start" x="724.8" y="-255.3" font-family="Courier,monospace" font-size="9.00"> </text>
<text text-anchor="start" x="645.8" y="-245.3" font-family="Courier,monospace" font-size="9.00"> </text>
<text text-anchor="start" x="653.79" y="-245.9" font-family="Courier,monospace" font-size="7.00">built&#45;in protocol</text>
<text text-anchor="start" x="724.8" y="-245.3" font-family="Courier,monospace" font-size="9.00"> </text>
<text text-anchor="start" x="645.8" y="-236.3" font-family="Courier,monospace" font-size="9.00"> </text>
<text text-anchor="start" x="645.8" y="-227.3" font-family="Courier,monospace" font-size="9.00"> </text>
<text text-anchor="start" x="667.9" y="-227.3" font-family="Courier,monospace" font-size="9.00">before/3</text>
<text text-anchor="start" x="724.8" y="-227.3" font-family="Courier,monospace" font-size="9.00"> </text>
<text text-anchor="start" x="645.8" y="-218.3" font-family="Courier,monospace" font-size="9.00"> </text>
<text text-anchor="start" x="670.6" y="-218.3" font-family="Courier,monospace" font-size="9.00">after/3</text>
<text text-anchor="start" x="724.8" y="-218.3" font-family="Courier,monospace" font-size="9.00"> </text>
</a>
</g>
</g>
<!-- forwarding -->
<g id="node3" class="node">
<title>forwarding</title>
<g id="a_node3"><a xlink:href="https://logtalk.org/library/forwarding_0.html" xlink:title="https://logtalk.org/library/forwarding_0.html">
<polygon fill="aquamarine" stroke="black" points="673.5,-523.5 576.5,-523.5 576.5,-466.5 679.5,-466.5 679.5,-517.5 673.5,-523.5"/>
<polyline fill="none" stroke="black" points="673.5,-523.5 673.5,-517.5 "/>
<polyline fill="none" stroke="black" points="679.5,-517.5 673.5,-517.5 "/>
<g id="a_node3_9"><a xlink:href="forwarding_protocol_xref_diagram.svg" xlink:title="Zoom">
<image xlink:href="zoom.png" width="11px" height="11px" preserveAspectRatio="xMinYMin meet" x="585" y="-519"/>
</a>
</g>
<text text-anchor="start" x="587.8" y="-499.8" font-family="Courier,monospace" font-size="9.00"> </text>
<text text-anchor="start" x="598.49" y="-499.2" font-family="Courier,monospace" font-size="11.00">forwarding</text>
<text text-anchor="start" x="666.8" y="-499.8" font-family="Courier,monospace" font-size="9.00"> </text>
<text text-anchor="start" x="587.8" y="-489.8" font-family="Courier,monospace" font-size="9.00"> </text>
<text text-anchor="start" x="595.79" y="-490.4" font-family="Courier,monospace" font-size="7.00">built&#45;in protocol</text>
<text text-anchor="start" x="666.8" y="-489.8" font-family="Courier,monospace" font-size="9.00"> </text>
<text text-anchor="start" x="587.8" y="-480.8" font-family="Courier,monospace" font-size="9.00"> </text>
<text text-anchor="start" x="587.8" y="-471.8" font-family="Courier,monospace" font-size="9.00"> </text>
<text text-anchor="start" x="607.2" y="-471.8" font-family="Courier,monospace" font-size="9.00">forward/1</text>
<text text-anchor="start" x="666.8" y="-471.8" font-family="Courier,monospace" font-size="9.00"> </text>
</a>
</g>
</g>
<!-- user -->
<g id="node4" class="node">
<title>user</title>
<g id="a_node4"><a xlink:href="https://logtalk.org/library/user_0.html" xlink:title="https://logtalk.org/library/user_0.html">
<polygon fill="cornsilk" stroke="black" points="603.5,-265 496.5,-265 496.5,-226 603.5,-226 603.5,-265"/>
<g id="a_node4_10"><a xlink:href="user_object_xref_diagram.svg" xlink:title="Zoom">
<image xlink:href="zoom.png" width="11px" height="11px" preserveAspectRatio="xMinYMin meet" x="505" y="-260.5"/>
</a>
</g>
<text text-anchor="start" x="507.8" y="-241.3" font-family="Courier,monospace" font-size="9.00"> </text>
<text text-anchor="start" x="540.3" y="-240.7" font-family="Courier,monospace" font-size="11.00">user</text>
<text text-anchor="start" x="590.8" y="-241.3" font-family="Courier,monospace" font-size="9.00"> </text>
<text text-anchor="start" x="507.8" y="-231.3" font-family="Courier,monospace" font-size="9.00"> </text>
<text text-anchor="start" x="515.69" y="-231.9" font-family="Courier,monospace" font-size="7.00">built&#45;in prototype</text>
<text text-anchor="start" x="590.8" y="-231.3" font-family="Courier,monospace" font-size="9.00"> </text>
</a>
</g>
</g>
<!-- user&#45;&gt;expanding -->
<g id="edge1" class="edge">
<title>user&#45;&gt;expanding</title>
<g id="a_edge1"><a xlink:href="https://logtalk.org/library/user_0.html" xlink:title="implements">
<path fill="none" stroke="black" d="M545.26,-265.1C535.11,-304.99 511.05,-399.51 497.24,-453.79"/>
<ellipse fill="black" stroke="black" cx="496.18" cy="-457.94" rx="4" ry="4"/>
</a>
</g>
<g id="a_edge1&#45;label"><a xlink:href="https://logtalk.org/library/user_0.html" xlink:title="https://logtalk.org/library/user_0.html">
<text text-anchor="start" x="507" y="-410.8" font-family="Courier,monospace" font-size="9.00">implements</text>
</a>
</g>
</g>
<!-- user&#45;&gt;forwarding -->
<g id="edge2" class="edge">
<title>user&#45;&gt;forwarding</title>
<g id="a_edge2"><a xlink:href="https://logtalk.org/library/user_0.html" xlink:title="implements">
<path fill="none" stroke="black" d="M555.86,-265.1C568.8,-306.16 599.99,-405.13 616.81,-458.49"/>
<ellipse fill="black" stroke="black" cx="618.08" cy="-462.51" rx="4" ry="4"/>
</a>
</g>
<g id="a_edge2&#45;label"><a xlink:href="https://logtalk.org/library/user_0.html" xlink:title="https://logtalk.org/library/user_0.html">
<text text-anchor="start" x="602" y="-410.8" font-family="Courier,monospace" font-size="9.00">implements</text>
</a>
</g>
</g>
<!-- logtalk -->
<g id="node5" class="node">
<title>logtalk</title>
<g id="a_node5"><a xlink:href="https://logtalk.org/library/logtalk_0.html" xlink:title="https://logtalk.org/library/logtalk_0.html">
<polygon fill="cornsilk" stroke="black" points="466,-373 262,-373 262,-118 466,-118 466,-373"/>
<g id="a_node5_11"><a xlink:href="logtalk_object_xref_diagram.svg" xlink:title="Zoom">
<image xlink:href="zoom.png" width="11px" height="11px" preserveAspectRatio="xMinYMin meet" x="270" y="-368.5"/>
</a>
</g>
<text text-anchor="start" x="272.8" y="-349.3" font-family="Courier,monospace" font-size="9.00"> </text>
<text text-anchor="start" x="343.9" y="-348.7" font-family="Courier,monospace" font-size="11.00">logtalk</text>
<text text-anchor="start" x="452.8" y="-349.3" font-family="Courier,monospace" font-size="9.00"> </text>
<text text-anchor="start" x="272.8" y="-339.3" font-family="Courier,monospace" font-size="9.00"> </text>
<text text-anchor="start" x="329.19" y="-339.9" font-family="Courier,monospace" font-size="7.00">built&#45;in prototype</text>
<text text-anchor="start" x="452.8" y="-339.3" font-family="Courier,monospace" font-size="9.00"> </text>
<text text-anchor="start" x="272.8" y="-330.3" font-family="Courier,monospace" font-size="9.00"> </text>
<text text-anchor="start" x="272.8" y="-321.3" font-family="Courier,monospace" font-size="9.00"> </text>
<text text-anchor="start" x="326.49" y="-321.3" font-family="Courier,monospace" font-size="9.00">print_message/3</text>
<text text-anchor="start" x="452.8" y="-321.3" font-family="Courier,monospace" font-size="9.00"> </text>
<text text-anchor="start" x="272.8" y="-312.3" font-family="Courier,monospace" font-size="9.00"> </text>
<text text-anchor="start" x="307.59" y="-312.3" font-family="Courier,monospace" font-size="9.00">print_message_tokens/3</text>
<text text-anchor="start" x="452.8" y="-312.3" font-family="Courier,monospace" font-size="9.00"> </text>
<text text-anchor="start" x="272.8" y="-303.3" font-family="Courier,monospace" font-size="9.00"> </text>
<text text-anchor="start" x="310.29" y="-303.3" font-family="Courier,monospace" font-size="9.00">print_message_token/4</text>
<text text-anchor="start" x="452.8" y="-303.3" font-family="Courier,monospace" font-size="9.00"> </text>
<text text-anchor="start" x="272.8" y="-294.3" font-family="Courier,monospace" font-size="9.00"> </text>
<text text-anchor="start" x="321.09" y="-294.3" font-family="Courier,monospace" font-size="9.00">message_tokens//2</text>
<text text-anchor="start" x="452.8" y="-294.3" font-family="Courier,monospace" font-size="9.00"> </text>
<text text-anchor="start" x="272.8" y="-285.3" font-family="Courier,monospace" font-size="9.00"> </text>
<text text-anchor="start" x="304.89" y="-285.3" font-family="Courier,monospace" font-size="9.00">message_prefix_stream/4</text>
<text text-anchor="start" x="452.8" y="-285.3" font-family="Courier,monospace" font-size="9.00"> </text>
<text text-anchor="start" x="272.8" y="-276.3" font-family="Courier,monospace" font-size="9.00"> </text>
<text text-anchor="start" x="329.19" y="-276.3" font-family="Courier,monospace" font-size="9.00">message_hook/4</text>
<text text-anchor="start" x="452.8" y="-276.3" font-family="Courier,monospace" font-size="9.00"> </text>
<text text-anchor="start" x="272.8" y="-267.3" font-family="Courier,monospace" font-size="9.00"> </text>
<text text-anchor="start" x="329.19" y="-267.3" font-family="Courier,monospace" font-size="9.00">ask_question/5</text>
<text text-anchor="start" x="452.8" y="-267.3" font-family="Courier,monospace" font-size="9.00"> </text>
<text text-anchor="start" x="272.8" y="-258.3" font-family="Courier,monospace" font-size="9.00"> </text>
<text text-anchor="start" x="326.49" y="-258.3" font-family="Courier,monospace" font-size="9.00">question_hook/6</text>
<text text-anchor="start" x="452.8" y="-258.3" font-family="Courier,monospace" font-size="9.00"> </text>
<text text-anchor="start" x="272.8" y="-249.3" font-family="Courier,monospace" font-size="9.00"> </text>
<text text-anchor="start" x="302.19" y="-249.3" font-family="Courier,monospace" font-size="9.00">question_prompt_stream/4</text>
<text text-anchor="start" x="452.8" y="-249.3" font-family="Courier,monospace" font-size="9.00"> </text>
<text text-anchor="start" x="272.8" y="-240.3" font-family="Courier,monospace" font-size="9.00"> </text>
<text text-anchor="start" x="331.89" y="-240.3" font-family="Courier,monospace" font-size="9.00">trace_event/2</text>
<text text-anchor="start" x="452.8" y="-240.3" font-family="Courier,monospace" font-size="9.00"> </text>
<text text-anchor="start" x="272.8" y="-231.3" font-family="Courier,monospace" font-size="9.00"> </text>
<text text-anchor="start" x="302.19" y="-231.3" font-family="Courier,monospace" font-size="9.00">debug_handler_provider/1</text>
<text text-anchor="start" x="452.8" y="-231.3" font-family="Courier,monospace" font-size="9.00"> </text>
<text text-anchor="start" x="272.8" y="-222.3" font-family="Courier,monospace" font-size="9.00"> </text>
<text text-anchor="start" x="326.49" y="-222.3" font-family="Courier,monospace" font-size="9.00">debug_handler/2</text>
<text text-anchor="start" x="452.8" y="-222.3" font-family="Courier,monospace" font-size="9.00"> </text>
<text text-anchor="start" x="272.8" y="-213.3" font-family="Courier,monospace" font-size="9.00"> </text>
<text text-anchor="start" x="310.29" y="-213.3" font-family="Courier,monospace" font-size="9.00">expand_library_path/2</text>
<text text-anchor="start" x="452.8" y="-213.3" font-family="Courier,monospace" font-size="9.00"> </text>
<text text-anchor="start" x="272.8" y="-204.3" font-family="Courier,monospace" font-size="9.00"> </text>
<text text-anchor="start" x="331.89" y="-204.3" font-family="Courier,monospace" font-size="9.00">loaded_file/1</text>
<text text-anchor="start" x="452.8" y="-204.3" font-family="Courier,monospace" font-size="9.00"> </text>
<text text-anchor="start" x="272.8" y="-195.3" font-family="Courier,monospace" font-size="9.00"> </text>
<text text-anchor="start" x="307.59" y="-195.3" font-family="Courier,monospace" font-size="9.00">loaded_file_property/2</text>
<text text-anchor="start" x="452.8" y="-195.3" font-family="Courier,monospace" font-size="9.00"> </text>
<text text-anchor="start" x="272.8" y="-186.3" font-family="Courier,monospace" font-size="9.00"> </text>
<text text-anchor="start" x="310.29" y="-186.3" font-family="Courier,monospace" font-size="9.00">file_type_extension/2</text>
<text text-anchor="start" x="452.8" y="-186.3" font-family="Courier,monospace" font-size="9.00"> </text>
<text text-anchor="start" x="272.8" y="-177.3" font-family="Courier,monospace" font-size="9.00"> </text>
<text text-anchor="start" x="310.29" y="-177.3" font-family="Courier,monospace" font-size="9.00">compile_aux_clauses/1</text>
<text text-anchor="start" x="452.8" y="-177.3" font-family="Courier,monospace" font-size="9.00"> </text>
<text text-anchor="start" x="272.8" y="-168.3" font-family="Courier,monospace" font-size="9.00"> </text>
<text text-anchor="start" x="326.49" y="-168.3" font-family="Courier,monospace" font-size="9.00">entity_prefix/2</text>
<text text-anchor="start" x="452.8" y="-168.3" font-family="Courier,monospace" font-size="9.00"> </text>
<text text-anchor="start" x="272.8" y="-159.3" font-family="Courier,monospace" font-size="9.00"> </text>
<text text-anchor="start" x="299.49" y="-159.3" font-family="Courier,monospace" font-size="9.00">compile_predicate_heads/4</text>
<text text-anchor="start" x="452.8" y="-159.3" font-family="Courier,monospace" font-size="9.00"> </text>
<text text-anchor="start" x="272.8" y="-150.3" font-family="Courier,monospace" font-size="9.00"> </text>
<text text-anchor="start" x="285.99" y="-150.3" font-family="Courier,monospace" font-size="9.00">compile_predicate_indicators/3</text>
<text text-anchor="start" x="452.8" y="-150.3" font-family="Courier,monospace" font-size="9.00"> </text>
<text text-anchor="start" x="272.8" y="-141.3" font-family="Courier,monospace" font-size="9.00"> </text>
<text text-anchor="start" x="294.09" y="-141.3" font-family="Courier,monospace" font-size="9.00">decompile_predicate_heads/4</text>
<text text-anchor="start" x="452.8" y="-141.3" font-family="Courier,monospace" font-size="9.00"> </text>
<text text-anchor="start" x="272.8" y="-132.3" font-family="Courier,monospace" font-size="9.00"> </text>
<text text-anchor="start" x="280.59" y="-132.3" font-family="Courier,monospace" font-size="9.00">decompile_predicate_indicators/4</text>
<text text-anchor="start" x="452.8" y="-132.3" font-family="Courier,monospace" font-size="9.00"> </text>
<text text-anchor="start" x="272.8" y="-123.3" font-family="Courier,monospace" font-size="9.00"> </text>
<text text-anchor="start" x="315.69" y="-123.3" font-family="Courier,monospace" font-size="9.00">execution_context/7</text>
<text text-anchor="start" x="452.8" y="-123.3" font-family="Courier,monospace" font-size="9.00"> </text>
</a>
</g>
</g>
<!-- core_messages -->
<g id="node6" class="node">
<title>core_messages</title>
<g id="a_node6"><a xlink:href="https://logtalk.org/library/core_messages_0.html" xlink:title="https://logtalk.org/library/core_messages_0.html">
<polygon fill="lightcyan" stroke="black" points="232,-278.5 28,-278.5 28,-274.5 24,-274.5 24,-270.5 28,-270.5 28,-220.5 24,-220.5 24,-216.5 28,-216.5 28,-212.5 232,-212.5 232,-278.5"/>
<polyline fill="none" stroke="black" points="28,-274.5 32,-274.5 32,-270.5 28,-270.5 "/>
<polyline fill="none" stroke="black" points="28,-220.5 32,-220.5 32,-216.5 28,-216.5 "/>
<g id="a_node6_12"><a xlink:href="core_messages_category_xref_diagram.svg" xlink:title="Zoom">
<image xlink:href="zoom.png" width="11px" height="11px" preserveAspectRatio="xMinYMin meet" x="36" y="-274.5"/>
</a>
</g>
<text text-anchor="start" x="38.8" y="-255.3" font-family="Courier,monospace" font-size="9.00"> </text>
<text text-anchor="start" x="90.09" y="-254.7" font-family="Courier,monospace" font-size="11.00">core_messages</text>
<text text-anchor="start" x="218.8" y="-255.3" font-family="Courier,monospace" font-size="9.00"> </text>
<text text-anchor="start" x="38.8" y="-245.3" font-family="Courier,monospace" font-size="9.00"> </text>
<text text-anchor="start" x="97.29" y="-245.9" font-family="Courier,monospace" font-size="7.00">built&#45;in category</text>
<text text-anchor="start" x="218.8" y="-245.3" font-family="Courier,monospace" font-size="9.00"> </text>
<text text-anchor="start" x="38.8" y="-236.3" font-family="Courier,monospace" font-size="9.00"> </text>
<text text-anchor="start" x="38.8" y="-227.3" font-family="Courier,monospace" font-size="9.00"> </text>
<text text-anchor="start" x="46.59" y="-227.3" font-family="Courier,monospace" font-size="9.00">logtalk::message_prefix_stream/4</text>
<text text-anchor="start" x="218.8" y="-227.3" font-family="Courier,monospace" font-size="9.00"> </text>
<text text-anchor="start" x="38.8" y="-218.3" font-family="Courier,monospace" font-size="9.00"> </text>
<text text-anchor="start" x="62.79" y="-218.3" font-family="Courier,monospace" font-size="9.00">logtalk::message_tokens//2</text>
<text text-anchor="start" x="218.8" y="-218.3" font-family="Courier,monospace" font-size="9.00"> </text>
</a>
</g>
</g>
</g>
</svg>
