<?xml version="1.0" encoding="UTF-8" standalone="no"?>
<?xml-stylesheet href="diagrams.css" type="text/css"?>
<!DOCTYPE svg PUBLIC "-//W3C//DTD SVG 1.1//EN"
 "http://www.w3.org/Graphics/SVG/1.1/DTD/svg11.dtd">
<!-- Generated by graphviz version 2.49.3 (20211023.0002)
 -->
<!-- Title: core Pages: 1 -->
<svg width="790pt" height="746pt"
 viewBox="72.00 72.00 718.00 674.00" xmlns="http://www.w3.org/2000/svg" xmlns:xlink="http://www.w3.org/1999/xlink">
<g id="graph0" class="graph" transform="scale(1 1) rotate(0) translate(76 670)">
<title>core</title>
<polygon fill="white" stroke="transparent" points="-4,4 -4,-598 642,-598 642,4 -4,4"/>
<text text-anchor="start" x="8" y="-29" font-family="Monospace" font-size="10.00" fill="dimgray">Logtalk core entities</text>
<text text-anchor="start" x="8" y="-18" font-family="Monospace" font-size="10.00" fill="dimgray">Inheritance diagram for library core</text>
<text text-anchor="start" x="8" y="-7" font-family="Monospace" font-size="10.00" fill="dimgray">Generated on 2021&#45;12&#45;24, 14:47</text>
<g id="clust1" class="cluster">
<title>cluster_library_core</title>
<g id="a_clust1"><a xlink:title="core/">
<path fill="whitesmoke" stroke="dimgray" d="M20,-49C20,-49 618,-49 618,-49 624,-49 630,-55 630,-61 630,-61 630,-574 630,-574 630,-580 624,-586 618,-586 618,-586 20,-586 20,-586 14,-586 8,-580 8,-574 8,-574 8,-61 8,-61 8,-55 14,-49 20,-49"/>
<g id="a_clust1_0"><a xlink:href="https://github.com/LogtalkDotOrg/logtalk3/tree/c017d0066c17c9fd68388dafe935f5fdc81cb730/core/" xlink:title="https://github.com/LogtalkDotOrg/logtalk3/tree/c017d0066c17c9fd68388dafe935f5fdc81cb730/core/">
<text text-anchor="start" x="20.5" y="-59.5" font-family="Monospace" font-size="10.00" fill="dimgray">core/</text>
</a>
</g>
</a>
</g>
</g>
<g id="clust2" class="cluster">
<title>cluster_file_/opt/local/share/logtalk/core/expanding.lgt</title>
<g id="a_clust2"><a xlink:title="expanding.lgt">
<path fill="snow" stroke="dimgray" d="M220,-458C220,-458 336,-458 336,-458 342,-458 348,-464 348,-470 348,-470 348,-564 348,-564 348,-570 342,-576 336,-576 336,-576 220,-576 220,-576 214,-576 208,-570 208,-564 208,-564 208,-470 208,-470 208,-464 214,-458 220,-458"/>
<g id="a_clust2_1"><a xlink:href="https://github.com/LogtalkDotOrg/logtalk3/tree/c017d0066c17c9fd68388dafe935f5fdc81cb730/core/expanding.lgt" xlink:title="https://github.com/LogtalkDotOrg/logtalk3/tree/c017d0066c17c9fd68388dafe935f5fdc81cb730/core/expanding.lgt">
<text text-anchor="start" x="220.5" y="-468.5" font-family="Monospace" font-size="10.00" fill="dimgray">expanding.lgt</text>
</a>
</g>
</a>
</g>
</g>
<g id="clust5" class="cluster">
<title>cluster_file_/opt/local/share/logtalk/core/user.lgt</title>
<g id="a_clust5"><a xlink:title="user.lgt">
<path fill="snow" stroke="dimgray" d="M502,-206C502,-206 608,-206 608,-206 614,-206 620,-212 620,-218 620,-218 620,-282 620,-282 620,-288 614,-294 608,-294 608,-294 502,-294 502,-294 496,-294 490,-288 490,-282 490,-282 490,-218 490,-218 490,-212 496,-206 502,-206"/>
<g id="a_clust5_2"><a xlink:href="https://github.com/LogtalkDotOrg/logtalk3/tree/c017d0066c17c9fd68388dafe935f5fdc81cb730/core/user.lgt" xlink:title="https://github.com/LogtalkDotOrg/logtalk3/tree/c017d0066c17c9fd68388dafe935f5fdc81cb730/core/user.lgt">
<text text-anchor="start" x="502.5" y="-216.5" font-family="Monospace" font-size="10.00" fill="dimgray">user.lgt</text>
</a>
</g>
</a>
</g>
</g>
<g id="clust6" class="cluster">
<title>cluster_file_/opt/local/share/logtalk/core/logtalk.lgt</title>
<g id="a_clust6"><a xlink:title="logtalk.lgt">
<path fill="snow" stroke="dimgray" d="M266,-86C266,-86 468,-86 468,-86 474,-86 480,-92 480,-98 480,-98 480,-402 480,-402 480,-408 474,-414 468,-414 468,-414 266,-414 266,-414 260,-414 254,-408 254,-402 254,-402 254,-98 254,-98 254,-92 260,-86 266,-86"/>
<g id="a_clust6_3"><a xlink:href="https://github.com/LogtalkDotOrg/logtalk3/tree/c017d0066c17c9fd68388dafe935f5fdc81cb730/core/logtalk.lgt" xlink:title="https://github.com/LogtalkDotOrg/logtalk3/tree/c017d0066c17c9fd68388dafe935f5fdc81cb730/core/logtalk.lgt">
<text text-anchor="start" x="266.5" y="-96.5" font-family="Monospace" font-size="10.00" fill="dimgray">logtalk.lgt</text>
</a>
</g>
</a>
</g>
</g>
<g id="clust3" class="cluster">
<title>cluster_file_/opt/local/share/logtalk/core/monitoring.lgt</title>
<g id="a_clust3"><a xlink:title="monitoring.lgt">
<path fill="snow" stroke="dimgray" d="M370,-458C370,-458 472,-458 472,-458 478,-458 484,-464 484,-470 484,-470 484,-564 484,-564 484,-570 478,-576 472,-576 472,-576 370,-576 370,-576 364,-576 358,-570 358,-564 358,-564 358,-470 358,-470 358,-464 364,-458 370,-458"/>
<g id="a_clust3_4"><a xlink:href="https://github.com/LogtalkDotOrg/logtalk3/tree/c017d0066c17c9fd68388dafe935f5fdc81cb730/core/monitoring.lgt" xlink:title="https://github.com/LogtalkDotOrg/logtalk3/tree/c017d0066c17c9fd68388dafe935f5fdc81cb730/core/monitoring.lgt">
<text text-anchor="start" x="370.5" y="-468.5" font-family="Monospace" font-size="10.00" fill="dimgray">monitoring.lgt</text>
</a>
</g>
</a>
</g>
</g>
<g id="clust4" class="cluster">
<title>cluster_file_/opt/local/share/logtalk/core/forwarding.lgt</title>
<g id="a_clust4"><a xlink:title="forwarding.lgt">
<path fill="snow" stroke="dimgray" d="M506,-463C506,-463 608,-463 608,-463 614,-463 620,-469 620,-475 620,-475 620,-559 620,-559 620,-565 614,-571 608,-571 608,-571 506,-571 506,-571 500,-571 494,-565 494,-559 494,-559 494,-475 494,-475 494,-469 500,-463 506,-463"/>
<g id="a_clust4_5"><a xlink:href="https://github.com/LogtalkDotOrg/logtalk3/tree/c017d0066c17c9fd68388dafe935f5fdc81cb730/core/forwarding.lgt" xlink:title="https://github.com/LogtalkDotOrg/logtalk3/tree/c017d0066c17c9fd68388dafe935f5fdc81cb730/core/forwarding.lgt">
<text text-anchor="start" x="506.5" y="-473.5" font-family="Monospace" font-size="10.00" fill="dimgray">forwarding.lgt</text>
</a>
</g>
</a>
</g>
</g>
<g id="clust7" class="cluster">
<title>cluster_file_/opt/local/share/logtalk/core/core_messages.lgt</title>
<g id="a_clust7"><a xlink:title="core_messages.lgt">
<path fill="snow" stroke="dimgray" d="M30,-191C30,-191 232,-191 232,-191 238,-191 244,-197 244,-203 244,-203 244,-297 244,-297 244,-303 238,-309 232,-309 232,-309 30,-309 30,-309 24,-309 18,-303 18,-297 18,-297 18,-203 18,-203 18,-197 24,-191 30,-191"/>
<g id="a_clust7_6"><a xlink:href="https://github.com/LogtalkDotOrg/logtalk3/tree/c017d0066c17c9fd68388dafe935f5fdc81cb730/core/core_messages.lgt" xlink:title="https://github.com/LogtalkDotOrg/logtalk3/tree/c017d0066c17c9fd68388dafe935f5fdc81cb730/core/core_messages.lgt">
<text text-anchor="start" x="30.5" y="-201.5" font-family="Monospace" font-size="10.00" fill="dimgray">core_messages.lgt</text>
</a>
</g>
</a>
</g>
</g>
<!-- expanding -->
<g id="node1" class="node">
<title>expanding</title>
<g id="a_node1"><a xlink:href="https://logtalk.org/library/expanding_0.html" xlink:title="https://logtalk.org/library/expanding_0.html">
<polygon fill="aquamarine" stroke="black" points="332,-566 218,-566 218,-495 338,-495 338,-560 332,-566"/>
<polyline fill="none" stroke="black" points="332,-566 332,-560 "/>
<polyline fill="none" stroke="black" points="338,-560 332,-560 "/>
<g id="a_node1_7"><a xlink:href="expanding_protocol_xref_diagram.svg" xlink:title="Zoom">
<image xlink:href="zoom.png" width="11px" height="11px" preserveAspectRatio="xMinYMin meet" x="226" y="-561.5"/>
</a>
</g>
<text text-anchor="start" x="228.5" y="-542.3" font-family="Monospace" font-size="9.00"> </text>
<text text-anchor="start" x="250.5" y="-541.7" font-family="Monospace" font-size="11.00">expanding</text>
<text text-anchor="start" x="324" y="-542.3" font-family="Monospace" font-size="9.00"> </text>
<text text-anchor="start" x="228.5" y="-531.3" font-family="Monospace" font-size="9.00"> </text>
<text text-anchor="start" x="244.5" y="-531.9" font-family="Monospace" font-size="7.00">built&#45;in protocol</text>
<text text-anchor="start" x="324" y="-531.3" font-family="Monospace" font-size="9.00"> </text>
<text text-anchor="start" x="228.5" y="-521.3" font-family="Monospace" font-size="9.00"> </text>
<text text-anchor="start" x="228.5" y="-511.3" font-family="Monospace" font-size="9.00"> </text>
<text text-anchor="start" x="237" y="-511.3" font-family="Monospace" font-size="9.00">goal_expansion/2</text>
<text text-anchor="start" x="324" y="-511.3" font-family="Monospace" font-size="9.00"> </text>
<text text-anchor="start" x="228.5" y="-501.3" font-family="Monospace" font-size="9.00"> </text>
<text text-anchor="start" x="237" y="-501.3" font-family="Monospace" font-size="9.00">term_expansion/2</text>
<text text-anchor="start" x="324" y="-501.3" font-family="Monospace" font-size="9.00"> </text>
</a>
</g>
</g>
<!-- monitoring -->
<g id="node2" class="node">
<title>monitoring</title>
<g id="a_node2"><a xlink:href="https://logtalk.org/library/monitoring_0.html" xlink:title="https://logtalk.org/library/monitoring_0.html">
<polygon fill="aquamarine" stroke="black" points="467.5,-566 368.5,-566 368.5,-495 473.5,-495 473.5,-560 467.5,-566"/>
<polyline fill="none" stroke="black" points="467.5,-566 467.5,-560 "/>
<polyline fill="none" stroke="black" points="473.5,-560 467.5,-560 "/>
<g id="a_node2_8"><a xlink:href="monitoring_protocol_xref_diagram.svg" xlink:title="Zoom">
<image xlink:href="zoom.png" width="11px" height="11px" preserveAspectRatio="xMinYMin meet" x="377" y="-561.5"/>
</a>
</g>
<text text-anchor="start" x="379.5" y="-542.3" font-family="Monospace" font-size="9.00"> </text>
<text text-anchor="start" x="390.5" y="-541.7" font-family="Monospace" font-size="11.00">monitoring</text>
<text text-anchor="start" x="460" y="-542.3" font-family="Monospace" font-size="9.00"> </text>
<text text-anchor="start" x="379.5" y="-531.3" font-family="Monospace" font-size="9.00"> </text>
<text text-anchor="start" x="388" y="-531.9" font-family="Monospace" font-size="7.00">built&#45;in protocol</text>
<text text-anchor="start" x="460" y="-531.3" font-family="Monospace" font-size="9.00"> </text>
<text text-anchor="start" x="379.5" y="-521.3" font-family="Monospace" font-size="9.00"> </text>
<text text-anchor="start" x="379.5" y="-511.3" font-family="Monospace" font-size="9.00"> </text>
<text text-anchor="start" x="402" y="-511.3" font-family="Monospace" font-size="9.00">before/3</text>
<text text-anchor="start" x="460" y="-511.3" font-family="Monospace" font-size="9.00"> </text>
<text text-anchor="start" x="379.5" y="-501.3" font-family="Monospace" font-size="9.00"> </text>
<text text-anchor="start" x="405" y="-501.3" font-family="Monospace" font-size="9.00">after/3</text>
<text text-anchor="start" x="460" y="-501.3" font-family="Monospace" font-size="9.00"> </text>
</a>
</g>
</g>
<!-- forwarding -->
<g id="node3" class="node">
<title>forwarding</title>
<g id="a_node3"><a xlink:href="https://logtalk.org/library/forwarding_0.html" xlink:title="https://logtalk.org/library/forwarding_0.html">
<polygon fill="aquamarine" stroke="black" points="603.5,-561 504.5,-561 504.5,-500 609.5,-500 609.5,-555 603.5,-561"/>
<polyline fill="none" stroke="black" points="603.5,-561 603.5,-555 "/>
<polyline fill="none" stroke="black" points="609.5,-555 603.5,-555 "/>
<g id="a_node3_9"><a xlink:href="forwarding_protocol_xref_diagram.svg" xlink:title="Zoom">
<image xlink:href="zoom.png" width="11px" height="11px" preserveAspectRatio="xMinYMin meet" x="513" y="-556.5"/>
</a>
</g>
<text text-anchor="start" x="515.5" y="-537.3" font-family="Monospace" font-size="9.00"> </text>
<text text-anchor="start" x="526.5" y="-536.7" font-family="Monospace" font-size="11.00">forwarding</text>
<text text-anchor="start" x="596" y="-537.3" font-family="Monospace" font-size="9.00"> </text>
<text text-anchor="start" x="515.5" y="-526.3" font-family="Monospace" font-size="9.00"> </text>
<text text-anchor="start" x="524" y="-526.9" font-family="Monospace" font-size="7.00">built&#45;in protocol</text>
<text text-anchor="start" x="596" y="-526.3" font-family="Monospace" font-size="9.00"> </text>
<text text-anchor="start" x="515.5" y="-516.3" font-family="Monospace" font-size="9.00"> </text>
<text text-anchor="start" x="515.5" y="-506.3" font-family="Monospace" font-size="9.00"> </text>
<text text-anchor="start" x="535.5" y="-506.3" font-family="Monospace" font-size="9.00">forward/1</text>
<text text-anchor="start" x="596" y="-506.3" font-family="Monospace" font-size="9.00"> </text>
</a>
</g>
</g>
<!-- user -->
<g id="node4" class="node">
<title>user</title>
<g id="a_node4"><a xlink:href="https://logtalk.org/library/user_0.html" xlink:title="https://logtalk.org/library/user_0.html">
<polygon fill="cornsilk" stroke="black" points="609.5,-284 500.5,-284 500.5,-243 609.5,-243 609.5,-284"/>
<g id="a_node4_10"><a xlink:href="user_object_xref_diagram.svg" xlink:title="Zoom">
<image xlink:href="zoom.png" width="11px" height="11px" preserveAspectRatio="xMinYMin meet" x="509" y="-279.5"/>
</a>
</g>
<text text-anchor="start" x="511.5" y="-260.3" font-family="Monospace" font-size="9.00"> </text>
<text text-anchor="start" x="544.5" y="-259.7" font-family="Monospace" font-size="11.00">user</text>
<text text-anchor="start" x="596" y="-260.3" font-family="Monospace" font-size="9.00"> </text>
<text text-anchor="start" x="511.5" y="-249.3" font-family="Monospace" font-size="9.00"> </text>
<text text-anchor="start" x="520" y="-249.9" font-family="Monospace" font-size="7.00">built&#45;in prototype</text>
<text text-anchor="start" x="596" y="-249.3" font-family="Monospace" font-size="9.00"> </text>
</a>
</g>
</g>
<!-- user&#45;&gt;expanding -->
<g id="edge1" class="edge">
<title>user&#45;&gt;expanding</title>
<g id="a_edge1"><a xlink:href="https://logtalk.org/library/user_0.html" xlink:title="implements">
<path fill="none" stroke="black" d="M550.89,-284.23C543.26,-316.05 523.91,-378.67 484,-414 456.64,-438.22 440.6,-428.25 406,-440 382.84,-447.87 374.93,-445.34 354,-458 340.01,-466.46 326.44,-477.85 314.72,-489.04"/>
<ellipse fill="black" stroke="black" cx="311.64" cy="-492.06" rx="4" ry="4"/>
</a>
</g>
<g id="a_edge1&#45;label"><a xlink:href="https://logtalk.org/library/user_0.html" xlink:title="https://logtalk.org/library/user_0.html">
<text text-anchor="start" x="406" y="-442.8" font-family="Monospace" font-size="9.00">implements</text>
</a>
</g>
</g>
<!-- user&#45;&gt;monitoring -->
<g id="edge3" class="edge">
<title>user&#45;&gt;monitoring</title>
<g id="a_edge3"><a xlink:href="https://logtalk.org/library/user_0.html" xlink:title="implements">
<path fill="none" stroke="black" d="M546.15,-284.02C533.05,-312.73 507.49,-367.92 484,-414 471.42,-438.68 456.62,-465.9 444.52,-487.72"/>
<ellipse fill="black" stroke="black" cx="442.48" cy="-491.4" rx="4" ry="4"/>
</a>
</g>
<g id="a_edge3&#45;label"><a xlink:href="https://logtalk.org/library/user_0.html" xlink:title="https://logtalk.org/library/user_0.html">
<text text-anchor="start" x="468" y="-442.8" font-family="Monospace" font-size="9.00">implements</text>
</a>
</g>
</g>
<!-- user&#45;&gt;forwarding -->
<g id="edge2" class="edge">
<title>user&#45;&gt;forwarding</title>
<g id="a_edge2"><a xlink:href="https://logtalk.org/library/user_0.html" xlink:title="implements">
<path fill="none" stroke="black" d="M555.15,-284.42C555.48,-328.47 556.29,-434.78 556.72,-491.83"/>
<ellipse fill="black" stroke="black" cx="556.75" cy="-495.87" rx="4" ry="4"/>
</a>
</g>
<g id="a_edge2&#45;label"><a xlink:href="https://logtalk.org/library/user_0.html" xlink:title="https://logtalk.org/library/user_0.html">
<text text-anchor="start" x="556" y="-442.8" font-family="Monospace" font-size="9.00">implements</text>
</a>
</g>
</g>
<!-- logtalk -->
<g id="node5" class="node">
<title>logtalk</title>
<g id="a_node5"><a xlink:href="https://logtalk.org/library/logtalk_0.html" xlink:title="https://logtalk.org/library/logtalk_0.html">
<polygon fill="cornsilk" stroke="black" points="470,-404 264,-404 264,-123 470,-123 470,-404"/>
<g id="a_node5_11"><a xlink:href="logtalk_object_xref_diagram.svg" xlink:title="Zoom">
<image xlink:href="zoom.png" width="11px" height="11px" preserveAspectRatio="xMinYMin meet" x="272" y="-399.5"/>
</a>
</g>
<text text-anchor="start" x="274.5" y="-380.3" font-family="Monospace" font-size="9.00"> </text>
<text text-anchor="start" x="346" y="-379.7" font-family="Monospace" font-size="11.00">logtalk</text>
<text text-anchor="start" x="456" y="-380.3" font-family="Monospace" font-size="9.00"> </text>
<text text-anchor="start" x="274.5" y="-369.3" font-family="Monospace" font-size="9.00"> </text>
<text text-anchor="start" x="331.5" y="-369.9" font-family="Monospace" font-size="7.00">built&#45;in prototype</text>
<text text-anchor="start" x="456" y="-369.3" font-family="Monospace" font-size="9.00"> </text>
<text text-anchor="start" x="274.5" y="-359.3" font-family="Monospace" font-size="9.00"> </text>
<text text-anchor="start" x="274.5" y="-349.3" font-family="Monospace" font-size="9.00"> </text>
<text text-anchor="start" x="328.5" y="-349.3" font-family="Monospace" font-size="9.00">print_message/3</text>
<text text-anchor="start" x="456" y="-349.3" font-family="Monospace" font-size="9.00"> </text>
<text text-anchor="start" x="274.5" y="-339.3" font-family="Monospace" font-size="9.00"> </text>
<text text-anchor="start" x="310" y="-339.3" font-family="Monospace" font-size="9.00">print_message_tokens/3</text>
<text text-anchor="start" x="456" y="-339.3" font-family="Monospace" font-size="9.00"> </text>
<text text-anchor="start" x="274.5" y="-329.3" font-family="Monospace" font-size="9.00"> </text>
<text text-anchor="start" x="312.5" y="-329.3" font-family="Monospace" font-size="9.00">print_message_token/4</text>
<text text-anchor="start" x="456" y="-329.3" font-family="Monospace" font-size="9.00"> </text>
<text text-anchor="start" x="274.5" y="-319.3" font-family="Monospace" font-size="9.00"> </text>
<text text-anchor="start" x="323.5" y="-319.3" font-family="Monospace" font-size="9.00">message_tokens//2</text>
<text text-anchor="start" x="456" y="-319.3" font-family="Monospace" font-size="9.00"> </text>
<text text-anchor="start" x="274.5" y="-309.3" font-family="Monospace" font-size="9.00"> </text>
<text text-anchor="start" x="307" y="-309.3" font-family="Monospace" font-size="9.00">message_prefix_stream/4</text>
<text text-anchor="start" x="456" y="-309.3" font-family="Monospace" font-size="9.00"> </text>
<text text-anchor="start" x="274.5" y="-299.3" font-family="Monospace" font-size="9.00"> </text>
<text text-anchor="start" x="331.5" y="-299.3" font-family="Monospace" font-size="9.00">message_hook/4</text>
<text text-anchor="start" x="456" y="-299.3" font-family="Monospace" font-size="9.00"> </text>
<text text-anchor="start" x="274.5" y="-289.3" font-family="Monospace" font-size="9.00"> </text>
<text text-anchor="start" x="331.5" y="-289.3" font-family="Monospace" font-size="9.00">ask_question/5</text>
<text text-anchor="start" x="456" y="-289.3" font-family="Monospace" font-size="9.00"> </text>
<text text-anchor="start" x="274.5" y="-279.3" font-family="Monospace" font-size="9.00"> </text>
<text text-anchor="start" x="328.5" y="-279.3" font-family="Monospace" font-size="9.00">question_hook/6</text>
<text text-anchor="start" x="456" y="-279.3" font-family="Monospace" font-size="9.00"> </text>
<text text-anchor="start" x="274.5" y="-269.3" font-family="Monospace" font-size="9.00"> </text>
<text text-anchor="start" x="304.5" y="-269.3" font-family="Monospace" font-size="9.00">question_prompt_stream/4</text>
<text text-anchor="start" x="456" y="-269.3" font-family="Monospace" font-size="9.00"> </text>
<text text-anchor="start" x="274.5" y="-259.3" font-family="Monospace" font-size="9.00"> </text>
<text text-anchor="start" x="334" y="-259.3" font-family="Monospace" font-size="9.00">trace_event/2</text>
<text text-anchor="start" x="456" y="-259.3" font-family="Monospace" font-size="9.00"> </text>
<text text-anchor="start" x="274.5" y="-249.3" font-family="Monospace" font-size="9.00"> </text>
<text text-anchor="start" x="304.5" y="-249.3" font-family="Monospace" font-size="9.00">debug_handler_provider/1</text>
<text text-anchor="start" x="456" y="-249.3" font-family="Monospace" font-size="9.00"> </text>
<text text-anchor="start" x="274.5" y="-239.3" font-family="Monospace" font-size="9.00"> </text>
<text text-anchor="start" x="328.5" y="-239.3" font-family="Monospace" font-size="9.00">debug_handler/2</text>
<text text-anchor="start" x="456" y="-239.3" font-family="Monospace" font-size="9.00"> </text>
<text text-anchor="start" x="274.5" y="-229.3" font-family="Monospace" font-size="9.00"> </text>
<text text-anchor="start" x="312.5" y="-229.3" font-family="Monospace" font-size="9.00">expand_library_path/2</text>
<text text-anchor="start" x="456" y="-229.3" font-family="Monospace" font-size="9.00"> </text>
<text text-anchor="start" x="274.5" y="-219.3" font-family="Monospace" font-size="9.00"> </text>
<text text-anchor="start" x="334" y="-219.3" font-family="Monospace" font-size="9.00">loaded_file/1</text>
<text text-anchor="start" x="456" y="-219.3" font-family="Monospace" font-size="9.00"> </text>
<text text-anchor="start" x="274.5" y="-209.3" font-family="Monospace" font-size="9.00"> </text>
<text text-anchor="start" x="310" y="-209.3" font-family="Monospace" font-size="9.00">loaded_file_property/2</text>
<text text-anchor="start" x="456" y="-209.3" font-family="Monospace" font-size="9.00"> </text>
<text text-anchor="start" x="274.5" y="-199.3" font-family="Monospace" font-size="9.00"> </text>
<text text-anchor="start" x="312.5" y="-199.3" font-family="Monospace" font-size="9.00">file_type_extension/2</text>
<text text-anchor="start" x="456" y="-199.3" font-family="Monospace" font-size="9.00"> </text>
<text text-anchor="start" x="274.5" y="-189.3" font-family="Monospace" font-size="9.00"> </text>
<text text-anchor="start" x="312.5" y="-189.3" font-family="Monospace" font-size="9.00">compile_aux_clauses/1</text>
<text text-anchor="start" x="456" y="-189.3" font-family="Monospace" font-size="9.00"> </text>
<text text-anchor="start" x="274.5" y="-179.3" font-family="Monospace" font-size="9.00"> </text>
<text text-anchor="start" x="328.5" y="-179.3" font-family="Monospace" font-size="9.00">entity_prefix/2</text>
<text text-anchor="start" x="456" y="-179.3" font-family="Monospace" font-size="9.00"> </text>
<text text-anchor="start" x="274.5" y="-169.3" font-family="Monospace" font-size="9.00"> </text>
<text text-anchor="start" x="301.5" y="-169.3" font-family="Monospace" font-size="9.00">compile_predicate_heads/4</text>
<text text-anchor="start" x="456" y="-169.3" font-family="Monospace" font-size="9.00"> </text>
<text text-anchor="start" x="274.5" y="-159.3" font-family="Monospace" font-size="9.00"> </text>
<text text-anchor="start" x="288" y="-159.3" font-family="Monospace" font-size="9.00">compile_predicate_indicators/3</text>
<text text-anchor="start" x="456" y="-159.3" font-family="Monospace" font-size="9.00"> </text>
<text text-anchor="start" x="274.5" y="-149.3" font-family="Monospace" font-size="9.00"> </text>
<text text-anchor="start" x="296.5" y="-149.3" font-family="Monospace" font-size="9.00">decompile_predicate_heads/4</text>
<text text-anchor="start" x="456" y="-149.3" font-family="Monospace" font-size="9.00"> </text>
<text text-anchor="start" x="274.5" y="-139.3" font-family="Monospace" font-size="9.00"> </text>
<text text-anchor="start" x="283" y="-139.3" font-family="Monospace" font-size="9.00">decompile_predicate_indicators/4</text>
<text text-anchor="start" x="456" y="-139.3" font-family="Monospace" font-size="9.00"> </text>
<text text-anchor="start" x="274.5" y="-129.3" font-family="Monospace" font-size="9.00"> </text>
<text text-anchor="start" x="318" y="-129.3" font-family="Monospace" font-size="9.00">execution_context/7</text>
<text text-anchor="start" x="456" y="-129.3" font-family="Monospace" font-size="9.00"> </text>
</a>
</g>
</g>
<!-- core_messages -->
<g id="node6" class="node">
<title>core_messages</title>
<g id="a_node6"><a xlink:href="https://logtalk.org/library/core_messages_0.html" xlink:title="https://logtalk.org/library/core_messages_0.html">
<polygon fill="lightcyan" stroke="black" points="234,-299 28,-299 28,-295 24,-295 24,-291 28,-291 28,-236 24,-236 24,-232 28,-232 28,-228 234,-228 234,-299"/>
<polyline fill="none" stroke="black" points="28,-295 32,-295 32,-291 28,-291 "/>
<polyline fill="none" stroke="black" points="28,-236 32,-236 32,-232 28,-232 "/>
<g id="a_node6_12"><a xlink:href="core_messages_category_xref_diagram.svg" xlink:title="Zoom">
<image xlink:href="zoom.png" width="11px" height="11px" preserveAspectRatio="xMinYMin meet" x="36" y="-294.5"/>
</a>
</g>
<text text-anchor="start" x="38.5" y="-275.3" font-family="Monospace" font-size="9.00"> </text>
<text text-anchor="start" x="90.5" y="-274.7" font-family="Monospace" font-size="11.00">core_messages</text>
<text text-anchor="start" x="220" y="-275.3" font-family="Monospace" font-size="9.00"> </text>
<text text-anchor="start" x="38.5" y="-264.3" font-family="Monospace" font-size="9.00"> </text>
<text text-anchor="start" x="97.5" y="-264.9" font-family="Monospace" font-size="7.00">built&#45;in category</text>
<text text-anchor="start" x="220" y="-264.3" font-family="Monospace" font-size="9.00"> </text>
<text text-anchor="start" x="38.5" y="-254.3" font-family="Monospace" font-size="9.00"> </text>
<text text-anchor="start" x="38.5" y="-244.3" font-family="Monospace" font-size="9.00"> </text>
<text text-anchor="start" x="47" y="-244.3" font-family="Monospace" font-size="9.00">logtalk::message_prefix_stream/4</text>
<text text-anchor="start" x="220" y="-244.3" font-family="Monospace" font-size="9.00"> </text>
<text text-anchor="start" x="38.5" y="-234.3" font-family="Monospace" font-size="9.00"> </text>
<text text-anchor="start" x="63" y="-234.3" font-family="Monospace" font-size="9.00">logtalk::message_tokens//2</text>
<text text-anchor="start" x="220" y="-234.3" font-family="Monospace" font-size="9.00"> </text>
</a>
</g>
</g>
</g>
</svg>
