<?xml version="1.0" encoding="UTF-8" standalone="no"?>
<?xml-stylesheet href="diagrams.css" type="text/css"?>
<!DOCTYPE svg PUBLIC "-//W3C//DTD SVG 1.1//EN"
 "http://www.w3.org/Graphics/SVG/1.1/DTD/svg11.dtd">
<!-- Generated by graphviz version 2.50.0 (20211204.2007)
 -->
<!-- Title: csv_guess_questions_category Pages: 1 -->
<svg width="662pt" height="292pt"
 viewBox="72.00 72.00 590.00 220.00" xmlns="http://www.w3.org/2000/svg" xmlns:xlink="http://www.w3.org/1999/xlink">
<g id="graph0" class="graph" transform="scale(1 1) rotate(0) translate(76 216)">
<title>csv_guess_questions_category</title>
<polygon fill="white" stroke="transparent" points="-4,4 -4,-144 514,-144 514,4 -4,4"/>
<text text-anchor="start" x="8" y="-29" font-family="Monospace" font-size="10.00" fill="dimgray">Logtalk library</text>
<text text-anchor="start" x="8" y="-18" font-family="Monospace" font-size="10.00" fill="dimgray">Cross&#45;referencing diagram for category csv_guess_questions</text>
<text text-anchor="start" x="8" y="-7" font-family="Monospace" font-size="10.00" fill="dimgray">Generated on 2022&#45;01&#45;14, 11:56</text>
<g id="clust1" class="cluster">
<title>cluster_csv_guess_questions_category</title>
<g id="a_clust1"><a xlink:title="csv_guess_questions">
<path fill="snow" stroke="dimgray" d="M20,-49C20,-49 490,-49 490,-49 496,-49 502,-55 502,-61 502,-61 502,-120 502,-120 502,-126 496,-132 490,-132 490,-132 20,-132 20,-132 14,-132 8,-126 8,-120 8,-120 8,-61 8,-61 8,-55 14,-49 20,-49"/>
<g id="a_clust1_0"><a xlink:href="https://github.com/LogtalkDotOrg/logtalk3/tree/0b019950b2c23ec4dc78be6ca076b8ea97a86fce/library/csv/csv_guess_questions.lgt" xlink:title="https://github.com/LogtalkDotOrg/logtalk3/tree/0b019950b2c23ec4dc78be6ca076b8ea97a86fce/library/csv/csv_guess_questions.lgt">
<text text-anchor="start" x="20.5" y="-115.5" font-family="Monospace" font-size="10.00" fill="dimgray">csv_guess_questions</text>
</a>
</g>
</a>
</g>
</g>
<!-- logtalk::message_tokens//2 -->
<g id="node1" class="node">
<title>logtalk::message_tokens//2</title>
<g id="a_node1"><a xlink:href="https://github.com/LogtalkDotOrg/logtalk3/tree/0b019950b2c23ec4dc78be6ca076b8ea97a86fce/library/csv/csv_guess_questions.lgt#L36" xlink:title="https://github.com/LogtalkDotOrg/logtalk3/tree/0b019950b2c23ec4dc78be6ca076b8ea97a86fce/library/csv/csv_guess_questions.lgt#L36">
<polygon fill="skyblue" stroke="black" points="492,-95 288,-95 288,-59 492,-59 492,-95"/>
<text text-anchor="start" x="296" y="-79.8" font-family="Monospace" font-size="9.00"> </text>
<text text-anchor="start" x="302" y="-79.2" font-family="Monospace" font-size="11.00">logtalk::message_tokens//2</text>
<text text-anchor="start" x="478" y="-79.8" font-family="Monospace" font-size="9.00"> </text>
<text text-anchor="start" x="296" y="-68.8" font-family="Monospace" font-size="9.00"> </text>
<text text-anchor="start" x="369.5" y="-69.4" font-family="Monospace" font-size="7.00">multifile</text>
<text text-anchor="start" x="478" y="-68.8" font-family="Monospace" font-size="9.00"> </text>
</a>
</g>
</g>
<!-- logtalk::question_prompt_stream/4 -->
<g id="node2" class="node">
<title>logtalk::question_prompt_stream/4</title>
<g id="a_node2"><a xlink:href="https://github.com/LogtalkDotOrg/logtalk3/tree/0b019950b2c23ec4dc78be6ca076b8ea97a86fce/library/csv/csv_guess_questions.lgt#L52" xlink:title="https://github.com/LogtalkDotOrg/logtalk3/tree/0b019950b2c23ec4dc78be6ca076b8ea97a86fce/library/csv/csv_guess_questions.lgt#L52">
<polygon fill="skyblue" stroke="black" points="269.5,-95 18.5,-95 18.5,-59 269.5,-59 269.5,-95"/>
<text text-anchor="start" x="27" y="-79.8" font-family="Monospace" font-size="9.00"> </text>
<text text-anchor="start" x="33" y="-79.2" font-family="Monospace" font-size="11.00">logtalk::question_prompt_stream/4</text>
<text text-anchor="start" x="256" y="-79.8" font-family="Monospace" font-size="9.00"> </text>
<text text-anchor="start" x="27" y="-68.8" font-family="Monospace" font-size="9.00"> </text>
<text text-anchor="start" x="124" y="-69.4" font-family="Monospace" font-size="7.00">multifile</text>
<text text-anchor="start" x="256" y="-68.8" font-family="Monospace" font-size="9.00"> </text>
</a>
</g>
</g>
</g>
</svg>
