<?xml version="1.0" encoding="UTF-8" standalone="no"?>
<?xml-stylesheet href="diagrams.css" type="text/css"?>
<!DOCTYPE svg PUBLIC "-//W3C//DTD SVG 1.1//EN"
 "http://www.w3.org/Graphics/SVG/1.1/DTD/svg11.dtd">
<!-- Generated by graphviz version 2.43.20191029.1313 (20191029.1313)
 -->
<!-- Title: csv_guess_questions_category Pages: 1 -->
<svg width="647pt" height="288pt"
 viewBox="72.00 72.00 575.00 216.00" xmlns="http://www.w3.org/2000/svg" xmlns:xlink="http://www.w3.org/1999/xlink">
<g id="graph0" class="graph" transform="scale(1 1) rotate(0) translate(76 212)">
<title>csv_guess_questions_category</title>
<polygon fill="white" stroke="transparent" points="-4,4 -4,-140 499,-140 499,4 -4,4"/>
<text text-anchor="start" x="8" y="-26" font-family="Courier,monospace" font-size="10.00" fill="dimgray">Logtalk library</text>
<text text-anchor="start" x="8" y="-16" font-family="Courier,monospace" font-size="10.00" fill="dimgray">Cross&#45;referencing diagram for category csv_guess_questions</text>
<text text-anchor="start" x="8" y="-6" font-family="Courier,monospace" font-size="10.00" fill="dimgray">Generated on 2021&#45;05&#45;31, 19:39</text>
<g id="clust1" class="cluster">
<title>cluster_csv_guess_questions_category</title>
<g id="a_clust1"><a xlink:title="csv_guess_questions">
<path fill="snow" stroke="dimgray" d="M20,-46C20,-46 475,-46 475,-46 481,-46 487,-52 487,-58 487,-58 487,-116 487,-116 487,-122 481,-128 475,-128 475,-128 20,-128 20,-128 14,-128 8,-122 8,-116 8,-116 8,-58 8,-58 8,-52 14,-46 20,-46"/>
<g id="a_clust1_0"><a xlink:href="https://github.com/LogtalkDotOrg/logtalk3/tree/235f19c8e6281025615d4fba6d7c48c38428076d/library/csv/csv_guess_questions.lgt" xlink:title="https://github.com/LogtalkDotOrg/logtalk3/tree/235f19c8e6281025615d4fba6d7c48c38428076d/library/csv/csv_guess_questions.lgt">
<text text-anchor="start" x="19.99" y="-112" font-family="Courier,monospace" font-size="10.00" fill="dimgray">csv_guess_questions</text>
</a>
</g>
</a>
</g>
</g>
<!-- logtalk::message_tokens//2 -->
<g id="node1" class="node">
<title>logtalk::message_tokens//2</title>
<g id="a_node1"><a xlink:href="https://github.com/LogtalkDotOrg/logtalk3/tree/235f19c8e6281025615d4fba6d7c48c38428076d/library/csv/csv_guess_questions.lgt#L36" xlink:title="https://github.com/LogtalkDotOrg/logtalk3/tree/235f19c8e6281025615d4fba6d7c48c38428076d/library/csv/csv_guess_questions.lgt#L36">
<polygon fill="skyblue" stroke="black" points="476.5,-92 279.5,-92 279.5,-56 476.5,-56 476.5,-92"/>
<text text-anchor="start" x="287.8" y="-75.8" font-family="Courier,monospace" font-size="9.00"> </text>
<text text-anchor="start" x="292.69" y="-75.2" font-family="Courier,monospace" font-size="11.00">logtalk::message_tokens//2</text>
<text text-anchor="start" x="463.8" y="-75.8" font-family="Courier,monospace" font-size="9.00"> </text>
<text text-anchor="start" x="287.8" y="-65.8" font-family="Courier,monospace" font-size="9.00"> </text>
<text text-anchor="start" x="359.6" y="-66.4" font-family="Courier,monospace" font-size="7.00">multifile</text>
<text text-anchor="start" x="463.8" y="-65.8" font-family="Courier,monospace" font-size="9.00"> </text>
</a>
</g>
</g>
<!-- logtalk::question_prompt_stream/4 -->
<g id="node2" class="node">
<title>logtalk::question_prompt_stream/4</title>
<g id="a_node2"><a xlink:href="https://github.com/LogtalkDotOrg/logtalk3/tree/235f19c8e6281025615d4fba6d7c48c38428076d/library/csv/csv_guess_questions.lgt#L52" xlink:title="https://github.com/LogtalkDotOrg/logtalk3/tree/235f19c8e6281025615d4fba6d7c48c38428076d/library/csv/csv_guess_questions.lgt#L52">
<polygon fill="skyblue" stroke="black" points="261.5,-92 18.5,-92 18.5,-56 261.5,-56 261.5,-92"/>
<text text-anchor="start" x="26.8" y="-75.8" font-family="Courier,monospace" font-size="9.00"> </text>
<text text-anchor="start" x="31.58" y="-75.2" font-family="Courier,monospace" font-size="11.00">logtalk::question_prompt_stream/4</text>
<text text-anchor="start" x="248.8" y="-75.8" font-family="Courier,monospace" font-size="9.00"> </text>
<text text-anchor="start" x="26.8" y="-65.8" font-family="Courier,monospace" font-size="9.00"> </text>
<text text-anchor="start" x="121.6" y="-66.4" font-family="Courier,monospace" font-size="7.00">multifile</text>
<text text-anchor="start" x="248.8" y="-65.8" font-family="Courier,monospace" font-size="9.00"> </text>
</a>
</g>
</g>
</g>
</svg>
