<?xml version="1.0" encoding="UTF-8" standalone="no"?>
<?xml-stylesheet href="diagrams.css" type="text/css"?>
<!DOCTYPE svg PUBLIC "-//W3C//DTD SVG 1.1//EN"
 "http://www.w3.org/Graphics/SVG/1.1/DTD/svg11.dtd">
<!-- Generated by graphviz version 2.49.3 (20211023.0002)
 -->
<!-- Title: csv_guess_questions_category Pages: 1 -->
<svg width="652pt" height="292pt"
 viewBox="72.00 72.00 580.00 220.00" xmlns="http://www.w3.org/2000/svg" xmlns:xlink="http://www.w3.org/1999/xlink">
<g id="graph0" class="graph" transform="scale(1 1) rotate(0) translate(76 216)">
<title>csv_guess_questions_category</title>
<polygon fill="white" stroke="transparent" points="-4,4 -4,-144 504,-144 504,4 -4,4"/>
<text text-anchor="start" x="8" y="-29" font-family="Monospace" font-size="10.00" fill="dimgray">Logtalk library</text>
<text text-anchor="start" x="8" y="-18" font-family="Monospace" font-size="10.00" fill="dimgray">Cross&#45;referencing diagram for category csv_guess_questions</text>
<text text-anchor="start" x="8" y="-7" font-family="Monospace" font-size="10.00" fill="dimgray">Generated on 2021&#45;12&#45;21, 09:07</text>
<g id="clust1" class="cluster">
<title>cluster_csv_guess_questions_category</title>
<g id="a_clust1"><a xlink:title="csv_guess_questions">
<path fill="snow" stroke="dimgray" d="M20,-49C20,-49 480,-49 480,-49 486,-49 492,-55 492,-61 492,-61 492,-120 492,-120 492,-126 486,-132 480,-132 480,-132 20,-132 20,-132 14,-132 8,-126 8,-120 8,-120 8,-61 8,-61 8,-55 14,-49 20,-49"/>
<g id="a_clust1_0"><a xlink:href="https://github.com/LogtalkDotOrg/logtalk3/tree/5837da673da53d0a7a3622175892fced37f216ff/library/csv/csv_guess_questions.lgt" xlink:title="https://github.com/LogtalkDotOrg/logtalk3/tree/5837da673da53d0a7a3622175892fced37f216ff/library/csv/csv_guess_questions.lgt">
<text text-anchor="start" x="20.5" y="-115.5" font-family="Monospace" font-size="10.00" fill="dimgray">csv_guess_questions</text>
</a>
</g>
</a>
</g>
</g>
<!-- logtalk::message_tokens//2 -->
<g id="node1" class="node">
<title>logtalk::message_tokens//2</title>
<g id="a_node1"><a xlink:href="https://github.com/LogtalkDotOrg/logtalk3/tree/5837da673da53d0a7a3622175892fced37f216ff/library/csv/csv_guess_questions.lgt#L36" xlink:title="https://github.com/LogtalkDotOrg/logtalk3/tree/5837da673da53d0a7a3622175892fced37f216ff/library/csv/csv_guess_questions.lgt#L36">
<polygon fill="skyblue" stroke="black" points="482,-95 282,-95 282,-59 482,-59 482,-95"/>
<text text-anchor="start" x="290" y="-79.8" font-family="Monospace" font-size="9.00"> </text>
<text text-anchor="start" x="296" y="-79.2" font-family="Monospace" font-size="11.00">logtalk::message_tokens//2</text>
<text text-anchor="start" x="468" y="-79.8" font-family="Monospace" font-size="9.00"> </text>
<text text-anchor="start" x="290" y="-68.8" font-family="Monospace" font-size="9.00"> </text>
<text text-anchor="start" x="363" y="-69.4" font-family="Monospace" font-size="7.00">multifile</text>
<text text-anchor="start" x="468" y="-68.8" font-family="Monospace" font-size="9.00"> </text>
</a>
</g>
</g>
<!-- logtalk::question_prompt_stream/4 -->
<g id="node2" class="node">
<title>logtalk::question_prompt_stream/4</title>
<g id="a_node2"><a xlink:href="https://github.com/LogtalkDotOrg/logtalk3/tree/5837da673da53d0a7a3622175892fced37f216ff/library/csv/csv_guess_questions.lgt#L52" xlink:title="https://github.com/LogtalkDotOrg/logtalk3/tree/5837da673da53d0a7a3622175892fced37f216ff/library/csv/csv_guess_questions.lgt#L52">
<polygon fill="skyblue" stroke="black" points="264,-95 18,-95 18,-59 264,-59 264,-95"/>
<text text-anchor="start" x="26" y="-79.8" font-family="Monospace" font-size="9.00"> </text>
<text text-anchor="start" x="32" y="-79.2" font-family="Monospace" font-size="11.00">logtalk::question_prompt_stream/4</text>
<text text-anchor="start" x="250" y="-79.8" font-family="Monospace" font-size="9.00"> </text>
<text text-anchor="start" x="26" y="-68.8" font-family="Monospace" font-size="9.00"> </text>
<text text-anchor="start" x="122" y="-69.4" font-family="Monospace" font-size="7.00">multifile</text>
<text text-anchor="start" x="250" y="-68.8" font-family="Monospace" font-size="9.00"> </text>
</a>
</g>
</g>
</g>
</svg>
