<?xml version="1.0" encoding="UTF-8" standalone="no"?>
<?xml-stylesheet href="diagrams.css" type="text/css"?>
<!DOCTYPE svg PUBLIC "-//W3C//DTD SVG 1.1//EN"
 "http://www.w3.org/Graphics/SVG/1.1/DTD/svg11.dtd">
<!-- Generated by graphviz version 11.0.0 (20240428.1522)
 -->
<!-- Title: csv_guess_questions_category Pages: 1 -->
<svg width="656pt" height="299pt"
 viewBox="72.00 72.00 584.00 227.00" xmlns="http://www.w3.org/2000/svg" xmlns:xlink="http://www.w3.org/1999/xlink">
<g id="graph0" class="graph" transform="scale(1 1) rotate(0) translate(76 223)">
<title>csv_guess_questions_category</title>
<polygon fill="white" stroke="none" points="-4,4 -4,-151 508,-151 508,4 -4,4"/>
<text text-anchor="start" x="8" y="-32.75" font-family="Monospace" font-size="10.00" fill="dimgray">Logtalk library</text>
<text text-anchor="start" x="8" y="-20" font-family="Monospace" font-size="10.00" fill="dimgray">Cross&#45;referencing diagram for category csv_guess_questions</text>
<text text-anchor="start" x="8" y="-7.25" font-family="Monospace" font-size="10.00" fill="dimgray">Generated on 2024&#45;06&#45;26, 22:09</text>
<g id="clust1" class="cluster">
<title>cluster_csv_guess_questions_category</title>
<g id="a_clust1"><a xlink:title="csv_guess_questions">
<path fill="snow" stroke="dimgray" d="M20,-54.25C20,-54.25 484,-54.25 484,-54.25 490,-54.25 496,-60.25 496,-66.25 496,-66.25 496,-127 496,-127 496,-133 490,-139 484,-139 484,-139 20,-139 20,-139 14,-139 8,-133 8,-127 8,-127 8,-66.25 8,-66.25 8,-60.25 14,-54.25 20,-54.25"/>
<g id="a_clust1_0"><a xlink:href="https://github.com/LogtalkDotOrg/logtalk3/tree/70f9ed0de180b59fc23f622259aa2220d538d852/library/csv/csv_guess_questions.lgt" xlink:title="https://github.com/LogtalkDotOrg/logtalk3/tree/70f9ed0de180b59fc23f622259aa2220d538d852/library/csv/csv_guess_questions.lgt">
<text text-anchor="start" x="20" y="-121.5" font-family="Monospace" font-size="10.00" fill="dimgray">csv_guess_questions</text>
</a>
</g>
</a>
</g>
</g>
<!-- logtalk::message_tokens//2 -->
<g id="node1" class="node">
<title>logtalk::message_tokens//2</title>
<g id="a_node1"><a xlink:href="https://github.com/LogtalkDotOrg/logtalk3/tree/70f9ed0de180b59fc23f622259aa2220d538d852/library/csv/csv_guess_questions.lgt#L36" xlink:title="https://github.com/LogtalkDotOrg/logtalk3/tree/70f9ed0de180b59fc23f622259aa2220d538d852/library/csv/csv_guess_questions.lgt#L36">
<polygon fill="skyblue" stroke="black" points="219.5,-100.25 18.5,-100.25 18.5,-64.25 219.5,-64.25 219.5,-100.25"/>
<text text-anchor="start" x="26.38" y="-84.83" font-family="Monospace" font-size="9.00"> </text>
<text text-anchor="start" x="31.25" y="-83.8" font-family="Monospace" font-size="11.00">logtalk::message_tokens//2</text>
<text text-anchor="start" x="206.38" y="-84.83" font-family="Monospace" font-size="9.00"> </text>
<text text-anchor="start" x="26.38" y="-72.7" font-family="Monospace" font-size="9.00"> </text>
<text text-anchor="start" x="98.75" y="-73.6" font-family="Monospace" font-size="7.00">multifile</text>
<text text-anchor="start" x="206.38" y="-72.7" font-family="Monospace" font-size="9.00"> </text>
</a>
</g>
</g>
<!-- logtalk::question_prompt_stream/4 -->
<g id="node2" class="node">
<title>logtalk::question_prompt_stream/4</title>
<g id="a_node2"><a xlink:href="https://github.com/LogtalkDotOrg/logtalk3/tree/70f9ed0de180b59fc23f622259aa2220d538d852/library/csv/csv_guess_questions.lgt#L52" xlink:title="https://github.com/LogtalkDotOrg/logtalk3/tree/70f9ed0de180b59fc23f622259aa2220d538d852/library/csv/csv_guess_questions.lgt#L52">
<polygon fill="skyblue" stroke="black" points="486,-100.25 238,-100.25 238,-64.25 486,-64.25 486,-100.25"/>
<text text-anchor="start" x="245.88" y="-84.83" font-family="Monospace" font-size="9.00"> </text>
<text text-anchor="start" x="250.62" y="-83.8" font-family="Monospace" font-size="11.00">logtalk::question_prompt_stream/4</text>
<text text-anchor="start" x="472.88" y="-84.83" font-family="Monospace" font-size="9.00"> </text>
<text text-anchor="start" x="245.88" y="-72.7" font-family="Monospace" font-size="9.00"> </text>
<text text-anchor="start" x="341.75" y="-73.6" font-family="Monospace" font-size="7.00">multifile</text>
<text text-anchor="start" x="472.88" y="-72.7" font-family="Monospace" font-size="9.00"> </text>
</a>
</g>
</g>
</g>
</svg>
