<?xml version="1.0" encoding="UTF-8" standalone="no"?>
<?xml-stylesheet href="diagrams.css" type="text/css"?>
<!DOCTYPE svg PUBLIC "-//W3C//DTD SVG 1.1//EN"
 "http://www.w3.org/Graphics/SVG/1.1/DTD/svg11.dtd">
<!-- Generated by graphviz version 9.0.0 (20230911.1827)
 -->
<!-- Title: csv_guess_questions_category Pages: 1 -->
<svg width="656pt" height="293pt"
 viewBox="72.00 72.00 584.00 221.00" xmlns="http://www.w3.org/2000/svg" xmlns:xlink="http://www.w3.org/1999/xlink">
<g id="graph0" class="graph" transform="scale(1 1) rotate(0) translate(76 217)">
<title>csv_guess_questions_category</title>
<polygon fill="white" stroke="none" points="-4,4 -4,-145 508,-145 508,4 -4,4"/>
<text text-anchor="start" x="8" y="-28.25" font-family="Monospace" font-size="10.00" fill="dimgray">Logtalk library</text>
<text text-anchor="start" x="8" y="-17" font-family="Monospace" font-size="10.00" fill="dimgray">Cross&#45;referencing diagram for category csv_guess_questions</text>
<text text-anchor="start" x="8" y="-5.75" font-family="Monospace" font-size="10.00" fill="dimgray">Generated on 2023&#45;12&#45;17, 01:42</text>
<g id="clust1" class="cluster">
<title>cluster_csv_guess_questions_category</title>
<g id="a_clust1"><a xlink:title="csv_guess_questions">
<path fill="snow" stroke="dimgray" d="M20,-49.75C20,-49.75 484,-49.75 484,-49.75 490,-49.75 496,-55.75 496,-61.75 496,-61.75 496,-121 496,-121 496,-127 490,-133 484,-133 484,-133 20,-133 20,-133 14,-133 8,-127 8,-121 8,-121 8,-61.75 8,-61.75 8,-55.75 14,-49.75 20,-49.75"/>
<g id="a_clust1_0"><a xlink:href="https://github.com/LogtalkDotOrg/logtalk3/tree/67d528664c76dde29eb28671ad32076559fadc44/library/csv/csv_guess_questions.lgt" xlink:title="https://github.com/LogtalkDotOrg/logtalk3/tree/67d528664c76dde29eb28671ad32076559fadc44/library/csv/csv_guess_questions.lgt">
<text text-anchor="start" x="20" y="-115.5" font-family="Monospace" font-size="10.00" fill="dimgray">csv_guess_questions</text>
</a>
</g>
</a>
</g>
</g>
<!-- logtalk::message_tokens//2 -->
<g id="node1" class="node">
<title>logtalk::message_tokens//2</title>
<g id="a_node1"><a xlink:href="https://github.com/LogtalkDotOrg/logtalk3/tree/67d528664c76dde29eb28671ad32076559fadc44/library/csv/csv_guess_questions.lgt#L36" xlink:title="https://github.com/LogtalkDotOrg/logtalk3/tree/67d528664c76dde29eb28671ad32076559fadc44/library/csv/csv_guess_questions.lgt#L36">
<polygon fill="skyblue" stroke="black" points="485.5,-95.75 284.5,-95.75 284.5,-59.75 485.5,-59.75 485.5,-95.75"/>
<text text-anchor="start" x="292.38" y="-78.58" font-family="Monospace" font-size="9.00"> </text>
<text text-anchor="start" x="297.25" y="-77.8" font-family="Monospace" font-size="11.00">logtalk::message_tokens//2</text>
<text text-anchor="start" x="472.38" y="-78.58" font-family="Monospace" font-size="9.00"> </text>
<text text-anchor="start" x="292.38" y="-67.7" font-family="Monospace" font-size="9.00"> </text>
<text text-anchor="start" x="364.75" y="-69.22" font-family="Monospace" font-size="7.00">multifile</text>
<text text-anchor="start" x="472.38" y="-67.7" font-family="Monospace" font-size="9.00"> </text>
</a>
</g>
</g>
<!-- logtalk::question_prompt_stream/4 -->
<g id="node2" class="node">
<title>logtalk::question_prompt_stream/4</title>
<g id="a_node2"><a xlink:href="https://github.com/LogtalkDotOrg/logtalk3/tree/67d528664c76dde29eb28671ad32076559fadc44/library/csv/csv_guess_questions.lgt#L52" xlink:title="https://github.com/LogtalkDotOrg/logtalk3/tree/67d528664c76dde29eb28671ad32076559fadc44/library/csv/csv_guess_questions.lgt#L52">
<polygon fill="skyblue" stroke="black" points="266,-95.75 18,-95.75 18,-59.75 266,-59.75 266,-95.75"/>
<text text-anchor="start" x="25.88" y="-78.58" font-family="Monospace" font-size="9.00"> </text>
<text text-anchor="start" x="30.62" y="-77.8" font-family="Monospace" font-size="11.00">logtalk::question_prompt_stream/4</text>
<text text-anchor="start" x="252.88" y="-78.58" font-family="Monospace" font-size="9.00"> </text>
<text text-anchor="start" x="25.88" y="-67.7" font-family="Monospace" font-size="9.00"> </text>
<text text-anchor="start" x="121.75" y="-69.22" font-family="Monospace" font-size="7.00">multifile</text>
<text text-anchor="start" x="252.88" y="-67.7" font-family="Monospace" font-size="9.00"> </text>
</a>
</g>
</g>
</g>
</svg>
