<?xml version="1.0" encoding="UTF-8" standalone="no"?>
<?xml-stylesheet href="diagrams.css" type="text/css"?>
<!DOCTYPE svg PUBLIC "-//W3C//DTD SVG 1.1//EN"
 "http://www.w3.org/Graphics/SVG/1.1/DTD/svg11.dtd">
<!-- Generated by graphviz version 12.2.1 (20241206.2353)
 -->
<!-- Title: csv_guess_questions_category Pages: 1 -->
<svg width="658pt" height="299pt"
 viewBox="72.00 72.00 586.00 227.00" xmlns="http://www.w3.org/2000/svg" xmlns:xlink="http://www.w3.org/1999/xlink">
<g id="graph0" class="graph" transform="scale(1 1) rotate(0) translate(76 223)">
<title>csv_guess_questions_category</title>
<polygon fill="white" stroke="none" points="-4,4 -4,-151 510,-151 510,4 -4,4"/>
<text text-anchor="start" x="8" y="-32.75" font-family="Monospace" font-size="10.00" fill="dimgray">Logtalk library</text>
<text text-anchor="start" x="8" y="-20" font-family="Monospace" font-size="10.00" fill="dimgray">Cross&#45;referencing diagram for category csv_guess_questions</text>
<text text-anchor="start" x="8" y="-7.25" font-family="Monospace" font-size="10.00" fill="dimgray">Generated on 2025&#45;02&#45;24, 19:44</text>
<g id="clust1" class="cluster">
<title>cluster_csv_guess_questions_category</title>
<g id="a_clust1"><a xlink:title="csv_guess_questions">
<path fill="snow" stroke="dimgray" d="M20,-54.25C20,-54.25 486,-54.25 486,-54.25 492,-54.25 498,-60.25 498,-66.25 498,-66.25 498,-127 498,-127 498,-133 492,-139 486,-139 486,-139 20,-139 20,-139 14,-139 8,-133 8,-127 8,-127 8,-66.25 8,-66.25 8,-60.25 14,-54.25 20,-54.25"/>
<g id="a_clust1_0"><a xlink:href="https://github.com/LogtalkDotOrg/logtalk3/tree/7e3c17974b118b3a6e37d37c1b739d5cbc5e165f/library/csv/csv_guess_questions.lgt" xlink:title="https://github.com/LogtalkDotOrg/logtalk3/tree/7e3c17974b118b3a6e37d37c1b739d5cbc5e165f/library/csv/csv_guess_questions.lgt">
<text text-anchor="start" x="20" y="-121.5" font-family="Monospace" font-size="10.00" fill="dimgray">csv_guess_questions</text>
</a>
</g>
</a>
</g>
</g>
<!-- logtalk::message_tokens//2 -->
<g id="node1" class="node">
<title>logtalk::message_tokens//2</title>
<g id="a_node1"><a xlink:href="https://github.com/LogtalkDotOrg/logtalk3/tree/7e3c17974b118b3a6e37d37c1b739d5cbc5e165f/library/csv/csv_guess_questions.lgt#L36" xlink:title="https://github.com/LogtalkDotOrg/logtalk3/tree/7e3c17974b118b3a6e37d37c1b739d5cbc5e165f/library/csv/csv_guess_questions.lgt#L36">
<polygon fill="skyblue" stroke="black" points="220,-100.25 18,-100.25 18,-64.25 220,-64.25 220,-100.25"/>
<text text-anchor="start" x="26" y="-84.95" font-family="Monospace" font-size="9.00"> </text>
<text text-anchor="start" x="31.25" y="-84.17" font-family="Monospace" font-size="11.00">logtalk::message_tokens//2</text>
<text text-anchor="start" x="206.75" y="-84.95" font-family="Monospace" font-size="9.00"> </text>
<text text-anchor="start" x="26" y="-72.58" font-family="Monospace" font-size="9.00"> </text>
<text text-anchor="start" x="98.75" y="-73.35" font-family="Monospace" font-size="7.00">multifile</text>
<text text-anchor="start" x="206.75" y="-72.58" font-family="Monospace" font-size="9.00"> </text>
</a>
</g>
</g>
<!-- logtalk::question_prompt_stream/4 -->
<g id="node2" class="node">
<title>logtalk::question_prompt_stream/4</title>
<g id="a_node2"><a xlink:href="https://github.com/LogtalkDotOrg/logtalk3/tree/7e3c17974b118b3a6e37d37c1b739d5cbc5e165f/library/csv/csv_guess_questions.lgt#L52" xlink:title="https://github.com/LogtalkDotOrg/logtalk3/tree/7e3c17974b118b3a6e37d37c1b739d5cbc5e165f/library/csv/csv_guess_questions.lgt#L52">
<polygon fill="skyblue" stroke="black" points="487.62,-100.25 238.38,-100.25 238.38,-64.25 487.62,-64.25 487.62,-100.25"/>
<text text-anchor="start" x="246.38" y="-84.95" font-family="Monospace" font-size="9.00"> </text>
<text text-anchor="start" x="251.62" y="-84.17" font-family="Monospace" font-size="11.00">logtalk::question_prompt_stream/4</text>
<text text-anchor="start" x="474.38" y="-84.95" font-family="Monospace" font-size="9.00"> </text>
<text text-anchor="start" x="246.38" y="-72.58" font-family="Monospace" font-size="9.00"> </text>
<text text-anchor="start" x="342.75" y="-73.35" font-family="Monospace" font-size="7.00">multifile</text>
<text text-anchor="start" x="474.38" y="-72.58" font-family="Monospace" font-size="9.00"> </text>
</a>
</g>
</g>
</g>
</svg>
