<?xml version="1.0" encoding="UTF-8" standalone="no"?>
<?xml-stylesheet href="diagrams.css" type="text/css"?>
<!DOCTYPE svg PUBLIC "-//W3C//DTD SVG 1.1//EN"
 "http://www.w3.org/Graphics/SVG/1.1/DTD/svg11.dtd">
<!-- Generated by graphviz version 2.49.3 (20211023.0002)
 -->
<!-- Title: csv_guess_questions_category Pages: 1 -->
<svg width="584pt" height="292pt"
 viewBox="72.00 72.00 512.00 220.00" xmlns="http://www.w3.org/2000/svg" xmlns:xlink="http://www.w3.org/1999/xlink">
<g id="graph0" class="graph" transform="scale(1 1) rotate(0) translate(76 216)">
<title>csv_guess_questions_category</title>
<polygon fill="white" stroke="transparent" points="-4,4 -4,-144 436,-144 436,4 -4,4"/>
<text text-anchor="start" x="8" y="-29" font-family="Courier,monospace" font-size="10.00" fill="dimgray">Logtalk library</text>
<text text-anchor="start" x="8" y="-18" font-family="Courier,monospace" font-size="10.00" fill="dimgray">Cross&#45;referencing diagram for category csv_guess_questions</text>
<text text-anchor="start" x="8" y="-7" font-family="Courier,monospace" font-size="10.00" fill="dimgray">Generated on 2021&#45;11&#45;17, 12:11</text>
<g id="clust1" class="cluster">
<title>cluster_csv_guess_questions_category</title>
<g id="a_clust1"><a xlink:title="csv_guess_questions">
<path fill="snow" stroke="dimgray" d="M20,-49C20,-49 412,-49 412,-49 418,-49 424,-55 424,-61 424,-61 424,-120 424,-120 424,-126 418,-132 412,-132 412,-132 20,-132 20,-132 14,-132 8,-126 8,-120 8,-120 8,-61 8,-61 8,-55 14,-49 20,-49"/>
<g id="a_clust1_0"><a xlink:href="https://github.com/LogtalkDotOrg/logtalk3/tree/071a8ea54f71195e9aec1568b51726f3a39ac6b5/library/csv/csv_guess_questions.lgt" xlink:title="https://github.com/LogtalkDotOrg/logtalk3/tree/071a8ea54f71195e9aec1568b51726f3a39ac6b5/library/csv/csv_guess_questions.lgt">
<text text-anchor="start" x="20.5" y="-115.5" font-family="Courier,monospace" font-size="10.00" fill="dimgray">csv_guess_questions</text>
</a>
</g>
</a>
</g>
</g>
<!-- logtalk::message_tokens//2 -->
<g id="node1" class="node">
<title>logtalk::message_tokens//2</title>
<g id="a_node1"><a xlink:href="https://github.com/LogtalkDotOrg/logtalk3/tree/071a8ea54f71195e9aec1568b51726f3a39ac6b5/library/csv/csv_guess_questions.lgt#L36" xlink:title="https://github.com/LogtalkDotOrg/logtalk3/tree/071a8ea54f71195e9aec1568b51726f3a39ac6b5/library/csv/csv_guess_questions.lgt#L36">
<polygon fill="skyblue" stroke="black" points="413.5,-95 244.5,-95 244.5,-59 413.5,-59 413.5,-95"/>
<text text-anchor="start" x="253" y="-79.8" font-family="Courier,monospace" font-size="9.00"> </text>
<text text-anchor="start" x="258" y="-79.2" font-family="Courier,monospace" font-size="11.00">logtalk::message_tokens//2</text>
<text text-anchor="start" x="401" y="-79.8" font-family="Courier,monospace" font-size="9.00"> </text>
<text text-anchor="start" x="253" y="-68.8" font-family="Courier,monospace" font-size="9.00"> </text>
<text text-anchor="start" x="313.5" y="-69.4" font-family="Courier,monospace" font-size="7.00">multifile</text>
<text text-anchor="start" x="401" y="-68.8" font-family="Courier,monospace" font-size="9.00"> </text>
</a>
</g>
</g>
<!-- logtalk::question_prompt_stream/4 -->
<g id="node2" class="node">
<title>logtalk::question_prompt_stream/4</title>
<g id="a_node2"><a xlink:href="https://github.com/LogtalkDotOrg/logtalk3/tree/071a8ea54f71195e9aec1568b51726f3a39ac6b5/library/csv/csv_guess_questions.lgt#L52" xlink:title="https://github.com/LogtalkDotOrg/logtalk3/tree/071a8ea54f71195e9aec1568b51726f3a39ac6b5/library/csv/csv_guess_questions.lgt#L52">
<polygon fill="skyblue" stroke="black" points="226,-95 18,-95 18,-59 226,-59 226,-95"/>
<text text-anchor="start" x="26" y="-79.8" font-family="Courier,monospace" font-size="9.00"> </text>
<text text-anchor="start" x="31" y="-79.2" font-family="Courier,monospace" font-size="11.00">logtalk::question_prompt_stream/4</text>
<text text-anchor="start" x="213" y="-79.8" font-family="Courier,monospace" font-size="9.00"> </text>
<text text-anchor="start" x="26" y="-68.8" font-family="Courier,monospace" font-size="9.00"> </text>
<text text-anchor="start" x="106" y="-69.4" font-family="Courier,monospace" font-size="7.00">multifile</text>
<text text-anchor="start" x="213" y="-68.8" font-family="Courier,monospace" font-size="9.00"> </text>
</a>
</g>
</g>
</g>
</svg>
