<?xml version="1.0" encoding="UTF-8" standalone="no"?>
<?xml-stylesheet href="diagrams.css" type="text/css"?>
<!DOCTYPE svg PUBLIC "-//W3C//DTD SVG 1.1//EN"
 "http://www.w3.org/Graphics/SVG/1.1/DTD/svg11.dtd">
<!-- Generated by graphviz version 12.2.1 (20241206.2353)
 -->
<!-- Title: databasep_protocol Pages: 1 -->
<svg width="551pt" height="299pt"
 viewBox="72.00 72.00 479.00 227.00" xmlns="http://www.w3.org/2000/svg" xmlns:xlink="http://www.w3.org/1999/xlink">
<g id="graph0" class="graph" transform="scale(1 1) rotate(0) translate(76 223)">
<title>databasep_protocol</title>
<polygon fill="white" stroke="none" points="-4,4 -4,-151 403,-151 403,4 -4,4"/>
<text text-anchor="start" x="8" y="-32.75" font-family="Monospace" font-size="10.00" fill="dimgray">Logtalk third&#45;party contributions</text>
<text text-anchor="start" x="8" y="-20" font-family="Monospace" font-size="10.00" fill="dimgray">Cross&#45;referencing diagram for protocol databasep</text>
<text text-anchor="start" x="8" y="-7.25" font-family="Monospace" font-size="10.00" fill="dimgray">Generated on 2025&#45;02&#45;25, 11:39</text>
<g id="clust1" class="cluster">
<title>cluster_databasep_protocol</title>
<g id="a_clust1"><a xlink:title="databasep">
<path fill="snow" stroke="dimgray" d="M20,-54.25C20,-54.25 379,-54.25 379,-54.25 385,-54.25 391,-60.25 391,-66.25 391,-66.25 391,-127 391,-127 391,-133 385,-139 379,-139 379,-139 20,-139 20,-139 14,-139 8,-133 8,-127 8,-127 8,-66.25 8,-66.25 8,-60.25 14,-54.25 20,-54.25"/>
<g id="a_clust1_0"><a xlink:href="https://github.com/LogtalkDotOrg/logtalk3/tree/5cf399b71ce3356335a376fada9386c4fd21419e/contributions/verdi_neruda/databasep.lgt" xlink:title="https://github.com/LogtalkDotOrg/logtalk3/tree/5cf399b71ce3356335a376fada9386c4fd21419e/contributions/verdi_neruda/databasep.lgt">
<text text-anchor="start" x="20" y="-121.5" font-family="Monospace" font-size="10.00" fill="dimgray">databasep</text>
</a>
</g>
</a>
</g>
</g>
<!-- rule/4 -->
<g id="node1" class="node">
<title>rule/4</title>
<g id="a_node1"><a xlink:href="https://github.com/LogtalkDotOrg/logtalk3/tree/5cf399b71ce3356335a376fada9386c4fd21419e/contributions/verdi_neruda/databasep.lgt#L44" xlink:title="https://github.com/LogtalkDotOrg/logtalk3/tree/5cf399b71ce3356335a376fada9386c4fd21419e/contributions/verdi_neruda/databasep.lgt#L44">
<polygon fill="springgreen" stroke="black" points="85.5,-100.25 18.5,-100.25 18.5,-64.25 85.5,-64.25 85.5,-100.25"/>
<text text-anchor="start" x="26.5" y="-84.95" font-family="Monospace" font-size="9.00"> </text>
<text text-anchor="start" x="31.75" y="-84.17" font-family="Monospace" font-size="11.00">rule/4</text>
<text text-anchor="start" x="72.25" y="-84.95" font-family="Monospace" font-size="9.00"> </text>
<text text-anchor="start" x="26.5" y="-72.58" font-family="Monospace" font-size="9.00"> </text>
<text text-anchor="start" x="38.5" y="-73.35" font-family="Monospace" font-size="7.00">public</text>
<text text-anchor="start" x="72.25" y="-72.58" font-family="Monospace" font-size="9.00"> </text>
</a>
</g>
</g>
<!-- rule/3 -->
<g id="node2" class="node">
<title>rule/3</title>
<g id="a_node2"><a xlink:href="https://github.com/LogtalkDotOrg/logtalk3/tree/5cf399b71ce3356335a376fada9386c4fd21419e/contributions/verdi_neruda/databasep.lgt#L51" xlink:title="https://github.com/LogtalkDotOrg/logtalk3/tree/5cf399b71ce3356335a376fada9386c4fd21419e/contributions/verdi_neruda/databasep.lgt#L51">
<polygon fill="springgreen" stroke="black" points="170.5,-100.25 103.5,-100.25 103.5,-64.25 170.5,-64.25 170.5,-100.25"/>
<text text-anchor="start" x="111.5" y="-84.95" font-family="Monospace" font-size="9.00"> </text>
<text text-anchor="start" x="116.75" y="-84.17" font-family="Monospace" font-size="11.00">rule/3</text>
<text text-anchor="start" x="157.25" y="-84.95" font-family="Monospace" font-size="9.00"> </text>
<text text-anchor="start" x="111.5" y="-72.58" font-family="Monospace" font-size="9.00"> </text>
<text text-anchor="start" x="123.5" y="-73.35" font-family="Monospace" font-size="7.00">public</text>
<text text-anchor="start" x="157.25" y="-72.58" font-family="Monospace" font-size="9.00"> </text>
</a>
</g>
</g>
<!-- rule/2 -->
<g id="node3" class="node">
<title>rule/2</title>
<g id="a_node3"><a xlink:href="https://github.com/LogtalkDotOrg/logtalk3/tree/5cf399b71ce3356335a376fada9386c4fd21419e/contributions/verdi_neruda/databasep.lgt#L58" xlink:title="https://github.com/LogtalkDotOrg/logtalk3/tree/5cf399b71ce3356335a376fada9386c4fd21419e/contributions/verdi_neruda/databasep.lgt#L58">
<polygon fill="springgreen" stroke="black" points="255.5,-100.25 188.5,-100.25 188.5,-64.25 255.5,-64.25 255.5,-100.25"/>
<text text-anchor="start" x="196.5" y="-84.95" font-family="Monospace" font-size="9.00"> </text>
<text text-anchor="start" x="201.75" y="-84.17" font-family="Monospace" font-size="11.00">rule/2</text>
<text text-anchor="start" x="242.25" y="-84.95" font-family="Monospace" font-size="9.00"> </text>
<text text-anchor="start" x="196.5" y="-72.58" font-family="Monospace" font-size="9.00"> </text>
<text text-anchor="start" x="208.5" y="-73.35" font-family="Monospace" font-size="7.00">public</text>
<text text-anchor="start" x="242.25" y="-72.58" font-family="Monospace" font-size="9.00"> </text>
</a>
</g>
</g>
<!-- bench_goal/1 -->
<g id="node4" class="node">
<title>bench_goal/1</title>
<g id="a_node4"><a xlink:href="https://github.com/LogtalkDotOrg/logtalk3/tree/5cf399b71ce3356335a376fada9386c4fd21419e/contributions/verdi_neruda/databasep.lgt#L65" xlink:title="https://github.com/LogtalkDotOrg/logtalk3/tree/5cf399b71ce3356335a376fada9386c4fd21419e/contributions/verdi_neruda/databasep.lgt#L65">
<polygon fill="springgreen" stroke="black" points="380.75,-100.25 273.25,-100.25 273.25,-64.25 380.75,-64.25 380.75,-100.25"/>
<text text-anchor="start" x="281.25" y="-84.95" font-family="Monospace" font-size="9.00"> </text>
<text text-anchor="start" x="286.5" y="-84.17" font-family="Monospace" font-size="11.00">bench_goal/1</text>
<text text-anchor="start" x="367.5" y="-84.95" font-family="Monospace" font-size="9.00"> </text>
<text text-anchor="start" x="281.25" y="-72.58" font-family="Monospace" font-size="9.00"> </text>
<text text-anchor="start" x="313.5" y="-73.35" font-family="Monospace" font-size="7.00">public</text>
<text text-anchor="start" x="367.5" y="-72.58" font-family="Monospace" font-size="9.00"> </text>
</a>
</g>
</g>
</g>
</svg>
