<?xml version="1.0" encoding="UTF-8" standalone="no"?>
<?xml-stylesheet href="diagrams.css" type="text/css"?>
<!DOCTYPE svg PUBLIC "-//W3C//DTD SVG 1.1//EN"
 "http://www.w3.org/Graphics/SVG/1.1/DTD/svg11.dtd">
<!-- Generated by graphviz version 9.0.0 (20230911.1827)
 -->
<!-- Title: databasep_protocol Pages: 1 -->
<svg width="548pt" height="293pt"
 viewBox="72.00 72.00 476.00 221.00" xmlns="http://www.w3.org/2000/svg" xmlns:xlink="http://www.w3.org/1999/xlink">
<g id="graph0" class="graph" transform="scale(1 1) rotate(0) translate(76 217)">
<title>databasep_protocol</title>
<polygon fill="white" stroke="none" points="-4,4 -4,-145 400,-145 400,4 -4,4"/>
<text text-anchor="start" x="8" y="-28.25" font-family="Monospace" font-size="10.00" fill="dimgray">Logtalk third&#45;party contributions</text>
<text text-anchor="start" x="8" y="-17" font-family="Monospace" font-size="10.00" fill="dimgray">Cross&#45;referencing diagram for protocol databasep</text>
<text text-anchor="start" x="8" y="-5.75" font-family="Monospace" font-size="10.00" fill="dimgray">Generated on 2023&#45;10&#45;17, 23:46</text>
<g id="clust1" class="cluster">
<title>cluster_databasep_protocol</title>
<g id="a_clust1"><a xlink:title="databasep">
<path fill="snow" stroke="dimgray" d="M20,-49.75C20,-49.75 376,-49.75 376,-49.75 382,-49.75 388,-55.75 388,-61.75 388,-61.75 388,-121 388,-121 388,-127 382,-133 376,-133 376,-133 20,-133 20,-133 14,-133 8,-127 8,-121 8,-121 8,-61.75 8,-61.75 8,-55.75 14,-49.75 20,-49.75"/>
<g id="a_clust1_0"><a xlink:href="https://github.com/LogtalkDotOrg/logtalk3/tree/7f5325999c722bbf37fb3796b697e223974435bc/contributions/verdi_neruda/databasep.lgt" xlink:title="https://github.com/LogtalkDotOrg/logtalk3/tree/7f5325999c722bbf37fb3796b697e223974435bc/contributions/verdi_neruda/databasep.lgt">
<text text-anchor="start" x="20" y="-115.5" font-family="Monospace" font-size="10.00" fill="dimgray">databasep</text>
</a>
</g>
</a>
</g>
</g>
<!-- rule/4 -->
<g id="node1" class="node">
<title>rule/4</title>
<g id="a_node1"><a xlink:href="https://github.com/LogtalkDotOrg/logtalk3/tree/7f5325999c722bbf37fb3796b697e223974435bc/contributions/verdi_neruda/databasep.lgt#L44" xlink:title="https://github.com/LogtalkDotOrg/logtalk3/tree/7f5325999c722bbf37fb3796b697e223974435bc/contributions/verdi_neruda/databasep.lgt#L44">
<polygon fill="springgreen" stroke="black" points="378,-95.75 312,-95.75 312,-59.75 378,-59.75 378,-95.75"/>
<text text-anchor="start" x="319.88" y="-78.58" font-family="Monospace" font-size="9.00"> </text>
<text text-anchor="start" x="324.75" y="-77.8" font-family="Monospace" font-size="11.00">rule/4</text>
<text text-anchor="start" x="364.88" y="-78.58" font-family="Monospace" font-size="9.00"> </text>
<text text-anchor="start" x="319.88" y="-67.7" font-family="Monospace" font-size="9.00"> </text>
<text text-anchor="start" x="331.5" y="-69.22" font-family="Monospace" font-size="7.00">public</text>
<text text-anchor="start" x="364.88" y="-67.7" font-family="Monospace" font-size="9.00"> </text>
</a>
</g>
</g>
<!-- rule/3 -->
<g id="node2" class="node">
<title>rule/3</title>
<g id="a_node2"><a xlink:href="https://github.com/LogtalkDotOrg/logtalk3/tree/7f5325999c722bbf37fb3796b697e223974435bc/contributions/verdi_neruda/databasep.lgt#L51" xlink:title="https://github.com/LogtalkDotOrg/logtalk3/tree/7f5325999c722bbf37fb3796b697e223974435bc/contributions/verdi_neruda/databasep.lgt#L51">
<polygon fill="springgreen" stroke="black" points="294,-95.75 228,-95.75 228,-59.75 294,-59.75 294,-95.75"/>
<text text-anchor="start" x="235.88" y="-78.58" font-family="Monospace" font-size="9.00"> </text>
<text text-anchor="start" x="240.75" y="-77.8" font-family="Monospace" font-size="11.00">rule/3</text>
<text text-anchor="start" x="280.88" y="-78.58" font-family="Monospace" font-size="9.00"> </text>
<text text-anchor="start" x="235.88" y="-67.7" font-family="Monospace" font-size="9.00"> </text>
<text text-anchor="start" x="247.5" y="-69.22" font-family="Monospace" font-size="7.00">public</text>
<text text-anchor="start" x="280.88" y="-67.7" font-family="Monospace" font-size="9.00"> </text>
</a>
</g>
</g>
<!-- rule/2 -->
<g id="node3" class="node">
<title>rule/2</title>
<g id="a_node3"><a xlink:href="https://github.com/LogtalkDotOrg/logtalk3/tree/7f5325999c722bbf37fb3796b697e223974435bc/contributions/verdi_neruda/databasep.lgt#L58" xlink:title="https://github.com/LogtalkDotOrg/logtalk3/tree/7f5325999c722bbf37fb3796b697e223974435bc/contributions/verdi_neruda/databasep.lgt#L58">
<polygon fill="springgreen" stroke="black" points="210,-95.75 144,-95.75 144,-59.75 210,-59.75 210,-95.75"/>
<text text-anchor="start" x="151.88" y="-78.58" font-family="Monospace" font-size="9.00"> </text>
<text text-anchor="start" x="156.75" y="-77.8" font-family="Monospace" font-size="11.00">rule/2</text>
<text text-anchor="start" x="196.88" y="-78.58" font-family="Monospace" font-size="9.00"> </text>
<text text-anchor="start" x="151.88" y="-67.7" font-family="Monospace" font-size="9.00"> </text>
<text text-anchor="start" x="163.5" y="-69.22" font-family="Monospace" font-size="7.00">public</text>
<text text-anchor="start" x="196.88" y="-67.7" font-family="Monospace" font-size="9.00"> </text>
</a>
</g>
</g>
<!-- bench_goal/1 -->
<g id="node4" class="node">
<title>bench_goal/1</title>
<g id="a_node4"><a xlink:href="https://github.com/LogtalkDotOrg/logtalk3/tree/7f5325999c722bbf37fb3796b697e223974435bc/contributions/verdi_neruda/databasep.lgt#L65" xlink:title="https://github.com/LogtalkDotOrg/logtalk3/tree/7f5325999c722bbf37fb3796b697e223974435bc/contributions/verdi_neruda/databasep.lgt#L65">
<polygon fill="springgreen" stroke="black" points="125.5,-95.75 18.5,-95.75 18.5,-59.75 125.5,-59.75 125.5,-95.75"/>
<text text-anchor="start" x="26.38" y="-78.58" font-family="Monospace" font-size="9.00"> </text>
<text text-anchor="start" x="31.5" y="-77.8" font-family="Monospace" font-size="11.00">bench_goal/1</text>
<text text-anchor="start" x="112.38" y="-78.58" font-family="Monospace" font-size="9.00"> </text>
<text text-anchor="start" x="26.38" y="-67.7" font-family="Monospace" font-size="9.00"> </text>
<text text-anchor="start" x="58.5" y="-69.22" font-family="Monospace" font-size="7.00">public</text>
<text text-anchor="start" x="112.38" y="-67.7" font-family="Monospace" font-size="9.00"> </text>
</a>
</g>
</g>
</g>
</svg>
