<?xml version="1.0" encoding="UTF-8" standalone="no"?>
<?xml-stylesheet href="diagrams.css" type="text/css"?>
<!DOCTYPE svg PUBLIC "-//W3C//DTD SVG 1.1//EN"
 "http://www.w3.org/Graphics/SVG/1.1/DTD/svg11.dtd">
<!-- Generated by graphviz version 2.49.3 (20211023.0002)
 -->
<!-- Title: databasep_protocol Pages: 1 -->
<svg width="554pt" height="292pt"
 viewBox="72.00 72.00 482.00 220.00" xmlns="http://www.w3.org/2000/svg" xmlns:xlink="http://www.w3.org/1999/xlink">
<g id="graph0" class="graph" transform="scale(1 1) rotate(0) translate(76 216)">
<title>databasep_protocol</title>
<polygon fill="white" stroke="transparent" points="-4,4 -4,-144 406,-144 406,4 -4,4"/>
<text text-anchor="start" x="8" y="-29" font-family="Monospace" font-size="10.00" fill="dimgray">Logtalk third&#45;party contributions</text>
<text text-anchor="start" x="8" y="-18" font-family="Monospace" font-size="10.00" fill="dimgray">Cross&#45;referencing diagram for protocol databasep</text>
<text text-anchor="start" x="8" y="-7" font-family="Monospace" font-size="10.00" fill="dimgray">Generated on 2021&#45;12&#45;02, 10:35</text>
<g id="clust1" class="cluster">
<title>cluster_databasep_protocol</title>
<g id="a_clust1"><a xlink:title="databasep">
<path fill="snow" stroke="dimgray" d="M20,-49C20,-49 382,-49 382,-49 388,-49 394,-55 394,-61 394,-61 394,-120 394,-120 394,-126 388,-132 382,-132 382,-132 20,-132 20,-132 14,-132 8,-126 8,-120 8,-120 8,-61 8,-61 8,-55 14,-49 20,-49"/>
<g id="a_clust1_0"><a xlink:href="https://github.com/LogtalkDotOrg/logtalk3/tree/2075777df771d94dc9e997b55ffd69222c99eb1d/contributions/verdi_neruda/databasep.lgt" xlink:title="https://github.com/LogtalkDotOrg/logtalk3/tree/2075777df771d94dc9e997b55ffd69222c99eb1d/contributions/verdi_neruda/databasep.lgt">
<text text-anchor="start" x="20.5" y="-115.5" font-family="Monospace" font-size="10.00" fill="dimgray">databasep</text>
</a>
</g>
</a>
</g>
</g>
<!-- rule/4 -->
<g id="node1" class="node">
<title>rule/4</title>
<g id="a_node1"><a xlink:href="https://github.com/LogtalkDotOrg/logtalk3/tree/2075777df771d94dc9e997b55ffd69222c99eb1d/contributions/verdi_neruda/databasep.lgt#L44" xlink:title="https://github.com/LogtalkDotOrg/logtalk3/tree/2075777df771d94dc9e997b55ffd69222c99eb1d/contributions/verdi_neruda/databasep.lgt#L44">
<polygon fill="springgreen" stroke="black" points="384,-95 316,-95 316,-59 384,-59 384,-95"/>
<text text-anchor="start" x="324" y="-79.8" font-family="Monospace" font-size="9.00"> </text>
<text text-anchor="start" x="330" y="-79.2" font-family="Monospace" font-size="11.00">rule/4</text>
<text text-anchor="start" x="370" y="-79.8" font-family="Monospace" font-size="9.00"> </text>
<text text-anchor="start" x="324" y="-68.8" font-family="Monospace" font-size="9.00"> </text>
<text text-anchor="start" x="337" y="-69.4" font-family="Monospace" font-size="7.00">public</text>
<text text-anchor="start" x="370" y="-68.8" font-family="Monospace" font-size="9.00"> </text>
</a>
</g>
</g>
<!-- rule/3 -->
<g id="node2" class="node">
<title>rule/3</title>
<g id="a_node2"><a xlink:href="https://github.com/LogtalkDotOrg/logtalk3/tree/2075777df771d94dc9e997b55ffd69222c99eb1d/contributions/verdi_neruda/databasep.lgt#L51" xlink:title="https://github.com/LogtalkDotOrg/logtalk3/tree/2075777df771d94dc9e997b55ffd69222c99eb1d/contributions/verdi_neruda/databasep.lgt#L51">
<polygon fill="springgreen" stroke="black" points="298,-95 230,-95 230,-59 298,-59 298,-95"/>
<text text-anchor="start" x="238" y="-79.8" font-family="Monospace" font-size="9.00"> </text>
<text text-anchor="start" x="244" y="-79.2" font-family="Monospace" font-size="11.00">rule/3</text>
<text text-anchor="start" x="284" y="-79.8" font-family="Monospace" font-size="9.00"> </text>
<text text-anchor="start" x="238" y="-68.8" font-family="Monospace" font-size="9.00"> </text>
<text text-anchor="start" x="251" y="-69.4" font-family="Monospace" font-size="7.00">public</text>
<text text-anchor="start" x="284" y="-68.8" font-family="Monospace" font-size="9.00"> </text>
</a>
</g>
</g>
<!-- rule/2 -->
<g id="node3" class="node">
<title>rule/2</title>
<g id="a_node3"><a xlink:href="https://github.com/LogtalkDotOrg/logtalk3/tree/2075777df771d94dc9e997b55ffd69222c99eb1d/contributions/verdi_neruda/databasep.lgt#L58" xlink:title="https://github.com/LogtalkDotOrg/logtalk3/tree/2075777df771d94dc9e997b55ffd69222c99eb1d/contributions/verdi_neruda/databasep.lgt#L58">
<polygon fill="springgreen" stroke="black" points="212,-95 144,-95 144,-59 212,-59 212,-95"/>
<text text-anchor="start" x="152" y="-79.8" font-family="Monospace" font-size="9.00"> </text>
<text text-anchor="start" x="158" y="-79.2" font-family="Monospace" font-size="11.00">rule/2</text>
<text text-anchor="start" x="198" y="-79.8" font-family="Monospace" font-size="9.00"> </text>
<text text-anchor="start" x="152" y="-68.8" font-family="Monospace" font-size="9.00"> </text>
<text text-anchor="start" x="165" y="-69.4" font-family="Monospace" font-size="7.00">public</text>
<text text-anchor="start" x="198" y="-68.8" font-family="Monospace" font-size="9.00"> </text>
</a>
</g>
</g>
<!-- bench_goal/1 -->
<g id="node4" class="node">
<title>bench_goal/1</title>
<g id="a_node4"><a xlink:href="https://github.com/LogtalkDotOrg/logtalk3/tree/2075777df771d94dc9e997b55ffd69222c99eb1d/contributions/verdi_neruda/databasep.lgt#L65" xlink:title="https://github.com/LogtalkDotOrg/logtalk3/tree/2075777df771d94dc9e997b55ffd69222c99eb1d/contributions/verdi_neruda/databasep.lgt#L65">
<polygon fill="springgreen" stroke="black" points="126,-95 18,-95 18,-59 126,-59 126,-95"/>
<text text-anchor="start" x="26" y="-79.8" font-family="Monospace" font-size="9.00"> </text>
<text text-anchor="start" x="32" y="-79.2" font-family="Monospace" font-size="11.00">bench_goal/1</text>
<text text-anchor="start" x="112" y="-79.8" font-family="Monospace" font-size="9.00"> </text>
<text text-anchor="start" x="26" y="-68.8" font-family="Monospace" font-size="9.00"> </text>
<text text-anchor="start" x="59" y="-69.4" font-family="Monospace" font-size="7.00">public</text>
<text text-anchor="start" x="112" y="-68.8" font-family="Monospace" font-size="9.00"> </text>
</a>
</g>
</g>
</g>
</svg>
