<?xml version="1.0" encoding="UTF-8" standalone="no"?>
<?xml-stylesheet href="diagrams.css" type="text/css"?>
<!DOCTYPE svg PUBLIC "-//W3C//DTD SVG 1.1//EN"
 "http://www.w3.org/Graphics/SVG/1.1/DTD/svg11.dtd">
<!-- Generated by graphviz version 2.50.0 (20211204.2007)
 -->
<!-- Title: datep_protocol Pages: 1 -->
<svg width="910pt" height="292pt"
 viewBox="72.00 72.00 838.00 220.00" xmlns="http://www.w3.org/2000/svg" xmlns:xlink="http://www.w3.org/1999/xlink">
<g id="graph0" class="graph" transform="scale(1 1) rotate(0) translate(76 216)">
<title>datep_protocol</title>
<polygon fill="white" stroke="transparent" points="-4,4 -4,-144 762,-144 762,4 -4,4"/>
<text text-anchor="start" x="8" y="-29" font-family="Monospace" font-size="10.00" fill="dimgray">Logtalk library</text>
<text text-anchor="start" x="8" y="-18" font-family="Monospace" font-size="10.00" fill="dimgray">Cross&#45;referencing diagram for protocol datep</text>
<text text-anchor="start" x="8" y="-7" font-family="Monospace" font-size="10.00" fill="dimgray">Generated on 2022&#45;03&#45;10, 11:35</text>
<g id="clust1" class="cluster">
<title>cluster_datep_protocol</title>
<g id="a_clust1"><a xlink:title="datep">
<path fill="snow" stroke="dimgray" d="M20,-49C20,-49 738,-49 738,-49 744,-49 750,-55 750,-61 750,-61 750,-120 750,-120 750,-126 744,-132 738,-132 738,-132 20,-132 20,-132 14,-132 8,-126 8,-120 8,-120 8,-61 8,-61 8,-55 14,-49 20,-49"/>
<g id="a_clust1_0"><a xlink:href="https://github.com/LogtalkDotOrg/logtalk3/tree/2a69e2811d86258db14552ef52ae36c056b8ea6b/library/dates/datep.lgt" xlink:title="https://github.com/LogtalkDotOrg/logtalk3/tree/2a69e2811d86258db14552ef52ae36c056b8ea6b/library/dates/datep.lgt">
<text text-anchor="start" x="20.5" y="-115.5" font-family="Monospace" font-size="10.00" fill="dimgray">datep</text>
</a>
</g>
</a>
</g>
</g>
<!-- today/3 -->
<g id="node1" class="node">
<title>today/3</title>
<g id="a_node1"><a xlink:href="https://github.com/LogtalkDotOrg/logtalk3/tree/2a69e2811d86258db14552ef52ae36c056b8ea6b/library/dates/datep.lgt#L32" xlink:title="https://github.com/LogtalkDotOrg/logtalk3/tree/2a69e2811d86258db14552ef52ae36c056b8ea6b/library/dates/datep.lgt#L32">
<polygon fill="springgreen" stroke="black" points="740,-95 664,-95 664,-59 740,-59 740,-95"/>
<text text-anchor="start" x="672" y="-79.8" font-family="Monospace" font-size="9.00"> </text>
<text text-anchor="start" x="678" y="-79.2" font-family="Monospace" font-size="11.00">today/3</text>
<text text-anchor="start" x="726" y="-79.8" font-family="Monospace" font-size="9.00"> </text>
<text text-anchor="start" x="672" y="-68.8" font-family="Monospace" font-size="9.00"> </text>
<text text-anchor="start" x="688" y="-69.4" font-family="Monospace" font-size="7.00">public</text>
<text text-anchor="start" x="726" y="-68.8" font-family="Monospace" font-size="9.00"> </text>
</a>
</g>
</g>
<!-- leap_year/1 -->
<g id="node2" class="node">
<title>leap_year/1</title>
<g id="a_node2"><a xlink:href="https://github.com/LogtalkDotOrg/logtalk3/tree/2a69e2811d86258db14552ef52ae36c056b8ea6b/library/dates/datep.lgt#L39" xlink:title="https://github.com/LogtalkDotOrg/logtalk3/tree/2a69e2811d86258db14552ef52ae36c056b8ea6b/library/dates/datep.lgt#L39">
<polygon fill="springgreen" stroke="black" points="645.5,-95 542.5,-95 542.5,-59 645.5,-59 645.5,-95"/>
<text text-anchor="start" x="551" y="-79.8" font-family="Monospace" font-size="9.00"> </text>
<text text-anchor="start" x="557" y="-79.2" font-family="Monospace" font-size="11.00">leap_year/1</text>
<text text-anchor="start" x="632" y="-79.8" font-family="Monospace" font-size="9.00"> </text>
<text text-anchor="start" x="551" y="-68.8" font-family="Monospace" font-size="9.00"> </text>
<text text-anchor="start" x="580.5" y="-69.4" font-family="Monospace" font-size="7.00">public</text>
<text text-anchor="start" x="632" y="-68.8" font-family="Monospace" font-size="9.00"> </text>
</a>
</g>
</g>
<!-- name_of_day/3 -->
<g id="node3" class="node">
<title>name_of_day/3</title>
<g id="a_node3"><a xlink:href="https://github.com/LogtalkDotOrg/logtalk3/tree/2a69e2811d86258db14552ef52ae36c056b8ea6b/library/dates/datep.lgt#L46" xlink:title="https://github.com/LogtalkDotOrg/logtalk3/tree/2a69e2811d86258db14552ef52ae36c056b8ea6b/library/dates/datep.lgt#L46">
<polygon fill="springgreen" stroke="black" points="524,-95 408,-95 408,-59 524,-59 524,-95"/>
<text text-anchor="start" x="416" y="-79.8" font-family="Monospace" font-size="9.00"> </text>
<text text-anchor="start" x="422" y="-79.2" font-family="Monospace" font-size="11.00">name_of_day/3</text>
<text text-anchor="start" x="510" y="-79.8" font-family="Monospace" font-size="9.00"> </text>
<text text-anchor="start" x="416" y="-68.8" font-family="Monospace" font-size="9.00"> </text>
<text text-anchor="start" x="452" y="-69.4" font-family="Monospace" font-size="7.00">public</text>
<text text-anchor="start" x="510" y="-68.8" font-family="Monospace" font-size="9.00"> </text>
</a>
</g>
</g>
<!-- name_of_month/3 -->
<g id="node4" class="node">
<title>name_of_month/3</title>
<g id="a_node4"><a xlink:href="https://github.com/LogtalkDotOrg/logtalk3/tree/2a69e2811d86258db14552ef52ae36c056b8ea6b/library/dates/datep.lgt#L53" xlink:title="https://github.com/LogtalkDotOrg/logtalk3/tree/2a69e2811d86258db14552ef52ae36c056b8ea6b/library/dates/datep.lgt#L53">
<polygon fill="springgreen" stroke="black" points="390,-95 260,-95 260,-59 390,-59 390,-95"/>
<text text-anchor="start" x="268" y="-79.8" font-family="Monospace" font-size="9.00"> </text>
<text text-anchor="start" x="274" y="-79.2" font-family="Monospace" font-size="11.00">name_of_month/3</text>
<text text-anchor="start" x="376" y="-79.8" font-family="Monospace" font-size="9.00"> </text>
<text text-anchor="start" x="268" y="-68.8" font-family="Monospace" font-size="9.00"> </text>
<text text-anchor="start" x="311" y="-69.4" font-family="Monospace" font-size="7.00">public</text>
<text text-anchor="start" x="376" y="-68.8" font-family="Monospace" font-size="9.00"> </text>
</a>
</g>
</g>
<!-- days_in_month/3 -->
<g id="node5" class="node">
<title>days_in_month/3</title>
<g id="a_node5"><a xlink:href="https://github.com/LogtalkDotOrg/logtalk3/tree/2a69e2811d86258db14552ef52ae36c056b8ea6b/library/dates/datep.lgt#L60" xlink:title="https://github.com/LogtalkDotOrg/logtalk3/tree/2a69e2811d86258db14552ef52ae36c056b8ea6b/library/dates/datep.lgt#L60">
<polygon fill="springgreen" stroke="black" points="242,-95 112,-95 112,-59 242,-59 242,-95"/>
<text text-anchor="start" x="120" y="-79.8" font-family="Monospace" font-size="9.00"> </text>
<text text-anchor="start" x="126" y="-79.2" font-family="Monospace" font-size="11.00">days_in_month/3</text>
<text text-anchor="start" x="228" y="-79.8" font-family="Monospace" font-size="9.00"> </text>
<text text-anchor="start" x="120" y="-68.8" font-family="Monospace" font-size="9.00"> </text>
<text text-anchor="start" x="163" y="-69.4" font-family="Monospace" font-size="7.00">public</text>
<text text-anchor="start" x="228" y="-68.8" font-family="Monospace" font-size="9.00"> </text>
</a>
</g>
</g>
<!-- valid/3 -->
<g id="node6" class="node">
<title>valid/3</title>
<g id="a_node6"><a xlink:href="https://github.com/LogtalkDotOrg/logtalk3/tree/2a69e2811d86258db14552ef52ae36c056b8ea6b/library/dates/datep.lgt#L67" xlink:title="https://github.com/LogtalkDotOrg/logtalk3/tree/2a69e2811d86258db14552ef52ae36c056b8ea6b/library/dates/datep.lgt#L67">
<polygon fill="springgreen" stroke="black" points="94,-95 18,-95 18,-59 94,-59 94,-95"/>
<text text-anchor="start" x="26" y="-79.8" font-family="Monospace" font-size="9.00"> </text>
<text text-anchor="start" x="32" y="-79.2" font-family="Monospace" font-size="11.00">valid/3</text>
<text text-anchor="start" x="80" y="-79.8" font-family="Monospace" font-size="9.00"> </text>
<text text-anchor="start" x="26" y="-68.8" font-family="Monospace" font-size="9.00"> </text>
<text text-anchor="start" x="42" y="-69.4" font-family="Monospace" font-size="7.00">public</text>
<text text-anchor="start" x="80" y="-68.8" font-family="Monospace" font-size="9.00"> </text>
</a>
</g>
</g>
</g>
</svg>
