<?xml version="1.0" encoding="UTF-8" standalone="no"?>
<?xml-stylesheet href="diagrams.css" type="text/css"?>
<!DOCTYPE svg PUBLIC "-//W3C//DTD SVG 1.1//EN"
 "http://www.w3.org/Graphics/SVG/1.1/DTD/svg11.dtd">
<!-- Generated by graphviz version 2.49.3 (20211023.0002)
 -->
<!-- Title: datep_protocol Pages: 1 -->
<svg width="901pt" height="292pt"
 viewBox="72.00 72.00 829.00 220.00" xmlns="http://www.w3.org/2000/svg" xmlns:xlink="http://www.w3.org/1999/xlink">
<g id="graph0" class="graph" transform="scale(1 1) rotate(0) translate(76 216)">
<title>datep_protocol</title>
<polygon fill="white" stroke="transparent" points="-4,4 -4,-144 753,-144 753,4 -4,4"/>
<text text-anchor="start" x="8" y="-29" font-family="Monospace" font-size="10.00" fill="dimgray">Logtalk library</text>
<text text-anchor="start" x="8" y="-18" font-family="Monospace" font-size="10.00" fill="dimgray">Cross&#45;referencing diagram for protocol datep</text>
<text text-anchor="start" x="8" y="-7" font-family="Monospace" font-size="10.00" fill="dimgray">Generated on 2021&#45;12&#45;21, 09:07</text>
<g id="clust1" class="cluster">
<title>cluster_datep_protocol</title>
<g id="a_clust1"><a xlink:title="datep">
<path fill="snow" stroke="dimgray" d="M20,-49C20,-49 729,-49 729,-49 735,-49 741,-55 741,-61 741,-61 741,-120 741,-120 741,-126 735,-132 729,-132 729,-132 20,-132 20,-132 14,-132 8,-126 8,-120 8,-120 8,-61 8,-61 8,-55 14,-49 20,-49"/>
<g id="a_clust1_0"><a xlink:href="https://github.com/LogtalkDotOrg/logtalk3/tree/5837da673da53d0a7a3622175892fced37f216ff/library/dates/datep.lgt" xlink:title="https://github.com/LogtalkDotOrg/logtalk3/tree/5837da673da53d0a7a3622175892fced37f216ff/library/dates/datep.lgt">
<text text-anchor="start" x="20.5" y="-115.5" font-family="Monospace" font-size="10.00" fill="dimgray">datep</text>
</a>
</g>
</a>
</g>
</g>
<!-- today/3 -->
<g id="node1" class="node">
<title>today/3</title>
<g id="a_node1"><a xlink:href="https://github.com/LogtalkDotOrg/logtalk3/tree/5837da673da53d0a7a3622175892fced37f216ff/library/dates/datep.lgt#L32" xlink:title="https://github.com/LogtalkDotOrg/logtalk3/tree/5837da673da53d0a7a3622175892fced37f216ff/library/dates/datep.lgt#L32">
<polygon fill="springgreen" stroke="black" points="730.5,-95 655.5,-95 655.5,-59 730.5,-59 730.5,-95"/>
<text text-anchor="start" x="664" y="-79.8" font-family="Monospace" font-size="9.00"> </text>
<text text-anchor="start" x="670" y="-79.2" font-family="Monospace" font-size="11.00">today/3</text>
<text text-anchor="start" x="717" y="-79.8" font-family="Monospace" font-size="9.00"> </text>
<text text-anchor="start" x="664" y="-68.8" font-family="Monospace" font-size="9.00"> </text>
<text text-anchor="start" x="680.5" y="-69.4" font-family="Monospace" font-size="7.00">public</text>
<text text-anchor="start" x="717" y="-68.8" font-family="Monospace" font-size="9.00"> </text>
</a>
</g>
</g>
<!-- leap_year/1 -->
<g id="node2" class="node">
<title>leap_year/1</title>
<g id="a_node2"><a xlink:href="https://github.com/LogtalkDotOrg/logtalk3/tree/5837da673da53d0a7a3622175892fced37f216ff/library/dates/datep.lgt#L39" xlink:title="https://github.com/LogtalkDotOrg/logtalk3/tree/5837da673da53d0a7a3622175892fced37f216ff/library/dates/datep.lgt#L39">
<polygon fill="springgreen" stroke="black" points="637.5,-95 536.5,-95 536.5,-59 637.5,-59 637.5,-95"/>
<text text-anchor="start" x="545" y="-79.8" font-family="Monospace" font-size="9.00"> </text>
<text text-anchor="start" x="551" y="-79.2" font-family="Monospace" font-size="11.00">leap_year/1</text>
<text text-anchor="start" x="624" y="-79.8" font-family="Monospace" font-size="9.00"> </text>
<text text-anchor="start" x="545" y="-68.8" font-family="Monospace" font-size="9.00"> </text>
<text text-anchor="start" x="574.5" y="-69.4" font-family="Monospace" font-size="7.00">public</text>
<text text-anchor="start" x="624" y="-68.8" font-family="Monospace" font-size="9.00"> </text>
</a>
</g>
</g>
<!-- name_of_day/3 -->
<g id="node3" class="node">
<title>name_of_day/3</title>
<g id="a_node3"><a xlink:href="https://github.com/LogtalkDotOrg/logtalk3/tree/5837da673da53d0a7a3622175892fced37f216ff/library/dates/datep.lgt#L46" xlink:title="https://github.com/LogtalkDotOrg/logtalk3/tree/5837da673da53d0a7a3622175892fced37f216ff/library/dates/datep.lgt#L46">
<polygon fill="springgreen" stroke="black" points="518,-95 404,-95 404,-59 518,-59 518,-95"/>
<text text-anchor="start" x="412" y="-79.8" font-family="Monospace" font-size="9.00"> </text>
<text text-anchor="start" x="418" y="-79.2" font-family="Monospace" font-size="11.00">name_of_day/3</text>
<text text-anchor="start" x="504" y="-79.8" font-family="Monospace" font-size="9.00"> </text>
<text text-anchor="start" x="412" y="-68.8" font-family="Monospace" font-size="9.00"> </text>
<text text-anchor="start" x="448" y="-69.4" font-family="Monospace" font-size="7.00">public</text>
<text text-anchor="start" x="504" y="-68.8" font-family="Monospace" font-size="9.00"> </text>
</a>
</g>
</g>
<!-- name_of_month/3 -->
<g id="node4" class="node">
<title>name_of_month/3</title>
<g id="a_node4"><a xlink:href="https://github.com/LogtalkDotOrg/logtalk3/tree/5837da673da53d0a7a3622175892fced37f216ff/library/dates/datep.lgt#L53" xlink:title="https://github.com/LogtalkDotOrg/logtalk3/tree/5837da673da53d0a7a3622175892fced37f216ff/library/dates/datep.lgt#L53">
<polygon fill="springgreen" stroke="black" points="386,-95 258,-95 258,-59 386,-59 386,-95"/>
<text text-anchor="start" x="266" y="-79.8" font-family="Monospace" font-size="9.00"> </text>
<text text-anchor="start" x="272" y="-79.2" font-family="Monospace" font-size="11.00">name_of_month/3</text>
<text text-anchor="start" x="372" y="-79.8" font-family="Monospace" font-size="9.00"> </text>
<text text-anchor="start" x="266" y="-68.8" font-family="Monospace" font-size="9.00"> </text>
<text text-anchor="start" x="309" y="-69.4" font-family="Monospace" font-size="7.00">public</text>
<text text-anchor="start" x="372" y="-68.8" font-family="Monospace" font-size="9.00"> </text>
</a>
</g>
</g>
<!-- days_in_month/3 -->
<g id="node5" class="node">
<title>days_in_month/3</title>
<g id="a_node5"><a xlink:href="https://github.com/LogtalkDotOrg/logtalk3/tree/5837da673da53d0a7a3622175892fced37f216ff/library/dates/datep.lgt#L60" xlink:title="https://github.com/LogtalkDotOrg/logtalk3/tree/5837da673da53d0a7a3622175892fced37f216ff/library/dates/datep.lgt#L60">
<polygon fill="springgreen" stroke="black" points="240,-95 112,-95 112,-59 240,-59 240,-95"/>
<text text-anchor="start" x="120" y="-79.8" font-family="Monospace" font-size="9.00"> </text>
<text text-anchor="start" x="126" y="-79.2" font-family="Monospace" font-size="11.00">days_in_month/3</text>
<text text-anchor="start" x="226" y="-79.8" font-family="Monospace" font-size="9.00"> </text>
<text text-anchor="start" x="120" y="-68.8" font-family="Monospace" font-size="9.00"> </text>
<text text-anchor="start" x="163" y="-69.4" font-family="Monospace" font-size="7.00">public</text>
<text text-anchor="start" x="226" y="-68.8" font-family="Monospace" font-size="9.00"> </text>
</a>
</g>
</g>
<!-- valid/3 -->
<g id="node6" class="node">
<title>valid/3</title>
<g id="a_node6"><a xlink:href="https://github.com/LogtalkDotOrg/logtalk3/tree/5837da673da53d0a7a3622175892fced37f216ff/library/dates/datep.lgt#L67" xlink:title="https://github.com/LogtalkDotOrg/logtalk3/tree/5837da673da53d0a7a3622175892fced37f216ff/library/dates/datep.lgt#L67">
<polygon fill="springgreen" stroke="black" points="93.5,-95 18.5,-95 18.5,-59 93.5,-59 93.5,-95"/>
<text text-anchor="start" x="27" y="-79.8" font-family="Monospace" font-size="9.00"> </text>
<text text-anchor="start" x="33" y="-79.2" font-family="Monospace" font-size="11.00">valid/3</text>
<text text-anchor="start" x="80" y="-79.8" font-family="Monospace" font-size="9.00"> </text>
<text text-anchor="start" x="27" y="-68.8" font-family="Monospace" font-size="9.00"> </text>
<text text-anchor="start" x="43.5" y="-69.4" font-family="Monospace" font-size="7.00">public</text>
<text text-anchor="start" x="80" y="-68.8" font-family="Monospace" font-size="9.00"> </text>
</a>
</g>
</g>
</g>
</svg>
