<?xml version="1.0" encoding="UTF-8" standalone="no"?>
<?xml-stylesheet href="diagrams.css" type="text/css"?>
<!DOCTYPE svg PUBLIC "-//W3C//DTD SVG 1.1//EN"
 "http://www.w3.org/Graphics/SVG/1.1/DTD/svg11.dtd">
<!-- Generated by graphviz version 9.0.0 (20230911.1827)
 -->
<!-- Title: debug_expansion_1_object Pages: 1 -->
<svg width="492pt" height="293pt"
 viewBox="72.00 72.00 420.00 221.00" xmlns="http://www.w3.org/2000/svg" xmlns:xlink="http://www.w3.org/1999/xlink">
<g id="graph0" class="graph" transform="scale(1 1) rotate(0) translate(76 217)">
<title>debug_expansion_1_object</title>
<polygon fill="white" stroke="none" points="-4,4 -4,-145 344,-145 344,4 -4,4"/>
<text text-anchor="start" x="8" y="-28.25" font-family="Monospace" font-size="10.00" fill="dimgray">Logtalk third&#45;party contributions</text>
<text text-anchor="start" x="8" y="-17" font-family="Monospace" font-size="10.00" fill="dimgray">Cross&#45;referencing diagram for object debug_expansion/1</text>
<text text-anchor="start" x="8" y="-5.75" font-family="Monospace" font-size="10.00" fill="dimgray">Generated on 2023&#45;11&#45;08, 15:02</text>
<g id="clust1" class="cluster">
<title>cluster_debug_expansion_1_object</title>
<g id="a_clust1"><a xlink:title="debug_expansion(Mode)">
<path fill="snow" stroke="dimgray" d="M105,-49.75C105,-49.75 235,-49.75 235,-49.75 241,-49.75 247,-55.75 247,-61.75 247,-61.75 247,-121 247,-121 247,-127 241,-133 235,-133 235,-133 105,-133 105,-133 99,-133 93,-127 93,-121 93,-121 93,-61.75 93,-61.75 93,-55.75 99,-49.75 105,-49.75"/>
<g id="a_clust1_0"><a xlink:href="https://github.com/LogtalkDotOrg/logtalk3/tree/301e5bea27046e10992dbb7d74be70f4a026dcf5/contributions/verdi_neruda/debug_expansion.lgt" xlink:title="https://github.com/LogtalkDotOrg/logtalk3/tree/301e5bea27046e10992dbb7d74be70f4a026dcf5/contributions/verdi_neruda/debug_expansion.lgt">
<text text-anchor="start" x="105" y="-115.5" font-family="Monospace" font-size="10.00" fill="dimgray">debug_expansion(Mode)</text>
</a>
</g>
</a>
</g>
</g>
<!-- goal_expansion/2 -->
<g id="node1" class="node">
<title>goal_expansion/2</title>
<g id="a_node1"><a xlink:href="https://github.com/LogtalkDotOrg/logtalk3/tree/301e5bea27046e10992dbb7d74be70f4a026dcf5/contributions/verdi_neruda/debug_expansion.lgt#L46" xlink:title="https://github.com/LogtalkDotOrg/logtalk3/tree/301e5bea27046e10992dbb7d74be70f4a026dcf5/contributions/verdi_neruda/debug_expansion.lgt#L46">
<polygon fill="cornsilk" stroke="black" points="237,-95.75 103,-95.75 103,-59.75 237,-59.75 237,-95.75"/>
<text text-anchor="start" x="110.88" y="-78.58" font-family="Monospace" font-size="9.00"> </text>
<text text-anchor="start" x="116" y="-77.8" font-family="Monospace" font-size="11.00">goal_expansion/2</text>
<text text-anchor="start" x="223.88" y="-78.58" font-family="Monospace" font-size="9.00"> </text>
<text text-anchor="start" x="110.88" y="-67.7" font-family="Monospace" font-size="9.00"> </text>
<text text-anchor="start" x="158.75" y="-69.22" font-family="Monospace" font-size="7.00">local</text>
<text text-anchor="start" x="223.88" y="-67.7" font-family="Monospace" font-size="9.00"> </text>
</a>
</g>
</g>
</g>
</svg>
