<?xml version="1.0" encoding="UTF-8" standalone="no"?>
<?xml-stylesheet href="diagrams.css" type="text/css"?>
<!DOCTYPE svg PUBLIC "-//W3C//DTD SVG 1.1//EN"
 "http://www.w3.org/Graphics/SVG/1.1/DTD/svg11.dtd">
<!-- Generated by graphviz version 2.49.3 (20211023.0002)
 -->
<!-- Title: debug_expansion_1_object Pages: 1 -->
<svg width="493pt" height="292pt"
 viewBox="72.00 72.00 421.00 220.00" xmlns="http://www.w3.org/2000/svg" xmlns:xlink="http://www.w3.org/1999/xlink">
<g id="graph0" class="graph" transform="scale(1 1) rotate(0) translate(76 216)">
<title>debug_expansion_1_object</title>
<polygon fill="white" stroke="transparent" points="-4,4 -4,-144 345,-144 345,4 -4,4"/>
<text text-anchor="start" x="8" y="-29" font-family="Monospace" font-size="10.00" fill="dimgray">Logtalk third&#45;party contributions</text>
<text text-anchor="start" x="8" y="-18" font-family="Monospace" font-size="10.00" fill="dimgray">Cross&#45;referencing diagram for object debug_expansion/1</text>
<text text-anchor="start" x="8" y="-7" font-family="Monospace" font-size="10.00" fill="dimgray">Generated on 2021&#45;12&#45;21, 09:07</text>
<g id="clust1" class="cluster">
<title>cluster_debug_expansion_1_object</title>
<g id="a_clust1"><a xlink:title="debug_expansion(Mode)">
<path fill="snow" stroke="dimgray" d="M105.5,-49C105.5,-49 235.5,-49 235.5,-49 241.5,-49 247.5,-55 247.5,-61 247.5,-61 247.5,-120 247.5,-120 247.5,-126 241.5,-132 235.5,-132 235.5,-132 105.5,-132 105.5,-132 99.5,-132 93.5,-126 93.5,-120 93.5,-120 93.5,-61 93.5,-61 93.5,-55 99.5,-49 105.5,-49"/>
<g id="a_clust1_0"><a xlink:href="https://github.com/LogtalkDotOrg/logtalk3/tree/5837da673da53d0a7a3622175892fced37f216ff/contributions/verdi_neruda/debug_expansion.lgt" xlink:title="https://github.com/LogtalkDotOrg/logtalk3/tree/5837da673da53d0a7a3622175892fced37f216ff/contributions/verdi_neruda/debug_expansion.lgt">
<text text-anchor="start" x="106" y="-115.5" font-family="Monospace" font-size="10.00" fill="dimgray">debug_expansion(Mode)</text>
</a>
</g>
</a>
</g>
</g>
<!-- goal_expansion/2 -->
<g id="node1" class="node">
<title>goal_expansion/2</title>
<g id="a_node1"><a xlink:href="https://github.com/LogtalkDotOrg/logtalk3/tree/5837da673da53d0a7a3622175892fced37f216ff/contributions/verdi_neruda/debug_expansion.lgt#L46" xlink:title="https://github.com/LogtalkDotOrg/logtalk3/tree/5837da673da53d0a7a3622175892fced37f216ff/contributions/verdi_neruda/debug_expansion.lgt#L46">
<polygon fill="cornsilk" stroke="black" points="237.5,-95 103.5,-95 103.5,-59 237.5,-59 237.5,-95"/>
<text text-anchor="start" x="111.5" y="-79.8" font-family="Monospace" font-size="9.00"> </text>
<text text-anchor="start" x="117.5" y="-79.2" font-family="Monospace" font-size="11.00">goal_expansion/2</text>
<text text-anchor="start" x="223.5" y="-79.8" font-family="Monospace" font-size="9.00"> </text>
<text text-anchor="start" x="111.5" y="-68.8" font-family="Monospace" font-size="9.00"> </text>
<text text-anchor="start" x="159.5" y="-69.4" font-family="Monospace" font-size="7.00">local</text>
<text text-anchor="start" x="223.5" y="-68.8" font-family="Monospace" font-size="9.00"> </text>
</a>
</g>
</g>
</g>
</svg>
