<?xml version="1.0" encoding="UTF-8" standalone="no"?>
<?xml-stylesheet href="diagrams.css" type="text/css"?>
<!DOCTYPE svg PUBLIC "-//W3C//DTD SVG 1.1//EN"
 "http://www.w3.org/Graphics/SVG/1.1/DTD/svg11.dtd">
<!-- Generated by graphviz version 2.49.4~dev.20211124.1647 (20211124.1647)
 -->
<!-- Title: debug_expansion_1_object Pages: 1 -->
<svg width="438pt" height="292pt"
 viewBox="72.00 72.00 366.00 220.00" xmlns="http://www.w3.org/2000/svg" xmlns:xlink="http://www.w3.org/1999/xlink">
<g id="graph0" class="graph" transform="scale(1 1) rotate(0) translate(76 216)">
<title>debug_expansion_1_object</title>
<polygon fill="white" stroke="transparent" points="-4,4 -4,-144 290,-144 290,4 -4,4"/>
<text text-anchor="start" x="8" y="-29" font-family="Courier,monospace" font-size="10.00" fill="dimgray">Logtalk third&#45;party contributions</text>
<text text-anchor="start" x="8" y="-18" font-family="Courier,monospace" font-size="10.00" fill="dimgray">Cross&#45;referencing diagram for object debug_expansion/1</text>
<text text-anchor="start" x="8" y="-7" font-family="Courier,monospace" font-size="10.00" fill="dimgray">Generated on 2021&#45;11&#45;24, 21:25</text>
<g id="clust1" class="cluster">
<title>cluster_debug_expansion_1_object</title>
<g id="a_clust1"><a xlink:title="debug_expansion(Mode)">
<path fill="snow" stroke="dimgray" d="M88,-49C88,-49 198,-49 198,-49 204,-49 210,-55 210,-61 210,-61 210,-120 210,-120 210,-126 204,-132 198,-132 198,-132 88,-132 88,-132 82,-132 76,-126 76,-120 76,-120 76,-61 76,-61 76,-55 82,-49 88,-49"/>
<g id="a_clust1_0"><a xlink:href="https://github.com/LogtalkDotOrg/logtalk3/tree/1450dd2e30cbc83199a0162ba485cb2893d77c37/contributions/verdi_neruda/debug_expansion.lgt" xlink:title="https://github.com/LogtalkDotOrg/logtalk3/tree/1450dd2e30cbc83199a0162ba485cb2893d77c37/contributions/verdi_neruda/debug_expansion.lgt">
<text text-anchor="start" x="88.5" y="-115.5" font-family="Courier,monospace" font-size="10.00" fill="dimgray">debug_expansion(Mode)</text>
</a>
</g>
</a>
</g>
</g>
<!-- goal_expansion/2 -->
<g id="node1" class="node">
<title>goal_expansion/2</title>
<g id="a_node1"><a xlink:href="https://github.com/LogtalkDotOrg/logtalk3/tree/1450dd2e30cbc83199a0162ba485cb2893d77c37/contributions/verdi_neruda/debug_expansion.lgt#L46" xlink:title="https://github.com/LogtalkDotOrg/logtalk3/tree/1450dd2e30cbc83199a0162ba485cb2893d77c37/contributions/verdi_neruda/debug_expansion.lgt#L46">
<polygon fill="cornsilk" stroke="black" points="200,-95 86,-95 86,-59 200,-59 200,-95"/>
<text text-anchor="start" x="94" y="-79.8" font-family="Courier,monospace" font-size="9.00"> </text>
<text text-anchor="start" x="99" y="-79.2" font-family="Courier,monospace" font-size="11.00">goal_expansion/2</text>
<text text-anchor="start" x="187" y="-79.8" font-family="Courier,monospace" font-size="9.00"> </text>
<text text-anchor="start" x="94" y="-68.8" font-family="Courier,monospace" font-size="9.00"> </text>
<text text-anchor="start" x="134" y="-69.4" font-family="Courier,monospace" font-size="7.00">local</text>
<text text-anchor="start" x="187" y="-68.8" font-family="Courier,monospace" font-size="9.00"> </text>
</a>
</g>
</g>
</g>
</svg>
