<?xml version="1.0" encoding="UTF-8" standalone="no"?>
<?xml-stylesheet href="diagrams.css" type="text/css"?>
<!DOCTYPE svg PUBLIC "-//W3C//DTD SVG 1.1//EN"
 "http://www.w3.org/Graphics/SVG/1.1/DTD/svg11.dtd">
<!-- Generated by graphviz version 11.0.0 (20240428.1522)
 -->
<!-- Title: debug_expansion_1_object Pages: 1 -->
<svg width="492pt" height="299pt"
 viewBox="72.00 72.00 420.00 227.00" xmlns="http://www.w3.org/2000/svg" xmlns:xlink="http://www.w3.org/1999/xlink">
<g id="graph0" class="graph" transform="scale(1 1) rotate(0) translate(76 223)">
<title>debug_expansion_1_object</title>
<polygon fill="white" stroke="none" points="-4,4 -4,-151 344,-151 344,4 -4,4"/>
<text text-anchor="start" x="8" y="-32.75" font-family="Monospace" font-size="10.00" fill="dimgray">Logtalk third&#45;party contributions</text>
<text text-anchor="start" x="8" y="-20" font-family="Monospace" font-size="10.00" fill="dimgray">Cross&#45;referencing diagram for object debug_expansion/1</text>
<text text-anchor="start" x="8" y="-7.25" font-family="Monospace" font-size="10.00" fill="dimgray">Generated on 2024&#45;05&#45;06, 09:55</text>
<g id="clust1" class="cluster">
<title>cluster_debug_expansion_1_object</title>
<g id="a_clust1"><a xlink:title="debug_expansion(Mode)">
<path fill="snow" stroke="dimgray" d="M105,-54.25C105,-54.25 235,-54.25 235,-54.25 241,-54.25 247,-60.25 247,-66.25 247,-66.25 247,-127 247,-127 247,-133 241,-139 235,-139 235,-139 105,-139 105,-139 99,-139 93,-133 93,-127 93,-127 93,-66.25 93,-66.25 93,-60.25 99,-54.25 105,-54.25"/>
<g id="a_clust1_0"><a xlink:href="https://github.com/LogtalkDotOrg/logtalk3/tree/433953586476b77ec2e010e935e90dc85293a20a/contributions/verdi_neruda/debug_expansion.lgt" xlink:title="https://github.com/LogtalkDotOrg/logtalk3/tree/433953586476b77ec2e010e935e90dc85293a20a/contributions/verdi_neruda/debug_expansion.lgt">
<text text-anchor="start" x="105" y="-121.5" font-family="Monospace" font-size="10.00" fill="dimgray">debug_expansion(Mode)</text>
</a>
</g>
</a>
</g>
</g>
<!-- goal_expansion/2 -->
<g id="node1" class="node">
<title>goal_expansion/2</title>
<g id="a_node1"><a xlink:href="https://github.com/LogtalkDotOrg/logtalk3/tree/433953586476b77ec2e010e935e90dc85293a20a/contributions/verdi_neruda/debug_expansion.lgt#L46" xlink:title="https://github.com/LogtalkDotOrg/logtalk3/tree/433953586476b77ec2e010e935e90dc85293a20a/contributions/verdi_neruda/debug_expansion.lgt#L46">
<polygon fill="cornsilk" stroke="black" points="237,-100.25 103,-100.25 103,-64.25 237,-64.25 237,-100.25"/>
<text text-anchor="start" x="110.88" y="-84.83" font-family="Monospace" font-size="9.00"> </text>
<text text-anchor="start" x="116" y="-83.8" font-family="Monospace" font-size="11.00">goal_expansion/2</text>
<text text-anchor="start" x="223.88" y="-84.83" font-family="Monospace" font-size="9.00"> </text>
<text text-anchor="start" x="110.88" y="-72.7" font-family="Monospace" font-size="9.00"> </text>
<text text-anchor="start" x="158.75" y="-73.6" font-family="Monospace" font-size="7.00">local</text>
<text text-anchor="start" x="223.88" y="-72.7" font-family="Monospace" font-size="9.00"> </text>
</a>
</g>
</g>
</g>
</svg>
