<?xml version="1.0" encoding="UTF-8" standalone="no"?>
<!DOCTYPE svg PUBLIC "-//W3C//DTD SVG 1.1//EN"
 "http://www.w3.org/Graphics/SVG/1.1/DTD/svg11.dtd">
<!-- Generated by graphviz version 2.40.1 (20161225.0304)
 -->
<!-- Title: debug_expansion_1_object Pages: 1 -->
<svg width="378pt" height="279pt"
 viewBox="72.00 72.00 306.00 207.43" xmlns="http://www.w3.org/2000/svg" xmlns:xlink="http://www.w3.org/1999/xlink">
<g id="graph0" class="graph" transform="scale(1 1) rotate(0) translate(76 203.4264)">
<title>debug_expansion_1_object</title>
<polygon fill="#ffffff" stroke="transparent" points="-4,4 -4,-131.4264 230,-131.4264 230,4 -4,4"/>
<text text-anchor="start" x="8" y="-18" font-family="Courier,monospace" font-size="10.00" fill="#8b8989">Logtalk third&#45;party contributions</text>
<text text-anchor="start" x="8" y="-7" font-family="Courier,monospace" font-size="10.00" fill="#8b8989">Generated on 2019/04/12, 21:31</text>
<g id="clust1" class="cluster">
<title>cluster_debug_expansion_1_object</title>
<g id="a_clust1"><a xlink:href="https://github.com/LogtalkDotOrg/logtalk3/tree/master/contributions/verdi_neruda/debug_expansion.lgt" xlink:title="https://github.com/LogtalkDotOrg/logtalk3/tree/master/contributions/verdi_neruda/debug_expansion.lgt">
<path fill="#fffafa" stroke="#8b8989" d="M20,-38C20,-38 206,-38 206,-38 212,-38 218,-44 218,-50 218,-50 218,-107.4264 218,-107.4264 218,-113.4264 212,-119.4264 206,-119.4264 206,-119.4264 20,-119.4264 20,-119.4264 14,-119.4264 8,-113.4264 8,-107.4264 8,-107.4264 8,-50 8,-50 8,-44 14,-38 20,-38"/>
<text text-anchor="middle" x="79.5" y="-107.4264" font-family="Courier,monospace" font-size="10.00" fill="#8b8989">debug_expansion(Mode)</text>
</a>
</g>
</g>
<!-- goal_expansion/2 -->
<g id="node1" class="node">
<title>goal_expansion/2</title>
<g id="a_node1"><a xlink:href="https://github.com/LogtalkDotOrg/logtalk3/tree/master/contributions/verdi_neruda/debug_expansion.lgt#L13" xlink:title="https://github.com/LogtalkDotOrg/logtalk3/tree/master/contributions/verdi_neruda/debug_expansion.lgt#L13">
<ellipse fill="#f5f5dc" stroke="#000000" cx="113" cy="-69.2132" rx="94.5053" ry="21.4286"/>
<text text-anchor="start" x="54" y="-72.0132" font-family="Courier,monospace" font-size="9.00" fill="#000000"> </text>
<text text-anchor="start" x="60" y="-71.4132" font-family="Courier,monospace" font-size="11.00" fill="#000000">goal_expansion/2</text>
<text text-anchor="start" x="166" y="-72.0132" font-family="Courier,monospace" font-size="9.00" fill="#000000"> </text>
<text text-anchor="start" x="54" y="-61.0132" font-family="Courier,monospace" font-size="9.00" fill="#000000"> </text>
<text text-anchor="start" x="102" y="-61.6132" font-family="Courier,monospace" font-size="7.00" fill="#000000">local</text>
<text text-anchor="start" x="166" y="-61.0132" font-family="Courier,monospace" font-size="9.00" fill="#000000"> </text>
</a>
</g>
</g>
</g>
</svg>
