<?xml version="1.0" encoding="UTF-8" standalone="no"?>
<?xml-stylesheet href="diagrams.css" type="text/css"?>
<!DOCTYPE svg PUBLIC "-//W3C//DTD SVG 1.1//EN"
 "http://www.w3.org/Graphics/SVG/1.1/DTD/svg11.dtd">
<!-- Generated by graphviz version 2.43.20191029.1313 (20191029.1313)
 -->
<!-- Title: debug_expansion_1_object Pages: 1 -->
<svg width="492pt" height="288pt"
 viewBox="72.00 72.00 420.05 216.00" xmlns="http://www.w3.org/2000/svg" xmlns:xlink="http://www.w3.org/1999/xlink">
<g id="graph0" class="graph" transform="scale(1 1) rotate(0) translate(76 212)">
<title>debug_expansion_1_object</title>
<polygon fill="white" stroke="transparent" points="-4,4 -4,-140 344.05,-140 344.05,4 -4,4"/>
<text text-anchor="start" x="8" y="-26" font-family="Courier,monospace" font-size="10.00" fill="dimgray">Logtalk third&#45;party contributions</text>
<text text-anchor="start" x="8" y="-16" font-family="Courier,monospace" font-size="10.00" fill="dimgray">Cross&#45;referencing diagram for object debug_expansion/1</text>
<text text-anchor="start" x="8" y="-6" font-family="Courier,monospace" font-size="10.00" fill="dimgray">Generated on 2020&#45;05&#45;25, 21:55</text>
<g id="clust1" class="cluster">
<title>cluster_debug_expansion_1_object</title>
<g id="a_clust1"><a xlink:title="debug_expansion(Mode)">
<path fill="snow" stroke="dimgray" d="M106.03,-46C106.03,-46 234.03,-46 234.03,-46 240.03,-46 246.03,-52 246.03,-58 246.03,-58 246.03,-116 246.03,-116 246.03,-122 240.03,-128 234.03,-128 234.03,-128 106.03,-128 106.03,-128 100.03,-128 94.03,-122 94.03,-116 94.03,-116 94.03,-58 94.03,-58 94.03,-52 100.03,-46 106.03,-46"/>
<g id="a_clust1_0"><a xlink:href="https://github.com/LogtalkDotOrg/logtalk3/tree/ee3e469ba16664bcc8b3b120a4a0bb7672d96db2/contributions/verdi_neruda/debug_expansion.lgt" xlink:title="https://github.com/LogtalkDotOrg/logtalk3/tree/ee3e469ba16664bcc8b3b120a4a0bb7672d96db2/contributions/verdi_neruda/debug_expansion.lgt">
<text text-anchor="start" x="106.02" y="-112" font-family="Courier,monospace" font-size="10.00" fill="dimgray">debug_expansion(Mode)</text>
</a>
</g>
</a>
</g>
</g>
<!-- goal_expansion/2 -->
<g id="node1" class="node">
<title>goal_expansion/2</title>
<g id="a_node1"><a xlink:href="https://github.com/LogtalkDotOrg/logtalk3/tree/ee3e469ba16664bcc8b3b120a4a0bb7672d96db2/contributions/verdi_neruda/debug_expansion.lgt#L13" xlink:title="https://github.com/LogtalkDotOrg/logtalk3/tree/ee3e469ba16664bcc8b3b120a4a0bb7672d96db2/contributions/verdi_neruda/debug_expansion.lgt#L13">
<polygon fill="cornsilk" stroke="black" points="235.53,-92 104.53,-92 104.53,-56 235.53,-56 235.53,-92"/>
<text text-anchor="start" x="112.83" y="-75.8" font-family="Courier,monospace" font-size="9.00"> </text>
<text text-anchor="start" x="117.72" y="-75.2" font-family="Courier,monospace" font-size="11.00">goal_expansion/2</text>
<text text-anchor="start" x="222.83" y="-75.8" font-family="Courier,monospace" font-size="9.00"> </text>
<text text-anchor="start" x="112.83" y="-65.8" font-family="Courier,monospace" font-size="9.00"> </text>
<text text-anchor="start" x="160.02" y="-66.4" font-family="Courier,monospace" font-size="7.00">local</text>
<text text-anchor="start" x="222.83" y="-65.8" font-family="Courier,monospace" font-size="9.00"> </text>
</a>
</g>
</g>
</g>
</svg>
