<?xml version="1.0" encoding="UTF-8" standalone="no"?>
<?xml-stylesheet href="diagrams.css" type="text/css"?>
<!DOCTYPE svg PUBLIC "-//W3C//DTD SVG 1.1//EN"
 "http://www.w3.org/Graphics/SVG/1.1/DTD/svg11.dtd">
<!-- Generated by graphviz version 2.50.0 (20211204.2007)
 -->
<!-- Title: debug_expansion_1_object Pages: 1 -->
<svg width="493pt" height="292pt"
 viewBox="72.00 72.00 421.00 220.00" xmlns="http://www.w3.org/2000/svg" xmlns:xlink="http://www.w3.org/1999/xlink">
<g id="graph0" class="graph" transform="scale(1 1) rotate(0) translate(76 216)">
<title>debug_expansion_1_object</title>
<polygon fill="white" stroke="transparent" points="-4,4 -4,-144 345,-144 345,4 -4,4"/>
<text text-anchor="start" x="8" y="-29" font-family="Monospace" font-size="10.00" fill="dimgray">Logtalk third&#45;party contributions</text>
<text text-anchor="start" x="8" y="-18" font-family="Monospace" font-size="10.00" fill="dimgray">Cross&#45;referencing diagram for object debug_expansion/1</text>
<text text-anchor="start" x="8" y="-7" font-family="Monospace" font-size="10.00" fill="dimgray">Generated on 2022&#45;01&#45;20, 14:46</text>
<g id="clust1" class="cluster">
<title>cluster_debug_expansion_1_object</title>
<g id="a_clust1"><a xlink:title="debug_expansion(Mode)">
<path fill="snow" stroke="dimgray" d="M103.5,-49C103.5,-49 237.5,-49 237.5,-49 243.5,-49 249.5,-55 249.5,-61 249.5,-61 249.5,-120 249.5,-120 249.5,-126 243.5,-132 237.5,-132 237.5,-132 103.5,-132 103.5,-132 97.5,-132 91.5,-126 91.5,-120 91.5,-120 91.5,-61 91.5,-61 91.5,-55 97.5,-49 103.5,-49"/>
<g id="a_clust1_0"><a xlink:href="https://github.com/LogtalkDotOrg/logtalk3/tree/a79bbccb2a68257471d64b685f29e8f961b07729/contributions/verdi_neruda/debug_expansion.lgt" xlink:title="https://github.com/LogtalkDotOrg/logtalk3/tree/a79bbccb2a68257471d64b685f29e8f961b07729/contributions/verdi_neruda/debug_expansion.lgt">
<text text-anchor="start" x="104" y="-115.5" font-family="Monospace" font-size="10.00" fill="dimgray">debug_expansion(Mode)</text>
</a>
</g>
</a>
</g>
</g>
<!-- goal_expansion/2 -->
<g id="node1" class="node">
<title>goal_expansion/2</title>
<g id="a_node1"><a xlink:href="https://github.com/LogtalkDotOrg/logtalk3/tree/a79bbccb2a68257471d64b685f29e8f961b07729/contributions/verdi_neruda/debug_expansion.lgt#L46" xlink:title="https://github.com/LogtalkDotOrg/logtalk3/tree/a79bbccb2a68257471d64b685f29e8f961b07729/contributions/verdi_neruda/debug_expansion.lgt#L46">
<polygon fill="cornsilk" stroke="black" points="239,-95 102,-95 102,-59 239,-59 239,-95"/>
<text text-anchor="start" x="110.5" y="-79.8" font-family="Monospace" font-size="9.00"> </text>
<text text-anchor="start" x="116.5" y="-79.2" font-family="Monospace" font-size="11.00">goal_expansion/2</text>
<text text-anchor="start" x="225.5" y="-79.8" font-family="Monospace" font-size="9.00"> </text>
<text text-anchor="start" x="110.5" y="-68.8" font-family="Monospace" font-size="9.00"> </text>
<text text-anchor="start" x="159.5" y="-69.4" font-family="Monospace" font-size="7.00">local</text>
<text text-anchor="start" x="225.5" y="-68.8" font-family="Monospace" font-size="9.00"> </text>
</a>
</g>
</g>
</g>
</svg>
