<?xml version="1.0" encoding="UTF-8" standalone="no"?>
<?xml-stylesheet href="diagrams.css" type="text/css"?>
<!DOCTYPE svg PUBLIC "-//W3C//DTD SVG 1.1//EN"
 "http://www.w3.org/Graphics/SVG/1.1/DTD/svg11.dtd">
<!-- Generated by graphviz version 9.0.0 (20230911.1827)
 -->
<!-- Title: default_float_mutations_object Pages: 1 -->
<svg width="528pt" height="293pt"
 viewBox="72.00 72.00 456.00 221.00" xmlns="http://www.w3.org/2000/svg" xmlns:xlink="http://www.w3.org/1999/xlink">
<g id="graph0" class="graph" transform="scale(1 1) rotate(0) translate(76 217)">
<title>default_float_mutations_object</title>
<polygon fill="white" stroke="none" points="-4,4 -4,-145 380,-145 380,4 -4,4"/>
<text text-anchor="start" x="8" y="-28.25" font-family="Monospace" font-size="10.00" fill="dimgray">Logtalk library</text>
<text text-anchor="start" x="8" y="-17" font-family="Monospace" font-size="10.00" fill="dimgray">Cross&#45;referencing diagram for object default_float_mutations</text>
<text text-anchor="start" x="8" y="-5.75" font-family="Monospace" font-size="10.00" fill="dimgray">Generated on 2023&#45;12&#45;17, 11:03</text>
<g id="clust1" class="cluster">
<title>cluster_default_float_mutations_object</title>
<g id="a_clust1"><a xlink:title="default_float_mutations">
<path fill="snow" stroke="dimgray" d="M86,-49.75C86,-49.75 290,-49.75 290,-49.75 296,-49.75 302,-55.75 302,-61.75 302,-61.75 302,-121 302,-121 302,-127 296,-133 290,-133 290,-133 86,-133 86,-133 80,-133 74,-127 74,-121 74,-121 74,-61.75 74,-61.75 74,-55.75 80,-49.75 86,-49.75"/>
<g id="a_clust1_0"><a xlink:href="https://github.com/LogtalkDotOrg/logtalk3/tree/ef1694293968a7f45f230bbddf1380d4ef4e9e71/library/mutations/default_float_mutations.lgt" xlink:title="https://github.com/LogtalkDotOrg/logtalk3/tree/ef1694293968a7f45f230bbddf1380d4ef4e9e71/library/mutations/default_float_mutations.lgt">
<text text-anchor="start" x="86" y="-115.5" font-family="Monospace" font-size="10.00" fill="dimgray">default_float_mutations</text>
</a>
</g>
</a>
</g>
</g>
<!-- mutations_store::mutation/4 -->
<g id="node1" class="node">
<title>mutations_store::mutation/4</title>
<g id="a_node1"><a xlink:href="https://github.com/LogtalkDotOrg/logtalk3/tree/ef1694293968a7f45f230bbddf1380d4ef4e9e71/library/mutations/default_float_mutations.lgt#L33" xlink:title="https://github.com/LogtalkDotOrg/logtalk3/tree/ef1694293968a7f45f230bbddf1380d4ef4e9e71/library/mutations/default_float_mutations.lgt#L33">
<polygon fill="skyblue" stroke="black" points="292,-95.75 84,-95.75 84,-59.75 292,-59.75 292,-95.75"/>
<text text-anchor="start" x="91.88" y="-78.58" font-family="Monospace" font-size="9.00"> </text>
<text text-anchor="start" x="96.88" y="-77.8" font-family="Monospace" font-size="11.00">mutations_store::mutation/4</text>
<text text-anchor="start" x="278.88" y="-78.58" font-family="Monospace" font-size="9.00"> </text>
<text text-anchor="start" x="91.88" y="-67.7" font-family="Monospace" font-size="9.00"> </text>
<text text-anchor="start" x="167.75" y="-69.22" font-family="Monospace" font-size="7.00">multifile</text>
<text text-anchor="start" x="278.88" y="-67.7" font-family="Monospace" font-size="9.00"> </text>
</a>
</g>
</g>
</g>
</svg>
