<?xml version="1.0" encoding="UTF-8" standalone="no"?>
<?xml-stylesheet href="diagrams.css" type="text/css"?>
<!DOCTYPE svg PUBLIC "-//W3C//DTD SVG 1.1//EN"
 "http://www.w3.org/Graphics/SVG/1.1/DTD/svg11.dtd">
<!-- Generated by graphviz version 9.0.0 (20230911.1827)
 -->
<!-- Title: default_atom_mutations_object Pages: 1 -->
<svg width="522pt" height="293pt"
 viewBox="72.00 72.00 450.00 221.00" xmlns="http://www.w3.org/2000/svg" xmlns:xlink="http://www.w3.org/1999/xlink">
<g id="graph0" class="graph" transform="scale(1 1) rotate(0) translate(76 217)">
<title>default_atom_mutations_object</title>
<polygon fill="white" stroke="none" points="-4,4 -4,-145 374,-145 374,4 -4,4"/>
<text text-anchor="start" x="8" y="-28.25" font-family="Monospace" font-size="10.00" fill="dimgray">Logtalk library</text>
<text text-anchor="start" x="8" y="-17" font-family="Monospace" font-size="10.00" fill="dimgray">Cross&#45;referencing diagram for object default_atom_mutations</text>
<text text-anchor="start" x="8" y="-5.75" font-family="Monospace" font-size="10.00" fill="dimgray">Generated on 2023&#45;12&#45;31, 12:44</text>
<g id="clust1" class="cluster">
<title>cluster_default_atom_mutations_object</title>
<g id="a_clust1"><a xlink:title="default_atom_mutations">
<path fill="snow" stroke="dimgray" d="M83,-49.75C83,-49.75 287,-49.75 287,-49.75 293,-49.75 299,-55.75 299,-61.75 299,-61.75 299,-121 299,-121 299,-127 293,-133 287,-133 287,-133 83,-133 83,-133 77,-133 71,-127 71,-121 71,-121 71,-61.75 71,-61.75 71,-55.75 77,-49.75 83,-49.75"/>
<g id="a_clust1_0"><a xlink:href="https://github.com/LogtalkDotOrg/logtalk3/tree/f0ef54f0957fd8cd098294ac60a8dcf87b21f0a9/library/mutations/default_atom_mutations.lgt" xlink:title="https://github.com/LogtalkDotOrg/logtalk3/tree/f0ef54f0957fd8cd098294ac60a8dcf87b21f0a9/library/mutations/default_atom_mutations.lgt">
<text text-anchor="start" x="83" y="-115.5" font-family="Monospace" font-size="10.00" fill="dimgray">default_atom_mutations</text>
</a>
</g>
</a>
</g>
</g>
<!-- mutations_store::mutation/4 -->
<g id="node1" class="node">
<title>mutations_store::mutation/4</title>
<g id="a_node1"><a xlink:href="https://github.com/LogtalkDotOrg/logtalk3/tree/f0ef54f0957fd8cd098294ac60a8dcf87b21f0a9/library/mutations/default_atom_mutations.lgt#L41" xlink:title="https://github.com/LogtalkDotOrg/logtalk3/tree/f0ef54f0957fd8cd098294ac60a8dcf87b21f0a9/library/mutations/default_atom_mutations.lgt#L41">
<polygon fill="skyblue" stroke="black" points="289,-95.75 81,-95.75 81,-59.75 289,-59.75 289,-95.75"/>
<text text-anchor="start" x="88.88" y="-78.58" font-family="Monospace" font-size="9.00"> </text>
<text text-anchor="start" x="93.88" y="-77.8" font-family="Monospace" font-size="11.00">mutations_store::mutation/4</text>
<text text-anchor="start" x="275.88" y="-78.58" font-family="Monospace" font-size="9.00"> </text>
<text text-anchor="start" x="88.88" y="-67.7" font-family="Monospace" font-size="9.00"> </text>
<text text-anchor="start" x="164.75" y="-69.22" font-family="Monospace" font-size="7.00">multifile</text>
<text text-anchor="start" x="275.88" y="-67.7" font-family="Monospace" font-size="9.00"> </text>
</a>
</g>
</g>
</g>
</svg>
