<?xml version="1.0" encoding="UTF-8" standalone="no"?>
<?xml-stylesheet href="diagrams.css" type="text/css"?>
<!DOCTYPE svg PUBLIC "-//W3C//DTD SVG 1.1//EN"
 "http://www.w3.org/Graphics/SVG/1.1/DTD/svg11.dtd">
<!-- Generated by graphviz version 12.2.1 (20241206.2353)
 -->
<!-- Title: default_atom_mutations_object Pages: 1 -->
<svg width="522pt" height="299pt"
 viewBox="72.00 72.00 450.00 227.00" xmlns="http://www.w3.org/2000/svg" xmlns:xlink="http://www.w3.org/1999/xlink">
<g id="graph0" class="graph" transform="scale(1 1) rotate(0) translate(76 223)">
<title>default_atom_mutations_object</title>
<polygon fill="white" stroke="none" points="-4,4 -4,-151 374,-151 374,4 -4,4"/>
<text text-anchor="start" x="8" y="-32.75" font-family="Monospace" font-size="10.00" fill="dimgray">Logtalk library</text>
<text text-anchor="start" x="8" y="-20" font-family="Monospace" font-size="10.00" fill="dimgray">Cross&#45;referencing diagram for object default_atom_mutations</text>
<text text-anchor="start" x="8" y="-7.25" font-family="Monospace" font-size="10.00" fill="dimgray">Generated on 2025&#45;02&#45;21, 22:46</text>
<g id="clust1" class="cluster">
<title>cluster_default_atom_mutations_object</title>
<g id="a_clust1"><a xlink:title="default_atom_mutations">
<path fill="snow" stroke="dimgray" d="M83,-54.25C83,-54.25 287,-54.25 287,-54.25 293,-54.25 299,-60.25 299,-66.25 299,-66.25 299,-127 299,-127 299,-133 293,-139 287,-139 287,-139 83,-139 83,-139 77,-139 71,-133 71,-127 71,-127 71,-66.25 71,-66.25 71,-60.25 77,-54.25 83,-54.25"/>
<g id="a_clust1_0"><a xlink:href="https://github.com/LogtalkDotOrg/logtalk3/tree/262c037f8eb7dc0ddcaceff3ad57c073787dc749/library/mutations/default_atom_mutations.lgt" xlink:title="https://github.com/LogtalkDotOrg/logtalk3/tree/262c037f8eb7dc0ddcaceff3ad57c073787dc749/library/mutations/default_atom_mutations.lgt">
<text text-anchor="start" x="83" y="-121.5" font-family="Monospace" font-size="10.00" fill="dimgray">default_atom_mutations</text>
</a>
</g>
</a>
</g>
</g>
<!-- mutations_store::mutation/4 -->
<g id="node1" class="node">
<title>mutations_store::mutation/4</title>
<g id="a_node1"><a xlink:href="https://github.com/LogtalkDotOrg/logtalk3/tree/262c037f8eb7dc0ddcaceff3ad57c073787dc749/library/mutations/default_atom_mutations.lgt#L41" xlink:title="https://github.com/LogtalkDotOrg/logtalk3/tree/262c037f8eb7dc0ddcaceff3ad57c073787dc749/library/mutations/default_atom_mutations.lgt#L41">
<polygon fill="skyblue" stroke="black" points="289.38,-100.25 80.62,-100.25 80.62,-64.25 289.38,-64.25 289.38,-100.25"/>
<text text-anchor="start" x="88.62" y="-84.95" font-family="Monospace" font-size="9.00"> </text>
<text text-anchor="start" x="93.88" y="-84.17" font-family="Monospace" font-size="11.00">mutations_store::mutation/4</text>
<text text-anchor="start" x="276.12" y="-84.95" font-family="Monospace" font-size="9.00"> </text>
<text text-anchor="start" x="88.62" y="-72.58" font-family="Monospace" font-size="9.00"> </text>
<text text-anchor="start" x="164.75" y="-73.35" font-family="Monospace" font-size="7.00">multifile</text>
<text text-anchor="start" x="276.12" y="-72.58" font-family="Monospace" font-size="9.00"> </text>
</a>
</g>
</g>
</g>
</svg>
