<?xml version="1.0" encoding="UTF-8" standalone="no"?>
<!DOCTYPE svg PUBLIC "-//W3C//DTD SVG 1.1//EN"
 "http://www.w3.org/Graphics/SVG/1.1/DTD/svg11.dtd">
<!-- Generated by graphviz version 2.43.20191029.1313 (20191029.1313)
 -->
<!-- Title: default_workflow_hook_object Pages: 1 -->
<svg width="516pt" height="288pt"
 viewBox="72.00 72.00 444.06 216.00" xmlns="http://www.w3.org/2000/svg" xmlns:xlink="http://www.w3.org/1999/xlink">
<g id="graph0" class="graph" transform="scale(1 1) rotate(0) translate(76 212)">
<title>default_workflow_hook_object</title>
<polygon fill="white" stroke="transparent" points="-4,4 -4,-140 368.06,-140 368.06,4 -4,4"/>
<text text-anchor="start" x="8" y="-26" font-family="Courier,monospace" font-size="10.00" fill="dimgray">Logtalk library</text>
<text text-anchor="start" x="8" y="-16" font-family="Courier,monospace" font-size="10.00" fill="dimgray">Cross&#45;referencing diagram for object default_workflow_hook</text>
<text text-anchor="start" x="8" y="-6" font-family="Courier,monospace" font-size="10.00" fill="dimgray">Generated on 2020&#45;03&#45;02, 19:04</text>
<g id="clust1" class="cluster">
<title>cluster_default_workflow_hook_object</title>
<g id="a_clust1"><a xlink:title="default_workflow_hook">
<path fill="snow" stroke="dimgray" d="M43.53,-46C43.53,-46 320.53,-46 320.53,-46 326.53,-46 332.53,-52 332.53,-58 332.53,-58 332.53,-116 332.53,-116 332.53,-122 326.53,-128 320.53,-128 320.53,-128 43.53,-128 43.53,-128 37.53,-128 31.53,-122 31.53,-116 31.53,-116 31.53,-58 31.53,-58 31.53,-52 37.53,-46 43.53,-46"/>
<g id="a_clust1_0"><a xlink:href="https://github.com/LogtalkDotOrg/logtalk3/tree/52499839a0efa4b7b8c58914b07274a120ef7d4d/library/hook_objects/default_workflow_hook.lgt" xlink:title="https://github.com/LogtalkDotOrg/logtalk3/tree/52499839a0efa4b7b8c58914b07274a120ef7d4d/library/hook_objects/default_workflow_hook.lgt">
<text text-anchor="start" x="43.52" y="-112" font-family="Courier,monospace" font-size="10.00" fill="dimgray">default_workflow_hook</text>
</a>
</g>
</a>
</g>
</g>
<!-- goal_expansion/2 -->
<g id="node1" class="node">
<title>goal_expansion/2</title>
<g id="a_node1"><a xlink:href="https://github.com/LogtalkDotOrg/logtalk3/tree/52499839a0efa4b7b8c58914b07274a120ef7d4d/library/hook_objects/default_workflow_hook.lgt#L43" xlink:title="https://github.com/LogtalkDotOrg/logtalk3/tree/52499839a0efa4b7b8c58914b07274a120ef7d4d/library/hook_objects/default_workflow_hook.lgt#L43">
<polygon fill="cornsilk" stroke="black" points="322.03,-92 191.03,-92 191.03,-56 322.03,-56 322.03,-92"/>
<text text-anchor="start" x="199.33" y="-75.8" font-family="Courier,monospace" font-size="9.00"> </text>
<text text-anchor="start" x="204.22" y="-75.2" font-family="Courier,monospace" font-size="11.00">goal_expansion/2</text>
<text text-anchor="start" x="309.33" y="-75.8" font-family="Courier,monospace" font-size="9.00"> </text>
<text text-anchor="start" x="199.33" y="-65.8" font-family="Courier,monospace" font-size="9.00"> </text>
<text text-anchor="start" x="246.53" y="-66.4" font-family="Courier,monospace" font-size="7.00">local</text>
<text text-anchor="start" x="309.33" y="-65.8" font-family="Courier,monospace" font-size="9.00"> </text>
</a>
</g>
</g>
<!-- term_expansion/2 -->
<g id="node2" class="node">
<title>term_expansion/2</title>
<g id="a_node2"><a xlink:href="https://github.com/LogtalkDotOrg/logtalk3/tree/52499839a0efa4b7b8c58914b07274a120ef7d4d/library/hook_objects/default_workflow_hook.lgt#L40" xlink:title="https://github.com/LogtalkDotOrg/logtalk3/tree/52499839a0efa4b7b8c58914b07274a120ef7d4d/library/hook_objects/default_workflow_hook.lgt#L40">
<polygon fill="cornsilk" stroke="black" points="173.03,-92 42.03,-92 42.03,-56 173.03,-56 173.03,-92"/>
<text text-anchor="start" x="50.33" y="-75.8" font-family="Courier,monospace" font-size="9.00"> </text>
<text text-anchor="start" x="55.22" y="-75.2" font-family="Courier,monospace" font-size="11.00">term_expansion/2</text>
<text text-anchor="start" x="160.33" y="-75.8" font-family="Courier,monospace" font-size="9.00"> </text>
<text text-anchor="start" x="50.33" y="-65.8" font-family="Courier,monospace" font-size="9.00"> </text>
<text text-anchor="start" x="97.53" y="-66.4" font-family="Courier,monospace" font-size="7.00">local</text>
<text text-anchor="start" x="160.33" y="-65.8" font-family="Courier,monospace" font-size="9.00"> </text>
</a>
</g>
</g>
</g>
</svg>
