<?xml version="1.0" encoding="UTF-8" standalone="no"?>
<?xml-stylesheet href="diagrams.css" type="text/css"?>
<!DOCTYPE svg PUBLIC "-//W3C//DTD SVG 1.1//EN"
 "http://www.w3.org/Graphics/SVG/1.1/DTD/svg11.dtd">
<!-- Generated by graphviz version 10.0.1 (20240210.2158)
 -->
<!-- Title: default_integer_mutations_object Pages: 1 -->
<svg width="540pt" height="293pt"
 viewBox="72.00 72.00 468.00 221.00" xmlns="http://www.w3.org/2000/svg" xmlns:xlink="http://www.w3.org/1999/xlink">
<g id="graph0" class="graph" transform="scale(1 1) rotate(0) translate(76 217)">
<title>default_integer_mutations_object</title>
<polygon fill="white" stroke="none" points="-4,4 -4,-145 392,-145 392,4 -4,4"/>
<text text-anchor="start" x="8" y="-28.25" font-family="Monospace" font-size="10.00" fill="dimgray">Logtalk library</text>
<text text-anchor="start" x="8" y="-17" font-family="Monospace" font-size="10.00" fill="dimgray">Cross&#45;referencing diagram for object default_integer_mutations</text>
<text text-anchor="start" x="8" y="-5.75" font-family="Monospace" font-size="10.00" fill="dimgray">Generated on 2024&#45;03&#45;01, 16:52</text>
<g id="clust1" class="cluster">
<title>cluster_default_integer_mutations_object</title>
<g id="a_clust1"><a xlink:title="default_integer_mutations">
<path fill="snow" stroke="dimgray" d="M92,-49.75C92,-49.75 296,-49.75 296,-49.75 302,-49.75 308,-55.75 308,-61.75 308,-61.75 308,-121 308,-121 308,-127 302,-133 296,-133 296,-133 92,-133 92,-133 86,-133 80,-127 80,-121 80,-121 80,-61.75 80,-61.75 80,-55.75 86,-49.75 92,-49.75"/>
<g id="a_clust1_0"><a xlink:href="https://github.com/LogtalkDotOrg/logtalk3/tree/6db52cfdf2cbf07e5827d82755567e8510347ded/library/mutations/default_integer_mutations.lgt" xlink:title="https://github.com/LogtalkDotOrg/logtalk3/tree/6db52cfdf2cbf07e5827d82755567e8510347ded/library/mutations/default_integer_mutations.lgt">
<text text-anchor="start" x="92" y="-115.5" font-family="Monospace" font-size="10.00" fill="dimgray">default_integer_mutations</text>
</a>
</g>
</a>
</g>
</g>
<!-- mutations_store::mutation/4 -->
<g id="node1" class="node">
<title>mutations_store::mutation/4</title>
<g id="a_node1"><a xlink:href="https://github.com/LogtalkDotOrg/logtalk3/tree/6db52cfdf2cbf07e5827d82755567e8510347ded/library/mutations/default_integer_mutations.lgt#L41" xlink:title="https://github.com/LogtalkDotOrg/logtalk3/tree/6db52cfdf2cbf07e5827d82755567e8510347ded/library/mutations/default_integer_mutations.lgt#L41">
<polygon fill="skyblue" stroke="black" points="298,-95.75 90,-95.75 90,-59.75 298,-59.75 298,-95.75"/>
<text text-anchor="start" x="97.88" y="-78.58" font-family="Monospace" font-size="9.00"> </text>
<text text-anchor="start" x="102.88" y="-77.8" font-family="Monospace" font-size="11.00">mutations_store::mutation/4</text>
<text text-anchor="start" x="284.88" y="-78.58" font-family="Monospace" font-size="9.00"> </text>
<text text-anchor="start" x="97.88" y="-67.7" font-family="Monospace" font-size="9.00"> </text>
<text text-anchor="start" x="173.75" y="-69.22" font-family="Monospace" font-size="7.00">multifile</text>
<text text-anchor="start" x="284.88" y="-67.7" font-family="Monospace" font-size="9.00"> </text>
</a>
</g>
</g>
</g>
</svg>
