<?xml version="1.0" encoding="UTF-8" standalone="no"?>
<?xml-stylesheet href="diagrams.css" type="text/css"?>
<!DOCTYPE svg PUBLIC "-//W3C//DTD SVG 1.1//EN"
 "http://www.w3.org/Graphics/SVG/1.1/DTD/svg11.dtd">
<!-- Generated by graphviz version 11.0.0 (20240428.1522)
 -->
<!-- Title: default_compound_mutations_object Pages: 1 -->
<svg width="546pt" height="299pt"
 viewBox="72.00 72.00 474.00 227.00" xmlns="http://www.w3.org/2000/svg" xmlns:xlink="http://www.w3.org/1999/xlink">
<g id="graph0" class="graph" transform="scale(1 1) rotate(0) translate(76 223)">
<title>default_compound_mutations_object</title>
<polygon fill="white" stroke="none" points="-4,4 -4,-151 398,-151 398,4 -4,4"/>
<text text-anchor="start" x="8" y="-32.75" font-family="Monospace" font-size="10.00" fill="dimgray">Logtalk library</text>
<text text-anchor="start" x="8" y="-20" font-family="Monospace" font-size="10.00" fill="dimgray">Cross&#45;referencing diagram for object default_compound_mutations</text>
<text text-anchor="start" x="8" y="-7.25" font-family="Monospace" font-size="10.00" fill="dimgray">Generated on 2024&#45;06&#45;03, 22:52</text>
<g id="clust1" class="cluster">
<title>cluster_default_compound_mutations_object</title>
<g id="a_clust1"><a xlink:title="default_compound_mutations">
<path fill="snow" stroke="dimgray" d="M95,-54.25C95,-54.25 299,-54.25 299,-54.25 305,-54.25 311,-60.25 311,-66.25 311,-66.25 311,-127 311,-127 311,-133 305,-139 299,-139 299,-139 95,-139 95,-139 89,-139 83,-133 83,-127 83,-127 83,-66.25 83,-66.25 83,-60.25 89,-54.25 95,-54.25"/>
<g id="a_clust1_0"><a xlink:href="https://github.com/LogtalkDotOrg/logtalk3/tree/d5ac2821821f309e9e5a4c1180778113707abf06/library/mutations/default_compound_mutations.lgt" xlink:title="https://github.com/LogtalkDotOrg/logtalk3/tree/d5ac2821821f309e9e5a4c1180778113707abf06/library/mutations/default_compound_mutations.lgt">
<text text-anchor="start" x="95" y="-121.5" font-family="Monospace" font-size="10.00" fill="dimgray">default_compound_mutations</text>
</a>
</g>
</a>
</g>
</g>
<!-- mutations_store::mutation/4 -->
<g id="node1" class="node">
<title>mutations_store::mutation/4</title>
<g id="a_node1"><a xlink:href="https://github.com/LogtalkDotOrg/logtalk3/tree/d5ac2821821f309e9e5a4c1180778113707abf06/library/mutations/default_compound_mutations.lgt#L33" xlink:title="https://github.com/LogtalkDotOrg/logtalk3/tree/d5ac2821821f309e9e5a4c1180778113707abf06/library/mutations/default_compound_mutations.lgt#L33">
<polygon fill="skyblue" stroke="black" points="301,-100.25 93,-100.25 93,-64.25 301,-64.25 301,-100.25"/>
<text text-anchor="start" x="100.88" y="-84.83" font-family="Monospace" font-size="9.00"> </text>
<text text-anchor="start" x="105.88" y="-83.8" font-family="Monospace" font-size="11.00">mutations_store::mutation/4</text>
<text text-anchor="start" x="287.88" y="-84.83" font-family="Monospace" font-size="9.00"> </text>
<text text-anchor="start" x="100.88" y="-72.7" font-family="Monospace" font-size="9.00"> </text>
<text text-anchor="start" x="176.75" y="-73.6" font-family="Monospace" font-size="7.00">multifile</text>
<text text-anchor="start" x="287.88" y="-72.7" font-family="Monospace" font-size="9.00"> </text>
</a>
</g>
</g>
</g>
</svg>
