<?xml version="1.0" encoding="UTF-8" standalone="no"?>
<?xml-stylesheet href="diagrams.css" type="text/css"?>
<!DOCTYPE svg PUBLIC "-//W3C//DTD SVG 1.1//EN"
 "http://www.w3.org/Graphics/SVG/1.1/DTD/svg11.dtd">
<!-- Generated by graphviz version 9.0.0 (20230911.1827)
 -->
<!-- Title: default_compound_mutations_object Pages: 1 -->
<svg width="546pt" height="293pt"
 viewBox="72.00 72.00 474.00 221.00" xmlns="http://www.w3.org/2000/svg" xmlns:xlink="http://www.w3.org/1999/xlink">
<g id="graph0" class="graph" transform="scale(1 1) rotate(0) translate(76 217)">
<title>default_compound_mutations_object</title>
<polygon fill="white" stroke="none" points="-4,4 -4,-145 398,-145 398,4 -4,4"/>
<text text-anchor="start" x="8" y="-28.25" font-family="Monospace" font-size="10.00" fill="dimgray">Logtalk library</text>
<text text-anchor="start" x="8" y="-17" font-family="Monospace" font-size="10.00" fill="dimgray">Cross&#45;referencing diagram for object default_compound_mutations</text>
<text text-anchor="start" x="8" y="-5.75" font-family="Monospace" font-size="10.00" fill="dimgray">Generated on 2023&#45;12&#45;10, 18:33</text>
<g id="clust1" class="cluster">
<title>cluster_default_compound_mutations_object</title>
<g id="a_clust1"><a xlink:title="default_compound_mutations">
<path fill="snow" stroke="dimgray" d="M95,-49.75C95,-49.75 299,-49.75 299,-49.75 305,-49.75 311,-55.75 311,-61.75 311,-61.75 311,-121 311,-121 311,-127 305,-133 299,-133 299,-133 95,-133 95,-133 89,-133 83,-127 83,-121 83,-121 83,-61.75 83,-61.75 83,-55.75 89,-49.75 95,-49.75"/>
<g id="a_clust1_0"><a xlink:href="https://github.com/LogtalkDotOrg/logtalk3/tree/7cec2429f209d86910ca23f865e7887e013c4610/library/mutations/default_compound_mutations.lgt" xlink:title="https://github.com/LogtalkDotOrg/logtalk3/tree/7cec2429f209d86910ca23f865e7887e013c4610/library/mutations/default_compound_mutations.lgt">
<text text-anchor="start" x="95" y="-115.5" font-family="Monospace" font-size="10.00" fill="dimgray">default_compound_mutations</text>
</a>
</g>
</a>
</g>
</g>
<!-- mutations_store::mutation/4 -->
<g id="node1" class="node">
<title>mutations_store::mutation/4</title>
<g id="a_node1"><a xlink:href="https://github.com/LogtalkDotOrg/logtalk3/tree/7cec2429f209d86910ca23f865e7887e013c4610/library/mutations/default_compound_mutations.lgt#L33" xlink:title="https://github.com/LogtalkDotOrg/logtalk3/tree/7cec2429f209d86910ca23f865e7887e013c4610/library/mutations/default_compound_mutations.lgt#L33">
<polygon fill="skyblue" stroke="black" points="301,-95.75 93,-95.75 93,-59.75 301,-59.75 301,-95.75"/>
<text text-anchor="start" x="100.88" y="-78.58" font-family="Monospace" font-size="9.00"> </text>
<text text-anchor="start" x="105.88" y="-77.8" font-family="Monospace" font-size="11.00">mutations_store::mutation/4</text>
<text text-anchor="start" x="287.88" y="-78.58" font-family="Monospace" font-size="9.00"> </text>
<text text-anchor="start" x="100.88" y="-67.7" font-family="Monospace" font-size="9.00"> </text>
<text text-anchor="start" x="176.75" y="-69.22" font-family="Monospace" font-size="7.00">multifile</text>
<text text-anchor="start" x="287.88" y="-67.7" font-family="Monospace" font-size="9.00"> </text>
</a>
</g>
</g>
</g>
</svg>
