<?xml version="1.0" encoding="UTF-8" standalone="no"?>
<?xml-stylesheet href="diagrams.css" type="text/css"?>
<!DOCTYPE svg PUBLIC "-//W3C//DTD SVG 1.1//EN"
 "http://www.w3.org/Graphics/SVG/1.1/DTD/svg11.dtd">
<!-- Generated by graphviz version 12.2.0 (20241103.1931)
 -->
<!-- Title: default_integer_mutations_object Pages: 1 -->
<svg width="540pt" height="299pt"
 viewBox="72.00 72.00 468.00 227.00" xmlns="http://www.w3.org/2000/svg" xmlns:xlink="http://www.w3.org/1999/xlink">
<g id="graph0" class="graph" transform="scale(1 1) rotate(0) translate(76 223)">
<title>default_integer_mutations_object</title>
<polygon fill="white" stroke="none" points="-4,4 -4,-151 392,-151 392,4 -4,4"/>
<text text-anchor="start" x="8" y="-32.75" font-family="Monospace" font-size="10.00" fill="dimgray">Logtalk library</text>
<text text-anchor="start" x="8" y="-20" font-family="Monospace" font-size="10.00" fill="dimgray">Cross&#45;referencing diagram for object default_integer_mutations</text>
<text text-anchor="start" x="8" y="-7.25" font-family="Monospace" font-size="10.00" fill="dimgray">Generated on 2024&#45;11&#45;11, 15:15</text>
<g id="clust1" class="cluster">
<title>cluster_default_integer_mutations_object</title>
<g id="a_clust1"><a xlink:title="default_integer_mutations">
<path fill="snow" stroke="dimgray" d="M92,-54.25C92,-54.25 296,-54.25 296,-54.25 302,-54.25 308,-60.25 308,-66.25 308,-66.25 308,-127 308,-127 308,-133 302,-139 296,-139 296,-139 92,-139 92,-139 86,-139 80,-133 80,-127 80,-127 80,-66.25 80,-66.25 80,-60.25 86,-54.25 92,-54.25"/>
<g id="a_clust1_0"><a xlink:href="https://github.com/LogtalkDotOrg/logtalk3/tree/39086e612cfdf324ebf506adda1d05c12698cfcf/library/mutations/default_integer_mutations.lgt" xlink:title="https://github.com/LogtalkDotOrg/logtalk3/tree/39086e612cfdf324ebf506adda1d05c12698cfcf/library/mutations/default_integer_mutations.lgt">
<text text-anchor="start" x="92" y="-121.5" font-family="Monospace" font-size="10.00" fill="dimgray">default_integer_mutations</text>
</a>
</g>
</a>
</g>
</g>
<!-- mutations_store::mutation/4 -->
<g id="node1" class="node">
<title>mutations_store::mutation/4</title>
<g id="a_node1"><a xlink:href="https://github.com/LogtalkDotOrg/logtalk3/tree/39086e612cfdf324ebf506adda1d05c12698cfcf/library/mutations/default_integer_mutations.lgt#L41" xlink:title="https://github.com/LogtalkDotOrg/logtalk3/tree/39086e612cfdf324ebf506adda1d05c12698cfcf/library/mutations/default_integer_mutations.lgt#L41">
<polygon fill="skyblue" stroke="black" points="298.38,-100.25 89.62,-100.25 89.62,-64.25 298.38,-64.25 298.38,-100.25"/>
<text text-anchor="start" x="97.62" y="-84.95" font-family="Monospace" font-size="9.00"> </text>
<text text-anchor="start" x="102.88" y="-84.17" font-family="Monospace" font-size="11.00">mutations_store::mutation/4</text>
<text text-anchor="start" x="285.12" y="-84.95" font-family="Monospace" font-size="9.00"> </text>
<text text-anchor="start" x="97.62" y="-72.58" font-family="Monospace" font-size="9.00"> </text>
<text text-anchor="start" x="173.75" y="-73.35" font-family="Monospace" font-size="7.00">multifile</text>
<text text-anchor="start" x="285.12" y="-72.58" font-family="Monospace" font-size="9.00"> </text>
</a>
</g>
</g>
</g>
</svg>
