<?xml version="1.0" encoding="UTF-8" standalone="no"?>
<?xml-stylesheet href="diagrams.css" type="text/css"?>
<!DOCTYPE svg PUBLIC "-//W3C//DTD SVG 1.1//EN"
 "http://www.w3.org/Graphics/SVG/1.1/DTD/svg11.dtd">
<!-- Generated by graphviz version 11.0.0 (20240428.1522)
 -->
<!-- Title: default_list_mutations_object Pages: 1 -->
<svg width="522pt" height="418pt"
 viewBox="72.00 72.00 450.00 346.25" xmlns="http://www.w3.org/2000/svg" xmlns:xlink="http://www.w3.org/1999/xlink">
<g id="graph0" class="graph" transform="scale(1 1) rotate(0) translate(76 342.25)">
<title>default_list_mutations_object</title>
<polygon fill="white" stroke="none" points="-4,4 -4,-270.25 374,-270.25 374,4 -4,4"/>
<text text-anchor="start" x="8" y="-32.75" font-family="Monospace" font-size="10.00" fill="dimgray">Logtalk library</text>
<text text-anchor="start" x="8" y="-20" font-family="Monospace" font-size="10.00" fill="dimgray">Cross&#45;referencing diagram for object default_list_mutations</text>
<text text-anchor="start" x="8" y="-7.25" font-family="Monospace" font-size="10.00" fill="dimgray">Generated on 2024&#45;06&#45;20, 10:35</text>
<g id="clust1" class="cluster">
<title>cluster_default_list_mutations_object</title>
<g id="a_clust1"><a xlink:title="default_list_mutations">
<path fill="snow" stroke="dimgray" d="M83,-54.25C83,-54.25 287,-54.25 287,-54.25 293,-54.25 299,-60.25 299,-66.25 299,-66.25 299,-246.25 299,-246.25 299,-252.25 293,-258.25 287,-258.25 287,-258.25 83,-258.25 83,-258.25 77,-258.25 71,-252.25 71,-246.25 71,-246.25 71,-66.25 71,-66.25 71,-60.25 77,-54.25 83,-54.25"/>
<g id="a_clust1_0"><a xlink:href="https://github.com/LogtalkDotOrg/logtalk3/tree/00053136fb67b2d7b9366128a8777de205dc737e/library/mutations/default_list_mutations.lgt" xlink:title="https://github.com/LogtalkDotOrg/logtalk3/tree/00053136fb67b2d7b9366128a8777de205dc737e/library/mutations/default_list_mutations.lgt">
<text text-anchor="start" x="83" y="-240.75" font-family="Monospace" font-size="10.00" fill="dimgray">default_list_mutations</text>
</a>
</g>
</a>
</g>
</g>
<!-- type/2 -->
<g id="node1" class="node">
<title>type/2</title>
<g id="a_node1"><a xlink:href="https://github.com/LogtalkDotOrg/logtalk3/tree/00053136fb67b2d7b9366128a8777de205dc737e/library/mutations/default_list_mutations.lgt#L67" xlink:title="https://github.com/LogtalkDotOrg/logtalk3/tree/00053136fb67b2d7b9366128a8777de205dc737e/library/mutations/default_list_mutations.lgt#L67">
<polygon fill="cornsilk" stroke="black" points="218,-100.25 152,-100.25 152,-64.25 218,-64.25 218,-100.25"/>
<text text-anchor="start" x="159.88" y="-84.83" font-family="Monospace" font-size="9.00"> </text>
<text text-anchor="start" x="164.75" y="-83.8" font-family="Monospace" font-size="11.00">type/2</text>
<text text-anchor="start" x="204.88" y="-84.83" font-family="Monospace" font-size="9.00"> </text>
<text text-anchor="start" x="159.88" y="-72.7" font-family="Monospace" font-size="9.00"> </text>
<text text-anchor="start" x="173.75" y="-73.6" font-family="Monospace" font-size="7.00">local</text>
<text text-anchor="start" x="204.88" y="-72.7" font-family="Monospace" font-size="9.00"> </text>
</a>
</g>
</g>
<!-- mutations_store::mutation/4 -->
<g id="node2" class="node">
<title>mutations_store::mutation/4</title>
<g id="a_node2"><a xlink:href="https://github.com/LogtalkDotOrg/logtalk3/tree/00053136fb67b2d7b9366128a8777de205dc737e/library/mutations/default_list_mutations.lgt#L41" xlink:title="https://github.com/LogtalkDotOrg/logtalk3/tree/00053136fb67b2d7b9366128a8777de205dc737e/library/mutations/default_list_mutations.lgt#L41">
<polygon fill="skyblue" stroke="black" points="289,-219.5 81,-219.5 81,-183.5 289,-183.5 289,-219.5"/>
<text text-anchor="start" x="88.88" y="-204.07" font-family="Monospace" font-size="9.00"> </text>
<text text-anchor="start" x="93.88" y="-203.05" font-family="Monospace" font-size="11.00">mutations_store::mutation/4</text>
<text text-anchor="start" x="275.88" y="-204.07" font-family="Monospace" font-size="9.00"> </text>
<text text-anchor="start" x="88.88" y="-191.95" font-family="Monospace" font-size="9.00"> </text>
<text text-anchor="start" x="164.75" y="-192.85" font-family="Monospace" font-size="7.00">multifile</text>
<text text-anchor="start" x="275.88" y="-191.95" font-family="Monospace" font-size="9.00"> </text>
</a>
</g>
</g>
<!-- mutations_store::mutation/4&#45;&gt;type/2 -->
<g id="edge1" class="edge">
<title>mutations_store::mutation/4&#45;&gt;type/2</title>
<g id="a_edge1"><a xlink:href="https://github.com/LogtalkDotOrg/logtalk3/tree/00053136fb67b2d7b9366128a8777de205dc737e/library/mutations/default_list_mutations.lgt#L41" xlink:title="calls">
<path fill="none" stroke="black" d="M185,-183.2C185,-164.5 185,-134.37 185,-112.08"/>
<polygon fill="black" stroke="black" points="188.5,-112.14 185,-102.14 181.5,-112.14 188.5,-112.14"/>
</a>
</g>
<g id="a_edge1&#45;label"><a xlink:href="https://github.com/LogtalkDotOrg/logtalk3/tree/00053136fb67b2d7b9366128a8777de205dc737e/library/mutations/default_list_mutations.lgt#L41" xlink:title="https://github.com/LogtalkDotOrg/logtalk3/tree/00053136fb67b2d7b9366128a8777de205dc737e/library/mutations/default_list_mutations.lgt#L41">
<text text-anchor="start" x="185" y="-138.95" font-family="Monospace" font-size="9.00">calls</text>
</a>
</g>
</g>
</g>
</svg>
