<?xml version="1.0" encoding="UTF-8" standalone="no"?>
<?xml-stylesheet href="diagrams.css" type="text/css"?>
<!DOCTYPE svg PUBLIC "-//W3C//DTD SVG 1.1//EN"
 "http://www.w3.org/Graphics/SVG/1.1/DTD/svg11.dtd">
<!-- Generated by graphviz version 10.0.1 (20240210.2158)
 -->
<!-- Title: default_list_mutations_object Pages: 1 -->
<svg width="522pt" height="411pt"
 viewBox="72.00 72.00 450.00 338.75" xmlns="http://www.w3.org/2000/svg" xmlns:xlink="http://www.w3.org/1999/xlink">
<g id="graph0" class="graph" transform="scale(1 1) rotate(0) translate(76 334.75)">
<title>default_list_mutations_object</title>
<polygon fill="white" stroke="none" points="-4,4 -4,-262.75 374,-262.75 374,4 -4,4"/>
<text text-anchor="start" x="8" y="-28.25" font-family="Monospace" font-size="10.00" fill="dimgray">Logtalk library</text>
<text text-anchor="start" x="8" y="-17" font-family="Monospace" font-size="10.00" fill="dimgray">Cross&#45;referencing diagram for object default_list_mutations</text>
<text text-anchor="start" x="8" y="-5.75" font-family="Monospace" font-size="10.00" fill="dimgray">Generated on 2024&#45;02&#45;19, 20:01</text>
<g id="clust1" class="cluster">
<title>cluster_default_list_mutations_object</title>
<g id="a_clust1"><a xlink:title="default_list_mutations">
<path fill="snow" stroke="dimgray" d="M83,-49.75C83,-49.75 287,-49.75 287,-49.75 293,-49.75 299,-55.75 299,-61.75 299,-61.75 299,-238.75 299,-238.75 299,-244.75 293,-250.75 287,-250.75 287,-250.75 83,-250.75 83,-250.75 77,-250.75 71,-244.75 71,-238.75 71,-238.75 71,-61.75 71,-61.75 71,-55.75 77,-49.75 83,-49.75"/>
<g id="a_clust1_0"><a xlink:href="https://github.com/LogtalkDotOrg/logtalk3/tree/a6f88c98fc2d0765da91f95d3379d8715d1f66fc/library/mutations/default_list_mutations.lgt" xlink:title="https://github.com/LogtalkDotOrg/logtalk3/tree/a6f88c98fc2d0765da91f95d3379d8715d1f66fc/library/mutations/default_list_mutations.lgt">
<text text-anchor="start" x="83" y="-233.25" font-family="Monospace" font-size="10.00" fill="dimgray">default_list_mutations</text>
</a>
</g>
</a>
</g>
</g>
<!-- type/2 -->
<g id="node1" class="node">
<title>type/2</title>
<g id="a_node1"><a xlink:href="https://github.com/LogtalkDotOrg/logtalk3/tree/a6f88c98fc2d0765da91f95d3379d8715d1f66fc/library/mutations/default_list_mutations.lgt#L67" xlink:title="https://github.com/LogtalkDotOrg/logtalk3/tree/a6f88c98fc2d0765da91f95d3379d8715d1f66fc/library/mutations/default_list_mutations.lgt#L67">
<polygon fill="cornsilk" stroke="black" points="218,-95.75 152,-95.75 152,-59.75 218,-59.75 218,-95.75"/>
<text text-anchor="start" x="159.88" y="-78.58" font-family="Monospace" font-size="9.00"> </text>
<text text-anchor="start" x="164.75" y="-77.8" font-family="Monospace" font-size="11.00">type/2</text>
<text text-anchor="start" x="204.88" y="-78.58" font-family="Monospace" font-size="9.00"> </text>
<text text-anchor="start" x="159.88" y="-67.7" font-family="Monospace" font-size="9.00"> </text>
<text text-anchor="start" x="173.75" y="-69.22" font-family="Monospace" font-size="7.00">local</text>
<text text-anchor="start" x="204.88" y="-67.7" font-family="Monospace" font-size="9.00"> </text>
</a>
</g>
</g>
<!-- mutations_store::mutation/4 -->
<g id="node2" class="node">
<title>mutations_store::mutation/4</title>
<g id="a_node2"><a xlink:href="https://github.com/LogtalkDotOrg/logtalk3/tree/a6f88c98fc2d0765da91f95d3379d8715d1f66fc/library/mutations/default_list_mutations.lgt#L41" xlink:title="https://github.com/LogtalkDotOrg/logtalk3/tree/a6f88c98fc2d0765da91f95d3379d8715d1f66fc/library/mutations/default_list_mutations.lgt#L41">
<polygon fill="skyblue" stroke="black" points="289,-213.5 81,-213.5 81,-177.5 289,-177.5 289,-213.5"/>
<text text-anchor="start" x="88.88" y="-196.32" font-family="Monospace" font-size="9.00"> </text>
<text text-anchor="start" x="93.88" y="-195.55" font-family="Monospace" font-size="11.00">mutations_store::mutation/4</text>
<text text-anchor="start" x="275.88" y="-196.32" font-family="Monospace" font-size="9.00"> </text>
<text text-anchor="start" x="88.88" y="-185.45" font-family="Monospace" font-size="9.00"> </text>
<text text-anchor="start" x="164.75" y="-186.97" font-family="Monospace" font-size="7.00">multifile</text>
<text text-anchor="start" x="275.88" y="-185.45" font-family="Monospace" font-size="9.00"> </text>
</a>
</g>
</g>
<!-- mutations_store::mutation/4&#45;&gt;type/2 -->
<g id="edge1" class="edge">
<title>mutations_store::mutation/4&#45;&gt;type/2</title>
<g id="a_edge1"><a xlink:href="https://github.com/LogtalkDotOrg/logtalk3/tree/a6f88c98fc2d0765da91f95d3379d8715d1f66fc/library/mutations/default_list_mutations.lgt#L41" xlink:title="calls">
<path fill="none" stroke="black" d="M185,-177.17C185,-158.76 185,-129.35 185,-107.46"/>
<polygon fill="black" stroke="black" points="188.5,-107.71 185,-97.71 181.5,-107.71 188.5,-107.71"/>
</a>
</g>
<g id="a_edge1&#45;label"><a xlink:href="https://github.com/LogtalkDotOrg/logtalk3/tree/a6f88c98fc2d0765da91f95d3379d8715d1f66fc/library/mutations/default_list_mutations.lgt#L41" xlink:title="https://github.com/LogtalkDotOrg/logtalk3/tree/a6f88c98fc2d0765da91f95d3379d8715d1f66fc/library/mutations/default_list_mutations.lgt#L41">
<text text-anchor="start" x="185" y="-132.95" font-family="Monospace" font-size="9.00">calls</text>
</a>
</g>
</g>
</g>
</svg>
