<?xml version="1.0" encoding="UTF-8" standalone="no"?>
<?xml-stylesheet href="diagrams.css" type="text/css"?>
<!DOCTYPE svg PUBLIC "-//W3C//DTD SVG 1.1//EN"
 "http://www.w3.org/Graphics/SVG/1.1/DTD/svg11.dtd">
<!-- Generated by graphviz version 10.0.1 (20240210.2158)
 -->
<!-- Title: demodb_object Pages: 1 -->
<svg width="426pt" height="411pt"
 viewBox="72.00 72.00 354.00 338.75" xmlns="http://www.w3.org/2000/svg" xmlns:xlink="http://www.w3.org/1999/xlink">
<g id="graph0" class="graph" transform="scale(1 1) rotate(0) translate(76 334.75)">
<title>demodb_object</title>
<polygon fill="white" stroke="none" points="-4,4 -4,-262.75 278,-262.75 278,4 -4,4"/>
<text text-anchor="start" x="8" y="-28.25" font-family="Monospace" font-size="10.00" fill="dimgray">Logtalk third&#45;party contributions</text>
<text text-anchor="start" x="8" y="-17" font-family="Monospace" font-size="10.00" fill="dimgray">Cross&#45;referencing diagram for object demodb</text>
<text text-anchor="start" x="8" y="-5.75" font-family="Monospace" font-size="10.00" fill="dimgray">Generated on 2024&#45;03&#45;06, 15:15</text>
<g id="clust1" class="cluster">
<title>cluster_demodb_object</title>
<g id="a_clust1"><a xlink:title="demodb">
<path fill="snow" stroke="dimgray" d="M106,-49.75C106,-49.75 168,-49.75 168,-49.75 174,-49.75 180,-55.75 180,-61.75 180,-61.75 180,-238.75 180,-238.75 180,-244.75 174,-250.75 168,-250.75 168,-250.75 106,-250.75 106,-250.75 100,-250.75 94,-244.75 94,-238.75 94,-238.75 94,-61.75 94,-61.75 94,-55.75 100,-49.75 106,-49.75"/>
<g id="a_clust1_0"><a xlink:href="https://github.com/LogtalkDotOrg/logtalk3/tree/400acb949c8f424ade8f6e37c1e9acfa2fcaf84b/contributions/verdi_neruda/demodb.lgt" xlink:title="https://github.com/LogtalkDotOrg/logtalk3/tree/400acb949c8f424ade8f6e37c1e9acfa2fcaf84b/contributions/verdi_neruda/demodb.lgt">
<text text-anchor="start" x="106" y="-233.25" font-family="Monospace" font-size="10.00" fill="dimgray">demodb</text>
</a>
</g>
</a>
</g>
</g>
<!-- rule/3 -->
<g id="node1" class="node">
<title>rule/3</title>
<g id="a_node1"><a xlink:href="https://github.com/LogtalkDotOrg/logtalk3/tree/400acb949c8f424ade8f6e37c1e9acfa2fcaf84b/contributions/verdi_neruda/demodb.lgt#L40" xlink:title="https://github.com/LogtalkDotOrg/logtalk3/tree/400acb949c8f424ade8f6e37c1e9acfa2fcaf84b/contributions/verdi_neruda/demodb.lgt#L40">
<polygon fill="cornsilk" stroke="black" points="170,-95.75 104,-95.75 104,-59.75 170,-59.75 170,-95.75"/>
<text text-anchor="start" x="111.88" y="-78.58" font-family="Monospace" font-size="9.00"> </text>
<text text-anchor="start" x="116.75" y="-77.8" font-family="Monospace" font-size="11.00">rule/3</text>
<text text-anchor="start" x="156.88" y="-78.58" font-family="Monospace" font-size="9.00"> </text>
<text text-anchor="start" x="111.88" y="-67.7" font-family="Monospace" font-size="9.00"> </text>
<text text-anchor="start" x="125.75" y="-69.22" font-family="Monospace" font-size="7.00">local</text>
<text text-anchor="start" x="156.88" y="-67.7" font-family="Monospace" font-size="9.00"> </text>
</a>
</g>
</g>
<!-- rule/2 -->
<g id="node2" class="node">
<title>rule/2</title>
<g id="a_node2"><a xlink:href="https://github.com/LogtalkDotOrg/logtalk3/tree/400acb949c8f424ade8f6e37c1e9acfa2fcaf84b/contributions/verdi_neruda/demodb.lgt#L54" xlink:title="https://github.com/LogtalkDotOrg/logtalk3/tree/400acb949c8f424ade8f6e37c1e9acfa2fcaf84b/contributions/verdi_neruda/demodb.lgt#L54">
<polygon fill="cornsilk" stroke="black" points="170,-213.5 104,-213.5 104,-177.5 170,-177.5 170,-213.5"/>
<text text-anchor="start" x="111.88" y="-196.32" font-family="Monospace" font-size="9.00"> </text>
<text text-anchor="start" x="116.75" y="-195.55" font-family="Monospace" font-size="11.00">rule/2</text>
<text text-anchor="start" x="156.88" y="-196.32" font-family="Monospace" font-size="9.00"> </text>
<text text-anchor="start" x="111.88" y="-185.45" font-family="Monospace" font-size="9.00"> </text>
<text text-anchor="start" x="125.75" y="-186.97" font-family="Monospace" font-size="7.00">local</text>
<text text-anchor="start" x="156.88" y="-185.45" font-family="Monospace" font-size="9.00"> </text>
</a>
</g>
</g>
<!-- rule/2&#45;&gt;rule/3 -->
<g id="edge1" class="edge">
<title>rule/2&#45;&gt;rule/3</title>
<g id="a_edge1"><a xlink:href="https://github.com/LogtalkDotOrg/logtalk3/tree/400acb949c8f424ade8f6e37c1e9acfa2fcaf84b/contributions/verdi_neruda/demodb.lgt#L54" xlink:title="calls">
<path fill="none" stroke="black" d="M137,-177.17C137,-158.76 137,-129.35 137,-107.46"/>
<polygon fill="black" stroke="black" points="140.5,-107.71 137,-97.71 133.5,-107.71 140.5,-107.71"/>
</a>
</g>
<g id="a_edge1&#45;label"><a xlink:href="https://github.com/LogtalkDotOrg/logtalk3/tree/400acb949c8f424ade8f6e37c1e9acfa2fcaf84b/contributions/verdi_neruda/demodb.lgt#L54" xlink:title="https://github.com/LogtalkDotOrg/logtalk3/tree/400acb949c8f424ade8f6e37c1e9acfa2fcaf84b/contributions/verdi_neruda/demodb.lgt#L54">
<text text-anchor="start" x="137" y="-132.95" font-family="Monospace" font-size="9.00">calls</text>
</a>
</g>
</g>
</g>
</svg>
