<?xml version="1.0" encoding="UTF-8" standalone="no"?>
<?xml-stylesheet href="diagrams.css" type="text/css"?>
<!DOCTYPE svg PUBLIC "-//W3C//DTD SVG 1.1//EN"
 "http://www.w3.org/Graphics/SVG/1.1/DTD/svg11.dtd">
<!-- Generated by graphviz version 2.49.3 (20211023.0002)
 -->
<!-- Title: demodb_object Pages: 1 -->
<svg width="383pt" height="410pt"
 viewBox="72.00 72.00 311.00 338.00" xmlns="http://www.w3.org/2000/svg" xmlns:xlink="http://www.w3.org/1999/xlink">
<g id="graph0" class="graph" transform="scale(1 1) rotate(0) translate(76 334)">
<title>demodb_object</title>
<polygon fill="white" stroke="transparent" points="-4,4 -4,-262 235,-262 235,4 -4,4"/>
<text text-anchor="start" x="8" y="-29" font-family="Courier,monospace" font-size="10.00" fill="dimgray">Logtalk third&#45;party contributions</text>
<text text-anchor="start" x="8" y="-18" font-family="Courier,monospace" font-size="10.00" fill="dimgray">Cross&#45;referencing diagram for object demodb</text>
<text text-anchor="start" x="8" y="-7" font-family="Courier,monospace" font-size="10.00" fill="dimgray">Generated on 2021&#45;11&#45;17, 12:12</text>
<g id="clust1" class="cluster">
<title>cluster_demodb_object</title>
<g id="a_clust1"><a xlink:title="demodb">
<path fill="snow" stroke="dimgray" d="M87.5,-49C87.5,-49 143.5,-49 143.5,-49 149.5,-49 155.5,-55 155.5,-61 155.5,-61 155.5,-238 155.5,-238 155.5,-244 149.5,-250 143.5,-250 143.5,-250 87.5,-250 87.5,-250 81.5,-250 75.5,-244 75.5,-238 75.5,-238 75.5,-61 75.5,-61 75.5,-55 81.5,-49 87.5,-49"/>
<g id="a_clust1_0"><a xlink:href="https://github.com/LogtalkDotOrg/logtalk3/tree/071a8ea54f71195e9aec1568b51726f3a39ac6b5/contributions/verdi_neruda/demodb.lgt" xlink:title="https://github.com/LogtalkDotOrg/logtalk3/tree/071a8ea54f71195e9aec1568b51726f3a39ac6b5/contributions/verdi_neruda/demodb.lgt">
<text text-anchor="start" x="87.5" y="-233.5" font-family="Courier,monospace" font-size="10.00" fill="dimgray">demodb</text>
</a>
</g>
</a>
</g>
</g>
<!-- rule/3 -->
<g id="node1" class="node">
<title>rule/3</title>
<g id="a_node1"><a xlink:href="https://github.com/LogtalkDotOrg/logtalk3/tree/071a8ea54f71195e9aec1568b51726f3a39ac6b5/contributions/verdi_neruda/demodb.lgt#L40" xlink:title="https://github.com/LogtalkDotOrg/logtalk3/tree/071a8ea54f71195e9aec1568b51726f3a39ac6b5/contributions/verdi_neruda/demodb.lgt#L40">
<polygon fill="cornsilk" stroke="black" points="145,-95 86,-95 86,-59 145,-59 145,-95"/>
<text text-anchor="start" x="94.5" y="-79.8" font-family="Courier,monospace" font-size="9.00"> </text>
<text text-anchor="start" x="99.5" y="-79.2" font-family="Courier,monospace" font-size="11.00">rule/3</text>
<text text-anchor="start" x="132.5" y="-79.8" font-family="Courier,monospace" font-size="9.00"> </text>
<text text-anchor="start" x="94.5" y="-68.8" font-family="Courier,monospace" font-size="9.00"> </text>
<text text-anchor="start" x="107" y="-69.4" font-family="Courier,monospace" font-size="7.00">local</text>
<text text-anchor="start" x="132.5" y="-68.8" font-family="Courier,monospace" font-size="9.00"> </text>
</a>
</g>
</g>
<!-- rule/2 -->
<g id="node2" class="node">
<title>rule/2</title>
<g id="a_node2"><a xlink:href="https://github.com/LogtalkDotOrg/logtalk3/tree/071a8ea54f71195e9aec1568b51726f3a39ac6b5/contributions/verdi_neruda/demodb.lgt#L54" xlink:title="https://github.com/LogtalkDotOrg/logtalk3/tree/071a8ea54f71195e9aec1568b51726f3a39ac6b5/contributions/verdi_neruda/demodb.lgt#L54">
<polygon fill="cornsilk" stroke="black" points="145,-213 86,-213 86,-177 145,-177 145,-213"/>
<text text-anchor="start" x="94.5" y="-197.8" font-family="Courier,monospace" font-size="9.00"> </text>
<text text-anchor="start" x="99.5" y="-197.2" font-family="Courier,monospace" font-size="11.00">rule/2</text>
<text text-anchor="start" x="132.5" y="-197.8" font-family="Courier,monospace" font-size="9.00"> </text>
<text text-anchor="start" x="94.5" y="-186.8" font-family="Courier,monospace" font-size="9.00"> </text>
<text text-anchor="start" x="107" y="-187.4" font-family="Courier,monospace" font-size="7.00">local</text>
<text text-anchor="start" x="132.5" y="-186.8" font-family="Courier,monospace" font-size="9.00"> </text>
</a>
</g>
</g>
<!-- rule/2&#45;&gt;rule/3 -->
<g id="edge1" class="edge">
<title>rule/2&#45;&gt;rule/3</title>
<g id="a_edge1"><a xlink:href="https://github.com/LogtalkDotOrg/logtalk3/tree/071a8ea54f71195e9aec1568b51726f3a39ac6b5/contributions/verdi_neruda/demodb.lgt#L54" xlink:title="calls">
<path fill="none" stroke="black" d="M115.5,-176.88C115.5,-158.04 115.5,-127.47 115.5,-105.3"/>
<polygon fill="black" stroke="black" points="119,-105.19 115.5,-95.19 112,-105.19 119,-105.19"/>
</a>
</g>
<g id="a_edge1&#45;label"><a xlink:href="https://github.com/LogtalkDotOrg/logtalk3/tree/071a8ea54f71195e9aec1568b51726f3a39ac6b5/contributions/verdi_neruda/demodb.lgt#L54" xlink:title="https://github.com/LogtalkDotOrg/logtalk3/tree/071a8ea54f71195e9aec1568b51726f3a39ac6b5/contributions/verdi_neruda/demodb.lgt#L54">
<text text-anchor="start" x="115.5" y="-133.8" font-family="Courier,monospace" font-size="9.00">calls</text>
</a>
</g>
</g>
</g>
</svg>
