<?xml version="1.0" encoding="UTF-8" standalone="no"?>
<?xml-stylesheet href="diagrams.css" type="text/css"?>
<!DOCTYPE svg PUBLIC "-//W3C//DTD SVG 1.1//EN"
 "http://www.w3.org/Graphics/SVG/1.1/DTD/svg11.dtd">
<!-- Generated by graphviz version 12.2.1 (20241206.2353)
 -->
<!-- Title: demodb_object Pages: 1 -->
<svg width="426pt" height="418pt"
 viewBox="72.00 72.00 354.00 346.25" xmlns="http://www.w3.org/2000/svg" xmlns:xlink="http://www.w3.org/1999/xlink">
<g id="graph0" class="graph" transform="scale(1 1) rotate(0) translate(76 342.25)">
<title>demodb_object</title>
<polygon fill="white" stroke="none" points="-4,4 -4,-270.25 278,-270.25 278,4 -4,4"/>
<text text-anchor="start" x="8" y="-32.75" font-family="Monospace" font-size="10.00" fill="dimgray">Logtalk third&#45;party contributions</text>
<text text-anchor="start" x="8" y="-20" font-family="Monospace" font-size="10.00" fill="dimgray">Cross&#45;referencing diagram for object demodb</text>
<text text-anchor="start" x="8" y="-7.25" font-family="Monospace" font-size="10.00" fill="dimgray">Generated on 2025&#45;02&#45;20, 23:13</text>
<g id="clust1" class="cluster">
<title>cluster_demodb_object</title>
<g id="a_clust1"><a xlink:title="demodb">
<path fill="snow" stroke="dimgray" d="M105,-54.25C105,-54.25 169,-54.25 169,-54.25 175,-54.25 181,-60.25 181,-66.25 181,-66.25 181,-246.25 181,-246.25 181,-252.25 175,-258.25 169,-258.25 169,-258.25 105,-258.25 105,-258.25 99,-258.25 93,-252.25 93,-246.25 93,-246.25 93,-66.25 93,-66.25 93,-60.25 99,-54.25 105,-54.25"/>
<g id="a_clust1_0"><a xlink:href="https://github.com/LogtalkDotOrg/logtalk3/tree/ed9debec86ac16868672123cf20e6b303367b37a/contributions/verdi_neruda/demodb.lgt" xlink:title="https://github.com/LogtalkDotOrg/logtalk3/tree/ed9debec86ac16868672123cf20e6b303367b37a/contributions/verdi_neruda/demodb.lgt">
<text text-anchor="start" x="105" y="-240.75" font-family="Monospace" font-size="10.00" fill="dimgray">demodb</text>
</a>
</g>
</a>
</g>
</g>
<!-- rule/3 -->
<g id="node1" class="node">
<title>rule/3</title>
<g id="a_node1"><a xlink:href="https://github.com/LogtalkDotOrg/logtalk3/tree/ed9debec86ac16868672123cf20e6b303367b37a/contributions/verdi_neruda/demodb.lgt#L40" xlink:title="https://github.com/LogtalkDotOrg/logtalk3/tree/ed9debec86ac16868672123cf20e6b303367b37a/contributions/verdi_neruda/demodb.lgt#L40">
<polygon fill="cornsilk" stroke="black" points="170.5,-100.25 103.5,-100.25 103.5,-64.25 170.5,-64.25 170.5,-100.25"/>
<text text-anchor="start" x="111.5" y="-84.95" font-family="Monospace" font-size="9.00"> </text>
<text text-anchor="start" x="116.75" y="-84.17" font-family="Monospace" font-size="11.00">rule/3</text>
<text text-anchor="start" x="157.25" y="-84.95" font-family="Monospace" font-size="9.00"> </text>
<text text-anchor="start" x="111.5" y="-72.58" font-family="Monospace" font-size="9.00"> </text>
<text text-anchor="start" x="125.75" y="-73.35" font-family="Monospace" font-size="7.00">local</text>
<text text-anchor="start" x="157.25" y="-72.58" font-family="Monospace" font-size="9.00"> </text>
</a>
</g>
</g>
<!-- rule/2 -->
<g id="node2" class="node">
<title>rule/2</title>
<g id="a_node2"><a xlink:href="https://github.com/LogtalkDotOrg/logtalk3/tree/ed9debec86ac16868672123cf20e6b303367b37a/contributions/verdi_neruda/demodb.lgt#L54" xlink:title="https://github.com/LogtalkDotOrg/logtalk3/tree/ed9debec86ac16868672123cf20e6b303367b37a/contributions/verdi_neruda/demodb.lgt#L54">
<polygon fill="cornsilk" stroke="black" points="170.5,-219.5 103.5,-219.5 103.5,-183.5 170.5,-183.5 170.5,-219.5"/>
<text text-anchor="start" x="111.5" y="-204.2" font-family="Monospace" font-size="9.00"> </text>
<text text-anchor="start" x="116.75" y="-203.43" font-family="Monospace" font-size="11.00">rule/2</text>
<text text-anchor="start" x="157.25" y="-204.2" font-family="Monospace" font-size="9.00"> </text>
<text text-anchor="start" x="111.5" y="-191.82" font-family="Monospace" font-size="9.00"> </text>
<text text-anchor="start" x="125.75" y="-192.6" font-family="Monospace" font-size="7.00">local</text>
<text text-anchor="start" x="157.25" y="-191.82" font-family="Monospace" font-size="9.00"> </text>
</a>
</g>
</g>
<!-- rule/2&#45;&gt;rule/3 -->
<g id="edge1" class="edge">
<title>rule/2&#45;&gt;rule/3</title>
<g id="a_edge1"><a xlink:href="https://github.com/LogtalkDotOrg/logtalk3/tree/ed9debec86ac16868672123cf20e6b303367b37a/contributions/verdi_neruda/demodb.lgt#L54" xlink:title="calls">
<path fill="none" stroke="black" d="M137,-183.2C137,-164.5 137,-134.37 137,-112.08"/>
<polygon fill="black" stroke="black" points="140.5,-112.14 137,-102.14 133.5,-112.14 140.5,-112.14"/>
</a>
</g>
<g id="a_edge1&#45;label"><a xlink:href="https://github.com/LogtalkDotOrg/logtalk3/tree/ed9debec86ac16868672123cf20e6b303367b37a/contributions/verdi_neruda/demodb.lgt#L54" xlink:title="https://github.com/LogtalkDotOrg/logtalk3/tree/ed9debec86ac16868672123cf20e6b303367b37a/contributions/verdi_neruda/demodb.lgt#L54">
<text text-anchor="start" x="137" y="-138.95" font-family="Monospace" font-size="9.00">calls</text>
</a>
</g>
</g>
</g>
</svg>
