<?xml version="1.0" encoding="UTF-8" standalone="no"?>
<?xml-stylesheet href="diagrams.css" type="text/css"?>
<!DOCTYPE svg PUBLIC "-//W3C//DTD SVG 1.1//EN"
 "http://www.w3.org/Graphics/SVG/1.1/DTD/svg11.dtd">
<!-- Generated by graphviz version 2.50.0 (20211204.2007)
 -->
<!-- Title: demodb_object Pages: 1 -->
<svg width="427pt" height="410pt"
 viewBox="72.00 72.00 355.00 338.00" xmlns="http://www.w3.org/2000/svg" xmlns:xlink="http://www.w3.org/1999/xlink">
<g id="graph0" class="graph" transform="scale(1 1) rotate(0) translate(76 334)">
<title>demodb_object</title>
<polygon fill="white" stroke="transparent" points="-4,4 -4,-262 279,-262 279,4 -4,4"/>
<text text-anchor="start" x="8" y="-29" font-family="Monospace" font-size="10.00" fill="dimgray">Logtalk third&#45;party contributions</text>
<text text-anchor="start" x="8" y="-18" font-family="Monospace" font-size="10.00" fill="dimgray">Cross&#45;referencing diagram for object demodb</text>
<text text-anchor="start" x="8" y="-7" font-family="Monospace" font-size="10.00" fill="dimgray">Generated on 2022&#45;08&#45;18, 16:21</text>
<g id="clust1" class="cluster">
<title>cluster_demodb_object</title>
<g id="a_clust1"><a xlink:title="demodb">
<path fill="snow" stroke="dimgray" d="M104.5,-49C104.5,-49 170.5,-49 170.5,-49 176.5,-49 182.5,-55 182.5,-61 182.5,-61 182.5,-238 182.5,-238 182.5,-244 176.5,-250 170.5,-250 170.5,-250 104.5,-250 104.5,-250 98.5,-250 92.5,-244 92.5,-238 92.5,-238 92.5,-61 92.5,-61 92.5,-55 98.5,-49 104.5,-49"/>
<g id="a_clust1_0"><a xlink:href="https://github.com/LogtalkDotOrg/logtalk3/tree/07af43863457fce14a1db8fe3e021d42ed319773/contributions/verdi_neruda/demodb.lgt" xlink:title="https://github.com/LogtalkDotOrg/logtalk3/tree/07af43863457fce14a1db8fe3e021d42ed319773/contributions/verdi_neruda/demodb.lgt">
<text text-anchor="start" x="105" y="-233.5" font-family="Monospace" font-size="10.00" fill="dimgray">demodb</text>
</a>
</g>
</a>
</g>
</g>
<!-- rule/3 -->
<g id="node1" class="node">
<title>rule/3</title>
<g id="a_node1"><a xlink:href="https://github.com/LogtalkDotOrg/logtalk3/tree/07af43863457fce14a1db8fe3e021d42ed319773/contributions/verdi_neruda/demodb.lgt#L40" xlink:title="https://github.com/LogtalkDotOrg/logtalk3/tree/07af43863457fce14a1db8fe3e021d42ed319773/contributions/verdi_neruda/demodb.lgt#L40">
<polygon fill="cornsilk" stroke="black" points="172,-95 103,-95 103,-59 172,-59 172,-95"/>
<text text-anchor="start" x="111.5" y="-79.8" font-family="Monospace" font-size="9.00"> </text>
<text text-anchor="start" x="117.5" y="-79.2" font-family="Monospace" font-size="11.00">rule/3</text>
<text text-anchor="start" x="158.5" y="-79.8" font-family="Monospace" font-size="9.00"> </text>
<text text-anchor="start" x="111.5" y="-68.8" font-family="Monospace" font-size="9.00"> </text>
<text text-anchor="start" x="126.5" y="-69.4" font-family="Monospace" font-size="7.00">local</text>
<text text-anchor="start" x="158.5" y="-68.8" font-family="Monospace" font-size="9.00"> </text>
</a>
</g>
</g>
<!-- rule/2 -->
<g id="node2" class="node">
<title>rule/2</title>
<g id="a_node2"><a xlink:href="https://github.com/LogtalkDotOrg/logtalk3/tree/07af43863457fce14a1db8fe3e021d42ed319773/contributions/verdi_neruda/demodb.lgt#L54" xlink:title="https://github.com/LogtalkDotOrg/logtalk3/tree/07af43863457fce14a1db8fe3e021d42ed319773/contributions/verdi_neruda/demodb.lgt#L54">
<polygon fill="cornsilk" stroke="black" points="172,-213 103,-213 103,-177 172,-177 172,-213"/>
<text text-anchor="start" x="111.5" y="-197.8" font-family="Monospace" font-size="9.00"> </text>
<text text-anchor="start" x="117.5" y="-197.2" font-family="Monospace" font-size="11.00">rule/2</text>
<text text-anchor="start" x="158.5" y="-197.8" font-family="Monospace" font-size="9.00"> </text>
<text text-anchor="start" x="111.5" y="-186.8" font-family="Monospace" font-size="9.00"> </text>
<text text-anchor="start" x="126.5" y="-187.4" font-family="Monospace" font-size="7.00">local</text>
<text text-anchor="start" x="158.5" y="-186.8" font-family="Monospace" font-size="9.00"> </text>
</a>
</g>
</g>
<!-- rule/2&#45;&gt;rule/3 -->
<g id="edge1" class="edge">
<title>rule/2&#45;&gt;rule/3</title>
<g id="a_edge1"><a xlink:href="https://github.com/LogtalkDotOrg/logtalk3/tree/07af43863457fce14a1db8fe3e021d42ed319773/contributions/verdi_neruda/demodb.lgt#L54" xlink:title="calls">
<path fill="none" stroke="black" d="M137.5,-176.88C137.5,-158.04 137.5,-127.47 137.5,-105.3"/>
<polygon fill="black" stroke="black" points="141,-105.19 137.5,-95.19 134,-105.19 141,-105.19"/>
</a>
</g>
<g id="a_edge1&#45;label"><a xlink:href="https://github.com/LogtalkDotOrg/logtalk3/tree/07af43863457fce14a1db8fe3e021d42ed319773/contributions/verdi_neruda/demodb.lgt#L54" xlink:title="https://github.com/LogtalkDotOrg/logtalk3/tree/07af43863457fce14a1db8fe3e021d42ed319773/contributions/verdi_neruda/demodb.lgt#L54">
<text text-anchor="start" x="137.5" y="-133.8" font-family="Monospace" font-size="9.00">calls</text>
</a>
</g>
</g>
</g>
</svg>
