<?xml version="1.0" encoding="UTF-8" standalone="no"?>
<?xml-stylesheet href="diagrams.css" type="text/css"?>
<!DOCTYPE svg PUBLIC "-//W3C//DTD SVG 1.1//EN"
 "http://www.w3.org/Graphics/SVG/1.1/DTD/svg11.dtd">
<!-- Generated by graphviz version 2.40.1 (20161225.0304)
 -->
<!-- Title: demodb_object Pages: 1 -->
<svg width="427pt" height="484pt"
 viewBox="72.00 72.00 355.00 412.00" xmlns="http://www.w3.org/2000/svg" xmlns:xlink="http://www.w3.org/1999/xlink">
<g id="graph0" class="graph" transform="scale(1 1) rotate(0) translate(76 408)">
<title>demodb_object</title>
<polygon fill="#ffffff" stroke="transparent" points="-4,4 -4,-336 279,-336 279,4 -4,4"/>
<text text-anchor="start" x="8" y="-29" font-family="Monospace" font-size="10.00" fill="#696969">Logtalk third&#45;party contributions</text>
<text text-anchor="start" x="8" y="-18" font-family="Monospace" font-size="10.00" fill="#696969">Cross&#45;referencing diagram for object demodb</text>
<text text-anchor="start" x="8" y="-7" font-family="Monospace" font-size="10.00" fill="#696969">Generated on 2023&#45;01&#45;01, 23:40</text>
<g id="clust1" class="cluster">
<title>cluster_demodb_object</title>
<g id="a_clust1"><a xlink:title="demodb">
<path fill="#fffafa" stroke="#696969" d="M104.5,-49C104.5,-49 170.5,-49 170.5,-49 176.5,-49 182.5,-55 182.5,-61 182.5,-61 182.5,-312 182.5,-312 182.5,-318 176.5,-324 170.5,-324 170.5,-324 104.5,-324 104.5,-324 98.5,-324 92.5,-318 92.5,-312 92.5,-312 92.5,-61 92.5,-61 92.5,-55 98.5,-49 104.5,-49"/>
<g id="a_clust1_0"><a xlink:href="https://github.com/LogtalkDotOrg/logtalk3/tree/934aee98ed3bc6654f203177f74af1b33a85d94c/contributions/verdi_neruda/demodb.lgt" xlink:title="https://github.com/LogtalkDotOrg/logtalk3/tree/934aee98ed3bc6654f203177f74af1b33a85d94c/contributions/verdi_neruda/demodb.lgt">
<text text-anchor="start" x="105" y="-307.5" font-family="Monospace" font-size="10.00" fill="#696969">demodb</text>
</a>
</g>
</a>
</g>
</g>
<!-- rule/3 -->
<g id="node1" class="node">
<title>rule/3</title>
<g id="a_node1"><a xlink:href="https://github.com/LogtalkDotOrg/logtalk3/tree/934aee98ed3bc6654f203177f74af1b33a85d94c/contributions/verdi_neruda/demodb.lgt#L40" xlink:title="https://github.com/LogtalkDotOrg/logtalk3/tree/934aee98ed3bc6654f203177f74af1b33a85d94c/contributions/verdi_neruda/demodb.lgt#L40">
<polygon fill="#fff8dc" stroke="#000000" points="172,-95 103,-95 103,-59 172,-59 172,-95"/>
<text text-anchor="start" x="111.5" y="-79.8" font-family="Monospace" font-size="9.00" fill="#000000"> </text>
<text text-anchor="start" x="117.5" y="-79.2" font-family="Monospace" font-size="11.00" fill="#000000">rule/3</text>
<text text-anchor="start" x="158.5" y="-79.8" font-family="Monospace" font-size="9.00" fill="#000000"> </text>
<text text-anchor="start" x="111.5" y="-68.8" font-family="Monospace" font-size="9.00" fill="#000000"> </text>
<text text-anchor="start" x="126.5" y="-69.4" font-family="Monospace" font-size="7.00" fill="#000000">local</text>
<text text-anchor="start" x="158.5" y="-68.8" font-family="Monospace" font-size="9.00" fill="#000000"> </text>
</a>
</g>
</g>
<!-- rule/2 -->
<g id="node2" class="node">
<title>rule/2</title>
<g id="a_node2"><a xlink:href="https://github.com/LogtalkDotOrg/logtalk3/tree/934aee98ed3bc6654f203177f74af1b33a85d94c/contributions/verdi_neruda/demodb.lgt#L54" xlink:title="https://github.com/LogtalkDotOrg/logtalk3/tree/934aee98ed3bc6654f203177f74af1b33a85d94c/contributions/verdi_neruda/demodb.lgt#L54">
<polygon fill="#fff8dc" stroke="#000000" points="172,-287 103,-287 103,-251 172,-251 172,-287"/>
<text text-anchor="start" x="111.5" y="-271.8" font-family="Monospace" font-size="9.00" fill="#000000"> </text>
<text text-anchor="start" x="117.5" y="-271.2" font-family="Monospace" font-size="11.00" fill="#000000">rule/2</text>
<text text-anchor="start" x="158.5" y="-271.8" font-family="Monospace" font-size="9.00" fill="#000000"> </text>
<text text-anchor="start" x="111.5" y="-260.8" font-family="Monospace" font-size="9.00" fill="#000000"> </text>
<text text-anchor="start" x="126.5" y="-261.4" font-family="Monospace" font-size="7.00" fill="#000000">local</text>
<text text-anchor="start" x="158.5" y="-260.8" font-family="Monospace" font-size="9.00" fill="#000000"> </text>
</a>
</g>
</g>
<!-- rule/2&#45;&gt;rule/3 -->
<g id="edge1" class="edge">
<title>rule/2&#45;&gt;rule/3</title>
<g id="a_edge1"><a xlink:href="https://github.com/LogtalkDotOrg/logtalk3/tree/934aee98ed3bc6654f203177f74af1b33a85d94c/contributions/verdi_neruda/demodb.lgt#L54" xlink:title="calls">
<path fill="none" stroke="#000000" d="M137.5,-250.9371C137.5,-217.4168 137.5,-145.3617 137.5,-105.3098"/>
<polygon fill="#000000" stroke="#000000" points="141.0001,-105.1547 137.5,-95.1548 134.0001,-105.1548 141.0001,-105.1547"/>
</a>
</g>
<g id="a_edge1&#45;label"><a xlink:href="https://github.com/LogtalkDotOrg/logtalk3/tree/934aee98ed3bc6654f203177f74af1b33a85d94c/contributions/verdi_neruda/demodb.lgt#L54" xlink:title="https://github.com/LogtalkDotOrg/logtalk3/tree/934aee98ed3bc6654f203177f74af1b33a85d94c/contributions/verdi_neruda/demodb.lgt#L54">
<text text-anchor="start" x="137.5" y="-170.8" font-family="Monospace" font-size="9.00" fill="#000000">calls</text>
</a>
</g>
</g>
</g>
</svg>
