<?xml version="1.0" encoding="UTF-8" standalone="no"?>
<!DOCTYPE svg PUBLIC "-//W3C//DTD SVG 1.1//EN"
 "http://www.w3.org/Graphics/SVG/1.1/DTD/svg11.dtd">
<!-- Generated by graphviz version 2.40.1 (20161225.0304)
 -->
<!-- Title: demodb_object Pages: 1 -->
<svg width="367pt" height="514pt"
 viewBox="72.00 72.00 295.00 441.85" xmlns="http://www.w3.org/2000/svg" xmlns:xlink="http://www.w3.org/1999/xlink">
<g id="graph0" class="graph" transform="scale(1 1) rotate(0) translate(76 437.8528)">
<title>demodb_object</title>
<polygon fill="#ffffff" stroke="transparent" points="-4,4 -4,-365.8528 219,-365.8528 219,4 -4,4"/>
<text text-anchor="start" x="8" y="-18" font-family="Courier,monospace" font-size="10.00" fill="#8b8989">Logtalk third&#45;party contributions</text>
<text text-anchor="start" x="8" y="-7" font-family="Courier,monospace" font-size="10.00" fill="#8b8989">Generated on 2019/04/08, 18:41</text>
<g id="clust1" class="cluster">
<title>cluster_demodb_object</title>
<g id="a_clust1"><a xlink:href="https://github.com/LogtalkDotOrg/logtalk3/tree/master/contributions/verdi_neruda/demodb.lgt" xlink:title="https://github.com/LogtalkDotOrg/logtalk3/tree/master/contributions/verdi_neruda/demodb.lgt">
<path fill="#fffafa" stroke="#8b8989" d="M61.5,-38C61.5,-38 153.5,-38 153.5,-38 159.5,-38 165.5,-44 165.5,-50 165.5,-50 165.5,-341.8528 165.5,-341.8528 165.5,-347.8528 159.5,-353.8528 153.5,-353.8528 153.5,-353.8528 61.5,-353.8528 61.5,-353.8528 55.5,-353.8528 49.5,-347.8528 49.5,-341.8528 49.5,-341.8528 49.5,-50 49.5,-50 49.5,-44 55.5,-38 61.5,-38"/>
<text text-anchor="middle" x="76" y="-341.8528" font-family="Courier,monospace" font-size="10.00" fill="#8b8989">demodb</text>
</a>
</g>
</g>
<!-- rule/3 -->
<g id="node1" class="node">
<title>rule/3</title>
<ellipse fill="#f5f5dc" stroke="#000000" cx="107.5" cy="-69.2132" rx="48.1667" ry="21.4286"/>
<text text-anchor="start" x="81.5" y="-72.0132" font-family="Courier,monospace" font-size="9.00" fill="#000000"> </text>
<text text-anchor="start" x="87.5" y="-71.4132" font-family="Courier,monospace" font-size="11.00" fill="#000000">rule/3</text>
<text text-anchor="start" x="127.5" y="-72.0132" font-family="Courier,monospace" font-size="9.00" fill="#000000"> </text>
<text text-anchor="start" x="81.5" y="-61.0132" font-family="Courier,monospace" font-size="9.00" fill="#000000"> </text>
<text text-anchor="start" x="96.5" y="-61.6132" font-family="Courier,monospace" font-size="7.00" fill="#000000">local</text>
<text text-anchor="start" x="127.5" y="-61.0132" font-family="Courier,monospace" font-size="9.00" fill="#000000"> </text>
</g>
<!-- rule/2 -->
<g id="node2" class="node">
<title>rule/2</title>
<ellipse fill="#f5f5dc" stroke="#000000" cx="107.5" cy="-303.6396" rx="48.1667" ry="21.4286"/>
<text text-anchor="start" x="81.5" y="-306.4396" font-family="Courier,monospace" font-size="9.00" fill="#000000"> </text>
<text text-anchor="start" x="87.5" y="-305.8396" font-family="Courier,monospace" font-size="11.00" fill="#000000">rule/2</text>
<text text-anchor="start" x="127.5" y="-306.4396" font-family="Courier,monospace" font-size="9.00" fill="#000000"> </text>
<text text-anchor="start" x="81.5" y="-295.4396" font-family="Courier,monospace" font-size="9.00" fill="#000000"> </text>
<text text-anchor="start" x="96.5" y="-296.0396" font-family="Courier,monospace" font-size="7.00" fill="#000000">local</text>
<text text-anchor="start" x="127.5" y="-295.4396" font-family="Courier,monospace" font-size="9.00" fill="#000000"> </text>
</g>
<!-- rule/2&#45;&gt;rule/3 -->
<g id="edge1" class="edge">
<title>rule/2&#45;&gt;rule/3</title>
<g id="a_edge1"><a xlink:href="https://github.com/LogtalkDotOrg/logtalk3/tree/master/contributions/verdi_neruda/demodb.lgt#L21" xlink:title="calls">
<path fill="none" stroke="#000000" d="M107.5,-282.4224C107.5,-241.5549 107.5,-151.638 107.5,-102.642"/>
<polygon fill="#000000" stroke="#000000" points="107.5001,-102.5514 103.5,-96.5514 107.5,-90.5514 107.5001,-102.5514"/>
</a>
</g>
<g id="a_edge1&#45;label"><a xlink:href="https://github.com/LogtalkDotOrg/logtalk3/tree/master/contributions/verdi_neruda/demodb.lgt#L21" xlink:title="https://github.com/LogtalkDotOrg/logtalk3/tree/master/contributions/verdi_neruda/demodb.lgt#L21">
<text text-anchor="start" x="107.5" y="-184.2264" font-family="Courier,monospace" font-size="9.00" fill="#000000">calls</text>
</a>
</g>
</g>
</g>
</svg>
