<?xml version="1.0" encoding="UTF-8" standalone="no"?>
<?xml-stylesheet href="diagrams.css" type="text/css"?>
<!DOCTYPE svg PUBLIC "-//W3C//DTD SVG 1.1//EN"
 "http://www.w3.org/Graphics/SVG/1.1/DTD/svg11.dtd">
<!-- Generated by graphviz version 12.1.2 (20240928.0832)
 -->
<!-- Title: demodb_object Pages: 1 -->
<svg width="426pt" height="418pt"
 viewBox="72.00 72.00 354.00 346.25" xmlns="http://www.w3.org/2000/svg" xmlns:xlink="http://www.w3.org/1999/xlink">
<g id="graph0" class="graph" transform="scale(1 1) rotate(0) translate(76 342.25)">
<title>demodb_object</title>
<polygon fill="white" stroke="none" points="-4,4 -4,-270.25 278,-270.25 278,4 -4,4"/>
<text text-anchor="start" x="8" y="-32.75" font-family="Monospace" font-size="10.00" fill="dimgray">Logtalk third&#45;party contributions</text>
<text text-anchor="start" x="8" y="-20" font-family="Monospace" font-size="10.00" fill="dimgray">Cross&#45;referencing diagram for object demodb</text>
<text text-anchor="start" x="8" y="-7.25" font-family="Monospace" font-size="10.00" fill="dimgray">Generated on 2024&#45;10&#45;15, 14:54</text>
<g id="clust1" class="cluster">
<title>cluster_demodb_object</title>
<g id="a_clust1"><a xlink:title="demodb">
<path fill="snow" stroke="dimgray" d="M106,-54.25C106,-54.25 168,-54.25 168,-54.25 174,-54.25 180,-60.25 180,-66.25 180,-66.25 180,-246.25 180,-246.25 180,-252.25 174,-258.25 168,-258.25 168,-258.25 106,-258.25 106,-258.25 100,-258.25 94,-252.25 94,-246.25 94,-246.25 94,-66.25 94,-66.25 94,-60.25 100,-54.25 106,-54.25"/>
<g id="a_clust1_0"><a xlink:href="https://github.com/LogtalkDotOrg/logtalk3/tree/972d391f51477be3cfa7a76b93965ee625e8ad4f/contributions/verdi_neruda/demodb.lgt" xlink:title="https://github.com/LogtalkDotOrg/logtalk3/tree/972d391f51477be3cfa7a76b93965ee625e8ad4f/contributions/verdi_neruda/demodb.lgt">
<text text-anchor="start" x="106" y="-240.75" font-family="Monospace" font-size="10.00" fill="dimgray">demodb</text>
</a>
</g>
</a>
</g>
</g>
<!-- rule/3 -->
<g id="node1" class="node">
<title>rule/3</title>
<g id="a_node1"><a xlink:href="https://github.com/LogtalkDotOrg/logtalk3/tree/972d391f51477be3cfa7a76b93965ee625e8ad4f/contributions/verdi_neruda/demodb.lgt#L40" xlink:title="https://github.com/LogtalkDotOrg/logtalk3/tree/972d391f51477be3cfa7a76b93965ee625e8ad4f/contributions/verdi_neruda/demodb.lgt#L40">
<polygon fill="cornsilk" stroke="black" points="170,-100.25 104,-100.25 104,-64.25 170,-64.25 170,-100.25"/>
<text text-anchor="start" x="111.88" y="-84.83" font-family="Monospace" font-size="9.00"> </text>
<text text-anchor="start" x="116.75" y="-83.8" font-family="Monospace" font-size="11.00">rule/3</text>
<text text-anchor="start" x="156.88" y="-84.83" font-family="Monospace" font-size="9.00"> </text>
<text text-anchor="start" x="111.88" y="-72.7" font-family="Monospace" font-size="9.00"> </text>
<text text-anchor="start" x="125.75" y="-73.6" font-family="Monospace" font-size="7.00">local</text>
<text text-anchor="start" x="156.88" y="-72.7" font-family="Monospace" font-size="9.00"> </text>
</a>
</g>
</g>
<!-- rule/2 -->
<g id="node2" class="node">
<title>rule/2</title>
<g id="a_node2"><a xlink:href="https://github.com/LogtalkDotOrg/logtalk3/tree/972d391f51477be3cfa7a76b93965ee625e8ad4f/contributions/verdi_neruda/demodb.lgt#L54" xlink:title="https://github.com/LogtalkDotOrg/logtalk3/tree/972d391f51477be3cfa7a76b93965ee625e8ad4f/contributions/verdi_neruda/demodb.lgt#L54">
<polygon fill="cornsilk" stroke="black" points="170,-219.5 104,-219.5 104,-183.5 170,-183.5 170,-219.5"/>
<text text-anchor="start" x="111.88" y="-204.07" font-family="Monospace" font-size="9.00"> </text>
<text text-anchor="start" x="116.75" y="-203.05" font-family="Monospace" font-size="11.00">rule/2</text>
<text text-anchor="start" x="156.88" y="-204.07" font-family="Monospace" font-size="9.00"> </text>
<text text-anchor="start" x="111.88" y="-191.95" font-family="Monospace" font-size="9.00"> </text>
<text text-anchor="start" x="125.75" y="-192.85" font-family="Monospace" font-size="7.00">local</text>
<text text-anchor="start" x="156.88" y="-191.95" font-family="Monospace" font-size="9.00"> </text>
</a>
</g>
</g>
<!-- rule/2&#45;&gt;rule/3 -->
<g id="edge1" class="edge">
<title>rule/2&#45;&gt;rule/3</title>
<g id="a_edge1"><a xlink:href="https://github.com/LogtalkDotOrg/logtalk3/tree/972d391f51477be3cfa7a76b93965ee625e8ad4f/contributions/verdi_neruda/demodb.lgt#L54" xlink:title="calls">
<path fill="none" stroke="black" d="M137,-183.2C137,-164.5 137,-134.37 137,-112.08"/>
<polygon fill="black" stroke="black" points="140.5,-112.14 137,-102.14 133.5,-112.14 140.5,-112.14"/>
</a>
</g>
<g id="a_edge1&#45;label"><a xlink:href="https://github.com/LogtalkDotOrg/logtalk3/tree/972d391f51477be3cfa7a76b93965ee625e8ad4f/contributions/verdi_neruda/demodb.lgt#L54" xlink:title="https://github.com/LogtalkDotOrg/logtalk3/tree/972d391f51477be3cfa7a76b93965ee625e8ad4f/contributions/verdi_neruda/demodb.lgt#L54">
<text text-anchor="start" x="137" y="-138.95" font-family="Monospace" font-size="9.00">calls</text>
</a>
</g>
</g>
</g>
</svg>
