<?xml version="1.0" encoding="UTF-8" standalone="no"?>
<?xml-stylesheet href="diagrams.css" type="text/css"?>
<!DOCTYPE svg PUBLIC "-//W3C//DTD SVG 1.1//EN"
 "http://www.w3.org/Graphics/SVG/1.1/DTD/svg11.dtd">
<!-- Generated by graphviz version 2.50.0 (20211204.2007)
 -->
<!-- Title: dif_object Pages: 1 -->
<svg width="409pt" height="646pt"
 viewBox="72.00 72.00 337.00 574.00" xmlns="http://www.w3.org/2000/svg" xmlns:xlink="http://www.w3.org/1999/xlink">
<g id="graph0" class="graph" transform="scale(1 1) rotate(0) translate(76 570)">
<title>dif_object</title>
<polygon fill="white" stroke="transparent" points="-4,4 -4,-498 261,-498 261,4 -4,4"/>
<text text-anchor="start" x="8" y="-29" font-family="Monospace" font-size="10.00" fill="dimgray">Logtalk library</text>
<text text-anchor="start" x="8" y="-18" font-family="Monospace" font-size="10.00" fill="dimgray">Cross&#45;referencing diagram for object dif</text>
<text text-anchor="start" x="8" y="-7" font-family="Monospace" font-size="10.00" fill="dimgray">Generated on 2022&#45;04&#45;28, 11:03</text>
<g id="clust1" class="cluster">
<title>cluster_dif_object</title>
<g id="a_clust1"><a xlink:title="dif">
<path fill="snow" stroke="dimgray" d="M85.5,-49C85.5,-49 171.5,-49 171.5,-49 177.5,-49 183.5,-55 183.5,-61 183.5,-61 183.5,-474 183.5,-474 183.5,-480 177.5,-486 171.5,-486 171.5,-486 85.5,-486 85.5,-486 79.5,-486 73.5,-480 73.5,-474 73.5,-474 73.5,-61 73.5,-61 73.5,-55 79.5,-49 85.5,-49"/>
<g id="a_clust1_0"><a xlink:href="https://github.com/LogtalkDotOrg/logtalk3/tree/4d1badf2393d1a72157e74f0e3df92249e9200dd/library/dif/dif.lgt" xlink:title="https://github.com/LogtalkDotOrg/logtalk3/tree/4d1badf2393d1a72157e74f0e3df92249e9200dd/library/dif/dif.lgt">
<text text-anchor="start" x="86" y="-469.5" font-family="Monospace" font-size="10.00" fill="dimgray">dif</text>
</a>
</g>
</a>
</g>
</g>
<!-- dif/2 -->
<g id="node1" class="node">
<title>dif/2</title>
<g id="a_node1"><a xlink:href="https://github.com/LogtalkDotOrg/logtalk3/tree/4d1badf2393d1a72157e74f0e3df92249e9200dd/library/dif/dif.lgt#L34" xlink:title="https://github.com/LogtalkDotOrg/logtalk3/tree/4d1badf2393d1a72157e74f0e3df92249e9200dd/library/dif/dif.lgt#L34">
<polygon fill="springgreen" stroke="black" points="159.5,-213 97.5,-213 97.5,-177 159.5,-177 159.5,-213"/>
<text text-anchor="start" x="105.5" y="-197.8" font-family="Monospace" font-size="9.00"> </text>
<text text-anchor="start" x="111.5" y="-197.2" font-family="Monospace" font-size="11.00">dif/2</text>
<text text-anchor="start" x="145.5" y="-197.8" font-family="Monospace" font-size="9.00"> </text>
<text text-anchor="start" x="105.5" y="-186.8" font-family="Monospace" font-size="9.00"> </text>
<text text-anchor="start" x="114.5" y="-187.4" font-family="Monospace" font-size="7.00">public</text>
<text text-anchor="start" x="145.5" y="-186.8" font-family="Monospace" font-size="9.00"> </text>
</a>
</g>
</g>
<!-- dif:dif/2 -->
<g id="node4" class="node">
<title>dif:dif/2</title>
<polygon fill="beige" stroke="black" stroke-dasharray="5,2" points="173,-95 84,-95 84,-59 173,-59 173,-95"/>
<text text-anchor="start" x="92.5" y="-79.8" font-family="Monospace" font-size="9.00"> </text>
<text text-anchor="start" x="98.5" y="-79.2" font-family="Monospace" font-size="11.00">dif:dif/2</text>
<text text-anchor="start" x="159.5" y="-79.8" font-family="Monospace" font-size="9.00"> </text>
<text text-anchor="start" x="92.5" y="-68.8" font-family="Monospace" font-size="9.00"> </text>
<text text-anchor="start" x="110.5" y="-69.4" font-family="Monospace" font-size="7.00">external</text>
<text text-anchor="start" x="159.5" y="-68.8" font-family="Monospace" font-size="9.00"> </text>
</g>
<!-- dif/2&#45;&gt;dif:dif/2 -->
<g id="edge3" class="edge">
<title>dif/2&#45;&gt;dif:dif/2</title>
<g id="a_edge3"><a xlink:href="https://github.com/LogtalkDotOrg/logtalk3/tree/4d1badf2393d1a72157e74f0e3df92249e9200dd/library/dif/dif.lgt#L75" xlink:title="calls">
<path fill="none" stroke="black" d="M128.5,-176.88C128.5,-158.04 128.5,-127.47 128.5,-105.3"/>
<polygon fill="black" stroke="black" points="132,-105.19 128.5,-95.19 125,-105.19 132,-105.19"/>
</a>
</g>
<g id="a_edge3&#45;label"><a xlink:href="https://github.com/LogtalkDotOrg/logtalk3/tree/4d1badf2393d1a72157e74f0e3df92249e9200dd/library/dif/dif.lgt#L75" xlink:title="https://github.com/LogtalkDotOrg/logtalk3/tree/4d1badf2393d1a72157e74f0e3df92249e9200dd/library/dif/dif.lgt#L75">
<text text-anchor="start" x="128.5" y="-133.8" font-family="Monospace" font-size="9.00">calls</text>
</a>
</g>
</g>
<!-- dif/1 -->
<g id="node2" class="node">
<title>dif/1</title>
<g id="a_node2"><a xlink:href="https://github.com/LogtalkDotOrg/logtalk3/tree/4d1badf2393d1a72157e74f0e3df92249e9200dd/library/dif/dif.lgt#L41" xlink:title="https://github.com/LogtalkDotOrg/logtalk3/tree/4d1badf2393d1a72157e74f0e3df92249e9200dd/library/dif/dif.lgt#L41">
<polygon fill="springgreen" stroke="black" points="159.5,-449 97.5,-449 97.5,-413 159.5,-413 159.5,-449"/>
<text text-anchor="start" x="105.5" y="-433.8" font-family="Monospace" font-size="9.00"> </text>
<text text-anchor="start" x="111.5" y="-433.2" font-family="Monospace" font-size="11.00">dif/1</text>
<text text-anchor="start" x="145.5" y="-433.8" font-family="Monospace" font-size="9.00"> </text>
<text text-anchor="start" x="105.5" y="-422.8" font-family="Monospace" font-size="9.00"> </text>
<text text-anchor="start" x="114.5" y="-423.4" font-family="Monospace" font-size="7.00">public</text>
<text text-anchor="start" x="145.5" y="-422.8" font-family="Monospace" font-size="9.00"> </text>
</a>
</g>
</g>
<!-- dif_/2 -->
<g id="node3" class="node">
<title>dif_/2</title>
<g id="a_node3"><a xlink:href="https://github.com/LogtalkDotOrg/logtalk3/tree/4d1badf2393d1a72157e74f0e3df92249e9200dd/library/dif/dif.lgt#L100" xlink:title="https://github.com/LogtalkDotOrg/logtalk3/tree/4d1badf2393d1a72157e74f0e3df92249e9200dd/library/dif/dif.lgt#L100">
<polygon fill="cornsilk" stroke="black" points="163,-331 94,-331 94,-295 163,-295 163,-331"/>
<text text-anchor="start" x="102.5" y="-315.8" font-family="Monospace" font-size="9.00"> </text>
<text text-anchor="start" x="108.5" y="-315.2" font-family="Monospace" font-size="11.00">dif_/2</text>
<text text-anchor="start" x="149.5" y="-315.8" font-family="Monospace" font-size="9.00"> </text>
<text text-anchor="start" x="102.5" y="-304.8" font-family="Monospace" font-size="9.00"> </text>
<text text-anchor="start" x="117.5" y="-305.4" font-family="Monospace" font-size="7.00">local</text>
<text text-anchor="start" x="149.5" y="-304.8" font-family="Monospace" font-size="9.00"> </text>
</a>
</g>
</g>
<!-- dif/1&#45;&gt;dif_/2 -->
<g id="edge1" class="edge">
<title>dif/1&#45;&gt;dif_/2</title>
<g id="a_edge1"><a xlink:href="https://github.com/LogtalkDotOrg/logtalk3/tree/4d1badf2393d1a72157e74f0e3df92249e9200dd/library/dif/dif.lgt#L96" xlink:title="calls">
<path fill="none" stroke="black" d="M128.5,-412.88C128.5,-394.04 128.5,-363.47 128.5,-341.3"/>
<polygon fill="black" stroke="black" points="132,-341.19 128.5,-331.19 125,-341.19 132,-341.19"/>
</a>
</g>
<g id="a_edge1&#45;label"><a xlink:href="https://github.com/LogtalkDotOrg/logtalk3/tree/4d1badf2393d1a72157e74f0e3df92249e9200dd/library/dif/dif.lgt#L96" xlink:title="https://github.com/LogtalkDotOrg/logtalk3/tree/4d1badf2393d1a72157e74f0e3df92249e9200dd/library/dif/dif.lgt#L96">
<text text-anchor="start" x="128.5" y="-369.8" font-family="Monospace" font-size="9.00">calls</text>
</a>
</g>
</g>
<!-- dif_/2&#45;&gt;dif/2 -->
<g id="edge2" class="edge">
<title>dif_/2&#45;&gt;dif/2</title>
<g id="a_edge2"><a xlink:href="https://github.com/LogtalkDotOrg/logtalk3/tree/4d1badf2393d1a72157e74f0e3df92249e9200dd/library/dif/dif.lgt#L101" xlink:title="calls">
<path fill="none" stroke="black" d="M128.5,-294.88C128.5,-276.04 128.5,-245.47 128.5,-223.3"/>
<polygon fill="black" stroke="black" points="132,-223.19 128.5,-213.19 125,-223.19 132,-223.19"/>
</a>
</g>
<g id="a_edge2&#45;label"><a xlink:href="https://github.com/LogtalkDotOrg/logtalk3/tree/4d1badf2393d1a72157e74f0e3df92249e9200dd/library/dif/dif.lgt#L101" xlink:title="https://github.com/LogtalkDotOrg/logtalk3/tree/4d1badf2393d1a72157e74f0e3df92249e9200dd/library/dif/dif.lgt#L101">
<text text-anchor="start" x="128.5" y="-251.8" font-family="Monospace" font-size="9.00">calls</text>
</a>
</g>
</g>
</g>
</svg>
