<?xml version="1.0" encoding="UTF-8" standalone="no"?>
<?xml-stylesheet href="diagrams.css" type="text/css"?>
<!DOCTYPE svg PUBLIC "-//W3C//DTD SVG 1.1//EN"
 "http://www.w3.org/Graphics/SVG/1.1/DTD/svg11.dtd">
<!-- Generated by graphviz version 10.0.1 (20240210.2158)
 -->
<!-- Title: dif_object Pages: 1 -->
<svg width="408pt" height="646pt"
 viewBox="72.00 72.00 336.00 574.25" xmlns="http://www.w3.org/2000/svg" xmlns:xlink="http://www.w3.org/1999/xlink">
<g id="graph0" class="graph" transform="scale(1 1) rotate(0) translate(76 570.25)">
<title>dif_object</title>
<polygon fill="white" stroke="none" points="-4,4 -4,-498.25 260,-498.25 260,4 -4,4"/>
<text text-anchor="start" x="8" y="-28.25" font-family="Monospace" font-size="10.00" fill="dimgray">Logtalk library</text>
<text text-anchor="start" x="8" y="-17" font-family="Monospace" font-size="10.00" fill="dimgray">Cross&#45;referencing diagram for object dif</text>
<text text-anchor="start" x="8" y="-5.75" font-family="Monospace" font-size="10.00" fill="dimgray">Generated on 2024&#45;03&#45;07, 16:35</text>
<g id="clust1" class="cluster">
<title>cluster_dif_object</title>
<g id="a_clust1"><a xlink:title="dif">
<path fill="snow" stroke="dimgray" d="M87,-49.75C87,-49.75 169,-49.75 169,-49.75 175,-49.75 181,-55.75 181,-61.75 181,-61.75 181,-474.25 181,-474.25 181,-480.25 175,-486.25 169,-486.25 169,-486.25 87,-486.25 87,-486.25 81,-486.25 75,-480.25 75,-474.25 75,-474.25 75,-61.75 75,-61.75 75,-55.75 81,-49.75 87,-49.75"/>
<g id="a_clust1_0"><a xlink:href="https://github.com/LogtalkDotOrg/logtalk3/tree/d063272b5f3aaa39c56bd76dbac002dbab7679de/library/dif/dif.lgt" xlink:title="https://github.com/LogtalkDotOrg/logtalk3/tree/d063272b5f3aaa39c56bd76dbac002dbab7679de/library/dif/dif.lgt">
<text text-anchor="start" x="87" y="-468.75" font-family="Monospace" font-size="10.00" fill="dimgray">dif</text>
</a>
</g>
</a>
</g>
</g>
<!-- dif/2 -->
<g id="node1" class="node">
<title>dif/2</title>
<g id="a_node1"><a xlink:href="https://github.com/LogtalkDotOrg/logtalk3/tree/d063272b5f3aaa39c56bd76dbac002dbab7679de/library/dif/dif.lgt#L34" xlink:title="https://github.com/LogtalkDotOrg/logtalk3/tree/d063272b5f3aaa39c56bd76dbac002dbab7679de/library/dif/dif.lgt#L34">
<polygon fill="springgreen" stroke="black" points="157.5,-213.5 98.5,-213.5 98.5,-177.5 157.5,-177.5 157.5,-213.5"/>
<text text-anchor="start" x="106.38" y="-196.32" font-family="Monospace" font-size="9.00"> </text>
<text text-anchor="start" x="111.12" y="-195.55" font-family="Monospace" font-size="11.00">dif/2</text>
<text text-anchor="start" x="144.38" y="-196.32" font-family="Monospace" font-size="9.00"> </text>
<text text-anchor="start" x="106.38" y="-185.45" font-family="Monospace" font-size="9.00"> </text>
<text text-anchor="start" x="114.5" y="-186.97" font-family="Monospace" font-size="7.00">public</text>
<text text-anchor="start" x="144.38" y="-185.45" font-family="Monospace" font-size="9.00"> </text>
</a>
</g>
</g>
<!-- dif:dif/2 -->
<g id="node4" class="node">
<title>dif:dif/2</title>
<polygon fill="beige" stroke="black" stroke-dasharray="5,2" points="171,-95.75 85,-95.75 85,-59.75 171,-59.75 171,-95.75"/>
<text text-anchor="start" x="92.88" y="-78.58" font-family="Monospace" font-size="9.00"> </text>
<text text-anchor="start" x="97.62" y="-77.8" font-family="Monospace" font-size="11.00">dif:dif/2</text>
<text text-anchor="start" x="157.88" y="-78.58" font-family="Monospace" font-size="9.00"> </text>
<text text-anchor="start" x="92.88" y="-67.7" font-family="Monospace" font-size="9.00"> </text>
<text text-anchor="start" x="110" y="-69.22" font-family="Monospace" font-size="7.00">external</text>
<text text-anchor="start" x="157.88" y="-67.7" font-family="Monospace" font-size="9.00"> </text>
</g>
<!-- dif/2&#45;&gt;dif:dif/2 -->
<g id="edge3" class="edge">
<title>dif/2&#45;&gt;dif:dif/2</title>
<g id="a_edge3"><a xlink:href="https://github.com/LogtalkDotOrg/logtalk3/tree/d063272b5f3aaa39c56bd76dbac002dbab7679de/library/dif/dif.lgt#L70" xlink:title="calls">
<path fill="none" stroke="black" d="M128,-177.17C128,-158.76 128,-129.35 128,-107.46"/>
<polygon fill="black" stroke="black" points="131.5,-107.71 128,-97.71 124.5,-107.71 131.5,-107.71"/>
</a>
</g>
<g id="a_edge3&#45;label"><a xlink:href="https://github.com/LogtalkDotOrg/logtalk3/tree/d063272b5f3aaa39c56bd76dbac002dbab7679de/library/dif/dif.lgt#L70" xlink:title="https://github.com/LogtalkDotOrg/logtalk3/tree/d063272b5f3aaa39c56bd76dbac002dbab7679de/library/dif/dif.lgt#L70">
<text text-anchor="start" x="128" y="-132.95" font-family="Monospace" font-size="9.00">calls</text>
</a>
</g>
</g>
<!-- dif/1 -->
<g id="node2" class="node">
<title>dif/1</title>
<g id="a_node2"><a xlink:href="https://github.com/LogtalkDotOrg/logtalk3/tree/d063272b5f3aaa39c56bd76dbac002dbab7679de/library/dif/dif.lgt#L41" xlink:title="https://github.com/LogtalkDotOrg/logtalk3/tree/d063272b5f3aaa39c56bd76dbac002dbab7679de/library/dif/dif.lgt#L41">
<polygon fill="springgreen" stroke="black" points="157.5,-449 98.5,-449 98.5,-413 157.5,-413 157.5,-449"/>
<text text-anchor="start" x="106.38" y="-431.82" font-family="Monospace" font-size="9.00"> </text>
<text text-anchor="start" x="111.12" y="-431.05" font-family="Monospace" font-size="11.00">dif/1</text>
<text text-anchor="start" x="144.38" y="-431.82" font-family="Monospace" font-size="9.00"> </text>
<text text-anchor="start" x="106.38" y="-420.95" font-family="Monospace" font-size="9.00"> </text>
<text text-anchor="start" x="114.5" y="-422.48" font-family="Monospace" font-size="7.00">public</text>
<text text-anchor="start" x="144.38" y="-420.95" font-family="Monospace" font-size="9.00"> </text>
</a>
</g>
</g>
<!-- dif_/2 -->
<g id="node3" class="node">
<title>dif_/2</title>
<g id="a_node3"><a xlink:href="https://github.com/LogtalkDotOrg/logtalk3/tree/d063272b5f3aaa39c56bd76dbac002dbab7679de/library/dif/dif.lgt#L95" xlink:title="https://github.com/LogtalkDotOrg/logtalk3/tree/d063272b5f3aaa39c56bd76dbac002dbab7679de/library/dif/dif.lgt#L95">
<polygon fill="cornsilk" stroke="black" points="161,-331.25 95,-331.25 95,-295.25 161,-295.25 161,-331.25"/>
<text text-anchor="start" x="102.88" y="-314.07" font-family="Monospace" font-size="9.00"> </text>
<text text-anchor="start" x="107.75" y="-313.3" font-family="Monospace" font-size="11.00">dif_/2</text>
<text text-anchor="start" x="147.88" y="-314.07" font-family="Monospace" font-size="9.00"> </text>
<text text-anchor="start" x="102.88" y="-303.2" font-family="Monospace" font-size="9.00"> </text>
<text text-anchor="start" x="116.75" y="-304.73" font-family="Monospace" font-size="7.00">local</text>
<text text-anchor="start" x="147.88" y="-303.2" font-family="Monospace" font-size="9.00"> </text>
</a>
</g>
</g>
<!-- dif/1&#45;&gt;dif_/2 -->
<g id="edge1" class="edge">
<title>dif/1&#45;&gt;dif_/2</title>
<g id="a_edge1"><a xlink:href="https://github.com/LogtalkDotOrg/logtalk3/tree/d063272b5f3aaa39c56bd76dbac002dbab7679de/library/dif/dif.lgt#L91" xlink:title="calls">
<path fill="none" stroke="black" d="M128,-412.67C128,-394.26 128,-364.85 128,-342.96"/>
<polygon fill="black" stroke="black" points="131.5,-343.21 128,-333.21 124.5,-343.21 131.5,-343.21"/>
</a>
</g>
<g id="a_edge1&#45;label"><a xlink:href="https://github.com/LogtalkDotOrg/logtalk3/tree/d063272b5f3aaa39c56bd76dbac002dbab7679de/library/dif/dif.lgt#L91" xlink:title="https://github.com/LogtalkDotOrg/logtalk3/tree/d063272b5f3aaa39c56bd76dbac002dbab7679de/library/dif/dif.lgt#L91">
<text text-anchor="start" x="128" y="-368.45" font-family="Monospace" font-size="9.00">calls</text>
</a>
</g>
</g>
<!-- dif_/2&#45;&gt;dif/2 -->
<g id="edge2" class="edge">
<title>dif_/2&#45;&gt;dif/2</title>
<g id="a_edge2"><a xlink:href="https://github.com/LogtalkDotOrg/logtalk3/tree/d063272b5f3aaa39c56bd76dbac002dbab7679de/library/dif/dif.lgt#L96" xlink:title="calls">
<path fill="none" stroke="black" d="M128,-294.92C128,-276.51 128,-247.1 128,-225.21"/>
<polygon fill="black" stroke="black" points="131.5,-225.46 128,-215.46 124.5,-225.46 131.5,-225.46"/>
</a>
</g>
<g id="a_edge2&#45;label"><a xlink:href="https://github.com/LogtalkDotOrg/logtalk3/tree/d063272b5f3aaa39c56bd76dbac002dbab7679de/library/dif/dif.lgt#L96" xlink:title="https://github.com/LogtalkDotOrg/logtalk3/tree/d063272b5f3aaa39c56bd76dbac002dbab7679de/library/dif/dif.lgt#L96">
<text text-anchor="start" x="128" y="-250.7" font-family="Monospace" font-size="9.00">calls</text>
</a>
</g>
</g>
</g>
</svg>
