<?xml version="1.0" encoding="UTF-8" standalone="no"?>
<?xml-stylesheet href="diagrams.css" type="text/css"?>
<!DOCTYPE svg PUBLIC "-//W3C//DTD SVG 1.1//EN"
 "http://www.w3.org/Graphics/SVG/1.1/DTD/svg11.dtd">
<!-- Generated by graphviz version 12.2.1 (20241206.2353)
 -->
<!-- Title: dif_object Pages: 1 -->
<svg width="408pt" height="657pt"
 viewBox="72.00 72.00 336.00 584.75" xmlns="http://www.w3.org/2000/svg" xmlns:xlink="http://www.w3.org/1999/xlink">
<g id="graph0" class="graph" transform="scale(1 1) rotate(0) translate(76 580.75)">
<title>dif_object</title>
<polygon fill="white" stroke="none" points="-4,4 -4,-508.75 260,-508.75 260,4 -4,4"/>
<text text-anchor="start" x="8" y="-32.75" font-family="Monospace" font-size="10.00" fill="dimgray">Logtalk library</text>
<text text-anchor="start" x="8" y="-20" font-family="Monospace" font-size="10.00" fill="dimgray">Cross&#45;referencing diagram for object dif</text>
<text text-anchor="start" x="8" y="-7.25" font-family="Monospace" font-size="10.00" fill="dimgray">Generated on 2025&#45;01&#45;23, 23:42</text>
<g id="clust1" class="cluster">
<title>cluster_dif_object</title>
<g id="a_clust1"><a xlink:title="dif">
<path fill="snow" stroke="dimgray" d="M86,-54.25C86,-54.25 170,-54.25 170,-54.25 176,-54.25 182,-60.25 182,-66.25 182,-66.25 182,-484.75 182,-484.75 182,-490.75 176,-496.75 170,-496.75 170,-496.75 86,-496.75 86,-496.75 80,-496.75 74,-490.75 74,-484.75 74,-484.75 74,-66.25 74,-66.25 74,-60.25 80,-54.25 86,-54.25"/>
<g id="a_clust1_0"><a xlink:href="https://github.com/LogtalkDotOrg/logtalk3/tree/c6649d183315f4a0171236fa687047019068d044/library/dif/dif.lgt" xlink:title="https://github.com/LogtalkDotOrg/logtalk3/tree/c6649d183315f4a0171236fa687047019068d044/library/dif/dif.lgt">
<text text-anchor="start" x="86" y="-479.25" font-family="Monospace" font-size="10.00" fill="dimgray">dif</text>
</a>
</g>
</a>
</g>
</g>
<!-- dif/2 -->
<g id="node1" class="node">
<title>dif/2</title>
<g id="a_node1"><a xlink:href="https://github.com/LogtalkDotOrg/logtalk3/tree/c6649d183315f4a0171236fa687047019068d044/library/dif/dif.lgt#L34" xlink:title="https://github.com/LogtalkDotOrg/logtalk3/tree/c6649d183315f4a0171236fa687047019068d044/library/dif/dif.lgt#L34">
<polygon fill="springgreen" stroke="black" points="158.12,-219.5 97.88,-219.5 97.88,-183.5 158.12,-183.5 158.12,-219.5"/>
<text text-anchor="start" x="105.88" y="-204.2" font-family="Monospace" font-size="9.00"> </text>
<text text-anchor="start" x="111.12" y="-203.43" font-family="Monospace" font-size="11.00">dif/2</text>
<text text-anchor="start" x="144.88" y="-204.2" font-family="Monospace" font-size="9.00"> </text>
<text text-anchor="start" x="105.88" y="-191.82" font-family="Monospace" font-size="9.00"> </text>
<text text-anchor="start" x="114.5" y="-192.6" font-family="Monospace" font-size="7.00">public</text>
<text text-anchor="start" x="144.88" y="-191.82" font-family="Monospace" font-size="9.00"> </text>
</a>
</g>
</g>
<!-- dif:dif/2 -->
<g id="node4" class="node">
<title>dif:dif/2</title>
<polygon fill="beige" stroke="black" stroke-dasharray="5,2" points="171.62,-100.25 84.38,-100.25 84.38,-64.25 171.62,-64.25 171.62,-100.25"/>
<text text-anchor="start" x="92.38" y="-84.95" font-family="Monospace" font-size="9.00"> </text>
<text text-anchor="start" x="97.62" y="-84.17" font-family="Monospace" font-size="11.00">dif:dif/2</text>
<text text-anchor="start" x="158.38" y="-84.95" font-family="Monospace" font-size="9.00"> </text>
<text text-anchor="start" x="92.38" y="-72.58" font-family="Monospace" font-size="9.00"> </text>
<text text-anchor="start" x="110" y="-73.35" font-family="Monospace" font-size="7.00">external</text>
<text text-anchor="start" x="158.38" y="-72.58" font-family="Monospace" font-size="9.00"> </text>
</g>
<!-- dif/2&#45;&gt;dif:dif/2 -->
<g id="edge3" class="edge">
<title>dif/2&#45;&gt;dif:dif/2</title>
<g id="a_edge3"><a xlink:href="https://github.com/LogtalkDotOrg/logtalk3/tree/c6649d183315f4a0171236fa687047019068d044/library/dif/dif.lgt#L70" xlink:title="calls">
<path fill="none" stroke="black" d="M128,-183.2C128,-164.5 128,-134.37 128,-112.08"/>
<polygon fill="black" stroke="black" points="131.5,-112.14 128,-102.14 124.5,-112.14 131.5,-112.14"/>
</a>
</g>
<g id="a_edge3&#45;label"><a xlink:href="https://github.com/LogtalkDotOrg/logtalk3/tree/c6649d183315f4a0171236fa687047019068d044/library/dif/dif.lgt#L70" xlink:title="https://github.com/LogtalkDotOrg/logtalk3/tree/c6649d183315f4a0171236fa687047019068d044/library/dif/dif.lgt#L70">
<text text-anchor="start" x="128" y="-138.95" font-family="Monospace" font-size="9.00">calls</text>
</a>
</g>
</g>
<!-- dif/1 -->
<g id="node2" class="node">
<title>dif/1</title>
<g id="a_node2"><a xlink:href="https://github.com/LogtalkDotOrg/logtalk3/tree/c6649d183315f4a0171236fa687047019068d044/library/dif/dif.lgt#L41" xlink:title="https://github.com/LogtalkDotOrg/logtalk3/tree/c6649d183315f4a0171236fa687047019068d044/library/dif/dif.lgt#L41">
<polygon fill="springgreen" stroke="black" points="158.12,-458 97.88,-458 97.88,-422 158.12,-422 158.12,-458"/>
<text text-anchor="start" x="105.88" y="-442.7" font-family="Monospace" font-size="9.00"> </text>
<text text-anchor="start" x="111.12" y="-441.93" font-family="Monospace" font-size="11.00">dif/1</text>
<text text-anchor="start" x="144.88" y="-442.7" font-family="Monospace" font-size="9.00"> </text>
<text text-anchor="start" x="105.88" y="-430.32" font-family="Monospace" font-size="9.00"> </text>
<text text-anchor="start" x="114.5" y="-431.1" font-family="Monospace" font-size="7.00">public</text>
<text text-anchor="start" x="144.88" y="-430.32" font-family="Monospace" font-size="9.00"> </text>
</a>
</g>
</g>
<!-- dif_/2 -->
<g id="node3" class="node">
<title>dif_/2</title>
<g id="a_node3"><a xlink:href="https://github.com/LogtalkDotOrg/logtalk3/tree/c6649d183315f4a0171236fa687047019068d044/library/dif/dif.lgt#L95" xlink:title="https://github.com/LogtalkDotOrg/logtalk3/tree/c6649d183315f4a0171236fa687047019068d044/library/dif/dif.lgt#L95">
<polygon fill="cornsilk" stroke="black" points="161.5,-338.75 94.5,-338.75 94.5,-302.75 161.5,-302.75 161.5,-338.75"/>
<text text-anchor="start" x="102.5" y="-323.45" font-family="Monospace" font-size="9.00"> </text>
<text text-anchor="start" x="107.75" y="-322.68" font-family="Monospace" font-size="11.00">dif_/2</text>
<text text-anchor="start" x="148.25" y="-323.45" font-family="Monospace" font-size="9.00"> </text>
<text text-anchor="start" x="102.5" y="-311.07" font-family="Monospace" font-size="9.00"> </text>
<text text-anchor="start" x="116.75" y="-311.85" font-family="Monospace" font-size="7.00">local</text>
<text text-anchor="start" x="148.25" y="-311.07" font-family="Monospace" font-size="9.00"> </text>
</a>
</g>
</g>
<!-- dif/1&#45;&gt;dif_/2 -->
<g id="edge1" class="edge">
<title>dif/1&#45;&gt;dif_/2</title>
<g id="a_edge1"><a xlink:href="https://github.com/LogtalkDotOrg/logtalk3/tree/c6649d183315f4a0171236fa687047019068d044/library/dif/dif.lgt#L91" xlink:title="calls">
<path fill="none" stroke="black" d="M128,-421.7C128,-403 128,-372.87 128,-350.58"/>
<polygon fill="black" stroke="black" points="131.5,-350.64 128,-340.64 124.5,-350.64 131.5,-350.64"/>
</a>
</g>
<g id="a_edge1&#45;label"><a xlink:href="https://github.com/LogtalkDotOrg/logtalk3/tree/c6649d183315f4a0171236fa687047019068d044/library/dif/dif.lgt#L91" xlink:title="https://github.com/LogtalkDotOrg/logtalk3/tree/c6649d183315f4a0171236fa687047019068d044/library/dif/dif.lgt#L91">
<text text-anchor="start" x="128" y="-377.45" font-family="Monospace" font-size="9.00">calls</text>
</a>
</g>
</g>
<!-- dif_/2&#45;&gt;dif/2 -->
<g id="edge2" class="edge">
<title>dif_/2&#45;&gt;dif/2</title>
<g id="a_edge2"><a xlink:href="https://github.com/LogtalkDotOrg/logtalk3/tree/c6649d183315f4a0171236fa687047019068d044/library/dif/dif.lgt#L96" xlink:title="calls">
<path fill="none" stroke="black" d="M128,-302.45C128,-283.75 128,-253.62 128,-231.33"/>
<polygon fill="black" stroke="black" points="131.5,-231.39 128,-221.39 124.5,-231.39 131.5,-231.39"/>
</a>
</g>
<g id="a_edge2&#45;label"><a xlink:href="https://github.com/LogtalkDotOrg/logtalk3/tree/c6649d183315f4a0171236fa687047019068d044/library/dif/dif.lgt#L96" xlink:title="https://github.com/LogtalkDotOrg/logtalk3/tree/c6649d183315f4a0171236fa687047019068d044/library/dif/dif.lgt#L96">
<text text-anchor="start" x="128" y="-258.2" font-family="Monospace" font-size="9.00">calls</text>
</a>
</g>
</g>
</g>
</svg>
