<?xml version="1.0" encoding="UTF-8" standalone="no"?>
<?xml-stylesheet href="diagrams.css" type="text/css"?>
<!DOCTYPE svg PUBLIC "-//W3C//DTD SVG 1.1//EN"
 "http://www.w3.org/Graphics/SVG/1.1/DTD/svg11.dtd">
<!-- Generated by graphviz version 2.49.3 (20211023.0002)
 -->
<!-- Title: dif_object Pages: 1 -->
<svg width="368pt" height="646pt"
 viewBox="72.00 72.00 296.00 574.00" xmlns="http://www.w3.org/2000/svg" xmlns:xlink="http://www.w3.org/1999/xlink">
<g id="graph0" class="graph" transform="scale(1 1) rotate(0) translate(76 570)">
<title>dif_object</title>
<polygon fill="white" stroke="transparent" points="-4,4 -4,-498 220,-498 220,4 -4,4"/>
<text text-anchor="start" x="8" y="-29" font-family="Courier,monospace" font-size="10.00" fill="dimgray">Logtalk library</text>
<text text-anchor="start" x="8" y="-18" font-family="Courier,monospace" font-size="10.00" fill="dimgray">Cross&#45;referencing diagram for object dif</text>
<text text-anchor="start" x="8" y="-7" font-family="Courier,monospace" font-size="10.00" fill="dimgray">Generated on 2021&#45;11&#45;17, 12:12</text>
<g id="clust1" class="cluster">
<title>cluster_dif_object</title>
<g id="a_clust1"><a xlink:title="dif">
<path fill="snow" stroke="dimgray" d="M72,-49C72,-49 144,-49 144,-49 150,-49 156,-55 156,-61 156,-61 156,-474 156,-474 156,-480 150,-486 144,-486 144,-486 72,-486 72,-486 66,-486 60,-480 60,-474 60,-474 60,-61 60,-61 60,-55 66,-49 72,-49"/>
<g id="a_clust1_0"><a xlink:href="https://github.com/LogtalkDotOrg/logtalk3/tree/071a8ea54f71195e9aec1568b51726f3a39ac6b5/library/dif/dif.lgt" xlink:title="https://github.com/LogtalkDotOrg/logtalk3/tree/071a8ea54f71195e9aec1568b51726f3a39ac6b5/library/dif/dif.lgt">
<text text-anchor="start" x="72.5" y="-469.5" font-family="Courier,monospace" font-size="10.00" fill="dimgray">dif</text>
</a>
</g>
</a>
</g>
</g>
<!-- dif/2 -->
<g id="node1" class="node">
<title>dif/2</title>
<g id="a_node1"><a xlink:href="https://github.com/LogtalkDotOrg/logtalk3/tree/071a8ea54f71195e9aec1568b51726f3a39ac6b5/library/dif/dif.lgt#L34" xlink:title="https://github.com/LogtalkDotOrg/logtalk3/tree/071a8ea54f71195e9aec1568b51726f3a39ac6b5/library/dif/dif.lgt#L34">
<polygon fill="springgreen" stroke="black" points="135,-213 81,-213 81,-177 135,-177 135,-213"/>
<text text-anchor="start" x="89" y="-197.8" font-family="Courier,monospace" font-size="9.00"> </text>
<text text-anchor="start" x="94" y="-197.2" font-family="Courier,monospace" font-size="11.00">dif/2</text>
<text text-anchor="start" x="122" y="-197.8" font-family="Courier,monospace" font-size="9.00"> </text>
<text text-anchor="start" x="89" y="-186.8" font-family="Courier,monospace" font-size="9.00"> </text>
<text text-anchor="start" x="97.5" y="-187.4" font-family="Courier,monospace" font-size="7.00">public</text>
<text text-anchor="start" x="122" y="-186.8" font-family="Courier,monospace" font-size="9.00"> </text>
</a>
</g>
</g>
<!-- dif:dif/2 -->
<g id="node4" class="node">
<title>dif:dif/2</title>
<polygon fill="beige" stroke="black" stroke-dasharray="5,2" points="146,-95 70,-95 70,-59 146,-59 146,-95"/>
<text text-anchor="start" x="78" y="-79.8" font-family="Courier,monospace" font-size="9.00"> </text>
<text text-anchor="start" x="83" y="-79.2" font-family="Courier,monospace" font-size="11.00">dif:dif/2</text>
<text text-anchor="start" x="133" y="-79.8" font-family="Courier,monospace" font-size="9.00"> </text>
<text text-anchor="start" x="78" y="-68.8" font-family="Courier,monospace" font-size="9.00"> </text>
<text text-anchor="start" x="94" y="-69.4" font-family="Courier,monospace" font-size="7.00">external</text>
<text text-anchor="start" x="133" y="-68.8" font-family="Courier,monospace" font-size="9.00"> </text>
</g>
<!-- dif/2&#45;&gt;dif:dif/2 -->
<g id="edge3" class="edge">
<title>dif/2&#45;&gt;dif:dif/2</title>
<g id="a_edge3"><a xlink:href="https://github.com/LogtalkDotOrg/logtalk3/tree/071a8ea54f71195e9aec1568b51726f3a39ac6b5/library/dif/dif.lgt#L70" xlink:title="calls">
<path fill="none" stroke="black" d="M108,-176.88C108,-158.04 108,-127.47 108,-105.3"/>
<polygon fill="black" stroke="black" points="111.5,-105.19 108,-95.19 104.5,-105.19 111.5,-105.19"/>
</a>
</g>
<g id="a_edge3&#45;label"><a xlink:href="https://github.com/LogtalkDotOrg/logtalk3/tree/071a8ea54f71195e9aec1568b51726f3a39ac6b5/library/dif/dif.lgt#L70" xlink:title="https://github.com/LogtalkDotOrg/logtalk3/tree/071a8ea54f71195e9aec1568b51726f3a39ac6b5/library/dif/dif.lgt#L70">
<text text-anchor="start" x="108" y="-133.8" font-family="Courier,monospace" font-size="9.00">calls</text>
</a>
</g>
</g>
<!-- dif/1 -->
<g id="node2" class="node">
<title>dif/1</title>
<g id="a_node2"><a xlink:href="https://github.com/LogtalkDotOrg/logtalk3/tree/071a8ea54f71195e9aec1568b51726f3a39ac6b5/library/dif/dif.lgt#L41" xlink:title="https://github.com/LogtalkDotOrg/logtalk3/tree/071a8ea54f71195e9aec1568b51726f3a39ac6b5/library/dif/dif.lgt#L41">
<polygon fill="springgreen" stroke="black" points="135,-449 81,-449 81,-413 135,-413 135,-449"/>
<text text-anchor="start" x="89" y="-433.8" font-family="Courier,monospace" font-size="9.00"> </text>
<text text-anchor="start" x="94" y="-433.2" font-family="Courier,monospace" font-size="11.00">dif/1</text>
<text text-anchor="start" x="122" y="-433.8" font-family="Courier,monospace" font-size="9.00"> </text>
<text text-anchor="start" x="89" y="-422.8" font-family="Courier,monospace" font-size="9.00"> </text>
<text text-anchor="start" x="97.5" y="-423.4" font-family="Courier,monospace" font-size="7.00">public</text>
<text text-anchor="start" x="122" y="-422.8" font-family="Courier,monospace" font-size="9.00"> </text>
</a>
</g>
</g>
<!-- dif_/2 -->
<g id="node3" class="node">
<title>dif_/2</title>
<g id="a_node3"><a xlink:href="https://github.com/LogtalkDotOrg/logtalk3/tree/071a8ea54f71195e9aec1568b51726f3a39ac6b5/library/dif/dif.lgt#L85" xlink:title="https://github.com/LogtalkDotOrg/logtalk3/tree/071a8ea54f71195e9aec1568b51726f3a39ac6b5/library/dif/dif.lgt#L85">
<polygon fill="cornsilk" stroke="black" points="137.5,-331 78.5,-331 78.5,-295 137.5,-295 137.5,-331"/>
<text text-anchor="start" x="87" y="-315.8" font-family="Courier,monospace" font-size="9.00"> </text>
<text text-anchor="start" x="92" y="-315.2" font-family="Courier,monospace" font-size="11.00">dif_/2</text>
<text text-anchor="start" x="125" y="-315.8" font-family="Courier,monospace" font-size="9.00"> </text>
<text text-anchor="start" x="87" y="-304.8" font-family="Courier,monospace" font-size="9.00"> </text>
<text text-anchor="start" x="99.5" y="-305.4" font-family="Courier,monospace" font-size="7.00">local</text>
<text text-anchor="start" x="125" y="-304.8" font-family="Courier,monospace" font-size="9.00"> </text>
</a>
</g>
</g>
<!-- dif/1&#45;&gt;dif_/2 -->
<g id="edge1" class="edge">
<title>dif/1&#45;&gt;dif_/2</title>
<g id="a_edge1"><a xlink:href="https://github.com/LogtalkDotOrg/logtalk3/tree/071a8ea54f71195e9aec1568b51726f3a39ac6b5/library/dif/dif.lgt#L81" xlink:title="calls">
<path fill="none" stroke="black" d="M108,-412.88C108,-394.04 108,-363.47 108,-341.3"/>
<polygon fill="black" stroke="black" points="111.5,-341.19 108,-331.19 104.5,-341.19 111.5,-341.19"/>
</a>
</g>
<g id="a_edge1&#45;label"><a xlink:href="https://github.com/LogtalkDotOrg/logtalk3/tree/071a8ea54f71195e9aec1568b51726f3a39ac6b5/library/dif/dif.lgt#L81" xlink:title="https://github.com/LogtalkDotOrg/logtalk3/tree/071a8ea54f71195e9aec1568b51726f3a39ac6b5/library/dif/dif.lgt#L81">
<text text-anchor="start" x="108" y="-369.8" font-family="Courier,monospace" font-size="9.00">calls</text>
</a>
</g>
</g>
<!-- dif_/2&#45;&gt;dif/2 -->
<g id="edge2" class="edge">
<title>dif_/2&#45;&gt;dif/2</title>
<g id="a_edge2"><a xlink:href="https://github.com/LogtalkDotOrg/logtalk3/tree/071a8ea54f71195e9aec1568b51726f3a39ac6b5/library/dif/dif.lgt#L86" xlink:title="calls">
<path fill="none" stroke="black" d="M108,-294.88C108,-276.04 108,-245.47 108,-223.3"/>
<polygon fill="black" stroke="black" points="111.5,-223.19 108,-213.19 104.5,-223.19 111.5,-223.19"/>
</a>
</g>
<g id="a_edge2&#45;label"><a xlink:href="https://github.com/LogtalkDotOrg/logtalk3/tree/071a8ea54f71195e9aec1568b51726f3a39ac6b5/library/dif/dif.lgt#L86" xlink:title="https://github.com/LogtalkDotOrg/logtalk3/tree/071a8ea54f71195e9aec1568b51726f3a39ac6b5/library/dif/dif.lgt#L86">
<text text-anchor="start" x="108" y="-251.8" font-family="Courier,monospace" font-size="9.00">calls</text>
</a>
</g>
</g>
</g>
</svg>
