<?xml version="1.0" encoding="UTF-8" standalone="no"?>
<?xml-stylesheet href="diagrams.css" type="text/css"?>
<!DOCTYPE svg PUBLIC "-//W3C//DTD SVG 1.1//EN"
 "http://www.w3.org/Graphics/SVG/1.1/DTD/svg11.dtd">
<!-- Generated by graphviz version 9.0.0 (20230911.1827)
 -->
<!-- Title: expanding_protocol Pages: 1 -->
<svg width="474pt" height="293pt"
 viewBox="72.00 72.00 402.00 221.00" xmlns="http://www.w3.org/2000/svg" xmlns:xlink="http://www.w3.org/1999/xlink">
<g id="graph0" class="graph" transform="scale(1 1) rotate(0) translate(76 217)">
<title>expanding_protocol</title>
<polygon fill="white" stroke="none" points="-4,4 -4,-145 326,-145 326,4 -4,4"/>
<text text-anchor="start" x="8" y="-28.25" font-family="Monospace" font-size="10.00" fill="dimgray">Logtalk core entities</text>
<text text-anchor="start" x="8" y="-17" font-family="Monospace" font-size="10.00" fill="dimgray">Cross&#45;referencing diagram for protocol expanding</text>
<text text-anchor="start" x="8" y="-5.75" font-family="Monospace" font-size="10.00" fill="dimgray">Generated on 2023&#45;11&#45;23, 22:48</text>
<g id="clust1" class="cluster">
<title>cluster_expanding_protocol</title>
<g id="a_clust1"><a xlink:title="expanding">
<path fill="snow" stroke="dimgray" d="M20,-49.75C20,-49.75 302,-49.75 302,-49.75 308,-49.75 314,-55.75 314,-61.75 314,-61.75 314,-121 314,-121 314,-127 308,-133 302,-133 302,-133 20,-133 20,-133 14,-133 8,-127 8,-121 8,-121 8,-61.75 8,-61.75 8,-55.75 14,-49.75 20,-49.75"/>
<g id="a_clust1_0"><a xlink:href="https://github.com/LogtalkDotOrg/logtalk3/tree/753a632f565db2f1dfa013076787e7fc63c34825/core/expanding.lgt" xlink:title="https://github.com/LogtalkDotOrg/logtalk3/tree/753a632f565db2f1dfa013076787e7fc63c34825/core/expanding.lgt">
<text text-anchor="start" x="20" y="-115.5" font-family="Monospace" font-size="10.00" fill="dimgray">expanding</text>
</a>
</g>
</a>
</g>
</g>
<!-- goal_expansion/2 -->
<g id="node1" class="node">
<title>goal_expansion/2</title>
<g id="a_node1"><a xlink:href="https://github.com/LogtalkDotOrg/logtalk3/tree/753a632f565db2f1dfa013076787e7fc63c34825/core/expanding.lgt#L33" xlink:title="https://github.com/LogtalkDotOrg/logtalk3/tree/753a632f565db2f1dfa013076787e7fc63c34825/core/expanding.lgt#L33">
<polygon fill="springgreen" stroke="black" points="304,-95.75 170,-95.75 170,-59.75 304,-59.75 304,-95.75"/>
<text text-anchor="start" x="177.88" y="-78.58" font-family="Monospace" font-size="9.00"> </text>
<text text-anchor="start" x="183" y="-77.8" font-family="Monospace" font-size="11.00">goal_expansion/2</text>
<text text-anchor="start" x="290.88" y="-78.58" font-family="Monospace" font-size="9.00"> </text>
<text text-anchor="start" x="177.88" y="-67.7" font-family="Monospace" font-size="9.00"> </text>
<text text-anchor="start" x="223.5" y="-69.22" font-family="Monospace" font-size="7.00">public</text>
<text text-anchor="start" x="290.88" y="-67.7" font-family="Monospace" font-size="9.00"> </text>
</a>
</g>
</g>
<!-- term_expansion/2 -->
<g id="node2" class="node">
<title>term_expansion/2</title>
<g id="a_node2"><a xlink:href="https://github.com/LogtalkDotOrg/logtalk3/tree/753a632f565db2f1dfa013076787e7fc63c34825/core/expanding.lgt#L40" xlink:title="https://github.com/LogtalkDotOrg/logtalk3/tree/753a632f565db2f1dfa013076787e7fc63c34825/core/expanding.lgt#L40">
<polygon fill="springgreen" stroke="black" points="152,-95.75 18,-95.75 18,-59.75 152,-59.75 152,-95.75"/>
<text text-anchor="start" x="25.88" y="-78.58" font-family="Monospace" font-size="9.00"> </text>
<text text-anchor="start" x="31" y="-77.8" font-family="Monospace" font-size="11.00">term_expansion/2</text>
<text text-anchor="start" x="138.88" y="-78.58" font-family="Monospace" font-size="9.00"> </text>
<text text-anchor="start" x="25.88" y="-67.7" font-family="Monospace" font-size="9.00"> </text>
<text text-anchor="start" x="71.5" y="-69.22" font-family="Monospace" font-size="7.00">public</text>
<text text-anchor="start" x="138.88" y="-67.7" font-family="Monospace" font-size="9.00"> </text>
</a>
</g>
</g>
</g>
</svg>
