<?xml version="1.0" encoding="UTF-8" standalone="no"?>
<!DOCTYPE svg PUBLIC "-//W3C//DTD SVG 1.1//EN"
 "http://www.w3.org/Graphics/SVG/1.1/DTD/svg11.dtd">
<!-- Generated by graphviz version 2.40.1 (20161225.0304)
 -->
<!-- Title: expand_library_alias_paths_object Pages: 1 -->
<svg width="812pt" height="524pt"
 viewBox="72.00 72.00 740.00 451.85" xmlns="http://www.w3.org/2000/svg" xmlns:xlink="http://www.w3.org/1999/xlink">
<g id="graph0" class="graph" transform="scale(1 1) rotate(0) translate(76 447.8528)">
<title>expand_library_alias_paths_object</title>
<polygon fill="#ffffff" stroke="transparent" points="-4,4 -4,-375.8528 664,-375.8528 664,4 -4,4"/>
<text text-anchor="start" x="8" y="-18" font-family="Courier,monospace" font-size="10.00" fill="#8b8989">Logtalk library</text>
<text text-anchor="start" x="8" y="-7" font-family="Courier,monospace" font-size="10.00" fill="#8b8989">Generated on 2019/04/08, 18:41</text>
<g id="clust1" class="cluster">
<title>cluster_expand_library_alias_paths_object</title>
<g id="a_clust1"><a xlink:href="https://github.com/LogtalkDotOrg/logtalk3/tree/master/library/expand_library_alias_paths.lgt" xlink:title="https://github.com/LogtalkDotOrg/logtalk3/tree/master/library/expand_library_alias_paths.lgt">
<path fill="#fffafa" stroke="#8b8989" d="M20,-38C20,-38 640,-38 640,-38 646,-38 652,-44 652,-50 652,-50 652,-351.8528 652,-351.8528 652,-357.8528 646,-363.8528 640,-363.8528 640,-363.8528 20,-363.8528 20,-363.8528 14,-363.8528 8,-357.8528 8,-351.8528 8,-351.8528 8,-50 8,-50 8,-44 14,-38 20,-38"/>
<text text-anchor="middle" x="94.5" y="-351.8528" font-family="Courier,monospace" font-size="10.00" fill="#8b8989">expand_library_alias_paths</text>
</a>
</g>
</g>
<g id="clust2" class="cluster">
<title>cluster_other</title>
<g id="a_clust2"><a xlink:title="(external predicates)">
<path fill="#ffffff" stroke="#8b8989" d="M30,-48C30,-48 630,-48 630,-48 636,-48 642,-54 642,-60 642,-60 642,-117.4264 642,-117.4264 642,-123.4264 636,-129.4264 630,-129.4264 630,-129.4264 30,-129.4264 30,-129.4264 24,-129.4264 18,-123.4264 18,-117.4264 18,-117.4264 18,-60 18,-60 18,-54 24,-48 30,-48"/>
<text text-anchor="middle" x="89.5" y="-117.4264" font-family="Courier,monospace" font-size="10.00" fill="#8b8989">(external predicates)</text>
</a>
</g>
</g>
<!-- term_expansion/2 -->
<g id="node1" class="node">
<title>term_expansion/2</title>
<ellipse fill="#f5f5dc" stroke="#000000" cx="316" cy="-313.6396" rx="94.5053" ry="21.4286"/>
<text text-anchor="start" x="257" y="-316.4396" font-family="Courier,monospace" font-size="9.00" fill="#000000"> </text>
<text text-anchor="start" x="263" y="-315.8396" font-family="Courier,monospace" font-size="11.00" fill="#000000">term_expansion/2</text>
<text text-anchor="start" x="369" y="-316.4396" font-family="Courier,monospace" font-size="9.00" fill="#000000"> </text>
<text text-anchor="start" x="257" y="-305.4396" font-family="Courier,monospace" font-size="9.00" fill="#000000"> </text>
<text text-anchor="start" x="305" y="-306.0396" font-family="Courier,monospace" font-size="7.00" fill="#000000">local</text>
<text text-anchor="start" x="369" y="-305.4396" font-family="Courier,monospace" font-size="9.00" fill="#000000"> </text>
</g>
<!-- os::absolute_file_name/2 -->
<g id="node2" class="node">
<title>os::absolute_file_name/2</title>
<g id="a_node2"><a xlink:href="https://logtalk.org/library/os_0.html#absolute_file_name/2" xlink:title="https://logtalk.org/library/os_0.html#absolute_file_name/2">
<ellipse fill="#d3d3d3" stroke="#000000" stroke-dasharray="5,2" cx="160" cy="-79.2132" rx="132.4583" ry="21.4286"/>
<text text-anchor="start" x="75" y="-82.0132" font-family="Courier,monospace" font-size="9.00" fill="#000000"> </text>
<text text-anchor="start" x="81" y="-81.4132" font-family="Courier,monospace" font-size="11.00" fill="#000000">os::absolute_file_name/2</text>
<text text-anchor="start" x="240" y="-82.0132" font-family="Courier,monospace" font-size="9.00" fill="#000000"> </text>
<text text-anchor="start" x="75" y="-71.0132" font-family="Courier,monospace" font-size="9.00" fill="#000000"> </text>
<text text-anchor="start" x="143.5" y="-71.6132" font-family="Courier,monospace" font-size="7.00" fill="#000000">external</text>
<text text-anchor="start" x="240" y="-71.0132" font-family="Courier,monospace" font-size="9.00" fill="#000000"> </text>
</a>
</g>
</g>
<!-- term_expansion/2&#45;&gt;os::absolute_file_name/2 -->
<g id="edge1" class="edge">
<title>term_expansion/2&#45;&gt;os::absolute_file_name/2</title>
<g id="a_edge1"><a xlink:href="https://github.com/LogtalkDotOrg/logtalk3/tree/master/library/expand_library_alias_paths.lgt#L31" xlink:title="calls">
<path fill="none" stroke="#000000" d="M301.8809,-292.4224C274.3383,-251.0332 213.3169,-159.3342 181.0101,-110.7857"/>
<polygon fill="#000000" stroke="#000000" points="180.8476,-110.5416 174.1936,-107.7625 174.1996,-100.5514 180.8476,-110.5416"/>
</a>
</g>
<g id="a_edge1&#45;label"><a xlink:href="https://github.com/LogtalkDotOrg/logtalk3/tree/master/library/expand_library_alias_paths.lgt#L31" xlink:title="https://github.com/LogtalkDotOrg/logtalk3/tree/master/library/expand_library_alias_paths.lgt#L31">
<text text-anchor="start" x="241" y="-194.2264" font-family="Courier,monospace" font-size="9.00" fill="#000000">calls</text>
</a>
</g>
</g>
<!-- logtalk::expand_library_path/2 -->
<g id="node3" class="node">
<title>logtalk::expand_library_path/2</title>
<g id="a_node3"><a xlink:href="https://logtalk.org/library/logtalk_0.html#expand_library_path/2" xlink:title="https://logtalk.org/library/logtalk_0.html#expand_library_path/2">
<ellipse fill="#d3d3d3" stroke="#000000" stroke-dasharray="5,2" cx="471" cy="-79.2132" rx="160.5265" ry="21.4286"/>
<text text-anchor="start" x="366" y="-82.0132" font-family="Courier,monospace" font-size="9.00" fill="#000000"> </text>
<text text-anchor="start" x="372" y="-81.4132" font-family="Courier,monospace" font-size="11.00" fill="#000000">logtalk::expand_library_path/2</text>
<text text-anchor="start" x="571" y="-82.0132" font-family="Courier,monospace" font-size="9.00" fill="#000000"> </text>
<text text-anchor="start" x="366" y="-71.0132" font-family="Courier,monospace" font-size="9.00" fill="#000000"> </text>
<text text-anchor="start" x="454.5" y="-71.6132" font-family="Courier,monospace" font-size="7.00" fill="#000000">external</text>
<text text-anchor="start" x="571" y="-71.0132" font-family="Courier,monospace" font-size="9.00" fill="#000000"> </text>
</a>
</g>
</g>
<!-- term_expansion/2&#45;&gt;logtalk::expand_library_path/2 -->
<g id="edge2" class="edge">
<title>term_expansion/2&#45;&gt;logtalk::expand_library_path/2</title>
<g id="a_edge2"><a xlink:href="https://github.com/LogtalkDotOrg/logtalk3/tree/master/library/expand_library_alias_paths.lgt#L31" xlink:title="calls">
<path fill="none" stroke="#000000" d="M330.0286,-292.4224C357.3946,-251.0332 418.0249,-159.3342 450.1246,-110.7857"/>
<polygon fill="#000000" stroke="#000000" points="450.273,-110.5613 450.2456,-103.3502 456.8914,-100.5514 450.273,-110.5613"/>
</a>
</g>
<g id="a_edge2&#45;label"><a xlink:href="https://github.com/LogtalkDotOrg/logtalk3/tree/master/library/expand_library_alias_paths.lgt#L31" xlink:title="https://github.com/LogtalkDotOrg/logtalk3/tree/master/library/expand_library_alias_paths.lgt#L31">
<text text-anchor="start" x="396" y="-194.2264" font-family="Courier,monospace" font-size="9.00" fill="#000000">calls</text>
</a>
</g>
</g>
</g>
</svg>
