<?xml version="1.0" encoding="UTF-8" standalone="no"?>
<?xml-stylesheet href="diagrams.css" type="text/css"?>
<!DOCTYPE svg PUBLIC "-//W3C//DTD SVG 1.1//EN"
 "http://www.w3.org/Graphics/SVG/1.1/DTD/svg11.dtd">
<!-- Generated by graphviz version 2.49.3 (20211023.0002)
 -->
<!-- Title: expanding_protocol Pages: 1 -->
<svg width="474pt" height="292pt"
 viewBox="72.00 72.00 402.00 220.00" xmlns="http://www.w3.org/2000/svg" xmlns:xlink="http://www.w3.org/1999/xlink">
<g id="graph0" class="graph" transform="scale(1 1) rotate(0) translate(76 216)">
<title>expanding_protocol</title>
<polygon fill="white" stroke="transparent" points="-4,4 -4,-144 326,-144 326,4 -4,4"/>
<text text-anchor="start" x="8" y="-29" font-family="Monospace" font-size="10.00" fill="dimgray">Logtalk core entities</text>
<text text-anchor="start" x="8" y="-18" font-family="Monospace" font-size="10.00" fill="dimgray">Cross&#45;referencing diagram for protocol expanding</text>
<text text-anchor="start" x="8" y="-7" font-family="Monospace" font-size="10.00" fill="dimgray">Generated on 2021&#45;12&#45;02, 08:17</text>
<g id="clust1" class="cluster">
<title>cluster_expanding_protocol</title>
<g id="a_clust1"><a xlink:title="expanding">
<path fill="snow" stroke="dimgray" d="M20,-49C20,-49 302,-49 302,-49 308,-49 314,-55 314,-61 314,-61 314,-120 314,-120 314,-126 308,-132 302,-132 302,-132 20,-132 20,-132 14,-132 8,-126 8,-120 8,-120 8,-61 8,-61 8,-55 14,-49 20,-49"/>
<g id="a_clust1_0"><a xlink:href="https://github.com/LogtalkDotOrg/logtalk3/tree/8f74caa8b343527af192c30fc01e18d864e14e52/core/expanding.lgt" xlink:title="https://github.com/LogtalkDotOrg/logtalk3/tree/8f74caa8b343527af192c30fc01e18d864e14e52/core/expanding.lgt">
<text text-anchor="start" x="20.5" y="-115.5" font-family="Monospace" font-size="10.00" fill="dimgray">expanding</text>
</a>
</g>
</a>
</g>
</g>
<!-- goal_expansion/2 -->
<g id="node1" class="node">
<title>goal_expansion/2</title>
<g id="a_node1"><a xlink:href="https://github.com/LogtalkDotOrg/logtalk3/tree/8f74caa8b343527af192c30fc01e18d864e14e52/core/expanding.lgt#L33" xlink:title="https://github.com/LogtalkDotOrg/logtalk3/tree/8f74caa8b343527af192c30fc01e18d864e14e52/core/expanding.lgt#L33">
<polygon fill="springgreen" stroke="black" points="304,-95 170,-95 170,-59 304,-59 304,-95"/>
<text text-anchor="start" x="178" y="-79.8" font-family="Monospace" font-size="9.00"> </text>
<text text-anchor="start" x="184" y="-79.2" font-family="Monospace" font-size="11.00">goal_expansion/2</text>
<text text-anchor="start" x="290" y="-79.8" font-family="Monospace" font-size="9.00"> </text>
<text text-anchor="start" x="178" y="-68.8" font-family="Monospace" font-size="9.00"> </text>
<text text-anchor="start" x="224" y="-69.4" font-family="Monospace" font-size="7.00">public</text>
<text text-anchor="start" x="290" y="-68.8" font-family="Monospace" font-size="9.00"> </text>
</a>
</g>
</g>
<!-- term_expansion/2 -->
<g id="node2" class="node">
<title>term_expansion/2</title>
<g id="a_node2"><a xlink:href="https://github.com/LogtalkDotOrg/logtalk3/tree/8f74caa8b343527af192c30fc01e18d864e14e52/core/expanding.lgt#L40" xlink:title="https://github.com/LogtalkDotOrg/logtalk3/tree/8f74caa8b343527af192c30fc01e18d864e14e52/core/expanding.lgt#L40">
<polygon fill="springgreen" stroke="black" points="152,-95 18,-95 18,-59 152,-59 152,-95"/>
<text text-anchor="start" x="26" y="-79.8" font-family="Monospace" font-size="9.00"> </text>
<text text-anchor="start" x="32" y="-79.2" font-family="Monospace" font-size="11.00">term_expansion/2</text>
<text text-anchor="start" x="138" y="-79.8" font-family="Monospace" font-size="9.00"> </text>
<text text-anchor="start" x="26" y="-68.8" font-family="Monospace" font-size="9.00"> </text>
<text text-anchor="start" x="72" y="-69.4" font-family="Monospace" font-size="7.00">public</text>
<text text-anchor="start" x="138" y="-68.8" font-family="Monospace" font-size="9.00"> </text>
</a>
</g>
</g>
</g>
</svg>
