<?xml version="1.0" encoding="UTF-8" standalone="no"?>
<!DOCTYPE svg PUBLIC "-//W3C//DTD SVG 1.1//EN"
 "http://www.w3.org/Graphics/SVG/1.1/DTD/svg11.dtd">
<!-- Generated by graphviz version 2.40.1 (20161225.0304)
 -->
<!-- Title: expand_library_alias_paths_object Pages: 1 -->
<svg width="724pt" height="517pt"
 viewBox="72.00 72.00 652.00 445.43" xmlns="http://www.w3.org/2000/svg" xmlns:xlink="http://www.w3.org/1999/xlink">
<g id="graph0" class="graph" transform="scale(1 1) rotate(0) translate(76 441.4264)">
<title>expand_library_alias_paths_object</title>
<polygon fill="#ffffff" stroke="transparent" points="-4,4 -4,-369.4264 576,-369.4264 576,4 -4,4"/>
<text text-anchor="start" x="8" y="-18" font-family="Courier,monospace" font-size="10.00" fill="#8b8989">Logtalk library</text>
<text text-anchor="start" x="8" y="-7" font-family="Courier,monospace" font-size="10.00" fill="#8b8989">Generated on 2019/04/12, 21:30</text>
<g id="clust1" class="cluster">
<title>cluster_expand_library_alias_paths_object</title>
<g id="a_clust1"><a xlink:href="https://github.com/LogtalkDotOrg/logtalk3/tree/master/library/expand_library_alias_paths.lgt" xlink:title="https://github.com/LogtalkDotOrg/logtalk3/tree/master/library/expand_library_alias_paths.lgt">
<path fill="#fffafa" stroke="#8b8989" d="M20,-38C20,-38 552,-38 552,-38 558,-38 564,-44 564,-50 564,-50 564,-345.4264 564,-345.4264 564,-351.4264 558,-357.4264 552,-357.4264 552,-357.4264 20,-357.4264 20,-357.4264 14,-357.4264 8,-351.4264 8,-345.4264 8,-345.4264 8,-50 8,-50 8,-44 14,-38 20,-38"/>
<text text-anchor="middle" x="94.5" y="-345.4264" font-family="Courier,monospace" font-size="10.00" fill="#8b8989">expand_library_alias_paths</text>
</a>
</g>
</g>
<g id="clust2" class="cluster">
<title>cluster_other</title>
<g id="a_clust2"><a xlink:title="(external predicates)">
<path fill="#ffffff" stroke="#8b8989" d="M30,-48C30,-48 542,-48 542,-48 548,-48 554,-54 554,-60 554,-60 554,-111 554,-111 554,-117 548,-123 542,-123 542,-123 30,-123 30,-123 24,-123 18,-117 18,-111 18,-111 18,-60 18,-60 18,-54 24,-48 30,-48"/>
<text text-anchor="middle" x="89.5" y="-111" font-family="Courier,monospace" font-size="10.00" fill="#8b8989">(external predicates)</text>
</a>
</g>
</g>
<!-- term_expansion/2 -->
<g id="node1" class="node">
<title>term_expansion/2</title>
<g id="a_node1"><a xlink:href="https://github.com/LogtalkDotOrg/logtalk3/tree/master/library/expand_library_alias_paths.lgt#L31" xlink:title="https://github.com/LogtalkDotOrg/logtalk3/tree/master/library/expand_library_alias_paths.lgt#L31">
<ellipse fill="#f5f5dc" stroke="#000000" cx="274" cy="-307.2132" rx="94.5053" ry="21.4286"/>
<text text-anchor="start" x="215" y="-310.0132" font-family="Courier,monospace" font-size="9.00" fill="#000000"> </text>
<text text-anchor="start" x="221" y="-309.4132" font-family="Courier,monospace" font-size="11.00" fill="#000000">term_expansion/2</text>
<text text-anchor="start" x="327" y="-310.0132" font-family="Courier,monospace" font-size="9.00" fill="#000000"> </text>
<text text-anchor="start" x="215" y="-299.0132" font-family="Courier,monospace" font-size="9.00" fill="#000000"> </text>
<text text-anchor="start" x="263" y="-299.6132" font-family="Courier,monospace" font-size="7.00" fill="#000000">local</text>
<text text-anchor="start" x="327" y="-299.0132" font-family="Courier,monospace" font-size="9.00" fill="#000000"> </text>
</a>
</g>
</g>
<!-- os::absolute_file_name/2 -->
<g id="node2" class="node">
<title>os::absolute_file_name/2</title>
<ellipse fill="#d3d3d3" stroke="#000000" stroke-dasharray="5,2" cx="140" cy="-76" rx="112.4004" ry="18"/>
<text text-anchor="start" x="55" y="-73.8" font-family="Courier,monospace" font-size="9.00" fill="#000000"> </text>
<text text-anchor="start" x="61" y="-73.2" font-family="Courier,monospace" font-size="11.00" fill="#000000">os::absolute_file_name/2</text>
<text text-anchor="start" x="220" y="-73.8" font-family="Courier,monospace" font-size="9.00" fill="#000000"> </text>
</g>
<!-- term_expansion/2&#45;&gt;os::absolute_file_name/2 -->
<g id="edge1" class="edge">
<title>term_expansion/2&#45;&gt;os::absolute_file_name/2</title>
<g id="a_edge1"><a xlink:href="https://github.com/LogtalkDotOrg/logtalk3/tree/master/library/expand_library_alias_paths.lgt#L31" xlink:title="calls">
<path fill="none" stroke="#000000" d="M261.6338,-285.8757C237.4522,-244.151 183.8916,-151.7337 156.6337,-104.701"/>
<polygon fill="#000000" stroke="#000000" points="156.4761,-104.429 150.0067,-101.2435 150.4589,-94.0466 156.4761,-104.429"/>
</a>
</g>
<g id="a_edge1&#45;label"><a xlink:href="https://github.com/LogtalkDotOrg/logtalk3/tree/master/library/expand_library_alias_paths.lgt#L31" xlink:title="https://github.com/LogtalkDotOrg/logtalk3/tree/master/library/expand_library_alias_paths.lgt#L31">
<text text-anchor="start" x="207" y="-187.8" font-family="Courier,monospace" font-size="9.00" fill="#000000">calls</text>
</a>
</g>
</g>
<!-- logtalk::expand_library_path/2 -->
<g id="node3" class="node">
<title>logtalk::expand_library_path/2</title>
<ellipse fill="#d3d3d3" stroke="#000000" stroke-dasharray="5,2" cx="407" cy="-76" rx="136.5074" ry="18"/>
<text text-anchor="start" x="302" y="-73.8" font-family="Courier,monospace" font-size="9.00" fill="#000000"> </text>
<text text-anchor="start" x="308" y="-73.2" font-family="Courier,monospace" font-size="11.00" fill="#000000">logtalk::expand_library_path/2</text>
<text text-anchor="start" x="507" y="-73.8" font-family="Courier,monospace" font-size="9.00" fill="#000000"> </text>
</g>
<!-- term_expansion/2&#45;&gt;logtalk::expand_library_path/2 -->
<g id="edge2" class="edge">
<title>term_expansion/2&#45;&gt;logtalk::expand_library_path/2</title>
<g id="a_edge2"><a xlink:href="https://github.com/LogtalkDotOrg/logtalk3/tree/master/library/expand_library_alias_paths.lgt#L31" xlink:title="calls">
<path fill="none" stroke="#000000" d="M286.2739,-285.8757C310.2751,-244.151 363.436,-151.7337 390.4904,-104.701"/>
<polygon fill="#000000" stroke="#000000" points="390.6356,-104.4485 390.1601,-97.253 396.6191,-94.0466 390.6356,-104.4485"/>
</a>
</g>
<g id="a_edge2&#45;label"><a xlink:href="https://github.com/LogtalkDotOrg/logtalk3/tree/master/library/expand_library_alias_paths.lgt#L31" xlink:title="https://github.com/LogtalkDotOrg/logtalk3/tree/master/library/expand_library_alias_paths.lgt#L31">
<text text-anchor="start" x="342" y="-187.8" font-family="Courier,monospace" font-size="9.00" fill="#000000">calls</text>
</a>
</g>
</g>
</g>
</svg>
