<?xml version="1.0" encoding="UTF-8" standalone="no"?>
<?xml-stylesheet href="diagrams.css" type="text/css"?>
<!DOCTYPE svg PUBLIC "-//W3C//DTD SVG 1.1//EN"
 "http://www.w3.org/Graphics/SVG/1.1/DTD/svg11.dtd">
<!-- Generated by graphviz version 2.43.20191029.1313 (20191029.1313)
 -->
<!-- Title: expanding_protocol Pages: 1 -->
<svg width="469pt" height="288pt"
 viewBox="72.00 72.00 397.00 216.00" xmlns="http://www.w3.org/2000/svg" xmlns:xlink="http://www.w3.org/1999/xlink">
<g id="graph0" class="graph" transform="scale(1 1) rotate(0) translate(76 212)">
<title>expanding_protocol</title>
<polygon fill="white" stroke="transparent" points="-4,4 -4,-140 321,-140 321,4 -4,4"/>
<text text-anchor="start" x="8" y="-26" font-family="Courier,monospace" font-size="10.00" fill="dimgray">Logtalk core entities</text>
<text text-anchor="start" x="8" y="-16" font-family="Courier,monospace" font-size="10.00" fill="dimgray">Cross&#45;referencing diagram for protocol expanding</text>
<text text-anchor="start" x="8" y="-6" font-family="Courier,monospace" font-size="10.00" fill="dimgray">Generated on 2020&#45;05&#45;25, 21:55</text>
<g id="clust1" class="cluster">
<title>cluster_expanding_protocol</title>
<g id="a_clust1"><a xlink:title="expanding">
<path fill="snow" stroke="dimgray" d="M20,-46C20,-46 297,-46 297,-46 303,-46 309,-52 309,-58 309,-58 309,-116 309,-116 309,-122 303,-128 297,-128 297,-128 20,-128 20,-128 14,-128 8,-122 8,-116 8,-116 8,-58 8,-58 8,-52 14,-46 20,-46"/>
<g id="a_clust1_0"><a xlink:href="https://github.com/LogtalkDotOrg/logtalk3/tree/ee3e469ba16664bcc8b3b120a4a0bb7672d96db2/core/expanding.lgt" xlink:title="https://github.com/LogtalkDotOrg/logtalk3/tree/ee3e469ba16664bcc8b3b120a4a0bb7672d96db2/core/expanding.lgt">
<text text-anchor="start" x="20" y="-112" font-family="Courier,monospace" font-size="10.00" fill="dimgray">expanding</text>
</a>
</g>
</a>
</g>
</g>
<!-- goal_expansion/2 -->
<g id="node1" class="node">
<title>goal_expansion/2</title>
<g id="a_node1"><a xlink:href="https://github.com/LogtalkDotOrg/logtalk3/tree/ee3e469ba16664bcc8b3b120a4a0bb7672d96db2/core/expanding.lgt#L32" xlink:title="https://github.com/LogtalkDotOrg/logtalk3/tree/ee3e469ba16664bcc8b3b120a4a0bb7672d96db2/core/expanding.lgt#L32">
<polygon fill="springgreen" stroke="black" points="298.5,-92 167.5,-92 167.5,-56 298.5,-56 298.5,-92"/>
<text text-anchor="start" x="175.8" y="-75.8" font-family="Courier,monospace" font-size="9.00"> </text>
<text text-anchor="start" x="180.69" y="-75.2" font-family="Courier,monospace" font-size="11.00">goal_expansion/2</text>
<text text-anchor="start" x="285.8" y="-75.8" font-family="Courier,monospace" font-size="9.00"> </text>
<text text-anchor="start" x="175.8" y="-65.8" font-family="Courier,monospace" font-size="9.00"> </text>
<text text-anchor="start" x="220.9" y="-66.4" font-family="Courier,monospace" font-size="7.00">public</text>
<text text-anchor="start" x="285.8" y="-65.8" font-family="Courier,monospace" font-size="9.00"> </text>
</a>
</g>
</g>
<!-- term_expansion/2 -->
<g id="node2" class="node">
<title>term_expansion/2</title>
<g id="a_node2"><a xlink:href="https://github.com/LogtalkDotOrg/logtalk3/tree/ee3e469ba16664bcc8b3b120a4a0bb7672d96db2/core/expanding.lgt#L39" xlink:title="https://github.com/LogtalkDotOrg/logtalk3/tree/ee3e469ba16664bcc8b3b120a4a0bb7672d96db2/core/expanding.lgt#L39">
<polygon fill="springgreen" stroke="black" points="149.5,-92 18.5,-92 18.5,-56 149.5,-56 149.5,-92"/>
<text text-anchor="start" x="26.8" y="-75.8" font-family="Courier,monospace" font-size="9.00"> </text>
<text text-anchor="start" x="31.69" y="-75.2" font-family="Courier,monospace" font-size="11.00">term_expansion/2</text>
<text text-anchor="start" x="136.8" y="-75.8" font-family="Courier,monospace" font-size="9.00"> </text>
<text text-anchor="start" x="26.8" y="-65.8" font-family="Courier,monospace" font-size="9.00"> </text>
<text text-anchor="start" x="71.9" y="-66.4" font-family="Courier,monospace" font-size="7.00">public</text>
<text text-anchor="start" x="136.8" y="-65.8" font-family="Courier,monospace" font-size="9.00"> </text>
</a>
</g>
</g>
</g>
</svg>
