<?xml version="1.0" encoding="UTF-8" standalone="no"?>
<?xml-stylesheet href="diagrams.css" type="text/css"?>
<!DOCTYPE svg PUBLIC "-//W3C//DTD SVG 1.1//EN"
 "http://www.w3.org/Graphics/SVG/1.1/DTD/svg11.dtd">
<!-- Generated by graphviz version 12.2.1 (20241206.2353)
 -->
<!-- Title: flags_validator_protocol Pages: 1 -->
<svg width="492pt" height="299pt"
 viewBox="72.00 72.00 420.00 227.00" xmlns="http://www.w3.org/2000/svg" xmlns:xlink="http://www.w3.org/1999/xlink">
<g id="graph0" class="graph" transform="scale(1 1) rotate(0) translate(76 223)">
<title>flags_validator_protocol</title>
<polygon fill="white" stroke="none" points="-4,4 -4,-151 344,-151 344,4 -4,4"/>
<text text-anchor="start" x="8" y="-32.75" font-family="Monospace" font-size="10.00" fill="dimgray">Logtalk third&#45;party contributions</text>
<text text-anchor="start" x="8" y="-20" font-family="Monospace" font-size="10.00" fill="dimgray">Cross&#45;referencing diagram for protocol flags_validator</text>
<text text-anchor="start" x="8" y="-7.25" font-family="Monospace" font-size="10.00" fill="dimgray">Generated on 2024&#45;12&#45;13, 19:44</text>
<g id="clust1" class="cluster">
<title>cluster_flags_validator_protocol</title>
<g id="a_clust1"><a xlink:title="flags_validator">
<path fill="snow" stroke="dimgray" d="M59,-54.25C59,-54.25 281,-54.25 281,-54.25 287,-54.25 293,-60.25 293,-66.25 293,-66.25 293,-127 293,-127 293,-133 287,-139 281,-139 281,-139 59,-139 59,-139 53,-139 47,-133 47,-127 47,-127 47,-66.25 47,-66.25 47,-60.25 53,-54.25 59,-54.25"/>
<g id="a_clust1_0"><a xlink:href="https://github.com/LogtalkDotOrg/logtalk3/tree/9896bf33778d9b5dd20f193051a04885cb997cab/contributions/flags/flags.lgt" xlink:title="https://github.com/LogtalkDotOrg/logtalk3/tree/9896bf33778d9b5dd20f193051a04885cb997cab/contributions/flags/flags.lgt">
<text text-anchor="start" x="59" y="-121.5" font-family="Monospace" font-size="10.00" fill="dimgray">flags_validator</text>
</a>
</g>
</a>
</g>
</g>
<!-- print_flags/0 -->
<g id="node1" class="node">
<title>print_flags/0</title>
<g id="a_node1"><a xlink:href="https://github.com/LogtalkDotOrg/logtalk3/tree/9896bf33778d9b5dd20f193051a04885cb997cab/contributions/flags/flags.lgt#L212" xlink:title="https://github.com/LogtalkDotOrg/logtalk3/tree/9896bf33778d9b5dd20f193051a04885cb997cab/contributions/flags/flags.lgt#L212">
<polygon fill="springgreen" stroke="black" points="171.12,-100.25 56.87,-100.25 56.87,-64.25 171.12,-64.25 171.12,-100.25"/>
<text text-anchor="start" x="64.88" y="-84.95" font-family="Monospace" font-size="9.00"> </text>
<text text-anchor="start" x="70.12" y="-84.17" font-family="Monospace" font-size="11.00">print_flags/0</text>
<text text-anchor="start" x="157.88" y="-84.95" font-family="Monospace" font-size="9.00"> </text>
<text text-anchor="start" x="64.88" y="-72.58" font-family="Monospace" font-size="9.00"> </text>
<text text-anchor="start" x="100.5" y="-73.35" font-family="Monospace" font-size="7.00">public</text>
<text text-anchor="start" x="157.88" y="-72.58" font-family="Monospace" font-size="9.00"> </text>
</a>
</g>
</g>
<!-- validate/1 -->
<g id="node2" class="node">
<title>validate/1</title>
<g id="a_node2"><a xlink:href="https://github.com/LogtalkDotOrg/logtalk3/tree/9896bf33778d9b5dd20f193051a04885cb997cab/contributions/flags/flags.lgt#L218" xlink:title="https://github.com/LogtalkDotOrg/logtalk3/tree/9896bf33778d9b5dd20f193051a04885cb997cab/contributions/flags/flags.lgt#L218">
<polygon fill="springgreen" stroke="black" points="283,-100.25 189,-100.25 189,-64.25 283,-64.25 283,-100.25"/>
<text text-anchor="start" x="197" y="-84.95" font-family="Monospace" font-size="9.00"> </text>
<text text-anchor="start" x="202.25" y="-84.17" font-family="Monospace" font-size="11.00">validate/1</text>
<text text-anchor="start" x="269.75" y="-84.95" font-family="Monospace" font-size="9.00"> </text>
<text text-anchor="start" x="197" y="-72.58" font-family="Monospace" font-size="9.00"> </text>
<text text-anchor="start" x="222.5" y="-73.35" font-family="Monospace" font-size="7.00">public</text>
<text text-anchor="start" x="269.75" y="-72.58" font-family="Monospace" font-size="9.00"> </text>
</a>
</g>
</g>
</g>
</svg>
