<?xml version="1.0" encoding="UTF-8" standalone="no"?>
<?xml-stylesheet href="diagrams.css" type="text/css"?>
<!DOCTYPE svg PUBLIC "-//W3C//DTD SVG 1.1//EN"
 "http://www.w3.org/Graphics/SVG/1.1/DTD/svg11.dtd">
<!-- Generated by graphviz version 11.0.0 (20240428.1522)
 -->
<!-- Title: flags_validator_protocol Pages: 1 -->
<svg width="492pt" height="299pt"
 viewBox="72.00 72.00 420.00 227.00" xmlns="http://www.w3.org/2000/svg" xmlns:xlink="http://www.w3.org/1999/xlink">
<g id="graph0" class="graph" transform="scale(1 1) rotate(0) translate(76 223)">
<title>flags_validator_protocol</title>
<polygon fill="white" stroke="none" points="-4,4 -4,-151 344,-151 344,4 -4,4"/>
<text text-anchor="start" x="8" y="-32.75" font-family="Monospace" font-size="10.00" fill="dimgray">Logtalk third&#45;party contributions</text>
<text text-anchor="start" x="8" y="-20" font-family="Monospace" font-size="10.00" fill="dimgray">Cross&#45;referencing diagram for protocol flags_validator</text>
<text text-anchor="start" x="8" y="-7.25" font-family="Monospace" font-size="10.00" fill="dimgray">Generated on 2024&#45;06&#45;18, 15:44</text>
<g id="clust1" class="cluster">
<title>cluster_flags_validator_protocol</title>
<g id="a_clust1"><a xlink:title="flags_validator">
<path fill="snow" stroke="dimgray" d="M59.5,-54.25C59.5,-54.25 280.5,-54.25 280.5,-54.25 286.5,-54.25 292.5,-60.25 292.5,-66.25 292.5,-66.25 292.5,-127 292.5,-127 292.5,-133 286.5,-139 280.5,-139 280.5,-139 59.5,-139 59.5,-139 53.5,-139 47.5,-133 47.5,-127 47.5,-127 47.5,-66.25 47.5,-66.25 47.5,-60.25 53.5,-54.25 59.5,-54.25"/>
<g id="a_clust1_0"><a xlink:href="https://github.com/LogtalkDotOrg/logtalk3/tree/f7b2df9b4c4e74851a8747a3caccbe4b332351bd/contributions/flags/flags.lgt" xlink:title="https://github.com/LogtalkDotOrg/logtalk3/tree/f7b2df9b4c4e74851a8747a3caccbe4b332351bd/contributions/flags/flags.lgt">
<text text-anchor="start" x="59.5" y="-121.5" font-family="Monospace" font-size="10.00" fill="dimgray">flags_validator</text>
</a>
</g>
</a>
</g>
</g>
<!-- print_flags/0 -->
<g id="node1" class="node">
<title>print_flags/0</title>
<g id="a_node1"><a xlink:href="https://github.com/LogtalkDotOrg/logtalk3/tree/f7b2df9b4c4e74851a8747a3caccbe4b332351bd/contributions/flags/flags.lgt#L212" xlink:title="https://github.com/LogtalkDotOrg/logtalk3/tree/f7b2df9b4c4e74851a8747a3caccbe4b332351bd/contributions/flags/flags.lgt#L212">
<polygon fill="springgreen" stroke="black" points="171,-100.25 58,-100.25 58,-64.25 171,-64.25 171,-100.25"/>
<text text-anchor="start" x="65.88" y="-84.83" font-family="Monospace" font-size="9.00"> </text>
<text text-anchor="start" x="70.62" y="-83.8" font-family="Monospace" font-size="11.00">print_flags/0</text>
<text text-anchor="start" x="157.88" y="-84.83" font-family="Monospace" font-size="9.00"> </text>
<text text-anchor="start" x="65.88" y="-72.7" font-family="Monospace" font-size="9.00"> </text>
<text text-anchor="start" x="101" y="-73.6" font-family="Monospace" font-size="7.00">public</text>
<text text-anchor="start" x="157.88" y="-72.7" font-family="Monospace" font-size="9.00"> </text>
</a>
</g>
</g>
<!-- validate/1 -->
<g id="node2" class="node">
<title>validate/1</title>
<g id="a_node2"><a xlink:href="https://github.com/LogtalkDotOrg/logtalk3/tree/f7b2df9b4c4e74851a8747a3caccbe4b332351bd/contributions/flags/flags.lgt#L218" xlink:title="https://github.com/LogtalkDotOrg/logtalk3/tree/f7b2df9b4c4e74851a8747a3caccbe4b332351bd/contributions/flags/flags.lgt#L218">
<polygon fill="springgreen" stroke="black" points="282,-100.25 189,-100.25 189,-64.25 282,-64.25 282,-100.25"/>
<text text-anchor="start" x="196.88" y="-84.83" font-family="Monospace" font-size="9.00"> </text>
<text text-anchor="start" x="201.75" y="-83.8" font-family="Monospace" font-size="11.00">validate/1</text>
<text text-anchor="start" x="268.88" y="-84.83" font-family="Monospace" font-size="9.00"> </text>
<text text-anchor="start" x="196.88" y="-72.7" font-family="Monospace" font-size="9.00"> </text>
<text text-anchor="start" x="222" y="-73.6" font-family="Monospace" font-size="7.00">public</text>
<text text-anchor="start" x="268.88" y="-72.7" font-family="Monospace" font-size="9.00"> </text>
</a>
</g>
</g>
</g>
</svg>
