<?xml version="1.0" encoding="UTF-8" standalone="no"?>
<!DOCTYPE svg PUBLIC "-//W3C//DTD SVG 1.1//EN"
 "http://www.w3.org/Graphics/SVG/1.1/DTD/svg11.dtd">
<!-- Generated by graphviz version 2.40.1 (20161225.0304)
 -->
<!-- Title: flags_validator_protocol Pages: 1 -->
<svg width="502pt" height="290pt"
 viewBox="72.00 72.00 430.00 218.43" xmlns="http://www.w3.org/2000/svg" xmlns:xlink="http://www.w3.org/1999/xlink">
<g id="graph0" class="graph" transform="scale(1 1) rotate(0) translate(76 214.4264)">
<title>flags_validator_protocol</title>
<polygon fill="#ffffff" stroke="transparent" points="-4,4 -4,-142.4264 354,-142.4264 354,4 -4,4"/>
<text text-anchor="start" x="8" y="-29" font-family="Courier,monospace" font-size="10.00" fill="#8b8989">Logtalk third&#45;party contributions</text>
<text text-anchor="start" x="8" y="-18" font-family="Courier,monospace" font-size="10.00" fill="#8b8989">Cross&#45;referencing diagram</text>
<text text-anchor="start" x="8" y="-7" font-family="Courier,monospace" font-size="10.00" fill="#8b8989">Generated on 2019/04/21, 10:26</text>
<g id="clust1" class="cluster">
<title>cluster_flags_validator_protocol</title>
<g id="a_clust1"><a xlink:href="https://github.com/LogtalkDotOrg/logtalk3/tree/master/contributions/flags/flags.lgt" xlink:title="https://github.com/LogtalkDotOrg/logtalk3/tree/master/contributions/flags/flags.lgt">
<path fill="#fffafa" stroke="#8b8989" d="M20,-49C20,-49 330,-49 330,-49 336,-49 342,-55 342,-61 342,-61 342,-118.4264 342,-118.4264 342,-124.4264 336,-130.4264 330,-130.4264 330,-130.4264 20,-130.4264 20,-130.4264 14,-130.4264 8,-124.4264 8,-118.4264 8,-118.4264 8,-61 8,-61 8,-55 14,-49 20,-49"/>
<text text-anchor="middle" x="61.5" y="-118.4264" font-family="Courier,monospace" font-size="10.00" fill="#8b8989">flags_validator</text>
</a>
</g>
</g>
<!-- print_flags/0 -->
<g id="node1" class="node">
<title>print_flags/0</title>
<g id="a_node1"><a xlink:href="https://github.com/LogtalkDotOrg/logtalk3/tree/master/contributions/flags/flags.lgt#L212" xlink:title="https://github.com/LogtalkDotOrg/logtalk3/tree/master/contributions/flags/flags.lgt#L212">
<ellipse fill="#00ff7f" stroke="#000000" cx="251" cy="-80.2132" rx="80.7205" ry="21.4286"/>
<text text-anchor="start" x="202" y="-83.0132" font-family="Courier,monospace" font-size="9.00" fill="#000000"> </text>
<text text-anchor="start" x="208" y="-82.4132" font-family="Courier,monospace" font-size="11.00" fill="#000000">print_flags/0</text>
<text text-anchor="start" x="294" y="-83.0132" font-family="Courier,monospace" font-size="9.00" fill="#000000"> </text>
<text text-anchor="start" x="202" y="-72.0132" font-family="Courier,monospace" font-size="9.00" fill="#000000"> </text>
<text text-anchor="start" x="238" y="-72.6132" font-family="Courier,monospace" font-size="7.00" fill="#000000">public</text>
<text text-anchor="start" x="294" y="-72.0132" font-family="Courier,monospace" font-size="9.00" fill="#000000"> </text>
</a>
</g>
</g>
<!-- validate/1 -->
<g id="node2" class="node">
<title>validate/1</title>
<g id="a_node2"><a xlink:href="https://github.com/LogtalkDotOrg/logtalk3/tree/master/contributions/flags/flags.lgt#L218" xlink:title="https://github.com/LogtalkDotOrg/logtalk3/tree/master/contributions/flags/flags.lgt#L218">
<ellipse fill="#00ff7f" stroke="#000000" cx="85" cy="-80.2132" rx="67.3507" ry="21.4286"/>
<text text-anchor="start" x="46" y="-83.0132" font-family="Courier,monospace" font-size="9.00" fill="#000000"> </text>
<text text-anchor="start" x="52" y="-82.4132" font-family="Courier,monospace" font-size="11.00" fill="#000000">validate/1</text>
<text text-anchor="start" x="119" y="-83.0132" font-family="Courier,monospace" font-size="9.00" fill="#000000"> </text>
<text text-anchor="start" x="46" y="-72.0132" font-family="Courier,monospace" font-size="9.00" fill="#000000"> </text>
<text text-anchor="start" x="72.5" y="-72.6132" font-family="Courier,monospace" font-size="7.00" fill="#000000">public</text>
<text text-anchor="start" x="119" y="-72.0132" font-family="Courier,monospace" font-size="9.00" fill="#000000"> </text>
</a>
</g>
</g>
</g>
</svg>
