<?xml version="1.0" encoding="UTF-8" standalone="no"?>
<?xml-stylesheet href="diagrams.css" type="text/css"?>
<!DOCTYPE svg PUBLIC "-//W3C//DTD SVG 1.1//EN"
 "http://www.w3.org/Graphics/SVG/1.1/DTD/svg11.dtd">
<!-- Generated by graphviz version 9.0.0 (20230911.1827)
 -->
<!-- Title: flags_validator_protocol Pages: 1 -->
<svg width="492pt" height="293pt"
 viewBox="72.00 72.00 420.00 221.00" xmlns="http://www.w3.org/2000/svg" xmlns:xlink="http://www.w3.org/1999/xlink">
<g id="graph0" class="graph" transform="scale(1 1) rotate(0) translate(76 217)">
<title>flags_validator_protocol</title>
<polygon fill="white" stroke="none" points="-4,4 -4,-145 344,-145 344,4 -4,4"/>
<text text-anchor="start" x="8" y="-28.25" font-family="Monospace" font-size="10.00" fill="dimgray">Logtalk third&#45;party contributions</text>
<text text-anchor="start" x="8" y="-17" font-family="Monospace" font-size="10.00" fill="dimgray">Cross&#45;referencing diagram for protocol flags_validator</text>
<text text-anchor="start" x="8" y="-5.75" font-family="Monospace" font-size="10.00" fill="dimgray">Generated on 2023&#45;11&#45;14, 10:14</text>
<g id="clust1" class="cluster">
<title>cluster_flags_validator_protocol</title>
<g id="a_clust1"><a xlink:title="flags_validator">
<path fill="snow" stroke="dimgray" d="M59.5,-49.75C59.5,-49.75 280.5,-49.75 280.5,-49.75 286.5,-49.75 292.5,-55.75 292.5,-61.75 292.5,-61.75 292.5,-121 292.5,-121 292.5,-127 286.5,-133 280.5,-133 280.5,-133 59.5,-133 59.5,-133 53.5,-133 47.5,-127 47.5,-121 47.5,-121 47.5,-61.75 47.5,-61.75 47.5,-55.75 53.5,-49.75 59.5,-49.75"/>
<g id="a_clust1_0"><a xlink:href="https://github.com/LogtalkDotOrg/logtalk3/tree/10aa8c2853793923da67b861f25266dd336e486e/contributions/flags/flags.lgt" xlink:title="https://github.com/LogtalkDotOrg/logtalk3/tree/10aa8c2853793923da67b861f25266dd336e486e/contributions/flags/flags.lgt">
<text text-anchor="start" x="59.5" y="-115.5" font-family="Monospace" font-size="10.00" fill="dimgray">flags_validator</text>
</a>
</g>
</a>
</g>
</g>
<!-- print_flags/0 -->
<g id="node1" class="node">
<title>print_flags/0</title>
<g id="a_node1"><a xlink:href="https://github.com/LogtalkDotOrg/logtalk3/tree/10aa8c2853793923da67b861f25266dd336e486e/contributions/flags/flags.lgt#L212" xlink:title="https://github.com/LogtalkDotOrg/logtalk3/tree/10aa8c2853793923da67b861f25266dd336e486e/contributions/flags/flags.lgt#L212">
<polygon fill="springgreen" stroke="black" points="282,-95.75 169,-95.75 169,-59.75 282,-59.75 282,-95.75"/>
<text text-anchor="start" x="176.88" y="-78.58" font-family="Monospace" font-size="9.00"> </text>
<text text-anchor="start" x="181.62" y="-77.8" font-family="Monospace" font-size="11.00">print_flags/0</text>
<text text-anchor="start" x="268.88" y="-78.58" font-family="Monospace" font-size="9.00"> </text>
<text text-anchor="start" x="176.88" y="-67.7" font-family="Monospace" font-size="9.00"> </text>
<text text-anchor="start" x="212" y="-69.22" font-family="Monospace" font-size="7.00">public</text>
<text text-anchor="start" x="268.88" y="-67.7" font-family="Monospace" font-size="9.00"> </text>
</a>
</g>
</g>
<!-- validate/1 -->
<g id="node2" class="node">
<title>validate/1</title>
<g id="a_node2"><a xlink:href="https://github.com/LogtalkDotOrg/logtalk3/tree/10aa8c2853793923da67b861f25266dd336e486e/contributions/flags/flags.lgt#L218" xlink:title="https://github.com/LogtalkDotOrg/logtalk3/tree/10aa8c2853793923da67b861f25266dd336e486e/contributions/flags/flags.lgt#L218">
<polygon fill="springgreen" stroke="black" points="151,-95.75 58,-95.75 58,-59.75 151,-59.75 151,-95.75"/>
<text text-anchor="start" x="65.88" y="-78.58" font-family="Monospace" font-size="9.00"> </text>
<text text-anchor="start" x="70.75" y="-77.8" font-family="Monospace" font-size="11.00">validate/1</text>
<text text-anchor="start" x="137.88" y="-78.58" font-family="Monospace" font-size="9.00"> </text>
<text text-anchor="start" x="65.88" y="-67.7" font-family="Monospace" font-size="9.00"> </text>
<text text-anchor="start" x="91" y="-69.22" font-family="Monospace" font-size="7.00">public</text>
<text text-anchor="start" x="137.88" y="-67.7" font-family="Monospace" font-size="9.00"> </text>
</a>
</g>
</g>
</g>
</svg>
