<?xml version="1.0" encoding="UTF-8" standalone="no"?>
<?xml-stylesheet href="diagrams.css" type="text/css"?>
<!DOCTYPE svg PUBLIC "-//W3C//DTD SVG 1.1//EN"
 "http://www.w3.org/Graphics/SVG/1.1/DTD/svg11.dtd">
<!-- Generated by graphviz version 2.49.4~dev.20211124.1647 (20211124.1647)
 -->
<!-- Title: flags_validator_protocol Pages: 1 -->
<svg width="438pt" height="292pt"
 viewBox="72.00 72.00 366.00 220.00" xmlns="http://www.w3.org/2000/svg" xmlns:xlink="http://www.w3.org/1999/xlink">
<g id="graph0" class="graph" transform="scale(1 1) rotate(0) translate(76 216)">
<title>flags_validator_protocol</title>
<polygon fill="white" stroke="transparent" points="-4,4 -4,-144 290,-144 290,4 -4,4"/>
<text text-anchor="start" x="8" y="-29" font-family="Courier,monospace" font-size="10.00" fill="dimgray">Logtalk third&#45;party contributions</text>
<text text-anchor="start" x="8" y="-18" font-family="Courier,monospace" font-size="10.00" fill="dimgray">Cross&#45;referencing diagram for protocol flags_validator</text>
<text text-anchor="start" x="8" y="-7" font-family="Courier,monospace" font-size="10.00" fill="dimgray">Generated on 2021&#45;11&#45;24, 21:25</text>
<g id="clust1" class="cluster">
<title>cluster_flags_validator_protocol</title>
<g id="a_clust1"><a xlink:title="flags_validator">
<path fill="snow" stroke="dimgray" d="M46,-49C46,-49 240,-49 240,-49 246,-49 252,-55 252,-61 252,-61 252,-120 252,-120 252,-126 246,-132 240,-132 240,-132 46,-132 46,-132 40,-132 34,-126 34,-120 34,-120 34,-61 34,-61 34,-55 40,-49 46,-49"/>
<g id="a_clust1_0"><a xlink:href="https://github.com/LogtalkDotOrg/logtalk3/tree/1450dd2e30cbc83199a0162ba485cb2893d77c37/contributions/flags/flags.lgt" xlink:title="https://github.com/LogtalkDotOrg/logtalk3/tree/1450dd2e30cbc83199a0162ba485cb2893d77c37/contributions/flags/flags.lgt">
<text text-anchor="start" x="46.5" y="-115.5" font-family="Courier,monospace" font-size="10.00" fill="dimgray">flags_validator</text>
</a>
</g>
</a>
</g>
</g>
<!-- print_flags/0 -->
<g id="node1" class="node">
<title>print_flags/0</title>
<g id="a_node1"><a xlink:href="https://github.com/LogtalkDotOrg/logtalk3/tree/1450dd2e30cbc83199a0162ba485cb2893d77c37/contributions/flags/flags.lgt#L212" xlink:title="https://github.com/LogtalkDotOrg/logtalk3/tree/1450dd2e30cbc83199a0162ba485cb2893d77c37/contributions/flags/flags.lgt#L212">
<polygon fill="springgreen" stroke="black" points="242,-95 144,-95 144,-59 242,-59 242,-95"/>
<text text-anchor="start" x="152" y="-79.8" font-family="Courier,monospace" font-size="9.00"> </text>
<text text-anchor="start" x="157" y="-79.2" font-family="Courier,monospace" font-size="11.00">print_flags/0</text>
<text text-anchor="start" x="229" y="-79.8" font-family="Courier,monospace" font-size="9.00"> </text>
<text text-anchor="start" x="152" y="-68.8" font-family="Courier,monospace" font-size="9.00"> </text>
<text text-anchor="start" x="182.5" y="-69.4" font-family="Courier,monospace" font-size="7.00">public</text>
<text text-anchor="start" x="229" y="-68.8" font-family="Courier,monospace" font-size="9.00"> </text>
</a>
</g>
</g>
<!-- validate/1 -->
<g id="node2" class="node">
<title>validate/1</title>
<g id="a_node2"><a xlink:href="https://github.com/LogtalkDotOrg/logtalk3/tree/1450dd2e30cbc83199a0162ba485cb2893d77c37/contributions/flags/flags.lgt#L218" xlink:title="https://github.com/LogtalkDotOrg/logtalk3/tree/1450dd2e30cbc83199a0162ba485cb2893d77c37/contributions/flags/flags.lgt#L218">
<polygon fill="springgreen" stroke="black" points="125.5,-95 44.5,-95 44.5,-59 125.5,-59 125.5,-95"/>
<text text-anchor="start" x="53" y="-79.8" font-family="Courier,monospace" font-size="9.00"> </text>
<text text-anchor="start" x="58" y="-79.2" font-family="Courier,monospace" font-size="11.00">validate/1</text>
<text text-anchor="start" x="113" y="-79.8" font-family="Courier,monospace" font-size="9.00"> </text>
<text text-anchor="start" x="53" y="-68.8" font-family="Courier,monospace" font-size="9.00"> </text>
<text text-anchor="start" x="75" y="-69.4" font-family="Courier,monospace" font-size="7.00">public</text>
<text text-anchor="start" x="113" y="-68.8" font-family="Courier,monospace" font-size="9.00"> </text>
</a>
</g>
</g>
</g>
</svg>
