<?xml version="1.0" encoding="UTF-8" standalone="no"?>
<?xml-stylesheet href="diagrams.css" type="text/css"?>
<!DOCTYPE svg PUBLIC "-//W3C//DTD SVG 1.1//EN"
 "http://www.w3.org/Graphics/SVG/1.1/DTD/svg11.dtd">
<!-- Generated by graphviz version 2.50.0 (20211204.2007)
 -->
<!-- Title: flags_validator_protocol Pages: 1 -->
<svg width="493pt" height="292pt"
 viewBox="72.00 72.00 421.00 220.00" xmlns="http://www.w3.org/2000/svg" xmlns:xlink="http://www.w3.org/1999/xlink">
<g id="graph0" class="graph" transform="scale(1 1) rotate(0) translate(76 216)">
<title>flags_validator_protocol</title>
<polygon fill="white" stroke="transparent" points="-4,4 -4,-144 345,-144 345,4 -4,4"/>
<text text-anchor="start" x="8" y="-29" font-family="Monospace" font-size="10.00" fill="dimgray">Logtalk third&#45;party contributions</text>
<text text-anchor="start" x="8" y="-18" font-family="Monospace" font-size="10.00" fill="dimgray">Cross&#45;referencing diagram for protocol flags_validator</text>
<text text-anchor="start" x="8" y="-7" font-family="Monospace" font-size="10.00" fill="dimgray">Generated on 2022&#45;08&#45;24, 10:04</text>
<g id="clust1" class="cluster">
<title>cluster_flags_validator_protocol</title>
<g id="a_clust1"><a xlink:title="flags_validator">
<path fill="snow" stroke="dimgray" d="M57.5,-49C57.5,-49 283.5,-49 283.5,-49 289.5,-49 295.5,-55 295.5,-61 295.5,-61 295.5,-120 295.5,-120 295.5,-126 289.5,-132 283.5,-132 283.5,-132 57.5,-132 57.5,-132 51.5,-132 45.5,-126 45.5,-120 45.5,-120 45.5,-61 45.5,-61 45.5,-55 51.5,-49 57.5,-49"/>
<g id="a_clust1_0"><a xlink:href="https://github.com/LogtalkDotOrg/logtalk3/tree/dafdeaaee98c3247ceb0b393fb82eb32b94e788b/contributions/flags/flags.lgt" xlink:title="https://github.com/LogtalkDotOrg/logtalk3/tree/dafdeaaee98c3247ceb0b393fb82eb32b94e788b/contributions/flags/flags.lgt">
<text text-anchor="start" x="58" y="-115.5" font-family="Monospace" font-size="10.00" fill="dimgray">flags_validator</text>
</a>
</g>
</a>
</g>
</g>
<!-- print_flags/0 -->
<g id="node1" class="node">
<title>print_flags/0</title>
<g id="a_node1"><a xlink:href="https://github.com/LogtalkDotOrg/logtalk3/tree/dafdeaaee98c3247ceb0b393fb82eb32b94e788b/contributions/flags/flags.lgt#L212" xlink:title="https://github.com/LogtalkDotOrg/logtalk3/tree/dafdeaaee98c3247ceb0b393fb82eb32b94e788b/contributions/flags/flags.lgt#L212">
<polygon fill="springgreen" stroke="black" points="285.5,-95 169.5,-95 169.5,-59 285.5,-59 285.5,-95"/>
<text text-anchor="start" x="177.5" y="-79.8" font-family="Monospace" font-size="9.00"> </text>
<text text-anchor="start" x="183.5" y="-79.2" font-family="Monospace" font-size="11.00">print_flags/0</text>
<text text-anchor="start" x="271.5" y="-79.8" font-family="Monospace" font-size="9.00"> </text>
<text text-anchor="start" x="177.5" y="-68.8" font-family="Monospace" font-size="9.00"> </text>
<text text-anchor="start" x="213.5" y="-69.4" font-family="Monospace" font-size="7.00">public</text>
<text text-anchor="start" x="271.5" y="-68.8" font-family="Monospace" font-size="9.00"> </text>
</a>
</g>
</g>
<!-- validate/1 -->
<g id="node2" class="node">
<title>validate/1</title>
<g id="a_node2"><a xlink:href="https://github.com/LogtalkDotOrg/logtalk3/tree/dafdeaaee98c3247ceb0b393fb82eb32b94e788b/contributions/flags/flags.lgt#L218" xlink:title="https://github.com/LogtalkDotOrg/logtalk3/tree/dafdeaaee98c3247ceb0b393fb82eb32b94e788b/contributions/flags/flags.lgt#L218">
<polygon fill="springgreen" stroke="black" points="151.5,-95 55.5,-95 55.5,-59 151.5,-59 151.5,-95"/>
<text text-anchor="start" x="63.5" y="-79.8" font-family="Monospace" font-size="9.00"> </text>
<text text-anchor="start" x="69.5" y="-79.2" font-family="Monospace" font-size="11.00">validate/1</text>
<text text-anchor="start" x="137.5" y="-79.8" font-family="Monospace" font-size="9.00"> </text>
<text text-anchor="start" x="63.5" y="-68.8" font-family="Monospace" font-size="9.00"> </text>
<text text-anchor="start" x="89.5" y="-69.4" font-family="Monospace" font-size="7.00">public</text>
<text text-anchor="start" x="137.5" y="-68.8" font-family="Monospace" font-size="9.00"> </text>
</a>
</g>
</g>
</g>
</svg>
