<?xml version="1.0" encoding="UTF-8" standalone="no"?>
<?xml-stylesheet href="diagrams.css" type="text/css"?>
<!DOCTYPE svg PUBLIC "-//W3C//DTD SVG 1.1//EN"
 "http://www.w3.org/Graphics/SVG/1.1/DTD/svg11.dtd">
<!-- Generated by graphviz version 2.49.3 (20211023.0002)
 -->
<!-- Title: flags_validator_protocol Pages: 1 -->
<svg width="493pt" height="292pt"
 viewBox="72.00 72.00 421.00 220.00" xmlns="http://www.w3.org/2000/svg" xmlns:xlink="http://www.w3.org/1999/xlink">
<g id="graph0" class="graph" transform="scale(1 1) rotate(0) translate(76 216)">
<title>flags_validator_protocol</title>
<polygon fill="white" stroke="transparent" points="-4,4 -4,-144 345,-144 345,4 -4,4"/>
<text text-anchor="start" x="8" y="-29" font-family="Monospace" font-size="10.00" fill="dimgray">Logtalk third&#45;party contributions</text>
<text text-anchor="start" x="8" y="-18" font-family="Monospace" font-size="10.00" fill="dimgray">Cross&#45;referencing diagram for protocol flags_validator</text>
<text text-anchor="start" x="8" y="-7" font-family="Monospace" font-size="10.00" fill="dimgray">Generated on 2021&#45;12&#45;02, 11:41</text>
<g id="clust1" class="cluster">
<title>cluster_flags_validator_protocol</title>
<g id="a_clust1"><a xlink:title="flags_validator">
<path fill="snow" stroke="dimgray" d="M58.5,-49C58.5,-49 282.5,-49 282.5,-49 288.5,-49 294.5,-55 294.5,-61 294.5,-61 294.5,-120 294.5,-120 294.5,-126 288.5,-132 282.5,-132 282.5,-132 58.5,-132 58.5,-132 52.5,-132 46.5,-126 46.5,-120 46.5,-120 46.5,-61 46.5,-61 46.5,-55 52.5,-49 58.5,-49"/>
<g id="a_clust1_0"><a xlink:href="https://github.com/LogtalkDotOrg/logtalk3/tree/76eb8a7f02e34ca7daff6f504354094e9cbef754/contributions/flags/flags.lgt" xlink:title="https://github.com/LogtalkDotOrg/logtalk3/tree/76eb8a7f02e34ca7daff6f504354094e9cbef754/contributions/flags/flags.lgt">
<text text-anchor="start" x="59" y="-115.5" font-family="Monospace" font-size="10.00" fill="dimgray">flags_validator</text>
</a>
</g>
</a>
</g>
</g>
<!-- print_flags/0 -->
<g id="node1" class="node">
<title>print_flags/0</title>
<g id="a_node1"><a xlink:href="https://github.com/LogtalkDotOrg/logtalk3/tree/76eb8a7f02e34ca7daff6f504354094e9cbef754/contributions/flags/flags.lgt#L212" xlink:title="https://github.com/LogtalkDotOrg/logtalk3/tree/76eb8a7f02e34ca7daff6f504354094e9cbef754/contributions/flags/flags.lgt#L212">
<polygon fill="springgreen" stroke="black" points="284.5,-95 170.5,-95 170.5,-59 284.5,-59 284.5,-95"/>
<text text-anchor="start" x="178.5" y="-79.8" font-family="Monospace" font-size="9.00"> </text>
<text text-anchor="start" x="184.5" y="-79.2" font-family="Monospace" font-size="11.00">print_flags/0</text>
<text text-anchor="start" x="270.5" y="-79.8" font-family="Monospace" font-size="9.00"> </text>
<text text-anchor="start" x="178.5" y="-68.8" font-family="Monospace" font-size="9.00"> </text>
<text text-anchor="start" x="214.5" y="-69.4" font-family="Monospace" font-size="7.00">public</text>
<text text-anchor="start" x="270.5" y="-68.8" font-family="Monospace" font-size="9.00"> </text>
</a>
</g>
</g>
<!-- validate/1 -->
<g id="node2" class="node">
<title>validate/1</title>
<g id="a_node2"><a xlink:href="https://github.com/LogtalkDotOrg/logtalk3/tree/76eb8a7f02e34ca7daff6f504354094e9cbef754/contributions/flags/flags.lgt#L218" xlink:title="https://github.com/LogtalkDotOrg/logtalk3/tree/76eb8a7f02e34ca7daff6f504354094e9cbef754/contributions/flags/flags.lgt#L218">
<polygon fill="springgreen" stroke="black" points="152,-95 57,-95 57,-59 152,-59 152,-95"/>
<text text-anchor="start" x="65.5" y="-79.8" font-family="Monospace" font-size="9.00"> </text>
<text text-anchor="start" x="71.5" y="-79.2" font-family="Monospace" font-size="11.00">validate/1</text>
<text text-anchor="start" x="138.5" y="-79.8" font-family="Monospace" font-size="9.00"> </text>
<text text-anchor="start" x="65.5" y="-68.8" font-family="Monospace" font-size="9.00"> </text>
<text text-anchor="start" x="92" y="-69.4" font-family="Monospace" font-size="7.00">public</text>
<text text-anchor="start" x="138.5" y="-68.8" font-family="Monospace" font-size="9.00"> </text>
</a>
</g>
</g>
</g>
</svg>
