<?xml version="1.0" encoding="UTF-8" standalone="no"?>
<?xml-stylesheet href="diagrams.css" type="text/css"?>
<!DOCTYPE svg PUBLIC "-//W3C//DTD SVG 1.1//EN"
 "http://www.w3.org/Graphics/SVG/1.1/DTD/svg11.dtd">
<!-- Generated by graphviz version 12.2.1 (20241206.2353)
 -->
<!-- Title: flatting_category Pages: 1 -->
<svg width="450pt" height="299pt"
 viewBox="72.00 72.00 378.00 227.00" xmlns="http://www.w3.org/2000/svg" xmlns:xlink="http://www.w3.org/1999/xlink">
<g id="graph0" class="graph" transform="scale(1 1) rotate(0) translate(76 223)">
<title>flatting_category</title>
<polygon fill="white" stroke="none" points="-4,4 -4,-151 302,-151 302,4 -4,4"/>
<text text-anchor="start" x="8" y="-32.75" font-family="Monospace" font-size="10.00" fill="dimgray">Logtalk third&#45;party contributions</text>
<text text-anchor="start" x="8" y="-20" font-family="Monospace" font-size="10.00" fill="dimgray">Cross&#45;referencing diagram for category flatting</text>
<text text-anchor="start" x="8" y="-7.25" font-family="Monospace" font-size="10.00" fill="dimgray">Generated on 2025&#45;04&#45;04, 19:35</text>
<g id="clust1" class="cluster">
<title>cluster_flatting_category</title>
<g id="a_clust1"><a xlink:title="flatting">
<path fill="snow" stroke="dimgray" d="M84,-54.25C84,-54.25 214,-54.25 214,-54.25 220,-54.25 226,-60.25 226,-66.25 226,-66.25 226,-127 226,-127 226,-133 220,-139 214,-139 214,-139 84,-139 84,-139 78,-139 72,-133 72,-127 72,-127 72,-66.25 72,-66.25 72,-60.25 78,-54.25 84,-54.25"/>
<g id="a_clust1_0"><a xlink:href="https://github.com/LogtalkDotOrg/logtalk3/tree/d5d67c88e01e22b4a52c0a20d5afd49a82bf3f10/contributions/verdi_neruda/flatting.lgt" xlink:title="https://github.com/LogtalkDotOrg/logtalk3/tree/d5d67c88e01e22b4a52c0a20d5afd49a82bf3f10/contributions/verdi_neruda/flatting.lgt">
<text text-anchor="start" x="84" y="-121.5" font-family="Monospace" font-size="10.00" fill="dimgray">flatting</text>
</a>
</g>
</a>
</g>
</g>
<!-- flatten_goals//1 -->
<g id="node1" class="node">
<title>flatten_goals//1</title>
<g id="a_node1"><a xlink:href="https://github.com/LogtalkDotOrg/logtalk3/tree/d5d67c88e01e22b4a52c0a20d5afd49a82bf3f10/contributions/verdi_neruda/flatting.lgt#L48" xlink:title="https://github.com/LogtalkDotOrg/logtalk3/tree/d5d67c88e01e22b4a52c0a20d5afd49a82bf3f10/contributions/verdi_neruda/flatting.lgt#L48">
<polygon fill="yellow" stroke="black" points="216.25,-100.25 81.75,-100.25 81.75,-64.25 216.25,-64.25 216.25,-100.25"/>
<text text-anchor="start" x="89.75" y="-84.95" font-family="Monospace" font-size="9.00"> </text>
<text text-anchor="start" x="95" y="-84.17" font-family="Monospace" font-size="11.00">flatten_goals//1</text>
<text text-anchor="start" x="203" y="-84.95" font-family="Monospace" font-size="9.00"> </text>
<text text-anchor="start" x="89.75" y="-72.58" font-family="Monospace" font-size="9.00"> </text>
<text text-anchor="start" x="128.75" y="-73.35" font-family="Monospace" font-size="7.00">protected</text>
<text text-anchor="start" x="203" y="-72.58" font-family="Monospace" font-size="9.00"> </text>
</a>
</g>
</g>
</g>
</svg>
