<?xml version="1.0" encoding="UTF-8" standalone="no"?>
<?xml-stylesheet href="diagrams.css" type="text/css"?>
<!DOCTYPE svg PUBLIC "-//W3C//DTD SVG 1.1//EN"
 "http://www.w3.org/Graphics/SVG/1.1/DTD/svg11.dtd">
<!-- Generated by graphviz version 9.0.0 (20230911.1827)
 -->
<!-- Title: flatting_category Pages: 1 -->
<svg width="450pt" height="293pt"
 viewBox="72.00 72.00 378.00 221.00" xmlns="http://www.w3.org/2000/svg" xmlns:xlink="http://www.w3.org/1999/xlink">
<g id="graph0" class="graph" transform="scale(1 1) rotate(0) translate(76 217)">
<title>flatting_category</title>
<polygon fill="white" stroke="none" points="-4,4 -4,-145 302,-145 302,4 -4,4"/>
<text text-anchor="start" x="8" y="-28.25" font-family="Monospace" font-size="10.00" fill="dimgray">Logtalk third&#45;party contributions</text>
<text text-anchor="start" x="8" y="-17" font-family="Monospace" font-size="10.00" fill="dimgray">Cross&#45;referencing diagram for category flatting</text>
<text text-anchor="start" x="8" y="-5.75" font-family="Monospace" font-size="10.00" fill="dimgray">Generated on 2023&#45;11&#45;24, 15:16</text>
<g id="clust1" class="cluster">
<title>cluster_flatting_category</title>
<g id="a_clust1"><a xlink:title="flatting">
<path fill="snow" stroke="dimgray" d="M84,-49.75C84,-49.75 214,-49.75 214,-49.75 220,-49.75 226,-55.75 226,-61.75 226,-61.75 226,-121 226,-121 226,-127 220,-133 214,-133 214,-133 84,-133 84,-133 78,-133 72,-127 72,-121 72,-121 72,-61.75 72,-61.75 72,-55.75 78,-49.75 84,-49.75"/>
<g id="a_clust1_0"><a xlink:href="https://github.com/LogtalkDotOrg/logtalk3/tree/45aedb1717ad279c0f96e57637015c1bedb9a481/contributions/verdi_neruda/flatting.lgt" xlink:title="https://github.com/LogtalkDotOrg/logtalk3/tree/45aedb1717ad279c0f96e57637015c1bedb9a481/contributions/verdi_neruda/flatting.lgt">
<text text-anchor="start" x="84" y="-115.5" font-family="Monospace" font-size="10.00" fill="dimgray">flatting</text>
</a>
</g>
</a>
</g>
</g>
<!-- flatten_goals//1 -->
<g id="node1" class="node">
<title>flatten_goals//1</title>
<g id="a_node1"><a xlink:href="https://github.com/LogtalkDotOrg/logtalk3/tree/45aedb1717ad279c0f96e57637015c1bedb9a481/contributions/verdi_neruda/flatting.lgt#L48" xlink:title="https://github.com/LogtalkDotOrg/logtalk3/tree/45aedb1717ad279c0f96e57637015c1bedb9a481/contributions/verdi_neruda/flatting.lgt#L48">
<polygon fill="yellow" stroke="black" points="216,-95.75 82,-95.75 82,-59.75 216,-59.75 216,-95.75"/>
<text text-anchor="start" x="89.88" y="-78.58" font-family="Monospace" font-size="9.00"> </text>
<text text-anchor="start" x="95" y="-77.8" font-family="Monospace" font-size="11.00">flatten_goals//1</text>
<text text-anchor="start" x="202.88" y="-78.58" font-family="Monospace" font-size="9.00"> </text>
<text text-anchor="start" x="89.88" y="-67.7" font-family="Monospace" font-size="9.00"> </text>
<text text-anchor="start" x="128.75" y="-69.22" font-family="Monospace" font-size="7.00">protected</text>
<text text-anchor="start" x="202.88" y="-67.7" font-family="Monospace" font-size="9.00"> </text>
</a>
</g>
</g>
</g>
</svg>
