<?xml version="1.0" encoding="UTF-8" standalone="no"?>
<!DOCTYPE svg PUBLIC "-//W3C//DTD SVG 1.1//EN"
 "http://www.w3.org/Graphics/SVG/1.1/DTD/svg11.dtd">
<!-- Generated by graphviz version 2.40.1 (20161225.0304)
 -->
<!-- Title: flatting_category Pages: 1 -->
<svg width="451pt" height="298pt"
 viewBox="72.00 72.00 379.00 226.43" xmlns="http://www.w3.org/2000/svg" xmlns:xlink="http://www.w3.org/1999/xlink">
<g id="graph0" class="graph" transform="scale(1 1) rotate(0) translate(76 222.4264)">
<title>flatting_category</title>
<polygon fill="#ffffff" stroke="transparent" points="-4,4 -4,-150.4264 303,-150.4264 303,4 -4,4"/>
<text text-anchor="start" x="8" y="-29" font-family="Courier,monospace" font-size="10.00" fill="#8b8989">Logtalk third&#45;party contributions</text>
<text text-anchor="start" x="8" y="-18" font-family="Courier,monospace" font-size="10.00" fill="#8b8989">Cross&#45;referencing diagram for category flatting</text>
<text text-anchor="start" x="8" y="-7" font-family="Courier,monospace" font-size="10.00" fill="#8b8989">Generated on 2019/04/24, 17:58</text>
<g id="clust1" class="cluster">
<title>cluster_flatting_category</title>
<path fill="#fffafa" stroke="#8b8989" d="M56.5,-49C56.5,-49 242.5,-49 242.5,-49 248.5,-49 254.5,-55 254.5,-61 254.5,-61 254.5,-126.4264 254.5,-126.4264 254.5,-132.4264 248.5,-138.4264 242.5,-138.4264 242.5,-138.4264 56.5,-138.4264 56.5,-138.4264 50.5,-138.4264 44.5,-132.4264 44.5,-126.4264 44.5,-126.4264 44.5,-61 44.5,-61 44.5,-55 50.5,-49 56.5,-49"/>
<g id="a_clust1_0"><a xlink:href="https://github.com/LogtalkDotOrg/logtalk3/tree/master/contributions/verdi_neruda/flatting.lgt" xlink:title="https://github.com/LogtalkDotOrg/logtalk3/tree/master/contributions/verdi_neruda/flatting.lgt">
<text text-anchor="start" x="57" y="-121.9264" font-family="Courier,monospace" font-size="10.00" fill="#8b8989">flatting</text>
</a>
</g>
</g>
<!-- flatten_goals//1 -->
<g id="node1" class="node">
<title>flatten_goals//1</title>
<g id="a_node1"><a xlink:href="https://github.com/LogtalkDotOrg/logtalk3/tree/master/contributions/verdi_neruda/flatting.lgt#L14" xlink:title="https://github.com/LogtalkDotOrg/logtalk3/tree/master/contributions/verdi_neruda/flatting.lgt#L14">
<ellipse fill="#ffff00" stroke="#000000" cx="149.5" cy="-80.2132" rx="94.5053" ry="21.4286"/>
<text text-anchor="start" x="90.5" y="-83.0132" font-family="Courier,monospace" font-size="9.00" fill="#000000"> </text>
<text text-anchor="start" x="96.5" y="-82.4132" font-family="Courier,monospace" font-size="11.00" fill="#000000">flatten_goals//1</text>
<text text-anchor="start" x="202.5" y="-83.0132" font-family="Courier,monospace" font-size="9.00" fill="#000000"> </text>
<text text-anchor="start" x="90.5" y="-72.0132" font-family="Courier,monospace" font-size="9.00" fill="#000000"> </text>
<text text-anchor="start" x="130.5" y="-72.6132" font-family="Courier,monospace" font-size="7.00" fill="#000000">protected</text>
<text text-anchor="start" x="202.5" y="-72.0132" font-family="Courier,monospace" font-size="9.00" fill="#000000"> </text>
</a>
</g>
</g>
</g>
</svg>
