<?xml version="1.0" encoding="UTF-8" standalone="no"?>
<?xml-stylesheet href="diagrams.css" type="text/css"?>
<!DOCTYPE svg PUBLIC "-//W3C//DTD SVG 1.1//EN"
 "http://www.w3.org/Graphics/SVG/1.1/DTD/svg11.dtd">
<!-- Generated by graphviz version 2.49.3 (20211023.0002)
 -->
<!-- Title: flatting_category Pages: 1 -->
<svg width="451pt" height="292pt"
 viewBox="72.00 72.00 379.00 220.00" xmlns="http://www.w3.org/2000/svg" xmlns:xlink="http://www.w3.org/1999/xlink">
<g id="graph0" class="graph" transform="scale(1 1) rotate(0) translate(76 216)">
<title>flatting_category</title>
<polygon fill="white" stroke="transparent" points="-4,4 -4,-144 303,-144 303,4 -4,4"/>
<text text-anchor="start" x="8" y="-29" font-family="Monospace" font-size="10.00" fill="dimgray">Logtalk third&#45;party contributions</text>
<text text-anchor="start" x="8" y="-18" font-family="Monospace" font-size="10.00" fill="dimgray">Cross&#45;referencing diagram for category flatting</text>
<text text-anchor="start" x="8" y="-7" font-family="Monospace" font-size="10.00" fill="dimgray">Generated on 2021&#45;12&#45;03, 10:33</text>
<g id="clust1" class="cluster">
<title>cluster_flatting_category</title>
<g id="a_clust1"><a xlink:title="flatting">
<path fill="snow" stroke="dimgray" d="M84.5,-49C84.5,-49 214.5,-49 214.5,-49 220.5,-49 226.5,-55 226.5,-61 226.5,-61 226.5,-120 226.5,-120 226.5,-126 220.5,-132 214.5,-132 214.5,-132 84.5,-132 84.5,-132 78.5,-132 72.5,-126 72.5,-120 72.5,-120 72.5,-61 72.5,-61 72.5,-55 78.5,-49 84.5,-49"/>
<g id="a_clust1_0"><a xlink:href="https://github.com/LogtalkDotOrg/logtalk3/tree/04418aac0d7bdf1bb77867df42d0a4269d26f53f/contributions/verdi_neruda/flatting.lgt" xlink:title="https://github.com/LogtalkDotOrg/logtalk3/tree/04418aac0d7bdf1bb77867df42d0a4269d26f53f/contributions/verdi_neruda/flatting.lgt">
<text text-anchor="start" x="85" y="-115.5" font-family="Monospace" font-size="10.00" fill="dimgray">flatting</text>
</a>
</g>
</a>
</g>
</g>
<!-- flatten_goals//1 -->
<g id="node1" class="node">
<title>flatten_goals//1</title>
<g id="a_node1"><a xlink:href="https://github.com/LogtalkDotOrg/logtalk3/tree/04418aac0d7bdf1bb77867df42d0a4269d26f53f/contributions/verdi_neruda/flatting.lgt#L48" xlink:title="https://github.com/LogtalkDotOrg/logtalk3/tree/04418aac0d7bdf1bb77867df42d0a4269d26f53f/contributions/verdi_neruda/flatting.lgt#L48">
<polygon fill="yellow" stroke="black" points="216.5,-95 82.5,-95 82.5,-59 216.5,-59 216.5,-95"/>
<text text-anchor="start" x="90.5" y="-79.8" font-family="Monospace" font-size="9.00"> </text>
<text text-anchor="start" x="96.5" y="-79.2" font-family="Monospace" font-size="11.00">flatten_goals//1</text>
<text text-anchor="start" x="202.5" y="-79.8" font-family="Monospace" font-size="9.00"> </text>
<text text-anchor="start" x="90.5" y="-68.8" font-family="Monospace" font-size="9.00"> </text>
<text text-anchor="start" x="130.5" y="-69.4" font-family="Monospace" font-size="7.00">protected</text>
<text text-anchor="start" x="202.5" y="-68.8" font-family="Monospace" font-size="9.00"> </text>
</a>
</g>
</g>
</g>
</svg>
