<?xml version="1.0" encoding="UTF-8" standalone="no"?>
<?xml-stylesheet href="diagrams.css" type="text/css"?>
<!DOCTYPE svg PUBLIC "-//W3C//DTD SVG 1.1//EN"
 "http://www.w3.org/Graphics/SVG/1.1/DTD/svg11.dtd">
<!-- Generated by graphviz version 2.43.20191029.1313 (20191029.1313)
 -->
<!-- Title: flatting_category Pages: 1 -->
<svg width="450pt" height="288pt"
 viewBox="72.00 72.00 378.05 216.00" xmlns="http://www.w3.org/2000/svg" xmlns:xlink="http://www.w3.org/1999/xlink">
<g id="graph0" class="graph" transform="scale(1 1) rotate(0) translate(76 212)">
<title>flatting_category</title>
<polygon fill="white" stroke="transparent" points="-4,4 -4,-140 302.05,-140 302.05,4 -4,4"/>
<text text-anchor="start" x="8" y="-26" font-family="Courier,monospace" font-size="10.00" fill="dimgray">Logtalk third&#45;party contributions</text>
<text text-anchor="start" x="8" y="-16" font-family="Courier,monospace" font-size="10.00" fill="dimgray">Cross&#45;referencing diagram for category flatting</text>
<text text-anchor="start" x="8" y="-6" font-family="Courier,monospace" font-size="10.00" fill="dimgray">Generated on 2020&#45;05&#45;25, 21:55</text>
<g id="clust1" class="cluster">
<title>cluster_flatting_category</title>
<g id="a_clust1"><a xlink:title="flatting">
<path fill="snow" stroke="dimgray" d="M85.02,-46C85.02,-46 213.02,-46 213.02,-46 219.02,-46 225.02,-52 225.02,-58 225.02,-58 225.02,-116 225.02,-116 225.02,-122 219.02,-128 213.02,-128 213.02,-128 85.02,-128 85.02,-128 79.02,-128 73.02,-122 73.02,-116 73.02,-116 73.02,-58 73.02,-58 73.02,-52 79.02,-46 85.02,-46"/>
<g id="a_clust1_0"><a xlink:href="https://github.com/LogtalkDotOrg/logtalk3/tree/ee3e469ba16664bcc8b3b120a4a0bb7672d96db2/contributions/verdi_neruda/flatting.lgt" xlink:title="https://github.com/LogtalkDotOrg/logtalk3/tree/ee3e469ba16664bcc8b3b120a4a0bb7672d96db2/contributions/verdi_neruda/flatting.lgt">
<text text-anchor="start" x="85.02" y="-112" font-family="Courier,monospace" font-size="10.00" fill="dimgray">flatting</text>
</a>
</g>
</a>
</g>
</g>
<!-- flatten_goals//1 -->
<g id="node1" class="node">
<title>flatten_goals//1</title>
<g id="a_node1"><a xlink:href="https://github.com/LogtalkDotOrg/logtalk3/tree/ee3e469ba16664bcc8b3b120a4a0bb7672d96db2/contributions/verdi_neruda/flatting.lgt#L14" xlink:title="https://github.com/LogtalkDotOrg/logtalk3/tree/ee3e469ba16664bcc8b3b120a4a0bb7672d96db2/contributions/verdi_neruda/flatting.lgt#L14">
<polygon fill="yellow" stroke="black" points="214.52,-92 83.52,-92 83.52,-56 214.52,-56 214.52,-92"/>
<text text-anchor="start" x="91.82" y="-75.8" font-family="Courier,monospace" font-size="9.00"> </text>
<text text-anchor="start" x="96.71" y="-75.2" font-family="Courier,monospace" font-size="11.00">flatten_goals//1</text>
<text text-anchor="start" x="201.82" y="-75.8" font-family="Courier,monospace" font-size="9.00"> </text>
<text text-anchor="start" x="91.82" y="-65.8" font-family="Courier,monospace" font-size="9.00"> </text>
<text text-anchor="start" x="130.62" y="-66.4" font-family="Courier,monospace" font-size="7.00">protected</text>
<text text-anchor="start" x="201.82" y="-65.8" font-family="Courier,monospace" font-size="9.00"> </text>
</a>
</g>
</g>
</g>
</svg>
