<?xml version="1.0" encoding="UTF-8" standalone="no"?>
<?xml-stylesheet href="diagrams.css" type="text/css"?>
<!DOCTYPE svg PUBLIC "-//W3C//DTD SVG 1.1//EN"
 "http://www.w3.org/Graphics/SVG/1.1/DTD/svg11.dtd">
<!-- Generated by graphviz version 2.50.0 (20211204.2007)
 -->
<!-- Title: flatting_category Pages: 1 -->
<svg width="451pt" height="292pt"
 viewBox="72.00 72.00 379.00 220.00" xmlns="http://www.w3.org/2000/svg" xmlns:xlink="http://www.w3.org/1999/xlink">
<g id="graph0" class="graph" transform="scale(1 1) rotate(0) translate(76 216)">
<title>flatting_category</title>
<polygon fill="white" stroke="transparent" points="-4,4 -4,-144 303,-144 303,4 -4,4"/>
<text text-anchor="start" x="8" y="-29" font-family="Monospace" font-size="10.00" fill="dimgray">Logtalk third&#45;party contributions</text>
<text text-anchor="start" x="8" y="-18" font-family="Monospace" font-size="10.00" fill="dimgray">Cross&#45;referencing diagram for category flatting</text>
<text text-anchor="start" x="8" y="-7" font-family="Monospace" font-size="10.00" fill="dimgray">Generated on 2022&#45;07&#45;22, 14:39</text>
<g id="clust1" class="cluster">
<title>cluster_flatting_category</title>
<g id="a_clust1"><a xlink:title="flatting">
<path fill="snow" stroke="dimgray" d="M82.5,-49C82.5,-49 216.5,-49 216.5,-49 222.5,-49 228.5,-55 228.5,-61 228.5,-61 228.5,-120 228.5,-120 228.5,-126 222.5,-132 216.5,-132 216.5,-132 82.5,-132 82.5,-132 76.5,-132 70.5,-126 70.5,-120 70.5,-120 70.5,-61 70.5,-61 70.5,-55 76.5,-49 82.5,-49"/>
<g id="a_clust1_0"><a xlink:href="https://github.com/LogtalkDotOrg/logtalk3/tree/48d78aca3bb6600620c01946a3269429c01c09c9/contributions/verdi_neruda/flatting.lgt" xlink:title="https://github.com/LogtalkDotOrg/logtalk3/tree/48d78aca3bb6600620c01946a3269429c01c09c9/contributions/verdi_neruda/flatting.lgt">
<text text-anchor="start" x="83" y="-115.5" font-family="Monospace" font-size="10.00" fill="dimgray">flatting</text>
</a>
</g>
</a>
</g>
</g>
<!-- flatten_goals//1 -->
<g id="node1" class="node">
<title>flatten_goals//1</title>
<g id="a_node1"><a xlink:href="https://github.com/LogtalkDotOrg/logtalk3/tree/48d78aca3bb6600620c01946a3269429c01c09c9/contributions/verdi_neruda/flatting.lgt#L48" xlink:title="https://github.com/LogtalkDotOrg/logtalk3/tree/48d78aca3bb6600620c01946a3269429c01c09c9/contributions/verdi_neruda/flatting.lgt#L48">
<polygon fill="yellow" stroke="black" points="218,-95 81,-95 81,-59 218,-59 218,-95"/>
<text text-anchor="start" x="89.5" y="-79.8" font-family="Monospace" font-size="9.00"> </text>
<text text-anchor="start" x="95.5" y="-79.2" font-family="Monospace" font-size="11.00">flatten_goals//1</text>
<text text-anchor="start" x="204.5" y="-79.8" font-family="Monospace" font-size="9.00"> </text>
<text text-anchor="start" x="89.5" y="-68.8" font-family="Monospace" font-size="9.00"> </text>
<text text-anchor="start" x="129.5" y="-69.4" font-family="Monospace" font-size="7.00">protected</text>
<text text-anchor="start" x="204.5" y="-68.8" font-family="Monospace" font-size="9.00"> </text>
</a>
</g>
</g>
</g>
</svg>
