<?xml version="1.0" encoding="UTF-8" standalone="no"?>
<?xml-stylesheet href="diagrams.css" type="text/css"?>
<!DOCTYPE svg PUBLIC "-//W3C//DTD SVG 1.1//EN"
 "http://www.w3.org/Graphics/SVG/1.1/DTD/svg11.dtd">
<!-- Generated by graphviz version 2.49.3 (20211023.0002)
 -->
<!-- Title: flatting_category Pages: 1 -->
<svg width="403pt" height="292pt"
 viewBox="72.00 72.00 331.00 220.00" xmlns="http://www.w3.org/2000/svg" xmlns:xlink="http://www.w3.org/1999/xlink">
<g id="graph0" class="graph" transform="scale(1 1) rotate(0) translate(76 216)">
<title>flatting_category</title>
<polygon fill="white" stroke="transparent" points="-4,4 -4,-144 255,-144 255,4 -4,4"/>
<text text-anchor="start" x="8" y="-29" font-family="Courier,monospace" font-size="10.00" fill="dimgray">Logtalk third&#45;party contributions</text>
<text text-anchor="start" x="8" y="-18" font-family="Courier,monospace" font-size="10.00" fill="dimgray">Cross&#45;referencing diagram for category flatting</text>
<text text-anchor="start" x="8" y="-7" font-family="Courier,monospace" font-size="10.00" fill="dimgray">Generated on 2021&#45;11&#45;12, 21:33</text>
<g id="clust1" class="cluster">
<title>cluster_flatting_category</title>
<g id="a_clust1"><a xlink:title="flatting">
<path fill="snow" stroke="dimgray" d="M70.5,-49C70.5,-49 180.5,-49 180.5,-49 186.5,-49 192.5,-55 192.5,-61 192.5,-61 192.5,-120 192.5,-120 192.5,-126 186.5,-132 180.5,-132 180.5,-132 70.5,-132 70.5,-132 64.5,-132 58.5,-126 58.5,-120 58.5,-120 58.5,-61 58.5,-61 58.5,-55 64.5,-49 70.5,-49"/>
<g id="a_clust1_0"><a xlink:href="https://github.com/LogtalkDotOrg/logtalk3/tree/da1b904fb338cb0213d64d8c5e20b502297dd0fd/contributions/verdi_neruda/flatting.lgt" xlink:title="https://github.com/LogtalkDotOrg/logtalk3/tree/da1b904fb338cb0213d64d8c5e20b502297dd0fd/contributions/verdi_neruda/flatting.lgt">
<text text-anchor="start" x="70.5" y="-115.5" font-family="Courier,monospace" font-size="10.00" fill="dimgray">flatting</text>
</a>
</g>
</a>
</g>
</g>
<!-- flatten_goals//1 -->
<g id="node1" class="node">
<title>flatten_goals//1</title>
<g id="a_node1"><a xlink:href="https://github.com/LogtalkDotOrg/logtalk3/tree/da1b904fb338cb0213d64d8c5e20b502297dd0fd/contributions/verdi_neruda/flatting.lgt#L48" xlink:title="https://github.com/LogtalkDotOrg/logtalk3/tree/da1b904fb338cb0213d64d8c5e20b502297dd0fd/contributions/verdi_neruda/flatting.lgt#L48">
<polygon fill="yellow" stroke="black" points="182.5,-95 68.5,-95 68.5,-59 182.5,-59 182.5,-95"/>
<text text-anchor="start" x="76.5" y="-79.8" font-family="Courier,monospace" font-size="9.00"> </text>
<text text-anchor="start" x="81.5" y="-79.2" font-family="Courier,monospace" font-size="11.00">flatten_goals//1</text>
<text text-anchor="start" x="169.5" y="-79.8" font-family="Courier,monospace" font-size="9.00"> </text>
<text text-anchor="start" x="76.5" y="-68.8" font-family="Courier,monospace" font-size="9.00"> </text>
<text text-anchor="start" x="109.5" y="-69.4" font-family="Courier,monospace" font-size="7.00">protected</text>
<text text-anchor="start" x="169.5" y="-68.8" font-family="Courier,monospace" font-size="9.00"> </text>
</a>
</g>
</g>
</g>
</svg>
