<?xml version="1.0" encoding="UTF-8" standalone="no"?>
<?xml-stylesheet href="diagrams.css" type="text/css"?>
<!DOCTYPE svg PUBLIC "-//W3C//DTD SVG 1.1//EN"
 "http://www.w3.org/Graphics/SVG/1.1/DTD/svg11.dtd">
<!-- Generated by graphviz version 12.1.2 (20240928.0832)
 -->
<!-- Title: float_object Pages: 1 -->
<svg width="420pt" height="299pt"
 viewBox="72.00 72.00 348.00 227.00" xmlns="http://www.w3.org/2000/svg" xmlns:xlink="http://www.w3.org/1999/xlink">
<g id="graph0" class="graph" transform="scale(1 1) rotate(0) translate(76 223)">
<title>float_object</title>
<polygon fill="white" stroke="none" points="-4,4 -4,-151 272,-151 272,4 -4,4"/>
<text text-anchor="start" x="8" y="-32.75" font-family="Monospace" font-size="10.00" fill="dimgray">Logtalk library</text>
<text text-anchor="start" x="8" y="-20" font-family="Monospace" font-size="10.00" fill="dimgray">Cross&#45;referencing diagram for object float</text>
<text text-anchor="start" x="8" y="-7.25" font-family="Monospace" font-size="10.00" fill="dimgray">Generated on 2024&#45;10&#45;30, 19:55</text>
<g id="clust1" class="cluster">
<title>cluster_float_object</title>
<g id="a_clust1"><a xlink:title="float">
<path fill="snow" stroke="dimgray" d="M53.5,-54.25C53.5,-54.25 214.5,-54.25 214.5,-54.25 220.5,-54.25 226.5,-60.25 226.5,-66.25 226.5,-66.25 226.5,-127 226.5,-127 226.5,-133 220.5,-139 214.5,-139 214.5,-139 53.5,-139 53.5,-139 47.5,-139 41.5,-133 41.5,-127 41.5,-127 41.5,-66.25 41.5,-66.25 41.5,-60.25 47.5,-54.25 53.5,-54.25"/>
<g id="a_clust1_0"><a xlink:href="https://github.com/LogtalkDotOrg/logtalk3/tree/1895664a03314d1380a0d474b6ef3c76bf72f867/library/types/float.lgt" xlink:title="https://github.com/LogtalkDotOrg/logtalk3/tree/1895664a03314d1380a0d474b6ef3c76bf72f867/library/types/float.lgt">
<text text-anchor="start" x="53.5" y="-121.5" font-family="Monospace" font-size="10.00" fill="dimgray">float</text>
</a>
</g>
</a>
</g>
</g>
<!-- valid/1 -->
<g id="node1" class="node">
<title>valid/1</title>
<g id="a_node1"><a xlink:href="https://github.com/LogtalkDotOrg/logtalk3/tree/1895664a03314d1380a0d474b6ef3c76bf72f867/library/types/float.lgt#L32" xlink:title="https://github.com/LogtalkDotOrg/logtalk3/tree/1895664a03314d1380a0d474b6ef3c76bf72f867/library/types/float.lgt#L32">
<polygon fill="cornsilk" stroke="black" points="125,-100.25 52,-100.25 52,-64.25 125,-64.25 125,-100.25"/>
<text text-anchor="start" x="59.88" y="-84.83" font-family="Monospace" font-size="9.00"> </text>
<text text-anchor="start" x="64.88" y="-83.8" font-family="Monospace" font-size="11.00">valid/1</text>
<text text-anchor="start" x="111.88" y="-84.83" font-family="Monospace" font-size="9.00"> </text>
<text text-anchor="start" x="59.88" y="-72.7" font-family="Monospace" font-size="9.00"> </text>
<text text-anchor="start" x="77.25" y="-73.6" font-family="Monospace" font-size="7.00">local</text>
<text text-anchor="start" x="111.88" y="-72.7" font-family="Monospace" font-size="9.00"> </text>
</a>
</g>
</g>
<!-- check/1 -->
<g id="node2" class="node">
<title>check/1</title>
<g id="a_node2"><a xlink:href="https://github.com/LogtalkDotOrg/logtalk3/tree/1895664a03314d1380a0d474b6ef3c76bf72f867/library/types/float.lgt#L35" xlink:title="https://github.com/LogtalkDotOrg/logtalk3/tree/1895664a03314d1380a0d474b6ef3c76bf72f867/library/types/float.lgt#L35">
<polygon fill="cornsilk" stroke="black" points="216,-100.25 143,-100.25 143,-64.25 216,-64.25 216,-100.25"/>
<text text-anchor="start" x="150.88" y="-84.83" font-family="Monospace" font-size="9.00"> </text>
<text text-anchor="start" x="155.88" y="-83.8" font-family="Monospace" font-size="11.00">check/1</text>
<text text-anchor="start" x="202.88" y="-84.83" font-family="Monospace" font-size="9.00"> </text>
<text text-anchor="start" x="150.88" y="-72.7" font-family="Monospace" font-size="9.00"> </text>
<text text-anchor="start" x="168.25" y="-73.6" font-family="Monospace" font-size="7.00">local</text>
<text text-anchor="start" x="202.88" y="-72.7" font-family="Monospace" font-size="9.00"> </text>
</a>
</g>
</g>
</g>
</svg>
