<?xml version="1.0" encoding="UTF-8" standalone="no"?>
<?xml-stylesheet href="diagrams.css" type="text/css"?>
<!DOCTYPE svg PUBLIC "-//W3C//DTD SVG 1.1//EN"
 "http://www.w3.org/Graphics/SVG/1.1/DTD/svg11.dtd">
<!-- Generated by graphviz version 8.1.0 (20230707.0739)
 -->
<!-- Title: float_object Pages: 1 -->
<svg width="420pt" height="293pt"
 viewBox="72.00 72.00 348.00 221.00" xmlns="http://www.w3.org/2000/svg" xmlns:xlink="http://www.w3.org/1999/xlink">
<g id="graph0" class="graph" transform="scale(1 1) rotate(0) translate(76 217)">
<title>float_object</title>
<polygon fill="white" stroke="none" points="-4,4 -4,-145 272,-145 272,4 -4,4"/>
<text text-anchor="start" x="8" y="-28.25" font-family="Monospace" font-size="10.00" fill="dimgray">Logtalk library</text>
<text text-anchor="start" x="8" y="-17" font-family="Monospace" font-size="10.00" fill="dimgray">Cross&#45;referencing diagram for object float</text>
<text text-anchor="start" x="8" y="-5.75" font-family="Monospace" font-size="10.00" fill="dimgray">Generated on 2023&#45;09&#45;05, 14:02</text>
<g id="clust1" class="cluster">
<title>cluster_float_object</title>
<g id="a_clust1"><a xlink:title="float">
<path fill="snow" stroke="dimgray" d="M53.5,-49.75C53.5,-49.75 214.5,-49.75 214.5,-49.75 220.5,-49.75 226.5,-55.75 226.5,-61.75 226.5,-61.75 226.5,-121 226.5,-121 226.5,-127 220.5,-133 214.5,-133 214.5,-133 53.5,-133 53.5,-133 47.5,-133 41.5,-127 41.5,-121 41.5,-121 41.5,-61.75 41.5,-61.75 41.5,-55.75 47.5,-49.75 53.5,-49.75"/>
<g id="a_clust1_0"><a xlink:href="https://github.com/LogtalkDotOrg/logtalk3/tree/e621d7d40be58d59423c9dd1672dab679a70e6d6/library/types/float.lgt" xlink:title="https://github.com/LogtalkDotOrg/logtalk3/tree/e621d7d40be58d59423c9dd1672dab679a70e6d6/library/types/float.lgt">
<text text-anchor="start" x="53.5" y="-115.5" font-family="Monospace" font-size="10.00" fill="dimgray">float</text>
</a>
</g>
</a>
</g>
</g>
<!-- valid/1 -->
<g id="node1" class="node">
<title>valid/1</title>
<g id="a_node1"><a xlink:href="https://github.com/LogtalkDotOrg/logtalk3/tree/e621d7d40be58d59423c9dd1672dab679a70e6d6/library/types/float.lgt#L32" xlink:title="https://github.com/LogtalkDotOrg/logtalk3/tree/e621d7d40be58d59423c9dd1672dab679a70e6d6/library/types/float.lgt#L32">
<polygon fill="cornsilk" stroke="black" points="216,-95.75 143,-95.75 143,-59.75 216,-59.75 216,-95.75"/>
<text text-anchor="start" x="150.88" y="-78.58" font-family="Monospace" font-size="9.00"> </text>
<text text-anchor="start" x="155.88" y="-77.8" font-family="Monospace" font-size="11.00">valid/1</text>
<text text-anchor="start" x="202.88" y="-78.58" font-family="Monospace" font-size="9.00"> </text>
<text text-anchor="start" x="150.88" y="-67.7" font-family="Monospace" font-size="9.00"> </text>
<text text-anchor="start" x="168.25" y="-69.22" font-family="Monospace" font-size="7.00">local</text>
<text text-anchor="start" x="202.88" y="-67.7" font-family="Monospace" font-size="9.00"> </text>
</a>
</g>
</g>
<!-- check/1 -->
<g id="node2" class="node">
<title>check/1</title>
<g id="a_node2"><a xlink:href="https://github.com/LogtalkDotOrg/logtalk3/tree/e621d7d40be58d59423c9dd1672dab679a70e6d6/library/types/float.lgt#L35" xlink:title="https://github.com/LogtalkDotOrg/logtalk3/tree/e621d7d40be58d59423c9dd1672dab679a70e6d6/library/types/float.lgt#L35">
<polygon fill="cornsilk" stroke="black" points="125,-95.75 52,-95.75 52,-59.75 125,-59.75 125,-95.75"/>
<text text-anchor="start" x="59.88" y="-78.58" font-family="Monospace" font-size="9.00"> </text>
<text text-anchor="start" x="64.88" y="-77.8" font-family="Monospace" font-size="11.00">check/1</text>
<text text-anchor="start" x="111.88" y="-78.58" font-family="Monospace" font-size="9.00"> </text>
<text text-anchor="start" x="59.88" y="-67.7" font-family="Monospace" font-size="9.00"> </text>
<text text-anchor="start" x="77.25" y="-69.22" font-family="Monospace" font-size="7.00">local</text>
<text text-anchor="start" x="111.88" y="-67.7" font-family="Monospace" font-size="9.00"> </text>
</a>
</g>
</g>
</g>
</svg>
