<?xml version="1.0" encoding="UTF-8" standalone="no"?>
<!DOCTYPE svg PUBLIC "-//W3C//DTD SVG 1.1//EN"
 "http://www.w3.org/Graphics/SVG/1.1/DTD/svg11.dtd">
<!-- Generated by graphviz version 2.40.1 (20161225.0304)
 -->
<!-- Title: float_object Pages: 1 -->
<svg width="421pt" height="290pt"
 viewBox="72.00 72.00 349.00 218.43" xmlns="http://www.w3.org/2000/svg" xmlns:xlink="http://www.w3.org/1999/xlink">
<g id="graph0" class="graph" transform="scale(1 1) rotate(0) translate(76 214.4264)">
<title>float_object</title>
<polygon fill="#ffffff" stroke="transparent" points="-4,4 -4,-142.4264 273,-142.4264 273,4 -4,4"/>
<text text-anchor="start" x="8" y="-29" font-family="Courier,monospace" font-size="10.00" fill="#8b8989">Logtalk library</text>
<text text-anchor="start" x="8" y="-18" font-family="Courier,monospace" font-size="10.00" fill="#8b8989">Cross&#45;referencing diagram for object float</text>
<text text-anchor="start" x="8" y="-7" font-family="Courier,monospace" font-size="10.00" fill="#8b8989">Generated on 2019/04/24, 15:27</text>
<g id="clust1" class="cluster">
<title>cluster_float_object</title>
<g id="a_clust1"><a xlink:href="https://github.com/LogtalkDotOrg/logtalk3/tree/master/library/float.lgt" xlink:title="https://github.com/LogtalkDotOrg/logtalk3/tree/master/library/float.lgt">
<path fill="#fffafa" stroke="#8b8989" d="M21.5,-49C21.5,-49 247.5,-49 247.5,-49 253.5,-49 259.5,-55 259.5,-61 259.5,-61 259.5,-118.4264 259.5,-118.4264 259.5,-124.4264 253.5,-130.4264 247.5,-130.4264 247.5,-130.4264 21.5,-130.4264 21.5,-130.4264 15.5,-130.4264 9.5,-124.4264 9.5,-118.4264 9.5,-118.4264 9.5,-61 9.5,-61 9.5,-55 15.5,-49 21.5,-49"/>
<text text-anchor="middle" x="33" y="-118.4264" font-family="Courier,monospace" font-size="10.00" fill="#8b8989">float</text>
</a>
</g>
</g>
<!-- valid/1 -->
<g id="node1" class="node">
<title>valid/1</title>
<g id="a_node1"><a xlink:href="https://github.com/LogtalkDotOrg/logtalk3/tree/master/library/float.lgt#L31" xlink:title="https://github.com/LogtalkDotOrg/logtalk3/tree/master/library/float.lgt#L31">
<ellipse fill="#fff8dc" stroke="#000000" cx="196.5" cy="-80.2132" rx="53.066" ry="21.4286"/>
<text text-anchor="start" x="167.5" y="-83.0132" font-family="Courier,monospace" font-size="9.00" fill="#000000"> </text>
<text text-anchor="start" x="173.5" y="-82.4132" font-family="Courier,monospace" font-size="11.00" fill="#000000">valid/1</text>
<text text-anchor="start" x="220.5" y="-83.0132" font-family="Courier,monospace" font-size="9.00" fill="#000000"> </text>
<text text-anchor="start" x="167.5" y="-72.0132" font-family="Courier,monospace" font-size="9.00" fill="#000000"> </text>
<text text-anchor="start" x="186" y="-72.6132" font-family="Courier,monospace" font-size="7.00" fill="#000000">local</text>
<text text-anchor="start" x="220.5" y="-72.0132" font-family="Courier,monospace" font-size="9.00" fill="#000000"> </text>
</a>
</g>
</g>
<!-- check/1 -->
<g id="node2" class="node">
<title>check/1</title>
<g id="a_node2"><a xlink:href="https://github.com/LogtalkDotOrg/logtalk3/tree/master/library/float.lgt#L34" xlink:title="https://github.com/LogtalkDotOrg/logtalk3/tree/master/library/float.lgt#L34">
<ellipse fill="#fff8dc" stroke="#000000" cx="72.5" cy="-80.2132" rx="53.066" ry="21.4286"/>
<text text-anchor="start" x="43.5" y="-83.0132" font-family="Courier,monospace" font-size="9.00" fill="#000000"> </text>
<text text-anchor="start" x="49.5" y="-82.4132" font-family="Courier,monospace" font-size="11.00" fill="#000000">check/1</text>
<text text-anchor="start" x="96.5" y="-83.0132" font-family="Courier,monospace" font-size="9.00" fill="#000000"> </text>
<text text-anchor="start" x="43.5" y="-72.0132" font-family="Courier,monospace" font-size="9.00" fill="#000000"> </text>
<text text-anchor="start" x="62" y="-72.6132" font-family="Courier,monospace" font-size="7.00" fill="#000000">local</text>
<text text-anchor="start" x="96.5" y="-72.0132" font-family="Courier,monospace" font-size="9.00" fill="#000000"> </text>
</a>
</g>
</g>
</g>
</svg>
