<?xml version="1.0" encoding="UTF-8" standalone="no"?>
<?xml-stylesheet href="diagrams.css" type="text/css"?>
<!DOCTYPE svg PUBLIC "-//W3C//DTD SVG 1.1//EN"
 "http://www.w3.org/Graphics/SVG/1.1/DTD/svg11.dtd">
<!-- Generated by graphviz version 2.49.3 (20211023.0002)
 -->
<!-- Title: float_object Pages: 1 -->
<svg width="421pt" height="292pt"
 viewBox="72.00 72.00 349.00 220.00" xmlns="http://www.w3.org/2000/svg" xmlns:xlink="http://www.w3.org/1999/xlink">
<g id="graph0" class="graph" transform="scale(1 1) rotate(0) translate(76 216)">
<title>float_object</title>
<polygon fill="white" stroke="transparent" points="-4,4 -4,-144 273,-144 273,4 -4,4"/>
<text text-anchor="start" x="8" y="-29" font-family="Monospace" font-size="10.00" fill="dimgray">Logtalk library</text>
<text text-anchor="start" x="8" y="-18" font-family="Monospace" font-size="10.00" fill="dimgray">Cross&#45;referencing diagram for object float</text>
<text text-anchor="start" x="8" y="-7" font-family="Monospace" font-size="10.00" fill="dimgray">Generated on 2021&#45;12&#45;02, 23:12</text>
<g id="clust1" class="cluster">
<title>cluster_float_object</title>
<g id="a_clust1"><a xlink:title="float">
<path fill="snow" stroke="dimgray" d="M52,-49C52,-49 217,-49 217,-49 223,-49 229,-55 229,-61 229,-61 229,-120 229,-120 229,-126 223,-132 217,-132 217,-132 52,-132 52,-132 46,-132 40,-126 40,-120 40,-120 40,-61 40,-61 40,-55 46,-49 52,-49"/>
<g id="a_clust1_0"><a xlink:href="https://github.com/LogtalkDotOrg/logtalk3/tree/8deecd1797f85642d50ca3cb087c4f49b8e7fd7f/library/types/float.lgt" xlink:title="https://github.com/LogtalkDotOrg/logtalk3/tree/8deecd1797f85642d50ca3cb087c4f49b8e7fd7f/library/types/float.lgt">
<text text-anchor="start" x="52.5" y="-115.5" font-family="Monospace" font-size="10.00" fill="dimgray">float</text>
</a>
</g>
</a>
</g>
</g>
<!-- valid/1 -->
<g id="node1" class="node">
<title>valid/1</title>
<g id="a_node1"><a xlink:href="https://github.com/LogtalkDotOrg/logtalk3/tree/8deecd1797f85642d50ca3cb087c4f49b8e7fd7f/library/types/float.lgt#L32" xlink:title="https://github.com/LogtalkDotOrg/logtalk3/tree/8deecd1797f85642d50ca3cb087c4f49b8e7fd7f/library/types/float.lgt#L32">
<polygon fill="cornsilk" stroke="black" points="218.5,-95 143.5,-95 143.5,-59 218.5,-59 218.5,-95"/>
<text text-anchor="start" x="152" y="-79.8" font-family="Monospace" font-size="9.00"> </text>
<text text-anchor="start" x="158" y="-79.2" font-family="Monospace" font-size="11.00">valid/1</text>
<text text-anchor="start" x="205" y="-79.8" font-family="Monospace" font-size="9.00"> </text>
<text text-anchor="start" x="152" y="-68.8" font-family="Monospace" font-size="9.00"> </text>
<text text-anchor="start" x="170.5" y="-69.4" font-family="Monospace" font-size="7.00">local</text>
<text text-anchor="start" x="205" y="-68.8" font-family="Monospace" font-size="9.00"> </text>
</a>
</g>
</g>
<!-- check/1 -->
<g id="node2" class="node">
<title>check/1</title>
<g id="a_node2"><a xlink:href="https://github.com/LogtalkDotOrg/logtalk3/tree/8deecd1797f85642d50ca3cb087c4f49b8e7fd7f/library/types/float.lgt#L35" xlink:title="https://github.com/LogtalkDotOrg/logtalk3/tree/8deecd1797f85642d50ca3cb087c4f49b8e7fd7f/library/types/float.lgt#L35">
<polygon fill="cornsilk" stroke="black" points="125.5,-95 50.5,-95 50.5,-59 125.5,-59 125.5,-95"/>
<text text-anchor="start" x="59" y="-79.8" font-family="Monospace" font-size="9.00"> </text>
<text text-anchor="start" x="65" y="-79.2" font-family="Monospace" font-size="11.00">check/1</text>
<text text-anchor="start" x="112" y="-79.8" font-family="Monospace" font-size="9.00"> </text>
<text text-anchor="start" x="59" y="-68.8" font-family="Monospace" font-size="9.00"> </text>
<text text-anchor="start" x="77.5" y="-69.4" font-family="Monospace" font-size="7.00">local</text>
<text text-anchor="start" x="112" y="-68.8" font-family="Monospace" font-size="9.00"> </text>
</a>
</g>
</g>
</g>
</svg>
