<?xml version="1.0" encoding="UTF-8" standalone="no"?>
<?xml-stylesheet href="diagrams.css" type="text/css"?>
<!DOCTYPE svg PUBLIC "-//W3C//DTD SVG 1.1//EN"
 "http://www.w3.org/Graphics/SVG/1.1/DTD/svg11.dtd">
<!-- Generated by graphviz version 2.50.0 (20211204.2007)
 -->
<!-- Title: format_object Pages: 1 -->
<svg width="427pt" height="292pt"
 viewBox="72.00 72.00 355.00 220.00" xmlns="http://www.w3.org/2000/svg" xmlns:xlink="http://www.w3.org/1999/xlink">
<g id="graph0" class="graph" transform="scale(1 1) rotate(0) translate(76 216)">
<title>format_object</title>
<polygon fill="white" stroke="transparent" points="-4,4 -4,-144 279,-144 279,4 -4,4"/>
<text text-anchor="start" x="8" y="-29" font-family="Monospace" font-size="10.00" fill="dimgray">Logtalk library</text>
<text text-anchor="start" x="8" y="-18" font-family="Monospace" font-size="10.00" fill="dimgray">Cross&#45;referencing diagram for object format</text>
<text text-anchor="start" x="8" y="-7" font-family="Monospace" font-size="10.00" fill="dimgray">Generated on 2022&#45;01&#45;05, 11:27</text>
<g id="clust1" class="cluster">
<title>cluster_format_object</title>
<g id="a_clust1"><a xlink:title="format">
<path fill="snow" stroke="dimgray" d="M47,-49C47,-49 228,-49 228,-49 234,-49 240,-55 240,-61 240,-61 240,-120 240,-120 240,-126 234,-132 228,-132 228,-132 47,-132 47,-132 41,-132 35,-126 35,-120 35,-120 35,-61 35,-61 35,-55 41,-49 47,-49"/>
<g id="a_clust1_0"><a xlink:href="https://github.com/LogtalkDotOrg/logtalk3/tree/931cf428076d3dbac89c016022b017d9e357778c/library/format/format.lgt" xlink:title="https://github.com/LogtalkDotOrg/logtalk3/tree/931cf428076d3dbac89c016022b017d9e357778c/library/format/format.lgt">
<text text-anchor="start" x="47.5" y="-115.5" font-family="Monospace" font-size="10.00" fill="dimgray">format</text>
</a>
</g>
</a>
</g>
</g>
<!-- format/3 -->
<g id="node1" class="node">
<title>format/3</title>
<g id="a_node1"><a xlink:href="https://github.com/LogtalkDotOrg/logtalk3/tree/931cf428076d3dbac89c016022b017d9e357778c/library/format/format.lgt#L31" xlink:title="https://github.com/LogtalkDotOrg/logtalk3/tree/931cf428076d3dbac89c016022b017d9e357778c/library/format/format.lgt#L31">
<polygon fill="springgreen" stroke="black" points="229.5,-95 146.5,-95 146.5,-59 229.5,-59 229.5,-95"/>
<text text-anchor="start" x="155" y="-79.8" font-family="Monospace" font-size="9.00"> </text>
<text text-anchor="start" x="161" y="-79.2" font-family="Monospace" font-size="11.00">format/3</text>
<text text-anchor="start" x="216" y="-79.8" font-family="Monospace" font-size="9.00"> </text>
<text text-anchor="start" x="155" y="-68.8" font-family="Monospace" font-size="9.00"> </text>
<text text-anchor="start" x="174.5" y="-69.4" font-family="Monospace" font-size="7.00">public</text>
<text text-anchor="start" x="216" y="-68.8" font-family="Monospace" font-size="9.00"> </text>
</a>
</g>
</g>
<!-- format/2 -->
<g id="node2" class="node">
<title>format/2</title>
<g id="a_node2"><a xlink:href="https://github.com/LogtalkDotOrg/logtalk3/tree/931cf428076d3dbac89c016022b017d9e357778c/library/format/format.lgt#L40" xlink:title="https://github.com/LogtalkDotOrg/logtalk3/tree/931cf428076d3dbac89c016022b017d9e357778c/library/format/format.lgt#L40">
<polygon fill="springgreen" stroke="black" points="128.5,-95 45.5,-95 45.5,-59 128.5,-59 128.5,-95"/>
<text text-anchor="start" x="54" y="-79.8" font-family="Monospace" font-size="9.00"> </text>
<text text-anchor="start" x="60" y="-79.2" font-family="Monospace" font-size="11.00">format/2</text>
<text text-anchor="start" x="115" y="-79.8" font-family="Monospace" font-size="9.00"> </text>
<text text-anchor="start" x="54" y="-68.8" font-family="Monospace" font-size="9.00"> </text>
<text text-anchor="start" x="73.5" y="-69.4" font-family="Monospace" font-size="7.00">public</text>
<text text-anchor="start" x="115" y="-68.8" font-family="Monospace" font-size="9.00"> </text>
</a>
</g>
</g>
</g>
</svg>
