<?xml version="1.0" encoding="UTF-8" standalone="no"?>
<?xml-stylesheet href="diagrams.css" type="text/css"?>
<!DOCTYPE svg PUBLIC "-//W3C//DTD SVG 1.1//EN"
 "http://www.w3.org/Graphics/SVG/1.1/DTD/svg11.dtd">
<!-- Generated by graphviz version 2.49.3 (20211023.0002)
 -->
<!-- Title: format_object Pages: 1 -->
<svg width="427pt" height="292pt"
 viewBox="72.00 72.00 355.00 220.00" xmlns="http://www.w3.org/2000/svg" xmlns:xlink="http://www.w3.org/1999/xlink">
<g id="graph0" class="graph" transform="scale(1 1) rotate(0) translate(76 216)">
<title>format_object</title>
<polygon fill="white" stroke="transparent" points="-4,4 -4,-144 279,-144 279,4 -4,4"/>
<text text-anchor="start" x="8" y="-29" font-family="Monospace" font-size="10.00" fill="dimgray">Logtalk library</text>
<text text-anchor="start" x="8" y="-18" font-family="Monospace" font-size="10.00" fill="dimgray">Cross&#45;referencing diagram for object format</text>
<text text-anchor="start" x="8" y="-7" font-family="Monospace" font-size="10.00" fill="dimgray">Generated on 2021&#45;12&#45;06, 21:33</text>
<g id="clust1" class="cluster">
<title>cluster_format_object</title>
<g id="a_clust1"><a xlink:title="format">
<path fill="snow" stroke="dimgray" d="M49,-49C49,-49 226,-49 226,-49 232,-49 238,-55 238,-61 238,-61 238,-120 238,-120 238,-126 232,-132 226,-132 226,-132 49,-132 49,-132 43,-132 37,-126 37,-120 37,-120 37,-61 37,-61 37,-55 43,-49 49,-49"/>
<g id="a_clust1_0"><a xlink:href="https://github.com/LogtalkDotOrg/logtalk3/tree/2c56d8b8e9e4c04d7bc36a65ad8ab8a633c0e2ac/library/format/format.lgt" xlink:title="https://github.com/LogtalkDotOrg/logtalk3/tree/2c56d8b8e9e4c04d7bc36a65ad8ab8a633c0e2ac/library/format/format.lgt">
<text text-anchor="start" x="49.5" y="-115.5" font-family="Monospace" font-size="10.00" fill="dimgray">format</text>
</a>
</g>
</a>
</g>
</g>
<!-- format/3 -->
<g id="node1" class="node">
<title>format/3</title>
<g id="a_node1"><a xlink:href="https://github.com/LogtalkDotOrg/logtalk3/tree/2c56d8b8e9e4c04d7bc36a65ad8ab8a633c0e2ac/library/format/format.lgt#L31" xlink:title="https://github.com/LogtalkDotOrg/logtalk3/tree/2c56d8b8e9e4c04d7bc36a65ad8ab8a633c0e2ac/library/format/format.lgt#L31">
<polygon fill="springgreen" stroke="black" points="227.5,-95 146.5,-95 146.5,-59 227.5,-59 227.5,-95"/>
<text text-anchor="start" x="155" y="-79.8" font-family="Monospace" font-size="9.00"> </text>
<text text-anchor="start" x="161" y="-79.2" font-family="Monospace" font-size="11.00">format/3</text>
<text text-anchor="start" x="214" y="-79.8" font-family="Monospace" font-size="9.00"> </text>
<text text-anchor="start" x="155" y="-68.8" font-family="Monospace" font-size="9.00"> </text>
<text text-anchor="start" x="174.5" y="-69.4" font-family="Monospace" font-size="7.00">public</text>
<text text-anchor="start" x="214" y="-68.8" font-family="Monospace" font-size="9.00"> </text>
</a>
</g>
</g>
<!-- format/2 -->
<g id="node2" class="node">
<title>format/2</title>
<g id="a_node2"><a xlink:href="https://github.com/LogtalkDotOrg/logtalk3/tree/2c56d8b8e9e4c04d7bc36a65ad8ab8a633c0e2ac/library/format/format.lgt#L40" xlink:title="https://github.com/LogtalkDotOrg/logtalk3/tree/2c56d8b8e9e4c04d7bc36a65ad8ab8a633c0e2ac/library/format/format.lgt#L40">
<polygon fill="springgreen" stroke="black" points="128.5,-95 47.5,-95 47.5,-59 128.5,-59 128.5,-95"/>
<text text-anchor="start" x="56" y="-79.8" font-family="Monospace" font-size="9.00"> </text>
<text text-anchor="start" x="62" y="-79.2" font-family="Monospace" font-size="11.00">format/2</text>
<text text-anchor="start" x="115" y="-79.8" font-family="Monospace" font-size="9.00"> </text>
<text text-anchor="start" x="56" y="-68.8" font-family="Monospace" font-size="9.00"> </text>
<text text-anchor="start" x="75.5" y="-69.4" font-family="Monospace" font-size="7.00">public</text>
<text text-anchor="start" x="115" y="-68.8" font-family="Monospace" font-size="9.00"> </text>
</a>
</g>
</g>
</g>
</svg>
