<?xml version="1.0" encoding="UTF-8" standalone="no"?>
<?xml-stylesheet href="diagrams.css" type="text/css"?>
<!DOCTYPE svg PUBLIC "-//W3C//DTD SVG 1.1//EN"
 "http://www.w3.org/Graphics/SVG/1.1/DTD/svg11.dtd">
<!-- Generated by graphviz version 2.49.3 (20211023.0002)
 -->
<!-- Title: format_object Pages: 1 -->
<svg width="383pt" height="292pt"
 viewBox="72.00 72.00 311.00 220.00" xmlns="http://www.w3.org/2000/svg" xmlns:xlink="http://www.w3.org/1999/xlink">
<g id="graph0" class="graph" transform="scale(1 1) rotate(0) translate(76 216)">
<title>format_object</title>
<polygon fill="white" stroke="transparent" points="-4,4 -4,-144 235,-144 235,4 -4,4"/>
<text text-anchor="start" x="8" y="-29" font-family="Courier,monospace" font-size="10.00" fill="dimgray">Logtalk library</text>
<text text-anchor="start" x="8" y="-18" font-family="Courier,monospace" font-size="10.00" fill="dimgray">Cross&#45;referencing diagram for object format</text>
<text text-anchor="start" x="8" y="-7" font-family="Courier,monospace" font-size="10.00" fill="dimgray">Generated on 2021&#45;11&#45;17, 12:12</text>
<g id="clust1" class="cluster">
<title>cluster_format_object</title>
<g id="a_clust1"><a xlink:title="format">
<path fill="snow" stroke="dimgray" d="M38.5,-49C38.5,-49 192.5,-49 192.5,-49 198.5,-49 204.5,-55 204.5,-61 204.5,-61 204.5,-120 204.5,-120 204.5,-126 198.5,-132 192.5,-132 192.5,-132 38.5,-132 38.5,-132 32.5,-132 26.5,-126 26.5,-120 26.5,-120 26.5,-61 26.5,-61 26.5,-55 32.5,-49 38.5,-49"/>
<g id="a_clust1_0"><a xlink:href="https://github.com/LogtalkDotOrg/logtalk3/tree/071a8ea54f71195e9aec1568b51726f3a39ac6b5/library/format/format.lgt" xlink:title="https://github.com/LogtalkDotOrg/logtalk3/tree/071a8ea54f71195e9aec1568b51726f3a39ac6b5/library/format/format.lgt">
<text text-anchor="start" x="38.5" y="-115.5" font-family="Courier,monospace" font-size="10.00" fill="dimgray">format</text>
</a>
</g>
</a>
</g>
</g>
<!-- format/3 -->
<g id="node1" class="node">
<title>format/3</title>
<g id="a_node1"><a xlink:href="https://github.com/LogtalkDotOrg/logtalk3/tree/071a8ea54f71195e9aec1568b51726f3a39ac6b5/library/format/format.lgt#L31" xlink:title="https://github.com/LogtalkDotOrg/logtalk3/tree/071a8ea54f71195e9aec1568b51726f3a39ac6b5/library/format/format.lgt#L31">
<polygon fill="springgreen" stroke="black" points="194.5,-95 124.5,-95 124.5,-59 194.5,-59 194.5,-95"/>
<text text-anchor="start" x="132.5" y="-79.8" font-family="Courier,monospace" font-size="9.00"> </text>
<text text-anchor="start" x="137.5" y="-79.2" font-family="Courier,monospace" font-size="11.00">format/3</text>
<text text-anchor="start" x="181.5" y="-79.8" font-family="Courier,monospace" font-size="9.00"> </text>
<text text-anchor="start" x="132.5" y="-68.8" font-family="Courier,monospace" font-size="9.00"> </text>
<text text-anchor="start" x="149" y="-69.4" font-family="Courier,monospace" font-size="7.00">public</text>
<text text-anchor="start" x="181.5" y="-68.8" font-family="Courier,monospace" font-size="9.00"> </text>
</a>
</g>
</g>
<!-- format/2 -->
<g id="node2" class="node">
<title>format/2</title>
<g id="a_node2"><a xlink:href="https://github.com/LogtalkDotOrg/logtalk3/tree/071a8ea54f71195e9aec1568b51726f3a39ac6b5/library/format/format.lgt#L40" xlink:title="https://github.com/LogtalkDotOrg/logtalk3/tree/071a8ea54f71195e9aec1568b51726f3a39ac6b5/library/format/format.lgt#L40">
<polygon fill="springgreen" stroke="black" points="106.5,-95 36.5,-95 36.5,-59 106.5,-59 106.5,-95"/>
<text text-anchor="start" x="44.5" y="-79.8" font-family="Courier,monospace" font-size="9.00"> </text>
<text text-anchor="start" x="49.5" y="-79.2" font-family="Courier,monospace" font-size="11.00">format/2</text>
<text text-anchor="start" x="93.5" y="-79.8" font-family="Courier,monospace" font-size="9.00"> </text>
<text text-anchor="start" x="44.5" y="-68.8" font-family="Courier,monospace" font-size="9.00"> </text>
<text text-anchor="start" x="61" y="-69.4" font-family="Courier,monospace" font-size="7.00">public</text>
<text text-anchor="start" x="93.5" y="-68.8" font-family="Courier,monospace" font-size="9.00"> </text>
</a>
</g>
</g>
</g>
</svg>
