<?xml version="1.0" encoding="UTF-8" standalone="no"?>
<?xml-stylesheet href="diagrams.css" type="text/css"?>
<!DOCTYPE svg PUBLIC "-//W3C//DTD SVG 1.1//EN"
 "http://www.w3.org/Graphics/SVG/1.1/DTD/svg11.dtd">
<!-- Generated by graphviz version 2.49.3 (20211023.0002)
 -->
<!-- Title: forwarding_protocol Pages: 1 -->
<svg width="413pt" height="292pt"
 viewBox="72.00 72.00 341.00 220.00" xmlns="http://www.w3.org/2000/svg" xmlns:xlink="http://www.w3.org/1999/xlink">
<g id="graph0" class="graph" transform="scale(1 1) rotate(0) translate(76 216)">
<title>forwarding_protocol</title>
<polygon fill="white" stroke="transparent" points="-4,4 -4,-144 265,-144 265,4 -4,4"/>
<text text-anchor="start" x="8" y="-29" font-family="Courier,monospace" font-size="10.00" fill="dimgray">Logtalk core entities</text>
<text text-anchor="start" x="8" y="-18" font-family="Courier,monospace" font-size="10.00" fill="dimgray">Cross&#45;referencing diagram for protocol forwarding</text>
<text text-anchor="start" x="8" y="-7" font-family="Courier,monospace" font-size="10.00" fill="dimgray">Generated on 2021&#45;11&#45;06, 11:19</text>
<g id="clust1" class="cluster">
<title>cluster_forwarding_protocol</title>
<g id="a_clust1"><a xlink:title="forwarding">
<path fill="snow" stroke="dimgray" d="M94.5,-49C94.5,-49 166.5,-49 166.5,-49 172.5,-49 178.5,-55 178.5,-61 178.5,-61 178.5,-120 178.5,-120 178.5,-126 172.5,-132 166.5,-132 166.5,-132 94.5,-132 94.5,-132 88.5,-132 82.5,-126 82.5,-120 82.5,-120 82.5,-61 82.5,-61 82.5,-55 88.5,-49 94.5,-49"/>
<g id="a_clust1_0"><a xlink:href="https://github.com/LogtalkDotOrg/logtalk3/tree/a3989fb2f1e2fb4f9cfaf08f25bcd7b146d4b396/core/forwarding.lgt" xlink:title="https://github.com/LogtalkDotOrg/logtalk3/tree/a3989fb2f1e2fb4f9cfaf08f25bcd7b146d4b396/core/forwarding.lgt">
<text text-anchor="start" x="94.5" y="-115.5" font-family="Courier,monospace" font-size="10.00" fill="dimgray">forwarding</text>
</a>
</g>
</a>
</g>
</g>
<!-- forward/1 -->
<g id="node1" class="node">
<title>forward/1</title>
<g id="a_node1"><a xlink:href="https://github.com/LogtalkDotOrg/logtalk3/tree/a3989fb2f1e2fb4f9cfaf08f25bcd7b146d4b396/core/forwarding.lgt#L33" xlink:title="https://github.com/LogtalkDotOrg/logtalk3/tree/a3989fb2f1e2fb4f9cfaf08f25bcd7b146d4b396/core/forwarding.lgt#L33">
<polygon fill="springgreen" stroke="black" points="168.5,-95 92.5,-95 92.5,-59 168.5,-59 168.5,-95"/>
<text text-anchor="start" x="100.5" y="-79.8" font-family="Courier,monospace" font-size="9.00"> </text>
<text text-anchor="start" x="105.5" y="-79.2" font-family="Courier,monospace" font-size="11.00">forward/1</text>
<text text-anchor="start" x="155.5" y="-79.8" font-family="Courier,monospace" font-size="9.00"> </text>
<text text-anchor="start" x="100.5" y="-68.8" font-family="Courier,monospace" font-size="9.00"> </text>
<text text-anchor="start" x="120" y="-69.4" font-family="Courier,monospace" font-size="7.00">public</text>
<text text-anchor="start" x="155.5" y="-68.8" font-family="Courier,monospace" font-size="9.00"> </text>
</a>
</g>
</g>
</g>
</svg>
