<?xml version="1.0" encoding="UTF-8" standalone="no"?>
<!DOCTYPE svg PUBLIC "-//W3C//DTD SVG 1.1//EN"
 "http://www.w3.org/Graphics/SVG/1.1/DTD/svg11.dtd">
<!-- Generated by graphviz version 2.40.1 (20161225.0304)
 -->
<!-- Title: forwarding_protocol Pages: 1 -->
<svg width="463pt" height="298pt"
 viewBox="72.00 72.00 391.00 226.43" xmlns="http://www.w3.org/2000/svg" xmlns:xlink="http://www.w3.org/1999/xlink">
<g id="graph0" class="graph" transform="scale(1 1) rotate(0) translate(76 222.4264)">
<title>forwarding_protocol</title>
<polygon fill="#ffffff" stroke="transparent" points="-4,4 -4,-150.4264 315,-150.4264 315,4 -4,4"/>
<text text-anchor="start" x="8" y="-29" font-family="Courier,monospace" font-size="10.00" fill="#8b8989">Logtalk core entities</text>
<text text-anchor="start" x="8" y="-18" font-family="Courier,monospace" font-size="10.00" fill="#8b8989">Cross&#45;referencing diagram for protocol forwarding</text>
<text text-anchor="start" x="8" y="-7" font-family="Courier,monospace" font-size="10.00" fill="#8b8989">Generated on 2019/04/24, 19:03</text>
<g id="clust1" class="cluster">
<title>cluster_forwarding_protocol</title>
<g id="a_clust1"><a xlink:title="forwarding">
<path fill="#fffafa" stroke="#8b8989" d="M95.5,-49C95.5,-49 215.5,-49 215.5,-49 221.5,-49 227.5,-55 227.5,-61 227.5,-61 227.5,-126.4264 227.5,-126.4264 227.5,-132.4264 221.5,-138.4264 215.5,-138.4264 215.5,-138.4264 95.5,-138.4264 95.5,-138.4264 89.5,-138.4264 83.5,-132.4264 83.5,-126.4264 83.5,-126.4264 83.5,-61 83.5,-61 83.5,-55 89.5,-49 95.5,-49"/>
<g id="a_clust1_0"><a xlink:href="https://github.com/LogtalkDotOrg/logtalk3/tree/master/core/forwarding.lgt" xlink:title="https://github.com/LogtalkDotOrg/logtalk3/tree/master/core/forwarding.lgt">
<text text-anchor="start" x="96" y="-121.9264" font-family="Courier,monospace" font-size="10.00" fill="#8b8989">forwarding</text>
</a>
</g>
</a>
</g>
</g>
<!-- forward/1 -->
<g id="node1" class="node">
<title>forward/1</title>
<g id="a_node1"><a xlink:href="https://github.com/LogtalkDotOrg/logtalk3/tree/master/core/forwarding.lgt#L32" xlink:title="https://github.com/LogtalkDotOrg/logtalk3/tree/master/core/forwarding.lgt#L32">
<ellipse fill="#00ff7f" stroke="#000000" cx="155.5" cy="-80.2132" rx="62.4516" ry="21.4286"/>
<text text-anchor="start" x="119.5" y="-83.0132" font-family="Courier,monospace" font-size="9.00" fill="#000000"> </text>
<text text-anchor="start" x="125.5" y="-82.4132" font-family="Courier,monospace" font-size="11.00" fill="#000000">forward/1</text>
<text text-anchor="start" x="185.5" y="-83.0132" font-family="Courier,monospace" font-size="9.00" fill="#000000"> </text>
<text text-anchor="start" x="119.5" y="-72.0132" font-family="Courier,monospace" font-size="9.00" fill="#000000"> </text>
<text text-anchor="start" x="142.5" y="-72.6132" font-family="Courier,monospace" font-size="7.00" fill="#000000">public</text>
<text text-anchor="start" x="185.5" y="-72.0132" font-family="Courier,monospace" font-size="9.00" fill="#000000"> </text>
</a>
</g>
</g>
</g>
</svg>
