<?xml version="1.0" encoding="UTF-8" standalone="no"?>
<?xml-stylesheet href="diagrams.css" type="text/css"?>
<!DOCTYPE svg PUBLIC "-//W3C//DTD SVG 1.1//EN"
 "http://www.w3.org/Graphics/SVG/1.1/DTD/svg11.dtd">
<!-- Generated by graphviz version 12.2.1 (20241206.2353)
 -->
<!-- Title: forwarding_protocol Pages: 1 -->
<svg width="462pt" height="299pt"
 viewBox="72.00 72.00 390.00 227.00" xmlns="http://www.w3.org/2000/svg" xmlns:xlink="http://www.w3.org/1999/xlink">
<g id="graph0" class="graph" transform="scale(1 1) rotate(0) translate(76 223)">
<title>forwarding_protocol</title>
<polygon fill="white" stroke="none" points="-4,4 -4,-151 314,-151 314,4 -4,4"/>
<text text-anchor="start" x="8" y="-32.75" font-family="Monospace" font-size="10.00" fill="dimgray">Logtalk core entities</text>
<text text-anchor="start" x="8" y="-20" font-family="Monospace" font-size="10.00" fill="dimgray">Cross&#45;referencing diagram for protocol forwarding</text>
<text text-anchor="start" x="8" y="-7.25" font-family="Monospace" font-size="10.00" fill="dimgray">Generated on 2025&#45;01&#45;14, 18:11</text>
<g id="clust1" class="cluster">
<title>cluster_forwarding_protocol</title>
<g id="a_clust1"><a xlink:title="forwarding">
<path fill="snow" stroke="dimgray" d="M113,-54.25C113,-54.25 197,-54.25 197,-54.25 203,-54.25 209,-60.25 209,-66.25 209,-66.25 209,-127 209,-127 209,-133 203,-139 197,-139 197,-139 113,-139 113,-139 107,-139 101,-133 101,-127 101,-127 101,-66.25 101,-66.25 101,-60.25 107,-54.25 113,-54.25"/>
<g id="a_clust1_0"><a xlink:href="https://github.com/LogtalkDotOrg/logtalk3/tree/2094f539181033dee677ad3b53459914e51069cd/core/forwarding.lgt" xlink:title="https://github.com/LogtalkDotOrg/logtalk3/tree/2094f539181033dee677ad3b53459914e51069cd/core/forwarding.lgt">
<text text-anchor="start" x="113" y="-121.5" font-family="Monospace" font-size="10.00" fill="dimgray">forwarding</text>
</a>
</g>
</a>
</g>
</g>
<!-- forward/1 -->
<g id="node1" class="node">
<title>forward/1</title>
<g id="a_node1"><a xlink:href="https://github.com/LogtalkDotOrg/logtalk3/tree/2094f539181033dee677ad3b53459914e51069cd/core/forwarding.lgt#L33" xlink:title="https://github.com/LogtalkDotOrg/logtalk3/tree/2094f539181033dee677ad3b53459914e51069cd/core/forwarding.lgt#L33">
<polygon fill="springgreen" stroke="black" points="198.62,-100.25 111.38,-100.25 111.38,-64.25 198.62,-64.25 198.62,-100.25"/>
<text text-anchor="start" x="119.38" y="-84.95" font-family="Monospace" font-size="9.00"> </text>
<text text-anchor="start" x="124.62" y="-84.17" font-family="Monospace" font-size="11.00">forward/1</text>
<text text-anchor="start" x="185.38" y="-84.95" font-family="Monospace" font-size="9.00"> </text>
<text text-anchor="start" x="119.38" y="-72.58" font-family="Monospace" font-size="9.00"> </text>
<text text-anchor="start" x="141.5" y="-73.35" font-family="Monospace" font-size="7.00">public</text>
<text text-anchor="start" x="185.38" y="-72.58" font-family="Monospace" font-size="9.00"> </text>
</a>
</g>
</g>
</g>
</svg>
