<?xml version="1.0" encoding="UTF-8" standalone="no"?>
<?xml-stylesheet href="diagrams.css" type="text/css"?>
<!DOCTYPE svg PUBLIC "-//W3C//DTD SVG 1.1//EN"
 "http://www.w3.org/Graphics/SVG/1.1/DTD/svg11.dtd">
<!-- Generated by graphviz version 11.0.0 (20240428.1522)
 -->
<!-- Title: forwarding_protocol Pages: 1 -->
<svg width="462pt" height="299pt"
 viewBox="72.00 72.00 390.00 227.00" xmlns="http://www.w3.org/2000/svg" xmlns:xlink="http://www.w3.org/1999/xlink">
<g id="graph0" class="graph" transform="scale(1 1) rotate(0) translate(76 223)">
<title>forwarding_protocol</title>
<polygon fill="white" stroke="none" points="-4,4 -4,-151 314,-151 314,4 -4,4"/>
<text text-anchor="start" x="8" y="-32.75" font-family="Monospace" font-size="10.00" fill="dimgray">Logtalk core entities</text>
<text text-anchor="start" x="8" y="-20" font-family="Monospace" font-size="10.00" fill="dimgray">Cross&#45;referencing diagram for protocol forwarding</text>
<text text-anchor="start" x="8" y="-7.25" font-family="Monospace" font-size="10.00" fill="dimgray">Generated on 2024&#45;06&#45;12, 11:27</text>
<g id="clust1" class="cluster">
<title>cluster_forwarding_protocol</title>
<g id="a_clust1"><a xlink:title="forwarding">
<path fill="snow" stroke="dimgray" d="M114,-54.25C114,-54.25 196,-54.25 196,-54.25 202,-54.25 208,-60.25 208,-66.25 208,-66.25 208,-127 208,-127 208,-133 202,-139 196,-139 196,-139 114,-139 114,-139 108,-139 102,-133 102,-127 102,-127 102,-66.25 102,-66.25 102,-60.25 108,-54.25 114,-54.25"/>
<g id="a_clust1_0"><a xlink:href="https://github.com/LogtalkDotOrg/logtalk3/tree/122e8e3e5a1e05887e089cbdcc86b2e713625e65/core/forwarding.lgt" xlink:title="https://github.com/LogtalkDotOrg/logtalk3/tree/122e8e3e5a1e05887e089cbdcc86b2e713625e65/core/forwarding.lgt">
<text text-anchor="start" x="114" y="-121.5" font-family="Monospace" font-size="10.00" fill="dimgray">forwarding</text>
</a>
</g>
</a>
</g>
</g>
<!-- forward/1 -->
<g id="node1" class="node">
<title>forward/1</title>
<g id="a_node1"><a xlink:href="https://github.com/LogtalkDotOrg/logtalk3/tree/122e8e3e5a1e05887e089cbdcc86b2e713625e65/core/forwarding.lgt#L33" xlink:title="https://github.com/LogtalkDotOrg/logtalk3/tree/122e8e3e5a1e05887e089cbdcc86b2e713625e65/core/forwarding.lgt#L33">
<polygon fill="springgreen" stroke="black" points="198,-100.25 112,-100.25 112,-64.25 198,-64.25 198,-100.25"/>
<text text-anchor="start" x="119.88" y="-84.83" font-family="Monospace" font-size="9.00"> </text>
<text text-anchor="start" x="124.62" y="-83.8" font-family="Monospace" font-size="11.00">forward/1</text>
<text text-anchor="start" x="184.88" y="-84.83" font-family="Monospace" font-size="9.00"> </text>
<text text-anchor="start" x="119.88" y="-72.7" font-family="Monospace" font-size="9.00"> </text>
<text text-anchor="start" x="141.5" y="-73.6" font-family="Monospace" font-size="7.00">public</text>
<text text-anchor="start" x="184.88" y="-72.7" font-family="Monospace" font-size="9.00"> </text>
</a>
</g>
</g>
</g>
</svg>
