<?xml version="1.0" encoding="UTF-8" standalone="no"?>
<?xml-stylesheet href="diagrams.css" type="text/css"?>
<!DOCTYPE svg PUBLIC "-//W3C//DTD SVG 1.1//EN"
 "http://www.w3.org/Graphics/SVG/1.1/DTD/svg11.dtd">
<!-- Generated by graphviz version 2.43.20191029.1313 (20191029.1313)
 -->
<!-- Title: forwarding_protocol Pages: 1 -->
<svg width="462pt" height="288pt"
 viewBox="72.00 72.00 390.05 216.00" xmlns="http://www.w3.org/2000/svg" xmlns:xlink="http://www.w3.org/1999/xlink">
<g id="graph0" class="graph" transform="scale(1 1) rotate(0) translate(76 212)">
<title>forwarding_protocol</title>
<polygon fill="white" stroke="transparent" points="-4,4 -4,-140 314.05,-140 314.05,4 -4,4"/>
<text text-anchor="start" x="8" y="-26" font-family="Courier,monospace" font-size="10.00" fill="dimgray">Logtalk core entities</text>
<text text-anchor="start" x="8" y="-16" font-family="Courier,monospace" font-size="10.00" fill="dimgray">Cross&#45;referencing diagram for protocol forwarding</text>
<text text-anchor="start" x="8" y="-6" font-family="Courier,monospace" font-size="10.00" fill="dimgray">Generated on 2020&#45;05&#45;25, 21:55</text>
<g id="clust1" class="cluster">
<title>cluster_forwarding_protocol</title>
<g id="a_clust1"><a xlink:title="forwarding">
<path fill="snow" stroke="dimgray" d="M114.02,-46C114.02,-46 196.02,-46 196.02,-46 202.02,-46 208.02,-52 208.02,-58 208.02,-58 208.02,-116 208.02,-116 208.02,-122 202.02,-128 196.02,-128 196.02,-128 114.02,-128 114.02,-128 108.02,-128 102.02,-122 102.02,-116 102.02,-116 102.02,-58 102.02,-58 102.02,-52 108.02,-46 114.02,-46"/>
<g id="a_clust1_0"><a xlink:href="https://github.com/LogtalkDotOrg/logtalk3/tree/ee3e469ba16664bcc8b3b120a4a0bb7672d96db2/core/forwarding.lgt" xlink:title="https://github.com/LogtalkDotOrg/logtalk3/tree/ee3e469ba16664bcc8b3b120a4a0bb7672d96db2/core/forwarding.lgt">
<text text-anchor="start" x="114.02" y="-112" font-family="Courier,monospace" font-size="10.00" fill="dimgray">forwarding</text>
</a>
</g>
</a>
</g>
</g>
<!-- forward/1 -->
<g id="node1" class="node">
<title>forward/1</title>
<g id="a_node1"><a xlink:href="https://github.com/LogtalkDotOrg/logtalk3/tree/ee3e469ba16664bcc8b3b120a4a0bb7672d96db2/core/forwarding.lgt#L32" xlink:title="https://github.com/LogtalkDotOrg/logtalk3/tree/ee3e469ba16664bcc8b3b120a4a0bb7672d96db2/core/forwarding.lgt#L32">
<polygon fill="springgreen" stroke="black" points="197.52,-92 112.52,-92 112.52,-56 197.52,-56 197.52,-92"/>
<text text-anchor="start" x="120.82" y="-75.8" font-family="Courier,monospace" font-size="9.00"> </text>
<text text-anchor="start" x="125.82" y="-75.2" font-family="Courier,monospace" font-size="11.00">forward/1</text>
<text text-anchor="start" x="184.82" y="-75.8" font-family="Courier,monospace" font-size="9.00"> </text>
<text text-anchor="start" x="120.82" y="-65.8" font-family="Courier,monospace" font-size="9.00"> </text>
<text text-anchor="start" x="142.92" y="-66.4" font-family="Courier,monospace" font-size="7.00">public</text>
<text text-anchor="start" x="184.82" y="-65.8" font-family="Courier,monospace" font-size="9.00"> </text>
</a>
</g>
</g>
</g>
</svg>
