<?xml version="1.0" encoding="UTF-8" standalone="no"?>
<?xml-stylesheet href="diagrams.css" type="text/css"?>
<!DOCTYPE svg PUBLIC "-//W3C//DTD SVG 1.1//EN"
 "http://www.w3.org/Graphics/SVG/1.1/DTD/svg11.dtd">
<!-- Generated by graphviz version 9.0.0 (20230911.1827)
 -->
<!-- Title: forwarding_protocol Pages: 1 -->
<svg width="462pt" height="293pt"
 viewBox="72.00 72.00 390.00 221.00" xmlns="http://www.w3.org/2000/svg" xmlns:xlink="http://www.w3.org/1999/xlink">
<g id="graph0" class="graph" transform="scale(1 1) rotate(0) translate(76 217)">
<title>forwarding_protocol</title>
<polygon fill="white" stroke="none" points="-4,4 -4,-145 314,-145 314,4 -4,4"/>
<text text-anchor="start" x="8" y="-28.25" font-family="Monospace" font-size="10.00" fill="dimgray">Logtalk core entities</text>
<text text-anchor="start" x="8" y="-17" font-family="Monospace" font-size="10.00" fill="dimgray">Cross&#45;referencing diagram for protocol forwarding</text>
<text text-anchor="start" x="8" y="-5.75" font-family="Monospace" font-size="10.00" fill="dimgray">Generated on 2023&#45;12&#45;09, 10:51</text>
<g id="clust1" class="cluster">
<title>cluster_forwarding_protocol</title>
<g id="a_clust1"><a xlink:title="forwarding">
<path fill="snow" stroke="dimgray" d="M114,-49.75C114,-49.75 196,-49.75 196,-49.75 202,-49.75 208,-55.75 208,-61.75 208,-61.75 208,-121 208,-121 208,-127 202,-133 196,-133 196,-133 114,-133 114,-133 108,-133 102,-127 102,-121 102,-121 102,-61.75 102,-61.75 102,-55.75 108,-49.75 114,-49.75"/>
<g id="a_clust1_0"><a xlink:href="https://github.com/LogtalkDotOrg/logtalk3/tree/9cbb5930878e702633c8e4f862a2abef79807d04/core/forwarding.lgt" xlink:title="https://github.com/LogtalkDotOrg/logtalk3/tree/9cbb5930878e702633c8e4f862a2abef79807d04/core/forwarding.lgt">
<text text-anchor="start" x="114" y="-115.5" font-family="Monospace" font-size="10.00" fill="dimgray">forwarding</text>
</a>
</g>
</a>
</g>
</g>
<!-- forward/1 -->
<g id="node1" class="node">
<title>forward/1</title>
<g id="a_node1"><a xlink:href="https://github.com/LogtalkDotOrg/logtalk3/tree/9cbb5930878e702633c8e4f862a2abef79807d04/core/forwarding.lgt#L33" xlink:title="https://github.com/LogtalkDotOrg/logtalk3/tree/9cbb5930878e702633c8e4f862a2abef79807d04/core/forwarding.lgt#L33">
<polygon fill="springgreen" stroke="black" points="198,-95.75 112,-95.75 112,-59.75 198,-59.75 198,-95.75"/>
<text text-anchor="start" x="119.88" y="-78.58" font-family="Monospace" font-size="9.00"> </text>
<text text-anchor="start" x="124.62" y="-77.8" font-family="Monospace" font-size="11.00">forward/1</text>
<text text-anchor="start" x="184.88" y="-78.58" font-family="Monospace" font-size="9.00"> </text>
<text text-anchor="start" x="119.88" y="-67.7" font-family="Monospace" font-size="9.00"> </text>
<text text-anchor="start" x="141.5" y="-69.22" font-family="Monospace" font-size="7.00">public</text>
<text text-anchor="start" x="184.88" y="-67.7" font-family="Monospace" font-size="9.00"> </text>
</a>
</g>
</g>
</g>
</svg>
