<?xml version="1.0" encoding="UTF-8" standalone="no"?>
<?xml-stylesheet href="diagrams.css" type="text/css"?>
<!DOCTYPE svg PUBLIC "-//W3C//DTD SVG 1.1//EN"
 "http://www.w3.org/Graphics/SVG/1.1/DTD/svg11.dtd">
<!-- Generated by graphviz version 2.49.3 (20211023.0002)
 -->
<!-- Title: forwarding_protocol Pages: 1 -->
<svg width="463pt" height="292pt"
 viewBox="72.00 72.00 391.00 220.00" xmlns="http://www.w3.org/2000/svg" xmlns:xlink="http://www.w3.org/1999/xlink">
<g id="graph0" class="graph" transform="scale(1 1) rotate(0) translate(76 216)">
<title>forwarding_protocol</title>
<polygon fill="white" stroke="transparent" points="-4,4 -4,-144 315,-144 315,4 -4,4"/>
<text text-anchor="start" x="8" y="-29" font-family="Monospace" font-size="10.00" fill="dimgray">Logtalk core entities</text>
<text text-anchor="start" x="8" y="-18" font-family="Monospace" font-size="10.00" fill="dimgray">Cross&#45;referencing diagram for protocol forwarding</text>
<text text-anchor="start" x="8" y="-7" font-family="Monospace" font-size="10.00" fill="dimgray">Generated on 2021&#45;12&#45;01, 17:06</text>
<g id="clust1" class="cluster">
<title>cluster_forwarding_protocol</title>
<g id="a_clust1"><a xlink:title="forwarding">
<path fill="snow" stroke="dimgray" d="M113.5,-49C113.5,-49 197.5,-49 197.5,-49 203.5,-49 209.5,-55 209.5,-61 209.5,-61 209.5,-120 209.5,-120 209.5,-126 203.5,-132 197.5,-132 197.5,-132 113.5,-132 113.5,-132 107.5,-132 101.5,-126 101.5,-120 101.5,-120 101.5,-61 101.5,-61 101.5,-55 107.5,-49 113.5,-49"/>
<g id="a_clust1_0"><a xlink:href="https://github.com/LogtalkDotOrg/logtalk3/tree/80bca11e23513ba9dee0b90ea6273fe532329b3a/core/forwarding.lgt" xlink:title="https://github.com/LogtalkDotOrg/logtalk3/tree/80bca11e23513ba9dee0b90ea6273fe532329b3a/core/forwarding.lgt">
<text text-anchor="start" x="114" y="-115.5" font-family="Monospace" font-size="10.00" fill="dimgray">forwarding</text>
</a>
</g>
</a>
</g>
</g>
<!-- forward/1 -->
<g id="node1" class="node">
<title>forward/1</title>
<g id="a_node1"><a xlink:href="https://github.com/LogtalkDotOrg/logtalk3/tree/80bca11e23513ba9dee0b90ea6273fe532329b3a/core/forwarding.lgt#L33" xlink:title="https://github.com/LogtalkDotOrg/logtalk3/tree/80bca11e23513ba9dee0b90ea6273fe532329b3a/core/forwarding.lgt#L33">
<polygon fill="springgreen" stroke="black" points="199.5,-95 111.5,-95 111.5,-59 199.5,-59 199.5,-95"/>
<text text-anchor="start" x="119.5" y="-79.8" font-family="Monospace" font-size="9.00"> </text>
<text text-anchor="start" x="125.5" y="-79.2" font-family="Monospace" font-size="11.00">forward/1</text>
<text text-anchor="start" x="185.5" y="-79.8" font-family="Monospace" font-size="9.00"> </text>
<text text-anchor="start" x="119.5" y="-68.8" font-family="Monospace" font-size="9.00"> </text>
<text text-anchor="start" x="142.5" y="-69.4" font-family="Monospace" font-size="7.00">public</text>
<text text-anchor="start" x="185.5" y="-68.8" font-family="Monospace" font-size="9.00"> </text>
</a>
</g>
</g>
</g>
</svg>
