<?xml version="1.0" encoding="UTF-8" standalone="no"?>
<?xml-stylesheet href="diagrams.css" type="text/css"?>
<!DOCTYPE svg PUBLIC "-//W3C//DTD SVG 1.1//EN"
 "http://www.w3.org/Graphics/SVG/1.1/DTD/svg11.dtd">
<!-- Generated by graphviz version 2.49.3 (20211023.0002)
 -->
<!-- Title: gensym_object Pages: 1 -->
<svg width="580pt" height="410pt"
 viewBox="72.00 72.00 508.00 338.00" xmlns="http://www.w3.org/2000/svg" xmlns:xlink="http://www.w3.org/1999/xlink">
<g id="graph0" class="graph" transform="scale(1 1) rotate(0) translate(76 334)">
<title>gensym_object</title>
<polygon fill="white" stroke="transparent" points="-4,4 -4,-262 432,-262 432,4 -4,4"/>
<text text-anchor="start" x="8" y="-29" font-family="Monospace" font-size="10.00" fill="dimgray">Logtalk library</text>
<text text-anchor="start" x="8" y="-18" font-family="Monospace" font-size="10.00" fill="dimgray">Cross&#45;referencing diagram for object gensym</text>
<text text-anchor="start" x="8" y="-7" font-family="Monospace" font-size="10.00" fill="dimgray">Generated on 2021&#45;12&#45;21, 09:07</text>
<g id="clust1" class="cluster">
<title>cluster_gensym_object</title>
<g id="a_clust1"><a xlink:title="gensym">
<path fill="snow" stroke="dimgray" d="M20,-49C20,-49 408,-49 408,-49 414,-49 420,-55 420,-61 420,-61 420,-238 420,-238 420,-244 414,-250 408,-250 408,-250 20,-250 20,-250 14,-250 8,-244 8,-238 8,-238 8,-61 8,-61 8,-55 14,-49 20,-49"/>
<g id="a_clust1_0"><a xlink:href="https://github.com/LogtalkDotOrg/logtalk3/tree/5837da673da53d0a7a3622175892fced37f216ff/library/gensym/gensym.lgt" xlink:title="https://github.com/LogtalkDotOrg/logtalk3/tree/5837da673da53d0a7a3622175892fced37f216ff/library/gensym/gensym.lgt">
<text text-anchor="start" x="20.5" y="-233.5" font-family="Monospace" font-size="10.00" fill="dimgray">gensym</text>
</a>
</g>
</a>
</g>
</g>
<!-- reset_gensym/0 -->
<g id="node1" class="node">
<title>reset_gensym/0</title>
<g id="a_node1"><a xlink:href="https://github.com/LogtalkDotOrg/logtalk3/tree/5837da673da53d0a7a3622175892fced37f216ff/library/gensym/gensym.lgt#L31" xlink:title="https://github.com/LogtalkDotOrg/logtalk3/tree/5837da673da53d0a7a3622175892fced37f216ff/library/gensym/gensym.lgt#L31">
<polygon fill="springgreen" stroke="black" points="409.5,-213 288.5,-213 288.5,-177 409.5,-177 409.5,-213"/>
<text text-anchor="start" x="297" y="-197.8" font-family="Monospace" font-size="9.00"> </text>
<text text-anchor="start" x="303" y="-197.2" font-family="Monospace" font-size="11.00">reset_gensym/0</text>
<text text-anchor="start" x="396" y="-197.8" font-family="Monospace" font-size="9.00"> </text>
<text text-anchor="start" x="297" y="-186.8" font-family="Monospace" font-size="9.00"> </text>
<text text-anchor="start" x="307" y="-187.4" font-family="Monospace" font-size="7.00">public, synchronized</text>
<text text-anchor="start" x="396" y="-186.8" font-family="Monospace" font-size="9.00"> </text>
</a>
</g>
</g>
<!-- base_/2 -->
<g id="node4" class="node">
<title>base_/2</title>
<g id="a_node4"><a xlink:href="https://github.com/LogtalkDotOrg/logtalk3/tree/5837da673da53d0a7a3622175892fced37f216ff/library/gensym/gensym.lgt#L51" xlink:title="https://github.com/LogtalkDotOrg/logtalk3/tree/5837da673da53d0a7a3622175892fced37f216ff/library/gensym/gensym.lgt#L51">
<polygon fill="#ff6a6a" stroke="black" points="258,-95 162,-95 162,-59 258,-59 258,-95"/>
<text text-anchor="start" x="170" y="-79.8" font-family="Monospace" font-size="9.00"> </text>
<text text-anchor="start" x="186.5" y="-79.2" font-family="Monospace" font-size="11.00">base_/2</text>
<text text-anchor="start" x="244" y="-79.8" font-family="Monospace" font-size="9.00"> </text>
<text text-anchor="start" x="170" y="-68.8" font-family="Monospace" font-size="9.00"> </text>
<text text-anchor="start" x="176" y="-69.4" font-family="Monospace" font-size="7.00">private, dynamic</text>
<text text-anchor="start" x="244" y="-68.8" font-family="Monospace" font-size="9.00"> </text>
</a>
</g>
</g>
<!-- reset_gensym/0&#45;&gt;base_/2 -->
<g id="edge1" class="edge">
<title>reset_gensym/0&#45;&gt;base_/2</title>
<g id="a_edge1"><a xlink:href="https://github.com/LogtalkDotOrg/logtalk3/tree/5837da673da53d0a7a3622175892fced37f216ff/library/gensym/gensym.lgt#L67" xlink:title="updates">
<path fill="none" stroke="black" d="M328.49,-176.88C305.08,-157.35 266.6,-125.23 239.86,-102.92"/>
<polygon fill="black" stroke="black" points="239.81,-102.88 232.64,-102.1 230.59,-95.19 237.76,-95.96 239.81,-102.88"/>
</a>
</g>
<g id="a_edge1&#45;label"><a xlink:href="https://github.com/LogtalkDotOrg/logtalk3/tree/5837da673da53d0a7a3622175892fced37f216ff/library/gensym/gensym.lgt#L67" xlink:title="https://github.com/LogtalkDotOrg/logtalk3/tree/5837da673da53d0a7a3622175892fced37f216ff/library/gensym/gensym.lgt#L67">
<text text-anchor="start" x="283" y="-133.8" font-family="Monospace" font-size="9.00">updates</text>
</a>
</g>
</g>
<!-- reset_gensym/1 -->
<g id="node2" class="node">
<title>reset_gensym/1</title>
<g id="a_node2"><a xlink:href="https://github.com/LogtalkDotOrg/logtalk3/tree/5837da673da53d0a7a3622175892fced37f216ff/library/gensym/gensym.lgt#L37" xlink:title="https://github.com/LogtalkDotOrg/logtalk3/tree/5837da673da53d0a7a3622175892fced37f216ff/library/gensym/gensym.lgt#L37">
<polygon fill="springgreen" stroke="black" points="270.5,-213 149.5,-213 149.5,-177 270.5,-177 270.5,-213"/>
<text text-anchor="start" x="158" y="-197.8" font-family="Monospace" font-size="9.00"> </text>
<text text-anchor="start" x="164" y="-197.2" font-family="Monospace" font-size="11.00">reset_gensym/1</text>
<text text-anchor="start" x="257" y="-197.8" font-family="Monospace" font-size="9.00"> </text>
<text text-anchor="start" x="158" y="-186.8" font-family="Monospace" font-size="9.00"> </text>
<text text-anchor="start" x="168" y="-187.4" font-family="Monospace" font-size="7.00">public, synchronized</text>
<text text-anchor="start" x="257" y="-186.8" font-family="Monospace" font-size="9.00"> </text>
</a>
</g>
</g>
<!-- reset_gensym/1&#45;&gt;base_/2 -->
<g id="edge2" class="edge">
<title>reset_gensym/1&#45;&gt;base_/2</title>
<g id="a_edge2"><a xlink:href="https://github.com/LogtalkDotOrg/logtalk3/tree/5837da673da53d0a7a3622175892fced37f216ff/library/gensym/gensym.lgt#L73" xlink:title="updates">
<path fill="none" stroke="black" d="M210,-176.88C210,-158.64 210,-129.4 210,-107.44"/>
<polygon fill="black" stroke="black" points="210,-107.19 206,-101.19 210,-95.19 214,-101.19 210,-107.19"/>
</a>
</g>
<g id="a_edge2&#45;label"><a xlink:href="https://github.com/LogtalkDotOrg/logtalk3/tree/5837da673da53d0a7a3622175892fced37f216ff/library/gensym/gensym.lgt#L73" xlink:title="https://github.com/LogtalkDotOrg/logtalk3/tree/5837da673da53d0a7a3622175892fced37f216ff/library/gensym/gensym.lgt#L73">
<text text-anchor="start" x="210" y="-133.8" font-family="Monospace" font-size="9.00">updates</text>
</a>
</g>
</g>
<!-- gensym/2 -->
<g id="node3" class="node">
<title>gensym/2</title>
<g id="a_node3"><a xlink:href="https://github.com/LogtalkDotOrg/logtalk3/tree/5837da673da53d0a7a3622175892fced37f216ff/library/gensym/gensym.lgt#L44" xlink:title="https://github.com/LogtalkDotOrg/logtalk3/tree/5837da673da53d0a7a3622175892fced37f216ff/library/gensym/gensym.lgt#L44">
<polygon fill="springgreen" stroke="black" points="131.5,-213 18.5,-213 18.5,-177 131.5,-177 131.5,-213"/>
<text text-anchor="start" x="27" y="-197.8" font-family="Monospace" font-size="9.00"> </text>
<text text-anchor="start" x="49" y="-197.2" font-family="Monospace" font-size="11.00">gensym/2</text>
<text text-anchor="start" x="118" y="-197.8" font-family="Monospace" font-size="9.00"> </text>
<text text-anchor="start" x="27" y="-186.8" font-family="Monospace" font-size="9.00"> </text>
<text text-anchor="start" x="33" y="-187.4" font-family="Monospace" font-size="7.00">public, synchronized</text>
<text text-anchor="start" x="118" y="-186.8" font-family="Monospace" font-size="9.00"> </text>
</a>
</g>
</g>
<!-- gensym/2&#45;&gt;base_/2 -->
<g id="edge3" class="edge">
<title>gensym/2&#45;&gt;base_/2</title>
<g id="a_edge3"><a xlink:href="https://github.com/LogtalkDotOrg/logtalk3/tree/5837da673da53d0a7a3622175892fced37f216ff/library/gensym/gensym.lgt#L77" xlink:title="updates">
<path fill="none" stroke="black" d="M94.92,-176.88C117.55,-157.44 154.71,-125.51 180.66,-103.21"/>
<polygon fill="black" stroke="black" points="180.9,-103.01 182.84,-96.06 190,-95.19 188.05,-102.13 180.9,-103.01"/>
</a>
</g>
<g id="a_edge3&#45;label"><a xlink:href="https://github.com/LogtalkDotOrg/logtalk3/tree/5837da673da53d0a7a3622175892fced37f216ff/library/gensym/gensym.lgt#L77" xlink:title="https://github.com/LogtalkDotOrg/logtalk3/tree/5837da673da53d0a7a3622175892fced37f216ff/library/gensym/gensym.lgt#L77">
<text text-anchor="start" x="146" y="-133.8" font-family="Monospace" font-size="9.00">updates</text>
</a>
</g>
</g>
</g>
</svg>
