<?xml version="1.0" encoding="UTF-8" standalone="no"?>
<?xml-stylesheet href="diagrams.css" type="text/css"?>
<!DOCTYPE svg PUBLIC "-//W3C//DTD SVG 1.1//EN"
 "http://www.w3.org/Graphics/SVG/1.1/DTD/svg11.dtd">
<!-- Generated by graphviz version 12.1.2 (20240928.0832)
 -->
<!-- Title: grammar_rules_hook_object Pages: 1 -->
<svg width="498pt" height="299pt"
 viewBox="72.00 72.00 426.00 227.00" xmlns="http://www.w3.org/2000/svg" xmlns:xlink="http://www.w3.org/1999/xlink">
<g id="graph0" class="graph" transform="scale(1 1) rotate(0) translate(76 223)">
<title>grammar_rules_hook_object</title>
<polygon fill="white" stroke="none" points="-4,4 -4,-151 350,-151 350,4 -4,4"/>
<text text-anchor="start" x="8" y="-32.75" font-family="Monospace" font-size="10.00" fill="dimgray">Logtalk library</text>
<text text-anchor="start" x="8" y="-20" font-family="Monospace" font-size="10.00" fill="dimgray">Cross&#45;referencing diagram for object grammar_rules_hook</text>
<text text-anchor="start" x="8" y="-7.25" font-family="Monospace" font-size="10.00" fill="dimgray">Generated on 2024&#45;10&#45;08, 15:23</text>
<g id="clust1" class="cluster">
<title>cluster_grammar_rules_hook_object</title>
<g id="a_clust1"><a xlink:title="grammar_rules_hook">
<path fill="snow" stroke="dimgray" d="M108,-54.25C108,-54.25 238,-54.25 238,-54.25 244,-54.25 250,-60.25 250,-66.25 250,-66.25 250,-127 250,-127 250,-133 244,-139 238,-139 238,-139 108,-139 108,-139 102,-139 96,-133 96,-127 96,-127 96,-66.25 96,-66.25 96,-60.25 102,-54.25 108,-54.25"/>
<g id="a_clust1_0"><a xlink:href="https://github.com/LogtalkDotOrg/logtalk3/tree/f76b02958b69cfe22345cac9ef925f29e1eac309/library/hook_objects/grammar_rules_hook.lgt" xlink:title="https://github.com/LogtalkDotOrg/logtalk3/tree/f76b02958b69cfe22345cac9ef925f29e1eac309/library/hook_objects/grammar_rules_hook.lgt">
<text text-anchor="start" x="108" y="-121.5" font-family="Monospace" font-size="10.00" fill="dimgray">grammar_rules_hook</text>
</a>
</g>
</a>
</g>
</g>
<!-- term_expansion/2 -->
<g id="node1" class="node">
<title>term_expansion/2</title>
<g id="a_node1"><a xlink:href="https://github.com/LogtalkDotOrg/logtalk3/tree/f76b02958b69cfe22345cac9ef925f29e1eac309/library/hook_objects/grammar_rules_hook.lgt#L38" xlink:title="https://github.com/LogtalkDotOrg/logtalk3/tree/f76b02958b69cfe22345cac9ef925f29e1eac309/library/hook_objects/grammar_rules_hook.lgt#L38">
<polygon fill="cornsilk" stroke="black" points="240,-100.25 106,-100.25 106,-64.25 240,-64.25 240,-100.25"/>
<text text-anchor="start" x="113.88" y="-84.83" font-family="Monospace" font-size="9.00"> </text>
<text text-anchor="start" x="119" y="-83.8" font-family="Monospace" font-size="11.00">term_expansion/2</text>
<text text-anchor="start" x="226.88" y="-84.83" font-family="Monospace" font-size="9.00"> </text>
<text text-anchor="start" x="113.88" y="-72.7" font-family="Monospace" font-size="9.00"> </text>
<text text-anchor="start" x="161.75" y="-73.6" font-family="Monospace" font-size="7.00">local</text>
<text text-anchor="start" x="226.88" y="-72.7" font-family="Monospace" font-size="9.00"> </text>
</a>
</g>
</g>
</g>
</svg>
