<?xml version="1.0" encoding="UTF-8" standalone="no"?>
<?xml-stylesheet href="diagrams.css" type="text/css"?>
<!DOCTYPE svg PUBLIC "-//W3C//DTD SVG 1.1//EN"
 "http://www.w3.org/Graphics/SVG/1.1/DTD/svg11.dtd">
<!-- Generated by graphviz version 2.43.20191029.1313 (20191029.1313)
 -->
<!-- Title: grammar_rules_hook_object Pages: 1 -->
<svg width="498pt" height="288pt"
 viewBox="72.00 72.00 426.05 216.00" xmlns="http://www.w3.org/2000/svg" xmlns:xlink="http://www.w3.org/1999/xlink">
<g id="graph0" class="graph" transform="scale(1 1) rotate(0) translate(76 212)">
<title>grammar_rules_hook_object</title>
<polygon fill="white" stroke="transparent" points="-4,4 -4,-140 350.05,-140 350.05,4 -4,4"/>
<text text-anchor="start" x="8" y="-26" font-family="Courier,monospace" font-size="10.00" fill="dimgray">Logtalk library</text>
<text text-anchor="start" x="8" y="-16" font-family="Courier,monospace" font-size="10.00" fill="dimgray">Cross&#45;referencing diagram for object grammar_rules_hook</text>
<text text-anchor="start" x="8" y="-6" font-family="Courier,monospace" font-size="10.00" fill="dimgray">Generated on 2020&#45;05&#45;25, 21:55</text>
<g id="clust1" class="cluster">
<title>cluster_grammar_rules_hook_object</title>
<g id="a_clust1"><a xlink:title="grammar_rules_hook">
<path fill="snow" stroke="dimgray" d="M109.03,-46C109.03,-46 237.03,-46 237.03,-46 243.03,-46 249.03,-52 249.03,-58 249.03,-58 249.03,-116 249.03,-116 249.03,-122 243.03,-128 237.03,-128 237.03,-128 109.03,-128 109.03,-128 103.03,-128 97.03,-122 97.03,-116 97.03,-116 97.03,-58 97.03,-58 97.03,-52 103.03,-46 109.03,-46"/>
<g id="a_clust1_0"><a xlink:href="https://github.com/LogtalkDotOrg/logtalk3/tree/ee3e469ba16664bcc8b3b120a4a0bb7672d96db2/library/hook_objects/grammar_rules_hook.lgt" xlink:title="https://github.com/LogtalkDotOrg/logtalk3/tree/ee3e469ba16664bcc8b3b120a4a0bb7672d96db2/library/hook_objects/grammar_rules_hook.lgt">
<text text-anchor="start" x="109.02" y="-112" font-family="Courier,monospace" font-size="10.00" fill="dimgray">grammar_rules_hook</text>
</a>
</g>
</a>
</g>
</g>
<!-- term_expansion/2 -->
<g id="node1" class="node">
<title>term_expansion/2</title>
<g id="a_node1"><a xlink:href="https://github.com/LogtalkDotOrg/logtalk3/tree/ee3e469ba16664bcc8b3b120a4a0bb7672d96db2/library/hook_objects/grammar_rules_hook.lgt#L37" xlink:title="https://github.com/LogtalkDotOrg/logtalk3/tree/ee3e469ba16664bcc8b3b120a4a0bb7672d96db2/library/hook_objects/grammar_rules_hook.lgt#L37">
<polygon fill="cornsilk" stroke="black" points="238.53,-92 107.53,-92 107.53,-56 238.53,-56 238.53,-92"/>
<text text-anchor="start" x="115.83" y="-75.8" font-family="Courier,monospace" font-size="9.00"> </text>
<text text-anchor="start" x="120.72" y="-75.2" font-family="Courier,monospace" font-size="11.00">term_expansion/2</text>
<text text-anchor="start" x="225.83" y="-75.8" font-family="Courier,monospace" font-size="9.00"> </text>
<text text-anchor="start" x="115.83" y="-65.8" font-family="Courier,monospace" font-size="9.00"> </text>
<text text-anchor="start" x="163.03" y="-66.4" font-family="Courier,monospace" font-size="7.00">local</text>
<text text-anchor="start" x="225.83" y="-65.8" font-family="Courier,monospace" font-size="9.00"> </text>
</a>
</g>
</g>
</g>
</svg>
