<?xml version="1.0" encoding="UTF-8" standalone="no"?>
<?xml-stylesheet href="diagrams.css" type="text/css"?>
<!DOCTYPE svg PUBLIC "-//W3C//DTD SVG 1.1//EN"
 "http://www.w3.org/Graphics/SVG/1.1/DTD/svg11.dtd">
<!-- Generated by graphviz version 2.49.3 (20211023.0002)
 -->
<!-- Title: grammar_rules_hook_object Pages: 1 -->
<svg width="443pt" height="292pt"
 viewBox="72.00 72.00 371.00 220.00" xmlns="http://www.w3.org/2000/svg" xmlns:xlink="http://www.w3.org/1999/xlink">
<g id="graph0" class="graph" transform="scale(1 1) rotate(0) translate(76 216)">
<title>grammar_rules_hook_object</title>
<polygon fill="white" stroke="transparent" points="-4,4 -4,-144 295,-144 295,4 -4,4"/>
<text text-anchor="start" x="8" y="-29" font-family="Courier,monospace" font-size="10.00" fill="dimgray">Logtalk library</text>
<text text-anchor="start" x="8" y="-18" font-family="Courier,monospace" font-size="10.00" fill="dimgray">Cross&#45;referencing diagram for object grammar_rules_hook</text>
<text text-anchor="start" x="8" y="-7" font-family="Courier,monospace" font-size="10.00" fill="dimgray">Generated on 2021&#45;11&#45;13, 18:29</text>
<g id="clust1" class="cluster">
<title>cluster_grammar_rules_hook_object</title>
<g id="a_clust1"><a xlink:title="grammar_rules_hook">
<path fill="snow" stroke="dimgray" d="M90.5,-49C90.5,-49 200.5,-49 200.5,-49 206.5,-49 212.5,-55 212.5,-61 212.5,-61 212.5,-120 212.5,-120 212.5,-126 206.5,-132 200.5,-132 200.5,-132 90.5,-132 90.5,-132 84.5,-132 78.5,-126 78.5,-120 78.5,-120 78.5,-61 78.5,-61 78.5,-55 84.5,-49 90.5,-49"/>
<g id="a_clust1_0"><a xlink:href="https://github.com/LogtalkDotOrg/logtalk3/tree/9faf5dbd41dcda13eefe9bff6f1dfa22e6d84b6c/library/hook_objects/grammar_rules_hook.lgt" xlink:title="https://github.com/LogtalkDotOrg/logtalk3/tree/9faf5dbd41dcda13eefe9bff6f1dfa22e6d84b6c/library/hook_objects/grammar_rules_hook.lgt">
<text text-anchor="start" x="90.5" y="-115.5" font-family="Courier,monospace" font-size="10.00" fill="dimgray">grammar_rules_hook</text>
</a>
</g>
</a>
</g>
</g>
<!-- term_expansion/2 -->
<g id="node1" class="node">
<title>term_expansion/2</title>
<g id="a_node1"><a xlink:href="https://github.com/LogtalkDotOrg/logtalk3/tree/9faf5dbd41dcda13eefe9bff6f1dfa22e6d84b6c/library/hook_objects/grammar_rules_hook.lgt#L38" xlink:title="https://github.com/LogtalkDotOrg/logtalk3/tree/9faf5dbd41dcda13eefe9bff6f1dfa22e6d84b6c/library/hook_objects/grammar_rules_hook.lgt#L38">
<polygon fill="cornsilk" stroke="black" points="202.5,-95 88.5,-95 88.5,-59 202.5,-59 202.5,-95"/>
<text text-anchor="start" x="96.5" y="-79.8" font-family="Courier,monospace" font-size="9.00"> </text>
<text text-anchor="start" x="101.5" y="-79.2" font-family="Courier,monospace" font-size="11.00">term_expansion/2</text>
<text text-anchor="start" x="189.5" y="-79.8" font-family="Courier,monospace" font-size="9.00"> </text>
<text text-anchor="start" x="96.5" y="-68.8" font-family="Courier,monospace" font-size="9.00"> </text>
<text text-anchor="start" x="136.5" y="-69.4" font-family="Courier,monospace" font-size="7.00">local</text>
<text text-anchor="start" x="189.5" y="-68.8" font-family="Courier,monospace" font-size="9.00"> </text>
</a>
</g>
</g>
</g>
</svg>
