<?xml version="1.0" encoding="UTF-8" standalone="no"?>
<!DOCTYPE svg PUBLIC "-//W3C//DTD SVG 1.1//EN"
 "http://www.w3.org/Graphics/SVG/1.1/DTD/svg11.dtd">
<!-- Generated by graphviz version 2.40.1 (20161225.0304)
 -->
<!-- Title: graph_language_registry_object Pages: 1 -->
<svg width="529pt" height="290pt"
 viewBox="72.00 72.00 457.00 218.43" xmlns="http://www.w3.org/2000/svg" xmlns:xlink="http://www.w3.org/1999/xlink">
<g id="graph0" class="graph" transform="scale(1 1) rotate(0) translate(76 214.4264)">
<title>graph_language_registry_object</title>
<polygon fill="#ffffff" stroke="transparent" points="-4,4 -4,-142.4264 381,-142.4264 381,4 -4,4"/>
<text text-anchor="start" x="8" y="-29" font-family="Courier,monospace" font-size="10.00" fill="#8b8989">Logtalk development tools</text>
<text text-anchor="start" x="8" y="-18" font-family="Courier,monospace" font-size="10.00" fill="#8b8989">Cross&#45;referencing diagram for object graph_language_registry</text>
<text text-anchor="start" x="8" y="-7" font-family="Courier,monospace" font-size="10.00" fill="#8b8989">Generated on 2019/04/23, 18:56</text>
<g id="clust1" class="cluster">
<title>cluster_graph_language_registry_object</title>
<g id="a_clust1"><a xlink:href="https://github.com/LogtalkDotOrg/logtalk3/tree/master/tools/diagrams/graph_language_registry.lgt" xlink:title="https://github.com/LogtalkDotOrg/logtalk3/tree/master/tools/diagrams/graph_language_registry.lgt">
<path fill="#fffafa" stroke="#8b8989" d="M90.5,-49C90.5,-49 286.5,-49 286.5,-49 292.5,-49 298.5,-55 298.5,-61 298.5,-61 298.5,-118.4264 298.5,-118.4264 298.5,-124.4264 292.5,-130.4264 286.5,-130.4264 286.5,-130.4264 90.5,-130.4264 90.5,-130.4264 84.5,-130.4264 78.5,-124.4264 78.5,-118.4264 78.5,-118.4264 78.5,-61 78.5,-61 78.5,-55 84.5,-49 90.5,-49"/>
<text text-anchor="middle" x="156" y="-118.4264" font-family="Courier,monospace" font-size="10.00" fill="#8b8989">graph_language_registry</text>
</a>
</g>
</g>
<!-- language_object/2 -->
<g id="node1" class="node">
<title>language_object/2</title>
<g id="a_node1"><a xlink:href="https://github.com/LogtalkDotOrg/logtalk3/tree/master/tools/diagrams/graph_language_registry.lgt#L30" xlink:title="https://github.com/LogtalkDotOrg/logtalk3/tree/master/tools/diagrams/graph_language_registry.lgt#L30">
<ellipse fill="#87ceeb" stroke="#000000" cx="188.5" cy="-80.2132" rx="99.9045" ry="21.4286"/>
<text text-anchor="start" x="126.5" y="-83.0132" font-family="Courier,monospace" font-size="9.00" fill="#000000"> </text>
<text text-anchor="start" x="132.5" y="-82.4132" font-family="Courier,monospace" font-size="11.00" fill="#000000">language_object/2</text>
<text text-anchor="start" x="245.5" y="-83.0132" font-family="Courier,monospace" font-size="9.00" fill="#000000"> </text>
<text text-anchor="start" x="126.5" y="-72.0132" font-family="Courier,monospace" font-size="9.00" fill="#000000"> </text>
<text text-anchor="start" x="153" y="-72.6132" font-family="Courier,monospace" font-size="7.00" fill="#000000">public, multifile</text>
<text text-anchor="start" x="245.5" y="-72.0132" font-family="Courier,monospace" font-size="9.00" fill="#000000"> </text>
</a>
</g>
</g>
</g>
</svg>
