<?xml version="1.0" encoding="UTF-8" standalone="no"?>
<?xml-stylesheet href="diagrams.css" type="text/css"?>
<!DOCTYPE svg PUBLIC "-//W3C//DTD SVG 1.1//EN"
 "http://www.w3.org/Graphics/SVG/1.1/DTD/svg11.dtd">
<!-- Generated by graphviz version 9.0.0 (20230911.1827)
 -->
<!-- Title: graph_language_registry_object Pages: 1 -->
<svg width="528pt" height="293pt"
 viewBox="72.00 72.00 456.00 221.00" xmlns="http://www.w3.org/2000/svg" xmlns:xlink="http://www.w3.org/1999/xlink">
<g id="graph0" class="graph" transform="scale(1 1) rotate(0) translate(76 217)">
<title>graph_language_registry_object</title>
<polygon fill="white" stroke="none" points="-4,4 -4,-145 380,-145 380,4 -4,4"/>
<text text-anchor="start" x="8" y="-28.25" font-family="Monospace" font-size="10.00" fill="dimgray">Logtalk development tools</text>
<text text-anchor="start" x="8" y="-17" font-family="Monospace" font-size="10.00" fill="dimgray">Cross&#45;referencing diagram for object graph_language_registry</text>
<text text-anchor="start" x="8" y="-5.75" font-family="Monospace" font-size="10.00" fill="dimgray">Generated on 2023&#45;11&#45;13, 18:25</text>
<g id="clust1" class="cluster">
<title>cluster_graph_language_registry_object</title>
<g id="a_clust1"><a xlink:title="graph_language_registry">
<path fill="snow" stroke="dimgray" d="M119,-49.75C119,-49.75 257,-49.75 257,-49.75 263,-49.75 269,-55.75 269,-61.75 269,-61.75 269,-121 269,-121 269,-127 263,-133 257,-133 257,-133 119,-133 119,-133 113,-133 107,-127 107,-121 107,-121 107,-61.75 107,-61.75 107,-55.75 113,-49.75 119,-49.75"/>
<g id="a_clust1_0"><a xlink:href="https://github.com/LogtalkDotOrg/logtalk3/tree/b73901445b1660216ccc14bfe30cb3bf6759a131/tools/diagrams/graph_language_registry.lgt" xlink:title="https://github.com/LogtalkDotOrg/logtalk3/tree/b73901445b1660216ccc14bfe30cb3bf6759a131/tools/diagrams/graph_language_registry.lgt">
<text text-anchor="start" x="119" y="-115.5" font-family="Monospace" font-size="10.00" fill="dimgray">graph_language_registry</text>
</a>
</g>
</a>
</g>
</g>
<!-- language_object/2 -->
<g id="node1" class="node">
<title>language_object/2</title>
<g id="a_node1"><a xlink:href="https://github.com/LogtalkDotOrg/logtalk3/tree/b73901445b1660216ccc14bfe30cb3bf6759a131/tools/diagrams/graph_language_registry.lgt#L31" xlink:title="https://github.com/LogtalkDotOrg/logtalk3/tree/b73901445b1660216ccc14bfe30cb3bf6759a131/tools/diagrams/graph_language_registry.lgt#L31">
<polygon fill="skyblue" stroke="black" points="258,-95.75 118,-95.75 118,-59.75 258,-59.75 258,-95.75"/>
<text text-anchor="start" x="125.88" y="-78.58" font-family="Monospace" font-size="9.00"> </text>
<text text-anchor="start" x="130.62" y="-77.8" font-family="Monospace" font-size="11.00">language_object/2</text>
<text text-anchor="start" x="244.88" y="-78.58" font-family="Monospace" font-size="9.00"> </text>
<text text-anchor="start" x="125.88" y="-67.7" font-family="Monospace" font-size="9.00"> </text>
<text text-anchor="start" x="149.75" y="-69.22" font-family="Monospace" font-size="7.00">public, multifile</text>
<text text-anchor="start" x="244.88" y="-67.7" font-family="Monospace" font-size="9.00"> </text>
</a>
</g>
</g>
</g>
</svg>
