<?xml version="1.0" encoding="UTF-8" standalone="no"?>
<?xml-stylesheet href="diagrams.css" type="text/css"?>
<!DOCTYPE svg PUBLIC "-//W3C//DTD SVG 1.1//EN"
 "http://www.w3.org/Graphics/SVG/1.1/DTD/svg11.dtd">
<!-- Generated by graphviz version 2.43.20191029.1313 (20191029.1313)
 -->
<!-- Title: graph_language_registry_object Pages: 1 -->
<svg width="528pt" height="288pt"
 viewBox="72.00 72.00 456.06 216.00" xmlns="http://www.w3.org/2000/svg" xmlns:xlink="http://www.w3.org/1999/xlink">
<g id="graph0" class="graph" transform="scale(1 1) rotate(0) translate(76 212)">
<title>graph_language_registry_object</title>
<polygon fill="white" stroke="transparent" points="-4,4 -4,-140 380.06,-140 380.06,4 -4,4"/>
<text text-anchor="start" x="8" y="-26" font-family="Courier,monospace" font-size="10.00" fill="dimgray">Logtalk development tools</text>
<text text-anchor="start" x="8" y="-16" font-family="Courier,monospace" font-size="10.00" fill="dimgray">Cross&#45;referencing diagram for object graph_language_registry</text>
<text text-anchor="start" x="8" y="-6" font-family="Courier,monospace" font-size="10.00" fill="dimgray">Generated on 2020&#45;05&#45;25, 21:55</text>
<g id="clust1" class="cluster">
<title>cluster_graph_language_registry_object</title>
<g id="a_clust1"><a xlink:title="graph_language_registry">
<path fill="snow" stroke="dimgray" d="M119.03,-46C119.03,-46 257.03,-46 257.03,-46 263.03,-46 269.03,-52 269.03,-58 269.03,-58 269.03,-116 269.03,-116 269.03,-122 263.03,-128 257.03,-128 257.03,-128 119.03,-128 119.03,-128 113.03,-128 107.03,-122 107.03,-116 107.03,-116 107.03,-58 107.03,-58 107.03,-52 113.03,-46 119.03,-46"/>
<g id="a_clust1_0"><a xlink:href="https://github.com/LogtalkDotOrg/logtalk3/tree/ee3e469ba16664bcc8b3b120a4a0bb7672d96db2/tools/diagrams/graph_language_registry.lgt" xlink:title="https://github.com/LogtalkDotOrg/logtalk3/tree/ee3e469ba16664bcc8b3b120a4a0bb7672d96db2/tools/diagrams/graph_language_registry.lgt">
<text text-anchor="start" x="119.02" y="-112" font-family="Courier,monospace" font-size="10.00" fill="dimgray">graph_language_registry</text>
</a>
</g>
</a>
</g>
</g>
<!-- language_object/2 -->
<g id="node1" class="node">
<title>language_object/2</title>
<g id="a_node1"><a xlink:href="https://github.com/LogtalkDotOrg/logtalk3/tree/ee3e469ba16664bcc8b3b120a4a0bb7672d96db2/tools/diagrams/graph_language_registry.lgt#L30" xlink:title="https://github.com/LogtalkDotOrg/logtalk3/tree/ee3e469ba16664bcc8b3b120a4a0bb7672d96db2/tools/diagrams/graph_language_registry.lgt#L30">
<polygon fill="skyblue" stroke="black" points="257.03,-92 119.03,-92 119.03,-56 257.03,-56 257.03,-92"/>
<text text-anchor="start" x="126.83" y="-75.8" font-family="Courier,monospace" font-size="9.00"> </text>
<text text-anchor="start" x="131.92" y="-75.2" font-family="Courier,monospace" font-size="11.00">language_object/2</text>
<text text-anchor="start" x="243.83" y="-75.8" font-family="Courier,monospace" font-size="9.00"> </text>
<text text-anchor="start" x="126.83" y="-65.8" font-family="Courier,monospace" font-size="9.00"> </text>
<text text-anchor="start" x="152.32" y="-66.4" font-family="Courier,monospace" font-size="7.00">public, multifile</text>
<text text-anchor="start" x="243.83" y="-65.8" font-family="Courier,monospace" font-size="9.00"> </text>
</a>
</g>
</g>
</g>
</svg>
