<?xml version="1.0" encoding="UTF-8" standalone="no"?>
<?xml-stylesheet href="diagrams.css" type="text/css"?>
<!DOCTYPE svg PUBLIC "-//W3C//DTD SVG 1.1//EN"
 "http://www.w3.org/Graphics/SVG/1.1/DTD/svg11.dtd">
<!-- Generated by graphviz version 12.1.2 (20240928.0832)
 -->
<!-- Title: graph_language_registry_object Pages: 1 -->
<svg width="528pt" height="299pt"
 viewBox="72.00 72.00 456.00 227.00" xmlns="http://www.w3.org/2000/svg" xmlns:xlink="http://www.w3.org/1999/xlink">
<g id="graph0" class="graph" transform="scale(1 1) rotate(0) translate(76 223)">
<title>graph_language_registry_object</title>
<polygon fill="white" stroke="none" points="-4,4 -4,-151 380,-151 380,4 -4,4"/>
<text text-anchor="start" x="8" y="-32.75" font-family="Monospace" font-size="10.00" fill="dimgray">Logtalk development tools</text>
<text text-anchor="start" x="8" y="-20" font-family="Monospace" font-size="10.00" fill="dimgray">Cross&#45;referencing diagram for object graph_language_registry</text>
<text text-anchor="start" x="8" y="-7.25" font-family="Monospace" font-size="10.00" fill="dimgray">Generated on 2024&#45;10&#45;23, 19:24</text>
<g id="clust1" class="cluster">
<title>cluster_graph_language_registry_object</title>
<g id="a_clust1"><a xlink:title="graph_language_registry">
<path fill="snow" stroke="dimgray" d="M119,-54.25C119,-54.25 257,-54.25 257,-54.25 263,-54.25 269,-60.25 269,-66.25 269,-66.25 269,-127 269,-127 269,-133 263,-139 257,-139 257,-139 119,-139 119,-139 113,-139 107,-133 107,-127 107,-127 107,-66.25 107,-66.25 107,-60.25 113,-54.25 119,-54.25"/>
<g id="a_clust1_0"><a xlink:href="https://github.com/LogtalkDotOrg/logtalk3/tree/f8ac98d8f763af5df013e64e62e9a435130dc920/tools/diagrams/graph_language_registry.lgt" xlink:title="https://github.com/LogtalkDotOrg/logtalk3/tree/f8ac98d8f763af5df013e64e62e9a435130dc920/tools/diagrams/graph_language_registry.lgt">
<text text-anchor="start" x="119" y="-121.5" font-family="Monospace" font-size="10.00" fill="dimgray">graph_language_registry</text>
</a>
</g>
</a>
</g>
</g>
<!-- language_object/2 -->
<g id="node1" class="node">
<title>language_object/2</title>
<g id="a_node1"><a xlink:href="https://github.com/LogtalkDotOrg/logtalk3/tree/f8ac98d8f763af5df013e64e62e9a435130dc920/tools/diagrams/graph_language_registry.lgt#L31" xlink:title="https://github.com/LogtalkDotOrg/logtalk3/tree/f8ac98d8f763af5df013e64e62e9a435130dc920/tools/diagrams/graph_language_registry.lgt#L31">
<polygon fill="skyblue" stroke="black" points="258,-100.25 118,-100.25 118,-64.25 258,-64.25 258,-100.25"/>
<text text-anchor="start" x="125.88" y="-84.83" font-family="Monospace" font-size="9.00"> </text>
<text text-anchor="start" x="130.62" y="-83.8" font-family="Monospace" font-size="11.00">language_object/2</text>
<text text-anchor="start" x="244.88" y="-84.83" font-family="Monospace" font-size="9.00"> </text>
<text text-anchor="start" x="125.88" y="-72.7" font-family="Monospace" font-size="9.00"> </text>
<text text-anchor="start" x="149.75" y="-73.6" font-family="Monospace" font-size="7.00">public, multifile</text>
<text text-anchor="start" x="244.88" y="-72.7" font-family="Monospace" font-size="9.00"> </text>
</a>
</g>
</g>
</g>
</svg>
