<?xml version="1.0" encoding="UTF-8" standalone="no"?>
<?xml-stylesheet href="diagrams.css" type="text/css"?>
<!DOCTYPE svg PUBLIC "-//W3C//DTD SVG 1.1//EN"
 "http://www.w3.org/Graphics/SVG/1.1/DTD/svg11.dtd">
<!-- Generated by graphviz version 2.50.0 (20211204.2007)
 -->
<!-- Title: graph_language_registry_object Pages: 1 -->
<svg width="529pt" height="292pt"
 viewBox="72.00 72.00 457.00 220.00" xmlns="http://www.w3.org/2000/svg" xmlns:xlink="http://www.w3.org/1999/xlink">
<g id="graph0" class="graph" transform="scale(1 1) rotate(0) translate(76 216)">
<title>graph_language_registry_object</title>
<polygon fill="white" stroke="transparent" points="-4,4 -4,-144 381,-144 381,4 -4,4"/>
<text text-anchor="start" x="8" y="-29" font-family="Monospace" font-size="10.00" fill="dimgray">Logtalk development tools</text>
<text text-anchor="start" x="8" y="-18" font-family="Monospace" font-size="10.00" fill="dimgray">Cross&#45;referencing diagram for object graph_language_registry</text>
<text text-anchor="start" x="8" y="-7" font-family="Monospace" font-size="10.00" fill="dimgray">Generated on 2022&#45;05&#45;19, 20:00</text>
<g id="clust1" class="cluster">
<title>cluster_graph_language_registry_object</title>
<g id="a_clust1"><a xlink:title="graph_language_registry">
<path fill="snow" stroke="dimgray" d="M118.5,-49C118.5,-49 258.5,-49 258.5,-49 264.5,-49 270.5,-55 270.5,-61 270.5,-61 270.5,-120 270.5,-120 270.5,-126 264.5,-132 258.5,-132 258.5,-132 118.5,-132 118.5,-132 112.5,-132 106.5,-126 106.5,-120 106.5,-120 106.5,-61 106.5,-61 106.5,-55 112.5,-49 118.5,-49"/>
<g id="a_clust1_0"><a xlink:href="https://github.com/LogtalkDotOrg/logtalk3/tree/7c5102ffb4037fd1fd1f9e3c8eb28e9ab6309214/tools/diagrams/graph_language_registry.lgt" xlink:title="https://github.com/LogtalkDotOrg/logtalk3/tree/7c5102ffb4037fd1fd1f9e3c8eb28e9ab6309214/tools/diagrams/graph_language_registry.lgt">
<text text-anchor="start" x="119" y="-115.5" font-family="Monospace" font-size="10.00" fill="dimgray">graph_language_registry</text>
</a>
</g>
</a>
</g>
</g>
<!-- language_object/2 -->
<g id="node1" class="node">
<title>language_object/2</title>
<g id="a_node1"><a xlink:href="https://github.com/LogtalkDotOrg/logtalk3/tree/7c5102ffb4037fd1fd1f9e3c8eb28e9ab6309214/tools/diagrams/graph_language_registry.lgt#L31" xlink:title="https://github.com/LogtalkDotOrg/logtalk3/tree/7c5102ffb4037fd1fd1f9e3c8eb28e9ab6309214/tools/diagrams/graph_language_registry.lgt#L31">
<polygon fill="skyblue" stroke="black" points="260,-95 117,-95 117,-59 260,-59 260,-95"/>
<text text-anchor="start" x="125.5" y="-79.8" font-family="Monospace" font-size="9.00"> </text>
<text text-anchor="start" x="131.5" y="-79.2" font-family="Monospace" font-size="11.00">language_object/2</text>
<text text-anchor="start" x="246.5" y="-79.8" font-family="Monospace" font-size="9.00"> </text>
<text text-anchor="start" x="125.5" y="-68.8" font-family="Monospace" font-size="9.00"> </text>
<text text-anchor="start" x="150.5" y="-69.4" font-family="Monospace" font-size="7.00">public, multifile</text>
<text text-anchor="start" x="246.5" y="-68.8" font-family="Monospace" font-size="9.00"> </text>
</a>
</g>
</g>
</g>
</svg>
