<?xml version="1.0" encoding="UTF-8" standalone="no"?>
<!DOCTYPE svg PUBLIC "-//W3C//DTD SVG 1.1//EN"
 "http://www.w3.org/Graphics/SVG/1.1/DTD/svg11.dtd">
<!-- Generated by graphviz version 2.40.1 (20161225.0304)
 -->
<!-- Title: heuristic_expansion_1_object Pages: 1 -->
<svg width="682pt" height="517pt"
 viewBox="72.00 72.00 610.00 445.43" xmlns="http://www.w3.org/2000/svg" xmlns:xlink="http://www.w3.org/1999/xlink">
<g id="graph0" class="graph" transform="scale(1 1) rotate(0) translate(76 441.4264)">
<title>heuristic_expansion_1_object</title>
<polygon fill="#ffffff" stroke="transparent" points="-4,4 -4,-369.4264 534,-369.4264 534,4 -4,4"/>
<text text-anchor="start" x="8" y="-18" font-family="Courier,monospace" font-size="10.00" fill="#8b8989">Logtalk third&#45;party contributions</text>
<text text-anchor="start" x="8" y="-7" font-family="Courier,monospace" font-size="10.00" fill="#8b8989">Generated on 2019/04/12, 21:31</text>
<g id="clust1" class="cluster">
<title>cluster_heuristic_expansion_1_object</title>
<g id="a_clust1"><a xlink:href="https://github.com/LogtalkDotOrg/logtalk3/tree/master/contributions/verdi_neruda/heuristic_expansion.lgt" xlink:title="https://github.com/LogtalkDotOrg/logtalk3/tree/master/contributions/verdi_neruda/heuristic_expansion.lgt">
<path fill="#fffafa" stroke="#8b8989" d="M20,-38C20,-38 510,-38 510,-38 516,-38 522,-44 522,-50 522,-50 522,-345.4264 522,-345.4264 522,-351.4264 516,-357.4264 510,-357.4264 510,-357.4264 20,-357.4264 20,-357.4264 14,-357.4264 8,-351.4264 8,-345.4264 8,-345.4264 8,-50 8,-50 8,-44 14,-38 20,-38"/>
<text text-anchor="middle" x="82.5" y="-345.4264" font-family="Courier,monospace" font-size="10.00" fill="#8b8989">heuristic_expansion(_)</text>
</a>
</g>
</g>
<g id="clust2" class="cluster">
<title>cluster_other</title>
<g id="a_clust2"><a xlink:title="(external predicates)">
<path fill="#ffffff" stroke="#8b8989" d="M194,-48C194,-48 500,-48 500,-48 506,-48 512,-54 512,-60 512,-60 512,-111 512,-111 512,-117 506,-123 500,-123 500,-123 194,-123 194,-123 188,-123 182,-117 182,-111 182,-111 182,-60 182,-60 182,-54 188,-48 194,-48"/>
<text text-anchor="middle" x="253.5" y="-111" font-family="Courier,monospace" font-size="10.00" fill="#8b8989">(external predicates)</text>
</a>
</g>
</g>
<!-- goal_expansion/2 -->
<g id="node1" class="node">
<title>goal_expansion/2</title>
<g id="a_node1"><a xlink:href="https://github.com/LogtalkDotOrg/logtalk3/tree/master/contributions/verdi_neruda/heuristic_expansion.lgt#L13" xlink:title="https://github.com/LogtalkDotOrg/logtalk3/tree/master/contributions/verdi_neruda/heuristic_expansion.lgt#L13">
<ellipse fill="#f5f5dc" stroke="#000000" cx="344" cy="-307.2132" rx="94.5053" ry="21.4286"/>
<text text-anchor="start" x="285" y="-310.0132" font-family="Courier,monospace" font-size="9.00" fill="#000000"> </text>
<text text-anchor="start" x="291" y="-309.4132" font-family="Courier,monospace" font-size="11.00" fill="#000000">goal_expansion/2</text>
<text text-anchor="start" x="397" y="-310.0132" font-family="Courier,monospace" font-size="9.00" fill="#000000"> </text>
<text text-anchor="start" x="285" y="-299.0132" font-family="Courier,monospace" font-size="9.00" fill="#000000"> </text>
<text text-anchor="start" x="333" y="-299.6132" font-family="Courier,monospace" font-size="7.00" fill="#000000">local</text>
<text text-anchor="start" x="397" y="-299.0132" font-family="Courier,monospace" font-size="9.00" fill="#000000"> </text>
</a>
</g>
</g>
<!-- goal_expansion/2&#45;&gt;goal_expansion/2 -->
<g id="edge2" class="edge">
<title>goal_expansion/2&#45;&gt;goal_expansion/2</title>
<g id="a_edge2"><a xlink:href="https://github.com/LogtalkDotOrg/logtalk3/tree/master/contributions/verdi_neruda/heuristic_expansion.lgt#L13" xlink:title="super call">
<path fill="none" stroke="#000000" d="M421.4672,-319.4606C441.5836,-318.7078 456.7523,-314.6253 456.7523,-307.2132 456.7523,-301.3646 447.3079,-297.5891 433.4407,-295.8867"/>
<polygon fill="#000000" stroke="#000000" points="433.4318,-295.8861 427.1428,-299.4142 421.4672,-294.9659 433.4318,-295.8861"/>
</a>
</g>
<g id="a_edge2&#45;label"><a xlink:href="https://github.com/LogtalkDotOrg/logtalk3/tree/master/contributions/verdi_neruda/heuristic_expansion.lgt#L13" xlink:title="https://github.com/LogtalkDotOrg/logtalk3/tree/master/contributions/verdi_neruda/heuristic_expansion.lgt#L13">
<text text-anchor="start" x="456.7523" y="-305.0132" font-family="Courier,monospace" font-size="9.00" fill="#000000">super call</text>
</a>
</g>
</g>
<!-- term_expansion/2 -->
<g id="node2" class="node">
<title>term_expansion/2</title>
<g id="a_node2"><a xlink:href="https://github.com/LogtalkDotOrg/logtalk3/tree/master/contributions/verdi_neruda/heuristic_expansion.lgt#L16" xlink:title="https://github.com/LogtalkDotOrg/logtalk3/tree/master/contributions/verdi_neruda/heuristic_expansion.lgt#L16">
<ellipse fill="#f5f5dc" stroke="#000000" cx="136" cy="-307.2132" rx="94.5053" ry="21.4286"/>
<text text-anchor="start" x="77" y="-310.0132" font-family="Courier,monospace" font-size="9.00" fill="#000000"> </text>
<text text-anchor="start" x="83" y="-309.4132" font-family="Courier,monospace" font-size="11.00" fill="#000000">term_expansion/2</text>
<text text-anchor="start" x="189" y="-310.0132" font-family="Courier,monospace" font-size="9.00" fill="#000000"> </text>
<text text-anchor="start" x="77" y="-299.0132" font-family="Courier,monospace" font-size="9.00" fill="#000000"> </text>
<text text-anchor="start" x="125" y="-299.6132" font-family="Courier,monospace" font-size="7.00" fill="#000000">local</text>
<text text-anchor="start" x="189" y="-299.0132" font-family="Courier,monospace" font-size="9.00" fill="#000000"> </text>
</a>
</g>
</g>
<!-- flatten_goals/3 -->
<g id="node3" class="node">
<title>flatten_goals/3</title>
<ellipse fill="#f5f5dc" stroke="#000000" cx="95" cy="-76" rx="76.9425" ry="18"/>
<text text-anchor="start" x="39" y="-73.8" font-family="Courier,monospace" font-size="9.00" fill="#000000"> </text>
<text text-anchor="start" x="45" y="-73.2" font-family="Courier,monospace" font-size="11.00" fill="#000000">flatten_goals/3</text>
<text text-anchor="start" x="145" y="-73.8" font-family="Courier,monospace" font-size="9.00" fill="#000000"> </text>
</g>
<!-- term_expansion/2&#45;&gt;flatten_goals/3 -->
<g id="edge1" class="edge">
<title>term_expansion/2&#45;&gt;flatten_goals/3</title>
<g id="a_edge1"><a xlink:href="https://github.com/LogtalkDotOrg/logtalk3/tree/master/contributions/verdi_neruda/heuristic_expansion.lgt#L16" xlink:title="calls in self">
<path fill="none" stroke="#000000" d="M132.2163,-285.8757C124.88,-244.5038 108.706,-153.2931 100.3027,-105.9039"/>
<polygon fill="none" stroke="#000000" points="100.2954,-105.8623 95.3092,-100.6529 98.2001,-94.0466 100.2954,-105.8623"/>
</a>
</g>
<g id="a_edge1&#45;label"><a xlink:href="https://github.com/LogtalkDotOrg/logtalk3/tree/master/contributions/verdi_neruda/heuristic_expansion.lgt#L16" xlink:title="https://github.com/LogtalkDotOrg/logtalk3/tree/master/contributions/verdi_neruda/heuristic_expansion.lgt#L16">
<text text-anchor="start" x="115" y="-187.8" font-family="Courier,monospace" font-size="9.00" fill="#000000">calls in self</text>
</a>
</g>
</g>
<!-- list::length/2 -->
<g id="node4" class="node">
<title>list::length/2</title>
<ellipse fill="#d3d3d3" stroke="#000000" stroke-dasharray="5,2" cx="265" cy="-76" rx="72.5245" ry="18"/>
<text text-anchor="start" x="213" y="-73.8" font-family="Courier,monospace" font-size="9.00" fill="#000000"> </text>
<text text-anchor="start" x="219" y="-73.2" font-family="Courier,monospace" font-size="11.00" fill="#000000">list::length/2</text>
<text text-anchor="start" x="312" y="-73.8" font-family="Courier,monospace" font-size="9.00" fill="#000000"> </text>
</g>
<!-- term_expansion/2&#45;&gt;list::length/2 -->
<g id="edge3" class="edge">
<title>term_expansion/2&#45;&gt;list::length/2</title>
<g id="a_edge3"><a xlink:href="https://github.com/LogtalkDotOrg/logtalk3/tree/master/contributions/verdi_neruda/heuristic_expansion.lgt#L16" xlink:title="calls">
<path fill="none" stroke="#000000" d="M147.9048,-285.8757C171.1841,-244.151 222.7462,-151.7337 248.987,-104.701"/>
<polygon fill="#000000" stroke="#000000" points="249.0846,-104.5259 248.5148,-97.3374 254.9313,-94.0466 249.0846,-104.5259"/>
</a>
</g>
<g id="a_edge3&#45;label"><a xlink:href="https://github.com/LogtalkDotOrg/logtalk3/tree/master/contributions/verdi_neruda/heuristic_expansion.lgt#L16" xlink:title="https://github.com/LogtalkDotOrg/logtalk3/tree/master/contributions/verdi_neruda/heuristic_expansion.lgt#L16">
<text text-anchor="start" x="202" y="-187.8" font-family="Courier,monospace" font-size="9.00" fill="#000000">calls</text>
</a>
</g>
</g>
<!-- list::append/3 -->
<g id="node5" class="node">
<title>list::append/3</title>
<ellipse fill="#d3d3d3" stroke="#000000" stroke-dasharray="5,2" cx="429" cy="-76" rx="72.5245" ry="18"/>
<text text-anchor="start" x="377" y="-73.8" font-family="Courier,monospace" font-size="9.00" fill="#000000"> </text>
<text text-anchor="start" x="383" y="-73.2" font-family="Courier,monospace" font-size="11.00" fill="#000000">list::append/3</text>
<text text-anchor="start" x="476" y="-73.8" font-family="Courier,monospace" font-size="9.00" fill="#000000"> </text>
</g>
<!-- term_expansion/2&#45;&gt;list::append/3 -->
<g id="edge4" class="edge">
<title>term_expansion/2&#45;&gt;list::append/3</title>
<g id="a_edge4"><a xlink:href="https://github.com/LogtalkDotOrg/logtalk3/tree/master/contributions/verdi_neruda/heuristic_expansion.lgt#L16" xlink:title="calls">
<path fill="none" stroke="#000000" d="M162.0018,-286.6946C215.7755,-244.2605 339.045,-146.9856 397.3415,-100.9825"/>
<polygon fill="#000000" stroke="#000000" points="397.6901,-100.7074 399.9223,-93.8505 407.1103,-93.2737 397.6901,-100.7074"/>
</a>
</g>
<g id="a_edge4&#45;label"><a xlink:href="https://github.com/LogtalkDotOrg/logtalk3/tree/master/contributions/verdi_neruda/heuristic_expansion.lgt#L16" xlink:title="https://github.com/LogtalkDotOrg/logtalk3/tree/master/contributions/verdi_neruda/heuristic_expansion.lgt#L16">
<text text-anchor="start" x="287" y="-187.8" font-family="Courier,monospace" font-size="9.00" fill="#000000">calls</text>
</a>
</g>
</g>
</g>
</svg>
