<?xml version="1.0" encoding="UTF-8" standalone="no"?>
<!DOCTYPE svg PUBLIC "-//W3C//DTD SVG 1.1//EN"
 "http://www.w3.org/Graphics/SVG/1.1/DTD/svg11.dtd">
<!-- Generated by graphviz version 2.40.1 (20161225.0304)
 -->
<!-- Title: heuristic_expansion_1_object Pages: 1 -->
<svg width="733pt" height="524pt"
 viewBox="72.00 72.00 661.00 451.85" xmlns="http://www.w3.org/2000/svg" xmlns:xlink="http://www.w3.org/1999/xlink">
<g id="graph0" class="graph" transform="scale(1 1) rotate(0) translate(76 447.8528)">
<title>heuristic_expansion_1_object</title>
<polygon fill="#ffffff" stroke="transparent" points="-4,4 -4,-375.8528 585,-375.8528 585,4 -4,4"/>
<text text-anchor="start" x="8" y="-18" font-family="Courier,monospace" font-size="10.00" fill="#8b8989">Logtalk third&#45;party contributions</text>
<text text-anchor="start" x="8" y="-7" font-family="Courier,monospace" font-size="10.00" fill="#8b8989">Generated on 2019/04/08, 18:41</text>
<g id="clust1" class="cluster">
<title>cluster_heuristic_expansion_1_object</title>
<g id="a_clust1"><a xlink:href="https://github.com/LogtalkDotOrg/logtalk3/tree/master/contributions/verdi_neruda/heuristic_expansion.lgt" xlink:title="https://github.com/LogtalkDotOrg/logtalk3/tree/master/contributions/verdi_neruda/heuristic_expansion.lgt">
<path fill="#fffafa" stroke="#8b8989" d="M20,-38C20,-38 561,-38 561,-38 567,-38 573,-44 573,-50 573,-50 573,-351.8528 573,-351.8528 573,-357.8528 567,-363.8528 561,-363.8528 561,-363.8528 20,-363.8528 20,-363.8528 14,-363.8528 8,-357.8528 8,-351.8528 8,-351.8528 8,-50 8,-50 8,-44 14,-38 20,-38"/>
<text text-anchor="middle" x="82.5" y="-351.8528" font-family="Courier,monospace" font-size="10.00" fill="#8b8989">heuristic_expansion(_)</text>
</a>
</g>
</g>
<g id="clust2" class="cluster">
<title>cluster_other</title>
<g id="a_clust2"><a xlink:title="(external predicates)">
<path fill="#ffffff" stroke="#8b8989" d="M194,-48C194,-48 551,-48 551,-48 557,-48 563,-54 563,-60 563,-60 563,-117.4264 563,-117.4264 563,-123.4264 557,-129.4264 551,-129.4264 551,-129.4264 194,-129.4264 194,-129.4264 188,-129.4264 182,-123.4264 182,-117.4264 182,-117.4264 182,-60 182,-60 182,-54 188,-48 194,-48"/>
<text text-anchor="middle" x="253.5" y="-117.4264" font-family="Courier,monospace" font-size="10.00" fill="#8b8989">(external predicates)</text>
</a>
</g>
</g>
<!-- goal_expansion/2 -->
<g id="node1" class="node">
<title>goal_expansion/2</title>
<ellipse fill="#f5f5dc" stroke="#000000" cx="395" cy="-313.6396" rx="94.5053" ry="21.4286"/>
<text text-anchor="start" x="336" y="-316.4396" font-family="Courier,monospace" font-size="9.00" fill="#000000"> </text>
<text text-anchor="start" x="342" y="-315.8396" font-family="Courier,monospace" font-size="11.00" fill="#000000">goal_expansion/2</text>
<text text-anchor="start" x="448" y="-316.4396" font-family="Courier,monospace" font-size="9.00" fill="#000000"> </text>
<text text-anchor="start" x="336" y="-305.4396" font-family="Courier,monospace" font-size="9.00" fill="#000000"> </text>
<text text-anchor="start" x="384" y="-306.0396" font-family="Courier,monospace" font-size="7.00" fill="#000000">local</text>
<text text-anchor="start" x="448" y="-305.4396" font-family="Courier,monospace" font-size="9.00" fill="#000000"> </text>
</g>
<!-- goal_expansion/2&#45;&gt;goal_expansion/2 -->
<g id="edge2" class="edge">
<title>goal_expansion/2&#45;&gt;goal_expansion/2</title>
<g id="a_edge2"><a xlink:href="https://github.com/LogtalkDotOrg/logtalk3/tree/master/contributions/verdi_neruda/heuristic_expansion.lgt#L13" xlink:title="super call">
<path fill="none" stroke="#000000" d="M472.4672,-325.887C492.5836,-325.1342 507.7523,-321.0517 507.7523,-313.6396 507.7523,-307.791 498.3079,-304.0155 484.4407,-302.3131"/>
<polygon fill="#000000" stroke="#000000" points="484.4318,-302.3125 478.1428,-305.8406 472.4672,-301.3923 484.4318,-302.3125"/>
</a>
</g>
<g id="a_edge2&#45;label"><a xlink:href="https://github.com/LogtalkDotOrg/logtalk3/tree/master/contributions/verdi_neruda/heuristic_expansion.lgt#L13" xlink:title="https://github.com/LogtalkDotOrg/logtalk3/tree/master/contributions/verdi_neruda/heuristic_expansion.lgt#L13">
<text text-anchor="start" x="507.7523" y="-311.4396" font-family="Courier,monospace" font-size="9.00" fill="#000000">super call</text>
</a>
</g>
</g>
<!-- term_expansion/2 -->
<g id="node2" class="node">
<title>term_expansion/2</title>
<ellipse fill="#f5f5dc" stroke="#000000" cx="187" cy="-313.6396" rx="94.5053" ry="21.4286"/>
<text text-anchor="start" x="128" y="-316.4396" font-family="Courier,monospace" font-size="9.00" fill="#000000"> </text>
<text text-anchor="start" x="134" y="-315.8396" font-family="Courier,monospace" font-size="11.00" fill="#000000">term_expansion/2</text>
<text text-anchor="start" x="240" y="-316.4396" font-family="Courier,monospace" font-size="9.00" fill="#000000"> </text>
<text text-anchor="start" x="128" y="-305.4396" font-family="Courier,monospace" font-size="9.00" fill="#000000"> </text>
<text text-anchor="start" x="176" y="-306.0396" font-family="Courier,monospace" font-size="7.00" fill="#000000">local</text>
<text text-anchor="start" x="240" y="-305.4396" font-family="Courier,monospace" font-size="9.00" fill="#000000"> </text>
</g>
<!-- flatten_goals/3 -->
<g id="node3" class="node">
<title>flatten_goals/3</title>
<ellipse fill="#f5f5dc" stroke="#000000" cx="95" cy="-79.2132" rx="76.9425" ry="18"/>
<text text-anchor="start" x="39" y="-77.0132" font-family="Courier,monospace" font-size="9.00" fill="#000000"> </text>
<text text-anchor="start" x="45" y="-76.4132" font-family="Courier,monospace" font-size="11.00" fill="#000000">flatten_goals/3</text>
<text text-anchor="start" x="145" y="-77.0132" font-family="Courier,monospace" font-size="9.00" fill="#000000"> </text>
</g>
<!-- term_expansion/2&#45;&gt;flatten_goals/3 -->
<g id="edge1" class="edge">
<title>term_expansion/2&#45;&gt;flatten_goals/3</title>
<g id="a_edge1"><a xlink:href="https://github.com/LogtalkDotOrg/logtalk3/tree/master/contributions/verdi_neruda/heuristic_expansion.lgt#L16" xlink:title="calls in self">
<path fill="none" stroke="#000000" d="M178.6734,-292.4224C162.194,-250.4312 125.3921,-156.6558 106.57,-108.6948"/>
<polygon fill="none" stroke="#000000" points="106.4725,-108.4464 100.557,-104.3224 102.0886,-97.2758 106.4725,-108.4464"/>
</a>
</g>
<g id="a_edge1&#45;label"><a xlink:href="https://github.com/LogtalkDotOrg/logtalk3/tree/master/contributions/verdi_neruda/heuristic_expansion.lgt#L16" xlink:title="https://github.com/LogtalkDotOrg/logtalk3/tree/master/contributions/verdi_neruda/heuristic_expansion.lgt#L16">
<text text-anchor="start" x="142" y="-194.2264" font-family="Courier,monospace" font-size="9.00" fill="#000000">calls in self</text>
</a>
</g>
</g>
<!-- list::length/2 -->
<g id="node4" class="node">
<title>list::length/2</title>
<g id="a_node4"><a xlink:href="https://logtalk.org/library/list_0.html#length/2" xlink:title="https://logtalk.org/library/list_0.html#length/2">
<ellipse fill="#d3d3d3" stroke="#000000" stroke-dasharray="5,2" cx="278" cy="-79.2132" rx="85.6199" ry="21.4286"/>
<text text-anchor="start" x="226" y="-82.0132" font-family="Courier,monospace" font-size="9.00" fill="#000000"> </text>
<text text-anchor="start" x="232" y="-81.4132" font-family="Courier,monospace" font-size="11.00" fill="#000000">list::length/2</text>
<text text-anchor="start" x="325" y="-82.0132" font-family="Courier,monospace" font-size="9.00" fill="#000000"> </text>
<text text-anchor="start" x="226" y="-71.0132" font-family="Courier,monospace" font-size="9.00" fill="#000000"> </text>
<text text-anchor="start" x="261.5" y="-71.6132" font-family="Courier,monospace" font-size="7.00" fill="#000000">external</text>
<text text-anchor="start" x="325" y="-71.0132" font-family="Courier,monospace" font-size="9.00" fill="#000000"> </text>
</a>
</g>
</g>
<!-- term_expansion/2&#45;&gt;list::length/2 -->
<g id="edge3" class="edge">
<title>term_expansion/2&#45;&gt;list::length/2</title>
<g id="a_edge3"><a xlink:href="https://github.com/LogtalkDotOrg/logtalk3/tree/master/contributions/verdi_neruda/heuristic_expansion.lgt#L16" xlink:title="calls">
<path fill="none" stroke="#000000" d="M195.2361,-292.4224C211.1676,-251.381 246.3016,-160.8718 265.2655,-112.0187"/>
<polygon fill="#000000" stroke="#000000" points="265.3744,-111.7381 263.8167,-104.6973 269.7169,-100.5514 265.3744,-111.7381"/>
</a>
</g>
<g id="a_edge3&#45;label"><a xlink:href="https://github.com/LogtalkDotOrg/logtalk3/tree/master/contributions/verdi_neruda/heuristic_expansion.lgt#L16" xlink:title="https://github.com/LogtalkDotOrg/logtalk3/tree/master/contributions/verdi_neruda/heuristic_expansion.lgt#L16">
<text text-anchor="start" x="234" y="-194.2264" font-family="Courier,monospace" font-size="9.00" fill="#000000">calls</text>
</a>
</g>
</g>
<!-- list::append/3 -->
<g id="node5" class="node">
<title>list::append/3</title>
<g id="a_node5"><a xlink:href="https://logtalk.org/library/list_0.html#append/3" xlink:title="https://logtalk.org/library/list_0.html#append/3">
<ellipse fill="#d3d3d3" stroke="#000000" stroke-dasharray="5,2" cx="467" cy="-79.2132" rx="85.6199" ry="21.4286"/>
<text text-anchor="start" x="415" y="-82.0132" font-family="Courier,monospace" font-size="9.00" fill="#000000"> </text>
<text text-anchor="start" x="421" y="-81.4132" font-family="Courier,monospace" font-size="11.00" fill="#000000">list::append/3</text>
<text text-anchor="start" x="514" y="-82.0132" font-family="Courier,monospace" font-size="9.00" fill="#000000"> </text>
<text text-anchor="start" x="415" y="-71.0132" font-family="Courier,monospace" font-size="9.00" fill="#000000"> </text>
<text text-anchor="start" x="450.5" y="-71.6132" font-family="Courier,monospace" font-size="7.00" fill="#000000">external</text>
<text text-anchor="start" x="514" y="-71.0132" font-family="Courier,monospace" font-size="9.00" fill="#000000"> </text>
</a>
</g>
</g>
<!-- term_expansion/2&#45;&gt;list::append/3 -->
<g id="edge4" class="edge">
<title>term_expansion/2&#45;&gt;list::append/3</title>
<g id="a_edge4"><a xlink:href="https://github.com/LogtalkDotOrg/logtalk3/tree/master/contributions/verdi_neruda/heuristic_expansion.lgt#L16" xlink:title="calls">
<path fill="none" stroke="#000000" d="M211.8481,-292.8358C262.2037,-250.6763 376.3301,-155.1254 433.3146,-107.4159"/>
<polygon fill="#000000" stroke="#000000" points="433.4064,-107.3391 435.439,-100.4204 442.6073,-99.6356 433.4064,-107.3391"/>
</a>
</g>
<g id="a_edge4&#45;label"><a xlink:href="https://github.com/LogtalkDotOrg/logtalk3/tree/master/contributions/verdi_neruda/heuristic_expansion.lgt#L16" xlink:title="https://github.com/LogtalkDotOrg/logtalk3/tree/master/contributions/verdi_neruda/heuristic_expansion.lgt#L16">
<text text-anchor="start" x="332" y="-194.2264" font-family="Courier,monospace" font-size="9.00" fill="#000000">calls</text>
</a>
</g>
</g>
</g>
</svg>
