<?xml version="1.0" encoding="UTF-8" standalone="no"?>
<?xml-stylesheet href="diagrams.css" type="text/css"?>
<!DOCTYPE svg PUBLIC "-//W3C//DTD SVG 1.1//EN"
 "http://www.w3.org/Graphics/SVG/1.1/DTD/svg11.dtd">
<!-- Generated by graphviz version 2.43.20191029.1313 (20191029.1313)
 -->
<!-- Title: html5_object Pages: 1 -->
<svg width="420pt" height="288pt"
 viewBox="72.00 72.00 348.04 216.00" xmlns="http://www.w3.org/2000/svg" xmlns:xlink="http://www.w3.org/1999/xlink">
<g id="graph0" class="graph" transform="scale(1 1) rotate(0) translate(76 212)">
<title>html5_object</title>
<polygon fill="white" stroke="transparent" points="-4,4 -4,-140 272.04,-140 272.04,4 -4,4"/>
<text text-anchor="start" x="8" y="-26" font-family="Courier,monospace" font-size="10.00" fill="dimgray">Logtalk library</text>
<text text-anchor="start" x="8" y="-16" font-family="Courier,monospace" font-size="10.00" fill="dimgray">Cross&#45;referencing diagram for object html5</text>
<text text-anchor="start" x="8" y="-6" font-family="Courier,monospace" font-size="10.00" fill="dimgray">Generated on 2021&#45;06&#45;10, 14:57</text>
<g id="clust1" class="cluster">
<title>cluster_html5_object</title>
<g id="a_clust1"><a xlink:title="html5">
<path fill="snow" stroke="dimgray" d="M93.02,-46C93.02,-46 175.02,-46 175.02,-46 181.02,-46 187.02,-52 187.02,-58 187.02,-58 187.02,-116 187.02,-116 187.02,-122 181.02,-128 175.02,-128 175.02,-128 93.02,-128 93.02,-128 87.02,-128 81.02,-122 81.02,-116 81.02,-116 81.02,-58 81.02,-58 81.02,-52 87.02,-46 93.02,-46"/>
<g id="a_clust1_0"><a xlink:href="https://github.com/LogtalkDotOrg/logtalk3/tree/487c7c28df509fc43c6ff460bc904efe0e5a6445/library/html/html.lgt" xlink:title="https://github.com/LogtalkDotOrg/logtalk3/tree/487c7c28df509fc43c6ff460bc904efe0e5a6445/library/html/html.lgt">
<text text-anchor="start" x="93.02" y="-112" font-family="Courier,monospace" font-size="10.00" fill="dimgray">html5</text>
</a>
</g>
</a>
</g>
</g>
<!-- doctype/1 -->
<g id="node1" class="node">
<title>doctype/1</title>
<g id="a_node1"><a xlink:href="https://github.com/LogtalkDotOrg/logtalk3/tree/487c7c28df509fc43c6ff460bc904efe0e5a6445/library/html/html.lgt#L346" xlink:title="https://github.com/LogtalkDotOrg/logtalk3/tree/487c7c28df509fc43c6ff460bc904efe0e5a6445/library/html/html.lgt#L346">
<polygon fill="cornsilk" stroke="black" points="176.52,-92 91.52,-92 91.52,-56 176.52,-56 176.52,-92"/>
<text text-anchor="start" x="99.82" y="-75.8" font-family="Courier,monospace" font-size="9.00"> </text>
<text text-anchor="start" x="104.82" y="-75.2" font-family="Courier,monospace" font-size="11.00">doctype/1</text>
<text text-anchor="start" x="163.82" y="-75.8" font-family="Courier,monospace" font-size="9.00"> </text>
<text text-anchor="start" x="99.82" y="-65.8" font-family="Courier,monospace" font-size="9.00"> </text>
<text text-anchor="start" x="124.02" y="-66.4" font-family="Courier,monospace" font-size="7.00">local</text>
<text text-anchor="start" x="163.82" y="-65.8" font-family="Courier,monospace" font-size="9.00"> </text>
</a>
</g>
</g>
</g>
</svg>
