<?xml version="1.0" encoding="UTF-8" standalone="no"?>
<?xml-stylesheet href="diagrams.css" type="text/css"?>
<!DOCTYPE svg PUBLIC "-//W3C//DTD SVG 1.1//EN"
 "http://www.w3.org/Graphics/SVG/1.1/DTD/svg11.dtd">
<!-- Generated by graphviz version 9.0.0 (20230911.1827)
 -->
<!-- Title: html5_object Pages: 1 -->
<svg width="420pt" height="293pt"
 viewBox="72.00 72.00 348.00 221.00" xmlns="http://www.w3.org/2000/svg" xmlns:xlink="http://www.w3.org/1999/xlink">
<g id="graph0" class="graph" transform="scale(1 1) rotate(0) translate(76 217)">
<title>html5_object</title>
<polygon fill="white" stroke="none" points="-4,4 -4,-145 272,-145 272,4 -4,4"/>
<text text-anchor="start" x="8" y="-28.25" font-family="Monospace" font-size="10.00" fill="dimgray">Logtalk library</text>
<text text-anchor="start" x="8" y="-17" font-family="Monospace" font-size="10.00" fill="dimgray">Cross&#45;referencing diagram for object html5</text>
<text text-anchor="start" x="8" y="-5.75" font-family="Monospace" font-size="10.00" fill="dimgray">Generated on 2024&#45;01&#45;08, 14:18</text>
<g id="clust1" class="cluster">
<title>cluster_html5_object</title>
<g id="a_clust1"><a xlink:title="html5">
<path fill="snow" stroke="dimgray" d="M93,-49.75C93,-49.75 175,-49.75 175,-49.75 181,-49.75 187,-55.75 187,-61.75 187,-61.75 187,-121 187,-121 187,-127 181,-133 175,-133 175,-133 93,-133 93,-133 87,-133 81,-127 81,-121 81,-121 81,-61.75 81,-61.75 81,-55.75 87,-49.75 93,-49.75"/>
<g id="a_clust1_0"><a xlink:href="https://github.com/LogtalkDotOrg/logtalk3/tree/142025d9045498b6d77f3485cd8fe7bcd83df5ea/library/html/html.lgt" xlink:title="https://github.com/LogtalkDotOrg/logtalk3/tree/142025d9045498b6d77f3485cd8fe7bcd83df5ea/library/html/html.lgt">
<text text-anchor="start" x="93" y="-115.5" font-family="Monospace" font-size="10.00" fill="dimgray">html5</text>
</a>
</g>
</a>
</g>
</g>
<!-- doctype/1 -->
<g id="node1" class="node">
<title>doctype/1</title>
<g id="a_node1"><a xlink:href="https://github.com/LogtalkDotOrg/logtalk3/tree/142025d9045498b6d77f3485cd8fe7bcd83df5ea/library/html/html.lgt#L346" xlink:title="https://github.com/LogtalkDotOrg/logtalk3/tree/142025d9045498b6d77f3485cd8fe7bcd83df5ea/library/html/html.lgt#L346">
<polygon fill="cornsilk" stroke="black" points="177,-95.75 91,-95.75 91,-59.75 177,-59.75 177,-95.75"/>
<text text-anchor="start" x="98.88" y="-78.58" font-family="Monospace" font-size="9.00"> </text>
<text text-anchor="start" x="103.62" y="-77.8" font-family="Monospace" font-size="11.00">doctype/1</text>
<text text-anchor="start" x="163.88" y="-78.58" font-family="Monospace" font-size="9.00"> </text>
<text text-anchor="start" x="98.88" y="-67.7" font-family="Monospace" font-size="9.00"> </text>
<text text-anchor="start" x="122.75" y="-69.22" font-family="Monospace" font-size="7.00">local</text>
<text text-anchor="start" x="163.88" y="-67.7" font-family="Monospace" font-size="9.00"> </text>
</a>
</g>
</g>
</g>
</svg>
