<?xml version="1.0" encoding="UTF-8" standalone="no"?>
<?xml-stylesheet href="diagrams.css" type="text/css"?>
<!DOCTYPE svg PUBLIC "-//W3C//DTD SVG 1.1//EN"
 "http://www.w3.org/Graphics/SVG/1.1/DTD/svg11.dtd">
<!-- Generated by graphviz version 2.49.3 (20211023.0002)
 -->
<!-- Title: html5_object Pages: 1 -->
<svg width="378pt" height="292pt"
 viewBox="72.00 72.00 306.00 220.00" xmlns="http://www.w3.org/2000/svg" xmlns:xlink="http://www.w3.org/1999/xlink">
<g id="graph0" class="graph" transform="scale(1 1) rotate(0) translate(76 216)">
<title>html5_object</title>
<polygon fill="white" stroke="transparent" points="-4,4 -4,-144 230,-144 230,4 -4,4"/>
<text text-anchor="start" x="8" y="-29" font-family="Courier,monospace" font-size="10.00" fill="dimgray">Logtalk library</text>
<text text-anchor="start" x="8" y="-18" font-family="Courier,monospace" font-size="10.00" fill="dimgray">Cross&#45;referencing diagram for object html5</text>
<text text-anchor="start" x="8" y="-7" font-family="Courier,monospace" font-size="10.00" fill="dimgray">Generated on 2021&#45;11&#45;02, 10:35</text>
<g id="clust1" class="cluster">
<title>cluster_html5_object</title>
<g id="a_clust1"><a xlink:title="html5">
<path fill="snow" stroke="dimgray" d="M77,-49C77,-49 149,-49 149,-49 155,-49 161,-55 161,-61 161,-61 161,-120 161,-120 161,-126 155,-132 149,-132 149,-132 77,-132 77,-132 71,-132 65,-126 65,-120 65,-120 65,-61 65,-61 65,-55 71,-49 77,-49"/>
<g id="a_clust1_0"><a xlink:href="https://github.com/LogtalkDotOrg/logtalk3/tree/cbba6d9f7efe0ecef480b6200bf5d3edd28fc400/library/html/html.lgt" xlink:title="https://github.com/LogtalkDotOrg/logtalk3/tree/cbba6d9f7efe0ecef480b6200bf5d3edd28fc400/library/html/html.lgt">
<text text-anchor="start" x="77.5" y="-115.5" font-family="Courier,monospace" font-size="10.00" fill="dimgray">html5</text>
</a>
</g>
</a>
</g>
</g>
<!-- doctype/1 -->
<g id="node1" class="node">
<title>doctype/1</title>
<g id="a_node1"><a xlink:href="https://github.com/LogtalkDotOrg/logtalk3/tree/cbba6d9f7efe0ecef480b6200bf5d3edd28fc400/library/html/html.lgt#L346" xlink:title="https://github.com/LogtalkDotOrg/logtalk3/tree/cbba6d9f7efe0ecef480b6200bf5d3edd28fc400/library/html/html.lgt#L346">
<polygon fill="cornsilk" stroke="black" points="151,-95 75,-95 75,-59 151,-59 151,-95"/>
<text text-anchor="start" x="83" y="-79.8" font-family="Courier,monospace" font-size="9.00"> </text>
<text text-anchor="start" x="88" y="-79.2" font-family="Courier,monospace" font-size="11.00">doctype/1</text>
<text text-anchor="start" x="138" y="-79.8" font-family="Courier,monospace" font-size="9.00"> </text>
<text text-anchor="start" x="83" y="-68.8" font-family="Courier,monospace" font-size="9.00"> </text>
<text text-anchor="start" x="104" y="-69.4" font-family="Courier,monospace" font-size="7.00">local</text>
<text text-anchor="start" x="138" y="-68.8" font-family="Courier,monospace" font-size="9.00"> </text>
</a>
</g>
</g>
</g>
</svg>
