<?xml version="1.0" encoding="UTF-8" standalone="no"?>
<?xml-stylesheet href="diagrams.css" type="text/css"?>
<!DOCTYPE svg PUBLIC "-//W3C//DTD SVG 1.1//EN"
 "http://www.w3.org/Graphics/SVG/1.1/DTD/svg11.dtd">
<!-- Generated by graphviz version 2.49.3 (20211023.0002)
 -->
<!-- Title: html5_object Pages: 1 -->
<svg width="421pt" height="292pt"
 viewBox="72.00 72.00 349.00 220.00" xmlns="http://www.w3.org/2000/svg" xmlns:xlink="http://www.w3.org/1999/xlink">
<g id="graph0" class="graph" transform="scale(1 1) rotate(0) translate(76 216)">
<title>html5_object</title>
<polygon fill="white" stroke="transparent" points="-4,4 -4,-144 273,-144 273,4 -4,4"/>
<text text-anchor="start" x="8" y="-29" font-family="Monospace" font-size="10.00" fill="dimgray">Logtalk library</text>
<text text-anchor="start" x="8" y="-18" font-family="Monospace" font-size="10.00" fill="dimgray">Cross&#45;referencing diagram for object html5</text>
<text text-anchor="start" x="8" y="-7" font-family="Monospace" font-size="10.00" fill="dimgray">Generated on 2021&#45;12&#45;17, 10:12</text>
<g id="clust1" class="cluster">
<title>cluster_html5_object</title>
<g id="a_clust1"><a xlink:title="html5">
<path fill="snow" stroke="dimgray" d="M92.5,-49C92.5,-49 176.5,-49 176.5,-49 182.5,-49 188.5,-55 188.5,-61 188.5,-61 188.5,-120 188.5,-120 188.5,-126 182.5,-132 176.5,-132 176.5,-132 92.5,-132 92.5,-132 86.5,-132 80.5,-126 80.5,-120 80.5,-120 80.5,-61 80.5,-61 80.5,-55 86.5,-49 92.5,-49"/>
<g id="a_clust1_0"><a xlink:href="https://github.com/LogtalkDotOrg/logtalk3/tree/94c1fd19ea356506cb08c17bd16f4263a9cd4707/library/html/html.lgt" xlink:title="https://github.com/LogtalkDotOrg/logtalk3/tree/94c1fd19ea356506cb08c17bd16f4263a9cd4707/library/html/html.lgt">
<text text-anchor="start" x="93" y="-115.5" font-family="Monospace" font-size="10.00" fill="dimgray">html5</text>
</a>
</g>
</a>
</g>
</g>
<!-- doctype/1 -->
<g id="node1" class="node">
<title>doctype/1</title>
<g id="a_node1"><a xlink:href="https://github.com/LogtalkDotOrg/logtalk3/tree/94c1fd19ea356506cb08c17bd16f4263a9cd4707/library/html/html.lgt#L346" xlink:title="https://github.com/LogtalkDotOrg/logtalk3/tree/94c1fd19ea356506cb08c17bd16f4263a9cd4707/library/html/html.lgt#L346">
<polygon fill="cornsilk" stroke="black" points="178.5,-95 90.5,-95 90.5,-59 178.5,-59 178.5,-95"/>
<text text-anchor="start" x="98.5" y="-79.8" font-family="Monospace" font-size="9.00"> </text>
<text text-anchor="start" x="104.5" y="-79.2" font-family="Monospace" font-size="11.00">doctype/1</text>
<text text-anchor="start" x="164.5" y="-79.8" font-family="Monospace" font-size="9.00"> </text>
<text text-anchor="start" x="98.5" y="-68.8" font-family="Monospace" font-size="9.00"> </text>
<text text-anchor="start" x="123.5" y="-69.4" font-family="Monospace" font-size="7.00">local</text>
<text text-anchor="start" x="164.5" y="-68.8" font-family="Monospace" font-size="9.00"> </text>
</a>
</g>
</g>
</g>
</svg>
