<?xml version="1.0" encoding="UTF-8" standalone="no"?>
<?xml-stylesheet href="diagrams.css" type="text/css"?>
<!DOCTYPE svg PUBLIC "-//W3C//DTD SVG 1.1//EN"
 "http://www.w3.org/Graphics/SVG/1.1/DTD/svg11.dtd">
<!-- Generated by graphviz version 12.1.2 (20240928.0832)
 -->
<!-- Title: html5_object Pages: 1 -->
<svg width="420pt" height="299pt"
 viewBox="72.00 72.00 348.00 227.00" xmlns="http://www.w3.org/2000/svg" xmlns:xlink="http://www.w3.org/1999/xlink">
<g id="graph0" class="graph" transform="scale(1 1) rotate(0) translate(76 223)">
<title>html5_object</title>
<polygon fill="white" stroke="none" points="-4,4 -4,-151 272,-151 272,4 -4,4"/>
<text text-anchor="start" x="8" y="-32.75" font-family="Monospace" font-size="10.00" fill="dimgray">Logtalk library</text>
<text text-anchor="start" x="8" y="-20" font-family="Monospace" font-size="10.00" fill="dimgray">Cross&#45;referencing diagram for object html5</text>
<text text-anchor="start" x="8" y="-7.25" font-family="Monospace" font-size="10.00" fill="dimgray">Generated on 2024&#45;10&#45;16, 10:49</text>
<g id="clust1" class="cluster">
<title>cluster_html5_object</title>
<g id="a_clust1"><a xlink:title="html5">
<path fill="snow" stroke="dimgray" d="M93,-54.25C93,-54.25 175,-54.25 175,-54.25 181,-54.25 187,-60.25 187,-66.25 187,-66.25 187,-127 187,-127 187,-133 181,-139 175,-139 175,-139 93,-139 93,-139 87,-139 81,-133 81,-127 81,-127 81,-66.25 81,-66.25 81,-60.25 87,-54.25 93,-54.25"/>
<g id="a_clust1_0"><a xlink:href="https://github.com/LogtalkDotOrg/logtalk3/tree/707d4eb6d9c7932489a0940288e1228a32903575/library/html/html.lgt" xlink:title="https://github.com/LogtalkDotOrg/logtalk3/tree/707d4eb6d9c7932489a0940288e1228a32903575/library/html/html.lgt">
<text text-anchor="start" x="93" y="-121.5" font-family="Monospace" font-size="10.00" fill="dimgray">html5</text>
</a>
</g>
</a>
</g>
</g>
<!-- doctype/1 -->
<g id="node1" class="node">
<title>doctype/1</title>
<g id="a_node1"><a xlink:href="https://github.com/LogtalkDotOrg/logtalk3/tree/707d4eb6d9c7932489a0940288e1228a32903575/library/html/html.lgt#L346" xlink:title="https://github.com/LogtalkDotOrg/logtalk3/tree/707d4eb6d9c7932489a0940288e1228a32903575/library/html/html.lgt#L346">
<polygon fill="cornsilk" stroke="black" points="177,-100.25 91,-100.25 91,-64.25 177,-64.25 177,-100.25"/>
<text text-anchor="start" x="98.88" y="-84.83" font-family="Monospace" font-size="9.00"> </text>
<text text-anchor="start" x="103.62" y="-83.8" font-family="Monospace" font-size="11.00">doctype/1</text>
<text text-anchor="start" x="163.88" y="-84.83" font-family="Monospace" font-size="9.00"> </text>
<text text-anchor="start" x="98.88" y="-72.7" font-family="Monospace" font-size="9.00"> </text>
<text text-anchor="start" x="122.75" y="-73.6" font-family="Monospace" font-size="7.00">local</text>
<text text-anchor="start" x="163.88" y="-72.7" font-family="Monospace" font-size="9.00"> </text>
</a>
</g>
</g>
</g>
</svg>
