<?xml version="1.0" encoding="UTF-8" standalone="no"?>
<?xml-stylesheet href="diagrams.css" type="text/css"?>
<!DOCTYPE svg PUBLIC "-//W3C//DTD SVG 1.1//EN"
 "http://www.w3.org/Graphics/SVG/1.1/DTD/svg11.dtd">
<!-- Generated by graphviz version 2.50.0 (20211204.2007)
 -->
<!-- Title: identity_hook_object Pages: 1 -->
<svg width="481pt" height="292pt"
 viewBox="72.00 72.00 409.00 220.00" xmlns="http://www.w3.org/2000/svg" xmlns:xlink="http://www.w3.org/1999/xlink">
<g id="graph0" class="graph" transform="scale(1 1) rotate(0) translate(76 216)">
<title>identity_hook_object</title>
<polygon fill="white" stroke="transparent" points="-4,4 -4,-144 333,-144 333,4 -4,4"/>
<text text-anchor="start" x="8" y="-29" font-family="Monospace" font-size="10.00" fill="dimgray">Logtalk library</text>
<text text-anchor="start" x="8" y="-18" font-family="Monospace" font-size="10.00" fill="dimgray">Cross&#45;referencing diagram for object identity_hook</text>
<text text-anchor="start" x="8" y="-7" font-family="Monospace" font-size="10.00" fill="dimgray">Generated on 2022&#45;07&#45;06, 17:05</text>
<g id="clust1" class="cluster">
<title>cluster_identity_hook_object</title>
<g id="a_clust1"><a xlink:title="identity_hook">
<path fill="snow" stroke="dimgray" d="M20,-49C20,-49 309,-49 309,-49 315,-49 321,-55 321,-61 321,-61 321,-120 321,-120 321,-126 315,-132 309,-132 309,-132 20,-132 20,-132 14,-132 8,-126 8,-120 8,-120 8,-61 8,-61 8,-55 14,-49 20,-49"/>
<g id="a_clust1_0"><a xlink:href="https://github.com/LogtalkDotOrg/logtalk3/tree/23843f349c1df2e2af61e59c49b40341f428ac68/library/hook_objects/identity_hook.lgt" xlink:title="https://github.com/LogtalkDotOrg/logtalk3/tree/23843f349c1df2e2af61e59c49b40341f428ac68/library/hook_objects/identity_hook.lgt">
<text text-anchor="start" x="20.5" y="-115.5" font-family="Monospace" font-size="10.00" fill="dimgray">identity_hook</text>
</a>
</g>
</a>
</g>
</g>
<!-- term_expansion/2 -->
<g id="node1" class="node">
<title>term_expansion/2</title>
<g id="a_node1"><a xlink:href="https://github.com/LogtalkDotOrg/logtalk3/tree/23843f349c1df2e2af61e59c49b40341f428ac68/library/hook_objects/identity_hook.lgt#L42" xlink:title="https://github.com/LogtalkDotOrg/logtalk3/tree/23843f349c1df2e2af61e59c49b40341f428ac68/library/hook_objects/identity_hook.lgt#L42">
<polygon fill="cornsilk" stroke="black" points="310.5,-95 173.5,-95 173.5,-59 310.5,-59 310.5,-95"/>
<text text-anchor="start" x="182" y="-79.8" font-family="Monospace" font-size="9.00"> </text>
<text text-anchor="start" x="188" y="-79.2" font-family="Monospace" font-size="11.00">term_expansion/2</text>
<text text-anchor="start" x="297" y="-79.8" font-family="Monospace" font-size="9.00"> </text>
<text text-anchor="start" x="182" y="-68.8" font-family="Monospace" font-size="9.00"> </text>
<text text-anchor="start" x="231" y="-69.4" font-family="Monospace" font-size="7.00">local</text>
<text text-anchor="start" x="297" y="-68.8" font-family="Monospace" font-size="9.00"> </text>
</a>
</g>
</g>
<!-- goal_expansion/2 -->
<g id="node2" class="node">
<title>goal_expansion/2</title>
<g id="a_node2"><a xlink:href="https://github.com/LogtalkDotOrg/logtalk3/tree/23843f349c1df2e2af61e59c49b40341f428ac68/library/hook_objects/identity_hook.lgt#L44" xlink:title="https://github.com/LogtalkDotOrg/logtalk3/tree/23843f349c1df2e2af61e59c49b40341f428ac68/library/hook_objects/identity_hook.lgt#L44">
<polygon fill="cornsilk" stroke="black" points="155.5,-95 18.5,-95 18.5,-59 155.5,-59 155.5,-95"/>
<text text-anchor="start" x="27" y="-79.8" font-family="Monospace" font-size="9.00"> </text>
<text text-anchor="start" x="33" y="-79.2" font-family="Monospace" font-size="11.00">goal_expansion/2</text>
<text text-anchor="start" x="142" y="-79.8" font-family="Monospace" font-size="9.00"> </text>
<text text-anchor="start" x="27" y="-68.8" font-family="Monospace" font-size="9.00"> </text>
<text text-anchor="start" x="76" y="-69.4" font-family="Monospace" font-size="7.00">local</text>
<text text-anchor="start" x="142" y="-68.8" font-family="Monospace" font-size="9.00"> </text>
</a>
</g>
</g>
</g>
</svg>
