<?xml version="1.0" encoding="UTF-8" standalone="no"?>
<?xml-stylesheet href="diagrams.css" type="text/css"?>
<!DOCTYPE svg PUBLIC "-//W3C//DTD SVG 1.1//EN"
 "http://www.w3.org/Graphics/SVG/1.1/DTD/svg11.dtd">
<!-- Generated by graphviz version 2.49.3 (20211023.0002)
 -->
<!-- Title: identity_hook_object Pages: 1 -->
<svg width="474pt" height="292pt"
 viewBox="72.00 72.00 402.00 220.00" xmlns="http://www.w3.org/2000/svg" xmlns:xlink="http://www.w3.org/1999/xlink">
<g id="graph0" class="graph" transform="scale(1 1) rotate(0) translate(76 216)">
<title>identity_hook_object</title>
<polygon fill="white" stroke="transparent" points="-4,4 -4,-144 326,-144 326,4 -4,4"/>
<text text-anchor="start" x="8" y="-29" font-family="Monospace" font-size="10.00" fill="dimgray">Logtalk library</text>
<text text-anchor="start" x="8" y="-18" font-family="Monospace" font-size="10.00" fill="dimgray">Cross&#45;referencing diagram for object identity_hook</text>
<text text-anchor="start" x="8" y="-7" font-family="Monospace" font-size="10.00" fill="dimgray">Generated on 2021&#45;12&#45;24, 12:03</text>
<g id="clust1" class="cluster">
<title>cluster_identity_hook_object</title>
<g id="a_clust1"><a xlink:title="identity_hook">
<path fill="snow" stroke="dimgray" d="M20,-49C20,-49 302,-49 302,-49 308,-49 314,-55 314,-61 314,-61 314,-120 314,-120 314,-126 308,-132 302,-132 302,-132 20,-132 20,-132 14,-132 8,-126 8,-120 8,-120 8,-61 8,-61 8,-55 14,-49 20,-49"/>
<g id="a_clust1_0"><a xlink:href="https://github.com/LogtalkDotOrg/logtalk3/tree/261dba8e72dd07f5fb5891a52d53f8dbac37f16a/library/hook_objects/identity_hook.lgt" xlink:title="https://github.com/LogtalkDotOrg/logtalk3/tree/261dba8e72dd07f5fb5891a52d53f8dbac37f16a/library/hook_objects/identity_hook.lgt">
<text text-anchor="start" x="20.5" y="-115.5" font-family="Monospace" font-size="10.00" fill="dimgray">identity_hook</text>
</a>
</g>
</a>
</g>
</g>
<!-- term_expansion/2 -->
<g id="node1" class="node">
<title>term_expansion/2</title>
<g id="a_node1"><a xlink:href="https://github.com/LogtalkDotOrg/logtalk3/tree/261dba8e72dd07f5fb5891a52d53f8dbac37f16a/library/hook_objects/identity_hook.lgt#L42" xlink:title="https://github.com/LogtalkDotOrg/logtalk3/tree/261dba8e72dd07f5fb5891a52d53f8dbac37f16a/library/hook_objects/identity_hook.lgt#L42">
<polygon fill="cornsilk" stroke="black" points="304,-95 170,-95 170,-59 304,-59 304,-95"/>
<text text-anchor="start" x="178" y="-79.8" font-family="Monospace" font-size="9.00"> </text>
<text text-anchor="start" x="184" y="-79.2" font-family="Monospace" font-size="11.00">term_expansion/2</text>
<text text-anchor="start" x="290" y="-79.8" font-family="Monospace" font-size="9.00"> </text>
<text text-anchor="start" x="178" y="-68.8" font-family="Monospace" font-size="9.00"> </text>
<text text-anchor="start" x="226" y="-69.4" font-family="Monospace" font-size="7.00">local</text>
<text text-anchor="start" x="290" y="-68.8" font-family="Monospace" font-size="9.00"> </text>
</a>
</g>
</g>
<!-- goal_expansion/2 -->
<g id="node2" class="node">
<title>goal_expansion/2</title>
<g id="a_node2"><a xlink:href="https://github.com/LogtalkDotOrg/logtalk3/tree/261dba8e72dd07f5fb5891a52d53f8dbac37f16a/library/hook_objects/identity_hook.lgt#L44" xlink:title="https://github.com/LogtalkDotOrg/logtalk3/tree/261dba8e72dd07f5fb5891a52d53f8dbac37f16a/library/hook_objects/identity_hook.lgt#L44">
<polygon fill="cornsilk" stroke="black" points="152,-95 18,-95 18,-59 152,-59 152,-95"/>
<text text-anchor="start" x="26" y="-79.8" font-family="Monospace" font-size="9.00"> </text>
<text text-anchor="start" x="32" y="-79.2" font-family="Monospace" font-size="11.00">goal_expansion/2</text>
<text text-anchor="start" x="138" y="-79.8" font-family="Monospace" font-size="9.00"> </text>
<text text-anchor="start" x="26" y="-68.8" font-family="Monospace" font-size="9.00"> </text>
<text text-anchor="start" x="74" y="-69.4" font-family="Monospace" font-size="7.00">local</text>
<text text-anchor="start" x="138" y="-68.8" font-family="Monospace" font-size="9.00"> </text>
</a>
</g>
</g>
</g>
</svg>
