<?xml version="1.0" encoding="UTF-8" standalone="no"?>
<?xml-stylesheet href="diagrams.css" type="text/css"?>
<!DOCTYPE svg PUBLIC "-//W3C//DTD SVG 1.1//EN"
 "http://www.w3.org/Graphics/SVG/1.1/DTD/svg11.dtd">
<!-- Generated by graphviz version 11.0.0 (20240428.1522)
 -->
<!-- Title: identity_hook_object Pages: 1 -->
<svg width="474pt" height="299pt"
 viewBox="72.00 72.00 402.00 227.00" xmlns="http://www.w3.org/2000/svg" xmlns:xlink="http://www.w3.org/1999/xlink">
<g id="graph0" class="graph" transform="scale(1 1) rotate(0) translate(76 223)">
<title>identity_hook_object</title>
<polygon fill="white" stroke="none" points="-4,4 -4,-151 326,-151 326,4 -4,4"/>
<text text-anchor="start" x="8" y="-32.75" font-family="Monospace" font-size="10.00" fill="dimgray">Logtalk library</text>
<text text-anchor="start" x="8" y="-20" font-family="Monospace" font-size="10.00" fill="dimgray">Cross&#45;referencing diagram for object identity_hook</text>
<text text-anchor="start" x="8" y="-7.25" font-family="Monospace" font-size="10.00" fill="dimgray">Generated on 2024&#45;05&#45;31, 12:00</text>
<g id="clust1" class="cluster">
<title>cluster_identity_hook_object</title>
<g id="a_clust1"><a xlink:title="identity_hook">
<path fill="snow" stroke="dimgray" d="M20,-54.25C20,-54.25 302,-54.25 302,-54.25 308,-54.25 314,-60.25 314,-66.25 314,-66.25 314,-127 314,-127 314,-133 308,-139 302,-139 302,-139 20,-139 20,-139 14,-139 8,-133 8,-127 8,-127 8,-66.25 8,-66.25 8,-60.25 14,-54.25 20,-54.25"/>
<g id="a_clust1_0"><a xlink:href="https://github.com/LogtalkDotOrg/logtalk3/tree/faeaa016291c9ade2dce317498edff78d5735cc1/library/hook_objects/identity_hook.lgt" xlink:title="https://github.com/LogtalkDotOrg/logtalk3/tree/faeaa016291c9ade2dce317498edff78d5735cc1/library/hook_objects/identity_hook.lgt">
<text text-anchor="start" x="20" y="-121.5" font-family="Monospace" font-size="10.00" fill="dimgray">identity_hook</text>
</a>
</g>
</a>
</g>
</g>
<!-- term_expansion/2 -->
<g id="node1" class="node">
<title>term_expansion/2</title>
<g id="a_node1"><a xlink:href="https://github.com/LogtalkDotOrg/logtalk3/tree/faeaa016291c9ade2dce317498edff78d5735cc1/library/hook_objects/identity_hook.lgt#L42" xlink:title="https://github.com/LogtalkDotOrg/logtalk3/tree/faeaa016291c9ade2dce317498edff78d5735cc1/library/hook_objects/identity_hook.lgt#L42">
<polygon fill="cornsilk" stroke="black" points="152,-100.25 18,-100.25 18,-64.25 152,-64.25 152,-100.25"/>
<text text-anchor="start" x="25.88" y="-84.83" font-family="Monospace" font-size="9.00"> </text>
<text text-anchor="start" x="31" y="-83.8" font-family="Monospace" font-size="11.00">term_expansion/2</text>
<text text-anchor="start" x="138.88" y="-84.83" font-family="Monospace" font-size="9.00"> </text>
<text text-anchor="start" x="25.88" y="-72.7" font-family="Monospace" font-size="9.00"> </text>
<text text-anchor="start" x="73.75" y="-73.6" font-family="Monospace" font-size="7.00">local</text>
<text text-anchor="start" x="138.88" y="-72.7" font-family="Monospace" font-size="9.00"> </text>
</a>
</g>
</g>
<!-- goal_expansion/2 -->
<g id="node2" class="node">
<title>goal_expansion/2</title>
<g id="a_node2"><a xlink:href="https://github.com/LogtalkDotOrg/logtalk3/tree/faeaa016291c9ade2dce317498edff78d5735cc1/library/hook_objects/identity_hook.lgt#L44" xlink:title="https://github.com/LogtalkDotOrg/logtalk3/tree/faeaa016291c9ade2dce317498edff78d5735cc1/library/hook_objects/identity_hook.lgt#L44">
<polygon fill="cornsilk" stroke="black" points="304,-100.25 170,-100.25 170,-64.25 304,-64.25 304,-100.25"/>
<text text-anchor="start" x="177.88" y="-84.83" font-family="Monospace" font-size="9.00"> </text>
<text text-anchor="start" x="183" y="-83.8" font-family="Monospace" font-size="11.00">goal_expansion/2</text>
<text text-anchor="start" x="290.88" y="-84.83" font-family="Monospace" font-size="9.00"> </text>
<text text-anchor="start" x="177.88" y="-72.7" font-family="Monospace" font-size="9.00"> </text>
<text text-anchor="start" x="225.75" y="-73.6" font-family="Monospace" font-size="7.00">local</text>
<text text-anchor="start" x="290.88" y="-72.7" font-family="Monospace" font-size="9.00"> </text>
</a>
</g>
</g>
</g>
</svg>
