<?xml version="1.0" encoding="UTF-8" standalone="no"?>
<!DOCTYPE svg PUBLIC "-//W3C//DTD SVG 1.1//EN"
 "http://www.w3.org/Graphics/SVG/1.1/DTD/svg11.dtd">
<!-- Generated by graphviz version 2.40.1 (20161225.0304)
 -->
<!-- Title: inheritance_diagram_1_object Pages: 1 -->
<svg width="962pt" height="517pt"
 viewBox="72.00 72.00 890.00 445.43" xmlns="http://www.w3.org/2000/svg" xmlns:xlink="http://www.w3.org/1999/xlink">
<g id="graph0" class="graph" transform="scale(1 1) rotate(0) translate(76 441.4264)">
<title>inheritance_diagram_1_object</title>
<polygon fill="#ffffff" stroke="transparent" points="-4,4 -4,-369.4264 814,-369.4264 814,4 -4,4"/>
<text text-anchor="start" x="8" y="-18" font-family="Courier,monospace" font-size="10.00" fill="#8b8989">Logtalk development tools</text>
<text text-anchor="start" x="8" y="-7" font-family="Courier,monospace" font-size="10.00" fill="#8b8989">Generated on 2019/04/12, 21:31</text>
<g id="clust1" class="cluster">
<title>cluster_inheritance_diagram_1_object</title>
<g id="a_clust1"><a xlink:href="https://github.com/LogtalkDotOrg/logtalk3/tree/master/tools/diagrams/inheritance_diagram.lgt" xlink:title="https://github.com/LogtalkDotOrg/logtalk3/tree/master/tools/diagrams/inheritance_diagram.lgt">
<path fill="#fffafa" stroke="#8b8989" d="M20,-38C20,-38 790,-38 790,-38 796,-38 802,-44 802,-50 802,-50 802,-345.4264 802,-345.4264 802,-351.4264 796,-357.4264 790,-357.4264 790,-357.4264 20,-357.4264 20,-357.4264 14,-357.4264 8,-351.4264 8,-345.4264 8,-345.4264 8,-50 8,-50 8,-44 14,-38 20,-38"/>
<text text-anchor="middle" x="97.5" y="-345.4264" font-family="Courier,monospace" font-size="10.00" fill="#8b8989">inheritance_diagram(Format)</text>
</a>
</g>
</g>
<g id="clust2" class="cluster">
<title>cluster_other</title>
<g id="a_clust2"><a xlink:title="(external predicates)">
<path fill="#ffffff" stroke="#8b8989" d="M510,-48C510,-48 780,-48 780,-48 786,-48 792,-54 792,-60 792,-60 792,-111 792,-111 792,-117 786,-123 780,-123 780,-123 510,-123 510,-123 504,-123 498,-117 498,-111 498,-111 498,-60 498,-60 498,-54 504,-48 510,-48"/>
<text text-anchor="middle" x="569.5" y="-111" font-family="Courier,monospace" font-size="10.00" fill="#8b8989">(external predicates)</text>
</a>
</g>
</g>
<!-- default_option/1 -->
<g id="node1" class="node">
<title>default_option/1</title>
<g id="a_node1"><a xlink:href="https://github.com/LogtalkDotOrg/logtalk3/tree/master/tools/diagrams/inheritance_diagram.lgt#L34" xlink:title="https://github.com/LogtalkDotOrg/logtalk3/tree/master/tools/diagrams/inheritance_diagram.lgt#L34">
<ellipse fill="#f5f5dc" stroke="#000000" cx="697" cy="-307.2132" rx="94.5053" ry="21.4286"/>
<text text-anchor="start" x="638" y="-310.0132" font-family="Courier,monospace" font-size="9.00" fill="#000000"> </text>
<text text-anchor="start" x="644" y="-309.4132" font-family="Courier,monospace" font-size="11.00" fill="#000000">default_option/1</text>
<text text-anchor="start" x="750" y="-310.0132" font-family="Courier,monospace" font-size="9.00" fill="#000000"> </text>
<text text-anchor="start" x="638" y="-299.0132" font-family="Courier,monospace" font-size="9.00" fill="#000000"> </text>
<text text-anchor="start" x="686" y="-299.6132" font-family="Courier,monospace" font-size="7.00" fill="#000000">local</text>
<text text-anchor="start" x="750" y="-299.0132" font-family="Courier,monospace" font-size="9.00" fill="#000000"> </text>
</a>
</g>
</g>
<!-- logtalk::expand_library_path/2 -->
<g id="node4" class="node">
<title>logtalk::expand_library_path/2</title>
<ellipse fill="#d3d3d3" stroke="#000000" stroke-dasharray="5,2" cx="645" cy="-76" rx="136.5074" ry="18"/>
<text text-anchor="start" x="540" y="-73.8" font-family="Courier,monospace" font-size="9.00" fill="#000000"> </text>
<text text-anchor="start" x="546" y="-73.2" font-family="Courier,monospace" font-size="11.00" fill="#000000">logtalk::expand_library_path/2</text>
<text text-anchor="start" x="745" y="-73.8" font-family="Courier,monospace" font-size="9.00" fill="#000000"> </text>
</g>
<!-- default_option/1&#45;&gt;logtalk::expand_library_path/2 -->
<g id="edge1" class="edge">
<title>default_option/1&#45;&gt;logtalk::expand_library_path/2</title>
<g id="a_edge1"><a xlink:href="https://github.com/LogtalkDotOrg/logtalk3/tree/master/tools/diagrams/inheritance_diagram.lgt#L68" xlink:title="calls">
<path fill="none" stroke="#000000" d="M692.2012,-285.8757C682.8966,-244.5038 662.3833,-153.2931 651.7254,-105.9039"/>
<polygon fill="#000000" stroke="#000000" points="651.6918,-105.7542 646.4727,-100.7781 649.0587,-94.0466 651.6918,-105.7542"/>
</a>
</g>
<g id="a_edge1&#45;label"><a xlink:href="https://github.com/LogtalkDotOrg/logtalk3/tree/master/tools/diagrams/inheritance_diagram.lgt#L68" xlink:title="https://github.com/LogtalkDotOrg/logtalk3/tree/master/tools/diagrams/inheritance_diagram.lgt#L68">
<text text-anchor="start" x="671" y="-187.8" font-family="Courier,monospace" font-size="9.00" fill="#000000">calls</text>
</a>
</g>
</g>
<!-- diagram_name_suffix/1 -->
<g id="node2" class="node">
<title>diagram_name_suffix/1</title>
<g id="a_node2"><a xlink:href="https://github.com/LogtalkDotOrg/logtalk3/tree/master/tools/diagrams/inheritance_diagram.lgt#L80" xlink:title="https://github.com/LogtalkDotOrg/logtalk3/tree/master/tools/diagrams/inheritance_diagram.lgt#L80">
<ellipse fill="#f5f5dc" stroke="#000000" cx="466" cy="-307.2132" rx="118.1737" ry="21.4286"/>
<text text-anchor="start" x="391" y="-310.0132" font-family="Courier,monospace" font-size="9.00" fill="#000000"> </text>
<text text-anchor="start" x="397" y="-309.4132" font-family="Courier,monospace" font-size="11.00" fill="#000000">diagram_name_suffix/1</text>
<text text-anchor="start" x="536" y="-310.0132" font-family="Courier,monospace" font-size="9.00" fill="#000000"> </text>
<text text-anchor="start" x="391" y="-299.0132" font-family="Courier,monospace" font-size="9.00" fill="#000000"> </text>
<text text-anchor="start" x="455.5" y="-299.6132" font-family="Courier,monospace" font-size="7.00" fill="#000000">local</text>
<text text-anchor="start" x="536" y="-299.0132" font-family="Courier,monospace" font-size="9.00" fill="#000000"> </text>
</a>
</g>
</g>
<!-- message_diagram_description/1 -->
<g id="node3" class="node">
<title>message_diagram_description/1</title>
<g id="a_node3"><a xlink:href="https://github.com/LogtalkDotOrg/logtalk3/tree/master/tools/diagrams/inheritance_diagram.lgt#L82" xlink:title="https://github.com/LogtalkDotOrg/logtalk3/tree/master/tools/diagrams/inheritance_diagram.lgt#L82">
<ellipse fill="#f5f5dc" stroke="#000000" cx="174" cy="-307.2132" rx="155.627" ry="21.4286"/>
<text text-anchor="start" x="72" y="-310.0132" font-family="Courier,monospace" font-size="9.00" fill="#000000"> </text>
<text text-anchor="start" x="78" y="-309.4132" font-family="Courier,monospace" font-size="11.00" fill="#000000">message_diagram_description/1</text>
<text text-anchor="start" x="270" y="-310.0132" font-family="Courier,monospace" font-size="9.00" fill="#000000"> </text>
<text text-anchor="start" x="72" y="-299.0132" font-family="Courier,monospace" font-size="9.00" fill="#000000"> </text>
<text text-anchor="start" x="163" y="-299.6132" font-family="Courier,monospace" font-size="7.00" fill="#000000">local</text>
<text text-anchor="start" x="270" y="-299.0132" font-family="Courier,monospace" font-size="9.00" fill="#000000"> </text>
</a>
</g>
</g>
</g>
</svg>
