<?xml version="1.0" encoding="UTF-8" standalone="no"?>
<?xml-stylesheet href="diagrams.css" type="text/css"?>
<!DOCTYPE svg PUBLIC "-//W3C//DTD SVG 1.1//EN"
 "http://www.w3.org/Graphics/SVG/1.1/DTD/svg11.dtd">
<!-- Generated by graphviz version 2.49.3 (20211023.0002)
 -->
<!-- Title: inheritance_diagram_1_object Pages: 1 -->
<svg width="931pt" height="292pt"
 viewBox="72.00 72.00 859.00 220.00" xmlns="http://www.w3.org/2000/svg" xmlns:xlink="http://www.w3.org/1999/xlink">
<g id="graph0" class="graph" transform="scale(1 1) rotate(0) translate(76 216)">
<title>inheritance_diagram_1_object</title>
<polygon fill="white" stroke="transparent" points="-4,4 -4,-144 783,-144 783,4 -4,4"/>
<text text-anchor="start" x="8" y="-29" font-family="Monospace" font-size="10.00" fill="dimgray">Logtalk development tools</text>
<text text-anchor="start" x="8" y="-18" font-family="Monospace" font-size="10.00" fill="dimgray">Cross&#45;referencing diagram for object inheritance_diagram/1</text>
<text text-anchor="start" x="8" y="-7" font-family="Monospace" font-size="10.00" fill="dimgray">Generated on 2021&#45;12&#45;02, 08:17</text>
<g id="clust1" class="cluster">
<title>cluster_inheritance_diagram_1_object</title>
<g id="a_clust1"><a xlink:title="inheritance_diagram(Format)">
<path fill="snow" stroke="dimgray" d="M20,-49C20,-49 759,-49 759,-49 765,-49 771,-55 771,-61 771,-61 771,-120 771,-120 771,-126 765,-132 759,-132 759,-132 20,-132 20,-132 14,-132 8,-126 8,-120 8,-120 8,-61 8,-61 8,-55 14,-49 20,-49"/>
<g id="a_clust1_0"><a xlink:href="https://github.com/LogtalkDotOrg/logtalk3/tree/8f74caa8b343527af192c30fc01e18d864e14e52/tools/diagrams/inheritance_diagram.lgt" xlink:title="https://github.com/LogtalkDotOrg/logtalk3/tree/8f74caa8b343527af192c30fc01e18d864e14e52/tools/diagrams/inheritance_diagram.lgt">
<text text-anchor="start" x="20.5" y="-115.5" font-family="Monospace" font-size="10.00" fill="dimgray">inheritance_diagram(Format)</text>
</a>
</g>
</a>
</g>
</g>
<!-- default_option/1 -->
<g id="node1" class="node">
<title>default_option/1</title>
<g id="a_node1"><a xlink:href="https://github.com/LogtalkDotOrg/logtalk3/tree/8f74caa8b343527af192c30fc01e18d864e14e52/tools/diagrams/inheritance_diagram.lgt#L35" xlink:title="https://github.com/LogtalkDotOrg/logtalk3/tree/8f74caa8b343527af192c30fc01e18d864e14e52/tools/diagrams/inheritance_diagram.lgt#L35">
<polygon fill="cornsilk" stroke="black" points="761,-95 627,-95 627,-59 761,-59 761,-95"/>
<text text-anchor="start" x="635" y="-79.8" font-family="Monospace" font-size="9.00"> </text>
<text text-anchor="start" x="641" y="-79.2" font-family="Monospace" font-size="11.00">default_option/1</text>
<text text-anchor="start" x="747" y="-79.8" font-family="Monospace" font-size="9.00"> </text>
<text text-anchor="start" x="635" y="-68.8" font-family="Monospace" font-size="9.00"> </text>
<text text-anchor="start" x="683" y="-69.4" font-family="Monospace" font-size="7.00">local</text>
<text text-anchor="start" x="747" y="-68.8" font-family="Monospace" font-size="9.00"> </text>
</a>
</g>
</g>
<!-- diagram_description/1 -->
<g id="node2" class="node">
<title>diagram_description/1</title>
<g id="a_node2"><a xlink:href="https://github.com/LogtalkDotOrg/logtalk3/tree/8f74caa8b343527af192c30fc01e18d864e14e52/tools/diagrams/inheritance_diagram.lgt#L79" xlink:title="https://github.com/LogtalkDotOrg/logtalk3/tree/8f74caa8b343527af192c30fc01e18d864e14e52/tools/diagrams/inheritance_diagram.lgt#L79">
<polygon fill="cornsilk" stroke="black" points="608.5,-95 441.5,-95 441.5,-59 608.5,-59 608.5,-95"/>
<text text-anchor="start" x="450" y="-79.8" font-family="Monospace" font-size="9.00"> </text>
<text text-anchor="start" x="456" y="-79.2" font-family="Monospace" font-size="11.00">diagram_description/1</text>
<text text-anchor="start" x="595" y="-79.8" font-family="Monospace" font-size="9.00"> </text>
<text text-anchor="start" x="450" y="-68.8" font-family="Monospace" font-size="9.00"> </text>
<text text-anchor="start" x="514.5" y="-69.4" font-family="Monospace" font-size="7.00">local</text>
<text text-anchor="start" x="595" y="-68.8" font-family="Monospace" font-size="9.00"> </text>
</a>
</g>
</g>
<!-- diagram_name_suffix/1 -->
<g id="node3" class="node">
<title>diagram_name_suffix/1</title>
<g id="a_node3"><a xlink:href="https://github.com/LogtalkDotOrg/logtalk3/tree/8f74caa8b343527af192c30fc01e18d864e14e52/tools/diagrams/inheritance_diagram.lgt#L81" xlink:title="https://github.com/LogtalkDotOrg/logtalk3/tree/8f74caa8b343527af192c30fc01e18d864e14e52/tools/diagrams/inheritance_diagram.lgt#L81">
<polygon fill="cornsilk" stroke="black" points="423.5,-95 256.5,-95 256.5,-59 423.5,-59 423.5,-95"/>
<text text-anchor="start" x="265" y="-79.8" font-family="Monospace" font-size="9.00"> </text>
<text text-anchor="start" x="271" y="-79.2" font-family="Monospace" font-size="11.00">diagram_name_suffix/1</text>
<text text-anchor="start" x="410" y="-79.8" font-family="Monospace" font-size="9.00"> </text>
<text text-anchor="start" x="265" y="-68.8" font-family="Monospace" font-size="9.00"> </text>
<text text-anchor="start" x="329.5" y="-69.4" font-family="Monospace" font-size="7.00">local</text>
<text text-anchor="start" x="410" y="-68.8" font-family="Monospace" font-size="9.00"> </text>
</a>
</g>
</g>
<!-- message_diagram_description/1 -->
<g id="node4" class="node">
<title>message_diagram_description/1</title>
<g id="a_node4"><a xlink:href="https://github.com/LogtalkDotOrg/logtalk3/tree/8f74caa8b343527af192c30fc01e18d864e14e52/tools/diagrams/inheritance_diagram.lgt#L83" xlink:title="https://github.com/LogtalkDotOrg/logtalk3/tree/8f74caa8b343527af192c30fc01e18d864e14e52/tools/diagrams/inheritance_diagram.lgt#L83">
<polygon fill="cornsilk" stroke="black" points="238,-95 18,-95 18,-59 238,-59 238,-95"/>
<text text-anchor="start" x="26" y="-79.8" font-family="Monospace" font-size="9.00"> </text>
<text text-anchor="start" x="32" y="-79.2" font-family="Monospace" font-size="11.00">message_diagram_description/1</text>
<text text-anchor="start" x="224" y="-79.8" font-family="Monospace" font-size="9.00"> </text>
<text text-anchor="start" x="26" y="-68.8" font-family="Monospace" font-size="9.00"> </text>
<text text-anchor="start" x="117" y="-69.4" font-family="Monospace" font-size="7.00">local</text>
<text text-anchor="start" x="224" y="-68.8" font-family="Monospace" font-size="9.00"> </text>
</a>
</g>
</g>
</g>
</svg>
