<?xml version="1.0" encoding="UTF-8" standalone="no"?>
<!DOCTYPE svg PUBLIC "-//W3C//DTD SVG 1.1//EN"
 "http://www.w3.org/Graphics/SVG/1.1/DTD/svg11.dtd">
<!-- Generated by graphviz version 2.40.1 (20161225.0304)
 -->
<!-- Title: inheritance_diagram_1_object Pages: 1 -->
<svg width="632pt" height="279pt"
 viewBox="72.00 72.00 560.00 207.43" xmlns="http://www.w3.org/2000/svg" xmlns:xlink="http://www.w3.org/1999/xlink">
<g id="graph0" class="graph" transform="scale(1 1) rotate(0) translate(76 203.4264)">
<title>inheritance_diagram_1_object</title>
<polygon fill="#ffffff" stroke="transparent" points="-4,4 -4,-131.4264 484,-131.4264 484,4 -4,4"/>
<text text-anchor="start" x="8" y="-18" font-family="Courier,monospace" font-size="10.00" fill="#8b8989">Logtalk development tools</text>
<text text-anchor="start" x="8" y="-7" font-family="Courier,monospace" font-size="10.00" fill="#8b8989">Generated on 2019/04/08, 18:41</text>
<g id="clust1" class="cluster">
<title>cluster_inheritance_diagram_1_object</title>
<g id="a_clust1"><a xlink:href="https://github.com/LogtalkDotOrg/logtalk3/tree/master/tools/diagrams/inheritance_diagram.lgt" xlink:title="https://github.com/LogtalkDotOrg/logtalk3/tree/master/tools/diagrams/inheritance_diagram.lgt">
<path fill="#fffafa" stroke="#8b8989" d="M20,-38C20,-38 460,-38 460,-38 466,-38 472,-44 472,-50 472,-50 472,-107.4264 472,-107.4264 472,-113.4264 466,-119.4264 460,-119.4264 460,-119.4264 20,-119.4264 20,-119.4264 14,-119.4264 8,-113.4264 8,-107.4264 8,-107.4264 8,-50 8,-50 8,-44 14,-38 20,-38"/>
<text text-anchor="middle" x="97.5" y="-107.4264" font-family="Courier,monospace" font-size="10.00" fill="#8b8989">inheritance_diagram(Format)</text>
</a>
</g>
</g>
<!-- default_option/1 -->
<g id="node1" class="node">
<title>default_option/1</title>
<ellipse fill="#f5f5dc" stroke="#000000" cx="367" cy="-69.2132" rx="94.5053" ry="21.4286"/>
<text text-anchor="start" x="308" y="-72.0132" font-family="Courier,monospace" font-size="9.00" fill="#000000"> </text>
<text text-anchor="start" x="314" y="-71.4132" font-family="Courier,monospace" font-size="11.00" fill="#000000">default_option/1</text>
<text text-anchor="start" x="420" y="-72.0132" font-family="Courier,monospace" font-size="9.00" fill="#000000"> </text>
<text text-anchor="start" x="308" y="-61.0132" font-family="Courier,monospace" font-size="9.00" fill="#000000"> </text>
<text text-anchor="start" x="356" y="-61.6132" font-family="Courier,monospace" font-size="7.00" fill="#000000">local</text>
<text text-anchor="start" x="420" y="-61.0132" font-family="Courier,monospace" font-size="9.00" fill="#000000"> </text>
</g>
<!-- diagram_name_suffix/1 -->
<g id="node2" class="node">
<title>diagram_name_suffix/1</title>
<ellipse fill="#f5f5dc" stroke="#000000" cx="136" cy="-69.2132" rx="118.1737" ry="21.4286"/>
<text text-anchor="start" x="61" y="-72.0132" font-family="Courier,monospace" font-size="9.00" fill="#000000"> </text>
<text text-anchor="start" x="67" y="-71.4132" font-family="Courier,monospace" font-size="11.00" fill="#000000">diagram_name_suffix/1</text>
<text text-anchor="start" x="206" y="-72.0132" font-family="Courier,monospace" font-size="9.00" fill="#000000"> </text>
<text text-anchor="start" x="61" y="-61.0132" font-family="Courier,monospace" font-size="9.00" fill="#000000"> </text>
<text text-anchor="start" x="125.5" y="-61.6132" font-family="Courier,monospace" font-size="7.00" fill="#000000">local</text>
<text text-anchor="start" x="206" y="-61.0132" font-family="Courier,monospace" font-size="9.00" fill="#000000"> </text>
</g>
</g>
</svg>
