<?xml version="1.0" encoding="UTF-8" standalone="no"?>
<?xml-stylesheet href="diagrams.css" type="text/css"?>
<!DOCTYPE svg PUBLIC "-//W3C//DTD SVG 1.1//EN"
 "http://www.w3.org/Graphics/SVG/1.1/DTD/svg11.dtd">
<!-- Generated by graphviz version 12.2.1 (20241206.2353)
 -->
<!-- Title: interpreterp_protocol Pages: 1 -->
<svg width="474pt" height="299pt"
 viewBox="72.00 72.00 402.00 227.00" xmlns="http://www.w3.org/2000/svg" xmlns:xlink="http://www.w3.org/1999/xlink">
<g id="graph0" class="graph" transform="scale(1 1) rotate(0) translate(76 223)">
<title>interpreterp_protocol</title>
<polygon fill="white" stroke="none" points="-4,4 -4,-151 326,-151 326,4 -4,4"/>
<text text-anchor="start" x="8" y="-32.75" font-family="Monospace" font-size="10.00" fill="dimgray">Logtalk third&#45;party contributions</text>
<text text-anchor="start" x="8" y="-20" font-family="Monospace" font-size="10.00" fill="dimgray">Cross&#45;referencing diagram for protocol interpreterp</text>
<text text-anchor="start" x="8" y="-7.25" font-family="Monospace" font-size="10.00" fill="dimgray">Generated on 2025&#45;02&#45;25, 22:55</text>
<g id="clust1" class="cluster">
<title>cluster_interpreterp_protocol</title>
<g id="a_clust1"><a xlink:title="interpreterp">
<path fill="snow" stroke="dimgray" d="M80,-54.25C80,-54.25 242,-54.25 242,-54.25 248,-54.25 254,-60.25 254,-66.25 254,-66.25 254,-127 254,-127 254,-133 248,-139 242,-139 242,-139 80,-139 80,-139 74,-139 68,-133 68,-127 68,-127 68,-66.25 68,-66.25 68,-60.25 74,-54.25 80,-54.25"/>
<g id="a_clust1_0"><a xlink:href="https://github.com/LogtalkDotOrg/logtalk3/tree/e555f80c897742c127585ca6b11f9bbac80dc754/contributions/verdi_neruda/interpreterp.lgt" xlink:title="https://github.com/LogtalkDotOrg/logtalk3/tree/e555f80c897742c127585ca6b11f9bbac80dc754/contributions/verdi_neruda/interpreterp.lgt">
<text text-anchor="start" x="80" y="-121.5" font-family="Monospace" font-size="10.00" fill="dimgray">interpreterp</text>
</a>
</g>
</a>
</g>
</g>
<!-- prove/2 -->
<g id="node1" class="node">
<title>prove/2</title>
<g id="a_node1"><a xlink:href="https://github.com/LogtalkDotOrg/logtalk3/tree/e555f80c897742c127585ca6b11f9bbac80dc754/contributions/verdi_neruda/interpreterp.lgt#L44" xlink:title="https://github.com/LogtalkDotOrg/logtalk3/tree/e555f80c897742c127585ca6b11f9bbac80dc754/contributions/verdi_neruda/interpreterp.lgt#L44">
<polygon fill="springgreen" stroke="black" points="151.88,-100.25 78.12,-100.25 78.12,-64.25 151.88,-64.25 151.88,-100.25"/>
<text text-anchor="start" x="86.12" y="-84.95" font-family="Monospace" font-size="9.00"> </text>
<text text-anchor="start" x="91.38" y="-84.17" font-family="Monospace" font-size="11.00">prove/2</text>
<text text-anchor="start" x="138.62" y="-84.95" font-family="Monospace" font-size="9.00"> </text>
<text text-anchor="start" x="86.12" y="-72.58" font-family="Monospace" font-size="9.00"> </text>
<text text-anchor="start" x="101.5" y="-73.35" font-family="Monospace" font-size="7.00">public</text>
<text text-anchor="start" x="138.62" y="-72.58" font-family="Monospace" font-size="9.00"> </text>
</a>
</g>
</g>
<!-- prove/3 -->
<g id="node2" class="node">
<title>prove/3</title>
<g id="a_node2"><a xlink:href="https://github.com/LogtalkDotOrg/logtalk3/tree/e555f80c897742c127585ca6b11f9bbac80dc754/contributions/verdi_neruda/interpreterp.lgt#L51" xlink:title="https://github.com/LogtalkDotOrg/logtalk3/tree/e555f80c897742c127585ca6b11f9bbac80dc754/contributions/verdi_neruda/interpreterp.lgt#L51">
<polygon fill="springgreen" stroke="black" points="243.88,-100.25 170.12,-100.25 170.12,-64.25 243.88,-64.25 243.88,-100.25"/>
<text text-anchor="start" x="178.12" y="-84.95" font-family="Monospace" font-size="9.00"> </text>
<text text-anchor="start" x="183.38" y="-84.17" font-family="Monospace" font-size="11.00">prove/3</text>
<text text-anchor="start" x="230.62" y="-84.95" font-family="Monospace" font-size="9.00"> </text>
<text text-anchor="start" x="178.12" y="-72.58" font-family="Monospace" font-size="9.00"> </text>
<text text-anchor="start" x="193.5" y="-73.35" font-family="Monospace" font-size="7.00">public</text>
<text text-anchor="start" x="230.62" y="-72.58" font-family="Monospace" font-size="9.00"> </text>
</a>
</g>
</g>
</g>
</svg>
