<?xml version="1.0" encoding="UTF-8" standalone="no"?>
<?xml-stylesheet href="diagrams.css" type="text/css"?>
<!DOCTYPE svg PUBLIC "-//W3C//DTD SVG 1.1//EN"
 "http://www.w3.org/Graphics/SVG/1.1/DTD/svg11.dtd">
<!-- Generated by graphviz version 2.50.0 (20211204.2007)
 -->
<!-- Title: interpreterp_protocol Pages: 1 -->
<svg width="475pt" height="292pt"
 viewBox="72.00 72.00 403.00 220.00" xmlns="http://www.w3.org/2000/svg" xmlns:xlink="http://www.w3.org/1999/xlink">
<g id="graph0" class="graph" transform="scale(1 1) rotate(0) translate(76 216)">
<title>interpreterp_protocol</title>
<polygon fill="white" stroke="transparent" points="-4,4 -4,-144 327,-144 327,4 -4,4"/>
<text text-anchor="start" x="8" y="-29" font-family="Monospace" font-size="10.00" fill="dimgray">Logtalk third&#45;party contributions</text>
<text text-anchor="start" x="8" y="-18" font-family="Monospace" font-size="10.00" fill="dimgray">Cross&#45;referencing diagram for protocol interpreterp</text>
<text text-anchor="start" x="8" y="-7" font-family="Monospace" font-size="10.00" fill="dimgray">Generated on 2022&#45;03&#45;06, 21:10</text>
<g id="clust1" class="cluster">
<title>cluster_interpreterp_protocol</title>
<g id="a_clust1"><a xlink:title="interpreterp">
<path fill="snow" stroke="dimgray" d="M78.5,-49C78.5,-49 244.5,-49 244.5,-49 250.5,-49 256.5,-55 256.5,-61 256.5,-61 256.5,-120 256.5,-120 256.5,-126 250.5,-132 244.5,-132 244.5,-132 78.5,-132 78.5,-132 72.5,-132 66.5,-126 66.5,-120 66.5,-120 66.5,-61 66.5,-61 66.5,-55 72.5,-49 78.5,-49"/>
<g id="a_clust1_0"><a xlink:href="https://github.com/LogtalkDotOrg/logtalk3/tree/79da40c5ff06760c1076d5e519783c0518a53628/contributions/verdi_neruda/interpreterp.lgt" xlink:title="https://github.com/LogtalkDotOrg/logtalk3/tree/79da40c5ff06760c1076d5e519783c0518a53628/contributions/verdi_neruda/interpreterp.lgt">
<text text-anchor="start" x="79" y="-115.5" font-family="Monospace" font-size="10.00" fill="dimgray">interpreterp</text>
</a>
</g>
</a>
</g>
</g>
<!-- prove/2 -->
<g id="node1" class="node">
<title>prove/2</title>
<g id="a_node1"><a xlink:href="https://github.com/LogtalkDotOrg/logtalk3/tree/79da40c5ff06760c1076d5e519783c0518a53628/contributions/verdi_neruda/interpreterp.lgt#L44" xlink:title="https://github.com/LogtalkDotOrg/logtalk3/tree/79da40c5ff06760c1076d5e519783c0518a53628/contributions/verdi_neruda/interpreterp.lgt#L44">
<polygon fill="springgreen" stroke="black" points="246.5,-95 170.5,-95 170.5,-59 246.5,-59 246.5,-95"/>
<text text-anchor="start" x="178.5" y="-79.8" font-family="Monospace" font-size="9.00"> </text>
<text text-anchor="start" x="184.5" y="-79.2" font-family="Monospace" font-size="11.00">prove/2</text>
<text text-anchor="start" x="232.5" y="-79.8" font-family="Monospace" font-size="9.00"> </text>
<text text-anchor="start" x="178.5" y="-68.8" font-family="Monospace" font-size="9.00"> </text>
<text text-anchor="start" x="194.5" y="-69.4" font-family="Monospace" font-size="7.00">public</text>
<text text-anchor="start" x="232.5" y="-68.8" font-family="Monospace" font-size="9.00"> </text>
</a>
</g>
</g>
<!-- prove/3 -->
<g id="node2" class="node">
<title>prove/3</title>
<g id="a_node2"><a xlink:href="https://github.com/LogtalkDotOrg/logtalk3/tree/79da40c5ff06760c1076d5e519783c0518a53628/contributions/verdi_neruda/interpreterp.lgt#L51" xlink:title="https://github.com/LogtalkDotOrg/logtalk3/tree/79da40c5ff06760c1076d5e519783c0518a53628/contributions/verdi_neruda/interpreterp.lgt#L51">
<polygon fill="springgreen" stroke="black" points="152.5,-95 76.5,-95 76.5,-59 152.5,-59 152.5,-95"/>
<text text-anchor="start" x="84.5" y="-79.8" font-family="Monospace" font-size="9.00"> </text>
<text text-anchor="start" x="90.5" y="-79.2" font-family="Monospace" font-size="11.00">prove/3</text>
<text text-anchor="start" x="138.5" y="-79.8" font-family="Monospace" font-size="9.00"> </text>
<text text-anchor="start" x="84.5" y="-68.8" font-family="Monospace" font-size="9.00"> </text>
<text text-anchor="start" x="100.5" y="-69.4" font-family="Monospace" font-size="7.00">public</text>
<text text-anchor="start" x="138.5" y="-68.8" font-family="Monospace" font-size="9.00"> </text>
</a>
</g>
</g>
</g>
</svg>
