<?xml version="1.0" encoding="UTF-8" standalone="no"?>
<?xml-stylesheet href="diagrams.css" type="text/css"?>
<!DOCTYPE svg PUBLIC "-//W3C//DTD SVG 1.1//EN"
 "http://www.w3.org/Graphics/SVG/1.1/DTD/svg11.dtd">
<!-- Generated by graphviz version 9.0.0 (20230911.1827)
 -->
<!-- Title: interpreterp_protocol Pages: 1 -->
<svg width="474pt" height="293pt"
 viewBox="72.00 72.00 402.00 221.00" xmlns="http://www.w3.org/2000/svg" xmlns:xlink="http://www.w3.org/1999/xlink">
<g id="graph0" class="graph" transform="scale(1 1) rotate(0) translate(76 217)">
<title>interpreterp_protocol</title>
<polygon fill="white" stroke="none" points="-4,4 -4,-145 326,-145 326,4 -4,4"/>
<text text-anchor="start" x="8" y="-28.25" font-family="Monospace" font-size="10.00" fill="dimgray">Logtalk third&#45;party contributions</text>
<text text-anchor="start" x="8" y="-17" font-family="Monospace" font-size="10.00" fill="dimgray">Cross&#45;referencing diagram for protocol interpreterp</text>
<text text-anchor="start" x="8" y="-5.75" font-family="Monospace" font-size="10.00" fill="dimgray">Generated on 2023&#45;11&#45;24, 15:16</text>
<g id="clust1" class="cluster">
<title>cluster_interpreterp_protocol</title>
<g id="a_clust1"><a xlink:title="interpreterp">
<path fill="snow" stroke="dimgray" d="M80.5,-49.75C80.5,-49.75 241.5,-49.75 241.5,-49.75 247.5,-49.75 253.5,-55.75 253.5,-61.75 253.5,-61.75 253.5,-121 253.5,-121 253.5,-127 247.5,-133 241.5,-133 241.5,-133 80.5,-133 80.5,-133 74.5,-133 68.5,-127 68.5,-121 68.5,-121 68.5,-61.75 68.5,-61.75 68.5,-55.75 74.5,-49.75 80.5,-49.75"/>
<g id="a_clust1_0"><a xlink:href="https://github.com/LogtalkDotOrg/logtalk3/tree/45aedb1717ad279c0f96e57637015c1bedb9a481/contributions/verdi_neruda/interpreterp.lgt" xlink:title="https://github.com/LogtalkDotOrg/logtalk3/tree/45aedb1717ad279c0f96e57637015c1bedb9a481/contributions/verdi_neruda/interpreterp.lgt">
<text text-anchor="start" x="80.5" y="-115.5" font-family="Monospace" font-size="10.00" fill="dimgray">interpreterp</text>
</a>
</g>
</a>
</g>
</g>
<!-- prove/2 -->
<g id="node1" class="node">
<title>prove/2</title>
<g id="a_node1"><a xlink:href="https://github.com/LogtalkDotOrg/logtalk3/tree/45aedb1717ad279c0f96e57637015c1bedb9a481/contributions/verdi_neruda/interpreterp.lgt#L44" xlink:title="https://github.com/LogtalkDotOrg/logtalk3/tree/45aedb1717ad279c0f96e57637015c1bedb9a481/contributions/verdi_neruda/interpreterp.lgt#L44">
<polygon fill="springgreen" stroke="black" points="243,-95.75 170,-95.75 170,-59.75 243,-59.75 243,-95.75"/>
<text text-anchor="start" x="177.88" y="-78.58" font-family="Monospace" font-size="9.00"> </text>
<text text-anchor="start" x="182.88" y="-77.8" font-family="Monospace" font-size="11.00">prove/2</text>
<text text-anchor="start" x="229.88" y="-78.58" font-family="Monospace" font-size="9.00"> </text>
<text text-anchor="start" x="177.88" y="-67.7" font-family="Monospace" font-size="9.00"> </text>
<text text-anchor="start" x="193" y="-69.22" font-family="Monospace" font-size="7.00">public</text>
<text text-anchor="start" x="229.88" y="-67.7" font-family="Monospace" font-size="9.00"> </text>
</a>
</g>
</g>
<!-- prove/3 -->
<g id="node2" class="node">
<title>prove/3</title>
<g id="a_node2"><a xlink:href="https://github.com/LogtalkDotOrg/logtalk3/tree/45aedb1717ad279c0f96e57637015c1bedb9a481/contributions/verdi_neruda/interpreterp.lgt#L51" xlink:title="https://github.com/LogtalkDotOrg/logtalk3/tree/45aedb1717ad279c0f96e57637015c1bedb9a481/contributions/verdi_neruda/interpreterp.lgt#L51">
<polygon fill="springgreen" stroke="black" points="152,-95.75 79,-95.75 79,-59.75 152,-59.75 152,-95.75"/>
<text text-anchor="start" x="86.88" y="-78.58" font-family="Monospace" font-size="9.00"> </text>
<text text-anchor="start" x="91.88" y="-77.8" font-family="Monospace" font-size="11.00">prove/3</text>
<text text-anchor="start" x="138.88" y="-78.58" font-family="Monospace" font-size="9.00"> </text>
<text text-anchor="start" x="86.88" y="-67.7" font-family="Monospace" font-size="9.00"> </text>
<text text-anchor="start" x="102" y="-69.22" font-family="Monospace" font-size="7.00">public</text>
<text text-anchor="start" x="138.88" y="-67.7" font-family="Monospace" font-size="9.00"> </text>
</a>
</g>
</g>
</g>
</svg>
