<?xml version="1.0" encoding="UTF-8" standalone="no"?>
<?xml-stylesheet href="diagrams.css" type="text/css"?>
<!DOCTYPE svg PUBLIC "-//W3C//DTD SVG 1.1//EN"
 "http://www.w3.org/Graphics/SVG/1.1/DTD/svg11.dtd">
<!-- Generated by graphviz version 2.43.20191029.1313 (20191029.1313)
 -->
<!-- Title: interpreterp_protocol Pages: 1 -->
<svg width="474pt" height="288pt"
 viewBox="72.00 72.00 402.05 216.00" xmlns="http://www.w3.org/2000/svg" xmlns:xlink="http://www.w3.org/1999/xlink">
<g id="graph0" class="graph" transform="scale(1 1) rotate(0) translate(76 212)">
<title>interpreterp_protocol</title>
<polygon fill="white" stroke="transparent" points="-4,4 -4,-140 326.05,-140 326.05,4 -4,4"/>
<text text-anchor="start" x="8" y="-26" font-family="Courier,monospace" font-size="10.00" fill="dimgray">Logtalk third&#45;party contributions</text>
<text text-anchor="start" x="8" y="-16" font-family="Courier,monospace" font-size="10.00" fill="dimgray">Cross&#45;referencing diagram for protocol interpreterp</text>
<text text-anchor="start" x="8" y="-6" font-family="Courier,monospace" font-size="10.00" fill="dimgray">Generated on 2020&#45;05&#45;25, 21:55</text>
<g id="clust1" class="cluster">
<title>cluster_interpreterp_protocol</title>
<g id="a_clust1"><a xlink:title="interpreterp">
<path fill="snow" stroke="dimgray" d="M82.02,-46C82.02,-46 240.02,-46 240.02,-46 246.02,-46 252.02,-52 252.02,-58 252.02,-58 252.02,-116 252.02,-116 252.02,-122 246.02,-128 240.02,-128 240.02,-128 82.02,-128 82.02,-128 76.02,-128 70.02,-122 70.02,-116 70.02,-116 70.02,-58 70.02,-58 70.02,-52 76.02,-46 82.02,-46"/>
<g id="a_clust1_0"><a xlink:href="https://github.com/LogtalkDotOrg/logtalk3/tree/ee3e469ba16664bcc8b3b120a4a0bb7672d96db2/contributions/verdi_neruda/interpreterp.lgt" xlink:title="https://github.com/LogtalkDotOrg/logtalk3/tree/ee3e469ba16664bcc8b3b120a4a0bb7672d96db2/contributions/verdi_neruda/interpreterp.lgt">
<text text-anchor="start" x="82.02" y="-112" font-family="Courier,monospace" font-size="10.00" fill="dimgray">interpreterp</text>
</a>
</g>
</a>
</g>
</g>
<!-- prove/2 -->
<g id="node1" class="node">
<title>prove/2</title>
<g id="a_node1"><a xlink:href="https://github.com/LogtalkDotOrg/logtalk3/tree/ee3e469ba16664bcc8b3b120a4a0bb7672d96db2/contributions/verdi_neruda/interpreterp.lgt#L11" xlink:title="https://github.com/LogtalkDotOrg/logtalk3/tree/ee3e469ba16664bcc8b3b120a4a0bb7672d96db2/contributions/verdi_neruda/interpreterp.lgt#L11">
<polygon fill="springgreen" stroke="black" points="242.02,-92 170.02,-92 170.02,-56 242.02,-56 242.02,-92"/>
<text text-anchor="start" x="177.82" y="-75.8" font-family="Courier,monospace" font-size="9.00"> </text>
<text text-anchor="start" x="182.92" y="-75.2" font-family="Courier,monospace" font-size="11.00">prove/2</text>
<text text-anchor="start" x="228.82" y="-75.8" font-family="Courier,monospace" font-size="9.00"> </text>
<text text-anchor="start" x="177.82" y="-65.8" font-family="Courier,monospace" font-size="9.00"> </text>
<text text-anchor="start" x="193.42" y="-66.4" font-family="Courier,monospace" font-size="7.00">public</text>
<text text-anchor="start" x="228.82" y="-65.8" font-family="Courier,monospace" font-size="9.00"> </text>
</a>
</g>
</g>
<!-- prove/3 -->
<g id="node2" class="node">
<title>prove/3</title>
<g id="a_node2"><a xlink:href="https://github.com/LogtalkDotOrg/logtalk3/tree/ee3e469ba16664bcc8b3b120a4a0bb7672d96db2/contributions/verdi_neruda/interpreterp.lgt#L18" xlink:title="https://github.com/LogtalkDotOrg/logtalk3/tree/ee3e469ba16664bcc8b3b120a4a0bb7672d96db2/contributions/verdi_neruda/interpreterp.lgt#L18">
<polygon fill="springgreen" stroke="black" points="152.02,-92 80.02,-92 80.02,-56 152.02,-56 152.02,-92"/>
<text text-anchor="start" x="87.82" y="-75.8" font-family="Courier,monospace" font-size="9.00"> </text>
<text text-anchor="start" x="92.92" y="-75.2" font-family="Courier,monospace" font-size="11.00">prove/3</text>
<text text-anchor="start" x="138.82" y="-75.8" font-family="Courier,monospace" font-size="9.00"> </text>
<text text-anchor="start" x="87.82" y="-65.8" font-family="Courier,monospace" font-size="9.00"> </text>
<text text-anchor="start" x="103.42" y="-66.4" font-family="Courier,monospace" font-size="7.00">public</text>
<text text-anchor="start" x="138.82" y="-65.8" font-family="Courier,monospace" font-size="9.00"> </text>
</a>
</g>
</g>
</g>
</svg>
