<?xml version="1.0" encoding="UTF-8" standalone="no"?>
<?xml-stylesheet href="diagrams.css" type="text/css"?>
<!DOCTYPE svg PUBLIC "-//W3C//DTD SVG 1.1//EN"
 "http://www.w3.org/Graphics/SVG/1.1/DTD/svg11.dtd">
<!-- Generated by graphviz version 2.49.3 (20211023.0002)
 -->
<!-- Title: interpreterp_protocol Pages: 1 -->
<svg width="423pt" height="292pt"
 viewBox="72.00 72.00 351.00 220.00" xmlns="http://www.w3.org/2000/svg" xmlns:xlink="http://www.w3.org/1999/xlink">
<g id="graph0" class="graph" transform="scale(1 1) rotate(0) translate(76 216)">
<title>interpreterp_protocol</title>
<polygon fill="white" stroke="transparent" points="-4,4 -4,-144 275,-144 275,4 -4,4"/>
<text text-anchor="start" x="8" y="-29" font-family="Courier,monospace" font-size="10.00" fill="dimgray">Logtalk third&#45;party contributions</text>
<text text-anchor="start" x="8" y="-18" font-family="Courier,monospace" font-size="10.00" fill="dimgray">Cross&#45;referencing diagram for protocol interpreterp</text>
<text text-anchor="start" x="8" y="-7" font-family="Courier,monospace" font-size="10.00" fill="dimgray">Generated on 2021&#45;11&#45;18, 19:47</text>
<g id="clust1" class="cluster">
<title>cluster_interpreterp_protocol</title>
<g id="a_clust1"><a xlink:title="interpreterp">
<path fill="snow" stroke="dimgray" d="M63,-49C63,-49 208,-49 208,-49 214,-49 220,-55 220,-61 220,-61 220,-120 220,-120 220,-126 214,-132 208,-132 208,-132 63,-132 63,-132 57,-132 51,-126 51,-120 51,-120 51,-61 51,-61 51,-55 57,-49 63,-49"/>
<g id="a_clust1_0"><a xlink:href="https://github.com/LogtalkDotOrg/logtalk3/tree/00ea0ef7ab8123e2100dcb8b4438acc57114cd01/contributions/verdi_neruda/interpreterp.lgt" xlink:title="https://github.com/LogtalkDotOrg/logtalk3/tree/00ea0ef7ab8123e2100dcb8b4438acc57114cd01/contributions/verdi_neruda/interpreterp.lgt">
<text text-anchor="start" x="63" y="-115.5" font-family="Courier,monospace" font-size="10.00" fill="dimgray">interpreterp</text>
</a>
</g>
</a>
</g>
</g>
<!-- prove/2 -->
<g id="node1" class="node">
<title>prove/2</title>
<g id="a_node1"><a xlink:href="https://github.com/LogtalkDotOrg/logtalk3/tree/00ea0ef7ab8123e2100dcb8b4438acc57114cd01/contributions/verdi_neruda/interpreterp.lgt#L44" xlink:title="https://github.com/LogtalkDotOrg/logtalk3/tree/00ea0ef7ab8123e2100dcb8b4438acc57114cd01/contributions/verdi_neruda/interpreterp.lgt#L44">
<polygon fill="springgreen" stroke="black" points="209.5,-95 144.5,-95 144.5,-59 209.5,-59 209.5,-95"/>
<text text-anchor="start" x="153" y="-79.8" font-family="Courier,monospace" font-size="9.00"> </text>
<text text-anchor="start" x="158" y="-79.2" font-family="Courier,monospace" font-size="11.00">prove/2</text>
<text text-anchor="start" x="197" y="-79.8" font-family="Courier,monospace" font-size="9.00"> </text>
<text text-anchor="start" x="153" y="-68.8" font-family="Courier,monospace" font-size="9.00"> </text>
<text text-anchor="start" x="167" y="-69.4" font-family="Courier,monospace" font-size="7.00">public</text>
<text text-anchor="start" x="197" y="-68.8" font-family="Courier,monospace" font-size="9.00"> </text>
</a>
</g>
</g>
<!-- prove/3 -->
<g id="node2" class="node">
<title>prove/3</title>
<g id="a_node2"><a xlink:href="https://github.com/LogtalkDotOrg/logtalk3/tree/00ea0ef7ab8123e2100dcb8b4438acc57114cd01/contributions/verdi_neruda/interpreterp.lgt#L51" xlink:title="https://github.com/LogtalkDotOrg/logtalk3/tree/00ea0ef7ab8123e2100dcb8b4438acc57114cd01/contributions/verdi_neruda/interpreterp.lgt#L51">
<polygon fill="springgreen" stroke="black" points="126.5,-95 61.5,-95 61.5,-59 126.5,-59 126.5,-95"/>
<text text-anchor="start" x="70" y="-79.8" font-family="Courier,monospace" font-size="9.00"> </text>
<text text-anchor="start" x="75" y="-79.2" font-family="Courier,monospace" font-size="11.00">prove/3</text>
<text text-anchor="start" x="114" y="-79.8" font-family="Courier,monospace" font-size="9.00"> </text>
<text text-anchor="start" x="70" y="-68.8" font-family="Courier,monospace" font-size="9.00"> </text>
<text text-anchor="start" x="84" y="-69.4" font-family="Courier,monospace" font-size="7.00">public</text>
<text text-anchor="start" x="114" y="-68.8" font-family="Courier,monospace" font-size="9.00"> </text>
</a>
</g>
</g>
</g>
</svg>
