<?xml version="1.0" encoding="UTF-8" standalone="no"?>
<?xml-stylesheet href="diagrams.css" type="text/css"?>
<!DOCTYPE svg PUBLIC "-//W3C//DTD SVG 1.1//EN"
 "http://www.w3.org/Graphics/SVG/1.1/DTD/svg11.dtd">
<!-- Generated by graphviz version 2.49.3 (20211023.0002)
 -->
<!-- Title: java_hook_object Pages: 1 -->
<svg width="445pt" height="292pt"
 viewBox="72.00 72.00 373.00 220.00" xmlns="http://www.w3.org/2000/svg" xmlns:xlink="http://www.w3.org/1999/xlink">
<g id="graph0" class="graph" transform="scale(1 1) rotate(0) translate(76 216)">
<title>java_hook_object</title>
<polygon fill="white" stroke="transparent" points="-4,4 -4,-144 297,-144 297,4 -4,4"/>
<text text-anchor="start" x="8" y="-29" font-family="Monospace" font-size="10.00" fill="dimgray">Logtalk library</text>
<text text-anchor="start" x="8" y="-18" font-family="Monospace" font-size="10.00" fill="dimgray">Cross&#45;referencing diagram for object java_hook</text>
<text text-anchor="start" x="8" y="-7" font-family="Monospace" font-size="10.00" fill="dimgray">Generated on 2021&#45;12&#45;24, 11:44</text>
<g id="clust1" class="cluster">
<title>cluster_java_hook_object</title>
<g id="a_clust1"><a xlink:title="java_hook">
<path fill="snow" stroke="dimgray" d="M81.5,-49C81.5,-49 211.5,-49 211.5,-49 217.5,-49 223.5,-55 223.5,-61 223.5,-61 223.5,-120 223.5,-120 223.5,-126 217.5,-132 211.5,-132 211.5,-132 81.5,-132 81.5,-132 75.5,-132 69.5,-126 69.5,-120 69.5,-120 69.5,-61 69.5,-61 69.5,-55 75.5,-49 81.5,-49"/>
<g id="a_clust1_0"><a xlink:href="https://github.com/LogtalkDotOrg/logtalk3/tree/a905fb179161cf6e56e04fd87117c435e4edfe07/library/java/java_jpl.lgt" xlink:title="https://github.com/LogtalkDotOrg/logtalk3/tree/a905fb179161cf6e56e04fd87117c435e4edfe07/library/java/java_jpl.lgt">
<text text-anchor="start" x="82" y="-115.5" font-family="Monospace" font-size="10.00" fill="dimgray">java_hook</text>
</a>
</g>
</a>
</g>
</g>
<!-- goal_expansion/2 -->
<g id="node1" class="node">
<title>goal_expansion/2</title>
<g id="a_node1"><a xlink:href="https://github.com/LogtalkDotOrg/logtalk3/tree/a905fb179161cf6e56e04fd87117c435e4edfe07/library/java/java_jpl.lgt#L226" xlink:title="https://github.com/LogtalkDotOrg/logtalk3/tree/a905fb179161cf6e56e04fd87117c435e4edfe07/library/java/java_jpl.lgt#L226">
<polygon fill="cornsilk" stroke="black" points="213.5,-95 79.5,-95 79.5,-59 213.5,-59 213.5,-95"/>
<text text-anchor="start" x="87.5" y="-79.8" font-family="Monospace" font-size="9.00"> </text>
<text text-anchor="start" x="93.5" y="-79.2" font-family="Monospace" font-size="11.00">goal_expansion/2</text>
<text text-anchor="start" x="199.5" y="-79.8" font-family="Monospace" font-size="9.00"> </text>
<text text-anchor="start" x="87.5" y="-68.8" font-family="Monospace" font-size="9.00"> </text>
<text text-anchor="start" x="135.5" y="-69.4" font-family="Monospace" font-size="7.00">local</text>
<text text-anchor="start" x="199.5" y="-68.8" font-family="Monospace" font-size="9.00"> </text>
</a>
</g>
</g>
</g>
</svg>
