<?xml version="1.0" encoding="UTF-8" standalone="no"?>
<?xml-stylesheet href="diagrams.css" type="text/css"?>
<!DOCTYPE svg PUBLIC "-//W3C//DTD SVG 1.1//EN"
 "http://www.w3.org/Graphics/SVG/1.1/DTD/svg11.dtd">
<!-- Generated by graphviz version 2.50.0 (20211204.2007)
 -->
<!-- Title: java_hook_object Pages: 1 -->
<svg width="445pt" height="292pt"
 viewBox="72.00 72.00 373.00 220.00" xmlns="http://www.w3.org/2000/svg" xmlns:xlink="http://www.w3.org/1999/xlink">
<g id="graph0" class="graph" transform="scale(1 1) rotate(0) translate(76 216)">
<title>java_hook_object</title>
<polygon fill="white" stroke="transparent" points="-4,4 -4,-144 297,-144 297,4 -4,4"/>
<text text-anchor="start" x="8" y="-29" font-family="Monospace" font-size="10.00" fill="dimgray">Logtalk library</text>
<text text-anchor="start" x="8" y="-18" font-family="Monospace" font-size="10.00" fill="dimgray">Cross&#45;referencing diagram for object java_hook</text>
<text text-anchor="start" x="8" y="-7" font-family="Monospace" font-size="10.00" fill="dimgray">Generated on 2022&#45;06&#45;21, 11:08</text>
<g id="clust1" class="cluster">
<title>cluster_java_hook_object</title>
<g id="a_clust1"><a xlink:title="java_hook">
<path fill="snow" stroke="dimgray" d="M79.5,-49C79.5,-49 213.5,-49 213.5,-49 219.5,-49 225.5,-55 225.5,-61 225.5,-61 225.5,-120 225.5,-120 225.5,-126 219.5,-132 213.5,-132 213.5,-132 79.5,-132 79.5,-132 73.5,-132 67.5,-126 67.5,-120 67.5,-120 67.5,-61 67.5,-61 67.5,-55 73.5,-49 79.5,-49"/>
<g id="a_clust1_0"><a xlink:href="https://github.com/LogtalkDotOrg/logtalk3/tree/42efa10506e2c90947f071fa0ba631ea4d6f730a/library/java/java_jpl.lgt" xlink:title="https://github.com/LogtalkDotOrg/logtalk3/tree/42efa10506e2c90947f071fa0ba631ea4d6f730a/library/java/java_jpl.lgt">
<text text-anchor="start" x="80" y="-115.5" font-family="Monospace" font-size="10.00" fill="dimgray">java_hook</text>
</a>
</g>
</a>
</g>
</g>
<!-- goal_expansion/2 -->
<g id="node1" class="node">
<title>goal_expansion/2</title>
<g id="a_node1"><a xlink:href="https://github.com/LogtalkDotOrg/logtalk3/tree/42efa10506e2c90947f071fa0ba631ea4d6f730a/library/java/java_jpl.lgt#L226" xlink:title="https://github.com/LogtalkDotOrg/logtalk3/tree/42efa10506e2c90947f071fa0ba631ea4d6f730a/library/java/java_jpl.lgt#L226">
<polygon fill="cornsilk" stroke="black" points="215,-95 78,-95 78,-59 215,-59 215,-95"/>
<text text-anchor="start" x="86.5" y="-79.8" font-family="Monospace" font-size="9.00"> </text>
<text text-anchor="start" x="92.5" y="-79.2" font-family="Monospace" font-size="11.00">goal_expansion/2</text>
<text text-anchor="start" x="201.5" y="-79.8" font-family="Monospace" font-size="9.00"> </text>
<text text-anchor="start" x="86.5" y="-68.8" font-family="Monospace" font-size="9.00"> </text>
<text text-anchor="start" x="135.5" y="-69.4" font-family="Monospace" font-size="7.00">local</text>
<text text-anchor="start" x="201.5" y="-68.8" font-family="Monospace" font-size="9.00"> </text>
</a>
</g>
</g>
</g>
</svg>
