<?xml version="1.0" encoding="UTF-8" standalone="no"?>
<?xml-stylesheet href="diagrams.css" type="text/css"?>
<!DOCTYPE svg PUBLIC "-//W3C//DTD SVG 1.1//EN"
 "http://www.w3.org/Graphics/SVG/1.1/DTD/svg11.dtd">
<!-- Generated by graphviz version 9.0.0 (20230911.1827)
 -->
<!-- Title: java_hook_object Pages: 1 -->
<svg width="444pt" height="293pt"
 viewBox="72.00 72.00 372.00 221.00" xmlns="http://www.w3.org/2000/svg" xmlns:xlink="http://www.w3.org/1999/xlink">
<g id="graph0" class="graph" transform="scale(1 1) rotate(0) translate(76 217)">
<title>java_hook_object</title>
<polygon fill="white" stroke="none" points="-4,4 -4,-145 296,-145 296,4 -4,4"/>
<text text-anchor="start" x="8" y="-28.25" font-family="Monospace" font-size="10.00" fill="dimgray">Logtalk library</text>
<text text-anchor="start" x="8" y="-17" font-family="Monospace" font-size="10.00" fill="dimgray">Cross&#45;referencing diagram for object java_hook</text>
<text text-anchor="start" x="8" y="-5.75" font-family="Monospace" font-size="10.00" fill="dimgray">Generated on 2023&#45;10&#45;09, 12:50</text>
<g id="clust1" class="cluster">
<title>cluster_java_hook_object</title>
<g id="a_clust1"><a xlink:title="java_hook">
<path fill="snow" stroke="dimgray" d="M81,-49.75C81,-49.75 211,-49.75 211,-49.75 217,-49.75 223,-55.75 223,-61.75 223,-61.75 223,-121 223,-121 223,-127 217,-133 211,-133 211,-133 81,-133 81,-133 75,-133 69,-127 69,-121 69,-121 69,-61.75 69,-61.75 69,-55.75 75,-49.75 81,-49.75"/>
<g id="a_clust1_0"><a xlink:href="https://github.com/LogtalkDotOrg/logtalk3/tree/3c4f747f8d9e43c701bd84271596cc2b326810ed/library/java/java_jpl.lgt" xlink:title="https://github.com/LogtalkDotOrg/logtalk3/tree/3c4f747f8d9e43c701bd84271596cc2b326810ed/library/java/java_jpl.lgt">
<text text-anchor="start" x="81" y="-115.5" font-family="Monospace" font-size="10.00" fill="dimgray">java_hook</text>
</a>
</g>
</a>
</g>
</g>
<!-- goal_expansion/2 -->
<g id="node1" class="node">
<title>goal_expansion/2</title>
<g id="a_node1"><a xlink:href="https://github.com/LogtalkDotOrg/logtalk3/tree/3c4f747f8d9e43c701bd84271596cc2b326810ed/library/java/java_jpl.lgt#L265" xlink:title="https://github.com/LogtalkDotOrg/logtalk3/tree/3c4f747f8d9e43c701bd84271596cc2b326810ed/library/java/java_jpl.lgt#L265">
<polygon fill="cornsilk" stroke="black" points="213,-95.75 79,-95.75 79,-59.75 213,-59.75 213,-95.75"/>
<text text-anchor="start" x="86.88" y="-78.58" font-family="Monospace" font-size="9.00"> </text>
<text text-anchor="start" x="92" y="-77.8" font-family="Monospace" font-size="11.00">goal_expansion/2</text>
<text text-anchor="start" x="199.88" y="-78.58" font-family="Monospace" font-size="9.00"> </text>
<text text-anchor="start" x="86.88" y="-67.7" font-family="Monospace" font-size="9.00"> </text>
<text text-anchor="start" x="134.75" y="-69.22" font-family="Monospace" font-size="7.00">local</text>
<text text-anchor="start" x="199.88" y="-67.7" font-family="Monospace" font-size="9.00"> </text>
</a>
</g>
</g>
</g>
</svg>
