<?xml version="1.0" encoding="UTF-8" standalone="no"?>
<!DOCTYPE svg PUBLIC "-//W3C//DTD SVG 1.1//EN"
 "http://www.w3.org/Graphics/SVG/1.1/DTD/svg11.dtd">
<!-- Generated by graphviz version 2.40.1 (20161225.0304)
 -->
<!-- Title: java_hook_object Pages: 1 -->
<svg width="445pt" height="298pt"
 viewBox="72.00 72.00 373.00 226.43" xmlns="http://www.w3.org/2000/svg" xmlns:xlink="http://www.w3.org/1999/xlink">
<g id="graph0" class="graph" transform="scale(1 1) rotate(0) translate(76 222.4264)">
<title>java_hook_object</title>
<polygon fill="#ffffff" stroke="transparent" points="-4,4 -4,-150.4264 297,-150.4264 297,4 -4,4"/>
<text text-anchor="start" x="8" y="-29" font-family="Courier,monospace" font-size="10.00" fill="#8b8989">Logtalk library</text>
<text text-anchor="start" x="8" y="-18" font-family="Courier,monospace" font-size="10.00" fill="#8b8989">Cross&#45;referencing diagram for object java_hook</text>
<text text-anchor="start" x="8" y="-7" font-family="Courier,monospace" font-size="10.00" fill="#8b8989">Generated on 2019/04/24, 19:03</text>
<g id="clust1" class="cluster">
<title>cluster_java_hook_object</title>
<g id="a_clust1"><a xlink:title="java_hook">
<path fill="#fffafa" stroke="#8b8989" d="M53.5,-49C53.5,-49 239.5,-49 239.5,-49 245.5,-49 251.5,-55 251.5,-61 251.5,-61 251.5,-126.4264 251.5,-126.4264 251.5,-132.4264 245.5,-138.4264 239.5,-138.4264 239.5,-138.4264 53.5,-138.4264 53.5,-138.4264 47.5,-138.4264 41.5,-132.4264 41.5,-126.4264 41.5,-126.4264 41.5,-61 41.5,-61 41.5,-55 47.5,-49 53.5,-49"/>
<g id="a_clust1_0"><a xlink:href="https://github.com/LogtalkDotOrg/logtalk3/tree/master/library/java_jpl.lgt" xlink:title="https://github.com/LogtalkDotOrg/logtalk3/tree/master/library/java_jpl.lgt">
<text text-anchor="start" x="54" y="-121.9264" font-family="Courier,monospace" font-size="10.00" fill="#8b8989">java_hook</text>
</a>
</g>
</a>
</g>
</g>
<!-- goal_expansion/2 -->
<g id="node1" class="node">
<title>goal_expansion/2</title>
<g id="a_node1"><a xlink:href="https://github.com/LogtalkDotOrg/logtalk3/tree/master/library/java_jpl.lgt#L204" xlink:title="https://github.com/LogtalkDotOrg/logtalk3/tree/master/library/java_jpl.lgt#L204">
<ellipse fill="#fff8dc" stroke="#000000" cx="146.5" cy="-80.2132" rx="94.5053" ry="21.4286"/>
<text text-anchor="start" x="87.5" y="-83.0132" font-family="Courier,monospace" font-size="9.00" fill="#000000"> </text>
<text text-anchor="start" x="93.5" y="-82.4132" font-family="Courier,monospace" font-size="11.00" fill="#000000">goal_expansion/2</text>
<text text-anchor="start" x="199.5" y="-83.0132" font-family="Courier,monospace" font-size="9.00" fill="#000000"> </text>
<text text-anchor="start" x="87.5" y="-72.0132" font-family="Courier,monospace" font-size="9.00" fill="#000000"> </text>
<text text-anchor="start" x="135.5" y="-72.6132" font-family="Courier,monospace" font-size="7.00" fill="#000000">local</text>
<text text-anchor="start" x="199.5" y="-72.0132" font-family="Courier,monospace" font-size="9.00" fill="#000000"> </text>
</a>
</g>
</g>
</g>
</svg>
