<?xml version="1.0" encoding="UTF-8" standalone="no"?>
<!DOCTYPE svg PUBLIC "-//W3C//DTD SVG 1.1//EN"
 "http://www.w3.org/Graphics/SVG/1.1/DTD/svg11.dtd">
<!-- Generated by graphviz version 2.40.1 (20161225.0304)
 -->
<!-- Title: java_hook_object Pages: 1 -->
<svg width="378pt" height="290pt"
 viewBox="72.00 72.00 306.00 218.43" xmlns="http://www.w3.org/2000/svg" xmlns:xlink="http://www.w3.org/1999/xlink">
<g id="graph0" class="graph" transform="scale(1 1) rotate(0) translate(76 214.4264)">
<title>java_hook_object</title>
<polygon fill="#ffffff" stroke="transparent" points="-4,4 -4,-142.4264 230,-142.4264 230,4 -4,4"/>
<text text-anchor="start" x="8" y="-29" font-family="Courier,monospace" font-size="10.00" fill="#8b8989">Logtalk library</text>
<text text-anchor="start" x="8" y="-18" font-family="Courier,monospace" font-size="10.00" fill="#8b8989">Cross&#45;referencing diagram</text>
<text text-anchor="start" x="8" y="-7" font-family="Courier,monospace" font-size="10.00" fill="#8b8989">Generated on 2019/04/21, 01:15</text>
<g id="clust1" class="cluster">
<title>cluster_java_hook_object</title>
<g id="a_clust1"><a xlink:href="https://github.com/LogtalkDotOrg/logtalk3/tree/master/library/java_jpl.lgt" xlink:title="https://github.com/LogtalkDotOrg/logtalk3/tree/master/library/java_jpl.lgt">
<path fill="#fffafa" stroke="#8b8989" d="M20,-49C20,-49 206,-49 206,-49 212,-49 218,-55 218,-61 218,-61 218,-118.4264 218,-118.4264 218,-124.4264 212,-130.4264 206,-130.4264 206,-130.4264 20,-130.4264 20,-130.4264 14,-130.4264 8,-124.4264 8,-118.4264 8,-118.4264 8,-61 8,-61 8,-55 14,-49 20,-49"/>
<text text-anchor="middle" x="43.5" y="-118.4264" font-family="Courier,monospace" font-size="10.00" fill="#8b8989">java_hook</text>
</a>
</g>
</g>
<!-- goal_expansion/2 -->
<g id="node1" class="node">
<title>goal_expansion/2</title>
<g id="a_node1"><a xlink:href="https://github.com/LogtalkDotOrg/logtalk3/tree/master/library/java_jpl.lgt#L204" xlink:title="https://github.com/LogtalkDotOrg/logtalk3/tree/master/library/java_jpl.lgt#L204">
<ellipse fill="#f5f5dc" stroke="#000000" cx="113" cy="-80.2132" rx="94.5053" ry="21.4286"/>
<text text-anchor="start" x="54" y="-83.0132" font-family="Courier,monospace" font-size="9.00" fill="#000000"> </text>
<text text-anchor="start" x="60" y="-82.4132" font-family="Courier,monospace" font-size="11.00" fill="#000000">goal_expansion/2</text>
<text text-anchor="start" x="166" y="-83.0132" font-family="Courier,monospace" font-size="9.00" fill="#000000"> </text>
<text text-anchor="start" x="54" y="-72.0132" font-family="Courier,monospace" font-size="9.00" fill="#000000"> </text>
<text text-anchor="start" x="102" y="-72.6132" font-family="Courier,monospace" font-size="7.00" fill="#000000">local</text>
<text text-anchor="start" x="166" y="-72.0132" font-family="Courier,monospace" font-size="9.00" fill="#000000"> </text>
</a>
</g>
</g>
</g>
</svg>
