<?xml version="1.0" encoding="UTF-8" standalone="no"?>
<?xml-stylesheet href="diagrams.css" type="text/css"?>
<!DOCTYPE svg PUBLIC "-//W3C//DTD SVG 1.1//EN"
 "http://www.w3.org/Graphics/SVG/1.1/DTD/svg11.dtd">
<!-- Generated by graphviz version 2.49.3 (20211023.0002)
 -->
<!-- Title: java_hook_object Pages: 1 -->
<svg width="398pt" height="292pt"
 viewBox="72.00 72.00 326.00 220.00" xmlns="http://www.w3.org/2000/svg" xmlns:xlink="http://www.w3.org/1999/xlink">
<g id="graph0" class="graph" transform="scale(1 1) rotate(0) translate(76 216)">
<title>java_hook_object</title>
<polygon fill="white" stroke="transparent" points="-4,4 -4,-144 250,-144 250,4 -4,4"/>
<text text-anchor="start" x="8" y="-29" font-family="Courier,monospace" font-size="10.00" fill="dimgray">Logtalk library</text>
<text text-anchor="start" x="8" y="-18" font-family="Courier,monospace" font-size="10.00" fill="dimgray">Cross&#45;referencing diagram for object java_hook</text>
<text text-anchor="start" x="8" y="-7" font-family="Courier,monospace" font-size="10.00" fill="dimgray">Generated on 2021&#45;11&#45;18, 19:47</text>
<g id="clust1" class="cluster">
<title>cluster_java_hook_object</title>
<g id="a_clust1"><a xlink:title="java_hook">
<path fill="snow" stroke="dimgray" d="M68,-49C68,-49 178,-49 178,-49 184,-49 190,-55 190,-61 190,-61 190,-120 190,-120 190,-126 184,-132 178,-132 178,-132 68,-132 68,-132 62,-132 56,-126 56,-120 56,-120 56,-61 56,-61 56,-55 62,-49 68,-49"/>
<g id="a_clust1_0"><a xlink:href="https://github.com/LogtalkDotOrg/logtalk3/tree/00ea0ef7ab8123e2100dcb8b4438acc57114cd01/library/java/java_jpl.lgt" xlink:title="https://github.com/LogtalkDotOrg/logtalk3/tree/00ea0ef7ab8123e2100dcb8b4438acc57114cd01/library/java/java_jpl.lgt">
<text text-anchor="start" x="68.5" y="-115.5" font-family="Courier,monospace" font-size="10.00" fill="dimgray">java_hook</text>
</a>
</g>
</a>
</g>
</g>
<!-- goal_expansion/2 -->
<g id="node1" class="node">
<title>goal_expansion/2</title>
<g id="a_node1"><a xlink:href="https://github.com/LogtalkDotOrg/logtalk3/tree/00ea0ef7ab8123e2100dcb8b4438acc57114cd01/library/java/java_jpl.lgt#L226" xlink:title="https://github.com/LogtalkDotOrg/logtalk3/tree/00ea0ef7ab8123e2100dcb8b4438acc57114cd01/library/java/java_jpl.lgt#L226">
<polygon fill="cornsilk" stroke="black" points="180,-95 66,-95 66,-59 180,-59 180,-95"/>
<text text-anchor="start" x="74" y="-79.8" font-family="Courier,monospace" font-size="9.00"> </text>
<text text-anchor="start" x="79" y="-79.2" font-family="Courier,monospace" font-size="11.00">goal_expansion/2</text>
<text text-anchor="start" x="167" y="-79.8" font-family="Courier,monospace" font-size="9.00"> </text>
<text text-anchor="start" x="74" y="-68.8" font-family="Courier,monospace" font-size="9.00"> </text>
<text text-anchor="start" x="114" y="-69.4" font-family="Courier,monospace" font-size="7.00">local</text>
<text text-anchor="start" x="167" y="-68.8" font-family="Courier,monospace" font-size="9.00"> </text>
</a>
</g>
</g>
</g>
</svg>
