<?xml version="1.0" encoding="UTF-8" standalone="no"?>
<?xml-stylesheet href="diagrams.css" type="text/css"?>
<!DOCTYPE svg PUBLIC "-//W3C//DTD SVG 1.1//EN"
 "http://www.w3.org/Graphics/SVG/1.1/DTD/svg11.dtd">
<!-- Generated by graphviz version 2.43.20191029.1313 (20191029.1313)
 -->
<!-- Title: java_hook_object Pages: 1 -->
<svg width="444pt" height="288pt"
 viewBox="72.00 72.00 372.04 216.00" xmlns="http://www.w3.org/2000/svg" xmlns:xlink="http://www.w3.org/1999/xlink">
<g id="graph0" class="graph" transform="scale(1 1) rotate(0) translate(76 212)">
<title>java_hook_object</title>
<polygon fill="white" stroke="transparent" points="-4,4 -4,-140 296.04,-140 296.04,4 -4,4"/>
<text text-anchor="start" x="8" y="-26" font-family="Courier,monospace" font-size="10.00" fill="dimgray">Logtalk library</text>
<text text-anchor="start" x="8" y="-16" font-family="Courier,monospace" font-size="10.00" fill="dimgray">Cross&#45;referencing diagram for object java_hook</text>
<text text-anchor="start" x="8" y="-6" font-family="Courier,monospace" font-size="10.00" fill="dimgray">Generated on 2020&#45;05&#45;25, 21:55</text>
<g id="clust1" class="cluster">
<title>cluster_java_hook_object</title>
<g id="a_clust1"><a xlink:title="java_hook">
<path fill="snow" stroke="dimgray" d="M82.02,-46C82.02,-46 210.02,-46 210.02,-46 216.02,-46 222.02,-52 222.02,-58 222.02,-58 222.02,-116 222.02,-116 222.02,-122 216.02,-128 210.02,-128 210.02,-128 82.02,-128 82.02,-128 76.02,-128 70.02,-122 70.02,-116 70.02,-116 70.02,-58 70.02,-58 70.02,-52 76.02,-46 82.02,-46"/>
<g id="a_clust1_0"><a xlink:href="https://github.com/LogtalkDotOrg/logtalk3/tree/ee3e469ba16664bcc8b3b120a4a0bb7672d96db2/library/java/java_jpl.lgt" xlink:title="https://github.com/LogtalkDotOrg/logtalk3/tree/ee3e469ba16664bcc8b3b120a4a0bb7672d96db2/library/java/java_jpl.lgt">
<text text-anchor="start" x="82.02" y="-112" font-family="Courier,monospace" font-size="10.00" fill="dimgray">java_hook</text>
</a>
</g>
</a>
</g>
</g>
<!-- goal_expansion/2 -->
<g id="node1" class="node">
<title>goal_expansion/2</title>
<g id="a_node1"><a xlink:href="https://github.com/LogtalkDotOrg/logtalk3/tree/ee3e469ba16664bcc8b3b120a4a0bb7672d96db2/library/java/java_jpl.lgt#L225" xlink:title="https://github.com/LogtalkDotOrg/logtalk3/tree/ee3e469ba16664bcc8b3b120a4a0bb7672d96db2/library/java/java_jpl.lgt#L225">
<polygon fill="cornsilk" stroke="black" points="211.52,-92 80.52,-92 80.52,-56 211.52,-56 211.52,-92"/>
<text text-anchor="start" x="88.82" y="-75.8" font-family="Courier,monospace" font-size="9.00"> </text>
<text text-anchor="start" x="93.71" y="-75.2" font-family="Courier,monospace" font-size="11.00">goal_expansion/2</text>
<text text-anchor="start" x="198.82" y="-75.8" font-family="Courier,monospace" font-size="9.00"> </text>
<text text-anchor="start" x="88.82" y="-65.8" font-family="Courier,monospace" font-size="9.00"> </text>
<text text-anchor="start" x="136.02" y="-66.4" font-family="Courier,monospace" font-size="7.00">local</text>
<text text-anchor="start" x="198.82" y="-65.8" font-family="Courier,monospace" font-size="9.00"> </text>
</a>
</g>
</g>
</g>
</svg>
