<?xml version="1.0" encoding="UTF-8" standalone="no"?>
<?xml-stylesheet href="diagrams.css" type="text/css"?>
<!DOCTYPE svg PUBLIC "-//W3C//DTD SVG 1.1//EN"
 "http://www.w3.org/Graphics/SVG/1.1/DTD/svg11.dtd">
<!-- Generated by graphviz version 2.43.20191029.1313 (20191029.1313)
 -->
<!-- Title: json_protocol_protocol Pages: 1 -->
<svg width="480pt" height="288pt"
 viewBox="72.00 72.00 408.05 216.00" xmlns="http://www.w3.org/2000/svg" xmlns:xlink="http://www.w3.org/1999/xlink">
<g id="graph0" class="graph" transform="scale(1 1) rotate(0) translate(76 212)">
<title>json_protocol_protocol</title>
<polygon fill="white" stroke="transparent" points="-4,4 -4,-140 332.05,-140 332.05,4 -4,4"/>
<text text-anchor="start" x="8" y="-26" font-family="Courier,monospace" font-size="10.00" fill="dimgray">Logtalk library</text>
<text text-anchor="start" x="8" y="-16" font-family="Courier,monospace" font-size="10.00" fill="dimgray">Cross&#45;referencing diagram for protocol json_protocol</text>
<text text-anchor="start" x="8" y="-6" font-family="Courier,monospace" font-size="10.00" fill="dimgray">Generated on 2021&#45;05&#45;17, 21:54</text>
<g id="clust1" class="cluster">
<title>cluster_json_protocol_protocol</title>
<g id="a_clust1"><a xlink:title="json_protocol">
<path fill="snow" stroke="dimgray" d="M75.03,-46C75.03,-46 253.03,-46 253.03,-46 259.03,-46 265.03,-52 265.03,-58 265.03,-58 265.03,-116 265.03,-116 265.03,-122 259.03,-128 253.03,-128 253.03,-128 75.03,-128 75.03,-128 69.03,-128 63.03,-122 63.03,-116 63.03,-116 63.03,-58 63.03,-58 63.03,-52 69.03,-46 75.03,-46"/>
<g id="a_clust1_0"><a xlink:href="https://github.com/LogtalkDotOrg/logtalk3/tree/a4d679431a263e556158eb69686b113e36465733/library/json/json_protocol.lgt" xlink:title="https://github.com/LogtalkDotOrg/logtalk3/tree/a4d679431a263e556158eb69686b113e36465733/library/json/json_protocol.lgt">
<text text-anchor="start" x="75.02" y="-112" font-family="Courier,monospace" font-size="10.00" fill="dimgray">json_protocol</text>
</a>
</g>
</a>
</g>
</g>
<!-- parse/2 -->
<g id="node1" class="node">
<title>parse/2</title>
<g id="a_node1"><a xlink:href="https://github.com/LogtalkDotOrg/logtalk3/tree/a4d679431a263e556158eb69686b113e36465733/library/json/json_protocol.lgt#L32" xlink:title="https://github.com/LogtalkDotOrg/logtalk3/tree/a4d679431a263e556158eb69686b113e36465733/library/json/json_protocol.lgt#L32">
<polygon fill="springgreen" stroke="black" points="255.03,-92 183.03,-92 183.03,-56 255.03,-56 255.03,-92"/>
<text text-anchor="start" x="190.82" y="-75.8" font-family="Courier,monospace" font-size="9.00"> </text>
<text text-anchor="start" x="195.92" y="-75.2" font-family="Courier,monospace" font-size="11.00">parse/2</text>
<text text-anchor="start" x="241.82" y="-75.8" font-family="Courier,monospace" font-size="9.00"> </text>
<text text-anchor="start" x="190.82" y="-65.8" font-family="Courier,monospace" font-size="9.00"> </text>
<text text-anchor="start" x="206.42" y="-66.4" font-family="Courier,monospace" font-size="7.00">public</text>
<text text-anchor="start" x="241.82" y="-65.8" font-family="Courier,monospace" font-size="9.00"> </text>
</a>
</g>
</g>
<!-- generate/2 -->
<g id="node2" class="node">
<title>generate/2</title>
<g id="a_node2"><a xlink:href="https://github.com/LogtalkDotOrg/logtalk3/tree/a4d679431a263e556158eb69686b113e36465733/library/json/json_protocol.lgt#L39" xlink:title="https://github.com/LogtalkDotOrg/logtalk3/tree/a4d679431a263e556158eb69686b113e36465733/library/json/json_protocol.lgt#L39">
<polygon fill="springgreen" stroke="black" points="165.03,-92 73.03,-92 73.03,-56 165.03,-56 165.03,-92"/>
<text text-anchor="start" x="80.82" y="-75.8" font-family="Courier,monospace" font-size="9.00"> </text>
<text text-anchor="start" x="86.02" y="-75.2" font-family="Courier,monospace" font-size="11.00">generate/2</text>
<text text-anchor="start" x="151.82" y="-75.8" font-family="Courier,monospace" font-size="9.00"> </text>
<text text-anchor="start" x="80.82" y="-65.8" font-family="Courier,monospace" font-size="9.00"> </text>
<text text-anchor="start" x="106.42" y="-66.4" font-family="Courier,monospace" font-size="7.00">public</text>
<text text-anchor="start" x="151.82" y="-65.8" font-family="Courier,monospace" font-size="9.00"> </text>
</a>
</g>
</g>
</g>
</svg>
