<?xml version="1.0" encoding="UTF-8" standalone="no"?>
<?xml-stylesheet href="diagrams.css" type="text/css"?>
<!DOCTYPE svg PUBLIC "-//W3C//DTD SVG 1.1//EN"
 "http://www.w3.org/Graphics/SVG/1.1/DTD/svg11.dtd">
<!-- Generated by graphviz version 9.0.0 (20230911.1827)
 -->
<!-- Title: json_protocol_protocol Pages: 1 -->
<svg width="480pt" height="293pt"
 viewBox="72.00 72.00 408.00 221.00" xmlns="http://www.w3.org/2000/svg" xmlns:xlink="http://www.w3.org/1999/xlink">
<g id="graph0" class="graph" transform="scale(1 1) rotate(0) translate(76 217)">
<title>json_protocol_protocol</title>
<polygon fill="white" stroke="none" points="-4,4 -4,-145 332,-145 332,4 -4,4"/>
<text text-anchor="start" x="8" y="-28.25" font-family="Monospace" font-size="10.00" fill="dimgray">Logtalk library</text>
<text text-anchor="start" x="8" y="-17" font-family="Monospace" font-size="10.00" fill="dimgray">Cross&#45;referencing diagram for protocol json_protocol</text>
<text text-anchor="start" x="8" y="-5.75" font-family="Monospace" font-size="10.00" fill="dimgray">Generated on 2024&#45;01&#45;08, 21:47</text>
<g id="clust1" class="cluster">
<title>cluster_json_protocol_protocol</title>
<g id="a_clust1"><a xlink:title="json_protocol">
<path fill="snow" stroke="dimgray" d="M73.5,-49.75C73.5,-49.75 254.5,-49.75 254.5,-49.75 260.5,-49.75 266.5,-55.75 266.5,-61.75 266.5,-61.75 266.5,-121 266.5,-121 266.5,-127 260.5,-133 254.5,-133 254.5,-133 73.5,-133 73.5,-133 67.5,-133 61.5,-127 61.5,-121 61.5,-121 61.5,-61.75 61.5,-61.75 61.5,-55.75 67.5,-49.75 73.5,-49.75"/>
<g id="a_clust1_0"><a xlink:href="https://github.com/LogtalkDotOrg/logtalk3/tree/80d4127e9beae2f408b6813a9d163658e68b27ba/library/json/json_protocol.lgt" xlink:title="https://github.com/LogtalkDotOrg/logtalk3/tree/80d4127e9beae2f408b6813a9d163658e68b27ba/library/json/json_protocol.lgt">
<text text-anchor="start" x="73.5" y="-115.5" font-family="Monospace" font-size="10.00" fill="dimgray">json_protocol</text>
</a>
</g>
</a>
</g>
</g>
<!-- parse/2 -->
<g id="node1" class="node">
<title>parse/2</title>
<g id="a_node1"><a xlink:href="https://github.com/LogtalkDotOrg/logtalk3/tree/80d4127e9beae2f408b6813a9d163658e68b27ba/library/json/json_protocol.lgt#L32" xlink:title="https://github.com/LogtalkDotOrg/logtalk3/tree/80d4127e9beae2f408b6813a9d163658e68b27ba/library/json/json_protocol.lgt#L32">
<polygon fill="springgreen" stroke="black" points="256,-95.75 183,-95.75 183,-59.75 256,-59.75 256,-95.75"/>
<text text-anchor="start" x="190.88" y="-78.58" font-family="Monospace" font-size="9.00"> </text>
<text text-anchor="start" x="195.88" y="-77.8" font-family="Monospace" font-size="11.00">parse/2</text>
<text text-anchor="start" x="242.88" y="-78.58" font-family="Monospace" font-size="9.00"> </text>
<text text-anchor="start" x="190.88" y="-67.7" font-family="Monospace" font-size="9.00"> </text>
<text text-anchor="start" x="206" y="-69.22" font-family="Monospace" font-size="7.00">public</text>
<text text-anchor="start" x="242.88" y="-67.7" font-family="Monospace" font-size="9.00"> </text>
</a>
</g>
</g>
<!-- generate/2 -->
<g id="node2" class="node">
<title>generate/2</title>
<g id="a_node2"><a xlink:href="https://github.com/LogtalkDotOrg/logtalk3/tree/80d4127e9beae2f408b6813a9d163658e68b27ba/library/json/json_protocol.lgt#L39" xlink:title="https://github.com/LogtalkDotOrg/logtalk3/tree/80d4127e9beae2f408b6813a9d163658e68b27ba/library/json/json_protocol.lgt#L39">
<polygon fill="springgreen" stroke="black" points="165,-95.75 72,-95.75 72,-59.75 165,-59.75 165,-95.75"/>
<text text-anchor="start" x="79.88" y="-78.58" font-family="Monospace" font-size="9.00"> </text>
<text text-anchor="start" x="84.75" y="-77.8" font-family="Monospace" font-size="11.00">generate/2</text>
<text text-anchor="start" x="151.88" y="-78.58" font-family="Monospace" font-size="9.00"> </text>
<text text-anchor="start" x="79.88" y="-67.7" font-family="Monospace" font-size="9.00"> </text>
<text text-anchor="start" x="105" y="-69.22" font-family="Monospace" font-size="7.00">public</text>
<text text-anchor="start" x="151.88" y="-67.7" font-family="Monospace" font-size="9.00"> </text>
</a>
</g>
</g>
</g>
</svg>
