<?xml version="1.0" encoding="UTF-8" standalone="no"?>
<?xml-stylesheet href="diagrams.css" type="text/css"?>
<!DOCTYPE svg PUBLIC "-//W3C//DTD SVG 1.1//EN"
 "http://www.w3.org/Graphics/SVG/1.1/DTD/svg11.dtd">
<!-- Generated by graphviz version 2.49.3 (20211023.0002)
 -->
<!-- Title: json_protocol_protocol Pages: 1 -->
<svg width="481pt" height="292pt"
 viewBox="72.00 72.00 409.00 220.00" xmlns="http://www.w3.org/2000/svg" xmlns:xlink="http://www.w3.org/1999/xlink">
<g id="graph0" class="graph" transform="scale(1 1) rotate(0) translate(76 216)">
<title>json_protocol_protocol</title>
<polygon fill="white" stroke="transparent" points="-4,4 -4,-144 333,-144 333,4 -4,4"/>
<text text-anchor="start" x="8" y="-29" font-family="Monospace" font-size="10.00" fill="dimgray">Logtalk library</text>
<text text-anchor="start" x="8" y="-18" font-family="Monospace" font-size="10.00" fill="dimgray">Cross&#45;referencing diagram for protocol json_protocol</text>
<text text-anchor="start" x="8" y="-7" font-family="Monospace" font-size="10.00" fill="dimgray">Generated on 2021&#45;12&#45;01, 17:07</text>
<g id="clust1" class="cluster">
<title>cluster_json_protocol_protocol</title>
<g id="a_clust1"><a xlink:title="json_protocol">
<path fill="snow" stroke="dimgray" d="M72,-49C72,-49 257,-49 257,-49 263,-49 269,-55 269,-61 269,-61 269,-120 269,-120 269,-126 263,-132 257,-132 257,-132 72,-132 72,-132 66,-132 60,-126 60,-120 60,-120 60,-61 60,-61 60,-55 66,-49 72,-49"/>
<g id="a_clust1_0"><a xlink:href="https://github.com/LogtalkDotOrg/logtalk3/tree/80bca11e23513ba9dee0b90ea6273fe532329b3a/library/json/json_protocol.lgt" xlink:title="https://github.com/LogtalkDotOrg/logtalk3/tree/80bca11e23513ba9dee0b90ea6273fe532329b3a/library/json/json_protocol.lgt">
<text text-anchor="start" x="72.5" y="-115.5" font-family="Monospace" font-size="10.00" fill="dimgray">json_protocol</text>
</a>
</g>
</a>
</g>
</g>
<!-- parse/2 -->
<g id="node1" class="node">
<title>parse/2</title>
<g id="a_node1"><a xlink:href="https://github.com/LogtalkDotOrg/logtalk3/tree/80bca11e23513ba9dee0b90ea6273fe532329b3a/library/json/json_protocol.lgt#L32" xlink:title="https://github.com/LogtalkDotOrg/logtalk3/tree/80bca11e23513ba9dee0b90ea6273fe532329b3a/library/json/json_protocol.lgt#L32">
<polygon fill="springgreen" stroke="black" points="258.5,-95 183.5,-95 183.5,-59 258.5,-59 258.5,-95"/>
<text text-anchor="start" x="192" y="-79.8" font-family="Monospace" font-size="9.00"> </text>
<text text-anchor="start" x="198" y="-79.2" font-family="Monospace" font-size="11.00">parse/2</text>
<text text-anchor="start" x="245" y="-79.8" font-family="Monospace" font-size="9.00"> </text>
<text text-anchor="start" x="192" y="-68.8" font-family="Monospace" font-size="9.00"> </text>
<text text-anchor="start" x="208.5" y="-69.4" font-family="Monospace" font-size="7.00">public</text>
<text text-anchor="start" x="245" y="-68.8" font-family="Monospace" font-size="9.00"> </text>
</a>
</g>
</g>
<!-- generate/2 -->
<g id="node2" class="node">
<title>generate/2</title>
<g id="a_node2"><a xlink:href="https://github.com/LogtalkDotOrg/logtalk3/tree/80bca11e23513ba9dee0b90ea6273fe532329b3a/library/json/json_protocol.lgt#L39" xlink:title="https://github.com/LogtalkDotOrg/logtalk3/tree/80bca11e23513ba9dee0b90ea6273fe532329b3a/library/json/json_protocol.lgt#L39">
<polygon fill="springgreen" stroke="black" points="165.5,-95 70.5,-95 70.5,-59 165.5,-59 165.5,-95"/>
<text text-anchor="start" x="79" y="-79.8" font-family="Monospace" font-size="9.00"> </text>
<text text-anchor="start" x="85" y="-79.2" font-family="Monospace" font-size="11.00">generate/2</text>
<text text-anchor="start" x="152" y="-79.8" font-family="Monospace" font-size="9.00"> </text>
<text text-anchor="start" x="79" y="-68.8" font-family="Monospace" font-size="9.00"> </text>
<text text-anchor="start" x="105.5" y="-69.4" font-family="Monospace" font-size="7.00">public</text>
<text text-anchor="start" x="152" y="-68.8" font-family="Monospace" font-size="9.00"> </text>
</a>
</g>
</g>
</g>
</svg>
