<?xml version="1.0" encoding="UTF-8" standalone="no"?>
<?xml-stylesheet href="diagrams.css" type="text/css"?>
<!DOCTYPE svg PUBLIC "-//W3C//DTD SVG 1.1//EN"
 "http://www.w3.org/Graphics/SVG/1.1/DTD/svg11.dtd">
<!-- Generated by graphviz version 12.1.2 (20240928.0832)
 -->
<!-- Title: json_protocol_protocol Pages: 1 -->
<svg width="480pt" height="299pt"
 viewBox="72.00 72.00 408.00 227.00" xmlns="http://www.w3.org/2000/svg" xmlns:xlink="http://www.w3.org/1999/xlink">
<g id="graph0" class="graph" transform="scale(1 1) rotate(0) translate(76 223)">
<title>json_protocol_protocol</title>
<polygon fill="white" stroke="none" points="-4,4 -4,-151 332,-151 332,4 -4,4"/>
<text text-anchor="start" x="8" y="-32.75" font-family="Monospace" font-size="10.00" fill="dimgray">Logtalk library</text>
<text text-anchor="start" x="8" y="-20" font-family="Monospace" font-size="10.00" fill="dimgray">Cross&#45;referencing diagram for protocol json_protocol</text>
<text text-anchor="start" x="8" y="-7.25" font-family="Monospace" font-size="10.00" fill="dimgray">Generated on 2024&#45;10&#45;14, 11:40</text>
<g id="clust1" class="cluster">
<title>cluster_json_protocol_protocol</title>
<g id="a_clust1"><a xlink:title="json_protocol">
<path fill="snow" stroke="dimgray" d="M73.5,-54.25C73.5,-54.25 254.5,-54.25 254.5,-54.25 260.5,-54.25 266.5,-60.25 266.5,-66.25 266.5,-66.25 266.5,-127 266.5,-127 266.5,-133 260.5,-139 254.5,-139 254.5,-139 73.5,-139 73.5,-139 67.5,-139 61.5,-133 61.5,-127 61.5,-127 61.5,-66.25 61.5,-66.25 61.5,-60.25 67.5,-54.25 73.5,-54.25"/>
<g id="a_clust1_0"><a xlink:href="https://github.com/LogtalkDotOrg/logtalk3/tree/d03c10795bbf7dec94e720e495c143fead34d569/library/json/json_protocol.lgt" xlink:title="https://github.com/LogtalkDotOrg/logtalk3/tree/d03c10795bbf7dec94e720e495c143fead34d569/library/json/json_protocol.lgt">
<text text-anchor="start" x="73.5" y="-121.5" font-family="Monospace" font-size="10.00" fill="dimgray">json_protocol</text>
</a>
</g>
</a>
</g>
</g>
<!-- parse/2 -->
<g id="node1" class="node">
<title>parse/2</title>
<g id="a_node1"><a xlink:href="https://github.com/LogtalkDotOrg/logtalk3/tree/d03c10795bbf7dec94e720e495c143fead34d569/library/json/json_protocol.lgt#L32" xlink:title="https://github.com/LogtalkDotOrg/logtalk3/tree/d03c10795bbf7dec94e720e495c143fead34d569/library/json/json_protocol.lgt#L32">
<polygon fill="springgreen" stroke="black" points="145,-100.25 72,-100.25 72,-64.25 145,-64.25 145,-100.25"/>
<text text-anchor="start" x="79.88" y="-84.83" font-family="Monospace" font-size="9.00"> </text>
<text text-anchor="start" x="84.88" y="-83.8" font-family="Monospace" font-size="11.00">parse/2</text>
<text text-anchor="start" x="131.88" y="-84.83" font-family="Monospace" font-size="9.00"> </text>
<text text-anchor="start" x="79.88" y="-72.7" font-family="Monospace" font-size="9.00"> </text>
<text text-anchor="start" x="95" y="-73.6" font-family="Monospace" font-size="7.00">public</text>
<text text-anchor="start" x="131.88" y="-72.7" font-family="Monospace" font-size="9.00"> </text>
</a>
</g>
</g>
<!-- generate/2 -->
<g id="node2" class="node">
<title>generate/2</title>
<g id="a_node2"><a xlink:href="https://github.com/LogtalkDotOrg/logtalk3/tree/d03c10795bbf7dec94e720e495c143fead34d569/library/json/json_protocol.lgt#L39" xlink:title="https://github.com/LogtalkDotOrg/logtalk3/tree/d03c10795bbf7dec94e720e495c143fead34d569/library/json/json_protocol.lgt#L39">
<polygon fill="springgreen" stroke="black" points="256,-100.25 163,-100.25 163,-64.25 256,-64.25 256,-100.25"/>
<text text-anchor="start" x="170.88" y="-84.83" font-family="Monospace" font-size="9.00"> </text>
<text text-anchor="start" x="175.75" y="-83.8" font-family="Monospace" font-size="11.00">generate/2</text>
<text text-anchor="start" x="242.88" y="-84.83" font-family="Monospace" font-size="9.00"> </text>
<text text-anchor="start" x="170.88" y="-72.7" font-family="Monospace" font-size="9.00"> </text>
<text text-anchor="start" x="196" y="-73.6" font-family="Monospace" font-size="7.00">public</text>
<text text-anchor="start" x="242.88" y="-72.7" font-family="Monospace" font-size="9.00"> </text>
</a>
</g>
</g>
</g>
</svg>
