<?xml version="1.0" encoding="UTF-8" standalone="no"?>
<?xml-stylesheet href="diagrams.css" type="text/css"?>
<!DOCTYPE svg PUBLIC "-//W3C//DTD SVG 1.1//EN"
 "http://www.w3.org/Graphics/SVG/1.1/DTD/svg11.dtd">
<!-- Generated by graphviz version 2.49.3 (20211023.0002)
 -->
<!-- Title: json_protocol_protocol Pages: 1 -->
<svg width="428pt" height="292pt"
 viewBox="72.00 72.00 356.00 220.00" xmlns="http://www.w3.org/2000/svg" xmlns:xlink="http://www.w3.org/1999/xlink">
<g id="graph0" class="graph" transform="scale(1 1) rotate(0) translate(76 216)">
<title>json_protocol_protocol</title>
<polygon fill="white" stroke="transparent" points="-4,4 -4,-144 280,-144 280,4 -4,4"/>
<text text-anchor="start" x="8" y="-29" font-family="Courier,monospace" font-size="10.00" fill="dimgray">Logtalk library</text>
<text text-anchor="start" x="8" y="-18" font-family="Courier,monospace" font-size="10.00" fill="dimgray">Cross&#45;referencing diagram for protocol json_protocol</text>
<text text-anchor="start" x="8" y="-7" font-family="Courier,monospace" font-size="10.00" fill="dimgray">Generated on 2021&#45;11&#45;02, 10:35</text>
<g id="clust1" class="cluster">
<title>cluster_json_protocol_protocol</title>
<g id="a_clust1"><a xlink:title="json_protocol">
<path fill="snow" stroke="dimgray" d="M57.5,-49C57.5,-49 218.5,-49 218.5,-49 224.5,-49 230.5,-55 230.5,-61 230.5,-61 230.5,-120 230.5,-120 230.5,-126 224.5,-132 218.5,-132 218.5,-132 57.5,-132 57.5,-132 51.5,-132 45.5,-126 45.5,-120 45.5,-120 45.5,-61 45.5,-61 45.5,-55 51.5,-49 57.5,-49"/>
<g id="a_clust1_0"><a xlink:href="https://github.com/LogtalkDotOrg/logtalk3/tree/cbba6d9f7efe0ecef480b6200bf5d3edd28fc400/library/json/json_protocol.lgt" xlink:title="https://github.com/LogtalkDotOrg/logtalk3/tree/cbba6d9f7efe0ecef480b6200bf5d3edd28fc400/library/json/json_protocol.lgt">
<text text-anchor="start" x="58" y="-115.5" font-family="Courier,monospace" font-size="10.00" fill="dimgray">json_protocol</text>
</a>
</g>
</a>
</g>
</g>
<!-- parse/2 -->
<g id="node1" class="node">
<title>parse/2</title>
<g id="a_node1"><a xlink:href="https://github.com/LogtalkDotOrg/logtalk3/tree/cbba6d9f7efe0ecef480b6200bf5d3edd28fc400/library/json/json_protocol.lgt#L32" xlink:title="https://github.com/LogtalkDotOrg/logtalk3/tree/cbba6d9f7efe0ecef480b6200bf5d3edd28fc400/library/json/json_protocol.lgt#L32">
<polygon fill="springgreen" stroke="black" points="220,-95 155,-95 155,-59 220,-59 220,-95"/>
<text text-anchor="start" x="163.5" y="-79.8" font-family="Courier,monospace" font-size="9.00"> </text>
<text text-anchor="start" x="168.5" y="-79.2" font-family="Courier,monospace" font-size="11.00">parse/2</text>
<text text-anchor="start" x="207.5" y="-79.8" font-family="Courier,monospace" font-size="9.00"> </text>
<text text-anchor="start" x="163.5" y="-68.8" font-family="Courier,monospace" font-size="9.00"> </text>
<text text-anchor="start" x="177.5" y="-69.4" font-family="Courier,monospace" font-size="7.00">public</text>
<text text-anchor="start" x="207.5" y="-68.8" font-family="Courier,monospace" font-size="9.00"> </text>
</a>
</g>
</g>
<!-- generate/2 -->
<g id="node2" class="node">
<title>generate/2</title>
<g id="a_node2"><a xlink:href="https://github.com/LogtalkDotOrg/logtalk3/tree/cbba6d9f7efe0ecef480b6200bf5d3edd28fc400/library/json/json_protocol.lgt#L39" xlink:title="https://github.com/LogtalkDotOrg/logtalk3/tree/cbba6d9f7efe0ecef480b6200bf5d3edd28fc400/library/json/json_protocol.lgt#L39">
<polygon fill="springgreen" stroke="black" points="137,-95 56,-95 56,-59 137,-59 137,-95"/>
<text text-anchor="start" x="64.5" y="-79.8" font-family="Courier,monospace" font-size="9.00"> </text>
<text text-anchor="start" x="69.5" y="-79.2" font-family="Courier,monospace" font-size="11.00">generate/2</text>
<text text-anchor="start" x="124.5" y="-79.8" font-family="Courier,monospace" font-size="9.00"> </text>
<text text-anchor="start" x="64.5" y="-68.8" font-family="Courier,monospace" font-size="9.00"> </text>
<text text-anchor="start" x="86.5" y="-69.4" font-family="Courier,monospace" font-size="7.00">public</text>
<text text-anchor="start" x="124.5" y="-68.8" font-family="Courier,monospace" font-size="9.00"> </text>
</a>
</g>
</g>
</g>
</svg>
