<?xml version="1.0" encoding="UTF-8" standalone="no"?>
<?xml-stylesheet href="diagrams.css" type="text/css"?>
<!DOCTYPE svg PUBLIC "-//W3C//DTD SVG 1.1//EN"
 "http://www.w3.org/Graphics/SVG/1.1/DTD/svg11.dtd">
<!-- Generated by graphviz version 2.50.0 (20211204.2007)
 -->
<!-- Title: json_protocol_protocol Pages: 1 -->
<svg width="481pt" height="292pt"
 viewBox="72.00 72.00 409.00 220.00" xmlns="http://www.w3.org/2000/svg" xmlns:xlink="http://www.w3.org/1999/xlink">
<g id="graph0" class="graph" transform="scale(1 1) rotate(0) translate(76 216)">
<title>json_protocol_protocol</title>
<polygon fill="white" stroke="transparent" points="-4,4 -4,-144 333,-144 333,4 -4,4"/>
<text text-anchor="start" x="8" y="-29" font-family="Monospace" font-size="10.00" fill="dimgray">Logtalk library</text>
<text text-anchor="start" x="8" y="-18" font-family="Monospace" font-size="10.00" fill="dimgray">Cross&#45;referencing diagram for protocol json_protocol</text>
<text text-anchor="start" x="8" y="-7" font-family="Monospace" font-size="10.00" fill="dimgray">Generated on 2022&#45;09&#45;05, 18:27</text>
<g id="clust1" class="cluster">
<title>cluster_json_protocol_protocol</title>
<g id="a_clust1"><a xlink:title="json_protocol">
<path fill="snow" stroke="dimgray" d="M71.5,-49C71.5,-49 257.5,-49 257.5,-49 263.5,-49 269.5,-55 269.5,-61 269.5,-61 269.5,-120 269.5,-120 269.5,-126 263.5,-132 257.5,-132 257.5,-132 71.5,-132 71.5,-132 65.5,-132 59.5,-126 59.5,-120 59.5,-120 59.5,-61 59.5,-61 59.5,-55 65.5,-49 71.5,-49"/>
<g id="a_clust1_0"><a xlink:href="https://github.com/LogtalkDotOrg/logtalk3/tree/0107cdbe01f9718284a434a27a7a3f10d8e1634d/library/json/json_protocol.lgt" xlink:title="https://github.com/LogtalkDotOrg/logtalk3/tree/0107cdbe01f9718284a434a27a7a3f10d8e1634d/library/json/json_protocol.lgt">
<text text-anchor="start" x="72" y="-115.5" font-family="Monospace" font-size="10.00" fill="dimgray">json_protocol</text>
</a>
</g>
</a>
</g>
</g>
<!-- parse/2 -->
<g id="node1" class="node">
<title>parse/2</title>
<g id="a_node1"><a xlink:href="https://github.com/LogtalkDotOrg/logtalk3/tree/0107cdbe01f9718284a434a27a7a3f10d8e1634d/library/json/json_protocol.lgt#L32" xlink:title="https://github.com/LogtalkDotOrg/logtalk3/tree/0107cdbe01f9718284a434a27a7a3f10d8e1634d/library/json/json_protocol.lgt#L32">
<polygon fill="springgreen" stroke="black" points="259.5,-95 183.5,-95 183.5,-59 259.5,-59 259.5,-95"/>
<text text-anchor="start" x="191.5" y="-79.8" font-family="Monospace" font-size="9.00"> </text>
<text text-anchor="start" x="197.5" y="-79.2" font-family="Monospace" font-size="11.00">parse/2</text>
<text text-anchor="start" x="245.5" y="-79.8" font-family="Monospace" font-size="9.00"> </text>
<text text-anchor="start" x="191.5" y="-68.8" font-family="Monospace" font-size="9.00"> </text>
<text text-anchor="start" x="207.5" y="-69.4" font-family="Monospace" font-size="7.00">public</text>
<text text-anchor="start" x="245.5" y="-68.8" font-family="Monospace" font-size="9.00"> </text>
</a>
</g>
</g>
<!-- generate/2 -->
<g id="node2" class="node">
<title>generate/2</title>
<g id="a_node2"><a xlink:href="https://github.com/LogtalkDotOrg/logtalk3/tree/0107cdbe01f9718284a434a27a7a3f10d8e1634d/library/json/json_protocol.lgt#L39" xlink:title="https://github.com/LogtalkDotOrg/logtalk3/tree/0107cdbe01f9718284a434a27a7a3f10d8e1634d/library/json/json_protocol.lgt#L39">
<polygon fill="springgreen" stroke="black" points="165.5,-95 69.5,-95 69.5,-59 165.5,-59 165.5,-95"/>
<text text-anchor="start" x="77.5" y="-79.8" font-family="Monospace" font-size="9.00"> </text>
<text text-anchor="start" x="83.5" y="-79.2" font-family="Monospace" font-size="11.00">generate/2</text>
<text text-anchor="start" x="151.5" y="-79.8" font-family="Monospace" font-size="9.00"> </text>
<text text-anchor="start" x="77.5" y="-68.8" font-family="Monospace" font-size="9.00"> </text>
<text text-anchor="start" x="103.5" y="-69.4" font-family="Monospace" font-size="7.00">public</text>
<text text-anchor="start" x="151.5" y="-68.8" font-family="Monospace" font-size="9.00"> </text>
</a>
</g>
</g>
</g>
</svg>
