<?xml version="1.0" encoding="UTF-8" standalone="no"?>
<?xml-stylesheet href="diagrams.css" type="text/css"?>
<!DOCTYPE svg PUBLIC "-//W3C//DTD SVG 1.1//EN"
 "http://www.w3.org/Graphics/SVG/1.1/DTD/svg11.dtd">
<!-- Generated by graphviz version 2.40.1 (20161225.0304)
 -->
<!-- Title: list_1_object Pages: 1 -->
<svg width="427pt" height="484pt"
 viewBox="72.00 72.00 355.00 412.00" xmlns="http://www.w3.org/2000/svg" xmlns:xlink="http://www.w3.org/1999/xlink">
<g id="graph0" class="graph" transform="scale(1 1) rotate(0) translate(76 408)">
<title>list_1_object</title>
<polygon fill="#ffffff" stroke="transparent" points="-4,4 -4,-336 279,-336 279,4 -4,4"/>
<text text-anchor="start" x="8" y="-29" font-family="Monospace" font-size="10.00" fill="#696969">Logtalk library</text>
<text text-anchor="start" x="8" y="-18" font-family="Monospace" font-size="10.00" fill="#696969">Cross&#45;referencing diagram for object list/1</text>
<text text-anchor="start" x="8" y="-7" font-family="Monospace" font-size="10.00" fill="#696969">Generated on 2023&#45;01&#45;01, 23:40</text>
<g id="clust1" class="cluster">
<title>cluster_list_1_object</title>
<g id="a_clust1"><a xlink:title="list(Type)">
<path fill="#fffafa" stroke="#696969" d="M101.5,-49C101.5,-49 173.5,-49 173.5,-49 179.5,-49 185.5,-55 185.5,-61 185.5,-61 185.5,-312 185.5,-312 185.5,-318 179.5,-324 173.5,-324 173.5,-324 101.5,-324 101.5,-324 95.5,-324 89.5,-318 89.5,-312 89.5,-312 89.5,-61 89.5,-61 89.5,-55 95.5,-49 101.5,-49"/>
<g id="a_clust1_0"><a xlink:href="https://github.com/LogtalkDotOrg/logtalk3/tree/934aee98ed3bc6654f203177f74af1b33a85d94c/library/types/list1.lgt" xlink:title="https://github.com/LogtalkDotOrg/logtalk3/tree/934aee98ed3bc6654f203177f74af1b33a85d94c/library/types/list1.lgt">
<text text-anchor="start" x="102" y="-307.5" font-family="Monospace" font-size="10.00" fill="#696969">list(Type)</text>
</a>
</g>
</a>
</g>
</g>
<!-- valid/1 -->
<g id="node1" class="node">
<title>valid/1</title>
<g id="a_node1"><a xlink:href="https://github.com/LogtalkDotOrg/logtalk3/tree/934aee98ed3bc6654f203177f74af1b33a85d94c/library/types/list1.lgt#L34" xlink:title="https://github.com/LogtalkDotOrg/logtalk3/tree/934aee98ed3bc6654f203177f74af1b33a85d94c/library/types/list1.lgt#L34">
<polygon fill="#fff8dc" stroke="#000000" points="175.5,-95 99.5,-95 99.5,-59 175.5,-59 175.5,-95"/>
<text text-anchor="start" x="107.5" y="-79.8" font-family="Monospace" font-size="9.00" fill="#000000"> </text>
<text text-anchor="start" x="113.5" y="-79.2" font-family="Monospace" font-size="11.00" fill="#000000">valid/1</text>
<text text-anchor="start" x="161.5" y="-79.8" font-family="Monospace" font-size="9.00" fill="#000000"> </text>
<text text-anchor="start" x="107.5" y="-68.8" font-family="Monospace" font-size="9.00" fill="#000000"> </text>
<text text-anchor="start" x="126" y="-69.4" font-family="Monospace" font-size="7.00" fill="#000000">local</text>
<text text-anchor="start" x="161.5" y="-68.8" font-family="Monospace" font-size="9.00" fill="#000000"> </text>
</a>
</g>
</g>
<!-- check/1 -->
<g id="node2" class="node">
<title>check/1</title>
<g id="a_node2"><a xlink:href="https://github.com/LogtalkDotOrg/logtalk3/tree/934aee98ed3bc6654f203177f74af1b33a85d94c/library/types/list1.lgt#L43" xlink:title="https://github.com/LogtalkDotOrg/logtalk3/tree/934aee98ed3bc6654f203177f74af1b33a85d94c/library/types/list1.lgt#L43">
<polygon fill="#fff8dc" stroke="#000000" points="175.5,-287 99.5,-287 99.5,-251 175.5,-251 175.5,-287"/>
<text text-anchor="start" x="107.5" y="-271.8" font-family="Monospace" font-size="9.00" fill="#000000"> </text>
<text text-anchor="start" x="113.5" y="-271.2" font-family="Monospace" font-size="11.00" fill="#000000">check/1</text>
<text text-anchor="start" x="161.5" y="-271.8" font-family="Monospace" font-size="9.00" fill="#000000"> </text>
<text text-anchor="start" x="107.5" y="-260.8" font-family="Monospace" font-size="9.00" fill="#000000"> </text>
<text text-anchor="start" x="126" y="-261.4" font-family="Monospace" font-size="7.00" fill="#000000">local</text>
<text text-anchor="start" x="161.5" y="-260.8" font-family="Monospace" font-size="9.00" fill="#000000"> </text>
</a>
</g>
</g>
<!-- check/1&#45;&gt;valid/1 -->
<g id="edge1" class="edge">
<title>check/1&#45;&gt;valid/1</title>
<g id="a_edge1"><a xlink:href="https://github.com/LogtalkDotOrg/logtalk3/tree/934aee98ed3bc6654f203177f74af1b33a85d94c/library/types/list1.lgt#L43" xlink:title="calls">
<path fill="none" stroke="#000000" d="M137.5,-250.9371C137.5,-217.4168 137.5,-145.3617 137.5,-105.3098"/>
<polygon fill="#000000" stroke="#000000" points="141.0001,-105.1547 137.5,-95.1548 134.0001,-105.1548 141.0001,-105.1547"/>
</a>
</g>
<g id="a_edge1&#45;label"><a xlink:href="https://github.com/LogtalkDotOrg/logtalk3/tree/934aee98ed3bc6654f203177f74af1b33a85d94c/library/types/list1.lgt#L43" xlink:title="https://github.com/LogtalkDotOrg/logtalk3/tree/934aee98ed3bc6654f203177f74af1b33a85d94c/library/types/list1.lgt#L43">
<text text-anchor="start" x="137.5" y="-170.8" font-family="Monospace" font-size="9.00" fill="#000000">calls</text>
</a>
</g>
</g>
</g>
</svg>
