<?xml version="1.0" encoding="UTF-8" standalone="no"?>
<?xml-stylesheet href="diagrams.css" type="text/css"?>
<!DOCTYPE svg PUBLIC "-//W3C//DTD SVG 1.1//EN"
 "http://www.w3.org/Graphics/SVG/1.1/DTD/svg11.dtd">
<!-- Generated by graphviz version 2.50.0 (20211204.2007)
 -->
<!-- Title: list_1_object Pages: 1 -->
<svg width="427pt" height="410pt"
 viewBox="72.00 72.00 355.00 338.00" xmlns="http://www.w3.org/2000/svg" xmlns:xlink="http://www.w3.org/1999/xlink">
<g id="graph0" class="graph" transform="scale(1 1) rotate(0) translate(76 334)">
<title>list_1_object</title>
<polygon fill="white" stroke="transparent" points="-4,4 -4,-262 279,-262 279,4 -4,4"/>
<text text-anchor="start" x="8" y="-29" font-family="Monospace" font-size="10.00" fill="dimgray">Logtalk library</text>
<text text-anchor="start" x="8" y="-18" font-family="Monospace" font-size="10.00" fill="dimgray">Cross&#45;referencing diagram for object list/1</text>
<text text-anchor="start" x="8" y="-7" font-family="Monospace" font-size="10.00" fill="dimgray">Generated on 2022&#45;01&#45;14, 18:07</text>
<g id="clust1" class="cluster">
<title>cluster_list_1_object</title>
<g id="a_clust1"><a xlink:title="list(Type)">
<path fill="snow" stroke="dimgray" d="M101.5,-49C101.5,-49 173.5,-49 173.5,-49 179.5,-49 185.5,-55 185.5,-61 185.5,-61 185.5,-238 185.5,-238 185.5,-244 179.5,-250 173.5,-250 173.5,-250 101.5,-250 101.5,-250 95.5,-250 89.5,-244 89.5,-238 89.5,-238 89.5,-61 89.5,-61 89.5,-55 95.5,-49 101.5,-49"/>
<g id="a_clust1_0"><a xlink:href="https://github.com/LogtalkDotOrg/logtalk3/tree/86f3820ea33caae1de2d9566499025f03faa76f3/library/types/list1.lgt" xlink:title="https://github.com/LogtalkDotOrg/logtalk3/tree/86f3820ea33caae1de2d9566499025f03faa76f3/library/types/list1.lgt">
<text text-anchor="start" x="102" y="-233.5" font-family="Monospace" font-size="10.00" fill="dimgray">list(Type)</text>
</a>
</g>
</a>
</g>
</g>
<!-- valid/1 -->
<g id="node1" class="node">
<title>valid/1</title>
<g id="a_node1"><a xlink:href="https://github.com/LogtalkDotOrg/logtalk3/tree/86f3820ea33caae1de2d9566499025f03faa76f3/library/types/list1.lgt#L34" xlink:title="https://github.com/LogtalkDotOrg/logtalk3/tree/86f3820ea33caae1de2d9566499025f03faa76f3/library/types/list1.lgt#L34">
<polygon fill="cornsilk" stroke="black" points="175.5,-95 99.5,-95 99.5,-59 175.5,-59 175.5,-95"/>
<text text-anchor="start" x="107.5" y="-79.8" font-family="Monospace" font-size="9.00"> </text>
<text text-anchor="start" x="113.5" y="-79.2" font-family="Monospace" font-size="11.00">valid/1</text>
<text text-anchor="start" x="161.5" y="-79.8" font-family="Monospace" font-size="9.00"> </text>
<text text-anchor="start" x="107.5" y="-68.8" font-family="Monospace" font-size="9.00"> </text>
<text text-anchor="start" x="126" y="-69.4" font-family="Monospace" font-size="7.00">local</text>
<text text-anchor="start" x="161.5" y="-68.8" font-family="Monospace" font-size="9.00"> </text>
</a>
</g>
</g>
<!-- check/1 -->
<g id="node2" class="node">
<title>check/1</title>
<g id="a_node2"><a xlink:href="https://github.com/LogtalkDotOrg/logtalk3/tree/86f3820ea33caae1de2d9566499025f03faa76f3/library/types/list1.lgt#L43" xlink:title="https://github.com/LogtalkDotOrg/logtalk3/tree/86f3820ea33caae1de2d9566499025f03faa76f3/library/types/list1.lgt#L43">
<polygon fill="cornsilk" stroke="black" points="175.5,-213 99.5,-213 99.5,-177 175.5,-177 175.5,-213"/>
<text text-anchor="start" x="107.5" y="-197.8" font-family="Monospace" font-size="9.00"> </text>
<text text-anchor="start" x="113.5" y="-197.2" font-family="Monospace" font-size="11.00">check/1</text>
<text text-anchor="start" x="161.5" y="-197.8" font-family="Monospace" font-size="9.00"> </text>
<text text-anchor="start" x="107.5" y="-186.8" font-family="Monospace" font-size="9.00"> </text>
<text text-anchor="start" x="126" y="-187.4" font-family="Monospace" font-size="7.00">local</text>
<text text-anchor="start" x="161.5" y="-186.8" font-family="Monospace" font-size="9.00"> </text>
</a>
</g>
</g>
<!-- check/1&#45;&gt;valid/1 -->
<g id="edge1" class="edge">
<title>check/1&#45;&gt;valid/1</title>
<g id="a_edge1"><a xlink:href="https://github.com/LogtalkDotOrg/logtalk3/tree/86f3820ea33caae1de2d9566499025f03faa76f3/library/types/list1.lgt#L43" xlink:title="calls">
<path fill="none" stroke="black" d="M137.5,-176.88C137.5,-158.04 137.5,-127.47 137.5,-105.3"/>
<polygon fill="black" stroke="black" points="141,-105.19 137.5,-95.19 134,-105.19 141,-105.19"/>
</a>
</g>
<g id="a_edge1&#45;label"><a xlink:href="https://github.com/LogtalkDotOrg/logtalk3/tree/86f3820ea33caae1de2d9566499025f03faa76f3/library/types/list1.lgt#L43" xlink:title="https://github.com/LogtalkDotOrg/logtalk3/tree/86f3820ea33caae1de2d9566499025f03faa76f3/library/types/list1.lgt#L43">
<text text-anchor="start" x="137.5" y="-133.8" font-family="Monospace" font-size="9.00">calls</text>
</a>
</g>
</g>
</g>
</svg>
