<?xml version="1.0" encoding="UTF-8" standalone="no"?>
<?xml-stylesheet href="diagrams.css" type="text/css"?>
<!DOCTYPE svg PUBLIC "-//W3C//DTD SVG 1.1//EN"
 "http://www.w3.org/Graphics/SVG/1.1/DTD/svg11.dtd">
<!-- Generated by graphviz version 10.0.1 (20240210.2158)
 -->
<!-- Title: list_1_object Pages: 1 -->
<svg width="426pt" height="411pt"
 viewBox="72.00 72.00 354.00 338.75" xmlns="http://www.w3.org/2000/svg" xmlns:xlink="http://www.w3.org/1999/xlink">
<g id="graph0" class="graph" transform="scale(1 1) rotate(0) translate(76 334.75)">
<title>list_1_object</title>
<polygon fill="white" stroke="none" points="-4,4 -4,-262.75 278,-262.75 278,4 -4,4"/>
<text text-anchor="start" x="8" y="-28.25" font-family="Monospace" font-size="10.00" fill="dimgray">Logtalk library</text>
<text text-anchor="start" x="8" y="-17" font-family="Monospace" font-size="10.00" fill="dimgray">Cross&#45;referencing diagram for object list/1</text>
<text text-anchor="start" x="8" y="-5.75" font-family="Monospace" font-size="10.00" fill="dimgray">Generated on 2024&#45;03&#45;20, 19:46</text>
<g id="clust1" class="cluster">
<title>cluster_list_1_object</title>
<g id="a_clust1"><a xlink:title="list(Type)">
<path fill="snow" stroke="dimgray" d="M102,-49.75C102,-49.75 172,-49.75 172,-49.75 178,-49.75 184,-55.75 184,-61.75 184,-61.75 184,-238.75 184,-238.75 184,-244.75 178,-250.75 172,-250.75 172,-250.75 102,-250.75 102,-250.75 96,-250.75 90,-244.75 90,-238.75 90,-238.75 90,-61.75 90,-61.75 90,-55.75 96,-49.75 102,-49.75"/>
<g id="a_clust1_0"><a xlink:href="https://github.com/LogtalkDotOrg/logtalk3/tree/4431351362275ba52e57abfa8b7b4541936d234d/library/types/list1.lgt" xlink:title="https://github.com/LogtalkDotOrg/logtalk3/tree/4431351362275ba52e57abfa8b7b4541936d234d/library/types/list1.lgt">
<text text-anchor="start" x="102" y="-233.25" font-family="Monospace" font-size="10.00" fill="dimgray">list(Type)</text>
</a>
</g>
</a>
</g>
</g>
<!-- valid/1 -->
<g id="node1" class="node">
<title>valid/1</title>
<g id="a_node1"><a xlink:href="https://github.com/LogtalkDotOrg/logtalk3/tree/4431351362275ba52e57abfa8b7b4541936d234d/library/types/list1.lgt#L34" xlink:title="https://github.com/LogtalkDotOrg/logtalk3/tree/4431351362275ba52e57abfa8b7b4541936d234d/library/types/list1.lgt#L34">
<polygon fill="cornsilk" stroke="black" points="173.5,-95.75 100.5,-95.75 100.5,-59.75 173.5,-59.75 173.5,-95.75"/>
<text text-anchor="start" x="108.38" y="-78.58" font-family="Monospace" font-size="9.00"> </text>
<text text-anchor="start" x="113.38" y="-77.8" font-family="Monospace" font-size="11.00">valid/1</text>
<text text-anchor="start" x="160.38" y="-78.58" font-family="Monospace" font-size="9.00"> </text>
<text text-anchor="start" x="108.38" y="-67.7" font-family="Monospace" font-size="9.00"> </text>
<text text-anchor="start" x="125.75" y="-69.22" font-family="Monospace" font-size="7.00">local</text>
<text text-anchor="start" x="160.38" y="-67.7" font-family="Monospace" font-size="9.00"> </text>
</a>
</g>
</g>
<!-- check/1 -->
<g id="node2" class="node">
<title>check/1</title>
<g id="a_node2"><a xlink:href="https://github.com/LogtalkDotOrg/logtalk3/tree/4431351362275ba52e57abfa8b7b4541936d234d/library/types/list1.lgt#L43" xlink:title="https://github.com/LogtalkDotOrg/logtalk3/tree/4431351362275ba52e57abfa8b7b4541936d234d/library/types/list1.lgt#L43">
<polygon fill="cornsilk" stroke="black" points="173.5,-213.5 100.5,-213.5 100.5,-177.5 173.5,-177.5 173.5,-213.5"/>
<text text-anchor="start" x="108.38" y="-196.32" font-family="Monospace" font-size="9.00"> </text>
<text text-anchor="start" x="113.38" y="-195.55" font-family="Monospace" font-size="11.00">check/1</text>
<text text-anchor="start" x="160.38" y="-196.32" font-family="Monospace" font-size="9.00"> </text>
<text text-anchor="start" x="108.38" y="-185.45" font-family="Monospace" font-size="9.00"> </text>
<text text-anchor="start" x="125.75" y="-186.97" font-family="Monospace" font-size="7.00">local</text>
<text text-anchor="start" x="160.38" y="-185.45" font-family="Monospace" font-size="9.00"> </text>
</a>
</g>
</g>
<!-- check/1&#45;&gt;valid/1 -->
<g id="edge1" class="edge">
<title>check/1&#45;&gt;valid/1</title>
<g id="a_edge1"><a xlink:href="https://github.com/LogtalkDotOrg/logtalk3/tree/4431351362275ba52e57abfa8b7b4541936d234d/library/types/list1.lgt#L43" xlink:title="calls">
<path fill="none" stroke="black" d="M137,-177.17C137,-158.76 137,-129.35 137,-107.46"/>
<polygon fill="black" stroke="black" points="140.5,-107.71 137,-97.71 133.5,-107.71 140.5,-107.71"/>
</a>
</g>
<g id="a_edge1&#45;label"><a xlink:href="https://github.com/LogtalkDotOrg/logtalk3/tree/4431351362275ba52e57abfa8b7b4541936d234d/library/types/list1.lgt#L43" xlink:title="https://github.com/LogtalkDotOrg/logtalk3/tree/4431351362275ba52e57abfa8b7b4541936d234d/library/types/list1.lgt#L43">
<text text-anchor="start" x="137" y="-132.95" font-family="Monospace" font-size="9.00">calls</text>
</a>
</g>
</g>
</g>
</svg>
