<?xml version="1.0" encoding="UTF-8" standalone="no"?>
<?xml-stylesheet href="diagrams.css" type="text/css"?>
<!DOCTYPE svg PUBLIC "-//W3C//DTD SVG 1.1//EN"
 "http://www.w3.org/Graphics/SVG/1.1/DTD/svg11.dtd">
<!-- Generated by graphviz version 2.49.4~dev.20211124.1647 (20211124.1647)
 -->
<!-- Title: list_1_object Pages: 1 -->
<svg width="383pt" height="410pt"
 viewBox="72.00 72.00 311.00 338.00" xmlns="http://www.w3.org/2000/svg" xmlns:xlink="http://www.w3.org/1999/xlink">
<g id="graph0" class="graph" transform="scale(1 1) rotate(0) translate(76 334)">
<title>list_1_object</title>
<polygon fill="white" stroke="transparent" points="-4,4 -4,-262 235,-262 235,4 -4,4"/>
<text text-anchor="start" x="8" y="-29" font-family="Courier,monospace" font-size="10.00" fill="dimgray">Logtalk library</text>
<text text-anchor="start" x="8" y="-18" font-family="Courier,monospace" font-size="10.00" fill="dimgray">Cross&#45;referencing diagram for object list/1</text>
<text text-anchor="start" x="8" y="-7" font-family="Courier,monospace" font-size="10.00" fill="dimgray">Generated on 2021&#45;11&#45;24, 21:25</text>
<g id="clust1" class="cluster">
<title>cluster_list_1_object</title>
<g id="a_clust1"><a xlink:title="list(Type)">
<path fill="snow" stroke="dimgray" d="M84.5,-49C84.5,-49 146.5,-49 146.5,-49 152.5,-49 158.5,-55 158.5,-61 158.5,-61 158.5,-238 158.5,-238 158.5,-244 152.5,-250 146.5,-250 146.5,-250 84.5,-250 84.5,-250 78.5,-250 72.5,-244 72.5,-238 72.5,-238 72.5,-61 72.5,-61 72.5,-55 78.5,-49 84.5,-49"/>
<g id="a_clust1_0"><a xlink:href="https://github.com/LogtalkDotOrg/logtalk3/tree/1450dd2e30cbc83199a0162ba485cb2893d77c37/library/types/list1.lgt" xlink:title="https://github.com/LogtalkDotOrg/logtalk3/tree/1450dd2e30cbc83199a0162ba485cb2893d77c37/library/types/list1.lgt">
<text text-anchor="start" x="84.5" y="-233.5" font-family="Courier,monospace" font-size="10.00" fill="dimgray">list(Type)</text>
</a>
</g>
</a>
</g>
</g>
<!-- valid/1 -->
<g id="node1" class="node">
<title>valid/1</title>
<g id="a_node1"><a xlink:href="https://github.com/LogtalkDotOrg/logtalk3/tree/1450dd2e30cbc83199a0162ba485cb2893d77c37/library/types/list1.lgt#L34" xlink:title="https://github.com/LogtalkDotOrg/logtalk3/tree/1450dd2e30cbc83199a0162ba485cb2893d77c37/library/types/list1.lgt#L34">
<polygon fill="cornsilk" stroke="black" points="148,-95 83,-95 83,-59 148,-59 148,-95"/>
<text text-anchor="start" x="91.5" y="-79.8" font-family="Courier,monospace" font-size="9.00"> </text>
<text text-anchor="start" x="96.5" y="-79.2" font-family="Courier,monospace" font-size="11.00">valid/1</text>
<text text-anchor="start" x="135.5" y="-79.8" font-family="Courier,monospace" font-size="9.00"> </text>
<text text-anchor="start" x="91.5" y="-68.8" font-family="Courier,monospace" font-size="9.00"> </text>
<text text-anchor="start" x="107" y="-69.4" font-family="Courier,monospace" font-size="7.00">local</text>
<text text-anchor="start" x="135.5" y="-68.8" font-family="Courier,monospace" font-size="9.00"> </text>
</a>
</g>
</g>
<!-- check/1 -->
<g id="node2" class="node">
<title>check/1</title>
<g id="a_node2"><a xlink:href="https://github.com/LogtalkDotOrg/logtalk3/tree/1450dd2e30cbc83199a0162ba485cb2893d77c37/library/types/list1.lgt#L43" xlink:title="https://github.com/LogtalkDotOrg/logtalk3/tree/1450dd2e30cbc83199a0162ba485cb2893d77c37/library/types/list1.lgt#L43">
<polygon fill="cornsilk" stroke="black" points="148,-213 83,-213 83,-177 148,-177 148,-213"/>
<text text-anchor="start" x="91.5" y="-197.8" font-family="Courier,monospace" font-size="9.00"> </text>
<text text-anchor="start" x="96.5" y="-197.2" font-family="Courier,monospace" font-size="11.00">check/1</text>
<text text-anchor="start" x="135.5" y="-197.8" font-family="Courier,monospace" font-size="9.00"> </text>
<text text-anchor="start" x="91.5" y="-186.8" font-family="Courier,monospace" font-size="9.00"> </text>
<text text-anchor="start" x="107" y="-187.4" font-family="Courier,monospace" font-size="7.00">local</text>
<text text-anchor="start" x="135.5" y="-186.8" font-family="Courier,monospace" font-size="9.00"> </text>
</a>
</g>
</g>
<!-- check/1&#45;&gt;valid/1 -->
<g id="edge1" class="edge">
<title>check/1&#45;&gt;valid/1</title>
<g id="a_edge1"><a xlink:href="https://github.com/LogtalkDotOrg/logtalk3/tree/1450dd2e30cbc83199a0162ba485cb2893d77c37/library/types/list1.lgt#L43" xlink:title="calls">
<path fill="none" stroke="black" d="M115.5,-176.88C115.5,-158.04 115.5,-127.47 115.5,-105.3"/>
<polygon fill="black" stroke="black" points="119,-105.19 115.5,-95.19 112,-105.19 119,-105.19"/>
</a>
</g>
<g id="a_edge1&#45;label"><a xlink:href="https://github.com/LogtalkDotOrg/logtalk3/tree/1450dd2e30cbc83199a0162ba485cb2893d77c37/library/types/list1.lgt#L43" xlink:title="https://github.com/LogtalkDotOrg/logtalk3/tree/1450dd2e30cbc83199a0162ba485cb2893d77c37/library/types/list1.lgt#L43">
<text text-anchor="start" x="115.5" y="-133.8" font-family="Courier,monospace" font-size="9.00">calls</text>
</a>
</g>
</g>
</g>
</svg>
