<?xml version="1.0" encoding="UTF-8" standalone="no"?>
<!DOCTYPE svg PUBLIC "-//W3C//DTD SVG 1.1//EN"
 "http://www.w3.org/Graphics/SVG/1.1/DTD/svg11.dtd">
<!-- Generated by graphviz version 2.40.1 (20161225.0304)
 -->
<!-- Title: list_1_object Pages: 1 -->
<svg width="349pt" height="514pt"
 viewBox="72.00 72.00 277.00 441.85" xmlns="http://www.w3.org/2000/svg" xmlns:xlink="http://www.w3.org/1999/xlink">
<g id="graph0" class="graph" transform="scale(1 1) rotate(0) translate(76 437.8528)">
<title>list_1_object</title>
<polygon fill="#ffffff" stroke="transparent" points="-4,4 -4,-365.8528 201,-365.8528 201,4 -4,4"/>
<text text-anchor="start" x="8" y="-18" font-family="Courier,monospace" font-size="10.00" fill="#8b8989">Logtalk library</text>
<text text-anchor="start" x="8" y="-7" font-family="Courier,monospace" font-size="10.00" fill="#8b8989">Generated on 2019/04/12, 21:30</text>
<g id="clust1" class="cluster">
<title>cluster_list_1_object</title>
<g id="a_clust1"><a xlink:href="https://github.com/LogtalkDotOrg/logtalk3/tree/master/library/list1.lgt" xlink:title="https://github.com/LogtalkDotOrg/logtalk3/tree/master/library/list1.lgt">
<path fill="#fffafa" stroke="#8b8989" d="M47.5,-38C47.5,-38 149.5,-38 149.5,-38 155.5,-38 161.5,-44 161.5,-50 161.5,-50 161.5,-341.8528 161.5,-341.8528 161.5,-347.8528 155.5,-353.8528 149.5,-353.8528 149.5,-353.8528 47.5,-353.8528 47.5,-353.8528 41.5,-353.8528 35.5,-347.8528 35.5,-341.8528 35.5,-341.8528 35.5,-50 35.5,-50 35.5,-44 41.5,-38 47.5,-38"/>
<text text-anchor="middle" x="74" y="-341.8528" font-family="Courier,monospace" font-size="10.00" fill="#8b8989">list(Type)</text>
</a>
</g>
</g>
<!-- valid/1 -->
<g id="node1" class="node">
<title>valid/1</title>
<g id="a_node1"><a xlink:href="https://github.com/LogtalkDotOrg/logtalk3/tree/master/library/list1.lgt#L33" xlink:title="https://github.com/LogtalkDotOrg/logtalk3/tree/master/library/list1.lgt#L33">
<ellipse fill="#f5f5dc" stroke="#000000" cx="98.5" cy="-69.2132" rx="53.066" ry="21.4286"/>
<text text-anchor="start" x="69.5" y="-72.0132" font-family="Courier,monospace" font-size="9.00" fill="#000000"> </text>
<text text-anchor="start" x="75.5" y="-71.4132" font-family="Courier,monospace" font-size="11.00" fill="#000000">valid/1</text>
<text text-anchor="start" x="122.5" y="-72.0132" font-family="Courier,monospace" font-size="9.00" fill="#000000"> </text>
<text text-anchor="start" x="69.5" y="-61.0132" font-family="Courier,monospace" font-size="9.00" fill="#000000"> </text>
<text text-anchor="start" x="88" y="-61.6132" font-family="Courier,monospace" font-size="7.00" fill="#000000">local</text>
<text text-anchor="start" x="122.5" y="-61.0132" font-family="Courier,monospace" font-size="9.00" fill="#000000"> </text>
</a>
</g>
</g>
<!-- check/1 -->
<g id="node2" class="node">
<title>check/1</title>
<g id="a_node2"><a xlink:href="https://github.com/LogtalkDotOrg/logtalk3/tree/master/library/list1.lgt#L42" xlink:title="https://github.com/LogtalkDotOrg/logtalk3/tree/master/library/list1.lgt#L42">
<ellipse fill="#f5f5dc" stroke="#000000" cx="98.5" cy="-303.6396" rx="53.066" ry="21.4286"/>
<text text-anchor="start" x="69.5" y="-306.4396" font-family="Courier,monospace" font-size="9.00" fill="#000000"> </text>
<text text-anchor="start" x="75.5" y="-305.8396" font-family="Courier,monospace" font-size="11.00" fill="#000000">check/1</text>
<text text-anchor="start" x="122.5" y="-306.4396" font-family="Courier,monospace" font-size="9.00" fill="#000000"> </text>
<text text-anchor="start" x="69.5" y="-295.4396" font-family="Courier,monospace" font-size="9.00" fill="#000000"> </text>
<text text-anchor="start" x="88" y="-296.0396" font-family="Courier,monospace" font-size="7.00" fill="#000000">local</text>
<text text-anchor="start" x="122.5" y="-295.4396" font-family="Courier,monospace" font-size="9.00" fill="#000000"> </text>
</a>
</g>
</g>
<!-- check/1&#45;&gt;valid/1 -->
<g id="edge1" class="edge">
<title>check/1&#45;&gt;valid/1</title>
<g id="a_edge1"><a xlink:href="https://github.com/LogtalkDotOrg/logtalk3/tree/master/library/list1.lgt#L42" xlink:title="calls">
<path fill="none" stroke="#000000" d="M98.5,-282.4224C98.5,-241.5549 98.5,-151.638 98.5,-102.642"/>
<polygon fill="#000000" stroke="#000000" points="98.5001,-102.5514 94.5,-96.5514 98.5,-90.5514 98.5001,-102.5514"/>
</a>
</g>
<g id="a_edge1&#45;label"><a xlink:href="https://github.com/LogtalkDotOrg/logtalk3/tree/master/library/list1.lgt#L42" xlink:title="https://github.com/LogtalkDotOrg/logtalk3/tree/master/library/list1.lgt#L42">
<text text-anchor="start" x="98.5" y="-184.2264" font-family="Courier,monospace" font-size="9.00" fill="#000000">calls</text>
</a>
</g>
</g>
</g>
</svg>
