<?xml version="1.0" encoding="UTF-8" standalone="no"?>
<!DOCTYPE svg PUBLIC "-//W3C//DTD SVG 1.1//EN"
 "http://www.w3.org/Graphics/SVG/1.1/DTD/svg11.dtd">
<!-- Generated by graphviz version 2.40.1 (20161225.0304)
 -->
<!-- Title: magic_object Pages: 1 -->
<svg width="606pt" height="748pt"
 viewBox="72.00 72.00 534.00 676.28" xmlns="http://www.w3.org/2000/svg" xmlns:xlink="http://www.w3.org/1999/xlink">
<g id="graph0" class="graph" transform="scale(1 1) rotate(0) translate(76 672.2792)">
<title>magic_object</title>
<polygon fill="#ffffff" stroke="transparent" points="-4,4 -4,-600.2792 458,-600.2792 458,4 -4,4"/>
<text text-anchor="start" x="8" y="-18" font-family="Courier,monospace" font-size="10.00" fill="#8b8989">Logtalk third&#45;party contributions</text>
<text text-anchor="start" x="8" y="-7" font-family="Courier,monospace" font-size="10.00" fill="#8b8989">Generated on 2019/04/08, 18:41</text>
<g id="clust1" class="cluster">
<title>cluster_magic_object</title>
<g id="a_clust1"><a xlink:href="https://github.com/LogtalkDotOrg/logtalk3/tree/master/contributions/verdi_neruda/magic.lgt" xlink:title="https://github.com/LogtalkDotOrg/logtalk3/tree/master/contributions/verdi_neruda/magic.lgt">
<path fill="#fffafa" stroke="#8b8989" d="M20,-38C20,-38 434,-38 434,-38 440,-38 446,-44 446,-50 446,-50 446,-576.2792 446,-576.2792 446,-582.2792 440,-588.2792 434,-588.2792 434,-588.2792 20,-588.2792 20,-588.2792 14,-588.2792 8,-582.2792 8,-576.2792 8,-576.2792 8,-50 8,-50 8,-44 14,-38 20,-38"/>
<text text-anchor="middle" x="31.5" y="-576.2792" font-family="Courier,monospace" font-size="10.00" fill="#8b8989">magic</text>
</a>
</g>
</g>
<g id="clust2" class="cluster">
<title>cluster_other</title>
<g id="a_clust2"><a xlink:title="(external predicates)">
<path fill="#ffffff" stroke="#8b8989" d="M256,-272.4264C256,-272.4264 424,-272.4264 424,-272.4264 430,-272.4264 436,-278.4264 436,-284.4264 436,-284.4264 436,-341.8528 436,-341.8528 436,-347.8528 430,-353.8528 424,-353.8528 424,-353.8528 256,-353.8528 256,-353.8528 250,-353.8528 244,-347.8528 244,-341.8528 244,-341.8528 244,-284.4264 244,-284.4264 244,-278.4264 250,-272.4264 256,-272.4264"/>
<text text-anchor="middle" x="315.5" y="-341.8528" font-family="Courier,monospace" font-size="10.00" fill="#8b8989">(external predicates)</text>
</a>
</g>
</g>
<!-- magicise/4 -->
<g id="node1" class="node">
<title>magicise/4</title>
<g id="a_node1"><a xlink:href="https://logtalk.org/library/magic_0.html#magicise/4" xlink:title="https://logtalk.org/library/magic_0.html#magicise/4">
<ellipse fill="#00ff7f" stroke="#000000" cx="158" cy="-538.066" rx="67.3507" ry="21.4286"/>
<text text-anchor="start" x="119" y="-540.866" font-family="Courier,monospace" font-size="9.00" fill="#000000"> </text>
<text text-anchor="start" x="125" y="-540.266" font-family="Courier,monospace" font-size="11.00" fill="#000000">magicise/4</text>
<text text-anchor="start" x="192" y="-540.866" font-family="Courier,monospace" font-size="9.00" fill="#000000"> </text>
<text text-anchor="start" x="119" y="-529.866" font-family="Courier,monospace" font-size="9.00" fill="#000000"> </text>
<text text-anchor="start" x="145.5" y="-530.466" font-family="Courier,monospace" font-size="7.00" fill="#000000">public</text>
<text text-anchor="start" x="192" y="-529.866" font-family="Courier,monospace" font-size="9.00" fill="#000000"> </text>
</a>
</g>
</g>
<!-- magic/2 -->
<g id="node2" class="node">
<title>magic/2</title>
<g id="a_node2"><a xlink:href="https://logtalk.org/library/magic_0.html#magic/2" xlink:title="https://logtalk.org/library/magic_0.html#magic/2">
<ellipse fill="#00ff7f" stroke="#000000" cx="93" cy="-69.2132" rx="53.066" ry="21.4286"/>
<text text-anchor="start" x="64" y="-72.0132" font-family="Courier,monospace" font-size="9.00" fill="#000000"> </text>
<text text-anchor="start" x="70" y="-71.4132" font-family="Courier,monospace" font-size="11.00" fill="#000000">magic/2</text>
<text text-anchor="start" x="117" y="-72.0132" font-family="Courier,monospace" font-size="9.00" fill="#000000"> </text>
<text text-anchor="start" x="64" y="-61.0132" font-family="Courier,monospace" font-size="9.00" fill="#000000"> </text>
<text text-anchor="start" x="80.5" y="-61.6132" font-family="Courier,monospace" font-size="7.00" fill="#000000">public</text>
<text text-anchor="start" x="117" y="-61.0132" font-family="Courier,monospace" font-size="9.00" fill="#000000"> </text>
</a>
</g>
</g>
<!-- magicise/4&#45;&gt;magic/2 -->
<g id="edge1" class="edge">
<title>magicise/4&#45;&gt;magic/2</title>
<g id="a_edge1"><a xlink:href="https://github.com/LogtalkDotOrg/logtalk3/tree/master/contributions/verdi_neruda/magic.lgt#L25" xlink:title="calls">
<path fill="none" stroke="#000000" d="M119.063,-520.6274C83.3589,-501.6728 36,-467.7013 36,-420.8528 36,-420.8528 36,-420.8528 36,-186.4264 36,-154.39 53.4336,-121.9384 69.0179,-99.3293"/>
<polygon fill="#000000" stroke="#000000" points="69.1838,-99.0993 69.4516,-91.8932 76.2064,-89.3687 69.1838,-99.0993"/>
</a>
</g>
<g id="a_edge1&#45;label"><a xlink:href="https://github.com/LogtalkDotOrg/logtalk3/tree/master/contributions/verdi_neruda/magic.lgt#L25" xlink:title="https://github.com/LogtalkDotOrg/logtalk3/tree/master/contributions/verdi_neruda/magic.lgt#L25">
<text text-anchor="start" x="36" y="-301.4396" font-family="Courier,monospace" font-size="9.00" fill="#000000">calls</text>
</a>
</g>
</g>
<!-- magic_head/2 -->
<g id="node3" class="node">
<title>magic_head/2</title>
<ellipse fill="#f5f5dc" stroke="#000000" cx="158" cy="-303.6396" rx="76.2353" ry="21.4286"/>
<text text-anchor="start" x="112" y="-306.4396" font-family="Courier,monospace" font-size="9.00" fill="#000000"> </text>
<text text-anchor="start" x="118" y="-305.8396" font-family="Courier,monospace" font-size="11.00" fill="#000000">magic_head/2</text>
<text text-anchor="start" x="198" y="-306.4396" font-family="Courier,monospace" font-size="9.00" fill="#000000"> </text>
<text text-anchor="start" x="112" y="-295.4396" font-family="Courier,monospace" font-size="9.00" fill="#000000"> </text>
<text text-anchor="start" x="147" y="-296.0396" font-family="Courier,monospace" font-size="7.00" fill="#000000">local</text>
<text text-anchor="start" x="198" y="-295.4396" font-family="Courier,monospace" font-size="9.00" fill="#000000"> </text>
</g>
<!-- magicise/4&#45;&gt;magic_head/2 -->
<g id="edge2" class="edge">
<title>magicise/4&#45;&gt;magic_head/2</title>
<g id="a_edge2"><a xlink:href="https://github.com/LogtalkDotOrg/logtalk3/tree/master/contributions/verdi_neruda/magic.lgt#L27" xlink:title="calls">
<path fill="none" stroke="#000000" d="M158,-516.8488C158,-475.9813 158,-386.0644 158,-337.0684"/>
<polygon fill="#000000" stroke="#000000" points="158.0001,-336.9778 154,-330.9778 158,-324.9778 158.0001,-336.9778"/>
</a>
</g>
<g id="a_edge2&#45;label"><a xlink:href="https://github.com/LogtalkDotOrg/logtalk3/tree/master/contributions/verdi_neruda/magic.lgt#L27" xlink:title="https://github.com/LogtalkDotOrg/logtalk3/tree/master/contributions/verdi_neruda/magic.lgt#L27">
<text text-anchor="start" x="158" y="-418.6528" font-family="Courier,monospace" font-size="9.00" fill="#000000">calls</text>
</a>
</g>
</g>
<!-- list::append/3 -->
<g id="node4" class="node">
<title>list::append/3</title>
<g id="a_node4"><a xlink:href="https://logtalk.org/library/list_0.html#append/3" xlink:title="https://logtalk.org/library/list_0.html#append/3">
<ellipse fill="#d3d3d3" stroke="#000000" stroke-dasharray="5,2" cx="340" cy="-303.6396" rx="85.6199" ry="21.4286"/>
<text text-anchor="start" x="288" y="-306.4396" font-family="Courier,monospace" font-size="9.00" fill="#000000"> </text>
<text text-anchor="start" x="294" y="-305.8396" font-family="Courier,monospace" font-size="11.00" fill="#000000">list::append/3</text>
<text text-anchor="start" x="387" y="-306.4396" font-family="Courier,monospace" font-size="9.00" fill="#000000"> </text>
<text text-anchor="start" x="288" y="-295.4396" font-family="Courier,monospace" font-size="9.00" fill="#000000"> </text>
<text text-anchor="start" x="323.5" y="-296.0396" font-family="Courier,monospace" font-size="7.00" fill="#000000">external</text>
<text text-anchor="start" x="387" y="-295.4396" font-family="Courier,monospace" font-size="9.00" fill="#000000"> </text>
</a>
</g>
</g>
<!-- magicise/4&#45;&gt;list::append/3 -->
<g id="edge4" class="edge">
<title>magicise/4&#45;&gt;list::append/3</title>
<g id="a_edge4"><a xlink:href="https://github.com/LogtalkDotOrg/logtalk3/tree/master/contributions/verdi_neruda/magic.lgt#L27" xlink:title="calls">
<path fill="none" stroke="#000000" d="M174.1513,-517.2622C206.3142,-475.8346 278.5015,-382.8532 316.1423,-334.3696"/>
<polygon fill="#000000" stroke="#000000" points="316.2643,-334.2125 316.7842,-327.0201 323.6233,-324.7338 316.2643,-334.2125"/>
</a>
</g>
<g id="a_edge4&#45;label"><a xlink:href="https://github.com/LogtalkDotOrg/logtalk3/tree/master/contributions/verdi_neruda/magic.lgt#L27" xlink:title="https://github.com/LogtalkDotOrg/logtalk3/tree/master/contributions/verdi_neruda/magic.lgt#L27">
<text text-anchor="start" x="252" y="-418.6528" font-family="Courier,monospace" font-size="9.00" fill="#000000">calls</text>
</a>
</g>
</g>
<!-- magic_head/2&#45;&gt;magic/2 -->
<g id="edge3" class="edge">
<title>magic_head/2&#45;&gt;magic/2</title>
<g id="a_edge3"><a xlink:href="https://github.com/LogtalkDotOrg/logtalk3/tree/master/contributions/verdi_neruda/magic.lgt#L36" xlink:title="calls">
<path fill="none" stroke="#000000" d="M152.117,-282.4224C140.7615,-241.468 115.748,-151.2551 102.1823,-102.3298"/>
<polygon fill="#000000" stroke="#000000" points="102.1229,-102.1151 96.6651,-97.4021 98.9165,-90.5514 102.1229,-102.1151"/>
</a>
</g>
<g id="a_edge3&#45;label"><a xlink:href="https://github.com/LogtalkDotOrg/logtalk3/tree/master/contributions/verdi_neruda/magic.lgt#L36" xlink:title="https://github.com/LogtalkDotOrg/logtalk3/tree/master/contributions/verdi_neruda/magic.lgt#L36">
<text text-anchor="start" x="126" y="-184.2264" font-family="Courier,monospace" font-size="9.00" fill="#000000">calls</text>
</a>
</g>
</g>
</g>
</svg>
