<?xml version="1.0" encoding="UTF-8" standalone="no"?>
<?xml-stylesheet href="diagrams.css" type="text/css"?>
<!DOCTYPE svg PUBLIC "-//W3C//DTD SVG 1.1//EN"
 "http://www.w3.org/Graphics/SVG/1.1/DTD/svg11.dtd">
<!-- Generated by graphviz version 2.49.3 (20211023.0002)
 -->
<!-- Title: metagol_example_protocol_protocol Pages: 1 -->
<svg width="483pt" height="292pt"
 viewBox="72.00 72.00 411.00 220.00" xmlns="http://www.w3.org/2000/svg" xmlns:xlink="http://www.w3.org/1999/xlink">
<g id="graph0" class="graph" transform="scale(1 1) rotate(0) translate(76 216)">
<title>metagol_example_protocol_protocol</title>
<polygon fill="white" stroke="transparent" points="-4,4 -4,-144 335,-144 335,4 -4,4"/>
<text text-anchor="start" x="8" y="-29" font-family="Courier,monospace" font-size="10.00" fill="dimgray">Logtalk ports of third&#45;party software</text>
<text text-anchor="start" x="8" y="-18" font-family="Courier,monospace" font-size="10.00" fill="dimgray">Cross&#45;referencing diagram for protocol metagol_example_protocol</text>
<text text-anchor="start" x="8" y="-7" font-family="Courier,monospace" font-size="10.00" fill="dimgray">Generated on 2021&#45;11&#45;13, 18:29</text>
<g id="clust1" class="cluster">
<title>cluster_metagol_example_protocol_protocol</title>
<g id="a_clust1"><a xlink:title="metagol_example_protocol">
<path fill="snow" stroke="dimgray" d="M93,-49C93,-49 238,-49 238,-49 244,-49 250,-55 250,-61 250,-61 250,-120 250,-120 250,-126 244,-132 238,-132 238,-132 93,-132 93,-132 87,-132 81,-126 81,-120 81,-120 81,-61 81,-61 81,-55 87,-49 93,-49"/>
<g id="a_clust1_0"><a xlink:href="https://github.com/LogtalkDotOrg/logtalk3/tree/9faf5dbd41dcda13eefe9bff6f1dfa22e6d84b6c/ports/metagol/metagol_example_protocol.lgt" xlink:title="https://github.com/LogtalkDotOrg/logtalk3/tree/9faf5dbd41dcda13eefe9bff6f1dfa22e6d84b6c/ports/metagol/metagol_example_protocol.lgt">
<text text-anchor="start" x="93" y="-115.5" font-family="Courier,monospace" font-size="10.00" fill="dimgray">metagol_example_protocol</text>
</a>
</g>
</a>
</g>
</g>
<!-- learn/1 -->
<g id="node1" class="node">
<title>learn/1</title>
<g id="a_node1"><a xlink:href="https://github.com/LogtalkDotOrg/logtalk3/tree/9faf5dbd41dcda13eefe9bff6f1dfa22e6d84b6c/ports/metagol/metagol_example_protocol.lgt#L48" xlink:title="https://github.com/LogtalkDotOrg/logtalk3/tree/9faf5dbd41dcda13eefe9bff6f1dfa22e6d84b6c/ports/metagol/metagol_example_protocol.lgt#L48">
<polygon fill="springgreen" stroke="black" points="239.5,-95 174.5,-95 174.5,-59 239.5,-59 239.5,-95"/>
<text text-anchor="start" x="183" y="-79.8" font-family="Courier,monospace" font-size="9.00"> </text>
<text text-anchor="start" x="188" y="-79.2" font-family="Courier,monospace" font-size="11.00">learn/1</text>
<text text-anchor="start" x="227" y="-79.8" font-family="Courier,monospace" font-size="9.00"> </text>
<text text-anchor="start" x="183" y="-68.8" font-family="Courier,monospace" font-size="9.00"> </text>
<text text-anchor="start" x="197" y="-69.4" font-family="Courier,monospace" font-size="7.00">public</text>
<text text-anchor="start" x="227" y="-68.8" font-family="Courier,monospace" font-size="9.00"> </text>
</a>
</g>
</g>
<!-- learn/0 -->
<g id="node2" class="node">
<title>learn/0</title>
<g id="a_node2"><a xlink:href="https://github.com/LogtalkDotOrg/logtalk3/tree/9faf5dbd41dcda13eefe9bff6f1dfa22e6d84b6c/ports/metagol/metagol_example_protocol.lgt#L55" xlink:title="https://github.com/LogtalkDotOrg/logtalk3/tree/9faf5dbd41dcda13eefe9bff6f1dfa22e6d84b6c/ports/metagol/metagol_example_protocol.lgt#L55">
<polygon fill="springgreen" stroke="black" points="156.5,-95 91.5,-95 91.5,-59 156.5,-59 156.5,-95"/>
<text text-anchor="start" x="100" y="-79.8" font-family="Courier,monospace" font-size="9.00"> </text>
<text text-anchor="start" x="105" y="-79.2" font-family="Courier,monospace" font-size="11.00">learn/0</text>
<text text-anchor="start" x="144" y="-79.8" font-family="Courier,monospace" font-size="9.00"> </text>
<text text-anchor="start" x="100" y="-68.8" font-family="Courier,monospace" font-size="9.00"> </text>
<text text-anchor="start" x="114" y="-69.4" font-family="Courier,monospace" font-size="7.00">public</text>
<text text-anchor="start" x="144" y="-68.8" font-family="Courier,monospace" font-size="9.00"> </text>
</a>
</g>
</g>
</g>
</svg>
