<?xml version="1.0" encoding="UTF-8" standalone="no"?>
<?xml-stylesheet href="diagrams.css" type="text/css"?>
<!DOCTYPE svg PUBLIC "-//W3C//DTD SVG 1.1//EN"
 "http://www.w3.org/Graphics/SVG/1.1/DTD/svg11.dtd">
<!-- Generated by graphviz version 2.50.0 (20211204.2007)
 -->
<!-- Title: metagol_example_protocol_protocol Pages: 1 -->
<svg width="547pt" height="292pt"
 viewBox="72.00 72.00 475.00 220.00" xmlns="http://www.w3.org/2000/svg" xmlns:xlink="http://www.w3.org/1999/xlink">
<g id="graph0" class="graph" transform="scale(1 1) rotate(0) translate(76 216)">
<title>metagol_example_protocol_protocol</title>
<polygon fill="white" stroke="transparent" points="-4,4 -4,-144 399,-144 399,4 -4,4"/>
<text text-anchor="start" x="8" y="-29" font-family="Monospace" font-size="10.00" fill="dimgray">Logtalk ports of third&#45;party software</text>
<text text-anchor="start" x="8" y="-18" font-family="Monospace" font-size="10.00" fill="dimgray">Cross&#45;referencing diagram for protocol metagol_example_protocol</text>
<text text-anchor="start" x="8" y="-7" font-family="Monospace" font-size="10.00" fill="dimgray">Generated on 2022&#45;06&#45;21, 14:25</text>
<g id="clust1" class="cluster">
<title>cluster_metagol_example_protocol_protocol</title>
<g id="a_clust1"><a xlink:title="metagol_example_protocol">
<path fill="snow" stroke="dimgray" d="M114.5,-49C114.5,-49 280.5,-49 280.5,-49 286.5,-49 292.5,-55 292.5,-61 292.5,-61 292.5,-120 292.5,-120 292.5,-126 286.5,-132 280.5,-132 280.5,-132 114.5,-132 114.5,-132 108.5,-132 102.5,-126 102.5,-120 102.5,-120 102.5,-61 102.5,-61 102.5,-55 108.5,-49 114.5,-49"/>
<g id="a_clust1_0"><a xlink:href="https://github.com/LogtalkDotOrg/logtalk3/tree/b364ac5c27a38a493325e03f615ff0c83bf660b4/ports/metagol/metagol_example_protocol.lgt" xlink:title="https://github.com/LogtalkDotOrg/logtalk3/tree/b364ac5c27a38a493325e03f615ff0c83bf660b4/ports/metagol/metagol_example_protocol.lgt">
<text text-anchor="start" x="115" y="-115.5" font-family="Monospace" font-size="10.00" fill="dimgray">metagol_example_protocol</text>
</a>
</g>
</a>
</g>
</g>
<!-- learn/1 -->
<g id="node1" class="node">
<title>learn/1</title>
<g id="a_node1"><a xlink:href="https://github.com/LogtalkDotOrg/logtalk3/tree/b364ac5c27a38a493325e03f615ff0c83bf660b4/ports/metagol/metagol_example_protocol.lgt#L48" xlink:title="https://github.com/LogtalkDotOrg/logtalk3/tree/b364ac5c27a38a493325e03f615ff0c83bf660b4/ports/metagol/metagol_example_protocol.lgt#L48">
<polygon fill="springgreen" stroke="black" points="282.5,-95 206.5,-95 206.5,-59 282.5,-59 282.5,-95"/>
<text text-anchor="start" x="214.5" y="-79.8" font-family="Monospace" font-size="9.00"> </text>
<text text-anchor="start" x="220.5" y="-79.2" font-family="Monospace" font-size="11.00">learn/1</text>
<text text-anchor="start" x="268.5" y="-79.8" font-family="Monospace" font-size="9.00"> </text>
<text text-anchor="start" x="214.5" y="-68.8" font-family="Monospace" font-size="9.00"> </text>
<text text-anchor="start" x="230.5" y="-69.4" font-family="Monospace" font-size="7.00">public</text>
<text text-anchor="start" x="268.5" y="-68.8" font-family="Monospace" font-size="9.00"> </text>
</a>
</g>
</g>
<!-- learn/0 -->
<g id="node2" class="node">
<title>learn/0</title>
<g id="a_node2"><a xlink:href="https://github.com/LogtalkDotOrg/logtalk3/tree/b364ac5c27a38a493325e03f615ff0c83bf660b4/ports/metagol/metagol_example_protocol.lgt#L55" xlink:title="https://github.com/LogtalkDotOrg/logtalk3/tree/b364ac5c27a38a493325e03f615ff0c83bf660b4/ports/metagol/metagol_example_protocol.lgt#L55">
<polygon fill="springgreen" stroke="black" points="188.5,-95 112.5,-95 112.5,-59 188.5,-59 188.5,-95"/>
<text text-anchor="start" x="120.5" y="-79.8" font-family="Monospace" font-size="9.00"> </text>
<text text-anchor="start" x="126.5" y="-79.2" font-family="Monospace" font-size="11.00">learn/0</text>
<text text-anchor="start" x="174.5" y="-79.8" font-family="Monospace" font-size="9.00"> </text>
<text text-anchor="start" x="120.5" y="-68.8" font-family="Monospace" font-size="9.00"> </text>
<text text-anchor="start" x="136.5" y="-69.4" font-family="Monospace" font-size="7.00">public</text>
<text text-anchor="start" x="174.5" y="-68.8" font-family="Monospace" font-size="9.00"> </text>
</a>
</g>
</g>
</g>
</svg>
