<?xml version="1.0" encoding="UTF-8" standalone="no"?>
<?xml-stylesheet href="diagrams.css" type="text/css"?>
<!DOCTYPE svg PUBLIC "-//W3C//DTD SVG 1.1//EN"
 "http://www.w3.org/Graphics/SVG/1.1/DTD/svg11.dtd">
<!-- Generated by graphviz version 2.49.3 (20211023.0002)
 -->
<!-- Title: metagol_example_protocol_protocol Pages: 1 -->
<svg width="547pt" height="292pt"
 viewBox="72.00 72.00 475.00 220.00" xmlns="http://www.w3.org/2000/svg" xmlns:xlink="http://www.w3.org/1999/xlink">
<g id="graph0" class="graph" transform="scale(1 1) rotate(0) translate(76 216)">
<title>metagol_example_protocol_protocol</title>
<polygon fill="white" stroke="transparent" points="-4,4 -4,-144 399,-144 399,4 -4,4"/>
<text text-anchor="start" x="8" y="-29" font-family="Monospace" font-size="10.00" fill="dimgray">Logtalk ports of third&#45;party software</text>
<text text-anchor="start" x="8" y="-18" font-family="Monospace" font-size="10.00" fill="dimgray">Cross&#45;referencing diagram for protocol metagol_example_protocol</text>
<text text-anchor="start" x="8" y="-7" font-family="Monospace" font-size="10.00" fill="dimgray">Generated on 2021&#45;12&#45;06, 21:33</text>
<g id="clust1" class="cluster">
<title>cluster_metagol_example_protocol_protocol</title>
<g id="a_clust1"><a xlink:title="metagol_example_protocol">
<path fill="snow" stroke="dimgray" d="M115,-49C115,-49 280,-49 280,-49 286,-49 292,-55 292,-61 292,-61 292,-120 292,-120 292,-126 286,-132 280,-132 280,-132 115,-132 115,-132 109,-132 103,-126 103,-120 103,-120 103,-61 103,-61 103,-55 109,-49 115,-49"/>
<g id="a_clust1_0"><a xlink:href="https://github.com/LogtalkDotOrg/logtalk3/tree/2c56d8b8e9e4c04d7bc36a65ad8ab8a633c0e2ac/ports/metagol/metagol_example_protocol.lgt" xlink:title="https://github.com/LogtalkDotOrg/logtalk3/tree/2c56d8b8e9e4c04d7bc36a65ad8ab8a633c0e2ac/ports/metagol/metagol_example_protocol.lgt">
<text text-anchor="start" x="115.5" y="-115.5" font-family="Monospace" font-size="10.00" fill="dimgray">metagol_example_protocol</text>
</a>
</g>
</a>
</g>
</g>
<!-- learn/1 -->
<g id="node1" class="node">
<title>learn/1</title>
<g id="a_node1"><a xlink:href="https://github.com/LogtalkDotOrg/logtalk3/tree/2c56d8b8e9e4c04d7bc36a65ad8ab8a633c0e2ac/ports/metagol/metagol_example_protocol.lgt#L48" xlink:title="https://github.com/LogtalkDotOrg/logtalk3/tree/2c56d8b8e9e4c04d7bc36a65ad8ab8a633c0e2ac/ports/metagol/metagol_example_protocol.lgt#L48">
<polygon fill="springgreen" stroke="black" points="281.5,-95 206.5,-95 206.5,-59 281.5,-59 281.5,-95"/>
<text text-anchor="start" x="215" y="-79.8" font-family="Monospace" font-size="9.00"> </text>
<text text-anchor="start" x="221" y="-79.2" font-family="Monospace" font-size="11.00">learn/1</text>
<text text-anchor="start" x="268" y="-79.8" font-family="Monospace" font-size="9.00"> </text>
<text text-anchor="start" x="215" y="-68.8" font-family="Monospace" font-size="9.00"> </text>
<text text-anchor="start" x="231.5" y="-69.4" font-family="Monospace" font-size="7.00">public</text>
<text text-anchor="start" x="268" y="-68.8" font-family="Monospace" font-size="9.00"> </text>
</a>
</g>
</g>
<!-- learn/0 -->
<g id="node2" class="node">
<title>learn/0</title>
<g id="a_node2"><a xlink:href="https://github.com/LogtalkDotOrg/logtalk3/tree/2c56d8b8e9e4c04d7bc36a65ad8ab8a633c0e2ac/ports/metagol/metagol_example_protocol.lgt#L55" xlink:title="https://github.com/LogtalkDotOrg/logtalk3/tree/2c56d8b8e9e4c04d7bc36a65ad8ab8a633c0e2ac/ports/metagol/metagol_example_protocol.lgt#L55">
<polygon fill="springgreen" stroke="black" points="188.5,-95 113.5,-95 113.5,-59 188.5,-59 188.5,-95"/>
<text text-anchor="start" x="122" y="-79.8" font-family="Monospace" font-size="9.00"> </text>
<text text-anchor="start" x="128" y="-79.2" font-family="Monospace" font-size="11.00">learn/0</text>
<text text-anchor="start" x="175" y="-79.8" font-family="Monospace" font-size="9.00"> </text>
<text text-anchor="start" x="122" y="-68.8" font-family="Monospace" font-size="9.00"> </text>
<text text-anchor="start" x="138.5" y="-69.4" font-family="Monospace" font-size="7.00">public</text>
<text text-anchor="start" x="175" y="-68.8" font-family="Monospace" font-size="9.00"> </text>
</a>
</g>
</g>
</g>
</svg>
