<?xml version="1.0" encoding="UTF-8" standalone="no"?>
<?xml-stylesheet href="diagrams.css" type="text/css"?>
<!DOCTYPE svg PUBLIC "-//W3C//DTD SVG 1.1//EN"
 "http://www.w3.org/Graphics/SVG/1.1/DTD/svg11.dtd">
<!-- Generated by graphviz version 11.0.0 (20240428.1522)
 -->
<!-- Title: metagol_example_protocol_protocol Pages: 1 -->
<svg width="546pt" height="299pt"
 viewBox="72.00 72.00 474.00 227.00" xmlns="http://www.w3.org/2000/svg" xmlns:xlink="http://www.w3.org/1999/xlink">
<g id="graph0" class="graph" transform="scale(1 1) rotate(0) translate(76 223)">
<title>metagol_example_protocol_protocol</title>
<polygon fill="white" stroke="none" points="-4,4 -4,-151 398,-151 398,4 -4,4"/>
<text text-anchor="start" x="8" y="-32.75" font-family="Monospace" font-size="10.00" fill="dimgray">Logtalk ports of third&#45;party software</text>
<text text-anchor="start" x="8" y="-20" font-family="Monospace" font-size="10.00" fill="dimgray">Cross&#45;referencing diagram for protocol metagol_example_protocol</text>
<text text-anchor="start" x="8" y="-7.25" font-family="Monospace" font-size="10.00" fill="dimgray">Generated on 2024&#45;06&#45;20, 10:35</text>
<g id="clust1" class="cluster">
<title>cluster_metagol_example_protocol_protocol</title>
<g id="a_clust1"><a xlink:title="metagol_example_protocol">
<path fill="snow" stroke="dimgray" d="M116.5,-54.25C116.5,-54.25 277.5,-54.25 277.5,-54.25 283.5,-54.25 289.5,-60.25 289.5,-66.25 289.5,-66.25 289.5,-127 289.5,-127 289.5,-133 283.5,-139 277.5,-139 277.5,-139 116.5,-139 116.5,-139 110.5,-139 104.5,-133 104.5,-127 104.5,-127 104.5,-66.25 104.5,-66.25 104.5,-60.25 110.5,-54.25 116.5,-54.25"/>
<g id="a_clust1_0"><a xlink:href="https://github.com/LogtalkDotOrg/logtalk3/tree/00053136fb67b2d7b9366128a8777de205dc737e/ports/metagol/metagol_example_protocol.lgt" xlink:title="https://github.com/LogtalkDotOrg/logtalk3/tree/00053136fb67b2d7b9366128a8777de205dc737e/ports/metagol/metagol_example_protocol.lgt">
<text text-anchor="start" x="116.5" y="-121.5" font-family="Monospace" font-size="10.00" fill="dimgray">metagol_example_protocol</text>
</a>
</g>
</a>
</g>
</g>
<!-- learn/1 -->
<g id="node1" class="node">
<title>learn/1</title>
<g id="a_node1"><a xlink:href="https://github.com/LogtalkDotOrg/logtalk3/tree/00053136fb67b2d7b9366128a8777de205dc737e/ports/metagol/metagol_example_protocol.lgt#L47" xlink:title="https://github.com/LogtalkDotOrg/logtalk3/tree/00053136fb67b2d7b9366128a8777de205dc737e/ports/metagol/metagol_example_protocol.lgt#L47">
<polygon fill="springgreen" stroke="black" points="188,-100.25 115,-100.25 115,-64.25 188,-64.25 188,-100.25"/>
<text text-anchor="start" x="122.88" y="-84.83" font-family="Monospace" font-size="9.00"> </text>
<text text-anchor="start" x="127.88" y="-83.8" font-family="Monospace" font-size="11.00">learn/1</text>
<text text-anchor="start" x="174.88" y="-84.83" font-family="Monospace" font-size="9.00"> </text>
<text text-anchor="start" x="122.88" y="-72.7" font-family="Monospace" font-size="9.00"> </text>
<text text-anchor="start" x="138" y="-73.6" font-family="Monospace" font-size="7.00">public</text>
<text text-anchor="start" x="174.88" y="-72.7" font-family="Monospace" font-size="9.00"> </text>
</a>
</g>
</g>
<!-- learn/0 -->
<g id="node2" class="node">
<title>learn/0</title>
<g id="a_node2"><a xlink:href="https://github.com/LogtalkDotOrg/logtalk3/tree/00053136fb67b2d7b9366128a8777de205dc737e/ports/metagol/metagol_example_protocol.lgt#L54" xlink:title="https://github.com/LogtalkDotOrg/logtalk3/tree/00053136fb67b2d7b9366128a8777de205dc737e/ports/metagol/metagol_example_protocol.lgt#L54">
<polygon fill="springgreen" stroke="black" points="279,-100.25 206,-100.25 206,-64.25 279,-64.25 279,-100.25"/>
<text text-anchor="start" x="213.88" y="-84.83" font-family="Monospace" font-size="9.00"> </text>
<text text-anchor="start" x="218.88" y="-83.8" font-family="Monospace" font-size="11.00">learn/0</text>
<text text-anchor="start" x="265.88" y="-84.83" font-family="Monospace" font-size="9.00"> </text>
<text text-anchor="start" x="213.88" y="-72.7" font-family="Monospace" font-size="9.00"> </text>
<text text-anchor="start" x="229" y="-73.6" font-family="Monospace" font-size="7.00">public</text>
<text text-anchor="start" x="265.88" y="-72.7" font-family="Monospace" font-size="9.00"> </text>
</a>
</g>
</g>
</g>
</svg>
