<?xml version="1.0" encoding="UTF-8" standalone="no"?>
<?xml-stylesheet href="diagrams.css" type="text/css"?>
<!DOCTYPE svg PUBLIC "-//W3C//DTD SVG 1.1//EN"
 "http://www.w3.org/Graphics/SVG/1.1/DTD/svg11.dtd">
<!-- Generated by graphviz version 9.0.0 (20230911.1827)
 -->
<!-- Title: metagol_example_protocol_protocol Pages: 1 -->
<svg width="546pt" height="293pt"
 viewBox="72.00 72.00 474.00 221.00" xmlns="http://www.w3.org/2000/svg" xmlns:xlink="http://www.w3.org/1999/xlink">
<g id="graph0" class="graph" transform="scale(1 1) rotate(0) translate(76 217)">
<title>metagol_example_protocol_protocol</title>
<polygon fill="white" stroke="none" points="-4,4 -4,-145 398,-145 398,4 -4,4"/>
<text text-anchor="start" x="8" y="-28.25" font-family="Monospace" font-size="10.00" fill="dimgray">Logtalk ports of third&#45;party software</text>
<text text-anchor="start" x="8" y="-17" font-family="Monospace" font-size="10.00" fill="dimgray">Cross&#45;referencing diagram for protocol metagol_example_protocol</text>
<text text-anchor="start" x="8" y="-5.75" font-family="Monospace" font-size="10.00" fill="dimgray">Generated on 2024&#45;01&#45;26, 01:42</text>
<g id="clust1" class="cluster">
<title>cluster_metagol_example_protocol_protocol</title>
<g id="a_clust1"><a xlink:title="metagol_example_protocol">
<path fill="snow" stroke="dimgray" d="M116.5,-49.75C116.5,-49.75 277.5,-49.75 277.5,-49.75 283.5,-49.75 289.5,-55.75 289.5,-61.75 289.5,-61.75 289.5,-121 289.5,-121 289.5,-127 283.5,-133 277.5,-133 277.5,-133 116.5,-133 116.5,-133 110.5,-133 104.5,-127 104.5,-121 104.5,-121 104.5,-61.75 104.5,-61.75 104.5,-55.75 110.5,-49.75 116.5,-49.75"/>
<g id="a_clust1_0"><a xlink:href="https://github.com/LogtalkDotOrg/logtalk3/tree/dc203571ec9f961b0860b8bab1701ac1565dd20e/ports/metagol/metagol_example_protocol.lgt" xlink:title="https://github.com/LogtalkDotOrg/logtalk3/tree/dc203571ec9f961b0860b8bab1701ac1565dd20e/ports/metagol/metagol_example_protocol.lgt">
<text text-anchor="start" x="116.5" y="-115.5" font-family="Monospace" font-size="10.00" fill="dimgray">metagol_example_protocol</text>
</a>
</g>
</a>
</g>
</g>
<!-- learn/1 -->
<g id="node1" class="node">
<title>learn/1</title>
<g id="a_node1"><a xlink:href="https://github.com/LogtalkDotOrg/logtalk3/tree/dc203571ec9f961b0860b8bab1701ac1565dd20e/ports/metagol/metagol_example_protocol.lgt#L47" xlink:title="https://github.com/LogtalkDotOrg/logtalk3/tree/dc203571ec9f961b0860b8bab1701ac1565dd20e/ports/metagol/metagol_example_protocol.lgt#L47">
<polygon fill="springgreen" stroke="black" points="279,-95.75 206,-95.75 206,-59.75 279,-59.75 279,-95.75"/>
<text text-anchor="start" x="213.88" y="-78.58" font-family="Monospace" font-size="9.00"> </text>
<text text-anchor="start" x="218.88" y="-77.8" font-family="Monospace" font-size="11.00">learn/1</text>
<text text-anchor="start" x="265.88" y="-78.58" font-family="Monospace" font-size="9.00"> </text>
<text text-anchor="start" x="213.88" y="-67.7" font-family="Monospace" font-size="9.00"> </text>
<text text-anchor="start" x="229" y="-69.22" font-family="Monospace" font-size="7.00">public</text>
<text text-anchor="start" x="265.88" y="-67.7" font-family="Monospace" font-size="9.00"> </text>
</a>
</g>
</g>
<!-- learn/0 -->
<g id="node2" class="node">
<title>learn/0</title>
<g id="a_node2"><a xlink:href="https://github.com/LogtalkDotOrg/logtalk3/tree/dc203571ec9f961b0860b8bab1701ac1565dd20e/ports/metagol/metagol_example_protocol.lgt#L54" xlink:title="https://github.com/LogtalkDotOrg/logtalk3/tree/dc203571ec9f961b0860b8bab1701ac1565dd20e/ports/metagol/metagol_example_protocol.lgt#L54">
<polygon fill="springgreen" stroke="black" points="188,-95.75 115,-95.75 115,-59.75 188,-59.75 188,-95.75"/>
<text text-anchor="start" x="122.88" y="-78.58" font-family="Monospace" font-size="9.00"> </text>
<text text-anchor="start" x="127.88" y="-77.8" font-family="Monospace" font-size="11.00">learn/0</text>
<text text-anchor="start" x="174.88" y="-78.58" font-family="Monospace" font-size="9.00"> </text>
<text text-anchor="start" x="122.88" y="-67.7" font-family="Monospace" font-size="9.00"> </text>
<text text-anchor="start" x="138" y="-69.22" font-family="Monospace" font-size="7.00">public</text>
<text text-anchor="start" x="174.88" y="-67.7" font-family="Monospace" font-size="9.00"> </text>
</a>
</g>
</g>
</g>
</svg>
