<?xml version="1.0" encoding="UTF-8" standalone="no"?>
<?xml-stylesheet href="diagrams.css" type="text/css"?>
<!DOCTYPE svg PUBLIC "-//W3C//DTD SVG 1.1//EN"
 "http://www.w3.org/Graphics/SVG/1.1/DTD/svg11.dtd">
<!-- Generated by graphviz version 2.43.20191029.1313 (20191029.1313)
 -->
<!-- Title: metagol_example_protocol_protocol Pages: 1 -->
<svg width="546pt" height="288pt"
 viewBox="72.00 72.00 474.06 216.00" xmlns="http://www.w3.org/2000/svg" xmlns:xlink="http://www.w3.org/1999/xlink">
<g id="graph0" class="graph" transform="scale(1 1) rotate(0) translate(76 212)">
<title>metagol_example_protocol_protocol</title>
<polygon fill="white" stroke="transparent" points="-4,4 -4,-140 398.06,-140 398.06,4 -4,4"/>
<text text-anchor="start" x="8" y="-26" font-family="Courier,monospace" font-size="10.00" fill="dimgray">Logtalk ports of third&#45;party software</text>
<text text-anchor="start" x="8" y="-16" font-family="Courier,monospace" font-size="10.00" fill="dimgray">Cross&#45;referencing diagram for protocol metagol_example_protocol</text>
<text text-anchor="start" x="8" y="-6" font-family="Courier,monospace" font-size="10.00" fill="dimgray">Generated on 2020&#45;05&#45;25, 21:55</text>
<g id="clust1" class="cluster">
<title>cluster_metagol_example_protocol_protocol</title>
<g id="a_clust1"><a xlink:title="metagol_example_protocol">
<path fill="snow" stroke="dimgray" d="M118.03,-46C118.03,-46 276.03,-46 276.03,-46 282.03,-46 288.03,-52 288.03,-58 288.03,-58 288.03,-116 288.03,-116 288.03,-122 282.03,-128 276.03,-128 276.03,-128 118.03,-128 118.03,-128 112.03,-128 106.03,-122 106.03,-116 106.03,-116 106.03,-58 106.03,-58 106.03,-52 112.03,-46 118.03,-46"/>
<g id="a_clust1_0"><a xlink:href="https://github.com/LogtalkDotOrg/logtalk3/tree/ee3e469ba16664bcc8b3b120a4a0bb7672d96db2/ports/metagol/metagol_example_protocol.lgt" xlink:title="https://github.com/LogtalkDotOrg/logtalk3/tree/ee3e469ba16664bcc8b3b120a4a0bb7672d96db2/ports/metagol/metagol_example_protocol.lgt">
<text text-anchor="start" x="118.02" y="-112" font-family="Courier,monospace" font-size="10.00" fill="dimgray">metagol_example_protocol</text>
</a>
</g>
</a>
</g>
</g>
<!-- learn/1 -->
<g id="node1" class="node">
<title>learn/1</title>
<g id="a_node1"><a xlink:href="https://github.com/LogtalkDotOrg/logtalk3/tree/ee3e469ba16664bcc8b3b120a4a0bb7672d96db2/ports/metagol/metagol_example_protocol.lgt#L47" xlink:title="https://github.com/LogtalkDotOrg/logtalk3/tree/ee3e469ba16664bcc8b3b120a4a0bb7672d96db2/ports/metagol/metagol_example_protocol.lgt#L47">
<polygon fill="springgreen" stroke="black" points="278.03,-92 206.03,-92 206.03,-56 278.03,-56 278.03,-92"/>
<text text-anchor="start" x="213.83" y="-75.8" font-family="Courier,monospace" font-size="9.00"> </text>
<text text-anchor="start" x="218.93" y="-75.2" font-family="Courier,monospace" font-size="11.00">learn/1</text>
<text text-anchor="start" x="264.83" y="-75.8" font-family="Courier,monospace" font-size="9.00"> </text>
<text text-anchor="start" x="213.83" y="-65.8" font-family="Courier,monospace" font-size="9.00"> </text>
<text text-anchor="start" x="229.43" y="-66.4" font-family="Courier,monospace" font-size="7.00">public</text>
<text text-anchor="start" x="264.83" y="-65.8" font-family="Courier,monospace" font-size="9.00"> </text>
</a>
</g>
</g>
<!-- learn/0 -->
<g id="node2" class="node">
<title>learn/0</title>
<g id="a_node2"><a xlink:href="https://github.com/LogtalkDotOrg/logtalk3/tree/ee3e469ba16664bcc8b3b120a4a0bb7672d96db2/ports/metagol/metagol_example_protocol.lgt#L54" xlink:title="https://github.com/LogtalkDotOrg/logtalk3/tree/ee3e469ba16664bcc8b3b120a4a0bb7672d96db2/ports/metagol/metagol_example_protocol.lgt#L54">
<polygon fill="springgreen" stroke="black" points="188.03,-92 116.03,-92 116.03,-56 188.03,-56 188.03,-92"/>
<text text-anchor="start" x="123.83" y="-75.8" font-family="Courier,monospace" font-size="9.00"> </text>
<text text-anchor="start" x="128.93" y="-75.2" font-family="Courier,monospace" font-size="11.00">learn/0</text>
<text text-anchor="start" x="174.83" y="-75.8" font-family="Courier,monospace" font-size="9.00"> </text>
<text text-anchor="start" x="123.83" y="-65.8" font-family="Courier,monospace" font-size="9.00"> </text>
<text text-anchor="start" x="139.43" y="-66.4" font-family="Courier,monospace" font-size="7.00">public</text>
<text text-anchor="start" x="174.83" y="-65.8" font-family="Courier,monospace" font-size="9.00"> </text>
</a>
</g>
</g>
</g>
</svg>
