<?xml version="1.0" encoding="UTF-8" standalone="no"?>
<!DOCTYPE svg PUBLIC "-//W3C//DTD SVG 1.1//EN"
 "http://www.w3.org/Graphics/SVG/1.1/DTD/svg11.dtd">
<!-- Generated by graphviz version 2.40.1 (20161225.0304)
 -->
<!-- Title: monitoring_protocol Pages: 1 -->
<svg width="426pt" height="290pt"
 viewBox="72.00 72.00 354.00 218.43" xmlns="http://www.w3.org/2000/svg" xmlns:xlink="http://www.w3.org/1999/xlink">
<g id="graph0" class="graph" transform="scale(1 1) rotate(0) translate(76 214.4264)">
<title>monitoring_protocol</title>
<polygon fill="#ffffff" stroke="transparent" points="-4,4 -4,-142.4264 278,-142.4264 278,4 -4,4"/>
<text text-anchor="start" x="8" y="-29" font-family="Courier,monospace" font-size="10.00" fill="#8b8989">Logtalk core entities</text>
<text text-anchor="start" x="8" y="-18" font-family="Courier,monospace" font-size="10.00" fill="#8b8989">Cross&#45;referencing diagram</text>
<text text-anchor="start" x="8" y="-7" font-family="Courier,monospace" font-size="10.00" fill="#8b8989">Generated on 2019/04/21, 11:31</text>
<g id="clust1" class="cluster">
<title>cluster_monitoring_protocol</title>
<g id="a_clust1"><a xlink:href="https://github.com/LogtalkDotOrg/logtalk3/tree/master/core/monitoring.lgt" xlink:title="https://github.com/LogtalkDotOrg/logtalk3/tree/master/core/monitoring.lgt">
<path fill="#fffafa" stroke="#8b8989" d="M20,-49C20,-49 254,-49 254,-49 260,-49 266,-55 266,-61 266,-61 266,-118.4264 266,-118.4264 266,-124.4264 260,-130.4264 254,-130.4264 254,-130.4264 20,-130.4264 20,-130.4264 14,-130.4264 8,-124.4264 8,-118.4264 8,-118.4264 8,-61 8,-61 8,-55 14,-49 20,-49"/>
<text text-anchor="middle" x="46.5" y="-118.4264" font-family="Courier,monospace" font-size="10.00" fill="#8b8989">monitoring</text>
</a>
</g>
</g>
<!-- before/3 -->
<g id="node1" class="node">
<title>before/3</title>
<g id="a_node1"><a xlink:href="https://github.com/LogtalkDotOrg/logtalk3/tree/master/core/monitoring.lgt#L32" xlink:title="https://github.com/LogtalkDotOrg/logtalk3/tree/master/core/monitoring.lgt#L32">
<ellipse fill="#00ff7f" stroke="#000000" cx="199" cy="-80.2132" rx="57.0522" ry="21.4286"/>
<text text-anchor="start" x="167" y="-83.0132" font-family="Courier,monospace" font-size="9.00" fill="#000000"> </text>
<text text-anchor="start" x="173" y="-82.4132" font-family="Courier,monospace" font-size="11.00" fill="#000000">before/3</text>
<text text-anchor="start" x="226" y="-83.0132" font-family="Courier,monospace" font-size="9.00" fill="#000000"> </text>
<text text-anchor="start" x="167" y="-72.0132" font-family="Courier,monospace" font-size="9.00" fill="#000000"> </text>
<text text-anchor="start" x="186.5" y="-72.6132" font-family="Courier,monospace" font-size="7.00" fill="#000000">public</text>
<text text-anchor="start" x="226" y="-72.0132" font-family="Courier,monospace" font-size="9.00" fill="#000000"> </text>
</a>
</g>
</g>
<!-- after/3 -->
<g id="node2" class="node">
<title>after/3</title>
<g id="a_node2"><a xlink:href="https://github.com/LogtalkDotOrg/logtalk3/tree/master/core/monitoring.lgt#L39" xlink:title="https://github.com/LogtalkDotOrg/logtalk3/tree/master/core/monitoring.lgt#L39">
<ellipse fill="#00ff7f" stroke="#000000" cx="71" cy="-80.2132" rx="53.066" ry="21.4286"/>
<text text-anchor="start" x="42" y="-83.0132" font-family="Courier,monospace" font-size="9.00" fill="#000000"> </text>
<text text-anchor="start" x="48" y="-82.4132" font-family="Courier,monospace" font-size="11.00" fill="#000000">after/3</text>
<text text-anchor="start" x="95" y="-83.0132" font-family="Courier,monospace" font-size="9.00" fill="#000000"> </text>
<text text-anchor="start" x="42" y="-72.0132" font-family="Courier,monospace" font-size="9.00" fill="#000000"> </text>
<text text-anchor="start" x="58.5" y="-72.6132" font-family="Courier,monospace" font-size="7.00" fill="#000000">public</text>
<text text-anchor="start" x="95" y="-72.0132" font-family="Courier,monospace" font-size="9.00" fill="#000000"> </text>
</a>
</g>
</g>
</g>
</svg>
