<?xml version="1.0" encoding="UTF-8" standalone="no"?>
<?xml-stylesheet href="diagrams.css" type="text/css"?>
<!DOCTYPE svg PUBLIC "-//W3C//DTD SVG 1.1//EN"
 "http://www.w3.org/Graphics/SVG/1.1/DTD/svg11.dtd">
<!-- Generated by graphviz version 2.50.0 (20211204.2007)
 -->
<!-- Title: monitoring_protocol Pages: 1 -->
<svg width="463pt" height="292pt"
 viewBox="72.00 72.00 391.00 220.00" xmlns="http://www.w3.org/2000/svg" xmlns:xlink="http://www.w3.org/1999/xlink">
<g id="graph0" class="graph" transform="scale(1 1) rotate(0) translate(76 216)">
<title>monitoring_protocol</title>
<polygon fill="white" stroke="transparent" points="-4,4 -4,-144 315,-144 315,4 -4,4"/>
<text text-anchor="start" x="8" y="-29" font-family="Monospace" font-size="10.00" fill="dimgray">Logtalk core entities</text>
<text text-anchor="start" x="8" y="-18" font-family="Monospace" font-size="10.00" fill="dimgray">Cross&#45;referencing diagram for protocol monitoring</text>
<text text-anchor="start" x="8" y="-7" font-family="Monospace" font-size="10.00" fill="dimgray">Generated on 2022&#45;02&#45;11, 14:25</text>
<g id="clust1" class="cluster">
<title>cluster_monitoring_protocol</title>
<g id="a_clust1"><a xlink:title="monitoring">
<path fill="snow" stroke="dimgray" d="M68.5,-49C68.5,-49 242.5,-49 242.5,-49 248.5,-49 254.5,-55 254.5,-61 254.5,-61 254.5,-120 254.5,-120 254.5,-126 248.5,-132 242.5,-132 242.5,-132 68.5,-132 68.5,-132 62.5,-132 56.5,-126 56.5,-120 56.5,-120 56.5,-61 56.5,-61 56.5,-55 62.5,-49 68.5,-49"/>
<g id="a_clust1_0"><a xlink:href="https://github.com/LogtalkDotOrg/logtalk3/tree/e2213e5c3892245fbdbc371c2d178b839e859749/core/monitoring.lgt" xlink:title="https://github.com/LogtalkDotOrg/logtalk3/tree/e2213e5c3892245fbdbc371c2d178b839e859749/core/monitoring.lgt">
<text text-anchor="start" x="69" y="-115.5" font-family="Monospace" font-size="10.00" fill="dimgray">monitoring</text>
</a>
</g>
</a>
</g>
</g>
<!-- before/3 -->
<g id="node1" class="node">
<title>before/3</title>
<g id="a_node1"><a xlink:href="https://github.com/LogtalkDotOrg/logtalk3/tree/e2213e5c3892245fbdbc371c2d178b839e859749/core/monitoring.lgt#L33" xlink:title="https://github.com/LogtalkDotOrg/logtalk3/tree/e2213e5c3892245fbdbc371c2d178b839e859749/core/monitoring.lgt#L33">
<polygon fill="springgreen" stroke="black" points="244,-95 161,-95 161,-59 244,-59 244,-95"/>
<text text-anchor="start" x="169.5" y="-79.8" font-family="Monospace" font-size="9.00"> </text>
<text text-anchor="start" x="175.5" y="-79.2" font-family="Monospace" font-size="11.00">before/3</text>
<text text-anchor="start" x="230.5" y="-79.8" font-family="Monospace" font-size="9.00"> </text>
<text text-anchor="start" x="169.5" y="-68.8" font-family="Monospace" font-size="9.00"> </text>
<text text-anchor="start" x="189" y="-69.4" font-family="Monospace" font-size="7.00">public</text>
<text text-anchor="start" x="230.5" y="-68.8" font-family="Monospace" font-size="9.00"> </text>
</a>
</g>
</g>
<!-- after/3 -->
<g id="node2" class="node">
<title>after/3</title>
<g id="a_node2"><a xlink:href="https://github.com/LogtalkDotOrg/logtalk3/tree/e2213e5c3892245fbdbc371c2d178b839e859749/core/monitoring.lgt#L40" xlink:title="https://github.com/LogtalkDotOrg/logtalk3/tree/e2213e5c3892245fbdbc371c2d178b839e859749/core/monitoring.lgt#L40">
<polygon fill="springgreen" stroke="black" points="142.5,-95 66.5,-95 66.5,-59 142.5,-59 142.5,-95"/>
<text text-anchor="start" x="74.5" y="-79.8" font-family="Monospace" font-size="9.00"> </text>
<text text-anchor="start" x="80.5" y="-79.2" font-family="Monospace" font-size="11.00">after/3</text>
<text text-anchor="start" x="128.5" y="-79.8" font-family="Monospace" font-size="9.00"> </text>
<text text-anchor="start" x="74.5" y="-68.8" font-family="Monospace" font-size="9.00"> </text>
<text text-anchor="start" x="90.5" y="-69.4" font-family="Monospace" font-size="7.00">public</text>
<text text-anchor="start" x="128.5" y="-68.8" font-family="Monospace" font-size="9.00"> </text>
</a>
</g>
</g>
</g>
</svg>
