<?xml version="1.0" encoding="UTF-8" standalone="no"?>
<?xml-stylesheet href="diagrams.css" type="text/css"?>
<!DOCTYPE svg PUBLIC "-//W3C//DTD SVG 1.1//EN"
 "http://www.w3.org/Graphics/SVG/1.1/DTD/svg11.dtd">
<!-- Generated by graphviz version 2.43.20191029.1313 (20191029.1313)
 -->
<!-- Title: monitoring_protocol Pages: 1 -->
<svg width="462pt" height="288pt"
 viewBox="72.00 72.00 390.05 216.00" xmlns="http://www.w3.org/2000/svg" xmlns:xlink="http://www.w3.org/1999/xlink">
<g id="graph0" class="graph" transform="scale(1 1) rotate(0) translate(76 212)">
<title>monitoring_protocol</title>
<polygon fill="white" stroke="transparent" points="-4,4 -4,-140 314.05,-140 314.05,4 -4,4"/>
<text text-anchor="start" x="8" y="-26" font-family="Courier,monospace" font-size="10.00" fill="dimgray">Logtalk core entities</text>
<text text-anchor="start" x="8" y="-16" font-family="Courier,monospace" font-size="10.00" fill="dimgray">Cross&#45;referencing diagram for protocol monitoring</text>
<text text-anchor="start" x="8" y="-6" font-family="Courier,monospace" font-size="10.00" fill="dimgray">Generated on 2020&#45;05&#45;25, 21:55</text>
<g id="clust1" class="cluster">
<title>cluster_monitoring_protocol</title>
<g id="a_clust1"><a xlink:title="monitoring">
<path fill="snow" stroke="dimgray" d="M73.02,-46C73.02,-46 237.02,-46 237.02,-46 243.02,-46 249.02,-52 249.02,-58 249.02,-58 249.02,-116 249.02,-116 249.02,-122 243.02,-128 237.02,-128 237.02,-128 73.02,-128 73.02,-128 67.02,-128 61.02,-122 61.02,-116 61.02,-116 61.02,-58 61.02,-58 61.02,-52 67.02,-46 73.02,-46"/>
<g id="a_clust1_0"><a xlink:href="https://github.com/LogtalkDotOrg/logtalk3/tree/ee3e469ba16664bcc8b3b120a4a0bb7672d96db2/core/monitoring.lgt" xlink:title="https://github.com/LogtalkDotOrg/logtalk3/tree/ee3e469ba16664bcc8b3b120a4a0bb7672d96db2/core/monitoring.lgt">
<text text-anchor="start" x="73.02" y="-112" font-family="Courier,monospace" font-size="10.00" fill="dimgray">monitoring</text>
</a>
</g>
</a>
</g>
</g>
<!-- before/3 -->
<g id="node1" class="node">
<title>before/3</title>
<g id="a_node1"><a xlink:href="https://github.com/LogtalkDotOrg/logtalk3/tree/ee3e469ba16664bcc8b3b120a4a0bb7672d96db2/core/monitoring.lgt#L32" xlink:title="https://github.com/LogtalkDotOrg/logtalk3/tree/ee3e469ba16664bcc8b3b120a4a0bb7672d96db2/core/monitoring.lgt#L32">
<polygon fill="springgreen" stroke="black" points="239.02,-92 161.02,-92 161.02,-56 239.02,-56 239.02,-92"/>
<text text-anchor="start" x="168.82" y="-75.8" font-family="Courier,monospace" font-size="9.00"> </text>
<text text-anchor="start" x="173.62" y="-75.2" font-family="Courier,monospace" font-size="11.00">before/3</text>
<text text-anchor="start" x="225.82" y="-75.8" font-family="Courier,monospace" font-size="9.00"> </text>
<text text-anchor="start" x="168.82" y="-65.8" font-family="Courier,monospace" font-size="9.00"> </text>
<text text-anchor="start" x="187.42" y="-66.4" font-family="Courier,monospace" font-size="7.00">public</text>
<text text-anchor="start" x="225.82" y="-65.8" font-family="Courier,monospace" font-size="9.00"> </text>
</a>
</g>
</g>
<!-- after/3 -->
<g id="node2" class="node">
<title>after/3</title>
<g id="a_node2"><a xlink:href="https://github.com/LogtalkDotOrg/logtalk3/tree/ee3e469ba16664bcc8b3b120a4a0bb7672d96db2/core/monitoring.lgt#L39" xlink:title="https://github.com/LogtalkDotOrg/logtalk3/tree/ee3e469ba16664bcc8b3b120a4a0bb7672d96db2/core/monitoring.lgt#L39">
<polygon fill="springgreen" stroke="black" points="143.02,-92 71.02,-92 71.02,-56 143.02,-56 143.02,-92"/>
<text text-anchor="start" x="78.82" y="-75.8" font-family="Courier,monospace" font-size="9.00"> </text>
<text text-anchor="start" x="83.92" y="-75.2" font-family="Courier,monospace" font-size="11.00">after/3</text>
<text text-anchor="start" x="129.82" y="-75.8" font-family="Courier,monospace" font-size="9.00"> </text>
<text text-anchor="start" x="78.82" y="-65.8" font-family="Courier,monospace" font-size="9.00"> </text>
<text text-anchor="start" x="94.42" y="-66.4" font-family="Courier,monospace" font-size="7.00">public</text>
<text text-anchor="start" x="129.82" y="-65.8" font-family="Courier,monospace" font-size="9.00"> </text>
</a>
</g>
</g>
</g>
</svg>
