<?xml version="1.0" encoding="UTF-8" standalone="no"?>
<?xml-stylesheet href="diagrams.css" type="text/css"?>
<!DOCTYPE svg PUBLIC "-//W3C//DTD SVG 1.1//EN"
 "http://www.w3.org/Graphics/SVG/1.1/DTD/svg11.dtd">
<!-- Generated by graphviz version 10.0.1 (20240210.2158)
 -->
<!-- Title: monitoring_protocol Pages: 1 -->
<svg width="462pt" height="293pt"
 viewBox="72.00 72.00 390.00 221.00" xmlns="http://www.w3.org/2000/svg" xmlns:xlink="http://www.w3.org/1999/xlink">
<g id="graph0" class="graph" transform="scale(1 1) rotate(0) translate(76 217)">
<title>monitoring_protocol</title>
<polygon fill="white" stroke="none" points="-4,4 -4,-145 314,-145 314,4 -4,4"/>
<text text-anchor="start" x="8" y="-28.25" font-family="Monospace" font-size="10.00" fill="dimgray">Logtalk core entities</text>
<text text-anchor="start" x="8" y="-17" font-family="Monospace" font-size="10.00" fill="dimgray">Cross&#45;referencing diagram for protocol monitoring</text>
<text text-anchor="start" x="8" y="-5.75" font-family="Monospace" font-size="10.00" fill="dimgray">Generated on 2024&#45;03&#45;26, 18:27</text>
<g id="clust1" class="cluster">
<title>cluster_monitoring_protocol</title>
<g id="a_clust1"><a xlink:title="monitoring">
<path fill="snow" stroke="dimgray" d="M71,-49.75C71,-49.75 239,-49.75 239,-49.75 245,-49.75 251,-55.75 251,-61.75 251,-61.75 251,-121 251,-121 251,-127 245,-133 239,-133 239,-133 71,-133 71,-133 65,-133 59,-127 59,-121 59,-121 59,-61.75 59,-61.75 59,-55.75 65,-49.75 71,-49.75"/>
<g id="a_clust1_0"><a xlink:href="https://github.com/LogtalkDotOrg/logtalk3/tree/40bc5363ebf02eb3b64f0bbd11b59ab0ecd2ce6b/core/monitoring.lgt" xlink:title="https://github.com/LogtalkDotOrg/logtalk3/tree/40bc5363ebf02eb3b64f0bbd11b59ab0ecd2ce6b/core/monitoring.lgt">
<text text-anchor="start" x="71" y="-115.5" font-family="Monospace" font-size="10.00" fill="dimgray">monitoring</text>
</a>
</g>
</a>
</g>
</g>
<!-- before/3 -->
<g id="node1" class="node">
<title>before/3</title>
<g id="a_node1"><a xlink:href="https://github.com/LogtalkDotOrg/logtalk3/tree/40bc5363ebf02eb3b64f0bbd11b59ab0ecd2ce6b/core/monitoring.lgt#L33" xlink:title="https://github.com/LogtalkDotOrg/logtalk3/tree/40bc5363ebf02eb3b64f0bbd11b59ab0ecd2ce6b/core/monitoring.lgt#L33">
<polygon fill="springgreen" stroke="black" points="149,-95.75 69,-95.75 69,-59.75 149,-59.75 149,-95.75"/>
<text text-anchor="start" x="76.88" y="-78.58" font-family="Monospace" font-size="9.00"> </text>
<text text-anchor="start" x="82" y="-77.8" font-family="Monospace" font-size="11.00">before/3</text>
<text text-anchor="start" x="135.88" y="-78.58" font-family="Monospace" font-size="9.00"> </text>
<text text-anchor="start" x="76.88" y="-67.7" font-family="Monospace" font-size="9.00"> </text>
<text text-anchor="start" x="95.5" y="-69.22" font-family="Monospace" font-size="7.00">public</text>
<text text-anchor="start" x="135.88" y="-67.7" font-family="Monospace" font-size="9.00"> </text>
</a>
</g>
</g>
<!-- after/3 -->
<g id="node2" class="node">
<title>after/3</title>
<g id="a_node2"><a xlink:href="https://github.com/LogtalkDotOrg/logtalk3/tree/40bc5363ebf02eb3b64f0bbd11b59ab0ecd2ce6b/core/monitoring.lgt#L40" xlink:title="https://github.com/LogtalkDotOrg/logtalk3/tree/40bc5363ebf02eb3b64f0bbd11b59ab0ecd2ce6b/core/monitoring.lgt#L40">
<polygon fill="springgreen" stroke="black" points="240.5,-95.75 167.5,-95.75 167.5,-59.75 240.5,-59.75 240.5,-95.75"/>
<text text-anchor="start" x="175.38" y="-78.58" font-family="Monospace" font-size="9.00"> </text>
<text text-anchor="start" x="180.38" y="-77.8" font-family="Monospace" font-size="11.00">after/3</text>
<text text-anchor="start" x="227.38" y="-78.58" font-family="Monospace" font-size="9.00"> </text>
<text text-anchor="start" x="175.38" y="-67.7" font-family="Monospace" font-size="9.00"> </text>
<text text-anchor="start" x="190.5" y="-69.22" font-family="Monospace" font-size="7.00">public</text>
<text text-anchor="start" x="227.38" y="-67.7" font-family="Monospace" font-size="9.00"> </text>
</a>
</g>
</g>
</g>
</svg>
