<?xml version="1.0" encoding="UTF-8" standalone="no"?>
<?xml-stylesheet href="diagrams.css" type="text/css"?>
<!DOCTYPE svg PUBLIC "-//W3C//DTD SVG 1.1//EN"
 "http://www.w3.org/Graphics/SVG/1.1/DTD/svg11.dtd">
<!-- Generated by graphviz version 2.49.3 (20211023.0002)
 -->
<!-- Title: monitoring_protocol Pages: 1 -->
<svg width="463pt" height="292pt"
 viewBox="72.00 72.00 391.00 220.00" xmlns="http://www.w3.org/2000/svg" xmlns:xlink="http://www.w3.org/1999/xlink">
<g id="graph0" class="graph" transform="scale(1 1) rotate(0) translate(76 216)">
<title>monitoring_protocol</title>
<polygon fill="white" stroke="transparent" points="-4,4 -4,-144 315,-144 315,4 -4,4"/>
<text text-anchor="start" x="8" y="-29" font-family="Monospace" font-size="10.00" fill="dimgray">Logtalk core entities</text>
<text text-anchor="start" x="8" y="-18" font-family="Monospace" font-size="10.00" fill="dimgray">Cross&#45;referencing diagram for protocol monitoring</text>
<text text-anchor="start" x="8" y="-7" font-family="Monospace" font-size="10.00" fill="dimgray">Generated on 2021&#45;11&#45;25, 11:12</text>
<g id="clust1" class="cluster">
<title>cluster_monitoring_protocol</title>
<g id="a_clust1"><a xlink:title="monitoring">
<path fill="snow" stroke="dimgray" d="M70,-49C70,-49 241,-49 241,-49 247,-49 253,-55 253,-61 253,-61 253,-120 253,-120 253,-126 247,-132 241,-132 241,-132 70,-132 70,-132 64,-132 58,-126 58,-120 58,-120 58,-61 58,-61 58,-55 64,-49 70,-49"/>
<g id="a_clust1_0"><a xlink:href="https://github.com/LogtalkDotOrg/logtalk3/tree/528eddf0b5af5a35c3763cc1a11b02ffcd185fdf/core/monitoring.lgt" xlink:title="https://github.com/LogtalkDotOrg/logtalk3/tree/528eddf0b5af5a35c3763cc1a11b02ffcd185fdf/core/monitoring.lgt">
<text text-anchor="start" x="70.5" y="-115.5" font-family="Monospace" font-size="10.00" fill="dimgray">monitoring</text>
</a>
</g>
</a>
</g>
</g>
<!-- before/3 -->
<g id="node1" class="node">
<title>before/3</title>
<g id="a_node1"><a xlink:href="https://github.com/LogtalkDotOrg/logtalk3/tree/528eddf0b5af5a35c3763cc1a11b02ffcd185fdf/core/monitoring.lgt#L33" xlink:title="https://github.com/LogtalkDotOrg/logtalk3/tree/528eddf0b5af5a35c3763cc1a11b02ffcd185fdf/core/monitoring.lgt#L33">
<polygon fill="springgreen" stroke="black" points="242.5,-95 161.5,-95 161.5,-59 242.5,-59 242.5,-95"/>
<text text-anchor="start" x="170" y="-79.8" font-family="Monospace" font-size="9.00"> </text>
<text text-anchor="start" x="176" y="-79.2" font-family="Monospace" font-size="11.00">before/3</text>
<text text-anchor="start" x="229" y="-79.8" font-family="Monospace" font-size="9.00"> </text>
<text text-anchor="start" x="170" y="-68.8" font-family="Monospace" font-size="9.00"> </text>
<text text-anchor="start" x="189.5" y="-69.4" font-family="Monospace" font-size="7.00">public</text>
<text text-anchor="start" x="229" y="-68.8" font-family="Monospace" font-size="9.00"> </text>
</a>
</g>
</g>
<!-- after/3 -->
<g id="node2" class="node">
<title>after/3</title>
<g id="a_node2"><a xlink:href="https://github.com/LogtalkDotOrg/logtalk3/tree/528eddf0b5af5a35c3763cc1a11b02ffcd185fdf/core/monitoring.lgt#L40" xlink:title="https://github.com/LogtalkDotOrg/logtalk3/tree/528eddf0b5af5a35c3763cc1a11b02ffcd185fdf/core/monitoring.lgt#L40">
<polygon fill="springgreen" stroke="black" points="143.5,-95 68.5,-95 68.5,-59 143.5,-59 143.5,-95"/>
<text text-anchor="start" x="77" y="-79.8" font-family="Monospace" font-size="9.00"> </text>
<text text-anchor="start" x="83" y="-79.2" font-family="Monospace" font-size="11.00">after/3</text>
<text text-anchor="start" x="130" y="-79.8" font-family="Monospace" font-size="9.00"> </text>
<text text-anchor="start" x="77" y="-68.8" font-family="Monospace" font-size="9.00"> </text>
<text text-anchor="start" x="93.5" y="-69.4" font-family="Monospace" font-size="7.00">public</text>
<text text-anchor="start" x="130" y="-68.8" font-family="Monospace" font-size="9.00"> </text>
</a>
</g>
</g>
</g>
</svg>
