<?xml version="1.0" encoding="UTF-8" standalone="no"?>
<!DOCTYPE svg PUBLIC "-//W3C//DTD SVG 1.1//EN"
 "http://www.w3.org/Graphics/SVG/1.1/DTD/svg11.dtd">
<!-- Generated by graphviz version 2.40.1 (20161225.0304)
 -->
<!-- Title: monitoring_protocol Pages: 1 -->
<svg width="426pt" height="279pt"
 viewBox="72.00 72.00 354.00 207.43" xmlns="http://www.w3.org/2000/svg" xmlns:xlink="http://www.w3.org/1999/xlink">
<g id="graph0" class="graph" transform="scale(1 1) rotate(0) translate(76 203.4264)">
<title>monitoring_protocol</title>
<polygon fill="#ffffff" stroke="transparent" points="-4,4 -4,-131.4264 278,-131.4264 278,4 -4,4"/>
<text text-anchor="start" x="8" y="-18" font-family="Courier,monospace" font-size="10.00" fill="#8b8989">Logtalk core entities</text>
<text text-anchor="start" x="8" y="-7" font-family="Courier,monospace" font-size="10.00" fill="#8b8989">Generated on 2019/04/08, 18:41</text>
<g id="clust1" class="cluster">
<title>cluster_monitoring_protocol</title>
<g id="a_clust1"><a xlink:href="https://github.com/LogtalkDotOrg/logtalk3/tree/master/core/monitoring.lgt" xlink:title="https://github.com/LogtalkDotOrg/logtalk3/tree/master/core/monitoring.lgt">
<path fill="#fffafa" stroke="#8b8989" d="M20,-38C20,-38 254,-38 254,-38 260,-38 266,-44 266,-50 266,-50 266,-107.4264 266,-107.4264 266,-113.4264 260,-119.4264 254,-119.4264 254,-119.4264 20,-119.4264 20,-119.4264 14,-119.4264 8,-113.4264 8,-107.4264 8,-107.4264 8,-50 8,-50 8,-44 14,-38 20,-38"/>
<text text-anchor="middle" x="46.5" y="-107.4264" font-family="Courier,monospace" font-size="10.00" fill="#8b8989">monitoring</text>
</a>
</g>
</g>
<!-- before/3 -->
<g id="node1" class="node">
<title>before/3</title>
<g id="a_node1"><a xlink:href="https://logtalk.org/library/monitoring_0.html#before/3" xlink:title="https://logtalk.org/library/monitoring_0.html#before/3">
<ellipse fill="#00ff7f" stroke="#000000" cx="199" cy="-69.2132" rx="57.0522" ry="21.4286"/>
<text text-anchor="start" x="167" y="-72.0132" font-family="Courier,monospace" font-size="9.00" fill="#000000"> </text>
<text text-anchor="start" x="173" y="-71.4132" font-family="Courier,monospace" font-size="11.00" fill="#000000">before/3</text>
<text text-anchor="start" x="226" y="-72.0132" font-family="Courier,monospace" font-size="9.00" fill="#000000"> </text>
<text text-anchor="start" x="167" y="-61.0132" font-family="Courier,monospace" font-size="9.00" fill="#000000"> </text>
<text text-anchor="start" x="186.5" y="-61.6132" font-family="Courier,monospace" font-size="7.00" fill="#000000">public</text>
<text text-anchor="start" x="226" y="-61.0132" font-family="Courier,monospace" font-size="9.00" fill="#000000"> </text>
</a>
</g>
</g>
<!-- after/3 -->
<g id="node2" class="node">
<title>after/3</title>
<g id="a_node2"><a xlink:href="https://logtalk.org/library/monitoring_0.html#after/3" xlink:title="https://logtalk.org/library/monitoring_0.html#after/3">
<ellipse fill="#00ff7f" stroke="#000000" cx="71" cy="-69.2132" rx="53.066" ry="21.4286"/>
<text text-anchor="start" x="42" y="-72.0132" font-family="Courier,monospace" font-size="9.00" fill="#000000"> </text>
<text text-anchor="start" x="48" y="-71.4132" font-family="Courier,monospace" font-size="11.00" fill="#000000">after/3</text>
<text text-anchor="start" x="95" y="-72.0132" font-family="Courier,monospace" font-size="9.00" fill="#000000"> </text>
<text text-anchor="start" x="42" y="-61.0132" font-family="Courier,monospace" font-size="9.00" fill="#000000"> </text>
<text text-anchor="start" x="58.5" y="-61.6132" font-family="Courier,monospace" font-size="7.00" fill="#000000">public</text>
<text text-anchor="start" x="95" y="-61.0132" font-family="Courier,monospace" font-size="9.00" fill="#000000"> </text>
</a>
</g>
</g>
</g>
</svg>
