<?xml version="1.0" encoding="UTF-8" standalone="no"?>
<?xml-stylesheet href="diagrams.css" type="text/css"?>
<!DOCTYPE svg PUBLIC "-//W3C//DTD SVG 1.1//EN"
 "http://www.w3.org/Graphics/SVG/1.1/DTD/svg11.dtd">
<!-- Generated by graphviz version 11.0.0 (20240428.1522)
 -->
<!-- Title: monitoring_protocol Pages: 1 -->
<svg width="462pt" height="299pt"
 viewBox="72.00 72.00 390.00 227.00" xmlns="http://www.w3.org/2000/svg" xmlns:xlink="http://www.w3.org/1999/xlink">
<g id="graph0" class="graph" transform="scale(1 1) rotate(0) translate(76 223)">
<title>monitoring_protocol</title>
<polygon fill="white" stroke="none" points="-4,4 -4,-151 314,-151 314,4 -4,4"/>
<text text-anchor="start" x="8" y="-32.75" font-family="Monospace" font-size="10.00" fill="dimgray">Logtalk core entities</text>
<text text-anchor="start" x="8" y="-20" font-family="Monospace" font-size="10.00" fill="dimgray">Cross&#45;referencing diagram for protocol monitoring</text>
<text text-anchor="start" x="8" y="-7.25" font-family="Monospace" font-size="10.00" fill="dimgray">Generated on 2024&#45;05&#45;11, 09:53</text>
<g id="clust1" class="cluster">
<title>cluster_monitoring_protocol</title>
<g id="a_clust1"><a xlink:title="monitoring">
<path fill="snow" stroke="dimgray" d="M71,-54.25C71,-54.25 239,-54.25 239,-54.25 245,-54.25 251,-60.25 251,-66.25 251,-66.25 251,-127 251,-127 251,-133 245,-139 239,-139 239,-139 71,-139 71,-139 65,-139 59,-133 59,-127 59,-127 59,-66.25 59,-66.25 59,-60.25 65,-54.25 71,-54.25"/>
<g id="a_clust1_0"><a xlink:href="https://github.com/LogtalkDotOrg/logtalk3/tree/c9db15868c2cb8cb4ae137de9d0849670db79717/core/monitoring.lgt" xlink:title="https://github.com/LogtalkDotOrg/logtalk3/tree/c9db15868c2cb8cb4ae137de9d0849670db79717/core/monitoring.lgt">
<text text-anchor="start" x="71" y="-121.5" font-family="Monospace" font-size="10.00" fill="dimgray">monitoring</text>
</a>
</g>
</a>
</g>
</g>
<!-- before/3 -->
<g id="node1" class="node">
<title>before/3</title>
<g id="a_node1"><a xlink:href="https://github.com/LogtalkDotOrg/logtalk3/tree/c9db15868c2cb8cb4ae137de9d0849670db79717/core/monitoring.lgt#L33" xlink:title="https://github.com/LogtalkDotOrg/logtalk3/tree/c9db15868c2cb8cb4ae137de9d0849670db79717/core/monitoring.lgt#L33">
<polygon fill="springgreen" stroke="black" points="149,-100.25 69,-100.25 69,-64.25 149,-64.25 149,-100.25"/>
<text text-anchor="start" x="76.88" y="-84.83" font-family="Monospace" font-size="9.00"> </text>
<text text-anchor="start" x="82" y="-83.8" font-family="Monospace" font-size="11.00">before/3</text>
<text text-anchor="start" x="135.88" y="-84.83" font-family="Monospace" font-size="9.00"> </text>
<text text-anchor="start" x="76.88" y="-72.7" font-family="Monospace" font-size="9.00"> </text>
<text text-anchor="start" x="95.5" y="-73.6" font-family="Monospace" font-size="7.00">public</text>
<text text-anchor="start" x="135.88" y="-72.7" font-family="Monospace" font-size="9.00"> </text>
</a>
</g>
</g>
<!-- after/3 -->
<g id="node2" class="node">
<title>after/3</title>
<g id="a_node2"><a xlink:href="https://github.com/LogtalkDotOrg/logtalk3/tree/c9db15868c2cb8cb4ae137de9d0849670db79717/core/monitoring.lgt#L40" xlink:title="https://github.com/LogtalkDotOrg/logtalk3/tree/c9db15868c2cb8cb4ae137de9d0849670db79717/core/monitoring.lgt#L40">
<polygon fill="springgreen" stroke="black" points="240.5,-100.25 167.5,-100.25 167.5,-64.25 240.5,-64.25 240.5,-100.25"/>
<text text-anchor="start" x="175.38" y="-84.83" font-family="Monospace" font-size="9.00"> </text>
<text text-anchor="start" x="180.38" y="-83.8" font-family="Monospace" font-size="11.00">after/3</text>
<text text-anchor="start" x="227.38" y="-84.83" font-family="Monospace" font-size="9.00"> </text>
<text text-anchor="start" x="175.38" y="-72.7" font-family="Monospace" font-size="9.00"> </text>
<text text-anchor="start" x="190.5" y="-73.6" font-family="Monospace" font-size="7.00">public</text>
<text text-anchor="start" x="227.38" y="-72.7" font-family="Monospace" font-size="9.00"> </text>
</a>
</g>
</g>
</g>
</svg>
