<?xml version="1.0" encoding="UTF-8" standalone="no"?>
<?xml-stylesheet href="diagrams.css" type="text/css"?>
<!DOCTYPE svg PUBLIC "-//W3C//DTD SVG 1.1//EN"
 "http://www.w3.org/Graphics/SVG/1.1/DTD/svg11.dtd">
<!-- Generated by graphviz version 12.2.1 (20241206.2353)
 -->
<!-- Title: monitoring_protocol Pages: 1 -->
<svg width="462pt" height="299pt"
 viewBox="72.00 72.00 390.00 227.00" xmlns="http://www.w3.org/2000/svg" xmlns:xlink="http://www.w3.org/1999/xlink">
<g id="graph0" class="graph" transform="scale(1 1) rotate(0) translate(76 223)">
<title>monitoring_protocol</title>
<polygon fill="white" stroke="none" points="-4,4 -4,-151 314,-151 314,4 -4,4"/>
<text text-anchor="start" x="8" y="-32.75" font-family="Monospace" font-size="10.00" fill="dimgray">Logtalk core entities</text>
<text text-anchor="start" x="8" y="-20" font-family="Monospace" font-size="10.00" fill="dimgray">Cross&#45;referencing diagram for protocol monitoring</text>
<text text-anchor="start" x="8" y="-7.25" font-family="Monospace" font-size="10.00" fill="dimgray">Generated on 2025&#45;03&#45;13, 10:56</text>
<g id="clust1" class="cluster">
<title>cluster_monitoring_protocol</title>
<g id="a_clust1"><a xlink:title="monitoring">
<path fill="snow" stroke="dimgray" d="M71,-54.25C71,-54.25 239,-54.25 239,-54.25 245,-54.25 251,-60.25 251,-66.25 251,-66.25 251,-127 251,-127 251,-133 245,-139 239,-139 239,-139 71,-139 71,-139 65,-139 59,-133 59,-127 59,-127 59,-66.25 59,-66.25 59,-60.25 65,-54.25 71,-54.25"/>
<g id="a_clust1_0"><a xlink:href="https://github.com/LogtalkDotOrg/logtalk3/tree/e11d848b09c76069951b977458c07b69d1fc26e5/core/monitoring.lgt" xlink:title="https://github.com/LogtalkDotOrg/logtalk3/tree/e11d848b09c76069951b977458c07b69d1fc26e5/core/monitoring.lgt">
<text text-anchor="start" x="71" y="-121.5" font-family="Monospace" font-size="10.00" fill="dimgray">monitoring</text>
</a>
</g>
</a>
</g>
</g>
<!-- before/3 -->
<g id="node1" class="node">
<title>before/3</title>
<g id="a_node1"><a xlink:href="https://github.com/LogtalkDotOrg/logtalk3/tree/e11d848b09c76069951b977458c07b69d1fc26e5/core/monitoring.lgt#L33" xlink:title="https://github.com/LogtalkDotOrg/logtalk3/tree/e11d848b09c76069951b977458c07b69d1fc26e5/core/monitoring.lgt#L33">
<polygon fill="springgreen" stroke="black" points="149.25,-100.25 68.75,-100.25 68.75,-64.25 149.25,-64.25 149.25,-100.25"/>
<text text-anchor="start" x="76.75" y="-84.95" font-family="Monospace" font-size="9.00"> </text>
<text text-anchor="start" x="82" y="-84.17" font-family="Monospace" font-size="11.00">before/3</text>
<text text-anchor="start" x="136" y="-84.95" font-family="Monospace" font-size="9.00"> </text>
<text text-anchor="start" x="76.75" y="-72.58" font-family="Monospace" font-size="9.00"> </text>
<text text-anchor="start" x="95.5" y="-73.35" font-family="Monospace" font-size="7.00">public</text>
<text text-anchor="start" x="136" y="-72.58" font-family="Monospace" font-size="9.00"> </text>
</a>
</g>
</g>
<!-- after/3 -->
<g id="node2" class="node">
<title>after/3</title>
<g id="a_node2"><a xlink:href="https://github.com/LogtalkDotOrg/logtalk3/tree/e11d848b09c76069951b977458c07b69d1fc26e5/core/monitoring.lgt#L40" xlink:title="https://github.com/LogtalkDotOrg/logtalk3/tree/e11d848b09c76069951b977458c07b69d1fc26e5/core/monitoring.lgt#L40">
<polygon fill="springgreen" stroke="black" points="240.88,-100.25 167.12,-100.25 167.12,-64.25 240.88,-64.25 240.88,-100.25"/>
<text text-anchor="start" x="175.12" y="-84.95" font-family="Monospace" font-size="9.00"> </text>
<text text-anchor="start" x="180.38" y="-84.17" font-family="Monospace" font-size="11.00">after/3</text>
<text text-anchor="start" x="227.62" y="-84.95" font-family="Monospace" font-size="9.00"> </text>
<text text-anchor="start" x="175.12" y="-72.58" font-family="Monospace" font-size="9.00"> </text>
<text text-anchor="start" x="190.5" y="-73.35" font-family="Monospace" font-size="7.00">public</text>
<text text-anchor="start" x="227.62" y="-72.58" font-family="Monospace" font-size="9.00"> </text>
</a>
</g>
</g>
</g>
</svg>
