<?xml version="1.0" encoding="UTF-8" standalone="no"?>
<?xml-stylesheet href="diagrams.css" type="text/css"?>
<!DOCTYPE svg PUBLIC "-//W3C//DTD SVG 1.1//EN"
 "http://www.w3.org/Graphics/SVG/1.1/DTD/svg11.dtd">
<!-- Generated by graphviz version 9.0.0 (20230911.1827)
 -->
<!-- Title: mutations_category Pages: 1 -->
<svg width="456pt" height="411pt"
 viewBox="72.00 72.00 384.00 338.75" xmlns="http://www.w3.org/2000/svg" xmlns:xlink="http://www.w3.org/1999/xlink">
<g id="graph0" class="graph" transform="scale(1 1) rotate(0) translate(76 334.75)">
<title>mutations_category</title>
<polygon fill="white" stroke="none" points="-4,4 -4,-262.75 308,-262.75 308,4 -4,4"/>
<text text-anchor="start" x="8" y="-28.25" font-family="Monospace" font-size="10.00" fill="dimgray">Logtalk library</text>
<text text-anchor="start" x="8" y="-17" font-family="Monospace" font-size="10.00" fill="dimgray">Cross&#45;referencing diagram for category mutations</text>
<text text-anchor="start" x="8" y="-5.75" font-family="Monospace" font-size="10.00" fill="dimgray">Generated on 2024&#45;01&#45;31, 16:04</text>
<g id="clust1" class="cluster">
<title>cluster_mutations_category</title>
<g id="a_clust1"><a xlink:title="mutations">
<path fill="snow" stroke="dimgray" d="M50,-49.75C50,-49.75 254,-49.75 254,-49.75 260,-49.75 266,-55.75 266,-61.75 266,-61.75 266,-238.75 266,-238.75 266,-244.75 260,-250.75 254,-250.75 254,-250.75 50,-250.75 50,-250.75 44,-250.75 38,-244.75 38,-238.75 38,-238.75 38,-61.75 38,-61.75 38,-55.75 44,-49.75 50,-49.75"/>
<g id="a_clust1_0"><a xlink:href="https://github.com/LogtalkDotOrg/logtalk3/tree/a347ac786ccfbafa714aef7961fb6bd338c9da3d/library/mutations/mutations.lgt" xlink:title="https://github.com/LogtalkDotOrg/logtalk3/tree/a347ac786ccfbafa714aef7961fb6bd338c9da3d/library/mutations/mutations.lgt">
<text text-anchor="start" x="50" y="-233.25" font-family="Monospace" font-size="10.00" fill="dimgray">mutations</text>
</a>
</g>
</a>
</g>
</g>
<!-- mutation/3 -->
<g id="node1" class="node">
<title>mutation/3</title>
<g id="a_node1"><a xlink:href="https://github.com/LogtalkDotOrg/logtalk3/tree/a347ac786ccfbafa714aef7961fb6bd338c9da3d/library/mutations/mutations.lgt#L32" xlink:title="https://github.com/LogtalkDotOrg/logtalk3/tree/a347ac786ccfbafa714aef7961fb6bd338c9da3d/library/mutations/mutations.lgt#L32">
<polygon fill="springgreen" stroke="black" points="198.5,-213.5 105.5,-213.5 105.5,-177.5 198.5,-177.5 198.5,-213.5"/>
<text text-anchor="start" x="113.38" y="-196.32" font-family="Monospace" font-size="9.00"> </text>
<text text-anchor="start" x="118.25" y="-195.55" font-family="Monospace" font-size="11.00">mutation/3</text>
<text text-anchor="start" x="185.38" y="-196.32" font-family="Monospace" font-size="9.00"> </text>
<text text-anchor="start" x="113.38" y="-185.45" font-family="Monospace" font-size="9.00"> </text>
<text text-anchor="start" x="138.5" y="-186.97" font-family="Monospace" font-size="7.00">public</text>
<text text-anchor="start" x="185.38" y="-185.45" font-family="Monospace" font-size="9.00"> </text>
</a>
</g>
</g>
<!-- mutations_store::mutation/3 -->
<g id="node2" class="node">
<title>mutations_store::mutation/3</title>
<g id="a_node2"><a xlink:href="https://logtalk.org/library/mutations_store_0.html#mutation/3" xlink:title="https://logtalk.org/library/mutations_store_0.html#mutation/3">
<polygon fill="beige" stroke="black" stroke-dasharray="5,2" points="256,-95.75 48,-95.75 48,-59.75 256,-59.75 256,-95.75"/>
<text text-anchor="start" x="55.88" y="-78.58" font-family="Monospace" font-size="9.00"> </text>
<text text-anchor="start" x="60.88" y="-77.8" font-family="Monospace" font-size="11.00">mutations_store::mutation/3</text>
<text text-anchor="start" x="242.88" y="-78.58" font-family="Monospace" font-size="9.00"> </text>
<text text-anchor="start" x="55.88" y="-67.7" font-family="Monospace" font-size="9.00"> </text>
<text text-anchor="start" x="134" y="-69.22" font-family="Monospace" font-size="7.00">external</text>
<text text-anchor="start" x="242.88" y="-67.7" font-family="Monospace" font-size="9.00"> </text>
</a>
</g>
</g>
<!-- mutation/3&#45;&gt;mutations_store::mutation/3 -->
<g id="edge1" class="edge">
<title>mutation/3&#45;&gt;mutations_store::mutation/3</title>
<g id="a_edge1"><a xlink:href="https://github.com/LogtalkDotOrg/logtalk3/tree/a347ac786ccfbafa714aef7961fb6bd338c9da3d/library/mutations/mutations.lgt#L39" xlink:title="calls">
<path fill="none" stroke="black" d="M152,-177.17C152,-158.76 152,-129.35 152,-107.46"/>
<polygon fill="black" stroke="black" points="155.5,-107.71 152,-97.71 148.5,-107.71 155.5,-107.71"/>
</a>
</g>
<g id="a_edge1&#45;label"><a xlink:href="https://github.com/LogtalkDotOrg/logtalk3/tree/a347ac786ccfbafa714aef7961fb6bd338c9da3d/library/mutations/mutations.lgt#L39" xlink:title="https://github.com/LogtalkDotOrg/logtalk3/tree/a347ac786ccfbafa714aef7961fb6bd338c9da3d/library/mutations/mutations.lgt#L39">
<text text-anchor="start" x="152" y="-132.95" font-family="Monospace" font-size="9.00">calls</text>
</a>
</g>
</g>
</g>
</svg>
