<?xml version="1.0" encoding="UTF-8" standalone="no"?>
<?xml-stylesheet href="diagrams.css" type="text/css"?>
<!DOCTYPE svg PUBLIC "-//W3C//DTD SVG 1.1//EN"
 "http://www.w3.org/Graphics/SVG/1.1/DTD/svg11.dtd">
<!-- Generated by graphviz version 12.1.2 (20240928.0832)
 -->
<!-- Title: mutations_category Pages: 1 -->
<svg width="456pt" height="418pt"
 viewBox="72.00 72.00 384.00 346.25" xmlns="http://www.w3.org/2000/svg" xmlns:xlink="http://www.w3.org/1999/xlink">
<g id="graph0" class="graph" transform="scale(1 1) rotate(0) translate(76 342.25)">
<title>mutations_category</title>
<polygon fill="white" stroke="none" points="-4,4 -4,-270.25 308,-270.25 308,4 -4,4"/>
<text text-anchor="start" x="8" y="-32.75" font-family="Monospace" font-size="10.00" fill="dimgray">Logtalk library</text>
<text text-anchor="start" x="8" y="-20" font-family="Monospace" font-size="10.00" fill="dimgray">Cross&#45;referencing diagram for category mutations</text>
<text text-anchor="start" x="8" y="-7.25" font-family="Monospace" font-size="10.00" fill="dimgray">Generated on 2024&#45;10&#45;16, 19:30</text>
<g id="clust1" class="cluster">
<title>cluster_mutations_category</title>
<g id="a_clust1"><a xlink:title="mutations">
<path fill="snow" stroke="dimgray" d="M50,-54.25C50,-54.25 254,-54.25 254,-54.25 260,-54.25 266,-60.25 266,-66.25 266,-66.25 266,-246.25 266,-246.25 266,-252.25 260,-258.25 254,-258.25 254,-258.25 50,-258.25 50,-258.25 44,-258.25 38,-252.25 38,-246.25 38,-246.25 38,-66.25 38,-66.25 38,-60.25 44,-54.25 50,-54.25"/>
<g id="a_clust1_0"><a xlink:href="https://github.com/LogtalkDotOrg/logtalk3/tree/f7183aedd7cdd0298daa85b6c999a8ed33792962/library/mutations/mutations.lgt" xlink:title="https://github.com/LogtalkDotOrg/logtalk3/tree/f7183aedd7cdd0298daa85b6c999a8ed33792962/library/mutations/mutations.lgt">
<text text-anchor="start" x="50" y="-240.75" font-family="Monospace" font-size="10.00" fill="dimgray">mutations</text>
</a>
</g>
</a>
</g>
</g>
<!-- mutation/3 -->
<g id="node1" class="node">
<title>mutation/3</title>
<g id="a_node1"><a xlink:href="https://github.com/LogtalkDotOrg/logtalk3/tree/f7183aedd7cdd0298daa85b6c999a8ed33792962/library/mutations/mutations.lgt#L32" xlink:title="https://github.com/LogtalkDotOrg/logtalk3/tree/f7183aedd7cdd0298daa85b6c999a8ed33792962/library/mutations/mutations.lgt#L32">
<polygon fill="springgreen" stroke="black" points="198.5,-219.5 105.5,-219.5 105.5,-183.5 198.5,-183.5 198.5,-219.5"/>
<text text-anchor="start" x="113.38" y="-204.07" font-family="Monospace" font-size="9.00"> </text>
<text text-anchor="start" x="118.25" y="-203.05" font-family="Monospace" font-size="11.00">mutation/3</text>
<text text-anchor="start" x="185.38" y="-204.07" font-family="Monospace" font-size="9.00"> </text>
<text text-anchor="start" x="113.38" y="-191.95" font-family="Monospace" font-size="9.00"> </text>
<text text-anchor="start" x="138.5" y="-192.85" font-family="Monospace" font-size="7.00">public</text>
<text text-anchor="start" x="185.38" y="-191.95" font-family="Monospace" font-size="9.00"> </text>
</a>
</g>
</g>
<!-- mutations_store::mutation/3 -->
<g id="node2" class="node">
<title>mutations_store::mutation/3</title>
<g id="a_node2"><a xlink:href="https://logtalk.org/library/mutations_store_0.html#mutation-3" xlink:title="https://logtalk.org/library/mutations_store_0.html#mutation&#45;3">
<polygon fill="beige" stroke="black" stroke-dasharray="5,2" points="256,-100.25 48,-100.25 48,-64.25 256,-64.25 256,-100.25"/>
<text text-anchor="start" x="55.88" y="-84.83" font-family="Monospace" font-size="9.00"> </text>
<text text-anchor="start" x="60.88" y="-83.8" font-family="Monospace" font-size="11.00">mutations_store::mutation/3</text>
<text text-anchor="start" x="242.88" y="-84.83" font-family="Monospace" font-size="9.00"> </text>
<text text-anchor="start" x="55.88" y="-72.7" font-family="Monospace" font-size="9.00"> </text>
<text text-anchor="start" x="134" y="-73.6" font-family="Monospace" font-size="7.00">external</text>
<text text-anchor="start" x="242.88" y="-72.7" font-family="Monospace" font-size="9.00"> </text>
</a>
</g>
</g>
<!-- mutation/3&#45;&gt;mutations_store::mutation/3 -->
<g id="edge1" class="edge">
<title>mutation/3&#45;&gt;mutations_store::mutation/3</title>
<g id="a_edge1"><a xlink:href="https://github.com/LogtalkDotOrg/logtalk3/tree/f7183aedd7cdd0298daa85b6c999a8ed33792962/library/mutations/mutations.lgt#L39" xlink:title="calls">
<path fill="none" stroke="black" d="M152,-183.2C152,-164.5 152,-134.37 152,-112.08"/>
<polygon fill="black" stroke="black" points="155.5,-112.14 152,-102.14 148.5,-112.14 155.5,-112.14"/>
</a>
</g>
<g id="a_edge1&#45;label"><a xlink:href="https://github.com/LogtalkDotOrg/logtalk3/tree/f7183aedd7cdd0298daa85b6c999a8ed33792962/library/mutations/mutations.lgt#L39" xlink:title="https://github.com/LogtalkDotOrg/logtalk3/tree/f7183aedd7cdd0298daa85b6c999a8ed33792962/library/mutations/mutations.lgt#L39">
<text text-anchor="start" x="152" y="-138.95" font-family="Monospace" font-size="9.00">calls</text>
</a>
</g>
</g>
</g>
</svg>
