<?xml version="1.0" encoding="UTF-8" standalone="no"?>
<?xml-stylesheet href="diagrams.css" type="text/css"?>
<!DOCTYPE svg PUBLIC "-//W3C//DTD SVG 1.1//EN"
 "http://www.w3.org/Graphics/SVG/1.1/DTD/svg11.dtd">
<!-- Generated by graphviz version 9.0.0 (20230911.1827)
 -->
<!-- Title: natural_object Pages: 1 -->
<svg width="457pt" height="411pt"
 viewBox="72.00 72.00 385.00 338.75" xmlns="http://www.w3.org/2000/svg" xmlns:xlink="http://www.w3.org/1999/xlink">
<g id="graph0" class="graph" transform="scale(1 1) rotate(0) translate(76 334.75)">
<title>natural_object</title>
<polygon fill="white" stroke="none" points="-4,4 -4,-262.75 309,-262.75 309,4 -4,4"/>
<text text-anchor="start" x="8" y="-28.25" font-family="Monospace" font-size="10.00" fill="dimgray">Logtalk library</text>
<text text-anchor="start" x="8" y="-17" font-family="Monospace" font-size="10.00" fill="dimgray">Cross&#45;referencing diagram for object natural</text>
<text text-anchor="start" x="8" y="-5.75" font-family="Monospace" font-size="10.00" fill="dimgray">Generated on 2024&#45;01&#45;08, 21:47</text>
<g id="clust1" class="cluster">
<title>cluster_natural_object</title>
<g id="a_clust1"><a xlink:title="natural">
<path fill="snow" stroke="dimgray" d="M20,-49.75C20,-49.75 285,-49.75 285,-49.75 291,-49.75 297,-55.75 297,-61.75 297,-61.75 297,-238.75 297,-238.75 297,-244.75 291,-250.75 285,-250.75 285,-250.75 20,-250.75 20,-250.75 14,-250.75 8,-244.75 8,-238.75 8,-238.75 8,-61.75 8,-61.75 8,-55.75 14,-49.75 20,-49.75"/>
<g id="a_clust1_0"><a xlink:href="https://github.com/LogtalkDotOrg/logtalk3/tree/80d4127e9beae2f408b6813a9d163658e68b27ba/library/types/natural.lgt" xlink:title="https://github.com/LogtalkDotOrg/logtalk3/tree/80d4127e9beae2f408b6813a9d163658e68b27ba/library/types/natural.lgt">
<text text-anchor="start" x="20" y="-233.25" font-family="Monospace" font-size="10.00" fill="dimgray">natural</text>
</a>
</g>
</a>
</g>
</g>
<!-- between/3 -->
<g id="node1" class="node">
<title>between/3</title>
<g id="a_node1"><a xlink:href="https://github.com/LogtalkDotOrg/logtalk3/tree/80d4127e9beae2f408b6813a9d163658e68b27ba/library/types/natural.lgt#L33" xlink:title="https://github.com/LogtalkDotOrg/logtalk3/tree/80d4127e9beae2f408b6813a9d163658e68b27ba/library/types/natural.lgt#L33">
<polygon fill="cornsilk" stroke="black" points="287,-213.5 201,-213.5 201,-177.5 287,-177.5 287,-213.5"/>
<text text-anchor="start" x="208.88" y="-196.32" font-family="Monospace" font-size="9.00"> </text>
<text text-anchor="start" x="213.62" y="-195.55" font-family="Monospace" font-size="11.00">between/3</text>
<text text-anchor="start" x="273.88" y="-196.32" font-family="Monospace" font-size="9.00"> </text>
<text text-anchor="start" x="208.88" y="-185.45" font-family="Monospace" font-size="9.00"> </text>
<text text-anchor="start" x="232.75" y="-186.97" font-family="Monospace" font-size="7.00">local</text>
<text text-anchor="start" x="273.88" y="-185.45" font-family="Monospace" font-size="9.00"> </text>
</a>
</g>
</g>
<!-- ^^between/3 -->
<g id="node4" class="node">
<title>^^between/3</title>
<polygon fill="beige" stroke="black" stroke-dasharray="5,2" points="287,-95.75 187,-95.75 187,-59.75 287,-59.75 287,-95.75"/>
<text text-anchor="start" x="194.88" y="-78.58" font-family="Monospace" font-size="9.00"> </text>
<text text-anchor="start" x="199.88" y="-77.8" font-family="Monospace" font-size="11.00">^^between/3</text>
<text text-anchor="start" x="273.88" y="-78.58" font-family="Monospace" font-size="9.00"> </text>
<text text-anchor="start" x="194.88" y="-67.7" font-family="Monospace" font-size="9.00"> </text>
<text text-anchor="start" x="219" y="-69.22" font-family="Monospace" font-size="7.00">external</text>
<text text-anchor="start" x="273.88" y="-67.7" font-family="Monospace" font-size="9.00"> </text>
</g>
<!-- between/3&#45;&gt;^^between/3 -->
<g id="edge1" class="edge">
<title>between/3&#45;&gt;^^between/3</title>
<g id="a_edge1"><a xlink:href="https://github.com/LogtalkDotOrg/logtalk3/tree/80d4127e9beae2f408b6813a9d163658e68b27ba/library/types/natural.lgt#L33" xlink:title="calls">
<path fill="none" stroke="black" d="M242.95,-177.17C241.84,-158.76 240.06,-129.35 238.74,-107.46"/>
<polygon fill="black" stroke="black" points="242.24,-107.48 238.15,-97.71 235.26,-107.9 242.24,-107.48"/>
</a>
</g>
<g id="a_edge1&#45;label"><a xlink:href="https://github.com/LogtalkDotOrg/logtalk3/tree/80d4127e9beae2f408b6813a9d163658e68b27ba/library/types/natural.lgt#L33" xlink:title="https://github.com/LogtalkDotOrg/logtalk3/tree/80d4127e9beae2f408b6813a9d163658e68b27ba/library/types/natural.lgt#L33">
<text text-anchor="start" x="240" y="-132.95" font-family="Monospace" font-size="9.00">calls</text>
</a>
</g>
</g>
<!-- valid/1 -->
<g id="node2" class="node">
<title>valid/1</title>
<g id="a_node2"><a xlink:href="https://github.com/LogtalkDotOrg/logtalk3/tree/80d4127e9beae2f408b6813a9d163658e68b27ba/library/types/natural.lgt#L38" xlink:title="https://github.com/LogtalkDotOrg/logtalk3/tree/80d4127e9beae2f408b6813a9d163658e68b27ba/library/types/natural.lgt#L38">
<polygon fill="cornsilk" stroke="black" points="182.5,-213.5 109.5,-213.5 109.5,-177.5 182.5,-177.5 182.5,-213.5"/>
<text text-anchor="start" x="117.38" y="-196.32" font-family="Monospace" font-size="9.00"> </text>
<text text-anchor="start" x="122.38" y="-195.55" font-family="Monospace" font-size="11.00">valid/1</text>
<text text-anchor="start" x="169.38" y="-196.32" font-family="Monospace" font-size="9.00"> </text>
<text text-anchor="start" x="117.38" y="-185.45" font-family="Monospace" font-size="9.00"> </text>
<text text-anchor="start" x="134.75" y="-186.97" font-family="Monospace" font-size="7.00">local</text>
<text text-anchor="start" x="169.38" y="-185.45" font-family="Monospace" font-size="9.00"> </text>
</a>
</g>
</g>
<!-- check/1 -->
<g id="node3" class="node">
<title>check/1</title>
<g id="a_node3"><a xlink:href="https://github.com/LogtalkDotOrg/logtalk3/tree/80d4127e9beae2f408b6813a9d163658e68b27ba/library/types/natural.lgt#L42" xlink:title="https://github.com/LogtalkDotOrg/logtalk3/tree/80d4127e9beae2f408b6813a9d163658e68b27ba/library/types/natural.lgt#L42">
<polygon fill="cornsilk" stroke="black" points="91.5,-213.5 18.5,-213.5 18.5,-177.5 91.5,-177.5 91.5,-213.5"/>
<text text-anchor="start" x="26.38" y="-196.32" font-family="Monospace" font-size="9.00"> </text>
<text text-anchor="start" x="31.38" y="-195.55" font-family="Monospace" font-size="11.00">check/1</text>
<text text-anchor="start" x="78.38" y="-196.32" font-family="Monospace" font-size="9.00"> </text>
<text text-anchor="start" x="26.38" y="-185.45" font-family="Monospace" font-size="9.00"> </text>
<text text-anchor="start" x="43.75" y="-186.97" font-family="Monospace" font-size="7.00">local</text>
<text text-anchor="start" x="78.38" y="-185.45" font-family="Monospace" font-size="9.00"> </text>
</a>
</g>
</g>
</g>
</svg>
