<?xml version="1.0" encoding="UTF-8" standalone="no"?>
<?xml-stylesheet href="diagrams.css" type="text/css"?>
<!DOCTYPE svg PUBLIC "-//W3C//DTD SVG 1.1//EN"
 "http://www.w3.org/Graphics/SVG/1.1/DTD/svg11.dtd">
<!-- Generated by graphviz version 11.0.0 (20240428.1522)
 -->
<!-- Title: natural_object Pages: 1 -->
<svg width="457pt" height="418pt"
 viewBox="72.00 72.00 385.00 346.25" xmlns="http://www.w3.org/2000/svg" xmlns:xlink="http://www.w3.org/1999/xlink">
<g id="graph0" class="graph" transform="scale(1 1) rotate(0) translate(76 342.25)">
<title>natural_object</title>
<polygon fill="white" stroke="none" points="-4,4 -4,-270.25 309,-270.25 309,4 -4,4"/>
<text text-anchor="start" x="8" y="-32.75" font-family="Monospace" font-size="10.00" fill="dimgray">Logtalk library</text>
<text text-anchor="start" x="8" y="-20" font-family="Monospace" font-size="10.00" fill="dimgray">Cross&#45;referencing diagram for object natural</text>
<text text-anchor="start" x="8" y="-7.25" font-family="Monospace" font-size="10.00" fill="dimgray">Generated on 2024&#45;05&#45;15, 11:51</text>
<g id="clust1" class="cluster">
<title>cluster_natural_object</title>
<g id="a_clust1"><a xlink:title="natural">
<path fill="snow" stroke="dimgray" d="M20,-54.25C20,-54.25 285,-54.25 285,-54.25 291,-54.25 297,-60.25 297,-66.25 297,-66.25 297,-246.25 297,-246.25 297,-252.25 291,-258.25 285,-258.25 285,-258.25 20,-258.25 20,-258.25 14,-258.25 8,-252.25 8,-246.25 8,-246.25 8,-66.25 8,-66.25 8,-60.25 14,-54.25 20,-54.25"/>
<g id="a_clust1_0"><a xlink:href="https://github.com/LogtalkDotOrg/logtalk3/tree/1b72badacda2c9af66451eaee23719ba0d4aa041/library/types/natural.lgt" xlink:title="https://github.com/LogtalkDotOrg/logtalk3/tree/1b72badacda2c9af66451eaee23719ba0d4aa041/library/types/natural.lgt">
<text text-anchor="start" x="20" y="-240.75" font-family="Monospace" font-size="10.00" fill="dimgray">natural</text>
</a>
</g>
</a>
</g>
</g>
<!-- between/3 -->
<g id="node1" class="node">
<title>between/3</title>
<g id="a_node1"><a xlink:href="https://github.com/LogtalkDotOrg/logtalk3/tree/1b72badacda2c9af66451eaee23719ba0d4aa041/library/types/natural.lgt#L33" xlink:title="https://github.com/LogtalkDotOrg/logtalk3/tree/1b72badacda2c9af66451eaee23719ba0d4aa041/library/types/natural.lgt#L33">
<polygon fill="cornsilk" stroke="black" points="104,-219.5 18,-219.5 18,-183.5 104,-183.5 104,-219.5"/>
<text text-anchor="start" x="25.88" y="-204.07" font-family="Monospace" font-size="9.00"> </text>
<text text-anchor="start" x="30.62" y="-203.05" font-family="Monospace" font-size="11.00">between/3</text>
<text text-anchor="start" x="90.88" y="-204.07" font-family="Monospace" font-size="9.00"> </text>
<text text-anchor="start" x="25.88" y="-191.95" font-family="Monospace" font-size="9.00"> </text>
<text text-anchor="start" x="49.75" y="-192.85" font-family="Monospace" font-size="7.00">local</text>
<text text-anchor="start" x="90.88" y="-191.95" font-family="Monospace" font-size="9.00"> </text>
</a>
</g>
</g>
<!-- ^^between/3 -->
<g id="node4" class="node">
<title>^^between/3</title>
<polygon fill="beige" stroke="black" stroke-dasharray="5,2" points="118,-100.25 18,-100.25 18,-64.25 118,-64.25 118,-100.25"/>
<text text-anchor="start" x="25.88" y="-84.83" font-family="Monospace" font-size="9.00"> </text>
<text text-anchor="start" x="30.88" y="-83.8" font-family="Monospace" font-size="11.00">^^between/3</text>
<text text-anchor="start" x="104.88" y="-84.83" font-family="Monospace" font-size="9.00"> </text>
<text text-anchor="start" x="25.88" y="-72.7" font-family="Monospace" font-size="9.00"> </text>
<text text-anchor="start" x="50" y="-73.6" font-family="Monospace" font-size="7.00">external</text>
<text text-anchor="start" x="104.88" y="-72.7" font-family="Monospace" font-size="9.00"> </text>
</g>
<!-- between/3&#45;&gt;^^between/3 -->
<g id="edge1" class="edge">
<title>between/3&#45;&gt;^^between/3</title>
<g id="a_edge1"><a xlink:href="https://github.com/LogtalkDotOrg/logtalk3/tree/1b72badacda2c9af66451eaee23719ba0d4aa041/library/types/natural.lgt#L33" xlink:title="calls">
<path fill="none" stroke="black" d="M62.03,-183.2C63.15,-164.5 64.95,-134.37 66.28,-112.08"/>
<polygon fill="black" stroke="black" points="69.77,-112.32 66.87,-102.13 62.78,-111.91 69.77,-112.32"/>
</a>
</g>
<g id="a_edge1&#45;label"><a xlink:href="https://github.com/LogtalkDotOrg/logtalk3/tree/1b72badacda2c9af66451eaee23719ba0d4aa041/library/types/natural.lgt#L33" xlink:title="https://github.com/LogtalkDotOrg/logtalk3/tree/1b72badacda2c9af66451eaee23719ba0d4aa041/library/types/natural.lgt#L33">
<text text-anchor="start" x="64" y="-138.95" font-family="Monospace" font-size="9.00">calls</text>
</a>
</g>
</g>
<!-- valid/1 -->
<g id="node2" class="node">
<title>valid/1</title>
<g id="a_node2"><a xlink:href="https://github.com/LogtalkDotOrg/logtalk3/tree/1b72badacda2c9af66451eaee23719ba0d4aa041/library/types/natural.lgt#L38" xlink:title="https://github.com/LogtalkDotOrg/logtalk3/tree/1b72badacda2c9af66451eaee23719ba0d4aa041/library/types/natural.lgt#L38">
<polygon fill="cornsilk" stroke="black" points="195.5,-219.5 122.5,-219.5 122.5,-183.5 195.5,-183.5 195.5,-219.5"/>
<text text-anchor="start" x="130.38" y="-204.07" font-family="Monospace" font-size="9.00"> </text>
<text text-anchor="start" x="135.38" y="-203.05" font-family="Monospace" font-size="11.00">valid/1</text>
<text text-anchor="start" x="182.38" y="-204.07" font-family="Monospace" font-size="9.00"> </text>
<text text-anchor="start" x="130.38" y="-191.95" font-family="Monospace" font-size="9.00"> </text>
<text text-anchor="start" x="147.75" y="-192.85" font-family="Monospace" font-size="7.00">local</text>
<text text-anchor="start" x="182.38" y="-191.95" font-family="Monospace" font-size="9.00"> </text>
</a>
</g>
</g>
<!-- check/1 -->
<g id="node3" class="node">
<title>check/1</title>
<g id="a_node3"><a xlink:href="https://github.com/LogtalkDotOrg/logtalk3/tree/1b72badacda2c9af66451eaee23719ba0d4aa041/library/types/natural.lgt#L42" xlink:title="https://github.com/LogtalkDotOrg/logtalk3/tree/1b72badacda2c9af66451eaee23719ba0d4aa041/library/types/natural.lgt#L42">
<polygon fill="cornsilk" stroke="black" points="286.5,-219.5 213.5,-219.5 213.5,-183.5 286.5,-183.5 286.5,-219.5"/>
<text text-anchor="start" x="221.38" y="-204.07" font-family="Monospace" font-size="9.00"> </text>
<text text-anchor="start" x="226.38" y="-203.05" font-family="Monospace" font-size="11.00">check/1</text>
<text text-anchor="start" x="273.38" y="-204.07" font-family="Monospace" font-size="9.00"> </text>
<text text-anchor="start" x="221.38" y="-191.95" font-family="Monospace" font-size="9.00"> </text>
<text text-anchor="start" x="238.75" y="-192.85" font-family="Monospace" font-size="7.00">local</text>
<text text-anchor="start" x="273.38" y="-191.95" font-family="Monospace" font-size="9.00"> </text>
</a>
</g>
</g>
</g>
</svg>
