<?xml version="1.0" encoding="UTF-8" standalone="no"?>
<?xml-stylesheet href="diagrams.css" type="text/css"?>
<!DOCTYPE svg PUBLIC "-//W3C//DTD SVG 1.1//EN"
 "http://www.w3.org/Graphics/SVG/1.1/DTD/svg11.dtd">
<!-- Generated by graphviz version 2.50.0 (20211204.2007)
 -->
<!-- Title: natural_object Pages: 1 -->
<svg width="466pt" height="410pt"
 viewBox="72.00 72.00 394.00 338.00" xmlns="http://www.w3.org/2000/svg" xmlns:xlink="http://www.w3.org/1999/xlink">
<g id="graph0" class="graph" transform="scale(1 1) rotate(0) translate(76 334)">
<title>natural_object</title>
<polygon fill="white" stroke="transparent" points="-4,4 -4,-262 318,-262 318,4 -4,4"/>
<text text-anchor="start" x="8" y="-29" font-family="Monospace" font-size="10.00" fill="dimgray">Logtalk library</text>
<text text-anchor="start" x="8" y="-18" font-family="Monospace" font-size="10.00" fill="dimgray">Cross&#45;referencing diagram for object natural</text>
<text text-anchor="start" x="8" y="-7" font-family="Monospace" font-size="10.00" fill="dimgray">Generated on 2022&#45;02&#45;17, 18:40</text>
<g id="clust1" class="cluster">
<title>cluster_natural_object</title>
<g id="a_clust1"><a xlink:title="natural">
<path fill="snow" stroke="dimgray" d="M20,-49C20,-49 294,-49 294,-49 300,-49 306,-55 306,-61 306,-61 306,-238 306,-238 306,-244 300,-250 294,-250 294,-250 20,-250 20,-250 14,-250 8,-244 8,-238 8,-238 8,-61 8,-61 8,-55 14,-49 20,-49"/>
<g id="a_clust1_0"><a xlink:href="https://github.com/LogtalkDotOrg/logtalk3/tree/ffa17e8d33484385bd243087b04d70ddea3fc40e/library/types/natural.lgt" xlink:title="https://github.com/LogtalkDotOrg/logtalk3/tree/ffa17e8d33484385bd243087b04d70ddea3fc40e/library/types/natural.lgt">
<text text-anchor="start" x="20.5" y="-233.5" font-family="Monospace" font-size="10.00" fill="dimgray">natural</text>
</a>
</g>
</a>
</g>
</g>
<!-- between/3 -->
<g id="node1" class="node">
<title>between/3</title>
<g id="a_node1"><a xlink:href="https://github.com/LogtalkDotOrg/logtalk3/tree/ffa17e8d33484385bd243087b04d70ddea3fc40e/library/types/natural.lgt#L33" xlink:title="https://github.com/LogtalkDotOrg/logtalk3/tree/ffa17e8d33484385bd243087b04d70ddea3fc40e/library/types/natural.lgt#L33">
<polygon fill="cornsilk" stroke="black" points="295.5,-213 206.5,-213 206.5,-177 295.5,-177 295.5,-213"/>
<text text-anchor="start" x="215" y="-197.8" font-family="Monospace" font-size="9.00"> </text>
<text text-anchor="start" x="221" y="-197.2" font-family="Monospace" font-size="11.00">between/3</text>
<text text-anchor="start" x="282" y="-197.8" font-family="Monospace" font-size="9.00"> </text>
<text text-anchor="start" x="215" y="-186.8" font-family="Monospace" font-size="9.00"> </text>
<text text-anchor="start" x="240" y="-187.4" font-family="Monospace" font-size="7.00">local</text>
<text text-anchor="start" x="282" y="-186.8" font-family="Monospace" font-size="9.00"> </text>
</a>
</g>
</g>
<!-- ^^between/3 -->
<g id="node4" class="node">
<title>^^between/3</title>
<polygon fill="beige" stroke="black" stroke-dasharray="5,2" points="295.5,-95 192.5,-95 192.5,-59 295.5,-59 295.5,-95"/>
<text text-anchor="start" x="201" y="-79.8" font-family="Monospace" font-size="9.00"> </text>
<text text-anchor="start" x="207" y="-79.2" font-family="Monospace" font-size="11.00">^^between/3</text>
<text text-anchor="start" x="282" y="-79.8" font-family="Monospace" font-size="9.00"> </text>
<text text-anchor="start" x="201" y="-68.8" font-family="Monospace" font-size="9.00"> </text>
<text text-anchor="start" x="226" y="-69.4" font-family="Monospace" font-size="7.00">external</text>
<text text-anchor="start" x="282" y="-68.8" font-family="Monospace" font-size="9.00"> </text>
</g>
<!-- between/3&#45;&gt;^^between/3 -->
<g id="edge1" class="edge">
<title>between/3&#45;&gt;^^between/3</title>
<g id="a_edge1"><a xlink:href="https://github.com/LogtalkDotOrg/logtalk3/tree/ffa17e8d33484385bd243087b04d70ddea3fc40e/library/types/natural.lgt#L33" xlink:title="calls">
<path fill="none" stroke="black" d="M249.97,-176.88C248.83,-158.04 246.99,-127.47 245.65,-105.3"/>
<polygon fill="black" stroke="black" points="249.13,-104.96 245.04,-95.19 242.15,-105.38 249.13,-104.96"/>
</a>
</g>
<g id="a_edge1&#45;label"><a xlink:href="https://github.com/LogtalkDotOrg/logtalk3/tree/ffa17e8d33484385bd243087b04d70ddea3fc40e/library/types/natural.lgt#L33" xlink:title="https://github.com/LogtalkDotOrg/logtalk3/tree/ffa17e8d33484385bd243087b04d70ddea3fc40e/library/types/natural.lgt#L33">
<text text-anchor="start" x="247" y="-133.8" font-family="Monospace" font-size="9.00">calls</text>
</a>
</g>
</g>
<!-- valid/1 -->
<g id="node2" class="node">
<title>valid/1</title>
<g id="a_node2"><a xlink:href="https://github.com/LogtalkDotOrg/logtalk3/tree/ffa17e8d33484385bd243087b04d70ddea3fc40e/library/types/natural.lgt#L38" xlink:title="https://github.com/LogtalkDotOrg/logtalk3/tree/ffa17e8d33484385bd243087b04d70ddea3fc40e/library/types/natural.lgt#L38">
<polygon fill="cornsilk" stroke="black" points="188,-213 112,-213 112,-177 188,-177 188,-213"/>
<text text-anchor="start" x="120" y="-197.8" font-family="Monospace" font-size="9.00"> </text>
<text text-anchor="start" x="126" y="-197.2" font-family="Monospace" font-size="11.00">valid/1</text>
<text text-anchor="start" x="174" y="-197.8" font-family="Monospace" font-size="9.00"> </text>
<text text-anchor="start" x="120" y="-186.8" font-family="Monospace" font-size="9.00"> </text>
<text text-anchor="start" x="138.5" y="-187.4" font-family="Monospace" font-size="7.00">local</text>
<text text-anchor="start" x="174" y="-186.8" font-family="Monospace" font-size="9.00"> </text>
</a>
</g>
</g>
<!-- check/1 -->
<g id="node3" class="node">
<title>check/1</title>
<g id="a_node3"><a xlink:href="https://github.com/LogtalkDotOrg/logtalk3/tree/ffa17e8d33484385bd243087b04d70ddea3fc40e/library/types/natural.lgt#L42" xlink:title="https://github.com/LogtalkDotOrg/logtalk3/tree/ffa17e8d33484385bd243087b04d70ddea3fc40e/library/types/natural.lgt#L42">
<polygon fill="cornsilk" stroke="black" points="94,-213 18,-213 18,-177 94,-177 94,-213"/>
<text text-anchor="start" x="26" y="-197.8" font-family="Monospace" font-size="9.00"> </text>
<text text-anchor="start" x="32" y="-197.2" font-family="Monospace" font-size="11.00">check/1</text>
<text text-anchor="start" x="80" y="-197.8" font-family="Monospace" font-size="9.00"> </text>
<text text-anchor="start" x="26" y="-186.8" font-family="Monospace" font-size="9.00"> </text>
<text text-anchor="start" x="44.5" y="-187.4" font-family="Monospace" font-size="7.00">local</text>
<text text-anchor="start" x="80" y="-186.8" font-family="Monospace" font-size="9.00"> </text>
</a>
</g>
</g>
</g>
</svg>
