<?xml version="1.0" encoding="UTF-8" standalone="no"?>
<?xml-stylesheet href="diagrams.css" type="text/css"?>
<!DOCTYPE svg PUBLIC "-//W3C//DTD SVG 1.1//EN"
 "http://www.w3.org/Graphics/SVG/1.1/DTD/svg11.dtd">
<!-- Generated by graphviz version 2.40.1 (20161225.0304)
 -->
<!-- Title: natural_object Pages: 1 -->
<svg width="466pt" height="484pt"
 viewBox="72.00 72.00 394.00 412.00" xmlns="http://www.w3.org/2000/svg" xmlns:xlink="http://www.w3.org/1999/xlink">
<g id="graph0" class="graph" transform="scale(1 1) rotate(0) translate(76 408)">
<title>natural_object</title>
<polygon fill="#ffffff" stroke="transparent" points="-4,4 -4,-336 318,-336 318,4 -4,4"/>
<text text-anchor="start" x="8" y="-29" font-family="Monospace" font-size="10.00" fill="#696969">Logtalk library</text>
<text text-anchor="start" x="8" y="-18" font-family="Monospace" font-size="10.00" fill="#696969">Cross&#45;referencing diagram for object natural</text>
<text text-anchor="start" x="8" y="-7" font-family="Monospace" font-size="10.00" fill="#696969">Generated on 2023&#45;01&#45;01, 23:40</text>
<g id="clust1" class="cluster">
<title>cluster_natural_object</title>
<g id="a_clust1"><a xlink:title="natural">
<path fill="#fffafa" stroke="#696969" d="M20,-49C20,-49 294,-49 294,-49 300,-49 306,-55 306,-61 306,-61 306,-312 306,-312 306,-318 300,-324 294,-324 294,-324 20,-324 20,-324 14,-324 8,-318 8,-312 8,-312 8,-61 8,-61 8,-55 14,-49 20,-49"/>
<g id="a_clust1_0"><a xlink:href="https://github.com/LogtalkDotOrg/logtalk3/tree/934aee98ed3bc6654f203177f74af1b33a85d94c/library/types/natural.lgt" xlink:title="https://github.com/LogtalkDotOrg/logtalk3/tree/934aee98ed3bc6654f203177f74af1b33a85d94c/library/types/natural.lgt">
<text text-anchor="start" x="20.5" y="-307.5" font-family="Monospace" font-size="10.00" fill="#696969">natural</text>
</a>
</g>
</a>
</g>
</g>
<!-- between/3 -->
<g id="node1" class="node">
<title>between/3</title>
<g id="a_node1"><a xlink:href="https://github.com/LogtalkDotOrg/logtalk3/tree/934aee98ed3bc6654f203177f74af1b33a85d94c/library/types/natural.lgt#L33" xlink:title="https://github.com/LogtalkDotOrg/logtalk3/tree/934aee98ed3bc6654f203177f74af1b33a85d94c/library/types/natural.lgt#L33">
<polygon fill="#fff8dc" stroke="#000000" points="295.5,-287 206.5,-287 206.5,-251 295.5,-251 295.5,-287"/>
<text text-anchor="start" x="215" y="-271.8" font-family="Monospace" font-size="9.00" fill="#000000"> </text>
<text text-anchor="start" x="221" y="-271.2" font-family="Monospace" font-size="11.00" fill="#000000">between/3</text>
<text text-anchor="start" x="282" y="-271.8" font-family="Monospace" font-size="9.00" fill="#000000"> </text>
<text text-anchor="start" x="215" y="-260.8" font-family="Monospace" font-size="9.00" fill="#000000"> </text>
<text text-anchor="start" x="240" y="-261.4" font-family="Monospace" font-size="7.00" fill="#000000">local</text>
<text text-anchor="start" x="282" y="-260.8" font-family="Monospace" font-size="9.00" fill="#000000"> </text>
</a>
</g>
</g>
<!-- ^^between/3 -->
<g id="node4" class="node">
<title>^^between/3</title>
<polygon fill="#f5f5dc" stroke="#000000" stroke-dasharray="5,2" points="295.5,-95 192.5,-95 192.5,-59 295.5,-59 295.5,-95"/>
<text text-anchor="start" x="201" y="-79.8" font-family="Monospace" font-size="9.00" fill="#000000"> </text>
<text text-anchor="start" x="207" y="-79.2" font-family="Monospace" font-size="11.00" fill="#000000">^^between/3</text>
<text text-anchor="start" x="282" y="-79.8" font-family="Monospace" font-size="9.00" fill="#000000"> </text>
<text text-anchor="start" x="201" y="-68.8" font-family="Monospace" font-size="9.00" fill="#000000"> </text>
<text text-anchor="start" x="226" y="-69.4" font-family="Monospace" font-size="7.00" fill="#000000">external</text>
<text text-anchor="start" x="282" y="-68.8" font-family="Monospace" font-size="9.00" fill="#000000"> </text>
</g>
<!-- between/3&#45;&gt;^^between/3 -->
<g id="edge1" class="edge">
<title>between/3&#45;&gt;^^between/3</title>
<g id="a_edge1"><a xlink:href="https://github.com/LogtalkDotOrg/logtalk3/tree/934aee98ed3bc6654f203177f74af1b33a85d94c/library/types/natural.lgt#L33" xlink:title="calls">
<path fill="none" stroke="#000000" d="M250.3415,-250.9371C249.1194,-217.4168 246.4924,-145.3617 245.0321,-105.3098"/>
<polygon fill="#000000" stroke="#000000" points="248.524,-105.0206 244.6619,-95.1548 241.5287,-105.2757 248.524,-105.0206"/>
</a>
</g>
<g id="a_edge1&#45;label"><a xlink:href="https://github.com/LogtalkDotOrg/logtalk3/tree/934aee98ed3bc6654f203177f74af1b33a85d94c/library/types/natural.lgt#L33" xlink:title="https://github.com/LogtalkDotOrg/logtalk3/tree/934aee98ed3bc6654f203177f74af1b33a85d94c/library/types/natural.lgt#L33">
<text text-anchor="start" x="247" y="-170.8" font-family="Monospace" font-size="9.00" fill="#000000">calls</text>
</a>
</g>
</g>
<!-- valid/1 -->
<g id="node2" class="node">
<title>valid/1</title>
<g id="a_node2"><a xlink:href="https://github.com/LogtalkDotOrg/logtalk3/tree/934aee98ed3bc6654f203177f74af1b33a85d94c/library/types/natural.lgt#L38" xlink:title="https://github.com/LogtalkDotOrg/logtalk3/tree/934aee98ed3bc6654f203177f74af1b33a85d94c/library/types/natural.lgt#L38">
<polygon fill="#fff8dc" stroke="#000000" points="188,-287 112,-287 112,-251 188,-251 188,-287"/>
<text text-anchor="start" x="120" y="-271.8" font-family="Monospace" font-size="9.00" fill="#000000"> </text>
<text text-anchor="start" x="126" y="-271.2" font-family="Monospace" font-size="11.00" fill="#000000">valid/1</text>
<text text-anchor="start" x="174" y="-271.8" font-family="Monospace" font-size="9.00" fill="#000000"> </text>
<text text-anchor="start" x="120" y="-260.8" font-family="Monospace" font-size="9.00" fill="#000000"> </text>
<text text-anchor="start" x="138.5" y="-261.4" font-family="Monospace" font-size="7.00" fill="#000000">local</text>
<text text-anchor="start" x="174" y="-260.8" font-family="Monospace" font-size="9.00" fill="#000000"> </text>
</a>
</g>
</g>
<!-- check/1 -->
<g id="node3" class="node">
<title>check/1</title>
<g id="a_node3"><a xlink:href="https://github.com/LogtalkDotOrg/logtalk3/tree/934aee98ed3bc6654f203177f74af1b33a85d94c/library/types/natural.lgt#L42" xlink:title="https://github.com/LogtalkDotOrg/logtalk3/tree/934aee98ed3bc6654f203177f74af1b33a85d94c/library/types/natural.lgt#L42">
<polygon fill="#fff8dc" stroke="#000000" points="94,-287 18,-287 18,-251 94,-251 94,-287"/>
<text text-anchor="start" x="26" y="-271.8" font-family="Monospace" font-size="9.00" fill="#000000"> </text>
<text text-anchor="start" x="32" y="-271.2" font-family="Monospace" font-size="11.00" fill="#000000">check/1</text>
<text text-anchor="start" x="80" y="-271.8" font-family="Monospace" font-size="9.00" fill="#000000"> </text>
<text text-anchor="start" x="26" y="-260.8" font-family="Monospace" font-size="9.00" fill="#000000"> </text>
<text text-anchor="start" x="44.5" y="-261.4" font-family="Monospace" font-size="7.00" fill="#000000">local</text>
<text text-anchor="start" x="80" y="-260.8" font-family="Monospace" font-size="9.00" fill="#000000"> </text>
</a>
</g>
</g>
</g>
</svg>
