<?xml version="1.0" encoding="UTF-8" standalone="no"?>
<?xml-stylesheet href="diagrams.css" type="text/css"?>
<!DOCTYPE svg PUBLIC "-//W3C//DTD SVG 1.1//EN"
 "http://www.w3.org/Graphics/SVG/1.1/DTD/svg11.dtd">
<!-- Generated by graphviz version 10.0.1 (20240210.2158)
 -->
<!-- Title: object_wrapper_hook_object Pages: 1 -->
<svg width="504pt" height="411pt"
 viewBox="72.00 72.00 432.00 338.75" xmlns="http://www.w3.org/2000/svg" xmlns:xlink="http://www.w3.org/1999/xlink">
<g id="graph0" class="graph" transform="scale(1 1) rotate(0) translate(76 334.75)">
<title>object_wrapper_hook_object</title>
<polygon fill="white" stroke="none" points="-4,4 -4,-262.75 356,-262.75 356,4 -4,4"/>
<text text-anchor="start" x="8" y="-28.25" font-family="Monospace" font-size="10.00" fill="dimgray">Logtalk library</text>
<text text-anchor="start" x="8" y="-17" font-family="Monospace" font-size="10.00" fill="dimgray">Cross&#45;referencing diagram for object object_wrapper_hook</text>
<text text-anchor="start" x="8" y="-5.75" font-family="Monospace" font-size="10.00" fill="dimgray">Generated on 2024&#45;02&#45;21, 10:44</text>
<g id="clust1" class="cluster">
<title>cluster_object_wrapper_hook_object</title>
<g id="a_clust1"><a xlink:title="object_wrapper_hook">
<path fill="snow" stroke="dimgray" d="M81,-49.75C81,-49.75 271,-49.75 271,-49.75 277,-49.75 283,-55.75 283,-61.75 283,-61.75 283,-238.75 283,-238.75 283,-244.75 277,-250.75 271,-250.75 271,-250.75 81,-250.75 81,-250.75 75,-250.75 69,-244.75 69,-238.75 69,-238.75 69,-61.75 69,-61.75 69,-55.75 75,-49.75 81,-49.75"/>
<g id="a_clust1_0"><a xlink:href="https://github.com/LogtalkDotOrg/logtalk3/tree/0f7e75d1ddcbf7bb069f2792d842a9a299f76f0f/library/hook_objects/object_wrapper_hook.lgt" xlink:title="https://github.com/LogtalkDotOrg/logtalk3/tree/0f7e75d1ddcbf7bb069f2792d842a9a299f76f0f/library/hook_objects/object_wrapper_hook.lgt">
<text text-anchor="start" x="81" y="-233.25" font-family="Monospace" font-size="10.00" fill="dimgray">object_wrapper_hook</text>
</a>
</g>
</a>
</g>
</g>
<!-- term_expansion/2 -->
<g id="node1" class="node">
<title>term_expansion/2</title>
<g id="a_node1"><a xlink:href="https://github.com/LogtalkDotOrg/logtalk3/tree/0f7e75d1ddcbf7bb069f2792d842a9a299f76f0f/library/hook_objects/object_wrapper_hook.lgt#L39" xlink:title="https://github.com/LogtalkDotOrg/logtalk3/tree/0f7e75d1ddcbf7bb069f2792d842a9a299f76f0f/library/hook_objects/object_wrapper_hook.lgt#L39">
<polygon fill="cornsilk" stroke="black" points="243,-213.5 109,-213.5 109,-177.5 243,-177.5 243,-213.5"/>
<text text-anchor="start" x="116.88" y="-196.32" font-family="Monospace" font-size="9.00"> </text>
<text text-anchor="start" x="122" y="-195.55" font-family="Monospace" font-size="11.00">term_expansion/2</text>
<text text-anchor="start" x="229.88" y="-196.32" font-family="Monospace" font-size="9.00"> </text>
<text text-anchor="start" x="116.88" y="-185.45" font-family="Monospace" font-size="9.00"> </text>
<text text-anchor="start" x="164.75" y="-186.97" font-family="Monospace" font-size="7.00">local</text>
<text text-anchor="start" x="229.88" y="-185.45" font-family="Monospace" font-size="9.00"> </text>
</a>
</g>
</g>
<!-- os::decompose_file_name/4 -->
<g id="node2" class="node">
<title>os::decompose_file_name/4</title>
<g id="a_node2"><a xlink:href="https://logtalk.org/library/osp_0.html#decompose_file_name/4" xlink:title="https://logtalk.org/library/osp_0.html#decompose_file_name/4">
<polygon fill="beige" stroke="black" stroke-dasharray="5,2" points="273,-95.75 79,-95.75 79,-59.75 273,-59.75 273,-95.75"/>
<text text-anchor="start" x="86.88" y="-78.58" font-family="Monospace" font-size="9.00"> </text>
<text text-anchor="start" x="91.62" y="-77.8" font-family="Monospace" font-size="11.00">os::decompose_file_name/4</text>
<text text-anchor="start" x="259.88" y="-78.58" font-family="Monospace" font-size="9.00"> </text>
<text text-anchor="start" x="86.88" y="-67.7" font-family="Monospace" font-size="9.00"> </text>
<text text-anchor="start" x="158" y="-69.22" font-family="Monospace" font-size="7.00">external</text>
<text text-anchor="start" x="259.88" y="-67.7" font-family="Monospace" font-size="9.00"> </text>
</a>
</g>
</g>
<!-- term_expansion/2&#45;&gt;os::decompose_file_name/4 -->
<g id="edge1" class="edge">
<title>term_expansion/2&#45;&gt;os::decompose_file_name/4</title>
<g id="a_edge1"><a xlink:href="https://github.com/LogtalkDotOrg/logtalk3/tree/0f7e75d1ddcbf7bb069f2792d842a9a299f76f0f/library/hook_objects/object_wrapper_hook.lgt#L39" xlink:title="calls">
<path fill="none" stroke="black" d="M176,-177.17C176,-158.76 176,-129.35 176,-107.46"/>
<polygon fill="black" stroke="black" points="179.5,-107.71 176,-97.71 172.5,-107.71 179.5,-107.71"/>
</a>
</g>
<g id="a_edge1&#45;label"><a xlink:href="https://github.com/LogtalkDotOrg/logtalk3/tree/0f7e75d1ddcbf7bb069f2792d842a9a299f76f0f/library/hook_objects/object_wrapper_hook.lgt#L39" xlink:title="https://github.com/LogtalkDotOrg/logtalk3/tree/0f7e75d1ddcbf7bb069f2792d842a9a299f76f0f/library/hook_objects/object_wrapper_hook.lgt#L39">
<text text-anchor="start" x="176" y="-132.95" font-family="Monospace" font-size="9.00">calls</text>
</a>
</g>
</g>
</g>
</svg>
