<?xml version="1.0" encoding="UTF-8" standalone="no"?>
<?xml-stylesheet href="diagrams.css" type="text/css"?>
<!DOCTYPE svg PUBLIC "-//W3C//DTD SVG 1.1//EN"
 "http://www.w3.org/Graphics/SVG/1.1/DTD/svg11.dtd">
<!-- Generated by graphviz version 2.49.3 (20211023.0002)
 -->
<!-- Title: object_wrapper_hook_object Pages: 1 -->
<svg width="448pt" height="410pt"
 viewBox="72.00 72.00 376.00 338.00" xmlns="http://www.w3.org/2000/svg" xmlns:xlink="http://www.w3.org/1999/xlink">
<g id="graph0" class="graph" transform="scale(1 1) rotate(0) translate(76 334)">
<title>object_wrapper_hook_object</title>
<polygon fill="white" stroke="transparent" points="-4,4 -4,-262 300,-262 300,4 -4,4"/>
<text text-anchor="start" x="8" y="-29" font-family="Courier,monospace" font-size="10.00" fill="dimgray">Logtalk library</text>
<text text-anchor="start" x="8" y="-18" font-family="Courier,monospace" font-size="10.00" fill="dimgray">Cross&#45;referencing diagram for object object_wrapper_hook</text>
<text text-anchor="start" x="8" y="-7" font-family="Courier,monospace" font-size="10.00" fill="dimgray">Generated on 2021&#45;11&#45;13, 18:29</text>
<g id="clust1" class="cluster">
<title>cluster_object_wrapper_hook_object</title>
<g id="a_clust1"><a xlink:title="object_wrapper_hook">
<path fill="snow" stroke="dimgray" d="M68,-49C68,-49 228,-49 228,-49 234,-49 240,-55 240,-61 240,-61 240,-238 240,-238 240,-244 234,-250 228,-250 228,-250 68,-250 68,-250 62,-250 56,-244 56,-238 56,-238 56,-61 56,-61 56,-55 62,-49 68,-49"/>
<g id="a_clust1_0"><a xlink:href="https://github.com/LogtalkDotOrg/logtalk3/tree/9faf5dbd41dcda13eefe9bff6f1dfa22e6d84b6c/library/hook_objects/object_wrapper_hook.lgt" xlink:title="https://github.com/LogtalkDotOrg/logtalk3/tree/9faf5dbd41dcda13eefe9bff6f1dfa22e6d84b6c/library/hook_objects/object_wrapper_hook.lgt">
<text text-anchor="start" x="68.5" y="-233.5" font-family="Courier,monospace" font-size="10.00" fill="dimgray">object_wrapper_hook</text>
</a>
</g>
</a>
</g>
</g>
<!-- term_expansion/2 -->
<g id="node1" class="node">
<title>term_expansion/2</title>
<g id="a_node1"><a xlink:href="https://github.com/LogtalkDotOrg/logtalk3/tree/9faf5dbd41dcda13eefe9bff6f1dfa22e6d84b6c/library/hook_objects/object_wrapper_hook.lgt#L38" xlink:title="https://github.com/LogtalkDotOrg/logtalk3/tree/9faf5dbd41dcda13eefe9bff6f1dfa22e6d84b6c/library/hook_objects/object_wrapper_hook.lgt#L38">
<polygon fill="cornsilk" stroke="black" points="205,-213 91,-213 91,-177 205,-177 205,-213"/>
<text text-anchor="start" x="99" y="-197.8" font-family="Courier,monospace" font-size="9.00"> </text>
<text text-anchor="start" x="104" y="-197.2" font-family="Courier,monospace" font-size="11.00">term_expansion/2</text>
<text text-anchor="start" x="192" y="-197.8" font-family="Courier,monospace" font-size="9.00"> </text>
<text text-anchor="start" x="99" y="-186.8" font-family="Courier,monospace" font-size="9.00"> </text>
<text text-anchor="start" x="139" y="-187.4" font-family="Courier,monospace" font-size="7.00">local</text>
<text text-anchor="start" x="192" y="-186.8" font-family="Courier,monospace" font-size="9.00"> </text>
</a>
</g>
</g>
<!-- os::decompose_file_name/4 -->
<g id="node2" class="node">
<title>os::decompose_file_name/4</title>
<g id="a_node2"><a xlink:href="https://logtalk.org/library/osp_0.html#decompose_file_name/4" xlink:title="https://logtalk.org/library/osp_0.html#decompose_file_name/4">
<polygon fill="beige" stroke="black" stroke-dasharray="5,2" points="230,-95 66,-95 66,-59 230,-59 230,-95"/>
<text text-anchor="start" x="74" y="-79.8" font-family="Courier,monospace" font-size="9.00"> </text>
<text text-anchor="start" x="79" y="-79.2" font-family="Courier,monospace" font-size="11.00">os::decompose_file_name/4</text>
<text text-anchor="start" x="217" y="-79.8" font-family="Courier,monospace" font-size="9.00"> </text>
<text text-anchor="start" x="74" y="-68.8" font-family="Courier,monospace" font-size="9.00"> </text>
<text text-anchor="start" x="134" y="-69.4" font-family="Courier,monospace" font-size="7.00">external</text>
<text text-anchor="start" x="217" y="-68.8" font-family="Courier,monospace" font-size="9.00"> </text>
</a>
</g>
</g>
<!-- term_expansion/2&#45;&gt;os::decompose_file_name/4 -->
<g id="edge1" class="edge">
<title>term_expansion/2&#45;&gt;os::decompose_file_name/4</title>
<g id="a_edge1"><a xlink:href="https://github.com/LogtalkDotOrg/logtalk3/tree/9faf5dbd41dcda13eefe9bff6f1dfa22e6d84b6c/library/hook_objects/object_wrapper_hook.lgt#L38" xlink:title="calls">
<path fill="none" stroke="black" d="M148,-176.88C148,-158.04 148,-127.47 148,-105.3"/>
<polygon fill="black" stroke="black" points="151.5,-105.19 148,-95.19 144.5,-105.19 151.5,-105.19"/>
</a>
</g>
<g id="a_edge1&#45;label"><a xlink:href="https://github.com/LogtalkDotOrg/logtalk3/tree/9faf5dbd41dcda13eefe9bff6f1dfa22e6d84b6c/library/hook_objects/object_wrapper_hook.lgt#L38" xlink:title="https://github.com/LogtalkDotOrg/logtalk3/tree/9faf5dbd41dcda13eefe9bff6f1dfa22e6d84b6c/library/hook_objects/object_wrapper_hook.lgt#L38">
<text text-anchor="start" x="148" y="-133.8" font-family="Courier,monospace" font-size="9.00">calls</text>
</a>
</g>
</g>
</g>
</svg>
