<?xml version="1.0" encoding="UTF-8" standalone="no"?>
<?xml-stylesheet href="diagrams.css" type="text/css"?>
<!DOCTYPE svg PUBLIC "-//W3C//DTD SVG 1.1//EN"
 "http://www.w3.org/Graphics/SVG/1.1/DTD/svg11.dtd">
<!-- Generated by graphviz version 2.43.20191029.1313 (20191029.1313)
 -->
<!-- Title: object_wrapper_hook_object Pages: 1 -->
<svg width="504pt" height="405pt"
 viewBox="72.00 72.00 432.05 333.00" xmlns="http://www.w3.org/2000/svg" xmlns:xlink="http://www.w3.org/1999/xlink">
<g id="graph0" class="graph" transform="scale(1 1) rotate(0) translate(76 329)">
<title>object_wrapper_hook_object</title>
<polygon fill="white" stroke="transparent" points="-4,4 -4,-257 356.05,-257 356.05,4 -4,4"/>
<text text-anchor="start" x="8" y="-26" font-family="Courier,monospace" font-size="10.00" fill="dimgray">Logtalk library</text>
<text text-anchor="start" x="8" y="-16" font-family="Courier,monospace" font-size="10.00" fill="dimgray">Cross&#45;referencing diagram for object object_wrapper_hook</text>
<text text-anchor="start" x="8" y="-6" font-family="Courier,monospace" font-size="10.00" fill="dimgray">Generated on 2020&#45;05&#45;25, 21:55</text>
<g id="clust1" class="cluster">
<title>cluster_object_wrapper_hook_object</title>
<g id="a_clust1"><a xlink:title="object_wrapper_hook">
<path fill="snow" stroke="dimgray" d="M82.03,-46C82.03,-46 270.03,-46 270.03,-46 276.03,-46 282.03,-52 282.03,-58 282.03,-58 282.03,-233 282.03,-233 282.03,-239 276.03,-245 270.03,-245 270.03,-245 82.03,-245 82.03,-245 76.03,-245 70.03,-239 70.03,-233 70.03,-233 70.03,-58 70.03,-58 70.03,-52 76.03,-46 82.03,-46"/>
<g id="a_clust1_0"><a xlink:href="https://github.com/LogtalkDotOrg/logtalk3/tree/ee3e469ba16664bcc8b3b120a4a0bb7672d96db2/library/hook_objects/object_wrapper_hook.lgt" xlink:title="https://github.com/LogtalkDotOrg/logtalk3/tree/ee3e469ba16664bcc8b3b120a4a0bb7672d96db2/library/hook_objects/object_wrapper_hook.lgt">
<text text-anchor="start" x="82.02" y="-229" font-family="Courier,monospace" font-size="10.00" fill="dimgray">object_wrapper_hook</text>
</a>
</g>
</a>
</g>
</g>
<!-- term_expansion/2 -->
<g id="node1" class="node">
<title>term_expansion/2</title>
<g id="a_node1"><a xlink:href="https://github.com/LogtalkDotOrg/logtalk3/tree/ee3e469ba16664bcc8b3b120a4a0bb7672d96db2/library/hook_objects/object_wrapper_hook.lgt#L37" xlink:title="https://github.com/LogtalkDotOrg/logtalk3/tree/ee3e469ba16664bcc8b3b120a4a0bb7672d96db2/library/hook_objects/object_wrapper_hook.lgt#L37">
<polygon fill="cornsilk" stroke="black" points="241.53,-209 110.53,-209 110.53,-173 241.53,-173 241.53,-209"/>
<text text-anchor="start" x="118.83" y="-192.8" font-family="Courier,monospace" font-size="9.00"> </text>
<text text-anchor="start" x="123.72" y="-192.2" font-family="Courier,monospace" font-size="11.00">term_expansion/2</text>
<text text-anchor="start" x="228.83" y="-192.8" font-family="Courier,monospace" font-size="9.00"> </text>
<text text-anchor="start" x="118.83" y="-182.8" font-family="Courier,monospace" font-size="9.00"> </text>
<text text-anchor="start" x="166.03" y="-183.4" font-family="Courier,monospace" font-size="7.00">local</text>
<text text-anchor="start" x="228.83" y="-182.8" font-family="Courier,monospace" font-size="9.00"> </text>
</a>
</g>
</g>
<!-- os::decompose_file_name/4 -->
<g id="node2" class="node">
<title>os::decompose_file_name/4</title>
<g id="a_node2"><a xlink:href="https://logtalk.org/library/osp_0.html#decompose_file_name/4" xlink:title="https://logtalk.org/library/osp_0.html#decompose_file_name/4">
<polygon fill="beige" stroke="black" stroke-dasharray="5,2" points="271.53,-92 80.53,-92 80.53,-56 271.53,-56 271.53,-92"/>
<text text-anchor="start" x="88.83" y="-75.8" font-family="Courier,monospace" font-size="9.00"> </text>
<text text-anchor="start" x="94.01" y="-75.2" font-family="Courier,monospace" font-size="11.00">os::decompose_file_name/4</text>
<text text-anchor="start" x="258.83" y="-75.8" font-family="Courier,monospace" font-size="9.00"> </text>
<text text-anchor="start" x="88.83" y="-65.8" font-family="Courier,monospace" font-size="9.00"> </text>
<text text-anchor="start" x="159.72" y="-66.4" font-family="Courier,monospace" font-size="7.00">external</text>
<text text-anchor="start" x="258.83" y="-65.8" font-family="Courier,monospace" font-size="9.00"> </text>
</a>
</g>
</g>
<!-- term_expansion/2&#45;&gt;os::decompose_file_name/4 -->
<g id="edge1" class="edge">
<title>term_expansion/2&#45;&gt;os::decompose_file_name/4</title>
<g id="a_edge1"><a xlink:href="https://github.com/LogtalkDotOrg/logtalk3/tree/ee3e469ba16664bcc8b3b120a4a0bb7672d96db2/library/hook_objects/object_wrapper_hook.lgt#L37" xlink:title="calls">
<path fill="none" stroke="black" d="M176.03,-172.53C176.03,-153.94 176.03,-124.24 176.03,-102.5"/>
<polygon fill="black" stroke="black" points="179.53,-102.25 176.03,-92.25 172.53,-102.25 179.53,-102.25"/>
</a>
</g>
<g id="a_edge1&#45;label"><a xlink:href="https://github.com/LogtalkDotOrg/logtalk3/tree/ee3e469ba16664bcc8b3b120a4a0bb7672d96db2/library/hook_objects/object_wrapper_hook.lgt#L37" xlink:title="https://github.com/LogtalkDotOrg/logtalk3/tree/ee3e469ba16664bcc8b3b120a4a0bb7672d96db2/library/hook_objects/object_wrapper_hook.lgt#L37">
<text text-anchor="start" x="176.03" y="-129.8" font-family="Courier,monospace" font-size="9.00">calls</text>
</a>
</g>
</g>
</g>
</svg>
