<?xml version="1.0" encoding="UTF-8" standalone="no"?>
<?xml-stylesheet href="diagrams.css" type="text/css"?>
<!DOCTYPE svg PUBLIC "-//W3C//DTD SVG 1.1//EN"
 "http://www.w3.org/Graphics/SVG/1.1/DTD/svg11.dtd">
<!-- Generated by graphviz version 2.49.4~dev.20211124.1647 (20211124.1647)
 -->
<!-- Title: object_wrapper_hook_1_object Pages: 1 -->
<svg width="458pt" height="410pt"
 viewBox="72.00 72.00 386.00 338.00" xmlns="http://www.w3.org/2000/svg" xmlns:xlink="http://www.w3.org/1999/xlink">
<g id="graph0" class="graph" transform="scale(1 1) rotate(0) translate(76 334)">
<title>object_wrapper_hook_1_object</title>
<polygon fill="white" stroke="transparent" points="-4,4 -4,-262 310,-262 310,4 -4,4"/>
<text text-anchor="start" x="8" y="-29" font-family="Courier,monospace" font-size="10.00" fill="dimgray">Logtalk library</text>
<text text-anchor="start" x="8" y="-18" font-family="Courier,monospace" font-size="10.00" fill="dimgray">Cross&#45;referencing diagram for object object_wrapper_hook/1</text>
<text text-anchor="start" x="8" y="-7" font-family="Courier,monospace" font-size="10.00" fill="dimgray">Generated on 2021&#45;11&#45;24, 21:25</text>
<g id="clust1" class="cluster">
<title>cluster_object_wrapper_hook_1_object</title>
<g id="a_clust1"><a xlink:title="object_wrapper_hook(_)">
<path fill="snow" stroke="dimgray" d="M73,-49C73,-49 233,-49 233,-49 239,-49 245,-55 245,-61 245,-61 245,-238 245,-238 245,-244 239,-250 233,-250 233,-250 73,-250 73,-250 67,-250 61,-244 61,-238 61,-238 61,-61 61,-61 61,-55 67,-49 73,-49"/>
<g id="a_clust1_0"><a xlink:href="https://github.com/LogtalkDotOrg/logtalk3/tree/1450dd2e30cbc83199a0162ba485cb2893d77c37/library/hook_objects/object_wrapper_hook.lgt" xlink:title="https://github.com/LogtalkDotOrg/logtalk3/tree/1450dd2e30cbc83199a0162ba485cb2893d77c37/library/hook_objects/object_wrapper_hook.lgt">
<text text-anchor="start" x="73" y="-233.5" font-family="Courier,monospace" font-size="10.00" fill="dimgray">object_wrapper_hook(_)</text>
</a>
</g>
</a>
</g>
</g>
<!-- term_expansion/2 -->
<g id="node1" class="node">
<title>term_expansion/2</title>
<g id="a_node1"><a xlink:href="https://github.com/LogtalkDotOrg/logtalk3/tree/1450dd2e30cbc83199a0162ba485cb2893d77c37/library/hook_objects/object_wrapper_hook.lgt#L68" xlink:title="https://github.com/LogtalkDotOrg/logtalk3/tree/1450dd2e30cbc83199a0162ba485cb2893d77c37/library/hook_objects/object_wrapper_hook.lgt#L68">
<polygon fill="cornsilk" stroke="black" points="210,-213 96,-213 96,-177 210,-177 210,-213"/>
<text text-anchor="start" x="104" y="-197.8" font-family="Courier,monospace" font-size="9.00"> </text>
<text text-anchor="start" x="109" y="-197.2" font-family="Courier,monospace" font-size="11.00">term_expansion/2</text>
<text text-anchor="start" x="197" y="-197.8" font-family="Courier,monospace" font-size="9.00"> </text>
<text text-anchor="start" x="104" y="-186.8" font-family="Courier,monospace" font-size="9.00"> </text>
<text text-anchor="start" x="144" y="-187.4" font-family="Courier,monospace" font-size="7.00">local</text>
<text text-anchor="start" x="197" y="-186.8" font-family="Courier,monospace" font-size="9.00"> </text>
</a>
</g>
</g>
<!-- os::decompose_file_name/4 -->
<g id="node2" class="node">
<title>os::decompose_file_name/4</title>
<g id="a_node2"><a xlink:href="https://logtalk.org/library/osp_0.html#decompose_file_name/4" xlink:title="https://logtalk.org/library/osp_0.html#decompose_file_name/4">
<polygon fill="beige" stroke="black" stroke-dasharray="5,2" points="235,-95 71,-95 71,-59 235,-59 235,-95"/>
<text text-anchor="start" x="79" y="-79.8" font-family="Courier,monospace" font-size="9.00"> </text>
<text text-anchor="start" x="84" y="-79.2" font-family="Courier,monospace" font-size="11.00">os::decompose_file_name/4</text>
<text text-anchor="start" x="222" y="-79.8" font-family="Courier,monospace" font-size="9.00"> </text>
<text text-anchor="start" x="79" y="-68.8" font-family="Courier,monospace" font-size="9.00"> </text>
<text text-anchor="start" x="139" y="-69.4" font-family="Courier,monospace" font-size="7.00">external</text>
<text text-anchor="start" x="222" y="-68.8" font-family="Courier,monospace" font-size="9.00"> </text>
</a>
</g>
</g>
<!-- term_expansion/2&#45;&gt;os::decompose_file_name/4 -->
<g id="edge1" class="edge">
<title>term_expansion/2&#45;&gt;os::decompose_file_name/4</title>
<g id="a_edge1"><a xlink:href="https://github.com/LogtalkDotOrg/logtalk3/tree/1450dd2e30cbc83199a0162ba485cb2893d77c37/library/hook_objects/object_wrapper_hook.lgt#L68" xlink:title="calls">
<path fill="none" stroke="black" d="M153,-176.88C153,-158.04 153,-127.47 153,-105.3"/>
<polygon fill="black" stroke="black" points="156.5,-105.19 153,-95.19 149.5,-105.19 156.5,-105.19"/>
</a>
</g>
<g id="a_edge1&#45;label"><a xlink:href="https://github.com/LogtalkDotOrg/logtalk3/tree/1450dd2e30cbc83199a0162ba485cb2893d77c37/library/hook_objects/object_wrapper_hook.lgt#L68" xlink:title="https://github.com/LogtalkDotOrg/logtalk3/tree/1450dd2e30cbc83199a0162ba485cb2893d77c37/library/hook_objects/object_wrapper_hook.lgt#L68">
<text text-anchor="start" x="153" y="-133.8" font-family="Courier,monospace" font-size="9.00">calls</text>
</a>
</g>
</g>
</g>
</svg>
