<?xml version="1.0" encoding="UTF-8" standalone="no"?>
<?xml-stylesheet href="diagrams.css" type="text/css"?>
<!DOCTYPE svg PUBLIC "-//W3C//DTD SVG 1.1//EN"
 "http://www.w3.org/Graphics/SVG/1.1/DTD/svg11.dtd">
<!-- Generated by graphviz version 2.49.3 (20211023.0002)
 -->
<!-- Title: object_wrapper_hook_object Pages: 1 -->
<svg width="505pt" height="410pt"
 viewBox="72.00 72.00 433.00 338.00" xmlns="http://www.w3.org/2000/svg" xmlns:xlink="http://www.w3.org/1999/xlink">
<g id="graph0" class="graph" transform="scale(1 1) rotate(0) translate(76 334)">
<title>object_wrapper_hook_object</title>
<polygon fill="white" stroke="transparent" points="-4,4 -4,-262 357,-262 357,4 -4,4"/>
<text text-anchor="start" x="8" y="-29" font-family="Monospace" font-size="10.00" fill="dimgray">Logtalk library</text>
<text text-anchor="start" x="8" y="-18" font-family="Monospace" font-size="10.00" fill="dimgray">Cross&#45;referencing diagram for object object_wrapper_hook</text>
<text text-anchor="start" x="8" y="-7" font-family="Monospace" font-size="10.00" fill="dimgray">Generated on 2021&#45;12&#45;01, 17:07</text>
<g id="clust1" class="cluster">
<title>cluster_object_wrapper_hook_object</title>
<g id="a_clust1"><a xlink:title="object_wrapper_hook">
<path fill="snow" stroke="dimgray" d="M81.5,-49C81.5,-49 271.5,-49 271.5,-49 277.5,-49 283.5,-55 283.5,-61 283.5,-61 283.5,-238 283.5,-238 283.5,-244 277.5,-250 271.5,-250 271.5,-250 81.5,-250 81.5,-250 75.5,-250 69.5,-244 69.5,-238 69.5,-238 69.5,-61 69.5,-61 69.5,-55 75.5,-49 81.5,-49"/>
<g id="a_clust1_0"><a xlink:href="https://github.com/LogtalkDotOrg/logtalk3/tree/80bca11e23513ba9dee0b90ea6273fe532329b3a/library/hook_objects/object_wrapper_hook.lgt" xlink:title="https://github.com/LogtalkDotOrg/logtalk3/tree/80bca11e23513ba9dee0b90ea6273fe532329b3a/library/hook_objects/object_wrapper_hook.lgt">
<text text-anchor="start" x="82" y="-233.5" font-family="Monospace" font-size="10.00" fill="dimgray">object_wrapper_hook</text>
</a>
</g>
</a>
</g>
</g>
<!-- term_expansion/2 -->
<g id="node1" class="node">
<title>term_expansion/2</title>
<g id="a_node1"><a xlink:href="https://github.com/LogtalkDotOrg/logtalk3/tree/80bca11e23513ba9dee0b90ea6273fe532329b3a/library/hook_objects/object_wrapper_hook.lgt#L39" xlink:title="https://github.com/LogtalkDotOrg/logtalk3/tree/80bca11e23513ba9dee0b90ea6273fe532329b3a/library/hook_objects/object_wrapper_hook.lgt#L39">
<polygon fill="cornsilk" stroke="black" points="243.5,-213 109.5,-213 109.5,-177 243.5,-177 243.5,-213"/>
<text text-anchor="start" x="117.5" y="-197.8" font-family="Monospace" font-size="9.00"> </text>
<text text-anchor="start" x="123.5" y="-197.2" font-family="Monospace" font-size="11.00">term_expansion/2</text>
<text text-anchor="start" x="229.5" y="-197.8" font-family="Monospace" font-size="9.00"> </text>
<text text-anchor="start" x="117.5" y="-186.8" font-family="Monospace" font-size="9.00"> </text>
<text text-anchor="start" x="165.5" y="-187.4" font-family="Monospace" font-size="7.00">local</text>
<text text-anchor="start" x="229.5" y="-186.8" font-family="Monospace" font-size="9.00"> </text>
</a>
</g>
</g>
<!-- os::decompose_file_name/4 -->
<g id="node2" class="node">
<title>os::decompose_file_name/4</title>
<g id="a_node2"><a xlink:href="https://logtalk.org/library/osp_0.html#decompose_file_name/4" xlink:title="https://logtalk.org/library/osp_0.html#decompose_file_name/4">
<polygon fill="beige" stroke="black" stroke-dasharray="5,2" points="273.5,-95 79.5,-95 79.5,-59 273.5,-59 273.5,-95"/>
<text text-anchor="start" x="87.5" y="-79.8" font-family="Monospace" font-size="9.00"> </text>
<text text-anchor="start" x="93.5" y="-79.2" font-family="Monospace" font-size="11.00">os::decompose_file_name/4</text>
<text text-anchor="start" x="259.5" y="-79.8" font-family="Monospace" font-size="9.00"> </text>
<text text-anchor="start" x="87.5" y="-68.8" font-family="Monospace" font-size="9.00"> </text>
<text text-anchor="start" x="159.5" y="-69.4" font-family="Monospace" font-size="7.00">external</text>
<text text-anchor="start" x="259.5" y="-68.8" font-family="Monospace" font-size="9.00"> </text>
</a>
</g>
</g>
<!-- term_expansion/2&#45;&gt;os::decompose_file_name/4 -->
<g id="edge1" class="edge">
<title>term_expansion/2&#45;&gt;os::decompose_file_name/4</title>
<g id="a_edge1"><a xlink:href="https://github.com/LogtalkDotOrg/logtalk3/tree/80bca11e23513ba9dee0b90ea6273fe532329b3a/library/hook_objects/object_wrapper_hook.lgt#L39" xlink:title="calls">
<path fill="none" stroke="black" d="M176.5,-176.88C176.5,-158.04 176.5,-127.47 176.5,-105.3"/>
<polygon fill="black" stroke="black" points="180,-105.19 176.5,-95.19 173,-105.19 180,-105.19"/>
</a>
</g>
<g id="a_edge1&#45;label"><a xlink:href="https://github.com/LogtalkDotOrg/logtalk3/tree/80bca11e23513ba9dee0b90ea6273fe532329b3a/library/hook_objects/object_wrapper_hook.lgt#L39" xlink:title="https://github.com/LogtalkDotOrg/logtalk3/tree/80bca11e23513ba9dee0b90ea6273fe532329b3a/library/hook_objects/object_wrapper_hook.lgt#L39">
<text text-anchor="start" x="176.5" y="-133.8" font-family="Monospace" font-size="9.00">calls</text>
</a>
</g>
</g>
</g>
</svg>
