<?xml version="1.0" encoding="UTF-8" standalone="no"?>
<?xml-stylesheet href="diagrams.css" type="text/css"?>
<!DOCTYPE svg PUBLIC "-//W3C//DTD SVG 1.1//EN"
 "http://www.w3.org/Graphics/SVG/1.1/DTD/svg11.dtd">
<!-- Generated by graphviz version 9.0.0 (20230911.1827)
 -->
<!-- Title: object_wrapper_hook_2_object Pages: 1 -->
<svg width="516pt" height="293pt"
 viewBox="72.00 72.00 444.00 221.00" xmlns="http://www.w3.org/2000/svg" xmlns:xlink="http://www.w3.org/1999/xlink">
<g id="graph0" class="graph" transform="scale(1 1) rotate(0) translate(76 217)">
<title>object_wrapper_hook_2_object</title>
<polygon fill="white" stroke="none" points="-4,4 -4,-145 368,-145 368,4 -4,4"/>
<text text-anchor="start" x="8" y="-28.25" font-family="Monospace" font-size="10.00" fill="dimgray">Logtalk library</text>
<text text-anchor="start" x="8" y="-17" font-family="Monospace" font-size="10.00" fill="dimgray">Cross&#45;referencing diagram for object object_wrapper_hook/2</text>
<text text-anchor="start" x="8" y="-5.75" font-family="Monospace" font-size="10.00" fill="dimgray">Generated on 2023&#45;12&#45;12, 10:12</text>
<g id="clust1" class="cluster">
<title>cluster_object_wrapper_hook_2_object</title>
<g id="a_clust1"><a xlink:title="object_wrapper_hook(Name,Relations)">
<path fill="snow" stroke="dimgray" d="M77,-49.75C77,-49.75 287,-49.75 287,-49.75 293,-49.75 299,-55.75 299,-61.75 299,-61.75 299,-121 299,-121 299,-127 293,-133 287,-133 287,-133 77,-133 77,-133 71,-133 65,-127 65,-121 65,-121 65,-61.75 65,-61.75 65,-55.75 71,-49.75 77,-49.75"/>
<g id="a_clust1_0"><a xlink:href="https://github.com/LogtalkDotOrg/logtalk3/tree/cf479b02ce35f55aef560f399bb6a3f260aa9dde/library/hook_objects/object_wrapper_hook.lgt" xlink:title="https://github.com/LogtalkDotOrg/logtalk3/tree/cf479b02ce35f55aef560f399bb6a3f260aa9dde/library/hook_objects/object_wrapper_hook.lgt">
<text text-anchor="start" x="77" y="-115.5" font-family="Monospace" font-size="10.00" fill="dimgray">object_wrapper_hook(Name,Relations)</text>
</a>
</g>
</a>
</g>
</g>
<!-- term_expansion/2 -->
<g id="node1" class="node">
<title>term_expansion/2</title>
<g id="a_node1"><a xlink:href="https://github.com/LogtalkDotOrg/logtalk3/tree/cf479b02ce35f55aef560f399bb6a3f260aa9dde/library/hook_objects/object_wrapper_hook.lgt#L99" xlink:title="https://github.com/LogtalkDotOrg/logtalk3/tree/cf479b02ce35f55aef560f399bb6a3f260aa9dde/library/hook_objects/object_wrapper_hook.lgt#L99">
<polygon fill="cornsilk" stroke="black" points="249,-95.75 115,-95.75 115,-59.75 249,-59.75 249,-95.75"/>
<text text-anchor="start" x="122.88" y="-78.58" font-family="Monospace" font-size="9.00"> </text>
<text text-anchor="start" x="128" y="-77.8" font-family="Monospace" font-size="11.00">term_expansion/2</text>
<text text-anchor="start" x="235.88" y="-78.58" font-family="Monospace" font-size="9.00"> </text>
<text text-anchor="start" x="122.88" y="-67.7" font-family="Monospace" font-size="9.00"> </text>
<text text-anchor="start" x="170.75" y="-69.22" font-family="Monospace" font-size="7.00">local</text>
<text text-anchor="start" x="235.88" y="-67.7" font-family="Monospace" font-size="9.00"> </text>
</a>
</g>
</g>
</g>
</svg>
