<?xml version="1.0" encoding="UTF-8" standalone="no"?>
<?xml-stylesheet href="diagrams.css" type="text/css"?>
<!DOCTYPE svg PUBLIC "-//W3C//DTD SVG 1.1//EN"
 "http://www.w3.org/Graphics/SVG/1.1/DTD/svg11.dtd">
<!-- Generated by graphviz version 2.50.0 (20211204.2007)
 -->
<!-- Title: object_wrapper_hook_object Pages: 1 -->
<svg width="505pt" height="410pt"
 viewBox="72.00 72.00 433.00 338.00" xmlns="http://www.w3.org/2000/svg" xmlns:xlink="http://www.w3.org/1999/xlink">
<g id="graph0" class="graph" transform="scale(1 1) rotate(0) translate(76 334)">
<title>object_wrapper_hook_object</title>
<polygon fill="white" stroke="transparent" points="-4,4 -4,-262 357,-262 357,4 -4,4"/>
<text text-anchor="start" x="8" y="-29" font-family="Monospace" font-size="10.00" fill="dimgray">Logtalk library</text>
<text text-anchor="start" x="8" y="-18" font-family="Monospace" font-size="10.00" fill="dimgray">Cross&#45;referencing diagram for object object_wrapper_hook</text>
<text text-anchor="start" x="8" y="-7" font-family="Monospace" font-size="10.00" fill="dimgray">Generated on 2022&#45;07&#45;21, 10:22</text>
<g id="clust1" class="cluster">
<title>cluster_object_wrapper_hook_object</title>
<g id="a_clust1"><a xlink:title="object_wrapper_hook">
<path fill="snow" stroke="dimgray" d="M79.5,-49C79.5,-49 273.5,-49 273.5,-49 279.5,-49 285.5,-55 285.5,-61 285.5,-61 285.5,-238 285.5,-238 285.5,-244 279.5,-250 273.5,-250 273.5,-250 79.5,-250 79.5,-250 73.5,-250 67.5,-244 67.5,-238 67.5,-238 67.5,-61 67.5,-61 67.5,-55 73.5,-49 79.5,-49"/>
<g id="a_clust1_0"><a xlink:href="https://github.com/LogtalkDotOrg/logtalk3/tree/7b4705134f8fbb2e14738c1e6aca25703ea601a7/library/hook_objects/object_wrapper_hook.lgt" xlink:title="https://github.com/LogtalkDotOrg/logtalk3/tree/7b4705134f8fbb2e14738c1e6aca25703ea601a7/library/hook_objects/object_wrapper_hook.lgt">
<text text-anchor="start" x="80" y="-233.5" font-family="Monospace" font-size="10.00" fill="dimgray">object_wrapper_hook</text>
</a>
</g>
</a>
</g>
</g>
<!-- term_expansion/2 -->
<g id="node1" class="node">
<title>term_expansion/2</title>
<g id="a_node1"><a xlink:href="https://github.com/LogtalkDotOrg/logtalk3/tree/7b4705134f8fbb2e14738c1e6aca25703ea601a7/library/hook_objects/object_wrapper_hook.lgt#L39" xlink:title="https://github.com/LogtalkDotOrg/logtalk3/tree/7b4705134f8fbb2e14738c1e6aca25703ea601a7/library/hook_objects/object_wrapper_hook.lgt#L39">
<polygon fill="cornsilk" stroke="black" points="245,-213 108,-213 108,-177 245,-177 245,-213"/>
<text text-anchor="start" x="116.5" y="-197.8" font-family="Monospace" font-size="9.00"> </text>
<text text-anchor="start" x="122.5" y="-197.2" font-family="Monospace" font-size="11.00">term_expansion/2</text>
<text text-anchor="start" x="231.5" y="-197.8" font-family="Monospace" font-size="9.00"> </text>
<text text-anchor="start" x="116.5" y="-186.8" font-family="Monospace" font-size="9.00"> </text>
<text text-anchor="start" x="165.5" y="-187.4" font-family="Monospace" font-size="7.00">local</text>
<text text-anchor="start" x="231.5" y="-186.8" font-family="Monospace" font-size="9.00"> </text>
</a>
</g>
</g>
<!-- os::decompose_file_name/4 -->
<g id="node2" class="node">
<title>os::decompose_file_name/4</title>
<g id="a_node2"><a xlink:href="https://logtalk.org/library/osp_0.html#decompose_file_name/4" xlink:title="https://logtalk.org/library/osp_0.html#decompose_file_name/4">
<polygon fill="beige" stroke="black" stroke-dasharray="5,2" points="275,-95 78,-95 78,-59 275,-59 275,-95"/>
<text text-anchor="start" x="86.5" y="-79.8" font-family="Monospace" font-size="9.00"> </text>
<text text-anchor="start" x="92.5" y="-79.2" font-family="Monospace" font-size="11.00">os::decompose_file_name/4</text>
<text text-anchor="start" x="261.5" y="-79.8" font-family="Monospace" font-size="9.00"> </text>
<text text-anchor="start" x="86.5" y="-68.8" font-family="Monospace" font-size="9.00"> </text>
<text text-anchor="start" x="158.5" y="-69.4" font-family="Monospace" font-size="7.00">external</text>
<text text-anchor="start" x="261.5" y="-68.8" font-family="Monospace" font-size="9.00"> </text>
</a>
</g>
</g>
<!-- term_expansion/2&#45;&gt;os::decompose_file_name/4 -->
<g id="edge1" class="edge">
<title>term_expansion/2&#45;&gt;os::decompose_file_name/4</title>
<g id="a_edge1"><a xlink:href="https://github.com/LogtalkDotOrg/logtalk3/tree/7b4705134f8fbb2e14738c1e6aca25703ea601a7/library/hook_objects/object_wrapper_hook.lgt#L39" xlink:title="calls">
<path fill="none" stroke="black" d="M176.5,-176.88C176.5,-158.04 176.5,-127.47 176.5,-105.3"/>
<polygon fill="black" stroke="black" points="180,-105.19 176.5,-95.19 173,-105.19 180,-105.19"/>
</a>
</g>
<g id="a_edge1&#45;label"><a xlink:href="https://github.com/LogtalkDotOrg/logtalk3/tree/7b4705134f8fbb2e14738c1e6aca25703ea601a7/library/hook_objects/object_wrapper_hook.lgt#L39" xlink:title="https://github.com/LogtalkDotOrg/logtalk3/tree/7b4705134f8fbb2e14738c1e6aca25703ea601a7/library/hook_objects/object_wrapper_hook.lgt#L39">
<text text-anchor="start" x="176.5" y="-133.8" font-family="Monospace" font-size="9.00">calls</text>
</a>
</g>
</g>
</g>
</svg>
