<?xml version="1.0" encoding="UTF-8" standalone="no"?>
<?xml-stylesheet href="diagrams.css" type="text/css"?>
<!DOCTYPE svg PUBLIC "-//W3C//DTD SVG 1.1//EN"
 "http://www.w3.org/Graphics/SVG/1.1/DTD/svg11.dtd">
<!-- Generated by graphviz version 12.1.2 (20240928.0832)
 -->
<!-- Title: object_wrapper_hook_1_object Pages: 1 -->
<svg width="516pt" height="418pt"
 viewBox="72.00 72.00 444.00 346.25" xmlns="http://www.w3.org/2000/svg" xmlns:xlink="http://www.w3.org/1999/xlink">
<g id="graph0" class="graph" transform="scale(1 1) rotate(0) translate(76 342.25)">
<title>object_wrapper_hook_1_object</title>
<polygon fill="white" stroke="none" points="-4,4 -4,-270.25 368,-270.25 368,4 -4,4"/>
<text text-anchor="start" x="8" y="-32.75" font-family="Monospace" font-size="10.00" fill="dimgray">Logtalk library</text>
<text text-anchor="start" x="8" y="-20" font-family="Monospace" font-size="10.00" fill="dimgray">Cross&#45;referencing diagram for object object_wrapper_hook/1</text>
<text text-anchor="start" x="8" y="-7.25" font-family="Monospace" font-size="10.00" fill="dimgray">Generated on 2024&#45;10&#45;16, 19:30</text>
<g id="clust1" class="cluster">
<title>cluster_object_wrapper_hook_1_object</title>
<g id="a_clust1"><a xlink:title="object_wrapper_hook(Protocol)">
<path fill="snow" stroke="dimgray" d="M87,-54.25C87,-54.25 277,-54.25 277,-54.25 283,-54.25 289,-60.25 289,-66.25 289,-66.25 289,-246.25 289,-246.25 289,-252.25 283,-258.25 277,-258.25 277,-258.25 87,-258.25 87,-258.25 81,-258.25 75,-252.25 75,-246.25 75,-246.25 75,-66.25 75,-66.25 75,-60.25 81,-54.25 87,-54.25"/>
<g id="a_clust1_0"><a xlink:href="https://github.com/LogtalkDotOrg/logtalk3/tree/f7183aedd7cdd0298daa85b6c999a8ed33792962/library/hook_objects/object_wrapper_hook.lgt" xlink:title="https://github.com/LogtalkDotOrg/logtalk3/tree/f7183aedd7cdd0298daa85b6c999a8ed33792962/library/hook_objects/object_wrapper_hook.lgt">
<text text-anchor="start" x="87" y="-240.75" font-family="Monospace" font-size="10.00" fill="dimgray">object_wrapper_hook(Protocol)</text>
</a>
</g>
</a>
</g>
</g>
<!-- term_expansion/2 -->
<g id="node1" class="node">
<title>term_expansion/2</title>
<g id="a_node1"><a xlink:href="https://github.com/LogtalkDotOrg/logtalk3/tree/f7183aedd7cdd0298daa85b6c999a8ed33792962/library/hook_objects/object_wrapper_hook.lgt#L69" xlink:title="https://github.com/LogtalkDotOrg/logtalk3/tree/f7183aedd7cdd0298daa85b6c999a8ed33792962/library/hook_objects/object_wrapper_hook.lgt#L69">
<polygon fill="cornsilk" stroke="black" points="249,-219.5 115,-219.5 115,-183.5 249,-183.5 249,-219.5"/>
<text text-anchor="start" x="122.88" y="-204.07" font-family="Monospace" font-size="9.00"> </text>
<text text-anchor="start" x="128" y="-203.05" font-family="Monospace" font-size="11.00">term_expansion/2</text>
<text text-anchor="start" x="235.88" y="-204.07" font-family="Monospace" font-size="9.00"> </text>
<text text-anchor="start" x="122.88" y="-191.95" font-family="Monospace" font-size="9.00"> </text>
<text text-anchor="start" x="170.75" y="-192.85" font-family="Monospace" font-size="7.00">local</text>
<text text-anchor="start" x="235.88" y="-191.95" font-family="Monospace" font-size="9.00"> </text>
</a>
</g>
</g>
<!-- os::decompose_file_name/4 -->
<g id="node2" class="node">
<title>os::decompose_file_name/4</title>
<g id="a_node2"><a xlink:href="https://logtalk.org/library/osp_0.html#decompose-file-name-4" xlink:title="https://logtalk.org/library/osp_0.html#decompose&#45;file&#45;name&#45;4">
<polygon fill="beige" stroke="black" stroke-dasharray="5,2" points="279,-100.25 85,-100.25 85,-64.25 279,-64.25 279,-100.25"/>
<text text-anchor="start" x="92.88" y="-84.83" font-family="Monospace" font-size="9.00"> </text>
<text text-anchor="start" x="97.62" y="-83.8" font-family="Monospace" font-size="11.00">os::decompose_file_name/4</text>
<text text-anchor="start" x="265.88" y="-84.83" font-family="Monospace" font-size="9.00"> </text>
<text text-anchor="start" x="92.88" y="-72.7" font-family="Monospace" font-size="9.00"> </text>
<text text-anchor="start" x="164" y="-73.6" font-family="Monospace" font-size="7.00">external</text>
<text text-anchor="start" x="265.88" y="-72.7" font-family="Monospace" font-size="9.00"> </text>
</a>
</g>
</g>
<!-- term_expansion/2&#45;&gt;os::decompose_file_name/4 -->
<g id="edge1" class="edge">
<title>term_expansion/2&#45;&gt;os::decompose_file_name/4</title>
<g id="a_edge1"><a xlink:href="https://github.com/LogtalkDotOrg/logtalk3/tree/f7183aedd7cdd0298daa85b6c999a8ed33792962/library/hook_objects/object_wrapper_hook.lgt#L69" xlink:title="calls">
<path fill="none" stroke="black" d="M182,-183.2C182,-164.5 182,-134.37 182,-112.08"/>
<polygon fill="black" stroke="black" points="185.5,-112.14 182,-102.14 178.5,-112.14 185.5,-112.14"/>
</a>
</g>
<g id="a_edge1&#45;label"><a xlink:href="https://github.com/LogtalkDotOrg/logtalk3/tree/f7183aedd7cdd0298daa85b6c999a8ed33792962/library/hook_objects/object_wrapper_hook.lgt#L69" xlink:title="https://github.com/LogtalkDotOrg/logtalk3/tree/f7183aedd7cdd0298daa85b6c999a8ed33792962/library/hook_objects/object_wrapper_hook.lgt#L69">
<text text-anchor="start" x="182" y="-138.95" font-family="Monospace" font-size="9.00">calls</text>
</a>
</g>
</g>
</g>
</svg>
