<?xml version="1.0" encoding="UTF-8" standalone="no"?>
<?xml-stylesheet href="diagrams.css" type="text/css"?>
<!DOCTYPE svg PUBLIC "-//W3C//DTD SVG 1.1//EN"
 "http://www.w3.org/Graphics/SVG/1.1/DTD/svg11.dtd">
<!-- Generated by graphviz version 9.0.0 (20230911.1827)
 -->
<!-- Title: object_wrapper_hook_1_object Pages: 1 -->
<svg width="516pt" height="411pt"
 viewBox="72.00 72.00 444.00 338.75" xmlns="http://www.w3.org/2000/svg" xmlns:xlink="http://www.w3.org/1999/xlink">
<g id="graph0" class="graph" transform="scale(1 1) rotate(0) translate(76 334.75)">
<title>object_wrapper_hook_1_object</title>
<polygon fill="white" stroke="none" points="-4,4 -4,-262.75 368,-262.75 368,4 -4,4"/>
<text text-anchor="start" x="8" y="-28.25" font-family="Monospace" font-size="10.00" fill="dimgray">Logtalk library</text>
<text text-anchor="start" x="8" y="-17" font-family="Monospace" font-size="10.00" fill="dimgray">Cross&#45;referencing diagram for object object_wrapper_hook/1</text>
<text text-anchor="start" x="8" y="-5.75" font-family="Monospace" font-size="10.00" fill="dimgray">Generated on 2023&#45;11&#45;27, 16:06</text>
<g id="clust1" class="cluster">
<title>cluster_object_wrapper_hook_1_object</title>
<g id="a_clust1"><a xlink:title="object_wrapper_hook(Protocol)">
<path fill="snow" stroke="dimgray" d="M87,-49.75C87,-49.75 277,-49.75 277,-49.75 283,-49.75 289,-55.75 289,-61.75 289,-61.75 289,-238.75 289,-238.75 289,-244.75 283,-250.75 277,-250.75 277,-250.75 87,-250.75 87,-250.75 81,-250.75 75,-244.75 75,-238.75 75,-238.75 75,-61.75 75,-61.75 75,-55.75 81,-49.75 87,-49.75"/>
<g id="a_clust1_0"><a xlink:href="https://github.com/LogtalkDotOrg/logtalk3/tree/7cacd5db94010b65069b2bd473ebae13dd073ed5/library/hook_objects/object_wrapper_hook.lgt" xlink:title="https://github.com/LogtalkDotOrg/logtalk3/tree/7cacd5db94010b65069b2bd473ebae13dd073ed5/library/hook_objects/object_wrapper_hook.lgt">
<text text-anchor="start" x="87" y="-233.25" font-family="Monospace" font-size="10.00" fill="dimgray">object_wrapper_hook(Protocol)</text>
</a>
</g>
</a>
</g>
</g>
<!-- term_expansion/2 -->
<g id="node1" class="node">
<title>term_expansion/2</title>
<g id="a_node1"><a xlink:href="https://github.com/LogtalkDotOrg/logtalk3/tree/7cacd5db94010b65069b2bd473ebae13dd073ed5/library/hook_objects/object_wrapper_hook.lgt#L69" xlink:title="https://github.com/LogtalkDotOrg/logtalk3/tree/7cacd5db94010b65069b2bd473ebae13dd073ed5/library/hook_objects/object_wrapper_hook.lgt#L69">
<polygon fill="cornsilk" stroke="black" points="249,-213.5 115,-213.5 115,-177.5 249,-177.5 249,-213.5"/>
<text text-anchor="start" x="122.88" y="-196.32" font-family="Monospace" font-size="9.00"> </text>
<text text-anchor="start" x="128" y="-195.55" font-family="Monospace" font-size="11.00">term_expansion/2</text>
<text text-anchor="start" x="235.88" y="-196.32" font-family="Monospace" font-size="9.00"> </text>
<text text-anchor="start" x="122.88" y="-185.45" font-family="Monospace" font-size="9.00"> </text>
<text text-anchor="start" x="170.75" y="-186.97" font-family="Monospace" font-size="7.00">local</text>
<text text-anchor="start" x="235.88" y="-185.45" font-family="Monospace" font-size="9.00"> </text>
</a>
</g>
</g>
<!-- os::decompose_file_name/4 -->
<g id="node2" class="node">
<title>os::decompose_file_name/4</title>
<g id="a_node2"><a xlink:href="https://logtalk.org/library/osp_0.html#decompose_file_name/4" xlink:title="https://logtalk.org/library/osp_0.html#decompose_file_name/4">
<polygon fill="beige" stroke="black" stroke-dasharray="5,2" points="279,-95.75 85,-95.75 85,-59.75 279,-59.75 279,-95.75"/>
<text text-anchor="start" x="92.88" y="-78.58" font-family="Monospace" font-size="9.00"> </text>
<text text-anchor="start" x="97.62" y="-77.8" font-family="Monospace" font-size="11.00">os::decompose_file_name/4</text>
<text text-anchor="start" x="265.88" y="-78.58" font-family="Monospace" font-size="9.00"> </text>
<text text-anchor="start" x="92.88" y="-67.7" font-family="Monospace" font-size="9.00"> </text>
<text text-anchor="start" x="164" y="-69.22" font-family="Monospace" font-size="7.00">external</text>
<text text-anchor="start" x="265.88" y="-67.7" font-family="Monospace" font-size="9.00"> </text>
</a>
</g>
</g>
<!-- term_expansion/2&#45;&gt;os::decompose_file_name/4 -->
<g id="edge1" class="edge">
<title>term_expansion/2&#45;&gt;os::decompose_file_name/4</title>
<g id="a_edge1"><a xlink:href="https://github.com/LogtalkDotOrg/logtalk3/tree/7cacd5db94010b65069b2bd473ebae13dd073ed5/library/hook_objects/object_wrapper_hook.lgt#L69" xlink:title="calls">
<path fill="none" stroke="black" d="M182,-177.17C182,-158.76 182,-129.35 182,-107.46"/>
<polygon fill="black" stroke="black" points="185.5,-107.71 182,-97.71 178.5,-107.71 185.5,-107.71"/>
</a>
</g>
<g id="a_edge1&#45;label"><a xlink:href="https://github.com/LogtalkDotOrg/logtalk3/tree/7cacd5db94010b65069b2bd473ebae13dd073ed5/library/hook_objects/object_wrapper_hook.lgt#L69" xlink:title="https://github.com/LogtalkDotOrg/logtalk3/tree/7cacd5db94010b65069b2bd473ebae13dd073ed5/library/hook_objects/object_wrapper_hook.lgt#L69">
<text text-anchor="start" x="182" y="-132.95" font-family="Monospace" font-size="9.00">calls</text>
</a>
</g>
</g>
</g>
</svg>
