<?xml version="1.0" encoding="UTF-8" standalone="no"?>
<?xml-stylesheet href="diagrams.css" type="text/css"?>
<!DOCTYPE svg PUBLIC "-//W3C//DTD SVG 1.1//EN"
 "http://www.w3.org/Graphics/SVG/1.1/DTD/svg11.dtd">
<!-- Generated by graphviz version 2.50.0 (20211204.2007)
 -->
<!-- Title: object_wrapper_hook_2_object Pages: 1 -->
<svg width="517pt" height="292pt"
 viewBox="72.00 72.00 445.00 220.00" xmlns="http://www.w3.org/2000/svg" xmlns:xlink="http://www.w3.org/1999/xlink">
<g id="graph0" class="graph" transform="scale(1 1) rotate(0) translate(76 216)">
<title>object_wrapper_hook_2_object</title>
<polygon fill="white" stroke="transparent" points="-4,4 -4,-144 369,-144 369,4 -4,4"/>
<text text-anchor="start" x="8" y="-29" font-family="Monospace" font-size="10.00" fill="dimgray">Logtalk library</text>
<text text-anchor="start" x="8" y="-18" font-family="Monospace" font-size="10.00" fill="dimgray">Cross&#45;referencing diagram for object object_wrapper_hook/2</text>
<text text-anchor="start" x="8" y="-7" font-family="Monospace" font-size="10.00" fill="dimgray">Generated on 2022&#45;06&#45;28, 15:12</text>
<g id="clust1" class="cluster">
<title>cluster_object_wrapper_hook_2_object</title>
<g id="a_clust1"><a xlink:title="object_wrapper_hook(Name,Relations)">
<path fill="snow" stroke="dimgray" d="M77,-49C77,-49 288,-49 288,-49 294,-49 300,-55 300,-61 300,-61 300,-120 300,-120 300,-126 294,-132 288,-132 288,-132 77,-132 77,-132 71,-132 65,-126 65,-120 65,-120 65,-61 65,-61 65,-55 71,-49 77,-49"/>
<g id="a_clust1_0"><a xlink:href="https://github.com/LogtalkDotOrg/logtalk3/tree/27ab29628e0ac3c87d0cd4c9987828fce5c739f1/library/hook_objects/object_wrapper_hook.lgt" xlink:title="https://github.com/LogtalkDotOrg/logtalk3/tree/27ab29628e0ac3c87d0cd4c9987828fce5c739f1/library/hook_objects/object_wrapper_hook.lgt">
<text text-anchor="start" x="77.5" y="-115.5" font-family="Monospace" font-size="10.00" fill="dimgray">object_wrapper_hook(Name,Relations)</text>
</a>
</g>
</a>
</g>
</g>
<!-- term_expansion/2 -->
<g id="node1" class="node">
<title>term_expansion/2</title>
<g id="a_node1"><a xlink:href="https://github.com/LogtalkDotOrg/logtalk3/tree/27ab29628e0ac3c87d0cd4c9987828fce5c739f1/library/hook_objects/object_wrapper_hook.lgt#L99" xlink:title="https://github.com/LogtalkDotOrg/logtalk3/tree/27ab29628e0ac3c87d0cd4c9987828fce5c739f1/library/hook_objects/object_wrapper_hook.lgt#L99">
<polygon fill="cornsilk" stroke="black" points="250.5,-95 113.5,-95 113.5,-59 250.5,-59 250.5,-95"/>
<text text-anchor="start" x="122" y="-79.8" font-family="Monospace" font-size="9.00"> </text>
<text text-anchor="start" x="128" y="-79.2" font-family="Monospace" font-size="11.00">term_expansion/2</text>
<text text-anchor="start" x="237" y="-79.8" font-family="Monospace" font-size="9.00"> </text>
<text text-anchor="start" x="122" y="-68.8" font-family="Monospace" font-size="9.00"> </text>
<text text-anchor="start" x="171" y="-69.4" font-family="Monospace" font-size="7.00">local</text>
<text text-anchor="start" x="237" y="-68.8" font-family="Monospace" font-size="9.00"> </text>
</a>
</g>
</g>
</g>
</svg>
