<?xml version="1.0" encoding="UTF-8" standalone="no"?>
<?xml-stylesheet href="diagrams.css" type="text/css"?>
<!DOCTYPE svg PUBLIC "-//W3C//DTD SVG 1.1//EN"
 "http://www.w3.org/Graphics/SVG/1.1/DTD/svg11.dtd">
<!-- Generated by graphviz version 2.49.3 (20211023.0002)
 -->
<!-- Title: object_wrapper_hook_1_object Pages: 1 -->
<svg width="517pt" height="410pt"
 viewBox="72.00 72.00 445.00 338.00" xmlns="http://www.w3.org/2000/svg" xmlns:xlink="http://www.w3.org/1999/xlink">
<g id="graph0" class="graph" transform="scale(1 1) rotate(0) translate(76 334)">
<title>object_wrapper_hook_1_object</title>
<polygon fill="white" stroke="transparent" points="-4,4 -4,-262 369,-262 369,4 -4,4"/>
<text text-anchor="start" x="8" y="-29" font-family="Monospace" font-size="10.00" fill="dimgray">Logtalk library</text>
<text text-anchor="start" x="8" y="-18" font-family="Monospace" font-size="10.00" fill="dimgray">Cross&#45;referencing diagram for object object_wrapper_hook/1</text>
<text text-anchor="start" x="8" y="-7" font-family="Monospace" font-size="10.00" fill="dimgray">Generated on 2021&#45;12&#45;24, 12:03</text>
<g id="clust1" class="cluster">
<title>cluster_object_wrapper_hook_1_object</title>
<g id="a_clust1"><a xlink:title="object_wrapper_hook(Protocol)">
<path fill="snow" stroke="dimgray" d="M87.5,-49C87.5,-49 277.5,-49 277.5,-49 283.5,-49 289.5,-55 289.5,-61 289.5,-61 289.5,-238 289.5,-238 289.5,-244 283.5,-250 277.5,-250 277.5,-250 87.5,-250 87.5,-250 81.5,-250 75.5,-244 75.5,-238 75.5,-238 75.5,-61 75.5,-61 75.5,-55 81.5,-49 87.5,-49"/>
<g id="a_clust1_0"><a xlink:href="https://github.com/LogtalkDotOrg/logtalk3/tree/261dba8e72dd07f5fb5891a52d53f8dbac37f16a/library/hook_objects/object_wrapper_hook.lgt" xlink:title="https://github.com/LogtalkDotOrg/logtalk3/tree/261dba8e72dd07f5fb5891a52d53f8dbac37f16a/library/hook_objects/object_wrapper_hook.lgt">
<text text-anchor="start" x="88" y="-233.5" font-family="Monospace" font-size="10.00" fill="dimgray">object_wrapper_hook(Protocol)</text>
</a>
</g>
</a>
</g>
</g>
<!-- term_expansion/2 -->
<g id="node1" class="node">
<title>term_expansion/2</title>
<g id="a_node1"><a xlink:href="https://github.com/LogtalkDotOrg/logtalk3/tree/261dba8e72dd07f5fb5891a52d53f8dbac37f16a/library/hook_objects/object_wrapper_hook.lgt#L69" xlink:title="https://github.com/LogtalkDotOrg/logtalk3/tree/261dba8e72dd07f5fb5891a52d53f8dbac37f16a/library/hook_objects/object_wrapper_hook.lgt#L69">
<polygon fill="cornsilk" stroke="black" points="249.5,-213 115.5,-213 115.5,-177 249.5,-177 249.5,-213"/>
<text text-anchor="start" x="123.5" y="-197.8" font-family="Monospace" font-size="9.00"> </text>
<text text-anchor="start" x="129.5" y="-197.2" font-family="Monospace" font-size="11.00">term_expansion/2</text>
<text text-anchor="start" x="235.5" y="-197.8" font-family="Monospace" font-size="9.00"> </text>
<text text-anchor="start" x="123.5" y="-186.8" font-family="Monospace" font-size="9.00"> </text>
<text text-anchor="start" x="171.5" y="-187.4" font-family="Monospace" font-size="7.00">local</text>
<text text-anchor="start" x="235.5" y="-186.8" font-family="Monospace" font-size="9.00"> </text>
</a>
</g>
</g>
<!-- os::decompose_file_name/4 -->
<g id="node2" class="node">
<title>os::decompose_file_name/4</title>
<g id="a_node2"><a xlink:href="https://logtalk.org/library/osp_0.html#decompose_file_name/4" xlink:title="https://logtalk.org/library/osp_0.html#decompose_file_name/4">
<polygon fill="beige" stroke="black" stroke-dasharray="5,2" points="279.5,-95 85.5,-95 85.5,-59 279.5,-59 279.5,-95"/>
<text text-anchor="start" x="93.5" y="-79.8" font-family="Monospace" font-size="9.00"> </text>
<text text-anchor="start" x="99.5" y="-79.2" font-family="Monospace" font-size="11.00">os::decompose_file_name/4</text>
<text text-anchor="start" x="265.5" y="-79.8" font-family="Monospace" font-size="9.00"> </text>
<text text-anchor="start" x="93.5" y="-68.8" font-family="Monospace" font-size="9.00"> </text>
<text text-anchor="start" x="165.5" y="-69.4" font-family="Monospace" font-size="7.00">external</text>
<text text-anchor="start" x="265.5" y="-68.8" font-family="Monospace" font-size="9.00"> </text>
</a>
</g>
</g>
<!-- term_expansion/2&#45;&gt;os::decompose_file_name/4 -->
<g id="edge1" class="edge">
<title>term_expansion/2&#45;&gt;os::decompose_file_name/4</title>
<g id="a_edge1"><a xlink:href="https://github.com/LogtalkDotOrg/logtalk3/tree/261dba8e72dd07f5fb5891a52d53f8dbac37f16a/library/hook_objects/object_wrapper_hook.lgt#L69" xlink:title="calls">
<path fill="none" stroke="black" d="M182.5,-176.88C182.5,-158.04 182.5,-127.47 182.5,-105.3"/>
<polygon fill="black" stroke="black" points="186,-105.19 182.5,-95.19 179,-105.19 186,-105.19"/>
</a>
</g>
<g id="a_edge1&#45;label"><a xlink:href="https://github.com/LogtalkDotOrg/logtalk3/tree/261dba8e72dd07f5fb5891a52d53f8dbac37f16a/library/hook_objects/object_wrapper_hook.lgt#L69" xlink:title="https://github.com/LogtalkDotOrg/logtalk3/tree/261dba8e72dd07f5fb5891a52d53f8dbac37f16a/library/hook_objects/object_wrapper_hook.lgt#L69">
<text text-anchor="start" x="182.5" y="-133.8" font-family="Monospace" font-size="9.00">calls</text>
</a>
</g>
</g>
</g>
</svg>
