<?xml version="1.0" encoding="UTF-8" standalone="no"?>
<?xml-stylesheet href="diagrams.css" type="text/css"?>
<!DOCTYPE svg PUBLIC "-//W3C//DTD SVG 1.1//EN"
 "http://www.w3.org/Graphics/SVG/1.1/DTD/svg11.dtd">
<!-- Generated by graphviz version 2.40.1 (20161225.0304)
 -->
<!-- Title: object_wrapper_hook_1_object Pages: 1 -->
<svg width="517pt" height="484pt"
 viewBox="72.00 72.00 445.00 412.00" xmlns="http://www.w3.org/2000/svg" xmlns:xlink="http://www.w3.org/1999/xlink">
<g id="graph0" class="graph" transform="scale(1 1) rotate(0) translate(76 408)">
<title>object_wrapper_hook_1_object</title>
<polygon fill="#ffffff" stroke="transparent" points="-4,4 -4,-336 369,-336 369,4 -4,4"/>
<text text-anchor="start" x="8" y="-29" font-family="Monospace" font-size="10.00" fill="#696969">Logtalk library</text>
<text text-anchor="start" x="8" y="-18" font-family="Monospace" font-size="10.00" fill="#696969">Cross&#45;referencing diagram for object object_wrapper_hook/1</text>
<text text-anchor="start" x="8" y="-7" font-family="Monospace" font-size="10.00" fill="#696969">Generated on 2023&#45;01&#45;01, 23:39</text>
<g id="clust1" class="cluster">
<title>cluster_object_wrapper_hook_1_object</title>
<g id="a_clust1"><a xlink:title="object_wrapper_hook(Protocol)">
<path fill="#fffafa" stroke="#696969" d="M85.5,-49C85.5,-49 279.5,-49 279.5,-49 285.5,-49 291.5,-55 291.5,-61 291.5,-61 291.5,-312 291.5,-312 291.5,-318 285.5,-324 279.5,-324 279.5,-324 85.5,-324 85.5,-324 79.5,-324 73.5,-318 73.5,-312 73.5,-312 73.5,-61 73.5,-61 73.5,-55 79.5,-49 85.5,-49"/>
<g id="a_clust1_0"><a xlink:href="https://github.com/LogtalkDotOrg/logtalk3/tree/934aee98ed3bc6654f203177f74af1b33a85d94c/library/hook_objects/object_wrapper_hook.lgt" xlink:title="https://github.com/LogtalkDotOrg/logtalk3/tree/934aee98ed3bc6654f203177f74af1b33a85d94c/library/hook_objects/object_wrapper_hook.lgt">
<text text-anchor="start" x="86" y="-307.5" font-family="Monospace" font-size="10.00" fill="#696969">object_wrapper_hook(Protocol)</text>
</a>
</g>
</a>
</g>
</g>
<!-- term_expansion/2 -->
<g id="node1" class="node">
<title>term_expansion/2</title>
<g id="a_node1"><a xlink:href="https://github.com/LogtalkDotOrg/logtalk3/tree/934aee98ed3bc6654f203177f74af1b33a85d94c/library/hook_objects/object_wrapper_hook.lgt#L69" xlink:title="https://github.com/LogtalkDotOrg/logtalk3/tree/934aee98ed3bc6654f203177f74af1b33a85d94c/library/hook_objects/object_wrapper_hook.lgt#L69">
<polygon fill="#fff8dc" stroke="#000000" points="251,-287 114,-287 114,-251 251,-251 251,-287"/>
<text text-anchor="start" x="122.5" y="-271.8" font-family="Monospace" font-size="9.00" fill="#000000"> </text>
<text text-anchor="start" x="128.5" y="-271.2" font-family="Monospace" font-size="11.00" fill="#000000">term_expansion/2</text>
<text text-anchor="start" x="237.5" y="-271.8" font-family="Monospace" font-size="9.00" fill="#000000"> </text>
<text text-anchor="start" x="122.5" y="-260.8" font-family="Monospace" font-size="9.00" fill="#000000"> </text>
<text text-anchor="start" x="171.5" y="-261.4" font-family="Monospace" font-size="7.00" fill="#000000">local</text>
<text text-anchor="start" x="237.5" y="-260.8" font-family="Monospace" font-size="9.00" fill="#000000"> </text>
</a>
</g>
</g>
<!-- os::decompose_file_name/4 -->
<g id="node2" class="node">
<title>os::decompose_file_name/4</title>
<g id="a_node2"><a xlink:href="https://logtalk.org/library/osp_0.html#decompose_file_name/4" xlink:title="https://logtalk.org/library/osp_0.html#decompose_file_name/4">
<polygon fill="#f5f5dc" stroke="#000000" stroke-dasharray="5,2" points="281,-95 84,-95 84,-59 281,-59 281,-95"/>
<text text-anchor="start" x="92.5" y="-79.8" font-family="Monospace" font-size="9.00" fill="#000000"> </text>
<text text-anchor="start" x="98.5" y="-79.2" font-family="Monospace" font-size="11.00" fill="#000000">os::decompose_file_name/4</text>
<text text-anchor="start" x="267.5" y="-79.8" font-family="Monospace" font-size="9.00" fill="#000000"> </text>
<text text-anchor="start" x="92.5" y="-68.8" font-family="Monospace" font-size="9.00" fill="#000000"> </text>
<text text-anchor="start" x="164.5" y="-69.4" font-family="Monospace" font-size="7.00" fill="#000000">external</text>
<text text-anchor="start" x="267.5" y="-68.8" font-family="Monospace" font-size="9.00" fill="#000000"> </text>
</a>
</g>
</g>
<!-- term_expansion/2&#45;&gt;os::decompose_file_name/4 -->
<g id="edge1" class="edge">
<title>term_expansion/2&#45;&gt;os::decompose_file_name/4</title>
<g id="a_edge1"><a xlink:href="https://github.com/LogtalkDotOrg/logtalk3/tree/934aee98ed3bc6654f203177f74af1b33a85d94c/library/hook_objects/object_wrapper_hook.lgt#L69" xlink:title="calls">
<path fill="none" stroke="#000000" d="M182.5,-250.9371C182.5,-217.4168 182.5,-145.3617 182.5,-105.3098"/>
<polygon fill="#000000" stroke="#000000" points="186.0001,-105.1547 182.5,-95.1548 179.0001,-105.1548 186.0001,-105.1547"/>
</a>
</g>
<g id="a_edge1&#45;label"><a xlink:href="https://github.com/LogtalkDotOrg/logtalk3/tree/934aee98ed3bc6654f203177f74af1b33a85d94c/library/hook_objects/object_wrapper_hook.lgt#L69" xlink:title="https://github.com/LogtalkDotOrg/logtalk3/tree/934aee98ed3bc6654f203177f74af1b33a85d94c/library/hook_objects/object_wrapper_hook.lgt#L69">
<text text-anchor="start" x="182.5" y="-170.8" font-family="Monospace" font-size="9.00" fill="#000000">calls</text>
</a>
</g>
</g>
</g>
</svg>
