<?xml version="1.0" encoding="UTF-8" standalone="no"?>
<?xml-stylesheet href="diagrams.css" type="text/css"?>
<!DOCTYPE svg PUBLIC "-//W3C//DTD SVG 1.1//EN"
 "http://www.w3.org/Graphics/SVG/1.1/DTD/svg11.dtd">
<!-- Generated by graphviz version 12.2.0 (20241103.1931)
 -->
<!-- Title: object_wrapper_hook_2_object Pages: 1 -->
<svg width="516pt" height="299pt"
 viewBox="72.00 72.00 444.00 227.00" xmlns="http://www.w3.org/2000/svg" xmlns:xlink="http://www.w3.org/1999/xlink">
<g id="graph0" class="graph" transform="scale(1 1) rotate(0) translate(76 223)">
<title>object_wrapper_hook_2_object</title>
<polygon fill="white" stroke="none" points="-4,4 -4,-151 368,-151 368,4 -4,4"/>
<text text-anchor="start" x="8" y="-32.75" font-family="Monospace" font-size="10.00" fill="dimgray">Logtalk library</text>
<text text-anchor="start" x="8" y="-20" font-family="Monospace" font-size="10.00" fill="dimgray">Cross&#45;referencing diagram for object object_wrapper_hook/2</text>
<text text-anchor="start" x="8" y="-7.25" font-family="Monospace" font-size="10.00" fill="dimgray">Generated on 2024&#45;12&#45;04, 10:50</text>
<g id="clust1" class="cluster">
<title>cluster_object_wrapper_hook_2_object</title>
<g id="a_clust1"><a xlink:title="object_wrapper_hook(Name,Relations)">
<path fill="snow" stroke="dimgray" d="M77,-54.25C77,-54.25 287,-54.25 287,-54.25 293,-54.25 299,-60.25 299,-66.25 299,-66.25 299,-127 299,-127 299,-133 293,-139 287,-139 287,-139 77,-139 77,-139 71,-139 65,-133 65,-127 65,-127 65,-66.25 65,-66.25 65,-60.25 71,-54.25 77,-54.25"/>
<g id="a_clust1_0"><a xlink:href="https://github.com/LogtalkDotOrg/logtalk3/tree/7a23ffbe4259d6666f77323cec54acc2b904d4d4/library/hook_objects/object_wrapper_hook.lgt" xlink:title="https://github.com/LogtalkDotOrg/logtalk3/tree/7a23ffbe4259d6666f77323cec54acc2b904d4d4/library/hook_objects/object_wrapper_hook.lgt">
<text text-anchor="start" x="77" y="-121.5" font-family="Monospace" font-size="10.00" fill="dimgray">object_wrapper_hook(Name,Relations)</text>
</a>
</g>
</a>
</g>
</g>
<!-- term_expansion/2 -->
<g id="node1" class="node">
<title>term_expansion/2</title>
<g id="a_node1"><a xlink:href="https://github.com/LogtalkDotOrg/logtalk3/tree/7a23ffbe4259d6666f77323cec54acc2b904d4d4/library/hook_objects/object_wrapper_hook.lgt#L99" xlink:title="https://github.com/LogtalkDotOrg/logtalk3/tree/7a23ffbe4259d6666f77323cec54acc2b904d4d4/library/hook_objects/object_wrapper_hook.lgt#L99">
<polygon fill="cornsilk" stroke="black" points="249.25,-100.25 114.75,-100.25 114.75,-64.25 249.25,-64.25 249.25,-100.25"/>
<text text-anchor="start" x="122.75" y="-84.95" font-family="Monospace" font-size="9.00"> </text>
<text text-anchor="start" x="128" y="-84.17" font-family="Monospace" font-size="11.00">term_expansion/2</text>
<text text-anchor="start" x="236" y="-84.95" font-family="Monospace" font-size="9.00"> </text>
<text text-anchor="start" x="122.75" y="-72.58" font-family="Monospace" font-size="9.00"> </text>
<text text-anchor="start" x="170.75" y="-73.35" font-family="Monospace" font-size="7.00">local</text>
<text text-anchor="start" x="236" y="-72.58" font-family="Monospace" font-size="9.00"> </text>
</a>
</g>
</g>
</g>
</svg>
