<?xml version="1.0" encoding="UTF-8" standalone="no"?>
<?xml-stylesheet href="diagrams.css" type="text/css"?>
<!DOCTYPE svg PUBLIC "-//W3C//DTD SVG 1.1//EN"
 "http://www.w3.org/Graphics/SVG/1.1/DTD/svg11.dtd">
<!-- Generated by graphviz version 11.0.0 (20240428.1522)
 -->
<!-- Title: object_wrapper_hook_object Pages: 1 -->
<svg width="504pt" height="418pt"
 viewBox="72.00 72.00 432.00 346.25" xmlns="http://www.w3.org/2000/svg" xmlns:xlink="http://www.w3.org/1999/xlink">
<g id="graph0" class="graph" transform="scale(1 1) rotate(0) translate(76 342.25)">
<title>object_wrapper_hook_object</title>
<polygon fill="white" stroke="none" points="-4,4 -4,-270.25 356,-270.25 356,4 -4,4"/>
<text text-anchor="start" x="8" y="-32.75" font-family="Monospace" font-size="10.00" fill="dimgray">Logtalk library</text>
<text text-anchor="start" x="8" y="-20" font-family="Monospace" font-size="10.00" fill="dimgray">Cross&#45;referencing diagram for object object_wrapper_hook</text>
<text text-anchor="start" x="8" y="-7.25" font-family="Monospace" font-size="10.00" fill="dimgray">Generated on 2024&#45;05&#45;24, 15:36</text>
<g id="clust1" class="cluster">
<title>cluster_object_wrapper_hook_object</title>
<g id="a_clust1"><a xlink:title="object_wrapper_hook">
<path fill="snow" stroke="dimgray" d="M81,-54.25C81,-54.25 271,-54.25 271,-54.25 277,-54.25 283,-60.25 283,-66.25 283,-66.25 283,-246.25 283,-246.25 283,-252.25 277,-258.25 271,-258.25 271,-258.25 81,-258.25 81,-258.25 75,-258.25 69,-252.25 69,-246.25 69,-246.25 69,-66.25 69,-66.25 69,-60.25 75,-54.25 81,-54.25"/>
<g id="a_clust1_0"><a xlink:href="https://github.com/LogtalkDotOrg/logtalk3/tree/eca0a566d716e491a44794f78afea86c2536b664/library/hook_objects/object_wrapper_hook.lgt" xlink:title="https://github.com/LogtalkDotOrg/logtalk3/tree/eca0a566d716e491a44794f78afea86c2536b664/library/hook_objects/object_wrapper_hook.lgt">
<text text-anchor="start" x="81" y="-240.75" font-family="Monospace" font-size="10.00" fill="dimgray">object_wrapper_hook</text>
</a>
</g>
</a>
</g>
</g>
<!-- term_expansion/2 -->
<g id="node1" class="node">
<title>term_expansion/2</title>
<g id="a_node1"><a xlink:href="https://github.com/LogtalkDotOrg/logtalk3/tree/eca0a566d716e491a44794f78afea86c2536b664/library/hook_objects/object_wrapper_hook.lgt#L39" xlink:title="https://github.com/LogtalkDotOrg/logtalk3/tree/eca0a566d716e491a44794f78afea86c2536b664/library/hook_objects/object_wrapper_hook.lgt#L39">
<polygon fill="cornsilk" stroke="black" points="243,-219.5 109,-219.5 109,-183.5 243,-183.5 243,-219.5"/>
<text text-anchor="start" x="116.88" y="-204.07" font-family="Monospace" font-size="9.00"> </text>
<text text-anchor="start" x="122" y="-203.05" font-family="Monospace" font-size="11.00">term_expansion/2</text>
<text text-anchor="start" x="229.88" y="-204.07" font-family="Monospace" font-size="9.00"> </text>
<text text-anchor="start" x="116.88" y="-191.95" font-family="Monospace" font-size="9.00"> </text>
<text text-anchor="start" x="164.75" y="-192.85" font-family="Monospace" font-size="7.00">local</text>
<text text-anchor="start" x="229.88" y="-191.95" font-family="Monospace" font-size="9.00"> </text>
</a>
</g>
</g>
<!-- os::decompose_file_name/4 -->
<g id="node2" class="node">
<title>os::decompose_file_name/4</title>
<g id="a_node2"><a xlink:href="https://logtalk.org/library/osp_0.html#decompose-file-name-4" xlink:title="https://logtalk.org/library/osp_0.html#decompose&#45;file&#45;name&#45;4">
<polygon fill="beige" stroke="black" stroke-dasharray="5,2" points="273,-100.25 79,-100.25 79,-64.25 273,-64.25 273,-100.25"/>
<text text-anchor="start" x="86.88" y="-84.83" font-family="Monospace" font-size="9.00"> </text>
<text text-anchor="start" x="91.62" y="-83.8" font-family="Monospace" font-size="11.00">os::decompose_file_name/4</text>
<text text-anchor="start" x="259.88" y="-84.83" font-family="Monospace" font-size="9.00"> </text>
<text text-anchor="start" x="86.88" y="-72.7" font-family="Monospace" font-size="9.00"> </text>
<text text-anchor="start" x="158" y="-73.6" font-family="Monospace" font-size="7.00">external</text>
<text text-anchor="start" x="259.88" y="-72.7" font-family="Monospace" font-size="9.00"> </text>
</a>
</g>
</g>
<!-- term_expansion/2&#45;&gt;os::decompose_file_name/4 -->
<g id="edge1" class="edge">
<title>term_expansion/2&#45;&gt;os::decompose_file_name/4</title>
<g id="a_edge1"><a xlink:href="https://github.com/LogtalkDotOrg/logtalk3/tree/eca0a566d716e491a44794f78afea86c2536b664/library/hook_objects/object_wrapper_hook.lgt#L39" xlink:title="calls">
<path fill="none" stroke="black" d="M176,-183.2C176,-164.5 176,-134.37 176,-112.08"/>
<polygon fill="black" stroke="black" points="179.5,-112.14 176,-102.14 172.5,-112.14 179.5,-112.14"/>
</a>
</g>
<g id="a_edge1&#45;label"><a xlink:href="https://github.com/LogtalkDotOrg/logtalk3/tree/eca0a566d716e491a44794f78afea86c2536b664/library/hook_objects/object_wrapper_hook.lgt#L39" xlink:title="https://github.com/LogtalkDotOrg/logtalk3/tree/eca0a566d716e491a44794f78afea86c2536b664/library/hook_objects/object_wrapper_hook.lgt#L39">
<text text-anchor="start" x="176" y="-138.95" font-family="Monospace" font-size="9.00">calls</text>
</a>
</g>
</g>
</g>
</svg>
