<?xml version="1.0" encoding="UTF-8" standalone="no"?>
<?xml-stylesheet href="diagrams.css" type="text/css"?>
<!DOCTYPE svg PUBLIC "-//W3C//DTD SVG 1.1//EN"
 "http://www.w3.org/Graphics/SVG/1.1/DTD/svg11.dtd">
<!-- Generated by graphviz version 2.49.3 (20211023.0002)
 -->
<!-- Title: observer_category Pages: 1 -->
<svg width="403pt" height="292pt"
 viewBox="72.00 72.00 331.00 220.00" xmlns="http://www.w3.org/2000/svg" xmlns:xlink="http://www.w3.org/1999/xlink">
<g id="graph0" class="graph" transform="scale(1 1) rotate(0) translate(76 216)">
<title>observer_category</title>
<polygon fill="white" stroke="transparent" points="-4,4 -4,-144 255,-144 255,4 -4,4"/>
<text text-anchor="start" x="8" y="-29" font-family="Courier,monospace" font-size="10.00" fill="dimgray">Logtalk library</text>
<text text-anchor="start" x="8" y="-18" font-family="Courier,monospace" font-size="10.00" fill="dimgray">Cross&#45;referencing diagram for category observer</text>
<text text-anchor="start" x="8" y="-7" font-family="Courier,monospace" font-size="10.00" fill="dimgray">Generated on 2021&#45;11&#45;17, 12:11</text>
<g id="clust1" class="cluster">
<title>cluster_observer_category</title>
<g id="a_clust1"><a xlink:title="observer">
<path fill="snow" stroke="dimgray" d="M92.5,-49C92.5,-49 158.5,-49 158.5,-49 164.5,-49 170.5,-55 170.5,-61 170.5,-61 170.5,-120 170.5,-120 170.5,-126 164.5,-132 158.5,-132 158.5,-132 92.5,-132 92.5,-132 86.5,-132 80.5,-126 80.5,-120 80.5,-120 80.5,-61 80.5,-61 80.5,-55 86.5,-49 92.5,-49"/>
<g id="a_clust1_0"><a xlink:href="https://github.com/LogtalkDotOrg/logtalk3/tree/071a8ea54f71195e9aec1568b51726f3a39ac6b5/library/dependents/observer.lgt" xlink:title="https://github.com/LogtalkDotOrg/logtalk3/tree/071a8ea54f71195e9aec1568b51726f3a39ac6b5/library/dependents/observer.lgt">
<text text-anchor="start" x="92.5" y="-115.5" font-family="Courier,monospace" font-size="10.00" fill="dimgray">observer</text>
</a>
</g>
</a>
</g>
</g>
<!-- update/1 -->
<g id="node1" class="node">
<title>update/1</title>
<g id="a_node1"><a xlink:href="https://github.com/LogtalkDotOrg/logtalk3/tree/071a8ea54f71195e9aec1568b51726f3a39ac6b5/library/dependents/observer.lgt#L32" xlink:title="https://github.com/LogtalkDotOrg/logtalk3/tree/071a8ea54f71195e9aec1568b51726f3a39ac6b5/library/dependents/observer.lgt#L32">
<polygon fill="springgreen" stroke="black" points="160.5,-95 90.5,-95 90.5,-59 160.5,-59 160.5,-95"/>
<text text-anchor="start" x="98.5" y="-79.8" font-family="Courier,monospace" font-size="9.00"> </text>
<text text-anchor="start" x="103.5" y="-79.2" font-family="Courier,monospace" font-size="11.00">update/1</text>
<text text-anchor="start" x="147.5" y="-79.8" font-family="Courier,monospace" font-size="9.00"> </text>
<text text-anchor="start" x="98.5" y="-68.8" font-family="Courier,monospace" font-size="9.00"> </text>
<text text-anchor="start" x="115" y="-69.4" font-family="Courier,monospace" font-size="7.00">public</text>
<text text-anchor="start" x="147.5" y="-68.8" font-family="Courier,monospace" font-size="9.00"> </text>
</a>
</g>
</g>
</g>
</svg>
