<?xml version="1.0" encoding="UTF-8" standalone="no"?>
<!DOCTYPE svg PUBLIC "-//W3C//DTD SVG 1.1//EN"
 "http://www.w3.org/Graphics/SVG/1.1/DTD/svg11.dtd">
<!-- Generated by graphviz version 2.40.1 (20161225.0304)
 -->
<!-- Title: observer_category Pages: 1 -->
<svg width="451pt" height="298pt"
 viewBox="72.00 72.00 379.00 226.43" xmlns="http://www.w3.org/2000/svg" xmlns:xlink="http://www.w3.org/1999/xlink">
<g id="graph0" class="graph" transform="scale(1 1) rotate(0) translate(76 222.4264)">
<title>observer_category</title>
<polygon fill="#ffffff" stroke="transparent" points="-4,4 -4,-150.4264 303,-150.4264 303,4 -4,4"/>
<text text-anchor="start" x="8" y="-29" font-family="Courier,monospace" font-size="10.00" fill="#8b8989">Logtalk library</text>
<text text-anchor="start" x="8" y="-18" font-family="Courier,monospace" font-size="10.00" fill="#8b8989">Cross&#45;referencing diagram for category observer</text>
<text text-anchor="start" x="8" y="-7" font-family="Courier,monospace" font-size="10.00" fill="#8b8989">Generated on 2019/04/24, 19:03</text>
<g id="clust1" class="cluster">
<title>cluster_observer_category</title>
<g id="a_clust1"><a xlink:title="observer">
<path fill="#fffafa" stroke="#8b8989" d="M94.5,-49C94.5,-49 204.5,-49 204.5,-49 210.5,-49 216.5,-55 216.5,-61 216.5,-61 216.5,-126.4264 216.5,-126.4264 216.5,-132.4264 210.5,-138.4264 204.5,-138.4264 204.5,-138.4264 94.5,-138.4264 94.5,-138.4264 88.5,-138.4264 82.5,-132.4264 82.5,-126.4264 82.5,-126.4264 82.5,-61 82.5,-61 82.5,-55 88.5,-49 94.5,-49"/>
<g id="a_clust1_0"><a xlink:href="https://github.com/LogtalkDotOrg/logtalk3/tree/master/library/observer.lgt" xlink:title="https://github.com/LogtalkDotOrg/logtalk3/tree/master/library/observer.lgt">
<text text-anchor="start" x="95" y="-121.9264" font-family="Courier,monospace" font-size="10.00" fill="#8b8989">observer</text>
</a>
</g>
</a>
</g>
</g>
<!-- update/1 -->
<g id="node1" class="node">
<title>update/1</title>
<g id="a_node1"><a xlink:href="https://github.com/LogtalkDotOrg/logtalk3/tree/master/library/observer.lgt#L31" xlink:title="https://github.com/LogtalkDotOrg/logtalk3/tree/master/library/observer.lgt#L31">
<ellipse fill="#00ff7f" stroke="#000000" cx="149.5" cy="-80.2132" rx="57.0522" ry="21.4286"/>
<text text-anchor="start" x="117.5" y="-83.0132" font-family="Courier,monospace" font-size="9.00" fill="#000000"> </text>
<text text-anchor="start" x="123.5" y="-82.4132" font-family="Courier,monospace" font-size="11.00" fill="#000000">update/1</text>
<text text-anchor="start" x="176.5" y="-83.0132" font-family="Courier,monospace" font-size="9.00" fill="#000000"> </text>
<text text-anchor="start" x="117.5" y="-72.0132" font-family="Courier,monospace" font-size="9.00" fill="#000000"> </text>
<text text-anchor="start" x="137" y="-72.6132" font-family="Courier,monospace" font-size="7.00" fill="#000000">public</text>
<text text-anchor="start" x="176.5" y="-72.0132" font-family="Courier,monospace" font-size="9.00" fill="#000000"> </text>
</a>
</g>
</g>
</g>
</svg>
