<?xml version="1.0" encoding="UTF-8" standalone="no"?>
<?xml-stylesheet href="diagrams.css" type="text/css"?>
<!DOCTYPE svg PUBLIC "-//W3C//DTD SVG 1.1//EN"
 "http://www.w3.org/Graphics/SVG/1.1/DTD/svg11.dtd">
<!-- Generated by graphviz version 2.50.0 (20211204.2007)
 -->
<!-- Title: observer_category Pages: 1 -->
<svg width="451pt" height="292pt"
 viewBox="72.00 72.00 379.00 220.00" xmlns="http://www.w3.org/2000/svg" xmlns:xlink="http://www.w3.org/1999/xlink">
<g id="graph0" class="graph" transform="scale(1 1) rotate(0) translate(76 216)">
<title>observer_category</title>
<polygon fill="white" stroke="transparent" points="-4,4 -4,-144 303,-144 303,4 -4,4"/>
<text text-anchor="start" x="8" y="-29" font-family="Monospace" font-size="10.00" fill="dimgray">Logtalk library</text>
<text text-anchor="start" x="8" y="-18" font-family="Monospace" font-size="10.00" fill="dimgray">Cross&#45;referencing diagram for category observer</text>
<text text-anchor="start" x="8" y="-7" font-family="Monospace" font-size="10.00" fill="dimgray">Generated on 2022&#45;02&#45;07, 09:06</text>
<g id="clust1" class="cluster">
<title>cluster_observer_category</title>
<g id="a_clust1"><a xlink:title="observer">
<path fill="snow" stroke="dimgray" d="M109.5,-49C109.5,-49 189.5,-49 189.5,-49 195.5,-49 201.5,-55 201.5,-61 201.5,-61 201.5,-120 201.5,-120 201.5,-126 195.5,-132 189.5,-132 189.5,-132 109.5,-132 109.5,-132 103.5,-132 97.5,-126 97.5,-120 97.5,-120 97.5,-61 97.5,-61 97.5,-55 103.5,-49 109.5,-49"/>
<g id="a_clust1_0"><a xlink:href="https://github.com/LogtalkDotOrg/logtalk3/tree/4207955a09be4d1830db4c194395cb8a2677dbcb/library/dependents/observer.lgt" xlink:title="https://github.com/LogtalkDotOrg/logtalk3/tree/4207955a09be4d1830db4c194395cb8a2677dbcb/library/dependents/observer.lgt">
<text text-anchor="start" x="110" y="-115.5" font-family="Monospace" font-size="10.00" fill="dimgray">observer</text>
</a>
</g>
</a>
</g>
</g>
<!-- update/1 -->
<g id="node1" class="node">
<title>update/1</title>
<g id="a_node1"><a xlink:href="https://github.com/LogtalkDotOrg/logtalk3/tree/4207955a09be4d1830db4c194395cb8a2677dbcb/library/dependents/observer.lgt#L32" xlink:title="https://github.com/LogtalkDotOrg/logtalk3/tree/4207955a09be4d1830db4c194395cb8a2677dbcb/library/dependents/observer.lgt#L32">
<polygon fill="springgreen" stroke="black" points="191,-95 108,-95 108,-59 191,-59 191,-95"/>
<text text-anchor="start" x="116.5" y="-79.8" font-family="Monospace" font-size="9.00"> </text>
<text text-anchor="start" x="122.5" y="-79.2" font-family="Monospace" font-size="11.00">update/1</text>
<text text-anchor="start" x="177.5" y="-79.8" font-family="Monospace" font-size="9.00"> </text>
<text text-anchor="start" x="116.5" y="-68.8" font-family="Monospace" font-size="9.00"> </text>
<text text-anchor="start" x="136" y="-69.4" font-family="Monospace" font-size="7.00">public</text>
<text text-anchor="start" x="177.5" y="-68.8" font-family="Monospace" font-size="9.00"> </text>
</a>
</g>
</g>
</g>
</svg>
