<?xml version="1.0" encoding="UTF-8" standalone="no"?>
<?xml-stylesheet href="diagrams.css" type="text/css"?>
<!DOCTYPE svg PUBLIC "-//W3C//DTD SVG 1.1//EN"
 "http://www.w3.org/Graphics/SVG/1.1/DTD/svg11.dtd">
<!-- Generated by graphviz version 2.43.20191029.1313 (20191029.1313)
 -->
<!-- Title: os_types_category Pages: 1 -->
<svg width="450pt" height="288pt"
 viewBox="72.00 72.00 378.05 216.00" xmlns="http://www.w3.org/2000/svg" xmlns:xlink="http://www.w3.org/1999/xlink">
<g id="graph0" class="graph" transform="scale(1 1) rotate(0) translate(76 212)">
<title>os_types_category</title>
<polygon fill="white" stroke="transparent" points="-4,4 -4,-140 302.05,-140 302.05,4 -4,4"/>
<text text-anchor="start" x="8" y="-26" font-family="Courier,monospace" font-size="10.00" fill="dimgray">Logtalk library</text>
<text text-anchor="start" x="8" y="-16" font-family="Courier,monospace" font-size="10.00" fill="dimgray">Cross&#45;referencing diagram for category os_types</text>
<text text-anchor="start" x="8" y="-6" font-family="Courier,monospace" font-size="10.00" fill="dimgray">Generated on 2020&#45;05&#45;25, 21:55</text>
<g id="clust1" class="cluster">
<title>cluster_os_types_category</title>
<g id="a_clust1"><a xlink:title="os_types">
<path fill="snow" stroke="dimgray" d="M33.52,-46C33.52,-46 264.52,-46 264.52,-46 270.52,-46 276.52,-52 276.52,-58 276.52,-58 276.52,-116 276.52,-116 276.52,-122 270.52,-128 264.52,-128 264.52,-128 33.52,-128 33.52,-128 27.52,-128 21.52,-122 21.52,-116 21.52,-116 21.52,-58 21.52,-58 21.52,-52 27.52,-46 33.52,-46"/>
<g id="a_clust1_0"><a xlink:href="https://github.com/LogtalkDotOrg/logtalk3/tree/ee3e469ba16664bcc8b3b120a4a0bb7672d96db2/library/os/os_types.lgt" xlink:title="https://github.com/LogtalkDotOrg/logtalk3/tree/ee3e469ba16664bcc8b3b120a4a0bb7672d96db2/library/os/os_types.lgt">
<text text-anchor="start" x="33.52" y="-112" font-family="Courier,monospace" font-size="10.00" fill="dimgray">os_types</text>
</a>
</g>
</a>
</g>
</g>
<!-- type::type/1 -->
<g id="node1" class="node">
<title>type::type/1</title>
<g id="a_node1"><a xlink:href="https://github.com/LogtalkDotOrg/logtalk3/tree/ee3e469ba16664bcc8b3b120a4a0bb7672d96db2/library/os/os_types.lgt#L47" xlink:title="https://github.com/LogtalkDotOrg/logtalk3/tree/ee3e469ba16664bcc8b3b120a4a0bb7672d96db2/library/os/os_types.lgt#L47">
<polygon fill="skyblue" stroke="black" points="266.02,-92 161.02,-92 161.02,-56 266.02,-56 266.02,-92"/>
<text text-anchor="start" x="169.32" y="-75.8" font-family="Courier,monospace" font-size="9.00"> </text>
<text text-anchor="start" x="174.42" y="-75.2" font-family="Courier,monospace" font-size="11.00">type::type/1</text>
<text text-anchor="start" x="253.32" y="-75.8" font-family="Courier,monospace" font-size="9.00"> </text>
<text text-anchor="start" x="169.32" y="-65.8" font-family="Courier,monospace" font-size="9.00"> </text>
<text text-anchor="start" x="195.12" y="-66.4" font-family="Courier,monospace" font-size="7.00">multifile</text>
<text text-anchor="start" x="253.32" y="-65.8" font-family="Courier,monospace" font-size="9.00"> </text>
</a>
</g>
</g>
<!-- type::check/2 -->
<g id="node2" class="node">
<title>type::check/2</title>
<g id="a_node2"><a xlink:href="https://github.com/LogtalkDotOrg/logtalk3/tree/ee3e469ba16664bcc8b3b120a4a0bb7672d96db2/library/os/os_types.lgt#L61" xlink:title="https://github.com/LogtalkDotOrg/logtalk3/tree/ee3e469ba16664bcc8b3b120a4a0bb7672d96db2/library/os/os_types.lgt#L61">
<polygon fill="skyblue" stroke="black" points="143.02,-92 32.02,-92 32.02,-56 143.02,-56 143.02,-92"/>
<text text-anchor="start" x="40.32" y="-75.8" font-family="Courier,monospace" font-size="9.00"> </text>
<text text-anchor="start" x="45.12" y="-75.2" font-family="Courier,monospace" font-size="11.00">type::check/2</text>
<text text-anchor="start" x="130.32" y="-75.8" font-family="Courier,monospace" font-size="9.00"> </text>
<text text-anchor="start" x="40.32" y="-65.8" font-family="Courier,monospace" font-size="9.00"> </text>
<text text-anchor="start" x="69.12" y="-66.4" font-family="Courier,monospace" font-size="7.00">multifile</text>
<text text-anchor="start" x="130.32" y="-65.8" font-family="Courier,monospace" font-size="9.00"> </text>
</a>
</g>
</g>
</g>
</svg>
