<?xml version="1.0" encoding="UTF-8" standalone="no"?>
<!DOCTYPE svg PUBLIC "-//W3C//DTD SVG 1.1//EN"
 "http://www.w3.org/Graphics/SVG/1.1/DTD/svg11.dtd">
<!-- Generated by graphviz version 2.40.1 (20161225.0304)
 -->
<!-- Title: os_types_category Pages: 1 -->
<svg width="520pt" height="290pt"
 viewBox="72.00 72.00 448.00 218.43" xmlns="http://www.w3.org/2000/svg" xmlns:xlink="http://www.w3.org/1999/xlink">
<g id="graph0" class="graph" transform="scale(1 1) rotate(0) translate(76 214.4264)">
<title>os_types_category</title>
<polygon fill="#ffffff" stroke="transparent" points="-4,4 -4,-142.4264 372,-142.4264 372,4 -4,4"/>
<text text-anchor="start" x="8" y="-29" font-family="Courier,monospace" font-size="10.00" fill="#8b8989">Logtalk library</text>
<text text-anchor="start" x="8" y="-18" font-family="Courier,monospace" font-size="10.00" fill="#8b8989">Cross&#45;referencing diagram</text>
<text text-anchor="start" x="8" y="-7" font-family="Courier,monospace" font-size="10.00" fill="#8b8989">Generated on 2019/04/21, 10:26</text>
<g id="clust1" class="cluster">
<title>cluster_os_types_category</title>
<g id="a_clust1"><a xlink:href="https://github.com/LogtalkDotOrg/logtalk3/tree/master/library/os_types.lgt" xlink:title="https://github.com/LogtalkDotOrg/logtalk3/tree/master/library/os_types.lgt">
<path fill="#fffafa" stroke="#8b8989" d="M20,-49C20,-49 348,-49 348,-49 354,-49 360,-55 360,-61 360,-61 360,-118.4264 360,-118.4264 360,-124.4264 354,-130.4264 348,-130.4264 348,-130.4264 20,-130.4264 20,-130.4264 14,-130.4264 8,-124.4264 8,-118.4264 8,-118.4264 8,-61 8,-61 8,-55 14,-49 20,-49"/>
<text text-anchor="middle" x="40.5" y="-118.4264" font-family="Courier,monospace" font-size="10.00" fill="#8b8989">os_types</text>
</a>
</g>
</g>
<!-- type::type/1 -->
<g id="node1" class="node">
<title>type::type/1</title>
<g id="a_node1"><a xlink:href="https://github.com/LogtalkDotOrg/logtalk3/tree/master/library/os_types.lgt#L47" xlink:title="https://github.com/LogtalkDotOrg/logtalk3/tree/master/library/os_types.lgt#L47">
<ellipse fill="#87ceeb" stroke="#000000" cx="274" cy="-80.2132" rx="76.2353" ry="21.4286"/>
<text text-anchor="start" x="228" y="-83.0132" font-family="Courier,monospace" font-size="9.00" fill="#000000"> </text>
<text text-anchor="start" x="234" y="-82.4132" font-family="Courier,monospace" font-size="11.00" fill="#000000">type::type/1</text>
<text text-anchor="start" x="314" y="-83.0132" font-family="Courier,monospace" font-size="9.00" fill="#000000"> </text>
<text text-anchor="start" x="228" y="-72.0132" font-family="Courier,monospace" font-size="9.00" fill="#000000"> </text>
<text text-anchor="start" x="255" y="-72.6132" font-family="Courier,monospace" font-size="7.00" fill="#000000">multifile</text>
<text text-anchor="start" x="314" y="-72.0132" font-family="Courier,monospace" font-size="9.00" fill="#000000"> </text>
</a>
</g>
</g>
<!-- type::check/2 -->
<g id="node2" class="node">
<title>type::check/2</title>
<g id="a_node2"><a xlink:href="https://github.com/LogtalkDotOrg/logtalk3/tree/master/library/os_types.lgt#L61" xlink:title="https://github.com/LogtalkDotOrg/logtalk3/tree/master/library/os_types.lgt#L61">
<ellipse fill="#87ceeb" stroke="#000000" cx="99" cy="-80.2132" rx="80.7205" ry="21.4286"/>
<text text-anchor="start" x="50" y="-83.0132" font-family="Courier,monospace" font-size="9.00" fill="#000000"> </text>
<text text-anchor="start" x="56" y="-82.4132" font-family="Courier,monospace" font-size="11.00" fill="#000000">type::check/2</text>
<text text-anchor="start" x="142" y="-83.0132" font-family="Courier,monospace" font-size="9.00" fill="#000000"> </text>
<text text-anchor="start" x="50" y="-72.0132" font-family="Courier,monospace" font-size="9.00" fill="#000000"> </text>
<text text-anchor="start" x="80" y="-72.6132" font-family="Courier,monospace" font-size="7.00" fill="#000000">multifile</text>
<text text-anchor="start" x="142" y="-72.0132" font-family="Courier,monospace" font-size="9.00" fill="#000000"> </text>
</a>
</g>
</g>
</g>
</svg>
