<?xml version="1.0" encoding="UTF-8" standalone="no"?>
<?xml-stylesheet href="diagrams.css" type="text/css"?>
<!DOCTYPE svg PUBLIC "-//W3C//DTD SVG 1.1//EN"
 "http://www.w3.org/Graphics/SVG/1.1/DTD/svg11.dtd">
<!-- Generated by graphviz version 2.50.0 (20211204.2007)
 -->
<!-- Title: pack_protocol_protocol Pages: 1 -->
<svg width="781pt" height="292pt"
 viewBox="72.00 72.00 709.00 220.00" xmlns="http://www.w3.org/2000/svg" xmlns:xlink="http://www.w3.org/1999/xlink">
<g id="graph0" class="graph" transform="scale(1 1) rotate(0) translate(76 216)">
<title>pack_protocol_protocol</title>
<polygon fill="white" stroke="transparent" points="-4,4 -4,-144 633,-144 633,4 -4,4"/>
<text text-anchor="start" x="8" y="-29" font-family="Monospace" font-size="10.00" fill="dimgray">Logtalk development tools</text>
<text text-anchor="start" x="8" y="-18" font-family="Monospace" font-size="10.00" fill="dimgray">Cross&#45;referencing diagram for protocol pack_protocol</text>
<text text-anchor="start" x="8" y="-7" font-family="Monospace" font-size="10.00" fill="dimgray">Generated on 2022&#45;09&#45;05, 18:27</text>
<g id="clust1" class="cluster">
<title>cluster_pack_protocol_protocol</title>
<g id="a_clust1"><a xlink:title="pack_protocol">
<path fill="snow" stroke="dimgray" d="M20,-49C20,-49 609,-49 609,-49 615,-49 621,-55 621,-61 621,-61 621,-120 621,-120 621,-126 615,-132 609,-132 609,-132 20,-132 20,-132 14,-132 8,-126 8,-120 8,-120 8,-61 8,-61 8,-55 14,-49 20,-49"/>
<g id="a_clust1_0"><a xlink:href="https://github.com/LogtalkDotOrg/logtalk3/tree/0107cdbe01f9718284a434a27a7a3f10d8e1634d/tools/packs/pack_protocol.lgt" xlink:title="https://github.com/LogtalkDotOrg/logtalk3/tree/0107cdbe01f9718284a434a27a7a3f10d8e1634d/tools/packs/pack_protocol.lgt">
<text text-anchor="start" x="20.5" y="-115.5" font-family="Monospace" font-size="10.00" fill="dimgray">pack_protocol</text>
</a>
</g>
</a>
</g>
</g>
<!-- name/1 -->
<g id="node1" class="node">
<title>name/1</title>
<g id="a_node1"><a xlink:href="https://github.com/LogtalkDotOrg/logtalk3/tree/0107cdbe01f9718284a434a27a7a3f10d8e1634d/tools/packs/pack_protocol.lgt#L31" xlink:title="https://github.com/LogtalkDotOrg/logtalk3/tree/0107cdbe01f9718284a434a27a7a3f10d8e1634d/tools/packs/pack_protocol.lgt#L31">
<polygon fill="springgreen" stroke="black" points="610.5,-95 541.5,-95 541.5,-59 610.5,-59 610.5,-95"/>
<text text-anchor="start" x="550" y="-79.8" font-family="Monospace" font-size="9.00"> </text>
<text text-anchor="start" x="556" y="-79.2" font-family="Monospace" font-size="11.00">name/1</text>
<text text-anchor="start" x="597" y="-79.8" font-family="Monospace" font-size="9.00"> </text>
<text text-anchor="start" x="550" y="-68.8" font-family="Monospace" font-size="9.00"> </text>
<text text-anchor="start" x="562.5" y="-69.4" font-family="Monospace" font-size="7.00">public</text>
<text text-anchor="start" x="597" y="-68.8" font-family="Monospace" font-size="9.00"> </text>
</a>
</g>
</g>
<!-- description/1 -->
<g id="node2" class="node">
<title>description/1</title>
<g id="a_node2"><a xlink:href="https://github.com/LogtalkDotOrg/logtalk3/tree/0107cdbe01f9718284a434a27a7a3f10d8e1634d/tools/packs/pack_protocol.lgt#L38" xlink:title="https://github.com/LogtalkDotOrg/logtalk3/tree/0107cdbe01f9718284a434a27a7a3f10d8e1634d/tools/packs/pack_protocol.lgt#L38">
<polygon fill="springgreen" stroke="black" points="523,-95 407,-95 407,-59 523,-59 523,-95"/>
<text text-anchor="start" x="415" y="-79.8" font-family="Monospace" font-size="9.00"> </text>
<text text-anchor="start" x="421" y="-79.2" font-family="Monospace" font-size="11.00">description/1</text>
<text text-anchor="start" x="509" y="-79.8" font-family="Monospace" font-size="9.00"> </text>
<text text-anchor="start" x="415" y="-68.8" font-family="Monospace" font-size="9.00"> </text>
<text text-anchor="start" x="451" y="-69.4" font-family="Monospace" font-size="7.00">public</text>
<text text-anchor="start" x="509" y="-68.8" font-family="Monospace" font-size="9.00"> </text>
</a>
</g>
</g>
<!-- license/1 -->
<g id="node3" class="node">
<title>license/1</title>
<g id="a_node3"><a xlink:href="https://github.com/LogtalkDotOrg/logtalk3/tree/0107cdbe01f9718284a434a27a7a3f10d8e1634d/tools/packs/pack_protocol.lgt#L45" xlink:title="https://github.com/LogtalkDotOrg/logtalk3/tree/0107cdbe01f9718284a434a27a7a3f10d8e1634d/tools/packs/pack_protocol.lgt#L45">
<polygon fill="springgreen" stroke="black" points="388.5,-95 299.5,-95 299.5,-59 388.5,-59 388.5,-95"/>
<text text-anchor="start" x="308" y="-79.8" font-family="Monospace" font-size="9.00"> </text>
<text text-anchor="start" x="314" y="-79.2" font-family="Monospace" font-size="11.00">license/1</text>
<text text-anchor="start" x="375" y="-79.8" font-family="Monospace" font-size="9.00"> </text>
<text text-anchor="start" x="308" y="-68.8" font-family="Monospace" font-size="9.00"> </text>
<text text-anchor="start" x="330.5" y="-69.4" font-family="Monospace" font-size="7.00">public</text>
<text text-anchor="start" x="375" y="-68.8" font-family="Monospace" font-size="9.00"> </text>
</a>
</g>
</g>
<!-- home/1 -->
<g id="node4" class="node">
<title>home/1</title>
<g id="a_node4"><a xlink:href="https://github.com/LogtalkDotOrg/logtalk3/tree/0107cdbe01f9718284a434a27a7a3f10d8e1634d/tools/packs/pack_protocol.lgt#L52" xlink:title="https://github.com/LogtalkDotOrg/logtalk3/tree/0107cdbe01f9718284a434a27a7a3f10d8e1634d/tools/packs/pack_protocol.lgt#L52">
<polygon fill="springgreen" stroke="black" points="281.5,-95 212.5,-95 212.5,-59 281.5,-59 281.5,-95"/>
<text text-anchor="start" x="221" y="-79.8" font-family="Monospace" font-size="9.00"> </text>
<text text-anchor="start" x="227" y="-79.2" font-family="Monospace" font-size="11.00">home/1</text>
<text text-anchor="start" x="268" y="-79.8" font-family="Monospace" font-size="9.00"> </text>
<text text-anchor="start" x="221" y="-68.8" font-family="Monospace" font-size="9.00"> </text>
<text text-anchor="start" x="233.5" y="-69.4" font-family="Monospace" font-size="7.00">public</text>
<text text-anchor="start" x="268" y="-68.8" font-family="Monospace" font-size="9.00"> </text>
</a>
</g>
</g>
<!-- version/6 -->
<g id="node5" class="node">
<title>version/6</title>
<g id="a_node5"><a xlink:href="https://github.com/LogtalkDotOrg/logtalk3/tree/0107cdbe01f9718284a434a27a7a3f10d8e1634d/tools/packs/pack_protocol.lgt#L59" xlink:title="https://github.com/LogtalkDotOrg/logtalk3/tree/0107cdbe01f9718284a434a27a7a3f10d8e1634d/tools/packs/pack_protocol.lgt#L59">
<polygon fill="springgreen" stroke="black" points="194.5,-95 105.5,-95 105.5,-59 194.5,-59 194.5,-95"/>
<text text-anchor="start" x="114" y="-79.8" font-family="Monospace" font-size="9.00"> </text>
<text text-anchor="start" x="120" y="-79.2" font-family="Monospace" font-size="11.00">version/6</text>
<text text-anchor="start" x="181" y="-79.8" font-family="Monospace" font-size="9.00"> </text>
<text text-anchor="start" x="114" y="-68.8" font-family="Monospace" font-size="9.00"> </text>
<text text-anchor="start" x="136.5" y="-69.4" font-family="Monospace" font-size="7.00">public</text>
<text text-anchor="start" x="181" y="-68.8" font-family="Monospace" font-size="9.00"> </text>
</a>
</g>
</g>
<!-- note/3 -->
<g id="node6" class="node">
<title>note/3</title>
<g id="a_node6"><a xlink:href="https://github.com/LogtalkDotOrg/logtalk3/tree/0107cdbe01f9718284a434a27a7a3f10d8e1634d/tools/packs/pack_protocol.lgt#L76" xlink:title="https://github.com/LogtalkDotOrg/logtalk3/tree/0107cdbe01f9718284a434a27a7a3f10d8e1634d/tools/packs/pack_protocol.lgt#L76">
<polygon fill="springgreen" stroke="black" points="87.5,-95 18.5,-95 18.5,-59 87.5,-59 87.5,-95"/>
<text text-anchor="start" x="27" y="-79.8" font-family="Monospace" font-size="9.00"> </text>
<text text-anchor="start" x="33" y="-79.2" font-family="Monospace" font-size="11.00">note/3</text>
<text text-anchor="start" x="74" y="-79.8" font-family="Monospace" font-size="9.00"> </text>
<text text-anchor="start" x="27" y="-68.8" font-family="Monospace" font-size="9.00"> </text>
<text text-anchor="start" x="39.5" y="-69.4" font-family="Monospace" font-size="7.00">public</text>
<text text-anchor="start" x="74" y="-68.8" font-family="Monospace" font-size="9.00"> </text>
</a>
</g>
</g>
</g>
</svg>
