<?xml version="1.0" encoding="UTF-8" standalone="no"?>
<?xml-stylesheet href="diagrams.css" type="text/css"?>
<!DOCTYPE svg PUBLIC "-//W3C//DTD SVG 1.1//EN"
 "http://www.w3.org/Graphics/SVG/1.1/DTD/svg11.dtd">
<!-- Generated by graphviz version 2.49.3 (20211023.0002)
 -->
<!-- Title: pack_protocol_protocol Pages: 1 -->
<svg width="686pt" height="292pt"
 viewBox="72.00 72.00 614.00 220.00" xmlns="http://www.w3.org/2000/svg" xmlns:xlink="http://www.w3.org/1999/xlink">
<g id="graph0" class="graph" transform="scale(1 1) rotate(0) translate(76 216)">
<title>pack_protocol_protocol</title>
<polygon fill="white" stroke="transparent" points="-4,4 -4,-144 538,-144 538,4 -4,4"/>
<text text-anchor="start" x="8" y="-29" font-family="Monospace" font-size="10.00" fill="dimgray">Logtalk development tools</text>
<text text-anchor="start" x="8" y="-18" font-family="Monospace" font-size="10.00" fill="dimgray">Cross&#45;referencing diagram for protocol pack_protocol</text>
<text text-anchor="start" x="8" y="-7" font-family="Monospace" font-size="10.00" fill="dimgray">Generated on 2021&#45;11&#45;30, 21:59</text>
<g id="clust1" class="cluster">
<title>cluster_pack_protocol_protocol</title>
<g id="a_clust1"><a xlink:title="pack_protocol">
<path fill="snow" stroke="dimgray" d="M20,-49C20,-49 514,-49 514,-49 520,-49 526,-55 526,-61 526,-61 526,-120 526,-120 526,-126 520,-132 514,-132 514,-132 20,-132 20,-132 14,-132 8,-126 8,-120 8,-120 8,-61 8,-61 8,-55 14,-49 20,-49"/>
<g id="a_clust1_0"><a xlink:href="https://github.com/LogtalkDotOrg/logtalk3/tree/a2a673704b28e30d214fc7926248b6475429ea50/tools/packs/pack_protocol.lgt" xlink:title="https://github.com/LogtalkDotOrg/logtalk3/tree/a2a673704b28e30d214fc7926248b6475429ea50/tools/packs/pack_protocol.lgt">
<text text-anchor="start" x="20.5" y="-115.5" font-family="Monospace" font-size="10.00" fill="dimgray">pack_protocol</text>
</a>
</g>
</a>
</g>
</g>
<!-- name/1 -->
<g id="node1" class="node">
<title>name/1</title>
<g id="a_node1"><a xlink:href="https://github.com/LogtalkDotOrg/logtalk3/tree/a2a673704b28e30d214fc7926248b6475429ea50/tools/packs/pack_protocol.lgt#L31" xlink:title="https://github.com/LogtalkDotOrg/logtalk3/tree/a2a673704b28e30d214fc7926248b6475429ea50/tools/packs/pack_protocol.lgt#L31">
<polygon fill="springgreen" stroke="black" points="516,-95 448,-95 448,-59 516,-59 516,-95"/>
<text text-anchor="start" x="456" y="-79.8" font-family="Monospace" font-size="9.00"> </text>
<text text-anchor="start" x="462" y="-79.2" font-family="Monospace" font-size="11.00">name/1</text>
<text text-anchor="start" x="502" y="-79.8" font-family="Monospace" font-size="9.00"> </text>
<text text-anchor="start" x="456" y="-68.8" font-family="Monospace" font-size="9.00"> </text>
<text text-anchor="start" x="469" y="-69.4" font-family="Monospace" font-size="7.00">public</text>
<text text-anchor="start" x="502" y="-68.8" font-family="Monospace" font-size="9.00"> </text>
</a>
</g>
</g>
<!-- description/1 -->
<g id="node2" class="node">
<title>description/1</title>
<g id="a_node2"><a xlink:href="https://github.com/LogtalkDotOrg/logtalk3/tree/a2a673704b28e30d214fc7926248b6475429ea50/tools/packs/pack_protocol.lgt#L38" xlink:title="https://github.com/LogtalkDotOrg/logtalk3/tree/a2a673704b28e30d214fc7926248b6475429ea50/tools/packs/pack_protocol.lgt#L38">
<polygon fill="springgreen" stroke="black" points="430,-95 316,-95 316,-59 430,-59 430,-95"/>
<text text-anchor="start" x="324" y="-79.8" font-family="Monospace" font-size="9.00"> </text>
<text text-anchor="start" x="330" y="-79.2" font-family="Monospace" font-size="11.00">description/1</text>
<text text-anchor="start" x="416" y="-79.8" font-family="Monospace" font-size="9.00"> </text>
<text text-anchor="start" x="324" y="-68.8" font-family="Monospace" font-size="9.00"> </text>
<text text-anchor="start" x="360" y="-69.4" font-family="Monospace" font-size="7.00">public</text>
<text text-anchor="start" x="416" y="-68.8" font-family="Monospace" font-size="9.00"> </text>
</a>
</g>
</g>
<!-- license/1 -->
<g id="node3" class="node">
<title>license/1</title>
<g id="a_node3"><a xlink:href="https://github.com/LogtalkDotOrg/logtalk3/tree/a2a673704b28e30d214fc7926248b6475429ea50/tools/packs/pack_protocol.lgt#L45" xlink:title="https://github.com/LogtalkDotOrg/logtalk3/tree/a2a673704b28e30d214fc7926248b6475429ea50/tools/packs/pack_protocol.lgt#L45">
<polygon fill="springgreen" stroke="black" points="298,-95 210,-95 210,-59 298,-59 298,-95"/>
<text text-anchor="start" x="218" y="-79.8" font-family="Monospace" font-size="9.00"> </text>
<text text-anchor="start" x="224" y="-79.2" font-family="Monospace" font-size="11.00">license/1</text>
<text text-anchor="start" x="284" y="-79.8" font-family="Monospace" font-size="9.00"> </text>
<text text-anchor="start" x="218" y="-68.8" font-family="Monospace" font-size="9.00"> </text>
<text text-anchor="start" x="241" y="-69.4" font-family="Monospace" font-size="7.00">public</text>
<text text-anchor="start" x="284" y="-68.8" font-family="Monospace" font-size="9.00"> </text>
</a>
</g>
</g>
<!-- home/1 -->
<g id="node4" class="node">
<title>home/1</title>
<g id="a_node4"><a xlink:href="https://github.com/LogtalkDotOrg/logtalk3/tree/a2a673704b28e30d214fc7926248b6475429ea50/tools/packs/pack_protocol.lgt#L52" xlink:title="https://github.com/LogtalkDotOrg/logtalk3/tree/a2a673704b28e30d214fc7926248b6475429ea50/tools/packs/pack_protocol.lgt#L52">
<polygon fill="springgreen" stroke="black" points="192,-95 124,-95 124,-59 192,-59 192,-95"/>
<text text-anchor="start" x="132" y="-79.8" font-family="Monospace" font-size="9.00"> </text>
<text text-anchor="start" x="138" y="-79.2" font-family="Monospace" font-size="11.00">home/1</text>
<text text-anchor="start" x="178" y="-79.8" font-family="Monospace" font-size="9.00"> </text>
<text text-anchor="start" x="132" y="-68.8" font-family="Monospace" font-size="9.00"> </text>
<text text-anchor="start" x="145" y="-69.4" font-family="Monospace" font-size="7.00">public</text>
<text text-anchor="start" x="178" y="-68.8" font-family="Monospace" font-size="9.00"> </text>
</a>
</g>
</g>
<!-- version/6 -->
<g id="node5" class="node">
<title>version/6</title>
<g id="a_node5"><a xlink:href="https://github.com/LogtalkDotOrg/logtalk3/tree/a2a673704b28e30d214fc7926248b6475429ea50/tools/packs/pack_protocol.lgt#L59" xlink:title="https://github.com/LogtalkDotOrg/logtalk3/tree/a2a673704b28e30d214fc7926248b6475429ea50/tools/packs/pack_protocol.lgt#L59">
<polygon fill="springgreen" stroke="black" points="106,-95 18,-95 18,-59 106,-59 106,-95"/>
<text text-anchor="start" x="26" y="-79.8" font-family="Monospace" font-size="9.00"> </text>
<text text-anchor="start" x="32" y="-79.2" font-family="Monospace" font-size="11.00">version/6</text>
<text text-anchor="start" x="92" y="-79.8" font-family="Monospace" font-size="9.00"> </text>
<text text-anchor="start" x="26" y="-68.8" font-family="Monospace" font-size="9.00"> </text>
<text text-anchor="start" x="49" y="-69.4" font-family="Monospace" font-size="7.00">public</text>
<text text-anchor="start" x="92" y="-68.8" font-family="Monospace" font-size="9.00"> </text>
</a>
</g>
</g>
</g>
</svg>
