<?xml version="1.0" encoding="UTF-8" standalone="no"?>
<?xml-stylesheet href="diagrams.css" type="text/css"?>
<!DOCTYPE svg PUBLIC "-//W3C//DTD SVG 1.1//EN"
 "http://www.w3.org/Graphics/SVG/1.1/DTD/svg11.dtd">
<!-- Generated by graphviz version 2.50.0 (20211204.2007)
 -->
<!-- Title: pack_protocol_protocol Pages: 1 -->
<svg width="694pt" height="292pt"
 viewBox="72.00 72.00 622.00 220.00" xmlns="http://www.w3.org/2000/svg" xmlns:xlink="http://www.w3.org/1999/xlink">
<g id="graph0" class="graph" transform="scale(1 1) rotate(0) translate(76 216)">
<title>pack_protocol_protocol</title>
<polygon fill="white" stroke="transparent" points="-4,4 -4,-144 546,-144 546,4 -4,4"/>
<text text-anchor="start" x="8" y="-29" font-family="Monospace" font-size="10.00" fill="dimgray">Logtalk development tools</text>
<text text-anchor="start" x="8" y="-18" font-family="Monospace" font-size="10.00" fill="dimgray">Cross&#45;referencing diagram for protocol pack_protocol</text>
<text text-anchor="start" x="8" y="-7" font-family="Monospace" font-size="10.00" fill="dimgray">Generated on 2022&#45;06&#45;26, 18:09</text>
<g id="clust1" class="cluster">
<title>cluster_pack_protocol_protocol</title>
<g id="a_clust1"><a xlink:title="pack_protocol">
<path fill="snow" stroke="dimgray" d="M20,-49C20,-49 522,-49 522,-49 528,-49 534,-55 534,-61 534,-61 534,-120 534,-120 534,-126 528,-132 522,-132 522,-132 20,-132 20,-132 14,-132 8,-126 8,-120 8,-120 8,-61 8,-61 8,-55 14,-49 20,-49"/>
<g id="a_clust1_0"><a xlink:href="https://github.com/LogtalkDotOrg/logtalk3/tree/8db99c6d940b7b4f255c5f03ee4e2278d131c2fd/tools/packs/pack_protocol.lgt" xlink:title="https://github.com/LogtalkDotOrg/logtalk3/tree/8db99c6d940b7b4f255c5f03ee4e2278d131c2fd/tools/packs/pack_protocol.lgt">
<text text-anchor="start" x="20.5" y="-115.5" font-family="Monospace" font-size="10.00" fill="dimgray">pack_protocol</text>
</a>
</g>
</a>
</g>
</g>
<!-- name/1 -->
<g id="node1" class="node">
<title>name/1</title>
<g id="a_node1"><a xlink:href="https://github.com/LogtalkDotOrg/logtalk3/tree/8db99c6d940b7b4f255c5f03ee4e2278d131c2fd/tools/packs/pack_protocol.lgt#L31" xlink:title="https://github.com/LogtalkDotOrg/logtalk3/tree/8db99c6d940b7b4f255c5f03ee4e2278d131c2fd/tools/packs/pack_protocol.lgt#L31">
<polygon fill="springgreen" stroke="black" points="523.5,-95 454.5,-95 454.5,-59 523.5,-59 523.5,-95"/>
<text text-anchor="start" x="463" y="-79.8" font-family="Monospace" font-size="9.00"> </text>
<text text-anchor="start" x="469" y="-79.2" font-family="Monospace" font-size="11.00">name/1</text>
<text text-anchor="start" x="510" y="-79.8" font-family="Monospace" font-size="9.00"> </text>
<text text-anchor="start" x="463" y="-68.8" font-family="Monospace" font-size="9.00"> </text>
<text text-anchor="start" x="475.5" y="-69.4" font-family="Monospace" font-size="7.00">public</text>
<text text-anchor="start" x="510" y="-68.8" font-family="Monospace" font-size="9.00"> </text>
</a>
</g>
</g>
<!-- description/1 -->
<g id="node2" class="node">
<title>description/1</title>
<g id="a_node2"><a xlink:href="https://github.com/LogtalkDotOrg/logtalk3/tree/8db99c6d940b7b4f255c5f03ee4e2278d131c2fd/tools/packs/pack_protocol.lgt#L38" xlink:title="https://github.com/LogtalkDotOrg/logtalk3/tree/8db99c6d940b7b4f255c5f03ee4e2278d131c2fd/tools/packs/pack_protocol.lgt#L38">
<polygon fill="springgreen" stroke="black" points="436,-95 320,-95 320,-59 436,-59 436,-95"/>
<text text-anchor="start" x="328" y="-79.8" font-family="Monospace" font-size="9.00"> </text>
<text text-anchor="start" x="334" y="-79.2" font-family="Monospace" font-size="11.00">description/1</text>
<text text-anchor="start" x="422" y="-79.8" font-family="Monospace" font-size="9.00"> </text>
<text text-anchor="start" x="328" y="-68.8" font-family="Monospace" font-size="9.00"> </text>
<text text-anchor="start" x="364" y="-69.4" font-family="Monospace" font-size="7.00">public</text>
<text text-anchor="start" x="422" y="-68.8" font-family="Monospace" font-size="9.00"> </text>
</a>
</g>
</g>
<!-- license/1 -->
<g id="node3" class="node">
<title>license/1</title>
<g id="a_node3"><a xlink:href="https://github.com/LogtalkDotOrg/logtalk3/tree/8db99c6d940b7b4f255c5f03ee4e2278d131c2fd/tools/packs/pack_protocol.lgt#L45" xlink:title="https://github.com/LogtalkDotOrg/logtalk3/tree/8db99c6d940b7b4f255c5f03ee4e2278d131c2fd/tools/packs/pack_protocol.lgt#L45">
<polygon fill="springgreen" stroke="black" points="301.5,-95 212.5,-95 212.5,-59 301.5,-59 301.5,-95"/>
<text text-anchor="start" x="221" y="-79.8" font-family="Monospace" font-size="9.00"> </text>
<text text-anchor="start" x="227" y="-79.2" font-family="Monospace" font-size="11.00">license/1</text>
<text text-anchor="start" x="288" y="-79.8" font-family="Monospace" font-size="9.00"> </text>
<text text-anchor="start" x="221" y="-68.8" font-family="Monospace" font-size="9.00"> </text>
<text text-anchor="start" x="243.5" y="-69.4" font-family="Monospace" font-size="7.00">public</text>
<text text-anchor="start" x="288" y="-68.8" font-family="Monospace" font-size="9.00"> </text>
</a>
</g>
</g>
<!-- home/1 -->
<g id="node4" class="node">
<title>home/1</title>
<g id="a_node4"><a xlink:href="https://github.com/LogtalkDotOrg/logtalk3/tree/8db99c6d940b7b4f255c5f03ee4e2278d131c2fd/tools/packs/pack_protocol.lgt#L52" xlink:title="https://github.com/LogtalkDotOrg/logtalk3/tree/8db99c6d940b7b4f255c5f03ee4e2278d131c2fd/tools/packs/pack_protocol.lgt#L52">
<polygon fill="springgreen" stroke="black" points="194.5,-95 125.5,-95 125.5,-59 194.5,-59 194.5,-95"/>
<text text-anchor="start" x="134" y="-79.8" font-family="Monospace" font-size="9.00"> </text>
<text text-anchor="start" x="140" y="-79.2" font-family="Monospace" font-size="11.00">home/1</text>
<text text-anchor="start" x="181" y="-79.8" font-family="Monospace" font-size="9.00"> </text>
<text text-anchor="start" x="134" y="-68.8" font-family="Monospace" font-size="9.00"> </text>
<text text-anchor="start" x="146.5" y="-69.4" font-family="Monospace" font-size="7.00">public</text>
<text text-anchor="start" x="181" y="-68.8" font-family="Monospace" font-size="9.00"> </text>
</a>
</g>
</g>
<!-- version/6 -->
<g id="node5" class="node">
<title>version/6</title>
<g id="a_node5"><a xlink:href="https://github.com/LogtalkDotOrg/logtalk3/tree/8db99c6d940b7b4f255c5f03ee4e2278d131c2fd/tools/packs/pack_protocol.lgt#L59" xlink:title="https://github.com/LogtalkDotOrg/logtalk3/tree/8db99c6d940b7b4f255c5f03ee4e2278d131c2fd/tools/packs/pack_protocol.lgt#L59">
<polygon fill="springgreen" stroke="black" points="107.5,-95 18.5,-95 18.5,-59 107.5,-59 107.5,-95"/>
<text text-anchor="start" x="27" y="-79.8" font-family="Monospace" font-size="9.00"> </text>
<text text-anchor="start" x="33" y="-79.2" font-family="Monospace" font-size="11.00">version/6</text>
<text text-anchor="start" x="94" y="-79.8" font-family="Monospace" font-size="9.00"> </text>
<text text-anchor="start" x="27" y="-68.8" font-family="Monospace" font-size="9.00"> </text>
<text text-anchor="start" x="49.5" y="-69.4" font-family="Monospace" font-size="7.00">public</text>
<text text-anchor="start" x="94" y="-68.8" font-family="Monospace" font-size="9.00"> </text>
</a>
</g>
</g>
</g>
</svg>
