<?xml version="1.0" encoding="UTF-8" standalone="no"?>
<?xml-stylesheet href="diagrams.css" type="text/css"?>
<!DOCTYPE svg PUBLIC "-//W3C//DTD SVG 1.1//EN"
 "http://www.w3.org/Graphics/SVG/1.1/DTD/svg11.dtd">
<!-- Generated by graphviz version 2.40.1 (20161225.0304)
 -->
<!-- Title: ports Pages: 1 -->
<svg width="976pt" height="763pt"
 viewBox="72.00 72.00 904.00 691.00" xmlns="http://www.w3.org/2000/svg" xmlns:xlink="http://www.w3.org/1999/xlink">
<g id="graph0" class="graph" transform="scale(1 1) rotate(0) translate(76 687)">
<title>ports</title>
<polygon fill="#ffffff" stroke="transparent" points="-4,4 -4,-615 828,-615 828,4 -4,4"/>
<text text-anchor="start" x="8" y="-29" font-family="Monospace" font-size="10.00" fill="#696969">Logtalk ports of third&#45;party software</text>
<text text-anchor="start" x="8" y="-18" font-family="Monospace" font-size="10.00" fill="#696969">Inheritance diagram for library ports</text>
<text text-anchor="start" x="8" y="-7" font-family="Monospace" font-size="10.00" fill="#696969">Generated on 2023&#45;01&#45;01, 23:40</text>
<g id="clust1" class="cluster">
<title>cluster_rlibrary_ports</title>
<g id="a_clust1"><a xlink:title="ports/">
<path fill="#d3d3d3" stroke="#696969" d="M20,-49C20,-49 804,-49 804,-49 810,-49 816,-55 816,-61 816,-61 816,-591 816,-591 816,-597 810,-603 804,-603 804,-603 20,-603 20,-603 14,-603 8,-597 8,-591 8,-591 8,-61 8,-61 8,-55 14,-49 20,-49"/>
<g id="a_clust1_0"><a xlink:href="https://github.com/LogtalkDotOrg/logtalk3/tree/934aee98ed3bc6654f203177f74af1b33a85d94c/ports/" xlink:title="https://github.com/LogtalkDotOrg/logtalk3/tree/934aee98ed3bc6654f203177f74af1b33a85d94c/ports/">
<text text-anchor="start" x="20.5" y="-59.5" font-family="Monospace" font-size="10.00" fill="#696969">ports/</text>
</a>
</g>
</a>
</g>
</g>
<g id="clust4" class="cluster">
<title>cluster_library_fcube</title>
<g id="a_clust4"><a xlink:title="fcube/">
<path fill="#f5f5f5" stroke="#696969" d="M660,-146C660,-146 794,-146 794,-146 800,-146 806,-152 806,-158 806,-158 806,-349 806,-349 806,-355 800,-361 794,-361 794,-361 660,-361 660,-361 654,-361 648,-355 648,-349 648,-349 648,-158 648,-158 648,-152 654,-146 660,-146"/>
<g id="a_clust4_1"><a xlink:href="https://github.com/LogtalkDotOrg/logtalk3/tree/934aee98ed3bc6654f203177f74af1b33a85d94c/ports/fcube/" xlink:title="https://github.com/LogtalkDotOrg/logtalk3/tree/934aee98ed3bc6654f203177f74af1b33a85d94c/ports/fcube/">
<text text-anchor="start" x="660.5" y="-156.5" font-family="Monospace" font-size="10.00" fill="#696969">fcube/</text>
</a>
</g>
</a>
</g>
</g>
<g id="clust6" class="cluster">
<title>cluster_file_/Users/pmoura/logtalk/ports/fcube/fcube.lgt</title>
<g id="a_clust6"><a xlink:title="fcube.lgt">
<path fill="#fffafa" stroke="#696969" d="M670,-183C670,-183 784,-183 784,-183 790,-183 796,-189 796,-195 796,-195 796,-339 796,-339 796,-345 790,-351 784,-351 784,-351 670,-351 670,-351 664,-351 658,-345 658,-339 658,-339 658,-195 658,-195 658,-189 664,-183 670,-183"/>
<g id="a_clust6_2"><a xlink:href="https://github.com/LogtalkDotOrg/logtalk3/tree/934aee98ed3bc6654f203177f74af1b33a85d94c/ports/fcube/fcube.lgt" xlink:title="https://github.com/LogtalkDotOrg/logtalk3/tree/934aee98ed3bc6654f203177f74af1b33a85d94c/ports/fcube/fcube.lgt">
<text text-anchor="start" x="670.5" y="-193.5" font-family="Monospace" font-size="10.00" fill="#696969">fcube.lgt</text>
</a>
</g>
</a>
</g>
</g>
<g id="clust7" class="cluster">
<title>cluster_library_metagol</title>
<g id="a_clust7"><a xlink:title="metagol/">
<path fill="#f5f5f5" stroke="#696969" d="M182,-86C182,-86 626,-86 626,-86 632,-86 638,-92 638,-98 638,-98 638,-409 638,-409 638,-415 632,-421 626,-421 626,-421 182,-421 182,-421 176,-421 170,-415 170,-409 170,-409 170,-98 170,-98 170,-92 176,-86 182,-86"/>
<g id="a_clust7_3"><a xlink:href="https://github.com/LogtalkDotOrg/logtalk3/tree/934aee98ed3bc6654f203177f74af1b33a85d94c/ports/metagol/" xlink:title="https://github.com/LogtalkDotOrg/logtalk3/tree/934aee98ed3bc6654f203177f74af1b33a85d94c/ports/metagol/">
<text text-anchor="start" x="182.5" y="-96.5" font-family="Monospace" font-size="10.00" fill="#696969">metagol/</text>
</a>
</g>
</a>
</g>
</g>
<g id="clust10" class="cluster">
<title>cluster_file_/Users/pmoura/logtalk/ports/metagol/metagol_example_protocol.lgt</title>
<g id="a_clust10"><a xlink:title="metagol_example_protocol.lgt">
<path fill="#fffafa" stroke="#696969" d="M424,-208C424,-208 616,-208 616,-208 622,-208 628,-214 628,-220 628,-220 628,-314 628,-314 628,-320 622,-326 616,-326 616,-326 424,-326 424,-326 418,-326 412,-320 412,-314 412,-314 412,-220 412,-220 412,-214 418,-208 424,-208"/>
<g id="a_clust10_4"><a xlink:href="https://github.com/LogtalkDotOrg/logtalk3/tree/934aee98ed3bc6654f203177f74af1b33a85d94c/ports/metagol/metagol_example_protocol.lgt" xlink:title="https://github.com/LogtalkDotOrg/logtalk3/tree/934aee98ed3bc6654f203177f74af1b33a85d94c/ports/metagol/metagol_example_protocol.lgt">
<text text-anchor="start" x="424.5" y="-218.5" font-family="Monospace" font-size="10.00" fill="#696969">metagol_example_protocol.lgt</text>
</a>
</g>
</a>
</g>
</g>
<g id="clust9" class="cluster">
<title>cluster_file_/Users/pmoura/logtalk/ports/metagol/metagol.lgt</title>
<g id="a_clust9"><a xlink:title="metagol.lgt">
<path fill="#fffafa" stroke="#696969" d="M192,-123C192,-123 390,-123 390,-123 396,-123 402,-129 402,-135 402,-135 402,-399 402,-399 402,-405 396,-411 390,-411 390,-411 192,-411 192,-411 186,-411 180,-405 180,-399 180,-399 180,-135 180,-135 180,-129 186,-123 192,-123"/>
<g id="a_clust9_5"><a xlink:href="https://github.com/LogtalkDotOrg/logtalk3/tree/934aee98ed3bc6654f203177f74af1b33a85d94c/ports/metagol/metagol.lgt" xlink:title="https://github.com/LogtalkDotOrg/logtalk3/tree/934aee98ed3bc6654f203177f74af1b33a85d94c/ports/metagol/metagol.lgt">
<text text-anchor="start" x="192.5" y="-133.5" font-family="Monospace" font-size="10.00" fill="#696969">metagol.lgt</text>
</a>
</g>
</a>
</g>
</g>
<g id="clust11" class="cluster">
<title>cluster_library_toychr</title>
<g id="a_clust11"><a xlink:title="toychr/">
<path fill="#f5f5f5" stroke="#696969" d="M30,-146C30,-146 148,-146 148,-146 154,-146 160,-152 160,-158 160,-158 160,-349 160,-349 160,-355 154,-361 148,-361 148,-361 30,-361 30,-361 24,-361 18,-355 18,-349 18,-349 18,-158 18,-158 18,-152 24,-146 30,-146"/>
<g id="a_clust11_6"><a xlink:href="https://github.com/LogtalkDotOrg/logtalk3/tree/934aee98ed3bc6654f203177f74af1b33a85d94c/ports/toychr/" xlink:title="https://github.com/LogtalkDotOrg/logtalk3/tree/934aee98ed3bc6654f203177f74af1b33a85d94c/ports/toychr/">
<text text-anchor="start" x="30.5" y="-156.5" font-family="Monospace" font-size="10.00" fill="#696969">toychr/</text>
</a>
</g>
</a>
</g>
</g>
<g id="clust13" class="cluster">
<title>cluster_file_/Users/pmoura/logtalk/ports/toychr/toychrdb.lgt</title>
<g id="a_clust13"><a xlink:title="toychrdb.lgt">
<path fill="#fffafa" stroke="#696969" d="M40,-183C40,-183 138,-183 138,-183 144,-183 150,-189 150,-195 150,-195 150,-339 150,-339 150,-345 144,-351 138,-351 138,-351 40,-351 40,-351 34,-351 28,-345 28,-339 28,-339 28,-195 28,-195 28,-189 34,-183 40,-183"/>
<g id="a_clust13_7"><a xlink:href="https://github.com/LogtalkDotOrg/logtalk3/tree/934aee98ed3bc6654f203177f74af1b33a85d94c/ports/toychr/toychrdb.lgt" xlink:title="https://github.com/LogtalkDotOrg/logtalk3/tree/934aee98ed3bc6654f203177f74af1b33a85d94c/ports/toychr/toychrdb.lgt">
<text text-anchor="start" x="40.5" y="-193.5" font-family="Monospace" font-size="10.00" fill="#696969">toychrdb.lgt</text>
</a>
</g>
</a>
</g>
</g>
<!-- fcube -->
<g id="node1" class="node">
<title>fcube</title>
<g id="a_node1"><a xlink:href="https://logtalk.org/library/fcube_0.html" xlink:title="https://logtalk.org/library/fcube_0.html">
<polygon fill="#fff8dc" stroke="#000000" points="786,-341 668,-341 668,-220 786,-220 786,-341"/>
<g id="a_node1_8"><a xlink:href="fcube_object_xref_diagram.svg" xlink:title="Zoom">
<image xlink:href="zoom.png" width="11px" height="11px" preserveAspectRatio="xMinYMin meet" x="676" y="-336.5"/>
</a>
</g>
<text text-anchor="start" x="678.5" y="-317.3" font-family="Monospace" font-size="9.00" fill="#000000"> </text>
<text text-anchor="start" x="712.5" y="-316.7" font-family="Monospace" font-size="11.00" fill="#000000">fcube</text>
<text text-anchor="start" x="772" y="-317.3" font-family="Monospace" font-size="9.00" fill="#000000"> </text>
<text text-anchor="start" x="678.5" y="-306.3" font-family="Monospace" font-size="9.00" fill="#000000"> </text>
<text text-anchor="start" x="709" y="-306.9" font-family="Monospace" font-size="7.00" fill="#000000">prototype</text>
<text text-anchor="start" x="772" y="-306.3" font-family="Monospace" font-size="9.00" fill="#000000"> </text>
<text text-anchor="start" x="678.5" y="-296.3" font-family="Monospace" font-size="9.00" fill="#000000"> </text>
<text text-anchor="start" x="678.5" y="-286.3" font-family="Monospace" font-size="9.00" fill="#000000"> </text>
<text text-anchor="start" x="711" y="-286.3" font-family="Monospace" font-size="9.00" fill="#000000">fcube/0</text>
<text text-anchor="start" x="772" y="-286.3" font-family="Monospace" font-size="9.00" fill="#000000"> </text>
<text text-anchor="start" x="678.5" y="-276.3" font-family="Monospace" font-size="9.00" fill="#000000"> </text>
<text text-anchor="start" x="708" y="-276.3" font-family="Monospace" font-size="9.00" fill="#000000">decide/1</text>
<text text-anchor="start" x="772" y="-276.3" font-family="Monospace" font-size="9.00" fill="#000000"> </text>
<text text-anchor="start" x="678.5" y="-266.3" font-family="Monospace" font-size="9.00" fill="#000000"> </text>
<text text-anchor="start" x="708" y="-266.3" font-family="Monospace" font-size="9.00" fill="#000000">decide/2</text>
<text text-anchor="start" x="772" y="-266.3" font-family="Monospace" font-size="9.00" fill="#000000"> </text>
<text text-anchor="start" x="678.5" y="-256.3" font-family="Monospace" font-size="9.00" fill="#000000"> </text>
<text text-anchor="start" x="687" y="-256.3" font-family="Monospace" font-size="9.00" fill="#000000">op(1200,xfy,&lt;=&gt;)</text>
<text text-anchor="start" x="772" y="-256.3" font-family="Monospace" font-size="9.00" fill="#000000"> </text>
<text text-anchor="start" x="678.5" y="-246.3" font-family="Monospace" font-size="9.00" fill="#000000"> </text>
<text text-anchor="start" x="690" y="-246.3" font-family="Monospace" font-size="9.00" fill="#000000">op(1110,xfy,=&gt;)</text>
<text text-anchor="start" x="772" y="-246.3" font-family="Monospace" font-size="9.00" fill="#000000"> </text>
<text text-anchor="start" x="678.5" y="-236.3" font-family="Monospace" font-size="9.00" fill="#000000"> </text>
<text text-anchor="start" x="692.5" y="-236.3" font-family="Monospace" font-size="9.00" fill="#000000">op(1000,xfy,&amp;)</text>
<text text-anchor="start" x="772" y="-236.3" font-family="Monospace" font-size="9.00" fill="#000000"> </text>
<text text-anchor="start" x="678.5" y="-226.3" font-family="Monospace" font-size="9.00" fill="#000000"> </text>
<text text-anchor="start" x="697.5" y="-226.3" font-family="Monospace" font-size="9.00" fill="#000000">op(500,fy,~)</text>
<text text-anchor="start" x="772" y="-226.3" font-family="Monospace" font-size="9.00" fill="#000000"> </text>
</a>
</g>
</g>
<!-- metagol -->
<g id="node2" class="node">
<title>metagol</title>
<g id="a_node2"><a xlink:href="https://logtalk.org/library/metagol_0.html" xlink:title="https://logtalk.org/library/metagol_0.html">
<polygon fill="#fff8dc" stroke="#000000" points="392,-401 190,-401 190,-160 392,-160 392,-401"/>
<g id="a_node2_9"><a xlink:href="metagol_object_xref_diagram.svg" xlink:title="Zoom">
<image xlink:href="zoom.png" width="11px" height="11px" preserveAspectRatio="xMinYMin meet" x="198" y="-396.5"/>
</a>
</g>
<text text-anchor="start" x="200.5" y="-377.3" font-family="Monospace" font-size="9.00" fill="#000000"> </text>
<text text-anchor="start" x="269.5" y="-376.7" font-family="Monospace" font-size="11.00" fill="#000000">metagol</text>
<text text-anchor="start" x="378" y="-377.3" font-family="Monospace" font-size="9.00" fill="#000000"> </text>
<text text-anchor="start" x="200.5" y="-366.3" font-family="Monospace" font-size="9.00" fill="#000000"> </text>
<text text-anchor="start" x="273" y="-366.9" font-family="Monospace" font-size="7.00" fill="#000000">prototype</text>
<text text-anchor="start" x="378" y="-366.3" font-family="Monospace" font-size="9.00" fill="#000000"> </text>
<text text-anchor="start" x="200.5" y="-356.3" font-family="Monospace" font-size="9.00" fill="#000000"> </text>
<text text-anchor="start" x="200.5" y="-346.3" font-family="Monospace" font-size="9.00" fill="#000000"> </text>
<text text-anchor="start" x="275" y="-346.3" font-family="Monospace" font-size="9.00" fill="#000000">learn/3</text>
<text text-anchor="start" x="378" y="-346.3" font-family="Monospace" font-size="9.00" fill="#000000"> </text>
<text text-anchor="start" x="200.5" y="-336.3" font-family="Monospace" font-size="9.00" fill="#000000"> </text>
<text text-anchor="start" x="275" y="-336.3" font-family="Monospace" font-size="9.00" fill="#000000">learn/2</text>
<text text-anchor="start" x="378" y="-336.3" font-family="Monospace" font-size="9.00" fill="#000000"> </text>
<text text-anchor="start" x="200.5" y="-326.3" font-family="Monospace" font-size="9.00" fill="#000000"> </text>
<text text-anchor="start" x="264.5" y="-326.3" font-family="Monospace" font-size="9.00" fill="#000000">learn_seq/2</text>
<text text-anchor="start" x="378" y="-326.3" font-family="Monospace" font-size="9.00" fill="#000000"> </text>
<text text-anchor="start" x="200.5" y="-316.3" font-family="Monospace" font-size="9.00" fill="#000000"> </text>
<text text-anchor="start" x="240.5" y="-316.3" font-family="Monospace" font-size="9.00" fill="#000000">learn_with_timeout/4</text>
<text text-anchor="start" x="378" y="-316.3" font-family="Monospace" font-size="9.00" fill="#000000"> </text>
<text text-anchor="start" x="200.5" y="-306.3" font-family="Monospace" font-size="9.00" fill="#000000"> </text>
<text text-anchor="start" x="240.5" y="-306.3" font-family="Monospace" font-size="9.00" fill="#000000">program_to_clauses/2</text>
<text text-anchor="start" x="378" y="-306.3" font-family="Monospace" font-size="9.00" fill="#000000"> </text>
<text text-anchor="start" x="200.5" y="-296.3" font-family="Monospace" font-size="9.00" fill="#000000"> </text>
<text text-anchor="start" x="272" y="-296.3" font-family="Monospace" font-size="9.00" fill="#000000">pprint/1</text>
<text text-anchor="start" x="378" y="-296.3" font-family="Monospace" font-size="9.00" fill="#000000"> </text>
<text text-anchor="start" x="200.5" y="-286.3" font-family="Monospace" font-size="9.00" fill="#000000"> </text>
<text text-anchor="start" x="267" y="-286.3" font-family="Monospace" font-size="9.00" fill="#000000">metarule/6</text>
<text text-anchor="start" x="378" y="-286.3" font-family="Monospace" font-size="9.00" fill="#000000"> </text>
<text text-anchor="start" x="200.5" y="-276.3" font-family="Monospace" font-size="9.00" fill="#000000"> </text>
<text text-anchor="start" x="264.5" y="-276.3" font-family="Monospace" font-size="9.00" fill="#000000">head_pred/1</text>
<text text-anchor="start" x="378" y="-276.3" font-family="Monospace" font-size="9.00" fill="#000000"> </text>
<text text-anchor="start" x="200.5" y="-266.3" font-family="Monospace" font-size="9.00" fill="#000000"> </text>
<text text-anchor="start" x="264.5" y="-266.3" font-family="Monospace" font-size="9.00" fill="#000000">body_pred/1</text>
<text text-anchor="start" x="378" y="-266.3" font-family="Monospace" font-size="9.00" fill="#000000"> </text>
<text text-anchor="start" x="200.5" y="-256.3" font-family="Monospace" font-size="9.00" fill="#000000"> </text>
<text text-anchor="start" x="280" y="-256.3" font-family="Monospace" font-size="9.00" fill="#000000">ibk/3</text>
<text text-anchor="start" x="378" y="-256.3" font-family="Monospace" font-size="9.00" fill="#000000"> </text>
<text text-anchor="start" x="200.5" y="-246.3" font-family="Monospace" font-size="9.00" fill="#000000"> </text>
<text text-anchor="start" x="264.5" y="-246.3" font-family="Monospace" font-size="9.00" fill="#000000">func_test/3</text>
<text text-anchor="start" x="378" y="-246.3" font-family="Monospace" font-size="9.00" fill="#000000"> </text>
<text text-anchor="start" x="200.5" y="-236.3" font-family="Monospace" font-size="9.00" fill="#000000"> </text>
<text text-anchor="start" x="261.5" y="-236.3" font-family="Monospace" font-size="9.00" fill="#000000">functional/0</text>
<text text-anchor="start" x="378" y="-236.3" font-family="Monospace" font-size="9.00" fill="#000000"> </text>
<text text-anchor="start" x="200.5" y="-226.3" font-family="Monospace" font-size="9.00" fill="#000000"> </text>
<text text-anchor="start" x="259" y="-226.3" font-family="Monospace" font-size="9.00" fill="#000000">min_clauses/1</text>
<text text-anchor="start" x="378" y="-226.3" font-family="Monospace" font-size="9.00" fill="#000000"> </text>
<text text-anchor="start" x="200.5" y="-216.3" font-family="Monospace" font-size="9.00" fill="#000000"> </text>
<text text-anchor="start" x="259" y="-216.3" font-family="Monospace" font-size="9.00" fill="#000000">max_clauses/1</text>
<text text-anchor="start" x="378" y="-216.3" font-family="Monospace" font-size="9.00" fill="#000000"> </text>
<text text-anchor="start" x="200.5" y="-206.3" font-family="Monospace" font-size="9.00" fill="#000000"> </text>
<text text-anchor="start" x="254" y="-206.3" font-family="Monospace" font-size="9.00" fill="#000000">max_inv_preds/1</text>
<text text-anchor="start" x="378" y="-206.3" font-family="Monospace" font-size="9.00" fill="#000000"> </text>
<text text-anchor="start" x="200.5" y="-196.3" font-family="Monospace" font-size="9.00" fill="#000000"> </text>
<text text-anchor="start" x="246" y="-196.3" font-family="Monospace" font-size="9.00" fill="#000000">metarule_next_id/1</text>
<text text-anchor="start" x="378" y="-196.3" font-family="Monospace" font-size="9.00" fill="#000000"> </text>
<text text-anchor="start" x="200.5" y="-186.3" font-family="Monospace" font-size="9.00" fill="#000000"> </text>
<text text-anchor="start" x="269.5" y="-186.3" font-family="Monospace" font-size="9.00" fill="#000000">timeout/1</text>
<text text-anchor="start" x="378" y="-186.3" font-family="Monospace" font-size="9.00" fill="#000000"> </text>
<text text-anchor="start" x="200.5" y="-176.3" font-family="Monospace" font-size="9.00" fill="#000000"> </text>
<text text-anchor="start" x="225" y="-176.3" font-family="Monospace" font-size="9.00" fill="#000000">logtalk::message_tokens//2</text>
<text text-anchor="start" x="378" y="-176.3" font-family="Monospace" font-size="9.00" fill="#000000"> </text>
<text text-anchor="start" x="200.5" y="-166.3" font-family="Monospace" font-size="9.00" fill="#000000"> </text>
<text text-anchor="start" x="209" y="-166.3" font-family="Monospace" font-size="9.00" fill="#000000">logtalk::message_prefix_stream/4</text>
<text text-anchor="start" x="378" y="-166.3" font-family="Monospace" font-size="9.00" fill="#000000"> </text>
</a>
</g>
</g>
<!-- expanding -->
<g id="node5" class="node">
<title>expanding</title>
<g id="a_node5"><a xlink:href="https://logtalk.org/library/expanding_0.html" xlink:title="https://logtalk.org/library/expanding_0.html">
<polygon fill="#66cdaa" stroke="#000000" stroke-dasharray="5,2" points="236.5,-593 137.5,-593 137.5,-557 242.5,-557 242.5,-587 236.5,-593"/>
<polyline fill="none" stroke="#000000" stroke-dasharray="5,2" points="236.5,-593 236.5,-587 "/>
<polyline fill="none" stroke="#000000" stroke-dasharray="5,2" points="242.5,-587 236.5,-587 "/>
<text text-anchor="start" x="146" y="-577.8" font-family="Monospace" font-size="9.00" fill="#000000"> </text>
<text text-anchor="start" x="160" y="-577.2" font-family="Monospace" font-size="11.00" fill="#000000">expanding</text>
<text text-anchor="start" x="229" y="-577.8" font-family="Monospace" font-size="9.00" fill="#000000"> </text>
<text text-anchor="start" x="146" y="-566.8" font-family="Monospace" font-size="9.00" fill="#000000"> </text>
<text text-anchor="start" x="152" y="-567.4" font-family="Monospace" font-size="7.00" fill="#000000">built&#45;in protocol</text>
<text text-anchor="start" x="229" y="-566.8" font-family="Monospace" font-size="9.00" fill="#000000"> </text>
</a>
</g>
</g>
<!-- metagol&#45;&gt;expanding -->
<g id="edge1" class="edge">
<title>metagol&#45;&gt;expanding</title>
<g id="a_edge1"><a xlink:href="https://logtalk.org/library/metagol_0.html" xlink:title="implements">
<path fill="none" stroke="#000000" d="M249.628,-401.1342C230.8452,-455.902 210.3197,-515.7511 198.9159,-549.0026"/>
<ellipse fill="#000000" stroke="#000000" cx="197.5175" cy="-553.0803" rx="4" ry="4"/>
</a>
</g>
<g id="a_edge1&#45;label"><a xlink:href="https://logtalk.org/library/metagol_0.html" xlink:title="https://logtalk.org/library/metagol_0.html">
<text text-anchor="start" x="224" y="-476.8" font-family="Monospace" font-size="9.00" fill="#000000">implements</text>
</a>
</g>
</g>
<!-- metagol_example_protocol -->
<g id="node3" class="node">
<title>metagol_example_protocol</title>
<g id="a_node3"><a xlink:href="https://logtalk.org/library/metagol_example_protocol_0.html" xlink:title="https://logtalk.org/library/metagol_example_protocol_0.html">
<polygon fill="#7fffd4" stroke="#000000" points="612,-316 422,-316 422,-245 618,-245 618,-310 612,-316"/>
<polyline fill="none" stroke="#000000" points="612,-316 612,-310 "/>
<polyline fill="none" stroke="#000000" points="618,-310 612,-310 "/>
<g id="a_node3_10"><a xlink:href="metagol_example_protocol_protocol_xref_diagram.svg" xlink:title="Zoom">
<image xlink:href="zoom.png" width="11px" height="11px" preserveAspectRatio="xMinYMin meet" x="430" y="-311.5"/>
</a>
</g>
<text text-anchor="start" x="432.5" y="-292.3" font-family="Monospace" font-size="9.00" fill="#000000"> </text>
<text text-anchor="start" x="441" y="-291.7" font-family="Monospace" font-size="11.00" fill="#000000">metagol_example_protocol</text>
<text text-anchor="start" x="604" y="-292.3" font-family="Monospace" font-size="9.00" fill="#000000"> </text>
<text text-anchor="start" x="432.5" y="-281.3" font-family="Monospace" font-size="9.00" fill="#000000"> </text>
<text text-anchor="start" x="504" y="-281.9" font-family="Monospace" font-size="7.00" fill="#000000">protocol</text>
<text text-anchor="start" x="604" y="-281.3" font-family="Monospace" font-size="9.00" fill="#000000"> </text>
<text text-anchor="start" x="432.5" y="-271.3" font-family="Monospace" font-size="9.00" fill="#000000"> </text>
<text text-anchor="start" x="432.5" y="-261.3" font-family="Monospace" font-size="9.00" fill="#000000"> </text>
<text text-anchor="start" x="504" y="-261.3" font-family="Monospace" font-size="9.00" fill="#000000">learn/1</text>
<text text-anchor="start" x="604" y="-261.3" font-family="Monospace" font-size="9.00" fill="#000000"> </text>
<text text-anchor="start" x="432.5" y="-251.3" font-family="Monospace" font-size="9.00" fill="#000000"> </text>
<text text-anchor="start" x="504" y="-251.3" font-family="Monospace" font-size="9.00" fill="#000000">learn/0</text>
<text text-anchor="start" x="604" y="-251.3" font-family="Monospace" font-size="9.00" fill="#000000"> </text>
</a>
</g>
</g>
<!-- toychrdb -->
<g id="node4" class="node">
<title>toychrdb</title>
<g id="a_node4"><a xlink:href="https://logtalk.org/library/toychrdb_0.html" xlink:title="https://logtalk.org/library/toychrdb_0.html">
<polygon fill="#fff8dc" stroke="#000000" points="140,-341 38,-341 38,-220 140,-220 140,-341"/>
<g id="a_node4_11"><a xlink:href="toychrdb_object_xref_diagram.svg" xlink:title="Zoom">
<image xlink:href="zoom.png" width="11px" height="11px" preserveAspectRatio="xMinYMin meet" x="46" y="-336.5"/>
</a>
</g>
<text text-anchor="start" x="48.5" y="-317.3" font-family="Monospace" font-size="9.00" fill="#000000"> </text>
<text text-anchor="start" x="64" y="-316.7" font-family="Monospace" font-size="11.00" fill="#000000">toychrdb</text>
<text text-anchor="start" x="126" y="-317.3" font-family="Monospace" font-size="9.00" fill="#000000"> </text>
<text text-anchor="start" x="48.5" y="-306.3" font-family="Monospace" font-size="9.00" fill="#000000"> </text>
<text text-anchor="start" x="71" y="-306.9" font-family="Monospace" font-size="7.00" fill="#000000">prototype</text>
<text text-anchor="start" x="126" y="-306.3" font-family="Monospace" font-size="9.00" fill="#000000"> </text>
<text text-anchor="start" x="48.5" y="-296.3" font-family="Monospace" font-size="9.00" fill="#000000"> </text>
<text text-anchor="start" x="48.5" y="-286.3" font-family="Monospace" font-size="9.00" fill="#000000"> </text>
<text text-anchor="start" x="70" y="-286.3" font-family="Monospace" font-size="9.00" fill="#000000">chr_is/2</text>
<text text-anchor="start" x="126" y="-286.3" font-family="Monospace" font-size="9.00" fill="#000000"> </text>
<text text-anchor="start" x="48.5" y="-276.3" font-family="Monospace" font-size="9.00" fill="#000000"> </text>
<text text-anchor="start" x="62.5" y="-276.3" font-family="Monospace" font-size="9.00" fill="#000000">chr_trace/0</text>
<text text-anchor="start" x="126" y="-276.3" font-family="Monospace" font-size="9.00" fill="#000000"> </text>
<text text-anchor="start" x="48.5" y="-266.3" font-family="Monospace" font-size="9.00" fill="#000000"> </text>
<text text-anchor="start" x="57" y="-266.3" font-family="Monospace" font-size="9.00" fill="#000000">chr_notrace/0</text>
<text text-anchor="start" x="126" y="-266.3" font-family="Monospace" font-size="9.00" fill="#000000"> </text>
<text text-anchor="start" x="48.5" y="-256.3" font-family="Monospace" font-size="9.00" fill="#000000"> </text>
<text text-anchor="start" x="67.5" y="-256.3" font-family="Monospace" font-size="9.00" fill="#000000">chr_spy/1</text>
<text text-anchor="start" x="126" y="-256.3" font-family="Monospace" font-size="9.00" fill="#000000"> </text>
<text text-anchor="start" x="48.5" y="-246.3" font-family="Monospace" font-size="9.00" fill="#000000"> </text>
<text text-anchor="start" x="62.5" y="-246.3" font-family="Monospace" font-size="9.00" fill="#000000">chr_nospy/0</text>
<text text-anchor="start" x="126" y="-246.3" font-family="Monospace" font-size="9.00" fill="#000000"> </text>
<text text-anchor="start" x="48.5" y="-236.3" font-family="Monospace" font-size="9.00" fill="#000000"> </text>
<text text-anchor="start" x="59.5" y="-236.3" font-family="Monospace" font-size="9.00" fill="#000000">chr_no_spy/1</text>
<text text-anchor="start" x="126" y="-236.3" font-family="Monospace" font-size="9.00" fill="#000000"> </text>
<text text-anchor="start" x="48.5" y="-226.3" font-family="Monospace" font-size="9.00" fill="#000000"> </text>
<text text-anchor="start" x="59.5" y="-226.3" font-family="Monospace" font-size="9.00" fill="#000000">chr_option/2</text>
<text text-anchor="start" x="126" y="-226.3" font-family="Monospace" font-size="9.00" fill="#000000"> </text>
</a>
</g>
</g>
<!-- toychrdb&#45;&gt;expanding -->
<g id="edge2" class="edge">
<title>toychrdb&#45;&gt;expanding</title>
<g id="a_edge2"><a xlink:href="https://logtalk.org/library/toychrdb_0.html" xlink:title="implements">
<path fill="none" stroke="#000000" d="M109.8048,-341.1635C131.7587,-405.1775 165.3252,-503.0522 181.1548,-549.2087"/>
<ellipse fill="#000000" stroke="#000000" cx="182.5102" cy="-553.1611" rx="4" ry="4"/>
</a>
</g>
<g id="a_edge2&#45;label"><a xlink:href="https://logtalk.org/library/toychrdb_0.html" xlink:title="https://logtalk.org/library/toychrdb_0.html">
<text text-anchor="start" x="158" y="-476.8" font-family="Monospace" font-size="9.00" fill="#000000">implements</text>
</a>
</g>
</g>
</g>
</svg>
