<?xml version="1.0" encoding="UTF-8" standalone="no"?>
<?xml-stylesheet href="diagrams.css" type="text/css"?>
<!DOCTYPE svg PUBLIC "-//W3C//DTD SVG 1.1//EN"
 "http://www.w3.org/Graphics/SVG/1.1/DTD/svg11.dtd">
<!-- Generated by graphviz version 2.50.0 (20211204.2007)
 -->
<!-- Title: ports Pages: 1 -->
<svg width="808pt" height="689pt"
 viewBox="72.00 72.00 736.00 617.00" xmlns="http://www.w3.org/2000/svg" xmlns:xlink="http://www.w3.org/1999/xlink">
<g id="graph0" class="graph" transform="scale(1 1) rotate(0) translate(76 613)">
<title>ports</title>
<polygon fill="white" stroke="transparent" points="-4,4 -4,-541 660,-541 660,4 -4,4"/>
<text text-anchor="start" x="8" y="-29" font-family="Monospace" font-size="10.00" fill="dimgray">Logtalk ports of third&#45;party software</text>
<text text-anchor="start" x="8" y="-18" font-family="Monospace" font-size="10.00" fill="dimgray">Inheritance diagram for library ports</text>
<text text-anchor="start" x="8" y="-7" font-family="Monospace" font-size="10.00" fill="dimgray">Generated on 2022&#45;07&#45;12, 19:03</text>
<g id="clust1" class="cluster">
<title>cluster_rlibrary_ports</title>
<g id="a_clust1"><a xlink:title="ports/">
<path fill="lightgray" stroke="dimgray" d="M20,-49C20,-49 636,-49 636,-49 642,-49 648,-55 648,-61 648,-61 648,-517 648,-517 648,-523 642,-529 636,-529 636,-529 20,-529 20,-529 14,-529 8,-523 8,-517 8,-517 8,-61 8,-61 8,-55 14,-49 20,-49"/>
<g id="a_clust1_0"><a xlink:href="https://github.com/LogtalkDotOrg/logtalk3/tree/d1a85897b3368803e65c9f842d7eb815fba0a607/ports/" xlink:title="https://github.com/LogtalkDotOrg/logtalk3/tree/d1a85897b3368803e65c9f842d7eb815fba0a607/ports/">
<text text-anchor="start" x="20.5" y="-59.5" font-family="Monospace" font-size="10.00" fill="dimgray">ports/</text>
</a>
</g>
</a>
</g>
</g>
<g id="clust4" class="cluster">
<title>cluster_library_metagol</title>
<g id="a_clust4"><a xlink:title="metagol/">
<path fill="whitesmoke" stroke="dimgray" d="M182,-86C182,-86 626,-86 626,-86 632,-86 638,-92 638,-98 638,-98 638,-409 638,-409 638,-415 632,-421 626,-421 626,-421 182,-421 182,-421 176,-421 170,-415 170,-409 170,-409 170,-98 170,-98 170,-92 176,-86 182,-86"/>
<g id="a_clust4_1"><a xlink:href="https://github.com/LogtalkDotOrg/logtalk3/tree/d1a85897b3368803e65c9f842d7eb815fba0a607/ports/metagol/" xlink:title="https://github.com/LogtalkDotOrg/logtalk3/tree/d1a85897b3368803e65c9f842d7eb815fba0a607/ports/metagol/">
<text text-anchor="start" x="182.5" y="-96.5" font-family="Monospace" font-size="10.00" fill="dimgray">metagol/</text>
</a>
</g>
</a>
</g>
</g>
<g id="clust7" class="cluster">
<title>cluster_file_/Users/pmoura/logtalk/ports/metagol/metagol_example_protocol.lgt</title>
<g id="a_clust7"><a xlink:title="metagol_example_protocol.lgt">
<path fill="snow" stroke="dimgray" d="M424,-208C424,-208 616,-208 616,-208 622,-208 628,-214 628,-220 628,-220 628,-314 628,-314 628,-320 622,-326 616,-326 616,-326 424,-326 424,-326 418,-326 412,-320 412,-314 412,-314 412,-220 412,-220 412,-214 418,-208 424,-208"/>
<g id="a_clust7_2"><a xlink:href="https://github.com/LogtalkDotOrg/logtalk3/tree/d1a85897b3368803e65c9f842d7eb815fba0a607/ports/metagol/metagol_example_protocol.lgt" xlink:title="https://github.com/LogtalkDotOrg/logtalk3/tree/d1a85897b3368803e65c9f842d7eb815fba0a607/ports/metagol/metagol_example_protocol.lgt">
<text text-anchor="start" x="424.5" y="-218.5" font-family="Monospace" font-size="10.00" fill="dimgray">metagol_example_protocol.lgt</text>
</a>
</g>
</a>
</g>
</g>
<g id="clust6" class="cluster">
<title>cluster_file_/Users/pmoura/logtalk/ports/metagol/metagol.lgt</title>
<g id="a_clust6"><a xlink:title="metagol.lgt">
<path fill="snow" stroke="dimgray" d="M192,-123C192,-123 390,-123 390,-123 396,-123 402,-129 402,-135 402,-135 402,-399 402,-399 402,-405 396,-411 390,-411 390,-411 192,-411 192,-411 186,-411 180,-405 180,-399 180,-399 180,-135 180,-135 180,-129 186,-123 192,-123"/>
<g id="a_clust6_3"><a xlink:href="https://github.com/LogtalkDotOrg/logtalk3/tree/d1a85897b3368803e65c9f842d7eb815fba0a607/ports/metagol/metagol.lgt" xlink:title="https://github.com/LogtalkDotOrg/logtalk3/tree/d1a85897b3368803e65c9f842d7eb815fba0a607/ports/metagol/metagol.lgt">
<text text-anchor="start" x="192.5" y="-133.5" font-family="Monospace" font-size="10.00" fill="dimgray">metagol.lgt</text>
</a>
</g>
</a>
</g>
</g>
<g id="clust8" class="cluster">
<title>cluster_library_toychr</title>
<g id="a_clust8"><a xlink:title="toychr/">
<path fill="whitesmoke" stroke="dimgray" d="M30,-146C30,-146 148,-146 148,-146 154,-146 160,-152 160,-158 160,-158 160,-349 160,-349 160,-355 154,-361 148,-361 148,-361 30,-361 30,-361 24,-361 18,-355 18,-349 18,-349 18,-158 18,-158 18,-152 24,-146 30,-146"/>
<g id="a_clust8_4"><a xlink:href="https://github.com/LogtalkDotOrg/logtalk3/tree/d1a85897b3368803e65c9f842d7eb815fba0a607/ports/toychr/" xlink:title="https://github.com/LogtalkDotOrg/logtalk3/tree/d1a85897b3368803e65c9f842d7eb815fba0a607/ports/toychr/">
<text text-anchor="start" x="30.5" y="-156.5" font-family="Monospace" font-size="10.00" fill="dimgray">toychr/</text>
</a>
</g>
</a>
</g>
</g>
<g id="clust10" class="cluster">
<title>cluster_file_/Users/pmoura/logtalk/ports/toychr/toychrdb.lgt</title>
<g id="a_clust10"><a xlink:title="toychrdb.lgt">
<path fill="snow" stroke="dimgray" d="M40,-183C40,-183 138,-183 138,-183 144,-183 150,-189 150,-195 150,-195 150,-339 150,-339 150,-345 144,-351 138,-351 138,-351 40,-351 40,-351 34,-351 28,-345 28,-339 28,-339 28,-195 28,-195 28,-189 34,-183 40,-183"/>
<g id="a_clust10_5"><a xlink:href="https://github.com/LogtalkDotOrg/logtalk3/tree/d1a85897b3368803e65c9f842d7eb815fba0a607/ports/toychr/toychrdb.lgt" xlink:title="https://github.com/LogtalkDotOrg/logtalk3/tree/d1a85897b3368803e65c9f842d7eb815fba0a607/ports/toychr/toychrdb.lgt">
<text text-anchor="start" x="40.5" y="-193.5" font-family="Monospace" font-size="10.00" fill="dimgray">toychrdb.lgt</text>
</a>
</g>
</a>
</g>
</g>
<!-- metagol -->
<g id="node1" class="node">
<title>metagol</title>
<g id="a_node1"><a xlink:href="https://logtalk.org/library/metagol_0.html" xlink:title="https://logtalk.org/library/metagol_0.html">
<polygon fill="cornsilk" stroke="black" points="392,-401 190,-401 190,-160 392,-160 392,-401"/>
<g id="a_node1_6"><a xlink:href="metagol_object_xref_diagram.svg" xlink:title="Zoom">
<image xlink:href="zoom.png" width="11px" height="11px" preserveAspectRatio="xMinYMin meet" x="198" y="-396.5"/>
</a>
</g>
<text text-anchor="start" x="200.5" y="-377.3" font-family="Monospace" font-size="9.00"> </text>
<text text-anchor="start" x="269.5" y="-376.7" font-family="Monospace" font-size="11.00">metagol</text>
<text text-anchor="start" x="378" y="-377.3" font-family="Monospace" font-size="9.00"> </text>
<text text-anchor="start" x="200.5" y="-366.3" font-family="Monospace" font-size="9.00"> </text>
<text text-anchor="start" x="273" y="-366.9" font-family="Monospace" font-size="7.00">prototype</text>
<text text-anchor="start" x="378" y="-366.3" font-family="Monospace" font-size="9.00"> </text>
<text text-anchor="start" x="200.5" y="-356.3" font-family="Monospace" font-size="9.00"> </text>
<text text-anchor="start" x="200.5" y="-346.3" font-family="Monospace" font-size="9.00"> </text>
<text text-anchor="start" x="275" y="-346.3" font-family="Monospace" font-size="9.00">learn/3</text>
<text text-anchor="start" x="378" y="-346.3" font-family="Monospace" font-size="9.00"> </text>
<text text-anchor="start" x="200.5" y="-336.3" font-family="Monospace" font-size="9.00"> </text>
<text text-anchor="start" x="275" y="-336.3" font-family="Monospace" font-size="9.00">learn/2</text>
<text text-anchor="start" x="378" y="-336.3" font-family="Monospace" font-size="9.00"> </text>
<text text-anchor="start" x="200.5" y="-326.3" font-family="Monospace" font-size="9.00"> </text>
<text text-anchor="start" x="264.5" y="-326.3" font-family="Monospace" font-size="9.00">learn_seq/2</text>
<text text-anchor="start" x="378" y="-326.3" font-family="Monospace" font-size="9.00"> </text>
<text text-anchor="start" x="200.5" y="-316.3" font-family="Monospace" font-size="9.00"> </text>
<text text-anchor="start" x="240.5" y="-316.3" font-family="Monospace" font-size="9.00">learn_with_timeout/4</text>
<text text-anchor="start" x="378" y="-316.3" font-family="Monospace" font-size="9.00"> </text>
<text text-anchor="start" x="200.5" y="-306.3" font-family="Monospace" font-size="9.00"> </text>
<text text-anchor="start" x="240.5" y="-306.3" font-family="Monospace" font-size="9.00">program_to_clauses/2</text>
<text text-anchor="start" x="378" y="-306.3" font-family="Monospace" font-size="9.00"> </text>
<text text-anchor="start" x="200.5" y="-296.3" font-family="Monospace" font-size="9.00"> </text>
<text text-anchor="start" x="272" y="-296.3" font-family="Monospace" font-size="9.00">pprint/1</text>
<text text-anchor="start" x="378" y="-296.3" font-family="Monospace" font-size="9.00"> </text>
<text text-anchor="start" x="200.5" y="-286.3" font-family="Monospace" font-size="9.00"> </text>
<text text-anchor="start" x="267" y="-286.3" font-family="Monospace" font-size="9.00">metarule/6</text>
<text text-anchor="start" x="378" y="-286.3" font-family="Monospace" font-size="9.00"> </text>
<text text-anchor="start" x="200.5" y="-276.3" font-family="Monospace" font-size="9.00"> </text>
<text text-anchor="start" x="264.5" y="-276.3" font-family="Monospace" font-size="9.00">head_pred/1</text>
<text text-anchor="start" x="378" y="-276.3" font-family="Monospace" font-size="9.00"> </text>
<text text-anchor="start" x="200.5" y="-266.3" font-family="Monospace" font-size="9.00"> </text>
<text text-anchor="start" x="264.5" y="-266.3" font-family="Monospace" font-size="9.00">body_pred/1</text>
<text text-anchor="start" x="378" y="-266.3" font-family="Monospace" font-size="9.00"> </text>
<text text-anchor="start" x="200.5" y="-256.3" font-family="Monospace" font-size="9.00"> </text>
<text text-anchor="start" x="280" y="-256.3" font-family="Monospace" font-size="9.00">ibk/3</text>
<text text-anchor="start" x="378" y="-256.3" font-family="Monospace" font-size="9.00"> </text>
<text text-anchor="start" x="200.5" y="-246.3" font-family="Monospace" font-size="9.00"> </text>
<text text-anchor="start" x="264.5" y="-246.3" font-family="Monospace" font-size="9.00">func_test/3</text>
<text text-anchor="start" x="378" y="-246.3" font-family="Monospace" font-size="9.00"> </text>
<text text-anchor="start" x="200.5" y="-236.3" font-family="Monospace" font-size="9.00"> </text>
<text text-anchor="start" x="261.5" y="-236.3" font-family="Monospace" font-size="9.00">functional/0</text>
<text text-anchor="start" x="378" y="-236.3" font-family="Monospace" font-size="9.00"> </text>
<text text-anchor="start" x="200.5" y="-226.3" font-family="Monospace" font-size="9.00"> </text>
<text text-anchor="start" x="259" y="-226.3" font-family="Monospace" font-size="9.00">min_clauses/1</text>
<text text-anchor="start" x="378" y="-226.3" font-family="Monospace" font-size="9.00"> </text>
<text text-anchor="start" x="200.5" y="-216.3" font-family="Monospace" font-size="9.00"> </text>
<text text-anchor="start" x="259" y="-216.3" font-family="Monospace" font-size="9.00">max_clauses/1</text>
<text text-anchor="start" x="378" y="-216.3" font-family="Monospace" font-size="9.00"> </text>
<text text-anchor="start" x="200.5" y="-206.3" font-family="Monospace" font-size="9.00"> </text>
<text text-anchor="start" x="254" y="-206.3" font-family="Monospace" font-size="9.00">max_inv_preds/1</text>
<text text-anchor="start" x="378" y="-206.3" font-family="Monospace" font-size="9.00"> </text>
<text text-anchor="start" x="200.5" y="-196.3" font-family="Monospace" font-size="9.00"> </text>
<text text-anchor="start" x="246" y="-196.3" font-family="Monospace" font-size="9.00">metarule_next_id/1</text>
<text text-anchor="start" x="378" y="-196.3" font-family="Monospace" font-size="9.00"> </text>
<text text-anchor="start" x="200.5" y="-186.3" font-family="Monospace" font-size="9.00"> </text>
<text text-anchor="start" x="269.5" y="-186.3" font-family="Monospace" font-size="9.00">timeout/1</text>
<text text-anchor="start" x="378" y="-186.3" font-family="Monospace" font-size="9.00"> </text>
<text text-anchor="start" x="200.5" y="-176.3" font-family="Monospace" font-size="9.00"> </text>
<text text-anchor="start" x="225" y="-176.3" font-family="Monospace" font-size="9.00">logtalk::message_tokens//2</text>
<text text-anchor="start" x="378" y="-176.3" font-family="Monospace" font-size="9.00"> </text>
<text text-anchor="start" x="200.5" y="-166.3" font-family="Monospace" font-size="9.00"> </text>
<text text-anchor="start" x="209" y="-166.3" font-family="Monospace" font-size="9.00">logtalk::message_prefix_stream/4</text>
<text text-anchor="start" x="378" y="-166.3" font-family="Monospace" font-size="9.00"> </text>
</a>
</g>
</g>
<!-- expanding -->
<g id="node4" class="node">
<title>expanding</title>
<g id="a_node4"><a xlink:href="https://logtalk.org/library/expanding_0.html" xlink:title="https://logtalk.org/library/expanding_0.html">
<polygon fill="mediumaquamarine" stroke="black" stroke-dasharray="5,2" points="204.5,-519 105.5,-519 105.5,-483 210.5,-483 210.5,-513 204.5,-519"/>
<polyline fill="none" stroke="black" stroke-dasharray="5,2" points="204.5,-519 204.5,-513 "/>
<polyline fill="none" stroke="black" stroke-dasharray="5,2" points="210.5,-513 204.5,-513 "/>
<text text-anchor="start" x="114" y="-503.8" font-family="Monospace" font-size="9.00"> </text>
<text text-anchor="start" x="128" y="-503.2" font-family="Monospace" font-size="11.00">expanding</text>
<text text-anchor="start" x="197" y="-503.8" font-family="Monospace" font-size="9.00"> </text>
<text text-anchor="start" x="114" y="-492.8" font-family="Monospace" font-size="9.00"> </text>
<text text-anchor="start" x="120" y="-493.4" font-family="Monospace" font-size="7.00">built&#45;in protocol</text>
<text text-anchor="start" x="197" y="-492.8" font-family="Monospace" font-size="9.00"> </text>
</a>
</g>
</g>
<!-- metagol&#45;&gt;expanding -->
<g id="edge1" class="edge">
<title>metagol&#45;&gt;expanding</title>
<g id="a_edge1"><a xlink:href="https://logtalk.org/library/metagol_0.html" xlink:title="implements">
<path fill="none" stroke="black" d="M224.18,-401.24C214.95,-416.78 205.41,-432.37 196,-447 189.75,-456.71 182.45,-467.1 175.93,-476.08"/>
<ellipse fill="black" stroke="black" cx="173.48" cy="-479.42" rx="4" ry="4"/>
</a>
</g>
<g id="a_edge1&#45;label"><a xlink:href="https://logtalk.org/library/metagol_0.html" xlink:title="https://logtalk.org/library/metagol_0.html">
<text text-anchor="start" x="201" y="-439.8" font-family="Monospace" font-size="9.00">implements</text>
</a>
</g>
</g>
<!-- metagol_example_protocol -->
<g id="node2" class="node">
<title>metagol_example_protocol</title>
<g id="a_node2"><a xlink:href="https://logtalk.org/library/metagol_example_protocol_0.html" xlink:title="https://logtalk.org/library/metagol_example_protocol_0.html">
<polygon fill="aquamarine" stroke="black" points="612,-316 422,-316 422,-245 618,-245 618,-310 612,-316"/>
<polyline fill="none" stroke="black" points="612,-316 612,-310 "/>
<polyline fill="none" stroke="black" points="618,-310 612,-310 "/>
<g id="a_node2_7"><a xlink:href="metagol_example_protocol_protocol_xref_diagram.svg" xlink:title="Zoom">
<image xlink:href="zoom.png" width="11px" height="11px" preserveAspectRatio="xMinYMin meet" x="430" y="-311.5"/>
</a>
</g>
<text text-anchor="start" x="432.5" y="-292.3" font-family="Monospace" font-size="9.00"> </text>
<text text-anchor="start" x="441" y="-291.7" font-family="Monospace" font-size="11.00">metagol_example_protocol</text>
<text text-anchor="start" x="604" y="-292.3" font-family="Monospace" font-size="9.00"> </text>
<text text-anchor="start" x="432.5" y="-281.3" font-family="Monospace" font-size="9.00"> </text>
<text text-anchor="start" x="504" y="-281.9" font-family="Monospace" font-size="7.00">protocol</text>
<text text-anchor="start" x="604" y="-281.3" font-family="Monospace" font-size="9.00"> </text>
<text text-anchor="start" x="432.5" y="-271.3" font-family="Monospace" font-size="9.00"> </text>
<text text-anchor="start" x="432.5" y="-261.3" font-family="Monospace" font-size="9.00"> </text>
<text text-anchor="start" x="504" y="-261.3" font-family="Monospace" font-size="9.00">learn/1</text>
<text text-anchor="start" x="604" y="-261.3" font-family="Monospace" font-size="9.00"> </text>
<text text-anchor="start" x="432.5" y="-251.3" font-family="Monospace" font-size="9.00"> </text>
<text text-anchor="start" x="504" y="-251.3" font-family="Monospace" font-size="9.00">learn/0</text>
<text text-anchor="start" x="604" y="-251.3" font-family="Monospace" font-size="9.00"> </text>
</a>
</g>
</g>
<!-- toychrdb -->
<g id="node3" class="node">
<title>toychrdb</title>
<g id="a_node3"><a xlink:href="https://logtalk.org/library/toychrdb_0.html" xlink:title="https://logtalk.org/library/toychrdb_0.html">
<polygon fill="cornsilk" stroke="black" points="140,-341 38,-341 38,-220 140,-220 140,-341"/>
<g id="a_node3_8"><a xlink:href="toychrdb_object_xref_diagram.svg" xlink:title="Zoom">
<image xlink:href="zoom.png" width="11px" height="11px" preserveAspectRatio="xMinYMin meet" x="46" y="-336.5"/>
</a>
</g>
<text text-anchor="start" x="48.5" y="-317.3" font-family="Monospace" font-size="9.00"> </text>
<text text-anchor="start" x="64" y="-316.7" font-family="Monospace" font-size="11.00">toychrdb</text>
<text text-anchor="start" x="126" y="-317.3" font-family="Monospace" font-size="9.00"> </text>
<text text-anchor="start" x="48.5" y="-306.3" font-family="Monospace" font-size="9.00"> </text>
<text text-anchor="start" x="71" y="-306.9" font-family="Monospace" font-size="7.00">prototype</text>
<text text-anchor="start" x="126" y="-306.3" font-family="Monospace" font-size="9.00"> </text>
<text text-anchor="start" x="48.5" y="-296.3" font-family="Monospace" font-size="9.00"> </text>
<text text-anchor="start" x="48.5" y="-286.3" font-family="Monospace" font-size="9.00"> </text>
<text text-anchor="start" x="70" y="-286.3" font-family="Monospace" font-size="9.00">chr_is/2</text>
<text text-anchor="start" x="126" y="-286.3" font-family="Monospace" font-size="9.00"> </text>
<text text-anchor="start" x="48.5" y="-276.3" font-family="Monospace" font-size="9.00"> </text>
<text text-anchor="start" x="62.5" y="-276.3" font-family="Monospace" font-size="9.00">chr_trace/0</text>
<text text-anchor="start" x="126" y="-276.3" font-family="Monospace" font-size="9.00"> </text>
<text text-anchor="start" x="48.5" y="-266.3" font-family="Monospace" font-size="9.00"> </text>
<text text-anchor="start" x="57" y="-266.3" font-family="Monospace" font-size="9.00">chr_notrace/0</text>
<text text-anchor="start" x="126" y="-266.3" font-family="Monospace" font-size="9.00"> </text>
<text text-anchor="start" x="48.5" y="-256.3" font-family="Monospace" font-size="9.00"> </text>
<text text-anchor="start" x="67.5" y="-256.3" font-family="Monospace" font-size="9.00">chr_spy/1</text>
<text text-anchor="start" x="126" y="-256.3" font-family="Monospace" font-size="9.00"> </text>
<text text-anchor="start" x="48.5" y="-246.3" font-family="Monospace" font-size="9.00"> </text>
<text text-anchor="start" x="62.5" y="-246.3" font-family="Monospace" font-size="9.00">chr_nospy/0</text>
<text text-anchor="start" x="126" y="-246.3" font-family="Monospace" font-size="9.00"> </text>
<text text-anchor="start" x="48.5" y="-236.3" font-family="Monospace" font-size="9.00"> </text>
<text text-anchor="start" x="59.5" y="-236.3" font-family="Monospace" font-size="9.00">chr_no_spy/1</text>
<text text-anchor="start" x="126" y="-236.3" font-family="Monospace" font-size="9.00"> </text>
<text text-anchor="start" x="48.5" y="-226.3" font-family="Monospace" font-size="9.00"> </text>
<text text-anchor="start" x="59.5" y="-226.3" font-family="Monospace" font-size="9.00">chr_option/2</text>
<text text-anchor="start" x="126" y="-226.3" font-family="Monospace" font-size="9.00"> </text>
</a>
</g>
</g>
<!-- toychrdb&#45;&gt;expanding -->
<g id="edge2" class="edge">
<title>toychrdb&#45;&gt;expanding</title>
<g id="a_edge2"><a xlink:href="https://logtalk.org/library/toychrdb_0.html" xlink:title="implements">
<path fill="none" stroke="black" d="M107.85,-341.21C121.76,-385.24 139.97,-442.89 150.18,-475.23"/>
<ellipse fill="black" stroke="black" cx="151.39" cy="-479.06" rx="4" ry="4"/>
</a>
</g>
<g id="a_edge2&#45;label"><a xlink:href="https://logtalk.org/library/toychrdb_0.html" xlink:title="https://logtalk.org/library/toychrdb_0.html">
<text text-anchor="start" x="139" y="-439.8" font-family="Monospace" font-size="9.00">implements</text>
</a>
</g>
</g>
</g>
</svg>
