<?xml version="1.0" encoding="UTF-8" standalone="no"?>
<!DOCTYPE svg PUBLIC "-//W3C//DTD SVG 1.1//EN"
 "http://www.w3.org/Graphics/SVG/1.1/DTD/svg11.dtd">
<!-- Generated by graphviz version 2.41.20190410.0829 (20190410.0829)
 -->
<!-- Title: ports Pages: 1 -->
<svg width="652pt" height="651pt"
 viewBox="72.00 72.00 580.00 579.00" xmlns="http://www.w3.org/2000/svg" xmlns:xlink="http://www.w3.org/1999/xlink">
<g id="graph0" class="graph" transform="scale(1 1) rotate(0) translate(76 575)">
<title>ports</title>
<polygon fill="white" stroke="transparent" points="-4,4 -4,-503 504,-503 504,4 -4,4"/>
<text text-anchor="start" x="8" y="-26" font-family="Courier,monospace" font-size="10.00" fill="dimgray">Logtalk ports of third&#45;party software</text>
<text text-anchor="start" x="8" y="-16" font-family="Courier,monospace" font-size="10.00" fill="dimgray">Inheritance diagram for library ports</text>
<text text-anchor="start" x="8" y="-6" font-family="Courier,monospace" font-size="10.00" fill="dimgray">Generated on 2019/05/07, 21:57</text>
<g id="clust1" class="cluster">
<title>cluster_rlibrary_ports</title>
<g id="a_clust1"><a xlink:title="ports/">
<path fill="lightgray" stroke="dimgray" d="M20,-46C20,-46 480,-46 480,-46 486,-46 492,-52 492,-58 492,-58 492,-479 492,-479 492,-485 486,-491 480,-491 480,-491 20,-491 20,-491 14,-491 8,-485 8,-479 8,-479 8,-58 8,-58 8,-52 14,-46 20,-46"/>
<g id="a_clust1_0"><a xlink:href="https://github.com/LogtalkDotOrg/logtalk3/tree/9e834dae1d3f4baabc87a9a5b728967b98852738/ports/" xlink:title="https://github.com/LogtalkDotOrg/logtalk3/tree/9e834dae1d3f4baabc87a9a5b728967b98852738/ports/">
<text text-anchor="start" x="20" y="-56" font-family="Courier,monospace" font-size="10.00" fill="dimgray">ports/</text>
</a>
</g>
</a>
</g>
</g>
<g id="clust4" class="cluster">
<title>cluster_library_metagol</title>
<g id="a_clust4"><a xlink:title="metagol/">
<path fill="whitesmoke" stroke="dimgray" d="M30,-82C30,-82 470,-82 470,-82 476,-82 482,-88 482,-94 482,-94 482,-372 482,-372 482,-378 476,-384 470,-384 470,-384 30,-384 30,-384 24,-384 18,-378 18,-372 18,-372 18,-94 18,-94 18,-88 24,-82 30,-82"/>
<g id="a_clust4_1"><a xlink:href="https://github.com/LogtalkDotOrg/logtalk3/tree/9e834dae1d3f4baabc87a9a5b728967b98852738/ports/metagol/" xlink:title="https://github.com/LogtalkDotOrg/logtalk3/tree/9e834dae1d3f4baabc87a9a5b728967b98852738/ports/metagol/">
<text text-anchor="start" x="30" y="-92" font-family="Courier,monospace" font-size="10.00" fill="dimgray">metagol/</text>
</a>
</g>
</a>
</g>
</g>
<g id="clust6" class="cluster">
<title>cluster_file_/Users/pmoura/logtalk/ports/metagol/metagol.lgt</title>
<g id="a_clust6"><a xlink:title="metagol.lgt">
<path fill="snow" stroke="dimgray" d="M260,-118C260,-118 460,-118 460,-118 466,-118 472,-124 472,-130 472,-130 472,-362 472,-362 472,-368 466,-374 460,-374 460,-374 260,-374 260,-374 254,-374 248,-368 248,-362 248,-362 248,-130 248,-130 248,-124 254,-118 260,-118"/>
<g id="a_clust6_2"><a xlink:href="https://github.com/LogtalkDotOrg/logtalk3/tree/9e834dae1d3f4baabc87a9a5b728967b98852738/ports/metagol/metagol.lgt" xlink:title="https://github.com/LogtalkDotOrg/logtalk3/tree/9e834dae1d3f4baabc87a9a5b728967b98852738/ports/metagol/metagol.lgt">
<text text-anchor="start" x="259.99" y="-128" font-family="Courier,monospace" font-size="10.00" fill="dimgray">metagol.lgt</text>
</a>
</g>
</a>
</g>
</g>
<g id="clust7" class="cluster">
<title>cluster_file_/Users/pmoura/logtalk/ports/metagol/metagol_example_protocol.lgt</title>
<g id="a_clust7"><a xlink:title="metagol_example_protocol.lgt">
<path fill="snow" stroke="dimgray" d="M40,-190C40,-190 226,-190 226,-190 232,-190 238,-196 238,-202 238,-202 238,-290 238,-290 238,-296 232,-302 226,-302 226,-302 40,-302 40,-302 34,-302 28,-296 28,-290 28,-290 28,-202 28,-202 28,-196 34,-190 40,-190"/>
<g id="a_clust7_3"><a xlink:href="https://github.com/LogtalkDotOrg/logtalk3/tree/9e834dae1d3f4baabc87a9a5b728967b98852738/ports/metagol/metagol_example_protocol.lgt" xlink:title="https://github.com/LogtalkDotOrg/logtalk3/tree/9e834dae1d3f4baabc87a9a5b728967b98852738/ports/metagol/metagol_example_protocol.lgt">
<text text-anchor="start" x="39.99" y="-200" font-family="Courier,monospace" font-size="10.00" fill="dimgray">metagol_example_protocol.lgt</text>
</a>
</g>
</a>
</g>
</g>
<!-- metagol -->
<g id="node1" class="node">
<title>metagol</title>
<g id="a_node1"><a xlink:href="https://logtalk.org/library/metagol_0.html" xlink:title="https://logtalk.org/library/metagol_0.html">
<polygon fill="cornsilk" stroke="black" points="462,-364 258,-364 258,-154 462,-154 462,-364"/>
<g id="a_node1_4"><a xlink:href="metagol_object_xref_diagram.svg" xlink:title="Zoom">
<image xlink:href="zoom.png" width="11px" height="11px" preserveAspectRatio="xMinYMin meet" x="266" y="-360"/>
</a>
</g>
<text text-anchor="start" x="268.8" y="-340.8" font-family="Courier,monospace" font-size="9.00"> </text>
<text text-anchor="start" x="339.9" y="-340.2" font-family="Courier,monospace" font-size="11.00">metagol</text>
<text text-anchor="start" x="448.8" y="-340.8" font-family="Courier,monospace" font-size="9.00"> </text>
<text text-anchor="start" x="268.8" y="-330.8" font-family="Courier,monospace" font-size="9.00"> </text>
<text text-anchor="start" x="344.1" y="-331.4" font-family="Courier,monospace" font-size="7.00">prototype</text>
<text text-anchor="start" x="448.8" y="-330.8" font-family="Courier,monospace" font-size="9.00"> </text>
<text text-anchor="start" x="268.8" y="-321.8" font-family="Courier,monospace" font-size="9.00"> </text>
<text text-anchor="start" x="268.8" y="-312.8" font-family="Courier,monospace" font-size="9.00"> </text>
<text text-anchor="start" x="344.1" y="-312.8" font-family="Courier,monospace" font-size="9.00">learn/3</text>
<text text-anchor="start" x="448.8" y="-312.8" font-family="Courier,monospace" font-size="9.00"> </text>
<text text-anchor="start" x="268.8" y="-303.8" font-family="Courier,monospace" font-size="9.00"> </text>
<text text-anchor="start" x="344.1" y="-303.8" font-family="Courier,monospace" font-size="9.00">learn/2</text>
<text text-anchor="start" x="448.8" y="-303.8" font-family="Courier,monospace" font-size="9.00"> </text>
<text text-anchor="start" x="268.8" y="-294.8" font-family="Courier,monospace" font-size="9.00"> </text>
<text text-anchor="start" x="333.3" y="-294.8" font-family="Courier,monospace" font-size="9.00">learn_seq/2</text>
<text text-anchor="start" x="448.8" y="-294.8" font-family="Courier,monospace" font-size="9.00"> </text>
<text text-anchor="start" x="268.8" y="-285.8" font-family="Courier,monospace" font-size="9.00"> </text>
<text text-anchor="start" x="308.99" y="-285.8" font-family="Courier,monospace" font-size="9.00">learn_with_timeout/4</text>
<text text-anchor="start" x="448.8" y="-285.8" font-family="Courier,monospace" font-size="9.00"> </text>
<text text-anchor="start" x="268.8" y="-276.8" font-family="Courier,monospace" font-size="9.00"> </text>
<text text-anchor="start" x="336" y="-276.8" font-family="Courier,monospace" font-size="9.00">pclauses/2</text>
<text text-anchor="start" x="448.8" y="-276.8" font-family="Courier,monospace" font-size="9.00"> </text>
<text text-anchor="start" x="268.8" y="-267.8" font-family="Courier,monospace" font-size="9.00"> </text>
<text text-anchor="start" x="341.4" y="-267.8" font-family="Courier,monospace" font-size="9.00">pprint/1</text>
<text text-anchor="start" x="448.8" y="-267.8" font-family="Courier,monospace" font-size="9.00"> </text>
<text text-anchor="start" x="268.8" y="-258.8" font-family="Courier,monospace" font-size="9.00"> </text>
<text text-anchor="start" x="336" y="-258.8" font-family="Courier,monospace" font-size="9.00">metarule/6</text>
<text text-anchor="start" x="448.8" y="-258.8" font-family="Courier,monospace" font-size="9.00"> </text>
<text text-anchor="start" x="268.8" y="-249.8" font-family="Courier,monospace" font-size="9.00"> </text>
<text text-anchor="start" x="333.3" y="-249.8" font-family="Courier,monospace" font-size="9.00">head_pred/1</text>
<text text-anchor="start" x="448.8" y="-249.8" font-family="Courier,monospace" font-size="9.00"> </text>
<text text-anchor="start" x="268.8" y="-240.8" font-family="Courier,monospace" font-size="9.00"> </text>
<text text-anchor="start" x="333.3" y="-240.8" font-family="Courier,monospace" font-size="9.00">body_pred/1</text>
<text text-anchor="start" x="448.8" y="-240.8" font-family="Courier,monospace" font-size="9.00"> </text>
<text text-anchor="start" x="268.8" y="-231.8" font-family="Courier,monospace" font-size="9.00"> </text>
<text text-anchor="start" x="349.5" y="-231.8" font-family="Courier,monospace" font-size="9.00">ibk/3</text>
<text text-anchor="start" x="448.8" y="-231.8" font-family="Courier,monospace" font-size="9.00"> </text>
<text text-anchor="start" x="268.8" y="-222.8" font-family="Courier,monospace" font-size="9.00"> </text>
<text text-anchor="start" x="330.59" y="-222.8" font-family="Courier,monospace" font-size="9.00">functional/0</text>
<text text-anchor="start" x="448.8" y="-222.8" font-family="Courier,monospace" font-size="9.00"> </text>
<text text-anchor="start" x="268.8" y="-213.8" font-family="Courier,monospace" font-size="9.00"> </text>
<text text-anchor="start" x="327.89" y="-213.8" font-family="Courier,monospace" font-size="9.00">min_clauses/1</text>
<text text-anchor="start" x="448.8" y="-213.8" font-family="Courier,monospace" font-size="9.00"> </text>
<text text-anchor="start" x="268.8" y="-204.8" font-family="Courier,monospace" font-size="9.00"> </text>
<text text-anchor="start" x="327.89" y="-204.8" font-family="Courier,monospace" font-size="9.00">max_clauses/1</text>
<text text-anchor="start" x="448.8" y="-204.8" font-family="Courier,monospace" font-size="9.00"> </text>
<text text-anchor="start" x="268.8" y="-195.8" font-family="Courier,monospace" font-size="9.00"> </text>
<text text-anchor="start" x="322.49" y="-195.8" font-family="Courier,monospace" font-size="9.00">max_inv_preds/1</text>
<text text-anchor="start" x="448.8" y="-195.8" font-family="Courier,monospace" font-size="9.00"> </text>
<text text-anchor="start" x="268.8" y="-186.8" font-family="Courier,monospace" font-size="9.00"> </text>
<text text-anchor="start" x="314.39" y="-186.8" font-family="Courier,monospace" font-size="9.00">metarule_next_id/1</text>
<text text-anchor="start" x="448.8" y="-186.8" font-family="Courier,monospace" font-size="9.00"> </text>
<text text-anchor="start" x="268.8" y="-177.8" font-family="Courier,monospace" font-size="9.00"> </text>
<text text-anchor="start" x="338.7" y="-177.8" font-family="Courier,monospace" font-size="9.00">timeout/1</text>
<text text-anchor="start" x="448.8" y="-177.8" font-family="Courier,monospace" font-size="9.00"> </text>
<text text-anchor="start" x="268.8" y="-168.8" font-family="Courier,monospace" font-size="9.00"> </text>
<text text-anchor="start" x="292.79" y="-168.8" font-family="Courier,monospace" font-size="9.00">logtalk::message_tokens//2</text>
<text text-anchor="start" x="448.8" y="-168.8" font-family="Courier,monospace" font-size="9.00"> </text>
<text text-anchor="start" x="268.8" y="-159.8" font-family="Courier,monospace" font-size="9.00"> </text>
<text text-anchor="start" x="276.59" y="-159.8" font-family="Courier,monospace" font-size="9.00">logtalk::message_prefix_stream/4</text>
<text text-anchor="start" x="448.8" y="-159.8" font-family="Courier,monospace" font-size="9.00"> </text>
</a>
</g>
</g>
<!-- expanding -->
<g id="node3" class="node">
<title>expanding</title>
<g id="a_node3"><a xlink:href="https://logtalk.org/library/expanding_0.html" xlink:title="https://logtalk.org/library/expanding_0.html">
<polygon fill="mediumaquamarine" stroke="black" stroke-dasharray="5,2" points="402.5,-481 311.5,-481 311.5,-445 408.5,-445 408.5,-475 402.5,-481"/>
<polyline fill="none" stroke="black" stroke-dasharray="5,2" points="402.5,-481 402.5,-475 "/>
<polyline fill="none" stroke="black" stroke-dasharray="5,2" points="408.5,-475 402.5,-475 "/>
<text text-anchor="start" x="319.8" y="-464.8" font-family="Courier,monospace" font-size="9.00"> </text>
<text text-anchor="start" x="330.8" y="-464.2" font-family="Courier,monospace" font-size="11.00">expanding</text>
<text text-anchor="start" x="395.8" y="-464.8" font-family="Courier,monospace" font-size="9.00"> </text>
<text text-anchor="start" x="319.8" y="-454.8" font-family="Courier,monospace" font-size="9.00"> </text>
<text text-anchor="start" x="324.79" y="-455.4" font-family="Courier,monospace" font-size="7.00">built&#45;in protocol</text>
<text text-anchor="start" x="395.8" y="-454.8" font-family="Courier,monospace" font-size="9.00"> </text>
</a>
</g>
</g>
<!-- metagol&#45;&gt;expanding -->
<g id="edge1" class="edge">
<title>metagol&#45;&gt;expanding</title>
<g id="a_edge1"><a xlink:href="https://logtalk.org/library/metagol_0.html" xlink:title="implements">
<path fill="none" stroke="black" d="M360,-364.25C360,-391.24 360,-417.91 360,-436.56"/>
<ellipse fill="black" stroke="black" cx="360" cy="-440.78" rx="4" ry="4"/>
</a>
</g>
<g id="a_edge1&#45;label"><a xlink:href="https://logtalk.org/library/metagol_0.html" xlink:title="https://logtalk.org/library/metagol_0.html">
<text text-anchor="start" x="360" y="-401.8" font-family="Courier,monospace" font-size="9.00">implements</text>
</a>
</g>
</g>
<!-- metagol_example_protocol -->
<g id="node2" class="node">
<title>metagol_example_protocol</title>
<g id="a_node2"><a xlink:href="https://logtalk.org/library/metagol_example_protocol_0.html" xlink:title="https://logtalk.org/library/metagol_example_protocol_0.html">
<polygon fill="aquamarine" stroke="black" points="222,-292 38,-292 38,-226 228,-226 228,-286 222,-292"/>
<polyline fill="none" stroke="black" points="222,-292 222,-286 "/>
<polyline fill="none" stroke="black" points="228,-286 222,-286 "/>
<g id="a_node2_5"><a xlink:href="metagol_example_protocol_protocol_xref_diagram.svg" xlink:title="Zoom">
<image xlink:href="zoom.png" width="11px" height="11px" preserveAspectRatio="xMinYMin meet" x="46" y="-288"/>
</a>
</g>
<text text-anchor="start" x="48.8" y="-268.8" font-family="Courier,monospace" font-size="9.00"> </text>
<text text-anchor="start" x="56.79" y="-268.2" font-family="Courier,monospace" font-size="11.00">metagol_example_protocol</text>
<text text-anchor="start" x="214.8" y="-268.8" font-family="Courier,monospace" font-size="9.00"> </text>
<text text-anchor="start" x="48.8" y="-258.8" font-family="Courier,monospace" font-size="9.00"> </text>
<text text-anchor="start" x="119.2" y="-259.4" font-family="Courier,monospace" font-size="7.00">protocol</text>
<text text-anchor="start" x="214.8" y="-258.8" font-family="Courier,monospace" font-size="9.00"> </text>
<text text-anchor="start" x="48.8" y="-249.8" font-family="Courier,monospace" font-size="9.00"> </text>
<text text-anchor="start" x="48.8" y="-240.8" font-family="Courier,monospace" font-size="9.00"> </text>
<text text-anchor="start" x="117.1" y="-240.8" font-family="Courier,monospace" font-size="9.00">learn/1</text>
<text text-anchor="start" x="214.8" y="-240.8" font-family="Courier,monospace" font-size="9.00"> </text>
<text text-anchor="start" x="48.8" y="-231.8" font-family="Courier,monospace" font-size="9.00"> </text>
<text text-anchor="start" x="117.1" y="-231.8" font-family="Courier,monospace" font-size="9.00">learn/0</text>
<text text-anchor="start" x="214.8" y="-231.8" font-family="Courier,monospace" font-size="9.00"> </text>
</a>
</g>
</g>
</g>
</svg>
