<?xml version="1.0" encoding="UTF-8" standalone="no"?>
<!DOCTYPE svg PUBLIC "-//W3C//DTD SVG 1.1//EN"
 "http://www.w3.org/Graphics/SVG/1.1/DTD/svg11.dtd">
<!-- Generated by graphviz version 2.40.1 (20161225.0304)
 -->
<!-- Title: ports Pages: 1 -->
<svg width="434pt" height="764pt"
 viewBox="72.00 72.00 362.00 692.00" xmlns="http://www.w3.org/2000/svg" xmlns:xlink="http://www.w3.org/1999/xlink">
<g id="graph0" class="graph" transform="scale(1 1) rotate(0) translate(76 688)">
<title>ports</title>
<polygon fill="#ffffff" stroke="transparent" points="-4,4 -4,-616 286,-616 286,4 -4,4"/>
<text text-anchor="start" x="8" y="-18" font-family="Courier,monospace" font-size="10.00" fill="#8b8989">Logtalk ports of third&#45;party software</text>
<text text-anchor="start" x="8" y="-7" font-family="Courier,monospace" font-size="10.00" fill="#8b8989">Generated on 2019/04/14, 19:31</text>
<g id="clust1" class="cluster">
<title>cluster_rlibrary_ports</title>
<g id="a_clust1"><a xlink:href="https://github.com/LogtalkDotOrg/logtalk3/tree/master/ports/" xlink:title="https://github.com/LogtalkDotOrg/logtalk3/tree/master/ports/">
<path fill="#cdc9c9" stroke="#8b8989" d="M20,-38C20,-38 262,-38 262,-38 268,-38 274,-44 274,-50 274,-50 274,-592 274,-592 274,-598 268,-604 262,-604 262,-604 20,-604 20,-604 14,-604 8,-598 8,-592 8,-592 8,-50 8,-50 8,-44 14,-38 20,-38"/>
<text text-anchor="middle" x="31.5" y="-45" font-family="Courier,monospace" font-size="10.00" fill="#8b8989">ports</text>
</a>
</g>
</g>
<g id="clust4" class="cluster">
<title>cluster_library_metagol</title>
<g id="a_clust4"><a xlink:href="https://github.com/LogtalkDotOrg/logtalk3/tree/master/ports/metagol/" xlink:title="https://github.com/LogtalkDotOrg/logtalk3/tree/master/ports/metagol/">
<path fill="#eee9e9" stroke="#8b8989" d="M30,-67C30,-67 252,-67 252,-67 258,-67 264,-73 264,-79 264,-79 264,-364 264,-364 264,-370 258,-376 252,-376 252,-376 30,-376 30,-376 24,-376 18,-370 18,-364 18,-364 18,-79 18,-79 18,-73 24,-67 30,-67"/>
<text text-anchor="middle" x="47.5" y="-74" font-family="Courier,monospace" font-size="10.00" fill="#8b8989">metagol</text>
</a>
</g>
</g>
<g id="clust6" class="cluster">
<title>cluster_file_/Users/pmoura/logtalk/ports/metagol/metagol.lgt</title>
<g id="a_clust6"><a xlink:href="https://github.com/LogtalkDotOrg/logtalk3/tree/master/ports/metagol/metagol.lgt" xlink:title="https://github.com/LogtalkDotOrg/logtalk3/tree/master/ports/metagol/metagol.lgt">
<path fill="#fffafa" stroke="#8b8989" d="M40,-96C40,-96 242,-96 242,-96 248,-96 254,-102 254,-108 254,-108 254,-354 254,-354 254,-360 248,-366 242,-366 242,-366 40,-366 40,-366 34,-366 28,-360 28,-354 28,-354 28,-108 28,-108 28,-102 34,-96 40,-96"/>
<text text-anchor="middle" x="69.5" y="-103" font-family="Courier,monospace" font-size="10.00" fill="#8b8989">metagol.lgt</text>
</a>
</g>
</g>
<g id="clust7" class="cluster">
<title>cluster_other</title>
<g id="a_clust7"><a xlink:title="(external entities)">
<path fill="#ffffff" stroke="#8b8989" d="M88,-519C88,-519 195,-519 195,-519 201,-519 207,-525 207,-531 207,-531 207,-582 207,-582 207,-588 201,-594 195,-594 195,-594 88,-594 88,-594 82,-594 76,-588 76,-582 76,-582 76,-531 76,-531 76,-525 82,-519 88,-519"/>
<text text-anchor="middle" x="141.5" y="-526" font-family="Courier,monospace" font-size="10.00" fill="#8b8989">(external entities)</text>
</a>
</g>
</g>
<!-- metagol -->
<g id="node1" class="node">
<title>metagol</title>
<g id="a_node1"><a xlink:href="https://logtalk.org/library/metagol_0.html" xlink:title="https://logtalk.org/library/metagol_0.html">
<polygon fill="#f5f5dc" stroke="#000000" points="244,-356 38,-356 38,-125 244,-125 244,-356"/>
<g id="a_node1_0"><a xlink:href="metagol_object_xref_diagram.svg" xlink:title="Zoom">
<image xlink:href="zoom.png" width="11px" height="11px" preserveAspectRatio="xMinYMin meet" x="46" y="-351.5"/>
</a>
</g>
<text text-anchor="start" x="48.5" y="-332.3" font-family="Courier,monospace" font-size="9.00" fill="#000000"> </text>
<text text-anchor="start" x="120" y="-331.7" font-family="Courier,monospace" font-size="11.00" fill="#000000">metagol</text>
<text text-anchor="start" x="230" y="-332.3" font-family="Courier,monospace" font-size="9.00" fill="#000000"> </text>
<text text-anchor="start" x="48.5" y="-321.3" font-family="Courier,monospace" font-size="9.00" fill="#000000"> </text>
<text text-anchor="start" x="124.5" y="-321.9" font-family="Courier,monospace" font-size="7.00" fill="#000000">prototype</text>
<text text-anchor="start" x="230" y="-321.3" font-family="Courier,monospace" font-size="9.00" fill="#000000"> </text>
<text text-anchor="start" x="48.5" y="-311.3" font-family="Courier,monospace" font-size="9.00" fill="#000000"> </text>
<text text-anchor="start" x="48.5" y="-301.3" font-family="Courier,monospace" font-size="9.00" fill="#000000"> </text>
<text text-anchor="start" x="124.5" y="-301.3" font-family="Courier,monospace" font-size="9.00" fill="#000000">learn/3</text>
<text text-anchor="start" x="230" y="-301.3" font-family="Courier,monospace" font-size="9.00" fill="#000000"> </text>
<text text-anchor="start" x="48.5" y="-291.3" font-family="Courier,monospace" font-size="9.00" fill="#000000"> </text>
<text text-anchor="start" x="124.5" y="-291.3" font-family="Courier,monospace" font-size="9.00" fill="#000000">learn/2</text>
<text text-anchor="start" x="230" y="-291.3" font-family="Courier,monospace" font-size="9.00" fill="#000000"> </text>
<text text-anchor="start" x="48.5" y="-281.3" font-family="Courier,monospace" font-size="9.00" fill="#000000"> </text>
<text text-anchor="start" x="113.5" y="-281.3" font-family="Courier,monospace" font-size="9.00" fill="#000000">learn_seq/2</text>
<text text-anchor="start" x="230" y="-281.3" font-family="Courier,monospace" font-size="9.00" fill="#000000"> </text>
<text text-anchor="start" x="48.5" y="-271.3" font-family="Courier,monospace" font-size="9.00" fill="#000000"> </text>
<text text-anchor="start" x="116" y="-271.3" font-family="Courier,monospace" font-size="9.00" fill="#000000">pclauses/2</text>
<text text-anchor="start" x="230" y="-271.3" font-family="Courier,monospace" font-size="9.00" fill="#000000"> </text>
<text text-anchor="start" x="48.5" y="-261.3" font-family="Courier,monospace" font-size="9.00" fill="#000000"> </text>
<text text-anchor="start" x="121.5" y="-261.3" font-family="Courier,monospace" font-size="9.00" fill="#000000">pprint/1</text>
<text text-anchor="start" x="230" y="-261.3" font-family="Courier,monospace" font-size="9.00" fill="#000000"> </text>
<text text-anchor="start" x="48.5" y="-251.3" font-family="Courier,monospace" font-size="9.00" fill="#000000"> </text>
<text text-anchor="start" x="116" y="-251.3" font-family="Courier,monospace" font-size="9.00" fill="#000000">metarule/7</text>
<text text-anchor="start" x="230" y="-251.3" font-family="Courier,monospace" font-size="9.00" fill="#000000"> </text>
<text text-anchor="start" x="48.5" y="-241.3" font-family="Courier,monospace" font-size="9.00" fill="#000000"> </text>
<text text-anchor="start" x="102.5" y="-241.3" font-family="Courier,monospace" font-size="9.00" fill="#000000">metarule_init/6</text>
<text text-anchor="start" x="230" y="-241.3" font-family="Courier,monospace" font-size="9.00" fill="#000000"> </text>
<text text-anchor="start" x="48.5" y="-231.3" font-family="Courier,monospace" font-size="9.00" fill="#000000"> </text>
<text text-anchor="start" x="127" y="-231.3" font-family="Courier,monospace" font-size="9.00" fill="#000000">prim/1</text>
<text text-anchor="start" x="230" y="-231.3" font-family="Courier,monospace" font-size="9.00" fill="#000000"> </text>
<text text-anchor="start" x="48.5" y="-221.3" font-family="Courier,monospace" font-size="9.00" fill="#000000"> </text>
<text text-anchor="start" x="116" y="-221.3" font-family="Courier,monospace" font-size="9.00" fill="#000000">primcall/2</text>
<text text-anchor="start" x="230" y="-221.3" font-family="Courier,monospace" font-size="9.00" fill="#000000"> </text>
<text text-anchor="start" x="48.5" y="-211.3" font-family="Courier,monospace" font-size="9.00" fill="#000000"> </text>
<text text-anchor="start" x="100" y="-211.3" font-family="Courier,monospace" font-size="9.00" fill="#000000">interpreted_bk/2</text>
<text text-anchor="start" x="230" y="-211.3" font-family="Courier,monospace" font-size="9.00" fill="#000000"> </text>
<text text-anchor="start" x="48.5" y="-201.3" font-family="Courier,monospace" font-size="9.00" fill="#000000"> </text>
<text text-anchor="start" x="111" y="-201.3" font-family="Courier,monospace" font-size="9.00" fill="#000000">functional/0</text>
<text text-anchor="start" x="230" y="-201.3" font-family="Courier,monospace" font-size="9.00" fill="#000000"> </text>
<text text-anchor="start" x="48.5" y="-191.3" font-family="Courier,monospace" font-size="9.00" fill="#000000"> </text>
<text text-anchor="start" x="100" y="-191.3" font-family="Courier,monospace" font-size="9.00" fill="#000000">unfold_program/0</text>
<text text-anchor="start" x="230" y="-191.3" font-family="Courier,monospace" font-size="9.00" fill="#000000"> </text>
<text text-anchor="start" x="48.5" y="-181.3" font-family="Courier,monospace" font-size="9.00" fill="#000000"> </text>
<text text-anchor="start" x="108" y="-181.3" font-family="Courier,monospace" font-size="9.00" fill="#000000">min_clauses/1</text>
<text text-anchor="start" x="230" y="-181.3" font-family="Courier,monospace" font-size="9.00" fill="#000000"> </text>
<text text-anchor="start" x="48.5" y="-171.3" font-family="Courier,monospace" font-size="9.00" fill="#000000"> </text>
<text text-anchor="start" x="108" y="-171.3" font-family="Courier,monospace" font-size="9.00" fill="#000000">max_clauses/1</text>
<text text-anchor="start" x="230" y="-171.3" font-family="Courier,monospace" font-size="9.00" fill="#000000"> </text>
<text text-anchor="start" x="48.5" y="-161.3" font-family="Courier,monospace" font-size="9.00" fill="#000000"> </text>
<text text-anchor="start" x="102.5" y="-161.3" font-family="Courier,monospace" font-size="9.00" fill="#000000">max_inv_preds/1</text>
<text text-anchor="start" x="230" y="-161.3" font-family="Courier,monospace" font-size="9.00" fill="#000000"> </text>
<text text-anchor="start" x="48.5" y="-151.3" font-family="Courier,monospace" font-size="9.00" fill="#000000"> </text>
<text text-anchor="start" x="94.5" y="-151.3" font-family="Courier,monospace" font-size="9.00" fill="#000000">metarule_next_id/1</text>
<text text-anchor="start" x="230" y="-151.3" font-family="Courier,monospace" font-size="9.00" fill="#000000"> </text>
<text text-anchor="start" x="48.5" y="-141.3" font-family="Courier,monospace" font-size="9.00" fill="#000000"> </text>
<text text-anchor="start" x="73" y="-141.3" font-family="Courier,monospace" font-size="9.00" fill="#000000">logtalk::message_tokens//2</text>
<text text-anchor="start" x="230" y="-141.3" font-family="Courier,monospace" font-size="9.00" fill="#000000"> </text>
<text text-anchor="start" x="48.5" y="-131.3" font-family="Courier,monospace" font-size="9.00" fill="#000000"> </text>
<text text-anchor="start" x="57" y="-131.3" font-family="Courier,monospace" font-size="9.00" fill="#000000">logtalk::message_prefix_stream/4</text>
<text text-anchor="start" x="230" y="-131.3" font-family="Courier,monospace" font-size="9.00" fill="#000000"> </text>
</a>
</g>
</g>
<!-- expanding -->
<g id="node2" class="node">
<title>expanding</title>
<g id="a_node2"><a xlink:title="built&#45;in protocol">
<polygon fill="#7fffd4" stroke="#000000" stroke-dasharray="5,2" points="185,-584 91,-584 91,-548 191,-548 191,-578 185,-584"/>
<polyline fill="none" stroke="#000000" stroke-dasharray="5,2" points="185,-584 185,-578 "/>
<polyline fill="none" stroke="#000000" stroke-dasharray="5,2" points="191,-578 185,-578 "/>
<text text-anchor="start" x="99" y="-568.8" font-family="Courier,monospace" font-size="9.00" fill="#000000"> </text>
<text text-anchor="start" x="111" y="-568.2" font-family="Courier,monospace" font-size="11.00" fill="#000000">expanding</text>
<text text-anchor="start" x="177" y="-568.8" font-family="Courier,monospace" font-size="9.00" fill="#000000"> </text>
<text text-anchor="start" x="99" y="-557.8" font-family="Courier,monospace" font-size="9.00" fill="#000000"> </text>
<text text-anchor="start" x="105" y="-558.4" font-family="Courier,monospace" font-size="7.00" fill="#000000">built&#45;in protocol</text>
<text text-anchor="start" x="177" y="-557.8" font-family="Courier,monospace" font-size="9.00" fill="#000000"> </text>
</a>
</g>
</g>
<!-- metagol&#45;&gt;expanding -->
<g id="edge1" class="edge">
<title>metagol&#45;&gt;expanding</title>
<g id="a_edge1"><a xlink:href="https://logtalk.org/library/metagol_0.html" xlink:title="implements">
<path fill="none" stroke="#000000" d="M141,-356.1756C141,-422.2599 141,-499.6737 141,-539.4411"/>
<ellipse fill="#000000" stroke="#000000" cx="141" cy="-543.7967" rx="4" ry="4"/>
</a>
</g>
<g id="a_edge1&#45;label"><a xlink:href="https://logtalk.org/library/metagol_0.html" xlink:title="https://logtalk.org/library/metagol_0.html">
<text text-anchor="start" x="141" y="-449.8" font-family="Courier,monospace" font-size="9.00" fill="#000000">implements</text>
</a>
</g>
</g>
</g>
</svg>
