<?xml version="1.0" encoding="UTF-8" standalone="no"?>
<!DOCTYPE svg PUBLIC "-//W3C//DTD SVG 1.1//EN"
 "http://www.w3.org/Graphics/SVG/1.1/DTD/svg11.dtd">
<!-- Generated by graphviz version 2.38.0 (20140413.2041)
 -->
<!-- Title: ports Pages: 1 -->
<svg width="391pt" height="631pt"
 viewBox="72.00 72.00 319.00 559.00" xmlns="http://www.w3.org/2000/svg" xmlns:xlink="http://www.w3.org/1999/xlink">
<g id="graph0" class="graph" transform="scale(1 1) rotate(0) translate(76 555)">
<title>ports</title>
<polygon fill="white" stroke="none" points="-4,4 -4,-483 243,-483 243,4 -4,4"/>
<text text-anchor="start" x="8" y="-18" font-family="Courier,monospace" font-size="10.00" fill="#8b8989">Logtalk ports of third&#45;party software</text>
<text text-anchor="start" x="8" y="-7" font-family="Courier,monospace" font-size="10.00" fill="#8b8989">Generated on 2018/12/30, 19:34</text>
<g id="clust1" class="cluster"><title>cluster_rlibrary_ports</title>
<g id="a_clust1"><a xlink:href="https://github.com/LogtalkDotOrg/logtalk3/tree/master/ports/" xlink:title="https://github.com/LogtalkDotOrg/logtalk3/tree/master/ports/">
<path fill="#cdc9c9" stroke="#8b8989" d="M38.5,-38C38.5,-38 200.5,-38 200.5,-38 206.5,-38 212.5,-44 212.5,-50 212.5,-50 212.5,-459 212.5,-459 212.5,-465 206.5,-471 200.5,-471 200.5,-471 38.5,-471 38.5,-471 32.5,-471 26.5,-465 26.5,-459 26.5,-459 26.5,-50 26.5,-50 26.5,-44 32.5,-38 38.5,-38"/>
<text text-anchor="middle" x="50" y="-45" font-family="Courier,monospace" font-size="10.00" fill="#8b8989">ports</text>
</a>
</g>
</g>
<g id="clust4" class="cluster"><title>cluster_library_metagol</title>
<g id="a_clust4"><a xlink:href="https://github.com/LogtalkDotOrg/logtalk3/tree/master/ports/metagol/" xlink:title="https://github.com/LogtalkDotOrg/logtalk3/tree/master/ports/metagol/">
<path fill="#eee9e9" stroke="#8b8989" d="M48.5,-67C48.5,-67 190.5,-67 190.5,-67 196.5,-67 202.5,-73 202.5,-79 202.5,-79 202.5,-323 202.5,-323 202.5,-329 196.5,-335 190.5,-335 190.5,-335 48.5,-335 48.5,-335 42.5,-335 36.5,-329 36.5,-323 36.5,-323 36.5,-79 36.5,-79 36.5,-73 42.5,-67 48.5,-67"/>
<text text-anchor="middle" x="66" y="-74" font-family="Courier,monospace" font-size="10.00" fill="#8b8989">metagol</text>
</a>
</g>
</g>
<g id="clust6" class="cluster"><title>cluster_file_/Users/pmoura/logtalk/ports/metagol/metagol.lgt</title>
<g id="a_clust6"><a xlink:href="https://github.com/LogtalkDotOrg/logtalk3/tree/master/ports/metagol/metagol.lgt" xlink:title="https://github.com/LogtalkDotOrg/logtalk3/tree/master/ports/metagol/metagol.lgt">
<path fill="snow" stroke="#8b8989" d="M58.5,-96C58.5,-96 180.5,-96 180.5,-96 186.5,-96 192.5,-102 192.5,-108 192.5,-108 192.5,-313 192.5,-313 192.5,-319 186.5,-325 180.5,-325 180.5,-325 58.5,-325 58.5,-325 52.5,-325 46.5,-319 46.5,-313 46.5,-313 46.5,-108 46.5,-108 46.5,-102 52.5,-96 58.5,-96"/>
<text text-anchor="middle" x="88" y="-103" font-family="Courier,monospace" font-size="10.00" fill="#8b8989">metagol.lgt</text>
</a>
</g>
</g>
<g id="clust7" class="cluster"><title>cluster_other</title>
<g id="a_clust7"><a xlink:title="(external entities)">
<path fill="white" stroke="#8b8989" d="M66.5,-386C66.5,-386 173.5,-386 173.5,-386 179.5,-386 185.5,-392 185.5,-398 185.5,-398 185.5,-449 185.5,-449 185.5,-455 179.5,-461 173.5,-461 173.5,-461 66.5,-461 66.5,-461 60.5,-461 54.5,-455 54.5,-449 54.5,-449 54.5,-398 54.5,-398 54.5,-392 60.5,-386 66.5,-386"/>
<text text-anchor="middle" x="120" y="-393" font-family="Courier,monospace" font-size="10.00" fill="#8b8989">(external entities)</text>
</a>
</g>
</g>
<!-- metagol -->
<g id="node1" class="node"><title>metagol</title>
<g id="a_node1"><a xlink:href="https://logtalk.org/library/metagol_0.html" xlink:title="https://logtalk.org/library/metagol_0.html">
<polygon fill="beige" stroke="black" points="182.5,-315 56.5,-315 56.5,-125 182.5,-125 182.5,-315"/>
<text text-anchor="start" x="64.5" y="-302.8" font-family="Courier,monospace" font-size="9.00"> </text>
<text text-anchor="start" x="96" y="-302.2" font-family="Courier,monospace" font-size="11.00">metagol</text>
<text text-anchor="start" x="168.5" y="-302.8" font-family="Courier,monospace" font-size="9.00"> </text>
<text text-anchor="start" x="64.5" y="-291.8" font-family="Courier,monospace" font-size="9.00"> </text>
<text text-anchor="start" x="100.5" y="-292.4" font-family="Courier,monospace" font-size="7.00">prototype</text>
<text text-anchor="start" x="168.5" y="-291.8" font-family="Courier,monospace" font-size="9.00"> </text>
<text text-anchor="start" x="64.5" y="-281.8" font-family="Courier,monospace" font-size="9.00"> </text>
<text text-anchor="start" x="64.5" y="-271.8" font-family="Courier,monospace" font-size="9.00"> </text>
<text text-anchor="start" x="100.5" y="-271.8" font-family="Courier,monospace" font-size="9.00">learn/2</text>
<text text-anchor="start" x="168.5" y="-271.8" font-family="Courier,monospace" font-size="9.00"> </text>
<text text-anchor="start" x="64.5" y="-261.8" font-family="Courier,monospace" font-size="9.00"> </text>
<text text-anchor="start" x="100.5" y="-261.8" font-family="Courier,monospace" font-size="9.00">learn/3</text>
<text text-anchor="start" x="168.5" y="-261.8" font-family="Courier,monospace" font-size="9.00"> </text>
<text text-anchor="start" x="64.5" y="-251.8" font-family="Courier,monospace" font-size="9.00"> </text>
<text text-anchor="start" x="89.5" y="-251.8" font-family="Courier,monospace" font-size="9.00">learn_seq/2</text>
<text text-anchor="start" x="168.5" y="-251.8" font-family="Courier,monospace" font-size="9.00"> </text>
<text text-anchor="start" x="64.5" y="-241.8" font-family="Courier,monospace" font-size="9.00"> </text>
<text text-anchor="start" x="97.5" y="-241.8" font-family="Courier,monospace" font-size="9.00">pprint/1</text>
<text text-anchor="start" x="168.5" y="-241.8" font-family="Courier,monospace" font-size="9.00"> </text>
<text text-anchor="start" x="64.5" y="-231.8" font-family="Courier,monospace" font-size="9.00"> </text>
<text text-anchor="start" x="92" y="-231.8" font-family="Courier,monospace" font-size="9.00">metarule/7</text>
<text text-anchor="start" x="168.5" y="-231.8" font-family="Courier,monospace" font-size="9.00"> </text>
<text text-anchor="start" x="64.5" y="-221.8" font-family="Courier,monospace" font-size="9.00"> </text>
<text text-anchor="start" x="78.5" y="-221.8" font-family="Courier,monospace" font-size="9.00">metarule_init/6</text>
<text text-anchor="start" x="168.5" y="-221.8" font-family="Courier,monospace" font-size="9.00"> </text>
<text text-anchor="start" x="64.5" y="-211.8" font-family="Courier,monospace" font-size="9.00"> </text>
<text text-anchor="start" x="103" y="-211.8" font-family="Courier,monospace" font-size="9.00">prim/1</text>
<text text-anchor="start" x="168.5" y="-211.8" font-family="Courier,monospace" font-size="9.00"> </text>
<text text-anchor="start" x="64.5" y="-201.8" font-family="Courier,monospace" font-size="9.00"> </text>
<text text-anchor="start" x="92" y="-201.8" font-family="Courier,monospace" font-size="9.00">primcall/2</text>
<text text-anchor="start" x="168.5" y="-201.8" font-family="Courier,monospace" font-size="9.00"> </text>
<text text-anchor="start" x="64.5" y="-191.8" font-family="Courier,monospace" font-size="9.00"> </text>
<text text-anchor="start" x="76" y="-191.8" font-family="Courier,monospace" font-size="9.00">interpreted_bk/2</text>
<text text-anchor="start" x="168.5" y="-191.8" font-family="Courier,monospace" font-size="9.00"> </text>
<text text-anchor="start" x="64.5" y="-181.8" font-family="Courier,monospace" font-size="9.00"> </text>
<text text-anchor="start" x="87" y="-181.8" font-family="Courier,monospace" font-size="9.00">functional/0</text>
<text text-anchor="start" x="168.5" y="-181.8" font-family="Courier,monospace" font-size="9.00"> </text>
<text text-anchor="start" x="64.5" y="-171.8" font-family="Courier,monospace" font-size="9.00"> </text>
<text text-anchor="start" x="76" y="-171.8" font-family="Courier,monospace" font-size="9.00">unfold_program/0</text>
<text text-anchor="start" x="168.5" y="-171.8" font-family="Courier,monospace" font-size="9.00"> </text>
<text text-anchor="start" x="64.5" y="-161.8" font-family="Courier,monospace" font-size="9.00"> </text>
<text text-anchor="start" x="84" y="-161.8" font-family="Courier,monospace" font-size="9.00">min_clauses/1</text>
<text text-anchor="start" x="168.5" y="-161.8" font-family="Courier,monospace" font-size="9.00"> </text>
<text text-anchor="start" x="64.5" y="-151.8" font-family="Courier,monospace" font-size="9.00"> </text>
<text text-anchor="start" x="84" y="-151.8" font-family="Courier,monospace" font-size="9.00">max_clauses/1</text>
<text text-anchor="start" x="168.5" y="-151.8" font-family="Courier,monospace" font-size="9.00"> </text>
<text text-anchor="start" x="64.5" y="-141.8" font-family="Courier,monospace" font-size="9.00"> </text>
<text text-anchor="start" x="78.5" y="-141.8" font-family="Courier,monospace" font-size="9.00">max_inv_preds/1</text>
<text text-anchor="start" x="168.5" y="-141.8" font-family="Courier,monospace" font-size="9.00"> </text>
<text text-anchor="start" x="64.5" y="-131.8" font-family="Courier,monospace" font-size="9.00"> </text>
<text text-anchor="start" x="70.5" y="-131.8" font-family="Courier,monospace" font-size="9.00">metarule_next_id/1</text>
<text text-anchor="start" x="168.5" y="-131.8" font-family="Courier,monospace" font-size="9.00"> </text>
</a>
</g>
</g>
<!-- expanding -->
<g id="node2" class="node"><title>expanding</title>
<g id="a_node2"><a xlink:title="built&#45;in protocol">
<polygon fill="aquamarine" stroke="black" stroke-dasharray="5,2" points="163.5,-451 69.5,-451 69.5,-415 169.5,-415 169.5,-445 163.5,-451"/>
<polyline fill="none" stroke="black" stroke-dasharray="5,2" points="163.5,-451 163.5,-445 "/>
<polyline fill="none" stroke="black" stroke-dasharray="5,2" points="169.5,-445 163.5,-445 "/>
<text text-anchor="start" x="77.5" y="-435.8" font-family="Courier,monospace" font-size="9.00"> </text>
<text text-anchor="start" x="89.5" y="-435.2" font-family="Courier,monospace" font-size="11.00">expanding</text>
<text text-anchor="start" x="155.5" y="-435.8" font-family="Courier,monospace" font-size="9.00"> </text>
<text text-anchor="start" x="77.5" y="-424.8" font-family="Courier,monospace" font-size="9.00"> </text>
<text text-anchor="start" x="83.5" y="-425.4" font-family="Courier,monospace" font-size="7.00">built&#45;in protocol</text>
<text text-anchor="start" x="155.5" y="-424.8" font-family="Courier,monospace" font-size="9.00"> </text>
</a>
</g>
</g>
<!-- metagol&#45;&gt;expanding -->
<g id="edge1" class="edge"><title>metagol&#45;&gt;expanding</title>
<g id="a_edge1"><a xlink:href="https://github.com/LogtalkDotOrg/logtalk3/tree/master/ports/metagol/" xlink:title="implements">
<path fill="none" stroke="black" d="M119.5,-315.084C119.5,-348.606 119.5,-383.683 119.5,-406.564"/>
<ellipse fill="black" stroke="black" cx="119.5" cy="-410.708" rx="4" ry="4"/>
</a>
</g>
<g id="a_edge1&#45;label"><a xlink:href="https://github.com/LogtalkDotOrg/logtalk3/tree/master/ports/metagol/" xlink:title="https://github.com/LogtalkDotOrg/logtalk3/tree/master/ports/metagol/">
<text text-anchor="start" x="119.5" y="-362.8" font-family="Courier,monospace" font-size="9.00">implements</text>
</a>
</g>
</g>
</g>
</svg>
