<?xml version="1.0" encoding="UTF-8" standalone="no"?>
<?xml-stylesheet href="diagrams.css" type="text/css"?>
<!DOCTYPE svg PUBLIC "-//W3C//DTD SVG 1.1//EN"
 "http://www.w3.org/Graphics/SVG/1.1/DTD/svg11.dtd">
<!-- Generated by graphviz version 2.50.0 (20211204.2007)
 -->
<!-- Title: ports Pages: 1 -->
<svg width="808pt" height="689pt"
 viewBox="72.00 72.00 736.00 617.00" xmlns="http://www.w3.org/2000/svg" xmlns:xlink="http://www.w3.org/1999/xlink">
<g id="graph0" class="graph" transform="scale(1 1) rotate(0) translate(76 613)">
<title>ports</title>
<polygon fill="white" stroke="transparent" points="-4,4 -4,-541 660,-541 660,4 -4,4"/>
<text text-anchor="start" x="8" y="-29" font-family="Monospace" font-size="10.00" fill="dimgray">Logtalk ports of third&#45;party software</text>
<text text-anchor="start" x="8" y="-18" font-family="Monospace" font-size="10.00" fill="dimgray">Inheritance diagram for library ports</text>
<text text-anchor="start" x="8" y="-7" font-family="Monospace" font-size="10.00" fill="dimgray">Generated on 2022&#45;05&#45;12, 23:15</text>
<g id="clust1" class="cluster">
<title>cluster_rlibrary_ports</title>
<g id="a_clust1"><a xlink:title="ports/">
<path fill="lightgray" stroke="dimgray" d="M20,-49C20,-49 636,-49 636,-49 642,-49 648,-55 648,-61 648,-61 648,-517 648,-517 648,-523 642,-529 636,-529 636,-529 20,-529 20,-529 14,-529 8,-523 8,-517 8,-517 8,-61 8,-61 8,-55 14,-49 20,-49"/>
<g id="a_clust1_0"><a xlink:href="https://github.com/LogtalkDotOrg/logtalk3/tree/b2106def9e047f2e1729a1233d7152c41027edbd/ports/" xlink:title="https://github.com/LogtalkDotOrg/logtalk3/tree/b2106def9e047f2e1729a1233d7152c41027edbd/ports/">
<text text-anchor="start" x="20.5" y="-59.5" font-family="Monospace" font-size="10.00" fill="dimgray">ports/</text>
</a>
</g>
</a>
</g>
</g>
<g id="clust8" class="cluster">
<title>cluster_library_toychr</title>
<g id="a_clust8"><a xlink:title="toychr/">
<path fill="whitesmoke" stroke="dimgray" d="M508,-146C508,-146 626,-146 626,-146 632,-146 638,-152 638,-158 638,-158 638,-349 638,-349 638,-355 632,-361 626,-361 626,-361 508,-361 508,-361 502,-361 496,-355 496,-349 496,-349 496,-158 496,-158 496,-152 502,-146 508,-146"/>
<g id="a_clust8_1"><a xlink:href="https://github.com/LogtalkDotOrg/logtalk3/tree/b2106def9e047f2e1729a1233d7152c41027edbd/ports/toychr/" xlink:title="https://github.com/LogtalkDotOrg/logtalk3/tree/b2106def9e047f2e1729a1233d7152c41027edbd/ports/toychr/">
<text text-anchor="start" x="508.5" y="-156.5" font-family="Monospace" font-size="10.00" fill="dimgray">toychr/</text>
</a>
</g>
</a>
</g>
</g>
<g id="clust10" class="cluster">
<title>cluster_file_/Users/pmoura/logtalk/ports/toychr/toychrdb.lgt</title>
<g id="a_clust10"><a xlink:title="toychrdb.lgt">
<path fill="snow" stroke="dimgray" d="M518,-183C518,-183 616,-183 616,-183 622,-183 628,-189 628,-195 628,-195 628,-339 628,-339 628,-345 622,-351 616,-351 616,-351 518,-351 518,-351 512,-351 506,-345 506,-339 506,-339 506,-195 506,-195 506,-189 512,-183 518,-183"/>
<g id="a_clust10_2"><a xlink:href="https://github.com/LogtalkDotOrg/logtalk3/tree/b2106def9e047f2e1729a1233d7152c41027edbd/ports/toychr/toychrdb.lgt" xlink:title="https://github.com/LogtalkDotOrg/logtalk3/tree/b2106def9e047f2e1729a1233d7152c41027edbd/ports/toychr/toychrdb.lgt">
<text text-anchor="start" x="518.5" y="-193.5" font-family="Monospace" font-size="10.00" fill="dimgray">toychrdb.lgt</text>
</a>
</g>
</a>
</g>
</g>
<g id="clust4" class="cluster">
<title>cluster_library_metagol</title>
<g id="a_clust4"><a xlink:title="metagol/">
<path fill="whitesmoke" stroke="dimgray" d="M30,-86C30,-86 474,-86 474,-86 480,-86 486,-92 486,-98 486,-98 486,-409 486,-409 486,-415 480,-421 474,-421 474,-421 30,-421 30,-421 24,-421 18,-415 18,-409 18,-409 18,-98 18,-98 18,-92 24,-86 30,-86"/>
<g id="a_clust4_3"><a xlink:href="https://github.com/LogtalkDotOrg/logtalk3/tree/b2106def9e047f2e1729a1233d7152c41027edbd/ports/metagol/" xlink:title="https://github.com/LogtalkDotOrg/logtalk3/tree/b2106def9e047f2e1729a1233d7152c41027edbd/ports/metagol/">
<text text-anchor="start" x="30.5" y="-96.5" font-family="Monospace" font-size="10.00" fill="dimgray">metagol/</text>
</a>
</g>
</a>
</g>
</g>
<g id="clust7" class="cluster">
<title>cluster_file_/Users/pmoura/logtalk/ports/metagol/metagol_example_protocol.lgt</title>
<g id="a_clust7"><a xlink:title="metagol_example_protocol.lgt">
<path fill="snow" stroke="dimgray" d="M272,-208C272,-208 464,-208 464,-208 470,-208 476,-214 476,-220 476,-220 476,-314 476,-314 476,-320 470,-326 464,-326 464,-326 272,-326 272,-326 266,-326 260,-320 260,-314 260,-314 260,-220 260,-220 260,-214 266,-208 272,-208"/>
<g id="a_clust7_4"><a xlink:href="https://github.com/LogtalkDotOrg/logtalk3/tree/b2106def9e047f2e1729a1233d7152c41027edbd/ports/metagol/metagol_example_protocol.lgt" xlink:title="https://github.com/LogtalkDotOrg/logtalk3/tree/b2106def9e047f2e1729a1233d7152c41027edbd/ports/metagol/metagol_example_protocol.lgt">
<text text-anchor="start" x="272.5" y="-218.5" font-family="Monospace" font-size="10.00" fill="dimgray">metagol_example_protocol.lgt</text>
</a>
</g>
</a>
</g>
</g>
<g id="clust6" class="cluster">
<title>cluster_file_/Users/pmoura/logtalk/ports/metagol/metagol.lgt</title>
<g id="a_clust6"><a xlink:title="metagol.lgt">
<path fill="snow" stroke="dimgray" d="M40,-123C40,-123 238,-123 238,-123 244,-123 250,-129 250,-135 250,-135 250,-399 250,-399 250,-405 244,-411 238,-411 238,-411 40,-411 40,-411 34,-411 28,-405 28,-399 28,-399 28,-135 28,-135 28,-129 34,-123 40,-123"/>
<g id="a_clust6_5"><a xlink:href="https://github.com/LogtalkDotOrg/logtalk3/tree/b2106def9e047f2e1729a1233d7152c41027edbd/ports/metagol/metagol.lgt" xlink:title="https://github.com/LogtalkDotOrg/logtalk3/tree/b2106def9e047f2e1729a1233d7152c41027edbd/ports/metagol/metagol.lgt">
<text text-anchor="start" x="40.5" y="-133.5" font-family="Monospace" font-size="10.00" fill="dimgray">metagol.lgt</text>
</a>
</g>
</a>
</g>
</g>
<!-- metagol -->
<g id="node1" class="node">
<title>metagol</title>
<g id="a_node1"><a xlink:href="https://logtalk.org/library/metagol_0.html" xlink:title="https://logtalk.org/library/metagol_0.html">
<polygon fill="cornsilk" stroke="black" points="240,-401 38,-401 38,-160 240,-160 240,-401"/>
<g id="a_node1_6"><a xlink:href="metagol_object_xref_diagram.svg" xlink:title="Zoom">
<image xlink:href="zoom.png" width="11px" height="11px" preserveAspectRatio="xMinYMin meet" x="46" y="-396.5"/>
</a>
</g>
<text text-anchor="start" x="48.5" y="-377.3" font-family="Monospace" font-size="9.00"> </text>
<text text-anchor="start" x="117.5" y="-376.7" font-family="Monospace" font-size="11.00">metagol</text>
<text text-anchor="start" x="226" y="-377.3" font-family="Monospace" font-size="9.00"> </text>
<text text-anchor="start" x="48.5" y="-366.3" font-family="Monospace" font-size="9.00"> </text>
<text text-anchor="start" x="121" y="-366.9" font-family="Monospace" font-size="7.00">prototype</text>
<text text-anchor="start" x="226" y="-366.3" font-family="Monospace" font-size="9.00"> </text>
<text text-anchor="start" x="48.5" y="-356.3" font-family="Monospace" font-size="9.00"> </text>
<text text-anchor="start" x="48.5" y="-346.3" font-family="Monospace" font-size="9.00"> </text>
<text text-anchor="start" x="123" y="-346.3" font-family="Monospace" font-size="9.00">learn/3</text>
<text text-anchor="start" x="226" y="-346.3" font-family="Monospace" font-size="9.00"> </text>
<text text-anchor="start" x="48.5" y="-336.3" font-family="Monospace" font-size="9.00"> </text>
<text text-anchor="start" x="123" y="-336.3" font-family="Monospace" font-size="9.00">learn/2</text>
<text text-anchor="start" x="226" y="-336.3" font-family="Monospace" font-size="9.00"> </text>
<text text-anchor="start" x="48.5" y="-326.3" font-family="Monospace" font-size="9.00"> </text>
<text text-anchor="start" x="112.5" y="-326.3" font-family="Monospace" font-size="9.00">learn_seq/2</text>
<text text-anchor="start" x="226" y="-326.3" font-family="Monospace" font-size="9.00"> </text>
<text text-anchor="start" x="48.5" y="-316.3" font-family="Monospace" font-size="9.00"> </text>
<text text-anchor="start" x="88.5" y="-316.3" font-family="Monospace" font-size="9.00">learn_with_timeout/4</text>
<text text-anchor="start" x="226" y="-316.3" font-family="Monospace" font-size="9.00"> </text>
<text text-anchor="start" x="48.5" y="-306.3" font-family="Monospace" font-size="9.00"> </text>
<text text-anchor="start" x="88.5" y="-306.3" font-family="Monospace" font-size="9.00">program_to_clauses/2</text>
<text text-anchor="start" x="226" y="-306.3" font-family="Monospace" font-size="9.00"> </text>
<text text-anchor="start" x="48.5" y="-296.3" font-family="Monospace" font-size="9.00"> </text>
<text text-anchor="start" x="120" y="-296.3" font-family="Monospace" font-size="9.00">pprint/1</text>
<text text-anchor="start" x="226" y="-296.3" font-family="Monospace" font-size="9.00"> </text>
<text text-anchor="start" x="48.5" y="-286.3" font-family="Monospace" font-size="9.00"> </text>
<text text-anchor="start" x="115" y="-286.3" font-family="Monospace" font-size="9.00">metarule/6</text>
<text text-anchor="start" x="226" y="-286.3" font-family="Monospace" font-size="9.00"> </text>
<text text-anchor="start" x="48.5" y="-276.3" font-family="Monospace" font-size="9.00"> </text>
<text text-anchor="start" x="112.5" y="-276.3" font-family="Monospace" font-size="9.00">head_pred/1</text>
<text text-anchor="start" x="226" y="-276.3" font-family="Monospace" font-size="9.00"> </text>
<text text-anchor="start" x="48.5" y="-266.3" font-family="Monospace" font-size="9.00"> </text>
<text text-anchor="start" x="112.5" y="-266.3" font-family="Monospace" font-size="9.00">body_pred/1</text>
<text text-anchor="start" x="226" y="-266.3" font-family="Monospace" font-size="9.00"> </text>
<text text-anchor="start" x="48.5" y="-256.3" font-family="Monospace" font-size="9.00"> </text>
<text text-anchor="start" x="128" y="-256.3" font-family="Monospace" font-size="9.00">ibk/3</text>
<text text-anchor="start" x="226" y="-256.3" font-family="Monospace" font-size="9.00"> </text>
<text text-anchor="start" x="48.5" y="-246.3" font-family="Monospace" font-size="9.00"> </text>
<text text-anchor="start" x="112.5" y="-246.3" font-family="Monospace" font-size="9.00">func_test/3</text>
<text text-anchor="start" x="226" y="-246.3" font-family="Monospace" font-size="9.00"> </text>
<text text-anchor="start" x="48.5" y="-236.3" font-family="Monospace" font-size="9.00"> </text>
<text text-anchor="start" x="109.5" y="-236.3" font-family="Monospace" font-size="9.00">functional/0</text>
<text text-anchor="start" x="226" y="-236.3" font-family="Monospace" font-size="9.00"> </text>
<text text-anchor="start" x="48.5" y="-226.3" font-family="Monospace" font-size="9.00"> </text>
<text text-anchor="start" x="107" y="-226.3" font-family="Monospace" font-size="9.00">min_clauses/1</text>
<text text-anchor="start" x="226" y="-226.3" font-family="Monospace" font-size="9.00"> </text>
<text text-anchor="start" x="48.5" y="-216.3" font-family="Monospace" font-size="9.00"> </text>
<text text-anchor="start" x="107" y="-216.3" font-family="Monospace" font-size="9.00">max_clauses/1</text>
<text text-anchor="start" x="226" y="-216.3" font-family="Monospace" font-size="9.00"> </text>
<text text-anchor="start" x="48.5" y="-206.3" font-family="Monospace" font-size="9.00"> </text>
<text text-anchor="start" x="102" y="-206.3" font-family="Monospace" font-size="9.00">max_inv_preds/1</text>
<text text-anchor="start" x="226" y="-206.3" font-family="Monospace" font-size="9.00"> </text>
<text text-anchor="start" x="48.5" y="-196.3" font-family="Monospace" font-size="9.00"> </text>
<text text-anchor="start" x="94" y="-196.3" font-family="Monospace" font-size="9.00">metarule_next_id/1</text>
<text text-anchor="start" x="226" y="-196.3" font-family="Monospace" font-size="9.00"> </text>
<text text-anchor="start" x="48.5" y="-186.3" font-family="Monospace" font-size="9.00"> </text>
<text text-anchor="start" x="117.5" y="-186.3" font-family="Monospace" font-size="9.00">timeout/1</text>
<text text-anchor="start" x="226" y="-186.3" font-family="Monospace" font-size="9.00"> </text>
<text text-anchor="start" x="48.5" y="-176.3" font-family="Monospace" font-size="9.00"> </text>
<text text-anchor="start" x="73" y="-176.3" font-family="Monospace" font-size="9.00">logtalk::message_tokens//2</text>
<text text-anchor="start" x="226" y="-176.3" font-family="Monospace" font-size="9.00"> </text>
<text text-anchor="start" x="48.5" y="-166.3" font-family="Monospace" font-size="9.00"> </text>
<text text-anchor="start" x="57" y="-166.3" font-family="Monospace" font-size="9.00">logtalk::message_prefix_stream/4</text>
<text text-anchor="start" x="226" y="-166.3" font-family="Monospace" font-size="9.00"> </text>
</a>
</g>
</g>
<!-- expanding -->
<g id="node4" class="node">
<title>expanding</title>
<g id="a_node4"><a xlink:href="https://logtalk.org/library/expanding_0.html" xlink:title="https://logtalk.org/library/expanding_0.html">
<polygon fill="mediumaquamarine" stroke="black" stroke-dasharray="5,2" points="311.5,-519 212.5,-519 212.5,-483 317.5,-483 317.5,-513 311.5,-519"/>
<polyline fill="none" stroke="black" stroke-dasharray="5,2" points="311.5,-519 311.5,-513 "/>
<polyline fill="none" stroke="black" stroke-dasharray="5,2" points="317.5,-513 311.5,-513 "/>
<text text-anchor="start" x="221" y="-503.8" font-family="Monospace" font-size="9.00"> </text>
<text text-anchor="start" x="235" y="-503.2" font-family="Monospace" font-size="11.00">expanding</text>
<text text-anchor="start" x="304" y="-503.8" font-family="Monospace" font-size="9.00"> </text>
<text text-anchor="start" x="221" y="-492.8" font-family="Monospace" font-size="9.00"> </text>
<text text-anchor="start" x="227" y="-493.4" font-family="Monospace" font-size="7.00">built&#45;in protocol</text>
<text text-anchor="start" x="304" y="-492.8" font-family="Monospace" font-size="9.00"> </text>
</a>
</g>
</g>
<!-- metagol&#45;&gt;expanding -->
<g id="edge1" class="edge">
<title>metagol&#45;&gt;expanding</title>
<g id="a_edge1"><a xlink:href="https://logtalk.org/library/metagol_0.html" xlink:title="implements">
<path fill="none" stroke="black" d="M208.08,-401.3C224.48,-429.73 240.32,-457.2 251.11,-475.91"/>
<ellipse fill="black" stroke="black" cx="253.13" cy="-479.41" rx="4" ry="4"/>
</a>
</g>
<g id="a_edge1&#45;label"><a xlink:href="https://logtalk.org/library/metagol_0.html" xlink:title="https://logtalk.org/library/metagol_0.html">
<text text-anchor="start" x="231" y="-439.8" font-family="Monospace" font-size="9.00">implements</text>
</a>
</g>
</g>
<!-- metagol_example_protocol -->
<g id="node2" class="node">
<title>metagol_example_protocol</title>
<g id="a_node2"><a xlink:href="https://logtalk.org/library/metagol_example_protocol_0.html" xlink:title="https://logtalk.org/library/metagol_example_protocol_0.html">
<polygon fill="aquamarine" stroke="black" points="460,-316 270,-316 270,-245 466,-245 466,-310 460,-316"/>
<polyline fill="none" stroke="black" points="460,-316 460,-310 "/>
<polyline fill="none" stroke="black" points="466,-310 460,-310 "/>
<g id="a_node2_7"><a xlink:href="metagol_example_protocol_protocol_xref_diagram.svg" xlink:title="Zoom">
<image xlink:href="zoom.png" width="11px" height="11px" preserveAspectRatio="xMinYMin meet" x="278" y="-311.5"/>
</a>
</g>
<text text-anchor="start" x="280.5" y="-292.3" font-family="Monospace" font-size="9.00"> </text>
<text text-anchor="start" x="289" y="-291.7" font-family="Monospace" font-size="11.00">metagol_example_protocol</text>
<text text-anchor="start" x="452" y="-292.3" font-family="Monospace" font-size="9.00"> </text>
<text text-anchor="start" x="280.5" y="-281.3" font-family="Monospace" font-size="9.00"> </text>
<text text-anchor="start" x="352" y="-281.9" font-family="Monospace" font-size="7.00">protocol</text>
<text text-anchor="start" x="452" y="-281.3" font-family="Monospace" font-size="9.00"> </text>
<text text-anchor="start" x="280.5" y="-271.3" font-family="Monospace" font-size="9.00"> </text>
<text text-anchor="start" x="280.5" y="-261.3" font-family="Monospace" font-size="9.00"> </text>
<text text-anchor="start" x="352" y="-261.3" font-family="Monospace" font-size="9.00">learn/1</text>
<text text-anchor="start" x="452" y="-261.3" font-family="Monospace" font-size="9.00"> </text>
<text text-anchor="start" x="280.5" y="-251.3" font-family="Monospace" font-size="9.00"> </text>
<text text-anchor="start" x="352" y="-251.3" font-family="Monospace" font-size="9.00">learn/0</text>
<text text-anchor="start" x="452" y="-251.3" font-family="Monospace" font-size="9.00"> </text>
</a>
</g>
</g>
<!-- toychrdb -->
<g id="node3" class="node">
<title>toychrdb</title>
<g id="a_node3"><a xlink:href="https://logtalk.org/library/toychrdb_0.html" xlink:title="https://logtalk.org/library/toychrdb_0.html">
<polygon fill="cornsilk" stroke="black" points="618,-341 516,-341 516,-220 618,-220 618,-341"/>
<g id="a_node3_8"><a xlink:href="toychrdb_object_xref_diagram.svg" xlink:title="Zoom">
<image xlink:href="zoom.png" width="11px" height="11px" preserveAspectRatio="xMinYMin meet" x="524" y="-336.5"/>
</a>
</g>
<text text-anchor="start" x="526.5" y="-317.3" font-family="Monospace" font-size="9.00"> </text>
<text text-anchor="start" x="542" y="-316.7" font-family="Monospace" font-size="11.00">toychrdb</text>
<text text-anchor="start" x="604" y="-317.3" font-family="Monospace" font-size="9.00"> </text>
<text text-anchor="start" x="526.5" y="-306.3" font-family="Monospace" font-size="9.00"> </text>
<text text-anchor="start" x="549" y="-306.9" font-family="Monospace" font-size="7.00">prototype</text>
<text text-anchor="start" x="604" y="-306.3" font-family="Monospace" font-size="9.00"> </text>
<text text-anchor="start" x="526.5" y="-296.3" font-family="Monospace" font-size="9.00"> </text>
<text text-anchor="start" x="526.5" y="-286.3" font-family="Monospace" font-size="9.00"> </text>
<text text-anchor="start" x="548" y="-286.3" font-family="Monospace" font-size="9.00">chr_is/2</text>
<text text-anchor="start" x="604" y="-286.3" font-family="Monospace" font-size="9.00"> </text>
<text text-anchor="start" x="526.5" y="-276.3" font-family="Monospace" font-size="9.00"> </text>
<text text-anchor="start" x="540.5" y="-276.3" font-family="Monospace" font-size="9.00">chr_trace/0</text>
<text text-anchor="start" x="604" y="-276.3" font-family="Monospace" font-size="9.00"> </text>
<text text-anchor="start" x="526.5" y="-266.3" font-family="Monospace" font-size="9.00"> </text>
<text text-anchor="start" x="535" y="-266.3" font-family="Monospace" font-size="9.00">chr_notrace/0</text>
<text text-anchor="start" x="604" y="-266.3" font-family="Monospace" font-size="9.00"> </text>
<text text-anchor="start" x="526.5" y="-256.3" font-family="Monospace" font-size="9.00"> </text>
<text text-anchor="start" x="545.5" y="-256.3" font-family="Monospace" font-size="9.00">chr_spy/1</text>
<text text-anchor="start" x="604" y="-256.3" font-family="Monospace" font-size="9.00"> </text>
<text text-anchor="start" x="526.5" y="-246.3" font-family="Monospace" font-size="9.00"> </text>
<text text-anchor="start" x="540.5" y="-246.3" font-family="Monospace" font-size="9.00">chr_nospy/0</text>
<text text-anchor="start" x="604" y="-246.3" font-family="Monospace" font-size="9.00"> </text>
<text text-anchor="start" x="526.5" y="-236.3" font-family="Monospace" font-size="9.00"> </text>
<text text-anchor="start" x="537.5" y="-236.3" font-family="Monospace" font-size="9.00">chr_no_spy/1</text>
<text text-anchor="start" x="604" y="-236.3" font-family="Monospace" font-size="9.00"> </text>
<text text-anchor="start" x="526.5" y="-226.3" font-family="Monospace" font-size="9.00"> </text>
<text text-anchor="start" x="537.5" y="-226.3" font-family="Monospace" font-size="9.00">chr_option/2</text>
<text text-anchor="start" x="604" y="-226.3" font-family="Monospace" font-size="9.00"> </text>
</a>
</g>
</g>
<!-- toychrdb&#45;&gt;expanding -->
<g id="edge2" class="edge">
<title>toychrdb&#45;&gt;expanding</title>
<g id="a_edge2"><a xlink:href="https://logtalk.org/library/toychrdb_0.html" xlink:title="implements">
<path fill="none" stroke="black" d="M541.01,-341.24C526.48,-368.72 506.02,-399.84 480,-421 435.08,-457.52 371.72,-478.05 325.42,-488.97"/>
<ellipse fill="black" stroke="black" cx="321.47" cy="-489.88" rx="4" ry="4"/>
</a>
</g>
<g id="a_edge2&#45;label"><a xlink:href="https://logtalk.org/library/toychrdb_0.html" xlink:title="https://logtalk.org/library/toychrdb_0.html">
<text text-anchor="start" x="454" y="-439.8" font-family="Monospace" font-size="9.00">implements</text>
</a>
</g>
</g>
</g>
</svg>
