<?xml version="1.0" encoding="UTF-8" standalone="no"?>
<?xml-stylesheet href="diagrams.css" type="text/css"?>
<!DOCTYPE svg PUBLIC "-//W3C//DTD SVG 1.1//EN"
 "http://www.w3.org/Graphics/SVG/1.1/DTD/svg11.dtd">
<!-- Generated by graphviz version 2.50.0 (20211204.2007)
 -->
<!-- Title: ports Pages: 1 -->
<svg width="976pt" height="689pt"
 viewBox="72.00 72.00 904.00 617.00" xmlns="http://www.w3.org/2000/svg" xmlns:xlink="http://www.w3.org/1999/xlink">
<g id="graph0" class="graph" transform="scale(1 1) rotate(0) translate(76 613)">
<title>ports</title>
<polygon fill="white" stroke="transparent" points="-4,4 -4,-541 828,-541 828,4 -4,4"/>
<text text-anchor="start" x="8" y="-29" font-family="Monospace" font-size="10.00" fill="dimgray">Logtalk ports of third&#45;party software</text>
<text text-anchor="start" x="8" y="-18" font-family="Monospace" font-size="10.00" fill="dimgray">Inheritance diagram for library ports</text>
<text text-anchor="start" x="8" y="-7" font-family="Monospace" font-size="10.00" fill="dimgray">Generated on 2022&#45;08&#45;22, 09:31</text>
<g id="clust1" class="cluster">
<title>cluster_rlibrary_ports</title>
<g id="a_clust1"><a xlink:title="ports/">
<path fill="lightgray" stroke="dimgray" d="M20,-49C20,-49 804,-49 804,-49 810,-49 816,-55 816,-61 816,-61 816,-517 816,-517 816,-523 810,-529 804,-529 804,-529 20,-529 20,-529 14,-529 8,-523 8,-517 8,-517 8,-61 8,-61 8,-55 14,-49 20,-49"/>
<g id="a_clust1_0"><a xlink:href="https://github.com/LogtalkDotOrg/logtalk3/tree/7d0febd5583473135f91d83814717103e0062cf6/ports/" xlink:title="https://github.com/LogtalkDotOrg/logtalk3/tree/7d0febd5583473135f91d83814717103e0062cf6/ports/">
<text text-anchor="start" x="20.5" y="-59.5" font-family="Monospace" font-size="10.00" fill="dimgray">ports/</text>
</a>
</g>
</a>
</g>
</g>
<g id="clust4" class="cluster">
<title>cluster_library_fcube</title>
<g id="a_clust4"><a xlink:title="fcube/">
<path fill="whitesmoke" stroke="dimgray" d="M660,-146C660,-146 794,-146 794,-146 800,-146 806,-152 806,-158 806,-158 806,-349 806,-349 806,-355 800,-361 794,-361 794,-361 660,-361 660,-361 654,-361 648,-355 648,-349 648,-349 648,-158 648,-158 648,-152 654,-146 660,-146"/>
<g id="a_clust4_1"><a xlink:href="https://github.com/LogtalkDotOrg/logtalk3/tree/7d0febd5583473135f91d83814717103e0062cf6/ports/fcube/" xlink:title="https://github.com/LogtalkDotOrg/logtalk3/tree/7d0febd5583473135f91d83814717103e0062cf6/ports/fcube/">
<text text-anchor="start" x="660.5" y="-156.5" font-family="Monospace" font-size="10.00" fill="dimgray">fcube/</text>
</a>
</g>
</a>
</g>
</g>
<g id="clust6" class="cluster">
<title>cluster_file_/Users/pmoura/logtalk/ports/fcube/fcube.lgt</title>
<g id="a_clust6"><a xlink:title="fcube.lgt">
<path fill="snow" stroke="dimgray" d="M670,-183C670,-183 784,-183 784,-183 790,-183 796,-189 796,-195 796,-195 796,-339 796,-339 796,-345 790,-351 784,-351 784,-351 670,-351 670,-351 664,-351 658,-345 658,-339 658,-339 658,-195 658,-195 658,-189 664,-183 670,-183"/>
<g id="a_clust6_2"><a xlink:href="https://github.com/LogtalkDotOrg/logtalk3/tree/7d0febd5583473135f91d83814717103e0062cf6/ports/fcube/fcube.lgt" xlink:title="https://github.com/LogtalkDotOrg/logtalk3/tree/7d0febd5583473135f91d83814717103e0062cf6/ports/fcube/fcube.lgt">
<text text-anchor="start" x="670.5" y="-193.5" font-family="Monospace" font-size="10.00" fill="dimgray">fcube.lgt</text>
</a>
</g>
</a>
</g>
</g>
<g id="clust7" class="cluster">
<title>cluster_library_metagol</title>
<g id="a_clust7"><a xlink:title="metagol/">
<path fill="whitesmoke" stroke="dimgray" d="M182,-86C182,-86 626,-86 626,-86 632,-86 638,-92 638,-98 638,-98 638,-409 638,-409 638,-415 632,-421 626,-421 626,-421 182,-421 182,-421 176,-421 170,-415 170,-409 170,-409 170,-98 170,-98 170,-92 176,-86 182,-86"/>
<g id="a_clust7_3"><a xlink:href="https://github.com/LogtalkDotOrg/logtalk3/tree/7d0febd5583473135f91d83814717103e0062cf6/ports/metagol/" xlink:title="https://github.com/LogtalkDotOrg/logtalk3/tree/7d0febd5583473135f91d83814717103e0062cf6/ports/metagol/">
<text text-anchor="start" x="182.5" y="-96.5" font-family="Monospace" font-size="10.00" fill="dimgray">metagol/</text>
</a>
</g>
</a>
</g>
</g>
<g id="clust9" class="cluster">
<title>cluster_file_/Users/pmoura/logtalk/ports/metagol/metagol.lgt</title>
<g id="a_clust9"><a xlink:title="metagol.lgt">
<path fill="snow" stroke="dimgray" d="M418,-123C418,-123 616,-123 616,-123 622,-123 628,-129 628,-135 628,-135 628,-399 628,-399 628,-405 622,-411 616,-411 616,-411 418,-411 418,-411 412,-411 406,-405 406,-399 406,-399 406,-135 406,-135 406,-129 412,-123 418,-123"/>
<g id="a_clust9_4"><a xlink:href="https://github.com/LogtalkDotOrg/logtalk3/tree/7d0febd5583473135f91d83814717103e0062cf6/ports/metagol/metagol.lgt" xlink:title="https://github.com/LogtalkDotOrg/logtalk3/tree/7d0febd5583473135f91d83814717103e0062cf6/ports/metagol/metagol.lgt">
<text text-anchor="start" x="418.5" y="-133.5" font-family="Monospace" font-size="10.00" fill="dimgray">metagol.lgt</text>
</a>
</g>
</a>
</g>
</g>
<g id="clust10" class="cluster">
<title>cluster_file_/Users/pmoura/logtalk/ports/metagol/metagol_example_protocol.lgt</title>
<g id="a_clust10"><a xlink:title="metagol_example_protocol.lgt">
<path fill="snow" stroke="dimgray" d="M192,-208C192,-208 384,-208 384,-208 390,-208 396,-214 396,-220 396,-220 396,-314 396,-314 396,-320 390,-326 384,-326 384,-326 192,-326 192,-326 186,-326 180,-320 180,-314 180,-314 180,-220 180,-220 180,-214 186,-208 192,-208"/>
<g id="a_clust10_5"><a xlink:href="https://github.com/LogtalkDotOrg/logtalk3/tree/7d0febd5583473135f91d83814717103e0062cf6/ports/metagol/metagol_example_protocol.lgt" xlink:title="https://github.com/LogtalkDotOrg/logtalk3/tree/7d0febd5583473135f91d83814717103e0062cf6/ports/metagol/metagol_example_protocol.lgt">
<text text-anchor="start" x="192.5" y="-218.5" font-family="Monospace" font-size="10.00" fill="dimgray">metagol_example_protocol.lgt</text>
</a>
</g>
</a>
</g>
</g>
<g id="clust11" class="cluster">
<title>cluster_library_toychr</title>
<g id="a_clust11"><a xlink:title="toychr/">
<path fill="whitesmoke" stroke="dimgray" d="M30,-146C30,-146 148,-146 148,-146 154,-146 160,-152 160,-158 160,-158 160,-349 160,-349 160,-355 154,-361 148,-361 148,-361 30,-361 30,-361 24,-361 18,-355 18,-349 18,-349 18,-158 18,-158 18,-152 24,-146 30,-146"/>
<g id="a_clust11_6"><a xlink:href="https://github.com/LogtalkDotOrg/logtalk3/tree/7d0febd5583473135f91d83814717103e0062cf6/ports/toychr/" xlink:title="https://github.com/LogtalkDotOrg/logtalk3/tree/7d0febd5583473135f91d83814717103e0062cf6/ports/toychr/">
<text text-anchor="start" x="30.5" y="-156.5" font-family="Monospace" font-size="10.00" fill="dimgray">toychr/</text>
</a>
</g>
</a>
</g>
</g>
<g id="clust13" class="cluster">
<title>cluster_file_/Users/pmoura/logtalk/ports/toychr/toychrdb.lgt</title>
<g id="a_clust13"><a xlink:title="toychrdb.lgt">
<path fill="snow" stroke="dimgray" d="M40,-183C40,-183 138,-183 138,-183 144,-183 150,-189 150,-195 150,-195 150,-339 150,-339 150,-345 144,-351 138,-351 138,-351 40,-351 40,-351 34,-351 28,-345 28,-339 28,-339 28,-195 28,-195 28,-189 34,-183 40,-183"/>
<g id="a_clust13_7"><a xlink:href="https://github.com/LogtalkDotOrg/logtalk3/tree/7d0febd5583473135f91d83814717103e0062cf6/ports/toychr/toychrdb.lgt" xlink:title="https://github.com/LogtalkDotOrg/logtalk3/tree/7d0febd5583473135f91d83814717103e0062cf6/ports/toychr/toychrdb.lgt">
<text text-anchor="start" x="40.5" y="-193.5" font-family="Monospace" font-size="10.00" fill="dimgray">toychrdb.lgt</text>
</a>
</g>
</a>
</g>
</g>
<!-- fcube -->
<g id="node1" class="node">
<title>fcube</title>
<g id="a_node1"><a xlink:href="https://logtalk.org/library/fcube_0.html" xlink:title="https://logtalk.org/library/fcube_0.html">
<polygon fill="cornsilk" stroke="black" points="786,-341 668,-341 668,-220 786,-220 786,-341"/>
<g id="a_node1_8"><a xlink:href="fcube_object_xref_diagram.svg" xlink:title="Zoom">
<image xlink:href="zoom.png" width="11px" height="11px" preserveAspectRatio="xMinYMin meet" x="676" y="-336.5"/>
</a>
</g>
<text text-anchor="start" x="678.5" y="-317.3" font-family="Monospace" font-size="9.00"> </text>
<text text-anchor="start" x="712.5" y="-316.7" font-family="Monospace" font-size="11.00">fcube</text>
<text text-anchor="start" x="772" y="-317.3" font-family="Monospace" font-size="9.00"> </text>
<text text-anchor="start" x="678.5" y="-306.3" font-family="Monospace" font-size="9.00"> </text>
<text text-anchor="start" x="709" y="-306.9" font-family="Monospace" font-size="7.00">prototype</text>
<text text-anchor="start" x="772" y="-306.3" font-family="Monospace" font-size="9.00"> </text>
<text text-anchor="start" x="678.5" y="-296.3" font-family="Monospace" font-size="9.00"> </text>
<text text-anchor="start" x="678.5" y="-286.3" font-family="Monospace" font-size="9.00"> </text>
<text text-anchor="start" x="711" y="-286.3" font-family="Monospace" font-size="9.00">fcube/0</text>
<text text-anchor="start" x="772" y="-286.3" font-family="Monospace" font-size="9.00"> </text>
<text text-anchor="start" x="678.5" y="-276.3" font-family="Monospace" font-size="9.00"> </text>
<text text-anchor="start" x="708" y="-276.3" font-family="Monospace" font-size="9.00">decide/1</text>
<text text-anchor="start" x="772" y="-276.3" font-family="Monospace" font-size="9.00"> </text>
<text text-anchor="start" x="678.5" y="-266.3" font-family="Monospace" font-size="9.00"> </text>
<text text-anchor="start" x="708" y="-266.3" font-family="Monospace" font-size="9.00">decide/2</text>
<text text-anchor="start" x="772" y="-266.3" font-family="Monospace" font-size="9.00"> </text>
<text text-anchor="start" x="678.5" y="-256.3" font-family="Monospace" font-size="9.00"> </text>
<text text-anchor="start" x="687" y="-256.3" font-family="Monospace" font-size="9.00">op(1200,xfy,&lt;=&gt;)</text>
<text text-anchor="start" x="772" y="-256.3" font-family="Monospace" font-size="9.00"> </text>
<text text-anchor="start" x="678.5" y="-246.3" font-family="Monospace" font-size="9.00"> </text>
<text text-anchor="start" x="690" y="-246.3" font-family="Monospace" font-size="9.00">op(1110,xfy,=&gt;)</text>
<text text-anchor="start" x="772" y="-246.3" font-family="Monospace" font-size="9.00"> </text>
<text text-anchor="start" x="678.5" y="-236.3" font-family="Monospace" font-size="9.00"> </text>
<text text-anchor="start" x="692.5" y="-236.3" font-family="Monospace" font-size="9.00">op(1000,xfy,&amp;)</text>
<text text-anchor="start" x="772" y="-236.3" font-family="Monospace" font-size="9.00"> </text>
<text text-anchor="start" x="678.5" y="-226.3" font-family="Monospace" font-size="9.00"> </text>
<text text-anchor="start" x="697.5" y="-226.3" font-family="Monospace" font-size="9.00">op(500,fy,~)</text>
<text text-anchor="start" x="772" y="-226.3" font-family="Monospace" font-size="9.00"> </text>
</a>
</g>
</g>
<!-- metagol -->
<g id="node2" class="node">
<title>metagol</title>
<g id="a_node2"><a xlink:href="https://logtalk.org/library/metagol_0.html" xlink:title="https://logtalk.org/library/metagol_0.html">
<polygon fill="cornsilk" stroke="black" points="618,-401 416,-401 416,-160 618,-160 618,-401"/>
<g id="a_node2_9"><a xlink:href="metagol_object_xref_diagram.svg" xlink:title="Zoom">
<image xlink:href="zoom.png" width="11px" height="11px" preserveAspectRatio="xMinYMin meet" x="424" y="-396.5"/>
</a>
</g>
<text text-anchor="start" x="426.5" y="-377.3" font-family="Monospace" font-size="9.00"> </text>
<text text-anchor="start" x="495.5" y="-376.7" font-family="Monospace" font-size="11.00">metagol</text>
<text text-anchor="start" x="604" y="-377.3" font-family="Monospace" font-size="9.00"> </text>
<text text-anchor="start" x="426.5" y="-366.3" font-family="Monospace" font-size="9.00"> </text>
<text text-anchor="start" x="499" y="-366.9" font-family="Monospace" font-size="7.00">prototype</text>
<text text-anchor="start" x="604" y="-366.3" font-family="Monospace" font-size="9.00"> </text>
<text text-anchor="start" x="426.5" y="-356.3" font-family="Monospace" font-size="9.00"> </text>
<text text-anchor="start" x="426.5" y="-346.3" font-family="Monospace" font-size="9.00"> </text>
<text text-anchor="start" x="501" y="-346.3" font-family="Monospace" font-size="9.00">learn/3</text>
<text text-anchor="start" x="604" y="-346.3" font-family="Monospace" font-size="9.00"> </text>
<text text-anchor="start" x="426.5" y="-336.3" font-family="Monospace" font-size="9.00"> </text>
<text text-anchor="start" x="501" y="-336.3" font-family="Monospace" font-size="9.00">learn/2</text>
<text text-anchor="start" x="604" y="-336.3" font-family="Monospace" font-size="9.00"> </text>
<text text-anchor="start" x="426.5" y="-326.3" font-family="Monospace" font-size="9.00"> </text>
<text text-anchor="start" x="490.5" y="-326.3" font-family="Monospace" font-size="9.00">learn_seq/2</text>
<text text-anchor="start" x="604" y="-326.3" font-family="Monospace" font-size="9.00"> </text>
<text text-anchor="start" x="426.5" y="-316.3" font-family="Monospace" font-size="9.00"> </text>
<text text-anchor="start" x="466.5" y="-316.3" font-family="Monospace" font-size="9.00">learn_with_timeout/4</text>
<text text-anchor="start" x="604" y="-316.3" font-family="Monospace" font-size="9.00"> </text>
<text text-anchor="start" x="426.5" y="-306.3" font-family="Monospace" font-size="9.00"> </text>
<text text-anchor="start" x="466.5" y="-306.3" font-family="Monospace" font-size="9.00">program_to_clauses/2</text>
<text text-anchor="start" x="604" y="-306.3" font-family="Monospace" font-size="9.00"> </text>
<text text-anchor="start" x="426.5" y="-296.3" font-family="Monospace" font-size="9.00"> </text>
<text text-anchor="start" x="498" y="-296.3" font-family="Monospace" font-size="9.00">pprint/1</text>
<text text-anchor="start" x="604" y="-296.3" font-family="Monospace" font-size="9.00"> </text>
<text text-anchor="start" x="426.5" y="-286.3" font-family="Monospace" font-size="9.00"> </text>
<text text-anchor="start" x="493" y="-286.3" font-family="Monospace" font-size="9.00">metarule/6</text>
<text text-anchor="start" x="604" y="-286.3" font-family="Monospace" font-size="9.00"> </text>
<text text-anchor="start" x="426.5" y="-276.3" font-family="Monospace" font-size="9.00"> </text>
<text text-anchor="start" x="490.5" y="-276.3" font-family="Monospace" font-size="9.00">head_pred/1</text>
<text text-anchor="start" x="604" y="-276.3" font-family="Monospace" font-size="9.00"> </text>
<text text-anchor="start" x="426.5" y="-266.3" font-family="Monospace" font-size="9.00"> </text>
<text text-anchor="start" x="490.5" y="-266.3" font-family="Monospace" font-size="9.00">body_pred/1</text>
<text text-anchor="start" x="604" y="-266.3" font-family="Monospace" font-size="9.00"> </text>
<text text-anchor="start" x="426.5" y="-256.3" font-family="Monospace" font-size="9.00"> </text>
<text text-anchor="start" x="506" y="-256.3" font-family="Monospace" font-size="9.00">ibk/3</text>
<text text-anchor="start" x="604" y="-256.3" font-family="Monospace" font-size="9.00"> </text>
<text text-anchor="start" x="426.5" y="-246.3" font-family="Monospace" font-size="9.00"> </text>
<text text-anchor="start" x="490.5" y="-246.3" font-family="Monospace" font-size="9.00">func_test/3</text>
<text text-anchor="start" x="604" y="-246.3" font-family="Monospace" font-size="9.00"> </text>
<text text-anchor="start" x="426.5" y="-236.3" font-family="Monospace" font-size="9.00"> </text>
<text text-anchor="start" x="487.5" y="-236.3" font-family="Monospace" font-size="9.00">functional/0</text>
<text text-anchor="start" x="604" y="-236.3" font-family="Monospace" font-size="9.00"> </text>
<text text-anchor="start" x="426.5" y="-226.3" font-family="Monospace" font-size="9.00"> </text>
<text text-anchor="start" x="485" y="-226.3" font-family="Monospace" font-size="9.00">min_clauses/1</text>
<text text-anchor="start" x="604" y="-226.3" font-family="Monospace" font-size="9.00"> </text>
<text text-anchor="start" x="426.5" y="-216.3" font-family="Monospace" font-size="9.00"> </text>
<text text-anchor="start" x="485" y="-216.3" font-family="Monospace" font-size="9.00">max_clauses/1</text>
<text text-anchor="start" x="604" y="-216.3" font-family="Monospace" font-size="9.00"> </text>
<text text-anchor="start" x="426.5" y="-206.3" font-family="Monospace" font-size="9.00"> </text>
<text text-anchor="start" x="480" y="-206.3" font-family="Monospace" font-size="9.00">max_inv_preds/1</text>
<text text-anchor="start" x="604" y="-206.3" font-family="Monospace" font-size="9.00"> </text>
<text text-anchor="start" x="426.5" y="-196.3" font-family="Monospace" font-size="9.00"> </text>
<text text-anchor="start" x="472" y="-196.3" font-family="Monospace" font-size="9.00">metarule_next_id/1</text>
<text text-anchor="start" x="604" y="-196.3" font-family="Monospace" font-size="9.00"> </text>
<text text-anchor="start" x="426.5" y="-186.3" font-family="Monospace" font-size="9.00"> </text>
<text text-anchor="start" x="495.5" y="-186.3" font-family="Monospace" font-size="9.00">timeout/1</text>
<text text-anchor="start" x="604" y="-186.3" font-family="Monospace" font-size="9.00"> </text>
<text text-anchor="start" x="426.5" y="-176.3" font-family="Monospace" font-size="9.00"> </text>
<text text-anchor="start" x="451" y="-176.3" font-family="Monospace" font-size="9.00">logtalk::message_tokens//2</text>
<text text-anchor="start" x="604" y="-176.3" font-family="Monospace" font-size="9.00"> </text>
<text text-anchor="start" x="426.5" y="-166.3" font-family="Monospace" font-size="9.00"> </text>
<text text-anchor="start" x="435" y="-166.3" font-family="Monospace" font-size="9.00">logtalk::message_prefix_stream/4</text>
<text text-anchor="start" x="604" y="-166.3" font-family="Monospace" font-size="9.00"> </text>
</a>
</g>
</g>
<!-- expanding -->
<g id="node5" class="node">
<title>expanding</title>
<g id="a_node5"><a xlink:href="https://logtalk.org/library/expanding_0.html" xlink:title="https://logtalk.org/library/expanding_0.html">
<polygon fill="mediumaquamarine" stroke="black" stroke-dasharray="5,2" points="261.5,-519 162.5,-519 162.5,-483 267.5,-483 267.5,-513 261.5,-519"/>
<polyline fill="none" stroke="black" stroke-dasharray="5,2" points="261.5,-519 261.5,-513 "/>
<polyline fill="none" stroke="black" stroke-dasharray="5,2" points="267.5,-513 261.5,-513 "/>
<text text-anchor="start" x="171" y="-503.8" font-family="Monospace" font-size="9.00"> </text>
<text text-anchor="start" x="185" y="-503.2" font-family="Monospace" font-size="11.00">expanding</text>
<text text-anchor="start" x="254" y="-503.8" font-family="Monospace" font-size="9.00"> </text>
<text text-anchor="start" x="171" y="-492.8" font-family="Monospace" font-size="9.00"> </text>
<text text-anchor="start" x="177" y="-493.4" font-family="Monospace" font-size="7.00">built&#45;in protocol</text>
<text text-anchor="start" x="254" y="-492.8" font-family="Monospace" font-size="9.00"> </text>
</a>
</g>
</g>
<!-- metagol&#45;&gt;expanding -->
<g id="edge1" class="edge">
<title>metagol&#45;&gt;expanding</title>
<g id="a_edge1"><a xlink:href="https://logtalk.org/library/metagol_0.html" xlink:title="implements">
<path fill="none" stroke="black" d="M423.69,-401.16C416.04,-408.27 408.12,-414.97 400,-421 362.55,-448.78 313.85,-469.07 275.82,-482.13"/>
<ellipse fill="black" stroke="black" cx="271.66" cy="-483.53" rx="4" ry="4"/>
</a>
</g>
<g id="a_edge1&#45;label"><a xlink:href="https://logtalk.org/library/metagol_0.html" xlink:title="https://logtalk.org/library/metagol_0.html">
<text text-anchor="start" x="372" y="-439.8" font-family="Monospace" font-size="9.00">implements</text>
</a>
</g>
</g>
<!-- metagol_example_protocol -->
<g id="node3" class="node">
<title>metagol_example_protocol</title>
<g id="a_node3"><a xlink:href="https://logtalk.org/library/metagol_example_protocol_0.html" xlink:title="https://logtalk.org/library/metagol_example_protocol_0.html">
<polygon fill="aquamarine" stroke="black" points="380,-316 190,-316 190,-245 386,-245 386,-310 380,-316"/>
<polyline fill="none" stroke="black" points="380,-316 380,-310 "/>
<polyline fill="none" stroke="black" points="386,-310 380,-310 "/>
<g id="a_node3_10"><a xlink:href="metagol_example_protocol_protocol_xref_diagram.svg" xlink:title="Zoom">
<image xlink:href="zoom.png" width="11px" height="11px" preserveAspectRatio="xMinYMin meet" x="198" y="-311.5"/>
</a>
</g>
<text text-anchor="start" x="200.5" y="-292.3" font-family="Monospace" font-size="9.00"> </text>
<text text-anchor="start" x="209" y="-291.7" font-family="Monospace" font-size="11.00">metagol_example_protocol</text>
<text text-anchor="start" x="372" y="-292.3" font-family="Monospace" font-size="9.00"> </text>
<text text-anchor="start" x="200.5" y="-281.3" font-family="Monospace" font-size="9.00"> </text>
<text text-anchor="start" x="272" y="-281.9" font-family="Monospace" font-size="7.00">protocol</text>
<text text-anchor="start" x="372" y="-281.3" font-family="Monospace" font-size="9.00"> </text>
<text text-anchor="start" x="200.5" y="-271.3" font-family="Monospace" font-size="9.00"> </text>
<text text-anchor="start" x="200.5" y="-261.3" font-family="Monospace" font-size="9.00"> </text>
<text text-anchor="start" x="272" y="-261.3" font-family="Monospace" font-size="9.00">learn/1</text>
<text text-anchor="start" x="372" y="-261.3" font-family="Monospace" font-size="9.00"> </text>
<text text-anchor="start" x="200.5" y="-251.3" font-family="Monospace" font-size="9.00"> </text>
<text text-anchor="start" x="272" y="-251.3" font-family="Monospace" font-size="9.00">learn/0</text>
<text text-anchor="start" x="372" y="-251.3" font-family="Monospace" font-size="9.00"> </text>
</a>
</g>
</g>
<!-- toychrdb -->
<g id="node4" class="node">
<title>toychrdb</title>
<g id="a_node4"><a xlink:href="https://logtalk.org/library/toychrdb_0.html" xlink:title="https://logtalk.org/library/toychrdb_0.html">
<polygon fill="cornsilk" stroke="black" points="140,-341 38,-341 38,-220 140,-220 140,-341"/>
<g id="a_node4_11"><a xlink:href="toychrdb_object_xref_diagram.svg" xlink:title="Zoom">
<image xlink:href="zoom.png" width="11px" height="11px" preserveAspectRatio="xMinYMin meet" x="46" y="-336.5"/>
</a>
</g>
<text text-anchor="start" x="48.5" y="-317.3" font-family="Monospace" font-size="9.00"> </text>
<text text-anchor="start" x="64" y="-316.7" font-family="Monospace" font-size="11.00">toychrdb</text>
<text text-anchor="start" x="126" y="-317.3" font-family="Monospace" font-size="9.00"> </text>
<text text-anchor="start" x="48.5" y="-306.3" font-family="Monospace" font-size="9.00"> </text>
<text text-anchor="start" x="71" y="-306.9" font-family="Monospace" font-size="7.00">prototype</text>
<text text-anchor="start" x="126" y="-306.3" font-family="Monospace" font-size="9.00"> </text>
<text text-anchor="start" x="48.5" y="-296.3" font-family="Monospace" font-size="9.00"> </text>
<text text-anchor="start" x="48.5" y="-286.3" font-family="Monospace" font-size="9.00"> </text>
<text text-anchor="start" x="70" y="-286.3" font-family="Monospace" font-size="9.00">chr_is/2</text>
<text text-anchor="start" x="126" y="-286.3" font-family="Monospace" font-size="9.00"> </text>
<text text-anchor="start" x="48.5" y="-276.3" font-family="Monospace" font-size="9.00"> </text>
<text text-anchor="start" x="62.5" y="-276.3" font-family="Monospace" font-size="9.00">chr_trace/0</text>
<text text-anchor="start" x="126" y="-276.3" font-family="Monospace" font-size="9.00"> </text>
<text text-anchor="start" x="48.5" y="-266.3" font-family="Monospace" font-size="9.00"> </text>
<text text-anchor="start" x="57" y="-266.3" font-family="Monospace" font-size="9.00">chr_notrace/0</text>
<text text-anchor="start" x="126" y="-266.3" font-family="Monospace" font-size="9.00"> </text>
<text text-anchor="start" x="48.5" y="-256.3" font-family="Monospace" font-size="9.00"> </text>
<text text-anchor="start" x="67.5" y="-256.3" font-family="Monospace" font-size="9.00">chr_spy/1</text>
<text text-anchor="start" x="126" y="-256.3" font-family="Monospace" font-size="9.00"> </text>
<text text-anchor="start" x="48.5" y="-246.3" font-family="Monospace" font-size="9.00"> </text>
<text text-anchor="start" x="62.5" y="-246.3" font-family="Monospace" font-size="9.00">chr_nospy/0</text>
<text text-anchor="start" x="126" y="-246.3" font-family="Monospace" font-size="9.00"> </text>
<text text-anchor="start" x="48.5" y="-236.3" font-family="Monospace" font-size="9.00"> </text>
<text text-anchor="start" x="59.5" y="-236.3" font-family="Monospace" font-size="9.00">chr_no_spy/1</text>
<text text-anchor="start" x="126" y="-236.3" font-family="Monospace" font-size="9.00"> </text>
<text text-anchor="start" x="48.5" y="-226.3" font-family="Monospace" font-size="9.00"> </text>
<text text-anchor="start" x="59.5" y="-226.3" font-family="Monospace" font-size="9.00">chr_option/2</text>
<text text-anchor="start" x="126" y="-226.3" font-family="Monospace" font-size="9.00"> </text>
</a>
</g>
</g>
<!-- toychrdb&#45;&gt;expanding -->
<g id="edge2" class="edge">
<title>toychrdb&#45;&gt;expanding</title>
<g id="a_edge2"><a xlink:href="https://logtalk.org/library/toychrdb_0.html" xlink:title="implements">
<path fill="none" stroke="black" d="M123.43,-341.21C148.93,-385.42 182.35,-443.38 200.95,-475.64"/>
<ellipse fill="black" stroke="black" cx="203.13" cy="-479.41" rx="4" ry="4"/>
</a>
</g>
<g id="a_edge2&#45;label"><a xlink:href="https://logtalk.org/library/toychrdb_0.html" xlink:title="https://logtalk.org/library/toychrdb_0.html">
<text text-anchor="start" x="181" y="-439.8" font-family="Monospace" font-size="9.00">implements</text>
</a>
</g>
</g>
</g>
</svg>
