<?xml version="1.0" encoding="UTF-8" standalone="no"?>
<!DOCTYPE svg PUBLIC "-//W3C//DTD SVG 1.1//EN"
 "http://www.w3.org/Graphics/SVG/1.1/DTD/svg11.dtd">
<!-- Generated by graphviz version 2.41.20190410.0829 (20190410.0829)
 -->
<!-- Title: ports Pages: 1 -->
<svg width="652pt" height="660pt"
 viewBox="72.00 72.00 580.00 588.00" xmlns="http://www.w3.org/2000/svg" xmlns:xlink="http://www.w3.org/1999/xlink">
<g id="graph0" class="graph" transform="scale(1 1) rotate(0) translate(76 584)">
<title>ports</title>
<polygon fill="white" stroke="transparent" points="-4,4 -4,-512 504,-512 504,4 -4,4"/>
<text text-anchor="start" x="8" y="-26" font-family="Courier,monospace" font-size="10.00" fill="dimgray">Logtalk ports of third&#45;party software</text>
<text text-anchor="start" x="8" y="-16" font-family="Courier,monospace" font-size="10.00" fill="dimgray">Inheritance diagram for library ports</text>
<text text-anchor="start" x="8" y="-6" font-family="Courier,monospace" font-size="10.00" fill="dimgray">Generated on 2019/06/19, 16:16</text>
<g id="clust1" class="cluster">
<title>cluster_rlibrary_ports</title>
<g id="a_clust1"><a xlink:title="ports/">
<path fill="lightgray" stroke="dimgray" d="M20,-46C20,-46 480,-46 480,-46 486,-46 492,-52 492,-58 492,-58 492,-488 492,-488 492,-494 486,-500 480,-500 480,-500 20,-500 20,-500 14,-500 8,-494 8,-488 8,-488 8,-58 8,-58 8,-52 14,-46 20,-46"/>
<g id="a_clust1_0"><a xlink:href="https://github.com/LogtalkDotOrg/logtalk3/tree/0ee50a687aac189f6738288f77e1693636a5eb32/ports/" xlink:title="https://github.com/LogtalkDotOrg/logtalk3/tree/0ee50a687aac189f6738288f77e1693636a5eb32/ports/">
<text text-anchor="start" x="20" y="-56" font-family="Courier,monospace" font-size="10.00" fill="dimgray">ports/</text>
</a>
</g>
</a>
</g>
</g>
<g id="clust4" class="cluster">
<title>cluster_library_metagol</title>
<g id="a_clust4"><a xlink:title="metagol/">
<path fill="whitesmoke" stroke="dimgray" d="M30,-82C30,-82 470,-82 470,-82 476,-82 482,-88 482,-94 482,-94 482,-381 482,-381 482,-387 476,-393 470,-393 470,-393 30,-393 30,-393 24,-393 18,-387 18,-381 18,-381 18,-94 18,-94 18,-88 24,-82 30,-82"/>
<g id="a_clust4_1"><a xlink:href="https://github.com/LogtalkDotOrg/logtalk3/tree/0ee50a687aac189f6738288f77e1693636a5eb32/ports/metagol/" xlink:title="https://github.com/LogtalkDotOrg/logtalk3/tree/0ee50a687aac189f6738288f77e1693636a5eb32/ports/metagol/">
<text text-anchor="start" x="30" y="-92" font-family="Courier,monospace" font-size="10.00" fill="dimgray">metagol/</text>
</a>
</g>
</a>
</g>
</g>
<g id="clust7" class="cluster">
<title>cluster_file_/Users/pmoura/logtalk/ports/metagol/metagol_example_protocol.lgt</title>
<g id="a_clust7"><a xlink:title="metagol_example_protocol.lgt">
<path fill="snow" stroke="dimgray" d="M274,-194.5C274,-194.5 460,-194.5 460,-194.5 466,-194.5 472,-200.5 472,-206.5 472,-206.5 472,-294.5 472,-294.5 472,-300.5 466,-306.5 460,-306.5 460,-306.5 274,-306.5 274,-306.5 268,-306.5 262,-300.5 262,-294.5 262,-294.5 262,-206.5 262,-206.5 262,-200.5 268,-194.5 274,-194.5"/>
<g id="a_clust7_2"><a xlink:href="https://github.com/LogtalkDotOrg/logtalk3/tree/0ee50a687aac189f6738288f77e1693636a5eb32/ports/metagol/metagol_example_protocol.lgt" xlink:title="https://github.com/LogtalkDotOrg/logtalk3/tree/0ee50a687aac189f6738288f77e1693636a5eb32/ports/metagol/metagol_example_protocol.lgt">
<text text-anchor="start" x="273.99" y="-204.5" font-family="Courier,monospace" font-size="10.00" fill="dimgray">metagol_example_protocol.lgt</text>
</a>
</g>
</a>
</g>
</g>
<g id="clust6" class="cluster">
<title>cluster_file_/Users/pmoura/logtalk/ports/metagol/metagol.lgt</title>
<g id="a_clust6"><a xlink:title="metagol.lgt">
<path fill="snow" stroke="dimgray" d="M40,-118C40,-118 240,-118 240,-118 246,-118 252,-124 252,-130 252,-130 252,-371 252,-371 252,-377 246,-383 240,-383 240,-383 40,-383 40,-383 34,-383 28,-377 28,-371 28,-371 28,-130 28,-130 28,-124 34,-118 40,-118"/>
<g id="a_clust6_3"><a xlink:href="https://github.com/LogtalkDotOrg/logtalk3/tree/0ee50a687aac189f6738288f77e1693636a5eb32/ports/metagol/metagol.lgt" xlink:title="https://github.com/LogtalkDotOrg/logtalk3/tree/0ee50a687aac189f6738288f77e1693636a5eb32/ports/metagol/metagol.lgt">
<text text-anchor="start" x="39.99" y="-128" font-family="Courier,monospace" font-size="10.00" fill="dimgray">metagol.lgt</text>
</a>
</g>
</a>
</g>
</g>
<!-- metagol -->
<g id="node1" class="node">
<title>metagol</title>
<g id="a_node1"><a xlink:href="https://logtalk.org/library/metagol_0.html" xlink:title="https://logtalk.org/library/metagol_0.html">
<polygon fill="cornsilk" stroke="black" points="242,-373 38,-373 38,-154 242,-154 242,-373"/>
<g id="a_node1_4"><a xlink:href="metagol_object_xref_diagram.svg" xlink:title="Zoom">
<image xlink:href="zoom.png" width="11px" height="11px" preserveAspectRatio="xMinYMin meet" x="46" y="-368.5"/>
</a>
</g>
<text text-anchor="start" x="48.8" y="-349.3" font-family="Courier,monospace" font-size="9.00"> </text>
<text text-anchor="start" x="119.9" y="-348.7" font-family="Courier,monospace" font-size="11.00">metagol</text>
<text text-anchor="start" x="228.8" y="-349.3" font-family="Courier,monospace" font-size="9.00"> </text>
<text text-anchor="start" x="48.8" y="-339.3" font-family="Courier,monospace" font-size="9.00"> </text>
<text text-anchor="start" x="124.1" y="-339.9" font-family="Courier,monospace" font-size="7.00">prototype</text>
<text text-anchor="start" x="228.8" y="-339.3" font-family="Courier,monospace" font-size="9.00"> </text>
<text text-anchor="start" x="48.8" y="-330.3" font-family="Courier,monospace" font-size="9.00"> </text>
<text text-anchor="start" x="48.8" y="-321.3" font-family="Courier,monospace" font-size="9.00"> </text>
<text text-anchor="start" x="124.1" y="-321.3" font-family="Courier,monospace" font-size="9.00">learn/3</text>
<text text-anchor="start" x="228.8" y="-321.3" font-family="Courier,monospace" font-size="9.00"> </text>
<text text-anchor="start" x="48.8" y="-312.3" font-family="Courier,monospace" font-size="9.00"> </text>
<text text-anchor="start" x="124.1" y="-312.3" font-family="Courier,monospace" font-size="9.00">learn/2</text>
<text text-anchor="start" x="228.8" y="-312.3" font-family="Courier,monospace" font-size="9.00"> </text>
<text text-anchor="start" x="48.8" y="-303.3" font-family="Courier,monospace" font-size="9.00"> </text>
<text text-anchor="start" x="113.3" y="-303.3" font-family="Courier,monospace" font-size="9.00">learn_seq/2</text>
<text text-anchor="start" x="228.8" y="-303.3" font-family="Courier,monospace" font-size="9.00"> </text>
<text text-anchor="start" x="48.8" y="-294.3" font-family="Courier,monospace" font-size="9.00"> </text>
<text text-anchor="start" x="88.99" y="-294.3" font-family="Courier,monospace" font-size="9.00">learn_with_timeout/4</text>
<text text-anchor="start" x="228.8" y="-294.3" font-family="Courier,monospace" font-size="9.00"> </text>
<text text-anchor="start" x="48.8" y="-285.3" font-family="Courier,monospace" font-size="9.00"> </text>
<text text-anchor="start" x="88.99" y="-285.3" font-family="Courier,monospace" font-size="9.00">program_to_clauses/2</text>
<text text-anchor="start" x="228.8" y="-285.3" font-family="Courier,monospace" font-size="9.00"> </text>
<text text-anchor="start" x="48.8" y="-276.3" font-family="Courier,monospace" font-size="9.00"> </text>
<text text-anchor="start" x="121.4" y="-276.3" font-family="Courier,monospace" font-size="9.00">pprint/1</text>
<text text-anchor="start" x="228.8" y="-276.3" font-family="Courier,monospace" font-size="9.00"> </text>
<text text-anchor="start" x="48.8" y="-267.3" font-family="Courier,monospace" font-size="9.00"> </text>
<text text-anchor="start" x="116" y="-267.3" font-family="Courier,monospace" font-size="9.00">metarule/6</text>
<text text-anchor="start" x="228.8" y="-267.3" font-family="Courier,monospace" font-size="9.00"> </text>
<text text-anchor="start" x="48.8" y="-258.3" font-family="Courier,monospace" font-size="9.00"> </text>
<text text-anchor="start" x="113.3" y="-258.3" font-family="Courier,monospace" font-size="9.00">head_pred/1</text>
<text text-anchor="start" x="228.8" y="-258.3" font-family="Courier,monospace" font-size="9.00"> </text>
<text text-anchor="start" x="48.8" y="-249.3" font-family="Courier,monospace" font-size="9.00"> </text>
<text text-anchor="start" x="113.3" y="-249.3" font-family="Courier,monospace" font-size="9.00">body_pred/1</text>
<text text-anchor="start" x="228.8" y="-249.3" font-family="Courier,monospace" font-size="9.00"> </text>
<text text-anchor="start" x="48.8" y="-240.3" font-family="Courier,monospace" font-size="9.00"> </text>
<text text-anchor="start" x="129.5" y="-240.3" font-family="Courier,monospace" font-size="9.00">ibk/3</text>
<text text-anchor="start" x="228.8" y="-240.3" font-family="Courier,monospace" font-size="9.00"> </text>
<text text-anchor="start" x="48.8" y="-231.3" font-family="Courier,monospace" font-size="9.00"> </text>
<text text-anchor="start" x="113.3" y="-231.3" font-family="Courier,monospace" font-size="9.00">func_test/3</text>
<text text-anchor="start" x="228.8" y="-231.3" font-family="Courier,monospace" font-size="9.00"> </text>
<text text-anchor="start" x="48.8" y="-222.3" font-family="Courier,monospace" font-size="9.00"> </text>
<text text-anchor="start" x="110.59" y="-222.3" font-family="Courier,monospace" font-size="9.00">functional/0</text>
<text text-anchor="start" x="228.8" y="-222.3" font-family="Courier,monospace" font-size="9.00"> </text>
<text text-anchor="start" x="48.8" y="-213.3" font-family="Courier,monospace" font-size="9.00"> </text>
<text text-anchor="start" x="107.89" y="-213.3" font-family="Courier,monospace" font-size="9.00">min_clauses/1</text>
<text text-anchor="start" x="228.8" y="-213.3" font-family="Courier,monospace" font-size="9.00"> </text>
<text text-anchor="start" x="48.8" y="-204.3" font-family="Courier,monospace" font-size="9.00"> </text>
<text text-anchor="start" x="107.89" y="-204.3" font-family="Courier,monospace" font-size="9.00">max_clauses/1</text>
<text text-anchor="start" x="228.8" y="-204.3" font-family="Courier,monospace" font-size="9.00"> </text>
<text text-anchor="start" x="48.8" y="-195.3" font-family="Courier,monospace" font-size="9.00"> </text>
<text text-anchor="start" x="102.49" y="-195.3" font-family="Courier,monospace" font-size="9.00">max_inv_preds/1</text>
<text text-anchor="start" x="228.8" y="-195.3" font-family="Courier,monospace" font-size="9.00"> </text>
<text text-anchor="start" x="48.8" y="-186.3" font-family="Courier,monospace" font-size="9.00"> </text>
<text text-anchor="start" x="94.39" y="-186.3" font-family="Courier,monospace" font-size="9.00">metarule_next_id/1</text>
<text text-anchor="start" x="228.8" y="-186.3" font-family="Courier,monospace" font-size="9.00"> </text>
<text text-anchor="start" x="48.8" y="-177.3" font-family="Courier,monospace" font-size="9.00"> </text>
<text text-anchor="start" x="118.7" y="-177.3" font-family="Courier,monospace" font-size="9.00">timeout/1</text>
<text text-anchor="start" x="228.8" y="-177.3" font-family="Courier,monospace" font-size="9.00"> </text>
<text text-anchor="start" x="48.8" y="-168.3" font-family="Courier,monospace" font-size="9.00"> </text>
<text text-anchor="start" x="72.79" y="-168.3" font-family="Courier,monospace" font-size="9.00">logtalk::message_tokens//2</text>
<text text-anchor="start" x="228.8" y="-168.3" font-family="Courier,monospace" font-size="9.00"> </text>
<text text-anchor="start" x="48.8" y="-159.3" font-family="Courier,monospace" font-size="9.00"> </text>
<text text-anchor="start" x="56.59" y="-159.3" font-family="Courier,monospace" font-size="9.00">logtalk::message_prefix_stream/4</text>
<text text-anchor="start" x="228.8" y="-159.3" font-family="Courier,monospace" font-size="9.00"> </text>
</a>
</g>
</g>
<!-- expanding -->
<g id="node3" class="node">
<title>expanding</title>
<g id="a_node3"><a xlink:href="https://logtalk.org/library/expanding_0.html" xlink:title="https://logtalk.org/library/expanding_0.html">
<polygon fill="mediumaquamarine" stroke="black" stroke-dasharray="5,2" points="182.5,-490 91.5,-490 91.5,-454 188.5,-454 188.5,-484 182.5,-490"/>
<polyline fill="none" stroke="black" stroke-dasharray="5,2" points="182.5,-490 182.5,-484 "/>
<polyline fill="none" stroke="black" stroke-dasharray="5,2" points="188.5,-484 182.5,-484 "/>
<text text-anchor="start" x="99.8" y="-473.8" font-family="Courier,monospace" font-size="9.00"> </text>
<text text-anchor="start" x="110.8" y="-473.2" font-family="Courier,monospace" font-size="11.00">expanding</text>
<text text-anchor="start" x="175.8" y="-473.8" font-family="Courier,monospace" font-size="9.00"> </text>
<text text-anchor="start" x="99.8" y="-463.8" font-family="Courier,monospace" font-size="9.00"> </text>
<text text-anchor="start" x="104.79" y="-464.4" font-family="Courier,monospace" font-size="7.00">built&#45;in protocol</text>
<text text-anchor="start" x="175.8" y="-463.8" font-family="Courier,monospace" font-size="9.00"> </text>
</a>
</g>
</g>
<!-- metagol&#45;&gt;expanding -->
<g id="edge1" class="edge">
<title>metagol&#45;&gt;expanding</title>
<g id="a_edge1"><a xlink:href="https://logtalk.org/library/metagol_0.html" xlink:title="implements">
<path fill="none" stroke="black" d="M140,-373.19C140,-400.37 140,-427.04 140,-445.65"/>
<ellipse fill="black" stroke="black" cx="140" cy="-449.86" rx="4" ry="4"/>
</a>
</g>
<g id="a_edge1&#45;label"><a xlink:href="https://logtalk.org/library/metagol_0.html" xlink:title="https://logtalk.org/library/metagol_0.html">
<text text-anchor="start" x="140" y="-410.8" font-family="Courier,monospace" font-size="9.00">implements</text>
</a>
</g>
</g>
<!-- metagol_example_protocol -->
<g id="node2" class="node">
<title>metagol_example_protocol</title>
<g id="a_node2"><a xlink:href="https://logtalk.org/library/metagol_example_protocol_0.html" xlink:title="https://logtalk.org/library/metagol_example_protocol_0.html">
<polygon fill="aquamarine" stroke="black" points="456,-296.5 272,-296.5 272,-230.5 462,-230.5 462,-290.5 456,-296.5"/>
<polyline fill="none" stroke="black" points="456,-296.5 456,-290.5 "/>
<polyline fill="none" stroke="black" points="462,-290.5 456,-290.5 "/>
<g id="a_node2_5"><a xlink:href="metagol_example_protocol_protocol_xref_diagram.svg" xlink:title="Zoom">
<image xlink:href="zoom.png" width="11px" height="11px" preserveAspectRatio="xMinYMin meet" x="280" y="-292.5"/>
</a>
</g>
<text text-anchor="start" x="282.8" y="-273.3" font-family="Courier,monospace" font-size="9.00"> </text>
<text text-anchor="start" x="290.79" y="-272.7" font-family="Courier,monospace" font-size="11.00">metagol_example_protocol</text>
<text text-anchor="start" x="448.8" y="-273.3" font-family="Courier,monospace" font-size="9.00"> </text>
<text text-anchor="start" x="282.8" y="-263.3" font-family="Courier,monospace" font-size="9.00"> </text>
<text text-anchor="start" x="353.2" y="-263.9" font-family="Courier,monospace" font-size="7.00">protocol</text>
<text text-anchor="start" x="448.8" y="-263.3" font-family="Courier,monospace" font-size="9.00"> </text>
<text text-anchor="start" x="282.8" y="-254.3" font-family="Courier,monospace" font-size="9.00"> </text>
<text text-anchor="start" x="282.8" y="-245.3" font-family="Courier,monospace" font-size="9.00"> </text>
<text text-anchor="start" x="351.1" y="-245.3" font-family="Courier,monospace" font-size="9.00">learn/1</text>
<text text-anchor="start" x="448.8" y="-245.3" font-family="Courier,monospace" font-size="9.00"> </text>
<text text-anchor="start" x="282.8" y="-236.3" font-family="Courier,monospace" font-size="9.00"> </text>
<text text-anchor="start" x="351.1" y="-236.3" font-family="Courier,monospace" font-size="9.00">learn/0</text>
<text text-anchor="start" x="448.8" y="-236.3" font-family="Courier,monospace" font-size="9.00"> </text>
</a>
</g>
</g>
</g>
</svg>
