<?xml version="1.0" encoding="UTF-8" standalone="no"?>
<?xml-stylesheet href="diagrams.css" type="text/css"?>
<!DOCTYPE svg PUBLIC "-//W3C//DTD SVG 1.1//EN"
 "http://www.w3.org/Graphics/SVG/1.1/DTD/svg11.dtd">
<!-- Generated by graphviz version 2.49.3 (20211023.0002)
 -->
<!-- Title: ports Pages: 1 -->
<svg width="810pt" height="689pt"
 viewBox="72.00 72.00 738.00 617.00" xmlns="http://www.w3.org/2000/svg" xmlns:xlink="http://www.w3.org/1999/xlink">
<g id="graph0" class="graph" transform="scale(1 1) rotate(0) translate(76 613)">
<title>ports</title>
<polygon fill="white" stroke="transparent" points="-4,4 -4,-541 662,-541 662,4 -4,4"/>
<text text-anchor="start" x="8" y="-29" font-family="Monospace" font-size="10.00" fill="dimgray">Logtalk ports of third&#45;party software</text>
<text text-anchor="start" x="8" y="-18" font-family="Monospace" font-size="10.00" fill="dimgray">Inheritance diagram for library ports</text>
<text text-anchor="start" x="8" y="-7" font-family="Monospace" font-size="10.00" fill="dimgray">Generated on 2021&#45;12&#45;17, 10:12</text>
<g id="clust1" class="cluster">
<title>cluster_rlibrary_ports</title>
<g id="a_clust1"><a xlink:title="ports/">
<path fill="lightgray" stroke="dimgray" d="M20,-49C20,-49 638,-49 638,-49 644,-49 650,-55 650,-61 650,-61 650,-517 650,-517 650,-523 644,-529 638,-529 638,-529 20,-529 20,-529 14,-529 8,-523 8,-517 8,-517 8,-61 8,-61 8,-55 14,-49 20,-49"/>
<g id="a_clust1_0"><a xlink:href="https://github.com/LogtalkDotOrg/logtalk3/tree/94c1fd19ea356506cb08c17bd16f4263a9cd4707/ports/" xlink:title="https://github.com/LogtalkDotOrg/logtalk3/tree/94c1fd19ea356506cb08c17bd16f4263a9cd4707/ports/">
<text text-anchor="start" x="20.5" y="-59.5" font-family="Monospace" font-size="10.00" fill="dimgray">ports/</text>
</a>
</g>
</a>
</g>
</g>
<g id="clust4" class="cluster">
<title>cluster_library_metagol</title>
<g id="a_clust4"><a xlink:title="metagol/">
<path fill="whitesmoke" stroke="dimgray" d="M184,-86C184,-86 628,-86 628,-86 634,-86 640,-92 640,-98 640,-98 640,-409 640,-409 640,-415 634,-421 628,-421 628,-421 184,-421 184,-421 178,-421 172,-415 172,-409 172,-409 172,-98 172,-98 172,-92 178,-86 184,-86"/>
<g id="a_clust4_1"><a xlink:href="https://github.com/LogtalkDotOrg/logtalk3/tree/94c1fd19ea356506cb08c17bd16f4263a9cd4707/ports/metagol/" xlink:title="https://github.com/LogtalkDotOrg/logtalk3/tree/94c1fd19ea356506cb08c17bd16f4263a9cd4707/ports/metagol/">
<text text-anchor="start" x="184.5" y="-96.5" font-family="Monospace" font-size="10.00" fill="dimgray">metagol/</text>
</a>
</g>
</a>
</g>
</g>
<g id="clust7" class="cluster">
<title>cluster_file_/Users/pmoura/logtalk/ports/metagol/metagol_example_protocol.lgt</title>
<g id="a_clust7"><a xlink:title="metagol_example_protocol.lgt">
<path fill="snow" stroke="dimgray" d="M430,-208C430,-208 618,-208 618,-208 624,-208 630,-214 630,-220 630,-220 630,-314 630,-314 630,-320 624,-326 618,-326 618,-326 430,-326 430,-326 424,-326 418,-320 418,-314 418,-314 418,-220 418,-220 418,-214 424,-208 430,-208"/>
<g id="a_clust7_2"><a xlink:href="https://github.com/LogtalkDotOrg/logtalk3/tree/94c1fd19ea356506cb08c17bd16f4263a9cd4707/ports/metagol/metagol_example_protocol.lgt" xlink:title="https://github.com/LogtalkDotOrg/logtalk3/tree/94c1fd19ea356506cb08c17bd16f4263a9cd4707/ports/metagol/metagol_example_protocol.lgt">
<text text-anchor="start" x="430.5" y="-218.5" font-family="Monospace" font-size="10.00" fill="dimgray">metagol_example_protocol.lgt</text>
</a>
</g>
</a>
</g>
</g>
<g id="clust6" class="cluster">
<title>cluster_file_/Users/pmoura/logtalk/ports/metagol/metagol.lgt</title>
<g id="a_clust6"><a xlink:title="metagol.lgt">
<path fill="snow" stroke="dimgray" d="M194,-123C194,-123 396,-123 396,-123 402,-123 408,-129 408,-135 408,-135 408,-399 408,-399 408,-405 402,-411 396,-411 396,-411 194,-411 194,-411 188,-411 182,-405 182,-399 182,-399 182,-135 182,-135 182,-129 188,-123 194,-123"/>
<g id="a_clust6_3"><a xlink:href="https://github.com/LogtalkDotOrg/logtalk3/tree/94c1fd19ea356506cb08c17bd16f4263a9cd4707/ports/metagol/metagol.lgt" xlink:title="https://github.com/LogtalkDotOrg/logtalk3/tree/94c1fd19ea356506cb08c17bd16f4263a9cd4707/ports/metagol/metagol.lgt">
<text text-anchor="start" x="194.5" y="-133.5" font-family="Monospace" font-size="10.00" fill="dimgray">metagol.lgt</text>
</a>
</g>
</a>
</g>
</g>
<g id="clust8" class="cluster">
<title>cluster_library_toychr</title>
<g id="a_clust8"><a xlink:title="toychr/">
<path fill="whitesmoke" stroke="dimgray" d="M30,-146C30,-146 150,-146 150,-146 156,-146 162,-152 162,-158 162,-158 162,-349 162,-349 162,-355 156,-361 150,-361 150,-361 30,-361 30,-361 24,-361 18,-355 18,-349 18,-349 18,-158 18,-158 18,-152 24,-146 30,-146"/>
<g id="a_clust8_4"><a xlink:href="https://github.com/LogtalkDotOrg/logtalk3/tree/94c1fd19ea356506cb08c17bd16f4263a9cd4707/ports/toychr/" xlink:title="https://github.com/LogtalkDotOrg/logtalk3/tree/94c1fd19ea356506cb08c17bd16f4263a9cd4707/ports/toychr/">
<text text-anchor="start" x="30.5" y="-156.5" font-family="Monospace" font-size="10.00" fill="dimgray">toychr/</text>
</a>
</g>
</a>
</g>
</g>
<g id="clust10" class="cluster">
<title>cluster_file_/Users/pmoura/logtalk/ports/toychr/toychrdb.lgt</title>
<g id="a_clust10"><a xlink:title="toychrdb.lgt">
<path fill="snow" stroke="dimgray" d="M40,-183C40,-183 140,-183 140,-183 146,-183 152,-189 152,-195 152,-195 152,-339 152,-339 152,-345 146,-351 140,-351 140,-351 40,-351 40,-351 34,-351 28,-345 28,-339 28,-339 28,-195 28,-195 28,-189 34,-183 40,-183"/>
<g id="a_clust10_5"><a xlink:href="https://github.com/LogtalkDotOrg/logtalk3/tree/94c1fd19ea356506cb08c17bd16f4263a9cd4707/ports/toychr/toychrdb.lgt" xlink:title="https://github.com/LogtalkDotOrg/logtalk3/tree/94c1fd19ea356506cb08c17bd16f4263a9cd4707/ports/toychr/toychrdb.lgt">
<text text-anchor="start" x="40.5" y="-193.5" font-family="Monospace" font-size="10.00" fill="dimgray">toychrdb.lgt</text>
</a>
</g>
</a>
</g>
</g>
<!-- metagol -->
<g id="node1" class="node">
<title>metagol</title>
<g id="a_node1"><a xlink:href="https://logtalk.org/library/metagol_0.html" xlink:title="https://logtalk.org/library/metagol_0.html">
<polygon fill="cornsilk" stroke="black" points="398,-401 192,-401 192,-160 398,-160 398,-401"/>
<g id="a_node1_6"><a xlink:href="metagol_object_xref_diagram.svg" xlink:title="Zoom">
<image xlink:href="zoom.png" width="11px" height="11px" preserveAspectRatio="xMinYMin meet" x="200" y="-396.5"/>
</a>
</g>
<text text-anchor="start" x="202.5" y="-377.3" font-family="Monospace" font-size="9.00"> </text>
<text text-anchor="start" x="274" y="-376.7" font-family="Monospace" font-size="11.00">metagol</text>
<text text-anchor="start" x="384" y="-377.3" font-family="Monospace" font-size="9.00"> </text>
<text text-anchor="start" x="202.5" y="-366.3" font-family="Monospace" font-size="9.00"> </text>
<text text-anchor="start" x="278.5" y="-366.9" font-family="Monospace" font-size="7.00">prototype</text>
<text text-anchor="start" x="384" y="-366.3" font-family="Monospace" font-size="9.00"> </text>
<text text-anchor="start" x="202.5" y="-356.3" font-family="Monospace" font-size="9.00"> </text>
<text text-anchor="start" x="202.5" y="-346.3" font-family="Monospace" font-size="9.00"> </text>
<text text-anchor="start" x="278.5" y="-346.3" font-family="Monospace" font-size="9.00">learn/3</text>
<text text-anchor="start" x="384" y="-346.3" font-family="Monospace" font-size="9.00"> </text>
<text text-anchor="start" x="202.5" y="-336.3" font-family="Monospace" font-size="9.00"> </text>
<text text-anchor="start" x="278.5" y="-336.3" font-family="Monospace" font-size="9.00">learn/2</text>
<text text-anchor="start" x="384" y="-336.3" font-family="Monospace" font-size="9.00"> </text>
<text text-anchor="start" x="202.5" y="-326.3" font-family="Monospace" font-size="9.00"> </text>
<text text-anchor="start" x="267.5" y="-326.3" font-family="Monospace" font-size="9.00">learn_seq/2</text>
<text text-anchor="start" x="384" y="-326.3" font-family="Monospace" font-size="9.00"> </text>
<text text-anchor="start" x="202.5" y="-316.3" font-family="Monospace" font-size="9.00"> </text>
<text text-anchor="start" x="243" y="-316.3" font-family="Monospace" font-size="9.00">learn_with_timeout/4</text>
<text text-anchor="start" x="384" y="-316.3" font-family="Monospace" font-size="9.00"> </text>
<text text-anchor="start" x="202.5" y="-306.3" font-family="Monospace" font-size="9.00"> </text>
<text text-anchor="start" x="243" y="-306.3" font-family="Monospace" font-size="9.00">program_to_clauses/2</text>
<text text-anchor="start" x="384" y="-306.3" font-family="Monospace" font-size="9.00"> </text>
<text text-anchor="start" x="202.5" y="-296.3" font-family="Monospace" font-size="9.00"> </text>
<text text-anchor="start" x="275.5" y="-296.3" font-family="Monospace" font-size="9.00">pprint/1</text>
<text text-anchor="start" x="384" y="-296.3" font-family="Monospace" font-size="9.00"> </text>
<text text-anchor="start" x="202.5" y="-286.3" font-family="Monospace" font-size="9.00"> </text>
<text text-anchor="start" x="270" y="-286.3" font-family="Monospace" font-size="9.00">metarule/6</text>
<text text-anchor="start" x="384" y="-286.3" font-family="Monospace" font-size="9.00"> </text>
<text text-anchor="start" x="202.5" y="-276.3" font-family="Monospace" font-size="9.00"> </text>
<text text-anchor="start" x="267.5" y="-276.3" font-family="Monospace" font-size="9.00">head_pred/1</text>
<text text-anchor="start" x="384" y="-276.3" font-family="Monospace" font-size="9.00"> </text>
<text text-anchor="start" x="202.5" y="-266.3" font-family="Monospace" font-size="9.00"> </text>
<text text-anchor="start" x="267.5" y="-266.3" font-family="Monospace" font-size="9.00">body_pred/1</text>
<text text-anchor="start" x="384" y="-266.3" font-family="Monospace" font-size="9.00"> </text>
<text text-anchor="start" x="202.5" y="-256.3" font-family="Monospace" font-size="9.00"> </text>
<text text-anchor="start" x="283.5" y="-256.3" font-family="Monospace" font-size="9.00">ibk/3</text>
<text text-anchor="start" x="384" y="-256.3" font-family="Monospace" font-size="9.00"> </text>
<text text-anchor="start" x="202.5" y="-246.3" font-family="Monospace" font-size="9.00"> </text>
<text text-anchor="start" x="267.5" y="-246.3" font-family="Monospace" font-size="9.00">func_test/3</text>
<text text-anchor="start" x="384" y="-246.3" font-family="Monospace" font-size="9.00"> </text>
<text text-anchor="start" x="202.5" y="-236.3" font-family="Monospace" font-size="9.00"> </text>
<text text-anchor="start" x="265" y="-236.3" font-family="Monospace" font-size="9.00">functional/0</text>
<text text-anchor="start" x="384" y="-236.3" font-family="Monospace" font-size="9.00"> </text>
<text text-anchor="start" x="202.5" y="-226.3" font-family="Monospace" font-size="9.00"> </text>
<text text-anchor="start" x="262" y="-226.3" font-family="Monospace" font-size="9.00">min_clauses/1</text>
<text text-anchor="start" x="384" y="-226.3" font-family="Monospace" font-size="9.00"> </text>
<text text-anchor="start" x="202.5" y="-216.3" font-family="Monospace" font-size="9.00"> </text>
<text text-anchor="start" x="262" y="-216.3" font-family="Monospace" font-size="9.00">max_clauses/1</text>
<text text-anchor="start" x="384" y="-216.3" font-family="Monospace" font-size="9.00"> </text>
<text text-anchor="start" x="202.5" y="-206.3" font-family="Monospace" font-size="9.00"> </text>
<text text-anchor="start" x="256.5" y="-206.3" font-family="Monospace" font-size="9.00">max_inv_preds/1</text>
<text text-anchor="start" x="384" y="-206.3" font-family="Monospace" font-size="9.00"> </text>
<text text-anchor="start" x="202.5" y="-196.3" font-family="Monospace" font-size="9.00"> </text>
<text text-anchor="start" x="248.5" y="-196.3" font-family="Monospace" font-size="9.00">metarule_next_id/1</text>
<text text-anchor="start" x="384" y="-196.3" font-family="Monospace" font-size="9.00"> </text>
<text text-anchor="start" x="202.5" y="-186.3" font-family="Monospace" font-size="9.00"> </text>
<text text-anchor="start" x="273" y="-186.3" font-family="Monospace" font-size="9.00">timeout/1</text>
<text text-anchor="start" x="384" y="-186.3" font-family="Monospace" font-size="9.00"> </text>
<text text-anchor="start" x="202.5" y="-176.3" font-family="Monospace" font-size="9.00"> </text>
<text text-anchor="start" x="227" y="-176.3" font-family="Monospace" font-size="9.00">logtalk::message_tokens//2</text>
<text text-anchor="start" x="384" y="-176.3" font-family="Monospace" font-size="9.00"> </text>
<text text-anchor="start" x="202.5" y="-166.3" font-family="Monospace" font-size="9.00"> </text>
<text text-anchor="start" x="211" y="-166.3" font-family="Monospace" font-size="9.00">logtalk::message_prefix_stream/4</text>
<text text-anchor="start" x="384" y="-166.3" font-family="Monospace" font-size="9.00"> </text>
</a>
</g>
</g>
<!-- expanding -->
<g id="node4" class="node">
<title>expanding</title>
<g id="a_node4"><a xlink:href="https://logtalk.org/library/expanding_0.html" xlink:title="https://logtalk.org/library/expanding_0.html">
<polygon fill="mediumaquamarine" stroke="black" stroke-dasharray="5,2" points="205,-519 111,-519 111,-483 211,-483 211,-513 205,-519"/>
<polyline fill="none" stroke="black" stroke-dasharray="5,2" points="205,-519 205,-513 "/>
<polyline fill="none" stroke="black" stroke-dasharray="5,2" points="211,-513 205,-513 "/>
<text text-anchor="start" x="119" y="-503.8" font-family="Monospace" font-size="9.00"> </text>
<text text-anchor="start" x="131" y="-503.2" font-family="Monospace" font-size="11.00">expanding</text>
<text text-anchor="start" x="197" y="-503.8" font-family="Monospace" font-size="9.00"> </text>
<text text-anchor="start" x="119" y="-492.8" font-family="Monospace" font-size="9.00"> </text>
<text text-anchor="start" x="125" y="-493.4" font-family="Monospace" font-size="7.00">built&#45;in protocol</text>
<text text-anchor="start" x="197" y="-492.8" font-family="Monospace" font-size="9.00"> </text>
</a>
</g>
</g>
<!-- metagol&#45;&gt;expanding -->
<g id="edge1" class="edge">
<title>metagol&#45;&gt;expanding</title>
<g id="a_edge1"><a xlink:href="https://logtalk.org/library/metagol_0.html" xlink:title="implements">
<path fill="none" stroke="black" d="M228.35,-401.35C219.1,-416.88 209.5,-432.43 200,-447 193.64,-456.76 186.15,-467.16 179.45,-476.13"/>
<ellipse fill="black" stroke="black" cx="176.92" cy="-479.49" rx="4" ry="4"/>
</a>
</g>
<g id="a_edge1&#45;label"><a xlink:href="https://logtalk.org/library/metagol_0.html" xlink:title="https://logtalk.org/library/metagol_0.html">
<text text-anchor="start" x="205" y="-439.8" font-family="Monospace" font-size="9.00">implements</text>
</a>
</g>
</g>
<!-- metagol_example_protocol -->
<g id="node2" class="node">
<title>metagol_example_protocol</title>
<g id="a_node2"><a xlink:href="https://logtalk.org/library/metagol_example_protocol_0.html" xlink:title="https://logtalk.org/library/metagol_example_protocol_0.html">
<polygon fill="aquamarine" stroke="black" points="614,-316 428,-316 428,-245 620,-245 620,-310 614,-316"/>
<polyline fill="none" stroke="black" points="614,-316 614,-310 "/>
<polyline fill="none" stroke="black" points="620,-310 614,-310 "/>
<g id="a_node2_7"><a xlink:href="metagol_example_protocol_protocol_xref_diagram.svg" xlink:title="Zoom">
<image xlink:href="zoom.png" width="11px" height="11px" preserveAspectRatio="xMinYMin meet" x="436" y="-311.5"/>
</a>
</g>
<text text-anchor="start" x="438.5" y="-292.3" font-family="Monospace" font-size="9.00"> </text>
<text text-anchor="start" x="447" y="-291.7" font-family="Monospace" font-size="11.00">metagol_example_protocol</text>
<text text-anchor="start" x="606" y="-292.3" font-family="Monospace" font-size="9.00"> </text>
<text text-anchor="start" x="438.5" y="-281.3" font-family="Monospace" font-size="9.00"> </text>
<text text-anchor="start" x="509.5" y="-281.9" font-family="Monospace" font-size="7.00">protocol</text>
<text text-anchor="start" x="606" y="-281.3" font-family="Monospace" font-size="9.00"> </text>
<text text-anchor="start" x="438.5" y="-271.3" font-family="Monospace" font-size="9.00"> </text>
<text text-anchor="start" x="438.5" y="-261.3" font-family="Monospace" font-size="9.00"> </text>
<text text-anchor="start" x="507.5" y="-261.3" font-family="Monospace" font-size="9.00">learn/1</text>
<text text-anchor="start" x="606" y="-261.3" font-family="Monospace" font-size="9.00"> </text>
<text text-anchor="start" x="438.5" y="-251.3" font-family="Monospace" font-size="9.00"> </text>
<text text-anchor="start" x="507.5" y="-251.3" font-family="Monospace" font-size="9.00">learn/0</text>
<text text-anchor="start" x="606" y="-251.3" font-family="Monospace" font-size="9.00"> </text>
</a>
</g>
</g>
<!-- toychrdb -->
<g id="node3" class="node">
<title>toychrdb</title>
<g id="a_node3"><a xlink:href="https://logtalk.org/library/toychrdb_0.html" xlink:title="https://logtalk.org/library/toychrdb_0.html">
<polygon fill="cornsilk" stroke="black" points="142,-341 38,-341 38,-220 142,-220 142,-341"/>
<g id="a_node3_8"><a xlink:href="toychrdb_object_xref_diagram.svg" xlink:title="Zoom">
<image xlink:href="zoom.png" width="11px" height="11px" preserveAspectRatio="xMinYMin meet" x="46" y="-336.5"/>
</a>
</g>
<text text-anchor="start" x="48.5" y="-317.3" font-family="Monospace" font-size="9.00"> </text>
<text text-anchor="start" x="66" y="-316.7" font-family="Monospace" font-size="11.00">toychrdb</text>
<text text-anchor="start" x="128" y="-317.3" font-family="Monospace" font-size="9.00"> </text>
<text text-anchor="start" x="48.5" y="-306.3" font-family="Monospace" font-size="9.00"> </text>
<text text-anchor="start" x="73.5" y="-306.9" font-family="Monospace" font-size="7.00">prototype</text>
<text text-anchor="start" x="128" y="-306.3" font-family="Monospace" font-size="9.00"> </text>
<text text-anchor="start" x="48.5" y="-296.3" font-family="Monospace" font-size="9.00"> </text>
<text text-anchor="start" x="48.5" y="-286.3" font-family="Monospace" font-size="9.00"> </text>
<text text-anchor="start" x="70.5" y="-286.3" font-family="Monospace" font-size="9.00">chr_is/2</text>
<text text-anchor="start" x="128" y="-286.3" font-family="Monospace" font-size="9.00"> </text>
<text text-anchor="start" x="48.5" y="-276.3" font-family="Monospace" font-size="9.00"> </text>
<text text-anchor="start" x="62.5" y="-276.3" font-family="Monospace" font-size="9.00">chr_trace/0</text>
<text text-anchor="start" x="128" y="-276.3" font-family="Monospace" font-size="9.00"> </text>
<text text-anchor="start" x="48.5" y="-266.3" font-family="Monospace" font-size="9.00"> </text>
<text text-anchor="start" x="57" y="-266.3" font-family="Monospace" font-size="9.00">chr_notrace/0</text>
<text text-anchor="start" x="128" y="-266.3" font-family="Monospace" font-size="9.00"> </text>
<text text-anchor="start" x="48.5" y="-256.3" font-family="Monospace" font-size="9.00"> </text>
<text text-anchor="start" x="68" y="-256.3" font-family="Monospace" font-size="9.00">chr_spy/1</text>
<text text-anchor="start" x="128" y="-256.3" font-family="Monospace" font-size="9.00"> </text>
<text text-anchor="start" x="48.5" y="-246.3" font-family="Monospace" font-size="9.00"> </text>
<text text-anchor="start" x="62.5" y="-246.3" font-family="Monospace" font-size="9.00">chr_nospy/0</text>
<text text-anchor="start" x="128" y="-246.3" font-family="Monospace" font-size="9.00"> </text>
<text text-anchor="start" x="48.5" y="-236.3" font-family="Monospace" font-size="9.00"> </text>
<text text-anchor="start" x="60" y="-236.3" font-family="Monospace" font-size="9.00">chr_no_spy/1</text>
<text text-anchor="start" x="128" y="-236.3" font-family="Monospace" font-size="9.00"> </text>
<text text-anchor="start" x="48.5" y="-226.3" font-family="Monospace" font-size="9.00"> </text>
<text text-anchor="start" x="60" y="-226.3" font-family="Monospace" font-size="9.00">chr_option/2</text>
<text text-anchor="start" x="128" y="-226.3" font-family="Monospace" font-size="9.00"> </text>
</a>
</g>
</g>
<!-- toychrdb&#45;&gt;expanding -->
<g id="edge2" class="edge">
<title>toychrdb&#45;&gt;expanding</title>
<g id="a_edge2"><a xlink:href="https://logtalk.org/library/toychrdb_0.html" xlink:title="implements">
<path fill="none" stroke="black" d="M109.4,-341.21C123.71,-385.24 142.44,-442.89 152.95,-475.23"/>
<ellipse fill="black" stroke="black" cx="154.2" cy="-479.07" rx="4" ry="4"/>
</a>
</g>
<g id="a_edge2&#45;label"><a xlink:href="https://logtalk.org/library/toychrdb_0.html" xlink:title="https://logtalk.org/library/toychrdb_0.html">
<text text-anchor="start" x="141" y="-439.8" font-family="Monospace" font-size="9.00">implements</text>
</a>
</g>
</g>
</g>
</svg>
