<?xml version="1.0" encoding="UTF-8" standalone="no"?>
<?xml-stylesheet href="diagrams.css" type="text/css"?>
<!DOCTYPE svg PUBLIC "-//W3C//DTD SVG 1.1//EN"
 "http://www.w3.org/Graphics/SVG/1.1/DTD/svg11.dtd">
<!-- Generated by graphviz version 9.0.0 (20230911.1827)
 -->
<!-- Title: ports Pages: 1 -->
<svg width="968pt" height="669pt"
 viewBox="72.00 72.00 896.00 597.25" xmlns="http://www.w3.org/2000/svg" xmlns:xlink="http://www.w3.org/1999/xlink">
<g id="graph0" class="graph" transform="scale(1 1) rotate(0) translate(76 593.25)">
<title>ports</title>
<polygon fill="white" stroke="none" points="-4,4 -4,-521.25 820,-521.25 820,4 -4,4"/>
<text text-anchor="start" x="8" y="-28.25" font-family="Monospace" font-size="10.00" fill="dimgray">Logtalk ports of third&#45;party software</text>
<text text-anchor="start" x="8" y="-17" font-family="Monospace" font-size="10.00" fill="dimgray">Inheritance diagram for library ports</text>
<text text-anchor="start" x="8" y="-5.75" font-family="Monospace" font-size="10.00" fill="dimgray">Generated on 2023&#45;12&#45;31, 12:44</text>
<g id="clust1" class="cluster">
<title>cluster_rlibrary_ports</title>
<g id="a_clust1"><a xlink:title="ports/">
<path fill="lightgray" stroke="dimgray" d="M20,-49.75C20,-49.75 796,-49.75 796,-49.75 802,-49.75 808,-55.75 808,-61.75 808,-61.75 808,-497.25 808,-497.25 808,-503.25 802,-509.25 796,-509.25 796,-509.25 20,-509.25 20,-509.25 14,-509.25 8,-503.25 8,-497.25 8,-497.25 8,-61.75 8,-61.75 8,-55.75 14,-49.75 20,-49.75"/>
<g id="a_clust1_0"><a xlink:href="https://github.com/LogtalkDotOrg/logtalk3/tree/f0ef54f0957fd8cd098294ac60a8dcf87b21f0a9/ports/" xlink:title="https://github.com/LogtalkDotOrg/logtalk3/tree/f0ef54f0957fd8cd098294ac60a8dcf87b21f0a9/ports/">
<text text-anchor="start" x="20" y="-59.5" font-family="Monospace" font-size="10.00" fill="dimgray">ports/</text>
</a>
</g>
</a>
</g>
</g>
<g id="clust11" class="cluster">
<title>cluster_library_toychr</title>
<g id="a_clust11"><a xlink:title="toychr/">
<path fill="whitesmoke" stroke="dimgray" d="M670,-141C670,-141 786,-141 786,-141 792,-141 798,-147 798,-153 798,-153 798,-335.5 798,-335.5 798,-341.5 792,-347.5 786,-347.5 786,-347.5 670,-347.5 670,-347.5 664,-347.5 658,-341.5 658,-335.5 658,-335.5 658,-153 658,-153 658,-147 664,-141 670,-141"/>
<g id="a_clust11_1"><a xlink:href="https://github.com/LogtalkDotOrg/logtalk3/tree/f0ef54f0957fd8cd098294ac60a8dcf87b21f0a9/ports/toychr/" xlink:title="https://github.com/LogtalkDotOrg/logtalk3/tree/f0ef54f0957fd8cd098294ac60a8dcf87b21f0a9/ports/toychr/">
<text text-anchor="start" x="670" y="-150.75" font-family="Monospace" font-size="10.00" fill="dimgray">toychr/</text>
</a>
</g>
</a>
</g>
</g>
<g id="clust13" class="cluster">
<title>cluster_file_/Users/pmoura/logtalk/ports/toychr/toychrdb.lgt</title>
<g id="a_clust13"><a xlink:title="toychrdb.lgt">
<path fill="snow" stroke="dimgray" d="M680,-178.25C680,-178.25 776,-178.25 776,-178.25 782,-178.25 788,-184.25 788,-190.25 788,-190.25 788,-325.5 788,-325.5 788,-331.5 782,-337.5 776,-337.5 776,-337.5 680,-337.5 680,-337.5 674,-337.5 668,-331.5 668,-325.5 668,-325.5 668,-190.25 668,-190.25 668,-184.25 674,-178.25 680,-178.25"/>
<g id="a_clust13_2"><a xlink:href="https://github.com/LogtalkDotOrg/logtalk3/tree/f0ef54f0957fd8cd098294ac60a8dcf87b21f0a9/ports/toychr/toychrdb.lgt" xlink:title="https://github.com/LogtalkDotOrg/logtalk3/tree/f0ef54f0957fd8cd098294ac60a8dcf87b21f0a9/ports/toychr/toychrdb.lgt">
<text text-anchor="start" x="680" y="-188" font-family="Monospace" font-size="10.00" fill="dimgray">toychrdb.lgt</text>
</a>
</g>
</a>
</g>
</g>
<g id="clust4" class="cluster">
<title>cluster_library_fcube</title>
<g id="a_clust4"><a xlink:title="fcube/">
<path fill="whitesmoke" stroke="dimgray" d="M504,-141C504,-141 636,-141 636,-141 642,-141 648,-147 648,-153 648,-153 648,-335.5 648,-335.5 648,-341.5 642,-347.5 636,-347.5 636,-347.5 504,-347.5 504,-347.5 498,-347.5 492,-341.5 492,-335.5 492,-335.5 492,-153 492,-153 492,-147 498,-141 504,-141"/>
<g id="a_clust4_3"><a xlink:href="https://github.com/LogtalkDotOrg/logtalk3/tree/f0ef54f0957fd8cd098294ac60a8dcf87b21f0a9/ports/fcube/" xlink:title="https://github.com/LogtalkDotOrg/logtalk3/tree/f0ef54f0957fd8cd098294ac60a8dcf87b21f0a9/ports/fcube/">
<text text-anchor="start" x="504" y="-150.75" font-family="Monospace" font-size="10.00" fill="dimgray">fcube/</text>
</a>
</g>
</a>
</g>
</g>
<g id="clust6" class="cluster">
<title>cluster_file_/Users/pmoura/logtalk/ports/fcube/fcube.lgt</title>
<g id="a_clust6"><a xlink:title="fcube.lgt">
<path fill="snow" stroke="dimgray" d="M514,-178.25C514,-178.25 626,-178.25 626,-178.25 632,-178.25 638,-184.25 638,-190.25 638,-190.25 638,-325.5 638,-325.5 638,-331.5 632,-337.5 626,-337.5 626,-337.5 514,-337.5 514,-337.5 508,-337.5 502,-331.5 502,-325.5 502,-325.5 502,-190.25 502,-190.25 502,-184.25 508,-178.25 514,-178.25"/>
<g id="a_clust6_4"><a xlink:href="https://github.com/LogtalkDotOrg/logtalk3/tree/f0ef54f0957fd8cd098294ac60a8dcf87b21f0a9/ports/fcube/fcube.lgt" xlink:title="https://github.com/LogtalkDotOrg/logtalk3/tree/f0ef54f0957fd8cd098294ac60a8dcf87b21f0a9/ports/fcube/fcube.lgt">
<text text-anchor="start" x="514" y="-188" font-family="Monospace" font-size="10.00" fill="dimgray">fcube.lgt</text>
</a>
</g>
</a>
</g>
</g>
<g id="clust7" class="cluster">
<title>cluster_library_metagol</title>
<g id="a_clust7"><a xlink:title="metagol/">
<path fill="whitesmoke" stroke="dimgray" d="M30,-87C30,-87 470,-87 470,-87 476,-87 482,-93 482,-99 482,-99 482,-389.5 482,-389.5 482,-395.5 476,-401.5 470,-401.5 470,-401.5 30,-401.5 30,-401.5 24,-401.5 18,-395.5 18,-389.5 18,-389.5 18,-99 18,-99 18,-93 24,-87 30,-87"/>
<g id="a_clust7_5"><a xlink:href="https://github.com/LogtalkDotOrg/logtalk3/tree/f0ef54f0957fd8cd098294ac60a8dcf87b21f0a9/ports/metagol/" xlink:title="https://github.com/LogtalkDotOrg/logtalk3/tree/f0ef54f0957fd8cd098294ac60a8dcf87b21f0a9/ports/metagol/">
<text text-anchor="start" x="30" y="-96.75" font-family="Monospace" font-size="10.00" fill="dimgray">metagol/</text>
</a>
</g>
</a>
</g>
</g>
<g id="clust9" class="cluster">
<title>cluster_file_/Users/pmoura/logtalk/ports/metagol/metagol.lgt</title>
<g id="a_clust9"><a xlink:title="metagol.lgt">
<path fill="snow" stroke="dimgray" d="M264,-124.25C264,-124.25 460,-124.25 460,-124.25 466,-124.25 472,-130.25 472,-136.25 472,-136.25 472,-379.5 472,-379.5 472,-385.5 466,-391.5 460,-391.5 460,-391.5 264,-391.5 264,-391.5 258,-391.5 252,-385.5 252,-379.5 252,-379.5 252,-136.25 252,-136.25 252,-130.25 258,-124.25 264,-124.25"/>
<g id="a_clust9_6"><a xlink:href="https://github.com/LogtalkDotOrg/logtalk3/tree/f0ef54f0957fd8cd098294ac60a8dcf87b21f0a9/ports/metagol/metagol.lgt" xlink:title="https://github.com/LogtalkDotOrg/logtalk3/tree/f0ef54f0957fd8cd098294ac60a8dcf87b21f0a9/ports/metagol/metagol.lgt">
<text text-anchor="start" x="264" y="-134" font-family="Monospace" font-size="10.00" fill="dimgray">metagol.lgt</text>
</a>
</g>
</a>
</g>
</g>
<g id="clust10" class="cluster">
<title>cluster_file_/Users/pmoura/logtalk/ports/metagol/metagol_example_protocol.lgt</title>
<g id="a_clust10"><a xlink:title="metagol_example_protocol.lgt">
<path fill="snow" stroke="dimgray" d="M40,-200.75C40,-200.75 230,-200.75 230,-200.75 236,-200.75 242,-206.75 242,-212.75 242,-212.75 242,-303 242,-303 242,-309 236,-315 230,-315 230,-315 40,-315 40,-315 34,-315 28,-309 28,-303 28,-303 28,-212.75 28,-212.75 28,-206.75 34,-200.75 40,-200.75"/>
<g id="a_clust10_7"><a xlink:href="https://github.com/LogtalkDotOrg/logtalk3/tree/f0ef54f0957fd8cd098294ac60a8dcf87b21f0a9/ports/metagol/metagol_example_protocol.lgt" xlink:title="https://github.com/LogtalkDotOrg/logtalk3/tree/f0ef54f0957fd8cd098294ac60a8dcf87b21f0a9/ports/metagol/metagol_example_protocol.lgt">
<text text-anchor="start" x="40" y="-210.5" font-family="Monospace" font-size="10.00" fill="dimgray">metagol_example_protocol.lgt</text>
</a>
</g>
</a>
</g>
</g>
<!-- fcube -->
<g id="node1" class="node">
<title>fcube</title>
<g id="a_node1"><a xlink:href="https://logtalk.org/library/fcube_0.html" xlink:title="https://logtalk.org/library/fcube_0.html">
<polygon fill="cornsilk" stroke="black" points="628,-327.5 512,-327.5 512,-215.5 628,-215.5 628,-327.5"/>
<g id="a_node1_8"><a xlink:href="fcube_object_xref_diagram.svg" xlink:title="Zoom">
<image xlink:href="zoom.png" width="11px" height="11px" preserveAspectRatio="xMinYMin meet" x="520" y="-323.5"/>
</a>
</g>
<text text-anchor="start" x="522.88" y="-302.82" font-family="Monospace" font-size="9.00"> </text>
<text text-anchor="start" x="556.12" y="-302.05" font-family="Monospace" font-size="11.00">fcube</text>
<text text-anchor="start" x="614.88" y="-302.82" font-family="Monospace" font-size="9.00"> </text>
<text text-anchor="start" x="522.88" y="-291.95" font-family="Monospace" font-size="9.00"> </text>
<text text-anchor="start" x="552.75" y="-293.48" font-family="Monospace" font-size="7.00">prototype</text>
<text text-anchor="start" x="614.88" y="-291.95" font-family="Monospace" font-size="9.00"> </text>
<text text-anchor="start" x="522.88" y="-282.95" font-family="Monospace" font-size="9.00"> </text>
<text text-anchor="start" x="522.88" y="-273.95" font-family="Monospace" font-size="9.00"> </text>
<text text-anchor="start" x="554.62" y="-273.95" font-family="Monospace" font-size="9.00">fcube/0</text>
<text text-anchor="start" x="614.88" y="-273.95" font-family="Monospace" font-size="9.00"> </text>
<text text-anchor="start" x="522.88" y="-264.95" font-family="Monospace" font-size="9.00"> </text>
<text text-anchor="start" x="552" y="-264.95" font-family="Monospace" font-size="9.00">decide/1</text>
<text text-anchor="start" x="614.88" y="-264.95" font-family="Monospace" font-size="9.00"> </text>
<text text-anchor="start" x="522.88" y="-255.95" font-family="Monospace" font-size="9.00"> </text>
<text text-anchor="start" x="552" y="-255.95" font-family="Monospace" font-size="9.00">decide/2</text>
<text text-anchor="start" x="614.88" y="-255.95" font-family="Monospace" font-size="9.00"> </text>
<text text-anchor="start" x="522.88" y="-246.95" font-family="Monospace" font-size="9.00"> </text>
<text text-anchor="start" x="531" y="-246.95" font-family="Monospace" font-size="9.00">op(1200,xfy,&lt;=&gt;)</text>
<text text-anchor="start" x="614.88" y="-246.95" font-family="Monospace" font-size="9.00"> </text>
<text text-anchor="start" x="522.88" y="-237.95" font-family="Monospace" font-size="9.00"> </text>
<text text-anchor="start" x="533.62" y="-237.95" font-family="Monospace" font-size="9.00">op(1110,xfy,=&gt;)</text>
<text text-anchor="start" x="614.88" y="-237.95" font-family="Monospace" font-size="9.00"> </text>
<text text-anchor="start" x="522.88" y="-228.95" font-family="Monospace" font-size="9.00"> </text>
<text text-anchor="start" x="536.25" y="-228.95" font-family="Monospace" font-size="9.00">op(1000,xfy,&amp;)</text>
<text text-anchor="start" x="614.88" y="-228.95" font-family="Monospace" font-size="9.00"> </text>
<text text-anchor="start" x="522.88" y="-219.95" font-family="Monospace" font-size="9.00"> </text>
<text text-anchor="start" x="541.5" y="-219.95" font-family="Monospace" font-size="9.00">op(500,fy,~)</text>
<text text-anchor="start" x="614.88" y="-219.95" font-family="Monospace" font-size="9.00"> </text>
</a>
</g>
</g>
<!-- metagol -->
<g id="node2" class="node">
<title>metagol</title>
<g id="a_node2"><a xlink:href="https://logtalk.org/library/metagol_0.html" xlink:title="https://logtalk.org/library/metagol_0.html">
<polygon fill="cornsilk" stroke="black" points="462,-381.5 262,-381.5 262,-161.5 462,-161.5 462,-381.5"/>
<g id="a_node2_9"><a xlink:href="metagol_object_xref_diagram.svg" xlink:title="Zoom">
<image xlink:href="zoom.png" width="11px" height="11px" preserveAspectRatio="xMinYMin meet" x="270" y="-377.5"/>
</a>
</g>
<text text-anchor="start" x="272.88" y="-356.82" font-family="Monospace" font-size="9.00"> </text>
<text text-anchor="start" x="341.38" y="-356.05" font-family="Monospace" font-size="11.00">metagol</text>
<text text-anchor="start" x="448.88" y="-356.82" font-family="Monospace" font-size="9.00"> </text>
<text text-anchor="start" x="272.88" y="-345.95" font-family="Monospace" font-size="9.00"> </text>
<text text-anchor="start" x="344.75" y="-347.48" font-family="Monospace" font-size="7.00">prototype</text>
<text text-anchor="start" x="448.88" y="-345.95" font-family="Monospace" font-size="9.00"> </text>
<text text-anchor="start" x="272.88" y="-336.95" font-family="Monospace" font-size="9.00"> </text>
<text text-anchor="start" x="272.88" y="-327.95" font-family="Monospace" font-size="9.00"> </text>
<text text-anchor="start" x="346.62" y="-327.95" font-family="Monospace" font-size="9.00">learn/3</text>
<text text-anchor="start" x="448.88" y="-327.95" font-family="Monospace" font-size="9.00"> </text>
<text text-anchor="start" x="272.88" y="-318.95" font-family="Monospace" font-size="9.00"> </text>
<text text-anchor="start" x="346.62" y="-318.95" font-family="Monospace" font-size="9.00">learn/2</text>
<text text-anchor="start" x="448.88" y="-318.95" font-family="Monospace" font-size="9.00"> </text>
<text text-anchor="start" x="272.88" y="-309.95" font-family="Monospace" font-size="9.00"> </text>
<text text-anchor="start" x="336.12" y="-309.95" font-family="Monospace" font-size="9.00">learn_seq/2</text>
<text text-anchor="start" x="448.88" y="-309.95" font-family="Monospace" font-size="9.00"> </text>
<text text-anchor="start" x="272.88" y="-300.95" font-family="Monospace" font-size="9.00"> </text>
<text text-anchor="start" x="312.5" y="-300.95" font-family="Monospace" font-size="9.00">learn_with_timeout/4</text>
<text text-anchor="start" x="448.88" y="-300.95" font-family="Monospace" font-size="9.00"> </text>
<text text-anchor="start" x="272.88" y="-291.95" font-family="Monospace" font-size="9.00"> </text>
<text text-anchor="start" x="312.5" y="-291.95" font-family="Monospace" font-size="9.00">program_to_clauses/2</text>
<text text-anchor="start" x="448.88" y="-291.95" font-family="Monospace" font-size="9.00"> </text>
<text text-anchor="start" x="272.88" y="-282.95" font-family="Monospace" font-size="9.00"> </text>
<text text-anchor="start" x="344" y="-282.95" font-family="Monospace" font-size="9.00">pprint/1</text>
<text text-anchor="start" x="448.88" y="-282.95" font-family="Monospace" font-size="9.00"> </text>
<text text-anchor="start" x="272.88" y="-273.95" font-family="Monospace" font-size="9.00"> </text>
<text text-anchor="start" x="338.75" y="-273.95" font-family="Monospace" font-size="9.00">metarule/6</text>
<text text-anchor="start" x="448.88" y="-273.95" font-family="Monospace" font-size="9.00"> </text>
<text text-anchor="start" x="272.88" y="-264.95" font-family="Monospace" font-size="9.00"> </text>
<text text-anchor="start" x="336.12" y="-264.95" font-family="Monospace" font-size="9.00">head_pred/1</text>
<text text-anchor="start" x="448.88" y="-264.95" font-family="Monospace" font-size="9.00"> </text>
<text text-anchor="start" x="272.88" y="-255.95" font-family="Monospace" font-size="9.00"> </text>
<text text-anchor="start" x="336.12" y="-255.95" font-family="Monospace" font-size="9.00">body_pred/1</text>
<text text-anchor="start" x="448.88" y="-255.95" font-family="Monospace" font-size="9.00"> </text>
<text text-anchor="start" x="272.88" y="-246.95" font-family="Monospace" font-size="9.00"> </text>
<text text-anchor="start" x="351.88" y="-246.95" font-family="Monospace" font-size="9.00">ibk/3</text>
<text text-anchor="start" x="448.88" y="-246.95" font-family="Monospace" font-size="9.00"> </text>
<text text-anchor="start" x="272.88" y="-237.95" font-family="Monospace" font-size="9.00"> </text>
<text text-anchor="start" x="336.12" y="-237.95" font-family="Monospace" font-size="9.00">func_test/3</text>
<text text-anchor="start" x="448.88" y="-237.95" font-family="Monospace" font-size="9.00"> </text>
<text text-anchor="start" x="272.88" y="-228.95" font-family="Monospace" font-size="9.00"> </text>
<text text-anchor="start" x="333.5" y="-228.95" font-family="Monospace" font-size="9.00">functional/0</text>
<text text-anchor="start" x="448.88" y="-228.95" font-family="Monospace" font-size="9.00"> </text>
<text text-anchor="start" x="272.88" y="-219.95" font-family="Monospace" font-size="9.00"> </text>
<text text-anchor="start" x="330.88" y="-219.95" font-family="Monospace" font-size="9.00">min_clauses/1</text>
<text text-anchor="start" x="448.88" y="-219.95" font-family="Monospace" font-size="9.00"> </text>
<text text-anchor="start" x="272.88" y="-210.95" font-family="Monospace" font-size="9.00"> </text>
<text text-anchor="start" x="330.88" y="-210.95" font-family="Monospace" font-size="9.00">max_clauses/1</text>
<text text-anchor="start" x="448.88" y="-210.95" font-family="Monospace" font-size="9.00"> </text>
<text text-anchor="start" x="272.88" y="-201.95" font-family="Monospace" font-size="9.00"> </text>
<text text-anchor="start" x="325.62" y="-201.95" font-family="Monospace" font-size="9.00">max_inv_preds/1</text>
<text text-anchor="start" x="448.88" y="-201.95" font-family="Monospace" font-size="9.00"> </text>
<text text-anchor="start" x="272.88" y="-192.95" font-family="Monospace" font-size="9.00"> </text>
<text text-anchor="start" x="317.75" y="-192.95" font-family="Monospace" font-size="9.00">metarule_next_id/1</text>
<text text-anchor="start" x="448.88" y="-192.95" font-family="Monospace" font-size="9.00"> </text>
<text text-anchor="start" x="272.88" y="-183.95" font-family="Monospace" font-size="9.00"> </text>
<text text-anchor="start" x="341.38" y="-183.95" font-family="Monospace" font-size="9.00">timeout/1</text>
<text text-anchor="start" x="448.88" y="-183.95" font-family="Monospace" font-size="9.00"> </text>
<text text-anchor="start" x="272.88" y="-174.95" font-family="Monospace" font-size="9.00"> </text>
<text text-anchor="start" x="296.75" y="-174.95" font-family="Monospace" font-size="9.00">logtalk::message_tokens//2</text>
<text text-anchor="start" x="448.88" y="-174.95" font-family="Monospace" font-size="9.00"> </text>
<text text-anchor="start" x="272.88" y="-165.95" font-family="Monospace" font-size="9.00"> </text>
<text text-anchor="start" x="281" y="-165.95" font-family="Monospace" font-size="9.00">logtalk::message_prefix_stream/4</text>
<text text-anchor="start" x="448.88" y="-165.95" font-family="Monospace" font-size="9.00"> </text>
</a>
</g>
</g>
<!-- expanding -->
<g id="node5" class="node">
<title>expanding</title>
<g id="a_node5"><a xlink:href="https://logtalk.org/library/expanding_0.html" xlink:title="https://logtalk.org/library/expanding_0.html">
<polygon fill="mediumaquamarine" stroke="black" stroke-dasharray="5,2" points="517,-499.25 421,-499.25 421,-463.25 523,-463.25 523,-493.25 517,-499.25"/>
<polyline fill="none" stroke="black" stroke-dasharray="5,2" points="517,-499.25 517,-493.25"/>
<polyline fill="none" stroke="black" stroke-dasharray="5,2" points="523,-493.25 517,-493.25"/>
<text text-anchor="start" x="428.88" y="-482.07" font-family="Monospace" font-size="9.00"> </text>
<text text-anchor="start" x="441.62" y="-481.3" font-family="Monospace" font-size="11.00">expanding</text>
<text text-anchor="start" x="509.88" y="-482.07" font-family="Monospace" font-size="9.00"> </text>
<text text-anchor="start" x="428.88" y="-471.2" font-family="Monospace" font-size="9.00"> </text>
<text text-anchor="start" x="433.75" y="-472.73" font-family="Monospace" font-size="7.00">built&#45;in protocol</text>
<text text-anchor="start" x="509.88" y="-471.2" font-family="Monospace" font-size="9.00"> </text>
</a>
</g>
</g>
<!-- metagol&#45;&gt;expanding -->
<g id="edge1" class="edge">
<title>metagol&#45;&gt;expanding</title>
<g id="a_edge1"><a xlink:href="https://logtalk.org/library/metagol_0.html" xlink:title="implements">
<path fill="none" stroke="black" d="M419.9,-381.85C434.51,-409.44 448.84,-436.51 458.77,-455.25"/>
<ellipse fill="black" stroke="black" cx="460.76" cy="-459.03" rx="4" ry="4"/>
</a>
</g>
<g id="a_edge1&#45;label"><a xlink:href="https://logtalk.org/library/metagol_0.html" xlink:title="https://logtalk.org/library/metagol_0.html">
<text text-anchor="start" x="442" y="-418.7" font-family="Monospace" font-size="9.00">implements</text>
</a>
</g>
</g>
<!-- metagol_example_protocol -->
<g id="node3" class="node">
<title>metagol_example_protocol</title>
<g id="a_node3"><a xlink:href="https://logtalk.org/library/metagol_example_protocol_0.html" xlink:title="https://logtalk.org/library/metagol_example_protocol_0.html">
<polygon fill="aquamarine" stroke="black" points="226,-305 38,-305 38,-238 232,-238 232,-299 226,-305"/>
<polyline fill="none" stroke="black" points="226,-305 226,-299"/>
<polyline fill="none" stroke="black" points="232,-299 226,-299"/>
<g id="a_node3_10"><a xlink:href="metagol_example_protocol_protocol_xref_diagram.svg" xlink:title="Zoom">
<image xlink:href="zoom.png" width="11px" height="11px" preserveAspectRatio="xMinYMin meet" x="46" y="-301"/>
</a>
</g>
<text text-anchor="start" x="48.88" y="-280.32" font-family="Monospace" font-size="9.00"> </text>
<text text-anchor="start" x="57" y="-279.55" font-family="Monospace" font-size="11.00">metagol_example_protocol</text>
<text text-anchor="start" x="218.88" y="-280.32" font-family="Monospace" font-size="9.00"> </text>
<text text-anchor="start" x="48.88" y="-269.45" font-family="Monospace" font-size="9.00"> </text>
<text text-anchor="start" x="120" y="-270.98" font-family="Monospace" font-size="7.00">protocol</text>
<text text-anchor="start" x="218.88" y="-269.45" font-family="Monospace" font-size="9.00"> </text>
<text text-anchor="start" x="48.88" y="-260.45" font-family="Monospace" font-size="9.00"> </text>
<text text-anchor="start" x="48.88" y="-251.45" font-family="Monospace" font-size="9.00"> </text>
<text text-anchor="start" x="119.62" y="-251.45" font-family="Monospace" font-size="9.00">learn/1</text>
<text text-anchor="start" x="218.88" y="-251.45" font-family="Monospace" font-size="9.00"> </text>
<text text-anchor="start" x="48.88" y="-242.45" font-family="Monospace" font-size="9.00"> </text>
<text text-anchor="start" x="119.62" y="-242.45" font-family="Monospace" font-size="9.00">learn/0</text>
<text text-anchor="start" x="218.88" y="-242.45" font-family="Monospace" font-size="9.00"> </text>
</a>
</g>
</g>
<!-- toychrdb -->
<g id="node4" class="node">
<title>toychrdb</title>
<g id="a_node4"><a xlink:href="https://logtalk.org/library/toychrdb_0.html" xlink:title="https://logtalk.org/library/toychrdb_0.html">
<polygon fill="cornsilk" stroke="black" points="778,-327.5 678,-327.5 678,-215.5 778,-215.5 778,-327.5"/>
<g id="a_node4_11"><a xlink:href="toychrdb_object_xref_diagram.svg" xlink:title="Zoom">
<image xlink:href="zoom.png" width="11px" height="11px" preserveAspectRatio="xMinYMin meet" x="686" y="-323.5"/>
</a>
</g>
<text text-anchor="start" x="688.88" y="-302.82" font-family="Monospace" font-size="9.00"> </text>
<text text-anchor="start" x="704" y="-302.05" font-family="Monospace" font-size="11.00">toychrdb</text>
<text text-anchor="start" x="764.88" y="-302.82" font-family="Monospace" font-size="9.00"> </text>
<text text-anchor="start" x="688.88" y="-291.95" font-family="Monospace" font-size="9.00"> </text>
<text text-anchor="start" x="710.75" y="-293.48" font-family="Monospace" font-size="7.00">prototype</text>
<text text-anchor="start" x="764.88" y="-291.95" font-family="Monospace" font-size="9.00"> </text>
<text text-anchor="start" x="688.88" y="-282.95" font-family="Monospace" font-size="9.00"> </text>
<text text-anchor="start" x="688.88" y="-273.95" font-family="Monospace" font-size="9.00"> </text>
<text text-anchor="start" x="710" y="-273.95" font-family="Monospace" font-size="9.00">chr_is/2</text>
<text text-anchor="start" x="764.88" y="-273.95" font-family="Monospace" font-size="9.00"> </text>
<text text-anchor="start" x="688.88" y="-264.95" font-family="Monospace" font-size="9.00"> </text>
<text text-anchor="start" x="702.12" y="-264.95" font-family="Monospace" font-size="9.00">chr_trace/0</text>
<text text-anchor="start" x="764.88" y="-264.95" font-family="Monospace" font-size="9.00"> </text>
<text text-anchor="start" x="688.88" y="-255.95" font-family="Monospace" font-size="9.00"> </text>
<text text-anchor="start" x="696.88" y="-255.95" font-family="Monospace" font-size="9.00">chr_notrace/0</text>
<text text-anchor="start" x="764.88" y="-255.95" font-family="Monospace" font-size="9.00"> </text>
<text text-anchor="start" x="688.88" y="-246.95" font-family="Monospace" font-size="9.00"> </text>
<text text-anchor="start" x="707.38" y="-246.95" font-family="Monospace" font-size="9.00">chr_spy/1</text>
<text text-anchor="start" x="764.88" y="-246.95" font-family="Monospace" font-size="9.00"> </text>
<text text-anchor="start" x="688.88" y="-237.95" font-family="Monospace" font-size="9.00"> </text>
<text text-anchor="start" x="702.12" y="-237.95" font-family="Monospace" font-size="9.00">chr_nospy/0</text>
<text text-anchor="start" x="764.88" y="-237.95" font-family="Monospace" font-size="9.00"> </text>
<text text-anchor="start" x="688.88" y="-228.95" font-family="Monospace" font-size="9.00"> </text>
<text text-anchor="start" x="699.5" y="-228.95" font-family="Monospace" font-size="9.00">chr_no_spy/1</text>
<text text-anchor="start" x="764.88" y="-228.95" font-family="Monospace" font-size="9.00"> </text>
<text text-anchor="start" x="688.88" y="-219.95" font-family="Monospace" font-size="9.00"> </text>
<text text-anchor="start" x="699.5" y="-219.95" font-family="Monospace" font-size="9.00">chr_option/2</text>
<text text-anchor="start" x="764.88" y="-219.95" font-family="Monospace" font-size="9.00"> </text>
</a>
</g>
</g>
<!-- toychrdb&#45;&gt;expanding -->
<g id="edge2" class="edge">
<title>toychrdb&#45;&gt;expanding</title>
<g id="a_edge2"><a xlink:href="https://logtalk.org/library/toychrdb_0.html" xlink:title="implements">
<path fill="none" stroke="black" d="M700.25,-327.82C685.59,-352.8 665.71,-381.19 642,-401.5 609.87,-429.02 566.5,-448.91 531.61,-461.81"/>
<ellipse fill="black" stroke="black" cx="527.63" cy="-463.25" rx="4" ry="4"/>
</a>
</g>
<g id="a_edge2&#45;label"><a xlink:href="https://logtalk.org/library/toychrdb_0.html" xlink:title="https://logtalk.org/library/toychrdb_0.html">
<text text-anchor="start" x="617" y="-418.7" font-family="Monospace" font-size="9.00">implements</text>
</a>
</g>
</g>
</g>
</svg>
