<?xml version="1.0" encoding="UTF-8" standalone="no"?>
<?xml-stylesheet href="diagrams.css" type="text/css"?>
<!DOCTYPE svg PUBLIC "-//W3C//DTD SVG 1.1//EN"
 "http://www.w3.org/Graphics/SVG/1.1/DTD/svg11.dtd">
<!-- Generated by graphviz version 2.43.20191029.1313 (20191029.1313)
 -->
<!-- Title: ports Pages: 1 -->
<svg width="804pt" height="660pt"
 viewBox="72.00 72.00 732.00 588.00" xmlns="http://www.w3.org/2000/svg" xmlns:xlink="http://www.w3.org/1999/xlink">
<g id="graph0" class="graph" transform="scale(1 1) rotate(0) translate(76 584)">
<title>ports</title>
<polygon fill="white" stroke="transparent" points="-4,4 -4,-512 656,-512 656,4 -4,4"/>
<text text-anchor="start" x="8" y="-26" font-family="Courier,monospace" font-size="10.00" fill="dimgray">Logtalk ports of third&#45;party software</text>
<text text-anchor="start" x="8" y="-16" font-family="Courier,monospace" font-size="10.00" fill="dimgray">Inheritance diagram for library ports</text>
<text text-anchor="start" x="8" y="-6" font-family="Courier,monospace" font-size="10.00" fill="dimgray">Generated on 2020&#45;04&#45;29, 02:13</text>
<g id="clust1" class="cluster">
<title>cluster_rlibrary_ports</title>
<g id="a_clust1"><a xlink:title="ports/">
<path fill="lightgray" stroke="dimgray" d="M20,-46C20,-46 632,-46 632,-46 638,-46 644,-52 644,-58 644,-58 644,-488 644,-488 644,-494 638,-500 632,-500 632,-500 20,-500 20,-500 14,-500 8,-494 8,-488 8,-488 8,-58 8,-58 8,-52 14,-46 20,-46"/>
<g id="a_clust1_0"><a xlink:href="https://github.com/LogtalkDotOrg/logtalk3/tree/f7f7a2f6f00a0dc417a1ef03f303ecbcaf7f2425/ports/" xlink:title="https://github.com/LogtalkDotOrg/logtalk3/tree/f7f7a2f6f00a0dc417a1ef03f303ecbcaf7f2425/ports/">
<text text-anchor="start" x="20" y="-56" font-family="Courier,monospace" font-size="10.00" fill="dimgray">ports/</text>
</a>
</g>
</a>
</g>
</g>
<g id="clust8" class="cluster">
<title>cluster_library_toychr</title>
<g id="a_clust8"><a xlink:title="toychr/">
<path fill="whitesmoke" stroke="dimgray" d="M504,-136C504,-136 622,-136 622,-136 628,-136 634,-142 634,-148 634,-148 634,-327 634,-327 634,-333 628,-339 622,-339 622,-339 504,-339 504,-339 498,-339 492,-333 492,-327 492,-327 492,-148 492,-148 492,-142 498,-136 504,-136"/>
<g id="a_clust8_1"><a xlink:href="https://github.com/LogtalkDotOrg/logtalk3/tree/f7f7a2f6f00a0dc417a1ef03f303ecbcaf7f2425/ports/toychr/" xlink:title="https://github.com/LogtalkDotOrg/logtalk3/tree/f7f7a2f6f00a0dc417a1ef03f303ecbcaf7f2425/ports/toychr/">
<text text-anchor="start" x="504" y="-146" font-family="Courier,monospace" font-size="10.00" fill="dimgray">toychr/</text>
</a>
</g>
</a>
</g>
</g>
<g id="clust10" class="cluster">
<title>cluster_file_/Users/pmoura/logtalk/ports/toychr/toychrdb.lgt</title>
<g id="a_clust10"><a xlink:title="toychrdb.lgt">
<path fill="snow" stroke="dimgray" d="M514,-172C514,-172 612,-172 612,-172 618,-172 624,-178 624,-184 624,-184 624,-317 624,-317 624,-323 618,-329 612,-329 612,-329 514,-329 514,-329 508,-329 502,-323 502,-317 502,-317 502,-184 502,-184 502,-178 508,-172 514,-172"/>
<g id="a_clust10_2"><a xlink:href="https://github.com/LogtalkDotOrg/logtalk3/tree/f7f7a2f6f00a0dc417a1ef03f303ecbcaf7f2425/ports/toychr/toychrdb.lgt" xlink:title="https://github.com/LogtalkDotOrg/logtalk3/tree/f7f7a2f6f00a0dc417a1ef03f303ecbcaf7f2425/ports/toychr/toychrdb.lgt">
<text text-anchor="start" x="513.99" y="-182" font-family="Courier,monospace" font-size="10.00" fill="dimgray">toychrdb.lgt</text>
</a>
</g>
</a>
</g>
</g>
<g id="clust4" class="cluster">
<title>cluster_library_metagol</title>
<g id="a_clust4"><a xlink:title="metagol/">
<path fill="whitesmoke" stroke="dimgray" d="M30,-82C30,-82 470,-82 470,-82 476,-82 482,-88 482,-94 482,-94 482,-381 482,-381 482,-387 476,-393 470,-393 470,-393 30,-393 30,-393 24,-393 18,-387 18,-381 18,-381 18,-94 18,-94 18,-88 24,-82 30,-82"/>
<g id="a_clust4_3"><a xlink:href="https://github.com/LogtalkDotOrg/logtalk3/tree/f7f7a2f6f00a0dc417a1ef03f303ecbcaf7f2425/ports/metagol/" xlink:title="https://github.com/LogtalkDotOrg/logtalk3/tree/f7f7a2f6f00a0dc417a1ef03f303ecbcaf7f2425/ports/metagol/">
<text text-anchor="start" x="30" y="-92" font-family="Courier,monospace" font-size="10.00" fill="dimgray">metagol/</text>
</a>
</g>
</a>
</g>
</g>
<g id="clust7" class="cluster">
<title>cluster_file_/Users/pmoura/logtalk/ports/metagol/metagol_example_protocol.lgt</title>
<g id="a_clust7"><a xlink:title="metagol_example_protocol.lgt">
<path fill="snow" stroke="dimgray" d="M274,-194.5C274,-194.5 460,-194.5 460,-194.5 466,-194.5 472,-200.5 472,-206.5 472,-206.5 472,-294.5 472,-294.5 472,-300.5 466,-306.5 460,-306.5 460,-306.5 274,-306.5 274,-306.5 268,-306.5 262,-300.5 262,-294.5 262,-294.5 262,-206.5 262,-206.5 262,-200.5 268,-194.5 274,-194.5"/>
<g id="a_clust7_4"><a xlink:href="https://github.com/LogtalkDotOrg/logtalk3/tree/f7f7a2f6f00a0dc417a1ef03f303ecbcaf7f2425/ports/metagol/metagol_example_protocol.lgt" xlink:title="https://github.com/LogtalkDotOrg/logtalk3/tree/f7f7a2f6f00a0dc417a1ef03f303ecbcaf7f2425/ports/metagol/metagol_example_protocol.lgt">
<text text-anchor="start" x="273.99" y="-204.5" font-family="Courier,monospace" font-size="10.00" fill="dimgray">metagol_example_protocol.lgt</text>
</a>
</g>
</a>
</g>
</g>
<g id="clust6" class="cluster">
<title>cluster_file_/Users/pmoura/logtalk/ports/metagol/metagol.lgt</title>
<g id="a_clust6"><a xlink:title="metagol.lgt">
<path fill="snow" stroke="dimgray" d="M40,-118C40,-118 240,-118 240,-118 246,-118 252,-124 252,-130 252,-130 252,-371 252,-371 252,-377 246,-383 240,-383 240,-383 40,-383 40,-383 34,-383 28,-377 28,-371 28,-371 28,-130 28,-130 28,-124 34,-118 40,-118"/>
<g id="a_clust6_5"><a xlink:href="https://github.com/LogtalkDotOrg/logtalk3/tree/f7f7a2f6f00a0dc417a1ef03f303ecbcaf7f2425/ports/metagol/metagol.lgt" xlink:title="https://github.com/LogtalkDotOrg/logtalk3/tree/f7f7a2f6f00a0dc417a1ef03f303ecbcaf7f2425/ports/metagol/metagol.lgt">
<text text-anchor="start" x="39.99" y="-128" font-family="Courier,monospace" font-size="10.00" fill="dimgray">metagol.lgt</text>
</a>
</g>
</a>
</g>
</g>
<!-- metagol -->
<g id="node1" class="node">
<title>metagol</title>
<g id="a_node1"><a xlink:href="https://logtalk.org/library/metagol_0.html" xlink:title="https://logtalk.org/library/metagol_0.html">
<polygon fill="cornsilk" stroke="black" points="242,-373 38,-373 38,-154 242,-154 242,-373"/>
<g id="a_node1_6"><a xlink:href="metagol_object_xref_diagram.svg" xlink:title="Zoom">
<image xlink:href="zoom.png" width="11px" height="11px" preserveAspectRatio="xMinYMin meet" x="46" y="-368.5"/>
</a>
</g>
<text text-anchor="start" x="48.8" y="-349.3" font-family="Courier,monospace" font-size="9.00"> </text>
<text text-anchor="start" x="119.9" y="-348.7" font-family="Courier,monospace" font-size="11.00">metagol</text>
<text text-anchor="start" x="228.8" y="-349.3" font-family="Courier,monospace" font-size="9.00"> </text>
<text text-anchor="start" x="48.8" y="-339.3" font-family="Courier,monospace" font-size="9.00"> </text>
<text text-anchor="start" x="124.1" y="-339.9" font-family="Courier,monospace" font-size="7.00">prototype</text>
<text text-anchor="start" x="228.8" y="-339.3" font-family="Courier,monospace" font-size="9.00"> </text>
<text text-anchor="start" x="48.8" y="-330.3" font-family="Courier,monospace" font-size="9.00"> </text>
<text text-anchor="start" x="48.8" y="-321.3" font-family="Courier,monospace" font-size="9.00"> </text>
<text text-anchor="start" x="124.1" y="-321.3" font-family="Courier,monospace" font-size="9.00">learn/3</text>
<text text-anchor="start" x="228.8" y="-321.3" font-family="Courier,monospace" font-size="9.00"> </text>
<text text-anchor="start" x="48.8" y="-312.3" font-family="Courier,monospace" font-size="9.00"> </text>
<text text-anchor="start" x="124.1" y="-312.3" font-family="Courier,monospace" font-size="9.00">learn/2</text>
<text text-anchor="start" x="228.8" y="-312.3" font-family="Courier,monospace" font-size="9.00"> </text>
<text text-anchor="start" x="48.8" y="-303.3" font-family="Courier,monospace" font-size="9.00"> </text>
<text text-anchor="start" x="113.3" y="-303.3" font-family="Courier,monospace" font-size="9.00">learn_seq/2</text>
<text text-anchor="start" x="228.8" y="-303.3" font-family="Courier,monospace" font-size="9.00"> </text>
<text text-anchor="start" x="48.8" y="-294.3" font-family="Courier,monospace" font-size="9.00"> </text>
<text text-anchor="start" x="88.99" y="-294.3" font-family="Courier,monospace" font-size="9.00">learn_with_timeout/4</text>
<text text-anchor="start" x="228.8" y="-294.3" font-family="Courier,monospace" font-size="9.00"> </text>
<text text-anchor="start" x="48.8" y="-285.3" font-family="Courier,monospace" font-size="9.00"> </text>
<text text-anchor="start" x="88.99" y="-285.3" font-family="Courier,monospace" font-size="9.00">program_to_clauses/2</text>
<text text-anchor="start" x="228.8" y="-285.3" font-family="Courier,monospace" font-size="9.00"> </text>
<text text-anchor="start" x="48.8" y="-276.3" font-family="Courier,monospace" font-size="9.00"> </text>
<text text-anchor="start" x="121.4" y="-276.3" font-family="Courier,monospace" font-size="9.00">pprint/1</text>
<text text-anchor="start" x="228.8" y="-276.3" font-family="Courier,monospace" font-size="9.00"> </text>
<text text-anchor="start" x="48.8" y="-267.3" font-family="Courier,monospace" font-size="9.00"> </text>
<text text-anchor="start" x="116" y="-267.3" font-family="Courier,monospace" font-size="9.00">metarule/6</text>
<text text-anchor="start" x="228.8" y="-267.3" font-family="Courier,monospace" font-size="9.00"> </text>
<text text-anchor="start" x="48.8" y="-258.3" font-family="Courier,monospace" font-size="9.00"> </text>
<text text-anchor="start" x="113.3" y="-258.3" font-family="Courier,monospace" font-size="9.00">head_pred/1</text>
<text text-anchor="start" x="228.8" y="-258.3" font-family="Courier,monospace" font-size="9.00"> </text>
<text text-anchor="start" x="48.8" y="-249.3" font-family="Courier,monospace" font-size="9.00"> </text>
<text text-anchor="start" x="113.3" y="-249.3" font-family="Courier,monospace" font-size="9.00">body_pred/1</text>
<text text-anchor="start" x="228.8" y="-249.3" font-family="Courier,monospace" font-size="9.00"> </text>
<text text-anchor="start" x="48.8" y="-240.3" font-family="Courier,monospace" font-size="9.00"> </text>
<text text-anchor="start" x="129.5" y="-240.3" font-family="Courier,monospace" font-size="9.00">ibk/3</text>
<text text-anchor="start" x="228.8" y="-240.3" font-family="Courier,monospace" font-size="9.00"> </text>
<text text-anchor="start" x="48.8" y="-231.3" font-family="Courier,monospace" font-size="9.00"> </text>
<text text-anchor="start" x="113.3" y="-231.3" font-family="Courier,monospace" font-size="9.00">func_test/3</text>
<text text-anchor="start" x="228.8" y="-231.3" font-family="Courier,monospace" font-size="9.00"> </text>
<text text-anchor="start" x="48.8" y="-222.3" font-family="Courier,monospace" font-size="9.00"> </text>
<text text-anchor="start" x="110.59" y="-222.3" font-family="Courier,monospace" font-size="9.00">functional/0</text>
<text text-anchor="start" x="228.8" y="-222.3" font-family="Courier,monospace" font-size="9.00"> </text>
<text text-anchor="start" x="48.8" y="-213.3" font-family="Courier,monospace" font-size="9.00"> </text>
<text text-anchor="start" x="107.89" y="-213.3" font-family="Courier,monospace" font-size="9.00">min_clauses/1</text>
<text text-anchor="start" x="228.8" y="-213.3" font-family="Courier,monospace" font-size="9.00"> </text>
<text text-anchor="start" x="48.8" y="-204.3" font-family="Courier,monospace" font-size="9.00"> </text>
<text text-anchor="start" x="107.89" y="-204.3" font-family="Courier,monospace" font-size="9.00">max_clauses/1</text>
<text text-anchor="start" x="228.8" y="-204.3" font-family="Courier,monospace" font-size="9.00"> </text>
<text text-anchor="start" x="48.8" y="-195.3" font-family="Courier,monospace" font-size="9.00"> </text>
<text text-anchor="start" x="102.49" y="-195.3" font-family="Courier,monospace" font-size="9.00">max_inv_preds/1</text>
<text text-anchor="start" x="228.8" y="-195.3" font-family="Courier,monospace" font-size="9.00"> </text>
<text text-anchor="start" x="48.8" y="-186.3" font-family="Courier,monospace" font-size="9.00"> </text>
<text text-anchor="start" x="94.39" y="-186.3" font-family="Courier,monospace" font-size="9.00">metarule_next_id/1</text>
<text text-anchor="start" x="228.8" y="-186.3" font-family="Courier,monospace" font-size="9.00"> </text>
<text text-anchor="start" x="48.8" y="-177.3" font-family="Courier,monospace" font-size="9.00"> </text>
<text text-anchor="start" x="118.7" y="-177.3" font-family="Courier,monospace" font-size="9.00">timeout/1</text>
<text text-anchor="start" x="228.8" y="-177.3" font-family="Courier,monospace" font-size="9.00"> </text>
<text text-anchor="start" x="48.8" y="-168.3" font-family="Courier,monospace" font-size="9.00"> </text>
<text text-anchor="start" x="72.79" y="-168.3" font-family="Courier,monospace" font-size="9.00">logtalk::message_tokens//2</text>
<text text-anchor="start" x="228.8" y="-168.3" font-family="Courier,monospace" font-size="9.00"> </text>
<text text-anchor="start" x="48.8" y="-159.3" font-family="Courier,monospace" font-size="9.00"> </text>
<text text-anchor="start" x="56.59" y="-159.3" font-family="Courier,monospace" font-size="9.00">logtalk::message_prefix_stream/4</text>
<text text-anchor="start" x="228.8" y="-159.3" font-family="Courier,monospace" font-size="9.00"> </text>
</a>
</g>
</g>
<!-- expanding -->
<g id="node4" class="node">
<title>expanding</title>
<g id="a_node4"><a xlink:href="https://logtalk.org/library/expanding_0.html" xlink:title="https://logtalk.org/library/expanding_0.html">
<polygon fill="mediumaquamarine" stroke="black" stroke-dasharray="5,2" points="306.5,-490 215.5,-490 215.5,-454 312.5,-454 312.5,-484 306.5,-490"/>
<polyline fill="none" stroke="black" stroke-dasharray="5,2" points="306.5,-490 306.5,-484 "/>
<polyline fill="none" stroke="black" stroke-dasharray="5,2" points="312.5,-484 306.5,-484 "/>
<text text-anchor="start" x="223.8" y="-473.8" font-family="Courier,monospace" font-size="9.00"> </text>
<text text-anchor="start" x="234.8" y="-473.2" font-family="Courier,monospace" font-size="11.00">expanding</text>
<text text-anchor="start" x="299.8" y="-473.8" font-family="Courier,monospace" font-size="9.00"> </text>
<text text-anchor="start" x="223.8" y="-463.8" font-family="Courier,monospace" font-size="9.00"> </text>
<text text-anchor="start" x="228.79" y="-464.4" font-family="Courier,monospace" font-size="7.00">built&#45;in protocol</text>
<text text-anchor="start" x="299.8" y="-463.8" font-family="Courier,monospace" font-size="9.00"> </text>
</a>
</g>
</g>
<!-- metagol&#45;&gt;expanding -->
<g id="edge1" class="edge">
<title>metagol&#45;&gt;expanding</title>
<g id="a_edge1"><a xlink:href="https://logtalk.org/library/metagol_0.html" xlink:title="implements">
<path fill="none" stroke="black" d="M205.27,-373.19C221.96,-400.98 238.33,-428.25 249.53,-446.9"/>
<ellipse fill="black" stroke="black" cx="251.65" cy="-450.43" rx="4" ry="4"/>
</a>
</g>
<g id="a_edge1&#45;label"><a xlink:href="https://logtalk.org/library/metagol_0.html" xlink:title="https://logtalk.org/library/metagol_0.html">
<text text-anchor="start" x="230" y="-410.8" font-family="Courier,monospace" font-size="9.00">implements</text>
</a>
</g>
</g>
<!-- metagol_example_protocol -->
<g id="node2" class="node">
<title>metagol_example_protocol</title>
<g id="a_node2"><a xlink:href="https://logtalk.org/library/metagol_example_protocol_0.html" xlink:title="https://logtalk.org/library/metagol_example_protocol_0.html">
<polygon fill="aquamarine" stroke="black" points="456,-296.5 272,-296.5 272,-230.5 462,-230.5 462,-290.5 456,-296.5"/>
<polyline fill="none" stroke="black" points="456,-296.5 456,-290.5 "/>
<polyline fill="none" stroke="black" points="462,-290.5 456,-290.5 "/>
<g id="a_node2_7"><a xlink:href="metagol_example_protocol_protocol_xref_diagram.svg" xlink:title="Zoom">
<image xlink:href="zoom.png" width="11px" height="11px" preserveAspectRatio="xMinYMin meet" x="280" y="-292.5"/>
</a>
</g>
<text text-anchor="start" x="282.8" y="-273.3" font-family="Courier,monospace" font-size="9.00"> </text>
<text text-anchor="start" x="290.79" y="-272.7" font-family="Courier,monospace" font-size="11.00">metagol_example_protocol</text>
<text text-anchor="start" x="448.8" y="-273.3" font-family="Courier,monospace" font-size="9.00"> </text>
<text text-anchor="start" x="282.8" y="-263.3" font-family="Courier,monospace" font-size="9.00"> </text>
<text text-anchor="start" x="353.2" y="-263.9" font-family="Courier,monospace" font-size="7.00">protocol</text>
<text text-anchor="start" x="448.8" y="-263.3" font-family="Courier,monospace" font-size="9.00"> </text>
<text text-anchor="start" x="282.8" y="-254.3" font-family="Courier,monospace" font-size="9.00"> </text>
<text text-anchor="start" x="282.8" y="-245.3" font-family="Courier,monospace" font-size="9.00"> </text>
<text text-anchor="start" x="351.1" y="-245.3" font-family="Courier,monospace" font-size="9.00">learn/1</text>
<text text-anchor="start" x="448.8" y="-245.3" font-family="Courier,monospace" font-size="9.00"> </text>
<text text-anchor="start" x="282.8" y="-236.3" font-family="Courier,monospace" font-size="9.00"> </text>
<text text-anchor="start" x="351.1" y="-236.3" font-family="Courier,monospace" font-size="9.00">learn/0</text>
<text text-anchor="start" x="448.8" y="-236.3" font-family="Courier,monospace" font-size="9.00"> </text>
</a>
</g>
</g>
<!-- toychrdb -->
<g id="node3" class="node">
<title>toychrdb</title>
<g id="a_node3"><a xlink:href="https://logtalk.org/library/toychrdb_0.html" xlink:title="https://logtalk.org/library/toychrdb_0.html">
<polygon fill="cornsilk" stroke="black" points="614,-319 512,-319 512,-208 614,-208 614,-319"/>
<g id="a_node3_8"><a xlink:href="toychrdb_object_xref_diagram.svg" xlink:title="Zoom">
<image xlink:href="zoom.png" width="11px" height="11px" preserveAspectRatio="xMinYMin meet" x="520" y="-314.5"/>
</a>
</g>
<text text-anchor="start" x="522.8" y="-295.3" font-family="Courier,monospace" font-size="9.00"> </text>
<text text-anchor="start" x="539.6" y="-294.7" font-family="Courier,monospace" font-size="11.00">toychrdb</text>
<text text-anchor="start" x="600.8" y="-295.3" font-family="Courier,monospace" font-size="9.00"> </text>
<text text-anchor="start" x="522.8" y="-285.3" font-family="Courier,monospace" font-size="9.00"> </text>
<text text-anchor="start" x="547.1" y="-285.9" font-family="Courier,monospace" font-size="7.00">prototype</text>
<text text-anchor="start" x="600.8" y="-285.3" font-family="Courier,monospace" font-size="9.00"> </text>
<text text-anchor="start" x="522.8" y="-276.3" font-family="Courier,monospace" font-size="9.00"> </text>
<text text-anchor="start" x="522.8" y="-267.3" font-family="Courier,monospace" font-size="9.00"> </text>
<text text-anchor="start" x="544.4" y="-267.3" font-family="Courier,monospace" font-size="9.00">chr_is/2</text>
<text text-anchor="start" x="600.8" y="-267.3" font-family="Courier,monospace" font-size="9.00"> </text>
<text text-anchor="start" x="522.8" y="-258.3" font-family="Courier,monospace" font-size="9.00"> </text>
<text text-anchor="start" x="536.3" y="-258.3" font-family="Courier,monospace" font-size="9.00">chr_trace/0</text>
<text text-anchor="start" x="600.8" y="-258.3" font-family="Courier,monospace" font-size="9.00"> </text>
<text text-anchor="start" x="522.8" y="-249.3" font-family="Courier,monospace" font-size="9.00"> </text>
<text text-anchor="start" x="530.89" y="-249.3" font-family="Courier,monospace" font-size="9.00">chr_notrace/0</text>
<text text-anchor="start" x="600.8" y="-249.3" font-family="Courier,monospace" font-size="9.00"> </text>
<text text-anchor="start" x="522.8" y="-240.3" font-family="Courier,monospace" font-size="9.00"> </text>
<text text-anchor="start" x="541.7" y="-240.3" font-family="Courier,monospace" font-size="9.00">chr_spy/1</text>
<text text-anchor="start" x="600.8" y="-240.3" font-family="Courier,monospace" font-size="9.00"> </text>
<text text-anchor="start" x="522.8" y="-231.3" font-family="Courier,monospace" font-size="9.00"> </text>
<text text-anchor="start" x="536.3" y="-231.3" font-family="Courier,monospace" font-size="9.00">chr_nospy/0</text>
<text text-anchor="start" x="600.8" y="-231.3" font-family="Courier,monospace" font-size="9.00"> </text>
<text text-anchor="start" x="522.8" y="-222.3" font-family="Courier,monospace" font-size="9.00"> </text>
<text text-anchor="start" x="533.59" y="-222.3" font-family="Courier,monospace" font-size="9.00">chr_no_spy/1</text>
<text text-anchor="start" x="600.8" y="-222.3" font-family="Courier,monospace" font-size="9.00"> </text>
<text text-anchor="start" x="522.8" y="-213.3" font-family="Courier,monospace" font-size="9.00"> </text>
<text text-anchor="start" x="533.59" y="-213.3" font-family="Courier,monospace" font-size="9.00">chr_option/2</text>
<text text-anchor="start" x="600.8" y="-213.3" font-family="Courier,monospace" font-size="9.00"> </text>
</a>
</g>
</g>
<!-- toychrdb&#45;&gt;expanding -->
<g id="edge2" class="edge">
<title>toychrdb&#45;&gt;expanding</title>
<g id="a_edge2"><a xlink:href="https://logtalk.org/library/toychrdb_0.html" xlink:title="implements">
<path fill="none" stroke="black" d="M536.24,-319.18C521.47,-344.57 501.03,-373.41 476,-393 430.26,-428.8 366.49,-449.28 320.85,-460.19"/>
<ellipse fill="black" stroke="black" cx="316.74" cy="-461.15" rx="4" ry="4"/>
</a>
</g>
<g id="a_edge2&#45;label"><a xlink:href="https://logtalk.org/library/toychrdb_0.html" xlink:title="https://logtalk.org/library/toychrdb_0.html">
<text text-anchor="start" x="450" y="-410.8" font-family="Courier,monospace" font-size="9.00">implements</text>
</a>
</g>
</g>
</g>
</svg>
