<?xml version="1.0" encoding="UTF-8" standalone="no"?>
<?xml-stylesheet href="diagrams.css" type="text/css"?>
<!DOCTYPE svg PUBLIC "-//W3C//DTD SVG 1.1//EN"
 "http://www.w3.org/Graphics/SVG/1.1/DTD/svg11.dtd">
<!-- Generated by graphviz version 2.49.3 (20211023.0002)
 -->
<!-- Title: ports Pages: 1 -->
<svg width="740pt" height="689pt"
 viewBox="72.00 72.00 668.00 617.00" xmlns="http://www.w3.org/2000/svg" xmlns:xlink="http://www.w3.org/1999/xlink">
<g id="graph0" class="graph" transform="scale(1 1) rotate(0) translate(76 613)">
<title>ports</title>
<polygon fill="white" stroke="transparent" points="-4,4 -4,-541 592,-541 592,4 -4,4"/>
<text text-anchor="start" x="8" y="-29" font-family="Courier,monospace" font-size="10.00" fill="dimgray">Logtalk ports of third&#45;party software</text>
<text text-anchor="start" x="8" y="-18" font-family="Courier,monospace" font-size="10.00" fill="dimgray">Inheritance diagram for library ports</text>
<text text-anchor="start" x="8" y="-7" font-family="Courier,monospace" font-size="10.00" fill="dimgray">Generated on 2021&#45;11&#45;18, 19:47</text>
<g id="clust1" class="cluster">
<title>cluster_rlibrary_ports</title>
<g id="a_clust1"><a xlink:title="ports/">
<path fill="lightgray" stroke="dimgray" d="M20,-49C20,-49 568,-49 568,-49 574,-49 580,-55 580,-61 580,-61 580,-517 580,-517 580,-523 574,-529 568,-529 568,-529 20,-529 20,-529 14,-529 8,-523 8,-517 8,-517 8,-61 8,-61 8,-55 14,-49 20,-49"/>
<g id="a_clust1_0"><a xlink:href="https://github.com/LogtalkDotOrg/logtalk3/tree/00ea0ef7ab8123e2100dcb8b4438acc57114cd01/ports/" xlink:title="https://github.com/LogtalkDotOrg/logtalk3/tree/00ea0ef7ab8123e2100dcb8b4438acc57114cd01/ports/">
<text text-anchor="start" x="20" y="-59.5" font-family="Courier,monospace" font-size="10.00" fill="dimgray">ports/</text>
</a>
</g>
</a>
</g>
</g>
<g id="clust4" class="cluster">
<title>cluster_library_metagol</title>
<g id="a_clust4"><a xlink:title="metagol/">
<path fill="whitesmoke" stroke="dimgray" d="M172,-86C172,-86 558,-86 558,-86 564,-86 570,-92 570,-98 570,-98 570,-409 570,-409 570,-415 564,-421 558,-421 558,-421 172,-421 172,-421 166,-421 160,-415 160,-409 160,-409 160,-98 160,-98 160,-92 166,-86 172,-86"/>
<g id="a_clust4_1"><a xlink:href="https://github.com/LogtalkDotOrg/logtalk3/tree/00ea0ef7ab8123e2100dcb8b4438acc57114cd01/ports/metagol/" xlink:title="https://github.com/LogtalkDotOrg/logtalk3/tree/00ea0ef7ab8123e2100dcb8b4438acc57114cd01/ports/metagol/">
<text text-anchor="start" x="172" y="-96.5" font-family="Courier,monospace" font-size="10.00" fill="dimgray">metagol/</text>
</a>
</g>
</a>
</g>
</g>
<g id="clust7" class="cluster">
<title>cluster_file_/Users/pmoura/logtalk/ports/metagol/metagol_example_protocol.lgt</title>
<g id="a_clust7"><a xlink:title="metagol_example_protocol.lgt">
<path fill="snow" stroke="dimgray" d="M388,-208C388,-208 548,-208 548,-208 554,-208 560,-214 560,-220 560,-220 560,-314 560,-314 560,-320 554,-326 548,-326 548,-326 388,-326 388,-326 382,-326 376,-320 376,-314 376,-314 376,-220 376,-220 376,-214 382,-208 388,-208"/>
<g id="a_clust7_2"><a xlink:href="https://github.com/LogtalkDotOrg/logtalk3/tree/00ea0ef7ab8123e2100dcb8b4438acc57114cd01/ports/metagol/metagol_example_protocol.lgt" xlink:title="https://github.com/LogtalkDotOrg/logtalk3/tree/00ea0ef7ab8123e2100dcb8b4438acc57114cd01/ports/metagol/metagol_example_protocol.lgt">
<text text-anchor="start" x="388" y="-218.5" font-family="Courier,monospace" font-size="10.00" fill="dimgray">metagol_example_protocol.lgt</text>
</a>
</g>
</a>
</g>
</g>
<g id="clust6" class="cluster">
<title>cluster_file_/Users/pmoura/logtalk/ports/metagol/metagol.lgt</title>
<g id="a_clust6"><a xlink:title="metagol.lgt">
<path fill="snow" stroke="dimgray" d="M182,-123C182,-123 354,-123 354,-123 360,-123 366,-129 366,-135 366,-135 366,-399 366,-399 366,-405 360,-411 354,-411 354,-411 182,-411 182,-411 176,-411 170,-405 170,-399 170,-399 170,-135 170,-135 170,-129 176,-123 182,-123"/>
<g id="a_clust6_3"><a xlink:href="https://github.com/LogtalkDotOrg/logtalk3/tree/00ea0ef7ab8123e2100dcb8b4438acc57114cd01/ports/metagol/metagol.lgt" xlink:title="https://github.com/LogtalkDotOrg/logtalk3/tree/00ea0ef7ab8123e2100dcb8b4438acc57114cd01/ports/metagol/metagol.lgt">
<text text-anchor="start" x="182.5" y="-133.5" font-family="Courier,monospace" font-size="10.00" fill="dimgray">metagol.lgt</text>
</a>
</g>
</a>
</g>
</g>
<g id="clust8" class="cluster">
<title>cluster_library_toychr</title>
<g id="a_clust8"><a xlink:title="toychr/">
<path fill="whitesmoke" stroke="dimgray" d="M30,-146C30,-146 138,-146 138,-146 144,-146 150,-152 150,-158 150,-158 150,-349 150,-349 150,-355 144,-361 138,-361 138,-361 30,-361 30,-361 24,-361 18,-355 18,-349 18,-349 18,-158 18,-158 18,-152 24,-146 30,-146"/>
<g id="a_clust8_4"><a xlink:href="https://github.com/LogtalkDotOrg/logtalk3/tree/00ea0ef7ab8123e2100dcb8b4438acc57114cd01/ports/toychr/" xlink:title="https://github.com/LogtalkDotOrg/logtalk3/tree/00ea0ef7ab8123e2100dcb8b4438acc57114cd01/ports/toychr/">
<text text-anchor="start" x="30.5" y="-156.5" font-family="Courier,monospace" font-size="10.00" fill="dimgray">toychr/</text>
</a>
</g>
</a>
</g>
</g>
<g id="clust10" class="cluster">
<title>cluster_file_/Users/pmoura/logtalk/ports/toychr/toychrdb.lgt</title>
<g id="a_clust10"><a xlink:title="toychrdb.lgt">
<path fill="snow" stroke="dimgray" d="M40,-183C40,-183 128,-183 128,-183 134,-183 140,-189 140,-195 140,-195 140,-339 140,-339 140,-345 134,-351 128,-351 128,-351 40,-351 40,-351 34,-351 28,-345 28,-339 28,-339 28,-195 28,-195 28,-189 34,-183 40,-183"/>
<g id="a_clust10_5"><a xlink:href="https://github.com/LogtalkDotOrg/logtalk3/tree/00ea0ef7ab8123e2100dcb8b4438acc57114cd01/ports/toychr/toychrdb.lgt" xlink:title="https://github.com/LogtalkDotOrg/logtalk3/tree/00ea0ef7ab8123e2100dcb8b4438acc57114cd01/ports/toychr/toychrdb.lgt">
<text text-anchor="start" x="40" y="-193.5" font-family="Courier,monospace" font-size="10.00" fill="dimgray">toychrdb.lgt</text>
</a>
</g>
</a>
</g>
</g>
<!-- metagol -->
<g id="node1" class="node">
<title>metagol</title>
<g id="a_node1"><a xlink:href="https://logtalk.org/library/metagol_0.html" xlink:title="https://logtalk.org/library/metagol_0.html">
<polygon fill="cornsilk" stroke="black" points="356,-401 180,-401 180,-160 356,-160 356,-401"/>
<g id="a_node1_6"><a xlink:href="metagol_object_xref_diagram.svg" xlink:title="Zoom">
<image xlink:href="zoom.png" width="11px" height="11px" preserveAspectRatio="xMinYMin meet" x="188" y="-396.5"/>
</a>
</g>
<text text-anchor="start" x="191" y="-377.3" font-family="Courier,monospace" font-size="9.00"> </text>
<text text-anchor="start" x="251.5" y="-376.7" font-family="Courier,monospace" font-size="11.00">metagol</text>
<text text-anchor="start" x="343" y="-377.3" font-family="Courier,monospace" font-size="9.00"> </text>
<text text-anchor="start" x="191" y="-366.3" font-family="Courier,monospace" font-size="9.00"> </text>
<text text-anchor="start" x="255" y="-366.9" font-family="Courier,monospace" font-size="7.00">prototype</text>
<text text-anchor="start" x="343" y="-366.3" font-family="Courier,monospace" font-size="9.00"> </text>
<text text-anchor="start" x="191" y="-356.3" font-family="Courier,monospace" font-size="9.00"> </text>
<text text-anchor="start" x="191" y="-346.3" font-family="Courier,monospace" font-size="9.00"> </text>
<text text-anchor="start" x="255" y="-346.3" font-family="Courier,monospace" font-size="9.00">learn/3</text>
<text text-anchor="start" x="343" y="-346.3" font-family="Courier,monospace" font-size="9.00"> </text>
<text text-anchor="start" x="191" y="-336.3" font-family="Courier,monospace" font-size="9.00"> </text>
<text text-anchor="start" x="255" y="-336.3" font-family="Courier,monospace" font-size="9.00">learn/2</text>
<text text-anchor="start" x="343" y="-336.3" font-family="Courier,monospace" font-size="9.00"> </text>
<text text-anchor="start" x="191" y="-326.3" font-family="Courier,monospace" font-size="9.00"> </text>
<text text-anchor="start" x="246" y="-326.3" font-family="Courier,monospace" font-size="9.00">learn_seq/2</text>
<text text-anchor="start" x="343" y="-326.3" font-family="Courier,monospace" font-size="9.00"> </text>
<text text-anchor="start" x="191" y="-316.3" font-family="Courier,monospace" font-size="9.00"> </text>
<text text-anchor="start" x="226" y="-316.3" font-family="Courier,monospace" font-size="9.00">learn_with_timeout/4</text>
<text text-anchor="start" x="343" y="-316.3" font-family="Courier,monospace" font-size="9.00"> </text>
<text text-anchor="start" x="191" y="-306.3" font-family="Courier,monospace" font-size="9.00"> </text>
<text text-anchor="start" x="226" y="-306.3" font-family="Courier,monospace" font-size="9.00">program_to_clauses/2</text>
<text text-anchor="start" x="343" y="-306.3" font-family="Courier,monospace" font-size="9.00"> </text>
<text text-anchor="start" x="191" y="-296.3" font-family="Courier,monospace" font-size="9.00"> </text>
<text text-anchor="start" x="253" y="-296.3" font-family="Courier,monospace" font-size="9.00">pprint/1</text>
<text text-anchor="start" x="343" y="-296.3" font-family="Courier,monospace" font-size="9.00"> </text>
<text text-anchor="start" x="191" y="-286.3" font-family="Courier,monospace" font-size="9.00"> </text>
<text text-anchor="start" x="248.5" y="-286.3" font-family="Courier,monospace" font-size="9.00">metarule/6</text>
<text text-anchor="start" x="343" y="-286.3" font-family="Courier,monospace" font-size="9.00"> </text>
<text text-anchor="start" x="191" y="-276.3" font-family="Courier,monospace" font-size="9.00"> </text>
<text text-anchor="start" x="246" y="-276.3" font-family="Courier,monospace" font-size="9.00">head_pred/1</text>
<text text-anchor="start" x="343" y="-276.3" font-family="Courier,monospace" font-size="9.00"> </text>
<text text-anchor="start" x="191" y="-266.3" font-family="Courier,monospace" font-size="9.00"> </text>
<text text-anchor="start" x="246" y="-266.3" font-family="Courier,monospace" font-size="9.00">body_pred/1</text>
<text text-anchor="start" x="343" y="-266.3" font-family="Courier,monospace" font-size="9.00"> </text>
<text text-anchor="start" x="191" y="-256.3" font-family="Courier,monospace" font-size="9.00"> </text>
<text text-anchor="start" x="259.5" y="-256.3" font-family="Courier,monospace" font-size="9.00">ibk/3</text>
<text text-anchor="start" x="343" y="-256.3" font-family="Courier,monospace" font-size="9.00"> </text>
<text text-anchor="start" x="191" y="-246.3" font-family="Courier,monospace" font-size="9.00"> </text>
<text text-anchor="start" x="246" y="-246.3" font-family="Courier,monospace" font-size="9.00">func_test/3</text>
<text text-anchor="start" x="343" y="-246.3" font-family="Courier,monospace" font-size="9.00"> </text>
<text text-anchor="start" x="191" y="-236.3" font-family="Courier,monospace" font-size="9.00"> </text>
<text text-anchor="start" x="244" y="-236.3" font-family="Courier,monospace" font-size="9.00">functional/0</text>
<text text-anchor="start" x="343" y="-236.3" font-family="Courier,monospace" font-size="9.00"> </text>
<text text-anchor="start" x="191" y="-226.3" font-family="Courier,monospace" font-size="9.00"> </text>
<text text-anchor="start" x="241.5" y="-226.3" font-family="Courier,monospace" font-size="9.00">min_clauses/1</text>
<text text-anchor="start" x="343" y="-226.3" font-family="Courier,monospace" font-size="9.00"> </text>
<text text-anchor="start" x="191" y="-216.3" font-family="Courier,monospace" font-size="9.00"> </text>
<text text-anchor="start" x="241.5" y="-216.3" font-family="Courier,monospace" font-size="9.00">max_clauses/1</text>
<text text-anchor="start" x="343" y="-216.3" font-family="Courier,monospace" font-size="9.00"> </text>
<text text-anchor="start" x="191" y="-206.3" font-family="Courier,monospace" font-size="9.00"> </text>
<text text-anchor="start" x="237" y="-206.3" font-family="Courier,monospace" font-size="9.00">max_inv_preds/1</text>
<text text-anchor="start" x="343" y="-206.3" font-family="Courier,monospace" font-size="9.00"> </text>
<text text-anchor="start" x="191" y="-196.3" font-family="Courier,monospace" font-size="9.00"> </text>
<text text-anchor="start" x="230.5" y="-196.3" font-family="Courier,monospace" font-size="9.00">metarule_next_id/1</text>
<text text-anchor="start" x="343" y="-196.3" font-family="Courier,monospace" font-size="9.00"> </text>
<text text-anchor="start" x="191" y="-186.3" font-family="Courier,monospace" font-size="9.00"> </text>
<text text-anchor="start" x="250.5" y="-186.3" font-family="Courier,monospace" font-size="9.00">timeout/1</text>
<text text-anchor="start" x="343" y="-186.3" font-family="Courier,monospace" font-size="9.00"> </text>
<text text-anchor="start" x="191" y="-176.3" font-family="Courier,monospace" font-size="9.00"> </text>
<text text-anchor="start" x="212.5" y="-176.3" font-family="Courier,monospace" font-size="9.00">logtalk::message_tokens//2</text>
<text text-anchor="start" x="343" y="-176.3" font-family="Courier,monospace" font-size="9.00"> </text>
<text text-anchor="start" x="191" y="-166.3" font-family="Courier,monospace" font-size="9.00"> </text>
<text text-anchor="start" x="199" y="-166.3" font-family="Courier,monospace" font-size="9.00">logtalk::message_prefix_stream/4</text>
<text text-anchor="start" x="343" y="-166.3" font-family="Courier,monospace" font-size="9.00"> </text>
</a>
</g>
</g>
<!-- expanding -->
<g id="node4" class="node">
<title>expanding</title>
<g id="a_node4"><a xlink:href="https://logtalk.org/library/expanding_0.html" xlink:title="https://logtalk.org/library/expanding_0.html">
<polygon fill="mediumaquamarine" stroke="black" stroke-dasharray="5,2" points="184,-519 104,-519 104,-483 190,-483 190,-513 184,-519"/>
<polyline fill="none" stroke="black" stroke-dasharray="5,2" points="184,-519 184,-513 "/>
<polyline fill="none" stroke="black" stroke-dasharray="5,2" points="190,-513 184,-513 "/>
<text text-anchor="start" x="112" y="-503.8" font-family="Courier,monospace" font-size="9.00"> </text>
<text text-anchor="start" x="122" y="-503.2" font-family="Courier,monospace" font-size="11.00">expanding</text>
<text text-anchor="start" x="177" y="-503.8" font-family="Courier,monospace" font-size="9.00"> </text>
<text text-anchor="start" x="112" y="-492.8" font-family="Courier,monospace" font-size="9.00"> </text>
<text text-anchor="start" x="117" y="-493.4" font-family="Courier,monospace" font-size="7.00">built&#45;in protocol</text>
<text text-anchor="start" x="177" y="-492.8" font-family="Courier,monospace" font-size="9.00"> </text>
</a>
</g>
</g>
<!-- metagol&#45;&gt;expanding -->
<g id="edge1" class="edge">
<title>metagol&#45;&gt;expanding</title>
<g id="a_edge1"><a xlink:href="https://logtalk.org/library/metagol_0.html" xlink:title="implements">
<path fill="none" stroke="black" d="M204.53,-401.22C196.07,-416.69 187.4,-432.26 179,-447 173.54,-456.58 167.32,-466.99 161.82,-476.03"/>
<ellipse fill="black" stroke="black" cx="159.68" cy="-479.53" rx="4" ry="4"/>
</a>
</g>
<g id="a_edge1&#45;label"><a xlink:href="https://logtalk.org/library/metagol_0.html" xlink:title="https://logtalk.org/library/metagol_0.html">
<text text-anchor="start" x="183" y="-439.8" font-family="Courier,monospace" font-size="9.00">implements</text>
</a>
</g>
</g>
<!-- metagol_example_protocol -->
<g id="node2" class="node">
<title>metagol_example_protocol</title>
<g id="a_node2"><a xlink:href="https://logtalk.org/library/metagol_example_protocol_0.html" xlink:title="https://logtalk.org/library/metagol_example_protocol_0.html">
<polygon fill="aquamarine" stroke="black" points="544,-316 386,-316 386,-245 550,-245 550,-310 544,-316"/>
<polyline fill="none" stroke="black" points="544,-316 544,-310 "/>
<polyline fill="none" stroke="black" points="550,-310 544,-310 "/>
<g id="a_node2_7"><a xlink:href="metagol_example_protocol_protocol_xref_diagram.svg" xlink:title="Zoom">
<image xlink:href="zoom.png" width="11px" height="11px" preserveAspectRatio="xMinYMin meet" x="394" y="-311.5"/>
</a>
</g>
<text text-anchor="start" x="397" y="-292.3" font-family="Courier,monospace" font-size="9.00"> </text>
<text text-anchor="start" x="405" y="-291.7" font-family="Courier,monospace" font-size="11.00">metagol_example_protocol</text>
<text text-anchor="start" x="537" y="-292.3" font-family="Courier,monospace" font-size="9.00"> </text>
<text text-anchor="start" x="397" y="-281.3" font-family="Courier,monospace" font-size="9.00"> </text>
<text text-anchor="start" x="457" y="-281.9" font-family="Courier,monospace" font-size="7.00">protocol</text>
<text text-anchor="start" x="537" y="-281.3" font-family="Courier,monospace" font-size="9.00"> </text>
<text text-anchor="start" x="397" y="-271.3" font-family="Courier,monospace" font-size="9.00"> </text>
<text text-anchor="start" x="397" y="-261.3" font-family="Courier,monospace" font-size="9.00"> </text>
<text text-anchor="start" x="455" y="-261.3" font-family="Courier,monospace" font-size="9.00">learn/1</text>
<text text-anchor="start" x="537" y="-261.3" font-family="Courier,monospace" font-size="9.00"> </text>
<text text-anchor="start" x="397" y="-251.3" font-family="Courier,monospace" font-size="9.00"> </text>
<text text-anchor="start" x="455" y="-251.3" font-family="Courier,monospace" font-size="9.00">learn/0</text>
<text text-anchor="start" x="537" y="-251.3" font-family="Courier,monospace" font-size="9.00"> </text>
</a>
</g>
</g>
<!-- toychrdb -->
<g id="node3" class="node">
<title>toychrdb</title>
<g id="a_node3"><a xlink:href="https://logtalk.org/library/toychrdb_0.html" xlink:title="https://logtalk.org/library/toychrdb_0.html">
<polygon fill="cornsilk" stroke="black" points="129.5,-341 38.5,-341 38.5,-220 129.5,-220 129.5,-341"/>
<g id="a_node3_8"><a xlink:href="toychrdb_object_xref_diagram.svg" xlink:title="Zoom">
<image xlink:href="zoom.png" width="11px" height="11px" preserveAspectRatio="xMinYMin meet" x="47" y="-336.5"/>
</a>
</g>
<text text-anchor="start" x="50" y="-317.3" font-family="Courier,monospace" font-size="9.00"> </text>
<text text-anchor="start" x="65.5" y="-316.7" font-family="Courier,monospace" font-size="11.00">toychrdb</text>
<text text-anchor="start" x="117" y="-317.3" font-family="Courier,monospace" font-size="9.00"> </text>
<text text-anchor="start" x="50" y="-306.3" font-family="Courier,monospace" font-size="9.00"> </text>
<text text-anchor="start" x="71.5" y="-306.9" font-family="Courier,monospace" font-size="7.00">prototype</text>
<text text-anchor="start" x="117" y="-306.3" font-family="Courier,monospace" font-size="9.00"> </text>
<text text-anchor="start" x="50" y="-296.3" font-family="Courier,monospace" font-size="9.00"> </text>
<text text-anchor="start" x="50" y="-286.3" font-family="Courier,monospace" font-size="9.00"> </text>
<text text-anchor="start" x="69.5" y="-286.3" font-family="Courier,monospace" font-size="9.00">chr_is/2</text>
<text text-anchor="start" x="117" y="-286.3" font-family="Courier,monospace" font-size="9.00"> </text>
<text text-anchor="start" x="50" y="-276.3" font-family="Courier,monospace" font-size="9.00"> </text>
<text text-anchor="start" x="62.5" y="-276.3" font-family="Courier,monospace" font-size="9.00">chr_trace/0</text>
<text text-anchor="start" x="117" y="-276.3" font-family="Courier,monospace" font-size="9.00"> </text>
<text text-anchor="start" x="50" y="-266.3" font-family="Courier,monospace" font-size="9.00"> </text>
<text text-anchor="start" x="58" y="-266.3" font-family="Courier,monospace" font-size="9.00">chr_notrace/0</text>
<text text-anchor="start" x="117" y="-266.3" font-family="Courier,monospace" font-size="9.00"> </text>
<text text-anchor="start" x="50" y="-256.3" font-family="Courier,monospace" font-size="9.00"> </text>
<text text-anchor="start" x="67" y="-256.3" font-family="Courier,monospace" font-size="9.00">chr_spy/1</text>
<text text-anchor="start" x="117" y="-256.3" font-family="Courier,monospace" font-size="9.00"> </text>
<text text-anchor="start" x="50" y="-246.3" font-family="Courier,monospace" font-size="9.00"> </text>
<text text-anchor="start" x="62.5" y="-246.3" font-family="Courier,monospace" font-size="9.00">chr_nospy/0</text>
<text text-anchor="start" x="117" y="-246.3" font-family="Courier,monospace" font-size="9.00"> </text>
<text text-anchor="start" x="50" y="-236.3" font-family="Courier,monospace" font-size="9.00"> </text>
<text text-anchor="start" x="60.5" y="-236.3" font-family="Courier,monospace" font-size="9.00">chr_no_spy/1</text>
<text text-anchor="start" x="117" y="-236.3" font-family="Courier,monospace" font-size="9.00"> </text>
<text text-anchor="start" x="50" y="-226.3" font-family="Courier,monospace" font-size="9.00"> </text>
<text text-anchor="start" x="60.5" y="-226.3" font-family="Courier,monospace" font-size="9.00">chr_option/2</text>
<text text-anchor="start" x="117" y="-226.3" font-family="Courier,monospace" font-size="9.00"> </text>
</a>
</g>
</g>
<!-- toychrdb&#45;&gt;expanding -->
<g id="edge2" class="edge">
<title>toychrdb&#45;&gt;expanding</title>
<g id="a_edge2"><a xlink:href="https://logtalk.org/library/toychrdb_0.html" xlink:title="implements">
<path fill="none" stroke="black" d="M101.22,-341.21C113.86,-385.05 130.39,-442.4 139.74,-474.81"/>
<ellipse fill="black" stroke="black" cx="140.95" cy="-479.03" rx="4" ry="4"/>
</a>
</g>
<g id="a_edge2&#45;label"><a xlink:href="https://logtalk.org/library/toychrdb_0.html" xlink:title="https://logtalk.org/library/toychrdb_0.html">
<text text-anchor="start" x="130" y="-439.8" font-family="Courier,monospace" font-size="9.00">implements</text>
</a>
</g>
</g>
</g>
</svg>
