<?xml version="1.0" encoding="UTF-8" standalone="no"?>
<?xml-stylesheet href="diagrams.css" type="text/css"?>
<!DOCTYPE svg PUBLIC "-//W3C//DTD SVG 1.1//EN"
 "http://www.w3.org/Graphics/SVG/1.1/DTD/svg11.dtd">
<!-- Generated by graphviz version 7.0.1 (20221109.1506)
 -->
<!-- Title: ports Pages: 1 -->
<svg width="976pt" height="689pt"
 viewBox="72.00 72.00 904.00 617.00" xmlns="http://www.w3.org/2000/svg" xmlns:xlink="http://www.w3.org/1999/xlink">
<g id="graph0" class="graph" transform="scale(1 1) rotate(0) translate(76 613)">
<title>ports</title>
<polygon fill="white" stroke="none" points="-4,4 -4,-541 828,-541 828,4 -4,4"/>
<text text-anchor="start" x="8" y="-29" font-family="Monospace" font-size="10.00" fill="dimgray">Logtalk ports of third&#45;party software</text>
<text text-anchor="start" x="8" y="-18" font-family="Monospace" font-size="10.00" fill="dimgray">Inheritance diagram for library ports</text>
<text text-anchor="start" x="8" y="-7" font-family="Monospace" font-size="10.00" fill="dimgray">Generated on 2023&#45;04&#45;04, 21:02</text>
<g id="clust1" class="cluster">
<title>cluster_rlibrary_ports</title>
<g id="a_clust1"><a xlink:title="ports/">
<path fill="lightgray" stroke="dimgray" d="M20,-49C20,-49 804,-49 804,-49 810,-49 816,-55 816,-61 816,-61 816,-517 816,-517 816,-523 810,-529 804,-529 804,-529 20,-529 20,-529 14,-529 8,-523 8,-517 8,-517 8,-61 8,-61 8,-55 14,-49 20,-49"/>
<g id="a_clust1_0"><a xlink:href="https://github.com/LogtalkDotOrg/logtalk3/tree/87a70e472e6d8179a483fc0dd69d7d8b82d79805/ports/" xlink:title="https://github.com/LogtalkDotOrg/logtalk3/tree/87a70e472e6d8179a483fc0dd69d7d8b82d79805/ports/">
<text text-anchor="start" x="20.5" y="-59.5" font-family="Monospace" font-size="10.00" fill="dimgray">ports/</text>
</a>
</g>
</a>
</g>
</g>
<g id="clust11" class="cluster">
<title>cluster_library_toychr</title>
<g id="a_clust11"><a xlink:title="toychr/">
<path fill="whitesmoke" stroke="dimgray" d="M676,-146C676,-146 794,-146 794,-146 800,-146 806,-152 806,-158 806,-158 806,-349 806,-349 806,-355 800,-361 794,-361 794,-361 676,-361 676,-361 670,-361 664,-355 664,-349 664,-349 664,-158 664,-158 664,-152 670,-146 676,-146"/>
<g id="a_clust11_1"><a xlink:href="https://github.com/LogtalkDotOrg/logtalk3/tree/87a70e472e6d8179a483fc0dd69d7d8b82d79805/ports/toychr/" xlink:title="https://github.com/LogtalkDotOrg/logtalk3/tree/87a70e472e6d8179a483fc0dd69d7d8b82d79805/ports/toychr/">
<text text-anchor="start" x="676.5" y="-156.5" font-family="Monospace" font-size="10.00" fill="dimgray">toychr/</text>
</a>
</g>
</a>
</g>
</g>
<g id="clust13" class="cluster">
<title>cluster_file_/Users/pmoura/logtalk/ports/toychr/toychrdb.lgt</title>
<g id="a_clust13"><a xlink:title="toychrdb.lgt">
<path fill="snow" stroke="dimgray" d="M686,-183C686,-183 784,-183 784,-183 790,-183 796,-189 796,-195 796,-195 796,-339 796,-339 796,-345 790,-351 784,-351 784,-351 686,-351 686,-351 680,-351 674,-345 674,-339 674,-339 674,-195 674,-195 674,-189 680,-183 686,-183"/>
<g id="a_clust13_2"><a xlink:href="https://github.com/LogtalkDotOrg/logtalk3/tree/87a70e472e6d8179a483fc0dd69d7d8b82d79805/ports/toychr/toychrdb.lgt" xlink:title="https://github.com/LogtalkDotOrg/logtalk3/tree/87a70e472e6d8179a483fc0dd69d7d8b82d79805/ports/toychr/toychrdb.lgt">
<text text-anchor="start" x="686.5" y="-193.5" font-family="Monospace" font-size="10.00" fill="dimgray">toychrdb.lgt</text>
</a>
</g>
</a>
</g>
</g>
<g id="clust4" class="cluster">
<title>cluster_library_fcube</title>
<g id="a_clust4"><a xlink:title="fcube/">
<path fill="whitesmoke" stroke="dimgray" d="M508,-146C508,-146 642,-146 642,-146 648,-146 654,-152 654,-158 654,-158 654,-349 654,-349 654,-355 648,-361 642,-361 642,-361 508,-361 508,-361 502,-361 496,-355 496,-349 496,-349 496,-158 496,-158 496,-152 502,-146 508,-146"/>
<g id="a_clust4_3"><a xlink:href="https://github.com/LogtalkDotOrg/logtalk3/tree/87a70e472e6d8179a483fc0dd69d7d8b82d79805/ports/fcube/" xlink:title="https://github.com/LogtalkDotOrg/logtalk3/tree/87a70e472e6d8179a483fc0dd69d7d8b82d79805/ports/fcube/">
<text text-anchor="start" x="508.5" y="-156.5" font-family="Monospace" font-size="10.00" fill="dimgray">fcube/</text>
</a>
</g>
</a>
</g>
</g>
<g id="clust6" class="cluster">
<title>cluster_file_/Users/pmoura/logtalk/ports/fcube/fcube.lgt</title>
<g id="a_clust6"><a xlink:title="fcube.lgt">
<path fill="snow" stroke="dimgray" d="M518,-183C518,-183 632,-183 632,-183 638,-183 644,-189 644,-195 644,-195 644,-339 644,-339 644,-345 638,-351 632,-351 632,-351 518,-351 518,-351 512,-351 506,-345 506,-339 506,-339 506,-195 506,-195 506,-189 512,-183 518,-183"/>
<g id="a_clust6_4"><a xlink:href="https://github.com/LogtalkDotOrg/logtalk3/tree/87a70e472e6d8179a483fc0dd69d7d8b82d79805/ports/fcube/fcube.lgt" xlink:title="https://github.com/LogtalkDotOrg/logtalk3/tree/87a70e472e6d8179a483fc0dd69d7d8b82d79805/ports/fcube/fcube.lgt">
<text text-anchor="start" x="518.5" y="-193.5" font-family="Monospace" font-size="10.00" fill="dimgray">fcube.lgt</text>
</a>
</g>
</a>
</g>
</g>
<g id="clust7" class="cluster">
<title>cluster_library_metagol</title>
<g id="a_clust7"><a xlink:title="metagol/">
<path fill="whitesmoke" stroke="dimgray" d="M30,-86C30,-86 474,-86 474,-86 480,-86 486,-92 486,-98 486,-98 486,-409 486,-409 486,-415 480,-421 474,-421 474,-421 30,-421 30,-421 24,-421 18,-415 18,-409 18,-409 18,-98 18,-98 18,-92 24,-86 30,-86"/>
<g id="a_clust7_5"><a xlink:href="https://github.com/LogtalkDotOrg/logtalk3/tree/87a70e472e6d8179a483fc0dd69d7d8b82d79805/ports/metagol/" xlink:title="https://github.com/LogtalkDotOrg/logtalk3/tree/87a70e472e6d8179a483fc0dd69d7d8b82d79805/ports/metagol/">
<text text-anchor="start" x="30.5" y="-96.5" font-family="Monospace" font-size="10.00" fill="dimgray">metagol/</text>
</a>
</g>
</a>
</g>
</g>
<g id="clust10" class="cluster">
<title>cluster_file_/Users/pmoura/logtalk/ports/metagol/metagol_example_protocol.lgt</title>
<g id="a_clust10"><a xlink:title="metagol_example_protocol.lgt">
<path fill="snow" stroke="dimgray" d="M272,-208C272,-208 464,-208 464,-208 470,-208 476,-214 476,-220 476,-220 476,-314 476,-314 476,-320 470,-326 464,-326 464,-326 272,-326 272,-326 266,-326 260,-320 260,-314 260,-314 260,-220 260,-220 260,-214 266,-208 272,-208"/>
<g id="a_clust10_6"><a xlink:href="https://github.com/LogtalkDotOrg/logtalk3/tree/87a70e472e6d8179a483fc0dd69d7d8b82d79805/ports/metagol/metagol_example_protocol.lgt" xlink:title="https://github.com/LogtalkDotOrg/logtalk3/tree/87a70e472e6d8179a483fc0dd69d7d8b82d79805/ports/metagol/metagol_example_protocol.lgt">
<text text-anchor="start" x="272.5" y="-218.5" font-family="Monospace" font-size="10.00" fill="dimgray">metagol_example_protocol.lgt</text>
</a>
</g>
</a>
</g>
</g>
<g id="clust9" class="cluster">
<title>cluster_file_/Users/pmoura/logtalk/ports/metagol/metagol.lgt</title>
<g id="a_clust9"><a xlink:title="metagol.lgt">
<path fill="snow" stroke="dimgray" d="M40,-123C40,-123 238,-123 238,-123 244,-123 250,-129 250,-135 250,-135 250,-399 250,-399 250,-405 244,-411 238,-411 238,-411 40,-411 40,-411 34,-411 28,-405 28,-399 28,-399 28,-135 28,-135 28,-129 34,-123 40,-123"/>
<g id="a_clust9_7"><a xlink:href="https://github.com/LogtalkDotOrg/logtalk3/tree/87a70e472e6d8179a483fc0dd69d7d8b82d79805/ports/metagol/metagol.lgt" xlink:title="https://github.com/LogtalkDotOrg/logtalk3/tree/87a70e472e6d8179a483fc0dd69d7d8b82d79805/ports/metagol/metagol.lgt">
<text text-anchor="start" x="40.5" y="-133.5" font-family="Monospace" font-size="10.00" fill="dimgray">metagol.lgt</text>
</a>
</g>
</a>
</g>
</g>
<!-- fcube -->
<g id="node1" class="node">
<title>fcube</title>
<g id="a_node1"><a xlink:href="https://logtalk.org/library/fcube_0.html" xlink:title="https://logtalk.org/library/fcube_0.html">
<polygon fill="cornsilk" stroke="black" points="634,-341 516,-341 516,-220 634,-220 634,-341"/>
<g id="a_node1_8"><a xlink:href="fcube_object_xref_diagram.svg" xlink:title="Zoom">
<image xlink:href="zoom.png" width="11px" height="11px" preserveAspectRatio="xMinYMin meet" x="524" y="-336.5"/>
</a>
</g>
<text text-anchor="start" x="526.5" y="-317.3" font-family="Monospace" font-size="9.00"> </text>
<text text-anchor="start" x="560.5" y="-316.7" font-family="Monospace" font-size="11.00">fcube</text>
<text text-anchor="start" x="620" y="-317.3" font-family="Monospace" font-size="9.00"> </text>
<text text-anchor="start" x="526.5" y="-306.3" font-family="Monospace" font-size="9.00"> </text>
<text text-anchor="start" x="557" y="-306.9" font-family="Monospace" font-size="7.00">prototype</text>
<text text-anchor="start" x="620" y="-306.3" font-family="Monospace" font-size="9.00"> </text>
<text text-anchor="start" x="526.5" y="-296.3" font-family="Monospace" font-size="9.00"> </text>
<text text-anchor="start" x="526.5" y="-286.3" font-family="Monospace" font-size="9.00"> </text>
<text text-anchor="start" x="559" y="-286.3" font-family="Monospace" font-size="9.00">fcube/0</text>
<text text-anchor="start" x="620" y="-286.3" font-family="Monospace" font-size="9.00"> </text>
<text text-anchor="start" x="526.5" y="-276.3" font-family="Monospace" font-size="9.00"> </text>
<text text-anchor="start" x="556" y="-276.3" font-family="Monospace" font-size="9.00">decide/1</text>
<text text-anchor="start" x="620" y="-276.3" font-family="Monospace" font-size="9.00"> </text>
<text text-anchor="start" x="526.5" y="-266.3" font-family="Monospace" font-size="9.00"> </text>
<text text-anchor="start" x="556" y="-266.3" font-family="Monospace" font-size="9.00">decide/2</text>
<text text-anchor="start" x="620" y="-266.3" font-family="Monospace" font-size="9.00"> </text>
<text text-anchor="start" x="526.5" y="-256.3" font-family="Monospace" font-size="9.00"> </text>
<text text-anchor="start" x="535" y="-256.3" font-family="Monospace" font-size="9.00">op(1200,xfy,&lt;=&gt;)</text>
<text text-anchor="start" x="620" y="-256.3" font-family="Monospace" font-size="9.00"> </text>
<text text-anchor="start" x="526.5" y="-246.3" font-family="Monospace" font-size="9.00"> </text>
<text text-anchor="start" x="538" y="-246.3" font-family="Monospace" font-size="9.00">op(1110,xfy,=&gt;)</text>
<text text-anchor="start" x="620" y="-246.3" font-family="Monospace" font-size="9.00"> </text>
<text text-anchor="start" x="526.5" y="-236.3" font-family="Monospace" font-size="9.00"> </text>
<text text-anchor="start" x="540.5" y="-236.3" font-family="Monospace" font-size="9.00">op(1000,xfy,&amp;)</text>
<text text-anchor="start" x="620" y="-236.3" font-family="Monospace" font-size="9.00"> </text>
<text text-anchor="start" x="526.5" y="-226.3" font-family="Monospace" font-size="9.00"> </text>
<text text-anchor="start" x="545.5" y="-226.3" font-family="Monospace" font-size="9.00">op(500,fy,~)</text>
<text text-anchor="start" x="620" y="-226.3" font-family="Monospace" font-size="9.00"> </text>
</a>
</g>
</g>
<!-- metagol -->
<g id="node2" class="node">
<title>metagol</title>
<g id="a_node2"><a xlink:href="https://logtalk.org/library/metagol_0.html" xlink:title="https://logtalk.org/library/metagol_0.html">
<polygon fill="cornsilk" stroke="black" points="240,-401 38,-401 38,-160 240,-160 240,-401"/>
<g id="a_node2_9"><a xlink:href="metagol_object_xref_diagram.svg" xlink:title="Zoom">
<image xlink:href="zoom.png" width="11px" height="11px" preserveAspectRatio="xMinYMin meet" x="46" y="-396.5"/>
</a>
</g>
<text text-anchor="start" x="48.5" y="-377.3" font-family="Monospace" font-size="9.00"> </text>
<text text-anchor="start" x="117.5" y="-376.7" font-family="Monospace" font-size="11.00">metagol</text>
<text text-anchor="start" x="226" y="-377.3" font-family="Monospace" font-size="9.00"> </text>
<text text-anchor="start" x="48.5" y="-366.3" font-family="Monospace" font-size="9.00"> </text>
<text text-anchor="start" x="121" y="-366.9" font-family="Monospace" font-size="7.00">prototype</text>
<text text-anchor="start" x="226" y="-366.3" font-family="Monospace" font-size="9.00"> </text>
<text text-anchor="start" x="48.5" y="-356.3" font-family="Monospace" font-size="9.00"> </text>
<text text-anchor="start" x="48.5" y="-346.3" font-family="Monospace" font-size="9.00"> </text>
<text text-anchor="start" x="123" y="-346.3" font-family="Monospace" font-size="9.00">learn/3</text>
<text text-anchor="start" x="226" y="-346.3" font-family="Monospace" font-size="9.00"> </text>
<text text-anchor="start" x="48.5" y="-336.3" font-family="Monospace" font-size="9.00"> </text>
<text text-anchor="start" x="123" y="-336.3" font-family="Monospace" font-size="9.00">learn/2</text>
<text text-anchor="start" x="226" y="-336.3" font-family="Monospace" font-size="9.00"> </text>
<text text-anchor="start" x="48.5" y="-326.3" font-family="Monospace" font-size="9.00"> </text>
<text text-anchor="start" x="112.5" y="-326.3" font-family="Monospace" font-size="9.00">learn_seq/2</text>
<text text-anchor="start" x="226" y="-326.3" font-family="Monospace" font-size="9.00"> </text>
<text text-anchor="start" x="48.5" y="-316.3" font-family="Monospace" font-size="9.00"> </text>
<text text-anchor="start" x="88.5" y="-316.3" font-family="Monospace" font-size="9.00">learn_with_timeout/4</text>
<text text-anchor="start" x="226" y="-316.3" font-family="Monospace" font-size="9.00"> </text>
<text text-anchor="start" x="48.5" y="-306.3" font-family="Monospace" font-size="9.00"> </text>
<text text-anchor="start" x="88.5" y="-306.3" font-family="Monospace" font-size="9.00">program_to_clauses/2</text>
<text text-anchor="start" x="226" y="-306.3" font-family="Monospace" font-size="9.00"> </text>
<text text-anchor="start" x="48.5" y="-296.3" font-family="Monospace" font-size="9.00"> </text>
<text text-anchor="start" x="120" y="-296.3" font-family="Monospace" font-size="9.00">pprint/1</text>
<text text-anchor="start" x="226" y="-296.3" font-family="Monospace" font-size="9.00"> </text>
<text text-anchor="start" x="48.5" y="-286.3" font-family="Monospace" font-size="9.00"> </text>
<text text-anchor="start" x="115" y="-286.3" font-family="Monospace" font-size="9.00">metarule/6</text>
<text text-anchor="start" x="226" y="-286.3" font-family="Monospace" font-size="9.00"> </text>
<text text-anchor="start" x="48.5" y="-276.3" font-family="Monospace" font-size="9.00"> </text>
<text text-anchor="start" x="112.5" y="-276.3" font-family="Monospace" font-size="9.00">head_pred/1</text>
<text text-anchor="start" x="226" y="-276.3" font-family="Monospace" font-size="9.00"> </text>
<text text-anchor="start" x="48.5" y="-266.3" font-family="Monospace" font-size="9.00"> </text>
<text text-anchor="start" x="112.5" y="-266.3" font-family="Monospace" font-size="9.00">body_pred/1</text>
<text text-anchor="start" x="226" y="-266.3" font-family="Monospace" font-size="9.00"> </text>
<text text-anchor="start" x="48.5" y="-256.3" font-family="Monospace" font-size="9.00"> </text>
<text text-anchor="start" x="128" y="-256.3" font-family="Monospace" font-size="9.00">ibk/3</text>
<text text-anchor="start" x="226" y="-256.3" font-family="Monospace" font-size="9.00"> </text>
<text text-anchor="start" x="48.5" y="-246.3" font-family="Monospace" font-size="9.00"> </text>
<text text-anchor="start" x="112.5" y="-246.3" font-family="Monospace" font-size="9.00">func_test/3</text>
<text text-anchor="start" x="226" y="-246.3" font-family="Monospace" font-size="9.00"> </text>
<text text-anchor="start" x="48.5" y="-236.3" font-family="Monospace" font-size="9.00"> </text>
<text text-anchor="start" x="109.5" y="-236.3" font-family="Monospace" font-size="9.00">functional/0</text>
<text text-anchor="start" x="226" y="-236.3" font-family="Monospace" font-size="9.00"> </text>
<text text-anchor="start" x="48.5" y="-226.3" font-family="Monospace" font-size="9.00"> </text>
<text text-anchor="start" x="107" y="-226.3" font-family="Monospace" font-size="9.00">min_clauses/1</text>
<text text-anchor="start" x="226" y="-226.3" font-family="Monospace" font-size="9.00"> </text>
<text text-anchor="start" x="48.5" y="-216.3" font-family="Monospace" font-size="9.00"> </text>
<text text-anchor="start" x="107" y="-216.3" font-family="Monospace" font-size="9.00">max_clauses/1</text>
<text text-anchor="start" x="226" y="-216.3" font-family="Monospace" font-size="9.00"> </text>
<text text-anchor="start" x="48.5" y="-206.3" font-family="Monospace" font-size="9.00"> </text>
<text text-anchor="start" x="102" y="-206.3" font-family="Monospace" font-size="9.00">max_inv_preds/1</text>
<text text-anchor="start" x="226" y="-206.3" font-family="Monospace" font-size="9.00"> </text>
<text text-anchor="start" x="48.5" y="-196.3" font-family="Monospace" font-size="9.00"> </text>
<text text-anchor="start" x="94" y="-196.3" font-family="Monospace" font-size="9.00">metarule_next_id/1</text>
<text text-anchor="start" x="226" y="-196.3" font-family="Monospace" font-size="9.00"> </text>
<text text-anchor="start" x="48.5" y="-186.3" font-family="Monospace" font-size="9.00"> </text>
<text text-anchor="start" x="117.5" y="-186.3" font-family="Monospace" font-size="9.00">timeout/1</text>
<text text-anchor="start" x="226" y="-186.3" font-family="Monospace" font-size="9.00"> </text>
<text text-anchor="start" x="48.5" y="-176.3" font-family="Monospace" font-size="9.00"> </text>
<text text-anchor="start" x="73" y="-176.3" font-family="Monospace" font-size="9.00">logtalk::message_tokens//2</text>
<text text-anchor="start" x="226" y="-176.3" font-family="Monospace" font-size="9.00"> </text>
<text text-anchor="start" x="48.5" y="-166.3" font-family="Monospace" font-size="9.00"> </text>
<text text-anchor="start" x="57" y="-166.3" font-family="Monospace" font-size="9.00">logtalk::message_prefix_stream/4</text>
<text text-anchor="start" x="226" y="-166.3" font-family="Monospace" font-size="9.00"> </text>
</a>
</g>
</g>
<!-- expanding -->
<g id="node5" class="node">
<title>expanding</title>
<g id="a_node5"><a xlink:href="https://logtalk.org/library/expanding_0.html" xlink:title="https://logtalk.org/library/expanding_0.html">
<polygon fill="mediumaquamarine" stroke="black" stroke-dasharray="5,2" points="353.5,-519 254.5,-519 254.5,-483 359.5,-483 359.5,-513 353.5,-519"/>
<polyline fill="none" stroke="black" stroke-dasharray="5,2" points="353.5,-519 353.5,-513"/>
<polyline fill="none" stroke="black" stroke-dasharray="5,2" points="359.5,-513 353.5,-513"/>
<text text-anchor="start" x="263" y="-503.8" font-family="Monospace" font-size="9.00"> </text>
<text text-anchor="start" x="277" y="-503.2" font-family="Monospace" font-size="11.00">expanding</text>
<text text-anchor="start" x="346" y="-503.8" font-family="Monospace" font-size="9.00"> </text>
<text text-anchor="start" x="263" y="-492.8" font-family="Monospace" font-size="9.00"> </text>
<text text-anchor="start" x="269" y="-493.4" font-family="Monospace" font-size="7.00">built&#45;in protocol</text>
<text text-anchor="start" x="346" y="-492.8" font-family="Monospace" font-size="9.00"> </text>
</a>
</g>
</g>
<!-- metagol&#45;&gt;expanding -->
<g id="edge1" class="edge">
<title>metagol&#45;&gt;expanding</title>
<g id="a_edge1"><a xlink:href="https://logtalk.org/library/metagol_0.html" xlink:title="implements">
<path fill="none" stroke="black" d="M231.11,-401.3C252.83,-429.55 273.83,-456.86 288.21,-475.56"/>
<ellipse fill="black" stroke="black" cx="290.83" cy="-478.97" rx="4" ry="4"/>
</a>
</g>
<g id="a_edge1&#45;label"><a xlink:href="https://logtalk.org/library/metagol_0.html" xlink:title="https://logtalk.org/library/metagol_0.html">
<text text-anchor="start" x="261" y="-439.8" font-family="Monospace" font-size="9.00">implements</text>
</a>
</g>
</g>
<!-- metagol_example_protocol -->
<g id="node3" class="node">
<title>metagol_example_protocol</title>
<g id="a_node3"><a xlink:href="https://logtalk.org/library/metagol_example_protocol_0.html" xlink:title="https://logtalk.org/library/metagol_example_protocol_0.html">
<polygon fill="aquamarine" stroke="black" points="460,-316 270,-316 270,-245 466,-245 466,-310 460,-316"/>
<polyline fill="none" stroke="black" points="460,-316 460,-310"/>
<polyline fill="none" stroke="black" points="466,-310 460,-310"/>
<g id="a_node3_10"><a xlink:href="metagol_example_protocol_protocol_xref_diagram.svg" xlink:title="Zoom">
<image xlink:href="zoom.png" width="11px" height="11px" preserveAspectRatio="xMinYMin meet" x="278" y="-311.5"/>
</a>
</g>
<text text-anchor="start" x="280.5" y="-292.3" font-family="Monospace" font-size="9.00"> </text>
<text text-anchor="start" x="289" y="-291.7" font-family="Monospace" font-size="11.00">metagol_example_protocol</text>
<text text-anchor="start" x="452" y="-292.3" font-family="Monospace" font-size="9.00"> </text>
<text text-anchor="start" x="280.5" y="-281.3" font-family="Monospace" font-size="9.00"> </text>
<text text-anchor="start" x="352" y="-281.9" font-family="Monospace" font-size="7.00">protocol</text>
<text text-anchor="start" x="452" y="-281.3" font-family="Monospace" font-size="9.00"> </text>
<text text-anchor="start" x="280.5" y="-271.3" font-family="Monospace" font-size="9.00"> </text>
<text text-anchor="start" x="280.5" y="-261.3" font-family="Monospace" font-size="9.00"> </text>
<text text-anchor="start" x="352" y="-261.3" font-family="Monospace" font-size="9.00">learn/1</text>
<text text-anchor="start" x="452" y="-261.3" font-family="Monospace" font-size="9.00"> </text>
<text text-anchor="start" x="280.5" y="-251.3" font-family="Monospace" font-size="9.00"> </text>
<text text-anchor="start" x="352" y="-251.3" font-family="Monospace" font-size="9.00">learn/0</text>
<text text-anchor="start" x="452" y="-251.3" font-family="Monospace" font-size="9.00"> </text>
</a>
</g>
</g>
<!-- toychrdb -->
<g id="node4" class="node">
<title>toychrdb</title>
<g id="a_node4"><a xlink:href="https://logtalk.org/library/toychrdb_0.html" xlink:title="https://logtalk.org/library/toychrdb_0.html">
<polygon fill="cornsilk" stroke="black" points="786,-341 684,-341 684,-220 786,-220 786,-341"/>
<g id="a_node4_11"><a xlink:href="toychrdb_object_xref_diagram.svg" xlink:title="Zoom">
<image xlink:href="zoom.png" width="11px" height="11px" preserveAspectRatio="xMinYMin meet" x="692" y="-336.5"/>
</a>
</g>
<text text-anchor="start" x="694.5" y="-317.3" font-family="Monospace" font-size="9.00"> </text>
<text text-anchor="start" x="710" y="-316.7" font-family="Monospace" font-size="11.00">toychrdb</text>
<text text-anchor="start" x="772" y="-317.3" font-family="Monospace" font-size="9.00"> </text>
<text text-anchor="start" x="694.5" y="-306.3" font-family="Monospace" font-size="9.00"> </text>
<text text-anchor="start" x="717" y="-306.9" font-family="Monospace" font-size="7.00">prototype</text>
<text text-anchor="start" x="772" y="-306.3" font-family="Monospace" font-size="9.00"> </text>
<text text-anchor="start" x="694.5" y="-296.3" font-family="Monospace" font-size="9.00"> </text>
<text text-anchor="start" x="694.5" y="-286.3" font-family="Monospace" font-size="9.00"> </text>
<text text-anchor="start" x="716" y="-286.3" font-family="Monospace" font-size="9.00">chr_is/2</text>
<text text-anchor="start" x="772" y="-286.3" font-family="Monospace" font-size="9.00"> </text>
<text text-anchor="start" x="694.5" y="-276.3" font-family="Monospace" font-size="9.00"> </text>
<text text-anchor="start" x="708.5" y="-276.3" font-family="Monospace" font-size="9.00">chr_trace/0</text>
<text text-anchor="start" x="772" y="-276.3" font-family="Monospace" font-size="9.00"> </text>
<text text-anchor="start" x="694.5" y="-266.3" font-family="Monospace" font-size="9.00"> </text>
<text text-anchor="start" x="703" y="-266.3" font-family="Monospace" font-size="9.00">chr_notrace/0</text>
<text text-anchor="start" x="772" y="-266.3" font-family="Monospace" font-size="9.00"> </text>
<text text-anchor="start" x="694.5" y="-256.3" font-family="Monospace" font-size="9.00"> </text>
<text text-anchor="start" x="713.5" y="-256.3" font-family="Monospace" font-size="9.00">chr_spy/1</text>
<text text-anchor="start" x="772" y="-256.3" font-family="Monospace" font-size="9.00"> </text>
<text text-anchor="start" x="694.5" y="-246.3" font-family="Monospace" font-size="9.00"> </text>
<text text-anchor="start" x="708.5" y="-246.3" font-family="Monospace" font-size="9.00">chr_nospy/0</text>
<text text-anchor="start" x="772" y="-246.3" font-family="Monospace" font-size="9.00"> </text>
<text text-anchor="start" x="694.5" y="-236.3" font-family="Monospace" font-size="9.00"> </text>
<text text-anchor="start" x="705.5" y="-236.3" font-family="Monospace" font-size="9.00">chr_no_spy/1</text>
<text text-anchor="start" x="772" y="-236.3" font-family="Monospace" font-size="9.00"> </text>
<text text-anchor="start" x="694.5" y="-226.3" font-family="Monospace" font-size="9.00"> </text>
<text text-anchor="start" x="705.5" y="-226.3" font-family="Monospace" font-size="9.00">chr_option/2</text>
<text text-anchor="start" x="772" y="-226.3" font-family="Monospace" font-size="9.00"> </text>
</a>
</g>
</g>
<!-- toychrdb&#45;&gt;expanding -->
<g id="edge2" class="edge">
<title>toychrdb&#45;&gt;expanding</title>
<g id="a_edge2"><a xlink:href="https://logtalk.org/library/toychrdb_0.html" xlink:title="implements">
<path fill="none" stroke="black" d="M710.84,-341.27C696.55,-369.46 675.75,-401.17 648,-421 564.14,-480.92 441.72,-496.12 368.64,-499.55"/>
<ellipse fill="black" stroke="black" cx="364.48" cy="-499.73" rx="4" ry="4"/>
</a>
</g>
<g id="a_edge2&#45;label"><a xlink:href="https://logtalk.org/library/toychrdb_0.html" xlink:title="https://logtalk.org/library/toychrdb_0.html">
<text text-anchor="start" x="616" y="-439.8" font-family="Monospace" font-size="9.00">implements</text>
</a>
</g>
</g>
</g>
</svg>
