<?xml version="1.0" encoding="UTF-8" standalone="no"?>
<?xml-stylesheet href="diagrams.css" type="text/css"?>
<!DOCTYPE svg PUBLIC "-//W3C//DTD SVG 1.1//EN"
 "http://www.w3.org/Graphics/SVG/1.1/DTD/svg11.dtd">
<!-- Generated by graphviz version 2.43.20191029.1313 (20191029.1313)
 -->
<!-- Title: ports Pages: 1 -->
<svg width="804pt" height="660pt"
 viewBox="72.00 72.00 732.00 588.00" xmlns="http://www.w3.org/2000/svg" xmlns:xlink="http://www.w3.org/1999/xlink">
<g id="graph0" class="graph" transform="scale(1 1) rotate(0) translate(76 584)">
<title>ports</title>
<polygon fill="white" stroke="transparent" points="-4,4 -4,-512 656,-512 656,4 -4,4"/>
<text text-anchor="start" x="8" y="-26" font-family="Courier,monospace" font-size="10.00" fill="dimgray">Logtalk ports of third&#45;party software</text>
<text text-anchor="start" x="8" y="-16" font-family="Courier,monospace" font-size="10.00" fill="dimgray">Inheritance diagram for library ports</text>
<text text-anchor="start" x="8" y="-6" font-family="Courier,monospace" font-size="10.00" fill="dimgray">Generated on 2020&#45;05&#45;25, 21:55</text>
<g id="clust1" class="cluster">
<title>cluster_rlibrary_ports</title>
<g id="a_clust1"><a xlink:title="ports/">
<path fill="lightgray" stroke="dimgray" d="M20,-46C20,-46 632,-46 632,-46 638,-46 644,-52 644,-58 644,-58 644,-488 644,-488 644,-494 638,-500 632,-500 632,-500 20,-500 20,-500 14,-500 8,-494 8,-488 8,-488 8,-58 8,-58 8,-52 14,-46 20,-46"/>
<g id="a_clust1_0"><a xlink:href="https://github.com/LogtalkDotOrg/logtalk3/tree/ee3e469ba16664bcc8b3b120a4a0bb7672d96db2/ports/" xlink:title="https://github.com/LogtalkDotOrg/logtalk3/tree/ee3e469ba16664bcc8b3b120a4a0bb7672d96db2/ports/">
<text text-anchor="start" x="20" y="-56" font-family="Courier,monospace" font-size="10.00" fill="dimgray">ports/</text>
</a>
</g>
</a>
</g>
</g>
<g id="clust4" class="cluster">
<title>cluster_library_metagol</title>
<g id="a_clust4"><a xlink:title="metagol/">
<path fill="whitesmoke" stroke="dimgray" d="M182,-82C182,-82 622,-82 622,-82 628,-82 634,-88 634,-94 634,-94 634,-381 634,-381 634,-387 628,-393 622,-393 622,-393 182,-393 182,-393 176,-393 170,-387 170,-381 170,-381 170,-94 170,-94 170,-88 176,-82 182,-82"/>
<g id="a_clust4_1"><a xlink:href="https://github.com/LogtalkDotOrg/logtalk3/tree/ee3e469ba16664bcc8b3b120a4a0bb7672d96db2/ports/metagol/" xlink:title="https://github.com/LogtalkDotOrg/logtalk3/tree/ee3e469ba16664bcc8b3b120a4a0bb7672d96db2/ports/metagol/">
<text text-anchor="start" x="182" y="-92" font-family="Courier,monospace" font-size="10.00" fill="dimgray">metagol/</text>
</a>
</g>
</a>
</g>
</g>
<g id="clust6" class="cluster">
<title>cluster_file_/Users/pmoura/logtalk/ports/metagol/metagol.lgt</title>
<g id="a_clust6"><a xlink:title="metagol.lgt">
<path fill="snow" stroke="dimgray" d="M412,-118C412,-118 612,-118 612,-118 618,-118 624,-124 624,-130 624,-130 624,-371 624,-371 624,-377 618,-383 612,-383 612,-383 412,-383 412,-383 406,-383 400,-377 400,-371 400,-371 400,-130 400,-130 400,-124 406,-118 412,-118"/>
<g id="a_clust6_2"><a xlink:href="https://github.com/LogtalkDotOrg/logtalk3/tree/ee3e469ba16664bcc8b3b120a4a0bb7672d96db2/ports/metagol/metagol.lgt" xlink:title="https://github.com/LogtalkDotOrg/logtalk3/tree/ee3e469ba16664bcc8b3b120a4a0bb7672d96db2/ports/metagol/metagol.lgt">
<text text-anchor="start" x="411.99" y="-128" font-family="Courier,monospace" font-size="10.00" fill="dimgray">metagol.lgt</text>
</a>
</g>
</a>
</g>
</g>
<g id="clust7" class="cluster">
<title>cluster_file_/Users/pmoura/logtalk/ports/metagol/metagol_example_protocol.lgt</title>
<g id="a_clust7"><a xlink:title="metagol_example_protocol.lgt">
<path fill="snow" stroke="dimgray" d="M192,-194.5C192,-194.5 378,-194.5 378,-194.5 384,-194.5 390,-200.5 390,-206.5 390,-206.5 390,-294.5 390,-294.5 390,-300.5 384,-306.5 378,-306.5 378,-306.5 192,-306.5 192,-306.5 186,-306.5 180,-300.5 180,-294.5 180,-294.5 180,-206.5 180,-206.5 180,-200.5 186,-194.5 192,-194.5"/>
<g id="a_clust7_3"><a xlink:href="https://github.com/LogtalkDotOrg/logtalk3/tree/ee3e469ba16664bcc8b3b120a4a0bb7672d96db2/ports/metagol/metagol_example_protocol.lgt" xlink:title="https://github.com/LogtalkDotOrg/logtalk3/tree/ee3e469ba16664bcc8b3b120a4a0bb7672d96db2/ports/metagol/metagol_example_protocol.lgt">
<text text-anchor="start" x="191.99" y="-204.5" font-family="Courier,monospace" font-size="10.00" fill="dimgray">metagol_example_protocol.lgt</text>
</a>
</g>
</a>
</g>
</g>
<g id="clust8" class="cluster">
<title>cluster_library_toychr</title>
<g id="a_clust8"><a xlink:title="toychr/">
<path fill="whitesmoke" stroke="dimgray" d="M30,-136C30,-136 148,-136 148,-136 154,-136 160,-142 160,-148 160,-148 160,-327 160,-327 160,-333 154,-339 148,-339 148,-339 30,-339 30,-339 24,-339 18,-333 18,-327 18,-327 18,-148 18,-148 18,-142 24,-136 30,-136"/>
<g id="a_clust8_4"><a xlink:href="https://github.com/LogtalkDotOrg/logtalk3/tree/ee3e469ba16664bcc8b3b120a4a0bb7672d96db2/ports/toychr/" xlink:title="https://github.com/LogtalkDotOrg/logtalk3/tree/ee3e469ba16664bcc8b3b120a4a0bb7672d96db2/ports/toychr/">
<text text-anchor="start" x="30" y="-146" font-family="Courier,monospace" font-size="10.00" fill="dimgray">toychr/</text>
</a>
</g>
</a>
</g>
</g>
<g id="clust10" class="cluster">
<title>cluster_file_/Users/pmoura/logtalk/ports/toychr/toychrdb.lgt</title>
<g id="a_clust10"><a xlink:title="toychrdb.lgt">
<path fill="snow" stroke="dimgray" d="M40,-172C40,-172 138,-172 138,-172 144,-172 150,-178 150,-184 150,-184 150,-317 150,-317 150,-323 144,-329 138,-329 138,-329 40,-329 40,-329 34,-329 28,-323 28,-317 28,-317 28,-184 28,-184 28,-178 34,-172 40,-172"/>
<g id="a_clust10_5"><a xlink:href="https://github.com/LogtalkDotOrg/logtalk3/tree/ee3e469ba16664bcc8b3b120a4a0bb7672d96db2/ports/toychr/toychrdb.lgt" xlink:title="https://github.com/LogtalkDotOrg/logtalk3/tree/ee3e469ba16664bcc8b3b120a4a0bb7672d96db2/ports/toychr/toychrdb.lgt">
<text text-anchor="start" x="39.99" y="-182" font-family="Courier,monospace" font-size="10.00" fill="dimgray">toychrdb.lgt</text>
</a>
</g>
</a>
</g>
</g>
<!-- metagol -->
<g id="node1" class="node">
<title>metagol</title>
<g id="a_node1"><a xlink:href="https://logtalk.org/library/metagol_0.html" xlink:title="https://logtalk.org/library/metagol_0.html">
<polygon fill="cornsilk" stroke="black" points="614,-373 410,-373 410,-154 614,-154 614,-373"/>
<g id="a_node1_6"><a xlink:href="metagol_object_xref_diagram.svg" xlink:title="Zoom">
<image xlink:href="zoom.png" width="11px" height="11px" preserveAspectRatio="xMinYMin meet" x="418" y="-368.5"/>
</a>
</g>
<text text-anchor="start" x="420.8" y="-349.3" font-family="Courier,monospace" font-size="9.00"> </text>
<text text-anchor="start" x="491.9" y="-348.7" font-family="Courier,monospace" font-size="11.00">metagol</text>
<text text-anchor="start" x="600.8" y="-349.3" font-family="Courier,monospace" font-size="9.00"> </text>
<text text-anchor="start" x="420.8" y="-339.3" font-family="Courier,monospace" font-size="9.00"> </text>
<text text-anchor="start" x="496.1" y="-339.9" font-family="Courier,monospace" font-size="7.00">prototype</text>
<text text-anchor="start" x="600.8" y="-339.3" font-family="Courier,monospace" font-size="9.00"> </text>
<text text-anchor="start" x="420.8" y="-330.3" font-family="Courier,monospace" font-size="9.00"> </text>
<text text-anchor="start" x="420.8" y="-321.3" font-family="Courier,monospace" font-size="9.00"> </text>
<text text-anchor="start" x="496.1" y="-321.3" font-family="Courier,monospace" font-size="9.00">learn/3</text>
<text text-anchor="start" x="600.8" y="-321.3" font-family="Courier,monospace" font-size="9.00"> </text>
<text text-anchor="start" x="420.8" y="-312.3" font-family="Courier,monospace" font-size="9.00"> </text>
<text text-anchor="start" x="496.1" y="-312.3" font-family="Courier,monospace" font-size="9.00">learn/2</text>
<text text-anchor="start" x="600.8" y="-312.3" font-family="Courier,monospace" font-size="9.00"> </text>
<text text-anchor="start" x="420.8" y="-303.3" font-family="Courier,monospace" font-size="9.00"> </text>
<text text-anchor="start" x="485.3" y="-303.3" font-family="Courier,monospace" font-size="9.00">learn_seq/2</text>
<text text-anchor="start" x="600.8" y="-303.3" font-family="Courier,monospace" font-size="9.00"> </text>
<text text-anchor="start" x="420.8" y="-294.3" font-family="Courier,monospace" font-size="9.00"> </text>
<text text-anchor="start" x="460.99" y="-294.3" font-family="Courier,monospace" font-size="9.00">learn_with_timeout/4</text>
<text text-anchor="start" x="600.8" y="-294.3" font-family="Courier,monospace" font-size="9.00"> </text>
<text text-anchor="start" x="420.8" y="-285.3" font-family="Courier,monospace" font-size="9.00"> </text>
<text text-anchor="start" x="460.99" y="-285.3" font-family="Courier,monospace" font-size="9.00">program_to_clauses/2</text>
<text text-anchor="start" x="600.8" y="-285.3" font-family="Courier,monospace" font-size="9.00"> </text>
<text text-anchor="start" x="420.8" y="-276.3" font-family="Courier,monospace" font-size="9.00"> </text>
<text text-anchor="start" x="493.4" y="-276.3" font-family="Courier,monospace" font-size="9.00">pprint/1</text>
<text text-anchor="start" x="600.8" y="-276.3" font-family="Courier,monospace" font-size="9.00"> </text>
<text text-anchor="start" x="420.8" y="-267.3" font-family="Courier,monospace" font-size="9.00"> </text>
<text text-anchor="start" x="488" y="-267.3" font-family="Courier,monospace" font-size="9.00">metarule/6</text>
<text text-anchor="start" x="600.8" y="-267.3" font-family="Courier,monospace" font-size="9.00"> </text>
<text text-anchor="start" x="420.8" y="-258.3" font-family="Courier,monospace" font-size="9.00"> </text>
<text text-anchor="start" x="485.3" y="-258.3" font-family="Courier,monospace" font-size="9.00">head_pred/1</text>
<text text-anchor="start" x="600.8" y="-258.3" font-family="Courier,monospace" font-size="9.00"> </text>
<text text-anchor="start" x="420.8" y="-249.3" font-family="Courier,monospace" font-size="9.00"> </text>
<text text-anchor="start" x="485.3" y="-249.3" font-family="Courier,monospace" font-size="9.00">body_pred/1</text>
<text text-anchor="start" x="600.8" y="-249.3" font-family="Courier,monospace" font-size="9.00"> </text>
<text text-anchor="start" x="420.8" y="-240.3" font-family="Courier,monospace" font-size="9.00"> </text>
<text text-anchor="start" x="501.5" y="-240.3" font-family="Courier,monospace" font-size="9.00">ibk/3</text>
<text text-anchor="start" x="600.8" y="-240.3" font-family="Courier,monospace" font-size="9.00"> </text>
<text text-anchor="start" x="420.8" y="-231.3" font-family="Courier,monospace" font-size="9.00"> </text>
<text text-anchor="start" x="485.3" y="-231.3" font-family="Courier,monospace" font-size="9.00">func_test/3</text>
<text text-anchor="start" x="600.8" y="-231.3" font-family="Courier,monospace" font-size="9.00"> </text>
<text text-anchor="start" x="420.8" y="-222.3" font-family="Courier,monospace" font-size="9.00"> </text>
<text text-anchor="start" x="482.59" y="-222.3" font-family="Courier,monospace" font-size="9.00">functional/0</text>
<text text-anchor="start" x="600.8" y="-222.3" font-family="Courier,monospace" font-size="9.00"> </text>
<text text-anchor="start" x="420.8" y="-213.3" font-family="Courier,monospace" font-size="9.00"> </text>
<text text-anchor="start" x="479.89" y="-213.3" font-family="Courier,monospace" font-size="9.00">min_clauses/1</text>
<text text-anchor="start" x="600.8" y="-213.3" font-family="Courier,monospace" font-size="9.00"> </text>
<text text-anchor="start" x="420.8" y="-204.3" font-family="Courier,monospace" font-size="9.00"> </text>
<text text-anchor="start" x="479.89" y="-204.3" font-family="Courier,monospace" font-size="9.00">max_clauses/1</text>
<text text-anchor="start" x="600.8" y="-204.3" font-family="Courier,monospace" font-size="9.00"> </text>
<text text-anchor="start" x="420.8" y="-195.3" font-family="Courier,monospace" font-size="9.00"> </text>
<text text-anchor="start" x="474.49" y="-195.3" font-family="Courier,monospace" font-size="9.00">max_inv_preds/1</text>
<text text-anchor="start" x="600.8" y="-195.3" font-family="Courier,monospace" font-size="9.00"> </text>
<text text-anchor="start" x="420.8" y="-186.3" font-family="Courier,monospace" font-size="9.00"> </text>
<text text-anchor="start" x="466.39" y="-186.3" font-family="Courier,monospace" font-size="9.00">metarule_next_id/1</text>
<text text-anchor="start" x="600.8" y="-186.3" font-family="Courier,monospace" font-size="9.00"> </text>
<text text-anchor="start" x="420.8" y="-177.3" font-family="Courier,monospace" font-size="9.00"> </text>
<text text-anchor="start" x="490.7" y="-177.3" font-family="Courier,monospace" font-size="9.00">timeout/1</text>
<text text-anchor="start" x="600.8" y="-177.3" font-family="Courier,monospace" font-size="9.00"> </text>
<text text-anchor="start" x="420.8" y="-168.3" font-family="Courier,monospace" font-size="9.00"> </text>
<text text-anchor="start" x="444.79" y="-168.3" font-family="Courier,monospace" font-size="9.00">logtalk::message_tokens//2</text>
<text text-anchor="start" x="600.8" y="-168.3" font-family="Courier,monospace" font-size="9.00"> </text>
<text text-anchor="start" x="420.8" y="-159.3" font-family="Courier,monospace" font-size="9.00"> </text>
<text text-anchor="start" x="428.59" y="-159.3" font-family="Courier,monospace" font-size="9.00">logtalk::message_prefix_stream/4</text>
<text text-anchor="start" x="600.8" y="-159.3" font-family="Courier,monospace" font-size="9.00"> </text>
</a>
</g>
</g>
<!-- expanding -->
<g id="node4" class="node">
<title>expanding</title>
<g id="a_node4"><a xlink:href="https://logtalk.org/library/expanding_0.html" xlink:title="https://logtalk.org/library/expanding_0.html">
<polygon fill="mediumaquamarine" stroke="black" stroke-dasharray="5,2" points="255.5,-490 164.5,-490 164.5,-454 261.5,-454 261.5,-484 255.5,-490"/>
<polyline fill="none" stroke="black" stroke-dasharray="5,2" points="255.5,-490 255.5,-484 "/>
<polyline fill="none" stroke="black" stroke-dasharray="5,2" points="261.5,-484 255.5,-484 "/>
<text text-anchor="start" x="172.8" y="-473.8" font-family="Courier,monospace" font-size="9.00"> </text>
<text text-anchor="start" x="183.8" y="-473.2" font-family="Courier,monospace" font-size="11.00">expanding</text>
<text text-anchor="start" x="248.8" y="-473.8" font-family="Courier,monospace" font-size="9.00"> </text>
<text text-anchor="start" x="172.8" y="-463.8" font-family="Courier,monospace" font-size="9.00"> </text>
<text text-anchor="start" x="177.79" y="-464.4" font-family="Courier,monospace" font-size="7.00">built&#45;in protocol</text>
<text text-anchor="start" x="248.8" y="-463.8" font-family="Courier,monospace" font-size="9.00"> </text>
</a>
</g>
</g>
<!-- metagol&#45;&gt;expanding -->
<g id="edge1" class="edge">
<title>metagol&#45;&gt;expanding</title>
<g id="a_edge1"><a xlink:href="https://logtalk.org/library/metagol_0.html" xlink:title="implements">
<path fill="none" stroke="black" d="M418.99,-373.04C410.89,-380.2 402.52,-386.95 394,-393 355.84,-420.09 306.79,-440.5 269.38,-453.63"/>
<ellipse fill="black" stroke="black" cx="265.36" cy="-455.02" rx="4" ry="4"/>
</a>
</g>
<g id="a_edge1&#45;label"><a xlink:href="https://logtalk.org/library/metagol_0.html" xlink:title="https://logtalk.org/library/metagol_0.html">
<text text-anchor="start" x="366" y="-410.8" font-family="Courier,monospace" font-size="9.00">implements</text>
</a>
</g>
</g>
<!-- metagol_example_protocol -->
<g id="node2" class="node">
<title>metagol_example_protocol</title>
<g id="a_node2"><a xlink:href="https://logtalk.org/library/metagol_example_protocol_0.html" xlink:title="https://logtalk.org/library/metagol_example_protocol_0.html">
<polygon fill="aquamarine" stroke="black" points="374,-296.5 190,-296.5 190,-230.5 380,-230.5 380,-290.5 374,-296.5"/>
<polyline fill="none" stroke="black" points="374,-296.5 374,-290.5 "/>
<polyline fill="none" stroke="black" points="380,-290.5 374,-290.5 "/>
<g id="a_node2_7"><a xlink:href="metagol_example_protocol_protocol_xref_diagram.svg" xlink:title="Zoom">
<image xlink:href="zoom.png" width="11px" height="11px" preserveAspectRatio="xMinYMin meet" x="198" y="-292.5"/>
</a>
</g>
<text text-anchor="start" x="200.8" y="-273.3" font-family="Courier,monospace" font-size="9.00"> </text>
<text text-anchor="start" x="208.79" y="-272.7" font-family="Courier,monospace" font-size="11.00">metagol_example_protocol</text>
<text text-anchor="start" x="366.8" y="-273.3" font-family="Courier,monospace" font-size="9.00"> </text>
<text text-anchor="start" x="200.8" y="-263.3" font-family="Courier,monospace" font-size="9.00"> </text>
<text text-anchor="start" x="271.2" y="-263.9" font-family="Courier,monospace" font-size="7.00">protocol</text>
<text text-anchor="start" x="366.8" y="-263.3" font-family="Courier,monospace" font-size="9.00"> </text>
<text text-anchor="start" x="200.8" y="-254.3" font-family="Courier,monospace" font-size="9.00"> </text>
<text text-anchor="start" x="200.8" y="-245.3" font-family="Courier,monospace" font-size="9.00"> </text>
<text text-anchor="start" x="269.1" y="-245.3" font-family="Courier,monospace" font-size="9.00">learn/1</text>
<text text-anchor="start" x="366.8" y="-245.3" font-family="Courier,monospace" font-size="9.00"> </text>
<text text-anchor="start" x="200.8" y="-236.3" font-family="Courier,monospace" font-size="9.00"> </text>
<text text-anchor="start" x="269.1" y="-236.3" font-family="Courier,monospace" font-size="9.00">learn/0</text>
<text text-anchor="start" x="366.8" y="-236.3" font-family="Courier,monospace" font-size="9.00"> </text>
</a>
</g>
</g>
<!-- toychrdb -->
<g id="node3" class="node">
<title>toychrdb</title>
<g id="a_node3"><a xlink:href="https://logtalk.org/library/toychrdb_0.html" xlink:title="https://logtalk.org/library/toychrdb_0.html">
<polygon fill="cornsilk" stroke="black" points="140,-319 38,-319 38,-208 140,-208 140,-319"/>
<g id="a_node3_8"><a xlink:href="toychrdb_object_xref_diagram.svg" xlink:title="Zoom">
<image xlink:href="zoom.png" width="11px" height="11px" preserveAspectRatio="xMinYMin meet" x="46" y="-314.5"/>
</a>
</g>
<text text-anchor="start" x="48.8" y="-295.3" font-family="Courier,monospace" font-size="9.00"> </text>
<text text-anchor="start" x="65.6" y="-294.7" font-family="Courier,monospace" font-size="11.00">toychrdb</text>
<text text-anchor="start" x="126.8" y="-295.3" font-family="Courier,monospace" font-size="9.00"> </text>
<text text-anchor="start" x="48.8" y="-285.3" font-family="Courier,monospace" font-size="9.00"> </text>
<text text-anchor="start" x="73.1" y="-285.9" font-family="Courier,monospace" font-size="7.00">prototype</text>
<text text-anchor="start" x="126.8" y="-285.3" font-family="Courier,monospace" font-size="9.00"> </text>
<text text-anchor="start" x="48.8" y="-276.3" font-family="Courier,monospace" font-size="9.00"> </text>
<text text-anchor="start" x="48.8" y="-267.3" font-family="Courier,monospace" font-size="9.00"> </text>
<text text-anchor="start" x="70.4" y="-267.3" font-family="Courier,monospace" font-size="9.00">chr_is/2</text>
<text text-anchor="start" x="126.8" y="-267.3" font-family="Courier,monospace" font-size="9.00"> </text>
<text text-anchor="start" x="48.8" y="-258.3" font-family="Courier,monospace" font-size="9.00"> </text>
<text text-anchor="start" x="62.3" y="-258.3" font-family="Courier,monospace" font-size="9.00">chr_trace/0</text>
<text text-anchor="start" x="126.8" y="-258.3" font-family="Courier,monospace" font-size="9.00"> </text>
<text text-anchor="start" x="48.8" y="-249.3" font-family="Courier,monospace" font-size="9.00"> </text>
<text text-anchor="start" x="56.89" y="-249.3" font-family="Courier,monospace" font-size="9.00">chr_notrace/0</text>
<text text-anchor="start" x="126.8" y="-249.3" font-family="Courier,monospace" font-size="9.00"> </text>
<text text-anchor="start" x="48.8" y="-240.3" font-family="Courier,monospace" font-size="9.00"> </text>
<text text-anchor="start" x="67.7" y="-240.3" font-family="Courier,monospace" font-size="9.00">chr_spy/1</text>
<text text-anchor="start" x="126.8" y="-240.3" font-family="Courier,monospace" font-size="9.00"> </text>
<text text-anchor="start" x="48.8" y="-231.3" font-family="Courier,monospace" font-size="9.00"> </text>
<text text-anchor="start" x="62.3" y="-231.3" font-family="Courier,monospace" font-size="9.00">chr_nospy/0</text>
<text text-anchor="start" x="126.8" y="-231.3" font-family="Courier,monospace" font-size="9.00"> </text>
<text text-anchor="start" x="48.8" y="-222.3" font-family="Courier,monospace" font-size="9.00"> </text>
<text text-anchor="start" x="59.59" y="-222.3" font-family="Courier,monospace" font-size="9.00">chr_no_spy/1</text>
<text text-anchor="start" x="126.8" y="-222.3" font-family="Courier,monospace" font-size="9.00"> </text>
<text text-anchor="start" x="48.8" y="-213.3" font-family="Courier,monospace" font-size="9.00"> </text>
<text text-anchor="start" x="59.59" y="-213.3" font-family="Courier,monospace" font-size="9.00">chr_option/2</text>
<text text-anchor="start" x="126.8" y="-213.3" font-family="Courier,monospace" font-size="9.00"> </text>
</a>
</g>
</g>
<!-- toychrdb&#45;&gt;expanding -->
<g id="edge2" class="edge">
<title>toychrdb&#45;&gt;expanding</title>
<g id="a_edge2"><a xlink:href="https://logtalk.org/library/toychrdb_0.html" xlink:title="implements">
<path fill="none" stroke="black" d="M121.74,-319.03C146.59,-360.4 179.56,-415.32 198.31,-446.54"/>
<ellipse fill="black" stroke="black" cx="200.47" cy="-450.14" rx="4" ry="4"/>
</a>
</g>
<g id="a_edge2&#45;label"><a xlink:href="https://logtalk.org/library/toychrdb_0.html" xlink:title="https://logtalk.org/library/toychrdb_0.html">
<text text-anchor="start" x="179" y="-410.8" font-family="Courier,monospace" font-size="9.00">implements</text>
</a>
</g>
</g>
</g>
</svg>
