<?xml version="1.0" encoding="UTF-8" standalone="no"?>
<!DOCTYPE svg PUBLIC "-//W3C//DTD SVG 1.1//EN"
 "http://www.w3.org/Graphics/SVG/1.1/DTD/svg11.dtd">
<!-- Generated by graphviz version 2.40.1 (20161225.0304)
 -->
<!-- Title: ports Pages: 1 -->
<svg width="430pt" height="753pt"
 viewBox="72.00 72.00 358.00 681.00" xmlns="http://www.w3.org/2000/svg" xmlns:xlink="http://www.w3.org/1999/xlink">
<g id="graph0" class="graph" transform="scale(1 1) rotate(0) translate(76 677)">
<title>ports</title>
<polygon fill="#ffffff" stroke="transparent" points="-4,4 -4,-605 282,-605 282,4 -4,4"/>
<text text-anchor="start" x="8" y="-18" font-family="Courier,monospace" font-size="10.00" fill="#8b8989">Logtalk ports of third&#45;party software</text>
<text text-anchor="start" x="8" y="-7" font-family="Courier,monospace" font-size="10.00" fill="#8b8989">Generated on 2019/04/08, 15:15</text>
<g id="clust1" class="cluster">
<title>cluster_rlibrary_ports</title>
<g id="a_clust1"><a xlink:href="https://github.com/LogtalkDotOrg/logtalk3/tree/master/ports/" xlink:title="https://github.com/LogtalkDotOrg/logtalk3/tree/master/ports/">
<path fill="#cdc9c9" stroke="#8b8989" d="M20,-38C20,-38 258,-38 258,-38 264,-38 270,-44 270,-50 270,-50 270,-581 270,-581 270,-587 264,-593 258,-593 258,-593 20,-593 20,-593 14,-593 8,-587 8,-581 8,-581 8,-50 8,-50 8,-44 14,-38 20,-38"/>
<text text-anchor="middle" x="31.5" y="-45" font-family="Courier,monospace" font-size="10.00" fill="#8b8989">ports</text>
</a>
</g>
</g>
<g id="clust4" class="cluster">
<title>cluster_library_metagol</title>
<g id="a_clust4"><a xlink:href="https://github.com/LogtalkDotOrg/logtalk3/tree/master/ports/metagol/" xlink:title="https://github.com/LogtalkDotOrg/logtalk3/tree/master/ports/metagol/">
<path fill="#eee9e9" stroke="#8b8989" d="M30,-67C30,-67 248,-67 248,-67 254,-67 260,-73 260,-79 260,-79 260,-353 260,-353 260,-359 254,-365 248,-365 248,-365 30,-365 30,-365 24,-365 18,-359 18,-353 18,-353 18,-79 18,-79 18,-73 24,-67 30,-67"/>
<text text-anchor="middle" x="47.5" y="-74" font-family="Courier,monospace" font-size="10.00" fill="#8b8989">metagol</text>
</a>
</g>
</g>
<g id="clust6" class="cluster">
<title>cluster_file_/Users/pmoura/logtalk/ports/metagol/metagol.lgt</title>
<g id="a_clust6"><a xlink:href="https://github.com/LogtalkDotOrg/logtalk3/tree/master/ports/metagol/metagol.lgt" xlink:title="https://github.com/LogtalkDotOrg/logtalk3/tree/master/ports/metagol/metagol.lgt">
<path fill="#fffafa" stroke="#8b8989" d="M40,-96C40,-96 238,-96 238,-96 244,-96 250,-102 250,-108 250,-108 250,-343 250,-343 250,-349 244,-355 238,-355 238,-355 40,-355 40,-355 34,-355 28,-349 28,-343 28,-343 28,-108 28,-108 28,-102 34,-96 40,-96"/>
<text text-anchor="middle" x="69.5" y="-103" font-family="Courier,monospace" font-size="10.00" fill="#8b8989">metagol.lgt</text>
</a>
</g>
</g>
<g id="clust7" class="cluster">
<title>cluster_other</title>
<g id="a_clust7"><a xlink:title="(external entities)">
<path fill="#ffffff" stroke="#8b8989" d="M86,-508C86,-508 193,-508 193,-508 199,-508 205,-514 205,-520 205,-520 205,-571 205,-571 205,-577 199,-583 193,-583 193,-583 86,-583 86,-583 80,-583 74,-577 74,-571 74,-571 74,-520 74,-520 74,-514 80,-508 86,-508"/>
<text text-anchor="middle" x="139.5" y="-515" font-family="Courier,monospace" font-size="10.00" fill="#8b8989">(external entities)</text>
</a>
</g>
</g>
<!-- metagol -->
<g id="node1" class="node">
<title>metagol</title>
<g id="a_node1"><a xlink:href="https://logtalk.org/library/metagol_0.html" xlink:title="https://logtalk.org/library/metagol_0.html">
<polygon fill="#f5f5dc" stroke="#000000" points="239.5,-345 38.5,-345 38.5,-125 239.5,-125 239.5,-345"/>
<text text-anchor="start" x="47" y="-332.8" font-family="Courier,monospace" font-size="9.00" fill="#000000"> </text>
<text text-anchor="start" x="116" y="-332.2" font-family="Courier,monospace" font-size="11.00" fill="#000000">metagol</text>
<text text-anchor="start" x="226" y="-332.8" font-family="Courier,monospace" font-size="9.00" fill="#000000"> </text>
<text text-anchor="start" x="47" y="-321.8" font-family="Courier,monospace" font-size="9.00" fill="#000000"> </text>
<text text-anchor="start" x="120.5" y="-322.4" font-family="Courier,monospace" font-size="7.00" fill="#000000">prototype</text>
<text text-anchor="start" x="226" y="-321.8" font-family="Courier,monospace" font-size="9.00" fill="#000000"> </text>
<text text-anchor="start" x="47" y="-311.8" font-family="Courier,monospace" font-size="9.00" fill="#000000"> </text>
<text text-anchor="start" x="47" y="-301.8" font-family="Courier,monospace" font-size="9.00" fill="#000000"> </text>
<text text-anchor="start" x="120.5" y="-301.8" font-family="Courier,monospace" font-size="9.00" fill="#000000">learn/3</text>
<text text-anchor="start" x="226" y="-301.8" font-family="Courier,monospace" font-size="9.00" fill="#000000"> </text>
<text text-anchor="start" x="47" y="-291.8" font-family="Courier,monospace" font-size="9.00" fill="#000000"> </text>
<text text-anchor="start" x="120.5" y="-291.8" font-family="Courier,monospace" font-size="9.00" fill="#000000">learn/2</text>
<text text-anchor="start" x="226" y="-291.8" font-family="Courier,monospace" font-size="9.00" fill="#000000"> </text>
<text text-anchor="start" x="47" y="-281.8" font-family="Courier,monospace" font-size="9.00" fill="#000000"> </text>
<text text-anchor="start" x="109.5" y="-281.8" font-family="Courier,monospace" font-size="9.00" fill="#000000">learn_seq/2</text>
<text text-anchor="start" x="226" y="-281.8" font-family="Courier,monospace" font-size="9.00" fill="#000000"> </text>
<text text-anchor="start" x="47" y="-271.8" font-family="Courier,monospace" font-size="9.00" fill="#000000"> </text>
<text text-anchor="start" x="112" y="-271.8" font-family="Courier,monospace" font-size="9.00" fill="#000000">pclauses/2</text>
<text text-anchor="start" x="226" y="-271.8" font-family="Courier,monospace" font-size="9.00" fill="#000000"> </text>
<text text-anchor="start" x="47" y="-261.8" font-family="Courier,monospace" font-size="9.00" fill="#000000"> </text>
<text text-anchor="start" x="117.5" y="-261.8" font-family="Courier,monospace" font-size="9.00" fill="#000000">pprint/1</text>
<text text-anchor="start" x="226" y="-261.8" font-family="Courier,monospace" font-size="9.00" fill="#000000"> </text>
<text text-anchor="start" x="47" y="-251.8" font-family="Courier,monospace" font-size="9.00" fill="#000000"> </text>
<text text-anchor="start" x="112" y="-251.8" font-family="Courier,monospace" font-size="9.00" fill="#000000">metarule/7</text>
<text text-anchor="start" x="226" y="-251.8" font-family="Courier,monospace" font-size="9.00" fill="#000000"> </text>
<text text-anchor="start" x="47" y="-241.8" font-family="Courier,monospace" font-size="9.00" fill="#000000"> </text>
<text text-anchor="start" x="98.5" y="-241.8" font-family="Courier,monospace" font-size="9.00" fill="#000000">metarule_init/6</text>
<text text-anchor="start" x="226" y="-241.8" font-family="Courier,monospace" font-size="9.00" fill="#000000"> </text>
<text text-anchor="start" x="47" y="-231.8" font-family="Courier,monospace" font-size="9.00" fill="#000000"> </text>
<text text-anchor="start" x="123" y="-231.8" font-family="Courier,monospace" font-size="9.00" fill="#000000">prim/1</text>
<text text-anchor="start" x="226" y="-231.8" font-family="Courier,monospace" font-size="9.00" fill="#000000"> </text>
<text text-anchor="start" x="47" y="-221.8" font-family="Courier,monospace" font-size="9.00" fill="#000000"> </text>
<text text-anchor="start" x="112" y="-221.8" font-family="Courier,monospace" font-size="9.00" fill="#000000">primcall/2</text>
<text text-anchor="start" x="226" y="-221.8" font-family="Courier,monospace" font-size="9.00" fill="#000000"> </text>
<text text-anchor="start" x="47" y="-211.8" font-family="Courier,monospace" font-size="9.00" fill="#000000"> </text>
<text text-anchor="start" x="96" y="-211.8" font-family="Courier,monospace" font-size="9.00" fill="#000000">interpreted_bk/2</text>
<text text-anchor="start" x="226" y="-211.8" font-family="Courier,monospace" font-size="9.00" fill="#000000"> </text>
<text text-anchor="start" x="47" y="-201.8" font-family="Courier,monospace" font-size="9.00" fill="#000000"> </text>
<text text-anchor="start" x="107" y="-201.8" font-family="Courier,monospace" font-size="9.00" fill="#000000">functional/0</text>
<text text-anchor="start" x="226" y="-201.8" font-family="Courier,monospace" font-size="9.00" fill="#000000"> </text>
<text text-anchor="start" x="47" y="-191.8" font-family="Courier,monospace" font-size="9.00" fill="#000000"> </text>
<text text-anchor="start" x="96" y="-191.8" font-family="Courier,monospace" font-size="9.00" fill="#000000">unfold_program/0</text>
<text text-anchor="start" x="226" y="-191.8" font-family="Courier,monospace" font-size="9.00" fill="#000000"> </text>
<text text-anchor="start" x="47" y="-181.8" font-family="Courier,monospace" font-size="9.00" fill="#000000"> </text>
<text text-anchor="start" x="104" y="-181.8" font-family="Courier,monospace" font-size="9.00" fill="#000000">min_clauses/1</text>
<text text-anchor="start" x="226" y="-181.8" font-family="Courier,monospace" font-size="9.00" fill="#000000"> </text>
<text text-anchor="start" x="47" y="-171.8" font-family="Courier,monospace" font-size="9.00" fill="#000000"> </text>
<text text-anchor="start" x="104" y="-171.8" font-family="Courier,monospace" font-size="9.00" fill="#000000">max_clauses/1</text>
<text text-anchor="start" x="226" y="-171.8" font-family="Courier,monospace" font-size="9.00" fill="#000000"> </text>
<text text-anchor="start" x="47" y="-161.8" font-family="Courier,monospace" font-size="9.00" fill="#000000"> </text>
<text text-anchor="start" x="98.5" y="-161.8" font-family="Courier,monospace" font-size="9.00" fill="#000000">max_inv_preds/1</text>
<text text-anchor="start" x="226" y="-161.8" font-family="Courier,monospace" font-size="9.00" fill="#000000"> </text>
<text text-anchor="start" x="47" y="-151.8" font-family="Courier,monospace" font-size="9.00" fill="#000000"> </text>
<text text-anchor="start" x="90.5" y="-151.8" font-family="Courier,monospace" font-size="9.00" fill="#000000">metarule_next_id/1</text>
<text text-anchor="start" x="226" y="-151.8" font-family="Courier,monospace" font-size="9.00" fill="#000000"> </text>
<text text-anchor="start" x="47" y="-141.8" font-family="Courier,monospace" font-size="9.00" fill="#000000"> </text>
<text text-anchor="start" x="69" y="-141.8" font-family="Courier,monospace" font-size="9.00" fill="#000000">logtalk::message_tokens//2</text>
<text text-anchor="start" x="226" y="-141.8" font-family="Courier,monospace" font-size="9.00" fill="#000000"> </text>
<text text-anchor="start" x="47" y="-131.8" font-family="Courier,monospace" font-size="9.00" fill="#000000"> </text>
<text text-anchor="start" x="53" y="-131.8" font-family="Courier,monospace" font-size="9.00" fill="#000000">logtalk::message_prefix_stream/4</text>
<text text-anchor="start" x="226" y="-131.8" font-family="Courier,monospace" font-size="9.00" fill="#000000"> </text>
</a>
</g>
</g>
<!-- expanding -->
<g id="node2" class="node">
<title>expanding</title>
<g id="a_node2"><a xlink:title="built&#45;in protocol">
<polygon fill="#7fffd4" stroke="#000000" stroke-dasharray="5,2" points="183,-573 89,-573 89,-537 189,-537 189,-567 183,-573"/>
<polyline fill="none" stroke="#000000" stroke-dasharray="5,2" points="183,-573 183,-567 "/>
<polyline fill="none" stroke="#000000" stroke-dasharray="5,2" points="189,-567 183,-567 "/>
<text text-anchor="start" x="97" y="-557.8" font-family="Courier,monospace" font-size="9.00" fill="#000000"> </text>
<text text-anchor="start" x="109" y="-557.2" font-family="Courier,monospace" font-size="11.00" fill="#000000">expanding</text>
<text text-anchor="start" x="175" y="-557.8" font-family="Courier,monospace" font-size="9.00" fill="#000000"> </text>
<text text-anchor="start" x="97" y="-546.8" font-family="Courier,monospace" font-size="9.00" fill="#000000"> </text>
<text text-anchor="start" x="103" y="-547.4" font-family="Courier,monospace" font-size="7.00" fill="#000000">built&#45;in protocol</text>
<text text-anchor="start" x="175" y="-546.8" font-family="Courier,monospace" font-size="9.00" fill="#000000"> </text>
</a>
</g>
</g>
<!-- metagol&#45;&gt;expanding -->
<g id="edge1" class="edge">
<title>metagol&#45;&gt;expanding</title>
<g id="a_edge1"><a xlink:href="https://github.com/LogtalkDotOrg/logtalk3/tree/master/ports/metagol/" xlink:title="implements">
<path fill="none" stroke="#000000" d="M139,-345.1258C139,-410.8141 139,-488.964 139,-528.8081"/>
<ellipse fill="#000000" stroke="#000000" cx="139" cy="-532.9401" rx="4" ry="4"/>
</a>
</g>
<g id="a_edge1&#45;label"><a xlink:href="https://github.com/LogtalkDotOrg/logtalk3/tree/master/ports/metagol/" xlink:title="https://github.com/LogtalkDotOrg/logtalk3/tree/master/ports/metagol/">
<text text-anchor="start" x="139" y="-438.8" font-family="Courier,monospace" font-size="9.00" fill="#000000">implements</text>
</a>
</g>
</g>
</g>
</svg>
