<?xml version="1.0" encoding="UTF-8" standalone="no"?>
<?xml-stylesheet href="diagrams.css" type="text/css"?>
<!DOCTYPE svg PUBLIC "-//W3C//DTD SVG 1.1//EN"
 "http://www.w3.org/Graphics/SVG/1.1/DTD/svg11.dtd">
<!-- Generated by graphviz version 8.1.0 (20230707.0739)
 -->
<!-- Title: ports Pages: 1 -->
<svg width="968pt" height="669pt"
 viewBox="72.00 72.00 896.00 597.25" xmlns="http://www.w3.org/2000/svg" xmlns:xlink="http://www.w3.org/1999/xlink">
<g id="graph0" class="graph" transform="scale(1 1) rotate(0) translate(76 593.25)">
<title>ports</title>
<polygon fill="white" stroke="none" points="-4,4 -4,-521.25 820,-521.25 820,4 -4,4"/>
<text text-anchor="start" x="8" y="-28.25" font-family="Monospace" font-size="10.00" fill="dimgray">Logtalk ports of third&#45;party software</text>
<text text-anchor="start" x="8" y="-17" font-family="Monospace" font-size="10.00" fill="dimgray">Inheritance diagram for library ports</text>
<text text-anchor="start" x="8" y="-5.75" font-family="Monospace" font-size="10.00" fill="dimgray">Generated on 2023&#45;08&#45;28, 10:50</text>
<g id="clust1" class="cluster">
<title>cluster_rlibrary_ports</title>
<g id="a_clust1"><a xlink:title="ports/">
<path fill="lightgray" stroke="dimgray" d="M20,-49.75C20,-49.75 796,-49.75 796,-49.75 802,-49.75 808,-55.75 808,-61.75 808,-61.75 808,-497.25 808,-497.25 808,-503.25 802,-509.25 796,-509.25 796,-509.25 20,-509.25 20,-509.25 14,-509.25 8,-503.25 8,-497.25 8,-497.25 8,-61.75 8,-61.75 8,-55.75 14,-49.75 20,-49.75"/>
<g id="a_clust1_0"><a xlink:href="https://github.com/LogtalkDotOrg/logtalk3/tree/e0eeb0e729976849f5aa9c17694c75dfcf63d82b/ports/" xlink:title="https://github.com/LogtalkDotOrg/logtalk3/tree/e0eeb0e729976849f5aa9c17694c75dfcf63d82b/ports/">
<text text-anchor="start" x="20" y="-59.5" font-family="Monospace" font-size="10.00" fill="dimgray">ports/</text>
</a>
</g>
</a>
</g>
</g>
<g id="clust4" class="cluster">
<title>cluster_library_fcube</title>
<g id="a_clust4"><a xlink:title="fcube/">
<path fill="whitesmoke" stroke="dimgray" d="M654,-141C654,-141 786,-141 786,-141 792,-141 798,-147 798,-153 798,-153 798,-335.5 798,-335.5 798,-341.5 792,-347.5 786,-347.5 786,-347.5 654,-347.5 654,-347.5 648,-347.5 642,-341.5 642,-335.5 642,-335.5 642,-153 642,-153 642,-147 648,-141 654,-141"/>
<g id="a_clust4_1"><a xlink:href="https://github.com/LogtalkDotOrg/logtalk3/tree/e0eeb0e729976849f5aa9c17694c75dfcf63d82b/ports/fcube/" xlink:title="https://github.com/LogtalkDotOrg/logtalk3/tree/e0eeb0e729976849f5aa9c17694c75dfcf63d82b/ports/fcube/">
<text text-anchor="start" x="654" y="-150.75" font-family="Monospace" font-size="10.00" fill="dimgray">fcube/</text>
</a>
</g>
</a>
</g>
</g>
<g id="clust6" class="cluster">
<title>cluster_file_/Users/pmoura/logtalk/ports/fcube/fcube.lgt</title>
<g id="a_clust6"><a xlink:title="fcube.lgt">
<path fill="snow" stroke="dimgray" d="M664,-178.25C664,-178.25 776,-178.25 776,-178.25 782,-178.25 788,-184.25 788,-190.25 788,-190.25 788,-325.5 788,-325.5 788,-331.5 782,-337.5 776,-337.5 776,-337.5 664,-337.5 664,-337.5 658,-337.5 652,-331.5 652,-325.5 652,-325.5 652,-190.25 652,-190.25 652,-184.25 658,-178.25 664,-178.25"/>
<g id="a_clust6_2"><a xlink:href="https://github.com/LogtalkDotOrg/logtalk3/tree/e0eeb0e729976849f5aa9c17694c75dfcf63d82b/ports/fcube/fcube.lgt" xlink:title="https://github.com/LogtalkDotOrg/logtalk3/tree/e0eeb0e729976849f5aa9c17694c75dfcf63d82b/ports/fcube/fcube.lgt">
<text text-anchor="start" x="664" y="-188" font-family="Monospace" font-size="10.00" fill="dimgray">fcube.lgt</text>
</a>
</g>
</a>
</g>
</g>
<g id="clust7" class="cluster">
<title>cluster_library_metagol</title>
<g id="a_clust7"><a xlink:title="metagol/">
<path fill="whitesmoke" stroke="dimgray" d="M180,-87C180,-87 620,-87 620,-87 626,-87 632,-93 632,-99 632,-99 632,-389.5 632,-389.5 632,-395.5 626,-401.5 620,-401.5 620,-401.5 180,-401.5 180,-401.5 174,-401.5 168,-395.5 168,-389.5 168,-389.5 168,-99 168,-99 168,-93 174,-87 180,-87"/>
<g id="a_clust7_3"><a xlink:href="https://github.com/LogtalkDotOrg/logtalk3/tree/e0eeb0e729976849f5aa9c17694c75dfcf63d82b/ports/metagol/" xlink:title="https://github.com/LogtalkDotOrg/logtalk3/tree/e0eeb0e729976849f5aa9c17694c75dfcf63d82b/ports/metagol/">
<text text-anchor="start" x="180" y="-96.75" font-family="Monospace" font-size="10.00" fill="dimgray">metagol/</text>
</a>
</g>
</a>
</g>
</g>
<g id="clust9" class="cluster">
<title>cluster_file_/Users/pmoura/logtalk/ports/metagol/metagol.lgt</title>
<g id="a_clust9"><a xlink:title="metagol.lgt">
<path fill="snow" stroke="dimgray" d="M414,-124.25C414,-124.25 610,-124.25 610,-124.25 616,-124.25 622,-130.25 622,-136.25 622,-136.25 622,-379.5 622,-379.5 622,-385.5 616,-391.5 610,-391.5 610,-391.5 414,-391.5 414,-391.5 408,-391.5 402,-385.5 402,-379.5 402,-379.5 402,-136.25 402,-136.25 402,-130.25 408,-124.25 414,-124.25"/>
<g id="a_clust9_4"><a xlink:href="https://github.com/LogtalkDotOrg/logtalk3/tree/e0eeb0e729976849f5aa9c17694c75dfcf63d82b/ports/metagol/metagol.lgt" xlink:title="https://github.com/LogtalkDotOrg/logtalk3/tree/e0eeb0e729976849f5aa9c17694c75dfcf63d82b/ports/metagol/metagol.lgt">
<text text-anchor="start" x="414" y="-134" font-family="Monospace" font-size="10.00" fill="dimgray">metagol.lgt</text>
</a>
</g>
</a>
</g>
</g>
<g id="clust10" class="cluster">
<title>cluster_file_/Users/pmoura/logtalk/ports/metagol/metagol_example_protocol.lgt</title>
<g id="a_clust10"><a xlink:title="metagol_example_protocol.lgt">
<path fill="snow" stroke="dimgray" d="M190,-200.75C190,-200.75 380,-200.75 380,-200.75 386,-200.75 392,-206.75 392,-212.75 392,-212.75 392,-303 392,-303 392,-309 386,-315 380,-315 380,-315 190,-315 190,-315 184,-315 178,-309 178,-303 178,-303 178,-212.75 178,-212.75 178,-206.75 184,-200.75 190,-200.75"/>
<g id="a_clust10_5"><a xlink:href="https://github.com/LogtalkDotOrg/logtalk3/tree/e0eeb0e729976849f5aa9c17694c75dfcf63d82b/ports/metagol/metagol_example_protocol.lgt" xlink:title="https://github.com/LogtalkDotOrg/logtalk3/tree/e0eeb0e729976849f5aa9c17694c75dfcf63d82b/ports/metagol/metagol_example_protocol.lgt">
<text text-anchor="start" x="190" y="-210.5" font-family="Monospace" font-size="10.00" fill="dimgray">metagol_example_protocol.lgt</text>
</a>
</g>
</a>
</g>
</g>
<g id="clust11" class="cluster">
<title>cluster_library_toychr</title>
<g id="a_clust11"><a xlink:title="toychr/">
<path fill="whitesmoke" stroke="dimgray" d="M30,-141C30,-141 146,-141 146,-141 152,-141 158,-147 158,-153 158,-153 158,-335.5 158,-335.5 158,-341.5 152,-347.5 146,-347.5 146,-347.5 30,-347.5 30,-347.5 24,-347.5 18,-341.5 18,-335.5 18,-335.5 18,-153 18,-153 18,-147 24,-141 30,-141"/>
<g id="a_clust11_6"><a xlink:href="https://github.com/LogtalkDotOrg/logtalk3/tree/e0eeb0e729976849f5aa9c17694c75dfcf63d82b/ports/toychr/" xlink:title="https://github.com/LogtalkDotOrg/logtalk3/tree/e0eeb0e729976849f5aa9c17694c75dfcf63d82b/ports/toychr/">
<text text-anchor="start" x="30" y="-150.75" font-family="Monospace" font-size="10.00" fill="dimgray">toychr/</text>
</a>
</g>
</a>
</g>
</g>
<g id="clust13" class="cluster">
<title>cluster_file_/Users/pmoura/logtalk/ports/toychr/toychrdb.lgt</title>
<g id="a_clust13"><a xlink:title="toychrdb.lgt">
<path fill="snow" stroke="dimgray" d="M40,-178.25C40,-178.25 136,-178.25 136,-178.25 142,-178.25 148,-184.25 148,-190.25 148,-190.25 148,-325.5 148,-325.5 148,-331.5 142,-337.5 136,-337.5 136,-337.5 40,-337.5 40,-337.5 34,-337.5 28,-331.5 28,-325.5 28,-325.5 28,-190.25 28,-190.25 28,-184.25 34,-178.25 40,-178.25"/>
<g id="a_clust13_7"><a xlink:href="https://github.com/LogtalkDotOrg/logtalk3/tree/e0eeb0e729976849f5aa9c17694c75dfcf63d82b/ports/toychr/toychrdb.lgt" xlink:title="https://github.com/LogtalkDotOrg/logtalk3/tree/e0eeb0e729976849f5aa9c17694c75dfcf63d82b/ports/toychr/toychrdb.lgt">
<text text-anchor="start" x="40" y="-188" font-family="Monospace" font-size="10.00" fill="dimgray">toychrdb.lgt</text>
</a>
</g>
</a>
</g>
</g>
<!-- fcube -->
<g id="node1" class="node">
<title>fcube</title>
<g id="a_node1"><a xlink:href="https://logtalk.org/library/fcube_0.html" xlink:title="https://logtalk.org/library/fcube_0.html">
<polygon fill="cornsilk" stroke="black" points="778,-327.5 662,-327.5 662,-215.5 778,-215.5 778,-327.5"/>
<g id="a_node1_8"><a xlink:href="fcube_object_xref_diagram.svg" xlink:title="Zoom">
<image xlink:href="zoom.png" width="11px" height="11px" preserveAspectRatio="xMinYMin meet" x="670" y="-323.5"/>
</a>
</g>
<text text-anchor="start" x="672.88" y="-302.82" font-family="Monospace" font-size="9.00"> </text>
<text text-anchor="start" x="706.12" y="-302.05" font-family="Monospace" font-size="11.00">fcube</text>
<text text-anchor="start" x="764.88" y="-302.82" font-family="Monospace" font-size="9.00"> </text>
<text text-anchor="start" x="672.88" y="-291.95" font-family="Monospace" font-size="9.00"> </text>
<text text-anchor="start" x="702.75" y="-293.48" font-family="Monospace" font-size="7.00">prototype</text>
<text text-anchor="start" x="764.88" y="-291.95" font-family="Monospace" font-size="9.00"> </text>
<text text-anchor="start" x="672.88" y="-282.95" font-family="Monospace" font-size="9.00"> </text>
<text text-anchor="start" x="672.88" y="-273.95" font-family="Monospace" font-size="9.00"> </text>
<text text-anchor="start" x="704.62" y="-273.95" font-family="Monospace" font-size="9.00">fcube/0</text>
<text text-anchor="start" x="764.88" y="-273.95" font-family="Monospace" font-size="9.00"> </text>
<text text-anchor="start" x="672.88" y="-264.95" font-family="Monospace" font-size="9.00"> </text>
<text text-anchor="start" x="702" y="-264.95" font-family="Monospace" font-size="9.00">decide/1</text>
<text text-anchor="start" x="764.88" y="-264.95" font-family="Monospace" font-size="9.00"> </text>
<text text-anchor="start" x="672.88" y="-255.95" font-family="Monospace" font-size="9.00"> </text>
<text text-anchor="start" x="702" y="-255.95" font-family="Monospace" font-size="9.00">decide/2</text>
<text text-anchor="start" x="764.88" y="-255.95" font-family="Monospace" font-size="9.00"> </text>
<text text-anchor="start" x="672.88" y="-246.95" font-family="Monospace" font-size="9.00"> </text>
<text text-anchor="start" x="681" y="-246.95" font-family="Monospace" font-size="9.00">op(1200,xfy,&lt;=&gt;)</text>
<text text-anchor="start" x="764.88" y="-246.95" font-family="Monospace" font-size="9.00"> </text>
<text text-anchor="start" x="672.88" y="-237.95" font-family="Monospace" font-size="9.00"> </text>
<text text-anchor="start" x="683.62" y="-237.95" font-family="Monospace" font-size="9.00">op(1110,xfy,=&gt;)</text>
<text text-anchor="start" x="764.88" y="-237.95" font-family="Monospace" font-size="9.00"> </text>
<text text-anchor="start" x="672.88" y="-228.95" font-family="Monospace" font-size="9.00"> </text>
<text text-anchor="start" x="686.25" y="-228.95" font-family="Monospace" font-size="9.00">op(1000,xfy,&amp;)</text>
<text text-anchor="start" x="764.88" y="-228.95" font-family="Monospace" font-size="9.00"> </text>
<text text-anchor="start" x="672.88" y="-219.95" font-family="Monospace" font-size="9.00"> </text>
<text text-anchor="start" x="691.5" y="-219.95" font-family="Monospace" font-size="9.00">op(500,fy,~)</text>
<text text-anchor="start" x="764.88" y="-219.95" font-family="Monospace" font-size="9.00"> </text>
</a>
</g>
</g>
<!-- metagol -->
<g id="node2" class="node">
<title>metagol</title>
<g id="a_node2"><a xlink:href="https://logtalk.org/library/metagol_0.html" xlink:title="https://logtalk.org/library/metagol_0.html">
<polygon fill="cornsilk" stroke="black" points="612,-381.5 412,-381.5 412,-161.5 612,-161.5 612,-381.5"/>
<g id="a_node2_9"><a xlink:href="metagol_object_xref_diagram.svg" xlink:title="Zoom">
<image xlink:href="zoom.png" width="11px" height="11px" preserveAspectRatio="xMinYMin meet" x="420" y="-377.5"/>
</a>
</g>
<text text-anchor="start" x="422.88" y="-356.82" font-family="Monospace" font-size="9.00"> </text>
<text text-anchor="start" x="491.38" y="-356.05" font-family="Monospace" font-size="11.00">metagol</text>
<text text-anchor="start" x="598.88" y="-356.82" font-family="Monospace" font-size="9.00"> </text>
<text text-anchor="start" x="422.88" y="-345.95" font-family="Monospace" font-size="9.00"> </text>
<text text-anchor="start" x="494.75" y="-347.48" font-family="Monospace" font-size="7.00">prototype</text>
<text text-anchor="start" x="598.88" y="-345.95" font-family="Monospace" font-size="9.00"> </text>
<text text-anchor="start" x="422.88" y="-336.95" font-family="Monospace" font-size="9.00"> </text>
<text text-anchor="start" x="422.88" y="-327.95" font-family="Monospace" font-size="9.00"> </text>
<text text-anchor="start" x="496.62" y="-327.95" font-family="Monospace" font-size="9.00">learn/3</text>
<text text-anchor="start" x="598.88" y="-327.95" font-family="Monospace" font-size="9.00"> </text>
<text text-anchor="start" x="422.88" y="-318.95" font-family="Monospace" font-size="9.00"> </text>
<text text-anchor="start" x="496.62" y="-318.95" font-family="Monospace" font-size="9.00">learn/2</text>
<text text-anchor="start" x="598.88" y="-318.95" font-family="Monospace" font-size="9.00"> </text>
<text text-anchor="start" x="422.88" y="-309.95" font-family="Monospace" font-size="9.00"> </text>
<text text-anchor="start" x="486.12" y="-309.95" font-family="Monospace" font-size="9.00">learn_seq/2</text>
<text text-anchor="start" x="598.88" y="-309.95" font-family="Monospace" font-size="9.00"> </text>
<text text-anchor="start" x="422.88" y="-300.95" font-family="Monospace" font-size="9.00"> </text>
<text text-anchor="start" x="462.5" y="-300.95" font-family="Monospace" font-size="9.00">learn_with_timeout/4</text>
<text text-anchor="start" x="598.88" y="-300.95" font-family="Monospace" font-size="9.00"> </text>
<text text-anchor="start" x="422.88" y="-291.95" font-family="Monospace" font-size="9.00"> </text>
<text text-anchor="start" x="462.5" y="-291.95" font-family="Monospace" font-size="9.00">program_to_clauses/2</text>
<text text-anchor="start" x="598.88" y="-291.95" font-family="Monospace" font-size="9.00"> </text>
<text text-anchor="start" x="422.88" y="-282.95" font-family="Monospace" font-size="9.00"> </text>
<text text-anchor="start" x="494" y="-282.95" font-family="Monospace" font-size="9.00">pprint/1</text>
<text text-anchor="start" x="598.88" y="-282.95" font-family="Monospace" font-size="9.00"> </text>
<text text-anchor="start" x="422.88" y="-273.95" font-family="Monospace" font-size="9.00"> </text>
<text text-anchor="start" x="488.75" y="-273.95" font-family="Monospace" font-size="9.00">metarule/6</text>
<text text-anchor="start" x="598.88" y="-273.95" font-family="Monospace" font-size="9.00"> </text>
<text text-anchor="start" x="422.88" y="-264.95" font-family="Monospace" font-size="9.00"> </text>
<text text-anchor="start" x="486.12" y="-264.95" font-family="Monospace" font-size="9.00">head_pred/1</text>
<text text-anchor="start" x="598.88" y="-264.95" font-family="Monospace" font-size="9.00"> </text>
<text text-anchor="start" x="422.88" y="-255.95" font-family="Monospace" font-size="9.00"> </text>
<text text-anchor="start" x="486.12" y="-255.95" font-family="Monospace" font-size="9.00">body_pred/1</text>
<text text-anchor="start" x="598.88" y="-255.95" font-family="Monospace" font-size="9.00"> </text>
<text text-anchor="start" x="422.88" y="-246.95" font-family="Monospace" font-size="9.00"> </text>
<text text-anchor="start" x="501.88" y="-246.95" font-family="Monospace" font-size="9.00">ibk/3</text>
<text text-anchor="start" x="598.88" y="-246.95" font-family="Monospace" font-size="9.00"> </text>
<text text-anchor="start" x="422.88" y="-237.95" font-family="Monospace" font-size="9.00"> </text>
<text text-anchor="start" x="486.12" y="-237.95" font-family="Monospace" font-size="9.00">func_test/3</text>
<text text-anchor="start" x="598.88" y="-237.95" font-family="Monospace" font-size="9.00"> </text>
<text text-anchor="start" x="422.88" y="-228.95" font-family="Monospace" font-size="9.00"> </text>
<text text-anchor="start" x="483.5" y="-228.95" font-family="Monospace" font-size="9.00">functional/0</text>
<text text-anchor="start" x="598.88" y="-228.95" font-family="Monospace" font-size="9.00"> </text>
<text text-anchor="start" x="422.88" y="-219.95" font-family="Monospace" font-size="9.00"> </text>
<text text-anchor="start" x="480.88" y="-219.95" font-family="Monospace" font-size="9.00">min_clauses/1</text>
<text text-anchor="start" x="598.88" y="-219.95" font-family="Monospace" font-size="9.00"> </text>
<text text-anchor="start" x="422.88" y="-210.95" font-family="Monospace" font-size="9.00"> </text>
<text text-anchor="start" x="480.88" y="-210.95" font-family="Monospace" font-size="9.00">max_clauses/1</text>
<text text-anchor="start" x="598.88" y="-210.95" font-family="Monospace" font-size="9.00"> </text>
<text text-anchor="start" x="422.88" y="-201.95" font-family="Monospace" font-size="9.00"> </text>
<text text-anchor="start" x="475.62" y="-201.95" font-family="Monospace" font-size="9.00">max_inv_preds/1</text>
<text text-anchor="start" x="598.88" y="-201.95" font-family="Monospace" font-size="9.00"> </text>
<text text-anchor="start" x="422.88" y="-192.95" font-family="Monospace" font-size="9.00"> </text>
<text text-anchor="start" x="467.75" y="-192.95" font-family="Monospace" font-size="9.00">metarule_next_id/1</text>
<text text-anchor="start" x="598.88" y="-192.95" font-family="Monospace" font-size="9.00"> </text>
<text text-anchor="start" x="422.88" y="-183.95" font-family="Monospace" font-size="9.00"> </text>
<text text-anchor="start" x="491.38" y="-183.95" font-family="Monospace" font-size="9.00">timeout/1</text>
<text text-anchor="start" x="598.88" y="-183.95" font-family="Monospace" font-size="9.00"> </text>
<text text-anchor="start" x="422.88" y="-174.95" font-family="Monospace" font-size="9.00"> </text>
<text text-anchor="start" x="446.75" y="-174.95" font-family="Monospace" font-size="9.00">logtalk::message_tokens//2</text>
<text text-anchor="start" x="598.88" y="-174.95" font-family="Monospace" font-size="9.00"> </text>
<text text-anchor="start" x="422.88" y="-165.95" font-family="Monospace" font-size="9.00"> </text>
<text text-anchor="start" x="431" y="-165.95" font-family="Monospace" font-size="9.00">logtalk::message_prefix_stream/4</text>
<text text-anchor="start" x="598.88" y="-165.95" font-family="Monospace" font-size="9.00"> </text>
</a>
</g>
</g>
<!-- expanding -->
<g id="node5" class="node">
<title>expanding</title>
<g id="a_node5"><a xlink:href="https://logtalk.org/library/expanding_0.html" xlink:title="https://logtalk.org/library/expanding_0.html">
<polygon fill="mediumaquamarine" stroke="black" stroke-dasharray="5,2" points="258,-499.25 162,-499.25 162,-463.25 264,-463.25 264,-493.25 258,-499.25"/>
<polyline fill="none" stroke="black" stroke-dasharray="5,2" points="258,-499.25 258,-493.25"/>
<polyline fill="none" stroke="black" stroke-dasharray="5,2" points="264,-493.25 258,-493.25"/>
<text text-anchor="start" x="169.88" y="-482.07" font-family="Monospace" font-size="9.00"> </text>
<text text-anchor="start" x="182.62" y="-481.3" font-family="Monospace" font-size="11.00">expanding</text>
<text text-anchor="start" x="250.88" y="-482.07" font-family="Monospace" font-size="9.00"> </text>
<text text-anchor="start" x="169.88" y="-471.2" font-family="Monospace" font-size="9.00"> </text>
<text text-anchor="start" x="174.75" y="-472.73" font-family="Monospace" font-size="7.00">built&#45;in protocol</text>
<text text-anchor="start" x="250.88" y="-471.2" font-family="Monospace" font-size="9.00"> </text>
</a>
</g>
</g>
<!-- metagol&#45;&gt;expanding -->
<g id="edge1" class="edge">
<title>metagol&#45;&gt;expanding</title>
<g id="a_edge1"><a xlink:href="https://logtalk.org/library/metagol_0.html" xlink:title="implements">
<path fill="none" stroke="black" d="M420.37,-381.81C412.48,-388.87 404.32,-395.53 396,-401.5 358.38,-428.49 310.06,-448.79 272.52,-462.01"/>
<ellipse fill="black" stroke="black" cx="268.45" cy="-463.42" rx="4" ry="4"/>
</a>
</g>
<g id="a_edge1&#45;label"><a xlink:href="https://logtalk.org/library/metagol_0.html" xlink:title="https://logtalk.org/library/metagol_0.html">
<text text-anchor="start" x="368" y="-418.7" font-family="Monospace" font-size="9.00">implements</text>
</a>
</g>
</g>
<!-- metagol_example_protocol -->
<g id="node3" class="node">
<title>metagol_example_protocol</title>
<g id="a_node3"><a xlink:href="https://logtalk.org/library/metagol_example_protocol_0.html" xlink:title="https://logtalk.org/library/metagol_example_protocol_0.html">
<polygon fill="aquamarine" stroke="black" points="376,-305 188,-305 188,-238 382,-238 382,-299 376,-305"/>
<polyline fill="none" stroke="black" points="376,-305 376,-299"/>
<polyline fill="none" stroke="black" points="382,-299 376,-299"/>
<g id="a_node3_10"><a xlink:href="metagol_example_protocol_protocol_xref_diagram.svg" xlink:title="Zoom">
<image xlink:href="zoom.png" width="11px" height="11px" preserveAspectRatio="xMinYMin meet" x="196" y="-301"/>
</a>
</g>
<text text-anchor="start" x="198.88" y="-280.32" font-family="Monospace" font-size="9.00"> </text>
<text text-anchor="start" x="207" y="-279.55" font-family="Monospace" font-size="11.00">metagol_example_protocol</text>
<text text-anchor="start" x="368.88" y="-280.32" font-family="Monospace" font-size="9.00"> </text>
<text text-anchor="start" x="198.88" y="-269.45" font-family="Monospace" font-size="9.00"> </text>
<text text-anchor="start" x="270" y="-270.98" font-family="Monospace" font-size="7.00">protocol</text>
<text text-anchor="start" x="368.88" y="-269.45" font-family="Monospace" font-size="9.00"> </text>
<text text-anchor="start" x="198.88" y="-260.45" font-family="Monospace" font-size="9.00"> </text>
<text text-anchor="start" x="198.88" y="-251.45" font-family="Monospace" font-size="9.00"> </text>
<text text-anchor="start" x="269.62" y="-251.45" font-family="Monospace" font-size="9.00">learn/1</text>
<text text-anchor="start" x="368.88" y="-251.45" font-family="Monospace" font-size="9.00"> </text>
<text text-anchor="start" x="198.88" y="-242.45" font-family="Monospace" font-size="9.00"> </text>
<text text-anchor="start" x="269.62" y="-242.45" font-family="Monospace" font-size="9.00">learn/0</text>
<text text-anchor="start" x="368.88" y="-242.45" font-family="Monospace" font-size="9.00"> </text>
</a>
</g>
</g>
<!-- toychrdb -->
<g id="node4" class="node">
<title>toychrdb</title>
<g id="a_node4"><a xlink:href="https://logtalk.org/library/toychrdb_0.html" xlink:title="https://logtalk.org/library/toychrdb_0.html">
<polygon fill="cornsilk" stroke="black" points="138,-327.5 38,-327.5 38,-215.5 138,-215.5 138,-327.5"/>
<g id="a_node4_11"><a xlink:href="toychrdb_object_xref_diagram.svg" xlink:title="Zoom">
<image xlink:href="zoom.png" width="11px" height="11px" preserveAspectRatio="xMinYMin meet" x="46" y="-323.5"/>
</a>
</g>
<text text-anchor="start" x="48.88" y="-302.82" font-family="Monospace" font-size="9.00"> </text>
<text text-anchor="start" x="64" y="-302.05" font-family="Monospace" font-size="11.00">toychrdb</text>
<text text-anchor="start" x="124.88" y="-302.82" font-family="Monospace" font-size="9.00"> </text>
<text text-anchor="start" x="48.88" y="-291.95" font-family="Monospace" font-size="9.00"> </text>
<text text-anchor="start" x="70.75" y="-293.48" font-family="Monospace" font-size="7.00">prototype</text>
<text text-anchor="start" x="124.88" y="-291.95" font-family="Monospace" font-size="9.00"> </text>
<text text-anchor="start" x="48.88" y="-282.95" font-family="Monospace" font-size="9.00"> </text>
<text text-anchor="start" x="48.88" y="-273.95" font-family="Monospace" font-size="9.00"> </text>
<text text-anchor="start" x="70" y="-273.95" font-family="Monospace" font-size="9.00">chr_is/2</text>
<text text-anchor="start" x="124.88" y="-273.95" font-family="Monospace" font-size="9.00"> </text>
<text text-anchor="start" x="48.88" y="-264.95" font-family="Monospace" font-size="9.00"> </text>
<text text-anchor="start" x="62.12" y="-264.95" font-family="Monospace" font-size="9.00">chr_trace/0</text>
<text text-anchor="start" x="124.88" y="-264.95" font-family="Monospace" font-size="9.00"> </text>
<text text-anchor="start" x="48.88" y="-255.95" font-family="Monospace" font-size="9.00"> </text>
<text text-anchor="start" x="56.88" y="-255.95" font-family="Monospace" font-size="9.00">chr_notrace/0</text>
<text text-anchor="start" x="124.88" y="-255.95" font-family="Monospace" font-size="9.00"> </text>
<text text-anchor="start" x="48.88" y="-246.95" font-family="Monospace" font-size="9.00"> </text>
<text text-anchor="start" x="67.38" y="-246.95" font-family="Monospace" font-size="9.00">chr_spy/1</text>
<text text-anchor="start" x="124.88" y="-246.95" font-family="Monospace" font-size="9.00"> </text>
<text text-anchor="start" x="48.88" y="-237.95" font-family="Monospace" font-size="9.00"> </text>
<text text-anchor="start" x="62.12" y="-237.95" font-family="Monospace" font-size="9.00">chr_nospy/0</text>
<text text-anchor="start" x="124.88" y="-237.95" font-family="Monospace" font-size="9.00"> </text>
<text text-anchor="start" x="48.88" y="-228.95" font-family="Monospace" font-size="9.00"> </text>
<text text-anchor="start" x="59.5" y="-228.95" font-family="Monospace" font-size="9.00">chr_no_spy/1</text>
<text text-anchor="start" x="124.88" y="-228.95" font-family="Monospace" font-size="9.00"> </text>
<text text-anchor="start" x="48.88" y="-219.95" font-family="Monospace" font-size="9.00"> </text>
<text text-anchor="start" x="59.5" y="-219.95" font-family="Monospace" font-size="9.00">chr_option/2</text>
<text text-anchor="start" x="124.88" y="-219.95" font-family="Monospace" font-size="9.00"> </text>
</a>
</g>
</g>
<!-- toychrdb&#45;&gt;expanding -->
<g id="edge2" class="edge">
<title>toychrdb&#45;&gt;expanding</title>
<g id="a_edge2"><a xlink:href="https://logtalk.org/library/toychrdb_0.html" xlink:title="implements">
<path fill="none" stroke="black" d="M121.33,-327.9C146.27,-369.34 179.19,-424.06 198.03,-455.37"/>
<ellipse fill="black" stroke="black" cx="200.19" cy="-458.95" rx="4" ry="4"/>
</a>
</g>
<g id="a_edge2&#45;label"><a xlink:href="https://logtalk.org/library/toychrdb_0.html" xlink:title="https://logtalk.org/library/toychrdb_0.html">
<text text-anchor="start" x="179" y="-418.7" font-family="Monospace" font-size="9.00">implements</text>
</a>
</g>
</g>
</g>
</svg>
