<?xml version="1.0" encoding="UTF-8" standalone="no"?>
<!DOCTYPE svg PUBLIC "-//W3C//DTD SVG 1.1//EN"
 "http://www.w3.org/Graphics/SVG/1.1/DTD/svg11.dtd">
<!-- Generated by graphviz version 2.40.1 (20161225.0304)
 -->
<!-- Title: ports Pages: 1 -->
<svg width="434pt" height="765pt"
 viewBox="72.00 72.00 362.00 693.00" xmlns="http://www.w3.org/2000/svg" xmlns:xlink="http://www.w3.org/1999/xlink">
<g id="graph0" class="graph" transform="scale(1 1) rotate(0) translate(76 689)">
<title>ports</title>
<polygon fill="#ffffff" stroke="transparent" points="-4,4 -4,-617 286,-617 286,4 -4,4"/>
<text text-anchor="start" x="8" y="-29" font-family="Courier,monospace" font-size="10.00" fill="#8b8989">Logtalk ports of third&#45;party software</text>
<text text-anchor="start" x="8" y="-18" font-family="Courier,monospace" font-size="10.00" fill="#8b8989">Inheritance diagram for library ports</text>
<text text-anchor="start" x="8" y="-7" font-family="Courier,monospace" font-size="10.00" fill="#8b8989">Generated on 2019/04/23, 18:56</text>
<g id="clust1" class="cluster">
<title>cluster_rlibrary_ports</title>
<g id="a_clust1"><a xlink:href="https://github.com/LogtalkDotOrg/logtalk3/tree/master/ports/" xlink:title="https://github.com/LogtalkDotOrg/logtalk3/tree/master/ports/">
<path fill="#d3d3d3" stroke="#8b8989" d="M20,-49C20,-49 262,-49 262,-49 268,-49 274,-55 274,-61 274,-61 274,-593 274,-593 274,-599 268,-605 262,-605 262,-605 20,-605 20,-605 14,-605 8,-599 8,-593 8,-593 8,-61 8,-61 8,-55 14,-49 20,-49"/>
<text text-anchor="middle" x="34.5" y="-56" font-family="Courier,monospace" font-size="10.00" fill="#8b8989">ports/</text>
</a>
</g>
</g>
<g id="clust4" class="cluster">
<title>cluster_library_metagol</title>
<g id="a_clust4"><a xlink:href="https://github.com/LogtalkDotOrg/logtalk3/tree/master/ports/metagol/" xlink:title="https://github.com/LogtalkDotOrg/logtalk3/tree/master/ports/metagol/">
<path fill="#f5f5f5" stroke="#8b8989" d="M30,-78C30,-78 252,-78 252,-78 258,-78 264,-84 264,-90 264,-90 264,-375 264,-375 264,-381 258,-387 252,-387 252,-387 30,-387 30,-387 24,-387 18,-381 18,-375 18,-375 18,-90 18,-90 18,-84 24,-78 30,-78"/>
<text text-anchor="middle" x="50.5" y="-85" font-family="Courier,monospace" font-size="10.00" fill="#8b8989">metagol/</text>
</a>
</g>
</g>
<g id="clust6" class="cluster">
<title>cluster_file_/Users/pmoura/logtalk/ports/metagol/metagol.lgt</title>
<g id="a_clust6"><a xlink:href="https://github.com/LogtalkDotOrg/logtalk3/tree/master/ports/metagol/metagol.lgt" xlink:title="https://github.com/LogtalkDotOrg/logtalk3/tree/master/ports/metagol/metagol.lgt">
<path fill="#fffafa" stroke="#8b8989" d="M40,-107C40,-107 242,-107 242,-107 248,-107 254,-113 254,-119 254,-119 254,-365 254,-365 254,-371 248,-377 242,-377 242,-377 40,-377 40,-377 34,-377 28,-371 28,-365 28,-365 28,-119 28,-119 28,-113 34,-107 40,-107"/>
<text text-anchor="middle" x="69.5" y="-114" font-family="Courier,monospace" font-size="10.00" fill="#8b8989">metagol.lgt</text>
</a>
</g>
</g>
<!-- metagol -->
<g id="node1" class="node">
<title>metagol</title>
<g id="a_node1"><a xlink:href="https://logtalk.org/library/metagol_0.html" xlink:title="https://logtalk.org/library/metagol_0.html">
<polygon fill="#fff8dc" stroke="#000000" points="244,-367 38,-367 38,-136 244,-136 244,-367"/>
<g id="a_node1_0"><a xlink:href="metagol_object_xref_diagram.svg" xlink:title="Zoom">
<image xlink:href="zoom.png" width="11px" height="11px" preserveAspectRatio="xMinYMin meet" x="46" y="-362.5"/>
</a>
</g>
<text text-anchor="start" x="48.5" y="-343.3" font-family="Courier,monospace" font-size="9.00" fill="#000000"> </text>
<text text-anchor="start" x="120" y="-342.7" font-family="Courier,monospace" font-size="11.00" fill="#000000">metagol</text>
<text text-anchor="start" x="230" y="-343.3" font-family="Courier,monospace" font-size="9.00" fill="#000000"> </text>
<text text-anchor="start" x="48.5" y="-332.3" font-family="Courier,monospace" font-size="9.00" fill="#000000"> </text>
<text text-anchor="start" x="124.5" y="-332.9" font-family="Courier,monospace" font-size="7.00" fill="#000000">prototype</text>
<text text-anchor="start" x="230" y="-332.3" font-family="Courier,monospace" font-size="9.00" fill="#000000"> </text>
<text text-anchor="start" x="48.5" y="-322.3" font-family="Courier,monospace" font-size="9.00" fill="#000000"> </text>
<text text-anchor="start" x="48.5" y="-312.3" font-family="Courier,monospace" font-size="9.00" fill="#000000"> </text>
<text text-anchor="start" x="124.5" y="-312.3" font-family="Courier,monospace" font-size="9.00" fill="#000000">learn/3</text>
<text text-anchor="start" x="230" y="-312.3" font-family="Courier,monospace" font-size="9.00" fill="#000000"> </text>
<text text-anchor="start" x="48.5" y="-302.3" font-family="Courier,monospace" font-size="9.00" fill="#000000"> </text>
<text text-anchor="start" x="124.5" y="-302.3" font-family="Courier,monospace" font-size="9.00" fill="#000000">learn/2</text>
<text text-anchor="start" x="230" y="-302.3" font-family="Courier,monospace" font-size="9.00" fill="#000000"> </text>
<text text-anchor="start" x="48.5" y="-292.3" font-family="Courier,monospace" font-size="9.00" fill="#000000"> </text>
<text text-anchor="start" x="113.5" y="-292.3" font-family="Courier,monospace" font-size="9.00" fill="#000000">learn_seq/2</text>
<text text-anchor="start" x="230" y="-292.3" font-family="Courier,monospace" font-size="9.00" fill="#000000"> </text>
<text text-anchor="start" x="48.5" y="-282.3" font-family="Courier,monospace" font-size="9.00" fill="#000000"> </text>
<text text-anchor="start" x="116" y="-282.3" font-family="Courier,monospace" font-size="9.00" fill="#000000">pclauses/2</text>
<text text-anchor="start" x="230" y="-282.3" font-family="Courier,monospace" font-size="9.00" fill="#000000"> </text>
<text text-anchor="start" x="48.5" y="-272.3" font-family="Courier,monospace" font-size="9.00" fill="#000000"> </text>
<text text-anchor="start" x="121.5" y="-272.3" font-family="Courier,monospace" font-size="9.00" fill="#000000">pprint/1</text>
<text text-anchor="start" x="230" y="-272.3" font-family="Courier,monospace" font-size="9.00" fill="#000000"> </text>
<text text-anchor="start" x="48.5" y="-262.3" font-family="Courier,monospace" font-size="9.00" fill="#000000"> </text>
<text text-anchor="start" x="116" y="-262.3" font-family="Courier,monospace" font-size="9.00" fill="#000000">metarule/8</text>
<text text-anchor="start" x="230" y="-262.3" font-family="Courier,monospace" font-size="9.00" fill="#000000"> </text>
<text text-anchor="start" x="48.5" y="-252.3" font-family="Courier,monospace" font-size="9.00" fill="#000000"> </text>
<text text-anchor="start" x="102.5" y="-252.3" font-family="Courier,monospace" font-size="9.00" fill="#000000">metarule_init/7</text>
<text text-anchor="start" x="230" y="-252.3" font-family="Courier,monospace" font-size="9.00" fill="#000000"> </text>
<text text-anchor="start" x="48.5" y="-242.3" font-family="Courier,monospace" font-size="9.00" fill="#000000"> </text>
<text text-anchor="start" x="127" y="-242.3" font-family="Courier,monospace" font-size="9.00" fill="#000000">prim/1</text>
<text text-anchor="start" x="230" y="-242.3" font-family="Courier,monospace" font-size="9.00" fill="#000000"> </text>
<text text-anchor="start" x="48.5" y="-232.3" font-family="Courier,monospace" font-size="9.00" fill="#000000"> </text>
<text text-anchor="start" x="116" y="-232.3" font-family="Courier,monospace" font-size="9.00" fill="#000000">primcall/2</text>
<text text-anchor="start" x="230" y="-232.3" font-family="Courier,monospace" font-size="9.00" fill="#000000"> </text>
<text text-anchor="start" x="48.5" y="-222.3" font-family="Courier,monospace" font-size="9.00" fill="#000000"> </text>
<text text-anchor="start" x="129.5" y="-222.3" font-family="Courier,monospace" font-size="9.00" fill="#000000">ibk/3</text>
<text text-anchor="start" x="230" y="-222.3" font-family="Courier,monospace" font-size="9.00" fill="#000000"> </text>
<text text-anchor="start" x="48.5" y="-212.3" font-family="Courier,monospace" font-size="9.00" fill="#000000"> </text>
<text text-anchor="start" x="111" y="-212.3" font-family="Courier,monospace" font-size="9.00" fill="#000000">functional/0</text>
<text text-anchor="start" x="230" y="-212.3" font-family="Courier,monospace" font-size="9.00" fill="#000000"> </text>
<text text-anchor="start" x="48.5" y="-202.3" font-family="Courier,monospace" font-size="9.00" fill="#000000"> </text>
<text text-anchor="start" x="100" y="-202.3" font-family="Courier,monospace" font-size="9.00" fill="#000000">unfold_program/0</text>
<text text-anchor="start" x="230" y="-202.3" font-family="Courier,monospace" font-size="9.00" fill="#000000"> </text>
<text text-anchor="start" x="48.5" y="-192.3" font-family="Courier,monospace" font-size="9.00" fill="#000000"> </text>
<text text-anchor="start" x="108" y="-192.3" font-family="Courier,monospace" font-size="9.00" fill="#000000">min_clauses/1</text>
<text text-anchor="start" x="230" y="-192.3" font-family="Courier,monospace" font-size="9.00" fill="#000000"> </text>
<text text-anchor="start" x="48.5" y="-182.3" font-family="Courier,monospace" font-size="9.00" fill="#000000"> </text>
<text text-anchor="start" x="108" y="-182.3" font-family="Courier,monospace" font-size="9.00" fill="#000000">max_clauses/1</text>
<text text-anchor="start" x="230" y="-182.3" font-family="Courier,monospace" font-size="9.00" fill="#000000"> </text>
<text text-anchor="start" x="48.5" y="-172.3" font-family="Courier,monospace" font-size="9.00" fill="#000000"> </text>
<text text-anchor="start" x="102.5" y="-172.3" font-family="Courier,monospace" font-size="9.00" fill="#000000">max_inv_preds/1</text>
<text text-anchor="start" x="230" y="-172.3" font-family="Courier,monospace" font-size="9.00" fill="#000000"> </text>
<text text-anchor="start" x="48.5" y="-162.3" font-family="Courier,monospace" font-size="9.00" fill="#000000"> </text>
<text text-anchor="start" x="94.5" y="-162.3" font-family="Courier,monospace" font-size="9.00" fill="#000000">metarule_next_id/1</text>
<text text-anchor="start" x="230" y="-162.3" font-family="Courier,monospace" font-size="9.00" fill="#000000"> </text>
<text text-anchor="start" x="48.5" y="-152.3" font-family="Courier,monospace" font-size="9.00" fill="#000000"> </text>
<text text-anchor="start" x="73" y="-152.3" font-family="Courier,monospace" font-size="9.00" fill="#000000">logtalk::message_tokens//2</text>
<text text-anchor="start" x="230" y="-152.3" font-family="Courier,monospace" font-size="9.00" fill="#000000"> </text>
<text text-anchor="start" x="48.5" y="-142.3" font-family="Courier,monospace" font-size="9.00" fill="#000000"> </text>
<text text-anchor="start" x="57" y="-142.3" font-family="Courier,monospace" font-size="9.00" fill="#000000">logtalk::message_prefix_stream/4</text>
<text text-anchor="start" x="230" y="-142.3" font-family="Courier,monospace" font-size="9.00" fill="#000000"> </text>
</a>
</g>
</g>
<!-- expanding -->
<g id="node2" class="node">
<title>expanding</title>
<g id="a_node2"><a xlink:title="built&#45;in protocol">
<polygon fill="#66cdaa" stroke="#000000" stroke-dasharray="5,2" points="185,-595 91,-595 91,-559 191,-559 191,-589 185,-595"/>
<polyline fill="none" stroke="#000000" stroke-dasharray="5,2" points="185,-595 185,-589 "/>
<polyline fill="none" stroke="#000000" stroke-dasharray="5,2" points="191,-589 185,-589 "/>
<text text-anchor="start" x="99" y="-579.8" font-family="Courier,monospace" font-size="9.00" fill="#000000"> </text>
<text text-anchor="start" x="111" y="-579.2" font-family="Courier,monospace" font-size="11.00" fill="#000000">expanding</text>
<text text-anchor="start" x="177" y="-579.8" font-family="Courier,monospace" font-size="9.00" fill="#000000"> </text>
<text text-anchor="start" x="99" y="-568.8" font-family="Courier,monospace" font-size="9.00" fill="#000000"> </text>
<text text-anchor="start" x="105" y="-569.4" font-family="Courier,monospace" font-size="7.00" fill="#000000">built&#45;in protocol</text>
<text text-anchor="start" x="177" y="-568.8" font-family="Courier,monospace" font-size="9.00" fill="#000000"> </text>
</a>
</g>
</g>
<!-- metagol&#45;&gt;expanding -->
<g id="edge1" class="edge">
<title>metagol&#45;&gt;expanding</title>
<g id="a_edge1"><a xlink:href="https://logtalk.org/library/metagol_0.html" xlink:title="implements">
<path fill="none" stroke="#000000" d="M141,-367.1756C141,-433.2599 141,-510.6737 141,-550.4411"/>
<ellipse fill="#000000" stroke="#000000" cx="141" cy="-554.7967" rx="4" ry="4"/>
</a>
</g>
<g id="a_edge1&#45;label"><a xlink:href="https://logtalk.org/library/metagol_0.html" xlink:title="https://logtalk.org/library/metagol_0.html">
<text text-anchor="start" x="141" y="-460.8" font-family="Courier,monospace" font-size="9.00" fill="#000000">implements</text>
</a>
</g>
</g>
</g>
</svg>
