<?xml version="1.0" encoding="UTF-8" standalone="no"?>
<!DOCTYPE svg PUBLIC "-//W3C//DTD SVG 1.1//EN"
 "http://www.w3.org/Graphics/SVG/1.1/DTD/svg11.dtd">
<!-- Generated by graphviz version 2.40.1 (20161225.0304)
 -->
<!-- Title: ports Pages: 1 -->
<svg width="434pt" height="789pt"
 viewBox="72.00 72.00 362.00 717.00" xmlns="http://www.w3.org/2000/svg" xmlns:xlink="http://www.w3.org/1999/xlink">
<g id="graph0" class="graph" transform="scale(1 1) rotate(0) translate(76 713)">
<title>ports</title>
<polygon fill="#ffffff" stroke="transparent" points="-4,4 -4,-641 286,-641 286,4 -4,4"/>
<text text-anchor="start" x="8" y="-29" font-family="Courier,monospace" font-size="10.00" fill="#8b8989">Logtalk ports of third&#45;party software</text>
<text text-anchor="start" x="8" y="-18" font-family="Courier,monospace" font-size="10.00" fill="#8b8989">Inheritance diagram for library ports</text>
<text text-anchor="start" x="8" y="-7" font-family="Courier,monospace" font-size="10.00" fill="#8b8989">Generated on 2019/04/24, 17:58</text>
<g id="clust1" class="cluster">
<title>cluster_rlibrary_ports</title>
<path fill="#d3d3d3" stroke="#8b8989" d="M20,-49C20,-49 262,-49 262,-49 268,-49 274,-55 274,-61 274,-61 274,-617 274,-617 274,-623 268,-629 262,-629 262,-629 20,-629 20,-629 14,-629 8,-623 8,-617 8,-617 8,-61 8,-61 8,-55 14,-49 20,-49"/>
<g id="a_clust1_0"><a xlink:href="https://github.com/LogtalkDotOrg/logtalk3/tree/master/ports/" xlink:title="https://github.com/LogtalkDotOrg/logtalk3/tree/master/ports/">
<text text-anchor="start" x="20.5" y="-59.5" font-family="Courier,monospace" font-size="10.00" fill="#8b8989">ports/</text>
</a>
</g>
</g>
<g id="clust4" class="cluster">
<title>cluster_library_metagol</title>
<path fill="#f5f5f5" stroke="#8b8989" d="M30,-86C30,-86 252,-86 252,-86 258,-86 264,-92 264,-98 264,-98 264,-399 264,-399 264,-405 258,-411 252,-411 252,-411 30,-411 30,-411 24,-411 18,-405 18,-399 18,-399 18,-98 18,-98 18,-92 24,-86 30,-86"/>
<g id="a_clust4_1"><a xlink:href="https://github.com/LogtalkDotOrg/logtalk3/tree/master/ports/metagol/" xlink:title="https://github.com/LogtalkDotOrg/logtalk3/tree/master/ports/metagol/">
<text text-anchor="start" x="30.5" y="-96.5" font-family="Courier,monospace" font-size="10.00" fill="#8b8989">metagol/</text>
</a>
</g>
</g>
<g id="clust6" class="cluster">
<title>cluster_file_/Users/pmoura/logtalk/ports/metagol/metagol.lgt</title>
<path fill="#fffafa" stroke="#8b8989" d="M40,-123C40,-123 242,-123 242,-123 248,-123 254,-129 254,-135 254,-135 254,-389 254,-389 254,-395 248,-401 242,-401 242,-401 40,-401 40,-401 34,-401 28,-395 28,-389 28,-389 28,-135 28,-135 28,-129 34,-123 40,-123"/>
<g id="a_clust6_2"><a xlink:href="https://github.com/LogtalkDotOrg/logtalk3/tree/master/ports/metagol/metagol.lgt" xlink:title="https://github.com/LogtalkDotOrg/logtalk3/tree/master/ports/metagol/metagol.lgt">
<text text-anchor="start" x="40.5" y="-133.5" font-family="Courier,monospace" font-size="10.00" fill="#8b8989">metagol.lgt</text>
</a>
</g>
</g>
<!-- metagol -->
<g id="node1" class="node">
<title>metagol</title>
<g id="a_node1"><a xlink:href="https://logtalk.org/library/metagol_0.html" xlink:title="https://logtalk.org/library/metagol_0.html">
<polygon fill="#fff8dc" stroke="#000000" points="244,-391 38,-391 38,-160 244,-160 244,-391"/>
<g id="a_node1_3"><a xlink:href="metagol_object_xref_diagram.svg" xlink:title="Zoom">
<image xlink:href="zoom.png" width="11px" height="11px" preserveAspectRatio="xMinYMin meet" x="46" y="-386.5"/>
</a>
</g>
<text text-anchor="start" x="48.5" y="-367.3" font-family="Courier,monospace" font-size="9.00" fill="#000000"> </text>
<text text-anchor="start" x="120" y="-366.7" font-family="Courier,monospace" font-size="11.00" fill="#000000">metagol</text>
<text text-anchor="start" x="230" y="-367.3" font-family="Courier,monospace" font-size="9.00" fill="#000000"> </text>
<text text-anchor="start" x="48.5" y="-356.3" font-family="Courier,monospace" font-size="9.00" fill="#000000"> </text>
<text text-anchor="start" x="124.5" y="-356.9" font-family="Courier,monospace" font-size="7.00" fill="#000000">prototype</text>
<text text-anchor="start" x="230" y="-356.3" font-family="Courier,monospace" font-size="9.00" fill="#000000"> </text>
<text text-anchor="start" x="48.5" y="-346.3" font-family="Courier,monospace" font-size="9.00" fill="#000000"> </text>
<text text-anchor="start" x="48.5" y="-336.3" font-family="Courier,monospace" font-size="9.00" fill="#000000"> </text>
<text text-anchor="start" x="124.5" y="-336.3" font-family="Courier,monospace" font-size="9.00" fill="#000000">learn/3</text>
<text text-anchor="start" x="230" y="-336.3" font-family="Courier,monospace" font-size="9.00" fill="#000000"> </text>
<text text-anchor="start" x="48.5" y="-326.3" font-family="Courier,monospace" font-size="9.00" fill="#000000"> </text>
<text text-anchor="start" x="124.5" y="-326.3" font-family="Courier,monospace" font-size="9.00" fill="#000000">learn/2</text>
<text text-anchor="start" x="230" y="-326.3" font-family="Courier,monospace" font-size="9.00" fill="#000000"> </text>
<text text-anchor="start" x="48.5" y="-316.3" font-family="Courier,monospace" font-size="9.00" fill="#000000"> </text>
<text text-anchor="start" x="113.5" y="-316.3" font-family="Courier,monospace" font-size="9.00" fill="#000000">learn_seq/2</text>
<text text-anchor="start" x="230" y="-316.3" font-family="Courier,monospace" font-size="9.00" fill="#000000"> </text>
<text text-anchor="start" x="48.5" y="-306.3" font-family="Courier,monospace" font-size="9.00" fill="#000000"> </text>
<text text-anchor="start" x="116" y="-306.3" font-family="Courier,monospace" font-size="9.00" fill="#000000">pclauses/2</text>
<text text-anchor="start" x="230" y="-306.3" font-family="Courier,monospace" font-size="9.00" fill="#000000"> </text>
<text text-anchor="start" x="48.5" y="-296.3" font-family="Courier,monospace" font-size="9.00" fill="#000000"> </text>
<text text-anchor="start" x="121.5" y="-296.3" font-family="Courier,monospace" font-size="9.00" fill="#000000">pprint/1</text>
<text text-anchor="start" x="230" y="-296.3" font-family="Courier,monospace" font-size="9.00" fill="#000000"> </text>
<text text-anchor="start" x="48.5" y="-286.3" font-family="Courier,monospace" font-size="9.00" fill="#000000"> </text>
<text text-anchor="start" x="116" y="-286.3" font-family="Courier,monospace" font-size="9.00" fill="#000000">metarule/8</text>
<text text-anchor="start" x="230" y="-286.3" font-family="Courier,monospace" font-size="9.00" fill="#000000"> </text>
<text text-anchor="start" x="48.5" y="-276.3" font-family="Courier,monospace" font-size="9.00" fill="#000000"> </text>
<text text-anchor="start" x="102.5" y="-276.3" font-family="Courier,monospace" font-size="9.00" fill="#000000">metarule_init/7</text>
<text text-anchor="start" x="230" y="-276.3" font-family="Courier,monospace" font-size="9.00" fill="#000000"> </text>
<text text-anchor="start" x="48.5" y="-266.3" font-family="Courier,monospace" font-size="9.00" fill="#000000"> </text>
<text text-anchor="start" x="127" y="-266.3" font-family="Courier,monospace" font-size="9.00" fill="#000000">prim/1</text>
<text text-anchor="start" x="230" y="-266.3" font-family="Courier,monospace" font-size="9.00" fill="#000000"> </text>
<text text-anchor="start" x="48.5" y="-256.3" font-family="Courier,monospace" font-size="9.00" fill="#000000"> </text>
<text text-anchor="start" x="116" y="-256.3" font-family="Courier,monospace" font-size="9.00" fill="#000000">primcall/2</text>
<text text-anchor="start" x="230" y="-256.3" font-family="Courier,monospace" font-size="9.00" fill="#000000"> </text>
<text text-anchor="start" x="48.5" y="-246.3" font-family="Courier,monospace" font-size="9.00" fill="#000000"> </text>
<text text-anchor="start" x="129.5" y="-246.3" font-family="Courier,monospace" font-size="9.00" fill="#000000">ibk/3</text>
<text text-anchor="start" x="230" y="-246.3" font-family="Courier,monospace" font-size="9.00" fill="#000000"> </text>
<text text-anchor="start" x="48.5" y="-236.3" font-family="Courier,monospace" font-size="9.00" fill="#000000"> </text>
<text text-anchor="start" x="111" y="-236.3" font-family="Courier,monospace" font-size="9.00" fill="#000000">functional/0</text>
<text text-anchor="start" x="230" y="-236.3" font-family="Courier,monospace" font-size="9.00" fill="#000000"> </text>
<text text-anchor="start" x="48.5" y="-226.3" font-family="Courier,monospace" font-size="9.00" fill="#000000"> </text>
<text text-anchor="start" x="100" y="-226.3" font-family="Courier,monospace" font-size="9.00" fill="#000000">unfold_program/0</text>
<text text-anchor="start" x="230" y="-226.3" font-family="Courier,monospace" font-size="9.00" fill="#000000"> </text>
<text text-anchor="start" x="48.5" y="-216.3" font-family="Courier,monospace" font-size="9.00" fill="#000000"> </text>
<text text-anchor="start" x="108" y="-216.3" font-family="Courier,monospace" font-size="9.00" fill="#000000">min_clauses/1</text>
<text text-anchor="start" x="230" y="-216.3" font-family="Courier,monospace" font-size="9.00" fill="#000000"> </text>
<text text-anchor="start" x="48.5" y="-206.3" font-family="Courier,monospace" font-size="9.00" fill="#000000"> </text>
<text text-anchor="start" x="108" y="-206.3" font-family="Courier,monospace" font-size="9.00" fill="#000000">max_clauses/1</text>
<text text-anchor="start" x="230" y="-206.3" font-family="Courier,monospace" font-size="9.00" fill="#000000"> </text>
<text text-anchor="start" x="48.5" y="-196.3" font-family="Courier,monospace" font-size="9.00" fill="#000000"> </text>
<text text-anchor="start" x="102.5" y="-196.3" font-family="Courier,monospace" font-size="9.00" fill="#000000">max_inv_preds/1</text>
<text text-anchor="start" x="230" y="-196.3" font-family="Courier,monospace" font-size="9.00" fill="#000000"> </text>
<text text-anchor="start" x="48.5" y="-186.3" font-family="Courier,monospace" font-size="9.00" fill="#000000"> </text>
<text text-anchor="start" x="94.5" y="-186.3" font-family="Courier,monospace" font-size="9.00" fill="#000000">metarule_next_id/1</text>
<text text-anchor="start" x="230" y="-186.3" font-family="Courier,monospace" font-size="9.00" fill="#000000"> </text>
<text text-anchor="start" x="48.5" y="-176.3" font-family="Courier,monospace" font-size="9.00" fill="#000000"> </text>
<text text-anchor="start" x="73" y="-176.3" font-family="Courier,monospace" font-size="9.00" fill="#000000">logtalk::message_tokens//2</text>
<text text-anchor="start" x="230" y="-176.3" font-family="Courier,monospace" font-size="9.00" fill="#000000"> </text>
<text text-anchor="start" x="48.5" y="-166.3" font-family="Courier,monospace" font-size="9.00" fill="#000000"> </text>
<text text-anchor="start" x="57" y="-166.3" font-family="Courier,monospace" font-size="9.00" fill="#000000">logtalk::message_prefix_stream/4</text>
<text text-anchor="start" x="230" y="-166.3" font-family="Courier,monospace" font-size="9.00" fill="#000000"> </text>
</a>
</g>
</g>
<!-- expanding -->
<g id="node2" class="node">
<title>expanding</title>
<g id="a_node2"><a xlink:title="built&#45;in protocol">
<polygon fill="#66cdaa" stroke="#000000" stroke-dasharray="5,2" points="185,-619 91,-619 91,-583 191,-583 191,-613 185,-619"/>
<polyline fill="none" stroke="#000000" stroke-dasharray="5,2" points="185,-619 185,-613 "/>
<polyline fill="none" stroke="#000000" stroke-dasharray="5,2" points="191,-613 185,-613 "/>
<text text-anchor="start" x="99" y="-603.8" font-family="Courier,monospace" font-size="9.00" fill="#000000"> </text>
<text text-anchor="start" x="111" y="-603.2" font-family="Courier,monospace" font-size="11.00" fill="#000000">expanding</text>
<text text-anchor="start" x="177" y="-603.8" font-family="Courier,monospace" font-size="9.00" fill="#000000"> </text>
<text text-anchor="start" x="99" y="-592.8" font-family="Courier,monospace" font-size="9.00" fill="#000000"> </text>
<text text-anchor="start" x="105" y="-593.4" font-family="Courier,monospace" font-size="7.00" fill="#000000">built&#45;in protocol</text>
<text text-anchor="start" x="177" y="-592.8" font-family="Courier,monospace" font-size="9.00" fill="#000000"> </text>
</a>
</g>
</g>
<!-- metagol&#45;&gt;expanding -->
<g id="edge1" class="edge">
<title>metagol&#45;&gt;expanding</title>
<g id="a_edge1"><a xlink:href="https://logtalk.org/library/metagol_0.html" xlink:title="implements">
<path fill="none" stroke="#000000" d="M141,-391.1756C141,-457.2599 141,-534.6737 141,-574.4411"/>
<ellipse fill="#000000" stroke="#000000" cx="141" cy="-578.7967" rx="4" ry="4"/>
</a>
</g>
<g id="a_edge1&#45;label"><a xlink:href="https://logtalk.org/library/metagol_0.html" xlink:title="https://logtalk.org/library/metagol_0.html">
<text text-anchor="start" x="141" y="-484.8" font-family="Courier,monospace" font-size="9.00" fill="#000000">implements</text>
</a>
</g>
</g>
</g>
</svg>
