<?xml version="1.0" encoding="UTF-8" standalone="no"?>
<?xml-stylesheet href="diagrams.css" type="text/css"?>
<!DOCTYPE svg PUBLIC "-//W3C//DTD SVG 1.1//EN"
 "http://www.w3.org/Graphics/SVG/1.1/DTD/svg11.dtd">
<!-- Generated by graphviz version 2.49.4~dev.20211124.1647 (20211124.1647)
 -->
<!-- Title: ports Pages: 1 -->
<svg width="742pt" height="689pt"
 viewBox="72.00 72.00 670.00 617.00" xmlns="http://www.w3.org/2000/svg" xmlns:xlink="http://www.w3.org/1999/xlink">
<g id="graph0" class="graph" transform="scale(1 1) rotate(0) translate(76 613)">
<title>ports</title>
<polygon fill="white" stroke="transparent" points="-4,4 -4,-541 594,-541 594,4 -4,4"/>
<text text-anchor="start" x="8" y="-29" font-family="Courier,monospace" font-size="10.00" fill="dimgray">Logtalk ports of third&#45;party software</text>
<text text-anchor="start" x="8" y="-18" font-family="Courier,monospace" font-size="10.00" fill="dimgray">Inheritance diagram for library ports</text>
<text text-anchor="start" x="8" y="-7" font-family="Courier,monospace" font-size="10.00" fill="dimgray">Generated on 2021&#45;11&#45;24, 21:25</text>
<g id="clust1" class="cluster">
<title>cluster_rlibrary_ports</title>
<g id="a_clust1"><a xlink:title="ports/">
<path fill="lightgray" stroke="dimgray" d="M20,-49C20,-49 570,-49 570,-49 576,-49 582,-55 582,-61 582,-61 582,-517 582,-517 582,-523 576,-529 570,-529 570,-529 20,-529 20,-529 14,-529 8,-523 8,-517 8,-517 8,-61 8,-61 8,-55 14,-49 20,-49"/>
<g id="a_clust1_0"><a xlink:href="https://github.com/LogtalkDotOrg/logtalk3/tree/1450dd2e30cbc83199a0162ba485cb2893d77c37/ports/" xlink:title="https://github.com/LogtalkDotOrg/logtalk3/tree/1450dd2e30cbc83199a0162ba485cb2893d77c37/ports/">
<text text-anchor="start" x="20" y="-59.5" font-family="Courier,monospace" font-size="10.00" fill="dimgray">ports/</text>
</a>
</g>
</a>
</g>
</g>
<g id="clust4" class="cluster">
<title>cluster_library_metagol</title>
<g id="a_clust4"><a xlink:title="metagol/">
<path fill="whitesmoke" stroke="dimgray" d="M172,-86C172,-86 560,-86 560,-86 566,-86 572,-92 572,-98 572,-98 572,-409 572,-409 572,-415 566,-421 560,-421 560,-421 172,-421 172,-421 166,-421 160,-415 160,-409 160,-409 160,-98 160,-98 160,-92 166,-86 172,-86"/>
<g id="a_clust4_1"><a xlink:href="https://github.com/LogtalkDotOrg/logtalk3/tree/1450dd2e30cbc83199a0162ba485cb2893d77c37/ports/metagol/" xlink:title="https://github.com/LogtalkDotOrg/logtalk3/tree/1450dd2e30cbc83199a0162ba485cb2893d77c37/ports/metagol/">
<text text-anchor="start" x="172" y="-96.5" font-family="Courier,monospace" font-size="10.00" fill="dimgray">metagol/</text>
</a>
</g>
</a>
</g>
</g>
<g id="clust7" class="cluster">
<title>cluster_file_/Users/pmoura/logtalk/ports/metagol/metagol_example_protocol.lgt</title>
<g id="a_clust7"><a xlink:title="metagol_example_protocol.lgt">
<path fill="snow" stroke="dimgray" d="M390,-208C390,-208 550,-208 550,-208 556,-208 562,-214 562,-220 562,-220 562,-314 562,-314 562,-320 556,-326 550,-326 550,-326 390,-326 390,-326 384,-326 378,-320 378,-314 378,-314 378,-220 378,-220 378,-214 384,-208 390,-208"/>
<g id="a_clust7_2"><a xlink:href="https://github.com/LogtalkDotOrg/logtalk3/tree/1450dd2e30cbc83199a0162ba485cb2893d77c37/ports/metagol/metagol_example_protocol.lgt" xlink:title="https://github.com/LogtalkDotOrg/logtalk3/tree/1450dd2e30cbc83199a0162ba485cb2893d77c37/ports/metagol/metagol_example_protocol.lgt">
<text text-anchor="start" x="390" y="-218.5" font-family="Courier,monospace" font-size="10.00" fill="dimgray">metagol_example_protocol.lgt</text>
</a>
</g>
</a>
</g>
</g>
<g id="clust6" class="cluster">
<title>cluster_file_/Users/pmoura/logtalk/ports/metagol/metagol.lgt</title>
<g id="a_clust6"><a xlink:title="metagol.lgt">
<path fill="snow" stroke="dimgray" d="M182,-123C182,-123 356,-123 356,-123 362,-123 368,-129 368,-135 368,-135 368,-399 368,-399 368,-405 362,-411 356,-411 356,-411 182,-411 182,-411 176,-411 170,-405 170,-399 170,-399 170,-135 170,-135 170,-129 176,-123 182,-123"/>
<g id="a_clust6_3"><a xlink:href="https://github.com/LogtalkDotOrg/logtalk3/tree/1450dd2e30cbc83199a0162ba485cb2893d77c37/ports/metagol/metagol.lgt" xlink:title="https://github.com/LogtalkDotOrg/logtalk3/tree/1450dd2e30cbc83199a0162ba485cb2893d77c37/ports/metagol/metagol.lgt">
<text text-anchor="start" x="182.5" y="-133.5" font-family="Courier,monospace" font-size="10.00" fill="dimgray">metagol.lgt</text>
</a>
</g>
</a>
</g>
</g>
<g id="clust8" class="cluster">
<title>cluster_library_toychr</title>
<g id="a_clust8"><a xlink:title="toychr/">
<path fill="whitesmoke" stroke="dimgray" d="M30,-146C30,-146 138,-146 138,-146 144,-146 150,-152 150,-158 150,-158 150,-349 150,-349 150,-355 144,-361 138,-361 138,-361 30,-361 30,-361 24,-361 18,-355 18,-349 18,-349 18,-158 18,-158 18,-152 24,-146 30,-146"/>
<g id="a_clust8_4"><a xlink:href="https://github.com/LogtalkDotOrg/logtalk3/tree/1450dd2e30cbc83199a0162ba485cb2893d77c37/ports/toychr/" xlink:title="https://github.com/LogtalkDotOrg/logtalk3/tree/1450dd2e30cbc83199a0162ba485cb2893d77c37/ports/toychr/">
<text text-anchor="start" x="30.5" y="-156.5" font-family="Courier,monospace" font-size="10.00" fill="dimgray">toychr/</text>
</a>
</g>
</a>
</g>
</g>
<g id="clust10" class="cluster">
<title>cluster_file_/Users/pmoura/logtalk/ports/toychr/toychrdb.lgt</title>
<g id="a_clust10"><a xlink:title="toychrdb.lgt">
<path fill="snow" stroke="dimgray" d="M40,-183C40,-183 128,-183 128,-183 134,-183 140,-189 140,-195 140,-195 140,-339 140,-339 140,-345 134,-351 128,-351 128,-351 40,-351 40,-351 34,-351 28,-345 28,-339 28,-339 28,-195 28,-195 28,-189 34,-183 40,-183"/>
<g id="a_clust10_5"><a xlink:href="https://github.com/LogtalkDotOrg/logtalk3/tree/1450dd2e30cbc83199a0162ba485cb2893d77c37/ports/toychr/toychrdb.lgt" xlink:title="https://github.com/LogtalkDotOrg/logtalk3/tree/1450dd2e30cbc83199a0162ba485cb2893d77c37/ports/toychr/toychrdb.lgt">
<text text-anchor="start" x="40" y="-193.5" font-family="Courier,monospace" font-size="10.00" fill="dimgray">toychrdb.lgt</text>
</a>
</g>
</a>
</g>
</g>
<!-- metagol -->
<g id="node1" class="node">
<title>metagol</title>
<g id="a_node1"><a xlink:href="https://logtalk.org/library/metagol_0.html" xlink:title="https://logtalk.org/library/metagol_0.html">
<polygon fill="cornsilk" stroke="black" points="357.5,-401 180.5,-401 180.5,-160 357.5,-160 357.5,-401"/>
<g id="a_node1_6"><a xlink:href="metagol_object_xref_diagram.svg" xlink:title="Zoom">
<image xlink:href="zoom.png" width="11px" height="11px" preserveAspectRatio="xMinYMin meet" x="189" y="-396.5"/>
</a>
</g>
<text text-anchor="start" x="192" y="-377.3" font-family="Courier,monospace" font-size="9.00"> </text>
<text text-anchor="start" x="253" y="-376.7" font-family="Courier,monospace" font-size="11.00">metagol</text>
<text text-anchor="start" x="345" y="-377.3" font-family="Courier,monospace" font-size="9.00"> </text>
<text text-anchor="start" x="192" y="-366.3" font-family="Courier,monospace" font-size="9.00"> </text>
<text text-anchor="start" x="256.5" y="-366.9" font-family="Courier,monospace" font-size="7.00">prototype</text>
<text text-anchor="start" x="345" y="-366.3" font-family="Courier,monospace" font-size="9.00"> </text>
<text text-anchor="start" x="192" y="-356.3" font-family="Courier,monospace" font-size="9.00"> </text>
<text text-anchor="start" x="192" y="-346.3" font-family="Courier,monospace" font-size="9.00"> </text>
<text text-anchor="start" x="256.5" y="-346.3" font-family="Courier,monospace" font-size="9.00">learn/3</text>
<text text-anchor="start" x="345" y="-346.3" font-family="Courier,monospace" font-size="9.00"> </text>
<text text-anchor="start" x="192" y="-336.3" font-family="Courier,monospace" font-size="9.00"> </text>
<text text-anchor="start" x="256.5" y="-336.3" font-family="Courier,monospace" font-size="9.00">learn/2</text>
<text text-anchor="start" x="345" y="-336.3" font-family="Courier,monospace" font-size="9.00"> </text>
<text text-anchor="start" x="192" y="-326.3" font-family="Courier,monospace" font-size="9.00"> </text>
<text text-anchor="start" x="247.5" y="-326.3" font-family="Courier,monospace" font-size="9.00">learn_seq/2</text>
<text text-anchor="start" x="345" y="-326.3" font-family="Courier,monospace" font-size="9.00"> </text>
<text text-anchor="start" x="192" y="-316.3" font-family="Courier,monospace" font-size="9.00"> </text>
<text text-anchor="start" x="227" y="-316.3" font-family="Courier,monospace" font-size="9.00">learn_with_timeout/4</text>
<text text-anchor="start" x="345" y="-316.3" font-family="Courier,monospace" font-size="9.00"> </text>
<text text-anchor="start" x="192" y="-306.3" font-family="Courier,monospace" font-size="9.00"> </text>
<text text-anchor="start" x="227" y="-306.3" font-family="Courier,monospace" font-size="9.00">program_to_clauses/2</text>
<text text-anchor="start" x="345" y="-306.3" font-family="Courier,monospace" font-size="9.00"> </text>
<text text-anchor="start" x="192" y="-296.3" font-family="Courier,monospace" font-size="9.00"> </text>
<text text-anchor="start" x="254" y="-296.3" font-family="Courier,monospace" font-size="9.00">pprint/1</text>
<text text-anchor="start" x="345" y="-296.3" font-family="Courier,monospace" font-size="9.00"> </text>
<text text-anchor="start" x="192" y="-286.3" font-family="Courier,monospace" font-size="9.00"> </text>
<text text-anchor="start" x="249.5" y="-286.3" font-family="Courier,monospace" font-size="9.00">metarule/6</text>
<text text-anchor="start" x="345" y="-286.3" font-family="Courier,monospace" font-size="9.00"> </text>
<text text-anchor="start" x="192" y="-276.3" font-family="Courier,monospace" font-size="9.00"> </text>
<text text-anchor="start" x="247.5" y="-276.3" font-family="Courier,monospace" font-size="9.00">head_pred/1</text>
<text text-anchor="start" x="345" y="-276.3" font-family="Courier,monospace" font-size="9.00"> </text>
<text text-anchor="start" x="192" y="-266.3" font-family="Courier,monospace" font-size="9.00"> </text>
<text text-anchor="start" x="247.5" y="-266.3" font-family="Courier,monospace" font-size="9.00">body_pred/1</text>
<text text-anchor="start" x="345" y="-266.3" font-family="Courier,monospace" font-size="9.00"> </text>
<text text-anchor="start" x="192" y="-256.3" font-family="Courier,monospace" font-size="9.00"> </text>
<text text-anchor="start" x="261" y="-256.3" font-family="Courier,monospace" font-size="9.00">ibk/3</text>
<text text-anchor="start" x="345" y="-256.3" font-family="Courier,monospace" font-size="9.00"> </text>
<text text-anchor="start" x="192" y="-246.3" font-family="Courier,monospace" font-size="9.00"> </text>
<text text-anchor="start" x="247.5" y="-246.3" font-family="Courier,monospace" font-size="9.00">func_test/3</text>
<text text-anchor="start" x="345" y="-246.3" font-family="Courier,monospace" font-size="9.00"> </text>
<text text-anchor="start" x="192" y="-236.3" font-family="Courier,monospace" font-size="9.00"> </text>
<text text-anchor="start" x="245" y="-236.3" font-family="Courier,monospace" font-size="9.00">functional/0</text>
<text text-anchor="start" x="345" y="-236.3" font-family="Courier,monospace" font-size="9.00"> </text>
<text text-anchor="start" x="192" y="-226.3" font-family="Courier,monospace" font-size="9.00"> </text>
<text text-anchor="start" x="243" y="-226.3" font-family="Courier,monospace" font-size="9.00">min_clauses/1</text>
<text text-anchor="start" x="345" y="-226.3" font-family="Courier,monospace" font-size="9.00"> </text>
<text text-anchor="start" x="192" y="-216.3" font-family="Courier,monospace" font-size="9.00"> </text>
<text text-anchor="start" x="243" y="-216.3" font-family="Courier,monospace" font-size="9.00">max_clauses/1</text>
<text text-anchor="start" x="345" y="-216.3" font-family="Courier,monospace" font-size="9.00"> </text>
<text text-anchor="start" x="192" y="-206.3" font-family="Courier,monospace" font-size="9.00"> </text>
<text text-anchor="start" x="238.5" y="-206.3" font-family="Courier,monospace" font-size="9.00">max_inv_preds/1</text>
<text text-anchor="start" x="345" y="-206.3" font-family="Courier,monospace" font-size="9.00"> </text>
<text text-anchor="start" x="192" y="-196.3" font-family="Courier,monospace" font-size="9.00"> </text>
<text text-anchor="start" x="231.5" y="-196.3" font-family="Courier,monospace" font-size="9.00">metarule_next_id/1</text>
<text text-anchor="start" x="345" y="-196.3" font-family="Courier,monospace" font-size="9.00"> </text>
<text text-anchor="start" x="192" y="-186.3" font-family="Courier,monospace" font-size="9.00"> </text>
<text text-anchor="start" x="252" y="-186.3" font-family="Courier,monospace" font-size="9.00">timeout/1</text>
<text text-anchor="start" x="345" y="-186.3" font-family="Courier,monospace" font-size="9.00"> </text>
<text text-anchor="start" x="192" y="-176.3" font-family="Courier,monospace" font-size="9.00"> </text>
<text text-anchor="start" x="213.5" y="-176.3" font-family="Courier,monospace" font-size="9.00">logtalk::message_tokens//2</text>
<text text-anchor="start" x="345" y="-176.3" font-family="Courier,monospace" font-size="9.00"> </text>
<text text-anchor="start" x="192" y="-166.3" font-family="Courier,monospace" font-size="9.00"> </text>
<text text-anchor="start" x="200" y="-166.3" font-family="Courier,monospace" font-size="9.00">logtalk::message_prefix_stream/4</text>
<text text-anchor="start" x="345" y="-166.3" font-family="Courier,monospace" font-size="9.00"> </text>
</a>
</g>
</g>
<!-- expanding -->
<g id="node4" class="node">
<title>expanding</title>
<g id="a_node4"><a xlink:href="https://logtalk.org/library/expanding_0.html" xlink:title="https://logtalk.org/library/expanding_0.html">
<polygon fill="mediumaquamarine" stroke="black" stroke-dasharray="5,2" points="184,-519 104,-519 104,-483 190,-483 190,-513 184,-519"/>
<polyline fill="none" stroke="black" stroke-dasharray="5,2" points="184,-519 184,-513 "/>
<polyline fill="none" stroke="black" stroke-dasharray="5,2" points="190,-513 184,-513 "/>
<text text-anchor="start" x="112" y="-503.8" font-family="Courier,monospace" font-size="9.00"> </text>
<text text-anchor="start" x="122" y="-503.2" font-family="Courier,monospace" font-size="11.00">expanding</text>
<text text-anchor="start" x="177" y="-503.8" font-family="Courier,monospace" font-size="9.00"> </text>
<text text-anchor="start" x="112" y="-492.8" font-family="Courier,monospace" font-size="9.00"> </text>
<text text-anchor="start" x="117" y="-493.4" font-family="Courier,monospace" font-size="7.00">built&#45;in protocol</text>
<text text-anchor="start" x="177" y="-492.8" font-family="Courier,monospace" font-size="9.00"> </text>
</a>
</g>
</g>
<!-- metagol&#45;&gt;expanding -->
<g id="edge1" class="edge">
<title>metagol&#45;&gt;expanding</title>
<g id="a_edge1"><a xlink:href="https://logtalk.org/library/metagol_0.html" xlink:title="implements">
<path fill="none" stroke="black" d="M205.73,-401.33C197.23,-416.78 188.5,-432.32 180,-447 174.43,-456.62 168.02,-467.04 162.34,-476.08"/>
<ellipse fill="black" stroke="black" cx="160.12" cy="-479.6" rx="4" ry="4"/>
</a>
</g>
<g id="a_edge1&#45;label"><a xlink:href="https://logtalk.org/library/metagol_0.html" xlink:title="https://logtalk.org/library/metagol_0.html">
<text text-anchor="start" x="185" y="-439.8" font-family="Courier,monospace" font-size="9.00">implements</text>
</a>
</g>
</g>
<!-- metagol_example_protocol -->
<g id="node2" class="node">
<title>metagol_example_protocol</title>
<g id="a_node2"><a xlink:href="https://logtalk.org/library/metagol_example_protocol_0.html" xlink:title="https://logtalk.org/library/metagol_example_protocol_0.html">
<polygon fill="aquamarine" stroke="black" points="546,-316 388,-316 388,-245 552,-245 552,-310 546,-316"/>
<polyline fill="none" stroke="black" points="546,-316 546,-310 "/>
<polyline fill="none" stroke="black" points="552,-310 546,-310 "/>
<g id="a_node2_7"><a xlink:href="metagol_example_protocol_protocol_xref_diagram.svg" xlink:title="Zoom">
<image xlink:href="zoom.png" width="11px" height="11px" preserveAspectRatio="xMinYMin meet" x="396" y="-311.5"/>
</a>
</g>
<text text-anchor="start" x="399" y="-292.3" font-family="Courier,monospace" font-size="9.00"> </text>
<text text-anchor="start" x="407" y="-291.7" font-family="Courier,monospace" font-size="11.00">metagol_example_protocol</text>
<text text-anchor="start" x="539" y="-292.3" font-family="Courier,monospace" font-size="9.00"> </text>
<text text-anchor="start" x="399" y="-281.3" font-family="Courier,monospace" font-size="9.00"> </text>
<text text-anchor="start" x="459" y="-281.9" font-family="Courier,monospace" font-size="7.00">protocol</text>
<text text-anchor="start" x="539" y="-281.3" font-family="Courier,monospace" font-size="9.00"> </text>
<text text-anchor="start" x="399" y="-271.3" font-family="Courier,monospace" font-size="9.00"> </text>
<text text-anchor="start" x="399" y="-261.3" font-family="Courier,monospace" font-size="9.00"> </text>
<text text-anchor="start" x="457" y="-261.3" font-family="Courier,monospace" font-size="9.00">learn/1</text>
<text text-anchor="start" x="539" y="-261.3" font-family="Courier,monospace" font-size="9.00"> </text>
<text text-anchor="start" x="399" y="-251.3" font-family="Courier,monospace" font-size="9.00"> </text>
<text text-anchor="start" x="457" y="-251.3" font-family="Courier,monospace" font-size="9.00">learn/0</text>
<text text-anchor="start" x="539" y="-251.3" font-family="Courier,monospace" font-size="9.00"> </text>
</a>
</g>
</g>
<!-- toychrdb -->
<g id="node3" class="node">
<title>toychrdb</title>
<g id="a_node3"><a xlink:href="https://logtalk.org/library/toychrdb_0.html" xlink:title="https://logtalk.org/library/toychrdb_0.html">
<polygon fill="cornsilk" stroke="black" points="129.5,-341 38.5,-341 38.5,-220 129.5,-220 129.5,-341"/>
<g id="a_node3_8"><a xlink:href="toychrdb_object_xref_diagram.svg" xlink:title="Zoom">
<image xlink:href="zoom.png" width="11px" height="11px" preserveAspectRatio="xMinYMin meet" x="47" y="-336.5"/>
</a>
</g>
<text text-anchor="start" x="50" y="-317.3" font-family="Courier,monospace" font-size="9.00"> </text>
<text text-anchor="start" x="65.5" y="-316.7" font-family="Courier,monospace" font-size="11.00">toychrdb</text>
<text text-anchor="start" x="117" y="-317.3" font-family="Courier,monospace" font-size="9.00"> </text>
<text text-anchor="start" x="50" y="-306.3" font-family="Courier,monospace" font-size="9.00"> </text>
<text text-anchor="start" x="71.5" y="-306.9" font-family="Courier,monospace" font-size="7.00">prototype</text>
<text text-anchor="start" x="117" y="-306.3" font-family="Courier,monospace" font-size="9.00"> </text>
<text text-anchor="start" x="50" y="-296.3" font-family="Courier,monospace" font-size="9.00"> </text>
<text text-anchor="start" x="50" y="-286.3" font-family="Courier,monospace" font-size="9.00"> </text>
<text text-anchor="start" x="69" y="-286.3" font-family="Courier,monospace" font-size="9.00">chr_is/2</text>
<text text-anchor="start" x="117" y="-286.3" font-family="Courier,monospace" font-size="9.00"> </text>
<text text-anchor="start" x="50" y="-276.3" font-family="Courier,monospace" font-size="9.00"> </text>
<text text-anchor="start" x="62.5" y="-276.3" font-family="Courier,monospace" font-size="9.00">chr_trace/0</text>
<text text-anchor="start" x="117" y="-276.3" font-family="Courier,monospace" font-size="9.00"> </text>
<text text-anchor="start" x="50" y="-266.3" font-family="Courier,monospace" font-size="9.00"> </text>
<text text-anchor="start" x="58" y="-266.3" font-family="Courier,monospace" font-size="9.00">chr_notrace/0</text>
<text text-anchor="start" x="117" y="-266.3" font-family="Courier,monospace" font-size="9.00"> </text>
<text text-anchor="start" x="50" y="-256.3" font-family="Courier,monospace" font-size="9.00"> </text>
<text text-anchor="start" x="67" y="-256.3" font-family="Courier,monospace" font-size="9.00">chr_spy/1</text>
<text text-anchor="start" x="117" y="-256.3" font-family="Courier,monospace" font-size="9.00"> </text>
<text text-anchor="start" x="50" y="-246.3" font-family="Courier,monospace" font-size="9.00"> </text>
<text text-anchor="start" x="62.5" y="-246.3" font-family="Courier,monospace" font-size="9.00">chr_nospy/0</text>
<text text-anchor="start" x="117" y="-246.3" font-family="Courier,monospace" font-size="9.00"> </text>
<text text-anchor="start" x="50" y="-236.3" font-family="Courier,monospace" font-size="9.00"> </text>
<text text-anchor="start" x="60" y="-236.3" font-family="Courier,monospace" font-size="9.00">chr_no_spy/1</text>
<text text-anchor="start" x="117" y="-236.3" font-family="Courier,monospace" font-size="9.00"> </text>
<text text-anchor="start" x="50" y="-226.3" font-family="Courier,monospace" font-size="9.00"> </text>
<text text-anchor="start" x="60" y="-226.3" font-family="Courier,monospace" font-size="9.00">chr_option/2</text>
<text text-anchor="start" x="117" y="-226.3" font-family="Courier,monospace" font-size="9.00"> </text>
</a>
</g>
</g>
<!-- toychrdb&#45;&gt;expanding -->
<g id="edge2" class="edge">
<title>toychrdb&#45;&gt;expanding</title>
<g id="a_edge2"><a xlink:href="https://logtalk.org/library/toychrdb_0.html" xlink:title="implements">
<path fill="none" stroke="black" d="M101.22,-341.21C113.86,-385.05 130.39,-442.4 139.74,-474.81"/>
<ellipse fill="black" stroke="black" cx="140.95" cy="-479.03" rx="4" ry="4"/>
</a>
</g>
<g id="a_edge2&#45;label"><a xlink:href="https://logtalk.org/library/toychrdb_0.html" xlink:title="https://logtalk.org/library/toychrdb_0.html">
<text text-anchor="start" x="130" y="-439.8" font-family="Courier,monospace" font-size="9.00">implements</text>
</a>
</g>
</g>
</g>
</svg>
