<?xml version="1.0" encoding="UTF-8" standalone="no"?>
<?xml-stylesheet href="diagrams.css" type="text/css"?>
<!DOCTYPE svg PUBLIC "-//W3C//DTD SVG 1.1//EN"
 "http://www.w3.org/Graphics/SVG/1.1/DTD/svg11.dtd">
<!-- Generated by graphviz version 12.2.0 (20241103.1931)
 -->
<!-- Title: ports Pages: 1 -->
<svg width="968pt" height="729pt"
 viewBox="72.00 72.00 896.00 656.50" xmlns="http://www.w3.org/2000/svg" xmlns:xlink="http://www.w3.org/1999/xlink">
<g id="graph0" class="graph" transform="scale(1 1) rotate(0) translate(76 652.5)">
<title>ports</title>
<polygon fill="white" stroke="none" points="-4,4 -4,-580.5 820,-580.5 820,4 -4,4"/>
<text text-anchor="start" x="8" y="-32.75" font-family="Monospace" font-size="10.00" fill="dimgray">Logtalk ports of third&#45;party software</text>
<text text-anchor="start" x="8" y="-20" font-family="Monospace" font-size="10.00" fill="dimgray">Inheritance diagram for library ports</text>
<text text-anchor="start" x="8" y="-7.25" font-family="Monospace" font-size="10.00" fill="dimgray">Generated on 2024&#45;11&#45;04, 18:48</text>
<g id="clust1" class="cluster">
<title>cluster_rlibrary_ports</title>
<g id="a_clust1"><a xlink:title="ports/">
<path fill="lightgray" stroke="dimgray" d="M20,-54.25C20,-54.25 796,-54.25 796,-54.25 802,-54.25 808,-60.25 808,-66.25 808,-66.25 808,-556.5 808,-556.5 808,-562.5 802,-568.5 796,-568.5 796,-568.5 20,-568.5 20,-568.5 14,-568.5 8,-562.5 8,-556.5 8,-556.5 8,-66.25 8,-66.25 8,-60.25 14,-54.25 20,-54.25"/>
<g id="a_clust1_0"><a xlink:href="https://github.com/LogtalkDotOrg/logtalk3/tree/3bc33cdb0d2b4002508d1e27b0cb35007acd5ebd/ports/" xlink:title="https://github.com/LogtalkDotOrg/logtalk3/tree/3bc33cdb0d2b4002508d1e27b0cb35007acd5ebd/ports/">
<text text-anchor="start" x="20" y="-65.5" font-family="Monospace" font-size="10.00" fill="dimgray">ports/</text>
</a>
</g>
</a>
</g>
</g>
<g id="clust4" class="cluster">
<title>cluster_library_fcube</title>
<g id="a_clust4"><a xlink:title="fcube/">
<path fill="whitesmoke" stroke="dimgray" d="M30,-149.25C30,-149.25 162,-149.25 162,-149.25 168,-149.25 174,-155.25 174,-161.25 174,-161.25 174,-391 174,-391 174,-397 168,-403 162,-403 162,-403 30,-403 30,-403 24,-403 18,-397 18,-391 18,-391 18,-161.25 18,-161.25 18,-155.25 24,-149.25 30,-149.25"/>
<g id="a_clust4_1"><a xlink:href="https://github.com/LogtalkDotOrg/logtalk3/tree/3bc33cdb0d2b4002508d1e27b0cb35007acd5ebd/ports/fcube/" xlink:title="https://github.com/LogtalkDotOrg/logtalk3/tree/3bc33cdb0d2b4002508d1e27b0cb35007acd5ebd/ports/fcube/">
<text text-anchor="start" x="30" y="-160.5" font-family="Monospace" font-size="10.00" fill="dimgray">fcube/</text>
</a>
</g>
</a>
</g>
</g>
<g id="clust6" class="cluster">
<title>cluster_file_/Users/pmoura/logtalk/ports/fcube/fcube.lgt</title>
<g id="a_clust6"><a xlink:title="fcube.lgt">
<path fill="snow" stroke="dimgray" d="M40,-188C40,-188 152,-188 152,-188 158,-188 164,-194 164,-200 164,-200 164,-381 164,-381 164,-387 158,-393 152,-393 152,-393 40,-393 40,-393 34,-393 28,-387 28,-381 28,-381 28,-200 28,-200 28,-194 34,-188 40,-188"/>
<g id="a_clust6_2"><a xlink:href="https://github.com/LogtalkDotOrg/logtalk3/tree/3bc33cdb0d2b4002508d1e27b0cb35007acd5ebd/ports/fcube/fcube.lgt" xlink:title="https://github.com/LogtalkDotOrg/logtalk3/tree/3bc33cdb0d2b4002508d1e27b0cb35007acd5ebd/ports/fcube/fcube.lgt">
<text text-anchor="start" x="40" y="-199.25" font-family="Monospace" font-size="10.00" fill="dimgray">fcube.lgt</text>
</a>
</g>
</a>
</g>
</g>
<g id="clust7" class="cluster">
<title>cluster_library_metagol</title>
<g id="a_clust7"><a xlink:title="metagol/">
<path fill="whitesmoke" stroke="dimgray" d="M196,-93C196,-93 636,-93 636,-93 642,-93 648,-99 648,-105 648,-105 648,-447.25 648,-447.25 648,-453.25 642,-459.25 636,-459.25 636,-459.25 196,-459.25 196,-459.25 190,-459.25 184,-453.25 184,-447.25 184,-447.25 184,-105 184,-105 184,-99 190,-93 196,-93"/>
<g id="a_clust7_3"><a xlink:href="https://github.com/LogtalkDotOrg/logtalk3/tree/3bc33cdb0d2b4002508d1e27b0cb35007acd5ebd/ports/metagol/" xlink:title="https://github.com/LogtalkDotOrg/logtalk3/tree/3bc33cdb0d2b4002508d1e27b0cb35007acd5ebd/ports/metagol/">
<text text-anchor="start" x="196" y="-104.25" font-family="Monospace" font-size="10.00" fill="dimgray">metagol/</text>
</a>
</g>
</a>
</g>
</g>
<g id="clust9" class="cluster">
<title>cluster_file_/Users/pmoura/logtalk/ports/metagol/metagol.lgt</title>
<g id="a_clust9"><a xlink:title="metagol.lgt">
<path fill="snow" stroke="dimgray" d="M206,-131.75C206,-131.75 402,-131.75 402,-131.75 408,-131.75 414,-137.75 414,-143.75 414,-143.75 414,-437.25 414,-437.25 414,-443.25 408,-449.25 402,-449.25 402,-449.25 206,-449.25 206,-449.25 200,-449.25 194,-443.25 194,-437.25 194,-437.25 194,-143.75 194,-143.75 194,-137.75 200,-131.75 206,-131.75"/>
<g id="a_clust9_4"><a xlink:href="https://github.com/LogtalkDotOrg/logtalk3/tree/3bc33cdb0d2b4002508d1e27b0cb35007acd5ebd/ports/metagol/metagol.lgt" xlink:title="https://github.com/LogtalkDotOrg/logtalk3/tree/3bc33cdb0d2b4002508d1e27b0cb35007acd5ebd/ports/metagol/metagol.lgt">
<text text-anchor="start" x="206" y="-143" font-family="Monospace" font-size="10.00" fill="dimgray">metagol.lgt</text>
</a>
</g>
</a>
</g>
</g>
<g id="clust10" class="cluster">
<title>cluster_file_/Users/pmoura/logtalk/ports/metagol/metagol_example_protocol.lgt</title>
<g id="a_clust10"><a xlink:title="metagol_example_protocol.lgt">
<path fill="snow" stroke="dimgray" d="M436,-227.38C436,-227.38 626,-227.38 626,-227.38 632,-227.38 638,-233.38 638,-239.38 638,-239.38 638,-341.62 638,-341.62 638,-347.62 632,-353.62 626,-353.62 626,-353.62 436,-353.62 436,-353.62 430,-353.62 424,-347.62 424,-341.62 424,-341.62 424,-239.38 424,-239.38 424,-233.38 430,-227.38 436,-227.38"/>
<g id="a_clust10_5"><a xlink:href="https://github.com/LogtalkDotOrg/logtalk3/tree/3bc33cdb0d2b4002508d1e27b0cb35007acd5ebd/ports/metagol/metagol_example_protocol.lgt" xlink:title="https://github.com/LogtalkDotOrg/logtalk3/tree/3bc33cdb0d2b4002508d1e27b0cb35007acd5ebd/ports/metagol/metagol_example_protocol.lgt">
<text text-anchor="start" x="436" y="-238.62" font-family="Monospace" font-size="10.00" fill="dimgray">metagol_example_protocol.lgt</text>
</a>
</g>
</a>
</g>
</g>
<g id="clust11" class="cluster">
<title>cluster_library_toychr</title>
<g id="a_clust11"><a xlink:title="toychr/">
<path fill="whitesmoke" stroke="dimgray" d="M670,-160.5C670,-160.5 786,-160.5 786,-160.5 792,-160.5 798,-166.5 798,-172.5 798,-172.5 798,-379.75 798,-379.75 798,-385.75 792,-391.75 786,-391.75 786,-391.75 670,-391.75 670,-391.75 664,-391.75 658,-385.75 658,-379.75 658,-379.75 658,-172.5 658,-172.5 658,-166.5 664,-160.5 670,-160.5"/>
<g id="a_clust11_6"><a xlink:href="https://github.com/LogtalkDotOrg/logtalk3/tree/3bc33cdb0d2b4002508d1e27b0cb35007acd5ebd/ports/toychr/" xlink:title="https://github.com/LogtalkDotOrg/logtalk3/tree/3bc33cdb0d2b4002508d1e27b0cb35007acd5ebd/ports/toychr/">
<text text-anchor="start" x="670" y="-171.75" font-family="Monospace" font-size="10.00" fill="dimgray">toychr/</text>
</a>
</g>
</a>
</g>
</g>
<g id="clust13" class="cluster">
<title>cluster_file_/Users/pmoura/logtalk/ports/toychr/toychrdb.lgt</title>
<g id="a_clust13"><a xlink:title="toychrdb.lgt">
<path fill="snow" stroke="dimgray" d="M680,-199.25C680,-199.25 776,-199.25 776,-199.25 782,-199.25 788,-205.25 788,-211.25 788,-211.25 788,-369.75 788,-369.75 788,-375.75 782,-381.75 776,-381.75 776,-381.75 680,-381.75 680,-381.75 674,-381.75 668,-375.75 668,-369.75 668,-369.75 668,-211.25 668,-211.25 668,-205.25 674,-199.25 680,-199.25"/>
<g id="a_clust13_7"><a xlink:href="https://github.com/LogtalkDotOrg/logtalk3/tree/3bc33cdb0d2b4002508d1e27b0cb35007acd5ebd/ports/toychr/toychrdb.lgt" xlink:title="https://github.com/LogtalkDotOrg/logtalk3/tree/3bc33cdb0d2b4002508d1e27b0cb35007acd5ebd/ports/toychr/toychrdb.lgt">
<text text-anchor="start" x="680" y="-210.5" font-family="Monospace" font-size="10.00" fill="dimgray">toychrdb.lgt</text>
</a>
</g>
</a>
</g>
</g>
<!-- fcube -->
<g id="node1" class="node">
<title>fcube</title>
<g id="a_node1"><a xlink:href="https://logtalk.org/library/fcube_0.html" xlink:title="https://logtalk.org/library/fcube_0.html">
<polygon fill="cornsilk" stroke="black" points="154.12,-383 37.88,-383 37.88,-226.75 154.12,-226.75 154.12,-383"/>
<g id="a_node1_8"><a xlink:href="fcube_object_xref_diagram.svg" xlink:title="Zoom">
<image xlink:href="zoom.png" width="11px" height="11px" preserveAspectRatio="xMinYMin meet" x="45.875" y="-379"/>
</a>
</g>
<text text-anchor="start" x="48.75" y="-358.32" font-family="Monospace" font-size="9.00"> </text>
<text text-anchor="start" x="82" y="-357.55" font-family="Monospace" font-size="11.00">fcube</text>
<text text-anchor="start" x="140.88" y="-358.32" font-family="Monospace" font-size="9.00"> </text>
<text text-anchor="start" x="48.75" y="-345.95" font-family="Monospace" font-size="9.00"> </text>
<text text-anchor="start" x="78.62" y="-346.73" font-family="Monospace" font-size="7.00">prototype</text>
<text text-anchor="start" x="140.88" y="-345.95" font-family="Monospace" font-size="9.00"> </text>
<text text-anchor="start" x="48.75" y="-334.7" font-family="Monospace" font-size="9.00"> </text>
<text text-anchor="start" x="48.75" y="-323.45" font-family="Monospace" font-size="9.00"> </text>
<text text-anchor="start" x="85.75" y="-323.45" font-family="Monospace" font-size="9.00">gnu/0</text>
<text text-anchor="start" x="140.88" y="-323.45" font-family="Monospace" font-size="9.00"> </text>
<text text-anchor="start" x="48.75" y="-312.2" font-family="Monospace" font-size="9.00"> </text>
<text text-anchor="start" x="80.5" y="-312.2" font-family="Monospace" font-size="9.00">fcube/0</text>
<text text-anchor="start" x="140.88" y="-312.2" font-family="Monospace" font-size="9.00"> </text>
<text text-anchor="start" x="48.75" y="-300.95" font-family="Monospace" font-size="9.00"> </text>
<text text-anchor="start" x="77.88" y="-300.95" font-family="Monospace" font-size="9.00">decide/1</text>
<text text-anchor="start" x="140.88" y="-300.95" font-family="Monospace" font-size="9.00"> </text>
<text text-anchor="start" x="48.75" y="-289.7" font-family="Monospace" font-size="9.00"> </text>
<text text-anchor="start" x="77.88" y="-289.7" font-family="Monospace" font-size="9.00">decide/2</text>
<text text-anchor="start" x="140.88" y="-289.7" font-family="Monospace" font-size="9.00"> </text>
<text text-anchor="start" x="48.75" y="-278.45" font-family="Monospace" font-size="9.00"> </text>
<text text-anchor="start" x="56.88" y="-278.45" font-family="Monospace" font-size="9.00">op(1200,xfy,&lt;=&gt;)</text>
<text text-anchor="start" x="140.88" y="-278.45" font-family="Monospace" font-size="9.00"> </text>
<text text-anchor="start" x="48.75" y="-267.2" font-family="Monospace" font-size="9.00"> </text>
<text text-anchor="start" x="59.5" y="-267.2" font-family="Monospace" font-size="9.00">op(1110,xfy,=&gt;)</text>
<text text-anchor="start" x="140.88" y="-267.2" font-family="Monospace" font-size="9.00"> </text>
<text text-anchor="start" x="48.75" y="-255.95" font-family="Monospace" font-size="9.00"> </text>
<text text-anchor="start" x="59.5" y="-255.95" font-family="Monospace" font-size="9.00">op(1000,xfy,&amp;&amp;)</text>
<text text-anchor="start" x="140.88" y="-255.95" font-family="Monospace" font-size="9.00"> </text>
<text text-anchor="start" x="48.75" y="-244.7" font-family="Monospace" font-size="9.00"> </text>
<text text-anchor="start" x="67.38" y="-244.7" font-family="Monospace" font-size="9.00">op(500,fy,~)</text>
<text text-anchor="start" x="140.88" y="-244.7" font-family="Monospace" font-size="9.00"> </text>
<text text-anchor="start" x="48.75" y="-233.45" font-family="Monospace" font-size="9.00"> </text>
<text text-anchor="start" x="62.12" y="-233.45" font-family="Monospace" font-size="9.00">op(1100,xfy,v)</text>
<text text-anchor="start" x="140.88" y="-233.45" font-family="Monospace" font-size="9.00"> </text>
</a>
</g>
</g>
<!-- metagol -->
<g id="node2" class="node">
<title>metagol</title>
<g id="a_node2"><a xlink:href="https://logtalk.org/library/metagol_0.html" xlink:title="https://logtalk.org/library/metagol_0.html">
<polygon fill="cornsilk" stroke="black" points="404.12,-439.25 203.88,-439.25 203.88,-170.5 404.12,-170.5 404.12,-439.25"/>
<g id="a_node2_9"><a xlink:href="metagol_object_xref_diagram.svg" xlink:title="Zoom">
<image xlink:href="zoom.png" width="11px" height="11px" preserveAspectRatio="xMinYMin meet" x="211.875" y="-435.25"/>
</a>
</g>
<text text-anchor="start" x="214.75" y="-414.57" font-family="Monospace" font-size="9.00"> </text>
<text text-anchor="start" x="283.25" y="-413.8" font-family="Monospace" font-size="11.00">metagol</text>
<text text-anchor="start" x="390.88" y="-414.57" font-family="Monospace" font-size="9.00"> </text>
<text text-anchor="start" x="214.75" y="-402.2" font-family="Monospace" font-size="9.00"> </text>
<text text-anchor="start" x="286.62" y="-402.98" font-family="Monospace" font-size="7.00">prototype</text>
<text text-anchor="start" x="390.88" y="-402.2" font-family="Monospace" font-size="9.00"> </text>
<text text-anchor="start" x="214.75" y="-390.95" font-family="Monospace" font-size="9.00"> </text>
<text text-anchor="start" x="214.75" y="-379.7" font-family="Monospace" font-size="9.00"> </text>
<text text-anchor="start" x="288.5" y="-379.7" font-family="Monospace" font-size="9.00">learn/3</text>
<text text-anchor="start" x="390.88" y="-379.7" font-family="Monospace" font-size="9.00"> </text>
<text text-anchor="start" x="214.75" y="-368.45" font-family="Monospace" font-size="9.00"> </text>
<text text-anchor="start" x="288.5" y="-368.45" font-family="Monospace" font-size="9.00">learn/2</text>
<text text-anchor="start" x="390.88" y="-368.45" font-family="Monospace" font-size="9.00"> </text>
<text text-anchor="start" x="214.75" y="-357.2" font-family="Monospace" font-size="9.00"> </text>
<text text-anchor="start" x="278" y="-357.2" font-family="Monospace" font-size="9.00">learn_seq/2</text>
<text text-anchor="start" x="390.88" y="-357.2" font-family="Monospace" font-size="9.00"> </text>
<text text-anchor="start" x="214.75" y="-345.95" font-family="Monospace" font-size="9.00"> </text>
<text text-anchor="start" x="254.38" y="-345.95" font-family="Monospace" font-size="9.00">learn_with_timeout/4</text>
<text text-anchor="start" x="390.88" y="-345.95" font-family="Monospace" font-size="9.00"> </text>
<text text-anchor="start" x="214.75" y="-334.7" font-family="Monospace" font-size="9.00"> </text>
<text text-anchor="start" x="254.38" y="-334.7" font-family="Monospace" font-size="9.00">program_to_clauses/2</text>
<text text-anchor="start" x="390.88" y="-334.7" font-family="Monospace" font-size="9.00"> </text>
<text text-anchor="start" x="214.75" y="-323.45" font-family="Monospace" font-size="9.00"> </text>
<text text-anchor="start" x="285.88" y="-323.45" font-family="Monospace" font-size="9.00">pprint/1</text>
<text text-anchor="start" x="390.88" y="-323.45" font-family="Monospace" font-size="9.00"> </text>
<text text-anchor="start" x="214.75" y="-312.2" font-family="Monospace" font-size="9.00"> </text>
<text text-anchor="start" x="280.62" y="-312.2" font-family="Monospace" font-size="9.00">metarule/6</text>
<text text-anchor="start" x="390.88" y="-312.2" font-family="Monospace" font-size="9.00"> </text>
<text text-anchor="start" x="214.75" y="-300.95" font-family="Monospace" font-size="9.00"> </text>
<text text-anchor="start" x="278" y="-300.95" font-family="Monospace" font-size="9.00">head_pred/1</text>
<text text-anchor="start" x="390.88" y="-300.95" font-family="Monospace" font-size="9.00"> </text>
<text text-anchor="start" x="214.75" y="-289.7" font-family="Monospace" font-size="9.00"> </text>
<text text-anchor="start" x="278" y="-289.7" font-family="Monospace" font-size="9.00">body_pred/1</text>
<text text-anchor="start" x="390.88" y="-289.7" font-family="Monospace" font-size="9.00"> </text>
<text text-anchor="start" x="214.75" y="-278.45" font-family="Monospace" font-size="9.00"> </text>
<text text-anchor="start" x="293.75" y="-278.45" font-family="Monospace" font-size="9.00">ibk/3</text>
<text text-anchor="start" x="390.88" y="-278.45" font-family="Monospace" font-size="9.00"> </text>
<text text-anchor="start" x="214.75" y="-267.2" font-family="Monospace" font-size="9.00"> </text>
<text text-anchor="start" x="278" y="-267.2" font-family="Monospace" font-size="9.00">func_test/3</text>
<text text-anchor="start" x="390.88" y="-267.2" font-family="Monospace" font-size="9.00"> </text>
<text text-anchor="start" x="214.75" y="-255.95" font-family="Monospace" font-size="9.00"> </text>
<text text-anchor="start" x="275.38" y="-255.95" font-family="Monospace" font-size="9.00">functional/0</text>
<text text-anchor="start" x="390.88" y="-255.95" font-family="Monospace" font-size="9.00"> </text>
<text text-anchor="start" x="214.75" y="-244.7" font-family="Monospace" font-size="9.00"> </text>
<text text-anchor="start" x="272.75" y="-244.7" font-family="Monospace" font-size="9.00">min_clauses/1</text>
<text text-anchor="start" x="390.88" y="-244.7" font-family="Monospace" font-size="9.00"> </text>
<text text-anchor="start" x="214.75" y="-233.45" font-family="Monospace" font-size="9.00"> </text>
<text text-anchor="start" x="272.75" y="-233.45" font-family="Monospace" font-size="9.00">max_clauses/1</text>
<text text-anchor="start" x="390.88" y="-233.45" font-family="Monospace" font-size="9.00"> </text>
<text text-anchor="start" x="214.75" y="-222.2" font-family="Monospace" font-size="9.00"> </text>
<text text-anchor="start" x="267.5" y="-222.2" font-family="Monospace" font-size="9.00">max_inv_preds/1</text>
<text text-anchor="start" x="390.88" y="-222.2" font-family="Monospace" font-size="9.00"> </text>
<text text-anchor="start" x="214.75" y="-210.95" font-family="Monospace" font-size="9.00"> </text>
<text text-anchor="start" x="259.62" y="-210.95" font-family="Monospace" font-size="9.00">metarule_next_id/1</text>
<text text-anchor="start" x="390.88" y="-210.95" font-family="Monospace" font-size="9.00"> </text>
<text text-anchor="start" x="214.75" y="-199.7" font-family="Monospace" font-size="9.00"> </text>
<text text-anchor="start" x="283.25" y="-199.7" font-family="Monospace" font-size="9.00">timeout/1</text>
<text text-anchor="start" x="390.88" y="-199.7" font-family="Monospace" font-size="9.00"> </text>
<text text-anchor="start" x="214.75" y="-188.45" font-family="Monospace" font-size="9.00"> </text>
<text text-anchor="start" x="238.62" y="-188.45" font-family="Monospace" font-size="9.00">logtalk::message_tokens//2</text>
<text text-anchor="start" x="390.88" y="-188.45" font-family="Monospace" font-size="9.00"> </text>
<text text-anchor="start" x="214.75" y="-177.2" font-family="Monospace" font-size="9.00"> </text>
<text text-anchor="start" x="222.88" y="-177.2" font-family="Monospace" font-size="9.00">logtalk::message_prefix_stream/4</text>
<text text-anchor="start" x="390.88" y="-177.2" font-family="Monospace" font-size="9.00"> </text>
</a>
</g>
</g>
<!-- expanding -->
<g id="node5" class="node">
<title>expanding</title>
<g id="a_node5"><a xlink:href="https://logtalk.org/library/expanding_0.html" xlink:title="https://logtalk.org/library/expanding_0.html">
<polygon fill="mediumaquamarine" stroke="black" stroke-dasharray="5,2" points="474.5,-558.5 377.5,-558.5 377.5,-522.5 480.5,-522.5 480.5,-552.5 474.5,-558.5"/>
<polyline fill="none" stroke="black" stroke-dasharray="5,2" points="474.5,-558.5 474.5,-552.5"/>
<polyline fill="none" stroke="black" stroke-dasharray="5,2" points="480.5,-552.5 474.5,-552.5"/>
<text text-anchor="start" x="385.5" y="-543.2" font-family="Monospace" font-size="9.00"> </text>
<text text-anchor="start" x="398.62" y="-542.42" font-family="Monospace" font-size="11.00">expanding</text>
<text text-anchor="start" x="467.25" y="-543.2" font-family="Monospace" font-size="9.00"> </text>
<text text-anchor="start" x="385.5" y="-530.83" font-family="Monospace" font-size="9.00"> </text>
<text text-anchor="start" x="390.75" y="-531.6" font-family="Monospace" font-size="7.00">built&#45;in protocol</text>
<text text-anchor="start" x="467.25" y="-530.83" font-family="Monospace" font-size="9.00"> </text>
</a>
</g>
</g>
<!-- metagol&#45;&gt;expanding -->
<g id="edge1" class="edge">
<title>metagol&#45;&gt;expanding</title>
<g id="a_edge1"><a xlink:href="https://logtalk.org/library/metagol_0.html" xlink:title="implements">
<path fill="none" stroke="black" d="M375.63,-439.74C390.93,-468.34 405.48,-495.54 415.52,-514.3"/>
<ellipse fill="black" stroke="black" cx="417.54" cy="-518.08" rx="4" ry="4"/>
</a>
</g>
<g id="a_edge1&#45;label"><a xlink:href="https://logtalk.org/library/metagol_0.html" xlink:title="https://logtalk.org/library/metagol_0.html">
<text text-anchor="start" x="398.79" y="-477.95" font-family="Monospace" font-size="9.00">implements</text>
</a>
</g>
</g>
<!-- metagol_example_protocol -->
<g id="node3" class="node">
<title>metagol_example_protocol</title>
<g id="a_node3"><a xlink:href="https://logtalk.org/library/metagol_example_protocol_0.html" xlink:title="https://logtalk.org/library/metagol_example_protocol_0.html">
<polygon fill="aquamarine" stroke="black" points="622.12,-343.62 433.88,-343.62 433.88,-266.12 628.12,-266.12 628.12,-337.62 622.12,-343.62"/>
<polyline fill="none" stroke="black" points="622.12,-343.62 622.12,-337.62"/>
<polyline fill="none" stroke="black" points="628.12,-337.62 622.12,-337.62"/>
<g id="a_node3_10"><a xlink:href="metagol_example_protocol_protocol_xref_diagram.svg" xlink:title="Zoom">
<image xlink:href="zoom.png" width="11px" height="11px" preserveAspectRatio="xMinYMin meet" x="441.875" y="-339.625"/>
</a>
</g>
<text text-anchor="start" x="444.75" y="-318.95" font-family="Monospace" font-size="9.00"> </text>
<text text-anchor="start" x="452.88" y="-318.18" font-family="Monospace" font-size="11.00">metagol_example_protocol</text>
<text text-anchor="start" x="614.88" y="-318.95" font-family="Monospace" font-size="9.00"> </text>
<text text-anchor="start" x="444.75" y="-306.57" font-family="Monospace" font-size="9.00"> </text>
<text text-anchor="start" x="515.88" y="-307.35" font-family="Monospace" font-size="7.00">protocol</text>
<text text-anchor="start" x="614.88" y="-306.57" font-family="Monospace" font-size="9.00"> </text>
<text text-anchor="start" x="444.75" y="-295.32" font-family="Monospace" font-size="9.00"> </text>
<text text-anchor="start" x="444.75" y="-284.07" font-family="Monospace" font-size="9.00"> </text>
<text text-anchor="start" x="515.5" y="-284.07" font-family="Monospace" font-size="9.00">learn/1</text>
<text text-anchor="start" x="614.88" y="-284.07" font-family="Monospace" font-size="9.00"> </text>
<text text-anchor="start" x="444.75" y="-272.82" font-family="Monospace" font-size="9.00"> </text>
<text text-anchor="start" x="515.5" y="-272.82" font-family="Monospace" font-size="9.00">learn/0</text>
<text text-anchor="start" x="614.88" y="-272.82" font-family="Monospace" font-size="9.00"> </text>
</a>
</g>
</g>
<!-- toychrdb -->
<g id="node4" class="node">
<title>toychrdb</title>
<g id="a_node4"><a xlink:href="https://logtalk.org/library/toychrdb_0.html" xlink:title="https://logtalk.org/library/toychrdb_0.html">
<polygon fill="cornsilk" stroke="black" points="778.25,-371.75 677.75,-371.75 677.75,-238 778.25,-238 778.25,-371.75"/>
<g id="a_node4_11"><a xlink:href="toychrdb_object_xref_diagram.svg" xlink:title="Zoom">
<image xlink:href="zoom.png" width="11px" height="11px" preserveAspectRatio="xMinYMin meet" x="685.75" y="-367.75"/>
</a>
</g>
<text text-anchor="start" x="688.62" y="-347.07" font-family="Monospace" font-size="9.00"> </text>
<text text-anchor="start" x="703.88" y="-346.3" font-family="Monospace" font-size="11.00">toychrdb</text>
<text text-anchor="start" x="765" y="-347.07" font-family="Monospace" font-size="9.00"> </text>
<text text-anchor="start" x="688.62" y="-334.7" font-family="Monospace" font-size="9.00"> </text>
<text text-anchor="start" x="710.62" y="-335.48" font-family="Monospace" font-size="7.00">prototype</text>
<text text-anchor="start" x="765" y="-334.7" font-family="Monospace" font-size="9.00"> </text>
<text text-anchor="start" x="688.62" y="-323.45" font-family="Monospace" font-size="9.00"> </text>
<text text-anchor="start" x="688.62" y="-312.2" font-family="Monospace" font-size="9.00"> </text>
<text text-anchor="start" x="709.88" y="-312.2" font-family="Monospace" font-size="9.00">chr_is/2</text>
<text text-anchor="start" x="765" y="-312.2" font-family="Monospace" font-size="9.00"> </text>
<text text-anchor="start" x="688.62" y="-300.95" font-family="Monospace" font-size="9.00"> </text>
<text text-anchor="start" x="702" y="-300.95" font-family="Monospace" font-size="9.00">chr_trace/0</text>
<text text-anchor="start" x="765" y="-300.95" font-family="Monospace" font-size="9.00"> </text>
<text text-anchor="start" x="688.62" y="-289.7" font-family="Monospace" font-size="9.00"> </text>
<text text-anchor="start" x="696.75" y="-289.7" font-family="Monospace" font-size="9.00">chr_notrace/0</text>
<text text-anchor="start" x="765" y="-289.7" font-family="Monospace" font-size="9.00"> </text>
<text text-anchor="start" x="688.62" y="-278.45" font-family="Monospace" font-size="9.00"> </text>
<text text-anchor="start" x="707.25" y="-278.45" font-family="Monospace" font-size="9.00">chr_spy/1</text>
<text text-anchor="start" x="765" y="-278.45" font-family="Monospace" font-size="9.00"> </text>
<text text-anchor="start" x="688.62" y="-267.2" font-family="Monospace" font-size="9.00"> </text>
<text text-anchor="start" x="702" y="-267.2" font-family="Monospace" font-size="9.00">chr_nospy/0</text>
<text text-anchor="start" x="765" y="-267.2" font-family="Monospace" font-size="9.00"> </text>
<text text-anchor="start" x="688.62" y="-255.95" font-family="Monospace" font-size="9.00"> </text>
<text text-anchor="start" x="699.38" y="-255.95" font-family="Monospace" font-size="9.00">chr_no_spy/1</text>
<text text-anchor="start" x="765" y="-255.95" font-family="Monospace" font-size="9.00"> </text>
<text text-anchor="start" x="688.62" y="-244.7" font-family="Monospace" font-size="9.00"> </text>
<text text-anchor="start" x="699.38" y="-244.7" font-family="Monospace" font-size="9.00">chr_option/2</text>
<text text-anchor="start" x="765" y="-244.7" font-family="Monospace" font-size="9.00"> </text>
</a>
</g>
</g>
<!-- toychrdb&#45;&gt;expanding -->
<g id="edge2" class="edge">
<title>toychrdb&#45;&gt;expanding</title>
<g id="a_edge2"><a xlink:href="https://logtalk.org/library/toychrdb_0.html" xlink:title="implements">
<path fill="none" stroke="black" d="M703.25,-372.22C689.2,-402.22 668.97,-436.07 642,-459.25 598.36,-496.76 535.45,-517.56 489.31,-528.53"/>
<ellipse fill="black" stroke="black" cx="485" cy="-529.52" rx="4" ry="4"/>
</a>
</g>
<g id="a_edge2&#45;label"><a xlink:href="https://logtalk.org/library/toychrdb_0.html" xlink:title="https://logtalk.org/library/toychrdb_0.html">
<text text-anchor="start" x="617.39" y="-477.95" font-family="Monospace" font-size="9.00">implements</text>
</a>
</g>
</g>
</g>
</svg>
