<?xml version="1.0" encoding="UTF-8" standalone="no"?>
<!DOCTYPE svg PUBLIC "-//W3C//DTD SVG 1.1//EN"
 "http://www.w3.org/Graphics/SVG/1.1/DTD/svg11.dtd">
<!-- Generated by graphviz version 2.41.20190410.0829 (20190410.0829)
 -->
<!-- Title: ports Pages: 1 -->
<svg width="432pt" height="651pt"
 viewBox="72.00 72.00 360.00 579.00" xmlns="http://www.w3.org/2000/svg" xmlns:xlink="http://www.w3.org/1999/xlink">
<g id="graph0" class="graph" transform="scale(1 1) rotate(0) translate(76 575)">
<title>ports</title>
<polygon fill="white" stroke="transparent" points="-4,4 -4,-503 284,-503 284,4 -4,4"/>
<text text-anchor="start" x="8" y="-26" font-family="Courier,monospace" font-size="10.00" fill="dimgray">Logtalk ports of third&#45;party software</text>
<text text-anchor="start" x="8" y="-16" font-family="Courier,monospace" font-size="10.00" fill="dimgray">Inheritance diagram for library ports</text>
<text text-anchor="start" x="8" y="-6" font-family="Courier,monospace" font-size="10.00" fill="dimgray">Generated on 2019/04/30, 08:58</text>
<g id="clust1" class="cluster">
<title>cluster_rlibrary_ports</title>
<g id="a_clust1"><a xlink:title="ports/">
<path fill="lightgray" stroke="dimgray" d="M20,-46C20,-46 260,-46 260,-46 266,-46 272,-52 272,-58 272,-58 272,-479 272,-479 272,-485 266,-491 260,-491 260,-491 20,-491 20,-491 14,-491 8,-485 8,-479 8,-479 8,-58 8,-58 8,-52 14,-46 20,-46"/>
<g id="a_clust1_0"><a xlink:href="https://github.com/LogtalkDotOrg/logtalk3/tree/master/ports/" xlink:title="https://github.com/LogtalkDotOrg/logtalk3/tree/master/ports/">
<text text-anchor="start" x="20" y="-56" font-family="Courier,monospace" font-size="10.00" fill="dimgray">ports/</text>
</a>
</g>
</a>
</g>
</g>
<g id="clust4" class="cluster">
<title>cluster_library_metagol</title>
<g id="a_clust4"><a xlink:title="metagol/">
<path fill="whitesmoke" stroke="dimgray" d="M30,-82C30,-82 250,-82 250,-82 256,-82 262,-88 262,-94 262,-94 262,-372 262,-372 262,-378 256,-384 250,-384 250,-384 30,-384 30,-384 24,-384 18,-378 18,-372 18,-372 18,-94 18,-94 18,-88 24,-82 30,-82"/>
<g id="a_clust4_1"><a xlink:href="https://github.com/LogtalkDotOrg/logtalk3/tree/master/ports/metagol/" xlink:title="https://github.com/LogtalkDotOrg/logtalk3/tree/master/ports/metagol/">
<text text-anchor="start" x="30" y="-92" font-family="Courier,monospace" font-size="10.00" fill="dimgray">metagol/</text>
</a>
</g>
</a>
</g>
</g>
<g id="clust6" class="cluster">
<title>cluster_file_/Users/pmoura/logtalk/ports/metagol/metagol.lgt</title>
<g id="a_clust6"><a xlink:title="metagol.lgt">
<path fill="snow" stroke="dimgray" d="M40,-118C40,-118 240,-118 240,-118 246,-118 252,-124 252,-130 252,-130 252,-362 252,-362 252,-368 246,-374 240,-374 240,-374 40,-374 40,-374 34,-374 28,-368 28,-362 28,-362 28,-130 28,-130 28,-124 34,-118 40,-118"/>
<g id="a_clust6_2"><a xlink:href="https://github.com/LogtalkDotOrg/logtalk3/tree/master/ports/metagol/metagol.lgt" xlink:title="https://github.com/LogtalkDotOrg/logtalk3/tree/master/ports/metagol/metagol.lgt">
<text text-anchor="start" x="39.99" y="-128" font-family="Courier,monospace" font-size="10.00" fill="dimgray">metagol.lgt</text>
</a>
</g>
</a>
</g>
</g>
<!-- metagol -->
<g id="node1" class="node">
<title>metagol</title>
<g id="a_node1"><a xlink:href="https://logtalk.org/library/metagol_0.html" xlink:title="https://logtalk.org/library/metagol_0.html">
<polygon fill="cornsilk" stroke="black" points="242,-364 38,-364 38,-154 242,-154 242,-364"/>
<g id="a_node1_3"><a xlink:href="metagol_object_xref_diagram.svg" xlink:title="Zoom">
<image xlink:href="zoom.png" width="11px" height="11px" preserveAspectRatio="xMinYMin meet" x="46" y="-360"/>
</a>
</g>
<text text-anchor="start" x="48.8" y="-340.8" font-family="Courier,monospace" font-size="9.00"> </text>
<text text-anchor="start" x="119.9" y="-340.2" font-family="Courier,monospace" font-size="11.00">metagol</text>
<text text-anchor="start" x="228.8" y="-340.8" font-family="Courier,monospace" font-size="9.00"> </text>
<text text-anchor="start" x="48.8" y="-330.8" font-family="Courier,monospace" font-size="9.00"> </text>
<text text-anchor="start" x="124.1" y="-331.4" font-family="Courier,monospace" font-size="7.00">prototype</text>
<text text-anchor="start" x="228.8" y="-330.8" font-family="Courier,monospace" font-size="9.00"> </text>
<text text-anchor="start" x="48.8" y="-321.8" font-family="Courier,monospace" font-size="9.00"> </text>
<text text-anchor="start" x="48.8" y="-312.8" font-family="Courier,monospace" font-size="9.00"> </text>
<text text-anchor="start" x="124.1" y="-312.8" font-family="Courier,monospace" font-size="9.00">learn/3</text>
<text text-anchor="start" x="228.8" y="-312.8" font-family="Courier,monospace" font-size="9.00"> </text>
<text text-anchor="start" x="48.8" y="-303.8" font-family="Courier,monospace" font-size="9.00"> </text>
<text text-anchor="start" x="124.1" y="-303.8" font-family="Courier,monospace" font-size="9.00">learn/2</text>
<text text-anchor="start" x="228.8" y="-303.8" font-family="Courier,monospace" font-size="9.00"> </text>
<text text-anchor="start" x="48.8" y="-294.8" font-family="Courier,monospace" font-size="9.00"> </text>
<text text-anchor="start" x="113.3" y="-294.8" font-family="Courier,monospace" font-size="9.00">learn_seq/2</text>
<text text-anchor="start" x="228.8" y="-294.8" font-family="Courier,monospace" font-size="9.00"> </text>
<text text-anchor="start" x="48.8" y="-285.8" font-family="Courier,monospace" font-size="9.00"> </text>
<text text-anchor="start" x="116" y="-285.8" font-family="Courier,monospace" font-size="9.00">pclauses/2</text>
<text text-anchor="start" x="228.8" y="-285.8" font-family="Courier,monospace" font-size="9.00"> </text>
<text text-anchor="start" x="48.8" y="-276.8" font-family="Courier,monospace" font-size="9.00"> </text>
<text text-anchor="start" x="121.4" y="-276.8" font-family="Courier,monospace" font-size="9.00">pprint/1</text>
<text text-anchor="start" x="228.8" y="-276.8" font-family="Courier,monospace" font-size="9.00"> </text>
<text text-anchor="start" x="48.8" y="-267.8" font-family="Courier,monospace" font-size="9.00"> </text>
<text text-anchor="start" x="116" y="-267.8" font-family="Courier,monospace" font-size="9.00">metarule/8</text>
<text text-anchor="start" x="228.8" y="-267.8" font-family="Courier,monospace" font-size="9.00"> </text>
<text text-anchor="start" x="48.8" y="-258.8" font-family="Courier,monospace" font-size="9.00"> </text>
<text text-anchor="start" x="102.49" y="-258.8" font-family="Courier,monospace" font-size="9.00">metarule_init/7</text>
<text text-anchor="start" x="228.8" y="-258.8" font-family="Courier,monospace" font-size="9.00"> </text>
<text text-anchor="start" x="48.8" y="-249.8" font-family="Courier,monospace" font-size="9.00"> </text>
<text text-anchor="start" x="126.8" y="-249.8" font-family="Courier,monospace" font-size="9.00">prim/1</text>
<text text-anchor="start" x="228.8" y="-249.8" font-family="Courier,monospace" font-size="9.00"> </text>
<text text-anchor="start" x="48.8" y="-240.8" font-family="Courier,monospace" font-size="9.00"> </text>
<text text-anchor="start" x="116" y="-240.8" font-family="Courier,monospace" font-size="9.00">primcall/2</text>
<text text-anchor="start" x="228.8" y="-240.8" font-family="Courier,monospace" font-size="9.00"> </text>
<text text-anchor="start" x="48.8" y="-231.8" font-family="Courier,monospace" font-size="9.00"> </text>
<text text-anchor="start" x="129.5" y="-231.8" font-family="Courier,monospace" font-size="9.00">ibk/3</text>
<text text-anchor="start" x="228.8" y="-231.8" font-family="Courier,monospace" font-size="9.00"> </text>
<text text-anchor="start" x="48.8" y="-222.8" font-family="Courier,monospace" font-size="9.00"> </text>
<text text-anchor="start" x="110.59" y="-222.8" font-family="Courier,monospace" font-size="9.00">functional/0</text>
<text text-anchor="start" x="228.8" y="-222.8" font-family="Courier,monospace" font-size="9.00"> </text>
<text text-anchor="start" x="48.8" y="-213.8" font-family="Courier,monospace" font-size="9.00"> </text>
<text text-anchor="start" x="99.79" y="-213.8" font-family="Courier,monospace" font-size="9.00">unfold_program/0</text>
<text text-anchor="start" x="228.8" y="-213.8" font-family="Courier,monospace" font-size="9.00"> </text>
<text text-anchor="start" x="48.8" y="-204.8" font-family="Courier,monospace" font-size="9.00"> </text>
<text text-anchor="start" x="107.89" y="-204.8" font-family="Courier,monospace" font-size="9.00">min_clauses/1</text>
<text text-anchor="start" x="228.8" y="-204.8" font-family="Courier,monospace" font-size="9.00"> </text>
<text text-anchor="start" x="48.8" y="-195.8" font-family="Courier,monospace" font-size="9.00"> </text>
<text text-anchor="start" x="107.89" y="-195.8" font-family="Courier,monospace" font-size="9.00">max_clauses/1</text>
<text text-anchor="start" x="228.8" y="-195.8" font-family="Courier,monospace" font-size="9.00"> </text>
<text text-anchor="start" x="48.8" y="-186.8" font-family="Courier,monospace" font-size="9.00"> </text>
<text text-anchor="start" x="102.49" y="-186.8" font-family="Courier,monospace" font-size="9.00">max_inv_preds/1</text>
<text text-anchor="start" x="228.8" y="-186.8" font-family="Courier,monospace" font-size="9.00"> </text>
<text text-anchor="start" x="48.8" y="-177.8" font-family="Courier,monospace" font-size="9.00"> </text>
<text text-anchor="start" x="94.39" y="-177.8" font-family="Courier,monospace" font-size="9.00">metarule_next_id/1</text>
<text text-anchor="start" x="228.8" y="-177.8" font-family="Courier,monospace" font-size="9.00"> </text>
<text text-anchor="start" x="48.8" y="-168.8" font-family="Courier,monospace" font-size="9.00"> </text>
<text text-anchor="start" x="72.79" y="-168.8" font-family="Courier,monospace" font-size="9.00">logtalk::message_tokens//2</text>
<text text-anchor="start" x="228.8" y="-168.8" font-family="Courier,monospace" font-size="9.00"> </text>
<text text-anchor="start" x="48.8" y="-159.8" font-family="Courier,monospace" font-size="9.00"> </text>
<text text-anchor="start" x="56.59" y="-159.8" font-family="Courier,monospace" font-size="9.00">logtalk::message_prefix_stream/4</text>
<text text-anchor="start" x="228.8" y="-159.8" font-family="Courier,monospace" font-size="9.00"> </text>
</a>
</g>
</g>
<!-- expanding -->
<g id="node2" class="node">
<title>expanding</title>
<g id="a_node2"><a xlink:href="https://logtalk.org/library/expanding_0.html" xlink:title="https://logtalk.org/library/expanding_0.html">
<polygon fill="mediumaquamarine" stroke="black" stroke-dasharray="5,2" points="182.5,-481 91.5,-481 91.5,-445 188.5,-445 188.5,-475 182.5,-481"/>
<polyline fill="none" stroke="black" stroke-dasharray="5,2" points="182.5,-481 182.5,-475 "/>
<polyline fill="none" stroke="black" stroke-dasharray="5,2" points="188.5,-475 182.5,-475 "/>
<text text-anchor="start" x="99.8" y="-464.8" font-family="Courier,monospace" font-size="9.00"> </text>
<text text-anchor="start" x="110.8" y="-464.2" font-family="Courier,monospace" font-size="11.00">expanding</text>
<text text-anchor="start" x="175.8" y="-464.8" font-family="Courier,monospace" font-size="9.00"> </text>
<text text-anchor="start" x="99.8" y="-454.8" font-family="Courier,monospace" font-size="9.00"> </text>
<text text-anchor="start" x="104.79" y="-455.4" font-family="Courier,monospace" font-size="7.00">built&#45;in protocol</text>
<text text-anchor="start" x="175.8" y="-454.8" font-family="Courier,monospace" font-size="9.00"> </text>
</a>
</g>
</g>
<!-- metagol&#45;&gt;expanding -->
<g id="edge1" class="edge">
<title>metagol&#45;&gt;expanding</title>
<g id="a_edge1"><a xlink:href="https://logtalk.org/library/metagol_0.html" xlink:title="implements">
<path fill="none" stroke="black" d="M140,-364.25C140,-391.24 140,-417.91 140,-436.56"/>
<ellipse fill="black" stroke="black" cx="140" cy="-440.78" rx="4" ry="4"/>
</a>
</g>
<g id="a_edge1&#45;label"><a xlink:href="https://logtalk.org/library/metagol_0.html" xlink:title="https://logtalk.org/library/metagol_0.html">
<text text-anchor="start" x="140" y="-401.8" font-family="Courier,monospace" font-size="9.00">implements</text>
</a>
</g>
</g>
</g>
</svg>
