<?xml version="1.0" encoding="UTF-8" standalone="no"?>
<?xml-stylesheet href="diagrams.css" type="text/css"?>
<!DOCTYPE svg PUBLIC "-//W3C//DTD SVG 1.1//EN"
 "http://www.w3.org/Graphics/SVG/1.1/DTD/svg11.dtd">
<!-- Generated by graphviz version 9.0.0 (20230911.1827)
 -->
<!-- Title: ports Pages: 1 -->
<svg width="968pt" height="669pt"
 viewBox="72.00 72.00 896.00 597.25" xmlns="http://www.w3.org/2000/svg" xmlns:xlink="http://www.w3.org/1999/xlink">
<g id="graph0" class="graph" transform="scale(1 1) rotate(0) translate(76 593.25)">
<title>ports</title>
<polygon fill="white" stroke="none" points="-4,4 -4,-521.25 820,-521.25 820,4 -4,4"/>
<text text-anchor="start" x="8" y="-28.25" font-family="Monospace" font-size="10.00" fill="dimgray">Logtalk ports of third&#45;party software</text>
<text text-anchor="start" x="8" y="-17" font-family="Monospace" font-size="10.00" fill="dimgray">Inheritance diagram for library ports</text>
<text text-anchor="start" x="8" y="-5.75" font-family="Monospace" font-size="10.00" fill="dimgray">Generated on 2024&#45;01&#45;31, 16:04</text>
<g id="clust1" class="cluster">
<title>cluster_rlibrary_ports</title>
<g id="a_clust1"><a xlink:title="ports/">
<path fill="lightgray" stroke="dimgray" d="M20,-49.75C20,-49.75 796,-49.75 796,-49.75 802,-49.75 808,-55.75 808,-61.75 808,-61.75 808,-497.25 808,-497.25 808,-503.25 802,-509.25 796,-509.25 796,-509.25 20,-509.25 20,-509.25 14,-509.25 8,-503.25 8,-497.25 8,-497.25 8,-61.75 8,-61.75 8,-55.75 14,-49.75 20,-49.75"/>
<g id="a_clust1_0"><a xlink:href="https://github.com/LogtalkDotOrg/logtalk3/tree/a347ac786ccfbafa714aef7961fb6bd338c9da3d/ports/" xlink:title="https://github.com/LogtalkDotOrg/logtalk3/tree/a347ac786ccfbafa714aef7961fb6bd338c9da3d/ports/">
<text text-anchor="start" x="20" y="-59.5" font-family="Monospace" font-size="10.00" fill="dimgray">ports/</text>
</a>
</g>
</a>
</g>
</g>
<g id="clust4" class="cluster">
<title>cluster_library_fcube</title>
<g id="a_clust4"><a xlink:title="fcube/">
<path fill="whitesmoke" stroke="dimgray" d="M654,-136.5C654,-136.5 786,-136.5 786,-136.5 792,-136.5 798,-142.5 798,-148.5 798,-148.5 798,-340 798,-340 798,-346 792,-352 786,-352 786,-352 654,-352 654,-352 648,-352 642,-346 642,-340 642,-340 642,-148.5 642,-148.5 642,-142.5 648,-136.5 654,-136.5"/>
<g id="a_clust4_1"><a xlink:href="https://github.com/LogtalkDotOrg/logtalk3/tree/a347ac786ccfbafa714aef7961fb6bd338c9da3d/ports/fcube/" xlink:title="https://github.com/LogtalkDotOrg/logtalk3/tree/a347ac786ccfbafa714aef7961fb6bd338c9da3d/ports/fcube/">
<text text-anchor="start" x="654" y="-146.25" font-family="Monospace" font-size="10.00" fill="dimgray">fcube/</text>
</a>
</g>
</a>
</g>
</g>
<g id="clust6" class="cluster">
<title>cluster_file_/Users/pmoura/logtalk/ports/fcube/fcube.lgt</title>
<g id="a_clust6"><a xlink:title="fcube.lgt">
<path fill="snow" stroke="dimgray" d="M664,-173.75C664,-173.75 776,-173.75 776,-173.75 782,-173.75 788,-179.75 788,-185.75 788,-185.75 788,-330 788,-330 788,-336 782,-342 776,-342 776,-342 664,-342 664,-342 658,-342 652,-336 652,-330 652,-330 652,-185.75 652,-185.75 652,-179.75 658,-173.75 664,-173.75"/>
<g id="a_clust6_2"><a xlink:href="https://github.com/LogtalkDotOrg/logtalk3/tree/a347ac786ccfbafa714aef7961fb6bd338c9da3d/ports/fcube/fcube.lgt" xlink:title="https://github.com/LogtalkDotOrg/logtalk3/tree/a347ac786ccfbafa714aef7961fb6bd338c9da3d/ports/fcube/fcube.lgt">
<text text-anchor="start" x="664" y="-183.5" font-family="Monospace" font-size="10.00" fill="dimgray">fcube.lgt</text>
</a>
</g>
</a>
</g>
</g>
<g id="clust7" class="cluster">
<title>cluster_library_metagol</title>
<g id="a_clust7"><a xlink:title="metagol/">
<path fill="whitesmoke" stroke="dimgray" d="M180,-87C180,-87 620,-87 620,-87 626,-87 632,-93 632,-99 632,-99 632,-389.5 632,-389.5 632,-395.5 626,-401.5 620,-401.5 620,-401.5 180,-401.5 180,-401.5 174,-401.5 168,-395.5 168,-389.5 168,-389.5 168,-99 168,-99 168,-93 174,-87 180,-87"/>
<g id="a_clust7_3"><a xlink:href="https://github.com/LogtalkDotOrg/logtalk3/tree/a347ac786ccfbafa714aef7961fb6bd338c9da3d/ports/metagol/" xlink:title="https://github.com/LogtalkDotOrg/logtalk3/tree/a347ac786ccfbafa714aef7961fb6bd338c9da3d/ports/metagol/">
<text text-anchor="start" x="180" y="-96.75" font-family="Monospace" font-size="10.00" fill="dimgray">metagol/</text>
</a>
</g>
</a>
</g>
</g>
<g id="clust10" class="cluster">
<title>cluster_file_/Users/pmoura/logtalk/ports/metagol/metagol_example_protocol.lgt</title>
<g id="a_clust10"><a xlink:title="metagol_example_protocol.lgt">
<path fill="snow" stroke="dimgray" d="M420,-200.75C420,-200.75 610,-200.75 610,-200.75 616,-200.75 622,-206.75 622,-212.75 622,-212.75 622,-303 622,-303 622,-309 616,-315 610,-315 610,-315 420,-315 420,-315 414,-315 408,-309 408,-303 408,-303 408,-212.75 408,-212.75 408,-206.75 414,-200.75 420,-200.75"/>
<g id="a_clust10_4"><a xlink:href="https://github.com/LogtalkDotOrg/logtalk3/tree/a347ac786ccfbafa714aef7961fb6bd338c9da3d/ports/metagol/metagol_example_protocol.lgt" xlink:title="https://github.com/LogtalkDotOrg/logtalk3/tree/a347ac786ccfbafa714aef7961fb6bd338c9da3d/ports/metagol/metagol_example_protocol.lgt">
<text text-anchor="start" x="420" y="-210.5" font-family="Monospace" font-size="10.00" fill="dimgray">metagol_example_protocol.lgt</text>
</a>
</g>
</a>
</g>
</g>
<g id="clust9" class="cluster">
<title>cluster_file_/Users/pmoura/logtalk/ports/metagol/metagol.lgt</title>
<g id="a_clust9"><a xlink:title="metagol.lgt">
<path fill="snow" stroke="dimgray" d="M190,-124.25C190,-124.25 386,-124.25 386,-124.25 392,-124.25 398,-130.25 398,-136.25 398,-136.25 398,-379.5 398,-379.5 398,-385.5 392,-391.5 386,-391.5 386,-391.5 190,-391.5 190,-391.5 184,-391.5 178,-385.5 178,-379.5 178,-379.5 178,-136.25 178,-136.25 178,-130.25 184,-124.25 190,-124.25"/>
<g id="a_clust9_5"><a xlink:href="https://github.com/LogtalkDotOrg/logtalk3/tree/a347ac786ccfbafa714aef7961fb6bd338c9da3d/ports/metagol/metagol.lgt" xlink:title="https://github.com/LogtalkDotOrg/logtalk3/tree/a347ac786ccfbafa714aef7961fb6bd338c9da3d/ports/metagol/metagol.lgt">
<text text-anchor="start" x="190" y="-134" font-family="Monospace" font-size="10.00" fill="dimgray">metagol.lgt</text>
</a>
</g>
</a>
</g>
</g>
<g id="clust11" class="cluster">
<title>cluster_library_toychr</title>
<g id="a_clust11"><a xlink:title="toychr/">
<path fill="whitesmoke" stroke="dimgray" d="M30,-141C30,-141 146,-141 146,-141 152,-141 158,-147 158,-153 158,-153 158,-335.5 158,-335.5 158,-341.5 152,-347.5 146,-347.5 146,-347.5 30,-347.5 30,-347.5 24,-347.5 18,-341.5 18,-335.5 18,-335.5 18,-153 18,-153 18,-147 24,-141 30,-141"/>
<g id="a_clust11_6"><a xlink:href="https://github.com/LogtalkDotOrg/logtalk3/tree/a347ac786ccfbafa714aef7961fb6bd338c9da3d/ports/toychr/" xlink:title="https://github.com/LogtalkDotOrg/logtalk3/tree/a347ac786ccfbafa714aef7961fb6bd338c9da3d/ports/toychr/">
<text text-anchor="start" x="30" y="-150.75" font-family="Monospace" font-size="10.00" fill="dimgray">toychr/</text>
</a>
</g>
</a>
</g>
</g>
<g id="clust13" class="cluster">
<title>cluster_file_/Users/pmoura/logtalk/ports/toychr/toychrdb.lgt</title>
<g id="a_clust13"><a xlink:title="toychrdb.lgt">
<path fill="snow" stroke="dimgray" d="M40,-178.25C40,-178.25 136,-178.25 136,-178.25 142,-178.25 148,-184.25 148,-190.25 148,-190.25 148,-325.5 148,-325.5 148,-331.5 142,-337.5 136,-337.5 136,-337.5 40,-337.5 40,-337.5 34,-337.5 28,-331.5 28,-325.5 28,-325.5 28,-190.25 28,-190.25 28,-184.25 34,-178.25 40,-178.25"/>
<g id="a_clust13_7"><a xlink:href="https://github.com/LogtalkDotOrg/logtalk3/tree/a347ac786ccfbafa714aef7961fb6bd338c9da3d/ports/toychr/toychrdb.lgt" xlink:title="https://github.com/LogtalkDotOrg/logtalk3/tree/a347ac786ccfbafa714aef7961fb6bd338c9da3d/ports/toychr/toychrdb.lgt">
<text text-anchor="start" x="40" y="-188" font-family="Monospace" font-size="10.00" fill="dimgray">toychrdb.lgt</text>
</a>
</g>
</a>
</g>
</g>
<!-- fcube -->
<g id="node1" class="node">
<title>fcube</title>
<g id="a_node1"><a xlink:href="https://logtalk.org/library/fcube_0.html" xlink:title="https://logtalk.org/library/fcube_0.html">
<polygon fill="cornsilk" stroke="black" points="778,-332 662,-332 662,-211 778,-211 778,-332"/>
<g id="a_node1_8"><a xlink:href="fcube_object_xref_diagram.svg" xlink:title="Zoom">
<image xlink:href="zoom.png" width="11px" height="11px" preserveAspectRatio="xMinYMin meet" x="670" y="-328"/>
</a>
</g>
<text text-anchor="start" x="672.88" y="-307.32" font-family="Monospace" font-size="9.00"> </text>
<text text-anchor="start" x="706.12" y="-306.55" font-family="Monospace" font-size="11.00">fcube</text>
<text text-anchor="start" x="764.88" y="-307.32" font-family="Monospace" font-size="9.00"> </text>
<text text-anchor="start" x="672.88" y="-296.45" font-family="Monospace" font-size="9.00"> </text>
<text text-anchor="start" x="702.75" y="-297.98" font-family="Monospace" font-size="7.00">prototype</text>
<text text-anchor="start" x="764.88" y="-296.45" font-family="Monospace" font-size="9.00"> </text>
<text text-anchor="start" x="672.88" y="-287.45" font-family="Monospace" font-size="9.00"> </text>
<text text-anchor="start" x="672.88" y="-278.45" font-family="Monospace" font-size="9.00"> </text>
<text text-anchor="start" x="704.62" y="-278.45" font-family="Monospace" font-size="9.00">fcube/0</text>
<text text-anchor="start" x="764.88" y="-278.45" font-family="Monospace" font-size="9.00"> </text>
<text text-anchor="start" x="672.88" y="-269.45" font-family="Monospace" font-size="9.00"> </text>
<text text-anchor="start" x="702" y="-269.45" font-family="Monospace" font-size="9.00">decide/1</text>
<text text-anchor="start" x="764.88" y="-269.45" font-family="Monospace" font-size="9.00"> </text>
<text text-anchor="start" x="672.88" y="-260.45" font-family="Monospace" font-size="9.00"> </text>
<text text-anchor="start" x="702" y="-260.45" font-family="Monospace" font-size="9.00">decide/2</text>
<text text-anchor="start" x="764.88" y="-260.45" font-family="Monospace" font-size="9.00"> </text>
<text text-anchor="start" x="672.88" y="-251.45" font-family="Monospace" font-size="9.00"> </text>
<text text-anchor="start" x="681" y="-251.45" font-family="Monospace" font-size="9.00">op(1200,xfy,&lt;=&gt;)</text>
<text text-anchor="start" x="764.88" y="-251.45" font-family="Monospace" font-size="9.00"> </text>
<text text-anchor="start" x="672.88" y="-242.45" font-family="Monospace" font-size="9.00"> </text>
<text text-anchor="start" x="683.62" y="-242.45" font-family="Monospace" font-size="9.00">op(1110,xfy,=&gt;)</text>
<text text-anchor="start" x="764.88" y="-242.45" font-family="Monospace" font-size="9.00"> </text>
<text text-anchor="start" x="672.88" y="-233.45" font-family="Monospace" font-size="9.00"> </text>
<text text-anchor="start" x="683.62" y="-233.45" font-family="Monospace" font-size="9.00">op(1000,xfy,&amp;&amp;)</text>
<text text-anchor="start" x="764.88" y="-233.45" font-family="Monospace" font-size="9.00"> </text>
<text text-anchor="start" x="672.88" y="-224.45" font-family="Monospace" font-size="9.00"> </text>
<text text-anchor="start" x="691.5" y="-224.45" font-family="Monospace" font-size="9.00">op(500,fy,~)</text>
<text text-anchor="start" x="764.88" y="-224.45" font-family="Monospace" font-size="9.00"> </text>
<text text-anchor="start" x="672.88" y="-215.45" font-family="Monospace" font-size="9.00"> </text>
<text text-anchor="start" x="686.25" y="-215.45" font-family="Monospace" font-size="9.00">op(1100,xfy,v)</text>
<text text-anchor="start" x="764.88" y="-215.45" font-family="Monospace" font-size="9.00"> </text>
</a>
</g>
</g>
<!-- metagol -->
<g id="node2" class="node">
<title>metagol</title>
<g id="a_node2"><a xlink:href="https://logtalk.org/library/metagol_0.html" xlink:title="https://logtalk.org/library/metagol_0.html">
<polygon fill="cornsilk" stroke="black" points="388,-381.5 188,-381.5 188,-161.5 388,-161.5 388,-381.5"/>
<g id="a_node2_9"><a xlink:href="metagol_object_xref_diagram.svg" xlink:title="Zoom">
<image xlink:href="zoom.png" width="11px" height="11px" preserveAspectRatio="xMinYMin meet" x="196" y="-377.5"/>
</a>
</g>
<text text-anchor="start" x="198.88" y="-356.82" font-family="Monospace" font-size="9.00"> </text>
<text text-anchor="start" x="267.38" y="-356.05" font-family="Monospace" font-size="11.00">metagol</text>
<text text-anchor="start" x="374.88" y="-356.82" font-family="Monospace" font-size="9.00"> </text>
<text text-anchor="start" x="198.88" y="-345.95" font-family="Monospace" font-size="9.00"> </text>
<text text-anchor="start" x="270.75" y="-347.48" font-family="Monospace" font-size="7.00">prototype</text>
<text text-anchor="start" x="374.88" y="-345.95" font-family="Monospace" font-size="9.00"> </text>
<text text-anchor="start" x="198.88" y="-336.95" font-family="Monospace" font-size="9.00"> </text>
<text text-anchor="start" x="198.88" y="-327.95" font-family="Monospace" font-size="9.00"> </text>
<text text-anchor="start" x="272.62" y="-327.95" font-family="Monospace" font-size="9.00">learn/3</text>
<text text-anchor="start" x="374.88" y="-327.95" font-family="Monospace" font-size="9.00"> </text>
<text text-anchor="start" x="198.88" y="-318.95" font-family="Monospace" font-size="9.00"> </text>
<text text-anchor="start" x="272.62" y="-318.95" font-family="Monospace" font-size="9.00">learn/2</text>
<text text-anchor="start" x="374.88" y="-318.95" font-family="Monospace" font-size="9.00"> </text>
<text text-anchor="start" x="198.88" y="-309.95" font-family="Monospace" font-size="9.00"> </text>
<text text-anchor="start" x="262.12" y="-309.95" font-family="Monospace" font-size="9.00">learn_seq/2</text>
<text text-anchor="start" x="374.88" y="-309.95" font-family="Monospace" font-size="9.00"> </text>
<text text-anchor="start" x="198.88" y="-300.95" font-family="Monospace" font-size="9.00"> </text>
<text text-anchor="start" x="238.5" y="-300.95" font-family="Monospace" font-size="9.00">learn_with_timeout/4</text>
<text text-anchor="start" x="374.88" y="-300.95" font-family="Monospace" font-size="9.00"> </text>
<text text-anchor="start" x="198.88" y="-291.95" font-family="Monospace" font-size="9.00"> </text>
<text text-anchor="start" x="238.5" y="-291.95" font-family="Monospace" font-size="9.00">program_to_clauses/2</text>
<text text-anchor="start" x="374.88" y="-291.95" font-family="Monospace" font-size="9.00"> </text>
<text text-anchor="start" x="198.88" y="-282.95" font-family="Monospace" font-size="9.00"> </text>
<text text-anchor="start" x="270" y="-282.95" font-family="Monospace" font-size="9.00">pprint/1</text>
<text text-anchor="start" x="374.88" y="-282.95" font-family="Monospace" font-size="9.00"> </text>
<text text-anchor="start" x="198.88" y="-273.95" font-family="Monospace" font-size="9.00"> </text>
<text text-anchor="start" x="264.75" y="-273.95" font-family="Monospace" font-size="9.00">metarule/6</text>
<text text-anchor="start" x="374.88" y="-273.95" font-family="Monospace" font-size="9.00"> </text>
<text text-anchor="start" x="198.88" y="-264.95" font-family="Monospace" font-size="9.00"> </text>
<text text-anchor="start" x="262.12" y="-264.95" font-family="Monospace" font-size="9.00">head_pred/1</text>
<text text-anchor="start" x="374.88" y="-264.95" font-family="Monospace" font-size="9.00"> </text>
<text text-anchor="start" x="198.88" y="-255.95" font-family="Monospace" font-size="9.00"> </text>
<text text-anchor="start" x="262.12" y="-255.95" font-family="Monospace" font-size="9.00">body_pred/1</text>
<text text-anchor="start" x="374.88" y="-255.95" font-family="Monospace" font-size="9.00"> </text>
<text text-anchor="start" x="198.88" y="-246.95" font-family="Monospace" font-size="9.00"> </text>
<text text-anchor="start" x="277.88" y="-246.95" font-family="Monospace" font-size="9.00">ibk/3</text>
<text text-anchor="start" x="374.88" y="-246.95" font-family="Monospace" font-size="9.00"> </text>
<text text-anchor="start" x="198.88" y="-237.95" font-family="Monospace" font-size="9.00"> </text>
<text text-anchor="start" x="262.12" y="-237.95" font-family="Monospace" font-size="9.00">func_test/3</text>
<text text-anchor="start" x="374.88" y="-237.95" font-family="Monospace" font-size="9.00"> </text>
<text text-anchor="start" x="198.88" y="-228.95" font-family="Monospace" font-size="9.00"> </text>
<text text-anchor="start" x="259.5" y="-228.95" font-family="Monospace" font-size="9.00">functional/0</text>
<text text-anchor="start" x="374.88" y="-228.95" font-family="Monospace" font-size="9.00"> </text>
<text text-anchor="start" x="198.88" y="-219.95" font-family="Monospace" font-size="9.00"> </text>
<text text-anchor="start" x="256.88" y="-219.95" font-family="Monospace" font-size="9.00">min_clauses/1</text>
<text text-anchor="start" x="374.88" y="-219.95" font-family="Monospace" font-size="9.00"> </text>
<text text-anchor="start" x="198.88" y="-210.95" font-family="Monospace" font-size="9.00"> </text>
<text text-anchor="start" x="256.88" y="-210.95" font-family="Monospace" font-size="9.00">max_clauses/1</text>
<text text-anchor="start" x="374.88" y="-210.95" font-family="Monospace" font-size="9.00"> </text>
<text text-anchor="start" x="198.88" y="-201.95" font-family="Monospace" font-size="9.00"> </text>
<text text-anchor="start" x="251.62" y="-201.95" font-family="Monospace" font-size="9.00">max_inv_preds/1</text>
<text text-anchor="start" x="374.88" y="-201.95" font-family="Monospace" font-size="9.00"> </text>
<text text-anchor="start" x="198.88" y="-192.95" font-family="Monospace" font-size="9.00"> </text>
<text text-anchor="start" x="243.75" y="-192.95" font-family="Monospace" font-size="9.00">metarule_next_id/1</text>
<text text-anchor="start" x="374.88" y="-192.95" font-family="Monospace" font-size="9.00"> </text>
<text text-anchor="start" x="198.88" y="-183.95" font-family="Monospace" font-size="9.00"> </text>
<text text-anchor="start" x="267.38" y="-183.95" font-family="Monospace" font-size="9.00">timeout/1</text>
<text text-anchor="start" x="374.88" y="-183.95" font-family="Monospace" font-size="9.00"> </text>
<text text-anchor="start" x="198.88" y="-174.95" font-family="Monospace" font-size="9.00"> </text>
<text text-anchor="start" x="222.75" y="-174.95" font-family="Monospace" font-size="9.00">logtalk::message_tokens//2</text>
<text text-anchor="start" x="374.88" y="-174.95" font-family="Monospace" font-size="9.00"> </text>
<text text-anchor="start" x="198.88" y="-165.95" font-family="Monospace" font-size="9.00"> </text>
<text text-anchor="start" x="207" y="-165.95" font-family="Monospace" font-size="9.00">logtalk::message_prefix_stream/4</text>
<text text-anchor="start" x="374.88" y="-165.95" font-family="Monospace" font-size="9.00"> </text>
</a>
</g>
</g>
<!-- expanding -->
<g id="node5" class="node">
<title>expanding</title>
<g id="a_node5"><a xlink:href="https://logtalk.org/library/expanding_0.html" xlink:title="https://logtalk.org/library/expanding_0.html">
<polygon fill="mediumaquamarine" stroke="black" stroke-dasharray="5,2" points="202,-499.25 106,-499.25 106,-463.25 208,-463.25 208,-493.25 202,-499.25"/>
<polyline fill="none" stroke="black" stroke-dasharray="5,2" points="202,-499.25 202,-493.25"/>
<polyline fill="none" stroke="black" stroke-dasharray="5,2" points="208,-493.25 202,-493.25"/>
<text text-anchor="start" x="113.88" y="-482.07" font-family="Monospace" font-size="9.00"> </text>
<text text-anchor="start" x="126.62" y="-481.3" font-family="Monospace" font-size="11.00">expanding</text>
<text text-anchor="start" x="194.88" y="-482.07" font-family="Monospace" font-size="9.00"> </text>
<text text-anchor="start" x="113.88" y="-471.2" font-family="Monospace" font-size="9.00"> </text>
<text text-anchor="start" x="118.75" y="-472.73" font-family="Monospace" font-size="7.00">built&#45;in protocol</text>
<text text-anchor="start" x="194.88" y="-471.2" font-family="Monospace" font-size="9.00"> </text>
</a>
</g>
</g>
<!-- metagol&#45;&gt;expanding -->
<g id="edge1" class="edge">
<title>metagol&#45;&gt;expanding</title>
<g id="a_edge1"><a xlink:href="https://logtalk.org/library/metagol_0.html" xlink:title="implements">
<path fill="none" stroke="black" d="M223.8,-381.83C214.34,-397.21 204.56,-412.71 195,-427.25 188.78,-436.71 181.62,-446.87 175.21,-455.73"/>
<ellipse fill="black" stroke="black" cx="172.68" cy="-459.2" rx="4" ry="4"/>
</a>
</g>
<g id="a_edge1&#45;label"><a xlink:href="https://logtalk.org/library/metagol_0.html" xlink:title="https://logtalk.org/library/metagol_0.html">
<text text-anchor="start" x="200" y="-418.7" font-family="Monospace" font-size="9.00">implements</text>
</a>
</g>
</g>
<!-- metagol_example_protocol -->
<g id="node3" class="node">
<title>metagol_example_protocol</title>
<g id="a_node3"><a xlink:href="https://logtalk.org/library/metagol_example_protocol_0.html" xlink:title="https://logtalk.org/library/metagol_example_protocol_0.html">
<polygon fill="aquamarine" stroke="black" points="606,-305 418,-305 418,-238 612,-238 612,-299 606,-305"/>
<polyline fill="none" stroke="black" points="606,-305 606,-299"/>
<polyline fill="none" stroke="black" points="612,-299 606,-299"/>
<g id="a_node3_10"><a xlink:href="metagol_example_protocol_protocol_xref_diagram.svg" xlink:title="Zoom">
<image xlink:href="zoom.png" width="11px" height="11px" preserveAspectRatio="xMinYMin meet" x="426" y="-301"/>
</a>
</g>
<text text-anchor="start" x="428.88" y="-280.32" font-family="Monospace" font-size="9.00"> </text>
<text text-anchor="start" x="437" y="-279.55" font-family="Monospace" font-size="11.00">metagol_example_protocol</text>
<text text-anchor="start" x="598.88" y="-280.32" font-family="Monospace" font-size="9.00"> </text>
<text text-anchor="start" x="428.88" y="-269.45" font-family="Monospace" font-size="9.00"> </text>
<text text-anchor="start" x="500" y="-270.98" font-family="Monospace" font-size="7.00">protocol</text>
<text text-anchor="start" x="598.88" y="-269.45" font-family="Monospace" font-size="9.00"> </text>
<text text-anchor="start" x="428.88" y="-260.45" font-family="Monospace" font-size="9.00"> </text>
<text text-anchor="start" x="428.88" y="-251.45" font-family="Monospace" font-size="9.00"> </text>
<text text-anchor="start" x="499.62" y="-251.45" font-family="Monospace" font-size="9.00">learn/1</text>
<text text-anchor="start" x="598.88" y="-251.45" font-family="Monospace" font-size="9.00"> </text>
<text text-anchor="start" x="428.88" y="-242.45" font-family="Monospace" font-size="9.00"> </text>
<text text-anchor="start" x="499.62" y="-242.45" font-family="Monospace" font-size="9.00">learn/0</text>
<text text-anchor="start" x="598.88" y="-242.45" font-family="Monospace" font-size="9.00"> </text>
</a>
</g>
</g>
<!-- toychrdb -->
<g id="node4" class="node">
<title>toychrdb</title>
<g id="a_node4"><a xlink:href="https://logtalk.org/library/toychrdb_0.html" xlink:title="https://logtalk.org/library/toychrdb_0.html">
<polygon fill="cornsilk" stroke="black" points="138,-327.5 38,-327.5 38,-215.5 138,-215.5 138,-327.5"/>
<g id="a_node4_11"><a xlink:href="toychrdb_object_xref_diagram.svg" xlink:title="Zoom">
<image xlink:href="zoom.png" width="11px" height="11px" preserveAspectRatio="xMinYMin meet" x="46" y="-323.5"/>
</a>
</g>
<text text-anchor="start" x="48.88" y="-302.82" font-family="Monospace" font-size="9.00"> </text>
<text text-anchor="start" x="64" y="-302.05" font-family="Monospace" font-size="11.00">toychrdb</text>
<text text-anchor="start" x="124.88" y="-302.82" font-family="Monospace" font-size="9.00"> </text>
<text text-anchor="start" x="48.88" y="-291.95" font-family="Monospace" font-size="9.00"> </text>
<text text-anchor="start" x="70.75" y="-293.48" font-family="Monospace" font-size="7.00">prototype</text>
<text text-anchor="start" x="124.88" y="-291.95" font-family="Monospace" font-size="9.00"> </text>
<text text-anchor="start" x="48.88" y="-282.95" font-family="Monospace" font-size="9.00"> </text>
<text text-anchor="start" x="48.88" y="-273.95" font-family="Monospace" font-size="9.00"> </text>
<text text-anchor="start" x="70" y="-273.95" font-family="Monospace" font-size="9.00">chr_is/2</text>
<text text-anchor="start" x="124.88" y="-273.95" font-family="Monospace" font-size="9.00"> </text>
<text text-anchor="start" x="48.88" y="-264.95" font-family="Monospace" font-size="9.00"> </text>
<text text-anchor="start" x="62.12" y="-264.95" font-family="Monospace" font-size="9.00">chr_trace/0</text>
<text text-anchor="start" x="124.88" y="-264.95" font-family="Monospace" font-size="9.00"> </text>
<text text-anchor="start" x="48.88" y="-255.95" font-family="Monospace" font-size="9.00"> </text>
<text text-anchor="start" x="56.88" y="-255.95" font-family="Monospace" font-size="9.00">chr_notrace/0</text>
<text text-anchor="start" x="124.88" y="-255.95" font-family="Monospace" font-size="9.00"> </text>
<text text-anchor="start" x="48.88" y="-246.95" font-family="Monospace" font-size="9.00"> </text>
<text text-anchor="start" x="67.38" y="-246.95" font-family="Monospace" font-size="9.00">chr_spy/1</text>
<text text-anchor="start" x="124.88" y="-246.95" font-family="Monospace" font-size="9.00"> </text>
<text text-anchor="start" x="48.88" y="-237.95" font-family="Monospace" font-size="9.00"> </text>
<text text-anchor="start" x="62.12" y="-237.95" font-family="Monospace" font-size="9.00">chr_nospy/0</text>
<text text-anchor="start" x="124.88" y="-237.95" font-family="Monospace" font-size="9.00"> </text>
<text text-anchor="start" x="48.88" y="-228.95" font-family="Monospace" font-size="9.00"> </text>
<text text-anchor="start" x="59.5" y="-228.95" font-family="Monospace" font-size="9.00">chr_no_spy/1</text>
<text text-anchor="start" x="124.88" y="-228.95" font-family="Monospace" font-size="9.00"> </text>
<text text-anchor="start" x="48.88" y="-219.95" font-family="Monospace" font-size="9.00"> </text>
<text text-anchor="start" x="59.5" y="-219.95" font-family="Monospace" font-size="9.00">chr_option/2</text>
<text text-anchor="start" x="124.88" y="-219.95" font-family="Monospace" font-size="9.00"> </text>
</a>
</g>
</g>
<!-- toychrdb&#45;&gt;expanding -->
<g id="edge2" class="edge">
<title>toychrdb&#45;&gt;expanding</title>
<g id="a_edge2"><a xlink:href="https://logtalk.org/library/toychrdb_0.html" xlink:title="implements">
<path fill="none" stroke="black" d="M106.4,-327.9C120.05,-368.99 138.03,-423.13 148.47,-454.57"/>
<ellipse fill="black" stroke="black" cx="149.79" cy="-458.54" rx="4" ry="4"/>
</a>
</g>
<g id="a_edge2&#45;label"><a xlink:href="https://logtalk.org/library/toychrdb_0.html" xlink:title="https://logtalk.org/library/toychrdb_0.html">
<text text-anchor="start" x="138" y="-418.7" font-family="Monospace" font-size="9.00">implements</text>
</a>
</g>
</g>
</g>
</svg>
