<?xml version="1.0" encoding="UTF-8" standalone="no"?>
<?xml-stylesheet href="diagrams.css" type="text/css"?>
<!DOCTYPE svg PUBLIC "-//W3C//DTD SVG 1.1//EN"
 "http://www.w3.org/Graphics/SVG/1.1/DTD/svg11.dtd">
<!-- Generated by graphviz version 2.49.3 (20211023.0002)
 -->
<!-- Title: ports Pages: 1 -->
<svg width="740pt" height="689pt"
 viewBox="72.00 72.00 668.00 617.00" xmlns="http://www.w3.org/2000/svg" xmlns:xlink="http://www.w3.org/1999/xlink">
<g id="graph0" class="graph" transform="scale(1 1) rotate(0) translate(76 613)">
<title>ports</title>
<polygon fill="white" stroke="transparent" points="-4,4 -4,-541 592,-541 592,4 -4,4"/>
<text text-anchor="start" x="8" y="-29" font-family="Courier,monospace" font-size="10.00" fill="dimgray">Logtalk ports of third&#45;party software</text>
<text text-anchor="start" x="8" y="-18" font-family="Courier,monospace" font-size="10.00" fill="dimgray">Inheritance diagram for library ports</text>
<text text-anchor="start" x="8" y="-7" font-family="Courier,monospace" font-size="10.00" fill="dimgray">Generated on 2021&#45;11&#45;06, 11:19</text>
<g id="clust1" class="cluster">
<title>cluster_rlibrary_ports</title>
<g id="a_clust1"><a xlink:title="ports/">
<path fill="lightgray" stroke="dimgray" d="M20,-49C20,-49 568,-49 568,-49 574,-49 580,-55 580,-61 580,-61 580,-517 580,-517 580,-523 574,-529 568,-529 568,-529 20,-529 20,-529 14,-529 8,-523 8,-517 8,-517 8,-61 8,-61 8,-55 14,-49 20,-49"/>
<g id="a_clust1_0"><a xlink:href="https://github.com/LogtalkDotOrg/logtalk3/tree/a3989fb2f1e2fb4f9cfaf08f25bcd7b146d4b396/ports/" xlink:title="https://github.com/LogtalkDotOrg/logtalk3/tree/a3989fb2f1e2fb4f9cfaf08f25bcd7b146d4b396/ports/">
<text text-anchor="start" x="20" y="-59.5" font-family="Courier,monospace" font-size="10.00" fill="dimgray">ports/</text>
</a>
</g>
</a>
</g>
</g>
<g id="clust4" class="cluster">
<title>cluster_library_metagol</title>
<g id="a_clust4"><a xlink:title="metagol/">
<path fill="whitesmoke" stroke="dimgray" d="M172,-86C172,-86 558,-86 558,-86 564,-86 570,-92 570,-98 570,-98 570,-409 570,-409 570,-415 564,-421 558,-421 558,-421 172,-421 172,-421 166,-421 160,-415 160,-409 160,-409 160,-98 160,-98 160,-92 166,-86 172,-86"/>
<g id="a_clust4_1"><a xlink:href="https://github.com/LogtalkDotOrg/logtalk3/tree/a3989fb2f1e2fb4f9cfaf08f25bcd7b146d4b396/ports/metagol/" xlink:title="https://github.com/LogtalkDotOrg/logtalk3/tree/a3989fb2f1e2fb4f9cfaf08f25bcd7b146d4b396/ports/metagol/">
<text text-anchor="start" x="172" y="-96.5" font-family="Courier,monospace" font-size="10.00" fill="dimgray">metagol/</text>
</a>
</g>
</a>
</g>
</g>
<g id="clust6" class="cluster">
<title>cluster_file_/Users/pmoura/logtalk/ports/metagol/metagol.lgt</title>
<g id="a_clust6"><a xlink:title="metagol.lgt">
<path fill="snow" stroke="dimgray" d="M376,-123C376,-123 548,-123 548,-123 554,-123 560,-129 560,-135 560,-135 560,-399 560,-399 560,-405 554,-411 548,-411 548,-411 376,-411 376,-411 370,-411 364,-405 364,-399 364,-399 364,-135 364,-135 364,-129 370,-123 376,-123"/>
<g id="a_clust6_2"><a xlink:href="https://github.com/LogtalkDotOrg/logtalk3/tree/a3989fb2f1e2fb4f9cfaf08f25bcd7b146d4b396/ports/metagol/metagol.lgt" xlink:title="https://github.com/LogtalkDotOrg/logtalk3/tree/a3989fb2f1e2fb4f9cfaf08f25bcd7b146d4b396/ports/metagol/metagol.lgt">
<text text-anchor="start" x="376.5" y="-133.5" font-family="Courier,monospace" font-size="10.00" fill="dimgray">metagol.lgt</text>
</a>
</g>
</a>
</g>
</g>
<g id="clust7" class="cluster">
<title>cluster_file_/Users/pmoura/logtalk/ports/metagol/metagol_example_protocol.lgt</title>
<g id="a_clust7"><a xlink:title="metagol_example_protocol.lgt">
<path fill="snow" stroke="dimgray" d="M182,-208C182,-208 342,-208 342,-208 348,-208 354,-214 354,-220 354,-220 354,-314 354,-314 354,-320 348,-326 342,-326 342,-326 182,-326 182,-326 176,-326 170,-320 170,-314 170,-314 170,-220 170,-220 170,-214 176,-208 182,-208"/>
<g id="a_clust7_3"><a xlink:href="https://github.com/LogtalkDotOrg/logtalk3/tree/a3989fb2f1e2fb4f9cfaf08f25bcd7b146d4b396/ports/metagol/metagol_example_protocol.lgt" xlink:title="https://github.com/LogtalkDotOrg/logtalk3/tree/a3989fb2f1e2fb4f9cfaf08f25bcd7b146d4b396/ports/metagol/metagol_example_protocol.lgt">
<text text-anchor="start" x="182" y="-218.5" font-family="Courier,monospace" font-size="10.00" fill="dimgray">metagol_example_protocol.lgt</text>
</a>
</g>
</a>
</g>
</g>
<g id="clust8" class="cluster">
<title>cluster_library_toychr</title>
<g id="a_clust8"><a xlink:title="toychr/">
<path fill="whitesmoke" stroke="dimgray" d="M30,-146C30,-146 138,-146 138,-146 144,-146 150,-152 150,-158 150,-158 150,-349 150,-349 150,-355 144,-361 138,-361 138,-361 30,-361 30,-361 24,-361 18,-355 18,-349 18,-349 18,-158 18,-158 18,-152 24,-146 30,-146"/>
<g id="a_clust8_4"><a xlink:href="https://github.com/LogtalkDotOrg/logtalk3/tree/a3989fb2f1e2fb4f9cfaf08f25bcd7b146d4b396/ports/toychr/" xlink:title="https://github.com/LogtalkDotOrg/logtalk3/tree/a3989fb2f1e2fb4f9cfaf08f25bcd7b146d4b396/ports/toychr/">
<text text-anchor="start" x="30.5" y="-156.5" font-family="Courier,monospace" font-size="10.00" fill="dimgray">toychr/</text>
</a>
</g>
</a>
</g>
</g>
<g id="clust10" class="cluster">
<title>cluster_file_/Users/pmoura/logtalk/ports/toychr/toychrdb.lgt</title>
<g id="a_clust10"><a xlink:title="toychrdb.lgt">
<path fill="snow" stroke="dimgray" d="M40,-183C40,-183 128,-183 128,-183 134,-183 140,-189 140,-195 140,-195 140,-339 140,-339 140,-345 134,-351 128,-351 128,-351 40,-351 40,-351 34,-351 28,-345 28,-339 28,-339 28,-195 28,-195 28,-189 34,-183 40,-183"/>
<g id="a_clust10_5"><a xlink:href="https://github.com/LogtalkDotOrg/logtalk3/tree/a3989fb2f1e2fb4f9cfaf08f25bcd7b146d4b396/ports/toychr/toychrdb.lgt" xlink:title="https://github.com/LogtalkDotOrg/logtalk3/tree/a3989fb2f1e2fb4f9cfaf08f25bcd7b146d4b396/ports/toychr/toychrdb.lgt">
<text text-anchor="start" x="40" y="-193.5" font-family="Courier,monospace" font-size="10.00" fill="dimgray">toychrdb.lgt</text>
</a>
</g>
</a>
</g>
</g>
<!-- metagol -->
<g id="node1" class="node">
<title>metagol</title>
<g id="a_node1"><a xlink:href="https://logtalk.org/library/metagol_0.html" xlink:title="https://logtalk.org/library/metagol_0.html">
<polygon fill="cornsilk" stroke="black" points="550,-401 374,-401 374,-160 550,-160 550,-401"/>
<g id="a_node1_6"><a xlink:href="metagol_object_xref_diagram.svg" xlink:title="Zoom">
<image xlink:href="zoom.png" width="11px" height="11px" preserveAspectRatio="xMinYMin meet" x="382" y="-396.5"/>
</a>
</g>
<text text-anchor="start" x="385" y="-377.3" font-family="Courier,monospace" font-size="9.00"> </text>
<text text-anchor="start" x="445.5" y="-376.7" font-family="Courier,monospace" font-size="11.00">metagol</text>
<text text-anchor="start" x="537" y="-377.3" font-family="Courier,monospace" font-size="9.00"> </text>
<text text-anchor="start" x="385" y="-366.3" font-family="Courier,monospace" font-size="9.00"> </text>
<text text-anchor="start" x="449" y="-366.9" font-family="Courier,monospace" font-size="7.00">prototype</text>
<text text-anchor="start" x="537" y="-366.3" font-family="Courier,monospace" font-size="9.00"> </text>
<text text-anchor="start" x="385" y="-356.3" font-family="Courier,monospace" font-size="9.00"> </text>
<text text-anchor="start" x="385" y="-346.3" font-family="Courier,monospace" font-size="9.00"> </text>
<text text-anchor="start" x="449" y="-346.3" font-family="Courier,monospace" font-size="9.00">learn/3</text>
<text text-anchor="start" x="537" y="-346.3" font-family="Courier,monospace" font-size="9.00"> </text>
<text text-anchor="start" x="385" y="-336.3" font-family="Courier,monospace" font-size="9.00"> </text>
<text text-anchor="start" x="449" y="-336.3" font-family="Courier,monospace" font-size="9.00">learn/2</text>
<text text-anchor="start" x="537" y="-336.3" font-family="Courier,monospace" font-size="9.00"> </text>
<text text-anchor="start" x="385" y="-326.3" font-family="Courier,monospace" font-size="9.00"> </text>
<text text-anchor="start" x="440" y="-326.3" font-family="Courier,monospace" font-size="9.00">learn_seq/2</text>
<text text-anchor="start" x="537" y="-326.3" font-family="Courier,monospace" font-size="9.00"> </text>
<text text-anchor="start" x="385" y="-316.3" font-family="Courier,monospace" font-size="9.00"> </text>
<text text-anchor="start" x="420" y="-316.3" font-family="Courier,monospace" font-size="9.00">learn_with_timeout/4</text>
<text text-anchor="start" x="537" y="-316.3" font-family="Courier,monospace" font-size="9.00"> </text>
<text text-anchor="start" x="385" y="-306.3" font-family="Courier,monospace" font-size="9.00"> </text>
<text text-anchor="start" x="420" y="-306.3" font-family="Courier,monospace" font-size="9.00">program_to_clauses/2</text>
<text text-anchor="start" x="537" y="-306.3" font-family="Courier,monospace" font-size="9.00"> </text>
<text text-anchor="start" x="385" y="-296.3" font-family="Courier,monospace" font-size="9.00"> </text>
<text text-anchor="start" x="447" y="-296.3" font-family="Courier,monospace" font-size="9.00">pprint/1</text>
<text text-anchor="start" x="537" y="-296.3" font-family="Courier,monospace" font-size="9.00"> </text>
<text text-anchor="start" x="385" y="-286.3" font-family="Courier,monospace" font-size="9.00"> </text>
<text text-anchor="start" x="442.5" y="-286.3" font-family="Courier,monospace" font-size="9.00">metarule/6</text>
<text text-anchor="start" x="537" y="-286.3" font-family="Courier,monospace" font-size="9.00"> </text>
<text text-anchor="start" x="385" y="-276.3" font-family="Courier,monospace" font-size="9.00"> </text>
<text text-anchor="start" x="440" y="-276.3" font-family="Courier,monospace" font-size="9.00">head_pred/1</text>
<text text-anchor="start" x="537" y="-276.3" font-family="Courier,monospace" font-size="9.00"> </text>
<text text-anchor="start" x="385" y="-266.3" font-family="Courier,monospace" font-size="9.00"> </text>
<text text-anchor="start" x="440" y="-266.3" font-family="Courier,monospace" font-size="9.00">body_pred/1</text>
<text text-anchor="start" x="537" y="-266.3" font-family="Courier,monospace" font-size="9.00"> </text>
<text text-anchor="start" x="385" y="-256.3" font-family="Courier,monospace" font-size="9.00"> </text>
<text text-anchor="start" x="453.5" y="-256.3" font-family="Courier,monospace" font-size="9.00">ibk/3</text>
<text text-anchor="start" x="537" y="-256.3" font-family="Courier,monospace" font-size="9.00"> </text>
<text text-anchor="start" x="385" y="-246.3" font-family="Courier,monospace" font-size="9.00"> </text>
<text text-anchor="start" x="440" y="-246.3" font-family="Courier,monospace" font-size="9.00">func_test/3</text>
<text text-anchor="start" x="537" y="-246.3" font-family="Courier,monospace" font-size="9.00"> </text>
<text text-anchor="start" x="385" y="-236.3" font-family="Courier,monospace" font-size="9.00"> </text>
<text text-anchor="start" x="438" y="-236.3" font-family="Courier,monospace" font-size="9.00">functional/0</text>
<text text-anchor="start" x="537" y="-236.3" font-family="Courier,monospace" font-size="9.00"> </text>
<text text-anchor="start" x="385" y="-226.3" font-family="Courier,monospace" font-size="9.00"> </text>
<text text-anchor="start" x="435.5" y="-226.3" font-family="Courier,monospace" font-size="9.00">min_clauses/1</text>
<text text-anchor="start" x="537" y="-226.3" font-family="Courier,monospace" font-size="9.00"> </text>
<text text-anchor="start" x="385" y="-216.3" font-family="Courier,monospace" font-size="9.00"> </text>
<text text-anchor="start" x="435.5" y="-216.3" font-family="Courier,monospace" font-size="9.00">max_clauses/1</text>
<text text-anchor="start" x="537" y="-216.3" font-family="Courier,monospace" font-size="9.00"> </text>
<text text-anchor="start" x="385" y="-206.3" font-family="Courier,monospace" font-size="9.00"> </text>
<text text-anchor="start" x="431" y="-206.3" font-family="Courier,monospace" font-size="9.00">max_inv_preds/1</text>
<text text-anchor="start" x="537" y="-206.3" font-family="Courier,monospace" font-size="9.00"> </text>
<text text-anchor="start" x="385" y="-196.3" font-family="Courier,monospace" font-size="9.00"> </text>
<text text-anchor="start" x="424.5" y="-196.3" font-family="Courier,monospace" font-size="9.00">metarule_next_id/1</text>
<text text-anchor="start" x="537" y="-196.3" font-family="Courier,monospace" font-size="9.00"> </text>
<text text-anchor="start" x="385" y="-186.3" font-family="Courier,monospace" font-size="9.00"> </text>
<text text-anchor="start" x="444.5" y="-186.3" font-family="Courier,monospace" font-size="9.00">timeout/1</text>
<text text-anchor="start" x="537" y="-186.3" font-family="Courier,monospace" font-size="9.00"> </text>
<text text-anchor="start" x="385" y="-176.3" font-family="Courier,monospace" font-size="9.00"> </text>
<text text-anchor="start" x="406.5" y="-176.3" font-family="Courier,monospace" font-size="9.00">logtalk::message_tokens//2</text>
<text text-anchor="start" x="537" y="-176.3" font-family="Courier,monospace" font-size="9.00"> </text>
<text text-anchor="start" x="385" y="-166.3" font-family="Courier,monospace" font-size="9.00"> </text>
<text text-anchor="start" x="393" y="-166.3" font-family="Courier,monospace" font-size="9.00">logtalk::message_prefix_stream/4</text>
<text text-anchor="start" x="537" y="-166.3" font-family="Courier,monospace" font-size="9.00"> </text>
</a>
</g>
</g>
<!-- expanding -->
<g id="node4" class="node">
<title>expanding</title>
<g id="a_node4"><a xlink:href="https://logtalk.org/library/expanding_0.html" xlink:title="https://logtalk.org/library/expanding_0.html">
<polygon fill="mediumaquamarine" stroke="black" stroke-dasharray="5,2" points="232,-519 152,-519 152,-483 238,-483 238,-513 232,-519"/>
<polyline fill="none" stroke="black" stroke-dasharray="5,2" points="232,-519 232,-513 "/>
<polyline fill="none" stroke="black" stroke-dasharray="5,2" points="238,-513 232,-513 "/>
<text text-anchor="start" x="160" y="-503.8" font-family="Courier,monospace" font-size="9.00"> </text>
<text text-anchor="start" x="170" y="-503.2" font-family="Courier,monospace" font-size="11.00">expanding</text>
<text text-anchor="start" x="225" y="-503.8" font-family="Courier,monospace" font-size="9.00"> </text>
<text text-anchor="start" x="160" y="-492.8" font-family="Courier,monospace" font-size="9.00"> </text>
<text text-anchor="start" x="165" y="-493.4" font-family="Courier,monospace" font-size="7.00">built&#45;in protocol</text>
<text text-anchor="start" x="225" y="-492.8" font-family="Courier,monospace" font-size="9.00"> </text>
</a>
</g>
</g>
<!-- metagol&#45;&gt;expanding -->
<g id="edge1" class="edge">
<title>metagol&#45;&gt;expanding</title>
<g id="a_edge1"><a xlink:href="https://logtalk.org/library/metagol_0.html" xlink:title="implements">
<path fill="none" stroke="black" d="M379.26,-401.2C372.44,-408.25 365.33,-414.94 358,-421 324.54,-448.66 279.76,-469.46 245.6,-482.76"/>
<ellipse fill="black" stroke="black" cx="241.78" cy="-484.22" rx="4" ry="4"/>
</a>
</g>
<g id="a_edge1&#45;label"><a xlink:href="https://logtalk.org/library/metagol_0.html" xlink:title="https://logtalk.org/library/metagol_0.html">
<text text-anchor="start" x="334" y="-439.8" font-family="Courier,monospace" font-size="9.00">implements</text>
</a>
</g>
</g>
<!-- metagol_example_protocol -->
<g id="node2" class="node">
<title>metagol_example_protocol</title>
<g id="a_node2"><a xlink:href="https://logtalk.org/library/metagol_example_protocol_0.html" xlink:title="https://logtalk.org/library/metagol_example_protocol_0.html">
<polygon fill="aquamarine" stroke="black" points="338,-316 180,-316 180,-245 344,-245 344,-310 338,-316"/>
<polyline fill="none" stroke="black" points="338,-316 338,-310 "/>
<polyline fill="none" stroke="black" points="344,-310 338,-310 "/>
<g id="a_node2_7"><a xlink:href="metagol_example_protocol_protocol_xref_diagram.svg" xlink:title="Zoom">
<image xlink:href="zoom.png" width="11px" height="11px" preserveAspectRatio="xMinYMin meet" x="188" y="-311.5"/>
</a>
</g>
<text text-anchor="start" x="191" y="-292.3" font-family="Courier,monospace" font-size="9.00"> </text>
<text text-anchor="start" x="199" y="-291.7" font-family="Courier,monospace" font-size="11.00">metagol_example_protocol</text>
<text text-anchor="start" x="331" y="-292.3" font-family="Courier,monospace" font-size="9.00"> </text>
<text text-anchor="start" x="191" y="-281.3" font-family="Courier,monospace" font-size="9.00"> </text>
<text text-anchor="start" x="251" y="-281.9" font-family="Courier,monospace" font-size="7.00">protocol</text>
<text text-anchor="start" x="331" y="-281.3" font-family="Courier,monospace" font-size="9.00"> </text>
<text text-anchor="start" x="191" y="-271.3" font-family="Courier,monospace" font-size="9.00"> </text>
<text text-anchor="start" x="191" y="-261.3" font-family="Courier,monospace" font-size="9.00"> </text>
<text text-anchor="start" x="249" y="-261.3" font-family="Courier,monospace" font-size="9.00">learn/1</text>
<text text-anchor="start" x="331" y="-261.3" font-family="Courier,monospace" font-size="9.00"> </text>
<text text-anchor="start" x="191" y="-251.3" font-family="Courier,monospace" font-size="9.00"> </text>
<text text-anchor="start" x="249" y="-251.3" font-family="Courier,monospace" font-size="9.00">learn/0</text>
<text text-anchor="start" x="331" y="-251.3" font-family="Courier,monospace" font-size="9.00"> </text>
</a>
</g>
</g>
<!-- toychrdb -->
<g id="node3" class="node">
<title>toychrdb</title>
<g id="a_node3"><a xlink:href="https://logtalk.org/library/toychrdb_0.html" xlink:title="https://logtalk.org/library/toychrdb_0.html">
<polygon fill="cornsilk" stroke="black" points="129.5,-341 38.5,-341 38.5,-220 129.5,-220 129.5,-341"/>
<g id="a_node3_8"><a xlink:href="toychrdb_object_xref_diagram.svg" xlink:title="Zoom">
<image xlink:href="zoom.png" width="11px" height="11px" preserveAspectRatio="xMinYMin meet" x="47" y="-336.5"/>
</a>
</g>
<text text-anchor="start" x="50" y="-317.3" font-family="Courier,monospace" font-size="9.00"> </text>
<text text-anchor="start" x="65.5" y="-316.7" font-family="Courier,monospace" font-size="11.00">toychrdb</text>
<text text-anchor="start" x="117" y="-317.3" font-family="Courier,monospace" font-size="9.00"> </text>
<text text-anchor="start" x="50" y="-306.3" font-family="Courier,monospace" font-size="9.00"> </text>
<text text-anchor="start" x="71.5" y="-306.9" font-family="Courier,monospace" font-size="7.00">prototype</text>
<text text-anchor="start" x="117" y="-306.3" font-family="Courier,monospace" font-size="9.00"> </text>
<text text-anchor="start" x="50" y="-296.3" font-family="Courier,monospace" font-size="9.00"> </text>
<text text-anchor="start" x="50" y="-286.3" font-family="Courier,monospace" font-size="9.00"> </text>
<text text-anchor="start" x="69.5" y="-286.3" font-family="Courier,monospace" font-size="9.00">chr_is/2</text>
<text text-anchor="start" x="117" y="-286.3" font-family="Courier,monospace" font-size="9.00"> </text>
<text text-anchor="start" x="50" y="-276.3" font-family="Courier,monospace" font-size="9.00"> </text>
<text text-anchor="start" x="62.5" y="-276.3" font-family="Courier,monospace" font-size="9.00">chr_trace/0</text>
<text text-anchor="start" x="117" y="-276.3" font-family="Courier,monospace" font-size="9.00"> </text>
<text text-anchor="start" x="50" y="-266.3" font-family="Courier,monospace" font-size="9.00"> </text>
<text text-anchor="start" x="58" y="-266.3" font-family="Courier,monospace" font-size="9.00">chr_notrace/0</text>
<text text-anchor="start" x="117" y="-266.3" font-family="Courier,monospace" font-size="9.00"> </text>
<text text-anchor="start" x="50" y="-256.3" font-family="Courier,monospace" font-size="9.00"> </text>
<text text-anchor="start" x="67" y="-256.3" font-family="Courier,monospace" font-size="9.00">chr_spy/1</text>
<text text-anchor="start" x="117" y="-256.3" font-family="Courier,monospace" font-size="9.00"> </text>
<text text-anchor="start" x="50" y="-246.3" font-family="Courier,monospace" font-size="9.00"> </text>
<text text-anchor="start" x="62.5" y="-246.3" font-family="Courier,monospace" font-size="9.00">chr_nospy/0</text>
<text text-anchor="start" x="117" y="-246.3" font-family="Courier,monospace" font-size="9.00"> </text>
<text text-anchor="start" x="50" y="-236.3" font-family="Courier,monospace" font-size="9.00"> </text>
<text text-anchor="start" x="60.5" y="-236.3" font-family="Courier,monospace" font-size="9.00">chr_no_spy/1</text>
<text text-anchor="start" x="117" y="-236.3" font-family="Courier,monospace" font-size="9.00"> </text>
<text text-anchor="start" x="50" y="-226.3" font-family="Courier,monospace" font-size="9.00"> </text>
<text text-anchor="start" x="60.5" y="-226.3" font-family="Courier,monospace" font-size="9.00">chr_option/2</text>
<text text-anchor="start" x="117" y="-226.3" font-family="Courier,monospace" font-size="9.00"> </text>
</a>
</g>
</g>
<!-- toychrdb&#45;&gt;expanding -->
<g id="edge2" class="edge">
<title>toychrdb&#45;&gt;expanding</title>
<g id="a_edge2"><a xlink:href="https://logtalk.org/library/toychrdb_0.html" xlink:title="implements">
<path fill="none" stroke="black" d="M114.33,-341.21C136.79,-385.42 166.24,-443.38 182.62,-475.64"/>
<ellipse fill="black" stroke="black" cx="184.49" cy="-479.31" rx="4" ry="4"/>
</a>
</g>
<g id="a_edge2&#45;label"><a xlink:href="https://logtalk.org/library/toychrdb_0.html" xlink:title="https://logtalk.org/library/toychrdb_0.html">
<text text-anchor="start" x="165" y="-439.8" font-family="Courier,monospace" font-size="9.00">implements</text>
</a>
</g>
</g>
</g>
</svg>
