<?xml version="1.0" encoding="UTF-8" standalone="no"?>
<?xml-stylesheet href="diagrams.css" type="text/css"?>
<!DOCTYPE svg PUBLIC "-//W3C//DTD SVG 1.1//EN"
 "http://www.w3.org/Graphics/SVG/1.1/DTD/svg11.dtd">
<!-- Generated by graphviz version 11.0.0 (20240428.1522)
 -->
<!-- Title: ports Pages: 1 -->
<svg width="968pt" height="723pt"
 viewBox="72.00 72.00 896.00 650.75" xmlns="http://www.w3.org/2000/svg" xmlns:xlink="http://www.w3.org/1999/xlink">
<g id="graph0" class="graph" transform="scale(1 1) rotate(0) translate(76 646.75)">
<title>ports</title>
<polygon fill="white" stroke="none" points="-4,4 -4,-574.75 820,-574.75 820,4 -4,4"/>
<text text-anchor="start" x="8" y="-32.75" font-family="Monospace" font-size="10.00" fill="dimgray">Logtalk ports of third&#45;party software</text>
<text text-anchor="start" x="8" y="-20" font-family="Monospace" font-size="10.00" fill="dimgray">Inheritance diagram for library ports</text>
<text text-anchor="start" x="8" y="-7.25" font-family="Monospace" font-size="10.00" fill="dimgray">Generated on 2024&#45;06&#45;11, 22:32</text>
<g id="clust1" class="cluster">
<title>cluster_rlibrary_ports</title>
<g id="a_clust1"><a xlink:title="ports/">
<path fill="lightgray" stroke="dimgray" d="M20,-54.25C20,-54.25 796,-54.25 796,-54.25 802,-54.25 808,-60.25 808,-66.25 808,-66.25 808,-550.75 808,-550.75 808,-556.75 802,-562.75 796,-562.75 796,-562.75 20,-562.75 20,-562.75 14,-562.75 8,-556.75 8,-550.75 8,-550.75 8,-66.25 8,-66.25 8,-60.25 14,-54.25 20,-54.25"/>
<g id="a_clust1_0"><a xlink:href="https://github.com/LogtalkDotOrg/logtalk3/tree/055ca336d5eafebaa6cd9734e164bef00628019b/ports/" xlink:title="https://github.com/LogtalkDotOrg/logtalk3/tree/055ca336d5eafebaa6cd9734e164bef00628019b/ports/">
<text text-anchor="start" x="20" y="-65.5" font-family="Monospace" font-size="10.00" fill="dimgray">ports/</text>
</a>
</g>
</a>
</g>
</g>
<g id="clust4" class="cluster">
<title>cluster_library_fcube</title>
<g id="a_clust4"><a xlink:title="fcube/">
<path fill="whitesmoke" stroke="dimgray" d="M30,-148C30,-148 162,-148 162,-148 168,-148 174,-154 174,-160 174,-160 174,-386.5 174,-386.5 174,-392.5 168,-398.5 162,-398.5 162,-398.5 30,-398.5 30,-398.5 24,-398.5 18,-392.5 18,-386.5 18,-386.5 18,-160 18,-160 18,-154 24,-148 30,-148"/>
<g id="a_clust4_1"><a xlink:href="https://github.com/LogtalkDotOrg/logtalk3/tree/055ca336d5eafebaa6cd9734e164bef00628019b/ports/fcube/" xlink:title="https://github.com/LogtalkDotOrg/logtalk3/tree/055ca336d5eafebaa6cd9734e164bef00628019b/ports/fcube/">
<text text-anchor="start" x="30" y="-159.25" font-family="Monospace" font-size="10.00" fill="dimgray">fcube/</text>
</a>
</g>
</a>
</g>
</g>
<g id="clust6" class="cluster">
<title>cluster_file_/Users/pmoura/logtalk/ports/fcube/fcube.lgt</title>
<g id="a_clust6"><a xlink:title="fcube.lgt">
<path fill="snow" stroke="dimgray" d="M40,-186.75C40,-186.75 152,-186.75 152,-186.75 158,-186.75 164,-192.75 164,-198.75 164,-198.75 164,-376.5 164,-376.5 164,-382.5 158,-388.5 152,-388.5 152,-388.5 40,-388.5 40,-388.5 34,-388.5 28,-382.5 28,-376.5 28,-376.5 28,-198.75 28,-198.75 28,-192.75 34,-186.75 40,-186.75"/>
<g id="a_clust6_2"><a xlink:href="https://github.com/LogtalkDotOrg/logtalk3/tree/055ca336d5eafebaa6cd9734e164bef00628019b/ports/fcube/fcube.lgt" xlink:title="https://github.com/LogtalkDotOrg/logtalk3/tree/055ca336d5eafebaa6cd9734e164bef00628019b/ports/fcube/fcube.lgt">
<text text-anchor="start" x="40" y="-198" font-family="Monospace" font-size="10.00" fill="dimgray">fcube.lgt</text>
</a>
</g>
</a>
</g>
</g>
<g id="clust7" class="cluster">
<title>cluster_library_metagol</title>
<g id="a_clust7"><a xlink:title="metagol/">
<path fill="whitesmoke" stroke="dimgray" d="M196,-93C196,-93 636,-93 636,-93 642,-93 648,-99 648,-105 648,-105 648,-441.5 648,-441.5 648,-447.5 642,-453.5 636,-453.5 636,-453.5 196,-453.5 196,-453.5 190,-453.5 184,-447.5 184,-441.5 184,-441.5 184,-105 184,-105 184,-99 190,-93 196,-93"/>
<g id="a_clust7_3"><a xlink:href="https://github.com/LogtalkDotOrg/logtalk3/tree/055ca336d5eafebaa6cd9734e164bef00628019b/ports/metagol/" xlink:title="https://github.com/LogtalkDotOrg/logtalk3/tree/055ca336d5eafebaa6cd9734e164bef00628019b/ports/metagol/">
<text text-anchor="start" x="196" y="-104.25" font-family="Monospace" font-size="10.00" fill="dimgray">metagol/</text>
</a>
</g>
</a>
</g>
</g>
<g id="clust9" class="cluster">
<title>cluster_file_/Users/pmoura/logtalk/ports/metagol/metagol.lgt</title>
<g id="a_clust9"><a xlink:title="metagol.lgt">
<path fill="snow" stroke="dimgray" d="M206,-131.75C206,-131.75 402,-131.75 402,-131.75 408,-131.75 414,-137.75 414,-143.75 414,-143.75 414,-431.5 414,-431.5 414,-437.5 408,-443.5 402,-443.5 402,-443.5 206,-443.5 206,-443.5 200,-443.5 194,-437.5 194,-431.5 194,-431.5 194,-143.75 194,-143.75 194,-137.75 200,-131.75 206,-131.75"/>
<g id="a_clust9_4"><a xlink:href="https://github.com/LogtalkDotOrg/logtalk3/tree/055ca336d5eafebaa6cd9734e164bef00628019b/ports/metagol/metagol.lgt" xlink:title="https://github.com/LogtalkDotOrg/logtalk3/tree/055ca336d5eafebaa6cd9734e164bef00628019b/ports/metagol/metagol.lgt">
<text text-anchor="start" x="206" y="-143" font-family="Monospace" font-size="10.00" fill="dimgray">metagol.lgt</text>
</a>
</g>
</a>
</g>
</g>
<g id="clust10" class="cluster">
<title>cluster_file_/Users/pmoura/logtalk/ports/metagol/metagol_example_protocol.lgt</title>
<g id="a_clust10"><a xlink:title="metagol_example_protocol.lgt">
<path fill="snow" stroke="dimgray" d="M436,-225.25C436,-225.25 626,-225.25 626,-225.25 632,-225.25 638,-231.25 638,-237.25 638,-237.25 638,-338 638,-338 638,-344 632,-350 626,-350 626,-350 436,-350 436,-350 430,-350 424,-344 424,-338 424,-338 424,-237.25 424,-237.25 424,-231.25 430,-225.25 436,-225.25"/>
<g id="a_clust10_5"><a xlink:href="https://github.com/LogtalkDotOrg/logtalk3/tree/055ca336d5eafebaa6cd9734e164bef00628019b/ports/metagol/metagol_example_protocol.lgt" xlink:title="https://github.com/LogtalkDotOrg/logtalk3/tree/055ca336d5eafebaa6cd9734e164bef00628019b/ports/metagol/metagol_example_protocol.lgt">
<text text-anchor="start" x="436" y="-236.5" font-family="Monospace" font-size="10.00" fill="dimgray">metagol_example_protocol.lgt</text>
</a>
</g>
</a>
</g>
</g>
<g id="clust11" class="cluster">
<title>cluster_library_toychr</title>
<g id="a_clust11"><a xlink:title="toychr/">
<path fill="whitesmoke" stroke="dimgray" d="M670,-159C670,-159 786,-159 786,-159 792,-159 798,-165 798,-171 798,-171 798,-375.5 798,-375.5 798,-381.5 792,-387.5 786,-387.5 786,-387.5 670,-387.5 670,-387.5 664,-387.5 658,-381.5 658,-375.5 658,-375.5 658,-171 658,-171 658,-165 664,-159 670,-159"/>
<g id="a_clust11_6"><a xlink:href="https://github.com/LogtalkDotOrg/logtalk3/tree/055ca336d5eafebaa6cd9734e164bef00628019b/ports/toychr/" xlink:title="https://github.com/LogtalkDotOrg/logtalk3/tree/055ca336d5eafebaa6cd9734e164bef00628019b/ports/toychr/">
<text text-anchor="start" x="670" y="-170.25" font-family="Monospace" font-size="10.00" fill="dimgray">toychr/</text>
</a>
</g>
</a>
</g>
</g>
<g id="clust13" class="cluster">
<title>cluster_file_/Users/pmoura/logtalk/ports/toychr/toychrdb.lgt</title>
<g id="a_clust13"><a xlink:title="toychrdb.lgt">
<path fill="snow" stroke="dimgray" d="M680,-197.75C680,-197.75 776,-197.75 776,-197.75 782,-197.75 788,-203.75 788,-209.75 788,-209.75 788,-365.5 788,-365.5 788,-371.5 782,-377.5 776,-377.5 776,-377.5 680,-377.5 680,-377.5 674,-377.5 668,-371.5 668,-365.5 668,-365.5 668,-209.75 668,-209.75 668,-203.75 674,-197.75 680,-197.75"/>
<g id="a_clust13_7"><a xlink:href="https://github.com/LogtalkDotOrg/logtalk3/tree/055ca336d5eafebaa6cd9734e164bef00628019b/ports/toychr/toychrdb.lgt" xlink:title="https://github.com/LogtalkDotOrg/logtalk3/tree/055ca336d5eafebaa6cd9734e164bef00628019b/ports/toychr/toychrdb.lgt">
<text text-anchor="start" x="680" y="-209" font-family="Monospace" font-size="10.00" fill="dimgray">toychrdb.lgt</text>
</a>
</g>
</a>
</g>
</g>
<!-- fcube -->
<g id="node1" class="node">
<title>fcube</title>
<g id="a_node1"><a xlink:href="https://logtalk.org/library/fcube_0.html" xlink:title="https://logtalk.org/library/fcube_0.html">
<polygon fill="cornsilk" stroke="black" points="154,-378.5 38,-378.5 38,-225.5 154,-225.5 154,-378.5"/>
<g id="a_node1_8"><a xlink:href="fcube_object_xref_diagram.svg" xlink:title="Zoom">
<image xlink:href="zoom.png" width="11px" height="11px" preserveAspectRatio="xMinYMin meet" x="46" y="-374.5"/>
</a>
</g>
<text text-anchor="start" x="48.88" y="-354.07" font-family="Monospace" font-size="9.00"> </text>
<text text-anchor="start" x="82.12" y="-353.05" font-family="Monospace" font-size="11.00">fcube</text>
<text text-anchor="start" x="140.88" y="-354.07" font-family="Monospace" font-size="9.00"> </text>
<text text-anchor="start" x="48.88" y="-341.95" font-family="Monospace" font-size="9.00"> </text>
<text text-anchor="start" x="78.75" y="-342.85" font-family="Monospace" font-size="7.00">prototype</text>
<text text-anchor="start" x="140.88" y="-341.95" font-family="Monospace" font-size="9.00"> </text>
<text text-anchor="start" x="48.88" y="-330.95" font-family="Monospace" font-size="9.00"> </text>
<text text-anchor="start" x="48.88" y="-319.95" font-family="Monospace" font-size="9.00"> </text>
<text text-anchor="start" x="85.88" y="-319.95" font-family="Monospace" font-size="9.00">gnu/0</text>
<text text-anchor="start" x="140.88" y="-319.95" font-family="Monospace" font-size="9.00"> </text>
<text text-anchor="start" x="48.88" y="-308.95" font-family="Monospace" font-size="9.00"> </text>
<text text-anchor="start" x="80.62" y="-308.95" font-family="Monospace" font-size="9.00">fcube/0</text>
<text text-anchor="start" x="140.88" y="-308.95" font-family="Monospace" font-size="9.00"> </text>
<text text-anchor="start" x="48.88" y="-297.95" font-family="Monospace" font-size="9.00"> </text>
<text text-anchor="start" x="78" y="-297.95" font-family="Monospace" font-size="9.00">decide/1</text>
<text text-anchor="start" x="140.88" y="-297.95" font-family="Monospace" font-size="9.00"> </text>
<text text-anchor="start" x="48.88" y="-286.95" font-family="Monospace" font-size="9.00"> </text>
<text text-anchor="start" x="78" y="-286.95" font-family="Monospace" font-size="9.00">decide/2</text>
<text text-anchor="start" x="140.88" y="-286.95" font-family="Monospace" font-size="9.00"> </text>
<text text-anchor="start" x="48.88" y="-275.95" font-family="Monospace" font-size="9.00"> </text>
<text text-anchor="start" x="57" y="-275.95" font-family="Monospace" font-size="9.00">op(1200,xfy,&lt;=&gt;)</text>
<text text-anchor="start" x="140.88" y="-275.95" font-family="Monospace" font-size="9.00"> </text>
<text text-anchor="start" x="48.88" y="-264.95" font-family="Monospace" font-size="9.00"> </text>
<text text-anchor="start" x="59.62" y="-264.95" font-family="Monospace" font-size="9.00">op(1110,xfy,=&gt;)</text>
<text text-anchor="start" x="140.88" y="-264.95" font-family="Monospace" font-size="9.00"> </text>
<text text-anchor="start" x="48.88" y="-253.95" font-family="Monospace" font-size="9.00"> </text>
<text text-anchor="start" x="59.62" y="-253.95" font-family="Monospace" font-size="9.00">op(1000,xfy,&amp;&amp;)</text>
<text text-anchor="start" x="140.88" y="-253.95" font-family="Monospace" font-size="9.00"> </text>
<text text-anchor="start" x="48.88" y="-242.95" font-family="Monospace" font-size="9.00"> </text>
<text text-anchor="start" x="67.5" y="-242.95" font-family="Monospace" font-size="9.00">op(500,fy,~)</text>
<text text-anchor="start" x="140.88" y="-242.95" font-family="Monospace" font-size="9.00"> </text>
<text text-anchor="start" x="48.88" y="-231.95" font-family="Monospace" font-size="9.00"> </text>
<text text-anchor="start" x="62.25" y="-231.95" font-family="Monospace" font-size="9.00">op(1100,xfy,v)</text>
<text text-anchor="start" x="140.88" y="-231.95" font-family="Monospace" font-size="9.00"> </text>
</a>
</g>
</g>
<!-- metagol -->
<g id="node2" class="node">
<title>metagol</title>
<g id="a_node2"><a xlink:href="https://logtalk.org/library/metagol_0.html" xlink:title="https://logtalk.org/library/metagol_0.html">
<polygon fill="cornsilk" stroke="black" points="404,-433.5 204,-433.5 204,-170.5 404,-170.5 404,-433.5"/>
<g id="a_node2_9"><a xlink:href="metagol_object_xref_diagram.svg" xlink:title="Zoom">
<image xlink:href="zoom.png" width="11px" height="11px" preserveAspectRatio="xMinYMin meet" x="212" y="-429.5"/>
</a>
</g>
<text text-anchor="start" x="214.88" y="-409.07" font-family="Monospace" font-size="9.00"> </text>
<text text-anchor="start" x="283.38" y="-408.05" font-family="Monospace" font-size="11.00">metagol</text>
<text text-anchor="start" x="390.88" y="-409.07" font-family="Monospace" font-size="9.00"> </text>
<text text-anchor="start" x="214.88" y="-396.95" font-family="Monospace" font-size="9.00"> </text>
<text text-anchor="start" x="286.75" y="-397.85" font-family="Monospace" font-size="7.00">prototype</text>
<text text-anchor="start" x="390.88" y="-396.95" font-family="Monospace" font-size="9.00"> </text>
<text text-anchor="start" x="214.88" y="-385.95" font-family="Monospace" font-size="9.00"> </text>
<text text-anchor="start" x="214.88" y="-374.95" font-family="Monospace" font-size="9.00"> </text>
<text text-anchor="start" x="288.62" y="-374.95" font-family="Monospace" font-size="9.00">learn/3</text>
<text text-anchor="start" x="390.88" y="-374.95" font-family="Monospace" font-size="9.00"> </text>
<text text-anchor="start" x="214.88" y="-363.95" font-family="Monospace" font-size="9.00"> </text>
<text text-anchor="start" x="288.62" y="-363.95" font-family="Monospace" font-size="9.00">learn/2</text>
<text text-anchor="start" x="390.88" y="-363.95" font-family="Monospace" font-size="9.00"> </text>
<text text-anchor="start" x="214.88" y="-352.95" font-family="Monospace" font-size="9.00"> </text>
<text text-anchor="start" x="278.12" y="-352.95" font-family="Monospace" font-size="9.00">learn_seq/2</text>
<text text-anchor="start" x="390.88" y="-352.95" font-family="Monospace" font-size="9.00"> </text>
<text text-anchor="start" x="214.88" y="-341.95" font-family="Monospace" font-size="9.00"> </text>
<text text-anchor="start" x="254.5" y="-341.95" font-family="Monospace" font-size="9.00">learn_with_timeout/4</text>
<text text-anchor="start" x="390.88" y="-341.95" font-family="Monospace" font-size="9.00"> </text>
<text text-anchor="start" x="214.88" y="-330.95" font-family="Monospace" font-size="9.00"> </text>
<text text-anchor="start" x="254.5" y="-330.95" font-family="Monospace" font-size="9.00">program_to_clauses/2</text>
<text text-anchor="start" x="390.88" y="-330.95" font-family="Monospace" font-size="9.00"> </text>
<text text-anchor="start" x="214.88" y="-319.95" font-family="Monospace" font-size="9.00"> </text>
<text text-anchor="start" x="286" y="-319.95" font-family="Monospace" font-size="9.00">pprint/1</text>
<text text-anchor="start" x="390.88" y="-319.95" font-family="Monospace" font-size="9.00"> </text>
<text text-anchor="start" x="214.88" y="-308.95" font-family="Monospace" font-size="9.00"> </text>
<text text-anchor="start" x="280.75" y="-308.95" font-family="Monospace" font-size="9.00">metarule/6</text>
<text text-anchor="start" x="390.88" y="-308.95" font-family="Monospace" font-size="9.00"> </text>
<text text-anchor="start" x="214.88" y="-297.95" font-family="Monospace" font-size="9.00"> </text>
<text text-anchor="start" x="278.12" y="-297.95" font-family="Monospace" font-size="9.00">head_pred/1</text>
<text text-anchor="start" x="390.88" y="-297.95" font-family="Monospace" font-size="9.00"> </text>
<text text-anchor="start" x="214.88" y="-286.95" font-family="Monospace" font-size="9.00"> </text>
<text text-anchor="start" x="278.12" y="-286.95" font-family="Monospace" font-size="9.00">body_pred/1</text>
<text text-anchor="start" x="390.88" y="-286.95" font-family="Monospace" font-size="9.00"> </text>
<text text-anchor="start" x="214.88" y="-275.95" font-family="Monospace" font-size="9.00"> </text>
<text text-anchor="start" x="293.88" y="-275.95" font-family="Monospace" font-size="9.00">ibk/3</text>
<text text-anchor="start" x="390.88" y="-275.95" font-family="Monospace" font-size="9.00"> </text>
<text text-anchor="start" x="214.88" y="-264.95" font-family="Monospace" font-size="9.00"> </text>
<text text-anchor="start" x="278.12" y="-264.95" font-family="Monospace" font-size="9.00">func_test/3</text>
<text text-anchor="start" x="390.88" y="-264.95" font-family="Monospace" font-size="9.00"> </text>
<text text-anchor="start" x="214.88" y="-253.95" font-family="Monospace" font-size="9.00"> </text>
<text text-anchor="start" x="275.5" y="-253.95" font-family="Monospace" font-size="9.00">functional/0</text>
<text text-anchor="start" x="390.88" y="-253.95" font-family="Monospace" font-size="9.00"> </text>
<text text-anchor="start" x="214.88" y="-242.95" font-family="Monospace" font-size="9.00"> </text>
<text text-anchor="start" x="272.88" y="-242.95" font-family="Monospace" font-size="9.00">min_clauses/1</text>
<text text-anchor="start" x="390.88" y="-242.95" font-family="Monospace" font-size="9.00"> </text>
<text text-anchor="start" x="214.88" y="-231.95" font-family="Monospace" font-size="9.00"> </text>
<text text-anchor="start" x="272.88" y="-231.95" font-family="Monospace" font-size="9.00">max_clauses/1</text>
<text text-anchor="start" x="390.88" y="-231.95" font-family="Monospace" font-size="9.00"> </text>
<text text-anchor="start" x="214.88" y="-220.95" font-family="Monospace" font-size="9.00"> </text>
<text text-anchor="start" x="267.62" y="-220.95" font-family="Monospace" font-size="9.00">max_inv_preds/1</text>
<text text-anchor="start" x="390.88" y="-220.95" font-family="Monospace" font-size="9.00"> </text>
<text text-anchor="start" x="214.88" y="-209.95" font-family="Monospace" font-size="9.00"> </text>
<text text-anchor="start" x="259.75" y="-209.95" font-family="Monospace" font-size="9.00">metarule_next_id/1</text>
<text text-anchor="start" x="390.88" y="-209.95" font-family="Monospace" font-size="9.00"> </text>
<text text-anchor="start" x="214.88" y="-198.95" font-family="Monospace" font-size="9.00"> </text>
<text text-anchor="start" x="283.38" y="-198.95" font-family="Monospace" font-size="9.00">timeout/1</text>
<text text-anchor="start" x="390.88" y="-198.95" font-family="Monospace" font-size="9.00"> </text>
<text text-anchor="start" x="214.88" y="-187.95" font-family="Monospace" font-size="9.00"> </text>
<text text-anchor="start" x="238.75" y="-187.95" font-family="Monospace" font-size="9.00">logtalk::message_tokens//2</text>
<text text-anchor="start" x="390.88" y="-187.95" font-family="Monospace" font-size="9.00"> </text>
<text text-anchor="start" x="214.88" y="-176.95" font-family="Monospace" font-size="9.00"> </text>
<text text-anchor="start" x="223" y="-176.95" font-family="Monospace" font-size="9.00">logtalk::message_prefix_stream/4</text>
<text text-anchor="start" x="390.88" y="-176.95" font-family="Monospace" font-size="9.00"> </text>
</a>
</g>
</g>
<!-- expanding -->
<g id="node5" class="node">
<title>expanding</title>
<g id="a_node5"><a xlink:href="https://logtalk.org/library/expanding_0.html" xlink:title="https://logtalk.org/library/expanding_0.html">
<polygon fill="mediumaquamarine" stroke="black" stroke-dasharray="5,2" points="474,-552.75 378,-552.75 378,-516.75 480,-516.75 480,-546.75 474,-552.75"/>
<polyline fill="none" stroke="black" stroke-dasharray="5,2" points="474,-552.75 474,-546.75"/>
<polyline fill="none" stroke="black" stroke-dasharray="5,2" points="480,-546.75 474,-546.75"/>
<text text-anchor="start" x="385.88" y="-537.33" font-family="Monospace" font-size="9.00"> </text>
<text text-anchor="start" x="398.62" y="-536.3" font-family="Monospace" font-size="11.00">expanding</text>
<text text-anchor="start" x="466.88" y="-537.33" font-family="Monospace" font-size="9.00"> </text>
<text text-anchor="start" x="385.88" y="-525.2" font-family="Monospace" font-size="9.00"> </text>
<text text-anchor="start" x="390.75" y="-526.1" font-family="Monospace" font-size="7.00">built&#45;in protocol</text>
<text text-anchor="start" x="466.88" y="-525.2" font-family="Monospace" font-size="9.00"> </text>
</a>
</g>
</g>
<!-- metagol&#45;&gt;expanding -->
<g id="edge1" class="edge">
<title>metagol&#45;&gt;expanding</title>
<g id="a_edge1"><a xlink:href="https://logtalk.org/library/metagol_0.html" xlink:title="implements">
<path fill="none" stroke="black" d="M374.9,-433.88C390.45,-462.59 405.3,-490 415.49,-508.81"/>
<ellipse fill="black" stroke="black" cx="417.55" cy="-512.62" rx="4" ry="4"/>
</a>
</g>
<g id="a_edge1&#45;label"><a xlink:href="https://logtalk.org/library/metagol_0.html" xlink:title="https://logtalk.org/library/metagol_0.html">
<text text-anchor="start" x="398" y="-472.2" font-family="Monospace" font-size="9.00">implements</text>
</a>
</g>
</g>
<!-- metagol_example_protocol -->
<g id="node3" class="node">
<title>metagol_example_protocol</title>
<g id="a_node3"><a xlink:href="https://logtalk.org/library/metagol_example_protocol_0.html" xlink:title="https://logtalk.org/library/metagol_example_protocol_0.html">
<polygon fill="aquamarine" stroke="black" points="622,-340 434,-340 434,-264 628,-264 628,-334 622,-340"/>
<polyline fill="none" stroke="black" points="622,-340 622,-334"/>
<polyline fill="none" stroke="black" points="628,-334 622,-334"/>
<g id="a_node3_10"><a xlink:href="metagol_example_protocol_protocol_xref_diagram.svg" xlink:title="Zoom">
<image xlink:href="zoom.png" width="11px" height="11px" preserveAspectRatio="xMinYMin meet" x="442" y="-336"/>
</a>
</g>
<text text-anchor="start" x="444.88" y="-315.57" font-family="Monospace" font-size="9.00"> </text>
<text text-anchor="start" x="453" y="-314.55" font-family="Monospace" font-size="11.00">metagol_example_protocol</text>
<text text-anchor="start" x="614.88" y="-315.57" font-family="Monospace" font-size="9.00"> </text>
<text text-anchor="start" x="444.88" y="-303.45" font-family="Monospace" font-size="9.00"> </text>
<text text-anchor="start" x="516" y="-304.35" font-family="Monospace" font-size="7.00">protocol</text>
<text text-anchor="start" x="614.88" y="-303.45" font-family="Monospace" font-size="9.00"> </text>
<text text-anchor="start" x="444.88" y="-292.45" font-family="Monospace" font-size="9.00"> </text>
<text text-anchor="start" x="444.88" y="-281.45" font-family="Monospace" font-size="9.00"> </text>
<text text-anchor="start" x="515.62" y="-281.45" font-family="Monospace" font-size="9.00">learn/1</text>
<text text-anchor="start" x="614.88" y="-281.45" font-family="Monospace" font-size="9.00"> </text>
<text text-anchor="start" x="444.88" y="-270.45" font-family="Monospace" font-size="9.00"> </text>
<text text-anchor="start" x="515.62" y="-270.45" font-family="Monospace" font-size="9.00">learn/0</text>
<text text-anchor="start" x="614.88" y="-270.45" font-family="Monospace" font-size="9.00"> </text>
</a>
</g>
</g>
<!-- toychrdb -->
<g id="node4" class="node">
<title>toychrdb</title>
<g id="a_node4"><a xlink:href="https://logtalk.org/library/toychrdb_0.html" xlink:title="https://logtalk.org/library/toychrdb_0.html">
<polygon fill="cornsilk" stroke="black" points="778,-367.5 678,-367.5 678,-236.5 778,-236.5 778,-367.5"/>
<g id="a_node4_11"><a xlink:href="toychrdb_object_xref_diagram.svg" xlink:title="Zoom">
<image xlink:href="zoom.png" width="11px" height="11px" preserveAspectRatio="xMinYMin meet" x="686" y="-363.5"/>
</a>
</g>
<text text-anchor="start" x="688.88" y="-343.07" font-family="Monospace" font-size="9.00"> </text>
<text text-anchor="start" x="704" y="-342.05" font-family="Monospace" font-size="11.00">toychrdb</text>
<text text-anchor="start" x="764.88" y="-343.07" font-family="Monospace" font-size="9.00"> </text>
<text text-anchor="start" x="688.88" y="-330.95" font-family="Monospace" font-size="9.00"> </text>
<text text-anchor="start" x="710.75" y="-331.85" font-family="Monospace" font-size="7.00">prototype</text>
<text text-anchor="start" x="764.88" y="-330.95" font-family="Monospace" font-size="9.00"> </text>
<text text-anchor="start" x="688.88" y="-319.95" font-family="Monospace" font-size="9.00"> </text>
<text text-anchor="start" x="688.88" y="-308.95" font-family="Monospace" font-size="9.00"> </text>
<text text-anchor="start" x="710" y="-308.95" font-family="Monospace" font-size="9.00">chr_is/2</text>
<text text-anchor="start" x="764.88" y="-308.95" font-family="Monospace" font-size="9.00"> </text>
<text text-anchor="start" x="688.88" y="-297.95" font-family="Monospace" font-size="9.00"> </text>
<text text-anchor="start" x="702.12" y="-297.95" font-family="Monospace" font-size="9.00">chr_trace/0</text>
<text text-anchor="start" x="764.88" y="-297.95" font-family="Monospace" font-size="9.00"> </text>
<text text-anchor="start" x="688.88" y="-286.95" font-family="Monospace" font-size="9.00"> </text>
<text text-anchor="start" x="696.88" y="-286.95" font-family="Monospace" font-size="9.00">chr_notrace/0</text>
<text text-anchor="start" x="764.88" y="-286.95" font-family="Monospace" font-size="9.00"> </text>
<text text-anchor="start" x="688.88" y="-275.95" font-family="Monospace" font-size="9.00"> </text>
<text text-anchor="start" x="707.38" y="-275.95" font-family="Monospace" font-size="9.00">chr_spy/1</text>
<text text-anchor="start" x="764.88" y="-275.95" font-family="Monospace" font-size="9.00"> </text>
<text text-anchor="start" x="688.88" y="-264.95" font-family="Monospace" font-size="9.00"> </text>
<text text-anchor="start" x="702.12" y="-264.95" font-family="Monospace" font-size="9.00">chr_nospy/0</text>
<text text-anchor="start" x="764.88" y="-264.95" font-family="Monospace" font-size="9.00"> </text>
<text text-anchor="start" x="688.88" y="-253.95" font-family="Monospace" font-size="9.00"> </text>
<text text-anchor="start" x="699.5" y="-253.95" font-family="Monospace" font-size="9.00">chr_no_spy/1</text>
<text text-anchor="start" x="764.88" y="-253.95" font-family="Monospace" font-size="9.00"> </text>
<text text-anchor="start" x="688.88" y="-242.95" font-family="Monospace" font-size="9.00"> </text>
<text text-anchor="start" x="699.5" y="-242.95" font-family="Monospace" font-size="9.00">chr_option/2</text>
<text text-anchor="start" x="764.88" y="-242.95" font-family="Monospace" font-size="9.00"> </text>
</a>
</g>
</g>
<!-- toychrdb&#45;&gt;expanding -->
<g id="edge2" class="edge">
<title>toychrdb&#45;&gt;expanding</title>
<g id="a_edge2"><a xlink:href="https://logtalk.org/library/toychrdb_0.html" xlink:title="implements">
<path fill="none" stroke="black" d="M703.17,-367.72C689.06,-397.26 668.79,-430.66 642,-453.5 598.07,-490.95 534.92,-511.79 488.78,-522.79"/>
<ellipse fill="black" stroke="black" cx="484.47" cy="-523.78" rx="4" ry="4"/>
</a>
</g>
<g id="a_edge2&#45;label"><a xlink:href="https://logtalk.org/library/toychrdb_0.html" xlink:title="https://logtalk.org/library/toychrdb_0.html">
<text text-anchor="start" x="617" y="-472.2" font-family="Monospace" font-size="9.00">implements</text>
</a>
</g>
</g>
</g>
</svg>
