<?xml version="1.0" encoding="UTF-8" standalone="no"?>
<?xml-stylesheet href="diagrams.css" type="text/css"?>
<!DOCTYPE svg PUBLIC "-//W3C//DTD SVG 1.1//EN"
 "http://www.w3.org/Graphics/SVG/1.1/DTD/svg11.dtd">
<!-- Generated by graphviz version 10.0.1 (20240210.2158)
 -->
<!-- Title: ports Pages: 1 -->
<svg width="968pt" height="669pt"
 viewBox="72.00 72.00 896.00 597.25" xmlns="http://www.w3.org/2000/svg" xmlns:xlink="http://www.w3.org/1999/xlink">
<g id="graph0" class="graph" transform="scale(1 1) rotate(0) translate(76 593.25)">
<title>ports</title>
<polygon fill="white" stroke="none" points="-4,4 -4,-521.25 820,-521.25 820,4 -4,4"/>
<text text-anchor="start" x="8" y="-28.25" font-family="Monospace" font-size="10.00" fill="dimgray">Logtalk ports of third&#45;party software</text>
<text text-anchor="start" x="8" y="-17" font-family="Monospace" font-size="10.00" fill="dimgray">Inheritance diagram for library ports</text>
<text text-anchor="start" x="8" y="-5.75" font-family="Monospace" font-size="10.00" fill="dimgray">Generated on 2024&#45;02&#45;29, 10:54</text>
<g id="clust1" class="cluster">
<title>cluster_rlibrary_ports</title>
<g id="a_clust1"><a xlink:title="ports/">
<path fill="lightgray" stroke="dimgray" d="M20,-49.75C20,-49.75 796,-49.75 796,-49.75 802,-49.75 808,-55.75 808,-61.75 808,-61.75 808,-497.25 808,-497.25 808,-503.25 802,-509.25 796,-509.25 796,-509.25 20,-509.25 20,-509.25 14,-509.25 8,-503.25 8,-497.25 8,-497.25 8,-61.75 8,-61.75 8,-55.75 14,-49.75 20,-49.75"/>
<g id="a_clust1_0"><a xlink:href="https://github.com/LogtalkDotOrg/logtalk3/tree/f8e732d07b2c9562f4294c94250a627cc134fcf7/ports/" xlink:title="https://github.com/LogtalkDotOrg/logtalk3/tree/f8e732d07b2c9562f4294c94250a627cc134fcf7/ports/">
<text text-anchor="start" x="20" y="-59.5" font-family="Monospace" font-size="10.00" fill="dimgray">ports/</text>
</a>
</g>
</a>
</g>
</g>
<g id="clust4" class="cluster">
<title>cluster_library_fcube</title>
<g id="a_clust4"><a xlink:title="fcube/">
<path fill="whitesmoke" stroke="dimgray" d="M30,-136.5C30,-136.5 162,-136.5 162,-136.5 168,-136.5 174,-142.5 174,-148.5 174,-148.5 174,-340 174,-340 174,-346 168,-352 162,-352 162,-352 30,-352 30,-352 24,-352 18,-346 18,-340 18,-340 18,-148.5 18,-148.5 18,-142.5 24,-136.5 30,-136.5"/>
<g id="a_clust4_1"><a xlink:href="https://github.com/LogtalkDotOrg/logtalk3/tree/f8e732d07b2c9562f4294c94250a627cc134fcf7/ports/fcube/" xlink:title="https://github.com/LogtalkDotOrg/logtalk3/tree/f8e732d07b2c9562f4294c94250a627cc134fcf7/ports/fcube/">
<text text-anchor="start" x="30" y="-146.25" font-family="Monospace" font-size="10.00" fill="dimgray">fcube/</text>
</a>
</g>
</a>
</g>
</g>
<g id="clust6" class="cluster">
<title>cluster_file_/Users/pmoura/logtalk/ports/fcube/fcube.lgt</title>
<g id="a_clust6"><a xlink:title="fcube.lgt">
<path fill="snow" stroke="dimgray" d="M40,-173.75C40,-173.75 152,-173.75 152,-173.75 158,-173.75 164,-179.75 164,-185.75 164,-185.75 164,-330 164,-330 164,-336 158,-342 152,-342 152,-342 40,-342 40,-342 34,-342 28,-336 28,-330 28,-330 28,-185.75 28,-185.75 28,-179.75 34,-173.75 40,-173.75"/>
<g id="a_clust6_2"><a xlink:href="https://github.com/LogtalkDotOrg/logtalk3/tree/f8e732d07b2c9562f4294c94250a627cc134fcf7/ports/fcube/fcube.lgt" xlink:title="https://github.com/LogtalkDotOrg/logtalk3/tree/f8e732d07b2c9562f4294c94250a627cc134fcf7/ports/fcube/fcube.lgt">
<text text-anchor="start" x="40" y="-183.5" font-family="Monospace" font-size="10.00" fill="dimgray">fcube.lgt</text>
</a>
</g>
</a>
</g>
</g>
<g id="clust7" class="cluster">
<title>cluster_library_metagol</title>
<g id="a_clust7"><a xlink:title="metagol/">
<path fill="whitesmoke" stroke="dimgray" d="M196,-87C196,-87 636,-87 636,-87 642,-87 648,-93 648,-99 648,-99 648,-389.5 648,-389.5 648,-395.5 642,-401.5 636,-401.5 636,-401.5 196,-401.5 196,-401.5 190,-401.5 184,-395.5 184,-389.5 184,-389.5 184,-99 184,-99 184,-93 190,-87 196,-87"/>
<g id="a_clust7_3"><a xlink:href="https://github.com/LogtalkDotOrg/logtalk3/tree/f8e732d07b2c9562f4294c94250a627cc134fcf7/ports/metagol/" xlink:title="https://github.com/LogtalkDotOrg/logtalk3/tree/f8e732d07b2c9562f4294c94250a627cc134fcf7/ports/metagol/">
<text text-anchor="start" x="196" y="-96.75" font-family="Monospace" font-size="10.00" fill="dimgray">metagol/</text>
</a>
</g>
</a>
</g>
</g>
<g id="clust9" class="cluster">
<title>cluster_file_/Users/pmoura/logtalk/ports/metagol/metagol.lgt</title>
<g id="a_clust9"><a xlink:title="metagol.lgt">
<path fill="snow" stroke="dimgray" d="M206,-124.25C206,-124.25 402,-124.25 402,-124.25 408,-124.25 414,-130.25 414,-136.25 414,-136.25 414,-379.5 414,-379.5 414,-385.5 408,-391.5 402,-391.5 402,-391.5 206,-391.5 206,-391.5 200,-391.5 194,-385.5 194,-379.5 194,-379.5 194,-136.25 194,-136.25 194,-130.25 200,-124.25 206,-124.25"/>
<g id="a_clust9_4"><a xlink:href="https://github.com/LogtalkDotOrg/logtalk3/tree/f8e732d07b2c9562f4294c94250a627cc134fcf7/ports/metagol/metagol.lgt" xlink:title="https://github.com/LogtalkDotOrg/logtalk3/tree/f8e732d07b2c9562f4294c94250a627cc134fcf7/ports/metagol/metagol.lgt">
<text text-anchor="start" x="206" y="-134" font-family="Monospace" font-size="10.00" fill="dimgray">metagol.lgt</text>
</a>
</g>
</a>
</g>
</g>
<g id="clust10" class="cluster">
<title>cluster_file_/Users/pmoura/logtalk/ports/metagol/metagol_example_protocol.lgt</title>
<g id="a_clust10"><a xlink:title="metagol_example_protocol.lgt">
<path fill="snow" stroke="dimgray" d="M436,-200.75C436,-200.75 626,-200.75 626,-200.75 632,-200.75 638,-206.75 638,-212.75 638,-212.75 638,-303 638,-303 638,-309 632,-315 626,-315 626,-315 436,-315 436,-315 430,-315 424,-309 424,-303 424,-303 424,-212.75 424,-212.75 424,-206.75 430,-200.75 436,-200.75"/>
<g id="a_clust10_5"><a xlink:href="https://github.com/LogtalkDotOrg/logtalk3/tree/f8e732d07b2c9562f4294c94250a627cc134fcf7/ports/metagol/metagol_example_protocol.lgt" xlink:title="https://github.com/LogtalkDotOrg/logtalk3/tree/f8e732d07b2c9562f4294c94250a627cc134fcf7/ports/metagol/metagol_example_protocol.lgt">
<text text-anchor="start" x="436" y="-210.5" font-family="Monospace" font-size="10.00" fill="dimgray">metagol_example_protocol.lgt</text>
</a>
</g>
</a>
</g>
</g>
<g id="clust11" class="cluster">
<title>cluster_library_toychr</title>
<g id="a_clust11"><a xlink:title="toychr/">
<path fill="whitesmoke" stroke="dimgray" d="M670,-141C670,-141 786,-141 786,-141 792,-141 798,-147 798,-153 798,-153 798,-335.5 798,-335.5 798,-341.5 792,-347.5 786,-347.5 786,-347.5 670,-347.5 670,-347.5 664,-347.5 658,-341.5 658,-335.5 658,-335.5 658,-153 658,-153 658,-147 664,-141 670,-141"/>
<g id="a_clust11_6"><a xlink:href="https://github.com/LogtalkDotOrg/logtalk3/tree/f8e732d07b2c9562f4294c94250a627cc134fcf7/ports/toychr/" xlink:title="https://github.com/LogtalkDotOrg/logtalk3/tree/f8e732d07b2c9562f4294c94250a627cc134fcf7/ports/toychr/">
<text text-anchor="start" x="670" y="-150.75" font-family="Monospace" font-size="10.00" fill="dimgray">toychr/</text>
</a>
</g>
</a>
</g>
</g>
<g id="clust13" class="cluster">
<title>cluster_file_/Users/pmoura/logtalk/ports/toychr/toychrdb.lgt</title>
<g id="a_clust13"><a xlink:title="toychrdb.lgt">
<path fill="snow" stroke="dimgray" d="M680,-178.25C680,-178.25 776,-178.25 776,-178.25 782,-178.25 788,-184.25 788,-190.25 788,-190.25 788,-325.5 788,-325.5 788,-331.5 782,-337.5 776,-337.5 776,-337.5 680,-337.5 680,-337.5 674,-337.5 668,-331.5 668,-325.5 668,-325.5 668,-190.25 668,-190.25 668,-184.25 674,-178.25 680,-178.25"/>
<g id="a_clust13_7"><a xlink:href="https://github.com/LogtalkDotOrg/logtalk3/tree/f8e732d07b2c9562f4294c94250a627cc134fcf7/ports/toychr/toychrdb.lgt" xlink:title="https://github.com/LogtalkDotOrg/logtalk3/tree/f8e732d07b2c9562f4294c94250a627cc134fcf7/ports/toychr/toychrdb.lgt">
<text text-anchor="start" x="680" y="-188" font-family="Monospace" font-size="10.00" fill="dimgray">toychrdb.lgt</text>
</a>
</g>
</a>
</g>
</g>
<!-- fcube -->
<g id="node1" class="node">
<title>fcube</title>
<g id="a_node1"><a xlink:href="https://logtalk.org/library/fcube_0.html" xlink:title="https://logtalk.org/library/fcube_0.html">
<polygon fill="cornsilk" stroke="black" points="154,-332 38,-332 38,-211 154,-211 154,-332"/>
<g id="a_node1_8"><a xlink:href="fcube_object_xref_diagram.svg" xlink:title="Zoom">
<image xlink:href="zoom.png" width="11px" height="11px" preserveAspectRatio="xMinYMin meet" x="46" y="-328"/>
</a>
</g>
<text text-anchor="start" x="48.88" y="-307.32" font-family="Monospace" font-size="9.00"> </text>
<text text-anchor="start" x="82.12" y="-306.55" font-family="Monospace" font-size="11.00">fcube</text>
<text text-anchor="start" x="140.88" y="-307.32" font-family="Monospace" font-size="9.00"> </text>
<text text-anchor="start" x="48.88" y="-296.45" font-family="Monospace" font-size="9.00"> </text>
<text text-anchor="start" x="78.75" y="-297.98" font-family="Monospace" font-size="7.00">prototype</text>
<text text-anchor="start" x="140.88" y="-296.45" font-family="Monospace" font-size="9.00"> </text>
<text text-anchor="start" x="48.88" y="-287.45" font-family="Monospace" font-size="9.00"> </text>
<text text-anchor="start" x="48.88" y="-278.45" font-family="Monospace" font-size="9.00"> </text>
<text text-anchor="start" x="80.62" y="-278.45" font-family="Monospace" font-size="9.00">fcube/0</text>
<text text-anchor="start" x="140.88" y="-278.45" font-family="Monospace" font-size="9.00"> </text>
<text text-anchor="start" x="48.88" y="-269.45" font-family="Monospace" font-size="9.00"> </text>
<text text-anchor="start" x="78" y="-269.45" font-family="Monospace" font-size="9.00">decide/1</text>
<text text-anchor="start" x="140.88" y="-269.45" font-family="Monospace" font-size="9.00"> </text>
<text text-anchor="start" x="48.88" y="-260.45" font-family="Monospace" font-size="9.00"> </text>
<text text-anchor="start" x="78" y="-260.45" font-family="Monospace" font-size="9.00">decide/2</text>
<text text-anchor="start" x="140.88" y="-260.45" font-family="Monospace" font-size="9.00"> </text>
<text text-anchor="start" x="48.88" y="-251.45" font-family="Monospace" font-size="9.00"> </text>
<text text-anchor="start" x="57" y="-251.45" font-family="Monospace" font-size="9.00">op(1200,xfy,&lt;=&gt;)</text>
<text text-anchor="start" x="140.88" y="-251.45" font-family="Monospace" font-size="9.00"> </text>
<text text-anchor="start" x="48.88" y="-242.45" font-family="Monospace" font-size="9.00"> </text>
<text text-anchor="start" x="59.62" y="-242.45" font-family="Monospace" font-size="9.00">op(1110,xfy,=&gt;)</text>
<text text-anchor="start" x="140.88" y="-242.45" font-family="Monospace" font-size="9.00"> </text>
<text text-anchor="start" x="48.88" y="-233.45" font-family="Monospace" font-size="9.00"> </text>
<text text-anchor="start" x="59.62" y="-233.45" font-family="Monospace" font-size="9.00">op(1000,xfy,&amp;&amp;)</text>
<text text-anchor="start" x="140.88" y="-233.45" font-family="Monospace" font-size="9.00"> </text>
<text text-anchor="start" x="48.88" y="-224.45" font-family="Monospace" font-size="9.00"> </text>
<text text-anchor="start" x="67.5" y="-224.45" font-family="Monospace" font-size="9.00">op(500,fy,~)</text>
<text text-anchor="start" x="140.88" y="-224.45" font-family="Monospace" font-size="9.00"> </text>
<text text-anchor="start" x="48.88" y="-215.45" font-family="Monospace" font-size="9.00"> </text>
<text text-anchor="start" x="62.25" y="-215.45" font-family="Monospace" font-size="9.00">op(1100,xfy,v)</text>
<text text-anchor="start" x="140.88" y="-215.45" font-family="Monospace" font-size="9.00"> </text>
</a>
</g>
</g>
<!-- metagol -->
<g id="node2" class="node">
<title>metagol</title>
<g id="a_node2"><a xlink:href="https://logtalk.org/library/metagol_0.html" xlink:title="https://logtalk.org/library/metagol_0.html">
<polygon fill="cornsilk" stroke="black" points="404,-381.5 204,-381.5 204,-161.5 404,-161.5 404,-381.5"/>
<g id="a_node2_9"><a xlink:href="metagol_object_xref_diagram.svg" xlink:title="Zoom">
<image xlink:href="zoom.png" width="11px" height="11px" preserveAspectRatio="xMinYMin meet" x="212" y="-377.5"/>
</a>
</g>
<text text-anchor="start" x="214.88" y="-356.82" font-family="Monospace" font-size="9.00"> </text>
<text text-anchor="start" x="283.38" y="-356.05" font-family="Monospace" font-size="11.00">metagol</text>
<text text-anchor="start" x="390.88" y="-356.82" font-family="Monospace" font-size="9.00"> </text>
<text text-anchor="start" x="214.88" y="-345.95" font-family="Monospace" font-size="9.00"> </text>
<text text-anchor="start" x="286.75" y="-347.48" font-family="Monospace" font-size="7.00">prototype</text>
<text text-anchor="start" x="390.88" y="-345.95" font-family="Monospace" font-size="9.00"> </text>
<text text-anchor="start" x="214.88" y="-336.95" font-family="Monospace" font-size="9.00"> </text>
<text text-anchor="start" x="214.88" y="-327.95" font-family="Monospace" font-size="9.00"> </text>
<text text-anchor="start" x="288.62" y="-327.95" font-family="Monospace" font-size="9.00">learn/3</text>
<text text-anchor="start" x="390.88" y="-327.95" font-family="Monospace" font-size="9.00"> </text>
<text text-anchor="start" x="214.88" y="-318.95" font-family="Monospace" font-size="9.00"> </text>
<text text-anchor="start" x="288.62" y="-318.95" font-family="Monospace" font-size="9.00">learn/2</text>
<text text-anchor="start" x="390.88" y="-318.95" font-family="Monospace" font-size="9.00"> </text>
<text text-anchor="start" x="214.88" y="-309.95" font-family="Monospace" font-size="9.00"> </text>
<text text-anchor="start" x="278.12" y="-309.95" font-family="Monospace" font-size="9.00">learn_seq/2</text>
<text text-anchor="start" x="390.88" y="-309.95" font-family="Monospace" font-size="9.00"> </text>
<text text-anchor="start" x="214.88" y="-300.95" font-family="Monospace" font-size="9.00"> </text>
<text text-anchor="start" x="254.5" y="-300.95" font-family="Monospace" font-size="9.00">learn_with_timeout/4</text>
<text text-anchor="start" x="390.88" y="-300.95" font-family="Monospace" font-size="9.00"> </text>
<text text-anchor="start" x="214.88" y="-291.95" font-family="Monospace" font-size="9.00"> </text>
<text text-anchor="start" x="254.5" y="-291.95" font-family="Monospace" font-size="9.00">program_to_clauses/2</text>
<text text-anchor="start" x="390.88" y="-291.95" font-family="Monospace" font-size="9.00"> </text>
<text text-anchor="start" x="214.88" y="-282.95" font-family="Monospace" font-size="9.00"> </text>
<text text-anchor="start" x="286" y="-282.95" font-family="Monospace" font-size="9.00">pprint/1</text>
<text text-anchor="start" x="390.88" y="-282.95" font-family="Monospace" font-size="9.00"> </text>
<text text-anchor="start" x="214.88" y="-273.95" font-family="Monospace" font-size="9.00"> </text>
<text text-anchor="start" x="280.75" y="-273.95" font-family="Monospace" font-size="9.00">metarule/6</text>
<text text-anchor="start" x="390.88" y="-273.95" font-family="Monospace" font-size="9.00"> </text>
<text text-anchor="start" x="214.88" y="-264.95" font-family="Monospace" font-size="9.00"> </text>
<text text-anchor="start" x="278.12" y="-264.95" font-family="Monospace" font-size="9.00">head_pred/1</text>
<text text-anchor="start" x="390.88" y="-264.95" font-family="Monospace" font-size="9.00"> </text>
<text text-anchor="start" x="214.88" y="-255.95" font-family="Monospace" font-size="9.00"> </text>
<text text-anchor="start" x="278.12" y="-255.95" font-family="Monospace" font-size="9.00">body_pred/1</text>
<text text-anchor="start" x="390.88" y="-255.95" font-family="Monospace" font-size="9.00"> </text>
<text text-anchor="start" x="214.88" y="-246.95" font-family="Monospace" font-size="9.00"> </text>
<text text-anchor="start" x="293.88" y="-246.95" font-family="Monospace" font-size="9.00">ibk/3</text>
<text text-anchor="start" x="390.88" y="-246.95" font-family="Monospace" font-size="9.00"> </text>
<text text-anchor="start" x="214.88" y="-237.95" font-family="Monospace" font-size="9.00"> </text>
<text text-anchor="start" x="278.12" y="-237.95" font-family="Monospace" font-size="9.00">func_test/3</text>
<text text-anchor="start" x="390.88" y="-237.95" font-family="Monospace" font-size="9.00"> </text>
<text text-anchor="start" x="214.88" y="-228.95" font-family="Monospace" font-size="9.00"> </text>
<text text-anchor="start" x="275.5" y="-228.95" font-family="Monospace" font-size="9.00">functional/0</text>
<text text-anchor="start" x="390.88" y="-228.95" font-family="Monospace" font-size="9.00"> </text>
<text text-anchor="start" x="214.88" y="-219.95" font-family="Monospace" font-size="9.00"> </text>
<text text-anchor="start" x="272.88" y="-219.95" font-family="Monospace" font-size="9.00">min_clauses/1</text>
<text text-anchor="start" x="390.88" y="-219.95" font-family="Monospace" font-size="9.00"> </text>
<text text-anchor="start" x="214.88" y="-210.95" font-family="Monospace" font-size="9.00"> </text>
<text text-anchor="start" x="272.88" y="-210.95" font-family="Monospace" font-size="9.00">max_clauses/1</text>
<text text-anchor="start" x="390.88" y="-210.95" font-family="Monospace" font-size="9.00"> </text>
<text text-anchor="start" x="214.88" y="-201.95" font-family="Monospace" font-size="9.00"> </text>
<text text-anchor="start" x="267.62" y="-201.95" font-family="Monospace" font-size="9.00">max_inv_preds/1</text>
<text text-anchor="start" x="390.88" y="-201.95" font-family="Monospace" font-size="9.00"> </text>
<text text-anchor="start" x="214.88" y="-192.95" font-family="Monospace" font-size="9.00"> </text>
<text text-anchor="start" x="259.75" y="-192.95" font-family="Monospace" font-size="9.00">metarule_next_id/1</text>
<text text-anchor="start" x="390.88" y="-192.95" font-family="Monospace" font-size="9.00"> </text>
<text text-anchor="start" x="214.88" y="-183.95" font-family="Monospace" font-size="9.00"> </text>
<text text-anchor="start" x="283.38" y="-183.95" font-family="Monospace" font-size="9.00">timeout/1</text>
<text text-anchor="start" x="390.88" y="-183.95" font-family="Monospace" font-size="9.00"> </text>
<text text-anchor="start" x="214.88" y="-174.95" font-family="Monospace" font-size="9.00"> </text>
<text text-anchor="start" x="238.75" y="-174.95" font-family="Monospace" font-size="9.00">logtalk::message_tokens//2</text>
<text text-anchor="start" x="390.88" y="-174.95" font-family="Monospace" font-size="9.00"> </text>
<text text-anchor="start" x="214.88" y="-165.95" font-family="Monospace" font-size="9.00"> </text>
<text text-anchor="start" x="223" y="-165.95" font-family="Monospace" font-size="9.00">logtalk::message_prefix_stream/4</text>
<text text-anchor="start" x="390.88" y="-165.95" font-family="Monospace" font-size="9.00"> </text>
</a>
</g>
</g>
<!-- expanding -->
<g id="node5" class="node">
<title>expanding</title>
<g id="a_node5"><a xlink:href="https://logtalk.org/library/expanding_0.html" xlink:title="https://logtalk.org/library/expanding_0.html">
<polygon fill="mediumaquamarine" stroke="black" stroke-dasharray="5,2" points="474,-499.25 378,-499.25 378,-463.25 480,-463.25 480,-493.25 474,-499.25"/>
<polyline fill="none" stroke="black" stroke-dasharray="5,2" points="474,-499.25 474,-493.25"/>
<polyline fill="none" stroke="black" stroke-dasharray="5,2" points="480,-493.25 474,-493.25"/>
<text text-anchor="start" x="385.88" y="-482.07" font-family="Monospace" font-size="9.00"> </text>
<text text-anchor="start" x="398.62" y="-481.3" font-family="Monospace" font-size="11.00">expanding</text>
<text text-anchor="start" x="466.88" y="-482.07" font-family="Monospace" font-size="9.00"> </text>
<text text-anchor="start" x="385.88" y="-471.2" font-family="Monospace" font-size="9.00"> </text>
<text text-anchor="start" x="390.75" y="-472.73" font-family="Monospace" font-size="7.00">built&#45;in protocol</text>
<text text-anchor="start" x="466.88" y="-471.2" font-family="Monospace" font-size="9.00"> </text>
</a>
</g>
</g>
<!-- metagol&#45;&gt;expanding -->
<g id="edge1" class="edge">
<title>metagol&#45;&gt;expanding</title>
<g id="a_edge1"><a xlink:href="https://logtalk.org/library/metagol_0.html" xlink:title="implements">
<path fill="none" stroke="black" d="M369.79,-381.85C386.47,-409.56 402.83,-436.76 414.11,-455.51"/>
<ellipse fill="black" stroke="black" cx="416.3" cy="-459.15" rx="4" ry="4"/>
</a>
</g>
<g id="a_edge1&#45;label"><a xlink:href="https://logtalk.org/library/metagol_0.html" xlink:title="https://logtalk.org/library/metagol_0.html">
<text text-anchor="start" x="395" y="-418.7" font-family="Monospace" font-size="9.00">implements</text>
</a>
</g>
</g>
<!-- metagol_example_protocol -->
<g id="node3" class="node">
<title>metagol_example_protocol</title>
<g id="a_node3"><a xlink:href="https://logtalk.org/library/metagol_example_protocol_0.html" xlink:title="https://logtalk.org/library/metagol_example_protocol_0.html">
<polygon fill="aquamarine" stroke="black" points="622,-305 434,-305 434,-238 628,-238 628,-299 622,-305"/>
<polyline fill="none" stroke="black" points="622,-305 622,-299"/>
<polyline fill="none" stroke="black" points="628,-299 622,-299"/>
<g id="a_node3_10"><a xlink:href="metagol_example_protocol_protocol_xref_diagram.svg" xlink:title="Zoom">
<image xlink:href="zoom.png" width="11px" height="11px" preserveAspectRatio="xMinYMin meet" x="442" y="-301"/>
</a>
</g>
<text text-anchor="start" x="444.88" y="-280.32" font-family="Monospace" font-size="9.00"> </text>
<text text-anchor="start" x="453" y="-279.55" font-family="Monospace" font-size="11.00">metagol_example_protocol</text>
<text text-anchor="start" x="614.88" y="-280.32" font-family="Monospace" font-size="9.00"> </text>
<text text-anchor="start" x="444.88" y="-269.45" font-family="Monospace" font-size="9.00"> </text>
<text text-anchor="start" x="516" y="-270.98" font-family="Monospace" font-size="7.00">protocol</text>
<text text-anchor="start" x="614.88" y="-269.45" font-family="Monospace" font-size="9.00"> </text>
<text text-anchor="start" x="444.88" y="-260.45" font-family="Monospace" font-size="9.00"> </text>
<text text-anchor="start" x="444.88" y="-251.45" font-family="Monospace" font-size="9.00"> </text>
<text text-anchor="start" x="515.62" y="-251.45" font-family="Monospace" font-size="9.00">learn/1</text>
<text text-anchor="start" x="614.88" y="-251.45" font-family="Monospace" font-size="9.00"> </text>
<text text-anchor="start" x="444.88" y="-242.45" font-family="Monospace" font-size="9.00"> </text>
<text text-anchor="start" x="515.62" y="-242.45" font-family="Monospace" font-size="9.00">learn/0</text>
<text text-anchor="start" x="614.88" y="-242.45" font-family="Monospace" font-size="9.00"> </text>
</a>
</g>
</g>
<!-- toychrdb -->
<g id="node4" class="node">
<title>toychrdb</title>
<g id="a_node4"><a xlink:href="https://logtalk.org/library/toychrdb_0.html" xlink:title="https://logtalk.org/library/toychrdb_0.html">
<polygon fill="cornsilk" stroke="black" points="778,-327.5 678,-327.5 678,-215.5 778,-215.5 778,-327.5"/>
<g id="a_node4_11"><a xlink:href="toychrdb_object_xref_diagram.svg" xlink:title="Zoom">
<image xlink:href="zoom.png" width="11px" height="11px" preserveAspectRatio="xMinYMin meet" x="686" y="-323.5"/>
</a>
</g>
<text text-anchor="start" x="688.88" y="-302.82" font-family="Monospace" font-size="9.00"> </text>
<text text-anchor="start" x="704" y="-302.05" font-family="Monospace" font-size="11.00">toychrdb</text>
<text text-anchor="start" x="764.88" y="-302.82" font-family="Monospace" font-size="9.00"> </text>
<text text-anchor="start" x="688.88" y="-291.95" font-family="Monospace" font-size="9.00"> </text>
<text text-anchor="start" x="710.75" y="-293.48" font-family="Monospace" font-size="7.00">prototype</text>
<text text-anchor="start" x="764.88" y="-291.95" font-family="Monospace" font-size="9.00"> </text>
<text text-anchor="start" x="688.88" y="-282.95" font-family="Monospace" font-size="9.00"> </text>
<text text-anchor="start" x="688.88" y="-273.95" font-family="Monospace" font-size="9.00"> </text>
<text text-anchor="start" x="710" y="-273.95" font-family="Monospace" font-size="9.00">chr_is/2</text>
<text text-anchor="start" x="764.88" y="-273.95" font-family="Monospace" font-size="9.00"> </text>
<text text-anchor="start" x="688.88" y="-264.95" font-family="Monospace" font-size="9.00"> </text>
<text text-anchor="start" x="702.12" y="-264.95" font-family="Monospace" font-size="9.00">chr_trace/0</text>
<text text-anchor="start" x="764.88" y="-264.95" font-family="Monospace" font-size="9.00"> </text>
<text text-anchor="start" x="688.88" y="-255.95" font-family="Monospace" font-size="9.00"> </text>
<text text-anchor="start" x="696.88" y="-255.95" font-family="Monospace" font-size="9.00">chr_notrace/0</text>
<text text-anchor="start" x="764.88" y="-255.95" font-family="Monospace" font-size="9.00"> </text>
<text text-anchor="start" x="688.88" y="-246.95" font-family="Monospace" font-size="9.00"> </text>
<text text-anchor="start" x="707.38" y="-246.95" font-family="Monospace" font-size="9.00">chr_spy/1</text>
<text text-anchor="start" x="764.88" y="-246.95" font-family="Monospace" font-size="9.00"> </text>
<text text-anchor="start" x="688.88" y="-237.95" font-family="Monospace" font-size="9.00"> </text>
<text text-anchor="start" x="702.12" y="-237.95" font-family="Monospace" font-size="9.00">chr_nospy/0</text>
<text text-anchor="start" x="764.88" y="-237.95" font-family="Monospace" font-size="9.00"> </text>
<text text-anchor="start" x="688.88" y="-228.95" font-family="Monospace" font-size="9.00"> </text>
<text text-anchor="start" x="699.5" y="-228.95" font-family="Monospace" font-size="9.00">chr_no_spy/1</text>
<text text-anchor="start" x="764.88" y="-228.95" font-family="Monospace" font-size="9.00"> </text>
<text text-anchor="start" x="688.88" y="-219.95" font-family="Monospace" font-size="9.00"> </text>
<text text-anchor="start" x="699.5" y="-219.95" font-family="Monospace" font-size="9.00">chr_option/2</text>
<text text-anchor="start" x="764.88" y="-219.95" font-family="Monospace" font-size="9.00"> </text>
</a>
</g>
</g>
<!-- toychrdb&#45;&gt;expanding -->
<g id="edge2" class="edge">
<title>toychrdb&#45;&gt;expanding</title>
<g id="a_edge2"><a xlink:href="https://logtalk.org/library/toychrdb_0.html" xlink:title="implements">
<path fill="none" stroke="black" d="M701.52,-327.71C686.97,-353.11 666.82,-381.9 642,-401.5 597.09,-436.97 534.64,-457.53 488.97,-468.69"/>
<ellipse fill="black" stroke="black" cx="484.73" cy="-469.69" rx="4" ry="4"/>
</a>
</g>
<g id="a_edge2&#45;label"><a xlink:href="https://logtalk.org/library/toychrdb_0.html" xlink:title="https://logtalk.org/library/toychrdb_0.html">
<text text-anchor="start" x="616" y="-418.7" font-family="Monospace" font-size="9.00">implements</text>
</a>
</g>
</g>
</g>
</svg>
