<?xml version="1.0" encoding="UTF-8" standalone="no"?>
<?xml-stylesheet href="diagrams.css" type="text/css"?>
<!DOCTYPE svg PUBLIC "-//W3C//DTD SVG 1.1//EN"
 "http://www.w3.org/Graphics/SVG/1.1/DTD/svg11.dtd">
<!-- Generated by graphviz version 2.49.3 (20211023.0002)
 -->
<!-- Title: ports Pages: 1 -->
<svg width="810pt" height="689pt"
 viewBox="72.00 72.00 738.00 617.00" xmlns="http://www.w3.org/2000/svg" xmlns:xlink="http://www.w3.org/1999/xlink">
<g id="graph0" class="graph" transform="scale(1 1) rotate(0) translate(76 613)">
<title>ports</title>
<polygon fill="white" stroke="transparent" points="-4,4 -4,-541 662,-541 662,4 -4,4"/>
<text text-anchor="start" x="8" y="-29" font-family="Monospace" font-size="10.00" fill="dimgray">Logtalk ports of third&#45;party software</text>
<text text-anchor="start" x="8" y="-18" font-family="Monospace" font-size="10.00" fill="dimgray">Inheritance diagram for library ports</text>
<text text-anchor="start" x="8" y="-7" font-family="Monospace" font-size="10.00" fill="dimgray">Generated on 2021&#45;12&#45;06, 18:57</text>
<g id="clust1" class="cluster">
<title>cluster_rlibrary_ports</title>
<g id="a_clust1"><a xlink:title="ports/">
<path fill="lightgray" stroke="dimgray" d="M20,-49C20,-49 638,-49 638,-49 644,-49 650,-55 650,-61 650,-61 650,-517 650,-517 650,-523 644,-529 638,-529 638,-529 20,-529 20,-529 14,-529 8,-523 8,-517 8,-517 8,-61 8,-61 8,-55 14,-49 20,-49"/>
<g id="a_clust1_0"><a xlink:href="https://github.com/LogtalkDotOrg/logtalk3/tree/971a9a88ef81855fcdcffea00c70833370b0699a/ports/" xlink:title="https://github.com/LogtalkDotOrg/logtalk3/tree/971a9a88ef81855fcdcffea00c70833370b0699a/ports/">
<text text-anchor="start" x="20.5" y="-59.5" font-family="Monospace" font-size="10.00" fill="dimgray">ports/</text>
</a>
</g>
</a>
</g>
</g>
<g id="clust4" class="cluster">
<title>cluster_library_metagol</title>
<g id="a_clust4"><a xlink:title="metagol/">
<path fill="whitesmoke" stroke="dimgray" d="M184,-86C184,-86 628,-86 628,-86 634,-86 640,-92 640,-98 640,-98 640,-409 640,-409 640,-415 634,-421 628,-421 628,-421 184,-421 184,-421 178,-421 172,-415 172,-409 172,-409 172,-98 172,-98 172,-92 178,-86 184,-86"/>
<g id="a_clust4_1"><a xlink:href="https://github.com/LogtalkDotOrg/logtalk3/tree/971a9a88ef81855fcdcffea00c70833370b0699a/ports/metagol/" xlink:title="https://github.com/LogtalkDotOrg/logtalk3/tree/971a9a88ef81855fcdcffea00c70833370b0699a/ports/metagol/">
<text text-anchor="start" x="184.5" y="-96.5" font-family="Monospace" font-size="10.00" fill="dimgray">metagol/</text>
</a>
</g>
</a>
</g>
</g>
<g id="clust6" class="cluster">
<title>cluster_file_/Users/pmoura/logtalk/ports/metagol/metagol.lgt</title>
<g id="a_clust6"><a xlink:title="metagol.lgt">
<path fill="snow" stroke="dimgray" d="M416,-123C416,-123 618,-123 618,-123 624,-123 630,-129 630,-135 630,-135 630,-399 630,-399 630,-405 624,-411 618,-411 618,-411 416,-411 416,-411 410,-411 404,-405 404,-399 404,-399 404,-135 404,-135 404,-129 410,-123 416,-123"/>
<g id="a_clust6_2"><a xlink:href="https://github.com/LogtalkDotOrg/logtalk3/tree/971a9a88ef81855fcdcffea00c70833370b0699a/ports/metagol/metagol.lgt" xlink:title="https://github.com/LogtalkDotOrg/logtalk3/tree/971a9a88ef81855fcdcffea00c70833370b0699a/ports/metagol/metagol.lgt">
<text text-anchor="start" x="416.5" y="-133.5" font-family="Monospace" font-size="10.00" fill="dimgray">metagol.lgt</text>
</a>
</g>
</a>
</g>
</g>
<g id="clust7" class="cluster">
<title>cluster_file_/Users/pmoura/logtalk/ports/metagol/metagol_example_protocol.lgt</title>
<g id="a_clust7"><a xlink:title="metagol_example_protocol.lgt">
<path fill="snow" stroke="dimgray" d="M194,-208C194,-208 382,-208 382,-208 388,-208 394,-214 394,-220 394,-220 394,-314 394,-314 394,-320 388,-326 382,-326 382,-326 194,-326 194,-326 188,-326 182,-320 182,-314 182,-314 182,-220 182,-220 182,-214 188,-208 194,-208"/>
<g id="a_clust7_3"><a xlink:href="https://github.com/LogtalkDotOrg/logtalk3/tree/971a9a88ef81855fcdcffea00c70833370b0699a/ports/metagol/metagol_example_protocol.lgt" xlink:title="https://github.com/LogtalkDotOrg/logtalk3/tree/971a9a88ef81855fcdcffea00c70833370b0699a/ports/metagol/metagol_example_protocol.lgt">
<text text-anchor="start" x="194.5" y="-218.5" font-family="Monospace" font-size="10.00" fill="dimgray">metagol_example_protocol.lgt</text>
</a>
</g>
</a>
</g>
</g>
<g id="clust8" class="cluster">
<title>cluster_library_toychr</title>
<g id="a_clust8"><a xlink:title="toychr/">
<path fill="whitesmoke" stroke="dimgray" d="M30,-146C30,-146 150,-146 150,-146 156,-146 162,-152 162,-158 162,-158 162,-349 162,-349 162,-355 156,-361 150,-361 150,-361 30,-361 30,-361 24,-361 18,-355 18,-349 18,-349 18,-158 18,-158 18,-152 24,-146 30,-146"/>
<g id="a_clust8_4"><a xlink:href="https://github.com/LogtalkDotOrg/logtalk3/tree/971a9a88ef81855fcdcffea00c70833370b0699a/ports/toychr/" xlink:title="https://github.com/LogtalkDotOrg/logtalk3/tree/971a9a88ef81855fcdcffea00c70833370b0699a/ports/toychr/">
<text text-anchor="start" x="30.5" y="-156.5" font-family="Monospace" font-size="10.00" fill="dimgray">toychr/</text>
</a>
</g>
</a>
</g>
</g>
<g id="clust10" class="cluster">
<title>cluster_file_/Users/pmoura/logtalk/ports/toychr/toychrdb.lgt</title>
<g id="a_clust10"><a xlink:title="toychrdb.lgt">
<path fill="snow" stroke="dimgray" d="M40,-183C40,-183 140,-183 140,-183 146,-183 152,-189 152,-195 152,-195 152,-339 152,-339 152,-345 146,-351 140,-351 140,-351 40,-351 40,-351 34,-351 28,-345 28,-339 28,-339 28,-195 28,-195 28,-189 34,-183 40,-183"/>
<g id="a_clust10_5"><a xlink:href="https://github.com/LogtalkDotOrg/logtalk3/tree/971a9a88ef81855fcdcffea00c70833370b0699a/ports/toychr/toychrdb.lgt" xlink:title="https://github.com/LogtalkDotOrg/logtalk3/tree/971a9a88ef81855fcdcffea00c70833370b0699a/ports/toychr/toychrdb.lgt">
<text text-anchor="start" x="40.5" y="-193.5" font-family="Monospace" font-size="10.00" fill="dimgray">toychrdb.lgt</text>
</a>
</g>
</a>
</g>
</g>
<!-- metagol -->
<g id="node1" class="node">
<title>metagol</title>
<g id="a_node1"><a xlink:href="https://logtalk.org/library/metagol_0.html" xlink:title="https://logtalk.org/library/metagol_0.html">
<polygon fill="cornsilk" stroke="black" points="620,-401 414,-401 414,-160 620,-160 620,-401"/>
<g id="a_node1_6"><a xlink:href="metagol_object_xref_diagram.svg" xlink:title="Zoom">
<image xlink:href="zoom.png" width="11px" height="11px" preserveAspectRatio="xMinYMin meet" x="422" y="-396.5"/>
</a>
</g>
<text text-anchor="start" x="424.5" y="-377.3" font-family="Monospace" font-size="9.00"> </text>
<text text-anchor="start" x="496" y="-376.7" font-family="Monospace" font-size="11.00">metagol</text>
<text text-anchor="start" x="606" y="-377.3" font-family="Monospace" font-size="9.00"> </text>
<text text-anchor="start" x="424.5" y="-366.3" font-family="Monospace" font-size="9.00"> </text>
<text text-anchor="start" x="500.5" y="-366.9" font-family="Monospace" font-size="7.00">prototype</text>
<text text-anchor="start" x="606" y="-366.3" font-family="Monospace" font-size="9.00"> </text>
<text text-anchor="start" x="424.5" y="-356.3" font-family="Monospace" font-size="9.00"> </text>
<text text-anchor="start" x="424.5" y="-346.3" font-family="Monospace" font-size="9.00"> </text>
<text text-anchor="start" x="500.5" y="-346.3" font-family="Monospace" font-size="9.00">learn/3</text>
<text text-anchor="start" x="606" y="-346.3" font-family="Monospace" font-size="9.00"> </text>
<text text-anchor="start" x="424.5" y="-336.3" font-family="Monospace" font-size="9.00"> </text>
<text text-anchor="start" x="500.5" y="-336.3" font-family="Monospace" font-size="9.00">learn/2</text>
<text text-anchor="start" x="606" y="-336.3" font-family="Monospace" font-size="9.00"> </text>
<text text-anchor="start" x="424.5" y="-326.3" font-family="Monospace" font-size="9.00"> </text>
<text text-anchor="start" x="489.5" y="-326.3" font-family="Monospace" font-size="9.00">learn_seq/2</text>
<text text-anchor="start" x="606" y="-326.3" font-family="Monospace" font-size="9.00"> </text>
<text text-anchor="start" x="424.5" y="-316.3" font-family="Monospace" font-size="9.00"> </text>
<text text-anchor="start" x="465" y="-316.3" font-family="Monospace" font-size="9.00">learn_with_timeout/4</text>
<text text-anchor="start" x="606" y="-316.3" font-family="Monospace" font-size="9.00"> </text>
<text text-anchor="start" x="424.5" y="-306.3" font-family="Monospace" font-size="9.00"> </text>
<text text-anchor="start" x="465" y="-306.3" font-family="Monospace" font-size="9.00">program_to_clauses/2</text>
<text text-anchor="start" x="606" y="-306.3" font-family="Monospace" font-size="9.00"> </text>
<text text-anchor="start" x="424.5" y="-296.3" font-family="Monospace" font-size="9.00"> </text>
<text text-anchor="start" x="497.5" y="-296.3" font-family="Monospace" font-size="9.00">pprint/1</text>
<text text-anchor="start" x="606" y="-296.3" font-family="Monospace" font-size="9.00"> </text>
<text text-anchor="start" x="424.5" y="-286.3" font-family="Monospace" font-size="9.00"> </text>
<text text-anchor="start" x="492" y="-286.3" font-family="Monospace" font-size="9.00">metarule/6</text>
<text text-anchor="start" x="606" y="-286.3" font-family="Monospace" font-size="9.00"> </text>
<text text-anchor="start" x="424.5" y="-276.3" font-family="Monospace" font-size="9.00"> </text>
<text text-anchor="start" x="489.5" y="-276.3" font-family="Monospace" font-size="9.00">head_pred/1</text>
<text text-anchor="start" x="606" y="-276.3" font-family="Monospace" font-size="9.00"> </text>
<text text-anchor="start" x="424.5" y="-266.3" font-family="Monospace" font-size="9.00"> </text>
<text text-anchor="start" x="489.5" y="-266.3" font-family="Monospace" font-size="9.00">body_pred/1</text>
<text text-anchor="start" x="606" y="-266.3" font-family="Monospace" font-size="9.00"> </text>
<text text-anchor="start" x="424.5" y="-256.3" font-family="Monospace" font-size="9.00"> </text>
<text text-anchor="start" x="505.5" y="-256.3" font-family="Monospace" font-size="9.00">ibk/3</text>
<text text-anchor="start" x="606" y="-256.3" font-family="Monospace" font-size="9.00"> </text>
<text text-anchor="start" x="424.5" y="-246.3" font-family="Monospace" font-size="9.00"> </text>
<text text-anchor="start" x="489.5" y="-246.3" font-family="Monospace" font-size="9.00">func_test/3</text>
<text text-anchor="start" x="606" y="-246.3" font-family="Monospace" font-size="9.00"> </text>
<text text-anchor="start" x="424.5" y="-236.3" font-family="Monospace" font-size="9.00"> </text>
<text text-anchor="start" x="487" y="-236.3" font-family="Monospace" font-size="9.00">functional/0</text>
<text text-anchor="start" x="606" y="-236.3" font-family="Monospace" font-size="9.00"> </text>
<text text-anchor="start" x="424.5" y="-226.3" font-family="Monospace" font-size="9.00"> </text>
<text text-anchor="start" x="484" y="-226.3" font-family="Monospace" font-size="9.00">min_clauses/1</text>
<text text-anchor="start" x="606" y="-226.3" font-family="Monospace" font-size="9.00"> </text>
<text text-anchor="start" x="424.5" y="-216.3" font-family="Monospace" font-size="9.00"> </text>
<text text-anchor="start" x="484" y="-216.3" font-family="Monospace" font-size="9.00">max_clauses/1</text>
<text text-anchor="start" x="606" y="-216.3" font-family="Monospace" font-size="9.00"> </text>
<text text-anchor="start" x="424.5" y="-206.3" font-family="Monospace" font-size="9.00"> </text>
<text text-anchor="start" x="478.5" y="-206.3" font-family="Monospace" font-size="9.00">max_inv_preds/1</text>
<text text-anchor="start" x="606" y="-206.3" font-family="Monospace" font-size="9.00"> </text>
<text text-anchor="start" x="424.5" y="-196.3" font-family="Monospace" font-size="9.00"> </text>
<text text-anchor="start" x="470.5" y="-196.3" font-family="Monospace" font-size="9.00">metarule_next_id/1</text>
<text text-anchor="start" x="606" y="-196.3" font-family="Monospace" font-size="9.00"> </text>
<text text-anchor="start" x="424.5" y="-186.3" font-family="Monospace" font-size="9.00"> </text>
<text text-anchor="start" x="495" y="-186.3" font-family="Monospace" font-size="9.00">timeout/1</text>
<text text-anchor="start" x="606" y="-186.3" font-family="Monospace" font-size="9.00"> </text>
<text text-anchor="start" x="424.5" y="-176.3" font-family="Monospace" font-size="9.00"> </text>
<text text-anchor="start" x="449" y="-176.3" font-family="Monospace" font-size="9.00">logtalk::message_tokens//2</text>
<text text-anchor="start" x="606" y="-176.3" font-family="Monospace" font-size="9.00"> </text>
<text text-anchor="start" x="424.5" y="-166.3" font-family="Monospace" font-size="9.00"> </text>
<text text-anchor="start" x="433" y="-166.3" font-family="Monospace" font-size="9.00">logtalk::message_prefix_stream/4</text>
<text text-anchor="start" x="606" y="-166.3" font-family="Monospace" font-size="9.00"> </text>
</a>
</g>
</g>
<!-- expanding -->
<g id="node4" class="node">
<title>expanding</title>
<g id="a_node4"><a xlink:href="https://logtalk.org/library/expanding_0.html" xlink:title="https://logtalk.org/library/expanding_0.html">
<polygon fill="mediumaquamarine" stroke="black" stroke-dasharray="5,2" points="260,-519 166,-519 166,-483 266,-483 266,-513 260,-519"/>
<polyline fill="none" stroke="black" stroke-dasharray="5,2" points="260,-519 260,-513 "/>
<polyline fill="none" stroke="black" stroke-dasharray="5,2" points="266,-513 260,-513 "/>
<text text-anchor="start" x="174" y="-503.8" font-family="Monospace" font-size="9.00"> </text>
<text text-anchor="start" x="186" y="-503.2" font-family="Monospace" font-size="11.00">expanding</text>
<text text-anchor="start" x="252" y="-503.8" font-family="Monospace" font-size="9.00"> </text>
<text text-anchor="start" x="174" y="-492.8" font-family="Monospace" font-size="9.00"> </text>
<text text-anchor="start" x="180" y="-493.4" font-family="Monospace" font-size="7.00">built&#45;in protocol</text>
<text text-anchor="start" x="252" y="-492.8" font-family="Monospace" font-size="9.00"> </text>
</a>
</g>
</g>
<!-- metagol&#45;&gt;expanding -->
<g id="edge1" class="edge">
<title>metagol&#45;&gt;expanding</title>
<g id="a_edge1"><a xlink:href="https://logtalk.org/library/metagol_0.html" xlink:title="implements">
<path fill="none" stroke="black" d="M421.92,-401.09C414.19,-408.22 406.19,-414.94 398,-421 360.52,-448.74 311.78,-469.23 274.18,-482.38"/>
<ellipse fill="black" stroke="black" cx="270.12" cy="-483.78" rx="4" ry="4"/>
</a>
</g>
<g id="a_edge1&#45;label"><a xlink:href="https://logtalk.org/library/metagol_0.html" xlink:title="https://logtalk.org/library/metagol_0.html">
<text text-anchor="start" x="371" y="-439.8" font-family="Monospace" font-size="9.00">implements</text>
</a>
</g>
</g>
<!-- metagol_example_protocol -->
<g id="node2" class="node">
<title>metagol_example_protocol</title>
<g id="a_node2"><a xlink:href="https://logtalk.org/library/metagol_example_protocol_0.html" xlink:title="https://logtalk.org/library/metagol_example_protocol_0.html">
<polygon fill="aquamarine" stroke="black" points="378,-316 192,-316 192,-245 384,-245 384,-310 378,-316"/>
<polyline fill="none" stroke="black" points="378,-316 378,-310 "/>
<polyline fill="none" stroke="black" points="384,-310 378,-310 "/>
<g id="a_node2_7"><a xlink:href="metagol_example_protocol_protocol_xref_diagram.svg" xlink:title="Zoom">
<image xlink:href="zoom.png" width="11px" height="11px" preserveAspectRatio="xMinYMin meet" x="200" y="-311.5"/>
</a>
</g>
<text text-anchor="start" x="202.5" y="-292.3" font-family="Monospace" font-size="9.00"> </text>
<text text-anchor="start" x="211" y="-291.7" font-family="Monospace" font-size="11.00">metagol_example_protocol</text>
<text text-anchor="start" x="370" y="-292.3" font-family="Monospace" font-size="9.00"> </text>
<text text-anchor="start" x="202.5" y="-281.3" font-family="Monospace" font-size="9.00"> </text>
<text text-anchor="start" x="273.5" y="-281.9" font-family="Monospace" font-size="7.00">protocol</text>
<text text-anchor="start" x="370" y="-281.3" font-family="Monospace" font-size="9.00"> </text>
<text text-anchor="start" x="202.5" y="-271.3" font-family="Monospace" font-size="9.00"> </text>
<text text-anchor="start" x="202.5" y="-261.3" font-family="Monospace" font-size="9.00"> </text>
<text text-anchor="start" x="271.5" y="-261.3" font-family="Monospace" font-size="9.00">learn/1</text>
<text text-anchor="start" x="370" y="-261.3" font-family="Monospace" font-size="9.00"> </text>
<text text-anchor="start" x="202.5" y="-251.3" font-family="Monospace" font-size="9.00"> </text>
<text text-anchor="start" x="271.5" y="-251.3" font-family="Monospace" font-size="9.00">learn/0</text>
<text text-anchor="start" x="370" y="-251.3" font-family="Monospace" font-size="9.00"> </text>
</a>
</g>
</g>
<!-- toychrdb -->
<g id="node3" class="node">
<title>toychrdb</title>
<g id="a_node3"><a xlink:href="https://logtalk.org/library/toychrdb_0.html" xlink:title="https://logtalk.org/library/toychrdb_0.html">
<polygon fill="cornsilk" stroke="black" points="142,-341 38,-341 38,-220 142,-220 142,-341"/>
<g id="a_node3_8"><a xlink:href="toychrdb_object_xref_diagram.svg" xlink:title="Zoom">
<image xlink:href="zoom.png" width="11px" height="11px" preserveAspectRatio="xMinYMin meet" x="46" y="-336.5"/>
</a>
</g>
<text text-anchor="start" x="48.5" y="-317.3" font-family="Monospace" font-size="9.00"> </text>
<text text-anchor="start" x="66" y="-316.7" font-family="Monospace" font-size="11.00">toychrdb</text>
<text text-anchor="start" x="128" y="-317.3" font-family="Monospace" font-size="9.00"> </text>
<text text-anchor="start" x="48.5" y="-306.3" font-family="Monospace" font-size="9.00"> </text>
<text text-anchor="start" x="73.5" y="-306.9" font-family="Monospace" font-size="7.00">prototype</text>
<text text-anchor="start" x="128" y="-306.3" font-family="Monospace" font-size="9.00"> </text>
<text text-anchor="start" x="48.5" y="-296.3" font-family="Monospace" font-size="9.00"> </text>
<text text-anchor="start" x="48.5" y="-286.3" font-family="Monospace" font-size="9.00"> </text>
<text text-anchor="start" x="70.5" y="-286.3" font-family="Monospace" font-size="9.00">chr_is/2</text>
<text text-anchor="start" x="128" y="-286.3" font-family="Monospace" font-size="9.00"> </text>
<text text-anchor="start" x="48.5" y="-276.3" font-family="Monospace" font-size="9.00"> </text>
<text text-anchor="start" x="62.5" y="-276.3" font-family="Monospace" font-size="9.00">chr_trace/0</text>
<text text-anchor="start" x="128" y="-276.3" font-family="Monospace" font-size="9.00"> </text>
<text text-anchor="start" x="48.5" y="-266.3" font-family="Monospace" font-size="9.00"> </text>
<text text-anchor="start" x="57" y="-266.3" font-family="Monospace" font-size="9.00">chr_notrace/0</text>
<text text-anchor="start" x="128" y="-266.3" font-family="Monospace" font-size="9.00"> </text>
<text text-anchor="start" x="48.5" y="-256.3" font-family="Monospace" font-size="9.00"> </text>
<text text-anchor="start" x="68" y="-256.3" font-family="Monospace" font-size="9.00">chr_spy/1</text>
<text text-anchor="start" x="128" y="-256.3" font-family="Monospace" font-size="9.00"> </text>
<text text-anchor="start" x="48.5" y="-246.3" font-family="Monospace" font-size="9.00"> </text>
<text text-anchor="start" x="62.5" y="-246.3" font-family="Monospace" font-size="9.00">chr_nospy/0</text>
<text text-anchor="start" x="128" y="-246.3" font-family="Monospace" font-size="9.00"> </text>
<text text-anchor="start" x="48.5" y="-236.3" font-family="Monospace" font-size="9.00"> </text>
<text text-anchor="start" x="60" y="-236.3" font-family="Monospace" font-size="9.00">chr_no_spy/1</text>
<text text-anchor="start" x="128" y="-236.3" font-family="Monospace" font-size="9.00"> </text>
<text text-anchor="start" x="48.5" y="-226.3" font-family="Monospace" font-size="9.00"> </text>
<text text-anchor="start" x="60" y="-226.3" font-family="Monospace" font-size="9.00">chr_option/2</text>
<text text-anchor="start" x="128" y="-226.3" font-family="Monospace" font-size="9.00"> </text>
</a>
</g>
</g>
<!-- toychrdb&#45;&gt;expanding -->
<g id="edge2" class="edge">
<title>toychrdb&#45;&gt;expanding</title>
<g id="a_edge2"><a xlink:href="https://logtalk.org/library/toychrdb_0.html" xlink:title="implements">
<path fill="none" stroke="black" d="M124.43,-341.21C149.93,-385.42 183.35,-443.38 201.95,-475.64"/>
<ellipse fill="black" stroke="black" cx="204.13" cy="-479.41" rx="4" ry="4"/>
</a>
</g>
<g id="a_edge2&#45;label"><a xlink:href="https://logtalk.org/library/toychrdb_0.html" xlink:title="https://logtalk.org/library/toychrdb_0.html">
<text text-anchor="start" x="182" y="-439.8" font-family="Monospace" font-size="9.00">implements</text>
</a>
</g>
</g>
</g>
</svg>
