<?xml version="1.0" encoding="UTF-8" standalone="no"?>
<?xml-stylesheet href="diagrams.css" type="text/css"?>
<!DOCTYPE svg PUBLIC "-//W3C//DTD SVG 1.1//EN"
 "http://www.w3.org/Graphics/SVG/1.1/DTD/svg11.dtd">
<!-- Generated by graphviz version 2.43.20191029.1313 (20191029.1313)
 -->
<!-- Title: print_goal_hook_object Pages: 1 -->
<svg width="480pt" height="288pt"
 viewBox="72.00 72.00 408.05 216.00" xmlns="http://www.w3.org/2000/svg" xmlns:xlink="http://www.w3.org/1999/xlink">
<g id="graph0" class="graph" transform="scale(1 1) rotate(0) translate(76 212)">
<title>print_goal_hook_object</title>
<polygon fill="white" stroke="transparent" points="-4,4 -4,-140 332.05,-140 332.05,4 -4,4"/>
<text text-anchor="start" x="8" y="-26" font-family="Courier,monospace" font-size="10.00" fill="dimgray">Logtalk library</text>
<text text-anchor="start" x="8" y="-16" font-family="Courier,monospace" font-size="10.00" fill="dimgray">Cross&#45;referencing diagram for object print_goal_hook</text>
<text text-anchor="start" x="8" y="-6" font-family="Courier,monospace" font-size="10.00" fill="dimgray">Generated on 2020&#45;05&#45;25, 21:55</text>
<g id="clust1" class="cluster">
<title>cluster_print_goal_hook_object</title>
<g id="a_clust1"><a xlink:title="print_goal_hook">
<path fill="snow" stroke="dimgray" d="M100.03,-46C100.03,-46 228.03,-46 228.03,-46 234.03,-46 240.03,-52 240.03,-58 240.03,-58 240.03,-116 240.03,-116 240.03,-122 234.03,-128 228.03,-128 228.03,-128 100.03,-128 100.03,-128 94.03,-128 88.03,-122 88.03,-116 88.03,-116 88.03,-58 88.03,-58 88.03,-52 94.03,-46 100.03,-46"/>
<g id="a_clust1_0"><a xlink:href="https://github.com/LogtalkDotOrg/logtalk3/tree/ee3e469ba16664bcc8b3b120a4a0bb7672d96db2/library/hook_objects/print_goal_hook.lgt" xlink:title="https://github.com/LogtalkDotOrg/logtalk3/tree/ee3e469ba16664bcc8b3b120a4a0bb7672d96db2/library/hook_objects/print_goal_hook.lgt">
<text text-anchor="start" x="100.02" y="-112" font-family="Courier,monospace" font-size="10.00" fill="dimgray">print_goal_hook</text>
</a>
</g>
</a>
</g>
</g>
<!-- goal_expansion/2 -->
<g id="node1" class="node">
<title>goal_expansion/2</title>
<g id="a_node1"><a xlink:href="https://github.com/LogtalkDotOrg/logtalk3/tree/ee3e469ba16664bcc8b3b120a4a0bb7672d96db2/library/hook_objects/print_goal_hook.lgt#L48" xlink:title="https://github.com/LogtalkDotOrg/logtalk3/tree/ee3e469ba16664bcc8b3b120a4a0bb7672d96db2/library/hook_objects/print_goal_hook.lgt#L48">
<polygon fill="cornsilk" stroke="black" points="229.53,-92 98.53,-92 98.53,-56 229.53,-56 229.53,-92"/>
<text text-anchor="start" x="106.82" y="-75.8" font-family="Courier,monospace" font-size="9.00"> </text>
<text text-anchor="start" x="111.72" y="-75.2" font-family="Courier,monospace" font-size="11.00">goal_expansion/2</text>
<text text-anchor="start" x="216.82" y="-75.8" font-family="Courier,monospace" font-size="9.00"> </text>
<text text-anchor="start" x="106.82" y="-65.8" font-family="Courier,monospace" font-size="9.00"> </text>
<text text-anchor="start" x="154.02" y="-66.4" font-family="Courier,monospace" font-size="7.00">local</text>
<text text-anchor="start" x="216.82" y="-65.8" font-family="Courier,monospace" font-size="9.00"> </text>
</a>
</g>
</g>
</g>
</svg>
