<?xml version="1.0" encoding="UTF-8" standalone="no"?>
<?xml-stylesheet href="diagrams.css" type="text/css"?>
<!DOCTYPE svg PUBLIC "-//W3C//DTD SVG 1.1//EN"
 "http://www.w3.org/Graphics/SVG/1.1/DTD/svg11.dtd">
<!-- Generated by graphviz version 2.49.3 (20211023.0002)
 -->
<!-- Title: print_goal_hook_object Pages: 1 -->
<svg width="481pt" height="292pt"
 viewBox="72.00 72.00 409.00 220.00" xmlns="http://www.w3.org/2000/svg" xmlns:xlink="http://www.w3.org/1999/xlink">
<g id="graph0" class="graph" transform="scale(1 1) rotate(0) translate(76 216)">
<title>print_goal_hook_object</title>
<polygon fill="white" stroke="transparent" points="-4,4 -4,-144 333,-144 333,4 -4,4"/>
<text text-anchor="start" x="8" y="-29" font-family="Monospace" font-size="10.00" fill="dimgray">Logtalk library</text>
<text text-anchor="start" x="8" y="-18" font-family="Monospace" font-size="10.00" fill="dimgray">Cross&#45;referencing diagram for object print_goal_hook</text>
<text text-anchor="start" x="8" y="-7" font-family="Monospace" font-size="10.00" fill="dimgray">Generated on 2021&#45;12&#45;14, 23:03</text>
<g id="clust1" class="cluster">
<title>cluster_print_goal_hook_object</title>
<g id="a_clust1"><a xlink:title="print_goal_hook">
<path fill="snow" stroke="dimgray" d="M99.5,-49C99.5,-49 229.5,-49 229.5,-49 235.5,-49 241.5,-55 241.5,-61 241.5,-61 241.5,-120 241.5,-120 241.5,-126 235.5,-132 229.5,-132 229.5,-132 99.5,-132 99.5,-132 93.5,-132 87.5,-126 87.5,-120 87.5,-120 87.5,-61 87.5,-61 87.5,-55 93.5,-49 99.5,-49"/>
<g id="a_clust1_0"><a xlink:href="https://github.com/LogtalkDotOrg/logtalk3/tree/842e88a2c11f73d952f6e9bbda2285f33ea741c1/library/hook_objects/print_goal_hook.lgt" xlink:title="https://github.com/LogtalkDotOrg/logtalk3/tree/842e88a2c11f73d952f6e9bbda2285f33ea741c1/library/hook_objects/print_goal_hook.lgt">
<text text-anchor="start" x="100" y="-115.5" font-family="Monospace" font-size="10.00" fill="dimgray">print_goal_hook</text>
</a>
</g>
</a>
</g>
</g>
<!-- goal_expansion/2 -->
<g id="node1" class="node">
<title>goal_expansion/2</title>
<g id="a_node1"><a xlink:href="https://github.com/LogtalkDotOrg/logtalk3/tree/842e88a2c11f73d952f6e9bbda2285f33ea741c1/library/hook_objects/print_goal_hook.lgt#L49" xlink:title="https://github.com/LogtalkDotOrg/logtalk3/tree/842e88a2c11f73d952f6e9bbda2285f33ea741c1/library/hook_objects/print_goal_hook.lgt#L49">
<polygon fill="cornsilk" stroke="black" points="231.5,-95 97.5,-95 97.5,-59 231.5,-59 231.5,-95"/>
<text text-anchor="start" x="105.5" y="-79.8" font-family="Monospace" font-size="9.00"> </text>
<text text-anchor="start" x="111.5" y="-79.2" font-family="Monospace" font-size="11.00">goal_expansion/2</text>
<text text-anchor="start" x="217.5" y="-79.8" font-family="Monospace" font-size="9.00"> </text>
<text text-anchor="start" x="105.5" y="-68.8" font-family="Monospace" font-size="9.00"> </text>
<text text-anchor="start" x="153.5" y="-69.4" font-family="Monospace" font-size="7.00">local</text>
<text text-anchor="start" x="217.5" y="-68.8" font-family="Monospace" font-size="9.00"> </text>
</a>
</g>
</g>
</g>
</svg>
