<?xml version="1.0" encoding="UTF-8" standalone="no"?>
<?xml-stylesheet href="diagrams.css" type="text/css"?>
<!DOCTYPE svg PUBLIC "-//W3C//DTD SVG 1.1//EN"
 "http://www.w3.org/Graphics/SVG/1.1/DTD/svg11.dtd">
<!-- Generated by graphviz version 2.50.0 (20211204.2007)
 -->
<!-- Title: print_goal_hook_object Pages: 1 -->
<svg width="481pt" height="292pt"
 viewBox="72.00 72.00 409.00 220.00" xmlns="http://www.w3.org/2000/svg" xmlns:xlink="http://www.w3.org/1999/xlink">
<g id="graph0" class="graph" transform="scale(1 1) rotate(0) translate(76 216)">
<title>print_goal_hook_object</title>
<polygon fill="white" stroke="transparent" points="-4,4 -4,-144 333,-144 333,4 -4,4"/>
<text text-anchor="start" x="8" y="-29" font-family="Monospace" font-size="10.00" fill="dimgray">Logtalk library</text>
<text text-anchor="start" x="8" y="-18" font-family="Monospace" font-size="10.00" fill="dimgray">Cross&#45;referencing diagram for object print_goal_hook</text>
<text text-anchor="start" x="8" y="-7" font-family="Monospace" font-size="10.00" fill="dimgray">Generated on 2022&#45;06&#45;26, 18:09</text>
<g id="clust1" class="cluster">
<title>cluster_print_goal_hook_object</title>
<g id="a_clust1"><a xlink:title="print_goal_hook">
<path fill="snow" stroke="dimgray" d="M97.5,-49C97.5,-49 231.5,-49 231.5,-49 237.5,-49 243.5,-55 243.5,-61 243.5,-61 243.5,-120 243.5,-120 243.5,-126 237.5,-132 231.5,-132 231.5,-132 97.5,-132 97.5,-132 91.5,-132 85.5,-126 85.5,-120 85.5,-120 85.5,-61 85.5,-61 85.5,-55 91.5,-49 97.5,-49"/>
<g id="a_clust1_0"><a xlink:href="https://github.com/LogtalkDotOrg/logtalk3/tree/8db99c6d940b7b4f255c5f03ee4e2278d131c2fd/library/hook_objects/print_goal_hook.lgt" xlink:title="https://github.com/LogtalkDotOrg/logtalk3/tree/8db99c6d940b7b4f255c5f03ee4e2278d131c2fd/library/hook_objects/print_goal_hook.lgt">
<text text-anchor="start" x="98" y="-115.5" font-family="Monospace" font-size="10.00" fill="dimgray">print_goal_hook</text>
</a>
</g>
</a>
</g>
</g>
<!-- goal_expansion/2 -->
<g id="node1" class="node">
<title>goal_expansion/2</title>
<g id="a_node1"><a xlink:href="https://github.com/LogtalkDotOrg/logtalk3/tree/8db99c6d940b7b4f255c5f03ee4e2278d131c2fd/library/hook_objects/print_goal_hook.lgt#L49" xlink:title="https://github.com/LogtalkDotOrg/logtalk3/tree/8db99c6d940b7b4f255c5f03ee4e2278d131c2fd/library/hook_objects/print_goal_hook.lgt#L49">
<polygon fill="cornsilk" stroke="black" points="233,-95 96,-95 96,-59 233,-59 233,-95"/>
<text text-anchor="start" x="104.5" y="-79.8" font-family="Monospace" font-size="9.00"> </text>
<text text-anchor="start" x="110.5" y="-79.2" font-family="Monospace" font-size="11.00">goal_expansion/2</text>
<text text-anchor="start" x="219.5" y="-79.8" font-family="Monospace" font-size="9.00"> </text>
<text text-anchor="start" x="104.5" y="-68.8" font-family="Monospace" font-size="9.00"> </text>
<text text-anchor="start" x="153.5" y="-69.4" font-family="Monospace" font-size="7.00">local</text>
<text text-anchor="start" x="219.5" y="-68.8" font-family="Monospace" font-size="9.00"> </text>
</a>
</g>
</g>
</g>
</svg>
