<?xml version="1.0" encoding="UTF-8" standalone="no"?>
<?xml-stylesheet href="diagrams.css" type="text/css"?>
<!DOCTYPE svg PUBLIC "-//W3C//DTD SVG 1.1//EN"
 "http://www.w3.org/Graphics/SVG/1.1/DTD/svg11.dtd">
<!-- Generated by graphviz version 10.0.1 (20240210.2158)
 -->
<!-- Title: print_goal_hook_object Pages: 1 -->
<svg width="480pt" height="293pt"
 viewBox="72.00 72.00 408.00 221.00" xmlns="http://www.w3.org/2000/svg" xmlns:xlink="http://www.w3.org/1999/xlink">
<g id="graph0" class="graph" transform="scale(1 1) rotate(0) translate(76 217)">
<title>print_goal_hook_object</title>
<polygon fill="white" stroke="none" points="-4,4 -4,-145 332,-145 332,4 -4,4"/>
<text text-anchor="start" x="8" y="-28.25" font-family="Monospace" font-size="10.00" fill="dimgray">Logtalk library</text>
<text text-anchor="start" x="8" y="-17" font-family="Monospace" font-size="10.00" fill="dimgray">Cross&#45;referencing diagram for object print_goal_hook</text>
<text text-anchor="start" x="8" y="-5.75" font-family="Monospace" font-size="10.00" fill="dimgray">Generated on 2024&#45;03&#45;07, 16:35</text>
<g id="clust1" class="cluster">
<title>cluster_print_goal_hook_object</title>
<g id="a_clust1"><a xlink:title="print_goal_hook">
<path fill="snow" stroke="dimgray" d="M99,-49.75C99,-49.75 229,-49.75 229,-49.75 235,-49.75 241,-55.75 241,-61.75 241,-61.75 241,-121 241,-121 241,-127 235,-133 229,-133 229,-133 99,-133 99,-133 93,-133 87,-127 87,-121 87,-121 87,-61.75 87,-61.75 87,-55.75 93,-49.75 99,-49.75"/>
<g id="a_clust1_0"><a xlink:href="https://github.com/LogtalkDotOrg/logtalk3/tree/d063272b5f3aaa39c56bd76dbac002dbab7679de/library/hook_objects/print_goal_hook.lgt" xlink:title="https://github.com/LogtalkDotOrg/logtalk3/tree/d063272b5f3aaa39c56bd76dbac002dbab7679de/library/hook_objects/print_goal_hook.lgt">
<text text-anchor="start" x="99" y="-115.5" font-family="Monospace" font-size="10.00" fill="dimgray">print_goal_hook</text>
</a>
</g>
</a>
</g>
</g>
<!-- goal_expansion/2 -->
<g id="node1" class="node">
<title>goal_expansion/2</title>
<g id="a_node1"><a xlink:href="https://github.com/LogtalkDotOrg/logtalk3/tree/d063272b5f3aaa39c56bd76dbac002dbab7679de/library/hook_objects/print_goal_hook.lgt#L49" xlink:title="https://github.com/LogtalkDotOrg/logtalk3/tree/d063272b5f3aaa39c56bd76dbac002dbab7679de/library/hook_objects/print_goal_hook.lgt#L49">
<polygon fill="cornsilk" stroke="black" points="231,-95.75 97,-95.75 97,-59.75 231,-59.75 231,-95.75"/>
<text text-anchor="start" x="104.88" y="-78.58" font-family="Monospace" font-size="9.00"> </text>
<text text-anchor="start" x="110" y="-77.8" font-family="Monospace" font-size="11.00">goal_expansion/2</text>
<text text-anchor="start" x="217.88" y="-78.58" font-family="Monospace" font-size="9.00"> </text>
<text text-anchor="start" x="104.88" y="-67.7" font-family="Monospace" font-size="9.00"> </text>
<text text-anchor="start" x="152.75" y="-69.22" font-family="Monospace" font-size="7.00">local</text>
<text text-anchor="start" x="217.88" y="-67.7" font-family="Monospace" font-size="9.00"> </text>
</a>
</g>
</g>
</g>
</svg>
