<?xml version="1.0" encoding="UTF-8" standalone="no"?>
<?xml-stylesheet href="diagrams.css" type="text/css"?>
<!DOCTYPE svg PUBLIC "-//W3C//DTD SVG 1.1//EN"
 "http://www.w3.org/Graphics/SVG/1.1/DTD/svg11.dtd">
<!-- Generated by graphviz version 2.49.3 (20211023.0002)
 -->
<!-- Title: print_goal_hook_object Pages: 1 -->
<svg width="428pt" height="292pt"
 viewBox="72.00 72.00 356.00 220.00" xmlns="http://www.w3.org/2000/svg" xmlns:xlink="http://www.w3.org/1999/xlink">
<g id="graph0" class="graph" transform="scale(1 1) rotate(0) translate(76 216)">
<title>print_goal_hook_object</title>
<polygon fill="white" stroke="transparent" points="-4,4 -4,-144 280,-144 280,4 -4,4"/>
<text text-anchor="start" x="8" y="-29" font-family="Courier,monospace" font-size="10.00" fill="dimgray">Logtalk library</text>
<text text-anchor="start" x="8" y="-18" font-family="Courier,monospace" font-size="10.00" fill="dimgray">Cross&#45;referencing diagram for object print_goal_hook</text>
<text text-anchor="start" x="8" y="-7" font-family="Courier,monospace" font-size="10.00" fill="dimgray">Generated on 2021&#45;11&#45;06, 11:19</text>
<g id="clust1" class="cluster">
<title>cluster_print_goal_hook_object</title>
<g id="a_clust1"><a xlink:title="print_goal_hook">
<path fill="snow" stroke="dimgray" d="M83,-49C83,-49 193,-49 193,-49 199,-49 205,-55 205,-61 205,-61 205,-120 205,-120 205,-126 199,-132 193,-132 193,-132 83,-132 83,-132 77,-132 71,-126 71,-120 71,-120 71,-61 71,-61 71,-55 77,-49 83,-49"/>
<g id="a_clust1_0"><a xlink:href="https://github.com/LogtalkDotOrg/logtalk3/tree/a3989fb2f1e2fb4f9cfaf08f25bcd7b146d4b396/library/hook_objects/print_goal_hook.lgt" xlink:title="https://github.com/LogtalkDotOrg/logtalk3/tree/a3989fb2f1e2fb4f9cfaf08f25bcd7b146d4b396/library/hook_objects/print_goal_hook.lgt">
<text text-anchor="start" x="83.5" y="-115.5" font-family="Courier,monospace" font-size="10.00" fill="dimgray">print_goal_hook</text>
</a>
</g>
</a>
</g>
</g>
<!-- goal_expansion/2 -->
<g id="node1" class="node">
<title>goal_expansion/2</title>
<g id="a_node1"><a xlink:href="https://github.com/LogtalkDotOrg/logtalk3/tree/a3989fb2f1e2fb4f9cfaf08f25bcd7b146d4b396/library/hook_objects/print_goal_hook.lgt#L49" xlink:title="https://github.com/LogtalkDotOrg/logtalk3/tree/a3989fb2f1e2fb4f9cfaf08f25bcd7b146d4b396/library/hook_objects/print_goal_hook.lgt#L49">
<polygon fill="cornsilk" stroke="black" points="195,-95 81,-95 81,-59 195,-59 195,-95"/>
<text text-anchor="start" x="89" y="-79.8" font-family="Courier,monospace" font-size="9.00"> </text>
<text text-anchor="start" x="94" y="-79.2" font-family="Courier,monospace" font-size="11.00">goal_expansion/2</text>
<text text-anchor="start" x="182" y="-79.8" font-family="Courier,monospace" font-size="9.00"> </text>
<text text-anchor="start" x="89" y="-68.8" font-family="Courier,monospace" font-size="9.00"> </text>
<text text-anchor="start" x="129" y="-69.4" font-family="Courier,monospace" font-size="7.00">local</text>
<text text-anchor="start" x="182" y="-68.8" font-family="Courier,monospace" font-size="9.00"> </text>
</a>
</g>
</g>
</g>
</svg>
