<?xml version="1.0" encoding="UTF-8" standalone="no"?>
<?xml-stylesheet href="diagrams.css" type="text/css"?>
<!DOCTYPE svg PUBLIC "-//W3C//DTD SVG 1.1//EN"
 "http://www.w3.org/Graphics/SVG/1.1/DTD/svg11.dtd">
<!-- Generated by graphviz version 2.43.20191029.1313 (20191029.1313)
 -->
<!-- Title: prolog_module_hook_1_object Pages: 1 -->
<svg width="510pt" height="288pt"
 viewBox="72.00 72.00 438.06 216.00" xmlns="http://www.w3.org/2000/svg" xmlns:xlink="http://www.w3.org/1999/xlink">
<g id="graph0" class="graph" transform="scale(1 1) rotate(0) translate(76 212)">
<title>prolog_module_hook_1_object</title>
<polygon fill="white" stroke="transparent" points="-4,4 -4,-140 362.06,-140 362.06,4 -4,4"/>
<text text-anchor="start" x="8" y="-26" font-family="Courier,monospace" font-size="10.00" fill="dimgray">Logtalk library</text>
<text text-anchor="start" x="8" y="-16" font-family="Courier,monospace" font-size="10.00" fill="dimgray">Cross&#45;referencing diagram for object prolog_module_hook/1</text>
<text text-anchor="start" x="8" y="-6" font-family="Courier,monospace" font-size="10.00" fill="dimgray">Generated on 2020&#45;05&#45;25, 21:55</text>
<g id="clust1" class="cluster">
<title>cluster_prolog_module_hook_1_object</title>
<g id="a_clust1"><a xlink:title="prolog_module_hook(Module)">
<path fill="snow" stroke="dimgray" d="M40.53,-46C40.53,-46 317.53,-46 317.53,-46 323.53,-46 329.53,-52 329.53,-58 329.53,-58 329.53,-116 329.53,-116 329.53,-122 323.53,-128 317.53,-128 317.53,-128 40.53,-128 40.53,-128 34.53,-128 28.53,-122 28.53,-116 28.53,-116 28.53,-58 28.53,-58 28.53,-52 34.53,-46 40.53,-46"/>
<g id="a_clust1_0"><a xlink:href="https://github.com/LogtalkDotOrg/logtalk3/tree/ee3e469ba16664bcc8b3b120a4a0bb7672d96db2/library/hook_objects/prolog_module_hook.lgt" xlink:title="https://github.com/LogtalkDotOrg/logtalk3/tree/ee3e469ba16664bcc8b3b120a4a0bb7672d96db2/library/hook_objects/prolog_module_hook.lgt">
<text text-anchor="start" x="40.52" y="-112" font-family="Courier,monospace" font-size="10.00" fill="dimgray">prolog_module_hook(Module)</text>
</a>
</g>
</a>
</g>
</g>
<!-- term_expansion/2 -->
<g id="node1" class="node">
<title>term_expansion/2</title>
<g id="a_node1"><a xlink:href="https://github.com/LogtalkDotOrg/logtalk3/tree/ee3e469ba16664bcc8b3b120a4a0bb7672d96db2/library/hook_objects/prolog_module_hook.lgt#L38" xlink:title="https://github.com/LogtalkDotOrg/logtalk3/tree/ee3e469ba16664bcc8b3b120a4a0bb7672d96db2/library/hook_objects/prolog_module_hook.lgt#L38">
<polygon fill="cornsilk" stroke="black" points="319.03,-92 188.03,-92 188.03,-56 319.03,-56 319.03,-92"/>
<text text-anchor="start" x="196.33" y="-75.8" font-family="Courier,monospace" font-size="9.00"> </text>
<text text-anchor="start" x="201.22" y="-75.2" font-family="Courier,monospace" font-size="11.00">term_expansion/2</text>
<text text-anchor="start" x="306.33" y="-75.8" font-family="Courier,monospace" font-size="9.00"> </text>
<text text-anchor="start" x="196.33" y="-65.8" font-family="Courier,monospace" font-size="9.00"> </text>
<text text-anchor="start" x="243.53" y="-66.4" font-family="Courier,monospace" font-size="7.00">local</text>
<text text-anchor="start" x="306.33" y="-65.8" font-family="Courier,monospace" font-size="9.00"> </text>
</a>
</g>
</g>
<!-- goal_expansion/2 -->
<g id="node2" class="node">
<title>goal_expansion/2</title>
<g id="a_node2"><a xlink:href="https://github.com/LogtalkDotOrg/logtalk3/tree/ee3e469ba16664bcc8b3b120a4a0bb7672d96db2/library/hook_objects/prolog_module_hook.lgt#L44" xlink:title="https://github.com/LogtalkDotOrg/logtalk3/tree/ee3e469ba16664bcc8b3b120a4a0bb7672d96db2/library/hook_objects/prolog_module_hook.lgt#L44">
<polygon fill="cornsilk" stroke="black" points="170.03,-92 39.03,-92 39.03,-56 170.03,-56 170.03,-92"/>
<text text-anchor="start" x="47.33" y="-75.8" font-family="Courier,monospace" font-size="9.00"> </text>
<text text-anchor="start" x="52.22" y="-75.2" font-family="Courier,monospace" font-size="11.00">goal_expansion/2</text>
<text text-anchor="start" x="157.33" y="-75.8" font-family="Courier,monospace" font-size="9.00"> </text>
<text text-anchor="start" x="47.33" y="-65.8" font-family="Courier,monospace" font-size="9.00"> </text>
<text text-anchor="start" x="94.53" y="-66.4" font-family="Courier,monospace" font-size="7.00">local</text>
<text text-anchor="start" x="157.33" y="-65.8" font-family="Courier,monospace" font-size="9.00"> </text>
</a>
</g>
</g>
</g>
</svg>
