<?xml version="1.0" encoding="UTF-8" standalone="no"?>
<?xml-stylesheet href="diagrams.css" type="text/css"?>
<!DOCTYPE svg PUBLIC "-//W3C//DTD SVG 1.1//EN"
 "http://www.w3.org/Graphics/SVG/1.1/DTD/svg11.dtd">
<!-- Generated by graphviz version 9.0.0 (20230911.1827)
 -->
<!-- Title: prolog_module_hook_1_object Pages: 1 -->
<svg width="510pt" height="293pt"
 viewBox="72.00 72.00 438.00 221.00" xmlns="http://www.w3.org/2000/svg" xmlns:xlink="http://www.w3.org/1999/xlink">
<g id="graph0" class="graph" transform="scale(1 1) rotate(0) translate(76 217)">
<title>prolog_module_hook_1_object</title>
<polygon fill="white" stroke="none" points="-4,4 -4,-145 362,-145 362,4 -4,4"/>
<text text-anchor="start" x="8" y="-28.25" font-family="Monospace" font-size="10.00" fill="dimgray">Logtalk library</text>
<text text-anchor="start" x="8" y="-17" font-family="Monospace" font-size="10.00" fill="dimgray">Cross&#45;referencing diagram for object prolog_module_hook/1</text>
<text text-anchor="start" x="8" y="-5.75" font-family="Monospace" font-size="10.00" fill="dimgray">Generated on 2023&#45;10&#45;09, 12:50</text>
<g id="clust1" class="cluster">
<title>cluster_prolog_module_hook_1_object</title>
<g id="a_clust1"><a xlink:title="prolog_module_hook(Module)">
<path fill="snow" stroke="dimgray" d="M38,-49.75C38,-49.75 320,-49.75 320,-49.75 326,-49.75 332,-55.75 332,-61.75 332,-61.75 332,-121 332,-121 332,-127 326,-133 320,-133 320,-133 38,-133 38,-133 32,-133 26,-127 26,-121 26,-121 26,-61.75 26,-61.75 26,-55.75 32,-49.75 38,-49.75"/>
<g id="a_clust1_0"><a xlink:href="https://github.com/LogtalkDotOrg/logtalk3/tree/3c4f747f8d9e43c701bd84271596cc2b326810ed/library/hook_objects/prolog_module_hook.lgt" xlink:title="https://github.com/LogtalkDotOrg/logtalk3/tree/3c4f747f8d9e43c701bd84271596cc2b326810ed/library/hook_objects/prolog_module_hook.lgt">
<text text-anchor="start" x="38" y="-115.5" font-family="Monospace" font-size="10.00" fill="dimgray">prolog_module_hook(Module)</text>
</a>
</g>
</a>
</g>
</g>
<!-- term_expansion/2 -->
<g id="node1" class="node">
<title>term_expansion/2</title>
<g id="a_node1"><a xlink:href="https://github.com/LogtalkDotOrg/logtalk3/tree/3c4f747f8d9e43c701bd84271596cc2b326810ed/library/hook_objects/prolog_module_hook.lgt#L39" xlink:title="https://github.com/LogtalkDotOrg/logtalk3/tree/3c4f747f8d9e43c701bd84271596cc2b326810ed/library/hook_objects/prolog_module_hook.lgt#L39">
<polygon fill="cornsilk" stroke="black" points="322,-95.75 188,-95.75 188,-59.75 322,-59.75 322,-95.75"/>
<text text-anchor="start" x="195.88" y="-78.58" font-family="Monospace" font-size="9.00"> </text>
<text text-anchor="start" x="201" y="-77.8" font-family="Monospace" font-size="11.00">term_expansion/2</text>
<text text-anchor="start" x="308.88" y="-78.58" font-family="Monospace" font-size="9.00"> </text>
<text text-anchor="start" x="195.88" y="-67.7" font-family="Monospace" font-size="9.00"> </text>
<text text-anchor="start" x="243.75" y="-69.22" font-family="Monospace" font-size="7.00">local</text>
<text text-anchor="start" x="308.88" y="-67.7" font-family="Monospace" font-size="9.00"> </text>
</a>
</g>
</g>
<!-- goal_expansion/2 -->
<g id="node2" class="node">
<title>goal_expansion/2</title>
<g id="a_node2"><a xlink:href="https://github.com/LogtalkDotOrg/logtalk3/tree/3c4f747f8d9e43c701bd84271596cc2b326810ed/library/hook_objects/prolog_module_hook.lgt#L45" xlink:title="https://github.com/LogtalkDotOrg/logtalk3/tree/3c4f747f8d9e43c701bd84271596cc2b326810ed/library/hook_objects/prolog_module_hook.lgt#L45">
<polygon fill="cornsilk" stroke="black" points="170,-95.75 36,-95.75 36,-59.75 170,-59.75 170,-95.75"/>
<text text-anchor="start" x="43.88" y="-78.58" font-family="Monospace" font-size="9.00"> </text>
<text text-anchor="start" x="49" y="-77.8" font-family="Monospace" font-size="11.00">goal_expansion/2</text>
<text text-anchor="start" x="156.88" y="-78.58" font-family="Monospace" font-size="9.00"> </text>
<text text-anchor="start" x="43.88" y="-67.7" font-family="Monospace" font-size="9.00"> </text>
<text text-anchor="start" x="91.75" y="-69.22" font-family="Monospace" font-size="7.00">local</text>
<text text-anchor="start" x="156.88" y="-67.7" font-family="Monospace" font-size="9.00"> </text>
</a>
</g>
</g>
</g>
</svg>
