<?xml version="1.0" encoding="UTF-8" standalone="no"?>
<?xml-stylesheet href="diagrams.css" type="text/css"?>
<!DOCTYPE svg PUBLIC "-//W3C//DTD SVG 1.1//EN"
 "http://www.w3.org/Graphics/SVG/1.1/DTD/svg11.dtd">
<!-- Generated by graphviz version 2.49.3 (20211023.0002)
 -->
<!-- Title: prolog_module_hook_1_object Pages: 1 -->
<svg width="511pt" height="292pt"
 viewBox="72.00 72.00 439.00 220.00" xmlns="http://www.w3.org/2000/svg" xmlns:xlink="http://www.w3.org/1999/xlink">
<g id="graph0" class="graph" transform="scale(1 1) rotate(0) translate(76 216)">
<title>prolog_module_hook_1_object</title>
<polygon fill="white" stroke="transparent" points="-4,4 -4,-144 363,-144 363,4 -4,4"/>
<text text-anchor="start" x="8" y="-29" font-family="Monospace" font-size="10.00" fill="dimgray">Logtalk library</text>
<text text-anchor="start" x="8" y="-18" font-family="Monospace" font-size="10.00" fill="dimgray">Cross&#45;referencing diagram for object prolog_module_hook/1</text>
<text text-anchor="start" x="8" y="-7" font-family="Monospace" font-size="10.00" fill="dimgray">Generated on 2021&#45;11&#45;30, 09:30</text>
<g id="clust1" class="cluster">
<title>cluster_prolog_module_hook_1_object</title>
<g id="a_clust1"><a xlink:title="prolog_module_hook(Module)">
<path fill="snow" stroke="dimgray" d="M38.5,-49C38.5,-49 320.5,-49 320.5,-49 326.5,-49 332.5,-55 332.5,-61 332.5,-61 332.5,-120 332.5,-120 332.5,-126 326.5,-132 320.5,-132 320.5,-132 38.5,-132 38.5,-132 32.5,-132 26.5,-126 26.5,-120 26.5,-120 26.5,-61 26.5,-61 26.5,-55 32.5,-49 38.5,-49"/>
<g id="a_clust1_0"><a xlink:href="https://github.com/LogtalkDotOrg/logtalk3/tree/fec69f27d3e50aaedd879bbe6fd77a421d4b02af/library/hook_objects/prolog_module_hook.lgt" xlink:title="https://github.com/LogtalkDotOrg/logtalk3/tree/fec69f27d3e50aaedd879bbe6fd77a421d4b02af/library/hook_objects/prolog_module_hook.lgt">
<text text-anchor="start" x="39" y="-115.5" font-family="Monospace" font-size="10.00" fill="dimgray">prolog_module_hook(Module)</text>
</a>
</g>
</a>
</g>
</g>
<!-- term_expansion/2 -->
<g id="node1" class="node">
<title>term_expansion/2</title>
<g id="a_node1"><a xlink:href="https://github.com/LogtalkDotOrg/logtalk3/tree/fec69f27d3e50aaedd879bbe6fd77a421d4b02af/library/hook_objects/prolog_module_hook.lgt#L39" xlink:title="https://github.com/LogtalkDotOrg/logtalk3/tree/fec69f27d3e50aaedd879bbe6fd77a421d4b02af/library/hook_objects/prolog_module_hook.lgt#L39">
<polygon fill="cornsilk" stroke="black" points="322.5,-95 188.5,-95 188.5,-59 322.5,-59 322.5,-95"/>
<text text-anchor="start" x="196.5" y="-79.8" font-family="Monospace" font-size="9.00"> </text>
<text text-anchor="start" x="202.5" y="-79.2" font-family="Monospace" font-size="11.00">term_expansion/2</text>
<text text-anchor="start" x="308.5" y="-79.8" font-family="Monospace" font-size="9.00"> </text>
<text text-anchor="start" x="196.5" y="-68.8" font-family="Monospace" font-size="9.00"> </text>
<text text-anchor="start" x="244.5" y="-69.4" font-family="Monospace" font-size="7.00">local</text>
<text text-anchor="start" x="308.5" y="-68.8" font-family="Monospace" font-size="9.00"> </text>
</a>
</g>
</g>
<!-- goal_expansion/2 -->
<g id="node2" class="node">
<title>goal_expansion/2</title>
<g id="a_node2"><a xlink:href="https://github.com/LogtalkDotOrg/logtalk3/tree/fec69f27d3e50aaedd879bbe6fd77a421d4b02af/library/hook_objects/prolog_module_hook.lgt#L45" xlink:title="https://github.com/LogtalkDotOrg/logtalk3/tree/fec69f27d3e50aaedd879bbe6fd77a421d4b02af/library/hook_objects/prolog_module_hook.lgt#L45">
<polygon fill="cornsilk" stroke="black" points="170.5,-95 36.5,-95 36.5,-59 170.5,-59 170.5,-95"/>
<text text-anchor="start" x="44.5" y="-79.8" font-family="Monospace" font-size="9.00"> </text>
<text text-anchor="start" x="50.5" y="-79.2" font-family="Monospace" font-size="11.00">goal_expansion/2</text>
<text text-anchor="start" x="156.5" y="-79.8" font-family="Monospace" font-size="9.00"> </text>
<text text-anchor="start" x="44.5" y="-68.8" font-family="Monospace" font-size="9.00"> </text>
<text text-anchor="start" x="92.5" y="-69.4" font-family="Monospace" font-size="7.00">local</text>
<text text-anchor="start" x="156.5" y="-68.8" font-family="Monospace" font-size="9.00"> </text>
</a>
</g>
</g>
</g>
</svg>
