<?xml version="1.0" encoding="UTF-8" standalone="no"?>
<?xml-stylesheet href="diagrams.css" type="text/css"?>
<!DOCTYPE svg PUBLIC "-//W3C//DTD SVG 1.1//EN"
 "http://www.w3.org/Graphics/SVG/1.1/DTD/svg11.dtd">
<!-- Generated by graphviz version 2.50.0 (20211204.2007)
 -->
<!-- Title: proto_hierarchyp_protocol Pages: 1 -->
<svg width="628pt" height="292pt"
 viewBox="72.00 72.00 556.00 220.00" xmlns="http://www.w3.org/2000/svg" xmlns:xlink="http://www.w3.org/1999/xlink">
<g id="graph0" class="graph" transform="scale(1 1) rotate(0) translate(76 216)">
<title>proto_hierarchyp_protocol</title>
<polygon fill="white" stroke="transparent" points="-4,4 -4,-144 480,-144 480,4 -4,4"/>
<text text-anchor="start" x="8" y="-29" font-family="Monospace" font-size="10.00" fill="dimgray">Logtalk library</text>
<text text-anchor="start" x="8" y="-18" font-family="Monospace" font-size="10.00" fill="dimgray">Cross&#45;referencing diagram for protocol proto_hierarchyp</text>
<text text-anchor="start" x="8" y="-7" font-family="Monospace" font-size="10.00" fill="dimgray">Generated on 2022&#45;06&#45;14, 08:51</text>
<g id="clust1" class="cluster">
<title>cluster_proto_hierarchyp_protocol</title>
<g id="a_clust1"><a xlink:title="proto_hierarchyp">
<path fill="snow" stroke="dimgray" d="M20,-49C20,-49 456,-49 456,-49 462,-49 468,-55 468,-61 468,-61 468,-120 468,-120 468,-126 462,-132 456,-132 456,-132 20,-132 20,-132 14,-132 8,-126 8,-120 8,-120 8,-61 8,-61 8,-55 14,-49 20,-49"/>
<g id="a_clust1_0"><a xlink:href="https://github.com/LogtalkDotOrg/logtalk3/tree/ae343be5b105689c44572fe47d027adbcbadb4a6/library/hierarchies/proto_hierarchyp.lgt" xlink:title="https://github.com/LogtalkDotOrg/logtalk3/tree/ae343be5b105689c44572fe47d027adbcbadb4a6/library/hierarchies/proto_hierarchyp.lgt">
<text text-anchor="start" x="20.5" y="-115.5" font-family="Monospace" font-size="10.00" fill="dimgray">proto_hierarchyp</text>
</a>
</g>
</a>
</g>
</g>
<!-- parent/1 -->
<g id="node1" class="node">
<title>parent/1</title>
<g id="a_node1"><a xlink:href="https://github.com/LogtalkDotOrg/logtalk3/tree/ae343be5b105689c44572fe47d027adbcbadb4a6/library/hierarchies/proto_hierarchyp.lgt#L33" xlink:title="https://github.com/LogtalkDotOrg/logtalk3/tree/ae343be5b105689c44572fe47d027adbcbadb4a6/library/hierarchies/proto_hierarchyp.lgt#L33">
<polygon fill="springgreen" stroke="black" points="457.5,-95 374.5,-95 374.5,-59 457.5,-59 457.5,-95"/>
<text text-anchor="start" x="383" y="-79.8" font-family="Monospace" font-size="9.00"> </text>
<text text-anchor="start" x="389" y="-79.2" font-family="Monospace" font-size="11.00">parent/1</text>
<text text-anchor="start" x="444" y="-79.8" font-family="Monospace" font-size="9.00"> </text>
<text text-anchor="start" x="383" y="-68.8" font-family="Monospace" font-size="9.00"> </text>
<text text-anchor="start" x="402.5" y="-69.4" font-family="Monospace" font-size="7.00">public</text>
<text text-anchor="start" x="444" y="-68.8" font-family="Monospace" font-size="9.00"> </text>
</a>
</g>
</g>
<!-- parents/1 -->
<g id="node2" class="node">
<title>parents/1</title>
<g id="a_node2"><a xlink:href="https://github.com/LogtalkDotOrg/logtalk3/tree/ae343be5b105689c44572fe47d027adbcbadb4a6/library/hierarchies/proto_hierarchyp.lgt#L40" xlink:title="https://github.com/LogtalkDotOrg/logtalk3/tree/ae343be5b105689c44572fe47d027adbcbadb4a6/library/hierarchies/proto_hierarchyp.lgt#L40">
<polygon fill="springgreen" stroke="black" points="356.5,-95 267.5,-95 267.5,-59 356.5,-59 356.5,-95"/>
<text text-anchor="start" x="276" y="-79.8" font-family="Monospace" font-size="9.00"> </text>
<text text-anchor="start" x="282" y="-79.2" font-family="Monospace" font-size="11.00">parents/1</text>
<text text-anchor="start" x="343" y="-79.8" font-family="Monospace" font-size="9.00"> </text>
<text text-anchor="start" x="276" y="-68.8" font-family="Monospace" font-size="9.00"> </text>
<text text-anchor="start" x="298.5" y="-69.4" font-family="Monospace" font-size="7.00">public</text>
<text text-anchor="start" x="343" y="-68.8" font-family="Monospace" font-size="9.00"> </text>
</a>
</g>
</g>
<!-- extension/1 -->
<g id="node3" class="node">
<title>extension/1</title>
<g id="a_node3"><a xlink:href="https://github.com/LogtalkDotOrg/logtalk3/tree/ae343be5b105689c44572fe47d027adbcbadb4a6/library/hierarchies/proto_hierarchyp.lgt#L47" xlink:title="https://github.com/LogtalkDotOrg/logtalk3/tree/ae343be5b105689c44572fe47d027adbcbadb4a6/library/hierarchies/proto_hierarchyp.lgt#L47">
<polygon fill="springgreen" stroke="black" points="249.5,-95 146.5,-95 146.5,-59 249.5,-59 249.5,-95"/>
<text text-anchor="start" x="155" y="-79.8" font-family="Monospace" font-size="9.00"> </text>
<text text-anchor="start" x="161" y="-79.2" font-family="Monospace" font-size="11.00">extension/1</text>
<text text-anchor="start" x="236" y="-79.8" font-family="Monospace" font-size="9.00"> </text>
<text text-anchor="start" x="155" y="-68.8" font-family="Monospace" font-size="9.00"> </text>
<text text-anchor="start" x="184.5" y="-69.4" font-family="Monospace" font-size="7.00">public</text>
<text text-anchor="start" x="236" y="-68.8" font-family="Monospace" font-size="9.00"> </text>
</a>
</g>
</g>
<!-- extensions/1 -->
<g id="node4" class="node">
<title>extensions/1</title>
<g id="a_node4"><a xlink:href="https://github.com/LogtalkDotOrg/logtalk3/tree/ae343be5b105689c44572fe47d027adbcbadb4a6/library/hierarchies/proto_hierarchyp.lgt#L54" xlink:title="https://github.com/LogtalkDotOrg/logtalk3/tree/ae343be5b105689c44572fe47d027adbcbadb4a6/library/hierarchies/proto_hierarchyp.lgt#L54">
<polygon fill="springgreen" stroke="black" points="128,-95 18,-95 18,-59 128,-59 128,-95"/>
<text text-anchor="start" x="26" y="-79.8" font-family="Monospace" font-size="9.00"> </text>
<text text-anchor="start" x="32" y="-79.2" font-family="Monospace" font-size="11.00">extensions/1</text>
<text text-anchor="start" x="114" y="-79.8" font-family="Monospace" font-size="9.00"> </text>
<text text-anchor="start" x="26" y="-68.8" font-family="Monospace" font-size="9.00"> </text>
<text text-anchor="start" x="59" y="-69.4" font-family="Monospace" font-size="7.00">public</text>
<text text-anchor="start" x="114" y="-68.8" font-family="Monospace" font-size="9.00"> </text>
</a>
</g>
</g>
</g>
</svg>
