<?xml version="1.0" encoding="UTF-8" standalone="no"?>
<?xml-stylesheet href="diagrams.css" type="text/css"?>
<!DOCTYPE svg PUBLIC "-//W3C//DTD SVG 1.1//EN"
 "http://www.w3.org/Graphics/SVG/1.1/DTD/svg11.dtd">
<!-- Generated by graphviz version 2.49.3 (20211023.0002)
 -->
<!-- Title: proto_hierarchyp_protocol Pages: 1 -->
<svg width="622pt" height="292pt"
 viewBox="72.00 72.00 550.00 220.00" xmlns="http://www.w3.org/2000/svg" xmlns:xlink="http://www.w3.org/1999/xlink">
<g id="graph0" class="graph" transform="scale(1 1) rotate(0) translate(76 216)">
<title>proto_hierarchyp_protocol</title>
<polygon fill="white" stroke="transparent" points="-4,4 -4,-144 474,-144 474,4 -4,4"/>
<text text-anchor="start" x="8" y="-29" font-family="Monospace" font-size="10.00" fill="dimgray">Logtalk library</text>
<text text-anchor="start" x="8" y="-18" font-family="Monospace" font-size="10.00" fill="dimgray">Cross&#45;referencing diagram for protocol proto_hierarchyp</text>
<text text-anchor="start" x="8" y="-7" font-family="Monospace" font-size="10.00" fill="dimgray">Generated on 2021&#45;12&#45;24, 11:44</text>
<g id="clust1" class="cluster">
<title>cluster_proto_hierarchyp_protocol</title>
<g id="a_clust1"><a xlink:title="proto_hierarchyp">
<path fill="snow" stroke="dimgray" d="M20,-49C20,-49 450,-49 450,-49 456,-49 462,-55 462,-61 462,-61 462,-120 462,-120 462,-126 456,-132 450,-132 450,-132 20,-132 20,-132 14,-132 8,-126 8,-120 8,-120 8,-61 8,-61 8,-55 14,-49 20,-49"/>
<g id="a_clust1_0"><a xlink:href="https://github.com/LogtalkDotOrg/logtalk3/tree/a905fb179161cf6e56e04fd87117c435e4edfe07/library/hierarchies/proto_hierarchyp.lgt" xlink:title="https://github.com/LogtalkDotOrg/logtalk3/tree/a905fb179161cf6e56e04fd87117c435e4edfe07/library/hierarchies/proto_hierarchyp.lgt">
<text text-anchor="start" x="20.5" y="-115.5" font-family="Monospace" font-size="10.00" fill="dimgray">proto_hierarchyp</text>
</a>
</g>
</a>
</g>
</g>
<!-- parent/1 -->
<g id="node1" class="node">
<title>parent/1</title>
<g id="a_node1"><a xlink:href="https://github.com/LogtalkDotOrg/logtalk3/tree/a905fb179161cf6e56e04fd87117c435e4edfe07/library/hierarchies/proto_hierarchyp.lgt#L33" xlink:title="https://github.com/LogtalkDotOrg/logtalk3/tree/a905fb179161cf6e56e04fd87117c435e4edfe07/library/hierarchies/proto_hierarchyp.lgt#L33">
<polygon fill="springgreen" stroke="black" points="451.5,-95 370.5,-95 370.5,-59 451.5,-59 451.5,-95"/>
<text text-anchor="start" x="379" y="-79.8" font-family="Monospace" font-size="9.00"> </text>
<text text-anchor="start" x="385" y="-79.2" font-family="Monospace" font-size="11.00">parent/1</text>
<text text-anchor="start" x="438" y="-79.8" font-family="Monospace" font-size="9.00"> </text>
<text text-anchor="start" x="379" y="-68.8" font-family="Monospace" font-size="9.00"> </text>
<text text-anchor="start" x="398.5" y="-69.4" font-family="Monospace" font-size="7.00">public</text>
<text text-anchor="start" x="438" y="-68.8" font-family="Monospace" font-size="9.00"> </text>
</a>
</g>
</g>
<!-- parents/1 -->
<g id="node2" class="node">
<title>parents/1</title>
<g id="a_node2"><a xlink:href="https://github.com/LogtalkDotOrg/logtalk3/tree/a905fb179161cf6e56e04fd87117c435e4edfe07/library/hierarchies/proto_hierarchyp.lgt#L40" xlink:title="https://github.com/LogtalkDotOrg/logtalk3/tree/a905fb179161cf6e56e04fd87117c435e4edfe07/library/hierarchies/proto_hierarchyp.lgt#L40">
<polygon fill="springgreen" stroke="black" points="352,-95 264,-95 264,-59 352,-59 352,-95"/>
<text text-anchor="start" x="272" y="-79.8" font-family="Monospace" font-size="9.00"> </text>
<text text-anchor="start" x="278" y="-79.2" font-family="Monospace" font-size="11.00">parents/1</text>
<text text-anchor="start" x="338" y="-79.8" font-family="Monospace" font-size="9.00"> </text>
<text text-anchor="start" x="272" y="-68.8" font-family="Monospace" font-size="9.00"> </text>
<text text-anchor="start" x="295" y="-69.4" font-family="Monospace" font-size="7.00">public</text>
<text text-anchor="start" x="338" y="-68.8" font-family="Monospace" font-size="9.00"> </text>
</a>
</g>
</g>
<!-- extension/1 -->
<g id="node3" class="node">
<title>extension/1</title>
<g id="a_node3"><a xlink:href="https://github.com/LogtalkDotOrg/logtalk3/tree/a905fb179161cf6e56e04fd87117c435e4edfe07/library/hierarchies/proto_hierarchyp.lgt#L47" xlink:title="https://github.com/LogtalkDotOrg/logtalk3/tree/a905fb179161cf6e56e04fd87117c435e4edfe07/library/hierarchies/proto_hierarchyp.lgt#L47">
<polygon fill="springgreen" stroke="black" points="245.5,-95 144.5,-95 144.5,-59 245.5,-59 245.5,-95"/>
<text text-anchor="start" x="153" y="-79.8" font-family="Monospace" font-size="9.00"> </text>
<text text-anchor="start" x="159" y="-79.2" font-family="Monospace" font-size="11.00">extension/1</text>
<text text-anchor="start" x="232" y="-79.8" font-family="Monospace" font-size="9.00"> </text>
<text text-anchor="start" x="153" y="-68.8" font-family="Monospace" font-size="9.00"> </text>
<text text-anchor="start" x="182.5" y="-69.4" font-family="Monospace" font-size="7.00">public</text>
<text text-anchor="start" x="232" y="-68.8" font-family="Monospace" font-size="9.00"> </text>
</a>
</g>
</g>
<!-- extensions/1 -->
<g id="node4" class="node">
<title>extensions/1</title>
<g id="a_node4"><a xlink:href="https://github.com/LogtalkDotOrg/logtalk3/tree/a905fb179161cf6e56e04fd87117c435e4edfe07/library/hierarchies/proto_hierarchyp.lgt#L54" xlink:title="https://github.com/LogtalkDotOrg/logtalk3/tree/a905fb179161cf6e56e04fd87117c435e4edfe07/library/hierarchies/proto_hierarchyp.lgt#L54">
<polygon fill="springgreen" stroke="black" points="126,-95 18,-95 18,-59 126,-59 126,-95"/>
<text text-anchor="start" x="26" y="-79.8" font-family="Monospace" font-size="9.00"> </text>
<text text-anchor="start" x="32" y="-79.2" font-family="Monospace" font-size="11.00">extensions/1</text>
<text text-anchor="start" x="112" y="-79.8" font-family="Monospace" font-size="9.00"> </text>
<text text-anchor="start" x="26" y="-68.8" font-family="Monospace" font-size="9.00"> </text>
<text text-anchor="start" x="59" y="-69.4" font-family="Monospace" font-size="7.00">public</text>
<text text-anchor="start" x="112" y="-68.8" font-family="Monospace" font-size="9.00"> </text>
</a>
</g>
</g>
</g>
</svg>
