<?xml version="1.0" encoding="UTF-8" standalone="no"?>
<?xml-stylesheet href="diagrams.css" type="text/css"?>
<!DOCTYPE svg PUBLIC "-//W3C//DTD SVG 1.1//EN"
 "http://www.w3.org/Graphics/SVG/1.1/DTD/svg11.dtd">
<!-- Generated by graphviz version 12.1.2 (20240928.0832)
 -->
<!-- Title: proto_hierarchyp_protocol Pages: 1 -->
<svg width="616pt" height="299pt"
 viewBox="72.00 72.00 544.00 227.00" xmlns="http://www.w3.org/2000/svg" xmlns:xlink="http://www.w3.org/1999/xlink">
<g id="graph0" class="graph" transform="scale(1 1) rotate(0) translate(76 223)">
<title>proto_hierarchyp_protocol</title>
<polygon fill="white" stroke="none" points="-4,4 -4,-151 468,-151 468,4 -4,4"/>
<text text-anchor="start" x="8" y="-32.75" font-family="Monospace" font-size="10.00" fill="dimgray">Logtalk library</text>
<text text-anchor="start" x="8" y="-20" font-family="Monospace" font-size="10.00" fill="dimgray">Cross&#45;referencing diagram for protocol proto_hierarchyp</text>
<text text-anchor="start" x="8" y="-7.25" font-family="Monospace" font-size="10.00" fill="dimgray">Generated on 2024&#45;10&#45;06, 15:54</text>
<g id="clust1" class="cluster">
<title>cluster_proto_hierarchyp_protocol</title>
<g id="a_clust1"><a xlink:title="proto_hierarchyp">
<path fill="snow" stroke="dimgray" d="M20,-54.25C20,-54.25 444,-54.25 444,-54.25 450,-54.25 456,-60.25 456,-66.25 456,-66.25 456,-127 456,-127 456,-133 450,-139 444,-139 444,-139 20,-139 20,-139 14,-139 8,-133 8,-127 8,-127 8,-66.25 8,-66.25 8,-60.25 14,-54.25 20,-54.25"/>
<g id="a_clust1_0"><a xlink:href="https://github.com/LogtalkDotOrg/logtalk3/tree/88284176e92bf749d5b58201fdc1696818d0f217/library/hierarchies/proto_hierarchyp.lgt" xlink:title="https://github.com/LogtalkDotOrg/logtalk3/tree/88284176e92bf749d5b58201fdc1696818d0f217/library/hierarchies/proto_hierarchyp.lgt">
<text text-anchor="start" x="20" y="-121.5" font-family="Monospace" font-size="10.00" fill="dimgray">proto_hierarchyp</text>
</a>
</g>
</a>
</g>
</g>
<!-- parent/1 -->
<g id="node1" class="node">
<title>parent/1</title>
<g id="a_node1"><a xlink:href="https://github.com/LogtalkDotOrg/logtalk3/tree/88284176e92bf749d5b58201fdc1696818d0f217/library/hierarchies/proto_hierarchyp.lgt#L33" xlink:title="https://github.com/LogtalkDotOrg/logtalk3/tree/88284176e92bf749d5b58201fdc1696818d0f217/library/hierarchies/proto_hierarchyp.lgt#L33">
<polygon fill="springgreen" stroke="black" points="98,-100.25 18,-100.25 18,-64.25 98,-64.25 98,-100.25"/>
<text text-anchor="start" x="25.88" y="-84.83" font-family="Monospace" font-size="9.00"> </text>
<text text-anchor="start" x="31" y="-83.8" font-family="Monospace" font-size="11.00">parent/1</text>
<text text-anchor="start" x="84.88" y="-84.83" font-family="Monospace" font-size="9.00"> </text>
<text text-anchor="start" x="25.88" y="-72.7" font-family="Monospace" font-size="9.00"> </text>
<text text-anchor="start" x="44.5" y="-73.6" font-family="Monospace" font-size="7.00">public</text>
<text text-anchor="start" x="84.88" y="-72.7" font-family="Monospace" font-size="9.00"> </text>
</a>
</g>
</g>
<!-- parents/1 -->
<g id="node2" class="node">
<title>parents/1</title>
<g id="a_node2"><a xlink:href="https://github.com/LogtalkDotOrg/logtalk3/tree/88284176e92bf749d5b58201fdc1696818d0f217/library/hierarchies/proto_hierarchyp.lgt#L40" xlink:title="https://github.com/LogtalkDotOrg/logtalk3/tree/88284176e92bf749d5b58201fdc1696818d0f217/library/hierarchies/proto_hierarchyp.lgt#L40">
<polygon fill="springgreen" stroke="black" points="202,-100.25 116,-100.25 116,-64.25 202,-64.25 202,-100.25"/>
<text text-anchor="start" x="123.88" y="-84.83" font-family="Monospace" font-size="9.00"> </text>
<text text-anchor="start" x="128.62" y="-83.8" font-family="Monospace" font-size="11.00">parents/1</text>
<text text-anchor="start" x="188.88" y="-84.83" font-family="Monospace" font-size="9.00"> </text>
<text text-anchor="start" x="123.88" y="-72.7" font-family="Monospace" font-size="9.00"> </text>
<text text-anchor="start" x="145.5" y="-73.6" font-family="Monospace" font-size="7.00">public</text>
<text text-anchor="start" x="188.88" y="-72.7" font-family="Monospace" font-size="9.00"> </text>
</a>
</g>
</g>
<!-- extension/1 -->
<g id="node3" class="node">
<title>extension/1</title>
<g id="a_node3"><a xlink:href="https://github.com/LogtalkDotOrg/logtalk3/tree/88284176e92bf749d5b58201fdc1696818d0f217/library/hierarchies/proto_hierarchyp.lgt#L47" xlink:title="https://github.com/LogtalkDotOrg/logtalk3/tree/88284176e92bf749d5b58201fdc1696818d0f217/library/hierarchies/proto_hierarchyp.lgt#L47">
<polygon fill="springgreen" stroke="black" points="320,-100.25 220,-100.25 220,-64.25 320,-64.25 320,-100.25"/>
<text text-anchor="start" x="227.88" y="-84.83" font-family="Monospace" font-size="9.00"> </text>
<text text-anchor="start" x="232.88" y="-83.8" font-family="Monospace" font-size="11.00">extension/1</text>
<text text-anchor="start" x="306.88" y="-84.83" font-family="Monospace" font-size="9.00"> </text>
<text text-anchor="start" x="227.88" y="-72.7" font-family="Monospace" font-size="9.00"> </text>
<text text-anchor="start" x="256.5" y="-73.6" font-family="Monospace" font-size="7.00">public</text>
<text text-anchor="start" x="306.88" y="-72.7" font-family="Monospace" font-size="9.00"> </text>
</a>
</g>
</g>
<!-- extensions/1 -->
<g id="node4" class="node">
<title>extensions/1</title>
<g id="a_node4"><a xlink:href="https://github.com/LogtalkDotOrg/logtalk3/tree/88284176e92bf749d5b58201fdc1696818d0f217/library/hierarchies/proto_hierarchyp.lgt#L54" xlink:title="https://github.com/LogtalkDotOrg/logtalk3/tree/88284176e92bf749d5b58201fdc1696818d0f217/library/hierarchies/proto_hierarchyp.lgt#L54">
<polygon fill="springgreen" stroke="black" points="445.5,-100.25 338.5,-100.25 338.5,-64.25 445.5,-64.25 445.5,-100.25"/>
<text text-anchor="start" x="346.38" y="-84.83" font-family="Monospace" font-size="9.00"> </text>
<text text-anchor="start" x="351.5" y="-83.8" font-family="Monospace" font-size="11.00">extensions/1</text>
<text text-anchor="start" x="432.38" y="-84.83" font-family="Monospace" font-size="9.00"> </text>
<text text-anchor="start" x="346.38" y="-72.7" font-family="Monospace" font-size="9.00"> </text>
<text text-anchor="start" x="378.5" y="-73.6" font-family="Monospace" font-size="7.00">public</text>
<text text-anchor="start" x="432.38" y="-72.7" font-family="Monospace" font-size="9.00"> </text>
</a>
</g>
</g>
</g>
</svg>
