<?xml version="1.0" encoding="UTF-8" standalone="no"?>
<?xml-stylesheet href="diagrams.css" type="text/css"?>
<!DOCTYPE svg PUBLIC "-//W3C//DTD SVG 1.1//EN"
 "http://www.w3.org/Graphics/SVG/1.1/DTD/svg11.dtd">
<!-- Generated by graphviz version 9.0.0 (20230911.1827)
 -->
<!-- Title: proto_hierarchyp_protocol Pages: 1 -->
<svg width="616pt" height="293pt"
 viewBox="72.00 72.00 544.00 221.00" xmlns="http://www.w3.org/2000/svg" xmlns:xlink="http://www.w3.org/1999/xlink">
<g id="graph0" class="graph" transform="scale(1 1) rotate(0) translate(76 217)">
<title>proto_hierarchyp_protocol</title>
<polygon fill="white" stroke="none" points="-4,4 -4,-145 468,-145 468,4 -4,4"/>
<text text-anchor="start" x="8" y="-28.25" font-family="Monospace" font-size="10.00" fill="dimgray">Logtalk library</text>
<text text-anchor="start" x="8" y="-17" font-family="Monospace" font-size="10.00" fill="dimgray">Cross&#45;referencing diagram for protocol proto_hierarchyp</text>
<text text-anchor="start" x="8" y="-5.75" font-family="Monospace" font-size="10.00" fill="dimgray">Generated on 2024&#45;01&#45;25, 22:52</text>
<g id="clust1" class="cluster">
<title>cluster_proto_hierarchyp_protocol</title>
<g id="a_clust1"><a xlink:title="proto_hierarchyp">
<path fill="snow" stroke="dimgray" d="M20,-49.75C20,-49.75 444,-49.75 444,-49.75 450,-49.75 456,-55.75 456,-61.75 456,-61.75 456,-121 456,-121 456,-127 450,-133 444,-133 444,-133 20,-133 20,-133 14,-133 8,-127 8,-121 8,-121 8,-61.75 8,-61.75 8,-55.75 14,-49.75 20,-49.75"/>
<g id="a_clust1_0"><a xlink:href="https://github.com/LogtalkDotOrg/logtalk3/tree/643d451e35eb5192a77aba683d2a64be3479d144/library/hierarchies/proto_hierarchyp.lgt" xlink:title="https://github.com/LogtalkDotOrg/logtalk3/tree/643d451e35eb5192a77aba683d2a64be3479d144/library/hierarchies/proto_hierarchyp.lgt">
<text text-anchor="start" x="20" y="-115.5" font-family="Monospace" font-size="10.00" fill="dimgray">proto_hierarchyp</text>
</a>
</g>
</a>
</g>
</g>
<!-- parent/1 -->
<g id="node1" class="node">
<title>parent/1</title>
<g id="a_node1"><a xlink:href="https://github.com/LogtalkDotOrg/logtalk3/tree/643d451e35eb5192a77aba683d2a64be3479d144/library/hierarchies/proto_hierarchyp.lgt#L33" xlink:title="https://github.com/LogtalkDotOrg/logtalk3/tree/643d451e35eb5192a77aba683d2a64be3479d144/library/hierarchies/proto_hierarchyp.lgt#L33">
<polygon fill="springgreen" stroke="black" points="446,-95.75 366,-95.75 366,-59.75 446,-59.75 446,-95.75"/>
<text text-anchor="start" x="373.88" y="-78.58" font-family="Monospace" font-size="9.00"> </text>
<text text-anchor="start" x="379" y="-77.8" font-family="Monospace" font-size="11.00">parent/1</text>
<text text-anchor="start" x="432.88" y="-78.58" font-family="Monospace" font-size="9.00"> </text>
<text text-anchor="start" x="373.88" y="-67.7" font-family="Monospace" font-size="9.00"> </text>
<text text-anchor="start" x="392.5" y="-69.22" font-family="Monospace" font-size="7.00">public</text>
<text text-anchor="start" x="432.88" y="-67.7" font-family="Monospace" font-size="9.00"> </text>
</a>
</g>
</g>
<!-- parents/1 -->
<g id="node2" class="node">
<title>parents/1</title>
<g id="a_node2"><a xlink:href="https://github.com/LogtalkDotOrg/logtalk3/tree/643d451e35eb5192a77aba683d2a64be3479d144/library/hierarchies/proto_hierarchyp.lgt#L40" xlink:title="https://github.com/LogtalkDotOrg/logtalk3/tree/643d451e35eb5192a77aba683d2a64be3479d144/library/hierarchies/proto_hierarchyp.lgt#L40">
<polygon fill="springgreen" stroke="black" points="348,-95.75 262,-95.75 262,-59.75 348,-59.75 348,-95.75"/>
<text text-anchor="start" x="269.88" y="-78.58" font-family="Monospace" font-size="9.00"> </text>
<text text-anchor="start" x="274.62" y="-77.8" font-family="Monospace" font-size="11.00">parents/1</text>
<text text-anchor="start" x="334.88" y="-78.58" font-family="Monospace" font-size="9.00"> </text>
<text text-anchor="start" x="269.88" y="-67.7" font-family="Monospace" font-size="9.00"> </text>
<text text-anchor="start" x="291.5" y="-69.22" font-family="Monospace" font-size="7.00">public</text>
<text text-anchor="start" x="334.88" y="-67.7" font-family="Monospace" font-size="9.00"> </text>
</a>
</g>
</g>
<!-- extension/1 -->
<g id="node3" class="node">
<title>extension/1</title>
<g id="a_node3"><a xlink:href="https://github.com/LogtalkDotOrg/logtalk3/tree/643d451e35eb5192a77aba683d2a64be3479d144/library/hierarchies/proto_hierarchyp.lgt#L47" xlink:title="https://github.com/LogtalkDotOrg/logtalk3/tree/643d451e35eb5192a77aba683d2a64be3479d144/library/hierarchies/proto_hierarchyp.lgt#L47">
<polygon fill="springgreen" stroke="black" points="244,-95.75 144,-95.75 144,-59.75 244,-59.75 244,-95.75"/>
<text text-anchor="start" x="151.88" y="-78.58" font-family="Monospace" font-size="9.00"> </text>
<text text-anchor="start" x="156.88" y="-77.8" font-family="Monospace" font-size="11.00">extension/1</text>
<text text-anchor="start" x="230.88" y="-78.58" font-family="Monospace" font-size="9.00"> </text>
<text text-anchor="start" x="151.88" y="-67.7" font-family="Monospace" font-size="9.00"> </text>
<text text-anchor="start" x="180.5" y="-69.22" font-family="Monospace" font-size="7.00">public</text>
<text text-anchor="start" x="230.88" y="-67.7" font-family="Monospace" font-size="9.00"> </text>
</a>
</g>
</g>
<!-- extensions/1 -->
<g id="node4" class="node">
<title>extensions/1</title>
<g id="a_node4"><a xlink:href="https://github.com/LogtalkDotOrg/logtalk3/tree/643d451e35eb5192a77aba683d2a64be3479d144/library/hierarchies/proto_hierarchyp.lgt#L54" xlink:title="https://github.com/LogtalkDotOrg/logtalk3/tree/643d451e35eb5192a77aba683d2a64be3479d144/library/hierarchies/proto_hierarchyp.lgt#L54">
<polygon fill="springgreen" stroke="black" points="125.5,-95.75 18.5,-95.75 18.5,-59.75 125.5,-59.75 125.5,-95.75"/>
<text text-anchor="start" x="26.38" y="-78.58" font-family="Monospace" font-size="9.00"> </text>
<text text-anchor="start" x="31.5" y="-77.8" font-family="Monospace" font-size="11.00">extensions/1</text>
<text text-anchor="start" x="112.38" y="-78.58" font-family="Monospace" font-size="9.00"> </text>
<text text-anchor="start" x="26.38" y="-67.7" font-family="Monospace" font-size="9.00"> </text>
<text text-anchor="start" x="58.5" y="-69.22" font-family="Monospace" font-size="7.00">public</text>
<text text-anchor="start" x="112.38" y="-67.7" font-family="Monospace" font-size="9.00"> </text>
</a>
</g>
</g>
</g>
</svg>
