<?xml version="1.0" encoding="UTF-8" standalone="no"?>
<?xml-stylesheet href="diagrams.css" type="text/css"?>
<!DOCTYPE svg PUBLIC "-//W3C//DTD SVG 1.1//EN"
 "http://www.w3.org/Graphics/SVG/1.1/DTD/svg11.dtd">
<!-- Generated by graphviz version 10.0.1 (20240210.2158)
 -->
<!-- Title: pseudo_random_protocol_protocol Pages: 1 -->
<svg width="534pt" height="293pt"
 viewBox="72.00 72.00 462.00 221.00" xmlns="http://www.w3.org/2000/svg" xmlns:xlink="http://www.w3.org/1999/xlink">
<g id="graph0" class="graph" transform="scale(1 1) rotate(0) translate(76 217)">
<title>pseudo_random_protocol_protocol</title>
<polygon fill="white" stroke="none" points="-4,4 -4,-145 386,-145 386,4 -4,4"/>
<text text-anchor="start" x="8" y="-28.25" font-family="Monospace" font-size="10.00" fill="dimgray">Logtalk library</text>
<text text-anchor="start" x="8" y="-17" font-family="Monospace" font-size="10.00" fill="dimgray">Cross&#45;referencing diagram for protocol pseudo_random_protocol</text>
<text text-anchor="start" x="8" y="-5.75" font-family="Monospace" font-size="10.00" fill="dimgray">Generated on 2024&#45;03&#45;18, 10:33</text>
<g id="clust1" class="cluster">
<title>cluster_pseudo_random_protocol_protocol</title>
<g id="a_clust1"><a xlink:title="pseudo_random_protocol">
<path fill="snow" stroke="dimgray" d="M68,-49.75C68,-49.75 314,-49.75 314,-49.75 320,-49.75 326,-55.75 326,-61.75 326,-61.75 326,-121 326,-121 326,-127 320,-133 314,-133 314,-133 68,-133 68,-133 62,-133 56,-127 56,-121 56,-121 56,-61.75 56,-61.75 56,-55.75 62,-49.75 68,-49.75"/>
<g id="a_clust1_0"><a xlink:href="https://github.com/LogtalkDotOrg/logtalk3/tree/a96ddff2270b66c7a57bb1c972486ef211b1570a/library/random/pseudo_random_protocol.lgt" xlink:title="https://github.com/LogtalkDotOrg/logtalk3/tree/a96ddff2270b66c7a57bb1c972486ef211b1570a/library/random/pseudo_random_protocol.lgt">
<text text-anchor="start" x="68" y="-115.5" font-family="Monospace" font-size="10.00" fill="dimgray">pseudo_random_protocol</text>
</a>
</g>
</a>
</g>
</g>
<!-- get_seed/1 -->
<g id="node1" class="node">
<title>get_seed/1</title>
<g id="a_node1"><a xlink:href="https://github.com/LogtalkDotOrg/logtalk3/tree/a96ddff2270b66c7a57bb1c972486ef211b1570a/library/random/pseudo_random_protocol.lgt#L33" xlink:title="https://github.com/LogtalkDotOrg/logtalk3/tree/a96ddff2270b66c7a57bb1c972486ef211b1570a/library/random/pseudo_random_protocol.lgt#L33">
<polygon fill="springgreen" stroke="black" points="182,-95.75 66,-95.75 66,-59.75 182,-59.75 182,-95.75"/>
<text text-anchor="start" x="73.88" y="-78.58" font-family="Monospace" font-size="9.00"> </text>
<text text-anchor="start" x="90.25" y="-77.8" font-family="Monospace" font-size="11.00">get_seed/1</text>
<text text-anchor="start" x="168.88" y="-78.58" font-family="Monospace" font-size="9.00"> </text>
<text text-anchor="start" x="73.88" y="-67.7" font-family="Monospace" font-size="9.00"> </text>
<text text-anchor="start" x="79" y="-69.22" font-family="Monospace" font-size="7.00">public, synchronized</text>
<text text-anchor="start" x="168.88" y="-67.7" font-family="Monospace" font-size="9.00"> </text>
</a>
</g>
</g>
<!-- set_seed/1 -->
<g id="node2" class="node">
<title>set_seed/1</title>
<g id="a_node2"><a xlink:href="https://github.com/LogtalkDotOrg/logtalk3/tree/a96ddff2270b66c7a57bb1c972486ef211b1570a/library/random/pseudo_random_protocol.lgt#L40" xlink:title="https://github.com/LogtalkDotOrg/logtalk3/tree/a96ddff2270b66c7a57bb1c972486ef211b1570a/library/random/pseudo_random_protocol.lgt#L40">
<polygon fill="springgreen" stroke="black" points="316,-95.75 200,-95.75 200,-59.75 316,-59.75 316,-95.75"/>
<text text-anchor="start" x="207.88" y="-78.58" font-family="Monospace" font-size="9.00"> </text>
<text text-anchor="start" x="224.25" y="-77.8" font-family="Monospace" font-size="11.00">set_seed/1</text>
<text text-anchor="start" x="302.88" y="-78.58" font-family="Monospace" font-size="9.00"> </text>
<text text-anchor="start" x="207.88" y="-67.7" font-family="Monospace" font-size="9.00"> </text>
<text text-anchor="start" x="213" y="-69.22" font-family="Monospace" font-size="7.00">public, synchronized</text>
<text text-anchor="start" x="302.88" y="-67.7" font-family="Monospace" font-size="9.00"> </text>
</a>
</g>
</g>
</g>
</svg>
