<?xml version="1.0" encoding="UTF-8" standalone="no"?>
<?xml-stylesheet href="diagrams.css" type="text/css"?>
<!DOCTYPE svg PUBLIC "-//W3C//DTD SVG 1.1//EN"
 "http://www.w3.org/Graphics/SVG/1.1/DTD/svg11.dtd">
<!-- Generated by graphviz version 2.49.3 (20211023.0002)
 -->
<!-- Title: pseudo_random_protocol_protocol Pages: 1 -->
<svg width="535pt" height="292pt"
 viewBox="72.00 72.00 463.00 220.00" xmlns="http://www.w3.org/2000/svg" xmlns:xlink="http://www.w3.org/1999/xlink">
<g id="graph0" class="graph" transform="scale(1 1) rotate(0) translate(76 216)">
<title>pseudo_random_protocol_protocol</title>
<polygon fill="white" stroke="transparent" points="-4,4 -4,-144 387,-144 387,4 -4,4"/>
<text text-anchor="start" x="8" y="-29" font-family="Monospace" font-size="10.00" fill="dimgray">Logtalk library</text>
<text text-anchor="start" x="8" y="-18" font-family="Monospace" font-size="10.00" fill="dimgray">Cross&#45;referencing diagram for protocol pseudo_random_protocol</text>
<text text-anchor="start" x="8" y="-7" font-family="Monospace" font-size="10.00" fill="dimgray">Generated on 2021&#45;12&#45;02, 11:40</text>
<g id="clust1" class="cluster">
<title>cluster_pseudo_random_protocol_protocol</title>
<g id="a_clust1"><a xlink:title="pseudo_random_protocol">
<path fill="snow" stroke="dimgray" d="M71,-49C71,-49 312,-49 312,-49 318,-49 324,-55 324,-61 324,-61 324,-120 324,-120 324,-126 318,-132 312,-132 312,-132 71,-132 71,-132 65,-132 59,-126 59,-120 59,-120 59,-61 59,-61 59,-55 65,-49 71,-49"/>
<g id="a_clust1_0"><a xlink:href="https://github.com/LogtalkDotOrg/logtalk3/tree/76eb8a7f02e34ca7daff6f504354094e9cbef754/library/random/pseudo_random_protocol.lgt" xlink:title="https://github.com/LogtalkDotOrg/logtalk3/tree/76eb8a7f02e34ca7daff6f504354094e9cbef754/library/random/pseudo_random_protocol.lgt">
<text text-anchor="start" x="71.5" y="-115.5" font-family="Monospace" font-size="10.00" fill="dimgray">pseudo_random_protocol</text>
</a>
</g>
</a>
</g>
</g>
<!-- get_seed/1 -->
<g id="node1" class="node">
<title>get_seed/1</title>
<g id="a_node1"><a xlink:href="https://github.com/LogtalkDotOrg/logtalk3/tree/76eb8a7f02e34ca7daff6f504354094e9cbef754/library/random/pseudo_random_protocol.lgt#L33" xlink:title="https://github.com/LogtalkDotOrg/logtalk3/tree/76eb8a7f02e34ca7daff6f504354094e9cbef754/library/random/pseudo_random_protocol.lgt#L33">
<polygon fill="springgreen" stroke="black" points="313.5,-95 200.5,-95 200.5,-59 313.5,-59 313.5,-95"/>
<text text-anchor="start" x="209" y="-79.8" font-family="Monospace" font-size="9.00"> </text>
<text text-anchor="start" x="224" y="-79.2" font-family="Monospace" font-size="11.00">get_seed/1</text>
<text text-anchor="start" x="300" y="-79.8" font-family="Monospace" font-size="9.00"> </text>
<text text-anchor="start" x="209" y="-68.8" font-family="Monospace" font-size="9.00"> </text>
<text text-anchor="start" x="215" y="-69.4" font-family="Monospace" font-size="7.00">public, synchronized</text>
<text text-anchor="start" x="300" y="-68.8" font-family="Monospace" font-size="9.00"> </text>
</a>
</g>
</g>
<!-- set_seed/1 -->
<g id="node2" class="node">
<title>set_seed/1</title>
<g id="a_node2"><a xlink:href="https://github.com/LogtalkDotOrg/logtalk3/tree/76eb8a7f02e34ca7daff6f504354094e9cbef754/library/random/pseudo_random_protocol.lgt#L40" xlink:title="https://github.com/LogtalkDotOrg/logtalk3/tree/76eb8a7f02e34ca7daff6f504354094e9cbef754/library/random/pseudo_random_protocol.lgt#L40">
<polygon fill="springgreen" stroke="black" points="182.5,-95 69.5,-95 69.5,-59 182.5,-59 182.5,-95"/>
<text text-anchor="start" x="78" y="-79.8" font-family="Monospace" font-size="9.00"> </text>
<text text-anchor="start" x="93" y="-79.2" font-family="Monospace" font-size="11.00">set_seed/1</text>
<text text-anchor="start" x="169" y="-79.8" font-family="Monospace" font-size="9.00"> </text>
<text text-anchor="start" x="78" y="-68.8" font-family="Monospace" font-size="9.00"> </text>
<text text-anchor="start" x="84" y="-69.4" font-family="Monospace" font-size="7.00">public, synchronized</text>
<text text-anchor="start" x="169" y="-68.8" font-family="Monospace" font-size="9.00"> </text>
</a>
</g>
</g>
</g>
</svg>
