<?xml version="1.0" encoding="UTF-8" standalone="no"?>
<?xml-stylesheet href="diagrams.css" type="text/css"?>
<!DOCTYPE svg PUBLIC "-//W3C//DTD SVG 1.1//EN"
 "http://www.w3.org/Graphics/SVG/1.1/DTD/svg11.dtd">
<!-- Generated by graphviz version 11.0.0 (20240428.1522)
 -->
<!-- Title: pseudo_random_protocol_protocol Pages: 1 -->
<svg width="534pt" height="299pt"
 viewBox="72.00 72.00 462.00 227.00" xmlns="http://www.w3.org/2000/svg" xmlns:xlink="http://www.w3.org/1999/xlink">
<g id="graph0" class="graph" transform="scale(1 1) rotate(0) translate(76 223)">
<title>pseudo_random_protocol_protocol</title>
<polygon fill="white" stroke="none" points="-4,4 -4,-151 386,-151 386,4 -4,4"/>
<text text-anchor="start" x="8" y="-32.75" font-family="Monospace" font-size="10.00" fill="dimgray">Logtalk library</text>
<text text-anchor="start" x="8" y="-20" font-family="Monospace" font-size="10.00" fill="dimgray">Cross&#45;referencing diagram for protocol pseudo_random_protocol</text>
<text text-anchor="start" x="8" y="-7.25" font-family="Monospace" font-size="10.00" fill="dimgray">Generated on 2024&#45;06&#45;03, 22:52</text>
<g id="clust1" class="cluster">
<title>cluster_pseudo_random_protocol_protocol</title>
<g id="a_clust1"><a xlink:title="pseudo_random_protocol">
<path fill="snow" stroke="dimgray" d="M68,-54.25C68,-54.25 314,-54.25 314,-54.25 320,-54.25 326,-60.25 326,-66.25 326,-66.25 326,-127 326,-127 326,-133 320,-139 314,-139 314,-139 68,-139 68,-139 62,-139 56,-133 56,-127 56,-127 56,-66.25 56,-66.25 56,-60.25 62,-54.25 68,-54.25"/>
<g id="a_clust1_0"><a xlink:href="https://github.com/LogtalkDotOrg/logtalk3/tree/d5ac2821821f309e9e5a4c1180778113707abf06/library/random/pseudo_random_protocol.lgt" xlink:title="https://github.com/LogtalkDotOrg/logtalk3/tree/d5ac2821821f309e9e5a4c1180778113707abf06/library/random/pseudo_random_protocol.lgt">
<text text-anchor="start" x="68" y="-121.5" font-family="Monospace" font-size="10.00" fill="dimgray">pseudo_random_protocol</text>
</a>
</g>
</a>
</g>
</g>
<!-- get_seed/1 -->
<g id="node1" class="node">
<title>get_seed/1</title>
<g id="a_node1"><a xlink:href="https://github.com/LogtalkDotOrg/logtalk3/tree/d5ac2821821f309e9e5a4c1180778113707abf06/library/random/pseudo_random_protocol.lgt#L33" xlink:title="https://github.com/LogtalkDotOrg/logtalk3/tree/d5ac2821821f309e9e5a4c1180778113707abf06/library/random/pseudo_random_protocol.lgt#L33">
<polygon fill="springgreen" stroke="black" points="182,-100.25 66,-100.25 66,-64.25 182,-64.25 182,-100.25"/>
<text text-anchor="start" x="73.88" y="-84.83" font-family="Monospace" font-size="9.00"> </text>
<text text-anchor="start" x="90.25" y="-83.8" font-family="Monospace" font-size="11.00">get_seed/1</text>
<text text-anchor="start" x="168.88" y="-84.83" font-family="Monospace" font-size="9.00"> </text>
<text text-anchor="start" x="73.88" y="-72.7" font-family="Monospace" font-size="9.00"> </text>
<text text-anchor="start" x="79" y="-73.6" font-family="Monospace" font-size="7.00">public, synchronized</text>
<text text-anchor="start" x="168.88" y="-72.7" font-family="Monospace" font-size="9.00"> </text>
</a>
</g>
</g>
<!-- set_seed/1 -->
<g id="node2" class="node">
<title>set_seed/1</title>
<g id="a_node2"><a xlink:href="https://github.com/LogtalkDotOrg/logtalk3/tree/d5ac2821821f309e9e5a4c1180778113707abf06/library/random/pseudo_random_protocol.lgt#L40" xlink:title="https://github.com/LogtalkDotOrg/logtalk3/tree/d5ac2821821f309e9e5a4c1180778113707abf06/library/random/pseudo_random_protocol.lgt#L40">
<polygon fill="springgreen" stroke="black" points="316,-100.25 200,-100.25 200,-64.25 316,-64.25 316,-100.25"/>
<text text-anchor="start" x="207.88" y="-84.83" font-family="Monospace" font-size="9.00"> </text>
<text text-anchor="start" x="224.25" y="-83.8" font-family="Monospace" font-size="11.00">set_seed/1</text>
<text text-anchor="start" x="302.88" y="-84.83" font-family="Monospace" font-size="9.00"> </text>
<text text-anchor="start" x="207.88" y="-72.7" font-family="Monospace" font-size="9.00"> </text>
<text text-anchor="start" x="213" y="-73.6" font-family="Monospace" font-size="7.00">public, synchronized</text>
<text text-anchor="start" x="302.88" y="-72.7" font-family="Monospace" font-size="9.00"> </text>
</a>
</g>
</g>
</g>
</svg>
