<?xml version="1.0" encoding="UTF-8" standalone="no"?>
<?xml-stylesheet href="diagrams.css" type="text/css"?>
<!DOCTYPE svg PUBLIC "-//W3C//DTD SVG 1.1//EN"
 "http://www.w3.org/Graphics/SVG/1.1/DTD/svg11.dtd">
<!-- Generated by graphviz version 2.49.3 (20211023.0002)
 -->
<!-- Title: pseudo_random_protocol_protocol Pages: 1 -->
<svg width="473pt" height="292pt"
 viewBox="72.00 72.00 401.00 220.00" xmlns="http://www.w3.org/2000/svg" xmlns:xlink="http://www.w3.org/1999/xlink">
<g id="graph0" class="graph" transform="scale(1 1) rotate(0) translate(76 216)">
<title>pseudo_random_protocol_protocol</title>
<polygon fill="white" stroke="transparent" points="-4,4 -4,-144 325,-144 325,4 -4,4"/>
<text text-anchor="start" x="8" y="-29" font-family="Courier,monospace" font-size="10.00" fill="dimgray">Logtalk library</text>
<text text-anchor="start" x="8" y="-18" font-family="Courier,monospace" font-size="10.00" fill="dimgray">Cross&#45;referencing diagram for protocol pseudo_random_protocol</text>
<text text-anchor="start" x="8" y="-7" font-family="Courier,monospace" font-size="10.00" fill="dimgray">Generated on 2021&#45;11&#45;13, 18:29</text>
<g id="clust1" class="cluster">
<title>cluster_pseudo_random_protocol_protocol</title>
<g id="a_clust1"><a xlink:title="pseudo_random_protocol">
<path fill="snow" stroke="dimgray" d="M57.5,-49C57.5,-49 263.5,-49 263.5,-49 269.5,-49 275.5,-55 275.5,-61 275.5,-61 275.5,-120 275.5,-120 275.5,-126 269.5,-132 263.5,-132 263.5,-132 57.5,-132 57.5,-132 51.5,-132 45.5,-126 45.5,-120 45.5,-120 45.5,-61 45.5,-61 45.5,-55 51.5,-49 57.5,-49"/>
<g id="a_clust1_0"><a xlink:href="https://github.com/LogtalkDotOrg/logtalk3/tree/9faf5dbd41dcda13eefe9bff6f1dfa22e6d84b6c/library/random/pseudo_random_protocol.lgt" xlink:title="https://github.com/LogtalkDotOrg/logtalk3/tree/9faf5dbd41dcda13eefe9bff6f1dfa22e6d84b6c/library/random/pseudo_random_protocol.lgt">
<text text-anchor="start" x="57.5" y="-115.5" font-family="Courier,monospace" font-size="10.00" fill="dimgray">pseudo_random_protocol</text>
</a>
</g>
</a>
</g>
</g>
<!-- get_seed/1 -->
<g id="node1" class="node">
<title>get_seed/1</title>
<g id="a_node1"><a xlink:href="https://github.com/LogtalkDotOrg/logtalk3/tree/9faf5dbd41dcda13eefe9bff6f1dfa22e6d84b6c/library/random/pseudo_random_protocol.lgt#L33" xlink:title="https://github.com/LogtalkDotOrg/logtalk3/tree/9faf5dbd41dcda13eefe9bff6f1dfa22e6d84b6c/library/random/pseudo_random_protocol.lgt#L33">
<polygon fill="springgreen" stroke="black" points="265.5,-95 169.5,-95 169.5,-59 265.5,-59 265.5,-95"/>
<text text-anchor="start" x="177.5" y="-79.8" font-family="Courier,monospace" font-size="9.00"> </text>
<text text-anchor="start" x="190" y="-79.2" font-family="Courier,monospace" font-size="11.00">get_seed/1</text>
<text text-anchor="start" x="252.5" y="-79.8" font-family="Courier,monospace" font-size="9.00"> </text>
<text text-anchor="start" x="177.5" y="-68.8" font-family="Courier,monospace" font-size="9.00"> </text>
<text text-anchor="start" x="182.5" y="-69.4" font-family="Courier,monospace" font-size="7.00">public, synchronized</text>
<text text-anchor="start" x="252.5" y="-68.8" font-family="Courier,monospace" font-size="9.00"> </text>
</a>
</g>
</g>
<!-- set_seed/1 -->
<g id="node2" class="node">
<title>set_seed/1</title>
<g id="a_node2"><a xlink:href="https://github.com/LogtalkDotOrg/logtalk3/tree/9faf5dbd41dcda13eefe9bff6f1dfa22e6d84b6c/library/random/pseudo_random_protocol.lgt#L40" xlink:title="https://github.com/LogtalkDotOrg/logtalk3/tree/9faf5dbd41dcda13eefe9bff6f1dfa22e6d84b6c/library/random/pseudo_random_protocol.lgt#L40">
<polygon fill="springgreen" stroke="black" points="151.5,-95 55.5,-95 55.5,-59 151.5,-59 151.5,-95"/>
<text text-anchor="start" x="63.5" y="-79.8" font-family="Courier,monospace" font-size="9.00"> </text>
<text text-anchor="start" x="76" y="-79.2" font-family="Courier,monospace" font-size="11.00">set_seed/1</text>
<text text-anchor="start" x="138.5" y="-79.8" font-family="Courier,monospace" font-size="9.00"> </text>
<text text-anchor="start" x="63.5" y="-68.8" font-family="Courier,monospace" font-size="9.00"> </text>
<text text-anchor="start" x="68.5" y="-69.4" font-family="Courier,monospace" font-size="7.00">public, synchronized</text>
<text text-anchor="start" x="138.5" y="-68.8" font-family="Courier,monospace" font-size="9.00"> </text>
</a>
</g>
</g>
</g>
</svg>
