<?xml version="1.0" encoding="UTF-8" standalone="no"?>
<?xml-stylesheet href="diagrams.css" type="text/css"?>
<!DOCTYPE svg PUBLIC "-//W3C//DTD SVG 1.1//EN"
 "http://www.w3.org/Graphics/SVG/1.1/DTD/svg11.dtd">
<!-- Generated by graphviz version 2.43.20191029.1313 (20191029.1313)
 -->
<!-- Title: pseudo_random_protocol_protocol Pages: 1 -->
<svg width="534pt" height="288pt"
 viewBox="72.00 72.00 462.06 216.00" xmlns="http://www.w3.org/2000/svg" xmlns:xlink="http://www.w3.org/1999/xlink">
<g id="graph0" class="graph" transform="scale(1 1) rotate(0) translate(76 212)">
<title>pseudo_random_protocol_protocol</title>
<polygon fill="white" stroke="transparent" points="-4,4 -4,-140 386.06,-140 386.06,4 -4,4"/>
<text text-anchor="start" x="8" y="-26" font-family="Courier,monospace" font-size="10.00" fill="dimgray">Logtalk library</text>
<text text-anchor="start" x="8" y="-16" font-family="Courier,monospace" font-size="10.00" fill="dimgray">Cross&#45;referencing diagram for protocol pseudo_random_protocol</text>
<text text-anchor="start" x="8" y="-6" font-family="Courier,monospace" font-size="10.00" fill="dimgray">Generated on 2021&#45;05&#45;01, 17:10</text>
<g id="clust1" class="cluster">
<title>cluster_pseudo_random_protocol_protocol</title>
<g id="a_clust1"><a xlink:title="pseudo_random_protocol">
<path fill="snow" stroke="dimgray" d="M74.03,-46C74.03,-46 308.03,-46 308.03,-46 314.03,-46 320.03,-52 320.03,-58 320.03,-58 320.03,-116 320.03,-116 320.03,-122 314.03,-128 308.03,-128 308.03,-128 74.03,-128 74.03,-128 68.03,-128 62.03,-122 62.03,-116 62.03,-116 62.03,-58 62.03,-58 62.03,-52 68.03,-46 74.03,-46"/>
<g id="a_clust1_0"><a xlink:href="https://github.com/LogtalkDotOrg/logtalk3/tree/e7fa81a5f2853ccd91552f172276dbc856d69e61/library/random/pseudo_random_protocol.lgt" xlink:title="https://github.com/LogtalkDotOrg/logtalk3/tree/e7fa81a5f2853ccd91552f172276dbc856d69e61/library/random/pseudo_random_protocol.lgt">
<text text-anchor="start" x="74.02" y="-112" font-family="Courier,monospace" font-size="10.00" fill="dimgray">pseudo_random_protocol</text>
</a>
</g>
</a>
</g>
</g>
<!-- get_seed/1 -->
<g id="node1" class="node">
<title>get_seed/1</title>
<g id="a_node1"><a xlink:href="https://github.com/LogtalkDotOrg/logtalk3/tree/e7fa81a5f2853ccd91552f172276dbc856d69e61/library/random/pseudo_random_protocol.lgt#L33" xlink:title="https://github.com/LogtalkDotOrg/logtalk3/tree/e7fa81a5f2853ccd91552f172276dbc856d69e61/library/random/pseudo_random_protocol.lgt#L33">
<polygon fill="springgreen" stroke="black" points="310.03,-92 200.03,-92 200.03,-56 310.03,-56 310.03,-92"/>
<text text-anchor="start" x="207.83" y="-75.8" font-family="Courier,monospace" font-size="9.00"> </text>
<text text-anchor="start" x="222.02" y="-75.2" font-family="Courier,monospace" font-size="11.00">get_seed/1</text>
<text text-anchor="start" x="296.83" y="-75.8" font-family="Courier,monospace" font-size="9.00"> </text>
<text text-anchor="start" x="207.83" y="-65.8" font-family="Courier,monospace" font-size="9.00"> </text>
<text text-anchor="start" x="213.02" y="-66.4" font-family="Courier,monospace" font-size="7.00">public, synchronized</text>
<text text-anchor="start" x="296.83" y="-65.8" font-family="Courier,monospace" font-size="9.00"> </text>
</a>
</g>
</g>
<!-- set_seed/1 -->
<g id="node2" class="node">
<title>set_seed/1</title>
<g id="a_node2"><a xlink:href="https://github.com/LogtalkDotOrg/logtalk3/tree/e7fa81a5f2853ccd91552f172276dbc856d69e61/library/random/pseudo_random_protocol.lgt#L40" xlink:title="https://github.com/LogtalkDotOrg/logtalk3/tree/e7fa81a5f2853ccd91552f172276dbc856d69e61/library/random/pseudo_random_protocol.lgt#L40">
<polygon fill="springgreen" stroke="black" points="182.03,-92 72.03,-92 72.03,-56 182.03,-56 182.03,-92"/>
<text text-anchor="start" x="79.83" y="-75.8" font-family="Courier,monospace" font-size="9.00"> </text>
<text text-anchor="start" x="94.02" y="-75.2" font-family="Courier,monospace" font-size="11.00">set_seed/1</text>
<text text-anchor="start" x="168.83" y="-75.8" font-family="Courier,monospace" font-size="9.00"> </text>
<text text-anchor="start" x="79.83" y="-65.8" font-family="Courier,monospace" font-size="9.00"> </text>
<text text-anchor="start" x="85.02" y="-66.4" font-family="Courier,monospace" font-size="7.00">public, synchronized</text>
<text text-anchor="start" x="168.83" y="-65.8" font-family="Courier,monospace" font-size="9.00"> </text>
</a>
</g>
</g>
</g>
</svg>
