<?xml version="1.0" encoding="UTF-8" standalone="no"?>
<?xml-stylesheet href="diagrams.css" type="text/css"?>
<!DOCTYPE svg PUBLIC "-//W3C//DTD SVG 1.1//EN"
 "http://www.w3.org/Graphics/SVG/1.1/DTD/svg11.dtd">
<!-- Generated by graphviz version 2.49.3 (20211023.0002)
 -->
<!-- Title: registry_protocol_protocol Pages: 1 -->
<svg width="674pt" height="292pt"
 viewBox="72.00 72.00 602.00 220.00" xmlns="http://www.w3.org/2000/svg" xmlns:xlink="http://www.w3.org/1999/xlink">
<g id="graph0" class="graph" transform="scale(1 1) rotate(0) translate(76 216)">
<title>registry_protocol_protocol</title>
<polygon fill="white" stroke="transparent" points="-4,4 -4,-144 526,-144 526,4 -4,4"/>
<text text-anchor="start" x="8" y="-29" font-family="Monospace" font-size="10.00" fill="dimgray">Logtalk development tools</text>
<text text-anchor="start" x="8" y="-18" font-family="Monospace" font-size="10.00" fill="dimgray">Cross&#45;referencing diagram for protocol registry_protocol</text>
<text text-anchor="start" x="8" y="-7" font-family="Monospace" font-size="10.00" fill="dimgray">Generated on 2021&#45;12&#45;03, 10:33</text>
<g id="clust1" class="cluster">
<title>cluster_registry_protocol_protocol</title>
<g id="a_clust1"><a xlink:title="registry_protocol">
<path fill="snow" stroke="dimgray" d="M20,-49C20,-49 502,-49 502,-49 508,-49 514,-55 514,-61 514,-61 514,-120 514,-120 514,-126 508,-132 502,-132 502,-132 20,-132 20,-132 14,-132 8,-126 8,-120 8,-120 8,-61 8,-61 8,-55 14,-49 20,-49"/>
<g id="a_clust1_0"><a xlink:href="https://github.com/LogtalkDotOrg/logtalk3/tree/04418aac0d7bdf1bb77867df42d0a4269d26f53f/tools/packs/registry_protocol.lgt" xlink:title="https://github.com/LogtalkDotOrg/logtalk3/tree/04418aac0d7bdf1bb77867df42d0a4269d26f53f/tools/packs/registry_protocol.lgt">
<text text-anchor="start" x="20.5" y="-115.5" font-family="Monospace" font-size="10.00" fill="dimgray">registry_protocol</text>
</a>
</g>
</a>
</g>
</g>
<!-- name/1 -->
<g id="node1" class="node">
<title>name/1</title>
<g id="a_node1"><a xlink:href="https://github.com/LogtalkDotOrg/logtalk3/tree/04418aac0d7bdf1bb77867df42d0a4269d26f53f/tools/packs/registry_protocol.lgt#L31" xlink:title="https://github.com/LogtalkDotOrg/logtalk3/tree/04418aac0d7bdf1bb77867df42d0a4269d26f53f/tools/packs/registry_protocol.lgt#L31">
<polygon fill="springgreen" stroke="black" points="504,-95 436,-95 436,-59 504,-59 504,-95"/>
<text text-anchor="start" x="444" y="-79.8" font-family="Monospace" font-size="9.00"> </text>
<text text-anchor="start" x="450" y="-79.2" font-family="Monospace" font-size="11.00">name/1</text>
<text text-anchor="start" x="490" y="-79.8" font-family="Monospace" font-size="9.00"> </text>
<text text-anchor="start" x="444" y="-68.8" font-family="Monospace" font-size="9.00"> </text>
<text text-anchor="start" x="457" y="-69.4" font-family="Monospace" font-size="7.00">public</text>
<text text-anchor="start" x="490" y="-68.8" font-family="Monospace" font-size="9.00"> </text>
</a>
</g>
</g>
<!-- description/1 -->
<g id="node2" class="node">
<title>description/1</title>
<g id="a_node2"><a xlink:href="https://github.com/LogtalkDotOrg/logtalk3/tree/04418aac0d7bdf1bb77867df42d0a4269d26f53f/tools/packs/registry_protocol.lgt#L38" xlink:title="https://github.com/LogtalkDotOrg/logtalk3/tree/04418aac0d7bdf1bb77867df42d0a4269d26f53f/tools/packs/registry_protocol.lgt#L38">
<polygon fill="springgreen" stroke="black" points="418,-95 304,-95 304,-59 418,-59 418,-95"/>
<text text-anchor="start" x="312" y="-79.8" font-family="Monospace" font-size="9.00"> </text>
<text text-anchor="start" x="318" y="-79.2" font-family="Monospace" font-size="11.00">description/1</text>
<text text-anchor="start" x="404" y="-79.8" font-family="Monospace" font-size="9.00"> </text>
<text text-anchor="start" x="312" y="-68.8" font-family="Monospace" font-size="9.00"> </text>
<text text-anchor="start" x="348" y="-69.4" font-family="Monospace" font-size="7.00">public</text>
<text text-anchor="start" x="404" y="-68.8" font-family="Monospace" font-size="9.00"> </text>
</a>
</g>
</g>
<!-- home/1 -->
<g id="node3" class="node">
<title>home/1</title>
<g id="a_node3"><a xlink:href="https://github.com/LogtalkDotOrg/logtalk3/tree/04418aac0d7bdf1bb77867df42d0a4269d26f53f/tools/packs/registry_protocol.lgt#L45" xlink:title="https://github.com/LogtalkDotOrg/logtalk3/tree/04418aac0d7bdf1bb77867df42d0a4269d26f53f/tools/packs/registry_protocol.lgt#L45">
<polygon fill="springgreen" stroke="black" points="286,-95 218,-95 218,-59 286,-59 286,-95"/>
<text text-anchor="start" x="226" y="-79.8" font-family="Monospace" font-size="9.00"> </text>
<text text-anchor="start" x="232" y="-79.2" font-family="Monospace" font-size="11.00">home/1</text>
<text text-anchor="start" x="272" y="-79.8" font-family="Monospace" font-size="9.00"> </text>
<text text-anchor="start" x="226" y="-68.8" font-family="Monospace" font-size="9.00"> </text>
<text text-anchor="start" x="239" y="-69.4" font-family="Monospace" font-size="7.00">public</text>
<text text-anchor="start" x="272" y="-68.8" font-family="Monospace" font-size="9.00"> </text>
</a>
</g>
</g>
<!-- clone/1 -->
<g id="node4" class="node">
<title>clone/1</title>
<g id="a_node4"><a xlink:href="https://github.com/LogtalkDotOrg/logtalk3/tree/04418aac0d7bdf1bb77867df42d0a4269d26f53f/tools/packs/registry_protocol.lgt#L52" xlink:title="https://github.com/LogtalkDotOrg/logtalk3/tree/04418aac0d7bdf1bb77867df42d0a4269d26f53f/tools/packs/registry_protocol.lgt#L52">
<polygon fill="springgreen" stroke="black" points="199.5,-95 124.5,-95 124.5,-59 199.5,-59 199.5,-95"/>
<text text-anchor="start" x="133" y="-79.8" font-family="Monospace" font-size="9.00"> </text>
<text text-anchor="start" x="139" y="-79.2" font-family="Monospace" font-size="11.00">clone/1</text>
<text text-anchor="start" x="186" y="-79.8" font-family="Monospace" font-size="9.00"> </text>
<text text-anchor="start" x="133" y="-68.8" font-family="Monospace" font-size="9.00"> </text>
<text text-anchor="start" x="149.5" y="-69.4" font-family="Monospace" font-size="7.00">public</text>
<text text-anchor="start" x="186" y="-68.8" font-family="Monospace" font-size="9.00"> </text>
</a>
</g>
</g>
<!-- archive/1 -->
<g id="node5" class="node">
<title>archive/1</title>
<g id="a_node5"><a xlink:href="https://github.com/LogtalkDotOrg/logtalk3/tree/04418aac0d7bdf1bb77867df42d0a4269d26f53f/tools/packs/registry_protocol.lgt#L59" xlink:title="https://github.com/LogtalkDotOrg/logtalk3/tree/04418aac0d7bdf1bb77867df42d0a4269d26f53f/tools/packs/registry_protocol.lgt#L59">
<polygon fill="springgreen" stroke="black" points="106,-95 18,-95 18,-59 106,-59 106,-95"/>
<text text-anchor="start" x="26" y="-79.8" font-family="Monospace" font-size="9.00"> </text>
<text text-anchor="start" x="32" y="-79.2" font-family="Monospace" font-size="11.00">archive/1</text>
<text text-anchor="start" x="92" y="-79.8" font-family="Monospace" font-size="9.00"> </text>
<text text-anchor="start" x="26" y="-68.8" font-family="Monospace" font-size="9.00"> </text>
<text text-anchor="start" x="49" y="-69.4" font-family="Monospace" font-size="7.00">public</text>
<text text-anchor="start" x="92" y="-68.8" font-family="Monospace" font-size="9.00"> </text>
</a>
</g>
</g>
</g>
</svg>
