<?xml version="1.0" encoding="UTF-8" standalone="no"?>
<?xml-stylesheet href="diagrams.css" type="text/css"?>
<!DOCTYPE svg PUBLIC "-//W3C//DTD SVG 1.1//EN"
 "http://www.w3.org/Graphics/SVG/1.1/DTD/svg11.dtd">
<!-- Generated by graphviz version 2.43.20191029.1313 (20191029.1313)
 -->
<!-- Title: registry_loader_hook_object Pages: 1 -->
<svg width="510pt" height="405pt"
 viewBox="72.00 72.00 438.06 333.00" xmlns="http://www.w3.org/2000/svg" xmlns:xlink="http://www.w3.org/1999/xlink">
<g id="graph0" class="graph" transform="scale(1 1) rotate(0) translate(76 329)">
<title>registry_loader_hook_object</title>
<polygon fill="white" stroke="transparent" points="-4,4 -4,-257 362.06,-257 362.06,4 -4,4"/>
<text text-anchor="start" x="8" y="-26" font-family="Courier,monospace" font-size="10.00" fill="dimgray">Logtalk development tools</text>
<text text-anchor="start" x="8" y="-16" font-family="Courier,monospace" font-size="10.00" fill="dimgray">Cross&#45;referencing diagram for object registry_loader_hook</text>
<text text-anchor="start" x="8" y="-6" font-family="Courier,monospace" font-size="10.00" fill="dimgray">Generated on 2021&#45;10&#45;14, 21:22</text>
<g id="clust1" class="cluster">
<title>cluster_registry_loader_hook_object</title>
<g id="a_clust1"><a xlink:title="registry_loader_hook">
<path fill="snow" stroke="dimgray" d="M115.03,-46C115.03,-46 243.03,-46 243.03,-46 249.03,-46 255.03,-52 255.03,-58 255.03,-58 255.03,-233 255.03,-233 255.03,-239 249.03,-245 243.03,-245 243.03,-245 115.03,-245 115.03,-245 109.03,-245 103.03,-239 103.03,-233 103.03,-233 103.03,-58 103.03,-58 103.03,-52 109.03,-46 115.03,-46"/>
<g id="a_clust1_0"><a xlink:href="https://github.com/LogtalkDotOrg/logtalk3/tree/98dd4ebe24fbdeaabedc3e78d0198e4f0bab0b08/tools/packs/safety_hooks.lgt" xlink:title="https://github.com/LogtalkDotOrg/logtalk3/tree/98dd4ebe24fbdeaabedc3e78d0198e4f0bab0b08/tools/packs/safety_hooks.lgt">
<text text-anchor="start" x="115.02" y="-229" font-family="Courier,monospace" font-size="10.00" fill="dimgray">registry_loader_hook</text>
</a>
</g>
</a>
</g>
</g>
<!-- term_expansion/2 -->
<g id="node1" class="node">
<title>term_expansion/2</title>
<g id="a_node1"><a xlink:href="https://github.com/LogtalkDotOrg/logtalk3/tree/98dd4ebe24fbdeaabedc3e78d0198e4f0bab0b08/tools/packs/safety_hooks.lgt#L32" xlink:title="https://github.com/LogtalkDotOrg/logtalk3/tree/98dd4ebe24fbdeaabedc3e78d0198e4f0bab0b08/tools/packs/safety_hooks.lgt#L32">
<polygon fill="cornsilk" stroke="black" points="244.53,-209 113.53,-209 113.53,-173 244.53,-173 244.53,-209"/>
<text text-anchor="start" x="121.83" y="-192.8" font-family="Courier,monospace" font-size="9.00"> </text>
<text text-anchor="start" x="126.72" y="-192.2" font-family="Courier,monospace" font-size="11.00">term_expansion/2</text>
<text text-anchor="start" x="231.83" y="-192.8" font-family="Courier,monospace" font-size="9.00"> </text>
<text text-anchor="start" x="121.83" y="-182.8" font-family="Courier,monospace" font-size="9.00"> </text>
<text text-anchor="start" x="169.03" y="-183.4" font-family="Courier,monospace" font-size="7.00">local</text>
<text text-anchor="start" x="231.83" y="-182.8" font-family="Courier,monospace" font-size="9.00"> </text>
</a>
</g>
</g>
<!-- expand/2 -->
<g id="node2" class="node">
<title>expand/2</title>
<g id="a_node2"><a xlink:href="https://github.com/LogtalkDotOrg/logtalk3/tree/98dd4ebe24fbdeaabedc3e78d0198e4f0bab0b08/tools/packs/safety_hooks.lgt#L38" xlink:title="https://github.com/LogtalkDotOrg/logtalk3/tree/98dd4ebe24fbdeaabedc3e78d0198e4f0bab0b08/tools/packs/safety_hooks.lgt#L38">
<polygon fill="cornsilk" stroke="black" points="218.03,-92 140.03,-92 140.03,-56 218.03,-56 218.03,-92"/>
<text text-anchor="start" x="147.83" y="-75.8" font-family="Courier,monospace" font-size="9.00"> </text>
<text text-anchor="start" x="152.62" y="-75.2" font-family="Courier,monospace" font-size="11.00">expand/2</text>
<text text-anchor="start" x="204.83" y="-75.8" font-family="Courier,monospace" font-size="9.00"> </text>
<text text-anchor="start" x="147.83" y="-65.8" font-family="Courier,monospace" font-size="9.00"> </text>
<text text-anchor="start" x="168.53" y="-66.4" font-family="Courier,monospace" font-size="7.00">local</text>
<text text-anchor="start" x="204.83" y="-65.8" font-family="Courier,monospace" font-size="9.00"> </text>
</a>
</g>
</g>
<!-- term_expansion/2&#45;&gt;expand/2 -->
<g id="edge1" class="edge">
<title>term_expansion/2&#45;&gt;expand/2</title>
<g id="a_edge1"><a xlink:href="https://github.com/LogtalkDotOrg/logtalk3/tree/98dd4ebe24fbdeaabedc3e78d0198e4f0bab0b08/tools/packs/safety_hooks.lgt#L32" xlink:title="calls">
<path fill="none" stroke="black" d="M179.03,-172.53C179.03,-153.94 179.03,-124.24 179.03,-102.5"/>
<polygon fill="black" stroke="black" points="182.53,-102.25 179.03,-92.25 175.53,-102.25 182.53,-102.25"/>
</a>
</g>
<g id="a_edge1&#45;label"><a xlink:href="https://github.com/LogtalkDotOrg/logtalk3/tree/98dd4ebe24fbdeaabedc3e78d0198e4f0bab0b08/tools/packs/safety_hooks.lgt#L32" xlink:title="https://github.com/LogtalkDotOrg/logtalk3/tree/98dd4ebe24fbdeaabedc3e78d0198e4f0bab0b08/tools/packs/safety_hooks.lgt#L32">
<text text-anchor="start" x="179.03" y="-129.8" font-family="Courier,monospace" font-size="9.00">calls</text>
</a>
</g>
</g>
</g>
</svg>
