<?xml version="1.0" encoding="UTF-8" standalone="no"?>
<?xml-stylesheet href="diagrams.css" type="text/css"?>
<!DOCTYPE svg PUBLIC "-//W3C//DTD SVG 1.1//EN"
 "http://www.w3.org/Graphics/SVG/1.1/DTD/svg11.dtd">
<!-- Generated by graphviz version 2.50.0 (20211204.2007)
 -->
<!-- Title: rule_expansion_1_object Pages: 1 -->
<svg width="500pt" height="410pt"
 viewBox="72.00 72.00 428.00 338.00" xmlns="http://www.w3.org/2000/svg" xmlns:xlink="http://www.w3.org/1999/xlink">
<g id="graph0" class="graph" transform="scale(1 1) rotate(0) translate(76 334)">
<title>rule_expansion_1_object</title>
<polygon fill="white" stroke="transparent" points="-4,4 -4,-262 352,-262 352,4 -4,4"/>
<text text-anchor="start" x="8" y="-29" font-family="Monospace" font-size="10.00" fill="dimgray">Logtalk third&#45;party contributions</text>
<text text-anchor="start" x="8" y="-18" font-family="Monospace" font-size="10.00" fill="dimgray">Cross&#45;referencing diagram for object rule_expansion/1</text>
<text text-anchor="start" x="8" y="-7" font-family="Monospace" font-size="10.00" fill="dimgray">Generated on 2022&#45;05&#45;20, 17:04</text>
<g id="clust1" class="cluster">
<title>cluster_rule_expansion_1_object</title>
<g id="a_clust1"><a xlink:title="rule_expansion(_)">
<path fill="snow" stroke="dimgray" d="M20,-49C20,-49 328,-49 328,-49 334,-49 340,-55 340,-61 340,-61 340,-238 340,-238 340,-244 334,-250 328,-250 328,-250 20,-250 20,-250 14,-250 8,-244 8,-238 8,-238 8,-61 8,-61 8,-55 14,-49 20,-49"/>
<g id="a_clust1_0"><a xlink:href="https://github.com/LogtalkDotOrg/logtalk3/tree/64f0c4b8bc98248506eaacf425a7b46ff645d535/contributions/verdi_neruda/rule_expansion.lgt" xlink:title="https://github.com/LogtalkDotOrg/logtalk3/tree/64f0c4b8bc98248506eaacf425a7b46ff645d535/contributions/verdi_neruda/rule_expansion.lgt">
<text text-anchor="start" x="20.5" y="-233.5" font-family="Monospace" font-size="10.00" fill="dimgray">rule_expansion(_)</text>
</a>
</g>
</a>
</g>
</g>
<!-- goal_expansion/2 -->
<g id="node1" class="node">
<title>goal_expansion/2</title>
<g id="a_node1"><a xlink:href="https://github.com/LogtalkDotOrg/logtalk3/tree/64f0c4b8bc98248506eaacf425a7b46ff645d535/contributions/verdi_neruda/rule_expansion.lgt#L51" xlink:title="https://github.com/LogtalkDotOrg/logtalk3/tree/64f0c4b8bc98248506eaacf425a7b46ff645d535/contributions/verdi_neruda/rule_expansion.lgt#L51">
<polygon fill="cornsilk" stroke="black" points="323.5,-213 186.5,-213 186.5,-177 323.5,-177 323.5,-213"/>
<text text-anchor="start" x="195" y="-197.8" font-family="Monospace" font-size="9.00"> </text>
<text text-anchor="start" x="201" y="-197.2" font-family="Monospace" font-size="11.00">goal_expansion/2</text>
<text text-anchor="start" x="310" y="-197.8" font-family="Monospace" font-size="9.00"> </text>
<text text-anchor="start" x="195" y="-186.8" font-family="Monospace" font-size="9.00"> </text>
<text text-anchor="start" x="244" y="-187.4" font-family="Monospace" font-size="7.00">local</text>
<text text-anchor="start" x="310" y="-186.8" font-family="Monospace" font-size="9.00"> </text>
</a>
</g>
</g>
<!-- ^^goal_expansion/2 -->
<g id="node4" class="node">
<title>^^goal_expansion/2</title>
<polygon fill="beige" stroke="black" stroke-dasharray="5,2" points="330,-95 180,-95 180,-59 330,-59 330,-95"/>
<text text-anchor="start" x="188" y="-79.8" font-family="Monospace" font-size="9.00"> </text>
<text text-anchor="start" x="194" y="-79.2" font-family="Monospace" font-size="11.00">^^goal_expansion/2</text>
<text text-anchor="start" x="316" y="-79.8" font-family="Monospace" font-size="9.00"> </text>
<text text-anchor="start" x="188" y="-68.8" font-family="Monospace" font-size="9.00"> </text>
<text text-anchor="start" x="236.5" y="-69.4" font-family="Monospace" font-size="7.00">external</text>
<text text-anchor="start" x="316" y="-68.8" font-family="Monospace" font-size="9.00"> </text>
</g>
<!-- goal_expansion/2&#45;&gt;^^goal_expansion/2 -->
<g id="edge2" class="edge">
<title>goal_expansion/2&#45;&gt;^^goal_expansion/2</title>
<g id="a_edge2"><a xlink:href="https://github.com/LogtalkDotOrg/logtalk3/tree/64f0c4b8bc98248506eaacf425a7b46ff645d535/contributions/verdi_neruda/rule_expansion.lgt#L51" xlink:title="calls">
<path fill="none" stroke="black" d="M255,-176.88C255,-158.04 255,-127.47 255,-105.3"/>
<polygon fill="black" stroke="black" points="258.5,-105.19 255,-95.19 251.5,-105.19 258.5,-105.19"/>
</a>
</g>
<g id="a_edge2&#45;label"><a xlink:href="https://github.com/LogtalkDotOrg/logtalk3/tree/64f0c4b8bc98248506eaacf425a7b46ff645d535/contributions/verdi_neruda/rule_expansion.lgt#L51" xlink:title="https://github.com/LogtalkDotOrg/logtalk3/tree/64f0c4b8bc98248506eaacf425a7b46ff645d535/contributions/verdi_neruda/rule_expansion.lgt#L51">
<text text-anchor="start" x="255" y="-133.8" font-family="Monospace" font-size="9.00">calls</text>
</a>
</g>
</g>
<!-- term_expansion/2 -->
<g id="node2" class="node">
<title>term_expansion/2</title>
<g id="a_node2"><a xlink:href="https://github.com/LogtalkDotOrg/logtalk3/tree/64f0c4b8bc98248506eaacf425a7b46ff645d535/contributions/verdi_neruda/rule_expansion.lgt#L54" xlink:title="https://github.com/LogtalkDotOrg/logtalk3/tree/64f0c4b8bc98248506eaacf425a7b46ff645d535/contributions/verdi_neruda/rule_expansion.lgt#L54">
<polygon fill="cornsilk" stroke="black" points="158.5,-213 21.5,-213 21.5,-177 158.5,-177 158.5,-213"/>
<text text-anchor="start" x="30" y="-197.8" font-family="Monospace" font-size="9.00"> </text>
<text text-anchor="start" x="36" y="-197.2" font-family="Monospace" font-size="11.00">term_expansion/2</text>
<text text-anchor="start" x="145" y="-197.8" font-family="Monospace" font-size="9.00"> </text>
<text text-anchor="start" x="30" y="-186.8" font-family="Monospace" font-size="9.00"> </text>
<text text-anchor="start" x="79" y="-187.4" font-family="Monospace" font-size="7.00">local</text>
<text text-anchor="start" x="145" y="-186.8" font-family="Monospace" font-size="9.00"> </text>
</a>
</g>
</g>
<!-- ::flatten_goals/3 -->
<g id="node3" class="node">
<title>::flatten_goals/3</title>
<polygon fill="beige" stroke="black" stroke-dasharray="5,2" points="161.5,-95 18.5,-95 18.5,-59 161.5,-59 161.5,-95"/>
<text text-anchor="start" x="27" y="-79.8" font-family="Monospace" font-size="9.00"> </text>
<text text-anchor="start" x="33" y="-79.2" font-family="Monospace" font-size="11.00">::flatten_goals/3</text>
<text text-anchor="start" x="148" y="-79.8" font-family="Monospace" font-size="9.00"> </text>
<text text-anchor="start" x="27" y="-68.8" font-family="Monospace" font-size="9.00"> </text>
<text text-anchor="start" x="72" y="-69.4" font-family="Monospace" font-size="7.00">external</text>
<text text-anchor="start" x="148" y="-68.8" font-family="Monospace" font-size="9.00"> </text>
</g>
<!-- term_expansion/2&#45;&gt;::flatten_goals/3 -->
<g id="edge1" class="edge">
<title>term_expansion/2&#45;&gt;::flatten_goals/3</title>
<g id="a_edge1"><a xlink:href="https://github.com/LogtalkDotOrg/logtalk3/tree/64f0c4b8bc98248506eaacf425a7b46ff645d535/contributions/verdi_neruda/rule_expansion.lgt#L54" xlink:title="calls">
<path fill="none" stroke="black" d="M90,-176.88C90,-158.04 90,-127.47 90,-105.3"/>
<polygon fill="black" stroke="black" points="93.5,-105.19 90,-95.19 86.5,-105.19 93.5,-105.19"/>
</a>
</g>
<g id="a_edge1&#45;label"><a xlink:href="https://github.com/LogtalkDotOrg/logtalk3/tree/64f0c4b8bc98248506eaacf425a7b46ff645d535/contributions/verdi_neruda/rule_expansion.lgt#L54" xlink:title="https://github.com/LogtalkDotOrg/logtalk3/tree/64f0c4b8bc98248506eaacf425a7b46ff645d535/contributions/verdi_neruda/rule_expansion.lgt#L54">
<text text-anchor="start" x="90" y="-133.8" font-family="Monospace" font-size="9.00">calls</text>
</a>
</g>
</g>
</g>
</svg>
