<?xml version="1.0" encoding="UTF-8" standalone="no"?>
<?xml-stylesheet href="diagrams.css" type="text/css"?>
<!DOCTYPE svg PUBLIC "-//W3C//DTD SVG 1.1//EN"
 "http://www.w3.org/Graphics/SVG/1.1/DTD/svg11.dtd">
<!-- Generated by graphviz version 8.1.0 (20230707.0739)
 -->
<!-- Title: rule_expansion_1_object Pages: 1 -->
<svg width="494pt" height="411pt"
 viewBox="72.00 72.00 422.00 338.75" xmlns="http://www.w3.org/2000/svg" xmlns:xlink="http://www.w3.org/1999/xlink">
<g id="graph0" class="graph" transform="scale(1 1) rotate(0) translate(76 334.75)">
<title>rule_expansion_1_object</title>
<polygon fill="white" stroke="none" points="-4,4 -4,-262.75 346,-262.75 346,4 -4,4"/>
<text text-anchor="start" x="8" y="-28.25" font-family="Monospace" font-size="10.00" fill="dimgray">Logtalk third&#45;party contributions</text>
<text text-anchor="start" x="8" y="-17" font-family="Monospace" font-size="10.00" fill="dimgray">Cross&#45;referencing diagram for object rule_expansion/1</text>
<text text-anchor="start" x="8" y="-5.75" font-family="Monospace" font-size="10.00" fill="dimgray">Generated on 2023&#45;08&#45;11, 21:58</text>
<g id="clust1" class="cluster">
<title>cluster_rule_expansion_1_object</title>
<g id="a_clust1"><a xlink:title="rule_expansion(Mode)">
<path fill="snow" stroke="dimgray" d="M20,-49.75C20,-49.75 322,-49.75 322,-49.75 328,-49.75 334,-55.75 334,-61.75 334,-61.75 334,-238.75 334,-238.75 334,-244.75 328,-250.75 322,-250.75 322,-250.75 20,-250.75 20,-250.75 14,-250.75 8,-244.75 8,-238.75 8,-238.75 8,-61.75 8,-61.75 8,-55.75 14,-49.75 20,-49.75"/>
<g id="a_clust1_0"><a xlink:href="https://github.com/LogtalkDotOrg/logtalk3/tree/759ae9ec1968f5a58f118802206e3fbf38fe31fc/contributions/verdi_neruda/rule_expansion.lgt" xlink:title="https://github.com/LogtalkDotOrg/logtalk3/tree/759ae9ec1968f5a58f118802206e3fbf38fe31fc/contributions/verdi_neruda/rule_expansion.lgt">
<text text-anchor="start" x="20" y="-233.25" font-family="Monospace" font-size="10.00" fill="dimgray">rule_expansion(Mode)</text>
</a>
</g>
</a>
</g>
</g>
<!-- goal_expansion/2 -->
<g id="node1" class="node">
<title>goal_expansion/2</title>
<g id="a_node1"><a xlink:href="https://github.com/LogtalkDotOrg/logtalk3/tree/759ae9ec1968f5a58f118802206e3fbf38fe31fc/contributions/verdi_neruda/rule_expansion.lgt#L52" xlink:title="https://github.com/LogtalkDotOrg/logtalk3/tree/759ae9ec1968f5a58f118802206e3fbf38fe31fc/contributions/verdi_neruda/rule_expansion.lgt#L52">
<polygon fill="cornsilk" stroke="black" points="317,-213.5 183,-213.5 183,-177.5 317,-177.5 317,-213.5"/>
<text text-anchor="start" x="190.88" y="-196.32" font-family="Monospace" font-size="9.00"> </text>
<text text-anchor="start" x="196" y="-195.55" font-family="Monospace" font-size="11.00">goal_expansion/2</text>
<text text-anchor="start" x="303.88" y="-196.32" font-family="Monospace" font-size="9.00"> </text>
<text text-anchor="start" x="190.88" y="-185.45" font-family="Monospace" font-size="9.00"> </text>
<text text-anchor="start" x="238.75" y="-186.97" font-family="Monospace" font-size="7.00">local</text>
<text text-anchor="start" x="303.88" y="-185.45" font-family="Monospace" font-size="9.00"> </text>
</a>
</g>
</g>
<!-- ^^goal_expansion/2 -->
<g id="node4" class="node">
<title>^^goal_expansion/2</title>
<polygon fill="beige" stroke="black" stroke-dasharray="5,2" points="323.5,-95.75 176.5,-95.75 176.5,-59.75 323.5,-59.75 323.5,-95.75"/>
<text text-anchor="start" x="184.38" y="-78.58" font-family="Monospace" font-size="9.00"> </text>
<text text-anchor="start" x="189.25" y="-77.8" font-family="Monospace" font-size="11.00">^^goal_expansion/2</text>
<text text-anchor="start" x="310.38" y="-78.58" font-family="Monospace" font-size="9.00"> </text>
<text text-anchor="start" x="184.38" y="-67.7" font-family="Monospace" font-size="9.00"> </text>
<text text-anchor="start" x="232" y="-69.22" font-family="Monospace" font-size="7.00">external</text>
<text text-anchor="start" x="310.38" y="-67.7" font-family="Monospace" font-size="9.00"> </text>
</g>
<!-- goal_expansion/2&#45;&gt;^^goal_expansion/2 -->
<g id="edge2" class="edge">
<title>goal_expansion/2&#45;&gt;^^goal_expansion/2</title>
<g id="a_edge2"><a xlink:href="https://github.com/LogtalkDotOrg/logtalk3/tree/759ae9ec1968f5a58f118802206e3fbf38fe31fc/contributions/verdi_neruda/rule_expansion.lgt#L52" xlink:title="calls">
<path fill="none" stroke="black" d="M250,-177.17C250,-158.67 250,-129.07 250,-107.16"/>
<polygon fill="black" stroke="black" points="253.5,-107.2 250,-97.2 246.5,-107.2 253.5,-107.2"/>
</a>
</g>
<g id="a_edge2&#45;label"><a xlink:href="https://github.com/LogtalkDotOrg/logtalk3/tree/759ae9ec1968f5a58f118802206e3fbf38fe31fc/contributions/verdi_neruda/rule_expansion.lgt#L52" xlink:title="https://github.com/LogtalkDotOrg/logtalk3/tree/759ae9ec1968f5a58f118802206e3fbf38fe31fc/contributions/verdi_neruda/rule_expansion.lgt#L52">
<text text-anchor="start" x="250" y="-132.95" font-family="Monospace" font-size="9.00">calls</text>
</a>
</g>
</g>
<!-- term_expansion/2 -->
<g id="node2" class="node">
<title>term_expansion/2</title>
<g id="a_node2"><a xlink:href="https://github.com/LogtalkDotOrg/logtalk3/tree/759ae9ec1968f5a58f118802206e3fbf38fe31fc/contributions/verdi_neruda/rule_expansion.lgt#L55" xlink:title="https://github.com/LogtalkDotOrg/logtalk3/tree/759ae9ec1968f5a58f118802206e3fbf38fe31fc/contributions/verdi_neruda/rule_expansion.lgt#L55">
<polygon fill="cornsilk" stroke="black" points="155,-213.5 21,-213.5 21,-177.5 155,-177.5 155,-213.5"/>
<text text-anchor="start" x="28.88" y="-196.32" font-family="Monospace" font-size="9.00"> </text>
<text text-anchor="start" x="34" y="-195.55" font-family="Monospace" font-size="11.00">term_expansion/2</text>
<text text-anchor="start" x="141.88" y="-196.32" font-family="Monospace" font-size="9.00"> </text>
<text text-anchor="start" x="28.88" y="-185.45" font-family="Monospace" font-size="9.00"> </text>
<text text-anchor="start" x="76.75" y="-186.97" font-family="Monospace" font-size="7.00">local</text>
<text text-anchor="start" x="141.88" y="-185.45" font-family="Monospace" font-size="9.00"> </text>
</a>
</g>
</g>
<!-- ::flatten_goals/3 -->
<g id="node3" class="node">
<title>::flatten_goals/3</title>
<polygon fill="beige" stroke="black" stroke-dasharray="5,2" points="158,-95.75 18,-95.75 18,-59.75 158,-59.75 158,-95.75"/>
<text text-anchor="start" x="25.88" y="-78.58" font-family="Monospace" font-size="9.00"> </text>
<text text-anchor="start" x="30.62" y="-77.8" font-family="Monospace" font-size="11.00">::flatten_goals/3</text>
<text text-anchor="start" x="144.88" y="-78.58" font-family="Monospace" font-size="9.00"> </text>
<text text-anchor="start" x="25.88" y="-67.7" font-family="Monospace" font-size="9.00"> </text>
<text text-anchor="start" x="70" y="-69.22" font-family="Monospace" font-size="7.00">external</text>
<text text-anchor="start" x="144.88" y="-67.7" font-family="Monospace" font-size="9.00"> </text>
</g>
<!-- term_expansion/2&#45;&gt;::flatten_goals/3 -->
<g id="edge1" class="edge">
<title>term_expansion/2&#45;&gt;::flatten_goals/3</title>
<g id="a_edge1"><a xlink:href="https://github.com/LogtalkDotOrg/logtalk3/tree/759ae9ec1968f5a58f118802206e3fbf38fe31fc/contributions/verdi_neruda/rule_expansion.lgt#L55" xlink:title="calls">
<path fill="none" stroke="black" d="M88,-177.17C88,-158.67 88,-129.07 88,-107.16"/>
<polygon fill="black" stroke="black" points="91.5,-107.2 88,-97.2 84.5,-107.2 91.5,-107.2"/>
</a>
</g>
<g id="a_edge1&#45;label"><a xlink:href="https://github.com/LogtalkDotOrg/logtalk3/tree/759ae9ec1968f5a58f118802206e3fbf38fe31fc/contributions/verdi_neruda/rule_expansion.lgt#L55" xlink:title="https://github.com/LogtalkDotOrg/logtalk3/tree/759ae9ec1968f5a58f118802206e3fbf38fe31fc/contributions/verdi_neruda/rule_expansion.lgt#L55">
<text text-anchor="start" x="88" y="-132.95" font-family="Monospace" font-size="9.00">calls</text>
</a>
</g>
</g>
</g>
</svg>
