<?xml version="1.0" encoding="UTF-8" standalone="no"?>
<?xml-stylesheet href="diagrams.css" type="text/css"?>
<!DOCTYPE svg PUBLIC "-//W3C//DTD SVG 1.1//EN"
 "http://www.w3.org/Graphics/SVG/1.1/DTD/svg11.dtd">
<!-- Generated by graphviz version 12.1.2 (20240928.0832)
 -->
<!-- Title: rule_expansion_1_object Pages: 1 -->
<svg width="494pt" height="418pt"
 viewBox="72.00 72.00 422.00 346.25" xmlns="http://www.w3.org/2000/svg" xmlns:xlink="http://www.w3.org/1999/xlink">
<g id="graph0" class="graph" transform="scale(1 1) rotate(0) translate(76 342.25)">
<title>rule_expansion_1_object</title>
<polygon fill="white" stroke="none" points="-4,4 -4,-270.25 346,-270.25 346,4 -4,4"/>
<text text-anchor="start" x="8" y="-32.75" font-family="Monospace" font-size="10.00" fill="dimgray">Logtalk third&#45;party contributions</text>
<text text-anchor="start" x="8" y="-20" font-family="Monospace" font-size="10.00" fill="dimgray">Cross&#45;referencing diagram for object rule_expansion/1</text>
<text text-anchor="start" x="8" y="-7.25" font-family="Monospace" font-size="10.00" fill="dimgray">Generated on 2024&#45;10&#45;30, 19:55</text>
<g id="clust1" class="cluster">
<title>cluster_rule_expansion_1_object</title>
<g id="a_clust1"><a xlink:title="rule_expansion(Mode)">
<path fill="snow" stroke="dimgray" d="M20,-54.25C20,-54.25 322,-54.25 322,-54.25 328,-54.25 334,-60.25 334,-66.25 334,-66.25 334,-246.25 334,-246.25 334,-252.25 328,-258.25 322,-258.25 322,-258.25 20,-258.25 20,-258.25 14,-258.25 8,-252.25 8,-246.25 8,-246.25 8,-66.25 8,-66.25 8,-60.25 14,-54.25 20,-54.25"/>
<g id="a_clust1_0"><a xlink:href="https://github.com/LogtalkDotOrg/logtalk3/tree/1895664a03314d1380a0d474b6ef3c76bf72f867/contributions/verdi_neruda/rule_expansion.lgt" xlink:title="https://github.com/LogtalkDotOrg/logtalk3/tree/1895664a03314d1380a0d474b6ef3c76bf72f867/contributions/verdi_neruda/rule_expansion.lgt">
<text text-anchor="start" x="20" y="-240.75" font-family="Monospace" font-size="10.00" fill="dimgray">rule_expansion(Mode)</text>
</a>
</g>
</a>
</g>
</g>
<!-- goal_expansion/2 -->
<g id="node1" class="node">
<title>goal_expansion/2</title>
<g id="a_node1"><a xlink:href="https://github.com/LogtalkDotOrg/logtalk3/tree/1895664a03314d1380a0d474b6ef3c76bf72f867/contributions/verdi_neruda/rule_expansion.lgt#L52" xlink:title="https://github.com/LogtalkDotOrg/logtalk3/tree/1895664a03314d1380a0d474b6ef3c76bf72f867/contributions/verdi_neruda/rule_expansion.lgt#L52">
<polygon fill="cornsilk" stroke="black" points="159,-219.5 25,-219.5 25,-183.5 159,-183.5 159,-219.5"/>
<text text-anchor="start" x="32.88" y="-204.07" font-family="Monospace" font-size="9.00"> </text>
<text text-anchor="start" x="38" y="-203.05" font-family="Monospace" font-size="11.00">goal_expansion/2</text>
<text text-anchor="start" x="145.88" y="-204.07" font-family="Monospace" font-size="9.00"> </text>
<text text-anchor="start" x="32.88" y="-191.95" font-family="Monospace" font-size="9.00"> </text>
<text text-anchor="start" x="80.75" y="-192.85" font-family="Monospace" font-size="7.00">local</text>
<text text-anchor="start" x="145.88" y="-191.95" font-family="Monospace" font-size="9.00"> </text>
</a>
</g>
</g>
<!-- ^^goal_expansion/2 -->
<g id="node4" class="node">
<title>^^goal_expansion/2</title>
<polygon fill="beige" stroke="black" stroke-dasharray="5,2" points="165.5,-100.25 18.5,-100.25 18.5,-64.25 165.5,-64.25 165.5,-100.25"/>
<text text-anchor="start" x="26.38" y="-84.83" font-family="Monospace" font-size="9.00"> </text>
<text text-anchor="start" x="31.25" y="-83.8" font-family="Monospace" font-size="11.00">^^goal_expansion/2</text>
<text text-anchor="start" x="152.38" y="-84.83" font-family="Monospace" font-size="9.00"> </text>
<text text-anchor="start" x="26.38" y="-72.7" font-family="Monospace" font-size="9.00"> </text>
<text text-anchor="start" x="74" y="-73.6" font-family="Monospace" font-size="7.00">external</text>
<text text-anchor="start" x="152.38" y="-72.7" font-family="Monospace" font-size="9.00"> </text>
</g>
<!-- goal_expansion/2&#45;&gt;^^goal_expansion/2 -->
<g id="edge2" class="edge">
<title>goal_expansion/2&#45;&gt;^^goal_expansion/2</title>
<g id="a_edge2"><a xlink:href="https://github.com/LogtalkDotOrg/logtalk3/tree/1895664a03314d1380a0d474b6ef3c76bf72f867/contributions/verdi_neruda/rule_expansion.lgt#L52" xlink:title="calls">
<path fill="none" stroke="black" d="M92,-183.2C92,-164.5 92,-134.37 92,-112.08"/>
<polygon fill="black" stroke="black" points="95.5,-112.14 92,-102.14 88.5,-112.14 95.5,-112.14"/>
</a>
</g>
<g id="a_edge2&#45;label"><a xlink:href="https://github.com/LogtalkDotOrg/logtalk3/tree/1895664a03314d1380a0d474b6ef3c76bf72f867/contributions/verdi_neruda/rule_expansion.lgt#L52" xlink:title="https://github.com/LogtalkDotOrg/logtalk3/tree/1895664a03314d1380a0d474b6ef3c76bf72f867/contributions/verdi_neruda/rule_expansion.lgt#L52">
<text text-anchor="start" x="92" y="-138.95" font-family="Monospace" font-size="9.00">calls</text>
</a>
</g>
</g>
<!-- term_expansion/2 -->
<g id="node2" class="node">
<title>term_expansion/2</title>
<g id="a_node2"><a xlink:href="https://github.com/LogtalkDotOrg/logtalk3/tree/1895664a03314d1380a0d474b6ef3c76bf72f867/contributions/verdi_neruda/rule_expansion.lgt#L55" xlink:title="https://github.com/LogtalkDotOrg/logtalk3/tree/1895664a03314d1380a0d474b6ef3c76bf72f867/contributions/verdi_neruda/rule_expansion.lgt#L55">
<polygon fill="cornsilk" stroke="black" points="321,-219.5 187,-219.5 187,-183.5 321,-183.5 321,-219.5"/>
<text text-anchor="start" x="194.88" y="-204.07" font-family="Monospace" font-size="9.00"> </text>
<text text-anchor="start" x="200" y="-203.05" font-family="Monospace" font-size="11.00">term_expansion/2</text>
<text text-anchor="start" x="307.88" y="-204.07" font-family="Monospace" font-size="9.00"> </text>
<text text-anchor="start" x="194.88" y="-191.95" font-family="Monospace" font-size="9.00"> </text>
<text text-anchor="start" x="242.75" y="-192.85" font-family="Monospace" font-size="7.00">local</text>
<text text-anchor="start" x="307.88" y="-191.95" font-family="Monospace" font-size="9.00"> </text>
</a>
</g>
</g>
<!-- ::flatten_goals/3 -->
<g id="node3" class="node">
<title>::flatten_goals/3</title>
<polygon fill="beige" stroke="black" stroke-dasharray="5,2" points="324,-100.25 184,-100.25 184,-64.25 324,-64.25 324,-100.25"/>
<text text-anchor="start" x="191.88" y="-84.83" font-family="Monospace" font-size="9.00"> </text>
<text text-anchor="start" x="196.62" y="-83.8" font-family="Monospace" font-size="11.00">::flatten_goals/3</text>
<text text-anchor="start" x="310.88" y="-84.83" font-family="Monospace" font-size="9.00"> </text>
<text text-anchor="start" x="191.88" y="-72.7" font-family="Monospace" font-size="9.00"> </text>
<text text-anchor="start" x="236" y="-73.6" font-family="Monospace" font-size="7.00">external</text>
<text text-anchor="start" x="310.88" y="-72.7" font-family="Monospace" font-size="9.00"> </text>
</g>
<!-- term_expansion/2&#45;&gt;::flatten_goals/3 -->
<g id="edge1" class="edge">
<title>term_expansion/2&#45;&gt;::flatten_goals/3</title>
<g id="a_edge1"><a xlink:href="https://github.com/LogtalkDotOrg/logtalk3/tree/1895664a03314d1380a0d474b6ef3c76bf72f867/contributions/verdi_neruda/rule_expansion.lgt#L55" xlink:title="calls">
<path fill="none" stroke="black" d="M254,-183.2C254,-164.5 254,-134.37 254,-112.08"/>
<polygon fill="black" stroke="black" points="257.5,-112.14 254,-102.14 250.5,-112.14 257.5,-112.14"/>
</a>
</g>
<g id="a_edge1&#45;label"><a xlink:href="https://github.com/LogtalkDotOrg/logtalk3/tree/1895664a03314d1380a0d474b6ef3c76bf72f867/contributions/verdi_neruda/rule_expansion.lgt#L55" xlink:title="https://github.com/LogtalkDotOrg/logtalk3/tree/1895664a03314d1380a0d474b6ef3c76bf72f867/contributions/verdi_neruda/rule_expansion.lgt#L55">
<text text-anchor="start" x="254" y="-138.95" font-family="Monospace" font-size="9.00">calls</text>
</a>
</g>
</g>
</g>
</svg>
