<?xml version="1.0" encoding="UTF-8" standalone="no"?>
<?xml-stylesheet href="diagrams.css" type="text/css"?>
<!DOCTYPE svg PUBLIC "-//W3C//DTD SVG 1.1//EN"
 "http://www.w3.org/Graphics/SVG/1.1/DTD/svg11.dtd">
<!-- Generated by graphviz version 2.49.3 (20211023.0002)
 -->
<!-- Title: set_1_object Pages: 1 -->
<svg width="378pt" height="528pt"
 viewBox="72.00 72.00 306.00 456.00" xmlns="http://www.w3.org/2000/svg" xmlns:xlink="http://www.w3.org/1999/xlink">
<g id="graph0" class="graph" transform="scale(1 1) rotate(0) translate(76 452)">
<title>set_1_object</title>
<polygon fill="white" stroke="transparent" points="-4,4 -4,-380 230,-380 230,4 -4,4"/>
<text text-anchor="start" x="8" y="-29" font-family="Courier,monospace" font-size="10.00" fill="dimgray">Logtalk library</text>
<text text-anchor="start" x="8" y="-18" font-family="Courier,monospace" font-size="10.00" fill="dimgray">Cross&#45;referencing diagram for object set/1</text>
<text text-anchor="start" x="8" y="-7" font-family="Courier,monospace" font-size="10.00" fill="dimgray">Generated on 2021&#45;11&#45;12, 21:32</text>
<g id="clust1" class="cluster">
<title>cluster_set_1_object</title>
<g id="a_clust1"><a xlink:title="set(Type)">
<path fill="snow" stroke="dimgray" d="M66,-49C66,-49 160,-49 160,-49 166,-49 172,-55 172,-61 172,-61 172,-356 172,-356 172,-362 166,-368 160,-368 160,-368 66,-368 66,-368 60,-368 54,-362 54,-356 54,-356 54,-61 54,-61 54,-55 60,-49 66,-49"/>
<g id="a_clust1_0"><a xlink:href="https://github.com/LogtalkDotOrg/logtalk3/tree/da1b904fb338cb0213d64d8c5e20b502297dd0fd/library/sets/set1.lgt" xlink:title="https://github.com/LogtalkDotOrg/logtalk3/tree/da1b904fb338cb0213d64d8c5e20b502297dd0fd/library/sets/set1.lgt">
<text text-anchor="start" x="66.5" y="-351.5" font-family="Courier,monospace" font-size="10.00" fill="dimgray">set(Type)</text>
</a>
</g>
</a>
</g>
</g>
<!-- valid/1 -->
<g id="node1" class="node">
<title>valid/1</title>
<g id="a_node1"><a xlink:href="https://github.com/LogtalkDotOrg/logtalk3/tree/da1b904fb338cb0213d64d8c5e20b502297dd0fd/library/sets/set1.lgt#L33" xlink:title="https://github.com/LogtalkDotOrg/logtalk3/tree/da1b904fb338cb0213d64d8c5e20b502297dd0fd/library/sets/set1.lgt#L33">
<polygon fill="cornsilk" stroke="black" points="145.5,-213 80.5,-213 80.5,-177 145.5,-177 145.5,-213"/>
<text text-anchor="start" x="89" y="-197.8" font-family="Courier,monospace" font-size="9.00"> </text>
<text text-anchor="start" x="94" y="-197.2" font-family="Courier,monospace" font-size="11.00">valid/1</text>
<text text-anchor="start" x="133" y="-197.8" font-family="Courier,monospace" font-size="9.00"> </text>
<text text-anchor="start" x="89" y="-186.8" font-family="Courier,monospace" font-size="9.00"> </text>
<text text-anchor="start" x="104.5" y="-187.4" font-family="Courier,monospace" font-size="7.00">local</text>
<text text-anchor="start" x="133" y="-186.8" font-family="Courier,monospace" font-size="9.00"> </text>
</a>
</g>
</g>
<!-- check_order/2 -->
<g id="node2" class="node">
<title>check_order/2</title>
<g id="a_node2"><a xlink:href="https://github.com/LogtalkDotOrg/logtalk3/tree/da1b904fb338cb0213d64d8c5e20b502297dd0fd/library/sets/set1.lgt#L42" xlink:title="https://github.com/LogtalkDotOrg/logtalk3/tree/da1b904fb338cb0213d64d8c5e20b502297dd0fd/library/sets/set1.lgt#L42">
<polygon fill="cornsilk" stroke="black" points="162,-95 64,-95 64,-59 162,-59 162,-95"/>
<text text-anchor="start" x="72" y="-79.8" font-family="Courier,monospace" font-size="9.00"> </text>
<text text-anchor="start" x="77" y="-79.2" font-family="Courier,monospace" font-size="11.00">check_order/2</text>
<text text-anchor="start" x="149" y="-79.8" font-family="Courier,monospace" font-size="9.00"> </text>
<text text-anchor="start" x="72" y="-68.8" font-family="Courier,monospace" font-size="9.00"> </text>
<text text-anchor="start" x="104" y="-69.4" font-family="Courier,monospace" font-size="7.00">local</text>
<text text-anchor="start" x="149" y="-68.8" font-family="Courier,monospace" font-size="9.00"> </text>
</a>
</g>
</g>
<!-- valid/1&#45;&gt;check_order/2 -->
<g id="edge1" class="edge">
<title>valid/1&#45;&gt;check_order/2</title>
<g id="a_edge1"><a xlink:href="https://github.com/LogtalkDotOrg/logtalk3/tree/da1b904fb338cb0213d64d8c5e20b502297dd0fd/library/sets/set1.lgt#L39" xlink:title="calls">
<path fill="none" stroke="black" d="M113,-176.88C113,-158.04 113,-127.47 113,-105.3"/>
<polygon fill="black" stroke="black" points="116.5,-105.19 113,-95.19 109.5,-105.19 116.5,-105.19"/>
</a>
</g>
<g id="a_edge1&#45;label"><a xlink:href="https://github.com/LogtalkDotOrg/logtalk3/tree/da1b904fb338cb0213d64d8c5e20b502297dd0fd/library/sets/set1.lgt#L39" xlink:title="https://github.com/LogtalkDotOrg/logtalk3/tree/da1b904fb338cb0213d64d8c5e20b502297dd0fd/library/sets/set1.lgt#L39">
<text text-anchor="start" x="113" y="-133.8" font-family="Courier,monospace" font-size="9.00">calls</text>
</a>
</g>
</g>
<!-- check/1 -->
<g id="node3" class="node">
<title>check/1</title>
<g id="a_node3"><a xlink:href="https://github.com/LogtalkDotOrg/logtalk3/tree/da1b904fb338cb0213d64d8c5e20b502297dd0fd/library/sets/set1.lgt#L55" xlink:title="https://github.com/LogtalkDotOrg/logtalk3/tree/da1b904fb338cb0213d64d8c5e20b502297dd0fd/library/sets/set1.lgt#L55">
<polygon fill="cornsilk" stroke="black" points="145.5,-331 80.5,-331 80.5,-295 145.5,-295 145.5,-331"/>
<text text-anchor="start" x="89" y="-315.8" font-family="Courier,monospace" font-size="9.00"> </text>
<text text-anchor="start" x="94" y="-315.2" font-family="Courier,monospace" font-size="11.00">check/1</text>
<text text-anchor="start" x="133" y="-315.8" font-family="Courier,monospace" font-size="9.00"> </text>
<text text-anchor="start" x="89" y="-304.8" font-family="Courier,monospace" font-size="9.00"> </text>
<text text-anchor="start" x="104.5" y="-305.4" font-family="Courier,monospace" font-size="7.00">local</text>
<text text-anchor="start" x="133" y="-304.8" font-family="Courier,monospace" font-size="9.00"> </text>
</a>
</g>
</g>
<!-- check/1&#45;&gt;valid/1 -->
<g id="edge2" class="edge">
<title>check/1&#45;&gt;valid/1</title>
<g id="a_edge2"><a xlink:href="https://github.com/LogtalkDotOrg/logtalk3/tree/da1b904fb338cb0213d64d8c5e20b502297dd0fd/library/sets/set1.lgt#L55" xlink:title="calls">
<path fill="none" stroke="black" d="M113,-294.88C113,-276.04 113,-245.47 113,-223.3"/>
<polygon fill="black" stroke="black" points="116.5,-223.19 113,-213.19 109.5,-223.19 116.5,-223.19"/>
</a>
</g>
<g id="a_edge2&#45;label"><a xlink:href="https://github.com/LogtalkDotOrg/logtalk3/tree/da1b904fb338cb0213d64d8c5e20b502297dd0fd/library/sets/set1.lgt#L55" xlink:title="https://github.com/LogtalkDotOrg/logtalk3/tree/da1b904fb338cb0213d64d8c5e20b502297dd0fd/library/sets/set1.lgt#L55">
<text text-anchor="start" x="113" y="-251.8" font-family="Courier,monospace" font-size="9.00">calls</text>
</a>
</g>
</g>
</g>
</svg>
