<?xml version="1.0" encoding="UTF-8" standalone="no"?>
<?xml-stylesheet href="diagrams.css" type="text/css"?>
<!DOCTYPE svg PUBLIC "-//W3C//DTD SVG 1.1//EN"
 "http://www.w3.org/Graphics/SVG/1.1/DTD/svg11.dtd">
<!-- Generated by graphviz version 2.50.0 (20211204.2007)
 -->
<!-- Title: set_1_object Pages: 1 -->
<svg width="421pt" height="528pt"
 viewBox="72.00 72.00 349.00 456.00" xmlns="http://www.w3.org/2000/svg" xmlns:xlink="http://www.w3.org/1999/xlink">
<g id="graph0" class="graph" transform="scale(1 1) rotate(0) translate(76 452)">
<title>set_1_object</title>
<polygon fill="white" stroke="transparent" points="-4,4 -4,-380 273,-380 273,4 -4,4"/>
<text text-anchor="start" x="8" y="-29" font-family="Monospace" font-size="10.00" fill="dimgray">Logtalk library</text>
<text text-anchor="start" x="8" y="-18" font-family="Monospace" font-size="10.00" fill="dimgray">Cross&#45;referencing diagram for object set/1</text>
<text text-anchor="start" x="8" y="-7" font-family="Monospace" font-size="10.00" fill="dimgray">Generated on 2022&#45;01&#45;25, 10:40</text>
<g id="clust1" class="cluster">
<title>cluster_set_1_object</title>
<g id="a_clust1"><a xlink:title="set(Type)">
<path fill="snow" stroke="dimgray" d="M78.5,-49C78.5,-49 190.5,-49 190.5,-49 196.5,-49 202.5,-55 202.5,-61 202.5,-61 202.5,-356 202.5,-356 202.5,-362 196.5,-368 190.5,-368 190.5,-368 78.5,-368 78.5,-368 72.5,-368 66.5,-362 66.5,-356 66.5,-356 66.5,-61 66.5,-61 66.5,-55 72.5,-49 78.5,-49"/>
<g id="a_clust1_0"><a xlink:href="https://github.com/LogtalkDotOrg/logtalk3/tree/07052c775338ed5139b3e828fbbf881bd49bf822/library/sets/set1.lgt" xlink:title="https://github.com/LogtalkDotOrg/logtalk3/tree/07052c775338ed5139b3e828fbbf881bd49bf822/library/sets/set1.lgt">
<text text-anchor="start" x="79" y="-351.5" font-family="Monospace" font-size="10.00" fill="dimgray">set(Type)</text>
</a>
</g>
</a>
</g>
</g>
<!-- valid/1 -->
<g id="node1" class="node">
<title>valid/1</title>
<g id="a_node1"><a xlink:href="https://github.com/LogtalkDotOrg/logtalk3/tree/07052c775338ed5139b3e828fbbf881bd49bf822/library/sets/set1.lgt#L33" xlink:title="https://github.com/LogtalkDotOrg/logtalk3/tree/07052c775338ed5139b3e828fbbf881bd49bf822/library/sets/set1.lgt#L33">
<polygon fill="cornsilk" stroke="black" points="172.5,-213 96.5,-213 96.5,-177 172.5,-177 172.5,-213"/>
<text text-anchor="start" x="104.5" y="-197.8" font-family="Monospace" font-size="9.00"> </text>
<text text-anchor="start" x="110.5" y="-197.2" font-family="Monospace" font-size="11.00">valid/1</text>
<text text-anchor="start" x="158.5" y="-197.8" font-family="Monospace" font-size="9.00"> </text>
<text text-anchor="start" x="104.5" y="-186.8" font-family="Monospace" font-size="9.00"> </text>
<text text-anchor="start" x="123" y="-187.4" font-family="Monospace" font-size="7.00">local</text>
<text text-anchor="start" x="158.5" y="-186.8" font-family="Monospace" font-size="9.00"> </text>
</a>
</g>
</g>
<!-- check_order/2 -->
<g id="node2" class="node">
<title>check_order/2</title>
<g id="a_node2"><a xlink:href="https://github.com/LogtalkDotOrg/logtalk3/tree/07052c775338ed5139b3e828fbbf881bd49bf822/library/sets/set1.lgt#L42" xlink:title="https://github.com/LogtalkDotOrg/logtalk3/tree/07052c775338ed5139b3e828fbbf881bd49bf822/library/sets/set1.lgt#L42">
<polygon fill="cornsilk" stroke="black" points="192.5,-95 76.5,-95 76.5,-59 192.5,-59 192.5,-95"/>
<text text-anchor="start" x="84.5" y="-79.8" font-family="Monospace" font-size="9.00"> </text>
<text text-anchor="start" x="90.5" y="-79.2" font-family="Monospace" font-size="11.00">check_order/2</text>
<text text-anchor="start" x="178.5" y="-79.8" font-family="Monospace" font-size="9.00"> </text>
<text text-anchor="start" x="84.5" y="-68.8" font-family="Monospace" font-size="9.00"> </text>
<text text-anchor="start" x="123" y="-69.4" font-family="Monospace" font-size="7.00">local</text>
<text text-anchor="start" x="178.5" y="-68.8" font-family="Monospace" font-size="9.00"> </text>
</a>
</g>
</g>
<!-- valid/1&#45;&gt;check_order/2 -->
<g id="edge1" class="edge">
<title>valid/1&#45;&gt;check_order/2</title>
<g id="a_edge1"><a xlink:href="https://github.com/LogtalkDotOrg/logtalk3/tree/07052c775338ed5139b3e828fbbf881bd49bf822/library/sets/set1.lgt#L39" xlink:title="calls">
<path fill="none" stroke="black" d="M134.5,-176.88C134.5,-158.04 134.5,-127.47 134.5,-105.3"/>
<polygon fill="black" stroke="black" points="138,-105.19 134.5,-95.19 131,-105.19 138,-105.19"/>
</a>
</g>
<g id="a_edge1&#45;label"><a xlink:href="https://github.com/LogtalkDotOrg/logtalk3/tree/07052c775338ed5139b3e828fbbf881bd49bf822/library/sets/set1.lgt#L39" xlink:title="https://github.com/LogtalkDotOrg/logtalk3/tree/07052c775338ed5139b3e828fbbf881bd49bf822/library/sets/set1.lgt#L39">
<text text-anchor="start" x="134.5" y="-133.8" font-family="Monospace" font-size="9.00">calls</text>
</a>
</g>
</g>
<!-- check/1 -->
<g id="node3" class="node">
<title>check/1</title>
<g id="a_node3"><a xlink:href="https://github.com/LogtalkDotOrg/logtalk3/tree/07052c775338ed5139b3e828fbbf881bd49bf822/library/sets/set1.lgt#L55" xlink:title="https://github.com/LogtalkDotOrg/logtalk3/tree/07052c775338ed5139b3e828fbbf881bd49bf822/library/sets/set1.lgt#L55">
<polygon fill="cornsilk" stroke="black" points="172.5,-331 96.5,-331 96.5,-295 172.5,-295 172.5,-331"/>
<text text-anchor="start" x="104.5" y="-315.8" font-family="Monospace" font-size="9.00"> </text>
<text text-anchor="start" x="110.5" y="-315.2" font-family="Monospace" font-size="11.00">check/1</text>
<text text-anchor="start" x="158.5" y="-315.8" font-family="Monospace" font-size="9.00"> </text>
<text text-anchor="start" x="104.5" y="-304.8" font-family="Monospace" font-size="9.00"> </text>
<text text-anchor="start" x="123" y="-305.4" font-family="Monospace" font-size="7.00">local</text>
<text text-anchor="start" x="158.5" y="-304.8" font-family="Monospace" font-size="9.00"> </text>
</a>
</g>
</g>
<!-- check/1&#45;&gt;valid/1 -->
<g id="edge2" class="edge">
<title>check/1&#45;&gt;valid/1</title>
<g id="a_edge2"><a xlink:href="https://github.com/LogtalkDotOrg/logtalk3/tree/07052c775338ed5139b3e828fbbf881bd49bf822/library/sets/set1.lgt#L55" xlink:title="calls">
<path fill="none" stroke="black" d="M134.5,-294.88C134.5,-276.04 134.5,-245.47 134.5,-223.3"/>
<polygon fill="black" stroke="black" points="138,-223.19 134.5,-213.19 131,-223.19 138,-223.19"/>
</a>
</g>
<g id="a_edge2&#45;label"><a xlink:href="https://github.com/LogtalkDotOrg/logtalk3/tree/07052c775338ed5139b3e828fbbf881bd49bf822/library/sets/set1.lgt#L55" xlink:title="https://github.com/LogtalkDotOrg/logtalk3/tree/07052c775338ed5139b3e828fbbf881bd49bf822/library/sets/set1.lgt#L55">
<text text-anchor="start" x="134.5" y="-251.8" font-family="Monospace" font-size="9.00">calls</text>
</a>
</g>
</g>
</g>
</svg>
