<?xml version="1.0" encoding="UTF-8" standalone="no"?>
<?xml-stylesheet href="diagrams.css" type="text/css"?>
<!DOCTYPE svg PUBLIC "-//W3C//DTD SVG 1.1//EN"
 "http://www.w3.org/Graphics/SVG/1.1/DTD/svg11.dtd">
<!-- Generated by graphviz version 9.0.0 (20230911.1827)
 -->
<!-- Title: shell_object Pages: 1 -->
<svg width="420pt" height="411pt"
 viewBox="72.00 72.00 348.00 338.75" xmlns="http://www.w3.org/2000/svg" xmlns:xlink="http://www.w3.org/1999/xlink">
<g id="graph0" class="graph" transform="scale(1 1) rotate(0) translate(76 334.75)">
<title>shell_object</title>
<polygon fill="white" stroke="none" points="-4,4 -4,-262.75 272,-262.75 272,4 -4,4"/>
<text text-anchor="start" x="8" y="-28.25" font-family="Monospace" font-size="10.00" fill="dimgray">Logtalk third&#45;party contributions</text>
<text text-anchor="start" x="8" y="-17" font-family="Monospace" font-size="10.00" fill="dimgray">Cross&#45;referencing diagram for object shell</text>
<text text-anchor="start" x="8" y="-5.75" font-family="Monospace" font-size="10.00" fill="dimgray">Generated on 2023&#45;11&#45;08, 15:02</text>
<g id="clust1" class="cluster">
<title>cluster_shell_object</title>
<g id="a_clust1"><a xlink:title="shell">
<path fill="snow" stroke="dimgray" d="M32,-49.75C32,-49.75 236,-49.75 236,-49.75 242,-49.75 248,-55.75 248,-61.75 248,-61.75 248,-238.75 248,-238.75 248,-244.75 242,-250.75 236,-250.75 236,-250.75 32,-250.75 32,-250.75 26,-250.75 20,-244.75 20,-238.75 20,-238.75 20,-61.75 20,-61.75 20,-55.75 26,-49.75 32,-49.75"/>
<g id="a_clust1_0"><a xlink:href="https://github.com/LogtalkDotOrg/logtalk3/tree/301e5bea27046e10992dbb7d74be70f4a026dcf5/contributions/verdi_neruda/shell.lgt" xlink:title="https://github.com/LogtalkDotOrg/logtalk3/tree/301e5bea27046e10992dbb7d74be70f4a026dcf5/contributions/verdi_neruda/shell.lgt">
<text text-anchor="start" x="32" y="-233.25" font-family="Monospace" font-size="10.00" fill="dimgray">shell</text>
</a>
</g>
</a>
</g>
</g>
<!-- welcome/0 -->
<g id="node1" class="node">
<title>welcome/0</title>
<g id="a_node1"><a xlink:href="https://github.com/LogtalkDotOrg/logtalk3/tree/301e5bea27046e10992dbb7d74be70f4a026dcf5/contributions/verdi_neruda/shell.lgt#L343" xlink:title="https://github.com/LogtalkDotOrg/logtalk3/tree/301e5bea27046e10992dbb7d74be70f4a026dcf5/contributions/verdi_neruda/shell.lgt#L343">
<polygon fill="springgreen" stroke="black" points="238,-213.5 152,-213.5 152,-177.5 238,-177.5 238,-213.5"/>
<text text-anchor="start" x="159.88" y="-196.32" font-family="Monospace" font-size="9.00"> </text>
<text text-anchor="start" x="164.62" y="-195.55" font-family="Monospace" font-size="11.00">welcome/0</text>
<text text-anchor="start" x="224.88" y="-196.32" font-family="Monospace" font-size="9.00"> </text>
<text text-anchor="start" x="159.88" y="-185.45" font-family="Monospace" font-size="9.00"> </text>
<text text-anchor="start" x="181.5" y="-186.97" font-family="Monospace" font-size="7.00">public</text>
<text text-anchor="start" x="224.88" y="-185.45" font-family="Monospace" font-size="9.00"> </text>
</a>
</g>
</g>
<!-- start/0 -->
<g id="node2" class="node">
<title>start/0</title>
<g id="a_node2"><a xlink:href="https://github.com/LogtalkDotOrg/logtalk3/tree/301e5bea27046e10992dbb7d74be70f4a026dcf5/contributions/verdi_neruda/shell.lgt#L355" xlink:title="https://github.com/LogtalkDotOrg/logtalk3/tree/301e5bea27046e10992dbb7d74be70f4a026dcf5/contributions/verdi_neruda/shell.lgt#L355">
<polygon fill="springgreen" stroke="black" points="133.5,-213.5 60.5,-213.5 60.5,-177.5 133.5,-177.5 133.5,-213.5"/>
<text text-anchor="start" x="68.38" y="-196.32" font-family="Monospace" font-size="9.00"> </text>
<text text-anchor="start" x="73.38" y="-195.55" font-family="Monospace" font-size="11.00">start/0</text>
<text text-anchor="start" x="120.38" y="-196.32" font-family="Monospace" font-size="9.00"> </text>
<text text-anchor="start" x="68.38" y="-185.45" font-family="Monospace" font-size="9.00"> </text>
<text text-anchor="start" x="83.5" y="-186.97" font-family="Monospace" font-size="7.00">public</text>
<text text-anchor="start" x="120.38" y="-185.45" font-family="Monospace" font-size="9.00"> </text>
</a>
</g>
</g>
<!-- shell(Interpreters)::init/0 -->
<g id="node3" class="node">
<title>shell(Interpreters)::init/0</title>
<g id="a_node3"><a xlink:href="https://logtalk.org/library/shell_1.html#init/0" xlink:title="https://logtalk.org/library/shell_1.html#init/0">
<polygon fill="beige" stroke="black" stroke-dasharray="5,2" points="238,-95.75 30,-95.75 30,-59.75 238,-59.75 238,-95.75"/>
<text text-anchor="start" x="37.88" y="-78.58" font-family="Monospace" font-size="9.00"> </text>
<text text-anchor="start" x="42.88" y="-77.8" font-family="Monospace" font-size="11.00">shell(Interpreters)::init/0</text>
<text text-anchor="start" x="224.88" y="-78.58" font-family="Monospace" font-size="9.00"> </text>
<text text-anchor="start" x="37.88" y="-67.7" font-family="Monospace" font-size="9.00"> </text>
<text text-anchor="start" x="116" y="-69.22" font-family="Monospace" font-size="7.00">external</text>
<text text-anchor="start" x="224.88" y="-67.7" font-family="Monospace" font-size="9.00"> </text>
</a>
</g>
</g>
<!-- start/0&#45;&gt;shell(Interpreters)::init/0 -->
<g id="edge1" class="edge">
<title>start/0&#45;&gt;shell(Interpreters)::init/0</title>
<g id="a_edge1"><a xlink:href="https://github.com/LogtalkDotOrg/logtalk3/tree/301e5bea27046e10992dbb7d74be70f4a026dcf5/contributions/verdi_neruda/shell.lgt#L357" xlink:title="calls">
<path fill="none" stroke="black" d="M102.54,-177.17C108.45,-158.67 117.91,-129.07 124.92,-107.16"/>
<polygon fill="black" stroke="black" points="128.25,-108.23 127.96,-97.64 121.58,-106.1 128.25,-108.23"/>
</a>
</g>
<g id="a_edge1&#45;label"><a xlink:href="https://github.com/LogtalkDotOrg/logtalk3/tree/301e5bea27046e10992dbb7d74be70f4a026dcf5/contributions/verdi_neruda/shell.lgt#L357" xlink:title="https://github.com/LogtalkDotOrg/logtalk3/tree/301e5bea27046e10992dbb7d74be70f4a026dcf5/contributions/verdi_neruda/shell.lgt#L357">
<text text-anchor="start" x="116" y="-132.95" font-family="Monospace" font-size="9.00">calls</text>
</a>
</g>
</g>
</g>
</svg>
