<?xml version="1.0" encoding="UTF-8" standalone="no"?>
<?xml-stylesheet href="diagrams.css" type="text/css"?>
<!DOCTYPE svg PUBLIC "-//W3C//DTD SVG 1.1//EN"
 "http://www.w3.org/Graphics/SVG/1.1/DTD/svg11.dtd">
<!-- Generated by graphviz version 2.49.3 (20211023.0002)
 -->
<!-- Title: shell_object Pages: 1 -->
<svg width="378pt" height="410pt"
 viewBox="72.00 72.00 306.00 338.00" xmlns="http://www.w3.org/2000/svg" xmlns:xlink="http://www.w3.org/1999/xlink">
<g id="graph0" class="graph" transform="scale(1 1) rotate(0) translate(76 334)">
<title>shell_object</title>
<polygon fill="white" stroke="transparent" points="-4,4 -4,-262 230,-262 230,4 -4,4"/>
<text text-anchor="start" x="8" y="-29" font-family="Courier,monospace" font-size="10.00" fill="dimgray">Logtalk third&#45;party contributions</text>
<text text-anchor="start" x="8" y="-18" font-family="Courier,monospace" font-size="10.00" fill="dimgray">Cross&#45;referencing diagram for object shell</text>
<text text-anchor="start" x="8" y="-7" font-family="Courier,monospace" font-size="10.00" fill="dimgray">Generated on 2021&#45;11&#45;18, 19:47</text>
<g id="clust1" class="cluster">
<title>cluster_shell_object</title>
<g id="a_clust1"><a xlink:title="shell">
<path fill="snow" stroke="dimgray" d="M27,-49C27,-49 199,-49 199,-49 205,-49 211,-55 211,-61 211,-61 211,-238 211,-238 211,-244 205,-250 199,-250 199,-250 27,-250 27,-250 21,-250 15,-244 15,-238 15,-238 15,-61 15,-61 15,-55 21,-49 27,-49"/>
<g id="a_clust1_0"><a xlink:href="https://github.com/LogtalkDotOrg/logtalk3/tree/00ea0ef7ab8123e2100dcb8b4438acc57114cd01/contributions/verdi_neruda/shell.lgt" xlink:title="https://github.com/LogtalkDotOrg/logtalk3/tree/00ea0ef7ab8123e2100dcb8b4438acc57114cd01/contributions/verdi_neruda/shell.lgt">
<text text-anchor="start" x="27.5" y="-233.5" font-family="Courier,monospace" font-size="10.00" fill="dimgray">shell</text>
</a>
</g>
</a>
</g>
</g>
<!-- welcome/0 -->
<g id="node1" class="node">
<title>welcome/0</title>
<g id="a_node1"><a xlink:href="https://github.com/LogtalkDotOrg/logtalk3/tree/00ea0ef7ab8123e2100dcb8b4438acc57114cd01/contributions/verdi_neruda/shell.lgt#L341" xlink:title="https://github.com/LogtalkDotOrg/logtalk3/tree/00ea0ef7ab8123e2100dcb8b4438acc57114cd01/contributions/verdi_neruda/shell.lgt#L341">
<polygon fill="springgreen" stroke="black" points="201,-213 125,-213 125,-177 201,-177 201,-213"/>
<text text-anchor="start" x="133" y="-197.8" font-family="Courier,monospace" font-size="9.00"> </text>
<text text-anchor="start" x="138" y="-197.2" font-family="Courier,monospace" font-size="11.00">welcome/0</text>
<text text-anchor="start" x="188" y="-197.8" font-family="Courier,monospace" font-size="9.00"> </text>
<text text-anchor="start" x="133" y="-186.8" font-family="Courier,monospace" font-size="9.00"> </text>
<text text-anchor="start" x="152.5" y="-187.4" font-family="Courier,monospace" font-size="7.00">public</text>
<text text-anchor="start" x="188" y="-186.8" font-family="Courier,monospace" font-size="9.00"> </text>
</a>
</g>
</g>
<!-- start/0 -->
<g id="node2" class="node">
<title>start/0</title>
<g id="a_node2"><a xlink:href="https://github.com/LogtalkDotOrg/logtalk3/tree/00ea0ef7ab8123e2100dcb8b4438acc57114cd01/contributions/verdi_neruda/shell.lgt#L353" xlink:title="https://github.com/LogtalkDotOrg/logtalk3/tree/00ea0ef7ab8123e2100dcb8b4438acc57114cd01/contributions/verdi_neruda/shell.lgt#L353">
<polygon fill="springgreen" stroke="black" points="106.5,-213 41.5,-213 41.5,-177 106.5,-177 106.5,-213"/>
<text text-anchor="start" x="50" y="-197.8" font-family="Courier,monospace" font-size="9.00"> </text>
<text text-anchor="start" x="55" y="-197.2" font-family="Courier,monospace" font-size="11.00">start/0</text>
<text text-anchor="start" x="94" y="-197.8" font-family="Courier,monospace" font-size="9.00"> </text>
<text text-anchor="start" x="50" y="-186.8" font-family="Courier,monospace" font-size="9.00"> </text>
<text text-anchor="start" x="64" y="-187.4" font-family="Courier,monospace" font-size="7.00">public</text>
<text text-anchor="start" x="94" y="-186.8" font-family="Courier,monospace" font-size="9.00"> </text>
</a>
</g>
</g>
<!-- shell(Interpreters)::init/0 -->
<g id="node3" class="node">
<title>shell(Interpreters)::init/0</title>
<g id="a_node3"><a xlink:href="https://logtalk.org/library/shell_1.html#init/0" xlink:title="https://logtalk.org/library/shell_1.html#init/0">
<polygon fill="beige" stroke="black" stroke-dasharray="5,2" points="200.5,-95 25.5,-95 25.5,-59 200.5,-59 200.5,-95"/>
<text text-anchor="start" x="34" y="-79.8" font-family="Courier,monospace" font-size="9.00"> </text>
<text text-anchor="start" x="39" y="-79.2" font-family="Courier,monospace" font-size="11.00">shell(Interpreters)::init/0</text>
<text text-anchor="start" x="188" y="-79.8" font-family="Courier,monospace" font-size="9.00"> </text>
<text text-anchor="start" x="34" y="-68.8" font-family="Courier,monospace" font-size="9.00"> </text>
<text text-anchor="start" x="99.5" y="-69.4" font-family="Courier,monospace" font-size="7.00">external</text>
<text text-anchor="start" x="188" y="-68.8" font-family="Courier,monospace" font-size="9.00"> </text>
</a>
</g>
</g>
<!-- start/0&#45;&gt;shell(Interpreters)::init/0 -->
<g id="edge1" class="edge">
<title>start/0&#45;&gt;shell(Interpreters)::init/0</title>
<g id="a_edge1"><a xlink:href="https://github.com/LogtalkDotOrg/logtalk3/tree/00ea0ef7ab8123e2100dcb8b4438acc57114cd01/contributions/verdi_neruda/shell.lgt#L355" xlink:title="calls">
<path fill="none" stroke="black" d="M79.75,-176.88C86.15,-157.86 96.56,-126.91 104.02,-104.7"/>
<polygon fill="black" stroke="black" points="107.35,-105.78 107.22,-95.19 100.72,-103.55 107.35,-105.78"/>
</a>
</g>
<g id="a_edge1&#45;label"><a xlink:href="https://github.com/LogtalkDotOrg/logtalk3/tree/00ea0ef7ab8123e2100dcb8b4438acc57114cd01/contributions/verdi_neruda/shell.lgt#L355" xlink:title="https://github.com/LogtalkDotOrg/logtalk3/tree/00ea0ef7ab8123e2100dcb8b4438acc57114cd01/contributions/verdi_neruda/shell.lgt#L355">
<text text-anchor="start" x="94" y="-133.8" font-family="Courier,monospace" font-size="9.00">calls</text>
</a>
</g>
</g>
</g>
</svg>
