<?xml version="1.0" encoding="UTF-8" standalone="no"?>
<?xml-stylesheet href="diagrams.css" type="text/css"?>
<!DOCTYPE svg PUBLIC "-//W3C//DTD SVG 1.1//EN"
 "http://www.w3.org/Graphics/SVG/1.1/DTD/svg11.dtd">
<!-- Generated by graphviz version 12.2.0 (20241103.1931)
 -->
<!-- Title: shell_object Pages: 1 -->
<svg width="420pt" height="418pt"
 viewBox="72.00 72.00 348.00 346.25" xmlns="http://www.w3.org/2000/svg" xmlns:xlink="http://www.w3.org/1999/xlink">
<g id="graph0" class="graph" transform="scale(1 1) rotate(0) translate(76 342.25)">
<title>shell_object</title>
<polygon fill="white" stroke="none" points="-4,4 -4,-270.25 272,-270.25 272,4 -4,4"/>
<text text-anchor="start" x="8" y="-32.75" font-family="Monospace" font-size="10.00" fill="dimgray">Logtalk third&#45;party contributions</text>
<text text-anchor="start" x="8" y="-20" font-family="Monospace" font-size="10.00" fill="dimgray">Cross&#45;referencing diagram for object shell</text>
<text text-anchor="start" x="8" y="-7.25" font-family="Monospace" font-size="10.00" fill="dimgray">Generated on 2024&#45;11&#45;20, 00:03</text>
<g id="clust1" class="cluster">
<title>cluster_shell_object</title>
<g id="a_clust1"><a xlink:title="shell">
<path fill="snow" stroke="dimgray" d="M32,-54.25C32,-54.25 236,-54.25 236,-54.25 242,-54.25 248,-60.25 248,-66.25 248,-66.25 248,-246.25 248,-246.25 248,-252.25 242,-258.25 236,-258.25 236,-258.25 32,-258.25 32,-258.25 26,-258.25 20,-252.25 20,-246.25 20,-246.25 20,-66.25 20,-66.25 20,-60.25 26,-54.25 32,-54.25"/>
<g id="a_clust1_0"><a xlink:href="https://github.com/LogtalkDotOrg/logtalk3/tree/4f6256db27086e6efdacd09a8bee5bb03cb698df/contributions/verdi_neruda/shell.lgt" xlink:title="https://github.com/LogtalkDotOrg/logtalk3/tree/4f6256db27086e6efdacd09a8bee5bb03cb698df/contributions/verdi_neruda/shell.lgt">
<text text-anchor="start" x="32" y="-240.75" font-family="Monospace" font-size="10.00" fill="dimgray">shell</text>
</a>
</g>
</a>
</g>
</g>
<!-- welcome/0 -->
<g id="node1" class="node">
<title>welcome/0</title>
<g id="a_node1"><a xlink:href="https://github.com/LogtalkDotOrg/logtalk3/tree/4f6256db27086e6efdacd09a8bee5bb03cb698df/contributions/verdi_neruda/shell.lgt#L346" xlink:title="https://github.com/LogtalkDotOrg/logtalk3/tree/4f6256db27086e6efdacd09a8bee5bb03cb698df/contributions/verdi_neruda/shell.lgt#L346">
<polygon fill="springgreen" stroke="black" points="117.62,-219.5 30.38,-219.5 30.38,-183.5 117.62,-183.5 117.62,-219.5"/>
<text text-anchor="start" x="38.38" y="-204.2" font-family="Monospace" font-size="9.00"> </text>
<text text-anchor="start" x="43.62" y="-203.43" font-family="Monospace" font-size="11.00">welcome/0</text>
<text text-anchor="start" x="104.38" y="-204.2" font-family="Monospace" font-size="9.00"> </text>
<text text-anchor="start" x="38.38" y="-191.82" font-family="Monospace" font-size="9.00"> </text>
<text text-anchor="start" x="60.5" y="-192.6" font-family="Monospace" font-size="7.00">public</text>
<text text-anchor="start" x="104.38" y="-191.82" font-family="Monospace" font-size="9.00"> </text>
</a>
</g>
</g>
<!-- start/0 -->
<g id="node2" class="node">
<title>start/0</title>
<g id="a_node2"><a xlink:href="https://github.com/LogtalkDotOrg/logtalk3/tree/4f6256db27086e6efdacd09a8bee5bb03cb698df/contributions/verdi_neruda/shell.lgt#L358" xlink:title="https://github.com/LogtalkDotOrg/logtalk3/tree/4f6256db27086e6efdacd09a8bee5bb03cb698df/contributions/verdi_neruda/shell.lgt#L358">
<polygon fill="springgreen" stroke="black" points="209.88,-219.5 136.12,-219.5 136.12,-183.5 209.88,-183.5 209.88,-219.5"/>
<text text-anchor="start" x="144.12" y="-204.2" font-family="Monospace" font-size="9.00"> </text>
<text text-anchor="start" x="149.38" y="-203.43" font-family="Monospace" font-size="11.00">start/0</text>
<text text-anchor="start" x="196.62" y="-204.2" font-family="Monospace" font-size="9.00"> </text>
<text text-anchor="start" x="144.12" y="-191.82" font-family="Monospace" font-size="9.00"> </text>
<text text-anchor="start" x="159.5" y="-192.6" font-family="Monospace" font-size="7.00">public</text>
<text text-anchor="start" x="196.62" y="-191.82" font-family="Monospace" font-size="9.00"> </text>
</a>
</g>
</g>
<!-- shell(Interpreters)::init/0 -->
<g id="node3" class="node">
<title>shell(Interpreters)::init/0</title>
<g id="a_node3"><a xlink:href="https://logtalk.org/library/shell_1.html#init-0" xlink:title="https://logtalk.org/library/shell_1.html#init&#45;0">
<polygon fill="beige" stroke="black" stroke-dasharray="5,2" points="238.38,-100.25 29.62,-100.25 29.62,-64.25 238.38,-64.25 238.38,-100.25"/>
<text text-anchor="start" x="37.62" y="-84.95" font-family="Monospace" font-size="9.00"> </text>
<text text-anchor="start" x="42.88" y="-84.17" font-family="Monospace" font-size="11.00">shell(Interpreters)::init/0</text>
<text text-anchor="start" x="225.12" y="-84.95" font-family="Monospace" font-size="9.00"> </text>
<text text-anchor="start" x="37.62" y="-72.58" font-family="Monospace" font-size="9.00"> </text>
<text text-anchor="start" x="116" y="-73.35" font-family="Monospace" font-size="7.00">external</text>
<text text-anchor="start" x="225.12" y="-72.58" font-family="Monospace" font-size="9.00"> </text>
</a>
</g>
</g>
<!-- start/0&#45;&gt;shell(Interpreters)::init/0 -->
<g id="edge1" class="edge">
<title>start/0&#45;&gt;shell(Interpreters)::init/0</title>
<g id="a_edge1"><a xlink:href="https://github.com/LogtalkDotOrg/logtalk3/tree/4f6256db27086e6efdacd09a8bee5bb03cb698df/contributions/verdi_neruda/shell.lgt#L360" xlink:title="calls">
<path fill="none" stroke="black" d="M167.25,-183.2C160.97,-164.32 150.82,-133.81 143.38,-111.46"/>
<polygon fill="black" stroke="black" points="146.73,-110.44 140.26,-102.06 140.09,-112.65 146.73,-110.44"/>
</a>
</g>
<g id="a_edge1&#45;label"><a xlink:href="https://github.com/LogtalkDotOrg/logtalk3/tree/4f6256db27086e6efdacd09a8bee5bb03cb698df/contributions/verdi_neruda/shell.lgt#L360" xlink:title="https://github.com/LogtalkDotOrg/logtalk3/tree/4f6256db27086e6efdacd09a8bee5bb03cb698df/contributions/verdi_neruda/shell.lgt#L360">
<text text-anchor="start" x="154.67" y="-138.95" font-family="Monospace" font-size="9.00">calls</text>
</a>
</g>
</g>
</g>
</svg>
