<?xml version="1.0" encoding="UTF-8" standalone="no"?>
<?xml-stylesheet href="diagrams.css" type="text/css"?>
<!DOCTYPE svg PUBLIC "-//W3C//DTD SVG 1.1//EN"
 "http://www.w3.org/Graphics/SVG/1.1/DTD/svg11.dtd">
<!-- Generated by graphviz version 2.49.3 (20211023.0002)
 -->
<!-- Title: shell_expansion_1_object Pages: 1 -->
<svg width="495pt" height="410pt"
 viewBox="72.00 72.00 423.00 338.00" xmlns="http://www.w3.org/2000/svg" xmlns:xlink="http://www.w3.org/1999/xlink">
<g id="graph0" class="graph" transform="scale(1 1) rotate(0) translate(76 334)">
<title>shell_expansion_1_object</title>
<polygon fill="white" stroke="transparent" points="-4,4 -4,-262 347,-262 347,4 -4,4"/>
<text text-anchor="start" x="8" y="-29" font-family="Monospace" font-size="10.00" fill="dimgray">Logtalk third&#45;party contributions</text>
<text text-anchor="start" x="8" y="-18" font-family="Monospace" font-size="10.00" fill="dimgray">Cross&#45;referencing diagram for object shell_expansion/1</text>
<text text-anchor="start" x="8" y="-7" font-family="Monospace" font-size="10.00" fill="dimgray">Generated on 2021&#45;12&#45;01, 17:07</text>
<g id="clust1" class="cluster">
<title>cluster_shell_expansion_1_object</title>
<g id="a_clust1"><a xlink:title="shell_expansion(_)">
<path fill="snow" stroke="dimgray" d="M20,-49C20,-49 323,-49 323,-49 329,-49 335,-55 335,-61 335,-61 335,-238 335,-238 335,-244 329,-250 323,-250 323,-250 20,-250 20,-250 14,-250 8,-244 8,-238 8,-238 8,-61 8,-61 8,-55 14,-49 20,-49"/>
<g id="a_clust1_0"><a xlink:href="https://github.com/LogtalkDotOrg/logtalk3/tree/80bca11e23513ba9dee0b90ea6273fe532329b3a/contributions/verdi_neruda/shell_expansion.lgt" xlink:title="https://github.com/LogtalkDotOrg/logtalk3/tree/80bca11e23513ba9dee0b90ea6273fe532329b3a/contributions/verdi_neruda/shell_expansion.lgt">
<text text-anchor="start" x="20.5" y="-233.5" font-family="Monospace" font-size="10.00" fill="dimgray">shell_expansion(_)</text>
</a>
</g>
</a>
</g>
</g>
<!-- goal_expansion/2 -->
<g id="node1" class="node">
<title>goal_expansion/2</title>
<g id="a_node1"><a xlink:href="https://github.com/LogtalkDotOrg/logtalk3/tree/80bca11e23513ba9dee0b90ea6273fe532329b3a/contributions/verdi_neruda/shell_expansion.lgt#L46" xlink:title="https://github.com/LogtalkDotOrg/logtalk3/tree/80bca11e23513ba9dee0b90ea6273fe532329b3a/contributions/verdi_neruda/shell_expansion.lgt#L46">
<polygon fill="cornsilk" stroke="black" points="318,-213 184,-213 184,-177 318,-177 318,-213"/>
<text text-anchor="start" x="192" y="-197.8" font-family="Monospace" font-size="9.00"> </text>
<text text-anchor="start" x="198" y="-197.2" font-family="Monospace" font-size="11.00">goal_expansion/2</text>
<text text-anchor="start" x="304" y="-197.8" font-family="Monospace" font-size="9.00"> </text>
<text text-anchor="start" x="192" y="-186.8" font-family="Monospace" font-size="9.00"> </text>
<text text-anchor="start" x="240" y="-187.4" font-family="Monospace" font-size="7.00">local</text>
<text text-anchor="start" x="304" y="-186.8" font-family="Monospace" font-size="9.00"> </text>
</a>
</g>
</g>
<!-- ^^goal_expansion/2 -->
<g id="node4" class="node">
<title>^^goal_expansion/2</title>
<polygon fill="beige" stroke="black" stroke-dasharray="5,2" points="324.5,-95 177.5,-95 177.5,-59 324.5,-59 324.5,-95"/>
<text text-anchor="start" x="186" y="-79.8" font-family="Monospace" font-size="9.00"> </text>
<text text-anchor="start" x="192" y="-79.2" font-family="Monospace" font-size="11.00">^^goal_expansion/2</text>
<text text-anchor="start" x="311" y="-79.8" font-family="Monospace" font-size="9.00"> </text>
<text text-anchor="start" x="186" y="-68.8" font-family="Monospace" font-size="9.00"> </text>
<text text-anchor="start" x="234.5" y="-69.4" font-family="Monospace" font-size="7.00">external</text>
<text text-anchor="start" x="311" y="-68.8" font-family="Monospace" font-size="9.00"> </text>
</g>
<!-- goal_expansion/2&#45;&gt;^^goal_expansion/2 -->
<g id="edge2" class="edge">
<title>goal_expansion/2&#45;&gt;^^goal_expansion/2</title>
<g id="a_edge2"><a xlink:href="https://github.com/LogtalkDotOrg/logtalk3/tree/80bca11e23513ba9dee0b90ea6273fe532329b3a/contributions/verdi_neruda/shell_expansion.lgt#L46" xlink:title="calls">
<path fill="none" stroke="black" d="M251,-176.88C251,-158.04 251,-127.47 251,-105.3"/>
<polygon fill="black" stroke="black" points="254.5,-105.19 251,-95.19 247.5,-105.19 254.5,-105.19"/>
</a>
</g>
<g id="a_edge2&#45;label"><a xlink:href="https://github.com/LogtalkDotOrg/logtalk3/tree/80bca11e23513ba9dee0b90ea6273fe532329b3a/contributions/verdi_neruda/shell_expansion.lgt#L46" xlink:title="https://github.com/LogtalkDotOrg/logtalk3/tree/80bca11e23513ba9dee0b90ea6273fe532329b3a/contributions/verdi_neruda/shell_expansion.lgt#L46">
<text text-anchor="start" x="251" y="-133.8" font-family="Monospace" font-size="9.00">calls</text>
</a>
</g>
</g>
<!-- term_expansion/2 -->
<g id="node2" class="node">
<title>term_expansion/2</title>
<g id="a_node2"><a xlink:href="https://github.com/LogtalkDotOrg/logtalk3/tree/80bca11e23513ba9dee0b90ea6273fe532329b3a/contributions/verdi_neruda/shell_expansion.lgt#L49" xlink:title="https://github.com/LogtalkDotOrg/logtalk3/tree/80bca11e23513ba9dee0b90ea6273fe532329b3a/contributions/verdi_neruda/shell_expansion.lgt#L49">
<polygon fill="cornsilk" stroke="black" points="156,-213 22,-213 22,-177 156,-177 156,-213"/>
<text text-anchor="start" x="30" y="-197.8" font-family="Monospace" font-size="9.00"> </text>
<text text-anchor="start" x="36" y="-197.2" font-family="Monospace" font-size="11.00">term_expansion/2</text>
<text text-anchor="start" x="142" y="-197.8" font-family="Monospace" font-size="9.00"> </text>
<text text-anchor="start" x="30" y="-186.8" font-family="Monospace" font-size="9.00"> </text>
<text text-anchor="start" x="78" y="-187.4" font-family="Monospace" font-size="7.00">local</text>
<text text-anchor="start" x="142" y="-186.8" font-family="Monospace" font-size="9.00"> </text>
</a>
</g>
</g>
<!-- ::flatten_goals/3 -->
<g id="node3" class="node">
<title>::flatten_goals/3</title>
<polygon fill="beige" stroke="black" stroke-dasharray="5,2" points="159.5,-95 18.5,-95 18.5,-59 159.5,-59 159.5,-95"/>
<text text-anchor="start" x="27" y="-79.8" font-family="Monospace" font-size="9.00"> </text>
<text text-anchor="start" x="33" y="-79.2" font-family="Monospace" font-size="11.00">::flatten_goals/3</text>
<text text-anchor="start" x="146" y="-79.8" font-family="Monospace" font-size="9.00"> </text>
<text text-anchor="start" x="27" y="-68.8" font-family="Monospace" font-size="9.00"> </text>
<text text-anchor="start" x="72.5" y="-69.4" font-family="Monospace" font-size="7.00">external</text>
<text text-anchor="start" x="146" y="-68.8" font-family="Monospace" font-size="9.00"> </text>
</g>
<!-- term_expansion/2&#45;&gt;::flatten_goals/3 -->
<g id="edge1" class="edge">
<title>term_expansion/2&#45;&gt;::flatten_goals/3</title>
<g id="a_edge1"><a xlink:href="https://github.com/LogtalkDotOrg/logtalk3/tree/80bca11e23513ba9dee0b90ea6273fe532329b3a/contributions/verdi_neruda/shell_expansion.lgt#L49" xlink:title="calls">
<path fill="none" stroke="black" d="M89,-176.88C89,-158.04 89,-127.47 89,-105.3"/>
<polygon fill="black" stroke="black" points="92.5,-105.19 89,-95.19 85.5,-105.19 92.5,-105.19"/>
</a>
</g>
<g id="a_edge1&#45;label"><a xlink:href="https://github.com/LogtalkDotOrg/logtalk3/tree/80bca11e23513ba9dee0b90ea6273fe532329b3a/contributions/verdi_neruda/shell_expansion.lgt#L49" xlink:title="https://github.com/LogtalkDotOrg/logtalk3/tree/80bca11e23513ba9dee0b90ea6273fe532329b3a/contributions/verdi_neruda/shell_expansion.lgt#L49">
<text text-anchor="start" x="89" y="-133.8" font-family="Monospace" font-size="9.00">calls</text>
</a>
</g>
</g>
</g>
</svg>
