<?xml version="1.0" encoding="UTF-8" standalone="no"?>
<!DOCTYPE svg PUBLIC "-//W3C//DTD SVG 1.1//EN"
 "http://www.w3.org/Graphics/SVG/1.1/DTD/svg11.dtd">
<!-- Generated by graphviz version 2.40.1 (20161225.0304)
 -->
<!-- Title: shell_object Pages: 1 -->
<svg width="500pt" height="535pt"
 viewBox="72.00 72.00 428.00 462.85" xmlns="http://www.w3.org/2000/svg" xmlns:xlink="http://www.w3.org/1999/xlink">
<g id="graph0" class="graph" transform="scale(1 1) rotate(0) translate(76 458.8528)">
<title>shell_object</title>
<polygon fill="#ffffff" stroke="transparent" points="-4,4 -4,-386.8528 352,-386.8528 352,4 -4,4"/>
<text text-anchor="start" x="8" y="-29" font-family="Courier,monospace" font-size="10.00" fill="#8b8989">Logtalk third&#45;party contributions</text>
<text text-anchor="start" x="8" y="-18" font-family="Courier,monospace" font-size="10.00" fill="#8b8989">Cross&#45;referencing diagram</text>
<text text-anchor="start" x="8" y="-7" font-family="Courier,monospace" font-size="10.00" fill="#8b8989">Generated on 2019/04/17, 17:54</text>
<g id="clust1" class="cluster">
<title>cluster_shell_object</title>
<g id="a_clust1"><a xlink:href="https://github.com/LogtalkDotOrg/logtalk3/tree/master/contributions/verdi_neruda/shell.lgt" xlink:title="https://github.com/LogtalkDotOrg/logtalk3/tree/master/contributions/verdi_neruda/shell.lgt">
<path fill="#fffafa" stroke="#8b8989" d="M20,-49C20,-49 328,-49 328,-49 334,-49 340,-55 340,-61 340,-61 340,-362.8528 340,-362.8528 340,-368.8528 334,-374.8528 328,-374.8528 328,-374.8528 20,-374.8528 20,-374.8528 14,-374.8528 8,-368.8528 8,-362.8528 8,-362.8528 8,-61 8,-61 8,-55 14,-49 20,-49"/>
<text text-anchor="middle" x="31.5" y="-362.8528" font-family="Courier,monospace" font-size="10.00" fill="#8b8989">shell</text>
</a>
</g>
</g>
<g id="clust2" class="cluster">
<title>cluster_other</title>
<g id="a_clust2"><a xlink:title="(external predicates)">
<path fill="#ffffff" stroke="#8b8989" d="M30,-59C30,-59 318,-59 318,-59 324,-59 330,-65 330,-71 330,-71 330,-128.4264 330,-128.4264 330,-134.4264 324,-140.4264 318,-140.4264 318,-140.4264 30,-140.4264 30,-140.4264 24,-140.4264 18,-134.4264 18,-128.4264 18,-128.4264 18,-71 18,-71 18,-65 24,-59 30,-59"/>
<text text-anchor="middle" x="89.5" y="-128.4264" font-family="Courier,monospace" font-size="10.00" fill="#8b8989">(external predicates)</text>
</a>
</g>
</g>
<!-- welcome/0 -->
<g id="node1" class="node">
<title>welcome/0</title>
<g id="a_node1"><a xlink:href="https://github.com/LogtalkDotOrg/logtalk3/tree/master/contributions/verdi_neruda/shell.lgt#L308" xlink:title="https://github.com/LogtalkDotOrg/logtalk3/tree/master/contributions/verdi_neruda/shell.lgt#L308">
<ellipse fill="#00ff7f" stroke="#000000" cx="268" cy="-324.6396" rx="62.4516" ry="21.4286"/>
<text text-anchor="start" x="232" y="-327.4396" font-family="Courier,monospace" font-size="9.00" fill="#000000"> </text>
<text text-anchor="start" x="238" y="-326.8396" font-family="Courier,monospace" font-size="11.00" fill="#000000">welcome/0</text>
<text text-anchor="start" x="298" y="-327.4396" font-family="Courier,monospace" font-size="9.00" fill="#000000"> </text>
<text text-anchor="start" x="232" y="-316.4396" font-family="Courier,monospace" font-size="9.00" fill="#000000"> </text>
<text text-anchor="start" x="255" y="-317.0396" font-family="Courier,monospace" font-size="7.00" fill="#000000">public</text>
<text text-anchor="start" x="298" y="-316.4396" font-family="Courier,monospace" font-size="9.00" fill="#000000"> </text>
</a>
</g>
</g>
<!-- start/0 -->
<g id="node2" class="node">
<title>start/0</title>
<g id="a_node2"><a xlink:href="https://github.com/LogtalkDotOrg/logtalk3/tree/master/contributions/verdi_neruda/shell.lgt#L320" xlink:title="https://github.com/LogtalkDotOrg/logtalk3/tree/master/contributions/verdi_neruda/shell.lgt#L320">
<ellipse fill="#00ff7f" stroke="#000000" cx="135" cy="-324.6396" rx="53.066" ry="21.4286"/>
<text text-anchor="start" x="106" y="-327.4396" font-family="Courier,monospace" font-size="9.00" fill="#000000"> </text>
<text text-anchor="start" x="112" y="-326.8396" font-family="Courier,monospace" font-size="11.00" fill="#000000">start/0</text>
<text text-anchor="start" x="159" y="-327.4396" font-family="Courier,monospace" font-size="9.00" fill="#000000"> </text>
<text text-anchor="start" x="106" y="-316.4396" font-family="Courier,monospace" font-size="9.00" fill="#000000"> </text>
<text text-anchor="start" x="122.5" y="-317.0396" font-family="Courier,monospace" font-size="7.00" fill="#000000">public</text>
<text text-anchor="start" x="159" y="-316.4396" font-family="Courier,monospace" font-size="9.00" fill="#000000"> </text>
</a>
</g>
</g>
<!-- shell(Interpreters)::init/0 -->
<g id="node3" class="node">
<title>shell(Interpreters)::init/0</title>
<g id="a_node3"><a xlink:href="https://logtalk.org/library/shell_1.html#init/0" xlink:title="https://logtalk.org/library/shell_1.html#init/0">
<ellipse fill="#d3d3d3" stroke="#000000" stroke-dasharray="5,2" cx="174" cy="-90.2132" rx="146.2423" ry="21.4286"/>
<text text-anchor="start" x="79" y="-93.0132" font-family="Courier,monospace" font-size="9.00" fill="#000000"> </text>
<text text-anchor="start" x="85" y="-92.4132" font-family="Courier,monospace" font-size="11.00" fill="#000000">shell(Interpreters)::init/0</text>
<text text-anchor="start" x="264" y="-93.0132" font-family="Courier,monospace" font-size="9.00" fill="#000000"> </text>
<text text-anchor="start" x="79" y="-82.0132" font-family="Courier,monospace" font-size="9.00" fill="#000000"> </text>
<text text-anchor="start" x="157.5" y="-82.6132" font-family="Courier,monospace" font-size="7.00" fill="#000000">external</text>
<text text-anchor="start" x="264" y="-82.0132" font-family="Courier,monospace" font-size="9.00" fill="#000000"> </text>
</a>
</g>
</g>
<!-- start/0&#45;&gt;shell(Interpreters)::init/0 -->
<g id="edge1" class="edge">
<title>start/0&#45;&gt;shell(Interpreters)::init/0</title>
<g id="a_edge1"><a xlink:href="https://github.com/LogtalkDotOrg/logtalk3/tree/master/contributions/verdi_neruda/shell.lgt#L322" xlink:title="calls">
<path fill="none" stroke="#000000" d="M138.5298,-303.4224C145.3286,-262.5549 160.2875,-172.638 168.4387,-123.642"/>
<polygon fill="#000000" stroke="#000000" points="168.4807,-123.3887 165.5196,-116.8136 170.4501,-111.5514 168.4807,-123.3887"/>
</a>
</g>
<g id="a_edge1&#45;label"><a xlink:href="https://github.com/LogtalkDotOrg/logtalk3/tree/master/contributions/verdi_neruda/shell.lgt#L322" xlink:title="https://github.com/LogtalkDotOrg/logtalk3/tree/master/contributions/verdi_neruda/shell.lgt#L322">
<text text-anchor="start" x="155" y="-205.2264" font-family="Courier,monospace" font-size="9.00" fill="#000000">calls</text>
</a>
</g>
</g>
</g>
</svg>
