<?xml version="1.0" encoding="UTF-8" standalone="no"?>
<?xml-stylesheet href="diagrams.css" type="text/css"?>
<!DOCTYPE svg PUBLIC "-//W3C//DTD SVG 1.1//EN"
 "http://www.w3.org/Graphics/SVG/1.1/DTD/svg11.dtd">
<!-- Generated by graphviz version 2.49.3 (20211023.0002)
 -->
<!-- Title: shell_object Pages: 1 -->
<svg width="421pt" height="410pt"
 viewBox="72.00 72.00 349.00 338.00" xmlns="http://www.w3.org/2000/svg" xmlns:xlink="http://www.w3.org/1999/xlink">
<g id="graph0" class="graph" transform="scale(1 1) rotate(0) translate(76 334)">
<title>shell_object</title>
<polygon fill="white" stroke="transparent" points="-4,4 -4,-262 273,-262 273,4 -4,4"/>
<text text-anchor="start" x="8" y="-29" font-family="Monospace" font-size="10.00" fill="dimgray">Logtalk third&#45;party contributions</text>
<text text-anchor="start" x="8" y="-18" font-family="Monospace" font-size="10.00" fill="dimgray">Cross&#45;referencing diagram for object shell</text>
<text text-anchor="start" x="8" y="-7" font-family="Monospace" font-size="10.00" fill="dimgray">Generated on 2021&#45;12&#45;21, 15:00</text>
<g id="clust1" class="cluster">
<title>cluster_shell_object</title>
<g id="a_clust1"><a xlink:title="shell">
<path fill="snow" stroke="dimgray" d="M32.5,-49C32.5,-49 236.5,-49 236.5,-49 242.5,-49 248.5,-55 248.5,-61 248.5,-61 248.5,-238 248.5,-238 248.5,-244 242.5,-250 236.5,-250 236.5,-250 32.5,-250 32.5,-250 26.5,-250 20.5,-244 20.5,-238 20.5,-238 20.5,-61 20.5,-61 20.5,-55 26.5,-49 32.5,-49"/>
<g id="a_clust1_0"><a xlink:href="https://github.com/LogtalkDotOrg/logtalk3/tree/9d07e3d575390d1530dd3f91fe06a9d7b16728c5/contributions/verdi_neruda/shell.lgt" xlink:title="https://github.com/LogtalkDotOrg/logtalk3/tree/9d07e3d575390d1530dd3f91fe06a9d7b16728c5/contributions/verdi_neruda/shell.lgt">
<text text-anchor="start" x="33" y="-233.5" font-family="Monospace" font-size="10.00" fill="dimgray">shell</text>
</a>
</g>
</a>
</g>
</g>
<!-- welcome/0 -->
<g id="node1" class="node">
<title>welcome/0</title>
<g id="a_node1"><a xlink:href="https://github.com/LogtalkDotOrg/logtalk3/tree/9d07e3d575390d1530dd3f91fe06a9d7b16728c5/contributions/verdi_neruda/shell.lgt#L341" xlink:title="https://github.com/LogtalkDotOrg/logtalk3/tree/9d07e3d575390d1530dd3f91fe06a9d7b16728c5/contributions/verdi_neruda/shell.lgt#L341">
<polygon fill="springgreen" stroke="black" points="238.5,-213 150.5,-213 150.5,-177 238.5,-177 238.5,-213"/>
<text text-anchor="start" x="158.5" y="-197.8" font-family="Monospace" font-size="9.00"> </text>
<text text-anchor="start" x="164.5" y="-197.2" font-family="Monospace" font-size="11.00">welcome/0</text>
<text text-anchor="start" x="224.5" y="-197.8" font-family="Monospace" font-size="9.00"> </text>
<text text-anchor="start" x="158.5" y="-186.8" font-family="Monospace" font-size="9.00"> </text>
<text text-anchor="start" x="181.5" y="-187.4" font-family="Monospace" font-size="7.00">public</text>
<text text-anchor="start" x="224.5" y="-186.8" font-family="Monospace" font-size="9.00"> </text>
</a>
</g>
</g>
<!-- start/0 -->
<g id="node2" class="node">
<title>start/0</title>
<g id="a_node2"><a xlink:href="https://github.com/LogtalkDotOrg/logtalk3/tree/9d07e3d575390d1530dd3f91fe06a9d7b16728c5/contributions/verdi_neruda/shell.lgt#L353" xlink:title="https://github.com/LogtalkDotOrg/logtalk3/tree/9d07e3d575390d1530dd3f91fe06a9d7b16728c5/contributions/verdi_neruda/shell.lgt#L353">
<polygon fill="springgreen" stroke="black" points="132,-213 57,-213 57,-177 132,-177 132,-213"/>
<text text-anchor="start" x="65.5" y="-197.8" font-family="Monospace" font-size="9.00"> </text>
<text text-anchor="start" x="71.5" y="-197.2" font-family="Monospace" font-size="11.00">start/0</text>
<text text-anchor="start" x="118.5" y="-197.8" font-family="Monospace" font-size="9.00"> </text>
<text text-anchor="start" x="65.5" y="-186.8" font-family="Monospace" font-size="9.00"> </text>
<text text-anchor="start" x="82" y="-187.4" font-family="Monospace" font-size="7.00">public</text>
<text text-anchor="start" x="118.5" y="-186.8" font-family="Monospace" font-size="9.00"> </text>
</a>
</g>
</g>
<!-- shell(Interpreters)::init/0 -->
<g id="node3" class="node">
<title>shell(Interpreters)::init/0</title>
<g id="a_node3"><a xlink:href="https://logtalk.org/library/shell_1.html#init/0" xlink:title="https://logtalk.org/library/shell_1.html#init/0">
<polygon fill="beige" stroke="black" stroke-dasharray="5,2" points="238,-95 31,-95 31,-59 238,-59 238,-95"/>
<text text-anchor="start" x="39.5" y="-79.8" font-family="Monospace" font-size="9.00"> </text>
<text text-anchor="start" x="45.5" y="-79.2" font-family="Monospace" font-size="11.00">shell(Interpreters)::init/0</text>
<text text-anchor="start" x="224.5" y="-79.8" font-family="Monospace" font-size="9.00"> </text>
<text text-anchor="start" x="39.5" y="-68.8" font-family="Monospace" font-size="9.00"> </text>
<text text-anchor="start" x="118" y="-69.4" font-family="Monospace" font-size="7.00">external</text>
<text text-anchor="start" x="224.5" y="-68.8" font-family="Monospace" font-size="9.00"> </text>
</a>
</g>
</g>
<!-- start/0&#45;&gt;shell(Interpreters)::init/0 -->
<g id="edge1" class="edge">
<title>start/0&#45;&gt;shell(Interpreters)::init/0</title>
<g id="a_edge1"><a xlink:href="https://github.com/LogtalkDotOrg/logtalk3/tree/9d07e3d575390d1530dd3f91fe06a9d7b16728c5/contributions/verdi_neruda/shell.lgt#L355" xlink:title="calls">
<path fill="none" stroke="black" d="M100.4,-176.88C106.96,-157.86 117.63,-126.91 125.29,-104.7"/>
<polygon fill="black" stroke="black" points="128.62,-105.78 128.57,-95.19 122,-103.5 128.62,-105.78"/>
</a>
</g>
<g id="a_edge1&#45;label"><a xlink:href="https://github.com/LogtalkDotOrg/logtalk3/tree/9d07e3d575390d1530dd3f91fe06a9d7b16728c5/contributions/verdi_neruda/shell.lgt#L355" xlink:title="https://github.com/LogtalkDotOrg/logtalk3/tree/9d07e3d575390d1530dd3f91fe06a9d7b16728c5/contributions/verdi_neruda/shell.lgt#L355">
<text text-anchor="start" x="115.5" y="-133.8" font-family="Monospace" font-size="9.00">calls</text>
</a>
</g>
</g>
</g>
</svg>
