<?xml version="1.0" encoding="UTF-8" standalone="no"?>
<?xml-stylesheet href="diagrams.css" type="text/css"?>
<!DOCTYPE svg PUBLIC "-//W3C//DTD SVG 1.1//EN"
 "http://www.w3.org/Graphics/SVG/1.1/DTD/svg11.dtd">
<!-- Generated by graphviz version 12.1.2 (20240928.0832)
 -->
<!-- Title: shell_object Pages: 1 -->
<svg width="420pt" height="418pt"
 viewBox="72.00 72.00 348.00 346.25" xmlns="http://www.w3.org/2000/svg" xmlns:xlink="http://www.w3.org/1999/xlink">
<g id="graph0" class="graph" transform="scale(1 1) rotate(0) translate(76 342.25)">
<title>shell_object</title>
<polygon fill="white" stroke="none" points="-4,4 -4,-270.25 272,-270.25 272,4 -4,4"/>
<text text-anchor="start" x="8" y="-32.75" font-family="Monospace" font-size="10.00" fill="dimgray">Logtalk third&#45;party contributions</text>
<text text-anchor="start" x="8" y="-20" font-family="Monospace" font-size="10.00" fill="dimgray">Cross&#45;referencing diagram for object shell</text>
<text text-anchor="start" x="8" y="-7.25" font-family="Monospace" font-size="10.00" fill="dimgray">Generated on 2024&#45;10&#45;06, 15:54</text>
<g id="clust1" class="cluster">
<title>cluster_shell_object</title>
<g id="a_clust1"><a xlink:title="shell">
<path fill="snow" stroke="dimgray" d="M32,-54.25C32,-54.25 236,-54.25 236,-54.25 242,-54.25 248,-60.25 248,-66.25 248,-66.25 248,-246.25 248,-246.25 248,-252.25 242,-258.25 236,-258.25 236,-258.25 32,-258.25 32,-258.25 26,-258.25 20,-252.25 20,-246.25 20,-246.25 20,-66.25 20,-66.25 20,-60.25 26,-54.25 32,-54.25"/>
<g id="a_clust1_0"><a xlink:href="https://github.com/LogtalkDotOrg/logtalk3/tree/88284176e92bf749d5b58201fdc1696818d0f217/contributions/verdi_neruda/shell.lgt" xlink:title="https://github.com/LogtalkDotOrg/logtalk3/tree/88284176e92bf749d5b58201fdc1696818d0f217/contributions/verdi_neruda/shell.lgt">
<text text-anchor="start" x="32" y="-240.75" font-family="Monospace" font-size="10.00" fill="dimgray">shell</text>
</a>
</g>
</a>
</g>
</g>
<!-- welcome/0 -->
<g id="node1" class="node">
<title>welcome/0</title>
<g id="a_node1"><a xlink:href="https://github.com/LogtalkDotOrg/logtalk3/tree/88284176e92bf749d5b58201fdc1696818d0f217/contributions/verdi_neruda/shell.lgt#L346" xlink:title="https://github.com/LogtalkDotOrg/logtalk3/tree/88284176e92bf749d5b58201fdc1696818d0f217/contributions/verdi_neruda/shell.lgt#L346">
<polygon fill="springgreen" stroke="black" points="116,-219.5 30,-219.5 30,-183.5 116,-183.5 116,-219.5"/>
<text text-anchor="start" x="37.88" y="-204.07" font-family="Monospace" font-size="9.00"> </text>
<text text-anchor="start" x="42.62" y="-203.05" font-family="Monospace" font-size="11.00">welcome/0</text>
<text text-anchor="start" x="102.88" y="-204.07" font-family="Monospace" font-size="9.00"> </text>
<text text-anchor="start" x="37.88" y="-191.95" font-family="Monospace" font-size="9.00"> </text>
<text text-anchor="start" x="59.5" y="-192.85" font-family="Monospace" font-size="7.00">public</text>
<text text-anchor="start" x="102.88" y="-191.95" font-family="Monospace" font-size="9.00"> </text>
</a>
</g>
</g>
<!-- start/0 -->
<g id="node2" class="node">
<title>start/0</title>
<g id="a_node2"><a xlink:href="https://github.com/LogtalkDotOrg/logtalk3/tree/88284176e92bf749d5b58201fdc1696818d0f217/contributions/verdi_neruda/shell.lgt#L358" xlink:title="https://github.com/LogtalkDotOrg/logtalk3/tree/88284176e92bf749d5b58201fdc1696818d0f217/contributions/verdi_neruda/shell.lgt#L358">
<polygon fill="springgreen" stroke="black" points="207.5,-219.5 134.5,-219.5 134.5,-183.5 207.5,-183.5 207.5,-219.5"/>
<text text-anchor="start" x="142.38" y="-204.07" font-family="Monospace" font-size="9.00"> </text>
<text text-anchor="start" x="147.38" y="-203.05" font-family="Monospace" font-size="11.00">start/0</text>
<text text-anchor="start" x="194.38" y="-204.07" font-family="Monospace" font-size="9.00"> </text>
<text text-anchor="start" x="142.38" y="-191.95" font-family="Monospace" font-size="9.00"> </text>
<text text-anchor="start" x="157.5" y="-192.85" font-family="Monospace" font-size="7.00">public</text>
<text text-anchor="start" x="194.38" y="-191.95" font-family="Monospace" font-size="9.00"> </text>
</a>
</g>
</g>
<!-- shell(Interpreters)::init/0 -->
<g id="node3" class="node">
<title>shell(Interpreters)::init/0</title>
<g id="a_node3"><a xlink:href="https://logtalk.org/library/shell_1.html#init-0" xlink:title="https://logtalk.org/library/shell_1.html#init&#45;0">
<polygon fill="beige" stroke="black" stroke-dasharray="5,2" points="238,-100.25 30,-100.25 30,-64.25 238,-64.25 238,-100.25"/>
<text text-anchor="start" x="37.88" y="-84.83" font-family="Monospace" font-size="9.00"> </text>
<text text-anchor="start" x="42.88" y="-83.8" font-family="Monospace" font-size="11.00">shell(Interpreters)::init/0</text>
<text text-anchor="start" x="224.88" y="-84.83" font-family="Monospace" font-size="9.00"> </text>
<text text-anchor="start" x="37.88" y="-72.7" font-family="Monospace" font-size="9.00"> </text>
<text text-anchor="start" x="116" y="-73.6" font-family="Monospace" font-size="7.00">external</text>
<text text-anchor="start" x="224.88" y="-72.7" font-family="Monospace" font-size="9.00"> </text>
</a>
</g>
</g>
<!-- start/0&#45;&gt;shell(Interpreters)::init/0 -->
<g id="edge1" class="edge">
<title>start/0&#45;&gt;shell(Interpreters)::init/0</title>
<g id="a_edge1"><a xlink:href="https://github.com/LogtalkDotOrg/logtalk3/tree/88284176e92bf749d5b58201fdc1696818d0f217/contributions/verdi_neruda/shell.lgt#L360" xlink:title="calls">
<path fill="none" stroke="black" d="M165.54,-183.2C159.58,-164.32 149.96,-133.81 142.9,-111.46"/>
<polygon fill="black" stroke="black" points="146.28,-110.55 139.94,-102.07 139.61,-112.65 146.28,-110.55"/>
</a>
</g>
<g id="a_edge1&#45;label"><a xlink:href="https://github.com/LogtalkDotOrg/logtalk3/tree/88284176e92bf749d5b58201fdc1696818d0f217/contributions/verdi_neruda/shell.lgt#L360" xlink:title="https://github.com/LogtalkDotOrg/logtalk3/tree/88284176e92bf749d5b58201fdc1696818d0f217/contributions/verdi_neruda/shell.lgt#L360">
<text text-anchor="start" x="153.61" y="-138.95" font-family="Monospace" font-size="9.00">calls</text>
</a>
</g>
</g>
</g>
</svg>
