<?xml version="1.0" encoding="UTF-8" standalone="no"?>
<!DOCTYPE svg PUBLIC "-//W3C//DTD SVG 1.1//EN"
 "http://www.w3.org/Graphics/SVG/1.1/DTD/svg11.dtd">
<!-- Generated by graphviz version 2.40.1 (20161225.0304)
 -->
<!-- Title: shell_object Pages: 1 -->
<svg width="456pt" height="517pt"
 viewBox="72.00 72.00 384.00 445.43" xmlns="http://www.w3.org/2000/svg" xmlns:xlink="http://www.w3.org/1999/xlink">
<g id="graph0" class="graph" transform="scale(1 1) rotate(0) translate(76 441.4264)">
<title>shell_object</title>
<polygon fill="#ffffff" stroke="transparent" points="-4,4 -4,-369.4264 308,-369.4264 308,4 -4,4"/>
<text text-anchor="start" x="8" y="-18" font-family="Courier,monospace" font-size="10.00" fill="#8b8989">Logtalk third&#45;party contributions</text>
<text text-anchor="start" x="8" y="-7" font-family="Courier,monospace" font-size="10.00" fill="#8b8989">Generated on 2019/04/12, 21:31</text>
<g id="clust1" class="cluster">
<title>cluster_shell_object</title>
<g id="a_clust1"><a xlink:href="https://github.com/LogtalkDotOrg/logtalk3/tree/master/contributions/verdi_neruda/shell.lgt" xlink:title="https://github.com/LogtalkDotOrg/logtalk3/tree/master/contributions/verdi_neruda/shell.lgt">
<path fill="#fffafa" stroke="#8b8989" d="M20,-38C20,-38 284,-38 284,-38 290,-38 296,-44 296,-50 296,-50 296,-345.4264 296,-345.4264 296,-351.4264 290,-357.4264 284,-357.4264 284,-357.4264 20,-357.4264 20,-357.4264 14,-357.4264 8,-351.4264 8,-345.4264 8,-345.4264 8,-50 8,-50 8,-44 14,-38 20,-38"/>
<text text-anchor="middle" x="31.5" y="-345.4264" font-family="Courier,monospace" font-size="10.00" fill="#8b8989">shell</text>
</a>
</g>
</g>
<g id="clust2" class="cluster">
<title>cluster_other</title>
<g id="a_clust2"><a xlink:title="(external predicates)">
<path fill="#ffffff" stroke="#8b8989" d="M30,-48C30,-48 274,-48 274,-48 280,-48 286,-54 286,-60 286,-60 286,-111 286,-111 286,-117 280,-123 274,-123 274,-123 30,-123 30,-123 24,-123 18,-117 18,-111 18,-111 18,-60 18,-60 18,-54 24,-48 30,-48"/>
<text text-anchor="middle" x="89.5" y="-111" font-family="Courier,monospace" font-size="10.00" fill="#8b8989">(external predicates)</text>
</a>
</g>
</g>
<!-- welcome/0 -->
<g id="node1" class="node">
<title>welcome/0</title>
<g id="a_node1"><a xlink:href="https://github.com/LogtalkDotOrg/logtalk3/tree/master/contributions/verdi_neruda/shell.lgt#L308" xlink:title="https://github.com/LogtalkDotOrg/logtalk3/tree/master/contributions/verdi_neruda/shell.lgt#L308">
<ellipse fill="#00ff7f" stroke="#000000" cx="224" cy="-307.2132" rx="62.4516" ry="21.4286"/>
<text text-anchor="start" x="188" y="-310.0132" font-family="Courier,monospace" font-size="9.00" fill="#000000"> </text>
<text text-anchor="start" x="194" y="-309.4132" font-family="Courier,monospace" font-size="11.00" fill="#000000">welcome/0</text>
<text text-anchor="start" x="254" y="-310.0132" font-family="Courier,monospace" font-size="9.00" fill="#000000"> </text>
<text text-anchor="start" x="188" y="-299.0132" font-family="Courier,monospace" font-size="9.00" fill="#000000"> </text>
<text text-anchor="start" x="211" y="-299.6132" font-family="Courier,monospace" font-size="7.00" fill="#000000">public</text>
<text text-anchor="start" x="254" y="-299.0132" font-family="Courier,monospace" font-size="9.00" fill="#000000"> </text>
</a>
</g>
</g>
<!-- start/0 -->
<g id="node2" class="node">
<title>start/0</title>
<g id="a_node2"><a xlink:href="https://github.com/LogtalkDotOrg/logtalk3/tree/master/contributions/verdi_neruda/shell.lgt#L320" xlink:title="https://github.com/LogtalkDotOrg/logtalk3/tree/master/contributions/verdi_neruda/shell.lgt#L320">
<ellipse fill="#00ff7f" stroke="#000000" cx="91" cy="-307.2132" rx="53.066" ry="21.4286"/>
<text text-anchor="start" x="62" y="-310.0132" font-family="Courier,monospace" font-size="9.00" fill="#000000"> </text>
<text text-anchor="start" x="68" y="-309.4132" font-family="Courier,monospace" font-size="11.00" fill="#000000">start/0</text>
<text text-anchor="start" x="115" y="-310.0132" font-family="Courier,monospace" font-size="9.00" fill="#000000"> </text>
<text text-anchor="start" x="62" y="-299.0132" font-family="Courier,monospace" font-size="9.00" fill="#000000"> </text>
<text text-anchor="start" x="78.5" y="-299.6132" font-family="Courier,monospace" font-size="7.00" fill="#000000">public</text>
<text text-anchor="start" x="115" y="-299.0132" font-family="Courier,monospace" font-size="9.00" fill="#000000"> </text>
</a>
</g>
</g>
<!-- shell(Interpreters)::init/0 -->
<g id="node3" class="node">
<title>shell(Interpreters)::init/0</title>
<ellipse fill="#d3d3d3" stroke="#000000" stroke-dasharray="5,2" cx="152" cy="-76" rx="124.4539" ry="18"/>
<text text-anchor="start" x="57" y="-73.8" font-family="Courier,monospace" font-size="9.00" fill="#000000"> </text>
<text text-anchor="start" x="63" y="-73.2" font-family="Courier,monospace" font-size="11.00" fill="#000000">shell(Interpreters)::init/0</text>
<text text-anchor="start" x="242" y="-73.8" font-family="Courier,monospace" font-size="9.00" fill="#000000"> </text>
</g>
<!-- start/0&#45;&gt;shell(Interpreters)::init/0 -->
<g id="edge1" class="edge">
<title>start/0&#45;&gt;shell(Interpreters)::init/0</title>
<g id="a_edge1"><a xlink:href="https://github.com/LogtalkDotOrg/logtalk3/tree/master/contributions/verdi_neruda/shell.lgt#L322" xlink:title="calls">
<path fill="none" stroke="#000000" d="M96.6294,-285.8757C107.5444,-244.5038 131.6081,-153.2931 144.1106,-105.9039"/>
<polygon fill="#000000" stroke="#000000" points="144.1776,-105.6496 141.8406,-98.8277 147.2388,-94.0466 144.1776,-105.6496"/>
</a>
</g>
<g id="a_edge1&#45;label"><a xlink:href="https://github.com/LogtalkDotOrg/logtalk3/tree/master/contributions/verdi_neruda/shell.lgt#L322" xlink:title="https://github.com/LogtalkDotOrg/logtalk3/tree/master/contributions/verdi_neruda/shell.lgt#L322">
<text text-anchor="start" x="122" y="-187.8" font-family="Courier,monospace" font-size="9.00" fill="#000000">calls</text>
</a>
</g>
</g>
</g>
</svg>
