<?xml version="1.0" encoding="UTF-8" standalone="no"?>
<?xml-stylesheet href="diagrams.css" type="text/css"?>
<!DOCTYPE svg PUBLIC "-//W3C//DTD SVG 1.1//EN"
 "http://www.w3.org/Graphics/SVG/1.1/DTD/svg11.dtd">
<!-- Generated by graphviz version 10.0.1 (20240210.2158)
 -->
<!-- Title: streamvars_object Pages: 1 -->
<svg width="493pt" height="293pt"
 viewBox="72.00 72.00 421.00 221.00" xmlns="http://www.w3.org/2000/svg" xmlns:xlink="http://www.w3.org/1999/xlink">
<g id="graph0" class="graph" transform="scale(1 1) rotate(0) translate(76 217)">
<title>streamvars_object</title>
<polygon fill="white" stroke="none" points="-4,4 -4,-145 345,-145 345,4 -4,4"/>
<text text-anchor="start" x="8" y="-28.25" font-family="Monospace" font-size="10.00" fill="dimgray">Logtalk library</text>
<text text-anchor="start" x="8" y="-17" font-family="Monospace" font-size="10.00" fill="dimgray">Cross&#45;referencing diagram for object streamvars</text>
<text text-anchor="start" x="8" y="-5.75" font-family="Monospace" font-size="10.00" fill="dimgray">Generated on 2024&#45;03&#45;08, 11:01</text>
<g id="clust1" class="cluster">
<title>cluster_streamvars_object</title>
<g id="a_clust1"><a xlink:title="streamvars">
<path fill="snow" stroke="dimgray" d="M20,-49.75C20,-49.75 321,-49.75 321,-49.75 327,-49.75 333,-55.75 333,-61.75 333,-61.75 333,-121 333,-121 333,-127 327,-133 321,-133 321,-133 20,-133 20,-133 14,-133 8,-127 8,-121 8,-121 8,-61.75 8,-61.75 8,-55.75 14,-49.75 20,-49.75"/>
<g id="a_clust1_0"><a xlink:href="https://github.com/LogtalkDotOrg/logtalk3/tree/d89c3fdb47974224747f1d3f8b41e2f3b4c5151f/library/streamvars.lgt" xlink:title="https://github.com/LogtalkDotOrg/logtalk3/tree/d89c3fdb47974224747f1d3f8b41e2f3b4c5151f/library/streamvars.lgt">
<text text-anchor="start" x="20" y="-115.5" font-family="Monospace" font-size="10.00" fill="dimgray">streamvars</text>
</a>
</g>
</a>
</g>
</g>
<!-- new/1 -->
<g id="node1" class="node">
<title>new/1</title>
<g id="a_node1"><a xlink:href="https://github.com/LogtalkDotOrg/logtalk3/tree/d89c3fdb47974224747f1d3f8b41e2f3b4c5151f/library/streamvars.lgt#L20" xlink:title="https://github.com/LogtalkDotOrg/logtalk3/tree/d89c3fdb47974224747f1d3f8b41e2f3b4c5151f/library/streamvars.lgt#L20">
<polygon fill="springgreen" stroke="black" points="77.5,-95.75 18.5,-95.75 18.5,-59.75 77.5,-59.75 77.5,-95.75"/>
<text text-anchor="start" x="26.38" y="-78.58" font-family="Monospace" font-size="9.00"> </text>
<text text-anchor="start" x="31.12" y="-77.8" font-family="Monospace" font-size="11.00">new/1</text>
<text text-anchor="start" x="64.38" y="-78.58" font-family="Monospace" font-size="9.00"> </text>
<text text-anchor="start" x="26.38" y="-67.7" font-family="Monospace" font-size="9.00"> </text>
<text text-anchor="start" x="34.5" y="-69.22" font-family="Monospace" font-size="7.00">public</text>
<text text-anchor="start" x="64.38" y="-67.7" font-family="Monospace" font-size="9.00"> </text>
</a>
</g>
</g>
<!-- new/2 -->
<g id="node2" class="node">
<title>new/2</title>
<g id="a_node2"><a xlink:href="https://github.com/LogtalkDotOrg/logtalk3/tree/d89c3fdb47974224747f1d3f8b41e2f3b4c5151f/library/streamvars.lgt#L30" xlink:title="https://github.com/LogtalkDotOrg/logtalk3/tree/d89c3fdb47974224747f1d3f8b41e2f3b4c5151f/library/streamvars.lgt#L30">
<polygon fill="springgreen" stroke="black" points="154.5,-95.75 95.5,-95.75 95.5,-59.75 154.5,-59.75 154.5,-95.75"/>
<text text-anchor="start" x="103.38" y="-78.58" font-family="Monospace" font-size="9.00"> </text>
<text text-anchor="start" x="108.12" y="-77.8" font-family="Monospace" font-size="11.00">new/2</text>
<text text-anchor="start" x="141.38" y="-78.58" font-family="Monospace" font-size="9.00"> </text>
<text text-anchor="start" x="103.38" y="-67.7" font-family="Monospace" font-size="9.00"> </text>
<text text-anchor="start" x="111.5" y="-69.22" font-family="Monospace" font-size="7.00">public</text>
<text text-anchor="start" x="141.38" y="-67.7" font-family="Monospace" font-size="9.00"> </text>
</a>
</g>
</g>
<!-- (&lt;=)/2 -->
<g id="node3" class="node">
<title>(&lt;=)/2</title>
<g id="a_node3"><a xlink:href="https://github.com/LogtalkDotOrg/logtalk3/tree/d89c3fdb47974224747f1d3f8b41e2f3b4c5151f/library/streamvars.lgt#L40" xlink:title="https://github.com/LogtalkDotOrg/logtalk3/tree/d89c3fdb47974224747f1d3f8b41e2f3b4c5151f/library/streamvars.lgt#L40">
<polygon fill="springgreen" stroke="black" points="239,-95.75 173,-95.75 173,-59.75 239,-59.75 239,-95.75"/>
<text text-anchor="start" x="180.88" y="-78.58" font-family="Monospace" font-size="9.00"> </text>
<text text-anchor="start" x="185.75" y="-77.8" font-family="Monospace" font-size="11.00">(&lt;=)/2</text>
<text text-anchor="start" x="225.88" y="-78.58" font-family="Monospace" font-size="9.00"> </text>
<text text-anchor="start" x="180.88" y="-67.7" font-family="Monospace" font-size="9.00"> </text>
<text text-anchor="start" x="192.5" y="-69.22" font-family="Monospace" font-size="7.00">public</text>
<text text-anchor="start" x="225.88" y="-67.7" font-family="Monospace" font-size="9.00"> </text>
</a>
</g>
</g>
<!-- (=&gt;)/2 -->
<g id="node4" class="node">
<title>(=&gt;)/2</title>
<g id="a_node4"><a xlink:href="https://github.com/LogtalkDotOrg/logtalk3/tree/d89c3fdb47974224747f1d3f8b41e2f3b4c5151f/library/streamvars.lgt#L49" xlink:title="https://github.com/LogtalkDotOrg/logtalk3/tree/d89c3fdb47974224747f1d3f8b41e2f3b4c5151f/library/streamvars.lgt#L49">
<polygon fill="springgreen" stroke="black" points="323,-95.75 257,-95.75 257,-59.75 323,-59.75 323,-95.75"/>
<text text-anchor="start" x="264.88" y="-78.58" font-family="Monospace" font-size="9.00"> </text>
<text text-anchor="start" x="269.75" y="-77.8" font-family="Monospace" font-size="11.00">(=&gt;)/2</text>
<text text-anchor="start" x="309.88" y="-78.58" font-family="Monospace" font-size="9.00"> </text>
<text text-anchor="start" x="264.88" y="-67.7" font-family="Monospace" font-size="9.00"> </text>
<text text-anchor="start" x="276.5" y="-69.22" font-family="Monospace" font-size="7.00">public</text>
<text text-anchor="start" x="309.88" y="-67.7" font-family="Monospace" font-size="9.00"> </text>
</a>
</g>
</g>
</g>
</svg>
