<?xml version="1.0" encoding="UTF-8" standalone="no"?>
<?xml-stylesheet href="diagrams.css" type="text/css"?>
<!DOCTYPE svg PUBLIC "-//W3C//DTD SVG 1.1//EN"
 "http://www.w3.org/Graphics/SVG/1.1/DTD/svg11.dtd">
<!-- Generated by graphviz version 2.50.0 (20211204.2007)
 -->
<!-- Title: streamvars_object Pages: 1 -->
<svg width="505pt" height="292pt"
 viewBox="72.00 72.00 433.00 220.00" xmlns="http://www.w3.org/2000/svg" xmlns:xlink="http://www.w3.org/1999/xlink">
<g id="graph0" class="graph" transform="scale(1 1) rotate(0) translate(76 216)">
<title>streamvars_object</title>
<polygon fill="white" stroke="transparent" points="-4,4 -4,-144 357,-144 357,4 -4,4"/>
<text text-anchor="start" x="8" y="-29" font-family="Monospace" font-size="10.00" fill="dimgray">Logtalk library</text>
<text text-anchor="start" x="8" y="-18" font-family="Monospace" font-size="10.00" fill="dimgray">Cross&#45;referencing diagram for object streamvars</text>
<text text-anchor="start" x="8" y="-7" font-family="Monospace" font-size="10.00" fill="dimgray">Generated on 2022&#45;07&#45;26, 10:04</text>
<g id="clust1" class="cluster">
<title>cluster_streamvars_object</title>
<g id="a_clust1"><a xlink:title="streamvars">
<path fill="snow" stroke="dimgray" d="M20,-49C20,-49 333,-49 333,-49 339,-49 345,-55 345,-61 345,-61 345,-120 345,-120 345,-126 339,-132 333,-132 333,-132 20,-132 20,-132 14,-132 8,-126 8,-120 8,-120 8,-61 8,-61 8,-55 14,-49 20,-49"/>
<g id="a_clust1_0"><a xlink:href="https://github.com/LogtalkDotOrg/logtalk3/tree/acdba1a07958e342158c0405c12cf70a51a38164/library/streamvars.lgt" xlink:title="https://github.com/LogtalkDotOrg/logtalk3/tree/acdba1a07958e342158c0405c12cf70a51a38164/library/streamvars.lgt">
<text text-anchor="start" x="20.5" y="-115.5" font-family="Monospace" font-size="10.00" fill="dimgray">streamvars</text>
</a>
</g>
</a>
</g>
</g>
<!-- new/1 -->
<g id="node1" class="node">
<title>new/1</title>
<g id="a_node1"><a xlink:href="https://github.com/LogtalkDotOrg/logtalk3/tree/acdba1a07958e342158c0405c12cf70a51a38164/library/streamvars.lgt#L20" xlink:title="https://github.com/LogtalkDotOrg/logtalk3/tree/acdba1a07958e342158c0405c12cf70a51a38164/library/streamvars.lgt#L20">
<polygon fill="springgreen" stroke="black" points="335,-95 273,-95 273,-59 335,-59 335,-95"/>
<text text-anchor="start" x="281" y="-79.8" font-family="Monospace" font-size="9.00"> </text>
<text text-anchor="start" x="287" y="-79.2" font-family="Monospace" font-size="11.00">new/1</text>
<text text-anchor="start" x="321" y="-79.8" font-family="Monospace" font-size="9.00"> </text>
<text text-anchor="start" x="281" y="-68.8" font-family="Monospace" font-size="9.00"> </text>
<text text-anchor="start" x="290" y="-69.4" font-family="Monospace" font-size="7.00">public</text>
<text text-anchor="start" x="321" y="-68.8" font-family="Monospace" font-size="9.00"> </text>
</a>
</g>
</g>
<!-- new/2 -->
<g id="node2" class="node">
<title>new/2</title>
<g id="a_node2"><a xlink:href="https://github.com/LogtalkDotOrg/logtalk3/tree/acdba1a07958e342158c0405c12cf70a51a38164/library/streamvars.lgt#L30" xlink:title="https://github.com/LogtalkDotOrg/logtalk3/tree/acdba1a07958e342158c0405c12cf70a51a38164/library/streamvars.lgt#L30">
<polygon fill="springgreen" stroke="black" points="255,-95 193,-95 193,-59 255,-59 255,-95"/>
<text text-anchor="start" x="201" y="-79.8" font-family="Monospace" font-size="9.00"> </text>
<text text-anchor="start" x="207" y="-79.2" font-family="Monospace" font-size="11.00">new/2</text>
<text text-anchor="start" x="241" y="-79.8" font-family="Monospace" font-size="9.00"> </text>
<text text-anchor="start" x="201" y="-68.8" font-family="Monospace" font-size="9.00"> </text>
<text text-anchor="start" x="210" y="-69.4" font-family="Monospace" font-size="7.00">public</text>
<text text-anchor="start" x="241" y="-68.8" font-family="Monospace" font-size="9.00"> </text>
</a>
</g>
</g>
<!-- (&lt;=)/2 -->
<g id="node3" class="node">
<title>(&lt;=)/2</title>
<g id="a_node3"><a xlink:href="https://github.com/LogtalkDotOrg/logtalk3/tree/acdba1a07958e342158c0405c12cf70a51a38164/library/streamvars.lgt#L40" xlink:title="https://github.com/LogtalkDotOrg/logtalk3/tree/acdba1a07958e342158c0405c12cf70a51a38164/library/streamvars.lgt#L40">
<polygon fill="springgreen" stroke="black" points="174.5,-95 105.5,-95 105.5,-59 174.5,-59 174.5,-95"/>
<text text-anchor="start" x="114" y="-79.8" font-family="Monospace" font-size="9.00"> </text>
<text text-anchor="start" x="120" y="-79.2" font-family="Monospace" font-size="11.00">(&lt;=)/2</text>
<text text-anchor="start" x="161" y="-79.8" font-family="Monospace" font-size="9.00"> </text>
<text text-anchor="start" x="114" y="-68.8" font-family="Monospace" font-size="9.00"> </text>
<text text-anchor="start" x="126.5" y="-69.4" font-family="Monospace" font-size="7.00">public</text>
<text text-anchor="start" x="161" y="-68.8" font-family="Monospace" font-size="9.00"> </text>
</a>
</g>
</g>
<!-- (=&gt;)/2 -->
<g id="node4" class="node">
<title>(=&gt;)/2</title>
<g id="a_node4"><a xlink:href="https://github.com/LogtalkDotOrg/logtalk3/tree/acdba1a07958e342158c0405c12cf70a51a38164/library/streamvars.lgt#L49" xlink:title="https://github.com/LogtalkDotOrg/logtalk3/tree/acdba1a07958e342158c0405c12cf70a51a38164/library/streamvars.lgt#L49">
<polygon fill="springgreen" stroke="black" points="87.5,-95 18.5,-95 18.5,-59 87.5,-59 87.5,-95"/>
<text text-anchor="start" x="27" y="-79.8" font-family="Monospace" font-size="9.00"> </text>
<text text-anchor="start" x="33" y="-79.2" font-family="Monospace" font-size="11.00">(=&gt;)/2</text>
<text text-anchor="start" x="74" y="-79.8" font-family="Monospace" font-size="9.00"> </text>
<text text-anchor="start" x="27" y="-68.8" font-family="Monospace" font-size="9.00"> </text>
<text text-anchor="start" x="39.5" y="-69.4" font-family="Monospace" font-size="7.00">public</text>
<text text-anchor="start" x="74" y="-68.8" font-family="Monospace" font-size="9.00"> </text>
</a>
</g>
</g>
</g>
</svg>
