<?xml version="1.0" encoding="UTF-8" standalone="no"?>
<?xml-stylesheet href="diagrams.css" type="text/css"?>
<!DOCTYPE svg PUBLIC "-//W3C//DTD SVG 1.1//EN"
 "http://www.w3.org/Graphics/SVG/1.1/DTD/svg11.dtd">
<!-- Generated by graphviz version 2.49.3 (20211023.0002)
 -->
<!-- Title: streamvars_object Pages: 1 -->
<svg width="469pt" height="292pt"
 viewBox="72.00 72.00 397.00 220.00" xmlns="http://www.w3.org/2000/svg" xmlns:xlink="http://www.w3.org/1999/xlink">
<g id="graph0" class="graph" transform="scale(1 1) rotate(0) translate(76 216)">
<title>streamvars_object</title>
<polygon fill="white" stroke="transparent" points="-4,4 -4,-144 321,-144 321,4 -4,4"/>
<text text-anchor="start" x="8" y="-29" font-family="Courier,monospace" font-size="10.00" fill="dimgray">Logtalk library</text>
<text text-anchor="start" x="8" y="-18" font-family="Courier,monospace" font-size="10.00" fill="dimgray">Cross&#45;referencing diagram for object streamvars</text>
<text text-anchor="start" x="8" y="-7" font-family="Courier,monospace" font-size="10.00" fill="dimgray">Generated on 2021&#45;11&#45;02, 10:35</text>
<g id="clust1" class="cluster">
<title>cluster_streamvars_object</title>
<g id="a_clust1"><a xlink:title="streamvars">
<path fill="snow" stroke="dimgray" d="M20,-49C20,-49 297,-49 297,-49 303,-49 309,-55 309,-61 309,-61 309,-120 309,-120 309,-126 303,-132 297,-132 297,-132 20,-132 20,-132 14,-132 8,-126 8,-120 8,-120 8,-61 8,-61 8,-55 14,-49 20,-49"/>
<g id="a_clust1_0"><a xlink:href="https://github.com/LogtalkDotOrg/logtalk3/tree/cbba6d9f7efe0ecef480b6200bf5d3edd28fc400/library/streamvars.lgt" xlink:title="https://github.com/LogtalkDotOrg/logtalk3/tree/cbba6d9f7efe0ecef480b6200bf5d3edd28fc400/library/streamvars.lgt">
<text text-anchor="start" x="20" y="-115.5" font-family="Courier,monospace" font-size="10.00" fill="dimgray">streamvars</text>
</a>
</g>
</a>
</g>
</g>
<!-- new/1 -->
<g id="node1" class="node">
<title>new/1</title>
<g id="a_node1"><a xlink:href="https://github.com/LogtalkDotOrg/logtalk3/tree/cbba6d9f7efe0ecef480b6200bf5d3edd28fc400/library/streamvars.lgt#L20" xlink:title="https://github.com/LogtalkDotOrg/logtalk3/tree/cbba6d9f7efe0ecef480b6200bf5d3edd28fc400/library/streamvars.lgt#L20">
<polygon fill="springgreen" stroke="black" points="299,-95 245,-95 245,-59 299,-59 299,-95"/>
<text text-anchor="start" x="253" y="-79.8" font-family="Courier,monospace" font-size="9.00"> </text>
<text text-anchor="start" x="258" y="-79.2" font-family="Courier,monospace" font-size="11.00">new/1</text>
<text text-anchor="start" x="286" y="-79.8" font-family="Courier,monospace" font-size="9.00"> </text>
<text text-anchor="start" x="253" y="-68.8" font-family="Courier,monospace" font-size="9.00"> </text>
<text text-anchor="start" x="261.5" y="-69.4" font-family="Courier,monospace" font-size="7.00">public</text>
<text text-anchor="start" x="286" y="-68.8" font-family="Courier,monospace" font-size="9.00"> </text>
</a>
</g>
</g>
<!-- new/2 -->
<g id="node2" class="node">
<title>new/2</title>
<g id="a_node2"><a xlink:href="https://github.com/LogtalkDotOrg/logtalk3/tree/cbba6d9f7efe0ecef480b6200bf5d3edd28fc400/library/streamvars.lgt#L30" xlink:title="https://github.com/LogtalkDotOrg/logtalk3/tree/cbba6d9f7efe0ecef480b6200bf5d3edd28fc400/library/streamvars.lgt#L30">
<polygon fill="springgreen" stroke="black" points="227,-95 173,-95 173,-59 227,-59 227,-95"/>
<text text-anchor="start" x="181" y="-79.8" font-family="Courier,monospace" font-size="9.00"> </text>
<text text-anchor="start" x="186" y="-79.2" font-family="Courier,monospace" font-size="11.00">new/2</text>
<text text-anchor="start" x="214" y="-79.8" font-family="Courier,monospace" font-size="9.00"> </text>
<text text-anchor="start" x="181" y="-68.8" font-family="Courier,monospace" font-size="9.00"> </text>
<text text-anchor="start" x="189.5" y="-69.4" font-family="Courier,monospace" font-size="7.00">public</text>
<text text-anchor="start" x="214" y="-68.8" font-family="Courier,monospace" font-size="9.00"> </text>
</a>
</g>
</g>
<!-- (&lt;=)/2 -->
<g id="node3" class="node">
<title>(&lt;=)/2</title>
<g id="a_node3"><a xlink:href="https://github.com/LogtalkDotOrg/logtalk3/tree/cbba6d9f7efe0ecef480b6200bf5d3edd28fc400/library/streamvars.lgt#L40" xlink:title="https://github.com/LogtalkDotOrg/logtalk3/tree/cbba6d9f7efe0ecef480b6200bf5d3edd28fc400/library/streamvars.lgt#L40">
<polygon fill="springgreen" stroke="black" points="154.5,-95 95.5,-95 95.5,-59 154.5,-59 154.5,-95"/>
<text text-anchor="start" x="104" y="-79.8" font-family="Courier,monospace" font-size="9.00"> </text>
<text text-anchor="start" x="109" y="-79.2" font-family="Courier,monospace" font-size="11.00">(&lt;=)/2</text>
<text text-anchor="start" x="142" y="-79.8" font-family="Courier,monospace" font-size="9.00"> </text>
<text text-anchor="start" x="104" y="-68.8" font-family="Courier,monospace" font-size="9.00"> </text>
<text text-anchor="start" x="115" y="-69.4" font-family="Courier,monospace" font-size="7.00">public</text>
<text text-anchor="start" x="142" y="-68.8" font-family="Courier,monospace" font-size="9.00"> </text>
</a>
</g>
</g>
<!-- (=&gt;)/2 -->
<g id="node4" class="node">
<title>(=&gt;)/2</title>
<g id="a_node4"><a xlink:href="https://github.com/LogtalkDotOrg/logtalk3/tree/cbba6d9f7efe0ecef480b6200bf5d3edd28fc400/library/streamvars.lgt#L49" xlink:title="https://github.com/LogtalkDotOrg/logtalk3/tree/cbba6d9f7efe0ecef480b6200bf5d3edd28fc400/library/streamvars.lgt#L49">
<polygon fill="springgreen" stroke="black" points="77.5,-95 18.5,-95 18.5,-59 77.5,-59 77.5,-95"/>
<text text-anchor="start" x="27" y="-79.8" font-family="Courier,monospace" font-size="9.00"> </text>
<text text-anchor="start" x="32" y="-79.2" font-family="Courier,monospace" font-size="11.00">(=&gt;)/2</text>
<text text-anchor="start" x="65" y="-79.8" font-family="Courier,monospace" font-size="9.00"> </text>
<text text-anchor="start" x="27" y="-68.8" font-family="Courier,monospace" font-size="9.00"> </text>
<text text-anchor="start" x="38" y="-69.4" font-family="Courier,monospace" font-size="7.00">public</text>
<text text-anchor="start" x="65" y="-68.8" font-family="Courier,monospace" font-size="9.00"> </text>
</a>
</g>
</g>
</g>
</svg>
