<?xml version="1.0" encoding="UTF-8" standalone="no"?>
<?xml-stylesheet href="diagrams.css" type="text/css"?>
<!DOCTYPE svg PUBLIC "-//W3C//DTD SVG 1.1//EN"
 "http://www.w3.org/Graphics/SVG/1.1/DTD/svg11.dtd">
<!-- Generated by graphviz version 2.49.3 (20211023.0002)
 -->
<!-- Title: streamvars_object Pages: 1 -->
<svg width="502pt" height="292pt"
 viewBox="72.00 72.00 430.00 220.00" xmlns="http://www.w3.org/2000/svg" xmlns:xlink="http://www.w3.org/1999/xlink">
<g id="graph0" class="graph" transform="scale(1 1) rotate(0) translate(76 216)">
<title>streamvars_object</title>
<polygon fill="white" stroke="transparent" points="-4,4 -4,-144 354,-144 354,4 -4,4"/>
<text text-anchor="start" x="8" y="-29" font-family="Monospace" font-size="10.00" fill="dimgray">Logtalk library</text>
<text text-anchor="start" x="8" y="-18" font-family="Monospace" font-size="10.00" fill="dimgray">Cross&#45;referencing diagram for object streamvars</text>
<text text-anchor="start" x="8" y="-7" font-family="Monospace" font-size="10.00" fill="dimgray">Generated on 2021&#45;12&#45;03, 12:45</text>
<g id="clust1" class="cluster">
<title>cluster_streamvars_object</title>
<g id="a_clust1"><a xlink:title="streamvars">
<path fill="snow" stroke="dimgray" d="M20,-49C20,-49 330,-49 330,-49 336,-49 342,-55 342,-61 342,-61 342,-120 342,-120 342,-126 336,-132 330,-132 330,-132 20,-132 20,-132 14,-132 8,-126 8,-120 8,-120 8,-61 8,-61 8,-55 14,-49 20,-49"/>
<g id="a_clust1_0"><a xlink:href="https://github.com/LogtalkDotOrg/logtalk3/tree/5b8b84ca3081b7661727563661eb8ff7c01e68fe/library/streamvars.lgt" xlink:title="https://github.com/LogtalkDotOrg/logtalk3/tree/5b8b84ca3081b7661727563661eb8ff7c01e68fe/library/streamvars.lgt">
<text text-anchor="start" x="20.5" y="-115.5" font-family="Monospace" font-size="10.00" fill="dimgray">streamvars</text>
</a>
</g>
</a>
</g>
</g>
<!-- new/1 -->
<g id="node1" class="node">
<title>new/1</title>
<g id="a_node1"><a xlink:href="https://github.com/LogtalkDotOrg/logtalk3/tree/5b8b84ca3081b7661727563661eb8ff7c01e68fe/library/streamvars.lgt#L20" xlink:title="https://github.com/LogtalkDotOrg/logtalk3/tree/5b8b84ca3081b7661727563661eb8ff7c01e68fe/library/streamvars.lgt#L20">
<polygon fill="springgreen" stroke="black" points="332,-95 270,-95 270,-59 332,-59 332,-95"/>
<text text-anchor="start" x="278" y="-79.8" font-family="Monospace" font-size="9.00"> </text>
<text text-anchor="start" x="284" y="-79.2" font-family="Monospace" font-size="11.00">new/1</text>
<text text-anchor="start" x="318" y="-79.8" font-family="Monospace" font-size="9.00"> </text>
<text text-anchor="start" x="278" y="-68.8" font-family="Monospace" font-size="9.00"> </text>
<text text-anchor="start" x="288" y="-69.4" font-family="Monospace" font-size="7.00">public</text>
<text text-anchor="start" x="318" y="-68.8" font-family="Monospace" font-size="9.00"> </text>
</a>
</g>
</g>
<!-- new/2 -->
<g id="node2" class="node">
<title>new/2</title>
<g id="a_node2"><a xlink:href="https://github.com/LogtalkDotOrg/logtalk3/tree/5b8b84ca3081b7661727563661eb8ff7c01e68fe/library/streamvars.lgt#L30" xlink:title="https://github.com/LogtalkDotOrg/logtalk3/tree/5b8b84ca3081b7661727563661eb8ff7c01e68fe/library/streamvars.lgt#L30">
<polygon fill="springgreen" stroke="black" points="252,-95 190,-95 190,-59 252,-59 252,-95"/>
<text text-anchor="start" x="198" y="-79.8" font-family="Monospace" font-size="9.00"> </text>
<text text-anchor="start" x="204" y="-79.2" font-family="Monospace" font-size="11.00">new/2</text>
<text text-anchor="start" x="238" y="-79.8" font-family="Monospace" font-size="9.00"> </text>
<text text-anchor="start" x="198" y="-68.8" font-family="Monospace" font-size="9.00"> </text>
<text text-anchor="start" x="208" y="-69.4" font-family="Monospace" font-size="7.00">public</text>
<text text-anchor="start" x="238" y="-68.8" font-family="Monospace" font-size="9.00"> </text>
</a>
</g>
</g>
<!-- (&lt;=)/2 -->
<g id="node3" class="node">
<title>(&lt;=)/2</title>
<g id="a_node3"><a xlink:href="https://github.com/LogtalkDotOrg/logtalk3/tree/5b8b84ca3081b7661727563661eb8ff7c01e68fe/library/streamvars.lgt#L40" xlink:title="https://github.com/LogtalkDotOrg/logtalk3/tree/5b8b84ca3081b7661727563661eb8ff7c01e68fe/library/streamvars.lgt#L40">
<polygon fill="springgreen" stroke="black" points="172,-95 104,-95 104,-59 172,-59 172,-95"/>
<text text-anchor="start" x="112" y="-79.8" font-family="Monospace" font-size="9.00"> </text>
<text text-anchor="start" x="118" y="-79.2" font-family="Monospace" font-size="11.00">(&lt;=)/2</text>
<text text-anchor="start" x="158" y="-79.8" font-family="Monospace" font-size="9.00"> </text>
<text text-anchor="start" x="112" y="-68.8" font-family="Monospace" font-size="9.00"> </text>
<text text-anchor="start" x="125" y="-69.4" font-family="Monospace" font-size="7.00">public</text>
<text text-anchor="start" x="158" y="-68.8" font-family="Monospace" font-size="9.00"> </text>
</a>
</g>
</g>
<!-- (=&gt;)/2 -->
<g id="node4" class="node">
<title>(=&gt;)/2</title>
<g id="a_node4"><a xlink:href="https://github.com/LogtalkDotOrg/logtalk3/tree/5b8b84ca3081b7661727563661eb8ff7c01e68fe/library/streamvars.lgt#L49" xlink:title="https://github.com/LogtalkDotOrg/logtalk3/tree/5b8b84ca3081b7661727563661eb8ff7c01e68fe/library/streamvars.lgt#L49">
<polygon fill="springgreen" stroke="black" points="86,-95 18,-95 18,-59 86,-59 86,-95"/>
<text text-anchor="start" x="26" y="-79.8" font-family="Monospace" font-size="9.00"> </text>
<text text-anchor="start" x="32" y="-79.2" font-family="Monospace" font-size="11.00">(=&gt;)/2</text>
<text text-anchor="start" x="72" y="-79.8" font-family="Monospace" font-size="9.00"> </text>
<text text-anchor="start" x="26" y="-68.8" font-family="Monospace" font-size="9.00"> </text>
<text text-anchor="start" x="39" y="-69.4" font-family="Monospace" font-size="7.00">public</text>
<text text-anchor="start" x="72" y="-68.8" font-family="Monospace" font-size="9.00"> </text>
</a>
</g>
</g>
</g>
</svg>
