<?xml version="1.0" encoding="UTF-8" standalone="no"?>
<?xml-stylesheet href="diagrams.css" type="text/css"?>
<!DOCTYPE svg PUBLIC "-//W3C//DTD SVG 1.1//EN"
 "http://www.w3.org/Graphics/SVG/1.1/DTD/svg11.dtd">
<!-- Generated by graphviz version 10.0.1 (20240210.2158)
 -->
<!-- Title: suppress_goal_hook_object Pages: 1 -->
<svg width="498pt" height="293pt"
 viewBox="72.00 72.00 426.00 221.00" xmlns="http://www.w3.org/2000/svg" xmlns:xlink="http://www.w3.org/1999/xlink">
<g id="graph0" class="graph" transform="scale(1 1) rotate(0) translate(76 217)">
<title>suppress_goal_hook_object</title>
<polygon fill="white" stroke="none" points="-4,4 -4,-145 350,-145 350,4 -4,4"/>
<text text-anchor="start" x="8" y="-28.25" font-family="Monospace" font-size="10.00" fill="dimgray">Logtalk library</text>
<text text-anchor="start" x="8" y="-17" font-family="Monospace" font-size="10.00" fill="dimgray">Cross&#45;referencing diagram for object suppress_goal_hook</text>
<text text-anchor="start" x="8" y="-5.75" font-family="Monospace" font-size="10.00" fill="dimgray">Generated on 2024&#45;02&#45;19, 20:01</text>
<g id="clust1" class="cluster">
<title>cluster_suppress_goal_hook_object</title>
<g id="a_clust1"><a xlink:title="suppress_goal_hook">
<path fill="snow" stroke="dimgray" d="M108,-49.75C108,-49.75 238,-49.75 238,-49.75 244,-49.75 250,-55.75 250,-61.75 250,-61.75 250,-121 250,-121 250,-127 244,-133 238,-133 238,-133 108,-133 108,-133 102,-133 96,-127 96,-121 96,-121 96,-61.75 96,-61.75 96,-55.75 102,-49.75 108,-49.75"/>
<g id="a_clust1_0"><a xlink:href="https://github.com/LogtalkDotOrg/logtalk3/tree/a6f88c98fc2d0765da91f95d3379d8715d1f66fc/library/hook_objects/suppress_goal_hook.lgt" xlink:title="https://github.com/LogtalkDotOrg/logtalk3/tree/a6f88c98fc2d0765da91f95d3379d8715d1f66fc/library/hook_objects/suppress_goal_hook.lgt">
<text text-anchor="start" x="108" y="-115.5" font-family="Monospace" font-size="10.00" fill="dimgray">suppress_goal_hook</text>
</a>
</g>
</a>
</g>
</g>
<!-- goal_expansion/2 -->
<g id="node1" class="node">
<title>goal_expansion/2</title>
<g id="a_node1"><a xlink:href="https://github.com/LogtalkDotOrg/logtalk3/tree/a6f88c98fc2d0765da91f95d3379d8715d1f66fc/library/hook_objects/suppress_goal_hook.lgt#L43" xlink:title="https://github.com/LogtalkDotOrg/logtalk3/tree/a6f88c98fc2d0765da91f95d3379d8715d1f66fc/library/hook_objects/suppress_goal_hook.lgt#L43">
<polygon fill="cornsilk" stroke="black" points="240,-95.75 106,-95.75 106,-59.75 240,-59.75 240,-95.75"/>
<text text-anchor="start" x="113.88" y="-78.58" font-family="Monospace" font-size="9.00"> </text>
<text text-anchor="start" x="119" y="-77.8" font-family="Monospace" font-size="11.00">goal_expansion/2</text>
<text text-anchor="start" x="226.88" y="-78.58" font-family="Monospace" font-size="9.00"> </text>
<text text-anchor="start" x="113.88" y="-67.7" font-family="Monospace" font-size="9.00"> </text>
<text text-anchor="start" x="161.75" y="-69.22" font-family="Monospace" font-size="7.00">local</text>
<text text-anchor="start" x="226.88" y="-67.7" font-family="Monospace" font-size="9.00"> </text>
</a>
</g>
</g>
</g>
</svg>
