<?xml version="1.0" encoding="UTF-8" standalone="no"?>
<?xml-stylesheet href="diagrams.css" type="text/css"?>
<!DOCTYPE svg PUBLIC "-//W3C//DTD SVG 1.1//EN"
 "http://www.w3.org/Graphics/SVG/1.1/DTD/svg11.dtd">
<!-- Generated by graphviz version 2.49.3 (20211023.0002)
 -->
<!-- Title: suppress_goal_hook_object Pages: 1 -->
<svg width="499pt" height="292pt"
 viewBox="72.00 72.00 427.00 220.00" xmlns="http://www.w3.org/2000/svg" xmlns:xlink="http://www.w3.org/1999/xlink">
<g id="graph0" class="graph" transform="scale(1 1) rotate(0) translate(76 216)">
<title>suppress_goal_hook_object</title>
<polygon fill="white" stroke="transparent" points="-4,4 -4,-144 351,-144 351,4 -4,4"/>
<text text-anchor="start" x="8" y="-29" font-family="Monospace" font-size="10.00" fill="dimgray">Logtalk library</text>
<text text-anchor="start" x="8" y="-18" font-family="Monospace" font-size="10.00" fill="dimgray">Cross&#45;referencing diagram for object suppress_goal_hook</text>
<text text-anchor="start" x="8" y="-7" font-family="Monospace" font-size="10.00" fill="dimgray">Generated on 2021&#45;12&#45;24, 11:44</text>
<g id="clust1" class="cluster">
<title>cluster_suppress_goal_hook_object</title>
<g id="a_clust1"><a xlink:title="suppress_goal_hook">
<path fill="snow" stroke="dimgray" d="M108.5,-49C108.5,-49 238.5,-49 238.5,-49 244.5,-49 250.5,-55 250.5,-61 250.5,-61 250.5,-120 250.5,-120 250.5,-126 244.5,-132 238.5,-132 238.5,-132 108.5,-132 108.5,-132 102.5,-132 96.5,-126 96.5,-120 96.5,-120 96.5,-61 96.5,-61 96.5,-55 102.5,-49 108.5,-49"/>
<g id="a_clust1_0"><a xlink:href="https://github.com/LogtalkDotOrg/logtalk3/tree/a905fb179161cf6e56e04fd87117c435e4edfe07/library/hook_objects/suppress_goal_hook.lgt" xlink:title="https://github.com/LogtalkDotOrg/logtalk3/tree/a905fb179161cf6e56e04fd87117c435e4edfe07/library/hook_objects/suppress_goal_hook.lgt">
<text text-anchor="start" x="109" y="-115.5" font-family="Monospace" font-size="10.00" fill="dimgray">suppress_goal_hook</text>
</a>
</g>
</a>
</g>
</g>
<!-- goal_expansion/2 -->
<g id="node1" class="node">
<title>goal_expansion/2</title>
<g id="a_node1"><a xlink:href="https://github.com/LogtalkDotOrg/logtalk3/tree/a905fb179161cf6e56e04fd87117c435e4edfe07/library/hook_objects/suppress_goal_hook.lgt#L43" xlink:title="https://github.com/LogtalkDotOrg/logtalk3/tree/a905fb179161cf6e56e04fd87117c435e4edfe07/library/hook_objects/suppress_goal_hook.lgt#L43">
<polygon fill="cornsilk" stroke="black" points="240.5,-95 106.5,-95 106.5,-59 240.5,-59 240.5,-95"/>
<text text-anchor="start" x="114.5" y="-79.8" font-family="Monospace" font-size="9.00"> </text>
<text text-anchor="start" x="120.5" y="-79.2" font-family="Monospace" font-size="11.00">goal_expansion/2</text>
<text text-anchor="start" x="226.5" y="-79.8" font-family="Monospace" font-size="9.00"> </text>
<text text-anchor="start" x="114.5" y="-68.8" font-family="Monospace" font-size="9.00"> </text>
<text text-anchor="start" x="162.5" y="-69.4" font-family="Monospace" font-size="7.00">local</text>
<text text-anchor="start" x="226.5" y="-68.8" font-family="Monospace" font-size="9.00"> </text>
</a>
</g>
</g>
</g>
</svg>
