<?xml version="1.0" encoding="UTF-8" standalone="no"?>
<?xml-stylesheet href="diagrams.css" type="text/css"?>
<!DOCTYPE svg PUBLIC "-//W3C//DTD SVG 1.1//EN"
 "http://www.w3.org/Graphics/SVG/1.1/DTD/svg11.dtd">
<!-- Generated by graphviz version 7.0.1 (20221109.1506)
 -->
<!-- Title: timeout_object Pages: 1 -->
<svg width="521pt" height="410pt"
 viewBox="72.00 72.00 449.00 338.00" xmlns="http://www.w3.org/2000/svg" xmlns:xlink="http://www.w3.org/1999/xlink">
<g id="graph0" class="graph" transform="scale(1 1) rotate(0) translate(76 334)">
<title>timeout_object</title>
<polygon fill="white" stroke="none" points="-4,4 -4,-262 373,-262 373,4 -4,4"/>
<text text-anchor="start" x="8" y="-29" font-family="Monospace" font-size="10.00" fill="dimgray">Logtalk library</text>
<text text-anchor="start" x="8" y="-18" font-family="Monospace" font-size="10.00" fill="dimgray">Cross&#45;referencing diagram for object timeout</text>
<text text-anchor="start" x="8" y="-7" font-family="Monospace" font-size="10.00" fill="dimgray">Generated on 2023&#45;04&#45;04, 21:02</text>
<g id="clust1" class="cluster">
<title>cluster_timeout_object</title>
<g id="a_clust1"><a xlink:title="timeout">
<path fill="snow" stroke="dimgray" d="M20,-49C20,-49 349,-49 349,-49 355,-49 361,-55 361,-61 361,-61 361,-238 361,-238 361,-244 355,-250 349,-250 349,-250 20,-250 20,-250 14,-250 8,-244 8,-238 8,-238 8,-61 8,-61 8,-55 14,-49 20,-49"/>
<g id="a_clust1_0"><a xlink:href="https://github.com/LogtalkDotOrg/logtalk3/tree/87a70e472e6d8179a483fc0dd69d7d8b82d79805/library/timeout/timeout.lgt" xlink:title="https://github.com/LogtalkDotOrg/logtalk3/tree/87a70e472e6d8179a483fc0dd69d7d8b82d79805/library/timeout/timeout.lgt">
<text text-anchor="start" x="20.5" y="-233.5" font-family="Monospace" font-size="10.00" fill="dimgray">timeout</text>
</a>
</g>
</a>
</g>
</g>
<!-- call_with_timeout/2 -->
<g id="node1" class="node">
<title>call_with_timeout/2</title>
<g id="a_node1"><a xlink:href="https://github.com/LogtalkDotOrg/logtalk3/tree/87a70e472e6d8179a483fc0dd69d7d8b82d79805/library/timeout/timeout.lgt#L34" xlink:title="https://github.com/LogtalkDotOrg/logtalk3/tree/87a70e472e6d8179a483fc0dd69d7d8b82d79805/library/timeout/timeout.lgt#L34">
<polygon fill="springgreen" stroke="black" points="350.5,-213 193.5,-213 193.5,-177 350.5,-177 350.5,-213"/>
<text text-anchor="start" x="202" y="-197.8" font-family="Monospace" font-size="9.00"> </text>
<text text-anchor="start" x="208" y="-197.2" font-family="Monospace" font-size="11.00">call_with_timeout/2</text>
<text text-anchor="start" x="337" y="-197.8" font-family="Monospace" font-size="9.00"> </text>
<text text-anchor="start" x="202" y="-186.8" font-family="Monospace" font-size="9.00"> </text>
<text text-anchor="start" x="258.5" y="-187.4" font-family="Monospace" font-size="7.00">public</text>
<text text-anchor="start" x="337" y="-186.8" font-family="Monospace" font-size="9.00"> </text>
</a>
</g>
</g>
<!-- time:call_with_time_limit/2 -->
<g id="node3" class="node">
<title>time:call_with_time_limit/2</title>
<polygon fill="beige" stroke="black" stroke-dasharray="5,2" points="303.5,-95 92.5,-95 92.5,-59 303.5,-59 303.5,-95"/>
<text text-anchor="start" x="101" y="-79.8" font-family="Monospace" font-size="9.00"> </text>
<text text-anchor="start" x="107" y="-79.2" font-family="Monospace" font-size="11.00">time:call_with_time_limit/2</text>
<text text-anchor="start" x="290" y="-79.8" font-family="Monospace" font-size="9.00"> </text>
<text text-anchor="start" x="101" y="-68.8" font-family="Monospace" font-size="9.00"> </text>
<text text-anchor="start" x="180" y="-69.4" font-family="Monospace" font-size="7.00">external</text>
<text text-anchor="start" x="290" y="-68.8" font-family="Monospace" font-size="9.00"> </text>
</g>
<!-- call_with_timeout/2&#45;&gt;time:call_with_time_limit/2 -->
<g id="edge1" class="edge">
<title>call_with_timeout/2&#45;&gt;time:call_with_time_limit/2</title>
<g id="a_edge1"><a xlink:href="https://github.com/LogtalkDotOrg/logtalk3/tree/87a70e472e6d8179a483fc0dd69d7d8b82d79805/library/timeout/timeout.lgt#L119" xlink:title="calls">
<path fill="none" stroke="black" d="M260.92,-176.63C248.82,-157.67 229.3,-127.06 215.2,-104.96"/>
<polygon fill="black" stroke="black" points="218.3,-103.31 209.97,-96.76 212.4,-107.07 218.3,-103.31"/>
</a>
</g>
<g id="a_edge1&#45;label"><a xlink:href="https://github.com/LogtalkDotOrg/logtalk3/tree/87a70e472e6d8179a483fc0dd69d7d8b82d79805/library/timeout/timeout.lgt#L119" xlink:title="https://github.com/LogtalkDotOrg/logtalk3/tree/87a70e472e6d8179a483fc0dd69d7d8b82d79805/library/timeout/timeout.lgt#L119">
<text text-anchor="start" x="237" y="-133.8" font-family="Monospace" font-size="9.00">calls</text>
</a>
</g>
</g>
<!-- call_with_timeout/3 -->
<g id="node2" class="node">
<title>call_with_timeout/3</title>
<g id="a_node2"><a xlink:href="https://github.com/LogtalkDotOrg/logtalk3/tree/87a70e472e6d8179a483fc0dd69d7d8b82d79805/library/timeout/timeout.lgt#L45" xlink:title="https://github.com/LogtalkDotOrg/logtalk3/tree/87a70e472e6d8179a483fc0dd69d7d8b82d79805/library/timeout/timeout.lgt#L45">
<polygon fill="springgreen" stroke="black" points="175.5,-213 18.5,-213 18.5,-177 175.5,-177 175.5,-213"/>
<text text-anchor="start" x="27" y="-197.8" font-family="Monospace" font-size="9.00"> </text>
<text text-anchor="start" x="33" y="-197.2" font-family="Monospace" font-size="11.00">call_with_timeout/3</text>
<text text-anchor="start" x="162" y="-197.8" font-family="Monospace" font-size="9.00"> </text>
<text text-anchor="start" x="27" y="-186.8" font-family="Monospace" font-size="9.00"> </text>
<text text-anchor="start" x="83.5" y="-187.4" font-family="Monospace" font-size="7.00">public</text>
<text text-anchor="start" x="162" y="-186.8" font-family="Monospace" font-size="9.00"> </text>
</a>
</g>
</g>
<!-- call_with_timeout/3&#45;&gt;time:call_with_time_limit/2 -->
<g id="edge2" class="edge">
<title>call_with_timeout/3&#45;&gt;time:call_with_time_limit/2</title>
<g id="a_edge2"><a xlink:href="https://github.com/LogtalkDotOrg/logtalk3/tree/87a70e472e6d8179a483fc0dd69d7d8b82d79805/library/timeout/timeout.lgt#L126" xlink:title="calls">
<path fill="none" stroke="black" d="M112.12,-176.63C128.86,-157.41 156.01,-126.23 175.3,-104.07"/>
<polygon fill="black" stroke="black" points="177.86,-106.47 181.78,-96.63 172.58,-101.87 177.86,-106.47"/>
</a>
</g>
<g id="a_edge2&#45;label"><a xlink:href="https://github.com/LogtalkDotOrg/logtalk3/tree/87a70e472e6d8179a483fc0dd69d7d8b82d79805/library/timeout/timeout.lgt#L126" xlink:title="https://github.com/LogtalkDotOrg/logtalk3/tree/87a70e472e6d8179a483fc0dd69d7d8b82d79805/library/timeout/timeout.lgt#L126">
<text text-anchor="start" x="150" y="-133.8" font-family="Monospace" font-size="9.00">calls</text>
</a>
</g>
</g>
</g>
</svg>
