<?xml version="1.0" encoding="UTF-8" standalone="no"?>
<?xml-stylesheet href="diagrams.css" type="text/css"?>
<!DOCTYPE svg PUBLIC "-//W3C//DTD SVG 1.1//EN"
 "http://www.w3.org/Graphics/SVG/1.1/DTD/svg11.dtd">
<!-- Generated by graphviz version 2.50.0 (20211204.2007)
 -->
<!-- Title: timep_protocol Pages: 1 -->
<svg width="458pt" height="292pt"
 viewBox="72.00 72.00 386.00 220.00" xmlns="http://www.w3.org/2000/svg" xmlns:xlink="http://www.w3.org/1999/xlink">
<g id="graph0" class="graph" transform="scale(1 1) rotate(0) translate(76 216)">
<title>timep_protocol</title>
<polygon fill="white" stroke="transparent" points="-4,4 -4,-144 310,-144 310,4 -4,4"/>
<text text-anchor="start" x="8" y="-29" font-family="Monospace" font-size="10.00" fill="dimgray">Logtalk library</text>
<text text-anchor="start" x="8" y="-18" font-family="Monospace" font-size="10.00" fill="dimgray">Cross&#45;referencing diagram for protocol timep</text>
<text text-anchor="start" x="8" y="-7" font-family="Monospace" font-size="10.00" fill="dimgray">Generated on 2022&#45;06&#45;15, 12:02</text>
<g id="clust1" class="cluster">
<title>cluster_timep_protocol</title>
<g id="a_clust1"><a xlink:title="timep">
<path fill="snow" stroke="dimgray" d="M20,-49C20,-49 286,-49 286,-49 292,-49 298,-55 298,-61 298,-61 298,-120 298,-120 298,-126 292,-132 286,-132 286,-132 20,-132 20,-132 14,-132 8,-126 8,-120 8,-120 8,-61 8,-61 8,-55 14,-49 20,-49"/>
<g id="a_clust1_0"><a xlink:href="https://github.com/LogtalkDotOrg/logtalk3/tree/6415da739276ba9e4ec1c5613278cc025b4bde89/library/dates/timep.lgt" xlink:title="https://github.com/LogtalkDotOrg/logtalk3/tree/6415da739276ba9e4ec1c5613278cc025b4bde89/library/dates/timep.lgt">
<text text-anchor="start" x="20.5" y="-115.5" font-family="Monospace" font-size="10.00" fill="dimgray">timep</text>
</a>
</g>
</a>
</g>
</g>
<!-- now/3 -->
<g id="node1" class="node">
<title>now/3</title>
<g id="a_node1"><a xlink:href="https://github.com/LogtalkDotOrg/logtalk3/tree/6415da739276ba9e4ec1c5613278cc025b4bde89/library/dates/timep.lgt#L32" xlink:title="https://github.com/LogtalkDotOrg/logtalk3/tree/6415da739276ba9e4ec1c5613278cc025b4bde89/library/dates/timep.lgt#L32">
<polygon fill="springgreen" stroke="black" points="288,-95 226,-95 226,-59 288,-59 288,-95"/>
<text text-anchor="start" x="234" y="-79.8" font-family="Monospace" font-size="9.00"> </text>
<text text-anchor="start" x="240" y="-79.2" font-family="Monospace" font-size="11.00">now/3</text>
<text text-anchor="start" x="274" y="-79.8" font-family="Monospace" font-size="9.00"> </text>
<text text-anchor="start" x="234" y="-68.8" font-family="Monospace" font-size="9.00"> </text>
<text text-anchor="start" x="243" y="-69.4" font-family="Monospace" font-size="7.00">public</text>
<text text-anchor="start" x="274" y="-68.8" font-family="Monospace" font-size="9.00"> </text>
</a>
</g>
</g>
<!-- cpu_time/1 -->
<g id="node2" class="node">
<title>cpu_time/1</title>
<g id="a_node2"><a xlink:href="https://github.com/LogtalkDotOrg/logtalk3/tree/6415da739276ba9e4ec1c5613278cc025b4bde89/library/dates/timep.lgt#L39" xlink:title="https://github.com/LogtalkDotOrg/logtalk3/tree/6415da739276ba9e4ec1c5613278cc025b4bde89/library/dates/timep.lgt#L39">
<polygon fill="springgreen" stroke="black" points="208,-95 112,-95 112,-59 208,-59 208,-95"/>
<text text-anchor="start" x="120" y="-79.8" font-family="Monospace" font-size="9.00"> </text>
<text text-anchor="start" x="126" y="-79.2" font-family="Monospace" font-size="11.00">cpu_time/1</text>
<text text-anchor="start" x="194" y="-79.8" font-family="Monospace" font-size="9.00"> </text>
<text text-anchor="start" x="120" y="-68.8" font-family="Monospace" font-size="9.00"> </text>
<text text-anchor="start" x="146" y="-69.4" font-family="Monospace" font-size="7.00">public</text>
<text text-anchor="start" x="194" y="-68.8" font-family="Monospace" font-size="9.00"> </text>
</a>
</g>
</g>
<!-- valid/3 -->
<g id="node3" class="node">
<title>valid/3</title>
<g id="a_node3"><a xlink:href="https://github.com/LogtalkDotOrg/logtalk3/tree/6415da739276ba9e4ec1c5613278cc025b4bde89/library/dates/timep.lgt#L46" xlink:title="https://github.com/LogtalkDotOrg/logtalk3/tree/6415da739276ba9e4ec1c5613278cc025b4bde89/library/dates/timep.lgt#L46">
<polygon fill="springgreen" stroke="black" points="94,-95 18,-95 18,-59 94,-59 94,-95"/>
<text text-anchor="start" x="26" y="-79.8" font-family="Monospace" font-size="9.00"> </text>
<text text-anchor="start" x="32" y="-79.2" font-family="Monospace" font-size="11.00">valid/3</text>
<text text-anchor="start" x="80" y="-79.8" font-family="Monospace" font-size="9.00"> </text>
<text text-anchor="start" x="26" y="-68.8" font-family="Monospace" font-size="9.00"> </text>
<text text-anchor="start" x="42" y="-69.4" font-family="Monospace" font-size="7.00">public</text>
<text text-anchor="start" x="80" y="-68.8" font-family="Monospace" font-size="9.00"> </text>
</a>
</g>
</g>
</g>
</svg>
