<?xml version="1.0" encoding="UTF-8" standalone="no"?>
<?xml-stylesheet href="diagrams.css" type="text/css"?>
<!DOCTYPE svg PUBLIC "-//W3C//DTD SVG 1.1//EN"
 "http://www.w3.org/Graphics/SVG/1.1/DTD/svg11.dtd">
<!-- Generated by graphviz version 2.49.3 (20211023.0002)
 -->
<!-- Title: timeout_object Pages: 1 -->
<svg width="514pt" height="410pt"
 viewBox="72.00 72.00 442.00 338.00" xmlns="http://www.w3.org/2000/svg" xmlns:xlink="http://www.w3.org/1999/xlink">
<g id="graph0" class="graph" transform="scale(1 1) rotate(0) translate(76 334)">
<title>timeout_object</title>
<polygon fill="white" stroke="transparent" points="-4,4 -4,-262 366,-262 366,4 -4,4"/>
<text text-anchor="start" x="8" y="-29" font-family="Monospace" font-size="10.00" fill="dimgray">Logtalk library</text>
<text text-anchor="start" x="8" y="-18" font-family="Monospace" font-size="10.00" fill="dimgray">Cross&#45;referencing diagram for object timeout</text>
<text text-anchor="start" x="8" y="-7" font-family="Monospace" font-size="10.00" fill="dimgray">Generated on 2021&#45;12&#45;14, 23:03</text>
<g id="clust1" class="cluster">
<title>cluster_timeout_object</title>
<g id="a_clust1"><a xlink:title="timeout">
<path fill="snow" stroke="dimgray" d="M20,-49C20,-49 342,-49 342,-49 348,-49 354,-55 354,-61 354,-61 354,-238 354,-238 354,-244 348,-250 342,-250 342,-250 20,-250 20,-250 14,-250 8,-244 8,-238 8,-238 8,-61 8,-61 8,-55 14,-49 20,-49"/>
<g id="a_clust1_0"><a xlink:href="https://github.com/LogtalkDotOrg/logtalk3/tree/842e88a2c11f73d952f6e9bbda2285f33ea741c1/library/timeout/timeout.lgt" xlink:title="https://github.com/LogtalkDotOrg/logtalk3/tree/842e88a2c11f73d952f6e9bbda2285f33ea741c1/library/timeout/timeout.lgt">
<text text-anchor="start" x="20.5" y="-233.5" font-family="Monospace" font-size="10.00" fill="dimgray">timeout</text>
</a>
</g>
</a>
</g>
</g>
<!-- call_with_timeout/2 -->
<g id="node1" class="node">
<title>call_with_timeout/2</title>
<g id="a_node1"><a xlink:href="https://github.com/LogtalkDotOrg/logtalk3/tree/842e88a2c11f73d952f6e9bbda2285f33ea741c1/library/timeout/timeout.lgt#L34" xlink:title="https://github.com/LogtalkDotOrg/logtalk3/tree/842e88a2c11f73d952f6e9bbda2285f33ea741c1/library/timeout/timeout.lgt#L34">
<polygon fill="springgreen" stroke="black" points="344,-213 190,-213 190,-177 344,-177 344,-213"/>
<text text-anchor="start" x="198" y="-197.8" font-family="Monospace" font-size="9.00"> </text>
<text text-anchor="start" x="204" y="-197.2" font-family="Monospace" font-size="11.00">call_with_timeout/2</text>
<text text-anchor="start" x="330" y="-197.8" font-family="Monospace" font-size="9.00"> </text>
<text text-anchor="start" x="198" y="-186.8" font-family="Monospace" font-size="9.00"> </text>
<text text-anchor="start" x="254" y="-187.4" font-family="Monospace" font-size="7.00">public</text>
<text text-anchor="start" x="330" y="-186.8" font-family="Monospace" font-size="9.00"> </text>
</a>
</g>
</g>
<!-- time:call_with_time_limit/2 -->
<g id="node3" class="node">
<title>time:call_with_time_limit/2</title>
<polygon fill="beige" stroke="black" stroke-dasharray="5,2" points="298.5,-95 91.5,-95 91.5,-59 298.5,-59 298.5,-95"/>
<text text-anchor="start" x="100" y="-79.8" font-family="Monospace" font-size="9.00"> </text>
<text text-anchor="start" x="106" y="-79.2" font-family="Monospace" font-size="11.00">time:call_with_time_limit/2</text>
<text text-anchor="start" x="285" y="-79.8" font-family="Monospace" font-size="9.00"> </text>
<text text-anchor="start" x="100" y="-68.8" font-family="Monospace" font-size="9.00"> </text>
<text text-anchor="start" x="178.5" y="-69.4" font-family="Monospace" font-size="7.00">external</text>
<text text-anchor="start" x="285" y="-68.8" font-family="Monospace" font-size="9.00"> </text>
</g>
<!-- call_with_timeout/2&#45;&gt;time:call_with_time_limit/2 -->
<g id="edge1" class="edge">
<title>call_with_timeout/2&#45;&gt;time:call_with_time_limit/2</title>
<g id="a_edge1"><a xlink:href="https://github.com/LogtalkDotOrg/logtalk3/tree/842e88a2c11f73d952f6e9bbda2285f33ea741c1/library/timeout/timeout.lgt#L119" xlink:title="calls">
<path fill="none" stroke="black" d="M256.38,-176.88C244.41,-157.61 224.84,-126.07 211.02,-103.81"/>
<polygon fill="black" stroke="black" points="213.91,-101.84 205.67,-95.19 207.97,-105.53 213.91,-101.84"/>
</a>
</g>
<g id="a_edge1&#45;label"><a xlink:href="https://github.com/LogtalkDotOrg/logtalk3/tree/842e88a2c11f73d952f6e9bbda2285f33ea741c1/library/timeout/timeout.lgt#L119" xlink:title="https://github.com/LogtalkDotOrg/logtalk3/tree/842e88a2c11f73d952f6e9bbda2285f33ea741c1/library/timeout/timeout.lgt#L119">
<text text-anchor="start" x="233" y="-133.8" font-family="Monospace" font-size="9.00">calls</text>
</a>
</g>
</g>
<!-- call_with_timeout/3 -->
<g id="node2" class="node">
<title>call_with_timeout/3</title>
<g id="a_node2"><a xlink:href="https://github.com/LogtalkDotOrg/logtalk3/tree/842e88a2c11f73d952f6e9bbda2285f33ea741c1/library/timeout/timeout.lgt#L45" xlink:title="https://github.com/LogtalkDotOrg/logtalk3/tree/842e88a2c11f73d952f6e9bbda2285f33ea741c1/library/timeout/timeout.lgt#L45">
<polygon fill="springgreen" stroke="black" points="172,-213 18,-213 18,-177 172,-177 172,-213"/>
<text text-anchor="start" x="26" y="-197.8" font-family="Monospace" font-size="9.00"> </text>
<text text-anchor="start" x="32" y="-197.2" font-family="Monospace" font-size="11.00">call_with_timeout/3</text>
<text text-anchor="start" x="158" y="-197.8" font-family="Monospace" font-size="9.00"> </text>
<text text-anchor="start" x="26" y="-186.8" font-family="Monospace" font-size="9.00"> </text>
<text text-anchor="start" x="82" y="-187.4" font-family="Monospace" font-size="7.00">public</text>
<text text-anchor="start" x="158" y="-186.8" font-family="Monospace" font-size="9.00"> </text>
</a>
</g>
</g>
<!-- call_with_timeout/3&#45;&gt;time:call_with_time_limit/2 -->
<g id="edge2" class="edge">
<title>call_with_timeout/3&#45;&gt;time:call_with_time_limit/2</title>
<g id="a_edge2"><a xlink:href="https://github.com/LogtalkDotOrg/logtalk3/tree/842e88a2c11f73d952f6e9bbda2285f33ea741c1/library/timeout/timeout.lgt#L126" xlink:title="calls">
<path fill="none" stroke="black" d="M109.76,-176.88C126.59,-157.35 154.28,-125.23 173.52,-102.92"/>
<polygon fill="black" stroke="black" points="176.31,-105.05 180.18,-95.19 171,-100.48 176.31,-105.05"/>
</a>
</g>
<g id="a_edge2&#45;label"><a xlink:href="https://github.com/LogtalkDotOrg/logtalk3/tree/842e88a2c11f73d952f6e9bbda2285f33ea741c1/library/timeout/timeout.lgt#L126" xlink:title="https://github.com/LogtalkDotOrg/logtalk3/tree/842e88a2c11f73d952f6e9bbda2285f33ea741c1/library/timeout/timeout.lgt#L126">
<text text-anchor="start" x="147" y="-133.8" font-family="Monospace" font-size="9.00">calls</text>
</a>
</g>
</g>
</g>
</svg>
