<?xml version="1.0" encoding="UTF-8" standalone="no"?>
<?xml-stylesheet href="diagrams.css" type="text/css"?>
<!DOCTYPE svg PUBLIC "-//W3C//DTD SVG 1.1//EN"
 "http://www.w3.org/Graphics/SVG/1.1/DTD/svg11.dtd">
<!-- Generated by graphviz version 7.0.1 (20221109.1506)
 -->
<!-- Title: time_object Pages: 1 -->
<svg width="460pt" height="410pt"
 viewBox="72.00 72.00 388.00 338.00" xmlns="http://www.w3.org/2000/svg" xmlns:xlink="http://www.w3.org/1999/xlink">
<g id="graph0" class="graph" transform="scale(1 1) rotate(0) translate(76 334)">
<title>time_object</title>
<polygon fill="white" stroke="none" points="-4,4 -4,-262 312,-262 312,4 -4,4"/>
<text text-anchor="start" x="8" y="-29" font-family="Monospace" font-size="10.00" fill="dimgray">Logtalk library</text>
<text text-anchor="start" x="8" y="-18" font-family="Monospace" font-size="10.00" fill="dimgray">Cross&#45;referencing diagram for object time</text>
<text text-anchor="start" x="8" y="-7" font-family="Monospace" font-size="10.00" fill="dimgray">Generated on 2023&#45;05&#45;16, 11:37</text>
<g id="clust1" class="cluster">
<title>cluster_time_object</title>
<g id="a_clust1"><a xlink:title="time">
<path fill="snow" stroke="dimgray" d="M20,-49C20,-49 288,-49 288,-49 294,-49 300,-55 300,-61 300,-61 300,-238 300,-238 300,-244 294,-250 288,-250 288,-250 20,-250 20,-250 14,-250 8,-244 8,-238 8,-238 8,-61 8,-61 8,-55 14,-49 20,-49"/>
<g id="a_clust1_0"><a xlink:href="https://github.com/LogtalkDotOrg/logtalk3/tree/05f96df99c5c0ae6dbb2e0c686f3d3bae08f74d9/library/dates/time.lgt" xlink:title="https://github.com/LogtalkDotOrg/logtalk3/tree/05f96df99c5c0ae6dbb2e0c686f3d3bae08f74d9/library/dates/time.lgt">
<text text-anchor="start" x="20.5" y="-233.5" font-family="Monospace" font-size="10.00" fill="dimgray">time</text>
</a>
</g>
</a>
</g>
</g>
<!-- cpu_time/1 -->
<g id="node1" class="node">
<title>cpu_time/1</title>
<g id="a_node1"><a xlink:href="https://github.com/LogtalkDotOrg/logtalk3/tree/05f96df99c5c0ae6dbb2e0c686f3d3bae08f74d9/library/dates/time.lgt#L36" xlink:title="https://github.com/LogtalkDotOrg/logtalk3/tree/05f96df99c5c0ae6dbb2e0c686f3d3bae08f74d9/library/dates/time.lgt#L36">
<polygon fill="cornsilk" stroke="black" points="288,-213 192,-213 192,-177 288,-177 288,-213"/>
<text text-anchor="start" x="200" y="-197.8" font-family="Monospace" font-size="9.00"> </text>
<text text-anchor="start" x="206" y="-197.2" font-family="Monospace" font-size="11.00">cpu_time/1</text>
<text text-anchor="start" x="274" y="-197.8" font-family="Monospace" font-size="9.00"> </text>
<text text-anchor="start" x="200" y="-186.8" font-family="Monospace" font-size="9.00"> </text>
<text text-anchor="start" x="228.5" y="-187.4" font-family="Monospace" font-size="7.00">local</text>
<text text-anchor="start" x="274" y="-186.8" font-family="Monospace" font-size="9.00"> </text>
</a>
</g>
</g>
<!-- os::cpu_time/1 -->
<g id="node5" class="node">
<title>os::cpu_time/1</title>
<g id="a_node5"><a xlink:href="https://logtalk.org/library/osp_0.html#cpu_time/1" xlink:title="https://logtalk.org/library/osp_0.html#cpu_time/1">
<polygon fill="beige" stroke="black" stroke-dasharray="5,2" points="289.5,-95 166.5,-95 166.5,-59 289.5,-59 289.5,-95"/>
<text text-anchor="start" x="175" y="-79.8" font-family="Monospace" font-size="9.00"> </text>
<text text-anchor="start" x="181" y="-79.2" font-family="Monospace" font-size="11.00">os::cpu_time/1</text>
<text text-anchor="start" x="276" y="-79.8" font-family="Monospace" font-size="9.00"> </text>
<text text-anchor="start" x="175" y="-68.8" font-family="Monospace" font-size="9.00"> </text>
<text text-anchor="start" x="210" y="-69.4" font-family="Monospace" font-size="7.00">external</text>
<text text-anchor="start" x="276" y="-68.8" font-family="Monospace" font-size="9.00"> </text>
</a>
</g>
</g>
<!-- cpu_time/1&#45;&gt;os::cpu_time/1 -->
<g id="edge2" class="edge">
<title>cpu_time/1&#45;&gt;os::cpu_time/1</title>
<g id="a_edge2"><a xlink:href="https://github.com/LogtalkDotOrg/logtalk3/tree/05f96df99c5c0ae6dbb2e0c686f3d3bae08f74d9/library/dates/time.lgt#L36" xlink:title="calls">
<path fill="none" stroke="black" d="M238.2,-176.63C236.29,-158.18 233.25,-128.7 230.98,-106.77"/>
<polygon fill="black" stroke="black" points="234.48,-106.58 229.96,-96.99 227.51,-107.3 234.48,-106.58"/>
</a>
</g>
<g id="a_edge2&#45;label"><a xlink:href="https://github.com/LogtalkDotOrg/logtalk3/tree/05f96df99c5c0ae6dbb2e0c686f3d3bae08f74d9/library/dates/time.lgt#L36" xlink:title="https://github.com/LogtalkDotOrg/logtalk3/tree/05f96df99c5c0ae6dbb2e0c686f3d3bae08f74d9/library/dates/time.lgt#L36">
<text text-anchor="start" x="234" y="-133.8" font-family="Monospace" font-size="9.00">calls</text>
</a>
</g>
</g>
<!-- now/3 -->
<g id="node2" class="node">
<title>now/3</title>
<g id="a_node2"><a xlink:href="https://github.com/LogtalkDotOrg/logtalk3/tree/05f96df99c5c0ae6dbb2e0c686f3d3bae08f74d9/library/dates/time.lgt#L33" xlink:title="https://github.com/LogtalkDotOrg/logtalk3/tree/05f96df99c5c0ae6dbb2e0c686f3d3bae08f74d9/library/dates/time.lgt#L33">
<polygon fill="cornsilk" stroke="black" points="174,-213 112,-213 112,-177 174,-177 174,-213"/>
<text text-anchor="start" x="120" y="-197.8" font-family="Monospace" font-size="9.00"> </text>
<text text-anchor="start" x="126" y="-197.2" font-family="Monospace" font-size="11.00">now/3</text>
<text text-anchor="start" x="160" y="-197.8" font-family="Monospace" font-size="9.00"> </text>
<text text-anchor="start" x="120" y="-186.8" font-family="Monospace" font-size="9.00"> </text>
<text text-anchor="start" x="131.5" y="-187.4" font-family="Monospace" font-size="7.00">local</text>
<text text-anchor="start" x="160" y="-186.8" font-family="Monospace" font-size="9.00"> </text>
</a>
</g>
</g>
<!-- os::date_time/7 -->
<g id="node4" class="node">
<title>os::date_time/7</title>
<g id="a_node4"><a xlink:href="https://logtalk.org/library/osp_0.html#date_time/7" xlink:title="https://logtalk.org/library/osp_0.html#date_time/7">
<polygon fill="beige" stroke="black" stroke-dasharray="5,2" points="148,-95 18,-95 18,-59 148,-59 148,-95"/>
<text text-anchor="start" x="26" y="-79.8" font-family="Monospace" font-size="9.00"> </text>
<text text-anchor="start" x="32" y="-79.2" font-family="Monospace" font-size="11.00">os::date_time/7</text>
<text text-anchor="start" x="134" y="-79.8" font-family="Monospace" font-size="9.00"> </text>
<text text-anchor="start" x="26" y="-68.8" font-family="Monospace" font-size="9.00"> </text>
<text text-anchor="start" x="64.5" y="-69.4" font-family="Monospace" font-size="7.00">external</text>
<text text-anchor="start" x="134" y="-68.8" font-family="Monospace" font-size="9.00"> </text>
</a>
</g>
</g>
<!-- now/3&#45;&gt;os::date_time/7 -->
<g id="edge1" class="edge">
<title>now/3&#45;&gt;os::date_time/7</title>
<g id="a_edge1"><a xlink:href="https://github.com/LogtalkDotOrg/logtalk3/tree/05f96df99c5c0ae6dbb2e0c686f3d3bae08f74d9/library/dates/time.lgt#L33" xlink:title="calls">
<path fill="none" stroke="black" d="M134.02,-176.63C124.3,-157.84 108.66,-127.61 97.26,-105.56"/>
<polygon fill="black" stroke="black" points="100.44,-104.1 92.74,-96.83 94.22,-107.32 100.44,-104.1"/>
</a>
</g>
<g id="a_edge1&#45;label"><a xlink:href="https://github.com/LogtalkDotOrg/logtalk3/tree/05f96df99c5c0ae6dbb2e0c686f3d3bae08f74d9/library/dates/time.lgt#L33" xlink:title="https://github.com/LogtalkDotOrg/logtalk3/tree/05f96df99c5c0ae6dbb2e0c686f3d3bae08f74d9/library/dates/time.lgt#L33">
<text text-anchor="start" x="114" y="-133.8" font-family="Monospace" font-size="9.00">calls</text>
</a>
</g>
</g>
<!-- valid/3 -->
<g id="node3" class="node">
<title>valid/3</title>
<g id="a_node3"><a xlink:href="https://github.com/LogtalkDotOrg/logtalk3/tree/05f96df99c5c0ae6dbb2e0c686f3d3bae08f74d9/library/dates/time.lgt#L39" xlink:title="https://github.com/LogtalkDotOrg/logtalk3/tree/05f96df99c5c0ae6dbb2e0c686f3d3bae08f74d9/library/dates/time.lgt#L39">
<polygon fill="cornsilk" stroke="black" points="94,-213 18,-213 18,-177 94,-177 94,-213"/>
<text text-anchor="start" x="26" y="-197.8" font-family="Monospace" font-size="9.00"> </text>
<text text-anchor="start" x="32" y="-197.2" font-family="Monospace" font-size="11.00">valid/3</text>
<text text-anchor="start" x="80" y="-197.8" font-family="Monospace" font-size="9.00"> </text>
<text text-anchor="start" x="26" y="-186.8" font-family="Monospace" font-size="9.00"> </text>
<text text-anchor="start" x="44.5" y="-187.4" font-family="Monospace" font-size="7.00">local</text>
<text text-anchor="start" x="80" y="-186.8" font-family="Monospace" font-size="9.00"> </text>
</a>
</g>
</g>
</g>
</svg>
