<?xml version="1.0" encoding="UTF-8" standalone="no"?>
<!DOCTYPE svg PUBLIC "-//W3C//DTD SVG 1.1//EN"
 "http://www.w3.org/Graphics/SVG/1.1/DTD/svg11.dtd">
<!-- Generated by graphviz version 2.40.1 (20161225.0304)
 -->
<!-- Title: time_object Pages: 1 -->
<svg width="552pt" height="517pt"
 viewBox="72.00 72.00 480.00 445.43" xmlns="http://www.w3.org/2000/svg" xmlns:xlink="http://www.w3.org/1999/xlink">
<g id="graph0" class="graph" transform="scale(1 1) rotate(0) translate(76 441.4264)">
<title>time_object</title>
<polygon fill="#ffffff" stroke="transparent" points="-4,4 -4,-369.4264 404,-369.4264 404,4 -4,4"/>
<text text-anchor="start" x="8" y="-18" font-family="Courier,monospace" font-size="10.00" fill="#8b8989">Logtalk library</text>
<text text-anchor="start" x="8" y="-7" font-family="Courier,monospace" font-size="10.00" fill="#8b8989">Generated on 2019/04/12, 21:30</text>
<g id="clust1" class="cluster">
<title>cluster_time_object</title>
<g id="a_clust1"><a xlink:href="https://github.com/LogtalkDotOrg/logtalk3/tree/master/library/time.lgt" xlink:title="https://github.com/LogtalkDotOrg/logtalk3/tree/master/library/time.lgt">
<path fill="#fffafa" stroke="#8b8989" d="M20,-38C20,-38 380,-38 380,-38 386,-38 392,-44 392,-50 392,-50 392,-345.4264 392,-345.4264 392,-351.4264 386,-357.4264 380,-357.4264 380,-357.4264 20,-357.4264 20,-357.4264 14,-357.4264 8,-351.4264 8,-345.4264 8,-345.4264 8,-50 8,-50 8,-44 14,-38 20,-38"/>
<text text-anchor="middle" x="28.5" y="-345.4264" font-family="Courier,monospace" font-size="10.00" fill="#8b8989">time</text>
</a>
</g>
</g>
<g id="clust2" class="cluster">
<title>cluster_other</title>
<g id="a_clust2"><a xlink:title="(external predicates)">
<path fill="#ffffff" stroke="#8b8989" d="M56,-48C56,-48 370,-48 370,-48 376,-48 382,-54 382,-60 382,-60 382,-111 382,-111 382,-117 376,-123 370,-123 370,-123 56,-123 56,-123 50,-123 44,-117 44,-111 44,-111 44,-60 44,-60 44,-54 50,-48 56,-48"/>
<text text-anchor="middle" x="115.5" y="-111" font-family="Courier,monospace" font-size="10.00" fill="#8b8989">(external predicates)</text>
</a>
</g>
</g>
<!-- cpu_time/1 -->
<g id="node1" class="node">
<title>cpu_time/1</title>
<g id="a_node1"><a xlink:href="https://github.com/LogtalkDotOrg/logtalk3/tree/master/library/time.lgt#L35" xlink:title="https://github.com/LogtalkDotOrg/logtalk3/tree/master/library/time.lgt#L35">
<ellipse fill="#f5f5dc" stroke="#000000" cx="315" cy="-307.2132" rx="67.3507" ry="21.4286"/>
<text text-anchor="start" x="276" y="-310.0132" font-family="Courier,monospace" font-size="9.00" fill="#000000"> </text>
<text text-anchor="start" x="282" y="-309.4132" font-family="Courier,monospace" font-size="11.00" fill="#000000">cpu_time/1</text>
<text text-anchor="start" x="349" y="-310.0132" font-family="Courier,monospace" font-size="9.00" fill="#000000"> </text>
<text text-anchor="start" x="276" y="-299.0132" font-family="Courier,monospace" font-size="9.00" fill="#000000"> </text>
<text text-anchor="start" x="304.5" y="-299.6132" font-family="Courier,monospace" font-size="7.00" fill="#000000">local</text>
<text text-anchor="start" x="349" y="-299.0132" font-family="Courier,monospace" font-size="9.00" fill="#000000"> </text>
</a>
</g>
</g>
<!-- os::cpu_time/1 -->
<g id="node5" class="node">
<title>os::cpu_time/1</title>
<ellipse fill="#d3d3d3" stroke="#000000" stroke-dasharray="5,2" cx="299" cy="-76" rx="72.5245" ry="18"/>
<text text-anchor="start" x="247" y="-73.8" font-family="Courier,monospace" font-size="9.00" fill="#000000"> </text>
<text text-anchor="start" x="253" y="-73.2" font-family="Courier,monospace" font-size="11.00" fill="#000000">os::cpu_time/1</text>
<text text-anchor="start" x="346" y="-73.8" font-family="Courier,monospace" font-size="9.00" fill="#000000"> </text>
</g>
<!-- cpu_time/1&#45;&gt;os::cpu_time/1 -->
<g id="edge2" class="edge">
<title>cpu_time/1&#45;&gt;os::cpu_time/1</title>
<g id="a_edge2"><a xlink:href="https://github.com/LogtalkDotOrg/logtalk3/tree/master/library/time.lgt#L35" xlink:title="calls">
<path fill="none" stroke="#000000" d="M313.5234,-285.8757C310.6666,-244.592 304.3756,-153.6818 301.0904,-106.2076"/>
<polygon fill="#000000" stroke="#000000" points="301.0773,-106.018 296.6726,-100.3085 300.2488,-94.0466 301.0773,-106.018"/>
</a>
</g>
<g id="a_edge2&#45;label"><a xlink:href="https://github.com/LogtalkDotOrg/logtalk3/tree/master/library/time.lgt#L35" xlink:title="https://github.com/LogtalkDotOrg/logtalk3/tree/master/library/time.lgt#L35">
<text text-anchor="start" x="307" y="-187.8" font-family="Courier,monospace" font-size="9.00" fill="#000000">calls</text>
</a>
</g>
</g>
<!-- now/3 -->
<g id="node2" class="node">
<title>now/3</title>
<g id="a_node2"><a xlink:href="https://github.com/LogtalkDotOrg/logtalk3/tree/master/library/time.lgt#L32" xlink:title="https://github.com/LogtalkDotOrg/logtalk3/tree/master/library/time.lgt#L32">
<ellipse fill="#f5f5dc" stroke="#000000" cx="186" cy="-307.2132" rx="43.6818" ry="21.4286"/>
<text text-anchor="start" x="163" y="-310.0132" font-family="Courier,monospace" font-size="9.00" fill="#000000"> </text>
<text text-anchor="start" x="169" y="-309.4132" font-family="Courier,monospace" font-size="11.00" fill="#000000">now/3</text>
<text text-anchor="start" x="203" y="-310.0132" font-family="Courier,monospace" font-size="9.00" fill="#000000"> </text>
<text text-anchor="start" x="163" y="-299.0132" font-family="Courier,monospace" font-size="9.00" fill="#000000"> </text>
<text text-anchor="start" x="175" y="-299.6132" font-family="Courier,monospace" font-size="7.00" fill="#000000">local</text>
<text text-anchor="start" x="203" y="-299.0132" font-family="Courier,monospace" font-size="9.00" fill="#000000"> </text>
</a>
</g>
</g>
<!-- os::date_time/7 -->
<g id="node4" class="node">
<title>os::date_time/7</title>
<ellipse fill="#d3d3d3" stroke="#000000" stroke-dasharray="5,2" cx="131" cy="-76" rx="76.9425" ry="18"/>
<text text-anchor="start" x="75" y="-73.8" font-family="Courier,monospace" font-size="9.00" fill="#000000"> </text>
<text text-anchor="start" x="81" y="-73.2" font-family="Courier,monospace" font-size="11.00" fill="#000000">os::date_time/7</text>
<text text-anchor="start" x="181" y="-73.8" font-family="Courier,monospace" font-size="9.00" fill="#000000"> </text>
</g>
<!-- now/3&#45;&gt;os::date_time/7 -->
<g id="edge1" class="edge">
<title>now/3&#45;&gt;os::date_time/7</title>
<g id="a_edge1"><a xlink:href="https://github.com/LogtalkDotOrg/logtalk3/tree/master/library/time.lgt#L32" xlink:title="calls">
<path fill="none" stroke="#000000" d="M180.9243,-285.8757C171.083,-244.5038 149.3862,-153.2931 138.1134,-105.9039"/>
<polygon fill="#000000" stroke="#000000" points="138.0699,-105.7209 132.79,-100.8094 135.2928,-94.0466 138.0699,-105.7209"/>
</a>
</g>
<g id="a_edge1&#45;label"><a xlink:href="https://github.com/LogtalkDotOrg/logtalk3/tree/master/library/time.lgt#L32" xlink:title="https://github.com/LogtalkDotOrg/logtalk3/tree/master/library/time.lgt#L32">
<text text-anchor="start" x="158" y="-187.8" font-family="Courier,monospace" font-size="9.00" fill="#000000">calls</text>
</a>
</g>
</g>
<!-- valid/3 -->
<g id="node3" class="node">
<title>valid/3</title>
<g id="a_node3"><a xlink:href="https://github.com/LogtalkDotOrg/logtalk3/tree/master/library/time.lgt#L38" xlink:title="https://github.com/LogtalkDotOrg/logtalk3/tree/master/library/time.lgt#L38">
<ellipse fill="#f5f5dc" stroke="#000000" cx="71" cy="-307.2132" rx="53.066" ry="21.4286"/>
<text text-anchor="start" x="42" y="-310.0132" font-family="Courier,monospace" font-size="9.00" fill="#000000"> </text>
<text text-anchor="start" x="48" y="-309.4132" font-family="Courier,monospace" font-size="11.00" fill="#000000">valid/3</text>
<text text-anchor="start" x="95" y="-310.0132" font-family="Courier,monospace" font-size="9.00" fill="#000000"> </text>
<text text-anchor="start" x="42" y="-299.0132" font-family="Courier,monospace" font-size="9.00" fill="#000000"> </text>
<text text-anchor="start" x="60.5" y="-299.6132" font-family="Courier,monospace" font-size="7.00" fill="#000000">local</text>
<text text-anchor="start" x="95" y="-299.0132" font-family="Courier,monospace" font-size="9.00" fill="#000000"> </text>
</a>
</g>
</g>
</g>
</svg>
