<?xml version="1.0" encoding="UTF-8" standalone="no"?>
<?xml-stylesheet href="diagrams.css" type="text/css"?>
<!DOCTYPE svg PUBLIC "-//W3C//DTD SVG 1.1//EN"
 "http://www.w3.org/Graphics/SVG/1.1/DTD/svg11.dtd">
<!-- Generated by graphviz version 12.1.2 (20240928.0832)
 -->
<!-- Title: timeout_object Pages: 1 -->
<svg width="514pt" height="418pt"
 viewBox="72.00 72.00 442.00 346.25" xmlns="http://www.w3.org/2000/svg" xmlns:xlink="http://www.w3.org/1999/xlink">
<g id="graph0" class="graph" transform="scale(1 1) rotate(0) translate(76 342.25)">
<title>timeout_object</title>
<polygon fill="white" stroke="none" points="-4,4 -4,-270.25 366,-270.25 366,4 -4,4"/>
<text text-anchor="start" x="8" y="-32.75" font-family="Monospace" font-size="10.00" fill="dimgray">Logtalk library</text>
<text text-anchor="start" x="8" y="-20" font-family="Monospace" font-size="10.00" fill="dimgray">Cross&#45;referencing diagram for object timeout</text>
<text text-anchor="start" x="8" y="-7.25" font-family="Monospace" font-size="10.00" fill="dimgray">Generated on 2024&#45;10&#45;26, 16:13</text>
<g id="clust1" class="cluster">
<title>cluster_timeout_object</title>
<g id="a_clust1"><a xlink:title="timeout">
<path fill="snow" stroke="dimgray" d="M20,-54.25C20,-54.25 342,-54.25 342,-54.25 348,-54.25 354,-60.25 354,-66.25 354,-66.25 354,-246.25 354,-246.25 354,-252.25 348,-258.25 342,-258.25 342,-258.25 20,-258.25 20,-258.25 14,-258.25 8,-252.25 8,-246.25 8,-246.25 8,-66.25 8,-66.25 8,-60.25 14,-54.25 20,-54.25"/>
<g id="a_clust1_0"><a xlink:href="https://github.com/LogtalkDotOrg/logtalk3/tree/d8c6a4993457dbaa3e5f8b180355b17cbdff36bc/library/timeout/timeout.lgt" xlink:title="https://github.com/LogtalkDotOrg/logtalk3/tree/d8c6a4993457dbaa3e5f8b180355b17cbdff36bc/library/timeout/timeout.lgt">
<text text-anchor="start" x="20" y="-240.75" font-family="Monospace" font-size="10.00" fill="dimgray">timeout</text>
</a>
</g>
</a>
</g>
</g>
<!-- call_with_timeout/2 -->
<g id="node1" class="node">
<title>call_with_timeout/2</title>
<g id="a_node1"><a xlink:href="https://github.com/LogtalkDotOrg/logtalk3/tree/d8c6a4993457dbaa3e5f8b180355b17cbdff36bc/library/timeout/timeout.lgt#L34" xlink:title="https://github.com/LogtalkDotOrg/logtalk3/tree/d8c6a4993457dbaa3e5f8b180355b17cbdff36bc/library/timeout/timeout.lgt#L34">
<polygon fill="springgreen" stroke="black" points="172,-219.5 18,-219.5 18,-183.5 172,-183.5 172,-219.5"/>
<text text-anchor="start" x="25.88" y="-204.07" font-family="Monospace" font-size="9.00"> </text>
<text text-anchor="start" x="30.88" y="-203.05" font-family="Monospace" font-size="11.00">call_with_timeout/2</text>
<text text-anchor="start" x="158.88" y="-204.07" font-family="Monospace" font-size="9.00"> </text>
<text text-anchor="start" x="25.88" y="-191.95" font-family="Monospace" font-size="9.00"> </text>
<text text-anchor="start" x="81.5" y="-192.85" font-family="Monospace" font-size="7.00">public</text>
<text text-anchor="start" x="158.88" y="-191.95" font-family="Monospace" font-size="9.00"> </text>
</a>
</g>
</g>
<!-- time:call_with_time_limit/2 -->
<g id="node3" class="node">
<title>time:call_with_time_limit/2</title>
<polygon fill="beige" stroke="black" stroke-dasharray="5,2" points="273,-100.25 65,-100.25 65,-64.25 273,-64.25 273,-100.25"/>
<text text-anchor="start" x="72.88" y="-84.83" font-family="Monospace" font-size="9.00"> </text>
<text text-anchor="start" x="77.88" y="-83.8" font-family="Monospace" font-size="11.00">time:call_with_time_limit/2</text>
<text text-anchor="start" x="259.88" y="-84.83" font-family="Monospace" font-size="9.00"> </text>
<text text-anchor="start" x="72.88" y="-72.7" font-family="Monospace" font-size="9.00"> </text>
<text text-anchor="start" x="151" y="-73.6" font-family="Monospace" font-size="7.00">external</text>
<text text-anchor="start" x="259.88" y="-72.7" font-family="Monospace" font-size="9.00"> </text>
</g>
<!-- call_with_timeout/2&#45;&gt;time:call_with_time_limit/2 -->
<g id="edge1" class="edge">
<title>call_with_timeout/2&#45;&gt;time:call_with_time_limit/2</title>
<g id="a_edge1"><a xlink:href="https://github.com/LogtalkDotOrg/logtalk3/tree/d8c6a4993457dbaa3e5f8b180355b17cbdff36bc/library/timeout/timeout.lgt#L119" xlink:title="calls">
<path fill="none" stroke="black" d="M105.92,-183.2C118.05,-163.98 137.8,-132.69 151.97,-110.24"/>
<polygon fill="black" stroke="black" points="154.85,-112.23 157.23,-101.9 148.93,-108.49 154.85,-112.23"/>
</a>
</g>
<g id="a_edge1&#45;label"><a xlink:href="https://github.com/LogtalkDotOrg/logtalk3/tree/d8c6a4993457dbaa3e5f8b180355b17cbdff36bc/library/timeout/timeout.lgt#L119" xlink:title="https://github.com/LogtalkDotOrg/logtalk3/tree/d8c6a4993457dbaa3e5f8b180355b17cbdff36bc/library/timeout/timeout.lgt#L119">
<text text-anchor="start" x="134.22" y="-138.95" font-family="Monospace" font-size="9.00">calls</text>
</a>
</g>
</g>
<!-- call_with_timeout/3 -->
<g id="node2" class="node">
<title>call_with_timeout/3</title>
<g id="a_node2"><a xlink:href="https://github.com/LogtalkDotOrg/logtalk3/tree/d8c6a4993457dbaa3e5f8b180355b17cbdff36bc/library/timeout/timeout.lgt#L45" xlink:title="https://github.com/LogtalkDotOrg/logtalk3/tree/d8c6a4993457dbaa3e5f8b180355b17cbdff36bc/library/timeout/timeout.lgt#L45">
<polygon fill="springgreen" stroke="black" points="344,-219.5 190,-219.5 190,-183.5 344,-183.5 344,-219.5"/>
<text text-anchor="start" x="197.88" y="-204.07" font-family="Monospace" font-size="9.00"> </text>
<text text-anchor="start" x="202.88" y="-203.05" font-family="Monospace" font-size="11.00">call_with_timeout/3</text>
<text text-anchor="start" x="330.88" y="-204.07" font-family="Monospace" font-size="9.00"> </text>
<text text-anchor="start" x="197.88" y="-191.95" font-family="Monospace" font-size="9.00"> </text>
<text text-anchor="start" x="253.5" y="-192.85" font-family="Monospace" font-size="7.00">public</text>
<text text-anchor="start" x="330.88" y="-191.95" font-family="Monospace" font-size="9.00"> </text>
</a>
</g>
</g>
<!-- call_with_timeout/3&#45;&gt;time:call_with_time_limit/2 -->
<g id="edge2" class="edge">
<title>call_with_timeout/3&#45;&gt;time:call_with_time_limit/2</title>
<g id="a_edge2"><a xlink:href="https://github.com/LogtalkDotOrg/logtalk3/tree/d8c6a4993457dbaa3e5f8b180355b17cbdff36bc/library/timeout/timeout.lgt#L126" xlink:title="calls">
<path fill="none" stroke="black" d="M252.54,-183.2C236.25,-163.72 209.61,-131.84 190.8,-109.33"/>
<polygon fill="black" stroke="black" points="193.59,-107.21 184.49,-101.78 188.22,-111.7 193.59,-107.21"/>
</a>
</g>
<g id="a_edge2&#45;label"><a xlink:href="https://github.com/LogtalkDotOrg/logtalk3/tree/d8c6a4993457dbaa3e5f8b180355b17cbdff36bc/library/timeout/timeout.lgt#L126" xlink:title="https://github.com/LogtalkDotOrg/logtalk3/tree/d8c6a4993457dbaa3e5f8b180355b17cbdff36bc/library/timeout/timeout.lgt#L126">
<text text-anchor="start" x="220.94" y="-138.95" font-family="Monospace" font-size="9.00">calls</text>
</a>
</g>
</g>
</g>
</svg>
