<?xml version="1.0" encoding="UTF-8" standalone="no"?>
<!DOCTYPE svg PUBLIC "-//W3C//DTD SVG 1.1//EN"
 "http://www.w3.org/Graphics/SVG/1.1/DTD/svg11.dtd">
<!-- Generated by graphviz version 2.40.1 (20161225.0304)
 -->
<!-- Title: time_object Pages: 1 -->
<svg width="579pt" height="524pt"
 viewBox="72.00 72.00 507.00 451.85" xmlns="http://www.w3.org/2000/svg" xmlns:xlink="http://www.w3.org/1999/xlink">
<g id="graph0" class="graph" transform="scale(1 1) rotate(0) translate(76 447.8528)">
<title>time_object</title>
<polygon fill="#ffffff" stroke="transparent" points="-4,4 -4,-375.8528 431,-375.8528 431,4 -4,4"/>
<text text-anchor="start" x="8" y="-18" font-family="Courier,monospace" font-size="10.00" fill="#8b8989">Logtalk library</text>
<text text-anchor="start" x="8" y="-7" font-family="Courier,monospace" font-size="10.00" fill="#8b8989">Generated on 2019/04/17, 15:28</text>
<g id="clust1" class="cluster">
<title>cluster_time_object</title>
<g id="a_clust1"><a xlink:href="https://github.com/LogtalkDotOrg/logtalk3/tree/master/library/time.lgt" xlink:title="https://github.com/LogtalkDotOrg/logtalk3/tree/master/library/time.lgt">
<path fill="#fffafa" stroke="#8b8989" d="M20,-38C20,-38 407,-38 407,-38 413,-38 419,-44 419,-50 419,-50 419,-351.8528 419,-351.8528 419,-357.8528 413,-363.8528 407,-363.8528 407,-363.8528 20,-363.8528 20,-363.8528 14,-363.8528 8,-357.8528 8,-351.8528 8,-351.8528 8,-50 8,-50 8,-44 14,-38 20,-38"/>
<text text-anchor="middle" x="28.5" y="-351.8528" font-family="Courier,monospace" font-size="10.00" fill="#8b8989">time</text>
</a>
</g>
</g>
<g id="clust2" class="cluster">
<title>cluster_other</title>
<g id="a_clust2"><a xlink:title="(external predicates)">
<path fill="#ffffff" stroke="#8b8989" d="M30,-48C30,-48 397,-48 397,-48 403,-48 409,-54 409,-60 409,-60 409,-117.4264 409,-117.4264 409,-123.4264 403,-129.4264 397,-129.4264 397,-129.4264 30,-129.4264 30,-129.4264 24,-129.4264 18,-123.4264 18,-117.4264 18,-117.4264 18,-60 18,-60 18,-54 24,-48 30,-48"/>
<text text-anchor="middle" x="89.5" y="-117.4264" font-family="Courier,monospace" font-size="10.00" fill="#8b8989">(external predicates)</text>
</a>
</g>
</g>
<!-- cpu_time/1 -->
<g id="node1" class="node">
<title>cpu_time/1</title>
<g id="a_node1"><a xlink:href="https://github.com/LogtalkDotOrg/logtalk3/tree/master/library/time.lgt#L35" xlink:title="https://github.com/LogtalkDotOrg/logtalk3/tree/master/library/time.lgt#L35">
<ellipse fill="#f5f5dc" stroke="#000000" cx="315" cy="-313.6396" rx="67.3507" ry="21.4286"/>
<text text-anchor="start" x="276" y="-316.4396" font-family="Courier,monospace" font-size="9.00" fill="#000000"> </text>
<text text-anchor="start" x="282" y="-315.8396" font-family="Courier,monospace" font-size="11.00" fill="#000000">cpu_time/1</text>
<text text-anchor="start" x="349" y="-316.4396" font-family="Courier,monospace" font-size="9.00" fill="#000000"> </text>
<text text-anchor="start" x="276" y="-305.4396" font-family="Courier,monospace" font-size="9.00" fill="#000000"> </text>
<text text-anchor="start" x="304.5" y="-306.0396" font-family="Courier,monospace" font-size="7.00" fill="#000000">local</text>
<text text-anchor="start" x="349" y="-305.4396" font-family="Courier,monospace" font-size="9.00" fill="#000000"> </text>
</a>
</g>
</g>
<!-- os::cpu_time/1 -->
<g id="node5" class="node">
<title>os::cpu_time/1</title>
<g id="a_node5"><a xlink:href="https://logtalk.org/library/os_0.html#cpu_time/1" xlink:title="https://logtalk.org/library/os_0.html#cpu_time/1">
<ellipse fill="#d3d3d3" stroke="#000000" stroke-dasharray="5,2" cx="313" cy="-79.2132" rx="85.6199" ry="21.4286"/>
<text text-anchor="start" x="261" y="-82.0132" font-family="Courier,monospace" font-size="9.00" fill="#000000"> </text>
<text text-anchor="start" x="267" y="-81.4132" font-family="Courier,monospace" font-size="11.00" fill="#000000">os::cpu_time/1</text>
<text text-anchor="start" x="360" y="-82.0132" font-family="Courier,monospace" font-size="9.00" fill="#000000"> </text>
<text text-anchor="start" x="261" y="-71.0132" font-family="Courier,monospace" font-size="9.00" fill="#000000"> </text>
<text text-anchor="start" x="296.5" y="-71.6132" font-family="Courier,monospace" font-size="7.00" fill="#000000">external</text>
<text text-anchor="start" x="360" y="-71.0132" font-family="Courier,monospace" font-size="9.00" fill="#000000"> </text>
</a>
</g>
</g>
<!-- cpu_time/1&#45;&gt;os::cpu_time/1 -->
<g id="edge2" class="edge">
<title>cpu_time/1&#45;&gt;os::cpu_time/1</title>
<g id="a_edge2"><a xlink:href="https://github.com/LogtalkDotOrg/logtalk3/tree/master/library/time.lgt#L35" xlink:title="calls">
<path fill="none" stroke="#000000" d="M314.819,-292.4224C314.4703,-251.5549 313.7032,-161.638 313.2852,-112.642"/>
<polygon fill="#000000" stroke="#000000" points="313.2845,-112.551 309.2334,-106.5853 313.182,-100.5514 313.2845,-112.551"/>
</a>
</g>
<g id="a_edge2&#45;label"><a xlink:href="https://github.com/LogtalkDotOrg/logtalk3/tree/master/library/time.lgt#L35" xlink:title="https://github.com/LogtalkDotOrg/logtalk3/tree/master/library/time.lgt#L35">
<text text-anchor="start" x="314" y="-194.2264" font-family="Courier,monospace" font-size="9.00" fill="#000000">calls</text>
</a>
</g>
</g>
<!-- now/3 -->
<g id="node2" class="node">
<title>now/3</title>
<g id="a_node2"><a xlink:href="https://github.com/LogtalkDotOrg/logtalk3/tree/master/library/time.lgt#L32" xlink:title="https://github.com/LogtalkDotOrg/logtalk3/tree/master/library/time.lgt#L32">
<ellipse fill="#f5f5dc" stroke="#000000" cx="186" cy="-313.6396" rx="43.6818" ry="21.4286"/>
<text text-anchor="start" x="163" y="-316.4396" font-family="Courier,monospace" font-size="9.00" fill="#000000"> </text>
<text text-anchor="start" x="169" y="-315.8396" font-family="Courier,monospace" font-size="11.00" fill="#000000">now/3</text>
<text text-anchor="start" x="203" y="-316.4396" font-family="Courier,monospace" font-size="9.00" fill="#000000"> </text>
<text text-anchor="start" x="163" y="-305.4396" font-family="Courier,monospace" font-size="9.00" fill="#000000"> </text>
<text text-anchor="start" x="175" y="-306.0396" font-family="Courier,monospace" font-size="7.00" fill="#000000">local</text>
<text text-anchor="start" x="203" y="-305.4396" font-family="Courier,monospace" font-size="9.00" fill="#000000"> </text>
</a>
</g>
</g>
<!-- os::date_time/7 -->
<g id="node4" class="node">
<title>os::date_time/7</title>
<g id="a_node4"><a xlink:href="https://logtalk.org/library/os_0.html#date_time/7" xlink:title="https://logtalk.org/library/os_0.html#date_time/7">
<ellipse fill="#d3d3d3" stroke="#000000" stroke-dasharray="5,2" cx="119" cy="-79.2132" rx="90.5193" ry="21.4286"/>
<text text-anchor="start" x="63" y="-82.0132" font-family="Courier,monospace" font-size="9.00" fill="#000000"> </text>
<text text-anchor="start" x="69" y="-81.4132" font-family="Courier,monospace" font-size="11.00" fill="#000000">os::date_time/7</text>
<text text-anchor="start" x="169" y="-82.0132" font-family="Courier,monospace" font-size="9.00" fill="#000000"> </text>
<text text-anchor="start" x="63" y="-71.0132" font-family="Courier,monospace" font-size="9.00" fill="#000000"> </text>
<text text-anchor="start" x="102" y="-71.6132" font-family="Courier,monospace" font-size="7.00" fill="#000000">external</text>
<text text-anchor="start" x="169" y="-71.0132" font-family="Courier,monospace" font-size="9.00" fill="#000000"> </text>
</a>
</g>
</g>
<!-- now/3&#45;&gt;os::date_time/7 -->
<g id="edge1" class="edge">
<title>now/3&#45;&gt;os::date_time/7</title>
<g id="a_edge1"><a xlink:href="https://github.com/LogtalkDotOrg/logtalk3/tree/master/library/time.lgt#L32" xlink:title="calls">
<path fill="none" stroke="#000000" d="M179.936,-292.4224C168.2311,-251.468 142.4479,-161.2551 128.4649,-112.3298"/>
<polygon fill="#000000" stroke="#000000" points="128.3962,-112.0894 122.9014,-107.4196 125.0985,-100.5514 128.3962,-112.0894"/>
</a>
</g>
<g id="a_edge1&#45;label"><a xlink:href="https://github.com/LogtalkDotOrg/logtalk3/tree/master/library/time.lgt#L32" xlink:title="https://github.com/LogtalkDotOrg/logtalk3/tree/master/library/time.lgt#L32">
<text text-anchor="start" x="153" y="-194.2264" font-family="Courier,monospace" font-size="9.00" fill="#000000">calls</text>
</a>
</g>
</g>
<!-- valid/3 -->
<g id="node3" class="node">
<title>valid/3</title>
<g id="a_node3"><a xlink:href="https://github.com/LogtalkDotOrg/logtalk3/tree/master/library/time.lgt#L38" xlink:title="https://github.com/LogtalkDotOrg/logtalk3/tree/master/library/time.lgt#L38">
<ellipse fill="#f5f5dc" stroke="#000000" cx="71" cy="-313.6396" rx="53.066" ry="21.4286"/>
<text text-anchor="start" x="42" y="-316.4396" font-family="Courier,monospace" font-size="9.00" fill="#000000"> </text>
<text text-anchor="start" x="48" y="-315.8396" font-family="Courier,monospace" font-size="11.00" fill="#000000">valid/3</text>
<text text-anchor="start" x="95" y="-316.4396" font-family="Courier,monospace" font-size="9.00" fill="#000000"> </text>
<text text-anchor="start" x="42" y="-305.4396" font-family="Courier,monospace" font-size="9.00" fill="#000000"> </text>
<text text-anchor="start" x="60.5" y="-306.0396" font-family="Courier,monospace" font-size="7.00" fill="#000000">local</text>
<text text-anchor="start" x="95" y="-305.4396" font-family="Courier,monospace" font-size="9.00" fill="#000000"> </text>
</a>
</g>
</g>
</g>
</svg>
