<?xml version="1.0" encoding="UTF-8" standalone="no"?>
<?xml-stylesheet href="diagrams.css" type="text/css"?>
<!DOCTYPE svg PUBLIC "-//W3C//DTD SVG 1.1//EN"
 "http://www.w3.org/Graphics/SVG/1.1/DTD/svg11.dtd">
<!-- Generated by graphviz version 12.1.2 (20240928.0832)
 -->
<!-- Title: timep_protocol Pages: 1 -->
<svg width="450pt" height="299pt"
 viewBox="72.00 72.00 378.00 227.00" xmlns="http://www.w3.org/2000/svg" xmlns:xlink="http://www.w3.org/1999/xlink">
<g id="graph0" class="graph" transform="scale(1 1) rotate(0) translate(76 223)">
<title>timep_protocol</title>
<polygon fill="white" stroke="none" points="-4,4 -4,-151 302,-151 302,4 -4,4"/>
<text text-anchor="start" x="8" y="-32.75" font-family="Monospace" font-size="10.00" fill="dimgray">Logtalk library</text>
<text text-anchor="start" x="8" y="-20" font-family="Monospace" font-size="10.00" fill="dimgray">Cross&#45;referencing diagram for protocol timep</text>
<text text-anchor="start" x="8" y="-7.25" font-family="Monospace" font-size="10.00" fill="dimgray">Generated on 2024&#45;10&#45;14, 23:50</text>
<g id="clust1" class="cluster">
<title>cluster_timep_protocol</title>
<g id="a_clust1"><a xlink:title="timep">
<path fill="snow" stroke="dimgray" d="M20,-54.25C20,-54.25 278,-54.25 278,-54.25 284,-54.25 290,-60.25 290,-66.25 290,-66.25 290,-127 290,-127 290,-133 284,-139 278,-139 278,-139 20,-139 20,-139 14,-139 8,-133 8,-127 8,-127 8,-66.25 8,-66.25 8,-60.25 14,-54.25 20,-54.25"/>
<g id="a_clust1_0"><a xlink:href="https://github.com/LogtalkDotOrg/logtalk3/tree/eb2b11e5743ddf51ce2ca8c5c8bcd95b9d1d10d3/library/dates/timep.lgt" xlink:title="https://github.com/LogtalkDotOrg/logtalk3/tree/eb2b11e5743ddf51ce2ca8c5c8bcd95b9d1d10d3/library/dates/timep.lgt">
<text text-anchor="start" x="20" y="-121.5" font-family="Monospace" font-size="10.00" fill="dimgray">timep</text>
</a>
</g>
</a>
</g>
</g>
<!-- now/3 -->
<g id="node1" class="node">
<title>now/3</title>
<g id="a_node1"><a xlink:href="https://github.com/LogtalkDotOrg/logtalk3/tree/eb2b11e5743ddf51ce2ca8c5c8bcd95b9d1d10d3/library/dates/timep.lgt#L32" xlink:title="https://github.com/LogtalkDotOrg/logtalk3/tree/eb2b11e5743ddf51ce2ca8c5c8bcd95b9d1d10d3/library/dates/timep.lgt#L32">
<polygon fill="springgreen" stroke="black" points="77.5,-100.25 18.5,-100.25 18.5,-64.25 77.5,-64.25 77.5,-100.25"/>
<text text-anchor="start" x="26.38" y="-84.83" font-family="Monospace" font-size="9.00"> </text>
<text text-anchor="start" x="31.12" y="-83.8" font-family="Monospace" font-size="11.00">now/3</text>
<text text-anchor="start" x="64.38" y="-84.83" font-family="Monospace" font-size="9.00"> </text>
<text text-anchor="start" x="26.38" y="-72.7" font-family="Monospace" font-size="9.00"> </text>
<text text-anchor="start" x="34.5" y="-73.6" font-family="Monospace" font-size="7.00">public</text>
<text text-anchor="start" x="64.38" y="-72.7" font-family="Monospace" font-size="9.00"> </text>
</a>
</g>
</g>
<!-- cpu_time/1 -->
<g id="node2" class="node">
<title>cpu_time/1</title>
<g id="a_node2"><a xlink:href="https://github.com/LogtalkDotOrg/logtalk3/tree/eb2b11e5743ddf51ce2ca8c5c8bcd95b9d1d10d3/library/dates/timep.lgt#L39" xlink:title="https://github.com/LogtalkDotOrg/logtalk3/tree/eb2b11e5743ddf51ce2ca8c5c8bcd95b9d1d10d3/library/dates/timep.lgt#L39">
<polygon fill="springgreen" stroke="black" points="188.5,-100.25 95.5,-100.25 95.5,-64.25 188.5,-64.25 188.5,-100.25"/>
<text text-anchor="start" x="103.38" y="-84.83" font-family="Monospace" font-size="9.00"> </text>
<text text-anchor="start" x="108.25" y="-83.8" font-family="Monospace" font-size="11.00">cpu_time/1</text>
<text text-anchor="start" x="175.38" y="-84.83" font-family="Monospace" font-size="9.00"> </text>
<text text-anchor="start" x="103.38" y="-72.7" font-family="Monospace" font-size="9.00"> </text>
<text text-anchor="start" x="128.5" y="-73.6" font-family="Monospace" font-size="7.00">public</text>
<text text-anchor="start" x="175.38" y="-72.7" font-family="Monospace" font-size="9.00"> </text>
</a>
</g>
</g>
<!-- valid/3 -->
<g id="node3" class="node">
<title>valid/3</title>
<g id="a_node3"><a xlink:href="https://github.com/LogtalkDotOrg/logtalk3/tree/eb2b11e5743ddf51ce2ca8c5c8bcd95b9d1d10d3/library/dates/timep.lgt#L46" xlink:title="https://github.com/LogtalkDotOrg/logtalk3/tree/eb2b11e5743ddf51ce2ca8c5c8bcd95b9d1d10d3/library/dates/timep.lgt#L46">
<polygon fill="springgreen" stroke="black" points="279.5,-100.25 206.5,-100.25 206.5,-64.25 279.5,-64.25 279.5,-100.25"/>
<text text-anchor="start" x="214.38" y="-84.83" font-family="Monospace" font-size="9.00"> </text>
<text text-anchor="start" x="219.38" y="-83.8" font-family="Monospace" font-size="11.00">valid/3</text>
<text text-anchor="start" x="266.38" y="-84.83" font-family="Monospace" font-size="9.00"> </text>
<text text-anchor="start" x="214.38" y="-72.7" font-family="Monospace" font-size="9.00"> </text>
<text text-anchor="start" x="229.5" y="-73.6" font-family="Monospace" font-size="7.00">public</text>
<text text-anchor="start" x="266.38" y="-72.7" font-family="Monospace" font-size="9.00"> </text>
</a>
</g>
</g>
</g>
</svg>
