<?xml version="1.0" encoding="UTF-8" standalone="no"?>
<?xml-stylesheet href="diagrams.css" type="text/css"?>
<!DOCTYPE svg PUBLIC "-//W3C//DTD SVG 1.1//EN"
 "http://www.w3.org/Graphics/SVG/1.1/DTD/svg11.dtd">
<!-- Generated by graphviz version 2.49.3 (20211023.0002)
 -->
<!-- Title: timep_protocol Pages: 1 -->
<svg width="425pt" height="292pt"
 viewBox="72.00 72.00 353.00 220.00" xmlns="http://www.w3.org/2000/svg" xmlns:xlink="http://www.w3.org/1999/xlink">
<g id="graph0" class="graph" transform="scale(1 1) rotate(0) translate(76 216)">
<title>timep_protocol</title>
<polygon fill="white" stroke="transparent" points="-4,4 -4,-144 277,-144 277,4 -4,4"/>
<text text-anchor="start" x="8" y="-29" font-family="Courier,monospace" font-size="10.00" fill="dimgray">Logtalk library</text>
<text text-anchor="start" x="8" y="-18" font-family="Courier,monospace" font-size="10.00" fill="dimgray">Cross&#45;referencing diagram for protocol timep</text>
<text text-anchor="start" x="8" y="-7" font-family="Courier,monospace" font-size="10.00" fill="dimgray">Generated on 2021&#45;11&#45;12, 21:32</text>
<g id="clust1" class="cluster">
<title>cluster_timep_protocol</title>
<g id="a_clust1"><a xlink:title="timep">
<path fill="snow" stroke="dimgray" d="M20,-49C20,-49 253,-49 253,-49 259,-49 265,-55 265,-61 265,-61 265,-120 265,-120 265,-126 259,-132 253,-132 253,-132 20,-132 20,-132 14,-132 8,-126 8,-120 8,-120 8,-61 8,-61 8,-55 14,-49 20,-49"/>
<g id="a_clust1_0"><a xlink:href="https://github.com/LogtalkDotOrg/logtalk3/tree/da1b904fb338cb0213d64d8c5e20b502297dd0fd/library/dates/timep.lgt" xlink:title="https://github.com/LogtalkDotOrg/logtalk3/tree/da1b904fb338cb0213d64d8c5e20b502297dd0fd/library/dates/timep.lgt">
<text text-anchor="start" x="20.5" y="-115.5" font-family="Courier,monospace" font-size="10.00" fill="dimgray">timep</text>
</a>
</g>
</a>
</g>
</g>
<!-- now/3 -->
<g id="node1" class="node">
<title>now/3</title>
<g id="a_node1"><a xlink:href="https://github.com/LogtalkDotOrg/logtalk3/tree/da1b904fb338cb0213d64d8c5e20b502297dd0fd/library/dates/timep.lgt#L32" xlink:title="https://github.com/LogtalkDotOrg/logtalk3/tree/da1b904fb338cb0213d64d8c5e20b502297dd0fd/library/dates/timep.lgt#L32">
<polygon fill="springgreen" stroke="black" points="255,-95 201,-95 201,-59 255,-59 255,-95"/>
<text text-anchor="start" x="209" y="-79.8" font-family="Courier,monospace" font-size="9.00"> </text>
<text text-anchor="start" x="214" y="-79.2" font-family="Courier,monospace" font-size="11.00">now/3</text>
<text text-anchor="start" x="242" y="-79.8" font-family="Courier,monospace" font-size="9.00"> </text>
<text text-anchor="start" x="209" y="-68.8" font-family="Courier,monospace" font-size="9.00"> </text>
<text text-anchor="start" x="217.5" y="-69.4" font-family="Courier,monospace" font-size="7.00">public</text>
<text text-anchor="start" x="242" y="-68.8" font-family="Courier,monospace" font-size="9.00"> </text>
</a>
</g>
</g>
<!-- cpu_time/1 -->
<g id="node2" class="node">
<title>cpu_time/1</title>
<g id="a_node2"><a xlink:href="https://github.com/LogtalkDotOrg/logtalk3/tree/da1b904fb338cb0213d64d8c5e20b502297dd0fd/library/dates/timep.lgt#L39" xlink:title="https://github.com/LogtalkDotOrg/logtalk3/tree/da1b904fb338cb0213d64d8c5e20b502297dd0fd/library/dates/timep.lgt#L39">
<polygon fill="springgreen" stroke="black" points="182.5,-95 101.5,-95 101.5,-59 182.5,-59 182.5,-95"/>
<text text-anchor="start" x="110" y="-79.8" font-family="Courier,monospace" font-size="9.00"> </text>
<text text-anchor="start" x="115" y="-79.2" font-family="Courier,monospace" font-size="11.00">cpu_time/1</text>
<text text-anchor="start" x="170" y="-79.8" font-family="Courier,monospace" font-size="9.00"> </text>
<text text-anchor="start" x="110" y="-68.8" font-family="Courier,monospace" font-size="9.00"> </text>
<text text-anchor="start" x="132" y="-69.4" font-family="Courier,monospace" font-size="7.00">public</text>
<text text-anchor="start" x="170" y="-68.8" font-family="Courier,monospace" font-size="9.00"> </text>
</a>
</g>
</g>
<!-- valid/3 -->
<g id="node3" class="node">
<title>valid/3</title>
<g id="a_node3"><a xlink:href="https://github.com/LogtalkDotOrg/logtalk3/tree/da1b904fb338cb0213d64d8c5e20b502297dd0fd/library/dates/timep.lgt#L46" xlink:title="https://github.com/LogtalkDotOrg/logtalk3/tree/da1b904fb338cb0213d64d8c5e20b502297dd0fd/library/dates/timep.lgt#L46">
<polygon fill="springgreen" stroke="black" points="83.5,-95 18.5,-95 18.5,-59 83.5,-59 83.5,-95"/>
<text text-anchor="start" x="27" y="-79.8" font-family="Courier,monospace" font-size="9.00"> </text>
<text text-anchor="start" x="32" y="-79.2" font-family="Courier,monospace" font-size="11.00">valid/3</text>
<text text-anchor="start" x="71" y="-79.8" font-family="Courier,monospace" font-size="9.00"> </text>
<text text-anchor="start" x="27" y="-68.8" font-family="Courier,monospace" font-size="9.00"> </text>
<text text-anchor="start" x="41" y="-69.4" font-family="Courier,monospace" font-size="7.00">public</text>
<text text-anchor="start" x="71" y="-68.8" font-family="Courier,monospace" font-size="9.00"> </text>
</a>
</g>
</g>
</g>
</svg>
