<?xml version="1.0" encoding="UTF-8" standalone="no"?>
<?xml-stylesheet href="diagrams.css" type="text/css"?>
<!DOCTYPE svg PUBLIC "-//W3C//DTD SVG 1.1//EN"
 "http://www.w3.org/Graphics/SVG/1.1/DTD/svg11.dtd">
<!-- Generated by graphviz version 2.43.20191029.1313 (20191029.1313)
 -->
<!-- Title: timep_protocol Pages: 1 -->
<svg width="448pt" height="288pt"
 viewBox="72.00 72.00 376.00 216.00" xmlns="http://www.w3.org/2000/svg" xmlns:xlink="http://www.w3.org/1999/xlink">
<g id="graph0" class="graph" transform="scale(1 1) rotate(0) translate(76 212)">
<title>timep_protocol</title>
<polygon fill="white" stroke="transparent" points="-4,4 -4,-140 300,-140 300,4 -4,4"/>
<text text-anchor="start" x="8" y="-26" font-family="Courier,monospace" font-size="10.00" fill="dimgray">Logtalk library</text>
<text text-anchor="start" x="8" y="-16" font-family="Courier,monospace" font-size="10.00" fill="dimgray">Cross&#45;referencing diagram for protocol timep</text>
<text text-anchor="start" x="8" y="-6" font-family="Courier,monospace" font-size="10.00" fill="dimgray">Generated on 2020&#45;05&#45;25, 21:55</text>
<g id="clust1" class="cluster">
<title>cluster_timep_protocol</title>
<g id="a_clust1"><a xlink:title="timep">
<path fill="snow" stroke="dimgray" d="M20,-46C20,-46 276,-46 276,-46 282,-46 288,-52 288,-58 288,-58 288,-116 288,-116 288,-122 282,-128 276,-128 276,-128 20,-128 20,-128 14,-128 8,-122 8,-116 8,-116 8,-58 8,-58 8,-52 14,-46 20,-46"/>
<g id="a_clust1_0"><a xlink:href="https://github.com/LogtalkDotOrg/logtalk3/tree/ee3e469ba16664bcc8b3b120a4a0bb7672d96db2/library/dates/timep.lgt" xlink:title="https://github.com/LogtalkDotOrg/logtalk3/tree/ee3e469ba16664bcc8b3b120a4a0bb7672d96db2/library/dates/timep.lgt">
<text text-anchor="start" x="20" y="-112" font-family="Courier,monospace" font-size="10.00" fill="dimgray">timep</text>
</a>
</g>
</a>
</g>
</g>
<!-- now/3 -->
<g id="node1" class="node">
<title>now/3</title>
<g id="a_node1"><a xlink:href="https://github.com/LogtalkDotOrg/logtalk3/tree/ee3e469ba16664bcc8b3b120a4a0bb7672d96db2/library/dates/timep.lgt#L31" xlink:title="https://github.com/LogtalkDotOrg/logtalk3/tree/ee3e469ba16664bcc8b3b120a4a0bb7672d96db2/library/dates/timep.lgt#L31">
<polygon fill="springgreen" stroke="black" points="277.5,-92 218.5,-92 218.5,-56 277.5,-56 277.5,-92"/>
<text text-anchor="start" x="226.8" y="-75.8" font-family="Courier,monospace" font-size="9.00"> </text>
<text text-anchor="start" x="232" y="-75.2" font-family="Courier,monospace" font-size="11.00">now/3</text>
<text text-anchor="start" x="264.8" y="-75.8" font-family="Courier,monospace" font-size="9.00"> </text>
<text text-anchor="start" x="226.8" y="-65.8" font-family="Courier,monospace" font-size="9.00"> </text>
<text text-anchor="start" x="235.9" y="-66.4" font-family="Courier,monospace" font-size="7.00">public</text>
<text text-anchor="start" x="264.8" y="-65.8" font-family="Courier,monospace" font-size="9.00"> </text>
</a>
</g>
</g>
<!-- cpu_time/1 -->
<g id="node2" class="node">
<title>cpu_time/1</title>
<g id="a_node2"><a xlink:href="https://github.com/LogtalkDotOrg/logtalk3/tree/ee3e469ba16664bcc8b3b120a4a0bb7672d96db2/library/dates/timep.lgt#L38" xlink:title="https://github.com/LogtalkDotOrg/logtalk3/tree/ee3e469ba16664bcc8b3b120a4a0bb7672d96db2/library/dates/timep.lgt#L38">
<polygon fill="springgreen" stroke="black" points="200,-92 108,-92 108,-56 200,-56 200,-92"/>
<text text-anchor="start" x="115.8" y="-75.8" font-family="Courier,monospace" font-size="9.00"> </text>
<text text-anchor="start" x="120.99" y="-75.2" font-family="Courier,monospace" font-size="11.00">cpu_time/1</text>
<text text-anchor="start" x="186.8" y="-75.8" font-family="Courier,monospace" font-size="9.00"> </text>
<text text-anchor="start" x="115.8" y="-65.8" font-family="Courier,monospace" font-size="9.00"> </text>
<text text-anchor="start" x="141.4" y="-66.4" font-family="Courier,monospace" font-size="7.00">public</text>
<text text-anchor="start" x="186.8" y="-65.8" font-family="Courier,monospace" font-size="9.00"> </text>
</a>
</g>
</g>
<!-- valid/3 -->
<g id="node3" class="node">
<title>valid/3</title>
<g id="a_node3"><a xlink:href="https://github.com/LogtalkDotOrg/logtalk3/tree/ee3e469ba16664bcc8b3b120a4a0bb7672d96db2/library/dates/timep.lgt#L45" xlink:title="https://github.com/LogtalkDotOrg/logtalk3/tree/ee3e469ba16664bcc8b3b120a4a0bb7672d96db2/library/dates/timep.lgt#L45">
<polygon fill="springgreen" stroke="black" points="90,-92 18,-92 18,-56 90,-56 90,-92"/>
<text text-anchor="start" x="25.8" y="-75.8" font-family="Courier,monospace" font-size="9.00"> </text>
<text text-anchor="start" x="30.9" y="-75.2" font-family="Courier,monospace" font-size="11.00">valid/3</text>
<text text-anchor="start" x="76.8" y="-75.8" font-family="Courier,monospace" font-size="9.00"> </text>
<text text-anchor="start" x="25.8" y="-65.8" font-family="Courier,monospace" font-size="9.00"> </text>
<text text-anchor="start" x="41.4" y="-66.4" font-family="Courier,monospace" font-size="7.00">public</text>
<text text-anchor="start" x="76.8" y="-65.8" font-family="Courier,monospace" font-size="9.00"> </text>
</a>
</g>
</g>
</g>
</svg>
