<?xml version="1.0" encoding="UTF-8" standalone="no"?>
<?xml-stylesheet href="diagrams.css" type="text/css"?>
<!DOCTYPE svg PUBLIC "-//W3C//DTD SVG 1.1//EN"
 "http://www.w3.org/Graphics/SVG/1.1/DTD/svg11.dtd">
<!-- Generated by graphviz version 10.0.1 (20240210.2158)
 -->
<!-- Title: timeout_object Pages: 1 -->
<svg width="514pt" height="411pt"
 viewBox="72.00 72.00 442.00 338.75" xmlns="http://www.w3.org/2000/svg" xmlns:xlink="http://www.w3.org/1999/xlink">
<g id="graph0" class="graph" transform="scale(1 1) rotate(0) translate(76 334.75)">
<title>timeout_object</title>
<polygon fill="white" stroke="none" points="-4,4 -4,-262.75 366,-262.75 366,4 -4,4"/>
<text text-anchor="start" x="8" y="-28.25" font-family="Monospace" font-size="10.00" fill="dimgray">Logtalk library</text>
<text text-anchor="start" x="8" y="-17" font-family="Monospace" font-size="10.00" fill="dimgray">Cross&#45;referencing diagram for object timeout</text>
<text text-anchor="start" x="8" y="-5.75" font-family="Monospace" font-size="10.00" fill="dimgray">Generated on 2024&#45;03&#45;26, 14:53</text>
<g id="clust1" class="cluster">
<title>cluster_timeout_object</title>
<g id="a_clust1"><a xlink:title="timeout">
<path fill="snow" stroke="dimgray" d="M20,-49.75C20,-49.75 342,-49.75 342,-49.75 348,-49.75 354,-55.75 354,-61.75 354,-61.75 354,-238.75 354,-238.75 354,-244.75 348,-250.75 342,-250.75 342,-250.75 20,-250.75 20,-250.75 14,-250.75 8,-244.75 8,-238.75 8,-238.75 8,-61.75 8,-61.75 8,-55.75 14,-49.75 20,-49.75"/>
<g id="a_clust1_0"><a xlink:href="https://github.com/LogtalkDotOrg/logtalk3/tree/91e535082d4d9df5ae8a657457a751d53ac7fb3f/library/timeout/timeout.lgt" xlink:title="https://github.com/LogtalkDotOrg/logtalk3/tree/91e535082d4d9df5ae8a657457a751d53ac7fb3f/library/timeout/timeout.lgt">
<text text-anchor="start" x="20" y="-233.25" font-family="Monospace" font-size="10.00" fill="dimgray">timeout</text>
</a>
</g>
</a>
</g>
</g>
<!-- call_with_timeout/2 -->
<g id="node1" class="node">
<title>call_with_timeout/2</title>
<g id="a_node1"><a xlink:href="https://github.com/LogtalkDotOrg/logtalk3/tree/91e535082d4d9df5ae8a657457a751d53ac7fb3f/library/timeout/timeout.lgt#L34" xlink:title="https://github.com/LogtalkDotOrg/logtalk3/tree/91e535082d4d9df5ae8a657457a751d53ac7fb3f/library/timeout/timeout.lgt#L34">
<polygon fill="springgreen" stroke="black" points="172,-213.5 18,-213.5 18,-177.5 172,-177.5 172,-213.5"/>
<text text-anchor="start" x="25.88" y="-196.32" font-family="Monospace" font-size="9.00"> </text>
<text text-anchor="start" x="30.88" y="-195.55" font-family="Monospace" font-size="11.00">call_with_timeout/2</text>
<text text-anchor="start" x="158.88" y="-196.32" font-family="Monospace" font-size="9.00"> </text>
<text text-anchor="start" x="25.88" y="-185.45" font-family="Monospace" font-size="9.00"> </text>
<text text-anchor="start" x="81.5" y="-186.97" font-family="Monospace" font-size="7.00">public</text>
<text text-anchor="start" x="158.88" y="-185.45" font-family="Monospace" font-size="9.00"> </text>
</a>
</g>
</g>
<!-- time:call_with_time_limit/2 -->
<g id="node3" class="node">
<title>time:call_with_time_limit/2</title>
<polygon fill="beige" stroke="black" stroke-dasharray="5,2" points="298,-95.75 90,-95.75 90,-59.75 298,-59.75 298,-95.75"/>
<text text-anchor="start" x="97.88" y="-78.58" font-family="Monospace" font-size="9.00"> </text>
<text text-anchor="start" x="102.88" y="-77.8" font-family="Monospace" font-size="11.00">time:call_with_time_limit/2</text>
<text text-anchor="start" x="284.88" y="-78.58" font-family="Monospace" font-size="9.00"> </text>
<text text-anchor="start" x="97.88" y="-67.7" font-family="Monospace" font-size="9.00"> </text>
<text text-anchor="start" x="176" y="-69.22" font-family="Monospace" font-size="7.00">external</text>
<text text-anchor="start" x="284.88" y="-67.7" font-family="Monospace" font-size="9.00"> </text>
</g>
<!-- call_with_timeout/2&#45;&gt;time:call_with_time_limit/2 -->
<g id="edge1" class="edge">
<title>call_with_timeout/2&#45;&gt;time:call_with_time_limit/2</title>
<g id="a_edge1"><a xlink:href="https://github.com/LogtalkDotOrg/logtalk3/tree/91e535082d4d9df5ae8a657457a751d53ac7fb3f/library/timeout/timeout.lgt#L119" xlink:title="calls">
<path fill="none" stroke="black" d="M109.82,-177.17C126.22,-157.99 152.84,-126.88 171.75,-104.77"/>
<polygon fill="black" stroke="black" points="174.25,-107.22 178.09,-97.35 168.93,-102.67 174.25,-107.22"/>
</a>
</g>
<g id="a_edge1&#45;label"><a xlink:href="https://github.com/LogtalkDotOrg/logtalk3/tree/91e535082d4d9df5ae8a657457a751d53ac7fb3f/library/timeout/timeout.lgt#L119" xlink:title="https://github.com/LogtalkDotOrg/logtalk3/tree/91e535082d4d9df5ae8a657457a751d53ac7fb3f/library/timeout/timeout.lgt#L119">
<text text-anchor="start" x="147" y="-132.95" font-family="Monospace" font-size="9.00">calls</text>
</a>
</g>
</g>
<!-- call_with_timeout/3 -->
<g id="node2" class="node">
<title>call_with_timeout/3</title>
<g id="a_node2"><a xlink:href="https://github.com/LogtalkDotOrg/logtalk3/tree/91e535082d4d9df5ae8a657457a751d53ac7fb3f/library/timeout/timeout.lgt#L45" xlink:title="https://github.com/LogtalkDotOrg/logtalk3/tree/91e535082d4d9df5ae8a657457a751d53ac7fb3f/library/timeout/timeout.lgt#L45">
<polygon fill="springgreen" stroke="black" points="344,-213.5 190,-213.5 190,-177.5 344,-177.5 344,-213.5"/>
<text text-anchor="start" x="197.88" y="-196.32" font-family="Monospace" font-size="9.00"> </text>
<text text-anchor="start" x="202.88" y="-195.55" font-family="Monospace" font-size="11.00">call_with_timeout/3</text>
<text text-anchor="start" x="330.88" y="-196.32" font-family="Monospace" font-size="9.00"> </text>
<text text-anchor="start" x="197.88" y="-185.45" font-family="Monospace" font-size="9.00"> </text>
<text text-anchor="start" x="253.5" y="-186.97" font-family="Monospace" font-size="7.00">public</text>
<text text-anchor="start" x="330.88" y="-185.45" font-family="Monospace" font-size="9.00"> </text>
</a>
</g>
</g>
<!-- call_with_timeout/3&#45;&gt;time:call_with_time_limit/2 -->
<g id="edge2" class="edge">
<title>call_with_timeout/3&#45;&gt;time:call_with_time_limit/2</title>
<g id="a_edge2"><a xlink:href="https://github.com/LogtalkDotOrg/logtalk3/tree/91e535082d4d9df5ae8a657457a751d53ac7fb3f/library/timeout/timeout.lgt#L126" xlink:title="calls">
<path fill="none" stroke="black" d="M256.07,-177.17C244.14,-158.25 224.87,-127.7 210.97,-105.66"/>
<polygon fill="black" stroke="black" points="214.11,-104.07 205.81,-97.48 208.18,-107.8 214.11,-104.07"/>
</a>
</g>
<g id="a_edge2&#45;label"><a xlink:href="https://github.com/LogtalkDotOrg/logtalk3/tree/91e535082d4d9df5ae8a657457a751d53ac7fb3f/library/timeout/timeout.lgt#L126" xlink:title="https://github.com/LogtalkDotOrg/logtalk3/tree/91e535082d4d9df5ae8a657457a751d53ac7fb3f/library/timeout/timeout.lgt#L126">
<text text-anchor="start" x="232" y="-132.95" font-family="Monospace" font-size="9.00">calls</text>
</a>
</g>
</g>
</g>
</svg>
