<?xml version="1.0" encoding="UTF-8" standalone="no"?>
<?xml-stylesheet href="diagrams.css" type="text/css"?>
<!DOCTYPE svg PUBLIC "-//W3C//DTD SVG 1.1//EN"
 "http://www.w3.org/Graphics/SVG/1.1/DTD/svg11.dtd">
<!-- Generated by graphviz version 2.43.20191029.1313 (20191029.1313)
 -->
<!-- Title: timeout_object Pages: 1 -->
<svg width="509pt" height="405pt"
 viewBox="72.00 72.00 437.00 333.00" xmlns="http://www.w3.org/2000/svg" xmlns:xlink="http://www.w3.org/1999/xlink">
<g id="graph0" class="graph" transform="scale(1 1) rotate(0) translate(76 329)">
<title>timeout_object</title>
<polygon fill="white" stroke="transparent" points="-4,4 -4,-257 361,-257 361,4 -4,4"/>
<text text-anchor="start" x="8" y="-26" font-family="Courier,monospace" font-size="10.00" fill="dimgray">Logtalk library</text>
<text text-anchor="start" x="8" y="-16" font-family="Courier,monospace" font-size="10.00" fill="dimgray">Cross&#45;referencing diagram for object timeout</text>
<text text-anchor="start" x="8" y="-6" font-family="Courier,monospace" font-size="10.00" fill="dimgray">Generated on 2020&#45;05&#45;25, 21:55</text>
<g id="clust1" class="cluster">
<title>cluster_timeout_object</title>
<g id="a_clust1"><a xlink:title="timeout">
<path fill="snow" stroke="dimgray" d="M20,-46C20,-46 337,-46 337,-46 343,-46 349,-52 349,-58 349,-58 349,-233 349,-233 349,-239 343,-245 337,-245 337,-245 20,-245 20,-245 14,-245 8,-239 8,-233 8,-233 8,-58 8,-58 8,-52 14,-46 20,-46"/>
<g id="a_clust1_0"><a xlink:href="https://github.com/LogtalkDotOrg/logtalk3/tree/ee3e469ba16664bcc8b3b120a4a0bb7672d96db2/library/timeout/timeout.lgt" xlink:title="https://github.com/LogtalkDotOrg/logtalk3/tree/ee3e469ba16664bcc8b3b120a4a0bb7672d96db2/library/timeout/timeout.lgt">
<text text-anchor="start" x="20" y="-229" font-family="Courier,monospace" font-size="10.00" fill="dimgray">timeout</text>
</a>
</g>
</a>
</g>
</g>
<!-- call_with_timeout/2 -->
<g id="node1" class="node">
<title>call_with_timeout/2</title>
<g id="a_node1"><a xlink:href="https://github.com/LogtalkDotOrg/logtalk3/tree/ee3e469ba16664bcc8b3b120a4a0bb7672d96db2/library/timeout/timeout.lgt#L33" xlink:title="https://github.com/LogtalkDotOrg/logtalk3/tree/ee3e469ba16664bcc8b3b120a4a0bb7672d96db2/library/timeout/timeout.lgt#L33">
<polygon fill="springgreen" stroke="black" points="338.5,-209 187.5,-209 187.5,-173 338.5,-173 338.5,-209"/>
<text text-anchor="start" x="195.8" y="-192.8" font-family="Courier,monospace" font-size="9.00"> </text>
<text text-anchor="start" x="200.79" y="-192.2" font-family="Courier,monospace" font-size="11.00">call_with_timeout/2</text>
<text text-anchor="start" x="325.8" y="-192.8" font-family="Courier,monospace" font-size="9.00"> </text>
<text text-anchor="start" x="195.8" y="-182.8" font-family="Courier,monospace" font-size="9.00"> </text>
<text text-anchor="start" x="250.9" y="-183.4" font-family="Courier,monospace" font-size="7.00">public</text>
<text text-anchor="start" x="325.8" y="-182.8" font-family="Courier,monospace" font-size="9.00"> </text>
</a>
</g>
</g>
<!-- time:call_with_time_limit/2 -->
<g id="node3" class="node">
<title>time:call_with_time_limit/2</title>
<polygon fill="beige" stroke="black" stroke-dasharray="5,2" points="293,-92 89,-92 89,-56 293,-56 293,-92"/>
<text text-anchor="start" x="96.8" y="-75.8" font-family="Courier,monospace" font-size="9.00"> </text>
<text text-anchor="start" x="101.89" y="-75.2" font-family="Courier,monospace" font-size="11.00">time:call_with_time_limit/2</text>
<text text-anchor="start" x="279.8" y="-75.8" font-family="Courier,monospace" font-size="9.00"> </text>
<text text-anchor="start" x="96.8" y="-65.8" font-family="Courier,monospace" font-size="9.00"> </text>
<text text-anchor="start" x="174.2" y="-66.4" font-family="Courier,monospace" font-size="7.00">external</text>
<text text-anchor="start" x="279.8" y="-65.8" font-family="Courier,monospace" font-size="9.00"> </text>
</g>
<!-- call_with_timeout/2&#45;&gt;time:call_with_time_limit/2 -->
<g id="edge1" class="edge">
<title>call_with_timeout/2&#45;&gt;time:call_with_time_limit/2</title>
<g id="a_edge1"><a xlink:href="https://github.com/LogtalkDotOrg/logtalk3/tree/ee3e469ba16664bcc8b3b120a4a0bb7672d96db2/library/timeout/timeout.lgt#L118" xlink:title="calls">
<path fill="none" stroke="black" d="M252.06,-172.53C240.1,-153.43 220.81,-122.61 207.11,-100.73"/>
<polygon fill="black" stroke="black" points="210.08,-98.87 201.8,-92.25 204.14,-102.59 210.08,-98.87"/>
</a>
</g>
<g id="a_edge1&#45;label"><a xlink:href="https://github.com/LogtalkDotOrg/logtalk3/tree/ee3e469ba16664bcc8b3b120a4a0bb7672d96db2/library/timeout/timeout.lgt#L118" xlink:title="https://github.com/LogtalkDotOrg/logtalk3/tree/ee3e469ba16664bcc8b3b120a4a0bb7672d96db2/library/timeout/timeout.lgt#L118">
<text text-anchor="start" x="229" y="-129.8" font-family="Courier,monospace" font-size="9.00">calls</text>
</a>
</g>
</g>
<!-- call_with_timeout/3 -->
<g id="node2" class="node">
<title>call_with_timeout/3</title>
<g id="a_node2"><a xlink:href="https://github.com/LogtalkDotOrg/logtalk3/tree/ee3e469ba16664bcc8b3b120a4a0bb7672d96db2/library/timeout/timeout.lgt#L44" xlink:title="https://github.com/LogtalkDotOrg/logtalk3/tree/ee3e469ba16664bcc8b3b120a4a0bb7672d96db2/library/timeout/timeout.lgt#L44">
<polygon fill="springgreen" stroke="black" points="169.5,-209 18.5,-209 18.5,-173 169.5,-173 169.5,-209"/>
<text text-anchor="start" x="26.8" y="-192.8" font-family="Courier,monospace" font-size="9.00"> </text>
<text text-anchor="start" x="31.79" y="-192.2" font-family="Courier,monospace" font-size="11.00">call_with_timeout/3</text>
<text text-anchor="start" x="156.8" y="-192.8" font-family="Courier,monospace" font-size="9.00"> </text>
<text text-anchor="start" x="26.8" y="-182.8" font-family="Courier,monospace" font-size="9.00"> </text>
<text text-anchor="start" x="81.9" y="-183.4" font-family="Courier,monospace" font-size="7.00">public</text>
<text text-anchor="start" x="156.8" y="-182.8" font-family="Courier,monospace" font-size="9.00"> </text>
</a>
</g>
</g>
<!-- call_with_timeout/3&#45;&gt;time:call_with_time_limit/2 -->
<g id="edge2" class="edge">
<title>call_with_timeout/3&#45;&gt;time:call_with_time_limit/2</title>
<g id="a_edge2"><a xlink:href="https://github.com/LogtalkDotOrg/logtalk3/tree/ee3e469ba16664bcc8b3b120a4a0bb7672d96db2/library/timeout/timeout.lgt#L125" xlink:title="calls">
<path fill="none" stroke="black" d="M108.73,-172.53C124.99,-153.26 151.31,-122.06 169.79,-100.15"/>
<polygon fill="black" stroke="black" points="172.67,-102.15 176.45,-92.25 167.32,-97.64 172.67,-102.15"/>
</a>
</g>
<g id="a_edge2&#45;label"><a xlink:href="https://github.com/LogtalkDotOrg/logtalk3/tree/ee3e469ba16664bcc8b3b120a4a0bb7672d96db2/library/timeout/timeout.lgt#L125" xlink:title="https://github.com/LogtalkDotOrg/logtalk3/tree/ee3e469ba16664bcc8b3b120a4a0bb7672d96db2/library/timeout/timeout.lgt#L125">
<text text-anchor="start" x="145" y="-129.8" font-family="Courier,monospace" font-size="9.00">calls</text>
</a>
</g>
</g>
</g>
</svg>
