<?xml version="1.0" encoding="UTF-8" standalone="no"?>
<!DOCTYPE svg PUBLIC "-//W3C//DTD SVG 1.1//EN"
 "http://www.w3.org/Graphics/SVG/1.1/DTD/svg11.dtd">
<!-- Generated by graphviz version 2.41.20190410.0829 (20190410.0829)
 -->
<!-- Title: timeout_object Pages: 1 -->
<svg width="432pt" height="405pt"
 viewBox="72.00 72.00 360.04 333.00" xmlns="http://www.w3.org/2000/svg" xmlns:xlink="http://www.w3.org/1999/xlink">
<g id="graph0" class="graph" transform="scale(1 1) rotate(0) translate(76 329)">
<title>timeout_object</title>
<polygon fill="white" stroke="transparent" points="-4,4 -4,-257 284.04,-257 284.04,4 -4,4"/>
<text text-anchor="start" x="8" y="-26" font-family="Courier,monospace" font-size="10.00" fill="dimgray">Logtalk library</text>
<text text-anchor="start" x="8" y="-16" font-family="Courier,monospace" font-size="10.00" fill="dimgray">Cross&#45;referencing diagram for object timeout</text>
<text text-anchor="start" x="8" y="-6" font-family="Courier,monospace" font-size="10.00" fill="dimgray">Generated on 2019/05/15, 12:09</text>
<g id="clust1" class="cluster">
<title>cluster_timeout_object</title>
<g id="a_clust1"><a xlink:title="timeout">
<path fill="snow" stroke="dimgray" d="M40.02,-46C40.02,-46 240.02,-46 240.02,-46 246.02,-46 252.02,-52 252.02,-58 252.02,-58 252.02,-233 252.02,-233 252.02,-239 246.02,-245 240.02,-245 240.02,-245 40.02,-245 40.02,-245 34.02,-245 28.02,-239 28.02,-233 28.02,-233 28.02,-58 28.02,-58 28.02,-52 34.02,-46 40.02,-46"/>
<g id="a_clust1_0"><a xlink:href="https://github.com/LogtalkDotOrg/logtalk3/tree/3e5a63e79e19a66fc40d97e60342939e1c74f4a7/library/timeout/timeout.lgt" xlink:title="https://github.com/LogtalkDotOrg/logtalk3/tree/3e5a63e79e19a66fc40d97e60342939e1c74f4a7/library/timeout/timeout.lgt">
<text text-anchor="start" x="40.02" y="-229" font-family="Courier,monospace" font-size="10.00" fill="dimgray">timeout</text>
</a>
</g>
</a>
</g>
</g>
<!-- call_with_timeout/2 -->
<g id="node1" class="node">
<title>call_with_timeout/2</title>
<g id="a_node1"><a xlink:href="https://github.com/LogtalkDotOrg/logtalk3/tree/3e5a63e79e19a66fc40d97e60342939e1c74f4a7/library/timeout/timeout.lgt#L33" xlink:title="https://github.com/LogtalkDotOrg/logtalk3/tree/3e5a63e79e19a66fc40d97e60342939e1c74f4a7/library/timeout/timeout.lgt#L33">
<polygon fill="springgreen" stroke="black" points="215.52,-209 64.52,-209 64.52,-173 215.52,-173 215.52,-209"/>
<text text-anchor="start" x="72.82" y="-192.8" font-family="Courier,monospace" font-size="9.00"> </text>
<text text-anchor="start" x="77.81" y="-192.2" font-family="Courier,monospace" font-size="11.00">call_with_timeout/2</text>
<text text-anchor="start" x="202.82" y="-192.8" font-family="Courier,monospace" font-size="9.00"> </text>
<text text-anchor="start" x="72.82" y="-182.8" font-family="Courier,monospace" font-size="9.00"> </text>
<text text-anchor="start" x="127.92" y="-183.4" font-family="Courier,monospace" font-size="7.00">public</text>
<text text-anchor="start" x="202.82" y="-182.8" font-family="Courier,monospace" font-size="9.00"> </text>
</a>
</g>
</g>
<!-- time:call_with_time_limit/2 -->
<g id="node2" class="node">
<title>time:call_with_time_limit/2</title>
<polygon fill="beige" stroke="black" stroke-dasharray="5,2" points="242.02,-92 38.02,-92 38.02,-56 242.02,-56 242.02,-92"/>
<text text-anchor="start" x="45.82" y="-75.8" font-family="Courier,monospace" font-size="9.00"> </text>
<text text-anchor="start" x="50.91" y="-75.2" font-family="Courier,monospace" font-size="11.00">time:call_with_time_limit/2</text>
<text text-anchor="start" x="228.82" y="-75.8" font-family="Courier,monospace" font-size="9.00"> </text>
<text text-anchor="start" x="45.82" y="-65.8" font-family="Courier,monospace" font-size="9.00"> </text>
<text text-anchor="start" x="123.22" y="-66.4" font-family="Courier,monospace" font-size="7.00">external</text>
<text text-anchor="start" x="228.82" y="-65.8" font-family="Courier,monospace" font-size="9.00"> </text>
</g>
<!-- call_with_timeout/2&#45;&gt;time:call_with_time_limit/2 -->
<g id="edge1" class="edge">
<title>call_with_timeout/2&#45;&gt;time:call_with_time_limit/2</title>
<g id="a_edge1"><a xlink:href="https://github.com/LogtalkDotOrg/logtalk3/tree/3e5a63e79e19a66fc40d97e60342939e1c74f4a7/library/timeout/timeout.lgt#L74" xlink:title="calls">
<path fill="none" stroke="black" d="M140.02,-172.53C140.02,-153.94 140.02,-124.24 140.02,-102.5"/>
<polygon fill="black" stroke="black" points="143.52,-102.25 140.02,-92.25 136.52,-102.25 143.52,-102.25"/>
</a>
</g>
<g id="a_edge1&#45;label"><a xlink:href="https://github.com/LogtalkDotOrg/logtalk3/tree/3e5a63e79e19a66fc40d97e60342939e1c74f4a7/library/timeout/timeout.lgt#L74" xlink:title="https://github.com/LogtalkDotOrg/logtalk3/tree/3e5a63e79e19a66fc40d97e60342939e1c74f4a7/library/timeout/timeout.lgt#L74">
<text text-anchor="start" x="140.02" y="-129.8" font-family="Courier,monospace" font-size="9.00">calls</text>
</a>
</g>
</g>
</g>
</svg>
