<?xml version="1.0" encoding="UTF-8" standalone="no"?>
<?xml-stylesheet href="diagrams.css" type="text/css"?>
<!DOCTYPE svg PUBLIC "-//W3C//DTD SVG 1.1//EN"
 "http://www.w3.org/Graphics/SVG/1.1/DTD/svg11.dtd">
<!-- Generated by graphviz version 10.0.1 (20240210.2158)
 -->
<!-- Title: timep_protocol Pages: 1 -->
<svg width="450pt" height="293pt"
 viewBox="72.00 72.00 378.00 221.00" xmlns="http://www.w3.org/2000/svg" xmlns:xlink="http://www.w3.org/1999/xlink">
<g id="graph0" class="graph" transform="scale(1 1) rotate(0) translate(76 217)">
<title>timep_protocol</title>
<polygon fill="white" stroke="none" points="-4,4 -4,-145 302,-145 302,4 -4,4"/>
<text text-anchor="start" x="8" y="-28.25" font-family="Monospace" font-size="10.00" fill="dimgray">Logtalk library</text>
<text text-anchor="start" x="8" y="-17" font-family="Monospace" font-size="10.00" fill="dimgray">Cross&#45;referencing diagram for protocol timep</text>
<text text-anchor="start" x="8" y="-5.75" font-family="Monospace" font-size="10.00" fill="dimgray">Generated on 2024&#45;02&#45;19, 20:01</text>
<g id="clust1" class="cluster">
<title>cluster_timep_protocol</title>
<g id="a_clust1"><a xlink:title="timep">
<path fill="snow" stroke="dimgray" d="M20,-49.75C20,-49.75 278,-49.75 278,-49.75 284,-49.75 290,-55.75 290,-61.75 290,-61.75 290,-121 290,-121 290,-127 284,-133 278,-133 278,-133 20,-133 20,-133 14,-133 8,-127 8,-121 8,-121 8,-61.75 8,-61.75 8,-55.75 14,-49.75 20,-49.75"/>
<g id="a_clust1_0"><a xlink:href="https://github.com/LogtalkDotOrg/logtalk3/tree/a6f88c98fc2d0765da91f95d3379d8715d1f66fc/library/dates/timep.lgt" xlink:title="https://github.com/LogtalkDotOrg/logtalk3/tree/a6f88c98fc2d0765da91f95d3379d8715d1f66fc/library/dates/timep.lgt">
<text text-anchor="start" x="20" y="-115.5" font-family="Monospace" font-size="10.00" fill="dimgray">timep</text>
</a>
</g>
</a>
</g>
</g>
<!-- now/3 -->
<g id="node1" class="node">
<title>now/3</title>
<g id="a_node1"><a xlink:href="https://github.com/LogtalkDotOrg/logtalk3/tree/a6f88c98fc2d0765da91f95d3379d8715d1f66fc/library/dates/timep.lgt#L32" xlink:title="https://github.com/LogtalkDotOrg/logtalk3/tree/a6f88c98fc2d0765da91f95d3379d8715d1f66fc/library/dates/timep.lgt#L32">
<polygon fill="springgreen" stroke="black" points="77.5,-95.75 18.5,-95.75 18.5,-59.75 77.5,-59.75 77.5,-95.75"/>
<text text-anchor="start" x="26.38" y="-78.58" font-family="Monospace" font-size="9.00"> </text>
<text text-anchor="start" x="31.12" y="-77.8" font-family="Monospace" font-size="11.00">now/3</text>
<text text-anchor="start" x="64.38" y="-78.58" font-family="Monospace" font-size="9.00"> </text>
<text text-anchor="start" x="26.38" y="-67.7" font-family="Monospace" font-size="9.00"> </text>
<text text-anchor="start" x="34.5" y="-69.22" font-family="Monospace" font-size="7.00">public</text>
<text text-anchor="start" x="64.38" y="-67.7" font-family="Monospace" font-size="9.00"> </text>
</a>
</g>
</g>
<!-- cpu_time/1 -->
<g id="node2" class="node">
<title>cpu_time/1</title>
<g id="a_node2"><a xlink:href="https://github.com/LogtalkDotOrg/logtalk3/tree/a6f88c98fc2d0765da91f95d3379d8715d1f66fc/library/dates/timep.lgt#L39" xlink:title="https://github.com/LogtalkDotOrg/logtalk3/tree/a6f88c98fc2d0765da91f95d3379d8715d1f66fc/library/dates/timep.lgt#L39">
<polygon fill="springgreen" stroke="black" points="188.5,-95.75 95.5,-95.75 95.5,-59.75 188.5,-59.75 188.5,-95.75"/>
<text text-anchor="start" x="103.38" y="-78.58" font-family="Monospace" font-size="9.00"> </text>
<text text-anchor="start" x="108.25" y="-77.8" font-family="Monospace" font-size="11.00">cpu_time/1</text>
<text text-anchor="start" x="175.38" y="-78.58" font-family="Monospace" font-size="9.00"> </text>
<text text-anchor="start" x="103.38" y="-67.7" font-family="Monospace" font-size="9.00"> </text>
<text text-anchor="start" x="128.5" y="-69.22" font-family="Monospace" font-size="7.00">public</text>
<text text-anchor="start" x="175.38" y="-67.7" font-family="Monospace" font-size="9.00"> </text>
</a>
</g>
</g>
<!-- valid/3 -->
<g id="node3" class="node">
<title>valid/3</title>
<g id="a_node3"><a xlink:href="https://github.com/LogtalkDotOrg/logtalk3/tree/a6f88c98fc2d0765da91f95d3379d8715d1f66fc/library/dates/timep.lgt#L46" xlink:title="https://github.com/LogtalkDotOrg/logtalk3/tree/a6f88c98fc2d0765da91f95d3379d8715d1f66fc/library/dates/timep.lgt#L46">
<polygon fill="springgreen" stroke="black" points="279.5,-95.75 206.5,-95.75 206.5,-59.75 279.5,-59.75 279.5,-95.75"/>
<text text-anchor="start" x="214.38" y="-78.58" font-family="Monospace" font-size="9.00"> </text>
<text text-anchor="start" x="219.38" y="-77.8" font-family="Monospace" font-size="11.00">valid/3</text>
<text text-anchor="start" x="266.38" y="-78.58" font-family="Monospace" font-size="9.00"> </text>
<text text-anchor="start" x="214.38" y="-67.7" font-family="Monospace" font-size="9.00"> </text>
<text text-anchor="start" x="229.5" y="-69.22" font-family="Monospace" font-size="7.00">public</text>
<text text-anchor="start" x="266.38" y="-67.7" font-family="Monospace" font-size="9.00"> </text>
</a>
</g>
</g>
</g>
</svg>
