<?xml version="1.0" encoding="UTF-8" standalone="no"?>
<!DOCTYPE svg PUBLIC "-//W3C//DTD SVG 1.1//EN"
 "http://www.w3.org/Graphics/SVG/1.1/DTD/svg11.dtd">
<!-- Generated by graphviz version 2.40.1 (20161225.0304)
 -->
<!-- Title: time_object Pages: 1 -->
<svg width="579pt" height="535pt"
 viewBox="72.00 72.00 507.00 462.85" xmlns="http://www.w3.org/2000/svg" xmlns:xlink="http://www.w3.org/1999/xlink">
<g id="graph0" class="graph" transform="scale(1 1) rotate(0) translate(76 458.8528)">
<title>time_object</title>
<polygon fill="#ffffff" stroke="transparent" points="-4,4 -4,-386.8528 431,-386.8528 431,4 -4,4"/>
<text text-anchor="start" x="8" y="-29" font-family="Courier,monospace" font-size="10.00" fill="#8b8989">Logtalk library</text>
<text text-anchor="start" x="8" y="-18" font-family="Courier,monospace" font-size="10.00" fill="#8b8989">Cross&#45;referencing diagram</text>
<text text-anchor="start" x="8" y="-7" font-family="Courier,monospace" font-size="10.00" fill="#8b8989">Generated on 2019/04/17, 17:20</text>
<g id="clust1" class="cluster">
<title>cluster_time_object</title>
<g id="a_clust1"><a xlink:href="https://github.com/LogtalkDotOrg/logtalk3/tree/master/library/time.lgt" xlink:title="https://github.com/LogtalkDotOrg/logtalk3/tree/master/library/time.lgt">
<path fill="#fffafa" stroke="#8b8989" d="M20,-49C20,-49 407,-49 407,-49 413,-49 419,-55 419,-61 419,-61 419,-362.8528 419,-362.8528 419,-368.8528 413,-374.8528 407,-374.8528 407,-374.8528 20,-374.8528 20,-374.8528 14,-374.8528 8,-368.8528 8,-362.8528 8,-362.8528 8,-61 8,-61 8,-55 14,-49 20,-49"/>
<text text-anchor="middle" x="28.5" y="-362.8528" font-family="Courier,monospace" font-size="10.00" fill="#8b8989">time</text>
</a>
</g>
</g>
<g id="clust2" class="cluster">
<title>cluster_other</title>
<g id="a_clust2"><a xlink:title="(external predicates)">
<path fill="#ffffff" stroke="#8b8989" d="M30,-59C30,-59 397,-59 397,-59 403,-59 409,-65 409,-71 409,-71 409,-128.4264 409,-128.4264 409,-134.4264 403,-140.4264 397,-140.4264 397,-140.4264 30,-140.4264 30,-140.4264 24,-140.4264 18,-134.4264 18,-128.4264 18,-128.4264 18,-71 18,-71 18,-65 24,-59 30,-59"/>
<text text-anchor="middle" x="89.5" y="-128.4264" font-family="Courier,monospace" font-size="10.00" fill="#8b8989">(external predicates)</text>
</a>
</g>
</g>
<!-- cpu_time/1 -->
<g id="node1" class="node">
<title>cpu_time/1</title>
<g id="a_node1"><a xlink:href="https://github.com/LogtalkDotOrg/logtalk3/tree/master/library/time.lgt#L35" xlink:title="https://github.com/LogtalkDotOrg/logtalk3/tree/master/library/time.lgt#L35">
<ellipse fill="#f5f5dc" stroke="#000000" cx="315" cy="-324.6396" rx="67.3507" ry="21.4286"/>
<text text-anchor="start" x="276" y="-327.4396" font-family="Courier,monospace" font-size="9.00" fill="#000000"> </text>
<text text-anchor="start" x="282" y="-326.8396" font-family="Courier,monospace" font-size="11.00" fill="#000000">cpu_time/1</text>
<text text-anchor="start" x="349" y="-327.4396" font-family="Courier,monospace" font-size="9.00" fill="#000000"> </text>
<text text-anchor="start" x="276" y="-316.4396" font-family="Courier,monospace" font-size="9.00" fill="#000000"> </text>
<text text-anchor="start" x="304.5" y="-317.0396" font-family="Courier,monospace" font-size="7.00" fill="#000000">local</text>
<text text-anchor="start" x="349" y="-316.4396" font-family="Courier,monospace" font-size="9.00" fill="#000000"> </text>
</a>
</g>
</g>
<!-- os::cpu_time/1 -->
<g id="node5" class="node">
<title>os::cpu_time/1</title>
<g id="a_node5"><a xlink:href="https://logtalk.org/library/os_0.html#cpu_time/1" xlink:title="https://logtalk.org/library/os_0.html#cpu_time/1">
<ellipse fill="#d3d3d3" stroke="#000000" stroke-dasharray="5,2" cx="313" cy="-90.2132" rx="85.6199" ry="21.4286"/>
<text text-anchor="start" x="261" y="-93.0132" font-family="Courier,monospace" font-size="9.00" fill="#000000"> </text>
<text text-anchor="start" x="267" y="-92.4132" font-family="Courier,monospace" font-size="11.00" fill="#000000">os::cpu_time/1</text>
<text text-anchor="start" x="360" y="-93.0132" font-family="Courier,monospace" font-size="9.00" fill="#000000"> </text>
<text text-anchor="start" x="261" y="-82.0132" font-family="Courier,monospace" font-size="9.00" fill="#000000"> </text>
<text text-anchor="start" x="296.5" y="-82.6132" font-family="Courier,monospace" font-size="7.00" fill="#000000">external</text>
<text text-anchor="start" x="360" y="-82.0132" font-family="Courier,monospace" font-size="9.00" fill="#000000"> </text>
</a>
</g>
</g>
<!-- cpu_time/1&#45;&gt;os::cpu_time/1 -->
<g id="edge2" class="edge">
<title>cpu_time/1&#45;&gt;os::cpu_time/1</title>
<g id="a_edge2"><a xlink:href="https://github.com/LogtalkDotOrg/logtalk3/tree/master/library/time.lgt#L35" xlink:title="calls">
<path fill="none" stroke="#000000" d="M314.819,-303.4224C314.4703,-262.5549 313.7032,-172.638 313.2852,-123.642"/>
<polygon fill="#000000" stroke="#000000" points="313.2845,-123.551 309.2334,-117.5853 313.182,-111.5514 313.2845,-123.551"/>
</a>
</g>
<g id="a_edge2&#45;label"><a xlink:href="https://github.com/LogtalkDotOrg/logtalk3/tree/master/library/time.lgt#L35" xlink:title="https://github.com/LogtalkDotOrg/logtalk3/tree/master/library/time.lgt#L35">
<text text-anchor="start" x="314" y="-205.2264" font-family="Courier,monospace" font-size="9.00" fill="#000000">calls</text>
</a>
</g>
</g>
<!-- now/3 -->
<g id="node2" class="node">
<title>now/3</title>
<g id="a_node2"><a xlink:href="https://github.com/LogtalkDotOrg/logtalk3/tree/master/library/time.lgt#L32" xlink:title="https://github.com/LogtalkDotOrg/logtalk3/tree/master/library/time.lgt#L32">
<ellipse fill="#f5f5dc" stroke="#000000" cx="186" cy="-324.6396" rx="43.6818" ry="21.4286"/>
<text text-anchor="start" x="163" y="-327.4396" font-family="Courier,monospace" font-size="9.00" fill="#000000"> </text>
<text text-anchor="start" x="169" y="-326.8396" font-family="Courier,monospace" font-size="11.00" fill="#000000">now/3</text>
<text text-anchor="start" x="203" y="-327.4396" font-family="Courier,monospace" font-size="9.00" fill="#000000"> </text>
<text text-anchor="start" x="163" y="-316.4396" font-family="Courier,monospace" font-size="9.00" fill="#000000"> </text>
<text text-anchor="start" x="175" y="-317.0396" font-family="Courier,monospace" font-size="7.00" fill="#000000">local</text>
<text text-anchor="start" x="203" y="-316.4396" font-family="Courier,monospace" font-size="9.00" fill="#000000"> </text>
</a>
</g>
</g>
<!-- os::date_time/7 -->
<g id="node4" class="node">
<title>os::date_time/7</title>
<g id="a_node4"><a xlink:href="https://logtalk.org/library/os_0.html#date_time/7" xlink:title="https://logtalk.org/library/os_0.html#date_time/7">
<ellipse fill="#d3d3d3" stroke="#000000" stroke-dasharray="5,2" cx="119" cy="-90.2132" rx="90.5193" ry="21.4286"/>
<text text-anchor="start" x="63" y="-93.0132" font-family="Courier,monospace" font-size="9.00" fill="#000000"> </text>
<text text-anchor="start" x="69" y="-92.4132" font-family="Courier,monospace" font-size="11.00" fill="#000000">os::date_time/7</text>
<text text-anchor="start" x="169" y="-93.0132" font-family="Courier,monospace" font-size="9.00" fill="#000000"> </text>
<text text-anchor="start" x="63" y="-82.0132" font-family="Courier,monospace" font-size="9.00" fill="#000000"> </text>
<text text-anchor="start" x="102" y="-82.6132" font-family="Courier,monospace" font-size="7.00" fill="#000000">external</text>
<text text-anchor="start" x="169" y="-82.0132" font-family="Courier,monospace" font-size="9.00" fill="#000000"> </text>
</a>
</g>
</g>
<!-- now/3&#45;&gt;os::date_time/7 -->
<g id="edge1" class="edge">
<title>now/3&#45;&gt;os::date_time/7</title>
<g id="a_edge1"><a xlink:href="https://github.com/LogtalkDotOrg/logtalk3/tree/master/library/time.lgt#L32" xlink:title="calls">
<path fill="none" stroke="#000000" d="M179.936,-303.4224C168.2311,-262.468 142.4479,-172.2551 128.4649,-123.3298"/>
<polygon fill="#000000" stroke="#000000" points="128.3962,-123.0894 122.9014,-118.4196 125.0985,-111.5514 128.3962,-123.0894"/>
</a>
</g>
<g id="a_edge1&#45;label"><a xlink:href="https://github.com/LogtalkDotOrg/logtalk3/tree/master/library/time.lgt#L32" xlink:title="https://github.com/LogtalkDotOrg/logtalk3/tree/master/library/time.lgt#L32">
<text text-anchor="start" x="153" y="-205.2264" font-family="Courier,monospace" font-size="9.00" fill="#000000">calls</text>
</a>
</g>
</g>
<!-- valid/3 -->
<g id="node3" class="node">
<title>valid/3</title>
<g id="a_node3"><a xlink:href="https://github.com/LogtalkDotOrg/logtalk3/tree/master/library/time.lgt#L38" xlink:title="https://github.com/LogtalkDotOrg/logtalk3/tree/master/library/time.lgt#L38">
<ellipse fill="#f5f5dc" stroke="#000000" cx="71" cy="-324.6396" rx="53.066" ry="21.4286"/>
<text text-anchor="start" x="42" y="-327.4396" font-family="Courier,monospace" font-size="9.00" fill="#000000"> </text>
<text text-anchor="start" x="48" y="-326.8396" font-family="Courier,monospace" font-size="11.00" fill="#000000">valid/3</text>
<text text-anchor="start" x="95" y="-327.4396" font-family="Courier,monospace" font-size="9.00" fill="#000000"> </text>
<text text-anchor="start" x="42" y="-316.4396" font-family="Courier,monospace" font-size="9.00" fill="#000000"> </text>
<text text-anchor="start" x="60.5" y="-317.0396" font-family="Courier,monospace" font-size="7.00" fill="#000000">local</text>
<text text-anchor="start" x="95" y="-316.4396" font-family="Courier,monospace" font-size="9.00" fill="#000000"> </text>
</a>
</g>
</g>
</g>
</svg>
