<?xml version="1.0" encoding="UTF-8" standalone="no"?>
<?xml-stylesheet href="diagrams.css" type="text/css"?>
<!DOCTYPE svg PUBLIC "-//W3C//DTD SVG 1.1//EN"
 "http://www.w3.org/Graphics/SVG/1.1/DTD/svg11.dtd">
<!-- Generated by graphviz version 2.49.3 (20211023.0002)
 -->
<!-- Title: timeout_object Pages: 1 -->
<svg width="469pt" height="410pt"
 viewBox="72.00 72.00 397.00 338.00" xmlns="http://www.w3.org/2000/svg" xmlns:xlink="http://www.w3.org/1999/xlink">
<g id="graph0" class="graph" transform="scale(1 1) rotate(0) translate(76 334)">
<title>timeout_object</title>
<polygon fill="white" stroke="transparent" points="-4,4 -4,-262 321,-262 321,4 -4,4"/>
<text text-anchor="start" x="8" y="-29" font-family="Courier,monospace" font-size="10.00" fill="dimgray">Logtalk library</text>
<text text-anchor="start" x="8" y="-18" font-family="Courier,monospace" font-size="10.00" fill="dimgray">Cross&#45;referencing diagram for object timeout</text>
<text text-anchor="start" x="8" y="-7" font-family="Courier,monospace" font-size="10.00" fill="dimgray">Generated on 2021&#45;11&#45;17, 12:12</text>
<g id="clust1" class="cluster">
<title>cluster_timeout_object</title>
<g id="a_clust1"><a xlink:title="timeout">
<path fill="snow" stroke="dimgray" d="M20,-49C20,-49 297,-49 297,-49 303,-49 309,-55 309,-61 309,-61 309,-238 309,-238 309,-244 303,-250 297,-250 297,-250 20,-250 20,-250 14,-250 8,-244 8,-238 8,-238 8,-61 8,-61 8,-55 14,-49 20,-49"/>
<g id="a_clust1_0"><a xlink:href="https://github.com/LogtalkDotOrg/logtalk3/tree/071a8ea54f71195e9aec1568b51726f3a39ac6b5/library/timeout/timeout.lgt" xlink:title="https://github.com/LogtalkDotOrg/logtalk3/tree/071a8ea54f71195e9aec1568b51726f3a39ac6b5/library/timeout/timeout.lgt">
<text text-anchor="start" x="20.5" y="-233.5" font-family="Courier,monospace" font-size="10.00" fill="dimgray">timeout</text>
</a>
</g>
</a>
</g>
</g>
<!-- call_with_timeout/2 -->
<g id="node1" class="node">
<title>call_with_timeout/2</title>
<g id="a_node1"><a xlink:href="https://github.com/LogtalkDotOrg/logtalk3/tree/071a8ea54f71195e9aec1568b51726f3a39ac6b5/library/timeout/timeout.lgt#L34" xlink:title="https://github.com/LogtalkDotOrg/logtalk3/tree/071a8ea54f71195e9aec1568b51726f3a39ac6b5/library/timeout/timeout.lgt#L34">
<polygon fill="springgreen" stroke="black" points="298.5,-213 167.5,-213 167.5,-177 298.5,-177 298.5,-213"/>
<text text-anchor="start" x="176" y="-197.8" font-family="Courier,monospace" font-size="9.00"> </text>
<text text-anchor="start" x="181" y="-197.2" font-family="Courier,monospace" font-size="11.00">call_with_timeout/2</text>
<text text-anchor="start" x="286" y="-197.8" font-family="Courier,monospace" font-size="9.00"> </text>
<text text-anchor="start" x="176" y="-186.8" font-family="Courier,monospace" font-size="9.00"> </text>
<text text-anchor="start" x="223" y="-187.4" font-family="Courier,monospace" font-size="7.00">public</text>
<text text-anchor="start" x="286" y="-186.8" font-family="Courier,monospace" font-size="9.00"> </text>
</a>
</g>
</g>
<!-- time:call_with_time_limit/2 -->
<g id="node3" class="node">
<title>time:call_with_time_limit/2</title>
<polygon fill="beige" stroke="black" stroke-dasharray="5,2" points="256.5,-95 81.5,-95 81.5,-59 256.5,-59 256.5,-95"/>
<text text-anchor="start" x="90" y="-79.8" font-family="Courier,monospace" font-size="9.00"> </text>
<text text-anchor="start" x="95" y="-79.2" font-family="Courier,monospace" font-size="11.00">time:call_with_time_limit/2</text>
<text text-anchor="start" x="244" y="-79.8" font-family="Courier,monospace" font-size="9.00"> </text>
<text text-anchor="start" x="90" y="-68.8" font-family="Courier,monospace" font-size="9.00"> </text>
<text text-anchor="start" x="155.5" y="-69.4" font-family="Courier,monospace" font-size="7.00">external</text>
<text text-anchor="start" x="244" y="-68.8" font-family="Courier,monospace" font-size="9.00"> </text>
</g>
<!-- call_with_timeout/2&#45;&gt;time:call_with_time_limit/2 -->
<g id="edge1" class="edge">
<title>call_with_timeout/2&#45;&gt;time:call_with_time_limit/2</title>
<g id="a_edge1"><a xlink:href="https://github.com/LogtalkDotOrg/logtalk3/tree/071a8ea54f71195e9aec1568b51726f3a39ac6b5/library/timeout/timeout.lgt#L119" xlink:title="calls">
<path fill="none" stroke="black" d="M223.56,-176.88C212.97,-157.69 195.68,-126.35 183.4,-104.1"/>
<polygon fill="black" stroke="black" points="186.38,-102.25 178.48,-95.19 180.25,-105.63 186.38,-102.25"/>
</a>
</g>
<g id="a_edge1&#45;label"><a xlink:href="https://github.com/LogtalkDotOrg/logtalk3/tree/071a8ea54f71195e9aec1568b51726f3a39ac6b5/library/timeout/timeout.lgt#L119" xlink:title="https://github.com/LogtalkDotOrg/logtalk3/tree/071a8ea54f71195e9aec1568b51726f3a39ac6b5/library/timeout/timeout.lgt#L119">
<text text-anchor="start" x="202" y="-133.8" font-family="Courier,monospace" font-size="9.00">calls</text>
</a>
</g>
</g>
<!-- call_with_timeout/3 -->
<g id="node2" class="node">
<title>call_with_timeout/3</title>
<g id="a_node2"><a xlink:href="https://github.com/LogtalkDotOrg/logtalk3/tree/071a8ea54f71195e9aec1568b51726f3a39ac6b5/library/timeout/timeout.lgt#L45" xlink:title="https://github.com/LogtalkDotOrg/logtalk3/tree/071a8ea54f71195e9aec1568b51726f3a39ac6b5/library/timeout/timeout.lgt#L45">
<polygon fill="springgreen" stroke="black" points="149.5,-213 18.5,-213 18.5,-177 149.5,-177 149.5,-213"/>
<text text-anchor="start" x="27" y="-197.8" font-family="Courier,monospace" font-size="9.00"> </text>
<text text-anchor="start" x="32" y="-197.2" font-family="Courier,monospace" font-size="11.00">call_with_timeout/3</text>
<text text-anchor="start" x="137" y="-197.8" font-family="Courier,monospace" font-size="9.00"> </text>
<text text-anchor="start" x="27" y="-186.8" font-family="Courier,monospace" font-size="9.00"> </text>
<text text-anchor="start" x="74" y="-187.4" font-family="Courier,monospace" font-size="7.00">public</text>
<text text-anchor="start" x="137" y="-186.8" font-family="Courier,monospace" font-size="9.00"> </text>
</a>
</g>
</g>
<!-- call_with_timeout/3&#45;&gt;time:call_with_time_limit/2 -->
<g id="edge2" class="edge">
<title>call_with_timeout/3&#45;&gt;time:call_with_time_limit/2</title>
<g id="a_edge2"><a xlink:href="https://github.com/LogtalkDotOrg/logtalk3/tree/071a8ea54f71195e9aec1568b51726f3a39ac6b5/library/timeout/timeout.lgt#L126" xlink:title="calls">
<path fill="none" stroke="black" d="M96.54,-176.88C110.73,-157.52 133.98,-125.79 150.31,-103.51"/>
<polygon fill="black" stroke="black" points="153.32,-105.32 156.41,-95.19 147.67,-101.18 153.32,-105.32"/>
</a>
</g>
<g id="a_edge2&#45;label"><a xlink:href="https://github.com/LogtalkDotOrg/logtalk3/tree/071a8ea54f71195e9aec1568b51726f3a39ac6b5/library/timeout/timeout.lgt#L126" xlink:title="https://github.com/LogtalkDotOrg/logtalk3/tree/071a8ea54f71195e9aec1568b51726f3a39ac6b5/library/timeout/timeout.lgt#L126">
<text text-anchor="start" x="129" y="-133.8" font-family="Courier,monospace" font-size="9.00">calls</text>
</a>
</g>
</g>
</g>
</svg>
