<?xml version="1.0" encoding="UTF-8" standalone="no"?>
<?xml-stylesheet href="diagrams.css" type="text/css"?>
<!DOCTYPE svg PUBLIC "-//W3C//DTD SVG 1.1//EN"
 "http://www.w3.org/Graphics/SVG/1.1/DTD/svg11.dtd">
<!-- Generated by graphviz version 7.0.1 (20221109.1506)
 -->
<!-- Title: ulid_protocol_protocol Pages: 1 -->
<svg width="481pt" height="292pt"
 viewBox="72.00 72.00 409.00 220.00" xmlns="http://www.w3.org/2000/svg" xmlns:xlink="http://www.w3.org/1999/xlink">
<g id="graph0" class="graph" transform="scale(1 1) rotate(0) translate(76 216)">
<title>ulid_protocol_protocol</title>
<polygon fill="white" stroke="none" points="-4,4 -4,-144 333,-144 333,4 -4,4"/>
<text text-anchor="start" x="8" y="-29" font-family="Monospace" font-size="10.00" fill="dimgray">Logtalk library</text>
<text text-anchor="start" x="8" y="-18" font-family="Monospace" font-size="10.00" fill="dimgray">Cross&#45;referencing diagram for protocol ulid_protocol</text>
<text text-anchor="start" x="8" y="-7" font-family="Monospace" font-size="10.00" fill="dimgray">Generated on 2023&#45;05&#45;16, 15:07</text>
<g id="clust1" class="cluster">
<title>cluster_ulid_protocol_protocol</title>
<g id="a_clust1"><a xlink:title="ulid_protocol">
<path fill="snow" stroke="dimgray" d="M61.5,-49C61.5,-49 267.5,-49 267.5,-49 273.5,-49 279.5,-55 279.5,-61 279.5,-61 279.5,-120 279.5,-120 279.5,-126 273.5,-132 267.5,-132 267.5,-132 61.5,-132 61.5,-132 55.5,-132 49.5,-126 49.5,-120 49.5,-120 49.5,-61 49.5,-61 49.5,-55 55.5,-49 61.5,-49"/>
<g id="a_clust1_0"><a xlink:href="https://github.com/LogtalkDotOrg/logtalk3/tree/92234d4855fcd6d824b43df718f8ce2eaa11fe41/library/ulid/ulid_protocol.lgt" xlink:title="https://github.com/LogtalkDotOrg/logtalk3/tree/92234d4855fcd6d824b43df718f8ce2eaa11fe41/library/ulid/ulid_protocol.lgt">
<text text-anchor="start" x="62" y="-115.5" font-family="Monospace" font-size="10.00" fill="dimgray">ulid_protocol</text>
</a>
</g>
</a>
</g>
</g>
<!-- generate/1 -->
<g id="node1" class="node">
<title>generate/1</title>
<g id="a_node1"><a xlink:href="https://github.com/LogtalkDotOrg/logtalk3/tree/92234d4855fcd6d824b43df718f8ce2eaa11fe41/library/ulid/ulid_protocol.lgt#L31" xlink:title="https://github.com/LogtalkDotOrg/logtalk3/tree/92234d4855fcd6d824b43df718f8ce2eaa11fe41/library/ulid/ulid_protocol.lgt#L31">
<polygon fill="springgreen" stroke="black" points="269.5,-95 173.5,-95 173.5,-59 269.5,-59 269.5,-95"/>
<text text-anchor="start" x="181.5" y="-79.8" font-family="Monospace" font-size="9.00"> </text>
<text text-anchor="start" x="187.5" y="-79.2" font-family="Monospace" font-size="11.00">generate/1</text>
<text text-anchor="start" x="255.5" y="-79.8" font-family="Monospace" font-size="9.00"> </text>
<text text-anchor="start" x="181.5" y="-68.8" font-family="Monospace" font-size="9.00"> </text>
<text text-anchor="start" x="207.5" y="-69.4" font-family="Monospace" font-size="7.00">public</text>
<text text-anchor="start" x="255.5" y="-68.8" font-family="Monospace" font-size="9.00"> </text>
</a>
</g>
</g>
<!-- generate/2 -->
<g id="node2" class="node">
<title>generate/2</title>
<g id="a_node2"><a xlink:href="https://github.com/LogtalkDotOrg/logtalk3/tree/92234d4855fcd6d824b43df718f8ce2eaa11fe41/library/ulid/ulid_protocol.lgt#L38" xlink:title="https://github.com/LogtalkDotOrg/logtalk3/tree/92234d4855fcd6d824b43df718f8ce2eaa11fe41/library/ulid/ulid_protocol.lgt#L38">
<polygon fill="springgreen" stroke="black" points="155.5,-95 59.5,-95 59.5,-59 155.5,-59 155.5,-95"/>
<text text-anchor="start" x="67.5" y="-79.8" font-family="Monospace" font-size="9.00"> </text>
<text text-anchor="start" x="73.5" y="-79.2" font-family="Monospace" font-size="11.00">generate/2</text>
<text text-anchor="start" x="141.5" y="-79.8" font-family="Monospace" font-size="9.00"> </text>
<text text-anchor="start" x="67.5" y="-68.8" font-family="Monospace" font-size="9.00"> </text>
<text text-anchor="start" x="93.5" y="-69.4" font-family="Monospace" font-size="7.00">public</text>
<text text-anchor="start" x="141.5" y="-68.8" font-family="Monospace" font-size="9.00"> </text>
</a>
</g>
</g>
</g>
</svg>
