<?xml version="1.0" encoding="UTF-8" standalone="no"?>
<?xml-stylesheet href="diagrams.css" type="text/css"?>
<!DOCTYPE svg PUBLIC "-//W3C//DTD SVG 1.1//EN"
 "http://www.w3.org/Graphics/SVG/1.1/DTD/svg11.dtd">
<!-- Generated by graphviz version 7.0.1 (20221109.1506)
 -->
<!-- Title: ulid_protocol_protocol Pages: 1 -->
<svg width="755pt" height="292pt"
 viewBox="72.00 72.00 683.00 220.00" xmlns="http://www.w3.org/2000/svg" xmlns:xlink="http://www.w3.org/1999/xlink">
<g id="graph0" class="graph" transform="scale(1 1) rotate(0) translate(76 216)">
<title>ulid_protocol_protocol</title>
<polygon fill="white" stroke="none" points="-4,4 -4,-144 607,-144 607,4 -4,4"/>
<text text-anchor="start" x="8" y="-29" font-family="Monospace" font-size="10.00" fill="dimgray">Logtalk library</text>
<text text-anchor="start" x="8" y="-18" font-family="Monospace" font-size="10.00" fill="dimgray">Cross&#45;referencing diagram for protocol ulid_protocol</text>
<text text-anchor="start" x="8" y="-7" font-family="Monospace" font-size="10.00" fill="dimgray">Generated on 2023&#45;07&#45;21, 15:22</text>
<g id="clust1" class="cluster">
<title>cluster_ulid_protocol_protocol</title>
<g id="a_clust1"><a xlink:title="ulid_protocol">
<path fill="snow" stroke="dimgray" d="M20,-49C20,-49 583,-49 583,-49 589,-49 595,-55 595,-61 595,-61 595,-120 595,-120 595,-126 589,-132 583,-132 583,-132 20,-132 20,-132 14,-132 8,-126 8,-120 8,-120 8,-61 8,-61 8,-55 14,-49 20,-49"/>
<g id="a_clust1_0"><a xlink:href="https://github.com/LogtalkDotOrg/logtalk3/tree/3d5773f5a57d84deadeb411a025f77bb383fec4d/library/ulid/ulid_protocol.lgt" xlink:title="https://github.com/LogtalkDotOrg/logtalk3/tree/3d5773f5a57d84deadeb411a025f77bb383fec4d/library/ulid/ulid_protocol.lgt">
<text text-anchor="start" x="20.5" y="-115.5" font-family="Monospace" font-size="10.00" fill="dimgray">ulid_protocol</text>
</a>
</g>
</a>
</g>
</g>
<!-- generate/1 -->
<g id="node1" class="node">
<title>generate/1</title>
<g id="a_node1"><a xlink:href="https://github.com/LogtalkDotOrg/logtalk3/tree/3d5773f5a57d84deadeb411a025f77bb383fec4d/library/ulid/ulid_protocol.lgt#L31" xlink:title="https://github.com/LogtalkDotOrg/logtalk3/tree/3d5773f5a57d84deadeb411a025f77bb383fec4d/library/ulid/ulid_protocol.lgt#L31">
<polygon fill="springgreen" stroke="black" points="585,-95 489,-95 489,-59 585,-59 585,-95"/>
<text text-anchor="start" x="497" y="-79.8" font-family="Monospace" font-size="9.00"> </text>
<text text-anchor="start" x="503" y="-79.2" font-family="Monospace" font-size="11.00">generate/1</text>
<text text-anchor="start" x="571" y="-79.8" font-family="Monospace" font-size="9.00"> </text>
<text text-anchor="start" x="497" y="-68.8" font-family="Monospace" font-size="9.00"> </text>
<text text-anchor="start" x="523" y="-69.4" font-family="Monospace" font-size="7.00">public</text>
<text text-anchor="start" x="571" y="-68.8" font-family="Monospace" font-size="9.00"> </text>
</a>
</g>
</g>
<!-- generate/2 -->
<g id="node2" class="node">
<title>generate/2</title>
<g id="a_node2"><a xlink:href="https://github.com/LogtalkDotOrg/logtalk3/tree/3d5773f5a57d84deadeb411a025f77bb383fec4d/library/ulid/ulid_protocol.lgt#L38" xlink:title="https://github.com/LogtalkDotOrg/logtalk3/tree/3d5773f5a57d84deadeb411a025f77bb383fec4d/library/ulid/ulid_protocol.lgt#L38">
<polygon fill="springgreen" stroke="black" points="471,-95 375,-95 375,-59 471,-59 471,-95"/>
<text text-anchor="start" x="383" y="-79.8" font-family="Monospace" font-size="9.00"> </text>
<text text-anchor="start" x="389" y="-79.2" font-family="Monospace" font-size="11.00">generate/2</text>
<text text-anchor="start" x="457" y="-79.8" font-family="Monospace" font-size="9.00"> </text>
<text text-anchor="start" x="383" y="-68.8" font-family="Monospace" font-size="9.00"> </text>
<text text-anchor="start" x="409" y="-69.4" font-family="Monospace" font-size="7.00">public</text>
<text text-anchor="start" x="457" y="-68.8" font-family="Monospace" font-size="9.00"> </text>
</a>
</g>
</g>
<!-- generate/8 -->
<g id="node3" class="node">
<title>generate/8</title>
<g id="a_node3"><a xlink:href="https://github.com/LogtalkDotOrg/logtalk3/tree/3d5773f5a57d84deadeb411a025f77bb383fec4d/library/ulid/ulid_protocol.lgt#L45" xlink:title="https://github.com/LogtalkDotOrg/logtalk3/tree/3d5773f5a57d84deadeb411a025f77bb383fec4d/library/ulid/ulid_protocol.lgt#L45">
<polygon fill="springgreen" stroke="black" points="357,-95 261,-95 261,-59 357,-59 357,-95"/>
<text text-anchor="start" x="269" y="-79.8" font-family="Monospace" font-size="9.00"> </text>
<text text-anchor="start" x="275" y="-79.2" font-family="Monospace" font-size="11.00">generate/8</text>
<text text-anchor="start" x="343" y="-79.8" font-family="Monospace" font-size="9.00"> </text>
<text text-anchor="start" x="269" y="-68.8" font-family="Monospace" font-size="9.00"> </text>
<text text-anchor="start" x="295" y="-69.4" font-family="Monospace" font-size="7.00">public</text>
<text text-anchor="start" x="343" y="-68.8" font-family="Monospace" font-size="9.00"> </text>
</a>
</g>
</g>
<!-- timestamp/2 -->
<g id="node4" class="node">
<title>timestamp/2</title>
<g id="a_node4"><a xlink:href="https://github.com/LogtalkDotOrg/logtalk3/tree/3d5773f5a57d84deadeb411a025f77bb383fec4d/library/ulid/ulid_protocol.lgt#L52" xlink:title="https://github.com/LogtalkDotOrg/logtalk3/tree/3d5773f5a57d84deadeb411a025f77bb383fec4d/library/ulid/ulid_protocol.lgt#L52">
<polygon fill="springgreen" stroke="black" points="242.5,-95 139.5,-95 139.5,-59 242.5,-59 242.5,-95"/>
<text text-anchor="start" x="148" y="-79.8" font-family="Monospace" font-size="9.00"> </text>
<text text-anchor="start" x="154" y="-79.2" font-family="Monospace" font-size="11.00">timestamp/2</text>
<text text-anchor="start" x="229" y="-79.8" font-family="Monospace" font-size="9.00"> </text>
<text text-anchor="start" x="148" y="-68.8" font-family="Monospace" font-size="9.00"> </text>
<text text-anchor="start" x="177.5" y="-69.4" font-family="Monospace" font-size="7.00">public</text>
<text text-anchor="start" x="229" y="-68.8" font-family="Monospace" font-size="9.00"> </text>
</a>
</g>
</g>
<!-- timestamp/8 -->
<g id="node5" class="node">
<title>timestamp/8</title>
<g id="a_node5"><a xlink:href="https://github.com/LogtalkDotOrg/logtalk3/tree/3d5773f5a57d84deadeb411a025f77bb383fec4d/library/ulid/ulid_protocol.lgt#L59" xlink:title="https://github.com/LogtalkDotOrg/logtalk3/tree/3d5773f5a57d84deadeb411a025f77bb383fec4d/library/ulid/ulid_protocol.lgt#L59">
<polygon fill="springgreen" stroke="black" points="121.5,-95 18.5,-95 18.5,-59 121.5,-59 121.5,-95"/>
<text text-anchor="start" x="27" y="-79.8" font-family="Monospace" font-size="9.00"> </text>
<text text-anchor="start" x="33" y="-79.2" font-family="Monospace" font-size="11.00">timestamp/8</text>
<text text-anchor="start" x="108" y="-79.8" font-family="Monospace" font-size="9.00"> </text>
<text text-anchor="start" x="27" y="-68.8" font-family="Monospace" font-size="9.00"> </text>
<text text-anchor="start" x="56.5" y="-69.4" font-family="Monospace" font-size="7.00">public</text>
<text text-anchor="start" x="108" y="-68.8" font-family="Monospace" font-size="9.00"> </text>
</a>
</g>
</g>
</g>
</svg>
