<?xml version="1.0" encoding="UTF-8" standalone="no"?>
<?xml-stylesheet href="diagrams.css" type="text/css"?>
<!DOCTYPE svg PUBLIC "-//W3C//DTD SVG 1.1//EN"
 "http://www.w3.org/Graphics/SVG/1.1/DTD/svg11.dtd">
<!-- Generated by graphviz version 7.0.1 (20221109.1506)
 -->
<!-- Title: ulid_protocol_protocol Pages: 1 -->
<svg width="481pt" height="292pt"
 viewBox="72.00 72.00 409.00 220.00" xmlns="http://www.w3.org/2000/svg" xmlns:xlink="http://www.w3.org/1999/xlink">
<g id="graph0" class="graph" transform="scale(1 1) rotate(0) translate(76 216)">
<title>ulid_protocol_protocol</title>
<polygon fill="white" stroke="none" points="-4,4 -4,-144 333,-144 333,4 -4,4"/>
<text text-anchor="start" x="8" y="-29" font-family="Monospace" font-size="10.00" fill="dimgray">Logtalk library</text>
<text text-anchor="start" x="8" y="-18" font-family="Monospace" font-size="10.00" fill="dimgray">Cross&#45;referencing diagram for protocol ulid_protocol</text>
<text text-anchor="start" x="8" y="-7" font-family="Monospace" font-size="10.00" fill="dimgray">Generated on 2023&#45;05&#45;16, 11:37</text>
<g id="clust1" class="cluster">
<title>cluster_ulid_protocol_protocol</title>
<g id="a_clust1"><a xlink:title="ulid_protocol">
<path fill="snow" stroke="dimgray" d="M118.5,-49C118.5,-49 210.5,-49 210.5,-49 216.5,-49 222.5,-55 222.5,-61 222.5,-61 222.5,-120 222.5,-120 222.5,-126 216.5,-132 210.5,-132 210.5,-132 118.5,-132 118.5,-132 112.5,-132 106.5,-126 106.5,-120 106.5,-120 106.5,-61 106.5,-61 106.5,-55 112.5,-49 118.5,-49"/>
<g id="a_clust1_0"><a xlink:href="https://github.com/LogtalkDotOrg/logtalk3/tree/05f96df99c5c0ae6dbb2e0c686f3d3bae08f74d9/library/ulid/ulid_protocol.lgt" xlink:title="https://github.com/LogtalkDotOrg/logtalk3/tree/05f96df99c5c0ae6dbb2e0c686f3d3bae08f74d9/library/ulid/ulid_protocol.lgt">
<text text-anchor="start" x="119" y="-115.5" font-family="Monospace" font-size="10.00" fill="dimgray">ulid_protocol</text>
</a>
</g>
</a>
</g>
</g>
<!-- generate/1 -->
<g id="node1" class="node">
<title>generate/1</title>
<g id="a_node1"><a xlink:href="https://github.com/LogtalkDotOrg/logtalk3/tree/05f96df99c5c0ae6dbb2e0c686f3d3bae08f74d9/library/ulid/ulid_protocol.lgt#L31" xlink:title="https://github.com/LogtalkDotOrg/logtalk3/tree/05f96df99c5c0ae6dbb2e0c686f3d3bae08f74d9/library/ulid/ulid_protocol.lgt#L31">
<polygon fill="springgreen" stroke="black" points="212.5,-95 116.5,-95 116.5,-59 212.5,-59 212.5,-95"/>
<text text-anchor="start" x="124.5" y="-79.8" font-family="Monospace" font-size="9.00"> </text>
<text text-anchor="start" x="130.5" y="-79.2" font-family="Monospace" font-size="11.00">generate/1</text>
<text text-anchor="start" x="198.5" y="-79.8" font-family="Monospace" font-size="9.00"> </text>
<text text-anchor="start" x="124.5" y="-68.8" font-family="Monospace" font-size="9.00"> </text>
<text text-anchor="start" x="150.5" y="-69.4" font-family="Monospace" font-size="7.00">public</text>
<text text-anchor="start" x="198.5" y="-68.8" font-family="Monospace" font-size="9.00"> </text>
</a>
</g>
</g>
</g>
</svg>
