<?xml version="1.0" encoding="UTF-8" standalone="no"?>
<?xml-stylesheet href="diagrams.css" type="text/css"?>
<!DOCTYPE svg PUBLIC "-//W3C//DTD SVG 1.1//EN"
 "http://www.w3.org/Graphics/SVG/1.1/DTD/svg11.dtd">
<!-- Generated by graphviz version 10.0.1 (20240210.2158)
 -->
<!-- Title: user_object Pages: 1 -->
<svg width="464pt" height="411pt"
 viewBox="72.00 72.00 392.00 338.75" xmlns="http://www.w3.org/2000/svg" xmlns:xlink="http://www.w3.org/1999/xlink">
<g id="graph0" class="graph" transform="scale(1 1) rotate(0) translate(76 334.75)">
<title>user_object</title>
<polygon fill="white" stroke="none" points="-4,4 -4,-262.75 316,-262.75 316,4 -4,4"/>
<text text-anchor="start" x="8" y="-28.25" font-family="Monospace" font-size="10.00" fill="dimgray">Logtalk core entities</text>
<text text-anchor="start" x="8" y="-17" font-family="Monospace" font-size="10.00" fill="dimgray">Cross&#45;referencing diagram for object user</text>
<text text-anchor="start" x="8" y="-5.75" font-family="Monospace" font-size="10.00" fill="dimgray">Generated on 2024&#45;02&#45;23, 15:46</text>
<g id="clust1" class="cluster">
<title>cluster_user_object</title>
<g id="a_clust1"><a xlink:title="user">
<path fill="snow" stroke="dimgray" d="M20,-49.75C20,-49.75 292,-49.75 292,-49.75 298,-49.75 304,-55.75 304,-61.75 304,-61.75 304,-238.75 304,-238.75 304,-244.75 298,-250.75 292,-250.75 292,-250.75 20,-250.75 20,-250.75 14,-250.75 8,-244.75 8,-238.75 8,-238.75 8,-61.75 8,-61.75 8,-55.75 14,-49.75 20,-49.75"/>
<g id="a_clust1_0"><a xlink:href="https://github.com/LogtalkDotOrg/logtalk3/tree/cef71da3d748b228dbb6378a36b6141099f12a7f/core/user.lgt" xlink:title="https://github.com/LogtalkDotOrg/logtalk3/tree/cef71da3d748b228dbb6378a36b6141099f12a7f/core/user.lgt">
<text text-anchor="start" x="20" y="-233.25" font-family="Monospace" font-size="10.00" fill="dimgray">user</text>
</a>
</g>
</a>
</g>
</g>
<!-- after/3 -->
<g id="node1" class="node">
<title>after/3</title>
<g id="a_node1"><a xlink:href="https://github.com/LogtalkDotOrg/logtalk3/tree/cef71da3d748b228dbb6378a36b6141099f12a7f/core/user.lgt#L57" xlink:title="https://github.com/LogtalkDotOrg/logtalk3/tree/cef71da3d748b228dbb6378a36b6141099f12a7f/core/user.lgt#L57">
<polygon fill="cornsilk" stroke="black" points="91.5,-213.5 18.5,-213.5 18.5,-177.5 91.5,-177.5 91.5,-213.5"/>
<text text-anchor="start" x="26.38" y="-196.32" font-family="Monospace" font-size="9.00"> </text>
<text text-anchor="start" x="31.38" y="-195.55" font-family="Monospace" font-size="11.00">after/3</text>
<text text-anchor="start" x="78.38" y="-196.32" font-family="Monospace" font-size="9.00"> </text>
<text text-anchor="start" x="26.38" y="-185.45" font-family="Monospace" font-size="9.00"> </text>
<text text-anchor="start" x="43.75" y="-186.97" font-family="Monospace" font-size="7.00">local</text>
<text text-anchor="start" x="78.38" y="-185.45" font-family="Monospace" font-size="9.00"> </text>
</a>
</g>
</g>
<!-- user::after/3 -->
<g id="node5" class="node">
<title>user::after/3</title>
<polygon fill="beige" stroke="black" stroke-dasharray="5,2" points="131.5,-95.75 18.5,-95.75 18.5,-59.75 131.5,-59.75 131.5,-95.75"/>
<text text-anchor="start" x="26.38" y="-78.58" font-family="Monospace" font-size="9.00"> </text>
<text text-anchor="start" x="31.12" y="-77.8" font-family="Monospace" font-size="11.00">user::after/3</text>
<text text-anchor="start" x="118.38" y="-78.58" font-family="Monospace" font-size="9.00"> </text>
<text text-anchor="start" x="26.38" y="-67.7" font-family="Monospace" font-size="9.00"> </text>
<text text-anchor="start" x="57" y="-69.22" font-family="Monospace" font-size="7.00">external</text>
<text text-anchor="start" x="118.38" y="-67.7" font-family="Monospace" font-size="9.00"> </text>
</g>
<!-- after/3&#45;&gt;user::after/3 -->
<g id="edge2" class="edge">
<title>after/3&#45;&gt;user::after/3</title>
<g id="a_edge2"><a xlink:href="https://github.com/LogtalkDotOrg/logtalk3/tree/cef71da3d748b228dbb6378a36b6141099f12a7f/core/user.lgt#L57" xlink:title="calls">
<path fill="none" stroke="black" d="M57.99,-177.17C61.18,-158.76 66.26,-129.35 70.04,-107.46"/>
<polygon fill="black" stroke="black" points="73.47,-108.14 71.73,-97.69 66.58,-106.95 73.47,-108.14"/>
</a>
</g>
<g id="a_edge2&#45;label"><a xlink:href="https://github.com/LogtalkDotOrg/logtalk3/tree/cef71da3d748b228dbb6378a36b6141099f12a7f/core/user.lgt#L57" xlink:title="https://github.com/LogtalkDotOrg/logtalk3/tree/cef71da3d748b228dbb6378a36b6141099f12a7f/core/user.lgt#L57">
<text text-anchor="start" x="65" y="-132.95" font-family="Monospace" font-size="9.00">calls</text>
</a>
</g>
</g>
<!-- before/3 -->
<g id="node2" class="node">
<title>before/3</title>
<g id="a_node2"><a xlink:href="https://github.com/LogtalkDotOrg/logtalk3/tree/cef71da3d748b228dbb6378a36b6141099f12a7f/core/user.lgt#L54" xlink:title="https://github.com/LogtalkDotOrg/logtalk3/tree/cef71da3d748b228dbb6378a36b6141099f12a7f/core/user.lgt#L54">
<polygon fill="cornsilk" stroke="black" points="190,-213.5 110,-213.5 110,-177.5 190,-177.5 190,-213.5"/>
<text text-anchor="start" x="117.88" y="-196.32" font-family="Monospace" font-size="9.00"> </text>
<text text-anchor="start" x="123" y="-195.55" font-family="Monospace" font-size="11.00">before/3</text>
<text text-anchor="start" x="176.88" y="-196.32" font-family="Monospace" font-size="9.00"> </text>
<text text-anchor="start" x="117.88" y="-185.45" font-family="Monospace" font-size="9.00"> </text>
<text text-anchor="start" x="138.75" y="-186.97" font-family="Monospace" font-size="7.00">local</text>
<text text-anchor="start" x="176.88" y="-185.45" font-family="Monospace" font-size="9.00"> </text>
</a>
</g>
</g>
<!-- user::before/3 -->
<g id="node4" class="node">
<title>user::before/3</title>
<polygon fill="beige" stroke="black" stroke-dasharray="5,2" points="270,-95.75 150,-95.75 150,-59.75 270,-59.75 270,-95.75"/>
<text text-anchor="start" x="157.88" y="-78.58" font-family="Monospace" font-size="9.00"> </text>
<text text-anchor="start" x="162.75" y="-77.8" font-family="Monospace" font-size="11.00">user::before/3</text>
<text text-anchor="start" x="256.88" y="-78.58" font-family="Monospace" font-size="9.00"> </text>
<text text-anchor="start" x="157.88" y="-67.7" font-family="Monospace" font-size="9.00"> </text>
<text text-anchor="start" x="192" y="-69.22" font-family="Monospace" font-size="7.00">external</text>
<text text-anchor="start" x="256.88" y="-67.7" font-family="Monospace" font-size="9.00"> </text>
</g>
<!-- before/3&#45;&gt;user::before/3 -->
<g id="edge1" class="edge">
<title>before/3&#45;&gt;user::before/3</title>
<g id="a_edge1"><a xlink:href="https://github.com/LogtalkDotOrg/logtalk3/tree/cef71da3d748b228dbb6378a36b6141099f12a7f/core/user.lgt#L54" xlink:title="calls">
<path fill="none" stroke="black" d="M158.98,-177.17C168.7,-158.42 184.34,-128.25 195.74,-106.25"/>
<polygon fill="black" stroke="black" points="198.76,-108.03 200.26,-97.54 192.55,-104.81 198.76,-108.03"/>
</a>
</g>
<g id="a_edge1&#45;label"><a xlink:href="https://github.com/LogtalkDotOrg/logtalk3/tree/cef71da3d748b228dbb6378a36b6141099f12a7f/core/user.lgt#L54" xlink:title="https://github.com/LogtalkDotOrg/logtalk3/tree/cef71da3d748b228dbb6378a36b6141099f12a7f/core/user.lgt#L54">
<text text-anchor="start" x="181" y="-132.95" font-family="Monospace" font-size="9.00">calls</text>
</a>
</g>
</g>
<!-- forward/1 -->
<g id="node3" class="node">
<title>forward/1</title>
<g id="a_node3"><a xlink:href="https://github.com/LogtalkDotOrg/logtalk3/tree/cef71da3d748b228dbb6378a36b6141099f12a7f/core/user.lgt#L48" xlink:title="https://github.com/LogtalkDotOrg/logtalk3/tree/cef71da3d748b228dbb6378a36b6141099f12a7f/core/user.lgt#L48">
<polygon fill="cornsilk" stroke="black" points="294,-213.5 208,-213.5 208,-177.5 294,-177.5 294,-213.5"/>
<text text-anchor="start" x="215.88" y="-196.32" font-family="Monospace" font-size="9.00"> </text>
<text text-anchor="start" x="220.62" y="-195.55" font-family="Monospace" font-size="11.00">forward/1</text>
<text text-anchor="start" x="280.88" y="-196.32" font-family="Monospace" font-size="9.00"> </text>
<text text-anchor="start" x="215.88" y="-185.45" font-family="Monospace" font-size="9.00"> </text>
<text text-anchor="start" x="239.75" y="-186.97" font-family="Monospace" font-size="7.00">local</text>
<text text-anchor="start" x="280.88" y="-185.45" font-family="Monospace" font-size="9.00"> </text>
</a>
</g>
</g>
</g>
</svg>
