<?xml version="1.0" encoding="UTF-8" standalone="no"?>
<?xml-stylesheet href="diagrams.css" type="text/css"?>
<!DOCTYPE svg PUBLIC "-//W3C//DTD SVG 1.1//EN"
 "http://www.w3.org/Graphics/SVG/1.1/DTD/svg11.dtd">
<!-- Generated by graphviz version 2.40.1 (20161225.0304)
 -->
<!-- Title: user_object Pages: 1 -->
<svg width="473pt" height="484pt"
 viewBox="72.00 72.00 401.00 412.00" xmlns="http://www.w3.org/2000/svg" xmlns:xlink="http://www.w3.org/1999/xlink">
<g id="graph0" class="graph" transform="scale(1 1) rotate(0) translate(76 408)">
<title>user_object</title>
<polygon fill="#ffffff" stroke="transparent" points="-4,4 -4,-336 325,-336 325,4 -4,4"/>
<text text-anchor="start" x="8" y="-29" font-family="Monospace" font-size="10.00" fill="#696969">Logtalk core entities</text>
<text text-anchor="start" x="8" y="-18" font-family="Monospace" font-size="10.00" fill="#696969">Cross&#45;referencing diagram for object user</text>
<text text-anchor="start" x="8" y="-7" font-family="Monospace" font-size="10.00" fill="#696969">Generated on 2023&#45;01&#45;01, 23:39</text>
<g id="clust1" class="cluster">
<title>cluster_user_object</title>
<g id="a_clust1"><a xlink:title="user">
<path fill="#fffafa" stroke="#696969" d="M20,-49C20,-49 301,-49 301,-49 307,-49 313,-55 313,-61 313,-61 313,-312 313,-312 313,-318 307,-324 301,-324 301,-324 20,-324 20,-324 14,-324 8,-318 8,-312 8,-312 8,-61 8,-61 8,-55 14,-49 20,-49"/>
<g id="a_clust1_0"><a xlink:href="https://github.com/LogtalkDotOrg/logtalk3/tree/934aee98ed3bc6654f203177f74af1b33a85d94c/core/user.lgt" xlink:title="https://github.com/LogtalkDotOrg/logtalk3/tree/934aee98ed3bc6654f203177f74af1b33a85d94c/core/user.lgt">
<text text-anchor="start" x="20.5" y="-307.5" font-family="Monospace" font-size="10.00" fill="#696969">user</text>
</a>
</g>
</a>
</g>
</g>
<!-- after/3 -->
<g id="node1" class="node">
<title>after/3</title>
<g id="a_node1"><a xlink:href="https://github.com/LogtalkDotOrg/logtalk3/tree/934aee98ed3bc6654f203177f74af1b33a85d94c/core/user.lgt#L57" xlink:title="https://github.com/LogtalkDotOrg/logtalk3/tree/934aee98ed3bc6654f203177f74af1b33a85d94c/core/user.lgt#L57">
<polygon fill="#fff8dc" stroke="#000000" points="303,-287 227,-287 227,-251 303,-251 303,-287"/>
<text text-anchor="start" x="235" y="-271.8" font-family="Monospace" font-size="9.00" fill="#000000"> </text>
<text text-anchor="start" x="241" y="-271.2" font-family="Monospace" font-size="11.00" fill="#000000">after/3</text>
<text text-anchor="start" x="289" y="-271.8" font-family="Monospace" font-size="9.00" fill="#000000"> </text>
<text text-anchor="start" x="235" y="-260.8" font-family="Monospace" font-size="9.00" fill="#000000"> </text>
<text text-anchor="start" x="253.5" y="-261.4" font-family="Monospace" font-size="7.00" fill="#000000">local</text>
<text text-anchor="start" x="289" y="-260.8" font-family="Monospace" font-size="9.00" fill="#000000"> </text>
</a>
</g>
</g>
<!-- user::after/3 -->
<g id="node5" class="node">
<title>user::after/3</title>
<polygon fill="#f5f5dc" stroke="#000000" stroke-dasharray="5,2" points="303,-95 187,-95 187,-59 303,-59 303,-95"/>
<text text-anchor="start" x="195" y="-79.8" font-family="Monospace" font-size="9.00" fill="#000000"> </text>
<text text-anchor="start" x="201" y="-79.2" font-family="Monospace" font-size="11.00" fill="#000000">user::after/3</text>
<text text-anchor="start" x="289" y="-79.8" font-family="Monospace" font-size="9.00" fill="#000000"> </text>
<text text-anchor="start" x="195" y="-68.8" font-family="Monospace" font-size="9.00" fill="#000000"> </text>
<text text-anchor="start" x="226.5" y="-69.4" font-family="Monospace" font-size="7.00" fill="#000000">external</text>
<text text-anchor="start" x="289" y="-68.8" font-family="Monospace" font-size="9.00" fill="#000000"> </text>
</g>
<!-- after/3&#45;&gt;user::after/3 -->
<g id="edge2" class="edge">
<title>after/3&#45;&gt;user::after/3</title>
<g id="a_edge2"><a xlink:href="https://github.com/LogtalkDotOrg/logtalk3/tree/934aee98ed3bc6654f203177f74af1b33a85d94c/core/user.lgt#L57" xlink:title="calls">
<path fill="none" stroke="#000000" d="M263.1184,-250.9371C259.6267,-217.4168 252.121,-145.3617 247.9489,-105.3098"/>
<polygon fill="#000000" stroke="#000000" points="251.4084,-104.7383 246.8911,-95.1548 244.4461,-105.4636 251.4084,-104.7383"/>
</a>
</g>
<g id="a_edge2&#45;label"><a xlink:href="https://github.com/LogtalkDotOrg/logtalk3/tree/934aee98ed3bc6654f203177f74af1b33a85d94c/core/user.lgt#L57" xlink:title="https://github.com/LogtalkDotOrg/logtalk3/tree/934aee98ed3bc6654f203177f74af1b33a85d94c/core/user.lgt#L57">
<text text-anchor="start" x="255" y="-170.8" font-family="Monospace" font-size="9.00" fill="#000000">calls</text>
</a>
</g>
</g>
<!-- before/3 -->
<g id="node2" class="node">
<title>before/3</title>
<g id="a_node2"><a xlink:href="https://github.com/LogtalkDotOrg/logtalk3/tree/934aee98ed3bc6654f203177f74af1b33a85d94c/core/user.lgt#L54" xlink:title="https://github.com/LogtalkDotOrg/logtalk3/tree/934aee98ed3bc6654f203177f74af1b33a85d94c/core/user.lgt#L54">
<polygon fill="#fff8dc" stroke="#000000" points="208.5,-287 125.5,-287 125.5,-251 208.5,-251 208.5,-287"/>
<text text-anchor="start" x="134" y="-271.8" font-family="Monospace" font-size="9.00" fill="#000000"> </text>
<text text-anchor="start" x="140" y="-271.2" font-family="Monospace" font-size="11.00" fill="#000000">before/3</text>
<text text-anchor="start" x="195" y="-271.8" font-family="Monospace" font-size="9.00" fill="#000000"> </text>
<text text-anchor="start" x="134" y="-260.8" font-family="Monospace" font-size="9.00" fill="#000000"> </text>
<text text-anchor="start" x="156" y="-261.4" font-family="Monospace" font-size="7.00" fill="#000000">local</text>
<text text-anchor="start" x="195" y="-260.8" font-family="Monospace" font-size="9.00" fill="#000000"> </text>
</a>
</g>
</g>
<!-- user::before/3 -->
<g id="node4" class="node">
<title>user::before/3</title>
<polygon fill="#f5f5dc" stroke="#000000" stroke-dasharray="5,2" points="168.5,-95 45.5,-95 45.5,-59 168.5,-59 168.5,-95"/>
<text text-anchor="start" x="54" y="-79.8" font-family="Monospace" font-size="9.00" fill="#000000"> </text>
<text text-anchor="start" x="60" y="-79.2" font-family="Monospace" font-size="11.00" fill="#000000">user::before/3</text>
<text text-anchor="start" x="155" y="-79.8" font-family="Monospace" font-size="9.00" fill="#000000"> </text>
<text text-anchor="start" x="54" y="-68.8" font-family="Monospace" font-size="9.00" fill="#000000"> </text>
<text text-anchor="start" x="89" y="-69.4" font-family="Monospace" font-size="7.00" fill="#000000">external</text>
<text text-anchor="start" x="155" y="-68.8" font-family="Monospace" font-size="9.00" fill="#000000"> </text>
</g>
<!-- before/3&#45;&gt;user::before/3 -->
<g id="edge1" class="edge">
<title>before/3&#45;&gt;user::before/3</title>
<g id="a_edge1"><a xlink:href="https://github.com/LogtalkDotOrg/logtalk3/tree/934aee98ed3bc6654f203177f74af1b33a85d94c/core/user.lgt#L54" xlink:title="calls">
<path fill="none" stroke="#000000" d="M161.3553,-250.9371C150.8356,-217.2738 128.1708,-144.7464 115.6872,-104.7991"/>
<polygon fill="#000000" stroke="#000000" points="118.9969,-103.6556 112.6734,-95.1548 112.3155,-105.7436 118.9969,-103.6556"/>
</a>
</g>
<g id="a_edge1&#45;label"><a xlink:href="https://github.com/LogtalkDotOrg/logtalk3/tree/934aee98ed3bc6654f203177f74af1b33a85d94c/core/user.lgt#L54" xlink:title="https://github.com/LogtalkDotOrg/logtalk3/tree/934aee98ed3bc6654f203177f74af1b33a85d94c/core/user.lgt#L54">
<text text-anchor="start" x="138" y="-170.8" font-family="Monospace" font-size="9.00" fill="#000000">calls</text>
</a>
</g>
</g>
<!-- forward/1 -->
<g id="node3" class="node">
<title>forward/1</title>
<g id="a_node3"><a xlink:href="https://github.com/LogtalkDotOrg/logtalk3/tree/934aee98ed3bc6654f203177f74af1b33a85d94c/core/user.lgt#L48" xlink:title="https://github.com/LogtalkDotOrg/logtalk3/tree/934aee98ed3bc6654f203177f74af1b33a85d94c/core/user.lgt#L48">
<polygon fill="#fff8dc" stroke="#000000" points="107.5,-287 18.5,-287 18.5,-251 107.5,-251 107.5,-287"/>
<text text-anchor="start" x="27" y="-271.8" font-family="Monospace" font-size="9.00" fill="#000000"> </text>
<text text-anchor="start" x="33" y="-271.2" font-family="Monospace" font-size="11.00" fill="#000000">forward/1</text>
<text text-anchor="start" x="94" y="-271.8" font-family="Monospace" font-size="9.00" fill="#000000"> </text>
<text text-anchor="start" x="27" y="-260.8" font-family="Monospace" font-size="9.00" fill="#000000"> </text>
<text text-anchor="start" x="52" y="-261.4" font-family="Monospace" font-size="7.00" fill="#000000">local</text>
<text text-anchor="start" x="94" y="-260.8" font-family="Monospace" font-size="9.00" fill="#000000"> </text>
</a>
</g>
</g>
</g>
</svg>
