<?xml version="1.0" encoding="UTF-8" standalone="no"?>
<?xml-stylesheet href="diagrams.css" type="text/css"?>
<!DOCTYPE svg PUBLIC "-//W3C//DTD SVG 1.1//EN"
 "http://www.w3.org/Graphics/SVG/1.1/DTD/svg11.dtd">
<!-- Generated by graphviz version 11.0.0 (20240428.1522)
 -->
<!-- Title: user_object Pages: 1 -->
<svg width="464pt" height="418pt"
 viewBox="72.00 72.00 392.00 346.25" xmlns="http://www.w3.org/2000/svg" xmlns:xlink="http://www.w3.org/1999/xlink">
<g id="graph0" class="graph" transform="scale(1 1) rotate(0) translate(76 342.25)">
<title>user_object</title>
<polygon fill="white" stroke="none" points="-4,4 -4,-270.25 316,-270.25 316,4 -4,4"/>
<text text-anchor="start" x="8" y="-32.75" font-family="Monospace" font-size="10.00" fill="dimgray">Logtalk core entities</text>
<text text-anchor="start" x="8" y="-20" font-family="Monospace" font-size="10.00" fill="dimgray">Cross&#45;referencing diagram for object user</text>
<text text-anchor="start" x="8" y="-7.25" font-family="Monospace" font-size="10.00" fill="dimgray">Generated on 2024&#45;06&#45;12, 02:10</text>
<g id="clust1" class="cluster">
<title>cluster_user_object</title>
<g id="a_clust1"><a xlink:title="user">
<path fill="snow" stroke="dimgray" d="M20,-54.25C20,-54.25 292,-54.25 292,-54.25 298,-54.25 304,-60.25 304,-66.25 304,-66.25 304,-246.25 304,-246.25 304,-252.25 298,-258.25 292,-258.25 292,-258.25 20,-258.25 20,-258.25 14,-258.25 8,-252.25 8,-246.25 8,-246.25 8,-66.25 8,-66.25 8,-60.25 14,-54.25 20,-54.25"/>
<g id="a_clust1_0"><a xlink:href="https://github.com/LogtalkDotOrg/logtalk3/tree/a18f1be0a84c69b89c891f11a24f6faf11adfced/core/user.lgt" xlink:title="https://github.com/LogtalkDotOrg/logtalk3/tree/a18f1be0a84c69b89c891f11a24f6faf11adfced/core/user.lgt">
<text text-anchor="start" x="20" y="-240.75" font-family="Monospace" font-size="10.00" fill="dimgray">user</text>
</a>
</g>
</a>
</g>
</g>
<!-- after/3 -->
<g id="node1" class="node">
<title>after/3</title>
<g id="a_node1"><a xlink:href="https://github.com/LogtalkDotOrg/logtalk3/tree/a18f1be0a84c69b89c891f11a24f6faf11adfced/core/user.lgt#L57" xlink:title="https://github.com/LogtalkDotOrg/logtalk3/tree/a18f1be0a84c69b89c891f11a24f6faf11adfced/core/user.lgt#L57">
<polygon fill="cornsilk" stroke="black" points="91.5,-219.5 18.5,-219.5 18.5,-183.5 91.5,-183.5 91.5,-219.5"/>
<text text-anchor="start" x="26.38" y="-204.07" font-family="Monospace" font-size="9.00"> </text>
<text text-anchor="start" x="31.38" y="-203.05" font-family="Monospace" font-size="11.00">after/3</text>
<text text-anchor="start" x="78.38" y="-204.07" font-family="Monospace" font-size="9.00"> </text>
<text text-anchor="start" x="26.38" y="-191.95" font-family="Monospace" font-size="9.00"> </text>
<text text-anchor="start" x="43.75" y="-192.85" font-family="Monospace" font-size="7.00">local</text>
<text text-anchor="start" x="78.38" y="-191.95" font-family="Monospace" font-size="9.00"> </text>
</a>
</g>
</g>
<!-- user::after/3 -->
<g id="node5" class="node">
<title>user::after/3</title>
<polygon fill="beige" stroke="black" stroke-dasharray="5,2" points="131.5,-100.25 18.5,-100.25 18.5,-64.25 131.5,-64.25 131.5,-100.25"/>
<text text-anchor="start" x="26.38" y="-84.83" font-family="Monospace" font-size="9.00"> </text>
<text text-anchor="start" x="31.12" y="-83.8" font-family="Monospace" font-size="11.00">user::after/3</text>
<text text-anchor="start" x="118.38" y="-84.83" font-family="Monospace" font-size="9.00"> </text>
<text text-anchor="start" x="26.38" y="-72.7" font-family="Monospace" font-size="9.00"> </text>
<text text-anchor="start" x="57" y="-73.6" font-family="Monospace" font-size="7.00">external</text>
<text text-anchor="start" x="118.38" y="-72.7" font-family="Monospace" font-size="9.00"> </text>
</g>
<!-- after/3&#45;&gt;user::after/3 -->
<g id="edge2" class="edge">
<title>after/3&#45;&gt;user::after/3</title>
<g id="a_edge2"><a xlink:href="https://github.com/LogtalkDotOrg/logtalk3/tree/a18f1be0a84c69b89c891f11a24f6faf11adfced/core/user.lgt#L57" xlink:title="calls">
<path fill="none" stroke="black" d="M57.95,-183.2C61.16,-164.41 66.33,-134.09 70.14,-111.77"/>
<polygon fill="black" stroke="black" points="73.55,-112.56 71.78,-102.11 66.65,-111.38 73.55,-112.56"/>
</a>
</g>
<g id="a_edge2&#45;label"><a xlink:href="https://github.com/LogtalkDotOrg/logtalk3/tree/a18f1be0a84c69b89c891f11a24f6faf11adfced/core/user.lgt#L57" xlink:title="https://github.com/LogtalkDotOrg/logtalk3/tree/a18f1be0a84c69b89c891f11a24f6faf11adfced/core/user.lgt#L57">
<text text-anchor="start" x="65" y="-138.95" font-family="Monospace" font-size="9.00">calls</text>
</a>
</g>
</g>
<!-- before/3 -->
<g id="node2" class="node">
<title>before/3</title>
<g id="a_node2"><a xlink:href="https://github.com/LogtalkDotOrg/logtalk3/tree/a18f1be0a84c69b89c891f11a24f6faf11adfced/core/user.lgt#L54" xlink:title="https://github.com/LogtalkDotOrg/logtalk3/tree/a18f1be0a84c69b89c891f11a24f6faf11adfced/core/user.lgt#L54">
<polygon fill="cornsilk" stroke="black" points="190,-219.5 110,-219.5 110,-183.5 190,-183.5 190,-219.5"/>
<text text-anchor="start" x="117.88" y="-204.07" font-family="Monospace" font-size="9.00"> </text>
<text text-anchor="start" x="123" y="-203.05" font-family="Monospace" font-size="11.00">before/3</text>
<text text-anchor="start" x="176.88" y="-204.07" font-family="Monospace" font-size="9.00"> </text>
<text text-anchor="start" x="117.88" y="-191.95" font-family="Monospace" font-size="9.00"> </text>
<text text-anchor="start" x="138.75" y="-192.85" font-family="Monospace" font-size="7.00">local</text>
<text text-anchor="start" x="176.88" y="-191.95" font-family="Monospace" font-size="9.00"> </text>
</a>
</g>
</g>
<!-- user::before/3 -->
<g id="node4" class="node">
<title>user::before/3</title>
<polygon fill="beige" stroke="black" stroke-dasharray="5,2" points="270,-100.25 150,-100.25 150,-64.25 270,-64.25 270,-100.25"/>
<text text-anchor="start" x="157.88" y="-84.83" font-family="Monospace" font-size="9.00"> </text>
<text text-anchor="start" x="162.75" y="-83.8" font-family="Monospace" font-size="11.00">user::before/3</text>
<text text-anchor="start" x="256.88" y="-84.83" font-family="Monospace" font-size="9.00"> </text>
<text text-anchor="start" x="157.88" y="-72.7" font-family="Monospace" font-size="9.00"> </text>
<text text-anchor="start" x="192" y="-73.6" font-family="Monospace" font-size="7.00">external</text>
<text text-anchor="start" x="256.88" y="-72.7" font-family="Monospace" font-size="9.00"> </text>
</g>
<!-- before/3&#45;&gt;user::before/3 -->
<g id="edge1" class="edge">
<title>before/3&#45;&gt;user::before/3</title>
<g id="a_edge1"><a xlink:href="https://github.com/LogtalkDotOrg/logtalk3/tree/a18f1be0a84c69b89c891f11a24f6faf11adfced/core/user.lgt#L54" xlink:title="calls">
<path fill="none" stroke="black" d="M158.85,-183.2C168.6,-164.15 184.41,-133.25 195.88,-110.85"/>
<polygon fill="black" stroke="black" points="198.98,-112.47 200.42,-101.97 192.75,-109.28 198.98,-112.47"/>
</a>
</g>
<g id="a_edge1&#45;label"><a xlink:href="https://github.com/LogtalkDotOrg/logtalk3/tree/a18f1be0a84c69b89c891f11a24f6faf11adfced/core/user.lgt#L54" xlink:title="https://github.com/LogtalkDotOrg/logtalk3/tree/a18f1be0a84c69b89c891f11a24f6faf11adfced/core/user.lgt#L54">
<text text-anchor="start" x="181" y="-138.95" font-family="Monospace" font-size="9.00">calls</text>
</a>
</g>
</g>
<!-- forward/1 -->
<g id="node3" class="node">
<title>forward/1</title>
<g id="a_node3"><a xlink:href="https://github.com/LogtalkDotOrg/logtalk3/tree/a18f1be0a84c69b89c891f11a24f6faf11adfced/core/user.lgt#L48" xlink:title="https://github.com/LogtalkDotOrg/logtalk3/tree/a18f1be0a84c69b89c891f11a24f6faf11adfced/core/user.lgt#L48">
<polygon fill="cornsilk" stroke="black" points="294,-219.5 208,-219.5 208,-183.5 294,-183.5 294,-219.5"/>
<text text-anchor="start" x="215.88" y="-204.07" font-family="Monospace" font-size="9.00"> </text>
<text text-anchor="start" x="220.62" y="-203.05" font-family="Monospace" font-size="11.00">forward/1</text>
<text text-anchor="start" x="280.88" y="-204.07" font-family="Monospace" font-size="9.00"> </text>
<text text-anchor="start" x="215.88" y="-191.95" font-family="Monospace" font-size="9.00"> </text>
<text text-anchor="start" x="239.75" y="-192.85" font-family="Monospace" font-size="7.00">local</text>
<text text-anchor="start" x="280.88" y="-191.95" font-family="Monospace" font-size="9.00"> </text>
</a>
</g>
</g>
</g>
</svg>
