<?xml version="1.0" encoding="UTF-8" standalone="no"?>
<!DOCTYPE svg PUBLIC "-//W3C//DTD SVG 1.1//EN"
 "http://www.w3.org/Graphics/SVG/1.1/DTD/svg11.dtd">
<!-- Generated by graphviz version 2.41.20190410.0829 (20190410.0829)
 -->
<!-- Title: user_object Pages: 1 -->
<svg width="414pt" height="288pt"
 viewBox="72.00 72.00 342.04 216.00" xmlns="http://www.w3.org/2000/svg" xmlns:xlink="http://www.w3.org/1999/xlink">
<g id="graph0" class="graph" transform="scale(1 1) rotate(0) translate(76 212)">
<title>user_object</title>
<polygon fill="white" stroke="transparent" points="-4,4 -4,-140 266.04,-140 266.04,4 -4,4"/>
<text text-anchor="start" x="8" y="-26" font-family="Courier,monospace" font-size="10.00" fill="dimgray">Logtalk core entities</text>
<text text-anchor="start" x="8" y="-16" font-family="Courier,monospace" font-size="10.00" fill="dimgray">Cross&#45;referencing diagram for object user</text>
<text text-anchor="start" x="8" y="-6" font-family="Courier,monospace" font-size="10.00" fill="dimgray">Generated on 2019/04/30, 21:17</text>
<g id="clust1" class="cluster">
<title>cluster_user_object</title>
<g id="a_clust1"><a xlink:title="user">
<path fill="snow" stroke="dimgray" d="M90.02,-46C90.02,-46 172.02,-46 172.02,-46 178.02,-46 184.02,-52 184.02,-58 184.02,-58 184.02,-116 184.02,-116 184.02,-122 178.02,-128 172.02,-128 172.02,-128 90.02,-128 90.02,-128 84.02,-128 78.02,-122 78.02,-116 78.02,-116 78.02,-58 78.02,-58 78.02,-52 84.02,-46 90.02,-46"/>
<g id="a_clust1_0"><a xlink:href="https://github.com/LogtalkDotOrg/logtalk3/tree/1315d59daabf0914486c3aa783090d6aa97b1fb7/core/user.lgt" xlink:title="https://github.com/LogtalkDotOrg/logtalk3/tree/1315d59daabf0914486c3aa783090d6aa97b1fb7/core/user.lgt">
<text text-anchor="start" x="90.02" y="-112" font-family="Courier,monospace" font-size="10.00" fill="dimgray">user</text>
</a>
</g>
</a>
</g>
</g>
<!-- forward/1 -->
<g id="node1" class="node">
<title>forward/1</title>
<g id="a_node1"><a xlink:href="https://github.com/LogtalkDotOrg/logtalk3/tree/1315d59daabf0914486c3aa783090d6aa97b1fb7/core/user.lgt#L44" xlink:title="https://github.com/LogtalkDotOrg/logtalk3/tree/1315d59daabf0914486c3aa783090d6aa97b1fb7/core/user.lgt#L44">
<polygon fill="cornsilk" stroke="black" points="173.52,-92 88.52,-92 88.52,-56 173.52,-56 173.52,-92"/>
<text text-anchor="start" x="96.82" y="-75.8" font-family="Courier,monospace" font-size="9.00"> </text>
<text text-anchor="start" x="101.82" y="-75.2" font-family="Courier,monospace" font-size="11.00">forward/1</text>
<text text-anchor="start" x="160.82" y="-75.8" font-family="Courier,monospace" font-size="9.00"> </text>
<text text-anchor="start" x="96.82" y="-65.8" font-family="Courier,monospace" font-size="9.00"> </text>
<text text-anchor="start" x="121.02" y="-66.4" font-family="Courier,monospace" font-size="7.00">local</text>
<text text-anchor="start" x="160.82" y="-65.8" font-family="Courier,monospace" font-size="9.00"> </text>
</a>
</g>
</g>
</g>
</svg>
