<?xml version="1.0" encoding="UTF-8" standalone="no"?>
<?xml-stylesheet href="diagrams.css" type="text/css"?>
<!DOCTYPE svg PUBLIC "-//W3C//DTD SVG 1.1//EN"
 "http://www.w3.org/Graphics/SVG/1.1/DTD/svg11.dtd">
<!-- Generated by graphviz version 2.49.3 (20211023.0002)
 -->
<!-- Title: user_object Pages: 1 -->
<svg width="469pt" height="292pt"
 viewBox="72.00 72.00 397.00 220.00" xmlns="http://www.w3.org/2000/svg" xmlns:xlink="http://www.w3.org/1999/xlink">
<g id="graph0" class="graph" transform="scale(1 1) rotate(0) translate(76 216)">
<title>user_object</title>
<polygon fill="white" stroke="transparent" points="-4,4 -4,-144 321,-144 321,4 -4,4"/>
<text text-anchor="start" x="8" y="-29" font-family="Monospace" font-size="10.00" fill="dimgray">Logtalk core entities</text>
<text text-anchor="start" x="8" y="-18" font-family="Monospace" font-size="10.00" fill="dimgray">Cross&#45;referencing diagram for object user</text>
<text text-anchor="start" x="8" y="-7" font-family="Monospace" font-size="10.00" fill="dimgray">Generated on 2021&#45;12&#45;14, 23:03</text>
<g id="clust1" class="cluster">
<title>cluster_user_object</title>
<g id="a_clust1"><a xlink:title="user">
<path fill="snow" stroke="dimgray" d="M20,-49C20,-49 297,-49 297,-49 303,-49 309,-55 309,-61 309,-61 309,-120 309,-120 309,-126 303,-132 297,-132 297,-132 20,-132 20,-132 14,-132 8,-126 8,-120 8,-120 8,-61 8,-61 8,-55 14,-49 20,-49"/>
<g id="a_clust1_0"><a xlink:href="https://github.com/LogtalkDotOrg/logtalk3/tree/842e88a2c11f73d952f6e9bbda2285f33ea741c1/core/user.lgt" xlink:title="https://github.com/LogtalkDotOrg/logtalk3/tree/842e88a2c11f73d952f6e9bbda2285f33ea741c1/core/user.lgt">
<text text-anchor="start" x="20.5" y="-115.5" font-family="Monospace" font-size="10.00" fill="dimgray">user</text>
</a>
</g>
</a>
</g>
</g>
<!-- forward/1 -->
<g id="node1" class="node">
<title>forward/1</title>
<g id="a_node1"><a xlink:href="https://github.com/LogtalkDotOrg/logtalk3/tree/842e88a2c11f73d952f6e9bbda2285f33ea741c1/core/user.lgt#L48" xlink:title="https://github.com/LogtalkDotOrg/logtalk3/tree/842e88a2c11f73d952f6e9bbda2285f33ea741c1/core/user.lgt#L48">
<polygon fill="cornsilk" stroke="black" points="299,-95 211,-95 211,-59 299,-59 299,-95"/>
<text text-anchor="start" x="219" y="-79.8" font-family="Monospace" font-size="9.00"> </text>
<text text-anchor="start" x="225" y="-79.2" font-family="Monospace" font-size="11.00">forward/1</text>
<text text-anchor="start" x="285" y="-79.8" font-family="Monospace" font-size="9.00"> </text>
<text text-anchor="start" x="219" y="-68.8" font-family="Monospace" font-size="9.00"> </text>
<text text-anchor="start" x="244" y="-69.4" font-family="Monospace" font-size="7.00">local</text>
<text text-anchor="start" x="285" y="-68.8" font-family="Monospace" font-size="9.00"> </text>
</a>
</g>
</g>
<!-- before/3 -->
<g id="node2" class="node">
<title>before/3</title>
<g id="a_node2"><a xlink:href="https://github.com/LogtalkDotOrg/logtalk3/tree/842e88a2c11f73d952f6e9bbda2285f33ea741c1/core/user.lgt#L54" xlink:title="https://github.com/LogtalkDotOrg/logtalk3/tree/842e88a2c11f73d952f6e9bbda2285f33ea741c1/core/user.lgt#L54">
<polygon fill="cornsilk" stroke="black" points="192.5,-95 111.5,-95 111.5,-59 192.5,-59 192.5,-95"/>
<text text-anchor="start" x="120" y="-79.8" font-family="Monospace" font-size="9.00"> </text>
<text text-anchor="start" x="126" y="-79.2" font-family="Monospace" font-size="11.00">before/3</text>
<text text-anchor="start" x="179" y="-79.8" font-family="Monospace" font-size="9.00"> </text>
<text text-anchor="start" x="120" y="-68.8" font-family="Monospace" font-size="9.00"> </text>
<text text-anchor="start" x="141.5" y="-69.4" font-family="Monospace" font-size="7.00">local</text>
<text text-anchor="start" x="179" y="-68.8" font-family="Monospace" font-size="9.00"> </text>
</a>
</g>
</g>
<!-- after/3 -->
<g id="node3" class="node">
<title>after/3</title>
<g id="a_node3"><a xlink:href="https://github.com/LogtalkDotOrg/logtalk3/tree/842e88a2c11f73d952f6e9bbda2285f33ea741c1/core/user.lgt#L57" xlink:title="https://github.com/LogtalkDotOrg/logtalk3/tree/842e88a2c11f73d952f6e9bbda2285f33ea741c1/core/user.lgt#L57">
<polygon fill="cornsilk" stroke="black" points="93.5,-95 18.5,-95 18.5,-59 93.5,-59 93.5,-95"/>
<text text-anchor="start" x="27" y="-79.8" font-family="Monospace" font-size="9.00"> </text>
<text text-anchor="start" x="33" y="-79.2" font-family="Monospace" font-size="11.00">after/3</text>
<text text-anchor="start" x="80" y="-79.8" font-family="Monospace" font-size="9.00"> </text>
<text text-anchor="start" x="27" y="-68.8" font-family="Monospace" font-size="9.00"> </text>
<text text-anchor="start" x="45.5" y="-69.4" font-family="Monospace" font-size="7.00">local</text>
<text text-anchor="start" x="80" y="-68.8" font-family="Monospace" font-size="9.00"> </text>
</a>
</g>
</g>
</g>
</svg>
