<?xml version="1.0" encoding="UTF-8" standalone="no"?>
<?xml-stylesheet href="diagrams.css" type="text/css"?>
<!DOCTYPE svg PUBLIC "-//W3C//DTD SVG 1.1//EN"
 "http://www.w3.org/Graphics/SVG/1.1/DTD/svg11.dtd">
<!-- Generated by graphviz version 2.43.20191029.1313 (20191029.1313)
 -->
<!-- Title: user_object Pages: 1 -->
<svg width="460pt" height="288pt"
 viewBox="72.00 72.00 388.00 216.00" xmlns="http://www.w3.org/2000/svg" xmlns:xlink="http://www.w3.org/1999/xlink">
<g id="graph0" class="graph" transform="scale(1 1) rotate(0) translate(76 212)">
<title>user_object</title>
<polygon fill="white" stroke="transparent" points="-4,4 -4,-140 312,-140 312,4 -4,4"/>
<text text-anchor="start" x="8" y="-26" font-family="Courier,monospace" font-size="10.00" fill="dimgray">Logtalk core entities</text>
<text text-anchor="start" x="8" y="-16" font-family="Courier,monospace" font-size="10.00" fill="dimgray">Cross&#45;referencing diagram for object user</text>
<text text-anchor="start" x="8" y="-6" font-family="Courier,monospace" font-size="10.00" fill="dimgray">Generated on 2020&#45;05&#45;25, 21:55</text>
<g id="clust1" class="cluster">
<title>cluster_user_object</title>
<g id="a_clust1"><a xlink:title="user">
<path fill="snow" stroke="dimgray" d="M20,-46C20,-46 288,-46 288,-46 294,-46 300,-52 300,-58 300,-58 300,-116 300,-116 300,-122 294,-128 288,-128 288,-128 20,-128 20,-128 14,-128 8,-122 8,-116 8,-116 8,-58 8,-58 8,-52 14,-46 20,-46"/>
<g id="a_clust1_0"><a xlink:href="https://github.com/LogtalkDotOrg/logtalk3/tree/ee3e469ba16664bcc8b3b120a4a0bb7672d96db2/core/user.lgt" xlink:title="https://github.com/LogtalkDotOrg/logtalk3/tree/ee3e469ba16664bcc8b3b120a4a0bb7672d96db2/core/user.lgt">
<text text-anchor="start" x="20" y="-112" font-family="Courier,monospace" font-size="10.00" fill="dimgray">user</text>
</a>
</g>
</a>
</g>
</g>
<!-- forward/1 -->
<g id="node1" class="node">
<title>forward/1</title>
<g id="a_node1"><a xlink:href="https://github.com/LogtalkDotOrg/logtalk3/tree/ee3e469ba16664bcc8b3b120a4a0bb7672d96db2/core/user.lgt#L44" xlink:title="https://github.com/LogtalkDotOrg/logtalk3/tree/ee3e469ba16664bcc8b3b120a4a0bb7672d96db2/core/user.lgt#L44">
<polygon fill="cornsilk" stroke="black" points="289.5,-92 204.5,-92 204.5,-56 289.5,-56 289.5,-92"/>
<text text-anchor="start" x="212.8" y="-75.8" font-family="Courier,monospace" font-size="9.00"> </text>
<text text-anchor="start" x="217.8" y="-75.2" font-family="Courier,monospace" font-size="11.00">forward/1</text>
<text text-anchor="start" x="276.8" y="-75.8" font-family="Courier,monospace" font-size="9.00"> </text>
<text text-anchor="start" x="212.8" y="-65.8" font-family="Courier,monospace" font-size="9.00"> </text>
<text text-anchor="start" x="237" y="-66.4" font-family="Courier,monospace" font-size="7.00">local</text>
<text text-anchor="start" x="276.8" y="-65.8" font-family="Courier,monospace" font-size="9.00"> </text>
</a>
</g>
</g>
<!-- before/3 -->
<g id="node2" class="node">
<title>before/3</title>
<g id="a_node2"><a xlink:href="https://github.com/LogtalkDotOrg/logtalk3/tree/ee3e469ba16664bcc8b3b120a4a0bb7672d96db2/core/user.lgt#L50" xlink:title="https://github.com/LogtalkDotOrg/logtalk3/tree/ee3e469ba16664bcc8b3b120a4a0bb7672d96db2/core/user.lgt#L50">
<polygon fill="cornsilk" stroke="black" points="186,-92 108,-92 108,-56 186,-56 186,-92"/>
<text text-anchor="start" x="115.8" y="-75.8" font-family="Courier,monospace" font-size="9.00"> </text>
<text text-anchor="start" x="120.6" y="-75.2" font-family="Courier,monospace" font-size="11.00">before/3</text>
<text text-anchor="start" x="172.8" y="-75.8" font-family="Courier,monospace" font-size="9.00"> </text>
<text text-anchor="start" x="115.8" y="-65.8" font-family="Courier,monospace" font-size="9.00"> </text>
<text text-anchor="start" x="136.5" y="-66.4" font-family="Courier,monospace" font-size="7.00">local</text>
<text text-anchor="start" x="172.8" y="-65.8" font-family="Courier,monospace" font-size="9.00"> </text>
</a>
</g>
</g>
<!-- after/3 -->
<g id="node3" class="node">
<title>after/3</title>
<g id="a_node3"><a xlink:href="https://github.com/LogtalkDotOrg/logtalk3/tree/ee3e469ba16664bcc8b3b120a4a0bb7672d96db2/core/user.lgt#L53" xlink:title="https://github.com/LogtalkDotOrg/logtalk3/tree/ee3e469ba16664bcc8b3b120a4a0bb7672d96db2/core/user.lgt#L53">
<polygon fill="cornsilk" stroke="black" points="90,-92 18,-92 18,-56 90,-56 90,-92"/>
<text text-anchor="start" x="25.8" y="-75.8" font-family="Courier,monospace" font-size="9.00"> </text>
<text text-anchor="start" x="30.9" y="-75.2" font-family="Courier,monospace" font-size="11.00">after/3</text>
<text text-anchor="start" x="76.8" y="-75.8" font-family="Courier,monospace" font-size="9.00"> </text>
<text text-anchor="start" x="25.8" y="-65.8" font-family="Courier,monospace" font-size="9.00"> </text>
<text text-anchor="start" x="43.5" y="-66.4" font-family="Courier,monospace" font-size="7.00">local</text>
<text text-anchor="start" x="76.8" y="-65.8" font-family="Courier,monospace" font-size="9.00"> </text>
</a>
</g>
</g>
</g>
</svg>
