<?xml version="1.0" encoding="UTF-8" standalone="no"?>
<?xml-stylesheet href="diagrams.css" type="text/css"?>
<!DOCTYPE svg PUBLIC "-//W3C//DTD SVG 1.1//EN"
 "http://www.w3.org/Graphics/SVG/1.1/DTD/svg11.dtd">
<!-- Generated by graphviz version 9.0.0 (20230911.1827)
 -->
<!-- Title: user_object Pages: 1 -->
<svg width="464pt" height="411pt"
 viewBox="72.00 72.00 392.00 338.75" xmlns="http://www.w3.org/2000/svg" xmlns:xlink="http://www.w3.org/1999/xlink">
<g id="graph0" class="graph" transform="scale(1 1) rotate(0) translate(76 334.75)">
<title>user_object</title>
<polygon fill="white" stroke="none" points="-4,4 -4,-262.75 316,-262.75 316,4 -4,4"/>
<text text-anchor="start" x="8" y="-28.25" font-family="Monospace" font-size="10.00" fill="dimgray">Logtalk core entities</text>
<text text-anchor="start" x="8" y="-17" font-family="Monospace" font-size="10.00" fill="dimgray">Cross&#45;referencing diagram for object user</text>
<text text-anchor="start" x="8" y="-5.75" font-family="Monospace" font-size="10.00" fill="dimgray">Generated on 2023&#45;11&#45;23, 15:28</text>
<g id="clust1" class="cluster">
<title>cluster_user_object</title>
<g id="a_clust1"><a xlink:title="user">
<path fill="snow" stroke="dimgray" d="M20,-49.75C20,-49.75 292,-49.75 292,-49.75 298,-49.75 304,-55.75 304,-61.75 304,-61.75 304,-238.75 304,-238.75 304,-244.75 298,-250.75 292,-250.75 292,-250.75 20,-250.75 20,-250.75 14,-250.75 8,-244.75 8,-238.75 8,-238.75 8,-61.75 8,-61.75 8,-55.75 14,-49.75 20,-49.75"/>
<g id="a_clust1_0"><a xlink:href="https://github.com/LogtalkDotOrg/logtalk3/tree/7646537fd70d4e97ac8d9978a0e2b791d4dad001/core/user.lgt" xlink:title="https://github.com/LogtalkDotOrg/logtalk3/tree/7646537fd70d4e97ac8d9978a0e2b791d4dad001/core/user.lgt">
<text text-anchor="start" x="20" y="-233.25" font-family="Monospace" font-size="10.00" fill="dimgray">user</text>
</a>
</g>
</a>
</g>
</g>
<!-- after/3 -->
<g id="node1" class="node">
<title>after/3</title>
<g id="a_node1"><a xlink:href="https://github.com/LogtalkDotOrg/logtalk3/tree/7646537fd70d4e97ac8d9978a0e2b791d4dad001/core/user.lgt#L57" xlink:title="https://github.com/LogtalkDotOrg/logtalk3/tree/7646537fd70d4e97ac8d9978a0e2b791d4dad001/core/user.lgt#L57">
<polygon fill="cornsilk" stroke="black" points="293.5,-213.5 220.5,-213.5 220.5,-177.5 293.5,-177.5 293.5,-213.5"/>
<text text-anchor="start" x="228.38" y="-196.32" font-family="Monospace" font-size="9.00"> </text>
<text text-anchor="start" x="233.38" y="-195.55" font-family="Monospace" font-size="11.00">after/3</text>
<text text-anchor="start" x="280.38" y="-196.32" font-family="Monospace" font-size="9.00"> </text>
<text text-anchor="start" x="228.38" y="-185.45" font-family="Monospace" font-size="9.00"> </text>
<text text-anchor="start" x="245.75" y="-186.97" font-family="Monospace" font-size="7.00">local</text>
<text text-anchor="start" x="280.38" y="-185.45" font-family="Monospace" font-size="9.00"> </text>
</a>
</g>
</g>
<!-- user::after/3 -->
<g id="node5" class="node">
<title>user::after/3</title>
<polygon fill="beige" stroke="black" stroke-dasharray="5,2" points="293.5,-95.75 180.5,-95.75 180.5,-59.75 293.5,-59.75 293.5,-95.75"/>
<text text-anchor="start" x="188.38" y="-78.58" font-family="Monospace" font-size="9.00"> </text>
<text text-anchor="start" x="193.12" y="-77.8" font-family="Monospace" font-size="11.00">user::after/3</text>
<text text-anchor="start" x="280.38" y="-78.58" font-family="Monospace" font-size="9.00"> </text>
<text text-anchor="start" x="188.38" y="-67.7" font-family="Monospace" font-size="9.00"> </text>
<text text-anchor="start" x="219" y="-69.22" font-family="Monospace" font-size="7.00">external</text>
<text text-anchor="start" x="280.38" y="-67.7" font-family="Monospace" font-size="9.00"> </text>
</g>
<!-- after/3&#45;&gt;user::after/3 -->
<g id="edge2" class="edge">
<title>after/3&#45;&gt;user::after/3</title>
<g id="a_edge2"><a xlink:href="https://github.com/LogtalkDotOrg/logtalk3/tree/7646537fd70d4e97ac8d9978a0e2b791d4dad001/core/user.lgt#L57" xlink:title="calls">
<path fill="none" stroke="black" d="M254.01,-177.17C250.82,-158.76 245.74,-129.35 241.96,-107.46"/>
<polygon fill="black" stroke="black" points="245.42,-106.95 240.27,-97.69 238.53,-108.14 245.42,-106.95"/>
</a>
</g>
<g id="a_edge2&#45;label"><a xlink:href="https://github.com/LogtalkDotOrg/logtalk3/tree/7646537fd70d4e97ac8d9978a0e2b791d4dad001/core/user.lgt#L57" xlink:title="https://github.com/LogtalkDotOrg/logtalk3/tree/7646537fd70d4e97ac8d9978a0e2b791d4dad001/core/user.lgt#L57">
<text text-anchor="start" x="247" y="-132.95" font-family="Monospace" font-size="9.00">calls</text>
</a>
</g>
</g>
<!-- before/3 -->
<g id="node2" class="node">
<title>before/3</title>
<g id="a_node2"><a xlink:href="https://github.com/LogtalkDotOrg/logtalk3/tree/7646537fd70d4e97ac8d9978a0e2b791d4dad001/core/user.lgt#L54" xlink:title="https://github.com/LogtalkDotOrg/logtalk3/tree/7646537fd70d4e97ac8d9978a0e2b791d4dad001/core/user.lgt#L54">
<polygon fill="cornsilk" stroke="black" points="202,-213.5 122,-213.5 122,-177.5 202,-177.5 202,-213.5"/>
<text text-anchor="start" x="129.88" y="-196.32" font-family="Monospace" font-size="9.00"> </text>
<text text-anchor="start" x="135" y="-195.55" font-family="Monospace" font-size="11.00">before/3</text>
<text text-anchor="start" x="188.88" y="-196.32" font-family="Monospace" font-size="9.00"> </text>
<text text-anchor="start" x="129.88" y="-185.45" font-family="Monospace" font-size="9.00"> </text>
<text text-anchor="start" x="150.75" y="-186.97" font-family="Monospace" font-size="7.00">local</text>
<text text-anchor="start" x="188.88" y="-185.45" font-family="Monospace" font-size="9.00"> </text>
</a>
</g>
</g>
<!-- user::before/3 -->
<g id="node4" class="node">
<title>user::before/3</title>
<polygon fill="beige" stroke="black" stroke-dasharray="5,2" points="162,-95.75 42,-95.75 42,-59.75 162,-59.75 162,-95.75"/>
<text text-anchor="start" x="49.88" y="-78.58" font-family="Monospace" font-size="9.00"> </text>
<text text-anchor="start" x="54.75" y="-77.8" font-family="Monospace" font-size="11.00">user::before/3</text>
<text text-anchor="start" x="148.88" y="-78.58" font-family="Monospace" font-size="9.00"> </text>
<text text-anchor="start" x="49.88" y="-67.7" font-family="Monospace" font-size="9.00"> </text>
<text text-anchor="start" x="84" y="-69.22" font-family="Monospace" font-size="7.00">external</text>
<text text-anchor="start" x="148.88" y="-67.7" font-family="Monospace" font-size="9.00"> </text>
</g>
<!-- before/3&#45;&gt;user::before/3 -->
<g id="edge1" class="edge">
<title>before/3&#45;&gt;user::before/3</title>
<g id="a_edge1"><a xlink:href="https://github.com/LogtalkDotOrg/logtalk3/tree/7646537fd70d4e97ac8d9978a0e2b791d4dad001/core/user.lgt#L54" xlink:title="calls">
<path fill="none" stroke="black" d="M153.02,-177.17C143.3,-158.42 127.66,-128.25 116.26,-106.25"/>
<polygon fill="black" stroke="black" points="119.45,-104.81 111.74,-97.54 113.24,-108.03 119.45,-104.81"/>
</a>
</g>
<g id="a_edge1&#45;label"><a xlink:href="https://github.com/LogtalkDotOrg/logtalk3/tree/7646537fd70d4e97ac8d9978a0e2b791d4dad001/core/user.lgt#L54" xlink:title="https://github.com/LogtalkDotOrg/logtalk3/tree/7646537fd70d4e97ac8d9978a0e2b791d4dad001/core/user.lgt#L54">
<text text-anchor="start" x="133" y="-132.95" font-family="Monospace" font-size="9.00">calls</text>
</a>
</g>
</g>
<!-- forward/1 -->
<g id="node3" class="node">
<title>forward/1</title>
<g id="a_node3"><a xlink:href="https://github.com/LogtalkDotOrg/logtalk3/tree/7646537fd70d4e97ac8d9978a0e2b791d4dad001/core/user.lgt#L48" xlink:title="https://github.com/LogtalkDotOrg/logtalk3/tree/7646537fd70d4e97ac8d9978a0e2b791d4dad001/core/user.lgt#L48">
<polygon fill="cornsilk" stroke="black" points="104,-213.5 18,-213.5 18,-177.5 104,-177.5 104,-213.5"/>
<text text-anchor="start" x="25.88" y="-196.32" font-family="Monospace" font-size="9.00"> </text>
<text text-anchor="start" x="30.62" y="-195.55" font-family="Monospace" font-size="11.00">forward/1</text>
<text text-anchor="start" x="90.88" y="-196.32" font-family="Monospace" font-size="9.00"> </text>
<text text-anchor="start" x="25.88" y="-185.45" font-family="Monospace" font-size="9.00"> </text>
<text text-anchor="start" x="49.75" y="-186.97" font-family="Monospace" font-size="7.00">local</text>
<text text-anchor="start" x="90.88" y="-185.45" font-family="Monospace" font-size="9.00"> </text>
</a>
</g>
</g>
</g>
</svg>
