<?xml version="1.0" encoding="UTF-8" standalone="no"?>
<!DOCTYPE svg PUBLIC "-//W3C//DTD SVG 1.1//EN"
 "http://www.w3.org/Graphics/SVG/1.1/DTD/svg11.dtd">
<!-- Generated by graphviz version 2.40.1 (20161225.0304)
 -->
<!-- Title: user_object Pages: 1 -->
<svg width="349pt" height="279pt"
 viewBox="72.00 72.00 277.00 207.43" xmlns="http://www.w3.org/2000/svg" xmlns:xlink="http://www.w3.org/1999/xlink">
<g id="graph0" class="graph" transform="scale(1 1) rotate(0) translate(76 203.4264)">
<title>user_object</title>
<polygon fill="#ffffff" stroke="transparent" points="-4,4 -4,-131.4264 201,-131.4264 201,4 -4,4"/>
<text text-anchor="start" x="8" y="-18" font-family="Courier,monospace" font-size="10.00" fill="#8b8989">Logtalk core entities</text>
<text text-anchor="start" x="8" y="-7" font-family="Courier,monospace" font-size="10.00" fill="#8b8989">Generated on 2019/04/08, 18:41</text>
<g id="clust1" class="cluster">
<title>cluster_user_object</title>
<g id="a_clust1"><a xlink:href="https://github.com/LogtalkDotOrg/logtalk3/tree/master/core/user.lgt" xlink:title="https://github.com/LogtalkDotOrg/logtalk3/tree/master/core/user.lgt">
<path fill="#fffafa" stroke="#8b8989" d="M38.5,-38C38.5,-38 158.5,-38 158.5,-38 164.5,-38 170.5,-44 170.5,-50 170.5,-50 170.5,-107.4264 170.5,-107.4264 170.5,-113.4264 164.5,-119.4264 158.5,-119.4264 158.5,-119.4264 38.5,-119.4264 38.5,-119.4264 32.5,-119.4264 26.5,-113.4264 26.5,-107.4264 26.5,-107.4264 26.5,-50 26.5,-50 26.5,-44 32.5,-38 38.5,-38"/>
<text text-anchor="middle" x="47" y="-107.4264" font-family="Courier,monospace" font-size="10.00" fill="#8b8989">user</text>
</a>
</g>
</g>
<!-- forward/1 -->
<g id="node1" class="node">
<title>forward/1</title>
<ellipse fill="#f5f5dc" stroke="#000000" cx="98.5" cy="-69.2132" rx="62.4516" ry="21.4286"/>
<text text-anchor="start" x="62.5" y="-72.0132" font-family="Courier,monospace" font-size="9.00" fill="#000000"> </text>
<text text-anchor="start" x="68.5" y="-71.4132" font-family="Courier,monospace" font-size="11.00" fill="#000000">forward/1</text>
<text text-anchor="start" x="128.5" y="-72.0132" font-family="Courier,monospace" font-size="9.00" fill="#000000"> </text>
<text text-anchor="start" x="62.5" y="-61.0132" font-family="Courier,monospace" font-size="9.00" fill="#000000"> </text>
<text text-anchor="start" x="87.5" y="-61.6132" font-family="Courier,monospace" font-size="7.00" fill="#000000">local</text>
<text text-anchor="start" x="128.5" y="-61.0132" font-family="Courier,monospace" font-size="9.00" fill="#000000"> </text>
</g>
</g>
</svg>
