<?xml version="1.0" encoding="UTF-8" standalone="no"?>
<?xml-stylesheet href="diagrams.css" type="text/css"?>
<!DOCTYPE svg PUBLIC "-//W3C//DTD SVG 1.1//EN"
 "http://www.w3.org/Graphics/SVG/1.1/DTD/svg11.dtd">
<!-- Generated by graphviz version 2.49.3 (20211023.0002)
 -->
<!-- Title: user_object Pages: 1 -->
<svg width="436pt" height="292pt"
 viewBox="72.00 72.00 364.00 220.00" xmlns="http://www.w3.org/2000/svg" xmlns:xlink="http://www.w3.org/1999/xlink">
<g id="graph0" class="graph" transform="scale(1 1) rotate(0) translate(76 216)">
<title>user_object</title>
<polygon fill="white" stroke="transparent" points="-4,4 -4,-144 288,-144 288,4 -4,4"/>
<text text-anchor="start" x="8" y="-29" font-family="Courier,monospace" font-size="10.00" fill="dimgray">Logtalk core entities</text>
<text text-anchor="start" x="8" y="-18" font-family="Courier,monospace" font-size="10.00" fill="dimgray">Cross&#45;referencing diagram for object user</text>
<text text-anchor="start" x="8" y="-7" font-family="Courier,monospace" font-size="10.00" fill="dimgray">Generated on 2021&#45;11&#45;13, 18:29</text>
<g id="clust1" class="cluster">
<title>cluster_user_object</title>
<g id="a_clust1"><a xlink:title="user">
<path fill="snow" stroke="dimgray" d="M20,-49C20,-49 264,-49 264,-49 270,-49 276,-55 276,-61 276,-61 276,-120 276,-120 276,-126 270,-132 264,-132 264,-132 20,-132 20,-132 14,-132 8,-126 8,-120 8,-120 8,-61 8,-61 8,-55 14,-49 20,-49"/>
<g id="a_clust1_0"><a xlink:href="https://github.com/LogtalkDotOrg/logtalk3/tree/9faf5dbd41dcda13eefe9bff6f1dfa22e6d84b6c/core/user.lgt" xlink:title="https://github.com/LogtalkDotOrg/logtalk3/tree/9faf5dbd41dcda13eefe9bff6f1dfa22e6d84b6c/core/user.lgt">
<text text-anchor="start" x="20" y="-115.5" font-family="Courier,monospace" font-size="10.00" fill="dimgray">user</text>
</a>
</g>
</a>
</g>
</g>
<!-- forward/1 -->
<g id="node1" class="node">
<title>forward/1</title>
<g id="a_node1"><a xlink:href="https://github.com/LogtalkDotOrg/logtalk3/tree/9faf5dbd41dcda13eefe9bff6f1dfa22e6d84b6c/core/user.lgt#L47" xlink:title="https://github.com/LogtalkDotOrg/logtalk3/tree/9faf5dbd41dcda13eefe9bff6f1dfa22e6d84b6c/core/user.lgt#L47">
<polygon fill="cornsilk" stroke="black" points="266,-95 190,-95 190,-59 266,-59 266,-95"/>
<text text-anchor="start" x="198" y="-79.8" font-family="Courier,monospace" font-size="9.00"> </text>
<text text-anchor="start" x="203" y="-79.2" font-family="Courier,monospace" font-size="11.00">forward/1</text>
<text text-anchor="start" x="253" y="-79.8" font-family="Courier,monospace" font-size="9.00"> </text>
<text text-anchor="start" x="198" y="-68.8" font-family="Courier,monospace" font-size="9.00"> </text>
<text text-anchor="start" x="219" y="-69.4" font-family="Courier,monospace" font-size="7.00">local</text>
<text text-anchor="start" x="253" y="-68.8" font-family="Courier,monospace" font-size="9.00"> </text>
</a>
</g>
</g>
<!-- before/3 -->
<g id="node2" class="node">
<title>before/3</title>
<g id="a_node2"><a xlink:href="https://github.com/LogtalkDotOrg/logtalk3/tree/9faf5dbd41dcda13eefe9bff6f1dfa22e6d84b6c/core/user.lgt#L53" xlink:title="https://github.com/LogtalkDotOrg/logtalk3/tree/9faf5dbd41dcda13eefe9bff6f1dfa22e6d84b6c/core/user.lgt#L53">
<polygon fill="cornsilk" stroke="black" points="172,-95 102,-95 102,-59 172,-59 172,-95"/>
<text text-anchor="start" x="110" y="-79.8" font-family="Courier,monospace" font-size="9.00"> </text>
<text text-anchor="start" x="115" y="-79.2" font-family="Courier,monospace" font-size="11.00">before/3</text>
<text text-anchor="start" x="159" y="-79.8" font-family="Courier,monospace" font-size="9.00"> </text>
<text text-anchor="start" x="110" y="-68.8" font-family="Courier,monospace" font-size="9.00"> </text>
<text text-anchor="start" x="128" y="-69.4" font-family="Courier,monospace" font-size="7.00">local</text>
<text text-anchor="start" x="159" y="-68.8" font-family="Courier,monospace" font-size="9.00"> </text>
</a>
</g>
</g>
<!-- after/3 -->
<g id="node3" class="node">
<title>after/3</title>
<g id="a_node3"><a xlink:href="https://github.com/LogtalkDotOrg/logtalk3/tree/9faf5dbd41dcda13eefe9bff6f1dfa22e6d84b6c/core/user.lgt#L56" xlink:title="https://github.com/LogtalkDotOrg/logtalk3/tree/9faf5dbd41dcda13eefe9bff6f1dfa22e6d84b6c/core/user.lgt#L56">
<polygon fill="cornsilk" stroke="black" points="83.5,-95 18.5,-95 18.5,-59 83.5,-59 83.5,-95"/>
<text text-anchor="start" x="27" y="-79.8" font-family="Courier,monospace" font-size="9.00"> </text>
<text text-anchor="start" x="32" y="-79.2" font-family="Courier,monospace" font-size="11.00">after/3</text>
<text text-anchor="start" x="71" y="-79.8" font-family="Courier,monospace" font-size="9.00"> </text>
<text text-anchor="start" x="27" y="-68.8" font-family="Courier,monospace" font-size="9.00"> </text>
<text text-anchor="start" x="42.5" y="-69.4" font-family="Courier,monospace" font-size="7.00">local</text>
<text text-anchor="start" x="71" y="-68.8" font-family="Courier,monospace" font-size="9.00"> </text>
</a>
</g>
</g>
</g>
</svg>
