<?xml version="1.0" encoding="UTF-8" standalone="no"?>
<?xml-stylesheet href="diagrams.css" type="text/css"?>
<!DOCTYPE svg PUBLIC "-//W3C//DTD SVG 1.1//EN"
 "http://www.w3.org/Graphics/SVG/1.1/DTD/svg11.dtd">
<!-- Generated by graphviz version 2.50.0 (20211204.2007)
 -->
<!-- Title: user_object Pages: 1 -->
<svg width="473pt" height="292pt"
 viewBox="72.00 72.00 401.00 220.00" xmlns="http://www.w3.org/2000/svg" xmlns:xlink="http://www.w3.org/1999/xlink">
<g id="graph0" class="graph" transform="scale(1 1) rotate(0) translate(76 216)">
<title>user_object</title>
<polygon fill="white" stroke="transparent" points="-4,4 -4,-144 325,-144 325,4 -4,4"/>
<text text-anchor="start" x="8" y="-29" font-family="Monospace" font-size="10.00" fill="dimgray">Logtalk core entities</text>
<text text-anchor="start" x="8" y="-18" font-family="Monospace" font-size="10.00" fill="dimgray">Cross&#45;referencing diagram for object user</text>
<text text-anchor="start" x="8" y="-7" font-family="Monospace" font-size="10.00" fill="dimgray">Generated on 2022&#45;06&#45;15, 09:15</text>
<g id="clust1" class="cluster">
<title>cluster_user_object</title>
<g id="a_clust1"><a xlink:title="user">
<path fill="snow" stroke="dimgray" d="M20,-49C20,-49 301,-49 301,-49 307,-49 313,-55 313,-61 313,-61 313,-120 313,-120 313,-126 307,-132 301,-132 301,-132 20,-132 20,-132 14,-132 8,-126 8,-120 8,-120 8,-61 8,-61 8,-55 14,-49 20,-49"/>
<g id="a_clust1_0"><a xlink:href="https://github.com/LogtalkDotOrg/logtalk3/tree/7d2f24e758be609634f4275c174f2b37e3d82e23/core/user.lgt" xlink:title="https://github.com/LogtalkDotOrg/logtalk3/tree/7d2f24e758be609634f4275c174f2b37e3d82e23/core/user.lgt">
<text text-anchor="start" x="20.5" y="-115.5" font-family="Monospace" font-size="10.00" fill="dimgray">user</text>
</a>
</g>
</a>
</g>
</g>
<!-- forward/1 -->
<g id="node1" class="node">
<title>forward/1</title>
<g id="a_node1"><a xlink:href="https://github.com/LogtalkDotOrg/logtalk3/tree/7d2f24e758be609634f4275c174f2b37e3d82e23/core/user.lgt#L48" xlink:title="https://github.com/LogtalkDotOrg/logtalk3/tree/7d2f24e758be609634f4275c174f2b37e3d82e23/core/user.lgt#L48">
<polygon fill="cornsilk" stroke="black" points="302.5,-95 213.5,-95 213.5,-59 302.5,-59 302.5,-95"/>
<text text-anchor="start" x="222" y="-79.8" font-family="Monospace" font-size="9.00"> </text>
<text text-anchor="start" x="228" y="-79.2" font-family="Monospace" font-size="11.00">forward/1</text>
<text text-anchor="start" x="289" y="-79.8" font-family="Monospace" font-size="9.00"> </text>
<text text-anchor="start" x="222" y="-68.8" font-family="Monospace" font-size="9.00"> </text>
<text text-anchor="start" x="247" y="-69.4" font-family="Monospace" font-size="7.00">local</text>
<text text-anchor="start" x="289" y="-68.8" font-family="Monospace" font-size="9.00"> </text>
</a>
</g>
</g>
<!-- before/3 -->
<g id="node2" class="node">
<title>before/3</title>
<g id="a_node2"><a xlink:href="https://github.com/LogtalkDotOrg/logtalk3/tree/7d2f24e758be609634f4275c174f2b37e3d82e23/core/user.lgt#L54" xlink:title="https://github.com/LogtalkDotOrg/logtalk3/tree/7d2f24e758be609634f4275c174f2b37e3d82e23/core/user.lgt#L54">
<polygon fill="cornsilk" stroke="black" points="195.5,-95 112.5,-95 112.5,-59 195.5,-59 195.5,-95"/>
<text text-anchor="start" x="121" y="-79.8" font-family="Monospace" font-size="9.00"> </text>
<text text-anchor="start" x="127" y="-79.2" font-family="Monospace" font-size="11.00">before/3</text>
<text text-anchor="start" x="182" y="-79.8" font-family="Monospace" font-size="9.00"> </text>
<text text-anchor="start" x="121" y="-68.8" font-family="Monospace" font-size="9.00"> </text>
<text text-anchor="start" x="143" y="-69.4" font-family="Monospace" font-size="7.00">local</text>
<text text-anchor="start" x="182" y="-68.8" font-family="Monospace" font-size="9.00"> </text>
</a>
</g>
</g>
<!-- after/3 -->
<g id="node3" class="node">
<title>after/3</title>
<g id="a_node3"><a xlink:href="https://github.com/LogtalkDotOrg/logtalk3/tree/7d2f24e758be609634f4275c174f2b37e3d82e23/core/user.lgt#L57" xlink:title="https://github.com/LogtalkDotOrg/logtalk3/tree/7d2f24e758be609634f4275c174f2b37e3d82e23/core/user.lgt#L57">
<polygon fill="cornsilk" stroke="black" points="94,-95 18,-95 18,-59 94,-59 94,-95"/>
<text text-anchor="start" x="26" y="-79.8" font-family="Monospace" font-size="9.00"> </text>
<text text-anchor="start" x="32" y="-79.2" font-family="Monospace" font-size="11.00">after/3</text>
<text text-anchor="start" x="80" y="-79.8" font-family="Monospace" font-size="9.00"> </text>
<text text-anchor="start" x="26" y="-68.8" font-family="Monospace" font-size="9.00"> </text>
<text text-anchor="start" x="44.5" y="-69.4" font-family="Monospace" font-size="7.00">local</text>
<text text-anchor="start" x="80" y="-68.8" font-family="Monospace" font-size="9.00"> </text>
</a>
</g>
</g>
</g>
</svg>
