<?xml version="1.0" encoding="UTF-8" standalone="no"?>
<?xml-stylesheet href="diagrams.css" type="text/css"?>
<!DOCTYPE svg PUBLIC "-//W3C//DTD SVG 1.1//EN"
 "http://www.w3.org/Graphics/SVG/1.1/DTD/svg11.dtd">
<!-- Generated by graphviz version 7.0.1 (20221109.1506)
 -->
<!-- Title: user_object Pages: 1 -->
<svg width="473pt" height="410pt"
 viewBox="72.00 72.00 401.00 338.00" xmlns="http://www.w3.org/2000/svg" xmlns:xlink="http://www.w3.org/1999/xlink">
<g id="graph0" class="graph" transform="scale(1 1) rotate(0) translate(76 334)">
<title>user_object</title>
<polygon fill="white" stroke="none" points="-4,4 -4,-262 325,-262 325,4 -4,4"/>
<text text-anchor="start" x="8" y="-29" font-family="Monospace" font-size="10.00" fill="dimgray">Logtalk core entities</text>
<text text-anchor="start" x="8" y="-18" font-family="Monospace" font-size="10.00" fill="dimgray">Cross&#45;referencing diagram for object user</text>
<text text-anchor="start" x="8" y="-7" font-family="Monospace" font-size="10.00" fill="dimgray">Generated on 2023&#45;05&#45;08, 17:55</text>
<g id="clust1" class="cluster">
<title>cluster_user_object</title>
<g id="a_clust1"><a xlink:title="user">
<path fill="snow" stroke="dimgray" d="M20,-49C20,-49 301,-49 301,-49 307,-49 313,-55 313,-61 313,-61 313,-238 313,-238 313,-244 307,-250 301,-250 301,-250 20,-250 20,-250 14,-250 8,-244 8,-238 8,-238 8,-61 8,-61 8,-55 14,-49 20,-49"/>
<g id="a_clust1_0"><a xlink:href="https://github.com/LogtalkDotOrg/logtalk3/tree/56527b310031b42504926addef62dacef3f1dd4a/core/user.lgt" xlink:title="https://github.com/LogtalkDotOrg/logtalk3/tree/56527b310031b42504926addef62dacef3f1dd4a/core/user.lgt">
<text text-anchor="start" x="20.5" y="-233.5" font-family="Monospace" font-size="10.00" fill="dimgray">user</text>
</a>
</g>
</a>
</g>
</g>
<!-- after/3 -->
<g id="node1" class="node">
<title>after/3</title>
<g id="a_node1"><a xlink:href="https://github.com/LogtalkDotOrg/logtalk3/tree/56527b310031b42504926addef62dacef3f1dd4a/core/user.lgt#L57" xlink:title="https://github.com/LogtalkDotOrg/logtalk3/tree/56527b310031b42504926addef62dacef3f1dd4a/core/user.lgt#L57">
<polygon fill="cornsilk" stroke="black" points="303,-213 227,-213 227,-177 303,-177 303,-213"/>
<text text-anchor="start" x="235" y="-197.8" font-family="Monospace" font-size="9.00"> </text>
<text text-anchor="start" x="241" y="-197.2" font-family="Monospace" font-size="11.00">after/3</text>
<text text-anchor="start" x="289" y="-197.8" font-family="Monospace" font-size="9.00"> </text>
<text text-anchor="start" x="235" y="-186.8" font-family="Monospace" font-size="9.00"> </text>
<text text-anchor="start" x="253.5" y="-187.4" font-family="Monospace" font-size="7.00">local</text>
<text text-anchor="start" x="289" y="-186.8" font-family="Monospace" font-size="9.00"> </text>
</a>
</g>
</g>
<!-- user::after/3 -->
<g id="node5" class="node">
<title>user::after/3</title>
<polygon fill="beige" stroke="black" stroke-dasharray="5,2" points="303,-95 187,-95 187,-59 303,-59 303,-95"/>
<text text-anchor="start" x="195" y="-79.8" font-family="Monospace" font-size="9.00"> </text>
<text text-anchor="start" x="201" y="-79.2" font-family="Monospace" font-size="11.00">user::after/3</text>
<text text-anchor="start" x="289" y="-79.8" font-family="Monospace" font-size="9.00"> </text>
<text text-anchor="start" x="195" y="-68.8" font-family="Monospace" font-size="9.00"> </text>
<text text-anchor="start" x="226.5" y="-69.4" font-family="Monospace" font-size="7.00">external</text>
<text text-anchor="start" x="289" y="-68.8" font-family="Monospace" font-size="9.00"> </text>
</g>
<!-- after/3&#45;&gt;user::after/3 -->
<g id="edge2" class="edge">
<title>after/3&#45;&gt;user::after/3</title>
<g id="a_edge2"><a xlink:href="https://github.com/LogtalkDotOrg/logtalk3/tree/56527b310031b42504926addef62dacef3f1dd4a/core/user.lgt#L57" xlink:title="calls">
<path fill="none" stroke="black" d="M262.01,-176.63C258.82,-158.18 253.74,-128.7 249.96,-106.77"/>
<polygon fill="black" stroke="black" points="253.42,-106.24 248.27,-96.98 246.52,-107.43 253.42,-106.24"/>
</a>
</g>
<g id="a_edge2&#45;label"><a xlink:href="https://github.com/LogtalkDotOrg/logtalk3/tree/56527b310031b42504926addef62dacef3f1dd4a/core/user.lgt#L57" xlink:title="https://github.com/LogtalkDotOrg/logtalk3/tree/56527b310031b42504926addef62dacef3f1dd4a/core/user.lgt#L57">
<text text-anchor="start" x="255" y="-133.8" font-family="Monospace" font-size="9.00">calls</text>
</a>
</g>
</g>
<!-- before/3 -->
<g id="node2" class="node">
<title>before/3</title>
<g id="a_node2"><a xlink:href="https://github.com/LogtalkDotOrg/logtalk3/tree/56527b310031b42504926addef62dacef3f1dd4a/core/user.lgt#L54" xlink:title="https://github.com/LogtalkDotOrg/logtalk3/tree/56527b310031b42504926addef62dacef3f1dd4a/core/user.lgt#L54">
<polygon fill="cornsilk" stroke="black" points="208.5,-213 125.5,-213 125.5,-177 208.5,-177 208.5,-213"/>
<text text-anchor="start" x="134" y="-197.8" font-family="Monospace" font-size="9.00"> </text>
<text text-anchor="start" x="140" y="-197.2" font-family="Monospace" font-size="11.00">before/3</text>
<text text-anchor="start" x="195" y="-197.8" font-family="Monospace" font-size="9.00"> </text>
<text text-anchor="start" x="134" y="-186.8" font-family="Monospace" font-size="9.00"> </text>
<text text-anchor="start" x="156" y="-187.4" font-family="Monospace" font-size="7.00">local</text>
<text text-anchor="start" x="195" y="-186.8" font-family="Monospace" font-size="9.00"> </text>
</a>
</g>
</g>
<!-- user::before/3 -->
<g id="node4" class="node">
<title>user::before/3</title>
<polygon fill="beige" stroke="black" stroke-dasharray="5,2" points="168.5,-95 45.5,-95 45.5,-59 168.5,-59 168.5,-95"/>
<text text-anchor="start" x="54" y="-79.8" font-family="Monospace" font-size="9.00"> </text>
<text text-anchor="start" x="60" y="-79.2" font-family="Monospace" font-size="11.00">user::before/3</text>
<text text-anchor="start" x="155" y="-79.8" font-family="Monospace" font-size="9.00"> </text>
<text text-anchor="start" x="54" y="-68.8" font-family="Monospace" font-size="9.00"> </text>
<text text-anchor="start" x="89" y="-69.4" font-family="Monospace" font-size="7.00">external</text>
<text text-anchor="start" x="155" y="-68.8" font-family="Monospace" font-size="9.00"> </text>
</g>
<!-- before/3&#45;&gt;user::before/3 -->
<g id="edge1" class="edge">
<title>before/3&#45;&gt;user::before/3</title>
<g id="a_edge1"><a xlink:href="https://github.com/LogtalkDotOrg/logtalk3/tree/56527b310031b42504926addef62dacef3f1dd4a/core/user.lgt#L54" xlink:title="calls">
<path fill="none" stroke="black" d="M158.02,-176.63C148.3,-157.84 132.66,-127.61 121.26,-105.56"/>
<polygon fill="black" stroke="black" points="124.44,-104.1 116.74,-96.83 118.22,-107.32 124.44,-104.1"/>
</a>
</g>
<g id="a_edge1&#45;label"><a xlink:href="https://github.com/LogtalkDotOrg/logtalk3/tree/56527b310031b42504926addef62dacef3f1dd4a/core/user.lgt#L54" xlink:title="https://github.com/LogtalkDotOrg/logtalk3/tree/56527b310031b42504926addef62dacef3f1dd4a/core/user.lgt#L54">
<text text-anchor="start" x="138" y="-133.8" font-family="Monospace" font-size="9.00">calls</text>
</a>
</g>
</g>
<!-- forward/1 -->
<g id="node3" class="node">
<title>forward/1</title>
<g id="a_node3"><a xlink:href="https://github.com/LogtalkDotOrg/logtalk3/tree/56527b310031b42504926addef62dacef3f1dd4a/core/user.lgt#L48" xlink:title="https://github.com/LogtalkDotOrg/logtalk3/tree/56527b310031b42504926addef62dacef3f1dd4a/core/user.lgt#L48">
<polygon fill="cornsilk" stroke="black" points="107.5,-213 18.5,-213 18.5,-177 107.5,-177 107.5,-213"/>
<text text-anchor="start" x="27" y="-197.8" font-family="Monospace" font-size="9.00"> </text>
<text text-anchor="start" x="33" y="-197.2" font-family="Monospace" font-size="11.00">forward/1</text>
<text text-anchor="start" x="94" y="-197.8" font-family="Monospace" font-size="9.00"> </text>
<text text-anchor="start" x="27" y="-186.8" font-family="Monospace" font-size="9.00"> </text>
<text text-anchor="start" x="52" y="-187.4" font-family="Monospace" font-size="7.00">local</text>
<text text-anchor="start" x="94" y="-186.8" font-family="Monospace" font-size="9.00"> </text>
</a>
</g>
</g>
</g>
</svg>
