<?xml version="1.0" encoding="UTF-8" standalone="no"?>
<!DOCTYPE svg PUBLIC "-//W3C//DTD SVG 1.1//EN"
 "http://www.w3.org/Graphics/SVG/1.1/DTD/svg11.dtd">
<!-- Generated by graphviz version 2.40.1 (20161225.0304)
 -->
<!-- Title: user_object Pages: 1 -->
<svg width="415pt" height="290pt"
 viewBox="72.00 72.00 343.00 218.43" xmlns="http://www.w3.org/2000/svg" xmlns:xlink="http://www.w3.org/1999/xlink">
<g id="graph0" class="graph" transform="scale(1 1) rotate(0) translate(76 214.4264)">
<title>user_object</title>
<polygon fill="#ffffff" stroke="transparent" points="-4,4 -4,-142.4264 267,-142.4264 267,4 -4,4"/>
<text text-anchor="start" x="8" y="-29" font-family="Courier,monospace" font-size="10.00" fill="#8b8989">Logtalk core entities</text>
<text text-anchor="start" x="8" y="-18" font-family="Courier,monospace" font-size="10.00" fill="#8b8989">Cross&#45;referencing diagram for object user</text>
<text text-anchor="start" x="8" y="-7" font-family="Courier,monospace" font-size="10.00" fill="#8b8989">Generated on 2019/04/23, 18:56</text>
<g id="clust1" class="cluster">
<title>cluster_user_object</title>
<g id="a_clust1"><a xlink:href="https://github.com/LogtalkDotOrg/logtalk3/tree/master/core/user.lgt" xlink:title="https://github.com/LogtalkDotOrg/logtalk3/tree/master/core/user.lgt">
<path fill="#fffafa" stroke="#8b8989" d="M71.5,-49C71.5,-49 191.5,-49 191.5,-49 197.5,-49 203.5,-55 203.5,-61 203.5,-61 203.5,-118.4264 203.5,-118.4264 203.5,-124.4264 197.5,-130.4264 191.5,-130.4264 191.5,-130.4264 71.5,-130.4264 71.5,-130.4264 65.5,-130.4264 59.5,-124.4264 59.5,-118.4264 59.5,-118.4264 59.5,-61 59.5,-61 59.5,-55 65.5,-49 71.5,-49"/>
<text text-anchor="middle" x="80" y="-118.4264" font-family="Courier,monospace" font-size="10.00" fill="#8b8989">user</text>
</a>
</g>
</g>
<!-- forward/1 -->
<g id="node1" class="node">
<title>forward/1</title>
<g id="a_node1"><a xlink:href="https://github.com/LogtalkDotOrg/logtalk3/tree/master/core/user.lgt#L44" xlink:title="https://github.com/LogtalkDotOrg/logtalk3/tree/master/core/user.lgt#L44">
<ellipse fill="#fff8dc" stroke="#000000" cx="131.5" cy="-80.2132" rx="62.4516" ry="21.4286"/>
<text text-anchor="start" x="95.5" y="-83.0132" font-family="Courier,monospace" font-size="9.00" fill="#000000"> </text>
<text text-anchor="start" x="101.5" y="-82.4132" font-family="Courier,monospace" font-size="11.00" fill="#000000">forward/1</text>
<text text-anchor="start" x="161.5" y="-83.0132" font-family="Courier,monospace" font-size="9.00" fill="#000000"> </text>
<text text-anchor="start" x="95.5" y="-72.0132" font-family="Courier,monospace" font-size="9.00" fill="#000000"> </text>
<text text-anchor="start" x="120.5" y="-72.6132" font-family="Courier,monospace" font-size="7.00" fill="#000000">local</text>
<text text-anchor="start" x="161.5" y="-72.0132" font-family="Courier,monospace" font-size="9.00" fill="#000000"> </text>
</a>
</g>
</g>
</g>
</svg>
