<?xml version="1.0" encoding="UTF-8" standalone="no"?>
<?xml-stylesheet href="diagrams.css" type="text/css"?>
<!DOCTYPE svg PUBLIC "-//W3C//DTD SVG 1.1//EN"
 "http://www.w3.org/Graphics/SVG/1.1/DTD/svg11.dtd">
<!-- Generated by graphviz version 2.50.0 (20211204.2007)
 -->
<!-- Title: uses_diagram_1_object Pages: 1 -->
<svg width="944pt" height="292pt"
 viewBox="72.00 72.00 872.00 220.00" xmlns="http://www.w3.org/2000/svg" xmlns:xlink="http://www.w3.org/1999/xlink">
<g id="graph0" class="graph" transform="scale(1 1) rotate(0) translate(76 216)">
<title>uses_diagram_1_object</title>
<polygon fill="white" stroke="transparent" points="-4,4 -4,-144 796,-144 796,4 -4,4"/>
<text text-anchor="start" x="8" y="-29" font-family="Monospace" font-size="10.00" fill="dimgray">Logtalk development tools</text>
<text text-anchor="start" x="8" y="-18" font-family="Monospace" font-size="10.00" fill="dimgray">Cross&#45;referencing diagram for object uses_diagram/1</text>
<text text-anchor="start" x="8" y="-7" font-family="Monospace" font-size="10.00" fill="dimgray">Generated on 2022&#45;03&#45;15, 14:09</text>
<g id="clust1" class="cluster">
<title>cluster_uses_diagram_1_object</title>
<g id="a_clust1"><a xlink:title="uses_diagram(Format)">
<path fill="snow" stroke="dimgray" d="M20,-49C20,-49 772,-49 772,-49 778,-49 784,-55 784,-61 784,-61 784,-120 784,-120 784,-126 778,-132 772,-132 772,-132 20,-132 20,-132 14,-132 8,-126 8,-120 8,-120 8,-61 8,-61 8,-55 14,-49 20,-49"/>
<g id="a_clust1_0"><a xlink:href="https://github.com/LogtalkDotOrg/logtalk3/tree/0de86ce14f384c8a14fe71df1756798f2d963636/tools/diagrams/uses_diagram.lgt" xlink:title="https://github.com/LogtalkDotOrg/logtalk3/tree/0de86ce14f384c8a14fe71df1756798f2d963636/tools/diagrams/uses_diagram.lgt">
<text text-anchor="start" x="20.5" y="-115.5" font-family="Monospace" font-size="10.00" fill="dimgray">uses_diagram(Format)</text>
</a>
</g>
</a>
</g>
</g>
<!-- default_option/1 -->
<g id="node1" class="node">
<title>default_option/1</title>
<g id="a_node1"><a xlink:href="https://github.com/LogtalkDotOrg/logtalk3/tree/0de86ce14f384c8a14fe71df1756798f2d963636/tools/diagrams/uses_diagram.lgt#L35" xlink:title="https://github.com/LogtalkDotOrg/logtalk3/tree/0de86ce14f384c8a14fe71df1756798f2d963636/tools/diagrams/uses_diagram.lgt#L35">
<polygon fill="cornsilk" stroke="black" points="773.5,-95 636.5,-95 636.5,-59 773.5,-59 773.5,-95"/>
<text text-anchor="start" x="645" y="-79.8" font-family="Monospace" font-size="9.00"> </text>
<text text-anchor="start" x="651" y="-79.2" font-family="Monospace" font-size="11.00">default_option/1</text>
<text text-anchor="start" x="760" y="-79.8" font-family="Monospace" font-size="9.00"> </text>
<text text-anchor="start" x="645" y="-68.8" font-family="Monospace" font-size="9.00"> </text>
<text text-anchor="start" x="694" y="-69.4" font-family="Monospace" font-size="7.00">local</text>
<text text-anchor="start" x="760" y="-68.8" font-family="Monospace" font-size="9.00"> </text>
</a>
</g>
</g>
<!-- diagram_description/1 -->
<g id="node2" class="node">
<title>diagram_description/1</title>
<g id="a_node2"><a xlink:href="https://github.com/LogtalkDotOrg/logtalk3/tree/0de86ce14f384c8a14fe71df1756798f2d963636/tools/diagrams/uses_diagram.lgt#L79" xlink:title="https://github.com/LogtalkDotOrg/logtalk3/tree/0de86ce14f384c8a14fe71df1756798f2d963636/tools/diagrams/uses_diagram.lgt#L79">
<polygon fill="cornsilk" stroke="black" points="618,-95 448,-95 448,-59 618,-59 618,-95"/>
<text text-anchor="start" x="456" y="-79.8" font-family="Monospace" font-size="9.00"> </text>
<text text-anchor="start" x="462" y="-79.2" font-family="Monospace" font-size="11.00">diagram_description/1</text>
<text text-anchor="start" x="604" y="-79.8" font-family="Monospace" font-size="9.00"> </text>
<text text-anchor="start" x="456" y="-68.8" font-family="Monospace" font-size="9.00"> </text>
<text text-anchor="start" x="521.5" y="-69.4" font-family="Monospace" font-size="7.00">local</text>
<text text-anchor="start" x="604" y="-68.8" font-family="Monospace" font-size="9.00"> </text>
</a>
</g>
</g>
<!-- diagram_name_suffix/1 -->
<g id="node3" class="node">
<title>diagram_name_suffix/1</title>
<g id="a_node3"><a xlink:href="https://github.com/LogtalkDotOrg/logtalk3/tree/0de86ce14f384c8a14fe71df1756798f2d963636/tools/diagrams/uses_diagram.lgt#L81" xlink:title="https://github.com/LogtalkDotOrg/logtalk3/tree/0de86ce14f384c8a14fe71df1756798f2d963636/tools/diagrams/uses_diagram.lgt#L81">
<polygon fill="cornsilk" stroke="black" points="430,-95 260,-95 260,-59 430,-59 430,-95"/>
<text text-anchor="start" x="268" y="-79.8" font-family="Monospace" font-size="9.00"> </text>
<text text-anchor="start" x="274" y="-79.2" font-family="Monospace" font-size="11.00">diagram_name_suffix/1</text>
<text text-anchor="start" x="416" y="-79.8" font-family="Monospace" font-size="9.00"> </text>
<text text-anchor="start" x="268" y="-68.8" font-family="Monospace" font-size="9.00"> </text>
<text text-anchor="start" x="333.5" y="-69.4" font-family="Monospace" font-size="7.00">local</text>
<text text-anchor="start" x="416" y="-68.8" font-family="Monospace" font-size="9.00"> </text>
</a>
</g>
</g>
<!-- message_diagram_description/1 -->
<g id="node4" class="node">
<title>message_diagram_description/1</title>
<g id="a_node4"><a xlink:href="https://github.com/LogtalkDotOrg/logtalk3/tree/0de86ce14f384c8a14fe71df1756798f2d963636/tools/diagrams/uses_diagram.lgt#L83" xlink:title="https://github.com/LogtalkDotOrg/logtalk3/tree/0de86ce14f384c8a14fe71df1756798f2d963636/tools/diagrams/uses_diagram.lgt#L83">
<polygon fill="cornsilk" stroke="black" points="242,-95 18,-95 18,-59 242,-59 242,-95"/>
<text text-anchor="start" x="26" y="-79.8" font-family="Monospace" font-size="9.00"> </text>
<text text-anchor="start" x="32" y="-79.2" font-family="Monospace" font-size="11.00">message_diagram_description/1</text>
<text text-anchor="start" x="228" y="-79.8" font-family="Monospace" font-size="9.00"> </text>
<text text-anchor="start" x="26" y="-68.8" font-family="Monospace" font-size="9.00"> </text>
<text text-anchor="start" x="118.5" y="-69.4" font-family="Monospace" font-size="7.00">local</text>
<text text-anchor="start" x="228" y="-68.8" font-family="Monospace" font-size="9.00"> </text>
</a>
</g>
</g>
</g>
</svg>
