<?xml version="1.0" encoding="UTF-8" standalone="no"?>
<?xml-stylesheet href="diagrams.css" type="text/css"?>
<!DOCTYPE svg PUBLIC "-//W3C//DTD SVG 1.1//EN"
 "http://www.w3.org/Graphics/SVG/1.1/DTD/svg11.dtd">
<!-- Generated by graphviz version 12.2.1 (20241206.2353)
 -->
<!-- Title: uuid_protocol_protocol Pages: 1 -->
<svg width="632pt" height="299pt"
 viewBox="72.00 72.00 560.00 227.00" xmlns="http://www.w3.org/2000/svg" xmlns:xlink="http://www.w3.org/1999/xlink">
<g id="graph0" class="graph" transform="scale(1 1) rotate(0) translate(76 223)">
<title>uuid_protocol_protocol</title>
<polygon fill="white" stroke="none" points="-4,4 -4,-151 484,-151 484,4 -4,4"/>
<text text-anchor="start" x="8" y="-32.75" font-family="Monospace" font-size="10.00" fill="dimgray">Logtalk library</text>
<text text-anchor="start" x="8" y="-20" font-family="Monospace" font-size="10.00" fill="dimgray">Cross&#45;referencing diagram for protocol uuid_protocol</text>
<text text-anchor="start" x="8" y="-7.25" font-family="Monospace" font-size="10.00" fill="dimgray">Generated on 2025&#45;01&#45;23, 23:42</text>
<g id="clust1" class="cluster">
<title>cluster_uuid_protocol_protocol</title>
<g id="a_clust1"><a xlink:title="uuid_protocol">
<path fill="snow" stroke="dimgray" d="M20,-54.25C20,-54.25 460,-54.25 460,-54.25 466,-54.25 472,-60.25 472,-66.25 472,-66.25 472,-127 472,-127 472,-133 466,-139 460,-139 460,-139 20,-139 20,-139 14,-139 8,-133 8,-127 8,-127 8,-66.25 8,-66.25 8,-60.25 14,-54.25 20,-54.25"/>
<g id="a_clust1_0"><a xlink:href="https://github.com/LogtalkDotOrg/logtalk3/tree/c6649d183315f4a0171236fa687047019068d044/library/uuid/uuid_protocol.lgt" xlink:title="https://github.com/LogtalkDotOrg/logtalk3/tree/c6649d183315f4a0171236fa687047019068d044/library/uuid/uuid_protocol.lgt">
<text text-anchor="start" x="20" y="-121.5" font-family="Monospace" font-size="10.00" fill="dimgray">uuid_protocol</text>
</a>
</g>
</a>
</g>
</g>
<!-- uuid_v1/2 -->
<g id="node1" class="node">
<title>uuid_v1/2</title>
<g id="a_node1"><a xlink:href="https://github.com/LogtalkDotOrg/logtalk3/tree/c6649d183315f4a0171236fa687047019068d044/library/uuid/uuid_protocol.lgt#L31" xlink:title="https://github.com/LogtalkDotOrg/logtalk3/tree/c6649d183315f4a0171236fa687047019068d044/library/uuid/uuid_protocol.lgt#L31">
<polygon fill="springgreen" stroke="black" points="105.62,-100.25 18.38,-100.25 18.38,-64.25 105.62,-64.25 105.62,-100.25"/>
<text text-anchor="start" x="26.38" y="-84.95" font-family="Monospace" font-size="9.00"> </text>
<text text-anchor="start" x="31.62" y="-84.17" font-family="Monospace" font-size="11.00">uuid_v1/2</text>
<text text-anchor="start" x="92.38" y="-84.95" font-family="Monospace" font-size="9.00"> </text>
<text text-anchor="start" x="26.38" y="-72.58" font-family="Monospace" font-size="9.00"> </text>
<text text-anchor="start" x="48.5" y="-73.35" font-family="Monospace" font-size="7.00">public</text>
<text text-anchor="start" x="92.38" y="-72.58" font-family="Monospace" font-size="9.00"> </text>
</a>
</g>
</g>
<!-- uuid_v4/1 -->
<g id="node2" class="node">
<title>uuid_v4/1</title>
<g id="a_node2"><a xlink:href="https://github.com/LogtalkDotOrg/logtalk3/tree/c6649d183315f4a0171236fa687047019068d044/library/uuid/uuid_protocol.lgt#L38" xlink:title="https://github.com/LogtalkDotOrg/logtalk3/tree/c6649d183315f4a0171236fa687047019068d044/library/uuid/uuid_protocol.lgt#L38">
<polygon fill="springgreen" stroke="black" points="210.62,-100.25 123.38,-100.25 123.38,-64.25 210.62,-64.25 210.62,-100.25"/>
<text text-anchor="start" x="131.38" y="-84.95" font-family="Monospace" font-size="9.00"> </text>
<text text-anchor="start" x="136.62" y="-84.17" font-family="Monospace" font-size="11.00">uuid_v4/1</text>
<text text-anchor="start" x="197.38" y="-84.95" font-family="Monospace" font-size="9.00"> </text>
<text text-anchor="start" x="131.38" y="-72.58" font-family="Monospace" font-size="9.00"> </text>
<text text-anchor="start" x="153.5" y="-73.35" font-family="Monospace" font-size="7.00">public</text>
<text text-anchor="start" x="197.38" y="-72.58" font-family="Monospace" font-size="9.00"> </text>
</a>
</g>
</g>
<!-- uuid_null/1 -->
<g id="node3" class="node">
<title>uuid_null/1</title>
<g id="a_node3"><a xlink:href="https://github.com/LogtalkDotOrg/logtalk3/tree/c6649d183315f4a0171236fa687047019068d044/library/uuid/uuid_protocol.lgt#L45" xlink:title="https://github.com/LogtalkDotOrg/logtalk3/tree/c6649d183315f4a0171236fa687047019068d044/library/uuid/uuid_protocol.lgt#L45">
<polygon fill="springgreen" stroke="black" points="329.38,-100.25 228.62,-100.25 228.62,-64.25 329.38,-64.25 329.38,-100.25"/>
<text text-anchor="start" x="236.62" y="-84.95" font-family="Monospace" font-size="9.00"> </text>
<text text-anchor="start" x="241.88" y="-84.17" font-family="Monospace" font-size="11.00">uuid_null/1</text>
<text text-anchor="start" x="316.12" y="-84.95" font-family="Monospace" font-size="9.00"> </text>
<text text-anchor="start" x="236.62" y="-72.58" font-family="Monospace" font-size="9.00"> </text>
<text text-anchor="start" x="265.5" y="-73.35" font-family="Monospace" font-size="7.00">public</text>
<text text-anchor="start" x="316.12" y="-72.58" font-family="Monospace" font-size="9.00"> </text>
</a>
</g>
</g>
<!-- random_node/1 -->
<g id="node4" class="node">
<title>random_node/1</title>
<g id="a_node4"><a xlink:href="https://github.com/LogtalkDotOrg/logtalk3/tree/c6649d183315f4a0171236fa687047019068d044/library/uuid/uuid_protocol.lgt#L52" xlink:title="https://github.com/LogtalkDotOrg/logtalk3/tree/c6649d183315f4a0171236fa687047019068d044/library/uuid/uuid_protocol.lgt#L52">
<polygon fill="springgreen" stroke="black" points="462.12,-100.25 347.88,-100.25 347.88,-64.25 462.12,-64.25 462.12,-100.25"/>
<text text-anchor="start" x="355.88" y="-84.95" font-family="Monospace" font-size="9.00"> </text>
<text text-anchor="start" x="361.12" y="-84.17" font-family="Monospace" font-size="11.00">random_node/1</text>
<text text-anchor="start" x="448.88" y="-84.95" font-family="Monospace" font-size="9.00"> </text>
<text text-anchor="start" x="355.88" y="-72.58" font-family="Monospace" font-size="9.00"> </text>
<text text-anchor="start" x="391.5" y="-73.35" font-family="Monospace" font-size="7.00">public</text>
<text text-anchor="start" x="448.88" y="-72.58" font-family="Monospace" font-size="9.00"> </text>
</a>
</g>
</g>
</g>
</svg>
