<?xml version="1.0" encoding="UTF-8" standalone="no"?>
<?xml-stylesheet href="diagrams.css" type="text/css"?>
<!DOCTYPE svg PUBLIC "-//W3C//DTD SVG 1.1//EN"
 "http://www.w3.org/Graphics/SVG/1.1/DTD/svg11.dtd">
<!-- Generated by graphviz version 2.43.20191029.1313 (20191029.1313)
 -->
<!-- Title: uuid_protocol_protocol Pages: 1 -->
<svg width="493pt" height="288pt"
 viewBox="72.00 72.00 421.00 216.00" xmlns="http://www.w3.org/2000/svg" xmlns:xlink="http://www.w3.org/1999/xlink">
<g id="graph0" class="graph" transform="scale(1 1) rotate(0) translate(76 212)">
<title>uuid_protocol_protocol</title>
<polygon fill="white" stroke="transparent" points="-4,4 -4,-140 345,-140 345,4 -4,4"/>
<text text-anchor="start" x="8" y="-26" font-family="Courier,monospace" font-size="10.00" fill="dimgray">Logtalk library</text>
<text text-anchor="start" x="8" y="-16" font-family="Courier,monospace" font-size="10.00" fill="dimgray">Cross&#45;referencing diagram for protocol uuid_protocol</text>
<text text-anchor="start" x="8" y="-6" font-family="Courier,monospace" font-size="10.00" fill="dimgray">Generated on 2021&#45;03&#45;12, 16:03</text>
<g id="clust1" class="cluster">
<title>cluster_uuid_protocol_protocol</title>
<g id="a_clust1"><a xlink:title="uuid_protocol">
<path fill="snow" stroke="dimgray" d="M20,-46C20,-46 321,-46 321,-46 327,-46 333,-52 333,-58 333,-58 333,-116 333,-116 333,-122 327,-128 321,-128 321,-128 20,-128 20,-128 14,-128 8,-122 8,-116 8,-116 8,-58 8,-58 8,-52 14,-46 20,-46"/>
<g id="a_clust1_0"><a xlink:href="https://github.com/LogtalkDotOrg/logtalk3/tree/d0920e43abd28e66ee521c37d4e0a2c62226d079/library/uuid/uuid_protocol.lgt" xlink:title="https://github.com/LogtalkDotOrg/logtalk3/tree/d0920e43abd28e66ee521c37d4e0a2c62226d079/library/uuid/uuid_protocol.lgt">
<text text-anchor="start" x="19.99" y="-112" font-family="Courier,monospace" font-size="10.00" fill="dimgray">uuid_protocol</text>
</a>
</g>
</a>
</g>
</g>
<!-- uuid_v1/2 -->
<g id="node1" class="node">
<title>uuid_v1/2</title>
<g id="a_node1"><a xlink:href="https://github.com/LogtalkDotOrg/logtalk3/tree/d0920e43abd28e66ee521c37d4e0a2c62226d079/library/uuid/uuid_protocol.lgt#L31" xlink:title="https://github.com/LogtalkDotOrg/logtalk3/tree/d0920e43abd28e66ee521c37d4e0a2c62226d079/library/uuid/uuid_protocol.lgt#L31">
<polygon fill="springgreen" stroke="black" points="322.5,-92 237.5,-92 237.5,-56 322.5,-56 322.5,-92"/>
<text text-anchor="start" x="245.8" y="-75.8" font-family="Courier,monospace" font-size="9.00"> </text>
<text text-anchor="start" x="250.8" y="-75.2" font-family="Courier,monospace" font-size="11.00">uuid_v1/2</text>
<text text-anchor="start" x="309.8" y="-75.8" font-family="Courier,monospace" font-size="9.00"> </text>
<text text-anchor="start" x="245.8" y="-65.8" font-family="Courier,monospace" font-size="9.00"> </text>
<text text-anchor="start" x="267.9" y="-66.4" font-family="Courier,monospace" font-size="7.00">public</text>
<text text-anchor="start" x="309.8" y="-65.8" font-family="Courier,monospace" font-size="9.00"> </text>
</a>
</g>
</g>
<!-- uuid_v4/1 -->
<g id="node2" class="node">
<title>uuid_v4/1</title>
<g id="a_node2"><a xlink:href="https://github.com/LogtalkDotOrg/logtalk3/tree/d0920e43abd28e66ee521c37d4e0a2c62226d079/library/uuid/uuid_protocol.lgt#L38" xlink:title="https://github.com/LogtalkDotOrg/logtalk3/tree/d0920e43abd28e66ee521c37d4e0a2c62226d079/library/uuid/uuid_protocol.lgt#L38">
<polygon fill="springgreen" stroke="black" points="219.5,-92 134.5,-92 134.5,-56 219.5,-56 219.5,-92"/>
<text text-anchor="start" x="142.8" y="-75.8" font-family="Courier,monospace" font-size="9.00"> </text>
<text text-anchor="start" x="147.8" y="-75.2" font-family="Courier,monospace" font-size="11.00">uuid_v4/1</text>
<text text-anchor="start" x="206.8" y="-75.8" font-family="Courier,monospace" font-size="9.00"> </text>
<text text-anchor="start" x="142.8" y="-65.8" font-family="Courier,monospace" font-size="9.00"> </text>
<text text-anchor="start" x="164.9" y="-66.4" font-family="Courier,monospace" font-size="7.00">public</text>
<text text-anchor="start" x="206.8" y="-65.8" font-family="Courier,monospace" font-size="9.00"> </text>
</a>
</g>
</g>
<!-- uuid_null/1 -->
<g id="node3" class="node">
<title>uuid_null/1</title>
<g id="a_node3"><a xlink:href="https://github.com/LogtalkDotOrg/logtalk3/tree/d0920e43abd28e66ee521c37d4e0a2c62226d079/library/uuid/uuid_protocol.lgt#L45" xlink:title="https://github.com/LogtalkDotOrg/logtalk3/tree/d0920e43abd28e66ee521c37d4e0a2c62226d079/library/uuid/uuid_protocol.lgt#L45">
<polygon fill="springgreen" stroke="black" points="116,-92 18,-92 18,-56 116,-56 116,-92"/>
<text text-anchor="start" x="25.8" y="-75.8" font-family="Courier,monospace" font-size="9.00"> </text>
<text text-anchor="start" x="30.69" y="-75.2" font-family="Courier,monospace" font-size="11.00">uuid_null/1</text>
<text text-anchor="start" x="102.8" y="-75.8" font-family="Courier,monospace" font-size="9.00"> </text>
<text text-anchor="start" x="25.8" y="-65.8" font-family="Courier,monospace" font-size="9.00"> </text>
<text text-anchor="start" x="54.4" y="-66.4" font-family="Courier,monospace" font-size="7.00">public</text>
<text text-anchor="start" x="102.8" y="-65.8" font-family="Courier,monospace" font-size="9.00"> </text>
</a>
</g>
</g>
</g>
</svg>
