<?xml version="1.0" encoding="UTF-8" standalone="no"?>
<?xml-stylesheet href="diagrams.css" type="text/css"?>
<!DOCTYPE svg PUBLIC "-//W3C//DTD SVG 1.1//EN"
 "http://www.w3.org/Graphics/SVG/1.1/DTD/svg11.dtd">
<!-- Generated by graphviz version 10.0.1 (20240210.2158)
 -->
<!-- Title: uuid_protocol_protocol Pages: 1 -->
<svg width="628pt" height="293pt"
 viewBox="72.00 72.00 556.00 221.00" xmlns="http://www.w3.org/2000/svg" xmlns:xlink="http://www.w3.org/1999/xlink">
<g id="graph0" class="graph" transform="scale(1 1) rotate(0) translate(76 217)">
<title>uuid_protocol_protocol</title>
<polygon fill="white" stroke="none" points="-4,4 -4,-145 480,-145 480,4 -4,4"/>
<text text-anchor="start" x="8" y="-28.25" font-family="Monospace" font-size="10.00" fill="dimgray">Logtalk library</text>
<text text-anchor="start" x="8" y="-17" font-family="Monospace" font-size="10.00" fill="dimgray">Cross&#45;referencing diagram for protocol uuid_protocol</text>
<text text-anchor="start" x="8" y="-5.75" font-family="Monospace" font-size="10.00" fill="dimgray">Generated on 2024&#45;03&#45;25, 21:51</text>
<g id="clust1" class="cluster">
<title>cluster_uuid_protocol_protocol</title>
<g id="a_clust1"><a xlink:title="uuid_protocol">
<path fill="snow" stroke="dimgray" d="M20,-49.75C20,-49.75 456,-49.75 456,-49.75 462,-49.75 468,-55.75 468,-61.75 468,-61.75 468,-121 468,-121 468,-127 462,-133 456,-133 456,-133 20,-133 20,-133 14,-133 8,-127 8,-121 8,-121 8,-61.75 8,-61.75 8,-55.75 14,-49.75 20,-49.75"/>
<g id="a_clust1_0"><a xlink:href="https://github.com/LogtalkDotOrg/logtalk3/tree/bbd216ead122484887c879a46d9f0de182e4629e/library/uuid/uuid_protocol.lgt" xlink:title="https://github.com/LogtalkDotOrg/logtalk3/tree/bbd216ead122484887c879a46d9f0de182e4629e/library/uuid/uuid_protocol.lgt">
<text text-anchor="start" x="20" y="-115.5" font-family="Monospace" font-size="10.00" fill="dimgray">uuid_protocol</text>
</a>
</g>
</a>
</g>
</g>
<!-- uuid_v1/2 -->
<g id="node1" class="node">
<title>uuid_v1/2</title>
<g id="a_node1"><a xlink:href="https://github.com/LogtalkDotOrg/logtalk3/tree/bbd216ead122484887c879a46d9f0de182e4629e/library/uuid/uuid_protocol.lgt#L31" xlink:title="https://github.com/LogtalkDotOrg/logtalk3/tree/bbd216ead122484887c879a46d9f0de182e4629e/library/uuid/uuid_protocol.lgt#L31">
<polygon fill="springgreen" stroke="black" points="104,-95.75 18,-95.75 18,-59.75 104,-59.75 104,-95.75"/>
<text text-anchor="start" x="25.88" y="-78.58" font-family="Monospace" font-size="9.00"> </text>
<text text-anchor="start" x="30.62" y="-77.8" font-family="Monospace" font-size="11.00">uuid_v1/2</text>
<text text-anchor="start" x="90.88" y="-78.58" font-family="Monospace" font-size="9.00"> </text>
<text text-anchor="start" x="25.88" y="-67.7" font-family="Monospace" font-size="9.00"> </text>
<text text-anchor="start" x="47.5" y="-69.22" font-family="Monospace" font-size="7.00">public</text>
<text text-anchor="start" x="90.88" y="-67.7" font-family="Monospace" font-size="9.00"> </text>
</a>
</g>
</g>
<!-- uuid_v4/1 -->
<g id="node2" class="node">
<title>uuid_v4/1</title>
<g id="a_node2"><a xlink:href="https://github.com/LogtalkDotOrg/logtalk3/tree/bbd216ead122484887c879a46d9f0de182e4629e/library/uuid/uuid_protocol.lgt#L38" xlink:title="https://github.com/LogtalkDotOrg/logtalk3/tree/bbd216ead122484887c879a46d9f0de182e4629e/library/uuid/uuid_protocol.lgt#L38">
<polygon fill="springgreen" stroke="black" points="208,-95.75 122,-95.75 122,-59.75 208,-59.75 208,-95.75"/>
<text text-anchor="start" x="129.88" y="-78.58" font-family="Monospace" font-size="9.00"> </text>
<text text-anchor="start" x="134.62" y="-77.8" font-family="Monospace" font-size="11.00">uuid_v4/1</text>
<text text-anchor="start" x="194.88" y="-78.58" font-family="Monospace" font-size="9.00"> </text>
<text text-anchor="start" x="129.88" y="-67.7" font-family="Monospace" font-size="9.00"> </text>
<text text-anchor="start" x="151.5" y="-69.22" font-family="Monospace" font-size="7.00">public</text>
<text text-anchor="start" x="194.88" y="-67.7" font-family="Monospace" font-size="9.00"> </text>
</a>
</g>
</g>
<!-- uuid_null/1 -->
<g id="node3" class="node">
<title>uuid_null/1</title>
<g id="a_node3"><a xlink:href="https://github.com/LogtalkDotOrg/logtalk3/tree/bbd216ead122484887c879a46d9f0de182e4629e/library/uuid/uuid_protocol.lgt#L45" xlink:title="https://github.com/LogtalkDotOrg/logtalk3/tree/bbd216ead122484887c879a46d9f0de182e4629e/library/uuid/uuid_protocol.lgt#L45">
<polygon fill="springgreen" stroke="black" points="326,-95.75 226,-95.75 226,-59.75 326,-59.75 326,-95.75"/>
<text text-anchor="start" x="233.88" y="-78.58" font-family="Monospace" font-size="9.00"> </text>
<text text-anchor="start" x="238.88" y="-77.8" font-family="Monospace" font-size="11.00">uuid_null/1</text>
<text text-anchor="start" x="312.88" y="-78.58" font-family="Monospace" font-size="9.00"> </text>
<text text-anchor="start" x="233.88" y="-67.7" font-family="Monospace" font-size="9.00"> </text>
<text text-anchor="start" x="262.5" y="-69.22" font-family="Monospace" font-size="7.00">public</text>
<text text-anchor="start" x="312.88" y="-67.7" font-family="Monospace" font-size="9.00"> </text>
</a>
</g>
</g>
<!-- random_node/1 -->
<g id="node4" class="node">
<title>random_node/1</title>
<g id="a_node4"><a xlink:href="https://github.com/LogtalkDotOrg/logtalk3/tree/bbd216ead122484887c879a46d9f0de182e4629e/library/uuid/uuid_protocol.lgt#L52" xlink:title="https://github.com/LogtalkDotOrg/logtalk3/tree/bbd216ead122484887c879a46d9f0de182e4629e/library/uuid/uuid_protocol.lgt#L52">
<polygon fill="springgreen" stroke="black" points="457.5,-95.75 344.5,-95.75 344.5,-59.75 457.5,-59.75 457.5,-95.75"/>
<text text-anchor="start" x="352.38" y="-78.58" font-family="Monospace" font-size="9.00"> </text>
<text text-anchor="start" x="357.12" y="-77.8" font-family="Monospace" font-size="11.00">random_node/1</text>
<text text-anchor="start" x="444.38" y="-78.58" font-family="Monospace" font-size="9.00"> </text>
<text text-anchor="start" x="352.38" y="-67.7" font-family="Monospace" font-size="9.00"> </text>
<text text-anchor="start" x="387.5" y="-69.22" font-family="Monospace" font-size="7.00">public</text>
<text text-anchor="start" x="444.38" y="-67.7" font-family="Monospace" font-size="9.00"> </text>
</a>
</g>
</g>
</g>
</svg>
