<?xml version="1.0" encoding="UTF-8" standalone="no"?>
<?xml-stylesheet href="diagrams.css" type="text/css"?>
<!DOCTYPE svg PUBLIC "-//W3C//DTD SVG 1.1//EN"
 "http://www.w3.org/Graphics/SVG/1.1/DTD/svg11.dtd">
<!-- Generated by graphviz version 2.49.3 (20211023.0002)
 -->
<!-- Title: uuid_protocol_protocol Pages: 1 -->
<svg width="634pt" height="292pt"
 viewBox="72.00 72.00 562.00 220.00" xmlns="http://www.w3.org/2000/svg" xmlns:xlink="http://www.w3.org/1999/xlink">
<g id="graph0" class="graph" transform="scale(1 1) rotate(0) translate(76 216)">
<title>uuid_protocol_protocol</title>
<polygon fill="white" stroke="transparent" points="-4,4 -4,-144 486,-144 486,4 -4,4"/>
<text text-anchor="start" x="8" y="-29" font-family="Monospace" font-size="10.00" fill="dimgray">Logtalk library</text>
<text text-anchor="start" x="8" y="-18" font-family="Monospace" font-size="10.00" fill="dimgray">Cross&#45;referencing diagram for protocol uuid_protocol</text>
<text text-anchor="start" x="8" y="-7" font-family="Monospace" font-size="10.00" fill="dimgray">Generated on 2021&#45;12&#45;02, 10:35</text>
<g id="clust1" class="cluster">
<title>cluster_uuid_protocol_protocol</title>
<g id="a_clust1"><a xlink:title="uuid_protocol">
<path fill="snow" stroke="dimgray" d="M20,-49C20,-49 462,-49 462,-49 468,-49 474,-55 474,-61 474,-61 474,-120 474,-120 474,-126 468,-132 462,-132 462,-132 20,-132 20,-132 14,-132 8,-126 8,-120 8,-120 8,-61 8,-61 8,-55 14,-49 20,-49"/>
<g id="a_clust1_0"><a xlink:href="https://github.com/LogtalkDotOrg/logtalk3/tree/2075777df771d94dc9e997b55ffd69222c99eb1d/library/uuid/uuid_protocol.lgt" xlink:title="https://github.com/LogtalkDotOrg/logtalk3/tree/2075777df771d94dc9e997b55ffd69222c99eb1d/library/uuid/uuid_protocol.lgt">
<text text-anchor="start" x="20.5" y="-115.5" font-family="Monospace" font-size="10.00" fill="dimgray">uuid_protocol</text>
</a>
</g>
</a>
</g>
</g>
<!-- uuid_v1/2 -->
<g id="node1" class="node">
<title>uuid_v1/2</title>
<g id="a_node1"><a xlink:href="https://github.com/LogtalkDotOrg/logtalk3/tree/2075777df771d94dc9e997b55ffd69222c99eb1d/library/uuid/uuid_protocol.lgt#L31" xlink:title="https://github.com/LogtalkDotOrg/logtalk3/tree/2075777df771d94dc9e997b55ffd69222c99eb1d/library/uuid/uuid_protocol.lgt#L31">
<polygon fill="springgreen" stroke="black" points="464,-95 376,-95 376,-59 464,-59 464,-95"/>
<text text-anchor="start" x="384" y="-79.8" font-family="Monospace" font-size="9.00"> </text>
<text text-anchor="start" x="390" y="-79.2" font-family="Monospace" font-size="11.00">uuid_v1/2</text>
<text text-anchor="start" x="450" y="-79.8" font-family="Monospace" font-size="9.00"> </text>
<text text-anchor="start" x="384" y="-68.8" font-family="Monospace" font-size="9.00"> </text>
<text text-anchor="start" x="407" y="-69.4" font-family="Monospace" font-size="7.00">public</text>
<text text-anchor="start" x="450" y="-68.8" font-family="Monospace" font-size="9.00"> </text>
</a>
</g>
</g>
<!-- uuid_v4/1 -->
<g id="node2" class="node">
<title>uuid_v4/1</title>
<g id="a_node2"><a xlink:href="https://github.com/LogtalkDotOrg/logtalk3/tree/2075777df771d94dc9e997b55ffd69222c99eb1d/library/uuid/uuid_protocol.lgt#L38" xlink:title="https://github.com/LogtalkDotOrg/logtalk3/tree/2075777df771d94dc9e997b55ffd69222c99eb1d/library/uuid/uuid_protocol.lgt#L38">
<polygon fill="springgreen" stroke="black" points="358,-95 270,-95 270,-59 358,-59 358,-95"/>
<text text-anchor="start" x="278" y="-79.8" font-family="Monospace" font-size="9.00"> </text>
<text text-anchor="start" x="284" y="-79.2" font-family="Monospace" font-size="11.00">uuid_v4/1</text>
<text text-anchor="start" x="344" y="-79.8" font-family="Monospace" font-size="9.00"> </text>
<text text-anchor="start" x="278" y="-68.8" font-family="Monospace" font-size="9.00"> </text>
<text text-anchor="start" x="301" y="-69.4" font-family="Monospace" font-size="7.00">public</text>
<text text-anchor="start" x="344" y="-68.8" font-family="Monospace" font-size="9.00"> </text>
</a>
</g>
</g>
<!-- uuid_null/1 -->
<g id="node3" class="node">
<title>uuid_null/1</title>
<g id="a_node3"><a xlink:href="https://github.com/LogtalkDotOrg/logtalk3/tree/2075777df771d94dc9e997b55ffd69222c99eb1d/library/uuid/uuid_protocol.lgt#L45" xlink:title="https://github.com/LogtalkDotOrg/logtalk3/tree/2075777df771d94dc9e997b55ffd69222c99eb1d/library/uuid/uuid_protocol.lgt#L45">
<polygon fill="springgreen" stroke="black" points="251.5,-95 150.5,-95 150.5,-59 251.5,-59 251.5,-95"/>
<text text-anchor="start" x="159" y="-79.8" font-family="Monospace" font-size="9.00"> </text>
<text text-anchor="start" x="165" y="-79.2" font-family="Monospace" font-size="11.00">uuid_null/1</text>
<text text-anchor="start" x="238" y="-79.8" font-family="Monospace" font-size="9.00"> </text>
<text text-anchor="start" x="159" y="-68.8" font-family="Monospace" font-size="9.00"> </text>
<text text-anchor="start" x="188.5" y="-69.4" font-family="Monospace" font-size="7.00">public</text>
<text text-anchor="start" x="238" y="-68.8" font-family="Monospace" font-size="9.00"> </text>
</a>
</g>
</g>
<!-- random_node/1 -->
<g id="node4" class="node">
<title>random_node/1</title>
<g id="a_node4"><a xlink:href="https://github.com/LogtalkDotOrg/logtalk3/tree/2075777df771d94dc9e997b55ffd69222c99eb1d/library/uuid/uuid_protocol.lgt#L52" xlink:title="https://github.com/LogtalkDotOrg/logtalk3/tree/2075777df771d94dc9e997b55ffd69222c99eb1d/library/uuid/uuid_protocol.lgt#L52">
<polygon fill="springgreen" stroke="black" points="132,-95 18,-95 18,-59 132,-59 132,-95"/>
<text text-anchor="start" x="26" y="-79.8" font-family="Monospace" font-size="9.00"> </text>
<text text-anchor="start" x="32" y="-79.2" font-family="Monospace" font-size="11.00">random_node/1</text>
<text text-anchor="start" x="118" y="-79.8" font-family="Monospace" font-size="9.00"> </text>
<text text-anchor="start" x="26" y="-68.8" font-family="Monospace" font-size="9.00"> </text>
<text text-anchor="start" x="62" y="-69.4" font-family="Monospace" font-size="7.00">public</text>
<text text-anchor="start" x="118" y="-68.8" font-family="Monospace" font-size="9.00"> </text>
</a>
</g>
</g>
</g>
</svg>
