<?xml version="1.0" encoding="UTF-8" standalone="no"?>
<?xml-stylesheet href="diagrams.css" type="text/css"?>
<!DOCTYPE svg PUBLIC "-//W3C//DTD SVG 1.1//EN"
 "http://www.w3.org/Graphics/SVG/1.1/DTD/svg11.dtd">
<!-- Generated by graphviz version 11.0.0 (20240428.1522)
 -->
<!-- Title: uuid_protocol_protocol Pages: 1 -->
<svg width="628pt" height="299pt"
 viewBox="72.00 72.00 556.00 227.00" xmlns="http://www.w3.org/2000/svg" xmlns:xlink="http://www.w3.org/1999/xlink">
<g id="graph0" class="graph" transform="scale(1 1) rotate(0) translate(76 223)">
<title>uuid_protocol_protocol</title>
<polygon fill="white" stroke="none" points="-4,4 -4,-151 480,-151 480,4 -4,4"/>
<text text-anchor="start" x="8" y="-32.75" font-family="Monospace" font-size="10.00" fill="dimgray">Logtalk library</text>
<text text-anchor="start" x="8" y="-20" font-family="Monospace" font-size="10.00" fill="dimgray">Cross&#45;referencing diagram for protocol uuid_protocol</text>
<text text-anchor="start" x="8" y="-7.25" font-family="Monospace" font-size="10.00" fill="dimgray">Generated on 2024&#45;06&#45;18, 15:44</text>
<g id="clust1" class="cluster">
<title>cluster_uuid_protocol_protocol</title>
<g id="a_clust1"><a xlink:title="uuid_protocol">
<path fill="snow" stroke="dimgray" d="M20,-54.25C20,-54.25 456,-54.25 456,-54.25 462,-54.25 468,-60.25 468,-66.25 468,-66.25 468,-127 468,-127 468,-133 462,-139 456,-139 456,-139 20,-139 20,-139 14,-139 8,-133 8,-127 8,-127 8,-66.25 8,-66.25 8,-60.25 14,-54.25 20,-54.25"/>
<g id="a_clust1_0"><a xlink:href="https://github.com/LogtalkDotOrg/logtalk3/tree/f7b2df9b4c4e74851a8747a3caccbe4b332351bd/library/uuid/uuid_protocol.lgt" xlink:title="https://github.com/LogtalkDotOrg/logtalk3/tree/f7b2df9b4c4e74851a8747a3caccbe4b332351bd/library/uuid/uuid_protocol.lgt">
<text text-anchor="start" x="20" y="-121.5" font-family="Monospace" font-size="10.00" fill="dimgray">uuid_protocol</text>
</a>
</g>
</a>
</g>
</g>
<!-- uuid_v1/2 -->
<g id="node1" class="node">
<title>uuid_v1/2</title>
<g id="a_node1"><a xlink:href="https://github.com/LogtalkDotOrg/logtalk3/tree/f7b2df9b4c4e74851a8747a3caccbe4b332351bd/library/uuid/uuid_protocol.lgt#L31" xlink:title="https://github.com/LogtalkDotOrg/logtalk3/tree/f7b2df9b4c4e74851a8747a3caccbe4b332351bd/library/uuid/uuid_protocol.lgt#L31">
<polygon fill="springgreen" stroke="black" points="104,-100.25 18,-100.25 18,-64.25 104,-64.25 104,-100.25"/>
<text text-anchor="start" x="25.88" y="-84.83" font-family="Monospace" font-size="9.00"> </text>
<text text-anchor="start" x="30.62" y="-83.8" font-family="Monospace" font-size="11.00">uuid_v1/2</text>
<text text-anchor="start" x="90.88" y="-84.83" font-family="Monospace" font-size="9.00"> </text>
<text text-anchor="start" x="25.88" y="-72.7" font-family="Monospace" font-size="9.00"> </text>
<text text-anchor="start" x="47.5" y="-73.6" font-family="Monospace" font-size="7.00">public</text>
<text text-anchor="start" x="90.88" y="-72.7" font-family="Monospace" font-size="9.00"> </text>
</a>
</g>
</g>
<!-- uuid_v4/1 -->
<g id="node2" class="node">
<title>uuid_v4/1</title>
<g id="a_node2"><a xlink:href="https://github.com/LogtalkDotOrg/logtalk3/tree/f7b2df9b4c4e74851a8747a3caccbe4b332351bd/library/uuid/uuid_protocol.lgt#L38" xlink:title="https://github.com/LogtalkDotOrg/logtalk3/tree/f7b2df9b4c4e74851a8747a3caccbe4b332351bd/library/uuid/uuid_protocol.lgt#L38">
<polygon fill="springgreen" stroke="black" points="208,-100.25 122,-100.25 122,-64.25 208,-64.25 208,-100.25"/>
<text text-anchor="start" x="129.88" y="-84.83" font-family="Monospace" font-size="9.00"> </text>
<text text-anchor="start" x="134.62" y="-83.8" font-family="Monospace" font-size="11.00">uuid_v4/1</text>
<text text-anchor="start" x="194.88" y="-84.83" font-family="Monospace" font-size="9.00"> </text>
<text text-anchor="start" x="129.88" y="-72.7" font-family="Monospace" font-size="9.00"> </text>
<text text-anchor="start" x="151.5" y="-73.6" font-family="Monospace" font-size="7.00">public</text>
<text text-anchor="start" x="194.88" y="-72.7" font-family="Monospace" font-size="9.00"> </text>
</a>
</g>
</g>
<!-- uuid_null/1 -->
<g id="node3" class="node">
<title>uuid_null/1</title>
<g id="a_node3"><a xlink:href="https://github.com/LogtalkDotOrg/logtalk3/tree/f7b2df9b4c4e74851a8747a3caccbe4b332351bd/library/uuid/uuid_protocol.lgt#L45" xlink:title="https://github.com/LogtalkDotOrg/logtalk3/tree/f7b2df9b4c4e74851a8747a3caccbe4b332351bd/library/uuid/uuid_protocol.lgt#L45">
<polygon fill="springgreen" stroke="black" points="326,-100.25 226,-100.25 226,-64.25 326,-64.25 326,-100.25"/>
<text text-anchor="start" x="233.88" y="-84.83" font-family="Monospace" font-size="9.00"> </text>
<text text-anchor="start" x="238.88" y="-83.8" font-family="Monospace" font-size="11.00">uuid_null/1</text>
<text text-anchor="start" x="312.88" y="-84.83" font-family="Monospace" font-size="9.00"> </text>
<text text-anchor="start" x="233.88" y="-72.7" font-family="Monospace" font-size="9.00"> </text>
<text text-anchor="start" x="262.5" y="-73.6" font-family="Monospace" font-size="7.00">public</text>
<text text-anchor="start" x="312.88" y="-72.7" font-family="Monospace" font-size="9.00"> </text>
</a>
</g>
</g>
<!-- random_node/1 -->
<g id="node4" class="node">
<title>random_node/1</title>
<g id="a_node4"><a xlink:href="https://github.com/LogtalkDotOrg/logtalk3/tree/f7b2df9b4c4e74851a8747a3caccbe4b332351bd/library/uuid/uuid_protocol.lgt#L52" xlink:title="https://github.com/LogtalkDotOrg/logtalk3/tree/f7b2df9b4c4e74851a8747a3caccbe4b332351bd/library/uuid/uuid_protocol.lgt#L52">
<polygon fill="springgreen" stroke="black" points="457.5,-100.25 344.5,-100.25 344.5,-64.25 457.5,-64.25 457.5,-100.25"/>
<text text-anchor="start" x="352.38" y="-84.83" font-family="Monospace" font-size="9.00"> </text>
<text text-anchor="start" x="357.12" y="-83.8" font-family="Monospace" font-size="11.00">random_node/1</text>
<text text-anchor="start" x="444.38" y="-84.83" font-family="Monospace" font-size="9.00"> </text>
<text text-anchor="start" x="352.38" y="-72.7" font-family="Monospace" font-size="9.00"> </text>
<text text-anchor="start" x="387.5" y="-73.6" font-family="Monospace" font-size="7.00">public</text>
<text text-anchor="start" x="444.38" y="-72.7" font-family="Monospace" font-size="9.00"> </text>
</a>
</g>
</g>
</g>
</svg>
