<?xml version="1.0" encoding="UTF-8" standalone="no"?>
<?xml-stylesheet href="diagrams.css" type="text/css"?>
<!DOCTYPE svg PUBLIC "-//W3C//DTD SVG 1.1//EN"
 "http://www.w3.org/Graphics/SVG/1.1/DTD/svg11.dtd">
<!-- Generated by graphviz version 9.0.0 (20230911.1827)
 -->
<!-- Title: uuid_protocol_protocol Pages: 1 -->
<svg width="628pt" height="293pt"
 viewBox="72.00 72.00 556.00 221.00" xmlns="http://www.w3.org/2000/svg" xmlns:xlink="http://www.w3.org/1999/xlink">
<g id="graph0" class="graph" transform="scale(1 1) rotate(0) translate(76 217)">
<title>uuid_protocol_protocol</title>
<polygon fill="white" stroke="none" points="-4,4 -4,-145 480,-145 480,4 -4,4"/>
<text text-anchor="start" x="8" y="-28.25" font-family="Monospace" font-size="10.00" fill="dimgray">Logtalk library</text>
<text text-anchor="start" x="8" y="-17" font-family="Monospace" font-size="10.00" fill="dimgray">Cross&#45;referencing diagram for protocol uuid_protocol</text>
<text text-anchor="start" x="8" y="-5.75" font-family="Monospace" font-size="10.00" fill="dimgray">Generated on 2024&#45;01&#45;25, 19:54</text>
<g id="clust1" class="cluster">
<title>cluster_uuid_protocol_protocol</title>
<g id="a_clust1"><a xlink:title="uuid_protocol">
<path fill="snow" stroke="dimgray" d="M20,-49.75C20,-49.75 456,-49.75 456,-49.75 462,-49.75 468,-55.75 468,-61.75 468,-61.75 468,-121 468,-121 468,-127 462,-133 456,-133 456,-133 20,-133 20,-133 14,-133 8,-127 8,-121 8,-121 8,-61.75 8,-61.75 8,-55.75 14,-49.75 20,-49.75"/>
<g id="a_clust1_0"><a xlink:href="https://github.com/LogtalkDotOrg/logtalk3/tree/9992716d05472f4882940825804ad0124c5bd6f0/library/uuid/uuid_protocol.lgt" xlink:title="https://github.com/LogtalkDotOrg/logtalk3/tree/9992716d05472f4882940825804ad0124c5bd6f0/library/uuid/uuid_protocol.lgt">
<text text-anchor="start" x="20" y="-115.5" font-family="Monospace" font-size="10.00" fill="dimgray">uuid_protocol</text>
</a>
</g>
</a>
</g>
</g>
<!-- uuid_v1/2 -->
<g id="node1" class="node">
<title>uuid_v1/2</title>
<g id="a_node1"><a xlink:href="https://github.com/LogtalkDotOrg/logtalk3/tree/9992716d05472f4882940825804ad0124c5bd6f0/library/uuid/uuid_protocol.lgt#L31" xlink:title="https://github.com/LogtalkDotOrg/logtalk3/tree/9992716d05472f4882940825804ad0124c5bd6f0/library/uuid/uuid_protocol.lgt#L31">
<polygon fill="springgreen" stroke="black" points="458,-95.75 372,-95.75 372,-59.75 458,-59.75 458,-95.75"/>
<text text-anchor="start" x="379.88" y="-78.58" font-family="Monospace" font-size="9.00"> </text>
<text text-anchor="start" x="384.62" y="-77.8" font-family="Monospace" font-size="11.00">uuid_v1/2</text>
<text text-anchor="start" x="444.88" y="-78.58" font-family="Monospace" font-size="9.00"> </text>
<text text-anchor="start" x="379.88" y="-67.7" font-family="Monospace" font-size="9.00"> </text>
<text text-anchor="start" x="401.5" y="-69.22" font-family="Monospace" font-size="7.00">public</text>
<text text-anchor="start" x="444.88" y="-67.7" font-family="Monospace" font-size="9.00"> </text>
</a>
</g>
</g>
<!-- uuid_v4/1 -->
<g id="node2" class="node">
<title>uuid_v4/1</title>
<g id="a_node2"><a xlink:href="https://github.com/LogtalkDotOrg/logtalk3/tree/9992716d05472f4882940825804ad0124c5bd6f0/library/uuid/uuid_protocol.lgt#L38" xlink:title="https://github.com/LogtalkDotOrg/logtalk3/tree/9992716d05472f4882940825804ad0124c5bd6f0/library/uuid/uuid_protocol.lgt#L38">
<polygon fill="springgreen" stroke="black" points="354,-95.75 268,-95.75 268,-59.75 354,-59.75 354,-95.75"/>
<text text-anchor="start" x="275.88" y="-78.58" font-family="Monospace" font-size="9.00"> </text>
<text text-anchor="start" x="280.62" y="-77.8" font-family="Monospace" font-size="11.00">uuid_v4/1</text>
<text text-anchor="start" x="340.88" y="-78.58" font-family="Monospace" font-size="9.00"> </text>
<text text-anchor="start" x="275.88" y="-67.7" font-family="Monospace" font-size="9.00"> </text>
<text text-anchor="start" x="297.5" y="-69.22" font-family="Monospace" font-size="7.00">public</text>
<text text-anchor="start" x="340.88" y="-67.7" font-family="Monospace" font-size="9.00"> </text>
</a>
</g>
</g>
<!-- uuid_null/1 -->
<g id="node3" class="node">
<title>uuid_null/1</title>
<g id="a_node3"><a xlink:href="https://github.com/LogtalkDotOrg/logtalk3/tree/9992716d05472f4882940825804ad0124c5bd6f0/library/uuid/uuid_protocol.lgt#L45" xlink:title="https://github.com/LogtalkDotOrg/logtalk3/tree/9992716d05472f4882940825804ad0124c5bd6f0/library/uuid/uuid_protocol.lgt#L45">
<polygon fill="springgreen" stroke="black" points="250,-95.75 150,-95.75 150,-59.75 250,-59.75 250,-95.75"/>
<text text-anchor="start" x="157.88" y="-78.58" font-family="Monospace" font-size="9.00"> </text>
<text text-anchor="start" x="162.88" y="-77.8" font-family="Monospace" font-size="11.00">uuid_null/1</text>
<text text-anchor="start" x="236.88" y="-78.58" font-family="Monospace" font-size="9.00"> </text>
<text text-anchor="start" x="157.88" y="-67.7" font-family="Monospace" font-size="9.00"> </text>
<text text-anchor="start" x="186.5" y="-69.22" font-family="Monospace" font-size="7.00">public</text>
<text text-anchor="start" x="236.88" y="-67.7" font-family="Monospace" font-size="9.00"> </text>
</a>
</g>
</g>
<!-- random_node/1 -->
<g id="node4" class="node">
<title>random_node/1</title>
<g id="a_node4"><a xlink:href="https://github.com/LogtalkDotOrg/logtalk3/tree/9992716d05472f4882940825804ad0124c5bd6f0/library/uuid/uuid_protocol.lgt#L52" xlink:title="https://github.com/LogtalkDotOrg/logtalk3/tree/9992716d05472f4882940825804ad0124c5bd6f0/library/uuid/uuid_protocol.lgt#L52">
<polygon fill="springgreen" stroke="black" points="131.5,-95.75 18.5,-95.75 18.5,-59.75 131.5,-59.75 131.5,-95.75"/>
<text text-anchor="start" x="26.38" y="-78.58" font-family="Monospace" font-size="9.00"> </text>
<text text-anchor="start" x="31.12" y="-77.8" font-family="Monospace" font-size="11.00">random_node/1</text>
<text text-anchor="start" x="118.38" y="-78.58" font-family="Monospace" font-size="9.00"> </text>
<text text-anchor="start" x="26.38" y="-67.7" font-family="Monospace" font-size="9.00"> </text>
<text text-anchor="start" x="61.5" y="-69.22" font-family="Monospace" font-size="7.00">public</text>
<text text-anchor="start" x="118.38" y="-67.7" font-family="Monospace" font-size="9.00"> </text>
</a>
</g>
</g>
</g>
</svg>
