<?xml version="1.0" encoding="UTF-8" standalone="no"?>
<?xml-stylesheet href="diagrams.css" type="text/css"?>
<!DOCTYPE svg PUBLIC "-//W3C//DTD SVG 1.1//EN"
 "http://www.w3.org/Graphics/SVG/1.1/DTD/svg11.dtd">
<!-- Generated by graphviz version 2.50.0 (20211204.2007)
 -->
<!-- Title: write_to_stream_hook_2_object Pages: 1 -->
<svg width="523pt" height="292pt"
 viewBox="72.00 72.00 451.00 220.00" xmlns="http://www.w3.org/2000/svg" xmlns:xlink="http://www.w3.org/1999/xlink">
<g id="graph0" class="graph" transform="scale(1 1) rotate(0) translate(76 216)">
<title>write_to_stream_hook_2_object</title>
<polygon fill="white" stroke="transparent" points="-4,4 -4,-144 375,-144 375,4 -4,4"/>
<text text-anchor="start" x="8" y="-29" font-family="Monospace" font-size="10.00" fill="dimgray">Logtalk library</text>
<text text-anchor="start" x="8" y="-18" font-family="Monospace" font-size="10.00" fill="dimgray">Cross&#45;referencing diagram for object write_to_stream_hook/2</text>
<text text-anchor="start" x="8" y="-7" font-family="Monospace" font-size="10.00" fill="dimgray">Generated on 2022&#45;02&#45;22, 11:27</text>
<g id="clust1" class="cluster">
<title>cluster_write_to_stream_hook_2_object</title>
<g id="a_clust1"><a xlink:title="write_to_stream_hook(Stream,Options)">
<path fill="snow" stroke="dimgray" d="M77,-49C77,-49 294,-49 294,-49 300,-49 306,-55 306,-61 306,-61 306,-120 306,-120 306,-126 300,-132 294,-132 294,-132 77,-132 77,-132 71,-132 65,-126 65,-120 65,-120 65,-61 65,-61 65,-55 71,-49 77,-49"/>
<g id="a_clust1_0"><a xlink:href="https://github.com/LogtalkDotOrg/logtalk3/tree/9a8a264da3977dc2b6c33240583e7fe8176925a3/library/hook_objects/write_to_stream_hook.lgt" xlink:title="https://github.com/LogtalkDotOrg/logtalk3/tree/9a8a264da3977dc2b6c33240583e7fe8176925a3/library/hook_objects/write_to_stream_hook.lgt">
<text text-anchor="start" x="77.5" y="-115.5" font-family="Monospace" font-size="10.00" fill="dimgray">write_to_stream_hook(Stream,Options)</text>
</a>
</g>
</a>
</g>
</g>
<!-- term_expansion/2 -->
<g id="node1" class="node">
<title>term_expansion/2</title>
<g id="a_node1"><a xlink:href="https://github.com/LogtalkDotOrg/logtalk3/tree/9a8a264da3977dc2b6c33240583e7fe8176925a3/library/hook_objects/write_to_stream_hook.lgt#L40" xlink:title="https://github.com/LogtalkDotOrg/logtalk3/tree/9a8a264da3977dc2b6c33240583e7fe8176925a3/library/hook_objects/write_to_stream_hook.lgt#L40">
<polygon fill="cornsilk" stroke="black" points="253.5,-95 116.5,-95 116.5,-59 253.5,-59 253.5,-95"/>
<text text-anchor="start" x="125" y="-79.8" font-family="Monospace" font-size="9.00"> </text>
<text text-anchor="start" x="131" y="-79.2" font-family="Monospace" font-size="11.00">term_expansion/2</text>
<text text-anchor="start" x="240" y="-79.8" font-family="Monospace" font-size="9.00"> </text>
<text text-anchor="start" x="125" y="-68.8" font-family="Monospace" font-size="9.00"> </text>
<text text-anchor="start" x="174" y="-69.4" font-family="Monospace" font-size="7.00">local</text>
<text text-anchor="start" x="240" y="-68.8" font-family="Monospace" font-size="9.00"> </text>
</a>
</g>
</g>
</g>
</svg>
