<?xml version="1.0" encoding="UTF-8" standalone="no"?>
<?xml-stylesheet href="diagrams.css" type="text/css"?>
<!DOCTYPE svg PUBLIC "-//W3C//DTD SVG 1.1//EN"
 "http://www.w3.org/Graphics/SVG/1.1/DTD/svg11.dtd">
<!-- Generated by graphviz version 2.49.4~dev.20211124.1647 (20211124.1647)
 -->
<!-- Title: write_to_stream_hook_2_object Pages: 1 -->
<svg width="463pt" height="292pt"
 viewBox="72.00 72.00 391.00 220.00" xmlns="http://www.w3.org/2000/svg" xmlns:xlink="http://www.w3.org/1999/xlink">
<g id="graph0" class="graph" transform="scale(1 1) rotate(0) translate(76 216)">
<title>write_to_stream_hook_2_object</title>
<polygon fill="white" stroke="transparent" points="-4,4 -4,-144 315,-144 315,4 -4,4"/>
<text text-anchor="start" x="8" y="-29" font-family="Courier,monospace" font-size="10.00" fill="dimgray">Logtalk library</text>
<text text-anchor="start" x="8" y="-18" font-family="Courier,monospace" font-size="10.00" fill="dimgray">Cross&#45;referencing diagram for object write_to_stream_hook/2</text>
<text text-anchor="start" x="8" y="-7" font-family="Courier,monospace" font-size="10.00" fill="dimgray">Generated on 2021&#45;11&#45;24, 21:25</text>
<g id="clust1" class="cluster">
<title>cluster_write_to_stream_hook_2_object</title>
<g id="a_clust1"><a xlink:title="write_to_stream_hook(Stream,Options)">
<path fill="snow" stroke="dimgray" d="M65.5,-49C65.5,-49 245.5,-49 245.5,-49 251.5,-49 257.5,-55 257.5,-61 257.5,-61 257.5,-120 257.5,-120 257.5,-126 251.5,-132 245.5,-132 245.5,-132 65.5,-132 65.5,-132 59.5,-132 53.5,-126 53.5,-120 53.5,-120 53.5,-61 53.5,-61 53.5,-55 59.5,-49 65.5,-49"/>
<g id="a_clust1_0"><a xlink:href="https://github.com/LogtalkDotOrg/logtalk3/tree/1450dd2e30cbc83199a0162ba485cb2893d77c37/library/hook_objects/write_to_stream_hook.lgt" xlink:title="https://github.com/LogtalkDotOrg/logtalk3/tree/1450dd2e30cbc83199a0162ba485cb2893d77c37/library/hook_objects/write_to_stream_hook.lgt">
<text text-anchor="start" x="65.5" y="-115.5" font-family="Courier,monospace" font-size="10.00" fill="dimgray">write_to_stream_hook(Stream,Options)</text>
</a>
</g>
</a>
</g>
</g>
<!-- term_expansion/2 -->
<g id="node1" class="node">
<title>term_expansion/2</title>
<g id="a_node1"><a xlink:href="https://github.com/LogtalkDotOrg/logtalk3/tree/1450dd2e30cbc83199a0162ba485cb2893d77c37/library/hook_objects/write_to_stream_hook.lgt#L40" xlink:title="https://github.com/LogtalkDotOrg/logtalk3/tree/1450dd2e30cbc83199a0162ba485cb2893d77c37/library/hook_objects/write_to_stream_hook.lgt#L40">
<polygon fill="cornsilk" stroke="black" points="212.5,-95 98.5,-95 98.5,-59 212.5,-59 212.5,-95"/>
<text text-anchor="start" x="106.5" y="-79.8" font-family="Courier,monospace" font-size="9.00"> </text>
<text text-anchor="start" x="111.5" y="-79.2" font-family="Courier,monospace" font-size="11.00">term_expansion/2</text>
<text text-anchor="start" x="199.5" y="-79.8" font-family="Courier,monospace" font-size="9.00"> </text>
<text text-anchor="start" x="106.5" y="-68.8" font-family="Courier,monospace" font-size="9.00"> </text>
<text text-anchor="start" x="146.5" y="-69.4" font-family="Courier,monospace" font-size="7.00">local</text>
<text text-anchor="start" x="199.5" y="-68.8" font-family="Courier,monospace" font-size="9.00"> </text>
</a>
</g>
</g>
</g>
</svg>
