<?xml version="1.0" encoding="UTF-8" standalone="no"?>
<?xml-stylesheet href="diagrams.css" type="text/css"?>
<!DOCTYPE svg PUBLIC "-//W3C//DTD SVG 1.1//EN"
 "http://www.w3.org/Graphics/SVG/1.1/DTD/svg11.dtd">
<!-- Generated by graphviz version 10.0.1 (20240210.2158)
 -->
<!-- Title: write_to_stream_hook_2_object Pages: 1 -->
<svg width="522pt" height="293pt"
 viewBox="72.00 72.00 450.00 221.00" xmlns="http://www.w3.org/2000/svg" xmlns:xlink="http://www.w3.org/1999/xlink">
<g id="graph0" class="graph" transform="scale(1 1) rotate(0) translate(76 217)">
<title>write_to_stream_hook_2_object</title>
<polygon fill="white" stroke="none" points="-4,4 -4,-145 374,-145 374,4 -4,4"/>
<text text-anchor="start" x="8" y="-28.25" font-family="Monospace" font-size="10.00" fill="dimgray">Logtalk library</text>
<text text-anchor="start" x="8" y="-17" font-family="Monospace" font-size="10.00" fill="dimgray">Cross&#45;referencing diagram for object write_to_stream_hook/2</text>
<text text-anchor="start" x="8" y="-5.75" font-family="Monospace" font-size="10.00" fill="dimgray">Generated on 2024&#45;03&#45;27, 15:43</text>
<g id="clust1" class="cluster">
<title>cluster_write_to_stream_hook_2_object</title>
<g id="a_clust1"><a xlink:title="write_to_stream_hook(Stream,Options)">
<path fill="snow" stroke="dimgray" d="M77,-49.75C77,-49.75 293,-49.75 293,-49.75 299,-49.75 305,-55.75 305,-61.75 305,-61.75 305,-121 305,-121 305,-127 299,-133 293,-133 293,-133 77,-133 77,-133 71,-133 65,-127 65,-121 65,-121 65,-61.75 65,-61.75 65,-55.75 71,-49.75 77,-49.75"/>
<g id="a_clust1_0"><a xlink:href="https://github.com/LogtalkDotOrg/logtalk3/tree/547c4be437dce8caffc096ebbe54ab79d05447fb/library/hook_objects/write_to_stream_hook.lgt" xlink:title="https://github.com/LogtalkDotOrg/logtalk3/tree/547c4be437dce8caffc096ebbe54ab79d05447fb/library/hook_objects/write_to_stream_hook.lgt">
<text text-anchor="start" x="77" y="-115.5" font-family="Monospace" font-size="10.00" fill="dimgray">write_to_stream_hook(Stream,Options)</text>
</a>
</g>
</a>
</g>
</g>
<!-- term_expansion/2 -->
<g id="node1" class="node">
<title>term_expansion/2</title>
<g id="a_node1"><a xlink:href="https://github.com/LogtalkDotOrg/logtalk3/tree/547c4be437dce8caffc096ebbe54ab79d05447fb/library/hook_objects/write_to_stream_hook.lgt#L41" xlink:title="https://github.com/LogtalkDotOrg/logtalk3/tree/547c4be437dce8caffc096ebbe54ab79d05447fb/library/hook_objects/write_to_stream_hook.lgt#L41">
<polygon fill="cornsilk" stroke="black" points="252,-95.75 118,-95.75 118,-59.75 252,-59.75 252,-95.75"/>
<text text-anchor="start" x="125.88" y="-78.58" font-family="Monospace" font-size="9.00"> </text>
<text text-anchor="start" x="131" y="-77.8" font-family="Monospace" font-size="11.00">term_expansion/2</text>
<text text-anchor="start" x="238.88" y="-78.58" font-family="Monospace" font-size="9.00"> </text>
<text text-anchor="start" x="125.88" y="-67.7" font-family="Monospace" font-size="9.00"> </text>
<text text-anchor="start" x="173.75" y="-69.22" font-family="Monospace" font-size="7.00">local</text>
<text text-anchor="start" x="238.88" y="-67.7" font-family="Monospace" font-size="9.00"> </text>
</a>
</g>
</g>
</g>
</svg>
