<?xml version="1.0" encoding="UTF-8" standalone="no"?>
<?xml-stylesheet href="diagrams.css" type="text/css"?>
<!DOCTYPE svg PUBLIC "-//W3C//DTD SVG 1.1//EN"
 "http://www.w3.org/Graphics/SVG/1.1/DTD/svg11.dtd">
<!-- Generated by graphviz version 2.43.20191029.1313 (20191029.1313)
 -->
<!-- Title: write_to_stream_hook_2_object Pages: 1 -->
<svg width="522pt" height="288pt"
 viewBox="72.00 72.00 450.06 216.00" xmlns="http://www.w3.org/2000/svg" xmlns:xlink="http://www.w3.org/1999/xlink">
<g id="graph0" class="graph" transform="scale(1 1) rotate(0) translate(76 212)">
<title>write_to_stream_hook_2_object</title>
<polygon fill="white" stroke="transparent" points="-4,4 -4,-140 374.06,-140 374.06,4 -4,4"/>
<text text-anchor="start" x="8" y="-26" font-family="Courier,monospace" font-size="10.00" fill="dimgray">Logtalk library</text>
<text text-anchor="start" x="8" y="-16" font-family="Courier,monospace" font-size="10.00" fill="dimgray">Cross&#45;referencing diagram for object write_to_stream_hook/2</text>
<text text-anchor="start" x="8" y="-6" font-family="Courier,monospace" font-size="10.00" fill="dimgray">Generated on 2020&#45;05&#45;25, 21:55</text>
<g id="clust1" class="cluster">
<title>cluster_write_to_stream_hook_2_object</title>
<g id="a_clust1"><a xlink:title="write_to_stream_hook(Stream,Options)">
<path fill="snow" stroke="dimgray" d="M77.03,-46C77.03,-46 293.03,-46 293.03,-46 299.03,-46 305.03,-52 305.03,-58 305.03,-58 305.03,-116 305.03,-116 305.03,-122 299.03,-128 293.03,-128 293.03,-128 77.03,-128 77.03,-128 71.03,-128 65.03,-122 65.03,-116 65.03,-116 65.03,-58 65.03,-58 65.03,-52 71.03,-46 77.03,-46"/>
<g id="a_clust1_0"><a xlink:href="https://github.com/LogtalkDotOrg/logtalk3/tree/ee3e469ba16664bcc8b3b120a4a0bb7672d96db2/library/hook_objects/write_to_stream_hook.lgt" xlink:title="https://github.com/LogtalkDotOrg/logtalk3/tree/ee3e469ba16664bcc8b3b120a4a0bb7672d96db2/library/hook_objects/write_to_stream_hook.lgt">
<text text-anchor="start" x="77.01" y="-112" font-family="Courier,monospace" font-size="10.00" fill="dimgray">write_to_stream_hook(Stream,Options)</text>
</a>
</g>
</a>
</g>
</g>
<!-- term_expansion/2 -->
<g id="node1" class="node">
<title>term_expansion/2</title>
<g id="a_node1"><a xlink:href="https://github.com/LogtalkDotOrg/logtalk3/tree/ee3e469ba16664bcc8b3b120a4a0bb7672d96db2/library/hook_objects/write_to_stream_hook.lgt#L39" xlink:title="https://github.com/LogtalkDotOrg/logtalk3/tree/ee3e469ba16664bcc8b3b120a4a0bb7672d96db2/library/hook_objects/write_to_stream_hook.lgt#L39">
<polygon fill="cornsilk" stroke="black" points="250.53,-92 119.53,-92 119.53,-56 250.53,-56 250.53,-92"/>
<text text-anchor="start" x="127.83" y="-75.8" font-family="Courier,monospace" font-size="9.00"> </text>
<text text-anchor="start" x="132.72" y="-75.2" font-family="Courier,monospace" font-size="11.00">term_expansion/2</text>
<text text-anchor="start" x="237.83" y="-75.8" font-family="Courier,monospace" font-size="9.00"> </text>
<text text-anchor="start" x="127.83" y="-65.8" font-family="Courier,monospace" font-size="9.00"> </text>
<text text-anchor="start" x="175.03" y="-66.4" font-family="Courier,monospace" font-size="7.00">local</text>
<text text-anchor="start" x="237.83" y="-65.8" font-family="Courier,monospace" font-size="9.00"> </text>
</a>
</g>
</g>
</g>
</svg>
