<?xml version="1.0" encoding="UTF-8" standalone="no"?>
<?xml-stylesheet href="diagrams.css" type="text/css"?>
<!DOCTYPE svg PUBLIC "-//W3C//DTD SVG 1.1//EN"
 "http://www.w3.org/Graphics/SVG/1.1/DTD/svg11.dtd">
<!-- Generated by graphviz version 2.50.0 (20211204.2007)
 -->
<!-- Title: write_to_file_hook_2_object Pages: 1 -->
<svg width="511pt" height="292pt"
 viewBox="72.00 72.00 439.00 220.00" xmlns="http://www.w3.org/2000/svg" xmlns:xlink="http://www.w3.org/1999/xlink">
<g id="graph0" class="graph" transform="scale(1 1) rotate(0) translate(76 216)">
<title>write_to_file_hook_2_object</title>
<polygon fill="white" stroke="transparent" points="-4,4 -4,-144 363,-144 363,4 -4,4"/>
<text text-anchor="start" x="8" y="-29" font-family="Monospace" font-size="10.00" fill="dimgray">Logtalk library</text>
<text text-anchor="start" x="8" y="-18" font-family="Monospace" font-size="10.00" fill="dimgray">Cross&#45;referencing diagram for object write_to_file_hook/2</text>
<text text-anchor="start" x="8" y="-7" font-family="Monospace" font-size="10.00" fill="dimgray">Generated on 2022&#45;07&#45;21, 09:36</text>
<g id="clust1" class="cluster">
<title>cluster_write_to_file_hook_2_object</title>
<g id="a_clust1"><a xlink:title="write_to_file_hook(File,Options)">
<path fill="snow" stroke="dimgray" d="M83,-49C83,-49 276,-49 276,-49 282,-49 288,-55 288,-61 288,-61 288,-120 288,-120 288,-126 282,-132 276,-132 276,-132 83,-132 83,-132 77,-132 71,-126 71,-120 71,-120 71,-61 71,-61 71,-55 77,-49 83,-49"/>
<g id="a_clust1_0"><a xlink:href="https://github.com/LogtalkDotOrg/logtalk3/tree/acae17950103741ba31215fb9b3bf4f94029ff6a/library/hook_objects/write_to_file_hook.lgt" xlink:title="https://github.com/LogtalkDotOrg/logtalk3/tree/acae17950103741ba31215fb9b3bf4f94029ff6a/library/hook_objects/write_to_file_hook.lgt">
<text text-anchor="start" x="83.5" y="-115.5" font-family="Monospace" font-size="10.00" fill="dimgray">write_to_file_hook(File,Options)</text>
</a>
</g>
</a>
</g>
</g>
<!-- term_expansion/2 -->
<g id="node1" class="node">
<title>term_expansion/2</title>
<g id="a_node1"><a xlink:href="https://github.com/LogtalkDotOrg/logtalk3/tree/acae17950103741ba31215fb9b3bf4f94029ff6a/library/hook_objects/write_to_file_hook.lgt#L41" xlink:title="https://github.com/LogtalkDotOrg/logtalk3/tree/acae17950103741ba31215fb9b3bf4f94029ff6a/library/hook_objects/write_to_file_hook.lgt#L41">
<polygon fill="cornsilk" stroke="black" points="247.5,-95 110.5,-95 110.5,-59 247.5,-59 247.5,-95"/>
<text text-anchor="start" x="119" y="-79.8" font-family="Monospace" font-size="9.00"> </text>
<text text-anchor="start" x="125" y="-79.2" font-family="Monospace" font-size="11.00">term_expansion/2</text>
<text text-anchor="start" x="234" y="-79.8" font-family="Monospace" font-size="9.00"> </text>
<text text-anchor="start" x="119" y="-68.8" font-family="Monospace" font-size="9.00"> </text>
<text text-anchor="start" x="168" y="-69.4" font-family="Monospace" font-size="7.00">local</text>
<text text-anchor="start" x="234" y="-68.8" font-family="Monospace" font-size="9.00"> </text>
</a>
</g>
</g>
</g>
</svg>
