<?xml version="1.0" encoding="UTF-8" standalone="no"?>
<?xml-stylesheet href="diagrams.css" type="text/css"?>
<!DOCTYPE svg PUBLIC "-//W3C//DTD SVG 1.1//EN"
 "http://www.w3.org/Graphics/SVG/1.1/DTD/svg11.dtd">
<!-- Generated by graphviz version 11.0.0 (20240428.1522)
 -->
<!-- Title: write_to_file_hook_2_object Pages: 1 -->
<svg width="510pt" height="299pt"
 viewBox="72.00 72.00 438.00 227.00" xmlns="http://www.w3.org/2000/svg" xmlns:xlink="http://www.w3.org/1999/xlink">
<g id="graph0" class="graph" transform="scale(1 1) rotate(0) translate(76 223)">
<title>write_to_file_hook_2_object</title>
<polygon fill="white" stroke="none" points="-4,4 -4,-151 362,-151 362,4 -4,4"/>
<text text-anchor="start" x="8" y="-32.75" font-family="Monospace" font-size="10.00" fill="dimgray">Logtalk library</text>
<text text-anchor="start" x="8" y="-20" font-family="Monospace" font-size="10.00" fill="dimgray">Cross&#45;referencing diagram for object write_to_file_hook/2</text>
<text text-anchor="start" x="8" y="-7.25" font-family="Monospace" font-size="10.00" fill="dimgray">Generated on 2024&#45;06&#45;25, 19:57</text>
<g id="clust1" class="cluster">
<title>cluster_write_to_file_hook_2_object</title>
<g id="a_clust1"><a xlink:title="write_to_file_hook(File,Options)">
<path fill="snow" stroke="dimgray" d="M83,-54.25C83,-54.25 275,-54.25 275,-54.25 281,-54.25 287,-60.25 287,-66.25 287,-66.25 287,-127 287,-127 287,-133 281,-139 275,-139 275,-139 83,-139 83,-139 77,-139 71,-133 71,-127 71,-127 71,-66.25 71,-66.25 71,-60.25 77,-54.25 83,-54.25"/>
<g id="a_clust1_0"><a xlink:href="https://github.com/LogtalkDotOrg/logtalk3/tree/1332b7e4285d76d194ea8670399a93d31a9e3ccf/library/hook_objects/write_to_file_hook.lgt" xlink:title="https://github.com/LogtalkDotOrg/logtalk3/tree/1332b7e4285d76d194ea8670399a93d31a9e3ccf/library/hook_objects/write_to_file_hook.lgt">
<text text-anchor="start" x="83" y="-121.5" font-family="Monospace" font-size="10.00" fill="dimgray">write_to_file_hook(File,Options)</text>
</a>
</g>
</a>
</g>
</g>
<!-- term_expansion/2 -->
<g id="node1" class="node">
<title>term_expansion/2</title>
<g id="a_node1"><a xlink:href="https://github.com/LogtalkDotOrg/logtalk3/tree/1332b7e4285d76d194ea8670399a93d31a9e3ccf/library/hook_objects/write_to_file_hook.lgt#L41" xlink:title="https://github.com/LogtalkDotOrg/logtalk3/tree/1332b7e4285d76d194ea8670399a93d31a9e3ccf/library/hook_objects/write_to_file_hook.lgt#L41">
<polygon fill="cornsilk" stroke="black" points="246,-100.25 112,-100.25 112,-64.25 246,-64.25 246,-100.25"/>
<text text-anchor="start" x="119.88" y="-84.83" font-family="Monospace" font-size="9.00"> </text>
<text text-anchor="start" x="125" y="-83.8" font-family="Monospace" font-size="11.00">term_expansion/2</text>
<text text-anchor="start" x="232.88" y="-84.83" font-family="Monospace" font-size="9.00"> </text>
<text text-anchor="start" x="119.88" y="-72.7" font-family="Monospace" font-size="9.00"> </text>
<text text-anchor="start" x="167.75" y="-73.6" font-family="Monospace" font-size="7.00">local</text>
<text text-anchor="start" x="232.88" y="-72.7" font-family="Monospace" font-size="9.00"> </text>
</a>
</g>
</g>
</g>
</svg>
