<?xml version="1.0" encoding="UTF-8" standalone="no"?>
<?xml-stylesheet href="diagrams.css" type="text/css"?>
<!DOCTYPE svg PUBLIC "-//W3C//DTD SVG 1.1//EN"
 "http://www.w3.org/Graphics/SVG/1.1/DTD/svg11.dtd">
<!-- Generated by graphviz version 8.1.0 (20230707.0739)
 -->
<!-- Title: write_to_file_hook_2_object Pages: 1 -->
<svg width="510pt" height="293pt"
 viewBox="72.00 72.00 438.00 221.00" xmlns="http://www.w3.org/2000/svg" xmlns:xlink="http://www.w3.org/1999/xlink">
<g id="graph0" class="graph" transform="scale(1 1) rotate(0) translate(76 217)">
<title>write_to_file_hook_2_object</title>
<polygon fill="white" stroke="none" points="-4,4 -4,-145 362,-145 362,4 -4,4"/>
<text text-anchor="start" x="8" y="-28.25" font-family="Monospace" font-size="10.00" fill="dimgray">Logtalk library</text>
<text text-anchor="start" x="8" y="-17" font-family="Monospace" font-size="10.00" fill="dimgray">Cross&#45;referencing diagram for object write_to_file_hook/2</text>
<text text-anchor="start" x="8" y="-5.75" font-family="Monospace" font-size="10.00" fill="dimgray">Generated on 2023&#45;08&#45;11, 21:58</text>
<g id="clust1" class="cluster">
<title>cluster_write_to_file_hook_2_object</title>
<g id="a_clust1"><a xlink:title="write_to_file_hook(File,Options)">
<path fill="snow" stroke="dimgray" d="M83,-49.75C83,-49.75 275,-49.75 275,-49.75 281,-49.75 287,-55.75 287,-61.75 287,-61.75 287,-121 287,-121 287,-127 281,-133 275,-133 275,-133 83,-133 83,-133 77,-133 71,-127 71,-121 71,-121 71,-61.75 71,-61.75 71,-55.75 77,-49.75 83,-49.75"/>
<g id="a_clust1_0"><a xlink:href="https://github.com/LogtalkDotOrg/logtalk3/tree/759ae9ec1968f5a58f118802206e3fbf38fe31fc/library/hook_objects/write_to_file_hook.lgt" xlink:title="https://github.com/LogtalkDotOrg/logtalk3/tree/759ae9ec1968f5a58f118802206e3fbf38fe31fc/library/hook_objects/write_to_file_hook.lgt">
<text text-anchor="start" x="83" y="-115.5" font-family="Monospace" font-size="10.00" fill="dimgray">write_to_file_hook(File,Options)</text>
</a>
</g>
</a>
</g>
</g>
<!-- term_expansion/2 -->
<g id="node1" class="node">
<title>term_expansion/2</title>
<g id="a_node1"><a xlink:href="https://github.com/LogtalkDotOrg/logtalk3/tree/759ae9ec1968f5a58f118802206e3fbf38fe31fc/library/hook_objects/write_to_file_hook.lgt#L41" xlink:title="https://github.com/LogtalkDotOrg/logtalk3/tree/759ae9ec1968f5a58f118802206e3fbf38fe31fc/library/hook_objects/write_to_file_hook.lgt#L41">
<polygon fill="cornsilk" stroke="black" points="246,-95.75 112,-95.75 112,-59.75 246,-59.75 246,-95.75"/>
<text text-anchor="start" x="119.88" y="-78.58" font-family="Monospace" font-size="9.00"> </text>
<text text-anchor="start" x="125" y="-77.8" font-family="Monospace" font-size="11.00">term_expansion/2</text>
<text text-anchor="start" x="232.88" y="-78.58" font-family="Monospace" font-size="9.00"> </text>
<text text-anchor="start" x="119.88" y="-67.7" font-family="Monospace" font-size="9.00"> </text>
<text text-anchor="start" x="167.75" y="-69.22" font-family="Monospace" font-size="7.00">local</text>
<text text-anchor="start" x="232.88" y="-67.7" font-family="Monospace" font-size="9.00"> </text>
</a>
</g>
</g>
</g>
</svg>
