<?xml version="1.0" encoding="UTF-8" standalone="no"?>
<?xml-stylesheet href="diagrams.css" type="text/css"?>
<!DOCTYPE svg PUBLIC "-//W3C//DTD SVG 1.1//EN"
 "http://www.w3.org/Graphics/SVG/1.1/DTD/svg11.dtd">
<!-- Generated by graphviz version 9.0.0 (20230911.1827)
 -->
<!-- Title: xhtml11_object Pages: 1 -->
<svg width="432pt" height="293pt"
 viewBox="72.00 72.00 360.00 221.00" xmlns="http://www.w3.org/2000/svg" xmlns:xlink="http://www.w3.org/1999/xlink">
<g id="graph0" class="graph" transform="scale(1 1) rotate(0) translate(76 217)">
<title>xhtml11_object</title>
<polygon fill="white" stroke="none" points="-4,4 -4,-145 284,-145 284,4 -4,4"/>
<text text-anchor="start" x="8" y="-28.25" font-family="Monospace" font-size="10.00" fill="dimgray">Logtalk library</text>
<text text-anchor="start" x="8" y="-17" font-family="Monospace" font-size="10.00" fill="dimgray">Cross&#45;referencing diagram for object xhtml11</text>
<text text-anchor="start" x="8" y="-5.75" font-family="Monospace" font-size="10.00" fill="dimgray">Generated on 2023&#45;11&#45;14, 10:14</text>
<g id="clust1" class="cluster">
<title>cluster_xhtml11_object</title>
<g id="a_clust1"><a xlink:title="xhtml11">
<path fill="snow" stroke="dimgray" d="M99,-49.75C99,-49.75 181,-49.75 181,-49.75 187,-49.75 193,-55.75 193,-61.75 193,-61.75 193,-121 193,-121 193,-127 187,-133 181,-133 181,-133 99,-133 99,-133 93,-133 87,-127 87,-121 87,-121 87,-61.75 87,-61.75 87,-55.75 93,-49.75 99,-49.75"/>
<g id="a_clust1_0"><a xlink:href="https://github.com/LogtalkDotOrg/logtalk3/tree/10aa8c2853793923da67b861f25266dd336e486e/library/html/html.lgt" xlink:title="https://github.com/LogtalkDotOrg/logtalk3/tree/10aa8c2853793923da67b861f25266dd336e486e/library/html/html.lgt">
<text text-anchor="start" x="99" y="-115.5" font-family="Monospace" font-size="10.00" fill="dimgray">xhtml11</text>
</a>
</g>
</a>
</g>
</g>
<!-- doctype/1 -->
<g id="node1" class="node">
<title>doctype/1</title>
<g id="a_node1"><a xlink:href="https://github.com/LogtalkDotOrg/logtalk3/tree/10aa8c2853793923da67b861f25266dd336e486e/library/html/html.lgt#L361" xlink:title="https://github.com/LogtalkDotOrg/logtalk3/tree/10aa8c2853793923da67b861f25266dd336e486e/library/html/html.lgt#L361">
<polygon fill="cornsilk" stroke="black" points="183,-95.75 97,-95.75 97,-59.75 183,-59.75 183,-95.75"/>
<text text-anchor="start" x="104.88" y="-78.58" font-family="Monospace" font-size="9.00"> </text>
<text text-anchor="start" x="109.62" y="-77.8" font-family="Monospace" font-size="11.00">doctype/1</text>
<text text-anchor="start" x="169.88" y="-78.58" font-family="Monospace" font-size="9.00"> </text>
<text text-anchor="start" x="104.88" y="-67.7" font-family="Monospace" font-size="9.00"> </text>
<text text-anchor="start" x="128.75" y="-69.22" font-family="Monospace" font-size="7.00">local</text>
<text text-anchor="start" x="169.88" y="-67.7" font-family="Monospace" font-size="9.00"> </text>
</a>
</g>
</g>
</g>
</svg>
