<?xml version="1.0" encoding="UTF-8" standalone="no"?>
<?xml-stylesheet href="diagrams.css" type="text/css"?>
<!DOCTYPE svg PUBLIC "-//W3C//DTD SVG 1.1//EN"
 "http://www.w3.org/Graphics/SVG/1.1/DTD/svg11.dtd">
<!-- Generated by graphviz version 11.0.0 (20240428.1522)
 -->
<!-- Title: xhtml11_object Pages: 1 -->
<svg width="432pt" height="299pt"
 viewBox="72.00 72.00 360.00 227.00" xmlns="http://www.w3.org/2000/svg" xmlns:xlink="http://www.w3.org/1999/xlink">
<g id="graph0" class="graph" transform="scale(1 1) rotate(0) translate(76 223)">
<title>xhtml11_object</title>
<polygon fill="white" stroke="none" points="-4,4 -4,-151 284,-151 284,4 -4,4"/>
<text text-anchor="start" x="8" y="-32.75" font-family="Monospace" font-size="10.00" fill="dimgray">Logtalk library</text>
<text text-anchor="start" x="8" y="-20" font-family="Monospace" font-size="10.00" fill="dimgray">Cross&#45;referencing diagram for object xhtml11</text>
<text text-anchor="start" x="8" y="-7.25" font-family="Monospace" font-size="10.00" fill="dimgray">Generated on 2024&#45;06&#45;12, 02:10</text>
<g id="clust1" class="cluster">
<title>cluster_xhtml11_object</title>
<g id="a_clust1"><a xlink:title="xhtml11">
<path fill="snow" stroke="dimgray" d="M99,-54.25C99,-54.25 181,-54.25 181,-54.25 187,-54.25 193,-60.25 193,-66.25 193,-66.25 193,-127 193,-127 193,-133 187,-139 181,-139 181,-139 99,-139 99,-139 93,-139 87,-133 87,-127 87,-127 87,-66.25 87,-66.25 87,-60.25 93,-54.25 99,-54.25"/>
<g id="a_clust1_0"><a xlink:href="https://github.com/LogtalkDotOrg/logtalk3/tree/a18f1be0a84c69b89c891f11a24f6faf11adfced/library/html/html.lgt" xlink:title="https://github.com/LogtalkDotOrg/logtalk3/tree/a18f1be0a84c69b89c891f11a24f6faf11adfced/library/html/html.lgt">
<text text-anchor="start" x="99" y="-121.5" font-family="Monospace" font-size="10.00" fill="dimgray">xhtml11</text>
</a>
</g>
</a>
</g>
</g>
<!-- doctype/1 -->
<g id="node1" class="node">
<title>doctype/1</title>
<g id="a_node1"><a xlink:href="https://github.com/LogtalkDotOrg/logtalk3/tree/a18f1be0a84c69b89c891f11a24f6faf11adfced/library/html/html.lgt#L361" xlink:title="https://github.com/LogtalkDotOrg/logtalk3/tree/a18f1be0a84c69b89c891f11a24f6faf11adfced/library/html/html.lgt#L361">
<polygon fill="cornsilk" stroke="black" points="183,-100.25 97,-100.25 97,-64.25 183,-64.25 183,-100.25"/>
<text text-anchor="start" x="104.88" y="-84.83" font-family="Monospace" font-size="9.00"> </text>
<text text-anchor="start" x="109.62" y="-83.8" font-family="Monospace" font-size="11.00">doctype/1</text>
<text text-anchor="start" x="169.88" y="-84.83" font-family="Monospace" font-size="9.00"> </text>
<text text-anchor="start" x="104.88" y="-72.7" font-family="Monospace" font-size="9.00"> </text>
<text text-anchor="start" x="128.75" y="-73.6" font-family="Monospace" font-size="7.00">local</text>
<text text-anchor="start" x="169.88" y="-72.7" font-family="Monospace" font-size="9.00"> </text>
</a>
</g>
</g>
</g>
</svg>
