<?xml version="1.0" encoding="UTF-8" standalone="no"?>
<?xml-stylesheet href="diagrams.css" type="text/css"?>
<!DOCTYPE svg PUBLIC "-//W3C//DTD SVG 1.1//EN"
 "http://www.w3.org/Graphics/SVG/1.1/DTD/svg11.dtd">
<!-- Generated by graphviz version 2.50.0 (20211204.2007)
 -->
<!-- Title: xhtml11_object Pages: 1 -->
<svg width="433pt" height="292pt"
 viewBox="72.00 72.00 361.00 220.00" xmlns="http://www.w3.org/2000/svg" xmlns:xlink="http://www.w3.org/1999/xlink">
<g id="graph0" class="graph" transform="scale(1 1) rotate(0) translate(76 216)">
<title>xhtml11_object</title>
<polygon fill="white" stroke="transparent" points="-4,4 -4,-144 285,-144 285,4 -4,4"/>
<text text-anchor="start" x="8" y="-29" font-family="Monospace" font-size="10.00" fill="dimgray">Logtalk library</text>
<text text-anchor="start" x="8" y="-18" font-family="Monospace" font-size="10.00" fill="dimgray">Cross&#45;referencing diagram for object xhtml11</text>
<text text-anchor="start" x="8" y="-7" font-family="Monospace" font-size="10.00" fill="dimgray">Generated on 2022&#45;08&#45;14, 20:37</text>
<g id="clust1" class="cluster">
<title>cluster_xhtml11_object</title>
<g id="a_clust1"><a xlink:title="xhtml11">
<path fill="snow" stroke="dimgray" d="M97.5,-49C97.5,-49 183.5,-49 183.5,-49 189.5,-49 195.5,-55 195.5,-61 195.5,-61 195.5,-120 195.5,-120 195.5,-126 189.5,-132 183.5,-132 183.5,-132 97.5,-132 97.5,-132 91.5,-132 85.5,-126 85.5,-120 85.5,-120 85.5,-61 85.5,-61 85.5,-55 91.5,-49 97.5,-49"/>
<g id="a_clust1_0"><a xlink:href="https://github.com/LogtalkDotOrg/logtalk3/tree/020acbc66437c08f019ad5401d82760a238efb4e/library/html/html.lgt" xlink:title="https://github.com/LogtalkDotOrg/logtalk3/tree/020acbc66437c08f019ad5401d82760a238efb4e/library/html/html.lgt">
<text text-anchor="start" x="98" y="-115.5" font-family="Monospace" font-size="10.00" fill="dimgray">xhtml11</text>
</a>
</g>
</a>
</g>
</g>
<!-- doctype/1 -->
<g id="node1" class="node">
<title>doctype/1</title>
<g id="a_node1"><a xlink:href="https://github.com/LogtalkDotOrg/logtalk3/tree/020acbc66437c08f019ad5401d82760a238efb4e/library/html/html.lgt#L361" xlink:title="https://github.com/LogtalkDotOrg/logtalk3/tree/020acbc66437c08f019ad5401d82760a238efb4e/library/html/html.lgt#L361">
<polygon fill="cornsilk" stroke="black" points="185,-95 96,-95 96,-59 185,-59 185,-95"/>
<text text-anchor="start" x="104.5" y="-79.8" font-family="Monospace" font-size="9.00"> </text>
<text text-anchor="start" x="110.5" y="-79.2" font-family="Monospace" font-size="11.00">doctype/1</text>
<text text-anchor="start" x="171.5" y="-79.8" font-family="Monospace" font-size="9.00"> </text>
<text text-anchor="start" x="104.5" y="-68.8" font-family="Monospace" font-size="9.00"> </text>
<text text-anchor="start" x="129.5" y="-69.4" font-family="Monospace" font-size="7.00">local</text>
<text text-anchor="start" x="171.5" y="-68.8" font-family="Monospace" font-size="9.00"> </text>
</a>
</g>
</g>
</g>
</svg>
