<?xml version="1.0" encoding="UTF-8" standalone="no"?>
<?xml-stylesheet href="diagrams.css" type="text/css"?>
<!DOCTYPE svg PUBLIC "-//W3C//DTD SVG 1.1//EN"
 "http://www.w3.org/Graphics/SVG/1.1/DTD/svg11.dtd">
<!-- Generated by graphviz version 2.49.3 (20211023.0002)
 -->
<!-- Title: xhtml11_object Pages: 1 -->
<svg width="388pt" height="292pt"
 viewBox="72.00 72.00 316.00 220.00" xmlns="http://www.w3.org/2000/svg" xmlns:xlink="http://www.w3.org/1999/xlink">
<g id="graph0" class="graph" transform="scale(1 1) rotate(0) translate(76 216)">
<title>xhtml11_object</title>
<polygon fill="white" stroke="transparent" points="-4,4 -4,-144 240,-144 240,4 -4,4"/>
<text text-anchor="start" x="8" y="-29" font-family="Courier,monospace" font-size="10.00" fill="dimgray">Logtalk library</text>
<text text-anchor="start" x="8" y="-18" font-family="Courier,monospace" font-size="10.00" fill="dimgray">Cross&#45;referencing diagram for object xhtml11</text>
<text text-anchor="start" x="8" y="-7" font-family="Courier,monospace" font-size="10.00" fill="dimgray">Generated on 2021&#45;11&#45;06, 11:19</text>
<g id="clust1" class="cluster">
<title>cluster_xhtml11_object</title>
<g id="a_clust1"><a xlink:title="xhtml11">
<path fill="snow" stroke="dimgray" d="M82,-49C82,-49 154,-49 154,-49 160,-49 166,-55 166,-61 166,-61 166,-120 166,-120 166,-126 160,-132 154,-132 154,-132 82,-132 82,-132 76,-132 70,-126 70,-120 70,-120 70,-61 70,-61 70,-55 76,-49 82,-49"/>
<g id="a_clust1_0"><a xlink:href="https://github.com/LogtalkDotOrg/logtalk3/tree/a3989fb2f1e2fb4f9cfaf08f25bcd7b146d4b396/library/html/html.lgt" xlink:title="https://github.com/LogtalkDotOrg/logtalk3/tree/a3989fb2f1e2fb4f9cfaf08f25bcd7b146d4b396/library/html/html.lgt">
<text text-anchor="start" x="82.5" y="-115.5" font-family="Courier,monospace" font-size="10.00" fill="dimgray">xhtml11</text>
</a>
</g>
</a>
</g>
</g>
<!-- doctype/1 -->
<g id="node1" class="node">
<title>doctype/1</title>
<g id="a_node1"><a xlink:href="https://github.com/LogtalkDotOrg/logtalk3/tree/a3989fb2f1e2fb4f9cfaf08f25bcd7b146d4b396/library/html/html.lgt#L361" xlink:title="https://github.com/LogtalkDotOrg/logtalk3/tree/a3989fb2f1e2fb4f9cfaf08f25bcd7b146d4b396/library/html/html.lgt#L361">
<polygon fill="cornsilk" stroke="black" points="156,-95 80,-95 80,-59 156,-59 156,-95"/>
<text text-anchor="start" x="88" y="-79.8" font-family="Courier,monospace" font-size="9.00"> </text>
<text text-anchor="start" x="93" y="-79.2" font-family="Courier,monospace" font-size="11.00">doctype/1</text>
<text text-anchor="start" x="143" y="-79.8" font-family="Courier,monospace" font-size="9.00"> </text>
<text text-anchor="start" x="88" y="-68.8" font-family="Courier,monospace" font-size="9.00"> </text>
<text text-anchor="start" x="109" y="-69.4" font-family="Courier,monospace" font-size="7.00">local</text>
<text text-anchor="start" x="143" y="-68.8" font-family="Courier,monospace" font-size="9.00"> </text>
</a>
</g>
</g>
</g>
</svg>
