<?xml version="1.0" encoding="UTF-8" standalone="no"?>
<?xml-stylesheet href="diagrams.css" type="text/css"?>
<!DOCTYPE svg PUBLIC "-//W3C//DTD SVG 1.1//EN"
 "http://www.w3.org/Graphics/SVG/1.1/DTD/svg11.dtd">
<!-- Generated by graphviz version 12.2.1 (20241206.2353)
 -->
<!-- Title: xhtml11_object Pages: 1 -->
<svg width="432pt" height="299pt"
 viewBox="72.00 72.00 360.00 227.00" xmlns="http://www.w3.org/2000/svg" xmlns:xlink="http://www.w3.org/1999/xlink">
<g id="graph0" class="graph" transform="scale(1 1) rotate(0) translate(76 223)">
<title>xhtml11_object</title>
<polygon fill="white" stroke="none" points="-4,4 -4,-151 284,-151 284,4 -4,4"/>
<text text-anchor="start" x="8" y="-32.75" font-family="Monospace" font-size="10.00" fill="dimgray">Logtalk library</text>
<text text-anchor="start" x="8" y="-20" font-family="Monospace" font-size="10.00" fill="dimgray">Cross&#45;referencing diagram for object xhtml11</text>
<text text-anchor="start" x="8" y="-7.25" font-family="Monospace" font-size="10.00" fill="dimgray">Generated on 2024&#45;12&#45;16, 18:25</text>
<g id="clust1" class="cluster">
<title>cluster_xhtml11_object</title>
<g id="a_clust1"><a xlink:title="xhtml11">
<path fill="snow" stroke="dimgray" d="M98,-54.25C98,-54.25 182,-54.25 182,-54.25 188,-54.25 194,-60.25 194,-66.25 194,-66.25 194,-127 194,-127 194,-133 188,-139 182,-139 182,-139 98,-139 98,-139 92,-139 86,-133 86,-127 86,-127 86,-66.25 86,-66.25 86,-60.25 92,-54.25 98,-54.25"/>
<g id="a_clust1_0"><a xlink:href="https://github.com/LogtalkDotOrg/logtalk3/tree/b269d66a29f1e53bcf2213f65b99771e00c43c33/library/html/html.lgt" xlink:title="https://github.com/LogtalkDotOrg/logtalk3/tree/b269d66a29f1e53bcf2213f65b99771e00c43c33/library/html/html.lgt">
<text text-anchor="start" x="98" y="-121.5" font-family="Monospace" font-size="10.00" fill="dimgray">xhtml11</text>
</a>
</g>
</a>
</g>
</g>
<!-- doctype/1 -->
<g id="node1" class="node">
<title>doctype/1</title>
<g id="a_node1"><a xlink:href="https://github.com/LogtalkDotOrg/logtalk3/tree/b269d66a29f1e53bcf2213f65b99771e00c43c33/library/html/html.lgt#L361" xlink:title="https://github.com/LogtalkDotOrg/logtalk3/tree/b269d66a29f1e53bcf2213f65b99771e00c43c33/library/html/html.lgt#L361">
<polygon fill="cornsilk" stroke="black" points="183.62,-100.25 96.38,-100.25 96.38,-64.25 183.62,-64.25 183.62,-100.25"/>
<text text-anchor="start" x="104.38" y="-84.95" font-family="Monospace" font-size="9.00"> </text>
<text text-anchor="start" x="109.62" y="-84.17" font-family="Monospace" font-size="11.00">doctype/1</text>
<text text-anchor="start" x="170.38" y="-84.95" font-family="Monospace" font-size="9.00"> </text>
<text text-anchor="start" x="104.38" y="-72.58" font-family="Monospace" font-size="9.00"> </text>
<text text-anchor="start" x="128.75" y="-73.35" font-family="Monospace" font-size="7.00">local</text>
<text text-anchor="start" x="170.38" y="-72.58" font-family="Monospace" font-size="9.00"> </text>
</a>
</g>
</g>
</g>
</svg>
